<?xml version="1.0" encoding="UTF-8"?><svg xmlns="http://www.w3.org/2000/svg" viewBox="0 0 419.48 265.3"><defs><style>.e{fill:#ad7766;}.f{fill:#c47b49;}.g{fill:#c6977b;}.h{fill:#bc7171;}.i{fill:#6a964d;}.j{fill:#77b566;}.k{stroke-width:2px;}.k,.l{fill:none;stroke:#3f2a25;stroke-linecap:round;stroke-linejoin:round;}.m{fill:#e09f57;}</style></defs><g id="a"><path class="k" d="M279.49,128.2c.11-.07,.23-.15,.34-.23,10.72-7,29.79-23.54,33.39-21.05,4.66,3.22-7.56,16.88-14.94,26.01"/><path class="k" d="M270.97,127.55h-.01c-.01-.14-.02-.28-.03-.41-.16-2.19-.05-4.49-1.95-4.49-.84,0-2.1,1.61-3.3,4.01"/><path class="k" d="M143.68,167.27v.3c0,32.72,.25,59.86,81.52,59.86s81.52-27.15,81.52-59.87v-.29"/><path class="k" d="M306.72,167.56c3.27-4.14,3.27-8.98,3.27-14.14"/><path class="k" d="M140.4,153.42c0,5.17,0,10.01,3.28,14.15"/><line class="k" x1="270.97" y1="127.55" x2="270.96" y2="127.55"/><path class="k" d="M140.39,153.41c0-.85,0-1.7,.02-2.53,0-.32,.01-.64,.02-.95,.04-1.14,.12-2.26,.28-3.36v-.03"/><path class="k" d="M142.37,140.86c-4.48-3.1-7.32-6.04-5.87-8.25,1.14-1.75,7.1-.84,14.4,.87"/><path class="k" d="M140.4,153.01v-.87c0-.75,0-1.49,.03-2.21,.08-3.22,.44-6.28,1.94-9.07"/><path class="k" d="M298.28,132.93c11.71,5.05,11.71,12.18,11.71,20.08"/><path class="k" d="M150.9,133.48c2.15-1.03,4.74-1.97,7.87-2.83,7.03-1.93,16.76-3.4,30.22-4.31,4.71-.32,9.89-.56,15.57-.73,6.25-.19,13.11-.29,20.64-.29,10.58,0,19.84,.19,27.95,.56,.71,.03,1.42,.07,2.11,.1,3.72,.19,7.19,.42,10.42,.68"/><path class="k" d="M279.49,128.2c-2.62-.4-5.47-.75-8.56-1.06"/></g><g id="b"><g><path class="h" d="M140.39,151.93c0-.75,.01-1.49,.03-2.21,.04-1.14,.12-2.26,.28-3.36,.37,2.36,1.09,4.58,2.58,6.65,.04,.07,.09,.13,.14,.2,2.79,3.74,8.15,6.92,18.42,9.3,6.24,1.43,14.3,2.57,24.69,3.34h0c6.56,.5,14.04,.84,22.59,1.03,4.98,.11,10.33,.17,16.06,.17s11.15-.06,16.16-.17c3.38-.07,6.59-.17,9.65-.3,2.62-.1,5.12-.23,7.51-.37,9.19-.54,16.73-1.33,22.94-2.33,15.01-2.44,22.13-6.15,25.5-10.68,.05-.07,.1-.13,.14-.2,1.51-2.08,2.22-4.34,2.57-6.71v-.02h.01c.32,2.24,.32,4.57,.32,6.93,0,5.26,0,10.18-3.44,14.37-6.58,7.99-25.71,13.33-81.36,13.33s-74.77-5.34-81.35-13.33c-3.44-4.19-3.44-9.11-3.44-14.37h-.01c0-.42,0-.85,.01-1.27Z"/><path class="h" d="M309.66,146.27h-.01v.02c-.35,2.37-1.06,4.63-2.57,6.71-.04-.07-.09-.14-.14-.21-1.45-1.94-3.59-3.73-6.75-5.33,.82-1,1.22-1.86,1.12-2.46-.77-4.82-7.56-.78-8.13-4.32-.17-1.13,1.92-4.01,4.85-7.66l.24-.3c8.21,3.54,10.66,8.3,11.39,13.55Z"/><path class="h" d="M306.54,167.57l.16,.16c0,32.85,0,59.49-81.51,59.49s-81.52-26.64-81.52-59.49l.16-.16c6.58,7.99,25.71,13.33,81.35,13.33s74.78-5.34,81.36-13.33Z"/><path class="h" d="M299.95,147.75c.08-.1,.17-.19,.24-.29,3.16,1.6,5.3,3.39,6.75,5.33,.05,.07,.1,.14,.14,.21-.04,.07-.09,.13-.14,.2-3.37,4.53-10.49,8.24-25.5,10.68h0c-.19-1.98-.68-3.98-1.4-5.96,9.1-1.82,16.87-6.72,19.91-10.17Z"/><path class="h" d="M270.96,127.33h-.01c0-.13-.02-.27-.03-.4,3.09,.31,5.94,.66,8.56,1.06-.17,.11-.34,.22-.52,.32-2.5,1.6-4.47,2.56-5.55,2.48-1.86-.14-2.3-1.7-2.45-3.46Z"/><path class="h" d="M270.92,126.93c.01,.13,.02,.27,.03,.4h.01c.15,1.76,.59,3.32,2.45,3.46,1.08,.08,3.05-.88,5.55-2.48,.18-.1,.35-.21,.52-.32,.11-.07,.23-.15,.34-.23,10.72-7,29.79-23.54,33.39-21.05,4.66,3.22-7.56,16.88-14.94,26.01l-.24,.3c-2.93,3.65-5.02,6.53-4.85,7.66,.57,3.54,7.36-.5,8.13,4.32,.1,.6-.3,1.46-1.12,2.46-.07,.1-.16,.19-.24,.29-3.04,3.45-10.81,8.35-19.91,10.17-1.25-3.37-3.21-6.64-5.69-9.5-.42-.49-.84-.96-1.29-1.41-2.65-2.74-5.77-4.98-9.13-6.45-.41-.18-.83-.35-1.25-.5h-.01c-.14-.06-.29-.12-.44-.17h0c0-4.36,1.55-9.49,3.25-13.06,.06-.13,.12-.26,.19-.38,1.2-2.4,2.46-4.01,3.3-4.01,1.9,0,1.79,2.3,1.95,4.49Z"/><path class="h" d="M258.5,166.21c-2.39,.14-4.89,.27-7.51,.37-1.24-1.24-2.51-2.44-3.79-3.65-.23-.22-.47-.44-.7-.65h-.01c-.07-.08-.14-.15-.21-.2-.07-.08-.14-.13-.2-.18h-.01c-.83-.8-1.67-1.56-2.53-2.3-.98-.9-1.98-1.77-2.98-2.63-.42-.37-.84-.73-1.26-1.08-1.26-1.07-2.53-2.1-3.8-3.13,.67-.95,1.34-1.86,2.02-2.73,.21-.29,.43-.56,.66-.84,9.38,4.24,16.79,9.09,20.32,17.02Z"/><path class="h" d="M249.12,139.76s0,0,0,0t0,0h0Z"/><path class="h" d="M240.84,146.07c2.8-3.03,5.59-5.27,8.27-6.31,0,0,0,0,0,0h.02c.32-.14,.63-.25,.95-.34,.04-.01,.07-.02,.11-.03,2.3-.66,4.59-.84,6.85-.63h.01c1.77,.14,3.49,.55,5.17,1.13,.15,.05,.3,.11,.44,.17h.01c.42,.15,.84,.32,1.25,.5,3.36,1.47,6.48,3.71,9.13,6.45,.45,.45,.87,.92,1.29,1.41,2.48,2.86,4.44,6.13,5.69,9.5,.72,1.98,1.21,3.98,1.4,5.95h0c-6.21,1.01-13.75,1.8-22.94,2.34-3.53-7.93-10.94-12.78-20.32-17.02,.86-1.11,1.76-2.17,2.64-3.12h.02Z"/><path class="h" d="M241.34,166.88c1.41-1.5,3.07-2.98,5.15-4.6h.01c.23,.21,.47,.43,.7,.65,1.28,1.21,2.55,2.41,3.79,3.65-3.06,.13-6.27,.23-9.65,.3Z"/><path class="h" d="M246.08,161.9c.06,.05,.13,.1,.2,.18-.06-.06-.13-.12-.2-.18Z"/><path class="h" d="M243.54,159.6c.86,.74,1.7,1.5,2.53,2.3-.83-.79-1.67-1.55-2.53-2.3Z"/><path class="h" d="M246.08,161.9c.07,.06,.14,.12,.2,.18,.07,.05,.14,.12,.21,.2-2.08,1.62-3.74,3.1-5.15,4.6-5.01,.11-10.39,.17-16.16,.17s-11.08-.06-16.06-.17c.15-8.49,4.88-15.8,11.56-23.37l.32-.59c.71,.38,1.43,.78,2.16,1.21,3.96,2.32,8.14,5.32,12.34,8.64,1.27,1.02,2.54,2.06,3.8,3.12,.42,.35,.84,.71,1.26,1.08,1,.86,2,1.73,2.98,2.63,.86,.75,1.7,1.51,2.53,2.3h.01Z"/><path class="h" d="M221,142.92l-.32,.59c-6.68,7.57-11.41,14.88-11.56,23.37-8.55-.19-16.03-.53-22.59-1.02h0c.15-8,3.68-16.62,9.7-21.94,1.96-1.74,4.19-3.1,6.65-3.98,.01-.01,.03-.02,.04-.03,.21-.08,.42-.15,.64-.22,.02,0,.03-.01,.04-.01,.59-.19,1.19-.34,1.8-.47h.01c.34-.07,.68-.14,1.02-.19,.29-.04,.58-.06,.86-.11,1.11-.11,2.31-.05,3.6,.17h.01c.1,0,.21,.03,.31,.05,.48,.08,.95,.19,1.44,.33,2.56,.66,5.37,1.86,8.35,3.46Z"/><path class="h" d="M212.65,139.46c-.49-.14-.96-.25-1.44-.33,.03-.02,.05-.04,.08-.06,4.36-.08,8.99-.12,13.9-.12,9.32,0,17.62,.15,25.01,.44-.04,.01-.07,.02-.11,.03-.32,.09-.63,.2-.95,.34h-.02s0-.02,0,0c-2.68,1.04-5.47,3.28-8.27,6.31h-.02c-.88,.95-1.78,2.01-2.64,3.12-.23,.28-.45,.55-.66,.84-.68,.87-1.35,1.78-2.02,2.73,1.27,1.03,2.54,2.06,3.8,3.13-1.26-1.06-2.53-2.1-3.8-3.12-4.2-3.32-8.38-6.32-12.34-8.64-.73-.43-1.45-.83-2.16-1.21-2.98-1.6-5.79-2.8-8.35-3.46Z"/><path class="h" d="M211.29,139.07s-.05,.04-.08,.06c-.1-.02-.21-.04-.31-.05,.13-.01,.26-.01,.39-.01Z"/><path class="h" d="M211.29,139.07c-.13,0-.26,0-.39,.01h-.01c-1.29-.22-2.49-.28-3.6-.17-.28,.05-.57,.07-.86,.11-.34,.05-.68,.12-1.02,.19h-.01c-.6,.02-1.2,.04-1.78,.06-3.41,.11-6.63,.24-9.68,.4-3.58-5.43-9-10.01-10.54-9.39-3.29,1.35,2.94,7.5-.97,9.43-1.06,.52-3.56,.29-6.91-.36-3.91-.75-8.95-2.07-14.13-3.43-3.36-.87-6.76-1.77-9.94-2.52-.19-.04-.37-.09-.56-.13,2.15-1.03,4.74-1.97,7.87-2.83,7.03-1.93,16.76-3.4,30.22-4.31,4.71-.32,9.89-.56,15.57-.73,6.25-.19,13.11-.29,20.64-.29,10.58,0,19.84,.19,27.95,.56,.71,.03,1.42,.07,2.11,.1,3.72,.19,7.19,.42,10.42,.68-.07,.12-.13,.25-.19,.38-1.7,3.57-3.25,8.7-3.25,13.05h0c-1.68-.57-3.4-.98-5.17-1.12h-.01c-2.26-.21-4.55-.03-6.85,.63-7.39-.29-15.69-.44-25.01-.44-4.91,0-9.54,.04-13.9,.12Z"/><path class="h" d="M202.92,139.91c.24-.21,.47-.42,.7-.64,.58-.02,1.18-.04,1.78-.06-.61,.13-1.21,.28-1.8,.47-.01,0-.02,.01-.04,.01-.22,.07-.43,.14-.64,.22Z"/><path class="h" d="M202.92,139.91s-.03,.02-.04,.03c-2.46,.88-4.69,2.24-6.65,3.98-.58-1.42-1.37-2.86-2.29-4.25,3.05-.16,6.27-.29,9.68-.4-.23,.22-.46,.43-.7,.64Z"/><path class="h" d="M193.94,139.67c.92,1.39,1.71,2.83,2.29,4.25-6.02,5.32-9.55,13.94-9.7,21.93-10.39-.77-18.45-1.91-24.69-3.34v-.02c0-3.74,6.75-2.91,6-6.17-.4-1.76-7.72-5.43-15.24-9.56h-.01c-.14-.08-.29-.16-.43-.23-3.42-1.9-6.85-3.87-9.65-5.78-.05-.03-.1-.07-.15-.1-4.49-3.1-7.32-6.04-5.87-8.26,1.14-1.74,7.09-.84,14.4,.88,.19,.04,.37,.09,.56,.13,3.18,.75,6.58,1.65,9.94,2.52,5.18,1.36,10.22,2.68,14.13,3.43,3.35,.65,5.85,.88,6.91,.36,3.91-1.93-2.32-8.08,.97-9.43,1.54-.62,6.96,3.96,10.54,9.39Z"/><path class="h" d="M152.16,146.53c.14,.07,.29,.15,.43,.23h.01c7.52,4.13,14.84,7.8,15.24,9.56,.75,3.26-6,2.43-6,6.17v.02c-10.27-2.38-15.63-5.56-18.42-9.3-.05-.07-.1-.13-.14-.2,.04-.07,.09-.13,.14-.2,1.74-2.33,4.47-4.45,8.74-6.28Z"/><path class="h" d="M140.7,146.36c-.16,1.1-.24,2.22-.28,3.36,.08-3.22,.44-6.28,1.94-9.07,.05,.03,.1,.07,.15,.1,2.8,1.91,6.23,3.88,9.65,5.78-4.27,1.83-7,3.95-8.74,6.28-.05,.07-.1,.13-.14,.2-1.49-2.07-2.21-4.29-2.58-6.65Z"/></g></g><g id="c"><g><path class="j" d="M313.21,106.65c1.45,1,1.27,3.01,.1,5.58,0,.01-.01,.01-.01,.02-7.51,9.8-13.49,15.75-17.72,19.65-5.63,5.19-8.17,6.78-7.14,9,.78,1.69,2.64,2.68,3.84,3.79,.69,.63,1.16,1.3,1.12,2.15-.15,3.13-8.34,7.31-14.33,8.74-.93-1.99-2.11-3.91-3.49-5.7,2.88-1.07,5.15-2.32,4.95-3.11-.16-.62-1.61-.97-3.63-.93,1.09-1.04,2.26-2.36,3.25-3.69,1.81-2.39,3.06-4.82,2.31-5.71-1.05-1.25-6.48,2.44-9.34,4.79-.71,.59-1.27,1.09-1.55,1.41-.63,.71-.62,1.71-.28,2.64-2.23-1.99-4.72-3.62-7.36-4.78-.11-.05-.22-.1-.34-.14h-.01c-.44-.19-.9-.36-1.35-.53h0c0-4.36,1.55-9.49,3.25-13.06,.02-.03,.03-.07,.05-.1,1.25-2.56,2.57-4.29,3.44-4.29,1.99,0,1.78,2.51,1.97,4.78,0,.04,.01,.07,.01,.11h.01s.01,.07,.01,.1h-.11c0,1.93-1.65,4.56-.63,5.18,1.11,.68,3.82-1.58,5.88-2.65,.04-.02,.07-.03,.1-.05,.82-.41,1.74-.95,2.75-1.6,.05-.03,.09-.06,.14-.09h.01c.24-.14,.47-.29,.71-.46,10.72-7,29.79-23.54,33.39-21.05Z"/><path class="e" d="M306.98,153.08c1.57-2.11,2.31-4.42,2.67-6.85,.32,2.22,.32,4.53,.32,6.91h.01c0,5.27,0,10.18-3.44,14.37-2.68,3.25-7.45,6.07-15.92,8.26,2.81-2.58,2.36-10.54,.08-13.64l-.05-.2c8.9-2.31,13.7-5.32,16.29-8.79,.01-.02,.03-.04,.04-.06Z"/><path class="e" d="M309.65,146.22h0c-.36,2.44-1.1,4.75-2.67,6.86-.01-.02-.03-.04-.04-.06-1.45-1.94-3.59-3.73-6.75-5.34-.06-.03-.11-.06-.17-.08,.94-1.08,1.4-2.02,1.29-2.66-.77-4.82-7.56-.78-8.13-4.32-.17-1.13,1.92-4.01,4.85-7.66,8.35,3.54,10.87,8.11,11.62,13.26Z"/><path class="i" d="M313.3,112.25c-2.61,5.76-10.12,14.32-15.2,20.63-.03,.03-.05,.05-.07,.08-2.93,3.65-5.02,6.53-4.85,7.66,.57,3.54,7.36-.5,8.13,4.32,.11,.64-.35,1.58-1.29,2.66-.02,.03-.04,.06-.07,.09-3.04,3.45-10.81,8.35-19.91,10.17-.28-.77-.61-1.53-.97-2.28,5.99-1.43,14.18-5.61,14.33-8.74,.04-.85-.43-1.52-1.12-2.15-1.2-1.11-3.06-2.1-3.84-3.79-1.03-2.22,1.51-3.81,7.14-9,4.23-3.9,10.21-9.85,17.72-19.65Z"/><path class="g" d="M306.94,153.02s.03,.04,.04,.06c-.01,.02-.03,.04-.04,.06-1.48-1.98-3.7-3.82-6.99-5.45,.03-.03,.05-.06,.07-.09,.06,.02,.11,.05,.17,.08,3.16,1.61,5.3,3.4,6.75,5.34Z"/><path class="e" d="M306.54,167.51l.16,.16c0,30.73,0,56.02-66.69,59.16,2.38-.48,31.69-1.98,46.59-23.29,4.9-7.01,6.76-16.83,7.45-23.54-17.85,4.07-52.58,4.47-73.71,.93v-.1c1.58,0,3.19,0,4.84,0,32.97,0,53.13-1.87,65.44-5.07,8.47-2.19,13.24-5.01,15.92-8.26Z"/><path class="e" d="M299.95,147.69c3.29,1.63,5.51,3.47,6.99,5.45-2.59,3.47-7.39,6.48-16.29,8.79-2.69,.69-5.74,1.33-9.21,1.9v-.02c-.19-1.97-.68-3.97-1.4-5.95,9.1-1.82,16.87-6.72,19.91-10.17Z"/><path class="g" d="M294.05,180c-.69,6.71-2.55,16.53-7.45,23.54-14.9,21.31-44.21,22.81-46.59,23.29h-.02c-4.61,.22-9.53,.33-14.8,.33-81.52,0-81.52-26.63-81.52-59.49l.16-.14c6.41,7.74,24.62,12.99,76.51,13.3v.1c21.13,3.54,55.86,3.14,73.71-.93Z"/><path class="g" d="M140.39,152.16c0-.75,0-1.49,.03-2.21,.01-.27,.02-.54,.02-.81,.01-.06,.01-.12,.01-.18,.01-.14,.02-.28,.03-.41,0-.33,.04-.66,.07-.98,.01-.21,.03-.41,.06-.61l.09-.66c.37,2.41,1.12,4.68,2.68,6.8,.01,.02,.03,.04,.04,.06,2.79,3.74,8.15,6.92,18.42,9.29,6.24,1.44,14.3,2.58,24.69,3.35,6.56,.5,14.04,.84,22.59,1.03,1.85,.04,3.75,.08,5.7,.11,3.3,.04,6.76,.06,10.36,.06,5.76,0,11.13-.06,16.14-.17,3.39-.07,6.62-.17,9.68-.3,2.62-.1,5.12-.23,7.51-.37,9.18-.54,16.73-1.33,22.93-2.33,3.47-.57,6.52-1.21,9.21-1.9l.05,.2c2.28,3.1,2.73,11.06-.08,13.64-12.31,3.2-32.47,5.07-65.44,5.07-1.65,0-3.26,0-4.84,0-51.89-.31-70.1-5.56-76.51-13.3-3.45-4.19-3.45-9.11-3.45-14.38h0c0-.34,0-.67,.01-.99Z"/><path class="i" d="M282.46,136.44c.75,.89-.5,3.32-2.31,5.71-.99,1.33-2.16,2.65-3.25,3.69-.43,0-.89,.03-1.37,.07-1.23,.05-1.66,.99-1.61,1.95-.29-.32-.56-.61-.86-.91-.57-.58-1.16-1.15-1.77-1.67-.34-.93-.35-1.93,.28-2.64,.28-.32,.84-.82,1.55-1.41,2.86-2.35,8.29-6.04,9.34-4.79Z"/><path class="f" d="M281.44,163.81v.02c-6.2,1-13.75,1.79-22.93,2.33-.68-1.54-1.51-2.96-2.47-4.28,9.86-3.36,19.11-7.59,18.33-12.57,.3,.44,.72,.7,1.18,.58,.01,0,.02-.01,.03-.01,1.38,1.79,2.56,3.71,3.49,5.7,.36,.75,.69,1.51,.97,2.28,.72,1.98,1.21,3.98,1.4,5.95Z"/><path class="i" d="M280.53,146.77c.2,.79-2.07,2.04-4.95,3.11-.39-.52-.8-1.02-1.23-1.51-.14-.17-.29-.33-.43-.5,.65-.06,1.76-.87,2.98-2.03,2.02-.04,3.47,.31,3.63,.93Z"/><path class="g" d="M279.1,128.16s-.09,.06-.14,.09c-1.01,.65-1.93,1.19-2.75,1.6-.03,.02-.06,.03-.1,.05-1.15,.57-2.07,.88-2.7,.83-1.82-.14-2.28-1.64-2.44-3.36,0-.03-.01-.07-.01-.1h-.01s-.01-.07-.01-.11c2.93,.3,5.65,.63,8.16,1Z"/><path class="i" d="M275.53,145.91c.48-.04,.94-.07,1.37-.07-1.22,1.16-2.33,1.97-2.98,2.03h0c-.05-.97,.38-1.91,1.61-1.96Z"/><path class="g" d="M274.37,149.31c-.26-.39-.43-.91-.45-1.44,.14,.17,.29,.33,.43,.5,.43,.49,.84,.99,1.23,1.51-.01,0-.02,.01-.03,.01-.46,.12-.88-.14-1.18-.58Z"/><path class="m" d="M240.83,146.01c2.81-3.03,5.6-5.26,8.28-6.31,0,0,0-.01,.01,0h.01c.09-.04,.18-.08,.27-.11,.23-.09,.46-.17,.69-.23,2.34-.68,4.66-.87,6.96-.66,1.77,.14,3.5,.55,5.18,1.13,.45,.17,.91,.34,1.35,.53h.01c.12,.04,.23,.09,.34,.14,2.64,1.16,5.13,2.79,7.36,4.78,.45,1.26,1.51,2.42,2.43,2.59,.06,.01,.13,.01,.2,0,.02,.53,.19,1.05,.45,1.44,.78,4.98-8.47,9.21-18.33,12.57-4-5.51-10.29-9.32-17.86-12.75,.86-1.1,1.76-2.17,2.64-3.12h.01Z"/><path class="g" d="M273.92,147.86h0c-.07,.02-.14,.02-.2,.01-.92-.17-1.98-1.33-2.43-2.59,.61,.52,1.2,1.09,1.77,1.67,.3,.3,.57,.59,.86,.91Z"/><path class="i" d="M273.41,130.73c.63,.05,1.55-.26,2.7-.83-2.06,1.07-4.77,3.33-5.88,2.65-1.02-.62,.63-3.25,.63-5.17h.11c.16,1.71,.62,3.21,2.44,3.35Z"/><path class="g" d="M205.26,139.18c-.4,.08-.78,.18-1.17,.3h-.02c-.15,.01-.3,.01-.45,.02-.11,0-.22,.01-.33,.01-3.22,.11-6.28,.23-9.17,.38-1.99-3.09-4.59-5.92-6.78-7.72h0v-.02c-1.76-1.43-3.25-2.2-3.94-1.92-3.3,1.34,2.94,7.5-.97,9.43-1.06,.51-3.57,.28-6.91-.37-3.91-.75-8.96-2.07-14.13-3.43-3.36-.87-6.76-1.77-9.94-2.52,2.08-.94,4.54-1.81,7.48-2.61-.02-.03-.03-.06-.05-.09,6.62-1.81,15.61-3.21,27.84-4.12,.73-.05,1.47-.11,2.22-.16h.04c4.69-.32,9.85-.56,15.5-.73h.07c6.25-.19,13.11-.29,20.64-.29,8,0,15.24,.11,21.8,.32,2.12,.07,4.17,.15,6.15,.24,.04,0,.07,0,.11,.01h.01c.67,.02,1.33,.06,1.98,.09h.01c.13,.01,.27,.01,.4,.02,2.34,.12,4.57,.26,6.71,.41,1.08,.08,2.14,.16,3.17,.24-.02,.03-.03,.07-.05,.1-1.7,3.57-3.25,8.7-3.25,13.05h0c-1.68-.57-3.41-.98-5.18-1.12-2.3-.21-4.62-.02-6.96,.66-.23,.06-.46,.14-.69,.23-7.19-.27-15.23-.41-24.21-.41-4.57,0-8.89,.03-12.98,.1h-.01c-.33-.09-.66-.16-.99-.21-1.4-.26-2.72-.34-3.92-.22-.28,.05-.57,.07-.86,.11-.39,.06-.78,.13-1.16,.22h-.01Z"/><path class="f" d="M256.04,161.88c.96,1.32,1.79,2.74,2.47,4.28-2.39,.14-4.89,.27-7.51,.37-.61-.61-1.24-1.22-1.87-1.82-.16-.16-.33-.32-.49-.47,2.41-.73,4.92-1.52,7.4-2.36Z"/><path class="m" d="M238.18,149.13c7.57,3.43,13.86,7.24,17.86,12.75-2.48,.84-4.99,1.63-7.4,2.36-.48-.46-.96-.92-1.44-1.37-.23-.22-.47-.43-.71-.65-.13-.14-.28-.27-.42-.38-.83-.79-1.67-1.55-2.53-2.3-.98-.9-1.98-1.77-2.98-2.63-1.67-1.45-3.37-2.84-5.06-4.2,.67-.96,1.33-1.87,2.01-2.74,.22-.28,.44-.56,.67-.84Z"/><path class="f" d="M248.64,164.24c.16,.15,.33,.31,.49,.47,.63,.6,1.25,1.2,1.87,1.82-3.06,.13-6.29,.23-9.68,.3,1.42-1.51,3.09-2.99,5.17-4.61,.24,.22,.48,.43,.71,.65,.48,.45,.96,.91,1.44,1.37Z"/><path class="g" d="M251,166.53c-.62-.62-1.24-1.22-1.87-1.82,.63,.6,1.26,1.21,1.87,1.82Z"/><path class="e" d="M249.12,139.69s-.01-.01-.01,.01c-2.68,1.05-5.47,3.28-8.28,6.31h-.01c-.88,.95-1.78,2.02-2.64,3.12-.23,.28-.45,.56-.67,.84-.68,.87-1.34,1.78-2.01,2.74-4.2-3.32-8.38-6.32-12.34-8.64-.69-.4-1.37-.79-2.04-1.14-3.02-1.64-5.88-2.86-8.47-3.53-.15-.04-.3-.08-.44-.12,4.09-.07,8.41-.1,12.98-.1,8.98,0,17.02,.14,24.21,.41-.09,.03-.18,.07-.27,.11h-.01Z"/><path class="g" d="M249.12,139.69h0s-.01,.01-.01,.01t.01-.01Z"/><path class="f" d="M246.07,161.84c.14,.11,.29,.24,.42,.38-2.08,1.62-3.75,3.1-5.17,4.61-5.01,.11-10.38,.17-16.14,.17-3.6,0-7.06-.02-10.36-.06,7.2-.27,19.12-1.76,20.28-5.66,1.31-4.46-6.37-11.7-15.39-16.71,.46-.55,.93-1.09,1.41-1.64,.67,.35,1.35,.74,2.04,1.14,3.96,2.32,8.14,5.32,12.34,8.64,1.69,1.36,3.39,2.75,5.06,4.2,1,.86,2,1.73,2.98,2.63,.86,.75,1.7,1.51,2.53,2.3Z"/><path class="m" d="M219.71,144.57c9.02,5.01,16.7,12.25,15.39,16.71-1.16,3.9-13.08,5.39-20.28,5.66-1.95-.03-3.85-.07-5.7-.11,.14-7.85,4.63-15.22,10.59-22.26Z"/><path class="f" d="M221.12,142.93c-.48,.55-.95,1.09-1.41,1.64-4.82-2.68-10.01-4.73-14.44-5.39,.38-.09,.77-.16,1.16-.22,.29-.04,.58-.06,.86-.11,1.2-.12,2.52-.04,3.92,.22,.33,.05,.66,.12,.99,.21h.01c.14,.04,.29,.08,.44,.12,2.59,.67,5.45,1.89,8.47,3.53Z"/><path class="m" d="M219.71,144.57c-5.96,7.04-10.45,14.41-10.59,22.26-8.55-.19-16.03-.53-22.59-1.03,.07-3.74,.88-7.6,2.35-11.21h.01c.48-.68,.82-1.45,.92-2.12h0c1.22-2.5,2.76-4.82,4.59-6.81,.58-.64,1.19-1.24,1.83-1.8,1.96-1.74,4.19-3.1,6.65-3.98,.01-.01,.03-.02,.04-.03,.21-.08,.42-.15,.64-.22,.02,0,.03-.01,.04-.01,.15-.05,.31-.1,.47-.14h.02c.39-.12,.77-.22,1.17-.3h.01c4.43,.66,9.62,2.71,14.44,5.39Z"/><path class="e" d="M204.07,139.48c-.16,.04-.32,.09-.47,.14-.01,0-.02,.01-.04,.01-.22,.07-.43,.14-.64,.22-.01,.01-.03,.02-.04,.03-2.46,.88-4.69,2.24-6.65,3.98-.54-1.33-1.27-2.67-2.11-3.97,2.89-.15,5.95-.27,9.17-.38,.11,0,.22-.01,.33-.01,.15,0,.3,0,.45-.02Z"/><path class="i" d="M196.23,143.86c-.64,.56-1.25,1.16-1.83,1.8-1.68-5.07-5.81-10.01-7.8-9.24-2.21,.85-.53,4.93-2.3,7.25-2.6,3.42-18.73-6.36-45.73-12.12v-.1c2.63-.28,7.34,.59,12.74,1.86,.05,.01,.09,.02,.14,.03,3.18,.75,6.58,1.65,9.94,2.52,5.17,1.36,10.22,2.68,14.13,3.43,3.34,.65,5.85,.88,6.91,.37,3.91-1.93-2.33-8.09,.97-9.43,.69-.28,2.18,.49,3.93,1.92h.01v.02c2.19,1.8,4.79,4.63,6.78,7.72,.84,1.3,1.57,2.64,2.11,3.97Z"/><path class="j" d="M194.4,145.66c-1.83,1.99-3.37,4.31-4.59,6.8,.07-.44,.03-.85-.14-1.15-.95-1.74-14.73-2.12-15.21,.47-.37,1.99,9.56,4.4,11.7,4.47,1.03,.04,2.02-.71,2.72-1.66-1.47,3.61-2.28,7.47-2.35,11.21-10.39-.77-18.45-1.91-24.69-3.35h0c0-2.27,2.45-2.86,4.23-3.69,.05-.03,.11-.06,.17-.08,1.78-.8,5.6-.55,5.67-1.71,.07-1.07-4.27-2.21-6.92-3.3h0c-2.89-1.89-7.6-4.34-12.38-6.96h-.01s-.09-.05-.13-.07c-3.53-1.94-7.07-3.98-9.96-5.95-.01,0-.01-.01-.02-.01h0c-4.56-3.13-7.46-6.1-5.99-8.34,.32-.5,1.04-.78,2.07-.89v.1c27.01,5.76,43.14,15.54,45.74,12.12,1.77-2.32,.09-6.4,2.3-7.25,1.99-.77,6.12,4.17,7.8,9.24Z"/><path class="i" d="M189.67,151.31c.17,.3,.21,.71,.14,1.15h0c-.34,.7-.66,1.41-.92,2.12h-.01c-.7,.96-1.69,1.71-2.72,1.67-2.14-.07-12.07-2.48-11.7-4.47,.48-2.59,14.26-2.21,15.21-.47Z"/><path class="g" d="M188.89,154.58c.26-.71,.58-1.42,.92-2.11-.1,.67-.44,1.44-.92,2.11Z"/><path class="i" d="M164.99,153.67c2.65,1.09,6.99,2.23,6.92,3.3-.07,1.16-3.89,.91-5.67,1.71,1.09-.54,1.88-1.19,1.6-2.42-.15-.64-1.21-1.53-2.85-2.59Z"/><path class="e" d="M143.42,153.16s-.03-.04-.04-.06c.01-.02,.03-.04,.04-.06,1.74-2.33,4.47-4.45,8.75-6.28,.09-.04,.19-.08,.29-.12,.04,.02,.09,.05,.13,.07h.01c4.78,2.62,9.49,5.07,12.38,6.95h0c1.64,1.07,2.7,1.96,2.85,2.6,.28,1.23-.51,1.88-1.6,2.42-.06,.02-.12,.05-.17,.08-1.78,.83-4.23,1.42-4.23,3.68h0c-10.27-2.36-15.63-5.54-18.42-9.28Z"/><path class="g" d="M158.88,130.64s.03,.06,.05,.09c-2.94,.8-5.4,1.67-7.48,2.61-.05,0-.09-.02-.14-.03,2.07-.96,4.52-1.84,7.45-2.64l.12-.03Z"/><path class="g" d="M152.46,146.64c-.1,.04-.2,.08-.29,.12-4.28,1.83-7.01,3.95-8.75,6.28-.01,.02-.03,.04-.04,.06-1.56-2.12-2.31-4.39-2.68-6.8v-.03c.03-.23,.07-.46,.1-.69,.03-.16,.06-.33,.09-.49,0-.03,.02-.07,.02-.1,.02-.11,.05-.2,.07-.3,.04-.19,.08-.38,.13-.56,.29-1.12,.69-2.2,1.25-3.25,.01-.03,.03-.05,.04-.08,.03-.04,.05-.08,.08-.12,0,0,0,.01,.02,.01,2.89,1.97,6.43,4.01,9.96,5.95Z"/><path class="g" d="M142.36,140.88c-.56,1.05-.96,2.13-1.25,3.25,.27-1.11,.66-2.18,1.25-3.25Z"/><path class="g" d="M140.98,144.69c-.02,.1-.05,.19-.07,.3,.02-.1,.04-.2,.07-.3Z"/><path class="g" d="M140.8,145.58c-.03,.23-.07,.46-.1,.69v.03l-.09,.66c.05-.47,.11-.93,.19-1.38Z"/><path class="g" d="M140.48,148.55c0-.33,.04-.66,.07-.98-.03,.32-.06,.65-.07,.98Z"/><path class="g" d="M140.44,149.14c0,.27-.01,.54-.02,.81-.02,.72-.03,1.46-.03,2.21-.01-1.02,0-2.03,.05-3.02Z"/></g></g><g id="d"><path class="l" d="M257.05,138.71c1.77,.14,3.5,.54,5.17,1.13,.57,.2,1.14,.42,1.7,.67,3.36,1.47,6.48,3.71,9.13,6.45,.45,.45,.87,.93,1.29,1.42,2.48,2.86,4.44,6.12,5.69,9.5,.72,1.97,1.21,3.97,1.4,5.95"/><path class="l" d="M235.5,152.71c1.69,1.36,3.39,2.75,5.06,4.2,.99,.86,2,1.73,2.98,2.63,.86,.75,1.7,1.51,2.53,2.3,.14,.11,.29,.24,.42,.38,.23,.22,.48,.44,.71,.65,1.28,1.21,2.56,2.42,3.8,3.66"/><path class="l" d="M262.23,139.82c0-4.35,1.55-9.48,3.25-13.05,.06-.13,.12-.26,.19-.38,1.2-2.4,2.46-4.01,3.3-4.01,1.9,0,1.79,2.3,1.95,4.49,.01,.13,.02,.27,.03,.4h.01c.15,1.76,.59,3.32,2.45,3.46,1.08,.08,3.05-.88,5.55-2.48,.18-.1,.35-.21,.52-.32,.11-.07,.23-.15,.34-.23,10.72-7,29.79-23.54,33.39-21.05,4.66,3.22-7.56,16.88-14.94,26.01l-.24,.3c-2.93,3.65-5.02,6.53-4.85,7.66,.57,3.54,7.36-.5,8.13,4.32,.1,.6-.3,1.46-1.12,2.46-.07,.1-.16,.19-.24,.29-3.04,3.45-10.81,8.35-19.91,10.17"/><path class="l" d="M238.17,149.13c9.41,4.26,16.85,9.12,20.37,17.1"/><path class="l" d="M306.7,167.67c0,32.85,0,59.49-81.52,59.49s-81.52-26.63-81.52-59.49"/><path class="l" d="M309.98,153.15c0,15.29,0,27.69-84.8,27.69s-84.8-12.4-84.8-27.69"/><path class="l" d="M309.65,146.22h0c-.36,2.46-1.11,4.79-2.71,6.93-6.17,8.29-24.91,13.85-81.77,13.85s-75.57-5.57-81.75-13.84c-1.59-2.14-2.35-4.44-2.72-6.87h0"/><line class="l" x1="270.96" y1="127.28" x2="270.95" y2="127.28"/><path class="l" d="M140.38,153.14c0-.85,0-1.7,.02-2.53,0-.32,.01-.64,.02-.95,.04-1.14,.12-2.26,.28-3.36v-.03"/><path class="l" d="M249.13,139.7h-.01s-.01,0-.01,0"/><path class="l" d="M152.6,146.7h0"/><path class="l" d="M191.33,179.96h-.01m-4.79-14.16c.15-7.99,3.68-16.62,9.7-21.94,1.96-1.74,4.19-3.1,6.65-3.98,.01-.01,.03-.02,.04-.03,.21-.08,.42-.15,.64-.22,.02,0,.03-.01,.04-.01,.59-.19,1.2-.34,1.81-.47,.34-.07,.68-.14,1.02-.19,.29-.04,.58-.06,.86-.11,1.11-.11,2.32-.05,3.61,.17,.1,.01,.21,.03,.31,.05,.48,.08,.95,.19,1.44,.33,3.17,.82,6.74,2.46,10.51,4.67,3.96,2.32,8.14,5.32,12.34,8.64,1.69,1.36,3.39,2.75,5.06,4.2,1,.86,2,1.73,2.98,2.63,.86,.75,1.7,1.51,2.53,2.3,.14,.11,.29,.24,.42,.38,.24,.22,.48,.43,.71,.65,1.28,1.21,2.56,2.42,3.8,3.66"/><path class="l" d="M161.84,162.44c0-3.74,6.75-2.91,6-6.18-.41-1.76-7.73-5.43-15.24-9.55h-.01c-3.57-1.96-7.16-4.03-10.08-6.01-4.57-3.13-7.48-6.11-6.01-8.36,1.17-1.78,7.4-.79,14.95,1.01,3.18,.75,6.59,1.65,9.95,2.52,5.17,1.36,10.22,2.68,14.12,3.43,3.35,.65,5.85,.88,6.91,.37,3.91-1.93-2.33-8.08,.97-9.43,1.93-.79,9.97,6.61,12.83,13.63"/><path class="l" d="M251,166.54c-1.24-1.24-2.52-2.45-3.8-3.66-.23-.22-.48-.44-.71-.65-.14-.14-.29-.27-.42-.38-.83-.79-1.67-1.55-2.53-2.3-.98-.9-1.99-1.77-2.98-2.63-1.67-1.46-3.37-2.84-5.06-4.2,.67-.95,1.33-1.86,2.01-2.74,.22-.29,.44-.56,.67-.84,.86-1.1,1.76-2.16,2.64-3.12h.01c2.8-3.03,5.59-5.27,8.27-6.31t.01,0"/><path class="l" d="M257.05,138.7c-2.26-.21-4.55-.03-6.85,.63-.04,0-.07,.02-.11,.03-.32,.09-.64,.2-.96,.34h-.01v-.02"/><path class="l" d="M211.29,139.01s-.05,.04-.08,.06"/><path class="l" d="M240.43,146.25c.14-.08,.26-.17,.39-.23h.02"/><path class="l" d="M202.88,139.88s.03-.02,.04-.03c.24-.21,.47-.42,.7-.64"/><path class="l" d="M220.68,143.46c-6.68,7.57-11.42,14.89-11.57,23.38"/><path class="l" d="M246.49,162.22c-2.08,1.62-3.76,3.1-5.17,4.61"/><path class="l" d="M140.39,152.74v-.87c0-.75,0-1.49,.03-2.21,.08-3.22,.44-6.28,1.94-9.07"/><path class="l" d="M298.27,132.66c11.71,5.05,11.71,12.18,11.71,20.08"/><path class="l" d="M150.89,133.21c2.15-1.03,4.74-1.97,7.87-2.83,7.03-1.93,16.76-3.4,30.22-4.31,4.71-.32,9.89-.56,15.57-.73,6.25-.19,13.11-.29,20.64-.29,10.58,0,19.84,.19,27.95,.56,.71,.03,1.42,.07,2.11,.1,3.72,.19,7.19,.42,10.42,.68"/><path class="l" d="M279.48,127.93c-2.62-.4-5.47-.75-8.56-1.06"/><path class="l" d="M193.94,139.61c3.05-.16,6.27-.29,9.68-.4,.58-.02,1.18-.04,1.78-.06h.01"/><line class="l" x1="262.68" y1="140" x2="262.67" y2="140"/><path class="l" d="M300.19,147.4c3.16,1.6,5.3,3.39,6.75,5.33,.05,.07,.1,.14,.14,.21"/><path class="l" d="M250.2,139.33c-7.39-.29-15.69-.44-25.01-.44-4.91,0-9.54,.04-13.9,.12-.13,0-.26,0-.39,.01h0"/><path class="l" d="M143.28,152.96c.04-.07,.09-.14,.14-.21,1.74-2.33,4.47-4.45,8.74-6.28"/></g></svg>