<?xml version="1.0" encoding="UTF-8"?><svg xmlns="http://www.w3.org/2000/svg" viewBox="0 0 419.48 227.96"><defs><style>.e{fill:#ad7766;}.f{fill:#c47b49;}.g{fill:#c6977b;}.h{fill:#bc7171;}.i{fill:#6a964d;}.j{fill:#77b566;}.k{stroke-width:2px;}.k,.l{fill:none;stroke:#3f2a25;stroke-linecap:round;stroke-linejoin:round;}.m{fill:#e09f57;}</style></defs><g id="a"><path class="k" d="M259.21,99.81c10.72-6.99,29.79-23.54,33.39-21.05,4.71,3.27-7.84,17.19-15.19,26.32"/><path class="k" d="M123.05,139.36v.04c0,32.84,.04,59.86,81.52,59.86s81.51-27.2,81.51-59.86"/><path class="k" d="M123.05,139.41c-3.28-4.14-3.28-8.98-3.28-14.15"/><path class="k" d="M289.36,125.25c0,5.17,0,10.02-3.28,14.15"/><path class="k" d="M120.08,118.41v-.03"/><path class="k" d="M289.04,118.34h0"/><path class="k" d="M277.42,105.07c8.36,3.54,10.87,8.11,11.62,13.25h0c.33,2.23,.33,4.54,.33,6.93"/><path class="k" d="M138.32,102.84c-2.94,.8-5.4,1.67-7.48,2.61"/><path class="k" d="M121.89,112.8c-.99,1.77-1.52,3.63-1.81,5.58v.03c-.31,2.19-.31,4.49-.31,6.84"/><path class="k" d="M183.84,97.85c-5.57,.18-10.87,.42-15.53,.72"/><path class="k" d="M259.21,99.81c3.34-17.14,3.57-32.99-.03-36.16-1.62-1.42-10.01,3.79-20.01,11.99-4.06,3.32-8.41,7.15-12.66,11.23"/><path class="k" d="M121.89,112.8c-4.57-3.13-7.48-6.11-6.01-8.36,1.17-1.78,7.4-.79,14.95,1.01"/><path class="k" d="M189.42,88.25h-.01c-2.68,2.64-4.67,5.85-5.57,9.59"/><path class="k" d="M213.49,80.29c2.76,.3,5.39,1.01,7.69,2.15,1.96,.98,3.73,2.49,5.33,4.44"/><path class="k" d="M189.41,88.26c-6.78-3.36-13.58-11.92-12.65-13.8,1.57-3.18,7.26,3.49,9.47-.26,2.83-4.82-8.81-43.65-3.93-46.36,7.01-3.88,17.76,31.85,21.56,33.02,3.43,1.06,2.81-6.81,7.46-5.36,2.66,.83,5.32,12.96,2.16,24.8"/><path class="k" d="M138.32,102.84c-7.93-17.23-12.38-34.79-9.32-38.95,1.27-1.73,10.55,1.56,22.03,7.4,3.36,1.71,6.9,3.66,10.51,5.76"/><line class="k" x1="164.42" y1="85.71" x2="164.42" y2="85.7"/><path class="k" d="M161.53,77.05c-1.39,2.91-1.25,4.79-.61,6.03,.72,1.4,2.05,2.07,3.5,2.63,2.04,.82,4.31,1.43,5.4,3.7,1.48,3.28-1.24,6.19-1.51,9.16"/></g><g id="b"><g/><g><path class="h" d="M292.56,78.73c4.71,3.26-7.83,17.18-15.18,26.31-2.93,3.65-5.02,6.53-4.85,7.66,.57,3.54,7.37-.5,8.13,4.32,.11,.66-.38,1.63-1.36,2.75-3.04,3.45-10.81,8.35-19.91,10.17-1.25-3.37-3.21-6.64-5.69-9.49-.42-.49-.84-.97-1.29-1.42-2.66-2.73-5.77-4.98-9.13-6.45-.56-.24-1.13-.46-1.7-.67h0c0-2.77,.62-5.83,1.51-8.62,.52-1.61,1.12-3.13,1.74-4.44,1.26-2.61,2.61-4.39,3.5-4.39,2.01,0,1.76,2.6,1.97,4.89h.01c.15,1.76,.59,3.32,2.45,3.46,1.08,.08,3.05-.88,5.55-2.48,.29-.17,.57-.35,.86-.55,10.72-7,29.79-23.54,33.39-21.05Z"/><path class="h" d="M289,118.31c.33,2.22,.33,4.53,.33,6.91h0c0,5.27,0,10.18-3.44,14.37-6.58,7.99-25.71,13.33-81.36,13.33s-74.75-5.33-81.35-13.31c-3.45-4.19-3.45-9.11-3.45-14.38h0c0-2.36,0-4.66,.32-6.85,.37,2.43,1.13,4.73,2.72,6.86,2.8,3.74,8.15,6.92,18.42,9.29,6.24,1.44,14.3,2.58,24.69,3.35,6.56,.5,14.04,.84,22.59,1.03,4.98,.11,10.33,.17,16.06,.17s11.13-.06,16.14-.17c3.39-.07,6.62-.17,9.68-.3,2.62-.11,5.12-.23,7.51-.37,9.19-.54,16.73-1.33,22.93-2.33,15.02-2.45,22.13-6.16,25.5-10.69,1.6-2.13,2.35-4.46,2.71-6.91Z"/><path class="h" d="M289,118.31c-.36,2.45-1.11,4.78-2.71,6.91-1.48-1.98-3.7-3.82-6.99-5.45,.98-1.12,1.47-2.09,1.36-2.75-.76-4.82-7.56-.78-8.13-4.32-.17-1.13,1.92-4.01,4.85-7.66,8.35,3.54,10.87,8.11,11.62,13.26h0Z"/><path class="h" d="M285.89,139.59l.16,.16c0,32.86,0,59.49-81.51,59.49s-81.52-26.63-81.52-59.49l.16-.14c6.6,7.98,25.75,13.31,81.35,13.31s74.78-5.34,81.36-13.33Z"/><path class="h" d="M279.3,119.77c3.29,1.63,5.51,3.47,6.99,5.45-3.37,4.53-10.48,8.24-25.5,10.69v-.02c-.19-1.97-.68-3.97-1.4-5.95,9.1-1.82,16.87-6.72,19.91-10.17Z"/><path class="h" d="M239.13,75.62c10-8.21,18.39-13.42,20.01-12,3.6,3.17,3.37,19.03,.03,36.16-.29,.2-.57,.38-.86,.55-2.5,1.6-4.47,2.56-5.55,2.48-1.86-.14-2.3-1.7-2.45-3.46h-.01c-.21-2.29,.04-4.89-1.97-4.89-.89,0-2.24,1.78-3.5,4.39-.62,1.31-1.22,2.83-1.74,4.44l-.48-.15c-4.79-2.97-8.21-5.21-11.21-8.07,0,0-.01,0-.01-.02h-.01c-1.42-3.19-3.07-5.97-4.91-8.2,4.25-4.08,8.6-7.91,12.66-11.23Z"/><path class="h" d="M231.4,95.07c3,2.86,6.42,5.1,11.21,8.07l.48,.15c-.89,2.79-1.51,5.85-1.51,8.61h0c-1.68-.57-3.41-.98-5.17-1.11-1.03-4.54-2.26-8.84-3.76-12.69-.4-1.04-.82-2.05-1.25-3.03Z"/><path class="h" d="M237.86,138.24c-2.39,.14-4.89,.26-7.51,.37-1.24-1.24-2.52-2.45-3.8-3.66-.23-.22-.47-.43-.7-.65-.14-.14-.29-.27-.43-.38-.83-.79-1.67-1.55-2.53-2.3-.98-.9-1.98-1.77-2.98-2.63-1.67-1.45-3.37-2.84-5.06-4.2,.67-.96,1.33-1.87,2.01-2.74,.22-.28,.44-.56,.67-.84,9.39,4.25,16.8,9.09,20.33,17.03Z"/><path class="h" d="M217.53,121.21c.86-1.1,1.76-2.16,2.64-3.12h.01c2.81-3.03,5.6-5.26,8.28-6.31,0,0,0-.01,.01,0h.02c.31-.14,.63-.25,.95-.34,2.34-.68,4.67-.87,6.97-.65,1.76,.13,3.49,.54,5.17,1.12,.57,.21,1.14,.43,1.7,.67,3.36,1.47,6.47,3.72,9.13,6.45,.45,.45,.87,.93,1.29,1.42,2.48,2.85,4.44,6.12,5.69,9.49,.72,1.98,1.21,3.98,1.4,5.95v.02c-6.2,1-13.74,1.79-22.93,2.33-3.53-7.94-10.94-12.78-20.33-17.03Z"/><path class="h" d="M228.47,111.77h0s-.01,.01-.01,.01t.01-.01Z"/><path class="h" d="M226.55,134.95c1.28,1.21,2.56,2.42,3.8,3.66-3.06,.13-6.29,.23-9.68,.3,1.42-1.51,3.09-2.99,5.18-4.61,.23,.22,.47,.43,.7,.65Z"/><path class="h" d="M219.91,128.99c1,.86,2,1.73,2.98,2.63,.86,.75,1.7,1.51,2.53,2.3,.14,.11,.29,.24,.43,.38-2.09,1.62-3.76,3.1-5.18,4.61-5.01,.11-10.38,.17-16.14,.17s-11.08-.06-16.06-.17c.15-8.49,4.88-15.81,11.56-23.37l.32-.6c.71,.38,1.43,.78,2.16,1.21,3.96,2.32,8.14,5.32,12.34,8.64,1.69,1.36,3.39,2.75,5.06,4.2Z"/><path class="h" d="M211.29,55.47c2.67,.84,5.33,12.96,2.16,24.79-8.34-.87-17.99,2.02-24.07,7.96h0c-6.79-3.35-13.58-11.91-12.65-13.79,1.57-3.18,7.26,3.5,9.46-.26,2.84-4.82-8.81-43.65-3.92-46.36,7.01-3.88,17.76,31.85,21.56,33.02,3.43,1.06,2.81-6.81,7.46-5.36Z"/><path class="h" d="M190.57,111.15c.48,.08,.94,.19,1.43,.33,2.56,.66,5.37,1.86,8.35,3.46l-.32,.6c-6.68,7.56-11.41,14.88-11.56,23.37-8.55-.19-16.03-.53-22.59-1.03,.15-7.99,3.68-16.62,9.7-21.94,1.96-1.74,4.19-3.1,6.65-3.98,0-.01,.03-.02,.04-.03,.21-.08,.43-.15,.64-.22,.02,0,.03-.01,.04-.01,.92-.29,1.87-.51,2.83-.66,.29-.04,.58-.06,.86-.11,1.2-.12,2.52-.04,3.92,.22h0Z"/><path class="h" d="M220.17,118.09c-.88,.96-1.78,2.02-2.64,3.12-.23,.28-.45,.56-.67,.84-.68,.87-1.34,1.78-2.01,2.74-4.2-3.32-8.38-6.32-12.34-8.64-.73-.43-1.45-.83-2.16-1.21-2.98-1.6-5.79-2.8-8.35-3.46-.49-.14-.95-.25-1.43-.33h0c-1.4-.26-2.72-.34-3.92-.22-.28,.05-.57,.07-.86,.11-.25-.64-.5-1.28-.72-1.9h0c-.89-2.54-1.47-4.89-1.62-7.01-.08-1.14-.04-2.23,.14-3.22,.07-.37,.14-.74,.22-1.09,.9-3.75,2.88-6.96,5.56-9.58h.02v-.02c6.08-5.94,15.73-8.83,24.07-7.96,2.76,.3,5.39,1.01,7.69,2.15,1.96,.98,3.73,2.49,5.33,4.44,1.84,2.23,3.49,5.01,4.91,8.19h.01s.01,.02,.01,.03c.43,.98,.85,1.99,1.25,3.03,1.5,3.85,2.73,8.15,3.76,12.69-2.3-.22-4.63-.03-6.97,.65-.32,.09-.64,.2-.95,.34h-.02s-.01-.02-.01,0c-2.68,1.05-5.47,3.28-8.28,6.31h-.01Z"/><path class="h" d="M182.95,111.7s-.02,.01-.04,.01c-.21,.07-.43,.14-.64,.22,.97-.85,1.89-1.79,2.79-2.79,.22,.62,.47,1.26,.72,1.9-.96,.15-1.91,.37-2.83,.66Z"/><path class="h" d="M175.58,115.94c-6.02,5.32-9.55,13.95-9.7,21.94-10.39-.77-18.45-1.91-24.69-3.35h0c0-3.76,6.75-2.93,6-6.19-.41-1.76-7.73-5.43-15.24-9.55h-.01c-3.57-1.96-7.16-4.03-10.08-6.02-4.58-3.13-7.49-6.11-6.02-8.35,1.17-1.79,7.4-.79,14.96,1,3.18,.75,6.58,1.65,9.94,2.52h.01c5.17,1.36,10.21,2.68,14.12,3.43,3.35,.65,5.85,.88,6.91,.37,3.91-1.93-2.33-8.09,.97-9.43,1.93-.79,9.97,6.61,12.83,13.63Z"/><path class="h" d="M168.73,100.98c-.42-.82-.52-1.62-.45-2.43,4.71-.31,9.87-.56,15.52-.73-.08,.35-.15,.72-.22,1.09-.18,.99-.22,2.08-.14,3.22-.82,.58-1.67,1.52-3.83,2.21-3.79,1.24-9.21-.18-10.88-3.36Z"/><path class="h" d="M164.39,85.68c2.04,.82,4.31,1.44,5.39,3.71,1.49,3.27-1.23,6.19-1.5,9.16-.07,.81,.03,1.61,.45,2.43,1.67,3.18,7.09,4.6,10.88,3.36,2.16-.69,3.01-1.63,3.83-2.21,.15,2.12,.73,4.47,1.62,7h0c-.9,1.01-1.82,1.95-2.79,2.8-.01,.01-.03,.02-.04,.03-2.46,.88-4.69,2.24-6.65,3.98-2.86-7.02-10.9-14.42-12.83-13.63-3.3,1.34,2.94,7.5-.97,9.43-1.06,.51-3.56,.28-6.91-.37-3.91-.75-8.95-2.07-14.12-3.43-.86-1.7-1.68-3.41-2.47-5.13-7.94-17.23-12.38-34.79-9.32-38.93,1.26-1.74,10.55,1.56,22.03,7.4,3.37,1.71,6.91,3.66,10.51,5.74-1.39,2.93-1.25,4.8-.62,6.03,.73,1.41,2.05,2.07,3.51,2.63Z"/><path class="h" d="M147.19,128.34c.75,3.26-6,2.43-6,6.18h0c-10.27-2.36-15.62-5.54-18.42-9.28,1.79-2.4,4.64-4.58,9.17-6.45h.01c7.51,4.12,14.83,7.79,15.24,9.55Z"/><path class="h" d="M140.75,107.94h-.01c-3.36-.87-6.76-1.77-9.94-2.52,2.08-.94,4.54-1.81,7.48-2.61,.79,1.72,1.61,3.43,2.47,5.13Z"/><path class="h" d="M131.94,118.79c-4.53,1.87-7.38,4.05-9.17,6.45-1.59-2.13-2.35-4.43-2.72-6.86v-.03c.28-1.94,.81-3.81,1.81-5.58,2.92,1.99,6.51,4.06,10.08,6.02Z"/></g></g><g id="c"><g><path class="j" d="M292.66,78.73c1.45,1,1.27,3.01,.1,5.58-17.5,22.84-26.68,24.77-24.87,28.67,1.22,2.65,5.07,3.58,4.96,5.95-.15,3.12-8.34,7.3-14.33,8.73-.93-1.99-2.11-3.91-3.49-5.7,2.88-1.07,5.15-2.32,4.95-3.1-.16-.63-1.61-.98-3.63-.94,3.03-2.9,6.73-8.01,5.56-9.4-1.31-1.55-9.47,4.59-10.89,6.2-.62,.71-.62,1.7-.28,2.64-2.23-1.99-4.72-3.62-7.36-4.78-.56-.24-1.13-.46-1.7-.66v-.02c0-2.76,.62-5.82,1.51-8.61,.52-1.61,1.12-3.13,1.74-4.44,.55-1.14,1.12-2.12,1.66-2.87,.69-.96,1.33-1.52,1.83-1.52,2.02,0,1.77,2.6,1.98,4.9h.01s.01,.07,.01,.1h-.11c0,1.92-1.65,4.55-.63,5.18,1.11,.68,3.82-1.59,5.88-2.66,.04-.02,.07-.03,.1-.05,.82-.41,1.74-.95,2.75-1.59,.29-.18,.57-.36,.86-.56,10.72-7,29.79-23.54,33.39-21.05Z"/><path class="e" d="M289.42,125.22h.01c0,5.26,0,10.18-3.44,14.37-2.68,3.25-7.44,6.07-15.91,8.26,2.8-2.59,2.35-10.54,.07-13.64l-.05-.2c8.9-2.31,13.7-5.31,16.29-8.79,1.6-2.13,2.35-4.46,2.71-6.91,.32,2.22,.32,4.53,.32,6.91Z"/><path class="e" d="M289.1,118.3h0c-.36,2.46-1.11,4.79-2.71,6.92-1.48-1.98-3.7-3.82-6.99-5.45,.98-1.12,1.47-2.08,1.36-2.75-.77-4.82-7.56-.78-8.13-4.31-.17-1.13,1.92-4.02,4.85-7.67,8.35,3.54,10.87,8.11,11.62,13.26Z"/><path class="e" d="M270.08,147.85c8.47-2.19,13.23-5.01,15.91-8.26l.16,.16c0,30.73,0,56.01-66.69,59.16,2.38-.48,31.69-1.98,46.59-23.29,4.9-7.01,6.76-16.83,7.45-23.54-17.85,4.07-52.58,4.47-73.71,.94v-.11c1.58,.01,3.19,.01,4.84,.01,32.98,0,53.14-1.88,65.45-5.07Z"/><path class="f" d="M279.4,119.77c3.29,1.63,5.51,3.47,6.99,5.45-2.59,3.48-7.39,6.48-16.29,8.79-2.69,.69-5.74,1.33-9.21,1.9v-.02c-.19-1.97-.68-3.97-1.4-5.94,9.1-1.83,16.87-6.73,19.91-10.18Z"/><path class="i" d="M280.76,117.02c.11,.67-.38,1.63-1.36,2.75-3.04,3.45-10.81,8.35-19.91,10.18-.29-.77-.61-1.54-.97-2.29,5.99-1.43,14.18-5.61,14.33-8.73,.11-2.37-3.74-3.3-4.96-5.95-1.81-3.9,7.37-5.83,24.87-28.67-2.61,5.79-10.19,14.4-15.28,20.73-2.93,3.65-5.02,6.54-4.85,7.67,.57,3.53,7.36-.51,8.13,4.31Z"/><path class="g" d="M273.5,152.08c-.69,6.71-2.55,16.53-7.45,23.54-14.9,21.31-44.21,22.81-46.59,23.29h-.02c-4.61,.22-9.54,.33-14.81,.33-81.51,0-81.51-26.63-81.51-59.49l.16-.15c5.02,6.08,17.32,10.63,47.49,12.45h.01c8.26,.5,17.86,.79,29.01,.86v.11c21.13,3.53,55.86,3.13,73.71-.94Z"/><path class="g" d="M188.57,138.91c1.87,.04,3.79,.08,5.76,.11h.09c3.26,.04,6.66,.06,10.21,.06,5.76,0,11.13-.06,16.14-.17,3.39-.07,6.62-.17,9.68-.3,2.62-.1,5.12-.23,7.51-.37,9.18-.54,16.73-1.33,22.93-2.33,3.47-.57,6.52-1.21,9.21-1.9l.05,.2c2.28,3.1,2.73,11.05-.07,13.64-12.31,3.19-32.47,5.07-65.45,5.07-1.65,0-3.26,0-4.84-.01-11.15-.07-20.75-.36-29.01-.86h-.01c-30.17-1.82-42.47-6.37-47.49-12.45-3.45-4.19-3.45-9.11-3.45-14.37h0c0-2.36,0-4.66,.31-6.85h0c.37,2.43,1.13,4.72,2.72,6.86,2.79,3.73,8.15,6.91,18.42,9.29,6.24,1.44,14.3,2.58,24.69,3.35,6.56,.5,14.04,.84,22.59,1.03Z"/><path class="i" d="M261.91,108.52c1.17,1.39-2.53,6.5-5.56,9.4-.44,0-.9,.03-1.37,.07-1.23,.05-1.66,1-1.61,1.96-.28-.32-.56-.62-.86-.92-.57-.58-1.16-1.15-1.77-1.67-.34-.94-.34-1.93,.28-2.64,1.42-1.61,9.58-7.75,10.89-6.2Z"/><path class="f" d="M260.89,135.89v.02c-6.2,1-13.75,1.79-22.93,2.33-.69-1.54-1.51-2.96-2.47-4.28,9.87-3.36,19.12-7.59,18.33-12.57,.3,.44,.72,.71,1.18,.58,.01,0,.02-.01,.03-.01,1.38,1.79,2.56,3.71,3.49,5.7,.36,.75,.68,1.52,.97,2.29,.72,1.97,1.21,3.97,1.4,5.94Z"/><path class="i" d="M259.98,118.86c.2,.78-2.07,2.03-4.95,3.1-.39-.51-.8-1.02-1.23-1.51-.14-.16-.28-.33-.43-.49,.65-.06,1.76-.87,2.98-2.04,2.02-.04,3.47,.31,3.63,.94Z"/><path class="f" d="M248.86,87.47c5.68-10.14,10.54-21.59,10.05-24.02,.13,.04,.24,.1,.33,.18,3.6,3.16,3.37,19.02,.03,36.15-.29,.2-.57,.38-.86,.56-1.01,.64-1.93,1.18-2.75,1.59-.03,.02-.06,.03-.1,.05-1.15,.57-2.07,.88-2.7,.83-1.82-.13-2.28-1.64-2.44-3.35,0-.03-.01-.07-.01-.1h-.01c-.21-2.3,.04-4.9-1.98-4.9-.5,0-1.14,.56-1.83,1.52l-2.47-.72c1.58-2.36,3.19-5.03,4.74-7.79Z"/><path class="m" d="M258.91,63.45c.49,2.43-4.37,13.88-10.05,24.02-4.53-2.95-7.78-6.59-9.63-11.85,9.44-7.75,17.45-12.83,19.68-12.17Z"/><path class="i" d="M254.98,117.99c.47-.04,.93-.07,1.37-.07-1.22,1.17-2.33,1.98-2.98,2.04h0c-.05-.97,.38-1.92,1.61-1.97Z"/><path class="i" d="M253.82,121.39c-.26-.38-.43-.91-.45-1.43,.15,.16,.29,.33,.43,.49,.43,.49,.84,1,1.23,1.51-.01,0-.02,.01-.03,.01-.46,.13-.88-.14-1.18-.58Z"/><path class="m" d="M220.27,118.1h.01c2.81-3.04,5.6-5.27,8.28-6.32,0,0,0-.01,.01,0h.01c.32-.14,.64-.24,.96-.34,.43-.13,.86-.23,1.29-.33,1.91-.41,3.79-.5,5.67-.32,1.77,.13,3.5,.54,5.18,1.13,.57,.2,1.14,.42,1.7,.66,2.64,1.16,5.13,2.79,7.36,4.78,.45,1.27,1.51,2.42,2.43,2.6,.06,.01,.13,.01,.2,0,.02,.52,.19,1.05,.45,1.43,.79,4.98-8.46,9.21-18.33,12.57-4.01-5.51-10.29-9.32-17.86-12.75,.85-1.09,1.75-2.15,2.62-3.1,.01,0,.01,0,.02,0Z"/><path class="i" d="M253.37,119.95h0c-.07,.02-.14,.02-.2,.01-.92-.18-1.98-1.33-2.43-2.6,.61,.52,1.2,1.09,1.77,1.67,.3,.3,.58,.6,.86,.92Z"/><path class="i" d="M252.86,102.81c.63,.05,1.55-.26,2.7-.83-2.06,1.07-4.77,3.34-5.88,2.66-1.02-.63,.63-3.26,.63-5.17h.11c.16,1.7,.62,3.21,2.44,3.34Z"/><path class="f" d="M244.12,95.26l2.47,.72c-.54,.75-1.11,1.73-1.66,2.87-.62,1.31-1.22,2.83-1.74,4.44l-.48-.15c-1.11-.69-2.15-1.34-3.12-1.97,1.43-1.53,2.96-3.57,4.53-5.91Z"/><path class="m" d="M231.49,95.06s-.01-.01-.01-.02c-1.43-3.18-3.07-5.96-4.91-8.19,4.25-4.08,8.6-7.91,12.66-11.23,1.85,5.26,5.1,8.9,9.63,11.85-1.55,2.76-3.16,5.43-4.74,7.79-1.57,2.34-3.1,4.38-4.53,5.91-3.23-2.07-5.79-3.9-8.09-6.1,0,0,0-.01-.01-.01Z"/><path class="f" d="M242.71,103.14l.48,.15c-.89,2.79-1.51,5.85-1.51,8.61v.02c-1.68-.59-3.41-1-5.18-1.13-.52-2.3-1.09-4.54-1.73-6.69,1.25,.27,2.93-.87,4.82-2.93,.97,.63,2.01,1.28,3.12,1.97Z"/><path class="m" d="M231.5,95.07c2.3,2.2,4.86,4.03,8.09,6.1-1.89,2.06-3.57,3.2-4.82,2.93-.61-2.09-1.28-4.1-2.02-6-.4-1.04-.82-2.05-1.25-3.03Z"/><path class="f" d="M235.49,133.96c.96,1.32,1.78,2.74,2.47,4.28-2.39,.14-4.89,.27-7.51,.37-.78-.77-1.57-1.53-2.37-2.29,2.41-.73,4.93-1.52,7.41-2.36Z"/><path class="f" d="M213.52,80.27h.03c2.76,.29,5.39,1,7.69,2.15,1.96,.97,3.72,2.49,5.33,4.43,1.84,2.23,3.48,5.01,4.91,8.19t.01,.02s.01,.01,.01,.01c.43,.98,.85,1.99,1.25,3.03,.74,1.9,1.41,3.91,2.02,6,.64,2.15,1.21,4.39,1.73,6.69-1.88-.18-3.76-.09-5.67,.32l-.08-.33c-.74-2.28-2.44-12.19-9.64-22.42-3.67-5.22-11.66-6.79-18.17-7.31,2.84-.7,5.76-1.01,8.58-.92,.67,.02,1.34,.07,2,.14Z"/><path class="m" d="M190.67,111.15h-.01c-1.4-.25-2.72-.34-3.92-.21-.28,.04-.57,.06-.86,.11-.25-.64-.5-1.28-.72-1.91-.9-2.53-1.47-4.87-1.62-7h0c-.08-1.15-.04-2.24,.14-3.23,.07-.37,.14-.74,.22-1.09,.87-3.64,2.77-6.77,5.34-9.36,.07-.08,.15-.15,.22-.22h.02c3.04-2.99,6.97-5.2,11.19-6.55,.83-.04,1.62-.26,2.16-.61,.03-.02,.07-.03,.11-.03,6.51,.52,14.5,2.09,18.17,7.31,7.2,10.23,8.9,20.14,9.64,22.42l.08,.33c-.43,.1-.86,.2-1.29,.33-.32,.1-.64,.2-.96,.34h-.01s-.01,0-.01,0c-2.68,1.05-5.47,3.28-8.28,6.31h-.01s-.01,.02-.02,.02c-.87,.95-1.77,2.01-2.62,3.1-.23,.29-.45,.56-.67,.84-.68,.88-1.34,1.79-2.01,2.74-4.21-3.32-8.38-6.31-12.34-8.64-.73-.43-1.45-.83-2.16-1.21-2.98-1.6-5.79-2.8-8.35-3.46-.49-.14-.95-.24-1.43-.33Z"/><path class="m" d="M217.63,121.21c7.57,3.43,13.85,7.24,17.86,12.75-2.48,.84-5,1.63-7.41,2.36-.48-.46-.95-.92-1.43-1.37-.23-.21-.47-.43-.71-.65-.13-.13-.28-.27-.42-.38-.83-.79-1.67-1.55-2.53-2.3-.98-.9-1.98-1.77-2.98-2.63-1.67-1.45-3.37-2.84-5.06-4.2,.67-.95,1.33-1.86,2.01-2.74,.22-.28,.44-.55,.67-.84Z"/><path class="f" d="M228.08,136.32c.8,.76,1.59,1.52,2.37,2.29-3.06,.13-6.29,.23-9.68,.3,1.42-1.51,3.09-2.99,5.17-4.61,.24,.22,.48,.44,.71,.65,.48,.45,.95,.91,1.43,1.37Z"/><path class="f" d="M225.52,133.92c.14,.11,.29,.25,.42,.38-2.08,1.62-3.75,3.1-5.17,4.61-5.01,.11-10.38,.17-16.14,.17-3.55,0-6.95-.02-10.21-.06,7.22-.28,18.98-1.78,20.13-5.66,1.31-4.46-6.37-11.69-15.39-16.7,.32-.38,.64-.75,.97-1.12l.32-.6c.71,.38,1.43,.78,2.16,1.21,3.96,2.33,8.13,5.32,12.34,8.64,1.69,1.36,3.39,2.75,5.06,4.2,1,.86,2,1.73,2.98,2.63,.86,.75,1.7,1.52,2.53,2.3Z"/><path class="m" d="M222.99,131.62c.86,.75,1.7,1.51,2.53,2.3-.83-.78-1.67-1.55-2.53-2.3Z"/><path class="m" d="M199.16,116.66c9.02,5.01,16.7,12.24,15.39,16.7-1.15,3.88-12.91,5.38-20.13,5.66h-.09c-1.97-.03-3.89-.07-5.76-.11,.15-8.08,4.43-15.09,10.59-22.25Z"/><path class="i" d="M211.29,55.77c2.64,.82,5.28,12.76,2.23,24.5-.66-.07-1.33-.12-2-.14v-.23c1.11-6.06,.85-16.56-1.95-17.95-1.33-.66-2.77,.32-4.37,1.17l-.76-1.89c2.76,0,2.49-6.83,6.85-5.46Z"/><path class="j" d="M209.57,61.95c2.8,1.39,3.06,11.89,1.96,17.95v.23c-2.83-.09-5.75,.22-8.59,.92-.04,0-.08,.01-.11,.03,.28-.18,.49-.39,.61-.63,.09-.18,.09-.47,.01-.84,.98,.08,1.96-.31,1.96-1.1-.27-3.07-.89-5.61-1.7-5.63-.64-.01-1.35,1.28-1.84,3.21-2.21-3.81-6.06-8.5-7.63-7.77-1.84,.85,1.95,10.34,3.13,12.13,.63,.95,2.01,1.31,3.3,1.24-4.22,1.35-8.15,3.56-11.19,6.54h-.02c-.07,.08-.15,.15-.22,.23-6.74-3.4-13.43-11.86-12.51-13.73,1.02-2.06,3.76,.01,6.16,.7,0,0,0,0,0,0,1.61,.98,3.44,2.54,4.27,1.96,1.08-.75-.4-4.01-.53-6.33h-.02c-.31-10.81-8.61-40.61-4.35-42.96,.48-.27,.98-.35,1.49-.27,13.79,25.09,14.09,36.34,18.37,36.26,1.09-.02,2.11-.48,3.07-.98,1.6-.85,3.04-1.83,4.37-1.17Z"/><path class="i" d="M204.44,61.23l.76,1.89c-.96,.5-1.98,.96-3.07,.98-4.28,.08-4.58-11.17-18.37-36.26,6.96,1.12,16.52,32.19,20.07,33.29,.22,.07,.42,.1,.61,.1Z"/><path class="i" d="M203.71,72.88c.81,.02,1.43,2.56,1.7,5.63,0,.79-.98,1.18-1.96,1.1-.18-.85-.77-2.13-1.58-3.52,.49-1.93,1.2-3.22,1.84-3.21Z"/><path class="i" d="M203.45,79.61c.08,.37,.08,.66-.01,.84-.12,.24-.33,.45-.61,.63-.73,.17-1.45,.38-2.16,.61-1.29,.07-2.67-.29-3.3-1.24-1.18-1.79-4.97-11.28-3.13-12.13,1.57-.73,5.42,3.96,7.63,7.77-.12,.43-.22,.9-.3,1.39-.31,1.37,.78,2.05,1.88,2.13Z"/><path class="i" d="M200.67,81.69c.71-.23,1.43-.44,2.16-.61-.54,.35-1.33,.57-2.16,.61Z"/><path class="i" d="M201.87,76.09c.81,1.39,1.4,2.67,1.58,3.52-1.1-.08-2.19-.76-1.88-2.13,.08-.49,.18-.96,.3-1.39Z"/><path class="f" d="M190.67,111.15c.48,.09,.94,.19,1.43,.33,2.56,.66,5.37,1.86,8.35,3.46l-.32,.6c-.33,.37-.65,.74-.97,1.12-4.83-2.68-10.04-4.73-14.47-5.39,.39-.08,.79-.16,1.19-.22,.29-.05,.58-.07,.86-.11,1.2-.13,2.52-.04,3.92,.21h.01Z"/><path class="m" d="M199.16,116.66c-6.16,7.16-10.44,14.17-10.59,22.25-8.55-.19-16.03-.53-22.59-1.03,.07-3.73,.88-7.61,2.35-11.22,.49-.67,.83-1.45,.93-2.12,1.22-2.48,2.75-4.8,4.6-6.79,.56-.64,1.18-1.24,1.82-1.81,1.96-1.74,4.19-3.1,6.65-3.98,.01-.01,.03-.02,.04-.03,.21-.08,.42-.15,.64-.22,.02,0,.03-.01,.04-.01,.53-.17,1.08-.31,1.64-.43,4.43,.66,9.64,2.71,14.47,5.39Z"/><path class="i" d="M186.64,71.07c.13,2.32,1.61,5.58,.53,6.33-.83,.58-2.66-.98-4.27-1.96,1.31,.37,2.52,.34,3.29-.98,.36-.62,.49-1.8,.43-3.39h.02Z"/><path class="f" d="M185.16,109.14c.22,.63,.47,1.27,.72,1.91-.4,.06-.8,.14-1.19,.22-.56,.12-1.11,.26-1.64,.43-.01,0-.02,.01-.04,.01-.22,.07-.43,.14-.64,.22,.98-.86,1.89-1.78,2.79-2.79Z"/><path class="e" d="M183.9,97.82c-.08,.35-.15,.72-.22,1.09-.18,.99-.22,2.08-.14,3.22h0c-.82,.58-1.67,1.52-3.83,2.22-3.79,1.23-9.21-.19-10.88-3.37-.34-.66-.47-1.32-.47-1.97,0-.15,.01-.3,.02-.46,4.71-.31,9.87-.55,15.52-.73Z"/><path class="f" d="M183.54,102.14c.15,2.13,.72,4.47,1.62,7-.9,1.01-1.81,1.93-2.79,2.79-.01,0-.03,.02-.04,.03-2.46,.88-4.69,2.24-6.65,3.98-1.83-4.49-5.79-9.15-8.9-11.7-.35-.91-.49-2.97-.59-5.21l2.17-.02c0,.65,.13,1.31,.47,1.97,1.67,3.18,7.09,4.6,10.88,3.37,2.16-.7,3.01-1.64,3.83-2.21Z"/><path class="i" d="M140.84,107.94c5.17,1.36,10.22,2.68,14.13,3.43h0c3.34,.66,5.84,.89,6.9,.37,2.4-1.18,.98-3.95,.29-6.23-.45-1.43-.6-2.68,.68-3.2,.69-.28,2.18,.49,3.93,1.93,3.11,2.55,7.07,7.21,8.9,11.7-.64,.57-1.26,1.17-1.82,1.81h-.01c-1.68-5.08-5.81-10.02-7.8-9.25-2.21,.85-.53,4.94-2.3,7.25-2.6,3.42-18.73-6.36-45.73-12.12v-.1c2.66-.28,7.42,.6,12.87,1.9,3.19,.74,6.58,1.64,9.94,2.51h.01Z"/><path class="j" d="M173.85,117.74h.01c-1.85,2-3.38,4.32-4.6,6.8,.07-.45,.03-.85-.14-1.15-.95-1.74-14.73-2.11-15.21,.47-.37,2,9.56,4.4,11.7,4.48,1.03,.03,2.03-.72,2.72-1.68-1.47,3.61-2.28,7.49-2.35,11.22-10.39-.77-18.45-1.91-24.69-3.35h0c0-2.26,2.45-2.85,4.23-3.69,.05-.03,.11-.06,.17-.08,1.78-.8,5.6-.54,5.67-1.71,.07-1.07-4.28-2.2-6.93-3.31h-.01c-2.89-1.89-7.59-4.33-12.37-6.95h-.01s-.05-.03-.07-.04c-3.55-1.95-7.11-4-10.02-5.98-.01,0-.01,0-.02,0-4.56-3.13-7.46-6.1-5.99-8.34,.32-.5,1.04-.78,2.07-.89v.1c27.01,5.76,43.14,15.54,45.74,12.12,1.77-2.31,.09-6.4,2.3-7.25,1.99-.77,6.12,4.17,7.8,9.24Z"/><path class="f" d="M169.88,89.39c1.48,3.27-1.23,6.2-1.5,9.16-.01,.16-.02,.31-.02,.46l-2.17,.02c-.16-3.17-.22-6.7-.66-7.83-.52-1.34-1.52-2.13-2.68-2.78,.58-.87,1.12-1.77,1.64-2.74,2.04,.82,4.31,1.44,5.39,3.71Z"/><path class="i" d="M169.12,123.39c.17,.3,.21,.7,.14,1.15-.34,.69-.65,1.4-.93,2.12-.69,.96-1.69,1.71-2.72,1.68-2.14-.08-12.07-2.48-11.7-4.48,.48-2.58,14.26-2.21,15.21-.47Z"/><path class="i" d="M168.33,126.66c.28-.72,.59-1.43,.93-2.12-.1,.67-.44,1.45-.93,2.12Z"/><path class="m" d="M138.37,102.81c-7.93-17.23-12.37-34.78-9.32-38.93,.13-.18,.35-.3,.64-.38l.03,.1c10.41,5.16,17,7.92,20.98,9.95,3.56,1.82,5.03,3.05,5.26,4.9,.19,1.57-.23,4,1.44,6.39,1.32,1.89,3.59,2.54,5.45,3.58,1.16,.65,2.16,1.44,2.68,2.78,.44,1.13,.5,4.66,.66,7.83,.1,2.24,.24,4.3,.59,5.21-1.75-1.44-3.24-2.21-3.93-1.93-1.28,.52-1.13,1.77-.68,3.2l-2.2,.54c-1.83,2.21-3.37,3.88-4.99,5.32h0c-3.91-.75-8.96-2.07-14.13-3.43h-.01c-.85-1.7-1.68-3.41-2.46-5.13Z"/><path class="f" d="M164.49,85.68c-.52,.97-1.06,1.87-1.64,2.74-1.86-1.04-4.13-1.69-5.45-3.58-1.67-2.39-1.25-4.82-1.44-6.39-.23-1.85-1.7-3.08-5.26-4.9,.16-.73,.29-1.48,.39-2.26h0c3.37,1.7,6.91,3.65,10.51,5.74-1.39,2.92-1.25,4.79-.62,6.02,.73,1.41,2.05,2.07,3.51,2.63Z"/><path class="m" d="M162.17,105.51c.69,2.28,2.11,5.05-.29,6.23-1.06,.52-3.56,.29-6.9-.37,1.62-1.44,3.16-3.11,4.99-5.32l2.2-.54Z"/><path class="i" d="M144.43,125.74c2.65,1.11,7,2.24,6.93,3.31-.07,1.17-3.89,.91-5.67,1.71,1.09-.53,1.88-1.18,1.6-2.42-.15-.63-1.21-1.52-2.86-2.6Z"/><path class="f" d="M151.09,71.28h0c-.1,.79-.23,1.54-.39,2.27-3.98-2.03-10.57-4.79-20.98-9.95l-.03-.1c2.56-.65,11.1,2.54,21.4,7.78Z"/><path class="f" d="M144.42,125.74h.01c1.65,1.08,2.71,1.97,2.86,2.6,.28,1.24-.51,1.89-1.6,2.42-.06,.02-.12,.05-.17,.08-1.78,.84-4.23,1.43-4.23,3.68h0c-10.27-2.37-15.63-5.55-18.42-9.28,1.79-2.4,4.55-4.57,9.08-6.45l.02-.04s.05,.03,.07,.04h.01c4.78,2.62,9.48,5.06,12.37,6.95Z"/><path class="e" d="M138.37,102.81c.78,1.72,1.61,3.43,2.46,5.13-3.36-.87-6.75-1.77-9.94-2.51,2.09-.94,4.54-1.81,7.48-2.62Z"/><path class="e" d="M120.15,118.38h0v-.03c.29-1.94,.72-3.7,1.71-5.47l.08-.12s.01,0,.02,0c2.91,1.98,6.47,4.03,10.02,5.98l-.02,.04c-4.53,1.88-7.29,4.05-9.08,6.45-1.59-2.14-2.35-4.43-2.72-6.86Z"/></g></g><g id="d"><path class="l" d="M236.4,110.9c1.77,.14,3.5,.54,5.17,1.13,.57,.2,1.14,.42,1.7,.67,3.36,1.47,6.48,3.71,9.13,6.45,.45,.45,.87,.93,1.29,1.42,2.48,2.86,4.44,6.12,5.69,9.5,.72,1.97,1.21,3.97,1.4,5.95"/><path class="l" d="M214.85,124.9c1.69,1.36,3.39,2.75,5.06,4.2,.99,.86,2,1.73,2.98,2.63,.86,.75,1.7,1.51,2.53,2.3,.14,.11,.29,.24,.42,.38,.23,.22,.48,.44,.71,.65,1.28,1.21,2.56,2.42,3.8,3.66"/><path class="l" d="M259.38,130.06c9.1-1.82,16.87-6.72,19.91-10.18,.98-1.12,1.47-2.08,1.36-2.75-.76-4.82-7.55-.78-8.12-4.31-.18-1.13,1.92-4.01,4.84-7.66,7.35-9.13,19.89-23.05,15.19-26.32-3.61-2.49-22.67,14.06-33.39,21.05-.29,.2-.57,.38-.86,.56-2.5,1.59-4.48,2.56-5.55,2.48-1.86-.14-2.3-1.7-2.45-3.46h-.01c-.2-2.3,.04-4.9-1.97-4.9-.88,0-2.23,1.78-3.5,4.4-1.7,3.57-3.25,8.7-3.25,13.05"/><path class="l" d="M217.52,121.32c9.41,4.26,16.85,9.12,20.37,17.1"/><path class="l" d="M286.05,139.86c0,32.85,0,59.49-81.52,59.49s-81.52-26.63-81.52-59.49"/><path class="l" d="M289.32,125.34c0,15.29,0,27.69-84.8,27.69s-84.8-12.4-84.8-27.69"/><path class="l" d="M289,118.41h0c-.36,2.46-1.11,4.79-2.71,6.93-6.17,8.29-24.91,13.85-81.77,13.85s-75.57-5.57-81.75-13.84c-1.59-2.14-2.35-4.44-2.72-6.87h0"/><path class="l" d="M277.37,105.15c8.36,3.54,10.87,8.11,11.62,13.25h0c.33,2.23,.33,4.54,.33,6.93"/><line class="l" x1="250.31" y1="99.47" x2="250.29" y2="99.47"/><path class="l" d="M138.28,102.92c-2.94,.8-5.4,1.67-7.48,2.61"/><path class="l" d="M121.85,112.88c-.99,1.77-1.52,3.63-1.81,5.58v.03c-.31,2.19-.31,4.49-.31,6.84"/><path class="l" d="M183.79,97.93c-5.65,.18-10.8,.42-15.51,.73"/><path class="l" d="M228.48,111.89h-.01s-.01,0-.01,0"/><path class="l" d="M286.29,125.33c-1.48-1.99-3.7-3.82-6.99-5.46"/><path class="l" d="M131.95,118.9h-.01c-4.53,1.88-7.38,4.06-9.17,6.45"/><path class="l" d="M259.17,99.89c3.34-17.14,3.57-32.99-.03-36.16-1.62-1.42-10.01,3.79-20.01,11.99-4.06,3.32-8.41,7.15-12.66,11.23"/><path class="l" d="M231.38,95.15s.02,.02,.02,.03c3,2.86,6.41,5.1,11.2,8.07"/><path class="l" d="M239.12,75.72c2.22,6.29,6.42,10.27,12.45,13.52"/><path class="l" d="M230.35,138.72c-1.24-1.24-2.52-2.45-3.8-3.66-.23-.22-.48-.44-.71-.65-.14-.14-.29-.27-.42-.38-.83-.78-1.67-1.55-2.53-2.3-.98-.9-1.99-1.77-2.98-2.63-1.67-1.46-3.37-2.84-5.06-4.2-4.2-3.32-8.38-6.31-12.34-8.64-3.77-2.2-7.33-3.85-10.51-4.67-.49-.14-.97-.24-1.44-.33-1.4-.26-2.72-.34-3.92-.22-.29,.04-.57,.07-.86,.11-.97,.15-1.92,.37-2.83,.65-.01,0-.03,.01-.04,.01-.22,.07-.44,.14-.64,.22-.01,0-.03,.01-.04,.03-2.46,.88-4.69,2.25-6.65,3.99-6.01,5.32-9.55,13.95-9.7,21.94m4.8,14.17h-.01"/><path class="l" d="M141.19,134.63c0-3.74,6.75-2.91,6-6.18-.41-1.76-7.73-5.43-15.24-9.55h-.01c-3.57-1.96-7.16-4.03-10.08-6.01-4.57-3.13-7.48-6.11-6.01-8.36,1.17-1.78,7.4-.79,14.95,1.01,3.18,.75,6.59,1.65,9.95,2.52,5.17,1.36,10.22,2.68,14.12,3.43,3.35,.65,5.85,.88,6.91,.37,3.91-1.93-2.33-8.08,.97-9.43,1.93-.79,9.97,6.61,12.83,13.63"/><path class="l" d="M230.35,138.72c-1.24-1.24-2.52-2.45-3.8-3.66-.23-.22-.48-.44-.71-.65-.14-.14-.29-.27-.42-.38-.83-.79-1.67-1.55-2.53-2.3-.98-.9-1.99-1.77-2.98-2.63-1.67-1.46-3.37-2.84-5.06-4.2,.67-.95,1.33-1.86,2.01-2.74,.22-.29,.44-.56,.67-.84,.86-1.1,1.76-2.16,2.64-3.12h.01c2.8-3.03,5.59-5.27,8.27-6.31t.01,0"/><path class="l" d="M185.78,111.15c-.26-.64-.5-1.28-.72-1.91-.9-2.53-1.47-4.89-1.62-7.01-.08-1.14-.04-2.23,.14-3.23,.07-.37,.14-.73,.22-1.09,.9-3.74,2.88-6.95,5.57-9.58h.01c6.08-5.96,15.73-8.84,24.07-7.97,2.76,.3,5.39,1.01,7.69,2.15,1.96,.98,3.73,2.49,5.33,4.44,1.84,2.23,3.48,5.01,4.91,8.19,0,.01,.01,.01,.01,.03,.44,.98,.86,1.99,1.25,3.03,1.5,3.85,2.74,8.15,3.76,12.68-2.3-.22-4.63-.03-6.97,.65-.31,.1-.64,.2-.95,.34h-.01"/><path class="l" d="M189.37,88.34c-6.78-3.36-13.58-11.92-12.65-13.8,1.57-3.18,7.26,3.49,9.47-.26,2.83-4.82-8.81-43.65-3.93-46.36,7.01-3.88,17.76,31.85,21.56,33.02,3.43,1.06,2.81-6.81,7.46-5.36,2.66,.83,5.32,12.96,2.16,24.8"/><path class="l" d="M190.56,111.27c6.75-5.01,13.41-8.24,20.84-7.91"/><path class="l" d="M219.78,118.44c.14-.08,.26-.17,.39-.23h.02"/><path class="l" d="M140.74,108.06c-9.44-18.73-15.14-39.51-11.79-44.07,1.27-1.73,10.55,1.56,22.03,7.4,3.37,1.72,6.91,3.66,10.51,5.75"/><path class="l" d="M185.06,109.24c-.91,1.02-1.84,1.96-2.83,2.83"/><path class="l" d="M164.38,85.78c-2.58,4.84-5.8,8.15-10.91,13.13"/><path class="l" d="M150.99,71.39c-.82,6.59-4.06,11.36-9.23,15.81"/><path class="l" d="M159.87,106.15c-1.84,2.21-3.38,3.89-5.01,5.33"/><path class="l" d="M161.49,77.14c-1.39,2.92-1.25,4.79-.62,6.03,.73,1.41,2.06,2.07,3.51,2.63,2.04,.82,4.31,1.44,5.39,3.71,1.89,4.16-3.01,7.76-1.05,11.59,1.67,3.18,7.09,4.6,10.88,3.37,2.16-.7,3.01-1.64,3.83-2.21"/><path class="l" d="M200.03,115.65c-6.68,7.57-11.42,14.89-11.57,23.38"/><path class="l" d="M225.84,134.41c-2.08,1.62-3.76,3.1-5.17,4.61"/></g></svg>