<?xml version="1.0" encoding="UTF-8"?><svg xmlns="http://www.w3.org/2000/svg" viewBox="0 0 336.39 524.48"><defs><style>.e{fill:#ead0d0;}.f{fill:#fcb9b9;}.g{fill:#fff;}.h{fill:#eab5a7;}.i{fill:#a06858;}.j{fill:#bc7171;}.k{fill:#472b28;}.l{fill:#824f46;}.m{stroke-width:2px;}.m,.n{fill:none;stroke:#3f2a25;stroke-linecap:round;stroke-linejoin:round;}.o{fill:#eaa0a0;}.p{fill:#b27967;}.q{fill:#935d51;}.r{fill:#e08f82;}</style></defs><g id="a"><path class="m" d="M149.15,369.08s-.05,.04-.08,.06c-17.57,13.48-31.47,8.31-35.76,3.36-1.85-2.13-2.31-4.54-1.84-7.04,1.75-9.37,16.41-20.1,19.06-22.96,7.93-8.55,20.61-40.28,25.3-43.93,2.03-1.58,5.72-3.54,7.68-5.5,1.61-1.61,.32-2.57-.43-3.97h-.01"/><path class="m" d="M218.89,349.77c.09,.1,.18,.2,.27,.31,2.89,3.23,5.86,6.21,8.88,8.79,6.06,5.18,18.7,8.8,26.65,7.11,2.44-.52,4.43-1.53,5.66-3.16,.74-.97,1.19-2.15,1.4-3.47,.89-5.37-2.18-12.97-6.09-17.86-6.16-7.69-11.64-7.38-22.4-13.14-24.13-12.9-37.18-36.94-44.87-37.56-1.47-.12-8.35-.51-9.53-1.44-1.96-1.55-2.67-2.55-3-4.14h0"/><path class="m" d="M149.07,369.14c1.03,4.29,2.7,8.4,5.14,12.36,2.16,3.52,1.52,46.22,4.11,50.58,3.27,5.5,10.63,6.82,14.28,4.99,4.89-2.45,12.83-25.57,17.43-49.44"/><path class="m" d="M228.02,382.95c1.07-1.32,8.37-5.95,10.32-5.95,4.4,0,12.18,7.13,9.49,12.72-3.32,6.92-17.99,23.1-27.29,22.01-10.86-1.27-21.89-22.57-26.28-24.16-1.11-.4-2.63-.3-4.23,.06"/><path class="m" d="M218.89,349.77c.09,.1,.18,.2,.27,.31,3.56,4.46,6.01,20.06,4.18,25.49-.39,1.15,2.07,4.41,4.68,7.38"/><path class="m" d="M261.91,359.58c-.05-.08-.11-.16-.16-.23"/><path class="m" d="M196.42,207.62c6.91,7.94,11.01,18.48,11.01,30.86,0,17.52-8.59,32.04-21.63,41.18-3.08,2.17-6.41,4.03-9.94,5.55"/><path class="m" d="M173.98,193.64c-2.66-.77-5.42-1.33-8.28-1.67"/><path class="m" d="M141.03,194.36c-15.7,5.43-26.04,18.13-29.66,33.17-1.59,6.55-1.9,13.54-.82,20.57h0c.1,.72,.22,1.41,.36,2.12,.7,3.66-10.52,9.55-10.01,12.79,.33,2.03,.83,4.06,1.47,6.02,.32,.97,.67,1.92,1.06,2.85,1.65,4.02,3.88,7.63,6.34,10.31,7.38,8.02,32.38,9.06,47.62,7.69,1.92-.17,3.82-.43,5.68-.78h.01"/><path class="m" d="M103.43,271.88c-.08,0-.16,0-.25-.02"/><path class="m" d="M173.98,193.64c4.59-16.93,7.49-45.5,11.56-67.93,2.67-14.67,16.51-31.61,24.95-28.19,11.32,4.59,23.55,42.41,13.93,67.29-6.38,16.52-20.68,32.02-28,42.81"/><path class="m" d="M141.03,194.36c-4.55-12.07-12.15-28.51-13.94-44.2-3.03-26.48,16.35-60.15,27.47-61.84,8.31-1.26,16.87,18.55,15.97,33.43-1.42,23.41-5.41,52.83-4.83,70.22"/><path class="m" d="M110.55,248.11h0s-.06-.05-.09-.07"/><path class="m" d="M74.39,256.64c8.72-2.47,21.78-2.72,32.46-.64"/><path class="m" d="M102.37,269.02c-4.27,1-14.57,3.89-19.08,5.66"/><path class="m" d="M189.43,280.78c-1.22-.4-2.43-.77-3.63-1.12"/></g><g id="b"><g><path class="j" d="M261.72,359.15c-.21,1.31-.66,2.49-1.4,3.46-1.23,1.62-3.22,2.64-5.66,3.16-7.94,1.7-20.59-1.93-26.65-7.1-3.12-2.67-6.18-5.77-9.15-9.12h-.01c3.71,4,6.34,20.26,4.46,25.81-.39,1.15,2.07,4.42,4.68,7.39,1.07-1.33,8.36-5.95,10.32-5.95,4.4,0,12.18,7.12,9.49,12.72-3.32,6.91-17.99,23.1-27.29,22.01-10.86-1.28-21.9-22.57-26.29-24.17-1.11-.4-2.63-.3-4.22,.06-4.6,23.87-12.54,47-17.43,49.44-3.66,1.83-11.01,.51-14.28-4.99-2.6-4.36-1.95-47.06-4.11-50.57-2.44-3.96-4.11-8.07-5.14-12.37-17.57,13.49-31.47,8.31-35.76,3.37-1.85-2.13-2.31-4.54-1.84-7.04,1.75-9.38,16.41-20.11,19.06-22.96,7.93-8.56,20.6-40.28,25.3-43.94,2.02-1.57,5.72-3.54,7.67-5.5,1.62-1.61,.32-2.56-.44-3.97,4.46-.83,8.76-2.14,12.8-3.89,.32,1.59,1.04,2.59,3,4.15,1.18,.93,8.06,1.31,9.52,1.43,7.7,.62,20.75,24.66,44.87,37.57,10.77,5.75,16.25,5.44,22.41,13.14,3.91,4.89,6.98,12.5,6.09,17.86Z"/><path class="j" d="M107.88,265.83c2.22,.35,3.96-.6,3.9-2.02-.06-1.19-6.31-2.48-7.12-1.98-.88,.54,.52,3.28,2.49,3.84,.25,.07,.49,.12,.73,.16Zm10.82,6.08c-.96-.2-1.95-.46-2.96-.75-1.44-.42-2.9-.93-4.36-1.48-.38-.14-.73-.24-1.05-.31-.61-.13-1.14-.14-1.6-.06-.66,.1-1.2,.37-1.7,.69-.73,.46-1.36,1.04-2.11,1.38h0c4.67,11.18,13.57,10,13.78,.53Zm77.69-64.5c6.91,7.94,11.01,18.48,11.01,30.86,0,17.52-8.6,32.05-21.63,41.18-3.08,2.17-6.42,4.03-9.94,5.55-4.04,1.75-8.34,3.06-12.8,3.89-1.86,.35-3.75,.61-5.67,.78-15.24,1.37-40.24,.34-47.62-7.68-2.46-2.69-4.69-6.3-6.34-10.32-.39-.93-.74-1.88-1.06-2.85-.65-1.96-1.15-3.98-1.47-6.01-.28-1.8,3.05-4.42,5.95-7.02,2.32-2.08,4.37-4.15,4.06-5.78-.13-.7-.26-1.4-.36-2.1-.82-5.35-.84-10.69-.11-15.82h.02c2.2,.09,5.33-.85,5.49-1.99,.16-1.08-2.21-3.24-4.58-2.78,3.62-15.04,13.96-27.74,29.66-33.17,5.18-1.8,10.94-2.8,17.23-2.83,2.54,0,5.02,.13,7.44,.44,2.86,.34,5.62,.9,8.28,1.67,4.59-16.93,7.49-45.5,11.56-67.93,2.66-14.67,16.51-31.61,24.95-28.18,11.32,4.59,23.55,42.4,13.93,67.29-6.38,16.51-20.67,32.01-28,42.8Zm-46.51,30.37c.61-.55-.05-2.7-1.49-3.85-1.9-1.51-4.75-.96-5-.14-.41,1.33,5.4,4.97,6.49,3.99Z"/><path class="j" d="M154.53,88.11c8.31-1.26,16.87,18.55,15.97,33.43-1.42,23.41-5.41,52.83-4.83,70.22-2.42-.31-4.9-.45-7.44-.44-6.29,.03-12.05,1.03-17.23,2.83-4.55-12.07-12.15-28.51-13.94-44.2-3.03-26.48,16.35-60.15,27.47-61.84Z"/><path class="j" d="M148.39,233.93c1.44,1.15,2.1,3.3,1.49,3.85-1.09,.98-6.9-2.66-6.49-3.99,.25-.82,3.1-1.37,5,.14Z"/><path class="j" d="M115.74,271.16c1.01,.29,2,.55,2.96,.75-.21,9.47-9.11,10.65-13.78-.52h0c.75-.35,1.38-.93,2.11-1.39,.39,2.98,4.1,6.22,5.94,6.23,2.77,0,2.84-4.84,2.77-5.07Z"/><path class="j" d="M111.34,227.32c2.37-.46,4.74,1.7,4.58,2.78-.16,1.14-3.29,2.08-5.49,1.99h-.02c.24-1.61,.54-3.21,.93-4.77Z"/><path class="j" d="M115.74,271.16c.07,.23,0,5.08-2.77,5.07-1.31-1.08-2.86-5.66-2.64-6.86,.32,.07,.67,.17,1.05,.31,1.46,.55,2.92,1.06,4.36,1.48Z"/><path class="j" d="M111.78,263.81c.06,1.42-1.68,2.37-3.9,2.02-.24-.04-.48-.09-.73-.16-1.97-.56-3.37-3.3-2.49-3.84,.81-.5,7.06,.79,7.12,1.98Z"/><path class="j" d="M110.33,269.37c-.22,1.2,1.33,5.78,2.64,6.86-1.84-.01-5.55-3.25-5.94-6.23,.5-.32,1.04-.59,1.7-.69,.46-.08,.99-.07,1.6,.06Z"/></g></g><g id="c"><g><path class="e" d="M114.17,270.86c.54,.18,1.09,.35,1.62,.5,.08,.23,0,5.08-2.77,5.07-1.31-1.07-2.84-5.64-2.64-6.85,.33,.06,.68,.17,1.06,.31,.91,.34,1.82,.67,2.73,.96h0Z"/><path class="g" d="M110.38,269.58c-.2,1.21,1.33,5.78,2.64,6.85-1.84-.01-5.53-3.24-5.93-6.22,.84-.55,1.82-.94,3.29-.63Z"/><path class="k" d="M115.79,271.36c1.01,.3,2.01,.56,2.97,.76-.22,9.46-9.12,10.64-13.78-.53,.75-.34,1.38-.92,2.11-1.38,.4,2.98,4.09,6.21,5.93,6.22,2.77,.01,2.85-4.84,2.77-5.07Z"/><path class="l" d="M161.14,402.44c4.68,0,8.47,2.01,8.47,4.5s-3.79,4.5-8.47,4.5c-1.8,0-3.48-.3-4.85-.81-.1-2.41-.19-4.86-.27-7.27,1.42-.58,3.19-.92,5.12-.92Z"/><path class="i" d="M221.91,402.44c3.86,0,7.04,2.93,7.4,6.7-3.09,1.84-6.13,2.9-8.75,2.59-2.02-.24-4.05-1.17-6.04-2.55,.34-3.79,3.51-6.74,7.39-6.74Z"/><path class="o" d="M223.38,116.89c4.83,14.19,6.73,33.29,1.07,47.92-6.39,16.51-20.68,32.01-28.01,42.8-2.06,3.04-3.58,5.7-4.2,7.91-.02-.05-.04-.09-.06-.14,.63-4.69,1.01-9.24,1.22-13.73,6.01-5.41,16.4-19.74,23.03-32.43,9.45-18.07,8.69-38.3,6.95-52.33Z"/><path class="f" d="M223.38,116.89c1.74,14.03,2.5,34.26-6.95,52.33-6.63,12.69-17.02,27.02-23.03,32.43,1.18-25.18-3.04-47.98,1.73-77.38,.79-6.89,8.58-21.16,18.33-24.81l.02-.02c3.67,3.26,7.23,9.6,9.9,17.44h0Z"/><path class="p" d="M192.08,216.14c-.13,.91-.27,1.83-.42,2.75-.92-1.74-7.44-5.3-8.81-14.01-2.28-14.47-3.22-38.37-3.95-36.05,0,.01-.01,.02-.01,.04,2.22-14.04,4.23-29.7,6.68-43.16,2.66-14.68,16.5-31.61,24.95-28.19,.99,.4,1.98,1.05,2.96,1.92l-.02,.02c-9.75,3.65-17.54,17.92-18.33,24.81-4.77,29.4-.55,52.2-1.73,77.38-.21,4.49-.59,9.04-1.22,13.73-.03,.25-.07,.5-.1,.76Z"/><path class="p" d="M161.47,91.71c10.42,25.05,4.46,55.85-2.51,63.48-3.68,4.03-13.95,12.26-19.17,19.56-4.39,6.15-1.04,12.05,.12,16.63-4.58-11.72-11.14-26.79-12.79-41.22-3.03-26.48,16.35-60.15,27.47-61.84,2.35-.36,4.71,.97,6.88,3.39Z"/><path class="f" d="M111.83,264.01c.06,1.42-1.68,2.38-3.89,2.02-.24-.04-.48-.09-.73-.16-1.97-.56-3.37-3.3-2.5-3.84,.82-.49,7.07,.79,7.12,1.98Z"/><path class="p" d="M110.58,248.1c-.82-5.35-.84-10.67-.11-15.8h.02c2.2,.09,5.33-.85,5.49-1.99,.16-1.08-2.21-3.24-4.58-2.78,3.62-15.04,13.96-27.74,29.66-33.17,1.62-.56,3.3-1.05,5.03-1.45h.01c9.19-.5,22.01,2.67,26.17,6.29-.63,1.76-1.31,3.31-2.02,4.59-5.23,8.72,18.53,18.05,21.28,15.89,.28-.22,.3-.47,.13-.79,.15-.92,.29-1.84,.42-2.75,.04-.2,.09-.41,.16-.62,5.07,12.21,8.04,29.86,.63,45.96-.81,1.74-1.73,3.47-2.79,5.17-2.69,4.32-7.42,7.93-13.38,10.83-18.03,8.78-47.29,11.02-64.89,6.44-.77-.53-1.44-1.11-2.01-1.73-2.46-2.68-4.69-6.29-6.34-10.31-.39-.93-.74-1.89-1.06-2.86-.65-1.96-1.15-3.98-1.47-6.01-.51-3.24,10.71-9.13,10.01-12.79-.14-.71-.26-1.41-.36-2.12Zm-2.64,17.93c2.21,.36,3.95-.6,3.89-2.02-.05-1.19-6.3-2.47-7.12-1.98-.87,.54,.53,3.28,2.5,3.84,.25,.07,.49,.12,.73,.16Zm-2.96,5.56c4.66,11.17,13.56,9.99,13.78,.53-.96-.2-1.96-.46-2.97-.76-.53-.15-1.08-.32-1.62-.5h0c-.91-.3-1.82-.63-2.73-.97-.38-.14-.73-.25-1.06-.31-1.47-.31-2.45,.08-3.29,.63-.73,.46-1.36,1.04-2.11,1.38Zm64.52-11.52c0-1.99-3.19-3.6-7.12-3.6s-7.12,1.61-7.12,3.6,3.19,3.6,7.12,3.6,7.12-1.62,7.12-3.6Zm-19.56-22.09c.61-.55-.05-2.69-1.49-3.84-1.91-1.52-4.75-.97-5-.14-.41,1.33,5.4,4.97,6.49,3.98Zm-36.63,17.72c3.44,2.36,11.85-1.33,11.04-2.74-1.18-2.05-9.07-2.74-10.96-1.31-1.05,.8-1.47,3.09-.08,4.05Z"/><path class="q" d="M163.09,289.1c-1.86,.35-3.75,.61-5.67,.78-14.06,1.26-36.44,.48-45.61-5.96,17.6,4.58,46.86,2.34,64.89-6.44,2.98,.55,6.02,1.28,9.13,2.19-3.08,2.16-6.42,4.02-9.94,5.54-4.04,1.75-8.34,3.06-12.8,3.89Z"/><path class="q" d="M175.89,285.21c.21,1.02,.57,1.79,1.32,2.62-1.18,1.47-9.14,4.41-12.98,3.28-.19-.65-.74-1.27-1.14-2.01,4.46-.83,8.76-2.14,12.8-3.89Z"/><path class="i" d="M261.77,359.35c-.21,1.32-.66,2.5-1.39,3.47-.39,.52-.86,.98-1.41,1.38,.94-2.6,.76-5.78-.13-8.94,.9,1.2,1.85,2.54,2.93,4.09Z"/><path class="p" d="M258.84,355.26c.89,3.16,1.07,6.34,.13,8.94-1.14,.85-2.59,1.43-4.25,1.78-7.95,1.69-20.59-1.93-26.66-7.11-3.12-2.66-6.17-5.75-9.14-9.1-7.25-8.14-13.99-17.76-19.85-26.14,12.15,20.11,23.49,43.75,24.3,51.94-.39,1.14,2.07,4.41,4.68,7.38,2.44,2.78,5.01,5.29,5.49,5.53,2.33,3,5.46,10.43,1.91,16.13-1.99,1.74-4.08,3.31-6.14,4.53-.36-3.77-3.54-6.7-7.4-6.7s-7.05,2.95-7.39,6.74c-8.69-5.97-16.67-20.32-20.24-21.61-.33-.12-.69-.19-1.08-.22-.93-.1-2.01,.02-3.14,.27h-.03c-4.56,.34-12.18,.5-19.38-2.01-13.13-4.57-20.15-14.94-22.54-22.6h-.07c-1.18-10.96,1.05-23.14,4.62-37.13-9.13,19.54-6.62,32.47-7.71,32.47-.78-.03-.99-4.9-3.65-7.44-4.5-4.3-14.08-4.04-20.36,.38,4.13-4.1,8.32-7.39,9.61-8.79,7.94-8.55,20.61-40.28,25.31-43.93,2.02-1.58,5.71-3.55,7.67-5.5,.76-.76,.87-1.37,.7-1.96,3.84,1.13,11.8-1.81,12.98-3.28,.42,.47,.97,.96,1.68,1.52,1.17,.93,8.06,1.32,9.52,1.43,2.06,.17,4.51,2.01,7.45,4.87h0c16.08,28.92,37.35,31.99,35.65,40.26-1.28,6.21-3.47,9.17-.78,11.55,5.67,5.02,10.86-8.31,16.78-6.85,4.3,1.06,9.45,7.84,11.34,14.65Z"/><path class="q" d="M111.5,365.46c.89-4.78,5.14-9.91,9.44-14.17,6.28-4.42,15.86-4.68,20.36-.38,2.66,2.54,2.87,7.41,3.65,7.44,1.09,0-1.42-12.93,7.71-32.47-3.57,13.99-5.8,26.17-4.62,37.14,.22,2.09,.57,4.12,1.06,6.12-17.57,13.48-31.47,8.31-35.76,3.36-1.85-2.13-2.31-4.54-1.84-7.04Z"/><path class="q" d="M149.1,369.14c-.49-2-.84-4.03-1.06-6.12h.07c2.39,7.65,9.41,18.02,22.54,22.59,7.2,2.51,14.82,2.35,19.38,2.02h.02c-4.59,23.87-12.53,46.99-17.42,49.44-3.66,1.83-11.01,.51-14.28-4.99-1.14-1.92-1.66-11.28-2.06-21.45,1.37,.51,3.05,.81,4.85,.81,4.68,0,8.47-2.02,8.47-4.5s-3.79-4.5-8.47-4.5c-1.93,0-3.7,.34-5.12,.92-.39-10.53-.8-20.27-1.78-21.86-2.44-3.96-4.11-8.07-5.14-12.36Z"/><path class="q" d="M238.37,377c4.4,0,12.17,7.13,9.49,12.72-1.77,3.67-6.74,9.97-12.41,14.89,3.55-5.7,.42-13.13-1.91-16.13-.48-.24-3.05-2.75-5.49-5.53,1.07-1.32,8.36-5.95,10.32-5.95Z"/><path class="i" d="M218.91,349.77c3.71,3.98,6.34,20.24,4.46,25.8-.81-8.19-12.15-31.83-24.3-51.94,5.86,8.38,12.6,18,19.85,26.14h-.01Z"/><path class="q" d="M255.68,341.49c3.92,4.89,6.98,12.5,6.09,17.86-1.08-1.55-2.03-2.89-2.93-4.09-1.89-6.81-7.04-13.59-11.34-14.65-5.92-1.46-11.11,11.87-16.78,6.85-2.69-2.38-.5-5.34,.78-11.55,1.7-8.27-19.57-11.34-35.65-40.25h0c8.03,7.82,19.76,23.24,37.42,32.69,10.77,5.76,16.25,5.45,22.4,13.14Z"/><path class="q" d="M146.09,192.91c-1.73,.4-3.41,.89-5.03,1.45-.36-.97-.75-1.96-1.15-2.98-1.16-4.58-4.51-10.48-.12-16.63,5.22-7.3,15.49-15.53,19.17-19.56,6.97-7.63,12.93-38.43,2.51-63.48,5.51,6.15,9.74,19.36,9.09,30.04-1.42,23.41-5.41,52.83-4.83,70.22-2.42-.31-4.9-.45-7.44-.44-4.32,.02-8.39,.5-12.19,1.38h-.01Z"/><path class="q" d="M191.66,218.89c-.04,.26-.09,.53-.13,.79-2.75,2.16-26.51-7.17-21.28-15.89,4.58-7.65,7.66-28.36,8.45-33.7,.1-.67,.17-1.09,.19-1.22,0-.02,.01-.03,.01-.04,.73-2.32,1.67,21.58,3.95,36.05,1.37,8.71,7.89,12.27,8.81,14.01Z"/><path class="q" d="M174.01,193.64c-.55,2.03-1.13,3.89-1.74,5.56-4.16-3.62-16.98-6.79-26.17-6.29,3.8-.88,7.87-1.36,12.19-1.38,2.54,0,5.02,.13,7.44,.44,2.86,.34,5.62,.9,8.28,1.67Z"/><path class="q" d="M192.87,261.48c7.41-16.1,4.44-33.75-.63-45.96,.62-2.21,2.14-4.87,4.2-7.91h0c6.91,7.95,11.01,18.49,11.01,30.87,0,17.52-8.6,32.05-21.63,41.19-3.11-.91-6.15-1.64-9.13-2.19,5.96-2.9,10.69-6.51,13.38-10.83,1.06-1.7,1.98-3.43,2.79-5.17Z"/><path class="q" d="M124.35,252.96c.81,1.41-7.6,5.1-11.04,2.74-1.39-.96-.97-3.25,.08-4.05,1.89-1.43,9.78-.74,10.96,1.31Z"/><ellipse class="r" cx="162.38" cy="260.07" rx="7.12" ry="3.6"/><path class="h" d="M111.4,227.53c2.37-.46,4.74,1.7,4.58,2.78-.16,1.14-3.29,2.08-5.49,1.99h-.02c.24-1.61,.54-3.21,.93-4.77Z"/><path class="h" d="M148.45,234.14c1.44,1.15,2.1,3.29,1.49,3.84-1.09,.99-6.9-2.65-6.49-3.98,.25-.83,3.09-1.38,5,.14Z"/></g><path class="q" d="M136.21,251.6c1.03-4.65,6.11-9.52,10.66-10.01,5.06-.54,10.13,4.9,11.69,10.01"/><path class="q" d="M110.85,248.04c-.05-5.43-1.01-7.93-.55-8,.98-.15,2.26,4,2.48,9.68"/><path class="n" d="M224.45,268.77c18.52-1.83,37.04-3.65,55.57-5.48"/><path class="n" d="M205.76,284.08c18.52-1.83,37.04-3.65,55.57-5.48"/><path class="n" d="M233.54,295.95c18.52-1.83,37.04-3.65,55.57-5.48"/></g><g id="d"><path class="n" d="M163.17,289.17c.75,1.41,2.05,2.36,.44,3.98-1.96,1.96-5.65,3.93-7.67,5.5-4.7,3.65-17.37,35.38-25.3,43.93-3.35,3.61-26,19.88-17.22,30,4.3,4.96,18.23,10.14,35.84-3.42"/><path class="n" d="M175.96,285.29c.32,1.59,1.04,2.6,3,4.15,1.17,.93,8.06,1.32,9.52,1.43,7.7,.62,20.75,24.66,44.87,37.57,10.76,5.76,16.25,5.45,22.4,13.14,4.87,6.09,8.43,16.38,4.7,21.33-5.23,6.93-24.39,2.82-32.32-3.95-17.38-14.84-32.93-43.21-42.13-52.6"/><path class="n" d="M156.95,310.37c-8.32,29.93-14.33,52.24-2.64,71.22,2.16,3.51,1.51,46.22,4.11,50.58,3.27,5.5,10.63,6.82,14.28,4.99,4.89-2.45,12.83-25.57,17.43-49.44"/><path class="n" d="M183.01,390.39c2.51-1.27,8.38-3.82,11.35-2.74,4.39,1.59,15.42,22.89,26.28,24.16,9.3,1.09,23.97-15.1,27.29-22.01,2.69-5.59-5.09-12.72-9.49-12.72-1.96,0-9.25,4.62-10.32,5.95"/><path class="n" d="M233.62,388.56c-.99-.5-10.92-10.7-10.17-12.91,1.88-5.55-.75-21.81-4.46-25.8"/><path class="n" d="M241.31,352.56c6.23,4.17,9.18,6.33,13.48,13.5"/><path class="n" d="M247.57,345.65c6.83,3.64,9.2,6.46,14.44,14.01"/><path class="n" d="M111.57,365.54c4.88-2.83,7.93-4.03,13.38-4.91"/><path class="n" d="M115.73,374.13c5.22-2.22,8.32-3.82,12.1-6.74"/><path class="n" d="M174.08,193.72c-2.66-.77-5.42-1.33-8.28-1.67-2.42-.31-4.9-.45-7.44-.44-6.29,.03-12.05,1.03-17.23,2.83-23.22,8.03-34.71,31.98-30.12,55.86,.7,3.66-10.52,9.55-10,12.8,1.17,7.36,4.68,14.61,8.87,19.18,7.38,8.02,32.38,9.06,47.61,7.69,27.47-2.48,50.04-23.01,50.04-51.4,0-12.38-4.1-22.92-11.01-30.86"/><path class="n" d="M111.47,227.61c2.37-.46,4.74,1.7,4.58,2.78-.16,1.14-3.29,2.08-5.49,1.99"/><path class="n" d="M143.52,234.08c.25-.83,3.1-1.38,5,.14,1.44,1.15,2.1,3.3,1.49,3.84-1.09,.99-6.9-2.66-6.49-3.98Z"/><path class="n" d="M135.18,252.19c6.32-2.37,14.2-2.44,23.38-.59"/><path class="n" d="M127.29,271.73c-3.31,2.07-9.65,.56-15.78-1.76-4.55-1.72-5.06,2.42-8.23,1.97"/><path class="n" d="M118.83,272.2c-.21,9.47-9.11,10.65-13.78-.52"/><path class="n" d="M107.28,265.95c2.54,.72,4.69-.28,4.62-1.85-.05-1.19-6.3-2.48-7.12-1.98-.88,.53,.52,3.28,2.5,3.83Z"/><path class="n" d="M108.87,269.6c.49-.52-.95-2.79-.85-3.48"/><path class="n" d="M170.32,203.87c7-12.61,10.24-50.12,15.32-78.08,2.66-14.67,16.51-31.61,24.95-28.19,11.32,4.59,23.55,42.41,13.93,67.29-8.37,21.65-30.34,41.56-32.38,51.4"/><path class="n" d="M195.2,124.35c-5.88,36.22,1.9,62.43-3.6,95.41"/><path class="n" d="M141.13,194.44c-4.55-12.07-12.15-28.51-13.94-44.2-3.03-26.48,16.35-60.15,27.47-61.84,8.31-1.26,16.87,18.55,15.97,33.43-1.42,23.41-5.41,52.83-4.83,70.22"/><path class="n" d="M112.93,250.3c-.9-1.09-1.32-1.37-2.37-2.18"/><path class="n" d="M74.49,256.72c8.72-2.47,21.78-2.72,32.46-.64"/><path class="n" d="M102.47,269.11c-4.27,1-14.57,3.89-19.08,5.66"/><path class="n" d="M157.53,266.29c12.43-5.36,28.4-6.5,39.83-3.96"/><path class="n" d="M189.53,280.86c-11.29-3.68-21.8-5.23-31.28-4.22"/><path class="n" d="M107.16,270.28c.39,2.98,4.09,6.22,5.93,6.23,2.77,.01,2.85-4.84,2.77-5.07"/><path class="n" d="M110.46,269.66c-.22,1.2,1.33,5.78,2.64,6.85"/></g></svg>