<svg width="222" height="449" viewBox="0 0 222 449" fill="none" xmlns="http://www.w3.org/2000/svg">
<path d="M165.061 156.203C170.488 165.595 173.571 177.17 173.571 190.558C173.571 227.754 160.004 246.25 111.822 247.486C88.8821 248.062 45.1399 235.293 45.1399 215.314C45.1399 201.721 51.3888 200.403 52.5399 189.322C55.0066 165.512 66.3944 146.564 83.7433 136.554C92.541 131.487 102.86 128.686 114.289 128.686C114.947 128.686 115.563 128.686 116.221 128.686C124.813 128.892 134.31 131.075 141.463 134.206" fill="#BC7171"/>
<path d="M76.0144 200.444C81.4822 199.702 76.0144 174.451 69.8477 171.98C65.2844 170.167 57.7199 183.308 59.981 193.029C61.2966 198.755 71.9033 201.02 76.0555 200.444H76.0144Z" fill="#BC7171"/>
<path d="M111.822 207.9C109.52 200.279 127.486 180.259 135.297 183.143C140.929 185.244 148.452 203.286 142.697 209.135C136.859 215.108 113.22 212.554 111.822 207.9Z" fill="#BC7171"/>
<path d="M87.1144 176.964C88.06 175.852 86.7855 171.403 83.4144 170.785C81.0711 170.373 78.481 171.897 78.481 173.257C78.4399 175.563 85.7988 178.529 87.1144 176.964Z" fill="#BC7171"/>
<path d="M113.754 180.424C113.384 179.394 115.851 176.799 118.852 176.923C121.113 177.005 123.333 178.694 123.128 179.683C122.758 181.454 114.33 182.072 113.754 180.424Z" fill="#BC7171"/>
<path d="M76.3433 183.143C72.6433 175.728 62.4477 188.086 67.381 199.208Z" fill="#BC7171"/>
<path d="M119.674 191.67C133.035 186.191 135.297 210.371 121.648 212.06Z" fill="#BC7171"/>
<path d="M73.0955 216.179C74.8222 219.516 77.8233 217.827 81.6055 218.486C84.4422 218.981 90.8555 223.1 96.8166 222.152" fill="#BC7171"/>
<path d="M84.0721 212.76C87.3199 213.214 89.7866 211.607 89.4166 209.712C89.1699 208.27 81.2766 207.735 80.3722 208.476C79.3855 209.259 81.5644 212.39 84.0721 212.76Z" fill="#BC7171"/>
<path d="M82.3044 218.61C83.4144 218.033 84.0721 213.625 84.0721 212.76Z" fill="#BC7171"/>
<path d="M116.18 128.727C112.233 112.333 119.017 80.7379 121.689 45.6829C123.087 27.2698 111.863 2.6778 100.681 4.11954C85.7166 6.0556 59.2822 47.4954 62.9822 80.2848C66.2299 108.831 80.4544 125.061 83.661 136.554" fill="#BC7171"/>
<path d="M135.502 144.875C146.314 130.663 156.88 85.3103 168.062 51.9854C173.9 34.4786 193.839 16.189 203.541 21.9148C216.573 29.5354 224.837 78.0192 208.639 106.772C194.579 131.817 164.198 152.29 159.963 163.947" fill="#BC7171"/>
<path d="M180.025 51.9031C166.418 95.1966 171.31 128.686 158.73 168.108Z" fill="#BC7171"/>
<path d="M92.9521 268.824C80.331 293.374 60.3099 326.164 79.961 367.192C86.3332 380.497 94.1855 405.418 103.929 414.728C106.971 417.653 110.383 418.147 112.932 416.746" fill="#BC7171"/>
<path d="M110.301 247.486C109.643 253.541 107.423 253.912 104.093 255.477C95.8299 259.39 96.2821 258.114 90.8555 261.615C81.2766 267.753 48.1821 316.937 46.4555 338.192C45.7977 346.431 50.1966 365.791 63.4344 368.139C71.2866 369.54 74.1233 363.114 76.9599 360.107" fill="#BC7171"/>
<path d="M160.045 325.752C161.731 335.432 171.228 354.628 162.635 371.023C156.798 382.103 147.959 435.654 131.35 444.428C126.581 446.941 117.208 445.705 115.152 441.297C111.041 432.317 115.563 405.748 112.973 376.666" fill="#BC7171"/>
<path d="M93.0755 369.004C95.9944 370.405 101.709 375.224 112.973 376.625C117.783 377.201 121.977 373.865 126.499 372.217" fill="#BC7171"/>
<path d="M185.206 345.401C188.33 355.822 187.878 360.271 185.206 370.693Z" fill="#BC7171"/>
<path d="M193.181 340.087C198.197 350.056 198.155 354.546 196.84 364.061Z" fill="#BC7171"/>
<path d="M58.3777 343.218C54.5955 351.497 55.4999 353.639 54.8832 363.402Z" fill="#BC7171"/>
<path d="M66.5588 347.584C65.2432 357.305 64.0921 359.612 66.3944 368.304Z" fill="#BC7171"/>
<path d="M165.184 364.226C168.925 361.136 171.433 357.841 173.078 354.793Z" fill="#BC7171"/>
<path d="M50.731 200.938C50.4844 201.721 50.731 202.627 51.4299 203.41C49.4977 204.151 47.4833 205.387 45.8388 208.518C47.4833 200.815 51.6766 198.219 52.6221 189.322C52.8688 187.015 53.1977 184.791 53.5677 182.566C53.1566 193.688 58.5421 193.359 57.5144 198.673C57.4321 199.002 57.3499 199.332 57.2677 199.62C57.1855 199.62 57.1032 199.538 57.021 199.538C54.1021 198.59 51.3066 199.208 50.7721 200.938H50.731Z" fill="#BC7171"/>
<path d="M84.401 212.76C87.4844 213.09 89.8277 211.566 89.4577 209.712C89.3755 209.218 88.3477 208.806 86.9911 208.518C84.5244 208.023 80.9888 207.982 80.4132 208.435C79.4266 209.259 81.6055 212.39 84.1133 212.719C84.1955 212.719 84.3188 212.719 84.401 212.719V212.76ZM59.981 193.029C60.6799 196.036 63.8866 198.055 67.381 199.249C70.5877 200.361 74.041 200.732 76.0555 200.444C76.3844 200.403 76.7133 200.238 76.9599 199.991C79.1388 198.055 78.4399 190.022 76.3433 183.061C74.7399 177.705 72.3555 172.968 69.8477 171.98C66.8055 170.744 62.4477 176.181 60.5155 182.813C59.5699 186.15 59.1999 189.775 59.9399 192.988L59.981 193.029ZM158.853 212.184C157.538 215.644 155.893 219.104 153.879 222.358C137.311 249.175 78.1932 241.595 74.5344 240.854C58.6244 235.252 45.1399 226.395 45.1399 215.314C45.1399 212.637 45.3866 210.412 45.7977 208.518C47.4421 205.387 49.4977 204.151 51.3888 203.41C52.1699 204.357 53.4444 205.222 54.9655 205.716C57.8844 206.664 60.6799 206.046 61.2144 204.316C61.7488 202.668 59.9399 200.609 57.1855 199.62C57.3088 199.332 57.391 199.043 57.4322 198.673C58.501 193.359 53.0744 193.729 53.4855 182.566C57.2266 161.929 68.0388 145.616 83.7022 136.554C86.251 135.071 88.8822 133.794 91.6777 132.723C109.109 130.004 129.582 133.465 138.174 139.849C137.27 141.703 136.365 143.392 135.502 144.834C129.048 155.626 155.318 170.744 158.689 168.066C159.018 167.819 159.059 167.531 158.977 167.119C159.305 166.048 159.634 164.977 159.922 163.906C160.251 162.958 160.785 161.97 161.443 160.94C161.937 163.988 167.445 189.198 158.771 212.184H158.853ZM143.56 195.583C141.751 189.734 138.257 184.214 135.297 183.102C131.391 181.66 124.895 185.985 119.715 191.629C114.577 197.19 110.712 204.069 111.863 207.858C112.439 209.712 116.55 211.277 121.689 212.06C129.335 213.214 139.202 212.678 142.738 209.135C145.451 206.376 145.204 200.856 143.601 195.624L143.56 195.583ZM146.808 220.505C146.808 218.074 143.642 216.138 139.695 216.138C135.749 216.138 132.624 218.074 132.624 220.505C132.624 222.935 135.79 224.871 139.695 224.871C143.601 224.871 146.808 222.894 146.808 220.505ZM123.128 179.642C123.333 178.653 121.113 176.964 118.852 176.882C115.851 176.758 113.425 179.394 113.754 180.383C114.33 181.99 122.758 181.413 123.128 179.642ZM89.0055 203.657C94.4322 205.634 100.475 202.915 100.434 201.226C100.434 198.508 84.0722 195.212 82.8799 197.849C82.2633 199.208 85.5933 202.421 89.0055 203.657ZM87.1144 176.923C88.0599 175.811 86.7855 171.362 83.4144 170.744C81.1122 170.291 78.481 171.856 78.481 173.215C78.481 175.522 85.7988 178.447 87.1144 176.923Z" fill="#BC7171"/>
<path d="M171.968 209.918C167.733 231.215 154.66 243.284 125.265 246.58C121.113 247.033 116.673 247.362 111.863 247.486C111.37 247.486 110.877 247.486 110.383 247.486C100.311 247.486 86.7032 245.138 74.5755 240.854C78.1932 241.595 137.352 249.175 153.92 222.358C155.934 219.063 157.579 215.644 158.894 212.184C163.088 211.071 167.528 210.33 171.968 209.918Z" fill="#BC7171"/>
<path d="M213.819 39.1334C216.162 56.5167 210.818 81.4795 198.608 104.918C190.427 120.612 171.844 138.902 164.403 145.575C170.118 115.257 169.131 86.7521 180.067 51.9031C184.383 35.5496 192.606 23.4802 204.446 22.4092C208.146 25.1279 211.434 31.1832 213.819 39.0922V39.1334Z" fill="#BC7171"/>
<path d="M196.511 347.955C198.114 353.227 197.827 357.429 196.922 364.061C194.743 367.892 192.153 370.446 189.851 370.817C188.166 371.105 186.644 371.105 185.288 370.693C186.151 367.233 186.809 364.432 187.179 361.837C189.851 360.107 192.359 357.8 193.88 355.617C195.401 353.433 196.305 350.879 196.552 347.996L196.511 347.955Z" fill="#BC7171"/>
<path d="M187.138 361.837C186.768 364.432 186.151 367.233 185.247 370.693C182.615 369.952 180.395 367.851 177.97 364.02C180.025 365.338 183.684 364.102 187.097 361.837H187.138Z" fill="#BC7171"/>
<path d="M187.96 320.562C183.438 312.447 177.477 303.796 170.817 295.146C179.491 304.744 188.248 314.465 194.908 321.715C206.213 333.949 202.842 353.722 196.881 364.102C197.785 357.47 198.073 353.31 196.47 347.996C196.799 344.412 196.182 340.375 194.784 335.968C188.782 339.139 177.6 342.6 175.832 337.039C174.804 333.949 183.643 324.804 187.919 320.562H187.96Z" fill="#BC7171"/>
<path d="M173.119 354.793C171.474 357.841 168.967 361.136 165.225 364.226C168.843 349.602 161.525 334.114 160.087 325.752C160.539 326.658 160.95 327.564 161.361 328.512C166.377 339.757 170.077 348.367 173.119 354.752V354.793Z" fill="#BC7171"/>
<path d="M173.612 190.558C173.612 197.684 173.119 204.151 171.968 209.918C167.528 210.33 163.088 211.072 158.894 212.184C167.569 189.198 162.101 163.988 161.567 160.94C162.471 159.457 163.704 157.892 165.143 156.203C170.57 165.595 173.653 177.17 173.653 190.558H173.612Z" fill="#BC7171"/>
<path d="M160.046 163.947C161.854 157.727 163.293 151.631 164.403 145.575C171.844 138.861 190.386 120.613 198.608 104.918C210.818 81.4795 216.162 56.5167 213.819 39.1334C219.41 57.8761 219.862 86.9581 208.721 106.731C197.374 126.956 175.38 144.175 165.102 156.203C163.663 157.892 162.471 159.457 161.526 160.94C160.868 162.011 160.374 163 160.004 163.906L160.046 163.947Z" fill="#BC7171"/>
<path d="M159.059 167.16C159.141 167.572 159.059 167.86 158.771 168.108C158.853 167.778 158.977 167.49 159.059 167.16Z" fill="#BC7171"/>
<path d="M156.88 360.189C163.746 326.576 153.838 324.104 138.873 287.813C150.055 306.597 154.989 314.753 160.045 325.752C161.484 334.114 168.802 349.602 165.184 364.226C164.609 366.533 163.787 368.798 162.635 371.023C156.839 382.103 147.959 435.654 131.35 444.428C128.76 445.787 124.772 446.034 121.36 445.293C132.46 443.769 141.134 425.273 144.917 413.204C152.604 388.818 153.18 378.149 156.839 360.189H156.88Z" fill="#BC7171"/>
<path d="M158.771 168.108C155.4 170.785 129.13 155.667 135.584 144.875C137.558 142.28 139.531 138.655 141.504 134.247C144.67 127.162 147.794 118.1 150.96 108.131C150.96 108.131 150.96 108.09 150.96 108.049C151.042 107.843 151.042 107.719 151.083 107.719C151.988 104.877 146.767 130.334 149.562 148.211C151.289 159.21 158.483 164.771 159.059 167.201C158.977 167.531 158.853 167.819 158.771 168.149V168.108Z" fill="#BC7171"/>
<path d="M168.144 51.9855C173.982 34.4786 193.921 16.1891 203.623 21.8736C203.911 22.0384 204.199 22.2032 204.446 22.4092C192.606 23.4802 184.424 35.5496 180.067 51.9031C169.131 86.7521 170.118 115.257 164.403 145.575C163.252 151.589 161.854 157.686 160.045 163.947C159.758 165.018 159.429 166.089 159.1 167.16C158.524 164.73 151.33 159.169 149.603 148.17C146.808 130.293 152.029 104.836 151.124 107.678C151.124 107.678 151.083 107.843 151.001 108.008C156.674 90.1711 162.348 69.41 168.186 51.9443L168.144 51.9855Z" fill="#BC7171"/>
<path d="M140.929 134C145.615 123.29 150.056 110.52 150.919 108.09C147.753 118.058 144.629 127.162 141.463 134.206C141.299 134.124 141.093 134.041 140.929 134Z" fill="#BC7171"/>
<path d="M139.737 216.179C143.683 216.179 146.849 218.115 146.849 220.546C146.849 222.976 143.683 224.912 139.737 224.912C135.79 224.912 132.665 222.935 132.665 220.546C132.665 218.157 135.831 216.179 139.737 216.179Z" fill="#BC7171"/>
<path d="M143.601 195.624C145.204 200.856 145.451 206.376 142.738 209.135C139.243 212.719 129.377 213.214 121.689 212.06C130.446 210.989 132.666 200.609 129.582 194.8C134.187 193.276 138.997 193.235 143.56 195.624H143.601Z" fill="#BC7171"/>
<path d="M141.463 134.206C139.49 138.614 137.517 142.239 135.543 144.834C136.407 143.392 137.311 141.703 138.216 139.849C139.12 138.037 140.024 136.018 140.929 133.959C141.093 134.041 141.299 134.124 141.463 134.165V134.206Z" fill="#BC7171"/>
<path d="M130.404 398.992C135.379 398.992 139.408 402.123 139.408 405.995C139.408 409.867 135.379 413.039 130.404 413.039C125.43 413.039 121.401 409.908 121.401 405.995C121.401 402.082 125.43 398.992 130.404 398.992Z" fill="#BC7171"/>
<path d="M143.601 195.624C139.038 193.235 134.228 193.276 129.623 194.8C127.897 191.546 124.567 189.693 119.757 191.67C124.937 186.026 131.432 181.701 135.338 183.143C138.298 184.214 141.792 189.775 143.601 195.624Z" fill="#BC7171"/>
<path d="M129.582 194.8C132.665 200.609 130.445 210.989 121.689 212.06C116.55 211.277 112.398 209.753 111.863 207.9C116.591 202.339 122.881 197.025 129.582 194.8Z" fill="#BC7171"/>
<path d="M118.893 176.923C121.154 177.005 123.374 178.694 123.169 179.683C122.799 181.454 114.371 182.072 113.795 180.424C113.425 179.394 115.892 176.799 118.893 176.923Z" fill="#BC7171"/>
<path d="M91.7599 132.764C88.9644 133.835 86.3333 135.112 83.7844 136.554C83.3733 135.071 82.7566 133.506 82.0166 131.858H82.0988C80.7422 126.132 75.0277 116.164 80.5366 108.461C86.991 99.3983 99.6533 89.2237 104.217 84.2393C112.809 74.8062 120.332 37.1561 107.464 6.13806C115.974 12.317 122.922 30.9772 121.771 45.6418C119.099 80.6968 112.315 112.292 116.262 128.686C115.645 128.686 114.988 128.686 114.33 128.686C106.19 128.686 98.5844 130.087 91.7599 132.764Z" fill="#BC7171"/>
<path d="M129.582 194.8C122.881 197.025 116.55 202.339 111.863 207.9C110.712 204.11 114.618 197.231 119.715 191.67C124.484 189.693 127.855 191.546 129.582 194.8Z" fill="#BC7171"/>
<path d="M110.383 247.527C110.877 247.527 111.411 247.527 111.863 247.527C116.673 247.403 121.113 247.115 125.265 246.621C125.265 247.651 125.183 248.598 125.101 249.504C122.552 251.276 112.727 252.099 109.808 250.822H109.725C110.013 249.916 110.219 248.845 110.383 247.527Z" fill="#BC7171"/>
<path d="M103.477 388.859C107.012 388.859 109.849 390.836 109.849 393.308C109.849 395.78 107.012 397.757 103.477 397.757C99.941 397.757 97.1044 395.78 97.1044 393.308C97.1044 390.836 99.941 388.859 103.477 388.859Z" fill="#BC7171"/>
<path d="M107.423 6.17925C120.291 37.1973 112.768 74.8062 104.175 84.2805C99.6122 89.2648 86.95 99.4394 80.4955 108.502C74.9866 116.205 80.7011 126.173 82.0577 131.858H81.9755C77.0011 120.695 65.86 105.165 63.0233 80.326C59.3233 47.5367 85.7577 6.09686 100.722 4.11962C102.983 3.83127 105.244 4.61393 107.382 6.17925H107.423Z" fill="#BC7171"/>
<path d="M114.33 128.686C114.988 128.686 115.604 128.686 116.262 128.686C124.649 128.892 133.899 130.952 140.97 133.959C140.065 136.019 139.161 138.037 138.257 139.849C129.705 133.465 109.191 130.004 91.7599 132.723C98.6255 130.046 106.19 128.645 114.33 128.645V128.686Z" fill="#BC7171"/>
<path d="M100.476 201.268C100.476 202.957 94.4322 205.675 89.0466 203.698C85.6344 202.462 82.3044 199.249 82.9211 197.89C84.1133 195.254 100.434 198.549 100.476 201.268Z" fill="#BC7171"/>
<path d="M83.4555 170.785C86.8266 171.403 88.1421 175.852 87.1555 176.964C85.8399 178.488 78.481 175.563 78.5221 173.257C78.5221 171.897 81.1533 170.332 83.4555 170.785Z" fill="#BC7171"/>
<path d="M89.4577 209.712C89.7866 211.566 87.4844 213.131 84.401 212.76C86.2099 211.937 87.8133 209.836 87.0321 208.518C88.3477 208.806 89.3755 209.177 89.4988 209.712H89.4577Z" fill="#BC7171"/>
<path d="M87.0321 208.518C87.8132 209.836 86.2099 211.937 84.401 212.76C84.3188 212.76 84.1955 212.76 84.1132 212.76C81.6055 212.431 79.4266 209.3 80.4132 208.476C80.9888 207.982 84.5244 208.064 86.991 208.559L87.0321 208.518Z" fill="#BC7171"/>
<path d="M76.5899 359.036C80.9888 362.99 89.7866 367.356 93.1166 369.004C96.0355 370.405 101.75 375.224 113.014 376.625C114.33 391.289 113.795 405.295 113.508 416.746H113.014C110.465 418.147 107.053 417.612 103.97 414.687C94.2266 405.377 86.3744 380.415 80.0021 367.151C78.851 364.761 77.8644 362.413 76.9599 360.065C76.8366 359.695 76.6722 359.324 76.5488 358.994L76.5899 359.036ZM109.808 393.308C109.808 390.836 106.971 388.859 103.435 388.859C99.8999 388.859 97.0633 390.836 97.0633 393.308C97.0633 395.779 99.8999 397.757 103.435 397.757C106.971 397.757 109.808 395.779 109.808 393.308Z" fill="#BC7171"/>
<path d="M76.3432 183.102C78.3988 190.063 79.1388 198.055 76.9599 200.032C75.521 191.876 72.5199 186.686 68.6555 184.255C71.0399 180.713 74.4932 179.477 76.3432 183.143V183.102Z" fill="#BC7171"/>
<path d="M76.9599 200.032C76.7133 200.279 76.3844 200.444 76.0555 200.485C74.0821 200.773 70.6288 200.403 67.381 199.29C64.9144 193.688 66.2299 187.798 68.6555 184.255C72.5199 186.685 75.521 191.917 76.9599 200.032Z" fill="#BC7171"/>
<path d="M76.3433 183.102C74.4933 179.436 71.0399 180.671 68.6555 184.214C66.2299 182.649 63.4755 182.237 60.5566 182.855C62.4888 176.223 66.8466 170.785 69.8888 172.021C72.3966 173.009 74.781 177.788 76.3844 183.102H76.3433Z" fill="#BC7171"/>
<path d="M54.9244 363.402C51.3477 359.695 49.0455 354.422 47.7299 349.396C47.6888 348.861 47.6477 348.367 47.6477 347.872C47.401 335.885 57.9255 328.1 63.2699 329.418C65.2021 329.912 67.381 331.189 69.3133 332.919C69.7655 326.329 70.8344 319.161 74.1644 312.9C70.7933 326.823 70.4232 342.188 76.5899 359.077C76.7132 359.447 76.8366 359.777 77.001 360.148C74.1644 363.155 71.3277 369.581 63.4755 368.18C60.0221 367.562 57.1855 365.832 54.8832 363.402H54.9244Z" fill="#BC7171"/>
<path d="M67.4221 199.249C63.9277 198.096 60.721 196.036 60.0221 193.07C59.2821 189.816 59.611 186.191 60.5977 182.896C63.5166 182.278 66.271 182.731 68.6966 184.255C66.271 187.798 64.9555 193.688 67.4221 199.249Z" fill="#BC7171"/>
<path d="M57.2266 199.62C59.981 200.567 61.7899 202.668 61.2555 204.316C60.7211 206.005 57.9255 206.623 55.0066 205.717C53.4444 205.222 52.1699 204.357 51.4299 203.41C53.9788 202.38 56.3222 202.215 57.2266 199.62Z" fill="#BC7171"/>
<path d="M50.731 200.938C51.2655 199.249 54.061 198.631 56.9799 199.538C57.0622 199.538 57.1444 199.579 57.2266 199.62C56.281 202.256 53.9377 202.421 51.4299 203.41C50.7722 202.586 50.4844 201.721 50.731 200.938Z" fill="#BC7171"/>
<path d="M47.6477 347.831C47.6477 348.367 47.6477 348.861 47.7299 349.355C46.6199 345.071 46.2499 340.993 46.4966 338.192C48.2233 316.937 81.3588 267.753 90.9377 261.615C96.3644 258.114 95.9121 259.39 104.175 255.477C106.765 254.283 108.698 253.788 109.725 250.781H109.808C112.727 252.099 122.511 251.276 125.101 249.504C124.813 252.429 124.484 254.612 127.527 255.724C130.98 256.96 132.131 257.743 136.694 259.473C139.367 260.503 154.989 277.598 170.817 295.105C177.477 303.796 183.479 312.447 187.96 320.562C183.684 324.804 174.845 333.908 175.873 337.039C177.682 342.6 188.864 339.139 194.825 335.968C196.182 340.375 196.799 344.412 196.511 347.996C196.264 350.879 195.401 353.433 193.839 355.617C192.277 357.8 189.769 360.148 187.138 361.837C183.684 364.061 180.026 365.338 178.011 364.02C176.49 361.672 174.928 358.624 173.119 354.834C170.077 348.408 166.377 339.799 161.361 328.594C160.95 327.647 160.539 326.741 160.087 325.834C154.989 314.836 150.055 306.68 138.914 287.896C153.838 324.145 163.787 326.658 156.921 360.271C153.262 378.19 152.687 388.9 144.999 413.286C141.217 425.356 132.542 443.851 121.442 445.375C118.605 444.716 116.18 443.357 115.234 441.38C113.179 436.931 113.261 428.157 113.549 416.87C113.837 405.418 114.371 391.413 113.055 376.748C101.791 375.348 96.1177 370.528 93.1577 369.128C89.8277 367.439 81.0299 363.114 76.631 359.159C70.4644 342.311 70.8344 326.905 74.2055 312.982C70.8755 319.243 69.7655 326.411 69.3544 333.002C67.4222 331.272 65.2433 329.995 63.311 329.5C57.9666 328.182 47.4421 335.968 47.6888 347.955L47.6477 347.831ZM139.408 405.995C139.408 402.123 135.379 398.992 130.404 398.992C125.43 398.992 121.401 402.123 121.401 405.995C121.401 409.867 125.43 413.039 130.404 413.039C135.379 413.039 139.408 409.908 139.408 405.995Z" fill="#BC7171"/>
<path d="M71.2455 186.809C71.8812 186.809 72.3966 186.293 72.3966 185.656C72.3966 185.019 71.8812 184.502 71.2455 184.502C70.6098 184.502 70.0944 185.019 70.0944 185.656C70.0944 186.293 70.6098 186.809 71.2455 186.809Z" fill="#BC7171"/>
<path d="M127.074 196.942C127.71 196.942 128.225 196.426 128.225 195.789C128.225 195.152 127.71 194.636 127.074 194.636C126.439 194.636 125.923 195.152 125.923 195.789C125.923 196.426 126.439 196.942 127.074 196.942Z" fill="#BC7171"/>
<path d="M165.061 156.203C170.488 165.595 173.571 177.17 173.571 190.558C173.571 227.754 160.004 246.25 111.822 247.486C88.8822 248.062 45.14 235.293 45.14 215.314C45.14 201.721 51.3888 200.403 52.54 189.322C55.0066 165.512 66.3944 146.564 83.7433 136.554C92.5411 131.487 102.86 128.686 114.289 128.686C114.947 128.686 115.563 128.686 116.221 128.686C124.813 128.892 134.31 131.075 141.463 134.206" stroke="#3F2A25" stroke-width="0.5" stroke-linecap="round" stroke-linejoin="round"/>
<path d="M76.0144 200.444C81.4822 199.702 76.0144 174.451 69.8477 171.98C65.2844 170.167 57.7199 183.308 59.981 193.029C61.2966 198.755 71.9033 201.02 76.0555 200.444H76.0144Z" stroke="#3F2A25" stroke-width="0.5" stroke-linecap="round" stroke-linejoin="round"/>
<path d="M111.822 207.9C109.52 200.279 127.486 180.259 135.297 183.143C140.929 185.244 148.452 203.286 142.697 209.135C136.859 215.108 113.22 212.554 111.822 207.9Z" stroke="#3F2A25" stroke-width="0.5" stroke-linecap="round" stroke-linejoin="round"/>
<path d="M87.1144 176.964C88.06 175.852 86.7855 171.403 83.4144 170.785C81.0711 170.373 78.4811 171.897 78.4811 173.257C78.44 175.563 85.7989 178.529 87.1144 176.964Z" stroke="#3F2A25" stroke-width="0.5" stroke-linecap="round" stroke-linejoin="round"/>
<path d="M113.754 180.424C113.384 179.394 115.851 176.799 118.852 176.923C121.113 177.005 123.333 178.694 123.128 179.683C122.758 181.454 114.33 182.072 113.754 180.424Z" stroke="#3F2A25" stroke-width="0.5" stroke-linecap="round" stroke-linejoin="round"/>
<path d="M76.3433 183.143C72.6433 175.728 62.4477 188.086 67.381 199.208" stroke="#3F2A25" stroke-width="0.5" stroke-linecap="round" stroke-linejoin="round"/>
<path d="M119.674 191.67C133.035 186.191 135.297 210.371 121.648 212.06" stroke="#3F2A25" stroke-width="0.5" stroke-linecap="round" stroke-linejoin="round"/>
<path d="M73.0955 216.179C74.8222 219.516 77.8233 217.827 81.6055 218.486C84.4422 218.981 90.8555 223.1 96.8166 222.152" stroke="#3F2A25" stroke-width="0.5" stroke-linecap="round" stroke-linejoin="round"/>
<path d="M84.0721 212.76C87.3199 213.214 89.7866 211.607 89.4166 209.712C89.1699 208.27 81.2766 207.735 80.3722 208.476C79.3855 209.259 81.5644 212.39 84.0721 212.76Z" stroke="#3F2A25" stroke-width="0.5" stroke-linecap="round" stroke-linejoin="round"/>
<path d="M82.3044 218.61C83.4144 218.033 84.0722 213.625 84.0722 212.76" stroke="#3F2A25" stroke-width="0.5" stroke-linecap="round" stroke-linejoin="round"/>
<path d="M116.18 128.727C112.233 112.333 119.017 80.7379 121.689 45.6829C123.087 27.2698 111.863 2.6778 100.681 4.11954C85.7166 6.0556 59.2822 47.4954 62.9822 80.2848C66.23 108.831 80.4544 125.061 83.6611 136.554" stroke="#3F2A25" stroke-width="0.5" stroke-linecap="round" stroke-linejoin="round"/>
<path d="M135.502 144.875C146.314 130.663 156.88 85.3103 168.062 51.9854C173.9 34.4786 193.839 16.189 203.541 21.9148C216.573 29.5354 224.837 78.0192 208.639 106.772C194.579 131.817 164.198 152.29 159.963 163.947" stroke="#3F2A25" stroke-width="0.5" stroke-linecap="round" stroke-linejoin="round"/>
<path d="M180.025 51.9031C166.418 95.1966 171.31 128.686 158.73 168.108" stroke="#3F2A25" stroke-width="0.5" stroke-linecap="round" stroke-linejoin="round"/>
<path d="M92.9522 268.824C80.3311 293.374 60.3099 326.164 79.961 367.192C86.3333 380.497 94.1855 405.418 103.929 414.728C106.971 417.653 110.383 418.147 112.932 416.746" stroke="#3F2A25" stroke-width="0.5" stroke-linecap="round" stroke-linejoin="round"/>
<path d="M110.301 247.486C109.643 253.541 107.423 253.912 104.093 255.477C95.83 259.39 96.2822 258.114 90.8555 261.615C81.2766 267.753 48.1822 316.937 46.4555 338.192C45.7977 346.431 50.1966 365.791 63.4344 368.139C71.2866 369.54 74.1233 363.114 76.96 360.107" stroke="#3F2A25" stroke-width="0.5" stroke-linecap="round" stroke-linejoin="round"/>
<path d="M125.183 246.621C125.265 250.987 123.457 254.324 127.444 255.724C130.898 256.96 132.049 257.743 136.612 259.473C140.723 261.038 175.997 301.283 194.825 321.674C210.324 338.439 198.279 369.375 189.769 370.817C179.491 372.588 176.613 362.866 161.238 328.512C154.619 313.765 149.151 305.444 131.432 275.414" stroke="#3F2A25" stroke-width="0.5" stroke-linecap="round" stroke-linejoin="round"/>
<path d="M160.046 325.752C161.731 335.432 171.228 354.628 162.635 371.023C156.798 382.103 147.959 435.654 131.35 444.428C126.581 446.941 117.208 445.705 115.152 441.297C111.041 432.317 115.563 405.748 112.973 376.666" stroke="#3F2A25" stroke-width="0.5" stroke-linecap="round" stroke-linejoin="round"/>
<path d="M93.0755 369.004C95.9944 370.405 101.709 375.224 112.973 376.625C117.783 377.201 121.977 373.865 126.499 372.217" stroke="#3F2A25" stroke-width="0.5" stroke-linecap="round" stroke-linejoin="round"/>
<path d="M185.206 345.401C188.33 355.822 187.878 360.271 185.206 370.693" stroke="#3F2A25" stroke-width="0.5" stroke-linecap="round" stroke-linejoin="round"/>
<path d="M193.181 340.087C198.197 350.056 198.155 354.546 196.84 364.061" stroke="#3F2A25" stroke-width="0.5" stroke-linecap="round" stroke-linejoin="round"/>
<path d="M58.3777 343.218C54.5955 351.497 55.4999 353.639 54.8833 363.402" stroke="#3F2A25" stroke-width="0.5" stroke-linecap="round" stroke-linejoin="round"/>
<path d="M66.5588 347.584C65.2433 357.305 64.0922 359.612 66.3944 368.304" stroke="#3F2A25" stroke-width="0.5" stroke-linecap="round" stroke-linejoin="round"/>
<path d="M49.7033 198.796C36.9588 187.962 18.4999 180.836 4.06995 179.724" stroke="#3F2A25" stroke-width="0.5" stroke-linecap="round" stroke-linejoin="round"/>
<path d="M6.65994 204.481C21.3366 204.192 34.2866 206.17 45.1399 210.783" stroke="#3F2A25" stroke-width="0.5" stroke-linecap="round" stroke-linejoin="round"/>
<path d="M155.482 213.172C171.433 208.106 191.167 208.641 204.898 213.172" stroke="#3F2A25" stroke-width="0.5" stroke-linecap="round" stroke-linejoin="round"/>
<path d="M193.017 235.004C179.573 229.073 166.87 225.901 155.071 225.983" stroke="#3F2A25" stroke-width="0.5" stroke-linecap="round" stroke-linejoin="round"/>
<path d="M165.184 364.226C168.925 361.136 171.433 357.841 173.078 354.793" stroke="#3F2A25" stroke-width="0.5" stroke-linecap="round" stroke-linejoin="round"/>
<path d="M165.102 156.203C163.663 157.892 162.471 159.457 161.526 160.94C160.868 162.011 160.374 163 160.004 163.906C161.813 157.686 163.252 151.589 164.362 145.534C171.803 138.82 190.344 120.571 198.567 104.877C210.818 81.4382 216.121 56.4755 213.778 39.0922C219.369 57.8348 219.821 86.9168 208.68 106.731C197.333 126.915 175.38 144.175 165.061 156.203H165.102Z" fill="#EAA0A0"/>
<path d="M213.819 39.1333C216.162 56.5166 210.859 81.4793 198.608 104.918C190.427 120.612 171.844 138.861 164.403 145.575C170.118 115.216 169.131 86.752 180.067 51.903C184.383 35.5907 192.605 23.5213 204.404 22.4091C208.145 25.0866 211.434 31.1831 213.819 39.0921V39.1333Z" fill="#FCB9B9"/>
<path d="M203.623 21.8735C203.911 22.0383 204.158 22.2031 204.446 22.409C192.647 23.5212 184.424 35.5907 180.108 51.903C169.172 86.752 170.159 115.257 164.444 145.575C163.293 151.589 161.896 157.686 160.087 163.947C159.799 165.018 159.47 166.089 159.141 167.16C158.566 164.73 151.371 159.169 149.644 148.17C146.849 130.293 152.07 104.794 151.166 107.678C151.166 107.678 151.124 107.843 151.042 108.007C156.674 90.171 162.389 69.4099 168.227 51.9442C174.064 34.4373 194.003 16.1478 203.706 21.8735H203.623Z" fill="#B27967"/>
<path d="M187.96 320.52C183.438 312.447 177.477 303.755 170.817 295.104C179.491 304.702 188.248 314.424 194.908 321.674C206.213 333.908 202.842 353.68 196.881 364.061C197.786 357.429 198.073 353.269 196.47 347.996C196.799 344.412 196.182 340.375 194.784 335.968C188.782 339.139 177.6 342.6 175.832 337.039C174.804 333.949 183.643 324.804 187.919 320.562L187.96 320.52Z" fill="#935D51"/>
<path d="M196.511 347.955C198.114 353.227 197.827 357.429 196.922 364.02C194.743 367.851 192.153 370.405 189.851 370.817C188.166 371.105 186.644 371.064 185.288 370.693C186.151 367.233 186.809 364.432 187.179 361.837C189.851 360.107 192.359 357.8 193.88 355.617C195.401 353.433 196.305 350.879 196.552 347.996L196.511 347.955Z" fill="#A06858"/>
<path d="M138.873 287.855C153.797 324.104 163.745 326.617 156.88 360.189C153.221 378.149 152.645 388.818 144.958 413.204C141.175 425.273 132.501 443.769 121.401 445.293C118.564 444.634 116.139 443.274 115.193 441.297C113.138 436.848 113.22 428.074 113.508 416.788C113.795 405.336 114.33 391.289 113.014 376.666C101.75 375.265 96.0766 370.446 93.1166 369.045C89.7866 367.356 80.9888 363.031 76.5899 359.077C70.4232 342.229 70.7933 326.823 74.1644 312.941C70.8344 319.202 69.7244 326.37 69.3133 332.961C67.381 331.23 65.2021 329.953 63.2699 329.459C57.9255 328.141 47.401 335.926 47.6477 347.913C47.6477 348.449 47.6477 348.943 47.7299 349.438C46.6199 345.154 46.2499 341.076 46.4966 338.274C48.2233 317.019 81.3588 267.835 90.8966 261.697C96.3233 258.196 95.871 259.473 104.134 255.56C106.724 254.365 108.657 253.829 109.684 250.822H109.808C112.727 252.141 122.511 251.317 125.101 249.545C124.813 252.47 124.484 254.653 127.527 255.765C130.98 257.001 132.131 257.784 136.694 259.514C139.367 260.544 154.989 277.639 170.817 295.146C177.477 303.837 183.479 312.488 187.96 320.562C183.684 324.804 174.845 333.908 175.873 337.039C177.682 342.6 188.864 339.139 194.825 335.968C196.182 340.375 196.799 344.412 196.511 347.955C196.264 350.838 195.401 353.392 193.839 355.617C192.277 357.841 189.769 360.148 187.138 361.837C183.725 364.061 180.067 365.338 178.011 364.02C176.531 361.631 174.928 358.582 173.119 354.793C170.077 348.367 166.377 339.799 161.361 328.553C160.95 327.606 160.498 326.699 160.087 325.793C154.989 314.795 150.055 306.638 138.914 287.855H138.873ZM139.408 406.036C139.408 402.164 135.379 399.034 130.404 399.034C125.43 399.034 121.401 402.164 121.401 406.036C121.401 409.908 125.43 413.08 130.404 413.08C135.379 413.08 139.408 409.95 139.408 406.036Z" fill="#B27967"/>
<path d="M187.138 361.837C186.768 364.432 186.151 367.233 185.247 370.693C182.615 369.952 180.437 367.851 178.011 364.02C180.067 365.338 183.725 364.102 187.138 361.837Z" fill="#A06858"/>
<path d="M173.119 354.793C171.474 357.841 168.967 361.136 165.225 364.226C168.843 349.602 161.525 334.114 160.087 325.752C160.498 326.658 160.95 327.564 161.361 328.512C166.377 339.757 170.077 348.325 173.119 354.751V354.793Z" fill="#935D51"/>
<path d="M173.612 190.558C173.612 197.684 173.119 204.151 171.968 209.918C167.528 210.33 163.088 211.072 158.894 212.184C167.569 189.198 162.101 163.988 161.567 160.94C162.512 159.457 163.704 157.892 165.143 156.203C170.57 165.595 173.653 177.17 173.653 190.558H173.612Z" fill="#935D51"/>
<path d="M171.968 209.959C170.693 216.385 168.597 221.988 165.513 226.725C161.978 226.23 158.566 225.983 155.194 225.983L151.823 225.324C152.604 224.377 153.303 223.388 153.92 222.358C155.934 219.063 157.579 215.644 158.894 212.184C163.088 211.071 167.528 210.33 171.968 209.918V209.959Z" fill="#935D51"/>
<path d="M160.087 325.752C161.526 334.114 168.843 349.602 165.226 364.226C164.65 366.533 163.828 368.798 162.677 371.023C156.88 382.103 148 435.695 131.391 444.428C128.801 445.787 124.813 446.034 121.401 445.293C132.501 443.769 141.176 425.273 144.958 413.204C152.646 388.818 153.221 378.149 156.88 360.189C163.746 326.576 153.838 324.104 138.873 287.855C150.056 306.638 154.989 314.795 160.046 325.793L160.087 325.752Z" fill="#935D51"/>
<path d="M165.513 226.725C158.319 237.723 145.78 244.273 125.266 246.58C121.113 247.033 116.673 247.362 111.863 247.486C111.37 247.486 110.877 247.486 110.342 247.486C100.27 247.486 86.7033 245.138 74.5755 240.854C78.4811 241.595 132.871 248.474 151.741 225.324L155.112 225.983C158.483 225.983 161.937 226.189 165.431 226.725H165.513Z" fill="#935D51"/>
<path d="M84.401 212.76C87.4844 213.09 89.7866 211.566 89.4577 209.712C89.3755 209.218 88.3477 208.806 86.9911 208.518C84.5244 208.023 80.9888 207.982 80.4133 208.435C79.4266 209.259 81.6055 212.39 84.1133 212.719C84.1955 212.719 84.3188 212.719 84.401 212.719V212.76ZM158.853 212.184C157.538 215.644 155.893 219.063 153.879 222.358C153.221 223.388 152.522 224.377 151.782 225.324C132.912 248.516 78.4811 241.595 74.6166 240.854C58.6655 235.252 45.1811 226.354 45.1811 215.273C45.1811 212.596 45.4277 210.371 45.8388 208.476C47.4833 205.346 49.5388 204.11 51.4299 203.368C52.211 204.316 53.4855 205.14 55.0066 205.675C57.9255 206.623 60.7211 205.964 61.2555 204.275C61.7899 202.627 59.981 200.567 57.2266 199.579C57.3499 199.29 57.4322 199.002 57.4733 198.631C58.5422 193.317 53.1155 193.688 53.5266 182.525C57.2677 161.887 68.08 145.534 83.7433 136.513C86.2511 135.071 88.8822 133.794 91.6366 132.723C109.068 129.963 129.582 133.423 138.174 139.808C137.27 141.662 136.365 143.351 135.502 144.793C129.048 155.585 155.318 170.703 158.689 168.025C159.018 167.778 159.059 167.49 158.977 167.078C159.305 166.007 159.634 164.936 159.922 163.865C160.251 162.917 160.785 161.929 161.443 160.899C161.937 163.947 167.446 189.157 158.771 212.142L158.853 212.184ZM143.56 195.583C141.751 189.734 138.257 184.214 135.297 183.102C131.391 181.66 124.896 185.985 119.716 191.629C114.577 197.19 110.712 204.069 111.863 207.858C112.439 209.712 116.55 211.277 121.689 212.06C129.335 213.214 139.202 212.678 142.697 209.135C145.41 206.376 145.163 200.897 143.56 195.624V195.583ZM76.3433 183.102C74.7811 177.747 72.3555 172.968 69.8477 171.98C66.8055 170.785 62.4477 176.222 60.5155 182.855C59.5699 186.191 59.2 189.775 59.94 193.029C60.6388 196.036 63.8455 198.055 67.3399 199.249C70.5466 200.361 73.9999 200.732 76.0144 200.444C76.3433 200.403 76.6722 200.238 76.9188 199.991C79.0977 198.055 78.3988 190.063 76.3022 183.102H76.3433ZM146.808 220.505C146.808 218.074 143.642 216.138 139.696 216.138C135.749 216.138 132.624 218.074 132.624 220.505C132.624 222.935 135.79 224.871 139.696 224.871C143.601 224.871 146.808 222.935 146.808 220.505ZM123.128 179.6C123.333 178.612 121.113 176.964 118.852 176.84C115.851 176.717 113.425 179.353 113.754 180.342C114.33 181.989 122.758 181.372 123.128 179.6ZM89.0055 203.616C94.4322 205.593 100.476 202.874 100.434 201.185C100.434 198.467 84.0722 195.171 82.88 197.807C82.2633 199.167 85.5933 202.38 89.0055 203.616ZM87.1144 176.882C88.06 175.769 86.7855 171.321 83.4144 170.703C81.1122 170.291 78.481 171.815 78.481 173.174C78.481 175.481 85.7988 178.447 87.1144 176.882Z" fill="#B27967"/>
<path d="M159.059 167.16C159.141 167.572 159.059 167.86 158.771 168.108C158.853 167.778 158.977 167.49 159.059 167.16Z" fill="#B27967"/>
<path d="M159.059 167.16C158.977 167.49 158.853 167.778 158.771 168.108C155.4 170.785 129.13 155.667 135.584 144.875C137.558 142.28 139.531 138.655 141.504 134.247C144.67 127.162 147.794 118.1 150.96 108.09V108.007L151.083 107.678C151.988 104.794 146.767 130.293 149.562 148.17C151.289 159.169 158.483 164.73 159.059 167.16Z" fill="#935D51"/>
<path d="M140.929 134C145.615 123.249 150.097 110.479 150.919 108.09C147.753 118.058 144.629 127.162 141.463 134.247C141.299 134.165 141.093 134.082 140.929 134.041V134Z" fill="#B27967"/>
<path d="M139.737 216.179C143.683 216.179 146.849 218.115 146.849 220.546C146.849 222.976 143.683 224.912 139.737 224.912C135.79 224.912 132.665 222.976 132.665 220.546C132.665 218.115 135.831 216.179 139.737 216.179Z" fill="#E08F82"/>
<path d="M143.601 195.624C145.204 200.856 145.451 206.334 142.738 209.135C139.243 212.719 129.377 213.213 121.73 212.06C130.487 210.948 132.665 200.609 129.582 194.8C134.187 193.276 138.997 193.235 143.601 195.624Z" fill="white"/>
<path d="M140.929 134C140.929 134 141.299 134.165 141.463 134.206C139.49 138.614 137.517 142.239 135.543 144.834C136.407 143.392 137.311 141.703 138.216 139.849C139.12 138.037 140.024 136.018 140.929 133.959V134Z" fill="#B27967"/>
<path d="M116.262 128.727C124.649 128.933 133.899 130.993 140.97 134C140.065 136.06 139.161 138.037 138.257 139.891C129.664 133.506 109.15 130.045 91.7188 132.805C98.5844 130.128 106.19 128.727 114.371 128.727C115.029 128.727 115.645 128.727 116.303 128.727H116.262Z" fill="#935D51"/>
<path d="M130.404 398.992C135.379 398.992 139.408 402.123 139.408 405.995C139.408 409.867 135.379 413.039 130.404 413.039C125.43 413.039 121.401 409.908 121.401 405.995C121.401 402.082 125.43 398.992 130.404 398.992Z" fill="#A06858"/>
<path d="M143.601 195.624C139.038 193.235 134.228 193.276 129.582 194.8C127.855 191.546 124.526 189.693 119.716 191.67C124.896 186.026 131.391 181.701 135.297 183.143C138.257 184.255 141.751 189.775 143.56 195.624H143.601Z" fill="#EAD0D0"/>
<path d="M129.582 194.8C132.665 200.609 130.487 210.948 121.73 212.06C116.591 211.277 112.439 209.753 111.904 207.858C116.591 202.339 122.922 197.025 129.623 194.759L129.582 194.8Z" fill="#7F4D40"/>
<path d="M125.266 246.621C125.266 247.651 125.183 248.639 125.101 249.504C122.552 251.276 112.727 252.099 109.808 250.822H109.684C109.972 249.916 110.178 248.845 110.342 247.486C110.835 247.486 111.37 247.486 111.863 247.486C116.673 247.362 121.113 247.074 125.266 246.58V246.621Z" fill="#935D51"/>
<path d="M119.716 191.67C124.484 189.693 127.855 191.546 129.582 194.8C122.881 197.025 116.55 202.339 111.863 207.9C110.712 204.11 114.577 197.272 119.716 191.67Z" fill="#6B3D34"/>
<path d="M118.893 176.923C121.154 177.005 123.374 178.694 123.169 179.683C122.799 181.454 114.371 182.072 113.795 180.424C113.425 179.436 115.892 176.799 118.893 176.923Z" fill="#EAB5A7"/>
<path d="M107.423 6.1792C115.933 12.3581 122.881 31.0184 121.73 45.683C119.058 80.7379 112.274 112.333 116.221 128.727C115.604 128.727 114.947 128.727 114.289 128.727C106.108 128.727 98.5022 130.169 91.6366 132.805C88.8822 133.876 86.2511 135.112 83.7433 136.595C83.3322 135.112 82.7155 133.547 81.9755 131.899H82.0577C80.7011 126.173 74.9866 116.205 80.4955 108.502C86.95 99.4394 99.6122 89.2648 104.175 84.2805C112.768 74.8474 120.291 37.1973 107.423 6.1792Z" fill="#935D51"/>
<path d="M113.014 376.625C114.33 391.289 113.795 405.336 113.508 416.746H113.014C110.465 418.106 107.053 417.611 103.97 414.687C94.2266 405.377 86.3744 380.414 80.0021 367.15C78.851 364.761 77.8644 362.413 76.9599 360.065C76.8366 359.695 76.6722 359.324 76.5488 358.953C80.9477 362.908 89.7455 367.274 93.0755 368.922C95.9944 370.322 101.709 375.142 112.973 376.542L113.014 376.625ZM109.808 393.308C109.808 390.836 106.971 388.859 103.435 388.859C99.8999 388.859 97.0633 390.836 97.0633 393.308C97.0633 395.779 99.8999 397.757 103.435 397.757C106.971 397.757 109.808 395.779 109.808 393.308Z" fill="#935D51"/>
<path d="M103.477 388.859C107.012 388.859 109.849 390.836 109.849 393.308C109.849 395.779 107.012 397.757 103.477 397.757C99.941 397.757 97.1044 395.779 97.1044 393.308C97.1044 390.836 99.941 388.859 103.477 388.859Z" fill="#824F46"/>
<path d="M107.423 6.17918C120.291 37.1973 112.768 74.8062 104.175 84.2805C99.6122 89.2648 86.95 99.4394 80.4955 108.502C74.9866 116.205 80.7011 126.173 82.0577 131.858H81.9755C77.0422 120.695 65.86 105.165 63.0233 80.326C59.3233 47.5366 85.7577 6.0968 100.722 4.16074C102.983 3.8724 105.244 4.61386 107.382 6.22038L107.423 6.17918Z" fill="#B27967"/>
<path d="M100.476 201.268C100.476 202.915 94.4322 205.675 89.0466 203.698C85.6344 202.462 82.3044 199.249 82.9211 197.89C84.1133 195.254 100.434 198.549 100.476 201.268Z" fill="#935D51"/>
<path d="M89.4577 209.712C89.7866 211.566 87.4844 213.131 84.4011 212.76C86.21 211.937 87.8133 209.795 86.9911 208.518C88.3066 208.806 89.3344 209.177 89.4577 209.712Z" fill="#EAA0A0"/>
<path d="M83.4555 170.744C86.8266 171.362 88.1422 175.811 87.1555 176.923C85.8399 178.488 78.4811 175.522 78.5222 173.215C78.5222 171.856 81.1533 170.332 83.4555 170.744Z" fill="#EAB5A7"/>
<path d="M87.0321 208.518C87.8133 209.795 86.2099 211.937 84.4422 212.76C84.3599 212.76 84.2366 212.76 84.1544 212.76C81.6466 212.431 79.4677 209.3 80.4544 208.476C81.0299 207.982 84.5655 208.064 87.0321 208.559V208.518Z" fill="#FCB9B9"/>
<path d="M76.3433 183.143C78.4399 190.104 79.1388 198.096 76.9599 200.032C75.5211 191.876 72.5199 186.685 68.6555 184.255C71.0399 180.712 74.4933 179.477 76.3433 183.143Z" fill="#6B3D34"/>
<path d="M76.5899 359.036C76.7133 359.406 76.8366 359.777 77.0011 360.148C74.5755 362.743 72.1088 367.892 66.4355 368.345C65.5311 368.427 64.5444 368.345 63.4755 368.18C60.0222 367.562 57.1855 365.832 54.8833 363.402C51.3066 359.695 49.0044 354.422 47.6888 349.396C47.6477 348.861 47.6066 348.367 47.6066 347.872C47.36 335.885 57.8844 328.1 63.2288 329.418C65.161 329.912 67.3399 331.189 69.2722 332.919C69.7244 326.329 70.7933 319.161 74.1233 312.9C70.7522 326.823 70.3822 342.188 76.5488 359.036H76.5899Z" fill="#935D51"/>
<path d="M76.96 200.032C76.7133 200.279 76.3844 200.444 76.0555 200.485C74.0822 200.773 70.6288 200.403 67.3811 199.29C64.9144 193.688 66.2299 187.798 68.6555 184.255C72.5199 186.685 75.5211 191.917 76.96 200.032Z" fill="#7F4D40"/>
<path d="M76.3433 183.143C74.4933 179.477 71.0399 180.712 68.6555 184.255C66.2299 182.731 63.4755 182.278 60.5566 182.896C62.4888 176.264 66.8466 170.826 69.8888 172.021C72.3966 173.009 74.781 177.788 76.3844 183.143H76.3433Z" fill="#EAD0D0"/>
<path d="M67.4222 199.208C63.9277 198.055 60.721 195.995 60.0222 193.029C59.2822 189.775 59.611 186.191 60.5977 182.855C63.5166 182.237 66.271 182.69 68.6966 184.214C66.271 187.756 64.9555 193.647 67.4222 199.208Z" fill="white"/>
<path d="M57.2266 199.62C59.981 200.567 61.7899 202.668 61.2555 204.316C60.7211 206.005 57.9255 206.623 55.0066 205.716C53.4444 205.222 52.1699 204.357 51.4299 203.41C53.9788 202.38 56.3222 202.215 57.2266 199.62Z" fill="#E08F82"/>
<path d="M49.7444 198.796C51.0188 196.242 52.1699 193.482 52.5811 189.322C52.8277 187.015 53.1566 184.791 53.5266 182.607C53.1155 193.729 58.5011 193.359 57.4733 198.714C57.3911 199.043 57.3088 199.373 57.2266 199.661C57.1444 199.661 57.0622 199.579 56.9799 199.579C54.0611 198.631 51.2655 199.249 50.7311 200.979C50.4844 201.762 50.731 202.668 51.4299 203.451C49.4977 204.192 47.4833 205.428 45.8388 208.559C46.7022 204.44 48.3055 201.762 49.7855 198.837L49.7444 198.796Z" fill="#935D51"/>
<path d="M56.9799 199.538C56.9799 199.538 57.1444 199.579 57.2266 199.62C56.281 202.256 53.9377 202.421 51.4299 203.41C50.7722 202.586 50.4844 201.721 50.731 200.938C51.2655 199.249 54.061 198.59 56.9799 199.538Z" fill="#D17E75"/>
<path d="M71.2455 186.809C71.8812 186.809 72.3966 186.293 72.3966 185.656C72.3966 185.019 71.8812 184.502 71.2455 184.502C70.6098 184.502 70.0944 185.019 70.0944 185.656C70.0944 186.293 70.6098 186.809 71.2455 186.809Z" fill="white"/>
<path d="M127.074 196.942C127.71 196.942 128.226 196.426 128.226 195.789C128.226 195.152 127.71 194.636 127.074 194.636C126.439 194.636 125.923 195.152 125.923 195.789C125.923 196.426 126.439 196.942 127.074 196.942Z" fill="white"/>
<path d="M165.061 156.162C170.488 165.554 173.571 177.129 173.571 190.516C173.571 227.713 160.004 246.209 111.822 247.445C88.8822 248.021 45.14 235.252 45.14 215.273C45.14 201.679 51.3888 200.361 52.54 189.28C55.0066 165.471 66.3944 146.523 83.7433 136.513C92.5411 131.446 102.86 128.645 114.289 128.645C114.947 128.645 115.563 128.645 116.221 128.645C124.813 128.851 134.31 131.034 141.463 134.165" stroke="#3F2A25" stroke-width="0.5" stroke-linecap="round" stroke-linejoin="round"/>
<path d="M75.9733 200.403C81.4411 199.661 75.9733 174.41 69.8066 171.938C65.2433 170.126 57.6788 183.266 59.94 192.988C61.2555 198.714 71.8622 200.979 76.0144 200.403H75.9733Z" stroke="#3F2A25" stroke-width="0.5" stroke-linecap="round" stroke-linejoin="round"/>
<path d="M111.822 207.817C109.52 200.196 127.486 180.177 135.297 183.06C140.929 185.161 148.452 203.204 142.697 209.053C136.859 215.026 113.22 212.472 111.822 207.817Z" stroke="#3F2A25" stroke-width="0.5" stroke-linecap="round" stroke-linejoin="round"/>
<path d="M87.1144 176.881C88.06 175.769 86.7855 171.32 83.4144 170.703C81.0711 170.291 78.4811 171.815 78.4811 173.174C78.44 175.481 85.7989 178.447 87.1144 176.881Z" stroke="#3F2A25" stroke-width="0.5" stroke-linecap="round" stroke-linejoin="round"/>
<path d="M113.713 180.383C113.343 179.353 115.81 176.758 118.811 176.881C121.072 176.964 123.292 178.653 123.087 179.641C122.717 181.413 114.289 182.031 113.713 180.383Z" stroke="#3F2A25" stroke-width="0.5" stroke-linecap="round" stroke-linejoin="round"/>
<path d="M76.3021 183.102C72.6021 175.687 62.4066 188.045 67.3399 199.167" stroke="#3F2A25" stroke-width="0.5" stroke-linecap="round" stroke-linejoin="round"/>
<path d="M119.674 191.629C133.035 186.15 135.297 210.33 121.648 212.019" stroke="#3F2A25" stroke-width="0.5" stroke-linecap="round" stroke-linejoin="round"/>
<path d="M73.0955 216.097C74.8222 219.434 77.8233 217.745 81.6055 218.404C84.4422 218.898 90.8555 223.017 96.8166 222.07" stroke="#3F2A25" stroke-width="0.5" stroke-linecap="round" stroke-linejoin="round"/>
<path d="M84.0721 212.678C87.3199 213.131 89.7866 211.525 89.4166 209.63C89.1699 208.188 81.2766 207.652 80.3722 208.394C79.3855 209.177 81.5644 212.307 84.0721 212.678Z" stroke="#3F2A25" stroke-width="0.5" stroke-linecap="round" stroke-linejoin="round"/>
<path d="M82.3044 218.568C83.4144 217.992 84.0722 213.584 84.0722 212.719" stroke="#3F2A25" stroke-width="0.5" stroke-linecap="round" stroke-linejoin="round"/>
<path d="M116.18 128.686C112.233 112.291 119.017 80.6966 121.689 45.6417C123.087 27.2286 111.863 2.63654 100.681 4.07828C85.7166 6.01434 59.2822 47.4542 62.9822 80.2435C66.23 108.79 80.4544 125.02 83.6611 136.513" stroke="#3F2A25" stroke-width="0.5" stroke-linecap="round" stroke-linejoin="round"/>
<path d="M135.502 144.792C146.314 130.581 156.88 85.2278 168.062 51.9029C173.9 34.396 193.839 16.1065 203.541 21.8323C216.573 29.4529 224.837 77.9367 208.639 106.689C194.579 131.734 164.198 152.207 159.963 163.865" stroke="#3F2A25" stroke-width="0.5" stroke-linecap="round" stroke-linejoin="round"/>
<path d="M180.025 51.8618C166.418 95.1553 171.31 128.645 158.73 168.066" stroke="#3F2A25" stroke-width="0.5" stroke-linecap="round" stroke-linejoin="round"/>
<path d="M92.9522 268.782C80.3311 293.333 60.3099 326.123 79.961 367.15C86.3333 380.456 94.1855 405.377 103.929 414.687C106.971 417.611 110.383 418.106 112.932 416.705" stroke="#3F2A25" stroke-width="0.5" stroke-linecap="round" stroke-linejoin="round"/>
<path d="M110.301 247.445C109.643 253.5 107.423 253.871 104.093 255.436C95.83 259.349 96.2822 258.072 90.8555 261.574C81.2766 267.711 48.1822 316.895 46.4555 338.151C45.7977 346.389 50.1966 365.75 63.4344 368.098C71.2866 369.498 74.1233 363.072 76.96 360.065" stroke="#3F2A25" stroke-width="0.5" stroke-linecap="round" stroke-linejoin="round"/>
<path d="M125.183 246.538C125.265 250.905 123.457 254.241 127.444 255.642C130.898 256.878 132.049 257.66 136.612 259.39C140.723 260.956 175.997 301.201 194.825 321.591C210.324 338.357 198.279 369.292 189.769 370.734C179.491 372.505 176.613 362.784 161.238 328.429C154.619 313.682 149.151 305.361 131.432 275.332" stroke="#3F2A25" stroke-width="0.5" stroke-linecap="round" stroke-linejoin="round"/>
<path d="M160.004 325.711C161.69 335.391 171.187 354.587 162.594 370.981C156.757 382.062 147.918 435.613 131.309 444.387C126.54 446.899 117.167 445.664 115.111 441.256C111 432.276 115.522 405.707 112.932 376.625" stroke="#3F2A25" stroke-width="0.5" stroke-linecap="round" stroke-linejoin="round"/>
<path d="M93.0755 368.963C95.9944 370.363 101.709 375.183 112.973 376.584C117.783 377.16 121.977 373.824 126.499 372.176" stroke="#3F2A25" stroke-width="0.5" stroke-linecap="round" stroke-linejoin="round"/>
<path d="M185.206 345.359C188.33 355.781 187.878 360.23 185.206 370.652" stroke="#3F2A25" stroke-width="0.5" stroke-linecap="round" stroke-linejoin="round"/>
<path d="M193.181 340.046C198.197 350.014 198.155 354.504 196.84 364.02" stroke="#3F2A25" stroke-width="0.5" stroke-linecap="round" stroke-linejoin="round"/>
<path d="M58.3366 343.176C54.5544 351.456 55.4588 353.598 54.8422 363.361" stroke="#3F2A25" stroke-width="0.5" stroke-linecap="round" stroke-linejoin="round"/>
<path d="M66.5588 347.543C65.2433 357.264 64.0922 359.571 66.3944 368.263" stroke="#3F2A25" stroke-width="0.5" stroke-linecap="round" stroke-linejoin="round"/>
<path d="M49.7033 198.755C36.9588 187.921 18.4999 180.795 4.06995 179.683" stroke="#3F2A25" stroke-width="0.5" stroke-linecap="round" stroke-linejoin="round"/>
<path d="M6.65994 204.439C21.3366 204.151 34.2866 206.128 45.1399 210.742" stroke="#3F2A25" stroke-width="0.5" stroke-linecap="round" stroke-linejoin="round"/>
<path d="M155.482 213.131C171.433 208.064 191.167 208.6 204.898 213.131" stroke="#3F2A25" stroke-width="0.5" stroke-linecap="round" stroke-linejoin="round"/>
<path d="M193.017 234.963C179.573 229.031 166.87 225.86 155.071 225.942" stroke="#3F2A25" stroke-width="0.5" stroke-linecap="round" stroke-linejoin="round"/>
<path d="M165.184 364.185C168.925 361.095 171.433 357.8 173.078 354.751" stroke="#3F2A25" stroke-width="0.5" stroke-linecap="round" stroke-linejoin="round"/>
</svg>
