<svg width="234" height="420" viewBox="0 0 234 420" fill="none" xmlns="http://www.w3.org/2000/svg">
<path d="M115.563 234.294C113.223 234.294 110.842 234.13 108.502 233.965C79.1496 231.577 50.9875 217.535 54.2307 191.924C58.2949 159.518 70.6107 117.435 117.493 117.065C160.598 116.735 175.746 157.253 180.303 189.618C182.931 208.188 166.304 223.012 144.834 230.012" fill="#BC7171"/>
<path d="M136.87 120.03C147.42 110.353 162.569 90.8354 176.034 66.3766C192.865 35.8648 215.157 22.2766 223.409 26.0648C234.452 31.1707 235.724 78.6883 209.081 106.524C192.989 123.365 172.421 130.735 159.695 136.171" fill="#BC7171"/>
<path d="M151.895 128.429C159.654 122.253 170.533 111.424 176.321 94.3354C182.684 75.5589 189.622 61.0648 198.079 47.4766" fill="#BC7171"/>
<path d="M98.2801 119.947C92.0401 107.141 86.4569 85.7707 83.0906 57.5236C78.9854 22.8942 63.4264 1.89423 54.3538 2.30599C42.2022 2.84129 23.1949 46.406 37.3991 82.2295C47.7033 108.212 68.5991 123.941 76.5222 133.577" fill="#BC7171"/>
<path d="M69.7075 31.6648C72.458 47.4766 73.4433 63.4942 72.2938 83.3001C71.0622 104.547 78.9854 119.329 83.9528 127.194" fill="#BC7171"/>
<path d="M134.078 190.194C131.451 183.894 138.963 166.765 146.927 164.829C154.03 163.141 164.457 176.359 161.296 185.171C158.135 193.982 136.623 196.288 134.078 190.194Z" fill="#BC7171"/>
<path d="M139.374 171.088C146.969 164.871 162.897 188.918 147.42 193.324Z" fill="#BC7171"/>
<path d="M95.5706 191.059C97.7875 184.594 89.2075 168 81.1201 166.6C73.9359 165.365 64.3706 179.241 68.0654 187.806C71.7601 196.412 93.3948 197.318 95.5706 191.059Z" fill="#BC7171"/>
<path d="M89.1254 172.283C81.1612 166.559 66.7928 191.594 82.5159 194.971Z" fill="#BC7171"/>
<path d="M131.245 145.312C130.548 144.447 132.025 141.071 134.981 140.165C137.239 139.465 139.949 140.33 140.072 141.359C140.318 143.212 132.313 146.712 131.204 145.312H131.245Z" fill="#BC7171"/>
<path d="M113.675 199.665C117.041 199.459 119.176 197.359 118.437 195.465C117.862 194.065 109.816 195.135 109.077 196.083C108.256 197.112 111.089 199.788 113.675 199.624V199.665Z" fill="#BC7171"/>
<path d="M113.757 207.818C114.126 204.977 114.044 200.735 113.757 199.665Z" fill="#BC7171"/>
<path d="M113.88 221.324C116.624 221.324 118.848 218.3 118.848 214.571C118.848 210.841 116.624 207.818 113.88 207.818C111.137 207.818 108.913 210.841 108.913 214.571C108.913 218.3 111.137 221.324 113.88 221.324Z" fill="#BC7171"/>
<path d="M116.877 209.177C117 209.671 117.123 210.247 117.123 210.865C117.123 213.377 115.686 215.394 113.88 215.394C112.074 215.394 110.637 213.377 110.637 210.865C110.637 210.288 110.719 209.712 110.883 209.177" fill="#BC7171"/>
<path d="M113.429 207.859C113.223 210.329 114.085 213.253 113.88 215.394Z" fill="#BC7171"/>
<path d="M162.569 306.353C164.703 316.153 166.879 329.33 165.237 345.306C162.076 375.571 157.848 412.012 151.854 414.688C145.778 417.365 141.509 418.435 135.597 415.059C131.451 412.671 134.119 368.488 129.316 365.977C124.964 363.712 117.985 364.782 115.03 365.647C108.872 367.459 114.906 413.7 110.226 416.212C104.479 419.341 98.4033 417.9 94.2981 416.047C89.3717 413.824 89.4949 408.018 76.5633 346.665C71.5138 322.7 84.897 286.177 90.398 267.812" fill="#BC7171"/>
<path d="M92.5738 253.771C80.9149 266.741 64.0012 292.271 43.3517 303.471C21.4706 315.371 17.1601 326.818 19.2128 332.665C21.8401 340.118 42.2843 342.835 56.7759 336.988C69.5433 331.841 74.2643 323.194 76.7685 318.747" fill="#BC7171"/>
<path d="M18.8433 328.506C24.3443 324.8 27.3822 322.988 33.7454 321.053Z" fill="#BC7171"/>
<path d="M28.0391 338.759C34.2791 336.577 36.7012 335.259 41.217 331.677Z" fill="#BC7171"/>
<path d="M170.41 305.571C162.158 313.847 124.472 283.624 119.504 266.288C114.085 247.512 113.141 220.871 122.748 216.135C129.193 212.924 137.691 220.006 143.356 227.624C149.842 236.271 144.834 245.124 149.309 256.818C157.15 277.282 181.33 294.577 170.369 305.571H170.41Z" fill="#BC7171"/>
<path d="M121.844 216.671C129.521 225.071 134.53 232.729 135.556 243.6Z" fill="#BC7171"/>
<path d="M135.104 219.059C139.21 224.865 142.945 232.565 143.027 238.782Z" fill="#BC7171"/>
<path d="M229.279 36.7706C233.097 53.4883 228.868 85.5236 208.876 106.4C192.824 123.2 172.298 130.571 159.613 135.965C157.273 133.165 154.686 130.571 151.854 128.265C152.88 127.441 153.947 126.535 155.097 125.547C156.246 124.559 157.396 123.488 158.586 122.294C166.468 126.082 171.025 128.512 189.458 116.529C204.196 106.935 233.015 56.9471 229.156 36.7706H229.279Z" fill="#BC7171"/>
<path d="M229.156 36.8118C233.015 56.9883 204.196 106.977 189.458 116.571C171.025 128.553 166.427 126.124 158.586 122.335C165.032 115.912 172.011 106.771 176.239 94.2942C182.602 75.5589 189.499 61.1059 197.956 47.5589C202.882 38.8295 216.881 27.3824 224.558 27.5471L224.804 27.3C226.775 29.1118 228.335 32.4471 229.32 36.8118H229.197H229.156Z" fill="#BC7171"/>
<path d="M224.517 27.4648C216.84 27.3001 202.841 38.7472 197.915 47.4766C189.458 61.0648 182.561 75.4766 176.198 94.2119C171.97 106.688 164.991 115.83 158.545 122.253C157.355 123.406 156.205 124.518 155.056 125.506L154.686 125.094C144.464 119.782 158.627 96.9295 164.785 84.8648C168.521 79.1001 172.257 72.8824 175.87 66.2942C192.66 35.8648 214.911 22.2766 223.121 26.0648C223.696 26.3119 224.23 26.6824 224.722 27.1766L224.476 27.4236L224.517 27.4648Z" fill="#BC7171"/>
<path d="M171.805 198.594C171.888 199.459 171.436 200.324 170.615 201.065C171.231 199.788 171.559 198.553 171.682 198.059C171.764 198.224 171.805 198.388 171.805 198.594Z" fill="#BC7171"/>
<path d="M171.641 198.059C171.354 199.088 170.984 200.077 170.574 201.065C169.424 202.094 167.495 202.877 165.278 203.165C161.419 203.618 158.094 202.341 157.847 200.282C157.601 198.224 160.516 196.165 164.375 195.712C167.905 195.259 170.943 196.329 171.641 198.059Z" fill="#BC7171"/>
<path d="M162.486 305.735C160.557 305.2 158.381 304.294 156.082 303.1C141.96 295.771 122.953 277.694 119.504 265.794C117.164 257.765 115.686 248.253 115.481 239.688C115.481 237.671 115.481 235.735 115.563 233.882C116.015 225.688 117.903 219.018 121.803 216.341C128.413 223.588 133.052 230.259 134.817 238.906C128.864 240.924 123.158 242.9 124.841 247.388C125.95 250.312 133.298 248.624 141.303 249.53H141.344C141.344 249.53 141.714 249.571 141.878 249.612C143.643 250.353 145.08 256.2 148.036 262.83C150.786 268.965 155.138 275.594 159.284 280.535C164.991 287.247 173.694 300.794 165.647 306.435C164.662 306.353 163.554 306.188 162.404 305.818L162.486 305.735Z" fill="#BC7171"/>
<path d="M159.736 173.765C161.624 177.347 162.445 181.465 161.214 184.841C159.613 189.247 153.455 192.047 147.338 192.953C157.355 190.112 154.153 178.994 148.611 173.229C152.511 172.2 156.493 172.324 159.695 173.765H159.736Z" fill="#BC7171"/>
<path d="M113.716 199.294C117.082 199.088 119.217 196.988 118.478 195.135C118.314 194.724 117.534 194.518 116.466 194.477C113.88 194.353 109.652 195.094 109.118 195.753C108.338 196.7 110.678 199.047 113.059 199.294C113.264 199.294 113.47 199.294 113.675 199.294H113.716ZM134.078 189.865C135.351 192.912 141.303 193.859 147.379 192.953C153.496 192.047 159.654 189.247 161.255 184.841C162.486 181.424 161.665 177.347 159.777 173.765C156.821 168.082 151.238 163.553 146.927 164.582C144.218 165.241 141.591 167.63 139.374 170.759C135.227 176.565 132.6 184.924 133.914 189.288C133.996 189.494 134.037 189.7 134.119 189.865H134.078ZM113.47 207.447C112.525 207.53 111.622 208.024 110.924 208.806C109.734 210.041 108.954 211.977 108.954 214.159C108.954 217.865 111.171 220.871 113.921 220.871C116.672 220.871 118.889 217.865 118.889 214.159C118.889 211.977 118.109 210.041 116.918 208.806C116.097 207.941 115.071 207.406 113.921 207.406C113.757 207.406 113.634 207.406 113.47 207.406V207.447ZM84.0759 126.988C85.2254 126.124 86.4569 125.341 87.7296 124.6C90.9727 122.624 94.5032 121.018 98.3622 119.782C104.027 117.971 110.391 116.9 117.534 116.859C124.718 116.818 131.122 117.888 136.829 119.906C142.494 121.882 147.461 124.765 151.854 128.306C154.686 130.612 157.273 133.206 159.613 136.006C159.695 136.088 159.736 136.13 159.777 136.212L159.613 136.335C170.984 151.365 177.512 179.159 171.641 198.059C170.943 196.33 167.864 195.3 164.375 195.712C160.516 196.165 157.601 198.224 157.847 200.282C158.094 202.341 161.419 203.618 165.278 203.165C167.495 202.877 169.424 202.094 170.574 201.065C170.204 202.012 169.794 202.877 169.342 203.782C163.841 214.53 154.194 222.024 143.069 226.841C140.729 223.794 137.978 220.871 135.104 218.647C130.958 215.477 126.524 213.871 122.789 215.765C122.46 215.93 122.173 216.094 121.844 216.3C117.944 219.018 116.015 225.688 115.604 233.841C113.264 233.841 110.924 233.677 108.584 233.512C83.1317 231.453 58.5822 220.582 54.7233 200.982C54.1485 198.059 54.0254 194.888 54.4359 191.553C54.559 190.4 54.7233 189.206 54.8875 188.012C57.5559 169.112 63.2622 147.659 76.9327 133.288C79.1085 131.024 81.4485 128.924 84.0348 127.03L84.0759 126.988ZM95.5706 190.977C95.5706 190.977 95.6527 190.771 95.6938 190.688C97.1717 186.447 93.9285 177.759 89.2075 171.953C86.8264 168.947 83.9938 166.724 81.2843 166.271C77.0148 165.53 71.9243 170.141 69.2559 175.782C67.4496 179.612 66.7517 183.977 68.2706 187.435C70.118 191.718 76.4811 194.106 82.639 194.641C88.5506 195.135 94.2569 193.9 95.5706 191.018V190.977ZM131.245 145.065C132.354 146.465 140.318 143.006 140.072 141.153C139.949 140.124 137.239 139.259 134.981 139.959C132.025 140.865 130.547 144.241 131.245 145.106V145.065ZM125.087 185.13C125.087 182.371 102.057 185.047 101.811 187.724C101.605 189.741 107.681 190.688 112.402 190.688C118.026 190.688 125.129 187.312 125.087 185.13ZM98.1569 161.947C98.7317 160.3 98.1569 156.882 95.5295 155.647C93.3127 154.618 90.3569 155.524 89.9874 156.841C89.4127 158.941 94.8727 163.141 97.1306 162.894C97.2127 162.894 97.2948 162.894 97.3769 162.894C97.5001 162.894 97.5822 162.812 97.6643 162.771C97.9106 162.606 98.0748 162.318 98.198 161.947H98.1569ZM78.0001 204.194C78.0001 202.135 74.839 200.447 70.939 200.447C67.039 200.447 63.878 202.135 63.878 204.194C63.878 206.253 67.039 207.941 70.939 207.941C74.839 207.941 78.0001 206.253 78.0001 204.194Z" fill="#BC7171"/>
<path d="M165.155 344.565C161.994 374.788 157.806 411.147 151.813 413.741C149.062 414.935 146.681 415.841 144.382 416.129C154.399 413.165 158.34 372.276 158.874 367.294C161.871 339.376 159.366 311.541 156.123 303.059C158.422 304.253 160.557 305.159 162.527 305.694C164.662 315.453 166.838 328.588 165.196 344.524L165.155 344.565Z" fill="#BC7171"/>
<path d="M164.785 84.9059C158.669 96.9294 144.505 119.782 154.686 125.135L155.056 125.547C153.906 126.535 152.839 127.441 151.813 128.265C147.461 124.724 142.494 121.841 136.787 119.865C144.505 112.824 154.604 100.512 164.744 84.9059H164.785Z" fill="#BC7171"/>
<path d="M159.736 173.765C156.493 172.365 152.511 172.2 148.652 173.23C145.655 170.141 142.001 168.618 139.374 170.759C141.591 167.63 144.218 165.241 146.927 164.582C151.238 163.553 156.821 168.082 159.777 173.765H159.736Z" fill="#BC7171"/>
<path d="M145.696 381.377C149.309 381.377 152.223 383.106 152.223 385.247C152.223 387.388 149.309 389.118 145.696 389.118C142.083 389.118 139.169 387.388 139.169 385.247C139.169 383.106 142.083 381.377 145.696 381.377Z" fill="#BC7171"/>
<path d="M142.781 235.612C144.3 234.706 145.491 233.676 146.024 232.4C148.2 239.441 145.737 246.976 149.309 256.324C157.15 276.747 181.247 294 170.327 304.953C169.26 306.024 167.7 306.435 165.771 306.353C173.858 300.712 165.114 287.165 159.408 280.453C155.261 275.553 150.91 268.882 148.159 262.747C145.203 256.118 143.725 250.229 142.001 249.529C142.001 249.529 141.632 249.406 141.468 249.447H141.426C133.38 248.5 126.032 250.229 124.964 247.306C123.281 242.818 128.988 240.841 134.94 238.824C137.773 237.876 140.646 236.847 142.822 235.612H142.781Z" fill="#BC7171"/>
<path d="M148.652 173.271C154.194 179.035 157.396 190.153 147.379 192.994C141.303 193.9 135.351 192.953 134.078 189.906C133.996 189.741 133.955 189.535 133.873 189.329C135.351 180.518 141.837 175.082 148.652 173.271Z" fill="#BC7171"/>
<path d="M143.069 226.8C154.194 222.024 163.841 214.488 169.342 203.741C169.794 202.877 170.204 201.971 170.574 201.024C171.436 200.282 171.887 199.418 171.764 198.553C171.764 198.388 171.682 198.182 171.641 198.018C177.512 179.118 170.984 151.324 159.613 136.294L159.777 136.171C171.231 150.006 177.019 169.194 179.77 186.488C179.893 187.394 180.057 188.3 180.18 189.206C182.766 207.735 166.222 222.518 144.834 229.518C144.423 228.735 143.931 227.994 143.356 227.212C143.274 227.088 143.151 226.965 143.069 226.841V226.8Z" fill="#BC7171"/>
<path d="M146.024 232.4C145.45 233.677 144.3 234.747 142.781 235.612C141.878 229.971 138.635 223.588 135.104 218.647C137.978 220.829 140.729 223.753 143.069 226.8C143.151 226.924 143.274 227.047 143.356 227.171C143.931 227.953 144.423 228.694 144.834 229.477C145.326 230.424 145.737 231.371 146.024 232.359V232.4Z" fill="#BC7171"/>
<path d="M139.374 170.759C142.042 168.618 145.696 170.141 148.652 173.229C141.837 175.041 135.351 180.476 133.873 189.288C132.559 184.924 135.227 176.565 139.333 170.759H139.374Z" fill="#BC7171"/>
<path d="M135.104 218.647C138.635 223.63 141.878 230.012 142.781 235.612C140.605 236.888 137.732 237.877 134.899 238.824C133.093 230.177 128.454 223.465 121.885 216.259C122.173 216.053 122.501 215.847 122.83 215.724C126.565 213.871 130.999 215.477 135.145 218.606L135.104 218.647Z" fill="#BC7171"/>
<path d="M140.072 141.194C140.318 143.047 132.354 146.506 131.245 145.106C130.589 144.241 132.025 140.865 134.981 139.959C137.239 139.259 139.949 140.124 140.072 141.153V141.194Z" fill="#BC7171"/>
<path d="M101.811 187.765C102.057 185.088 125.087 182.412 125.087 185.171C125.087 187.353 118.026 190.729 112.402 190.729C107.681 190.729 101.646 189.782 101.811 187.765Z" fill="#BC7171"/>
<path d="M113.921 207.447C115.071 207.447 116.097 207.941 116.918 208.847C117.041 209.341 117.164 209.918 117.164 210.494C117.164 213.006 115.727 215.024 113.962 215.024C114.167 212.882 113.305 210 113.511 207.53C113.634 207.53 113.798 207.53 113.962 207.53L113.921 207.447Z" fill="#BC7171"/>
<path d="M105.054 385.247C105.054 382.9 102.262 381.006 98.7727 381.006C95.2833 381.006 92.4917 382.9 92.4917 385.247C92.4917 387.594 95.3243 389.488 98.7727 389.488C102.221 389.488 105.054 387.594 105.054 385.247ZM92.6149 253.359C92.6149 253.359 92.6149 253.359 92.6559 253.318C93.3128 252.412 94.0517 251.835 94.4622 251.629C99.4296 248.912 103.74 247.635 107.147 245.329C108.666 244.3 109.159 241.912 109.159 239.235C111.335 240.347 113.47 240.224 115.481 239.688C115.686 248.294 117.164 257.765 119.504 265.794C122.912 277.735 141.919 295.812 156.082 303.1C159.325 311.582 161.83 339.418 158.833 367.335C158.299 372.318 154.358 413.206 144.341 416.171C141.509 416.541 138.799 416.006 135.556 414.153C131.41 411.765 134.078 367.665 129.275 365.194C124.923 362.929 117.985 364 115.03 364.865C104.849 364 109.241 386.4 107.845 403.324C107.394 408.635 108.666 414.112 98.4443 416.541C96.9665 416.171 95.5706 415.677 94.3801 415.141C89.4538 412.959 89.577 407.153 76.6864 345.924C74.9622 337.729 75.3727 328.012 76.9327 318.088C79.8885 299.147 86.9086 279.3 90.4801 267.235C86.8264 272.053 78.9033 304.582 63.4264 322.494C63.2212 319.241 62.1949 315.988 60.0601 313.518C51.7264 303.841 39.5338 306.435 33.9917 308.988L33.9096 308.824C36.6601 306.847 39.9033 304.829 43.598 302.812C64.1654 291.653 80.997 266.206 92.6149 253.277V253.359ZM152.223 385.247C152.223 383.106 149.309 381.377 145.696 381.377C142.083 381.377 139.169 383.106 139.169 385.247C139.169 387.388 142.083 389.118 145.696 389.118C149.309 389.118 152.223 387.388 152.223 385.247Z" fill="#BC7171"/>
<path d="M115.604 233.841C115.522 235.694 115.481 237.671 115.522 239.647C113.511 240.182 111.376 240.306 109.2 239.194C109.2 237.341 108.954 235.324 108.584 233.512C110.924 233.718 113.264 233.8 115.604 233.841Z" fill="#BC7171"/>
<path d="M107.886 403.324C109.323 386.359 104.89 364 115.071 364.865C108.954 366.677 114.947 412.794 110.267 415.306C106.203 417.488 102.016 417.447 98.4443 416.541C108.666 414.112 107.394 408.635 107.845 403.324H107.886Z" fill="#BC7171"/>
<path d="M113.1 199.294C116.261 199.171 117.041 195.547 116.507 194.477C117.534 194.518 118.314 194.724 118.519 195.135C119.258 196.988 117.123 199.088 113.757 199.294C113.552 199.294 113.346 199.294 113.141 199.294H113.1Z" fill="#BC7171"/>
<path d="M116.466 194.476C117.041 195.547 116.22 199.129 113.059 199.294C110.678 199.047 108.338 196.7 109.118 195.753C109.652 195.094 113.88 194.353 116.466 194.476Z" fill="#BC7171"/>
<path d="M110.678 210.494C110.678 209.918 110.76 209.341 110.924 208.847C111.622 208.065 112.525 207.612 113.47 207.488C113.264 209.959 114.085 212.841 113.921 214.982C112.115 214.982 110.719 212.965 110.719 210.453L110.678 210.494Z" fill="#BC7171"/>
<path d="M110.678 210.494C110.678 213.006 112.115 215.024 113.88 215.024C115.645 215.024 117.082 213.006 117.082 210.494C117.082 209.918 117 209.341 116.836 208.847C118.026 210.082 118.806 212.018 118.806 214.2C118.806 217.906 116.59 220.912 113.839 220.912C111.089 220.912 108.872 217.906 108.872 214.2C108.872 212.018 109.652 210.082 110.842 208.847C110.678 209.341 110.596 209.918 110.596 210.494H110.678Z" fill="#BC7171"/>
<path d="M98.7727 381.006C102.221 381.006 105.054 382.9 105.054 385.247C105.054 387.594 102.262 389.488 98.7727 389.488C95.2833 389.488 92.4917 387.594 92.4917 385.247C92.4917 382.9 95.3243 381.006 98.7727 381.006Z" fill="#BC7171"/>
<path d="M95.6938 190.729C95.6938 190.729 95.6117 190.935 95.5706 191.018C94.0517 182.041 87.1548 176.688 80.0527 175.082C82.8443 171.788 86.4159 170.018 89.2075 171.994C93.8875 177.8 97.1306 186.447 95.6938 190.729Z" fill="#BC7171"/>
<path d="M80.0528 175.082C87.1138 176.688 94.0517 182.041 95.5706 191.018C94.257 193.9 88.5096 195.135 82.6391 194.641C72.458 192.418 74.9212 181.177 80.0938 175.082H80.0528Z" fill="#BC7171"/>
<path d="M72.417 53.1177C71.9243 45.7471 71.0622 38.7059 69.8717 31.7471C68.2296 22.6471 62.6464 6.71183 54.6412 2.42947C60.0191 2.26477 67.6138 9.59418 73.8128 22.7707C78.8212 35.7001 81.2433 52.9118 81.6128 61.1059C83.337 100.1 92.3275 122.418 87.7296 124.559C86.457 125.3 85.2665 126.124 84.0759 126.947C79.1086 119.124 71.2265 104.382 72.458 83.1765C73.0738 72.1824 73.0738 62.3412 72.458 53.0354L72.417 53.1177Z" fill="#BC7171"/>
<path d="M89.2075 171.994C86.4159 169.977 82.8443 171.788 80.0528 175.082C76.2349 174.218 72.3759 174.465 69.2559 175.824C71.9243 170.182 77.0149 165.571 81.2843 166.312C83.9938 166.765 86.8264 169.03 89.2075 171.994Z" fill="#BC7171"/>
<path d="M56.9812 336.329C43.9675 341.559 26.2327 339.912 20.8549 334.147C20.2391 333.488 19.7875 332.788 19.5412 332.006C19.1306 330.812 18.9664 329.412 19.1717 327.847C19.7464 322.906 23.7696 316.153 33.9096 308.906L33.9917 309.071C39.5338 306.476 51.7264 303.924 60.0601 313.6C62.1948 316.112 63.2211 319.324 63.4264 322.576C78.9033 304.665 86.8264 272.094 90.4801 267.318C86.8675 279.382 79.8885 299.188 76.9327 318.171C74.6338 322.288 70.4464 329.947 59.8138 335.135C58.9106 335.588 58.0075 336 57.0222 336.371L56.9812 336.329Z" fill="#BC7171"/>
<path d="M82.6391 194.641C76.4812 194.147 70.118 191.759 68.2706 187.477C66.7927 184.018 67.4496 179.653 69.2559 175.824C72.3759 174.465 76.2349 174.218 80.0527 175.082C74.9212 181.177 72.458 192.459 82.598 194.641H82.6391Z" fill="#BC7171"/>
<path d="M83.2138 57.5237C86.5801 85.6884 92.1222 106.977 98.3622 119.782C94.5033 121.018 90.9727 122.665 87.7296 124.6C92.3275 122.418 83.3369 100.141 81.6127 61.1472C81.2432 52.9531 78.8212 35.7413 73.8127 22.8119C78.0412 31.8295 81.5717 43.5648 83.2138 57.5648V57.5237Z" fill="#BC7171"/>
<path d="M70.9801 200.447C74.8801 200.447 78.0412 202.135 78.0412 204.194C78.0412 206.253 74.8801 207.941 70.9801 207.941C67.0801 207.941 63.9191 206.253 63.9191 204.194C63.9191 202.135 67.0801 200.447 70.9801 200.447Z" fill="#BC7171"/>
<path d="M75.2085 131.312C66.3822 121.635 47.2927 106.524 37.6453 82.1883C23.4822 46.4471 42.4485 3.00591 54.559 2.42944H54.6411C62.6464 6.67062 68.2296 22.6471 69.8717 31.7471C71.0622 38.7471 71.9654 45.7471 72.4169 53.1177C72.7864 70.1647 67.7369 95.4059 71.4727 108.541C72.6222 112.618 76.9327 127.894 75.2496 131.229L75.1675 131.312H75.2085Z" fill="#BC7171"/>
<path d="M71.5138 108.582C67.778 95.406 72.8275 70.206 72.458 53.1589C73.0738 62.4648 73.1149 72.2648 72.458 83.3001C71.2264 104.506 79.1086 119.247 84.0759 127.071C81.4896 128.965 79.1085 131.065 76.9738 133.33L76.8096 133.165C76.317 132.588 75.8243 131.971 75.2085 131.353L75.2906 131.271C76.9738 127.935 72.6633 112.7 71.5138 108.582Z" fill="#BC7171"/>
<path d="M145.121 175.783C145.779 175.783 146.312 175.248 146.312 174.588C146.312 173.929 145.779 173.394 145.121 173.394C144.464 173.394 143.931 173.929 143.931 174.588C143.931 175.248 144.464 175.783 145.121 175.783Z" fill="#BC7171"/>
<path d="M84.1581 177.388C84.8156 177.388 85.3486 176.854 85.3486 176.194C85.3486 175.535 84.8156 175 84.1581 175C83.5005 175 82.9675 175.535 82.9675 176.194C82.9675 176.854 83.5005 177.388 84.1581 177.388Z" fill="#BC7171"/>
<path d="M115.563 234.294C113.223 234.294 110.842 234.13 108.502 233.965C79.1497 231.577 50.9876 217.535 54.2307 191.924C58.2949 159.518 70.6107 117.435 117.493 117.065C160.598 116.735 175.747 157.253 180.303 189.618C182.931 208.188 166.304 223.012 144.834 230.012" stroke="#3F2A25" stroke-width="0.5" stroke-linecap="round" stroke-linejoin="round"/>
<path d="M136.87 120.03C147.42 110.353 162.569 90.8354 176.034 66.3766C192.865 35.8648 215.157 22.2766 223.409 26.0648C234.452 31.1707 235.724 78.6883 209.081 106.524C192.989 123.365 172.421 130.735 159.695 136.171" stroke="#3F2A25" stroke-width="0.5" stroke-linecap="round" stroke-linejoin="round"/>
<path d="M151.895 128.429C159.654 122.253 170.533 111.424 176.321 94.3354C182.684 75.5589 189.622 61.0648 198.079 47.4766" stroke="#3F2A25" stroke-width="0.5" stroke-linecap="round" stroke-linejoin="round"/>
<path d="M98.2802 119.947C92.0402 107.141 86.457 85.7707 83.0907 57.5236C78.9854 22.8942 63.4265 1.89423 54.3538 2.30599C42.2023 2.84129 23.1949 46.406 37.3991 82.2295C47.7033 108.212 68.5991 123.941 76.5223 133.577" stroke="#3F2A25" stroke-width="0.5" stroke-linecap="round" stroke-linejoin="round"/>
<path d="M69.7076 31.6648C72.4581 47.4766 73.4434 63.4942 72.2939 83.3001C71.0623 104.547 78.9854 119.329 83.9528 127.194" stroke="#3F2A25" stroke-width="0.5" stroke-linecap="round" stroke-linejoin="round"/>
<path d="M134.078 190.194C131.451 183.894 138.963 166.765 146.928 164.829C154.03 163.141 164.457 176.359 161.296 185.171C158.135 193.982 136.623 196.288 134.078 190.194Z" stroke="#3F2A25" stroke-width="0.5" stroke-linecap="round" stroke-linejoin="round"/>
<path d="M139.374 171.088C146.969 164.871 162.897 188.918 147.42 193.324" stroke="#3F2A25" stroke-width="0.5" stroke-linecap="round" stroke-linejoin="round"/>
<path d="M95.5707 191.059C97.7875 184.594 89.2076 168 81.1202 166.6C73.936 165.365 64.3707 179.241 68.0654 187.806C71.7602 196.412 93.3949 197.318 95.5707 191.059Z" stroke="#3F2A25" stroke-width="0.5" stroke-linecap="round" stroke-linejoin="round"/>
<path d="M89.1255 172.283C81.1612 166.559 66.7928 191.594 82.516 194.971" stroke="#3F2A25" stroke-width="0.5" stroke-linecap="round" stroke-linejoin="round"/>
<path d="M97.5412 163.059C98.7728 162.194 98.6086 157.418 95.4065 155.935C93.1896 154.906 90.2339 155.771 89.8644 157.13C89.2486 159.435 95.817 164.253 97.5412 163.059Z" stroke="#3F2A25" stroke-width="0.5" stroke-linecap="round" stroke-linejoin="round"/>
<path d="M131.245 145.312C130.548 144.447 132.025 141.071 134.981 140.165C137.239 139.465 139.949 140.33 140.072 141.359C140.318 143.212 132.313 146.712 131.204 145.312H131.245Z" stroke="#3F2A25" stroke-width="0.5" stroke-linecap="round" stroke-linejoin="round"/>
<path d="M113.675 199.665C117.041 199.459 119.176 197.359 118.437 195.465C117.862 194.065 109.816 195.135 109.077 196.083C108.256 197.112 111.089 199.788 113.675 199.624V199.665Z" stroke="#3F2A25" stroke-width="0.5" stroke-linecap="round" stroke-linejoin="round"/>
<path d="M113.757 207.818C114.126 204.977 114.044 200.735 113.757 199.665" stroke="#3F2A25" stroke-width="0.5" stroke-linecap="round" stroke-linejoin="round"/>
<path d="M54.7234 188.341C38.7539 181.877 17.6939 180.847 3.24335 184.43" stroke="#3F2A25" stroke-width="0.5" stroke-linecap="round" stroke-linejoin="round"/>
<path d="M13.7528 207.818C27.9981 202.794 42.4486 200.324 54.5181 201.312" stroke="#3F2A25" stroke-width="0.5" stroke-linecap="round" stroke-linejoin="round"/>
<path d="M179.77 186.859C195.739 180.394 216.799 179.365 231.25 182.947" stroke="#3F2A25" stroke-width="0.5" stroke-linecap="round" stroke-linejoin="round"/>
<path d="M220.74 206.335C206.495 201.312 192.044 198.841 179.975 199.829" stroke="#3F2A25" stroke-width="0.5" stroke-linecap="round" stroke-linejoin="round"/>
<path d="M113.88 221.324C116.624 221.324 118.848 218.3 118.848 214.571C118.848 210.841 116.624 207.818 113.88 207.818C111.137 207.818 108.913 210.841 108.913 214.571C108.913 218.3 111.137 221.324 113.88 221.324Z" stroke="#3F2A25" stroke-width="0.5" stroke-linecap="round" stroke-linejoin="round"/>
<path d="M116.877 209.177C117 209.671 117.123 210.247 117.123 210.865C117.123 213.377 115.687 215.394 113.88 215.394C112.074 215.394 110.637 213.377 110.637 210.865C110.637 210.288 110.719 209.712 110.883 209.177" stroke="#3F2A25" stroke-width="0.5" stroke-linecap="round" stroke-linejoin="round"/>
<path d="M113.429 207.859C113.223 210.329 114.085 213.253 113.88 215.394" stroke="#3F2A25" stroke-width="0.5" stroke-linecap="round" stroke-linejoin="round"/>
<path d="M162.569 306.353C164.703 316.153 166.879 329.33 165.237 345.306C162.076 375.571 157.848 412.012 151.854 414.688C145.778 417.365 141.509 418.435 135.597 415.059C131.451 412.671 134.119 368.488 129.316 365.977C124.964 363.712 117.985 364.782 115.03 365.647C108.872 367.459 114.906 413.7 110.226 416.212C104.479 419.341 98.4033 417.9 94.2981 416.047C89.3717 413.824 89.4949 408.018 76.5633 346.665C71.5138 322.7 84.897 286.177 90.398 267.812" stroke="#3F2A25" stroke-width="0.5" stroke-linecap="round" stroke-linejoin="round"/>
<path d="M108.502 233.924C109.323 238.412 109.693 243.971 107.065 245.741C103.658 248.047 99.3065 249.365 94.3391 252.082C93.8876 252.329 93.0665 252.988 92.3686 254.018" stroke="#3F2A25" stroke-width="0.5" stroke-linecap="round" stroke-linejoin="round"/>
<path d="M92.5739 253.771C80.9149 266.741 64.0012 292.271 43.3518 303.471C21.4707 315.371 17.1602 326.818 19.2128 332.665C21.8402 340.118 42.2844 342.835 56.776 336.988C69.5434 331.841 74.2644 323.194 76.7686 318.747" stroke="#3F2A25" stroke-width="0.5" stroke-linecap="round" stroke-linejoin="round"/>
<path d="M18.8433 328.506C24.3444 324.8 27.3823 322.988 33.7454 321.053" stroke="#3F2A25" stroke-width="0.5" stroke-linecap="round" stroke-linejoin="round"/>
<path d="M28.0391 338.759C34.2791 336.577 36.7012 335.259 41.217 331.677" stroke="#3F2A25" stroke-width="0.5" stroke-linecap="round" stroke-linejoin="round"/>
<path d="M170.41 305.571C162.158 313.847 124.472 283.624 119.504 266.288C114.085 247.512 113.141 220.871 122.748 216.135C129.193 212.924 137.691 220.006 143.356 227.624C149.842 236.271 144.834 245.124 149.309 256.818C157.15 277.282 181.33 294.577 170.369 305.571H170.41Z" stroke="#3F2A25" stroke-width="0.5" stroke-linecap="round" stroke-linejoin="round"/>
<path d="M121.844 216.671C129.521 225.071 134.53 232.729 135.556 243.6" stroke="#3F2A25" stroke-width="0.5" stroke-linecap="round" stroke-linejoin="round"/>
<path d="M135.104 219.059C139.21 224.865 142.945 232.565 143.028 238.782" stroke="#3F2A25" stroke-width="0.5" stroke-linecap="round" stroke-linejoin="round"/>
<path d="M95.5707 155.894C97.9518 157.006 98.6086 160.012 98.2391 161.7C98.1981 161.906 98.116 162.071 98.0749 162.235C97.9928 162.4 97.9107 162.524 97.8286 162.647C97.8286 162.688 97.7465 162.73 97.6644 162.771C97.377 162.977 97.0076 163.018 96.5149 162.935C96.3918 162.935 96.2276 162.853 96.0634 162.853C96.0634 162.853 96.0633 162.853 95.9812 162.853C93.5181 162.071 89.7002 158.859 90.1928 157.088C90.5623 155.771 93.436 154.906 95.5707 155.935V155.894Z" fill="#EAB5A7"/>
<path d="M229.279 36.7708C233.097 53.4884 228.869 85.5237 208.876 106.4C192.824 123.2 172.298 130.571 159.613 135.965C157.273 133.165 154.687 130.571 151.854 128.265C152.88 127.441 153.948 126.535 155.056 125.547C156.205 124.559 157.355 123.447 158.545 122.294C166.387 126.083 170.984 128.471 189.417 116.53C204.155 106.935 232.974 56.9472 229.156 36.7708H229.279Z" fill="#EAA0A0"/>
<path d="M229.156 36.8119C233.015 56.9884 204.196 106.977 189.417 116.571C171.025 128.512 166.386 126.124 158.545 122.335C164.991 115.912 171.97 106.771 176.198 94.2943C182.561 75.559 189.458 61.1061 197.915 47.559C202.841 38.8296 216.84 27.3825 224.476 27.5472L224.722 27.3002C226.693 29.1119 228.253 32.4472 229.238 36.8531H229.115L229.156 36.8119Z" fill="#FCB9B9"/>
<path d="M158.586 122.294C157.396 123.488 156.246 124.559 155.097 125.547L154.728 125.094C144.546 119.783 158.627 97.0531 164.744 84.9884C168.521 79.1825 172.257 72.9237 175.911 66.3355C192.701 35.9061 214.952 22.3178 223.162 26.1061C223.737 26.3531 224.271 26.7237 224.763 27.2178L224.517 27.4649C216.881 27.3002 202.841 38.7472 197.956 47.4767C189.499 61.0649 182.602 75.4767 176.239 94.2119C172.011 106.688 165.032 115.83 158.586 122.253V122.294Z" fill="#B27967"/>
<path d="M179.811 186.488C179.934 187.394 180.098 188.3 180.221 189.206C182.808 207.735 166.263 222.518 144.834 229.518C144.423 228.735 143.931 227.953 143.356 227.171C143.274 227.047 143.151 226.924 143.069 226.8C154.194 222.024 163.841 214.488 169.342 203.741C169.794 202.877 170.204 201.971 170.574 201.024C171.436 200.283 171.888 199.418 171.764 198.553C171.764 198.388 171.682 198.224 171.641 198.059C177.512 179.118 170.984 151.324 159.613 136.294L159.777 136.171C171.231 150.006 177.06 169.194 179.77 186.488H179.811Z" fill="#935D51"/>
<path d="M171.805 198.594C171.888 199.459 171.436 200.324 170.615 201.065C171.231 199.83 171.559 198.594 171.682 198.1C171.764 198.265 171.764 198.43 171.805 198.594Z" fill="#D17E75"/>
<path d="M116.466 194.518C113.88 194.394 109.652 195.135 109.118 195.794C108.338 196.741 110.678 199.088 113.059 199.335C113.264 199.335 113.47 199.335 113.675 199.335C117.041 199.13 119.176 197.03 118.437 195.177C118.273 194.765 117.493 194.559 116.425 194.518H116.466ZM113.47 207.53C112.525 207.612 111.663 208.106 110.924 208.847C109.734 210.083 108.954 212.018 108.954 214.2C108.954 217.906 111.171 220.912 113.921 220.912C116.672 220.912 118.889 217.906 118.889 214.2C118.889 212.018 118.109 210.083 116.918 208.847C116.097 207.983 115.03 207.488 113.921 207.488C113.757 207.488 113.634 207.488 113.47 207.488V207.53ZM95.5707 191.059C95.5707 191.059 95.6528 190.853 95.6938 190.771C97.1717 186.53 93.9286 177.841 89.2075 172.035C86.7854 169.03 83.9939 166.806 81.2844 166.353C77.0149 165.612 71.9244 170.224 69.256 175.865C67.4496 179.694 66.7517 184.059 68.2707 187.518C70.118 191.8 76.4402 194.188 82.5981 194.682C88.5096 195.177 94.2159 193.941 95.5296 191.059H95.5707ZM159.654 136.377C171.025 151.406 177.553 179.2 171.682 198.1C170.984 196.371 167.905 195.341 164.416 195.753C160.557 196.206 157.642 198.265 157.889 200.324C158.135 202.383 161.46 203.659 165.319 203.206C167.536 202.918 169.465 202.135 170.615 201.106C170.245 202.053 169.835 202.918 169.383 203.824C163.882 214.571 154.235 222.065 143.11 226.882C140.77 223.835 138.06 220.912 135.186 218.73C131.04 215.559 126.606 213.953 122.871 215.806C122.542 215.971 122.255 216.135 121.968 216.341C118.068 219.018 116.138 225.73 115.686 233.924C113.346 233.924 111.006 233.759 108.666 233.594C79.3549 231.247 51.3159 217.206 54.518 191.635C54.6823 190.483 54.8054 189.288 54.9696 188.094C57.6791 169.194 63.3444 147.741 77.0149 133.371C79.1907 131.106 81.5307 129.006 84.117 127.112C85.2665 126.247 86.498 125.465 87.7707 124.682C91.0138 122.747 94.5444 121.1 98.4444 119.865C104.11 118.053 110.473 116.983 117.616 116.941C124.8 116.9 131.204 117.971 136.911 119.988C142.576 121.965 147.543 124.847 151.936 128.388C154.769 130.694 157.355 133.288 159.695 136.088C159.736 136.171 159.818 136.212 159.859 136.294L159.695 136.418L159.654 136.377ZM161.296 184.924C162.528 181.506 161.706 177.43 159.818 173.806C156.862 168.124 151.279 163.594 146.969 164.624C144.259 165.283 141.632 167.671 139.415 170.8C135.31 176.647 132.682 184.965 133.955 189.33C134.037 189.535 134.078 189.741 134.16 189.906C135.433 192.953 141.385 193.9 147.461 192.994C153.578 192.088 159.736 189.288 161.337 184.883L161.296 184.924ZM131.286 145.147C132.395 146.547 140.359 143.088 140.113 141.235C139.99 140.206 137.239 139.341 135.022 140.041C132.066 140.947 130.589 144.324 131.286 145.188V145.147ZM125.129 185.212C125.129 182.494 102.098 185.13 101.852 187.806C101.688 189.824 107.722 190.771 112.443 190.771C118.068 190.771 125.129 187.353 125.129 185.212ZM98.2802 161.783C98.6907 160.053 98.0338 156.924 95.5707 155.771C93.3538 154.741 90.398 155.606 90.0286 156.965C89.5359 158.777 93.477 162.112 96.0223 162.894C96.0223 162.894 96.0633 162.894 96.1044 162.894C96.2686 162.894 96.3917 162.977 96.5559 162.977C97.0486 163.059 97.4181 162.977 97.7054 162.812C97.7465 162.812 97.8286 162.73 97.8696 162.688C97.9517 162.606 98.0749 162.441 98.1159 162.277C98.1981 162.112 98.2391 161.947 98.2802 161.741V161.783ZM78.0412 204.277C78.0412 202.218 74.8802 200.53 71.0212 200.53C67.1623 200.53 63.9602 202.218 63.9602 204.277C63.9602 206.335 67.1212 208.024 71.0212 208.024C74.9212 208.024 78.0412 206.335 78.0412 204.277Z" fill="#B27967"/>
<path d="M171.641 198.018C171.354 199.047 170.984 200.035 170.574 201.024C169.424 202.053 167.495 202.835 165.278 203.124C161.419 203.577 158.094 202.3 157.848 200.241C157.601 198.182 160.516 196.124 164.375 195.671C167.864 195.218 170.943 196.288 171.641 198.018Z" fill="#E08F82"/>
<path d="M142.001 249.53C142.001 249.53 141.673 249.447 141.468 249.447C141.468 249.447 141.468 249.447 141.385 249.447C133.339 248.541 125.991 250.23 124.923 247.306C123.24 242.818 128.946 240.841 134.899 238.824C137.732 237.877 140.605 236.847 142.781 235.612C144.3 234.706 145.491 233.677 146.024 232.4C148.2 239.441 145.737 246.977 149.309 256.324C157.15 276.747 181.248 294 170.328 304.953C169.26 306.024 167.7 306.435 165.771 306.353C173.858 300.712 165.114 287.165 159.408 280.453C155.22 275.553 150.869 268.882 148.159 262.788C145.162 256.159 143.725 250.271 142.001 249.571V249.53Z" fill="#935D51"/>
<path d="M141.468 249.488C141.468 249.488 141.796 249.488 142.001 249.53C143.766 250.271 145.203 256.118 148.159 262.788C150.869 268.883 155.22 275.553 159.408 280.453C165.073 287.165 173.817 300.712 165.771 306.353C164.785 306.271 163.677 306.106 162.528 305.735C160.598 305.2 158.422 304.294 156.123 303.1C142.001 295.771 122.994 277.694 119.545 265.794C117.205 257.724 115.728 248.253 115.522 239.688C115.522 237.671 115.522 235.735 115.604 233.883C116.056 225.688 117.985 218.977 121.885 216.3C128.454 223.547 133.093 230.218 134.899 238.865C128.946 240.883 123.24 242.859 124.923 247.347C126.032 250.271 133.38 248.583 141.385 249.488C141.385 249.488 141.385 249.488 141.468 249.488Z" fill="#B27967"/>
<path d="M162.487 305.735C164.621 315.494 166.797 328.63 165.155 344.565C161.994 374.788 157.807 411.147 151.813 413.741C149.062 414.935 146.681 415.841 144.341 416.13C154.358 413.165 158.299 372.235 158.833 367.294C161.83 339.418 159.325 311.541 156.123 303.059C158.422 304.253 160.557 305.159 162.528 305.694L162.487 305.735Z" fill="#935D51"/>
<path d="M159.777 173.765C161.665 177.388 162.487 181.465 161.255 184.883C159.654 189.288 153.496 192.088 147.379 192.994C157.396 190.153 154.235 179.036 148.652 173.271C152.511 172.241 156.534 172.365 159.736 173.806L159.777 173.765Z" fill="white"/>
<path d="M92.656 253.318C93.3128 252.412 94.0518 251.835 94.4623 251.63C99.4297 248.912 103.74 247.635 107.148 245.33C108.666 244.3 109.159 241.912 109.159 239.235C111.335 240.347 113.47 240.224 115.481 239.688C115.686 248.253 117.164 257.765 119.504 265.794C122.912 277.735 141.96 295.812 156.082 303.1C159.325 311.583 161.789 339.418 158.792 367.335C158.258 372.318 154.358 413.206 144.3 416.171C141.509 416.541 138.758 416.006 135.515 414.153C131.369 411.765 134.037 367.665 129.234 365.194C124.882 362.93 117.944 364 114.989 364.865C104.808 364 109.2 386.4 107.804 403.324C107.353 408.635 108.625 414.112 98.4033 416.541C96.9254 416.171 95.5297 415.677 94.3391 415.141C89.4128 412.959 89.536 407.153 76.6454 345.924C74.9212 337.73 75.3318 328.012 76.8918 318.088C79.8476 299.106 86.8675 279.3 90.4391 267.235C86.7854 272.053 78.8623 304.583 63.3854 322.494C63.1802 319.241 62.1539 315.988 60.0191 313.518C51.6854 303.841 39.4928 306.435 33.9507 308.988L33.8686 308.865C36.6191 306.888 39.8623 304.871 43.557 302.853C64.1244 291.653 81.0381 266.206 92.656 253.277V253.318ZM152.223 385.288C152.223 383.147 149.309 381.418 145.696 381.418C142.083 381.418 139.169 383.147 139.169 385.288C139.169 387.43 142.083 389.159 145.696 389.159C149.309 389.159 152.223 387.43 152.223 385.288ZM105.013 385.288C105.013 382.941 102.18 381.047 98.7318 381.047C95.2833 381.047 92.4507 382.941 92.4507 385.288C92.4507 387.635 95.2423 389.53 98.7318 389.53C102.221 389.53 105.013 387.635 105.013 385.288Z" fill="#B27967"/>
<path d="M136.87 119.865C144.546 112.824 154.645 100.594 164.785 85.0295C158.628 97.0942 144.546 119.824 154.769 125.135L155.138 125.588C154.03 126.577 152.962 127.482 151.936 128.306C147.584 124.765 142.617 121.882 136.911 119.906L136.87 119.865Z" fill="#935D51"/>
<path d="M159.736 173.765C156.493 172.365 152.511 172.2 148.652 173.23C145.655 170.141 142.001 168.618 139.333 170.759C141.55 167.63 144.218 165.2 146.886 164.582C151.197 163.553 156.78 168.082 159.736 173.765Z" fill="#EAD0D0"/>
<path d="M145.696 389.118C149.301 389.118 152.223 387.385 152.223 385.247C152.223 383.11 149.301 381.377 145.696 381.377C142.091 381.377 139.169 383.11 139.169 385.247C139.169 387.385 142.091 389.118 145.696 389.118Z" fill="#935D51"/>
<path d="M148.652 173.23C154.194 178.994 157.396 190.112 147.379 192.953C141.303 193.859 135.351 192.912 134.078 189.865C133.996 189.7 133.955 189.494 133.873 189.288C135.351 180.518 141.837 175.041 148.652 173.23Z" fill="#7F4D40"/>
<path d="M146.024 232.4C145.45 233.718 144.3 234.747 142.781 235.612C141.878 229.971 138.635 223.63 135.145 218.647C138.019 220.83 140.77 223.753 143.069 226.8C143.151 226.924 143.274 227.047 143.356 227.171C143.931 227.953 144.423 228.735 144.834 229.518C145.327 230.465 145.737 231.412 146.024 232.4Z" fill="#B27967"/>
<path d="M139.333 170.8C142.001 168.618 145.655 170.183 148.652 173.271C141.837 175.083 135.351 180.559 133.873 189.33C132.559 185.006 135.228 176.647 139.333 170.8Z" fill="#6B3D34"/>
<path d="M135.145 218.647C138.676 223.63 141.878 229.971 142.781 235.612C140.605 236.888 137.732 237.877 134.899 238.824C133.093 230.177 128.454 223.465 121.885 216.259C122.173 216.053 122.501 215.847 122.789 215.724C126.524 213.871 130.958 215.477 135.104 218.647H135.145Z" fill="#B27967"/>
<path d="M140.072 141.153C140.318 143.006 132.313 146.465 131.245 145.065C130.548 144.2 132.025 140.824 134.981 139.918C137.239 139.218 139.949 140.083 140.072 141.112V141.153Z" fill="#EAB5A7"/>
<path d="M101.811 187.724C102.057 185.047 125.088 182.412 125.088 185.13C125.088 187.312 118.026 190.688 112.402 190.688C107.681 190.688 101.647 189.741 101.811 187.724Z" fill="#935D51"/>
<path d="M118.478 195.135C119.217 196.988 117.082 199.088 113.716 199.294C113.511 199.294 113.305 199.294 113.1 199.294C116.261 199.13 117.041 195.588 116.508 194.477C117.575 194.518 118.314 194.724 118.519 195.135H118.478Z" fill="#EAA0A0"/>
<path d="M116.918 208.847C118.109 210.082 118.889 212.018 118.889 214.2C118.889 217.906 116.672 220.912 113.921 220.912C111.171 220.912 108.954 217.906 108.954 214.2C108.954 212.018 109.734 210.082 110.924 208.847C110.76 209.341 110.678 209.918 110.678 210.494C110.678 213.006 112.115 215.024 113.88 215.024C115.645 215.024 117.082 213.006 117.082 210.494C117.082 209.918 117 209.341 116.836 208.847H116.918Z" fill="#472B28"/>
<path d="M116.918 208.847C117.041 209.341 117.164 209.918 117.164 210.494C117.164 213.006 115.728 215.024 113.962 215.024C114.168 212.882 113.305 210 113.511 207.53C113.675 207.53 113.798 207.53 113.962 207.53C115.071 207.53 116.138 208.024 116.959 208.888L116.918 208.847Z" fill="#EAD0D0"/>
<path d="M116.466 194.518C117.041 195.63 116.22 199.171 113.059 199.335C110.678 199.088 108.338 196.741 109.118 195.794C109.652 195.135 113.88 194.394 116.466 194.518Z" fill="#FCB9B9"/>
<path d="M115.604 233.841C115.522 235.694 115.481 237.63 115.522 239.647C113.511 240.183 111.376 240.265 109.2 239.194C109.2 237.341 108.954 235.324 108.584 233.512C110.924 233.718 113.264 233.8 115.604 233.841Z" fill="#935D51"/>
<path d="M107.886 403.365C109.323 386.4 104.89 364 115.071 364.906C108.954 366.718 114.948 412.835 110.268 415.347C106.203 417.53 102.016 417.488 98.4444 416.582C108.667 414.153 107.394 408.677 107.845 403.365H107.886Z" fill="#935D51"/>
<path d="M113.47 207.488C113.264 209.959 114.126 212.841 113.921 214.983C112.115 214.983 110.719 212.965 110.719 210.453C110.719 209.877 110.801 209.3 110.965 208.806C111.663 208.065 112.566 207.571 113.511 207.488H113.47Z" fill="white"/>
<path d="M98.7728 381.006C102.221 381.006 105.054 382.9 105.054 385.247C105.054 387.594 102.221 389.488 98.7728 389.488C95.3244 389.488 92.4918 387.594 92.4918 385.247C92.4918 382.9 95.2833 381.006 98.7728 381.006Z" fill="#935D51"/>
<path d="M89.2076 171.994C93.8876 177.8 97.1307 186.488 95.6939 190.73C95.6939 190.812 95.6118 190.935 95.5707 191.018C94.0518 182.041 87.1549 176.688 80.0939 175.083C82.8855 171.788 86.457 169.977 89.2486 171.994H89.2076Z" fill="#6B3D34"/>
<path d="M19.1307 327.847C19.7054 322.906 23.7286 316.153 33.8686 308.906L33.9507 309.03C39.4928 306.435 51.6854 303.882 60.0191 313.559C62.1539 316.071 63.1802 319.282 63.3854 322.535C78.8623 304.624 86.7854 272.053 90.4391 267.277C86.8265 279.341 79.8476 299.147 76.8918 318.13C74.5928 322.247 70.3644 329.906 59.7318 335.094C58.8286 335.547 57.9254 335.959 56.9402 336.33C47.7444 340.035 36.1675 340.282 28.2444 338.1C25.0012 337.194 22.3739 335.835 20.7728 334.147C20.157 333.488 19.7054 332.788 19.4591 332.006C19.0486 330.853 18.8844 329.453 19.0896 327.847H19.1307Z" fill="#935D51"/>
<path d="M83.2138 57.5236C86.5801 85.6883 92.1223 107.018 98.3623 119.782C94.4623 121.059 90.9317 122.665 87.6886 124.6C92.2865 122.418 83.296 100.141 81.5718 61.1471C81.2023 53.0354 78.8212 35.9883 73.8949 23.1001C78.0412 32.0766 81.5307 43.7295 83.1728 57.5236H83.2138Z" fill="#935D51"/>
<path d="M72.417 53.0766C71.9244 45.706 71.0623 38.706 69.8718 31.7472C68.2297 22.606 62.6054 6.62957 54.6412 2.42957C60.0602 2.26486 67.737 9.67663 73.936 23.059C78.8623 35.9884 81.2433 53.0355 81.6128 61.1884C83.337 100.183 92.3276 122.5 87.7297 124.641C86.457 125.424 85.2665 126.206 84.076 127.071C79.1086 119.247 71.2265 104.506 72.4581 83.3002C73.0739 72.2649 73.0739 62.4237 72.4581 53.1178L72.417 53.0766Z" fill="#B27967"/>
<path d="M89.2076 171.994C86.416 169.977 82.8444 171.788 80.0528 175.082C76.2349 174.218 72.376 174.465 69.256 175.824C71.9244 170.182 77.0149 165.571 81.2844 166.312C83.9939 166.765 86.7855 169.03 89.2076 171.994Z" fill="#EAD0D0"/>
<path d="M95.5707 191.018C94.257 193.9 88.5507 195.135 82.6391 194.641C72.4991 192.418 74.9623 181.177 80.1349 175.083C87.237 176.688 94.0928 182.041 95.6118 191.018H95.5707Z" fill="#7F4D40"/>
<path d="M84.076 127.03C81.4897 128.924 79.1086 131.024 76.9739 133.288L76.7686 133.124C76.276 132.547 75.7833 131.93 75.2086 131.312L75.2907 131.23C76.9328 127.894 72.6633 112.659 71.5139 108.541C67.7781 95.3649 72.8276 70.1237 72.4581 53.0767C73.0739 62.3825 73.1149 72.2237 72.4581 83.259C71.2265 104.465 79.1086 119.206 84.076 127.03Z" fill="#EAA0A0"/>
<path d="M70.9802 200.447C74.8802 200.447 78.0002 202.135 78.0002 204.194C78.0002 206.253 74.8391 207.941 70.9802 207.941C67.1212 207.941 63.9191 206.253 63.9191 204.194C63.9191 202.135 67.0802 200.447 70.9802 200.447Z" fill="#E08F82"/>
<path d="M69.256 175.824C72.376 174.465 76.2349 174.218 80.0528 175.083C74.8802 181.177 72.417 192.418 82.557 194.641C76.3992 194.147 70.0771 191.759 68.2297 187.477C66.7518 184.018 67.4086 179.694 69.2149 175.824H69.256Z" fill="white"/>
<path d="M71.5138 108.541C72.6633 112.659 76.9738 127.894 75.2907 131.23L75.2086 131.312C66.3823 121.635 47.2928 106.524 37.6454 82.1884C23.4823 46.4472 42.4486 3.00604 54.5591 2.42957H54.6412C62.6465 6.62957 68.2296 22.606 69.8717 31.7472C71.0622 38.706 71.9654 45.706 72.417 53.0766C72.7865 70.1237 67.737 95.406 71.4728 108.541H71.5138Z" fill="#FCB9B9"/>
<path d="M145.121 175.783C145.779 175.783 146.312 175.248 146.312 174.588C146.312 173.929 145.779 173.394 145.121 173.394C144.464 173.394 143.931 173.929 143.931 174.588C143.931 175.248 144.464 175.783 145.121 175.783Z" fill="white"/>
<path d="M84.1581 177.388C84.8156 177.388 85.3486 176.854 85.3486 176.194C85.3486 175.535 84.8156 175 84.1581 175C83.5005 175 82.9675 175.535 82.9675 176.194C82.9675 176.854 83.5005 177.388 84.1581 177.388Z" fill="white"/>
<path d="M115.563 234.253C113.223 234.253 110.842 234.088 108.502 233.924C79.1497 231.535 50.9876 217.494 54.2307 191.883C58.2949 159.477 70.6107 117.394 117.493 117.024C160.598 116.694 175.747 157.212 180.303 189.577C182.931 208.147 166.304 222.971 144.834 229.971" stroke="#3F2A25" stroke-width="0.5" stroke-linecap="round" stroke-linejoin="round"/>
<path d="M136.87 120.03C147.42 110.353 162.569 90.8354 176.034 66.3766C192.865 35.8648 215.157 22.2766 223.409 26.0648C234.452 31.1707 235.724 78.6883 209.081 106.524C192.989 123.365 172.421 130.735 159.695 136.171" stroke="#3F2A25" stroke-width="0.5" stroke-linecap="round" stroke-linejoin="round"/>
<path d="M151.895 128.43C159.654 122.253 170.533 111.424 176.321 94.3355C182.684 75.559 189.622 61.0649 198.079 47.4767" stroke="#3F2A25" stroke-width="0.5" stroke-linecap="round" stroke-linejoin="round"/>
<path d="M98.2802 119.906C92.0402 107.1 86.457 85.7296 83.0907 57.4825C78.9854 22.8531 63.4265 1.85309 54.3538 2.26486C42.2023 2.80015 23.1949 46.3649 37.3991 82.1884C47.7033 108.171 68.5991 123.9 76.5223 133.535" stroke="#3F2A25" stroke-width="0.5" stroke-linecap="round" stroke-linejoin="round"/>
<path d="M69.7076 31.6649C72.4581 47.4767 73.4434 63.4943 72.2939 83.3002C71.0623 104.547 78.9854 119.33 83.9528 127.194" stroke="#3F2A25" stroke-width="0.5" stroke-linecap="round" stroke-linejoin="round"/>
<path d="M134.078 190.194C131.451 183.894 138.963 166.765 146.928 164.83C154.03 163.141 164.457 176.359 161.296 185.171C158.135 193.983 136.623 196.288 134.078 190.194Z" stroke="#3F2A25" stroke-width="0.5" stroke-linecap="round" stroke-linejoin="round"/>
<path d="M139.374 171.047C146.969 164.83 162.897 188.877 147.42 193.282" stroke="#3F2A25" stroke-width="0.5" stroke-linecap="round" stroke-linejoin="round"/>
<path d="M95.5707 191.018C97.7875 184.553 89.2076 167.959 81.1202 166.559C73.936 165.324 64.3707 179.2 68.0654 187.765C71.7602 196.371 93.3949 197.277 95.5707 191.018Z" stroke="#3F2A25" stroke-width="0.5" stroke-linecap="round" stroke-linejoin="round"/>
<path d="M89.1255 172.241C81.1612 166.518 66.7928 191.553 82.516 194.93" stroke="#3F2A25" stroke-width="0.5" stroke-linecap="round" stroke-linejoin="round"/>
<path d="M97.5412 163.018C98.7728 162.153 98.6086 157.377 95.4065 155.894C93.1896 154.865 90.2339 155.73 89.8644 157.088C89.2486 159.394 95.817 164.212 97.5412 163.018Z" stroke="#3F2A25" stroke-width="0.5" stroke-linecap="round" stroke-linejoin="round"/>
<path d="M131.245 145.312C130.548 144.447 132.025 141.071 134.981 140.165C137.239 139.465 139.949 140.33 140.072 141.359C140.318 143.212 132.313 146.712 131.204 145.312H131.245Z" stroke="#3F2A25" stroke-width="0.5" stroke-linecap="round" stroke-linejoin="round"/>
<path d="M113.675 199.665C117.041 199.459 119.176 197.359 118.437 195.465C117.862 194.065 109.816 195.135 109.077 196.083C108.256 197.112 111.089 199.788 113.675 199.624V199.665Z" stroke="#3F2A25" stroke-width="0.5" stroke-linecap="round" stroke-linejoin="round"/>
<path d="M113.757 207.777C114.126 204.935 114.044 200.694 113.757 199.624" stroke="#3F2A25" stroke-width="0.5" stroke-linecap="round" stroke-linejoin="round"/>
<path d="M54.7234 188.3C38.7539 181.836 17.6939 180.806 3.24335 184.388" stroke="#3F2A25" stroke-width="0.5" stroke-linecap="round" stroke-linejoin="round"/>
<path d="M13.7528 207.777C27.9981 202.753 42.4486 200.283 54.5181 201.271" stroke="#3F2A25" stroke-width="0.5" stroke-linecap="round" stroke-linejoin="round"/>
<path d="M179.77 186.818C195.739 180.353 216.799 179.324 231.25 182.906" stroke="#3F2A25" stroke-width="0.5" stroke-linecap="round" stroke-linejoin="round"/>
<path d="M220.74 206.335C206.495 201.312 192.044 198.841 179.975 199.83" stroke="#3F2A25" stroke-width="0.5" stroke-linecap="round" stroke-linejoin="round"/>
<path d="M113.88 221.282C116.624 221.282 118.848 218.259 118.848 214.53C118.848 210.8 116.624 207.777 113.88 207.777C111.137 207.777 108.913 210.8 108.913 214.53C108.913 218.259 111.137 221.282 113.88 221.282Z" stroke="#3F2A25" stroke-width="0.5" stroke-linecap="round" stroke-linejoin="round"/>
<path d="M116.877 209.177C117 209.671 117.123 210.247 117.123 210.865C117.123 213.377 115.687 215.394 113.88 215.394C112.074 215.394 110.637 213.377 110.637 210.865C110.637 210.288 110.719 209.712 110.883 209.177" stroke="#3F2A25" stroke-width="0.5" stroke-linecap="round" stroke-linejoin="round"/>
<path d="M113.429 207.818C113.223 210.288 114.085 213.212 113.88 215.353" stroke="#3F2A25" stroke-width="0.5" stroke-linecap="round" stroke-linejoin="round"/>
<path d="M162.569 306.312C164.703 316.112 166.879 329.288 165.237 345.265C162.076 375.53 157.848 411.971 151.854 414.647C145.778 417.324 141.509 418.394 135.597 415.018C131.451 412.63 134.119 368.447 129.316 365.935C124.964 363.671 117.985 364.741 115.03 365.606C108.872 367.418 114.906 413.659 110.226 416.171C104.479 419.3 98.4033 417.859 94.2981 416.006C89.3717 413.783 89.4949 407.977 76.5633 346.624C71.5138 322.659 84.897 286.135 90.398 267.771" stroke="#3F2A25" stroke-width="0.5" stroke-linecap="round" stroke-linejoin="round"/>
<path d="M108.502 233.924C109.323 238.412 109.693 243.971 107.065 245.741C103.658 248.047 99.3065 249.365 94.3391 252.083C93.8876 252.33 93.0665 252.988 92.3686 254.018" stroke="#3F2A25" stroke-width="0.5" stroke-linecap="round" stroke-linejoin="round"/>
<path d="M92.5739 253.771C80.9149 266.741 64.0012 292.271 43.3518 303.471C21.4707 315.371 17.1602 326.818 19.2128 332.665C21.8402 340.118 42.2844 342.835 56.776 336.988C69.5434 331.841 74.2644 323.194 76.7686 318.747" stroke="#3F2A25" stroke-width="0.5" stroke-linecap="round" stroke-linejoin="round"/>
<path d="M18.8433 328.465C24.3444 324.759 27.3823 322.947 33.7454 321.012" stroke="#3F2A25" stroke-width="0.5" stroke-linecap="round" stroke-linejoin="round"/>
<path d="M28.0391 338.718C34.2791 336.536 36.7012 335.218 41.217 331.635" stroke="#3F2A25" stroke-width="0.5" stroke-linecap="round" stroke-linejoin="round"/>
<path d="M170.41 305.53C162.158 313.806 124.472 283.582 119.504 266.247C114.085 247.471 113.141 220.83 122.748 216.094C129.193 212.882 137.691 219.965 143.356 227.582C149.842 236.229 144.834 245.082 149.309 256.777C157.15 277.241 181.33 294.535 170.369 305.53H170.41Z" stroke="#3F2A25" stroke-width="0.5" stroke-linecap="round" stroke-linejoin="round"/>
<path d="M121.844 216.63C129.521 225.03 134.53 232.688 135.556 243.559" stroke="#3F2A25" stroke-width="0.5" stroke-linecap="round" stroke-linejoin="round"/>
<path d="M135.104 219.018C139.21 224.824 142.945 232.524 143.028 238.741" stroke="#3F2A25" stroke-width="0.5" stroke-linecap="round" stroke-linejoin="round"/>
</svg>
