<svg width="162" height="167" viewBox="0 0 162 167" fill="none" xmlns="http://www.w3.org/2000/svg">
<path d="M120.811 157.091C119.606 157.348 119.403 158.534 118.929 159.357C118.415 160.274 117.995 161.056 116.709 160.841C116.601 161.704 116.533 162.378 116.438 163.066C116.316 164.05 116.181 164.145 115.233 164.091C114.651 164.05 114.069 164.091 113.338 164.091C112.959 163.551 112.553 162.675 111.443 163.241C111.307 163.309 110.942 162.958 110.563 162.742C110.211 163.969 109.886 165.062 109.561 166.181C108.64 166.019 108.572 165.48 108.654 164.94C108.789 164.104 108.654 163.403 108.193 162.648C107.896 162.149 107.868 161.407 107.909 160.773C108.193 156.323 108.518 151.872 108.83 147.422C108.87 146.828 108.789 146.235 108.884 145.655C109.033 144.711 109.263 143.78 109.466 142.85C109.466 143.308 109.466 143.767 109.466 144.239C109.574 144.239 109.683 144.212 109.791 144.199C109.683 143.753 109.561 143.308 109.452 142.877C109.479 142.391 109.601 141.892 109.507 141.434C108.938 138.615 109.006 135.783 109.209 132.937C109.29 131.697 108.83 131.279 107.611 131.252C106.988 131.238 106.352 131.117 105.729 131.063C105.364 131.036 104.931 130.928 104.619 131.063C103.306 131.683 101.993 131.481 100.653 131.238L100.666 131.252C100.152 130.469 99.6373 129.674 99.1228 128.892C99.732 127.556 99.9622 126.006 101.316 125.115H101.289C101.411 125.102 101.533 125.102 101.654 125.102L101.627 125.129C101.627 125.008 101.627 124.886 101.627 124.765V124.792C101.627 124.67 101.627 124.562 101.627 124.441C102.02 124.279 102.467 124.185 102.805 123.942C104.484 122.688 106.163 121.407 107.801 120.099C108.261 119.734 108.992 119.478 108.884 118.48C108.139 118.75 107.476 118.993 106.812 119.249L106.84 119.276C107.124 119.02 107.381 118.736 107.692 118.521C109.073 117.577 109.831 116.403 109.263 114.677C109.195 114.475 109.209 114.245 109.236 114.03C109.723 110.82 108.979 107.597 109.358 104.374C109.452 103.578 109.29 102.769 109.249 101.959C109.128 99.3971 109.764 96.9291 110.17 94.4341C110.387 93.0585 110.441 91.6559 110.684 90.2938C110.82 89.5251 110.969 88.6215 111.456 88.082C112.201 87.2729 113.162 86.5581 114.177 86.1266C114.759 85.8838 115.748 86.0726 116.316 86.4367C117.846 87.4212 119.511 87.9742 121.244 88.3922C121.61 88.4732 122.002 88.662 122.341 88.5945C123.844 88.3248 124.967 89.0126 125.942 89.9836C128.176 92.1684 130.504 94.2858 132.088 97.0505C132.264 97.3606 132.576 97.6034 132.968 98.008C133.713 97.5629 134.457 97.1583 135.161 96.6863C137.72 94.9735 140.184 93.1124 142.824 91.548C144.841 90.3478 146.953 89.2689 149.498 89.2958C151.028 89.3093 152.572 88.7968 154.115 88.5945C154.616 88.5271 155.171 88.6215 155.672 88.7564C156.66 89.0126 157.621 89.3363 158.596 89.633C158.962 89.7409 159.354 89.7813 159.679 89.9567C162.211 91.3457 162.644 92.7348 161.114 94.5285C160.911 94.7712 160.776 95.0815 160.559 95.3242C159.422 96.6728 158.285 98.0215 156.944 99.5994C157.08 98.8711 157.161 98.4126 157.256 97.954C157.229 97.7382 157.215 97.5359 157.202 97.3202C157.202 97.1853 157.202 97.037 157.202 96.9021C158.163 96.1738 158.664 95.1759 159.097 93.8407C158.027 94.8387 157.824 95.1894 157.215 96.9291C157.215 97.0505 157.215 97.1853 157.215 97.3067L157.283 97.9675C156.944 98.0619 156.606 98.1428 156.267 98.2372V98.2642C156.051 97.7113 155.821 97.7787 155.591 98.2642L155.618 98.2372C155.387 98.3586 155.171 98.4665 154.941 98.5879L154.968 98.5609C155.184 98.6823 155.401 98.7902 155.618 98.9115H155.591C155.523 99.5993 155.211 100.125 154.602 100.476V100.503C154.629 100.247 154.643 99.9904 154.67 99.5454C154.304 99.7072 153.993 99.7477 153.898 99.9096C152.802 101.703 151.231 103.227 150.73 105.371C150.636 105.601 150.527 105.844 150.432 106.073C150.216 106.396 149.999 106.707 149.769 107.03C149.661 107.206 149.566 107.381 149.458 107.57C149.498 107.583 149.552 107.61 149.593 107.624C149.647 107.421 149.688 107.219 149.742 107.017C149.959 106.693 150.189 106.383 150.405 106.059C150.5 105.83 150.608 105.587 150.717 105.358C151.109 105.102 151.488 104.846 151.881 104.589C151.962 104.643 152.044 104.697 152.125 104.751C151.434 105.978 150.784 107.233 150.04 108.446C148.212 111.454 146.141 114.34 144.882 117.658L144.895 117.644C144.895 118.399 144.895 119.168 144.882 119.923C144.774 120.152 144.679 120.395 144.57 120.624C144.34 120.503 144.097 120.382 143.866 120.247C143.812 120.314 143.758 120.382 143.704 120.463C143.988 120.813 144.286 121.177 144.57 121.528L144.598 121.609L144.557 121.542C144.557 121.231 144.557 120.921 144.557 120.611C144.665 120.382 144.76 120.139 144.868 119.91C145.356 120.193 145.843 120.476 146.385 120.786C146.087 121.542 145.816 122.202 145.545 122.863L145.518 122.836C145.816 123.012 145.965 123.645 146.493 123.16L146.506 123.173C146.493 122.931 146.466 122.701 146.452 122.459C146.561 122.418 146.669 122.364 146.777 122.324C147.089 122.836 147.454 123.308 147.711 123.848C148.158 124.792 148.74 125.587 149.715 126.046L149.701 126.032C149.783 126.275 149.769 126.666 149.945 126.761C150.879 127.3 151.231 128.217 151.475 129.148C152.125 131.656 153.397 133.774 155.103 135.702C155.956 136.66 156.606 137.793 157.31 138.871C157.486 139.155 157.513 139.532 157.635 139.923C156.822 140.166 156.403 139.721 155.956 139.357H155.929C156.43 139.263 156.741 139.033 156.403 138.507C156.01 137.873 155.563 137.253 154.968 136.39C154.805 137.294 154.711 137.847 154.616 138.399V138.372C153.817 138.372 153.018 138.372 152.22 138.332C150.933 138.278 149.647 138.184 148.564 138.116C147.765 138.615 147.129 139.074 146.452 139.451C145.139 140.166 143.812 140.84 142.486 141.542C141.809 141.906 141.24 141.65 140.658 141.339C139.426 140.679 138.194 140.004 136.935 139.397C136.217 139.047 135.446 138.818 134.809 138.561C133.821 139.06 133.794 140.503 132.494 140.314H132.508C132.386 140.058 132.264 139.802 132.007 139.249C130.572 141.137 129.882 143.214 128.582 144.886L128.568 144.805L128.609 144.873C127.878 146.046 127.066 147.165 126.429 148.393C125.563 150.079 124.818 151.845 124.06 153.491C124.019 153.369 123.938 153.099 123.816 152.654C123.004 153.248 122.747 154.07 122.314 154.758C121.88 155.433 121.515 156.147 121.109 156.835L121.136 156.808C121.014 156.93 120.906 157.037 120.784 157.159L120.797 157.132L120.811 157.091ZM107.814 126.356C107.814 126.464 107.814 126.585 107.814 126.693C107.963 126.693 108.099 126.707 108.248 126.72C108.207 126.599 108.166 126.491 108.139 126.37C108.139 126.248 108.139 126.127 108.139 126.006C108.302 125.938 108.464 125.871 108.613 125.803C108.586 125.763 108.559 125.722 108.545 125.695C108.424 125.803 108.288 125.925 108.166 126.032C108.058 126.14 107.95 126.248 107.828 126.343L107.814 126.356ZM133.171 124.738L133.144 124.765C133.036 124.765 132.941 124.765 132.833 124.765C132.201 125.421 132.106 126.028 132.549 126.585C133.212 126.032 132.968 125.372 132.819 124.738C132.941 124.738 133.063 124.738 133.171 124.738ZM146.804 124.765H146.818C146.926 124.954 147.021 125.169 147.129 125.385C147.251 125.493 147.359 125.614 147.481 125.722L147.508 125.803L147.454 125.749C147.346 125.641 147.224 125.52 147.116 125.412C147.007 125.196 146.913 124.994 146.804 124.778V124.765ZM148.104 127.03H148.117L148.158 127.084L148.104 127.03ZM147.427 127.934L147.441 127.948C147.441 128.069 147.441 128.204 147.441 128.325C147.441 128.325 147.427 128.339 147.441 128.339C147.441 128.204 147.441 128.055 147.441 127.921L147.427 127.934ZM123.41 104.684L123.37 104.643L123.424 104.67C123.424 104.67 123.492 104.738 123.519 104.778C123.478 104.751 123.451 104.724 123.41 104.684ZM132.806 117.024V116.916L132.819 116.997C132.819 117.307 132.819 117.617 132.819 117.927C132.481 117.442 132.156 116.929 131.79 116.484C131.289 115.877 130.748 115.311 130.22 114.717C130.179 114.151 129.963 113.733 129.367 113.598C128.853 114.65 128.934 114.987 129.922 115.972C130.044 117.28 130.694 118.318 131.696 119.168C131.641 118.858 131.574 118.561 131.52 118.251C131.939 118.588 132.345 118.925 132.995 119.451C132.928 118.736 132.887 118.332 132.846 117.941C132.955 117.604 133.049 117.28 133.158 116.943C133.198 116.862 133.239 116.794 133.293 116.713C133.253 116.794 133.225 116.875 133.185 116.956C133.063 116.97 132.941 116.983 132.806 116.997V117.024ZM145.518 95.6209C145.45 95.6749 145.369 95.7153 145.301 95.7692C145.369 95.7153 145.437 95.6614 145.505 95.6074H145.518V95.6209ZM119.863 138.305C119.958 138.548 120.066 138.777 120.161 139.02C120.161 139.667 120.107 140.341 121.068 140.544C121.528 139.681 121.921 138.777 121.623 137.806C121.352 136.916 120.879 136.093 120.513 135.257C120.391 136.484 120.269 137.766 120.148 139.047C120.053 138.804 119.945 138.561 119.85 138.332C119.823 138.251 119.796 138.17 119.796 138.143C119.796 138.157 119.836 138.238 119.877 138.305H119.863ZM156.579 95.985C156.484 96.0929 156.389 96.2008 156.498 96.0794C156.416 96.2278 156.498 96.0929 156.552 95.9715C156.755 95.9311 156.944 95.8906 157.147 95.8637L156.728 95.513C156.674 95.6748 156.633 95.8367 156.579 95.9985V95.985ZM130.247 99.1678L130.234 99.1813C130.112 98.9116 129.99 98.6418 129.868 98.3721C129.8 98.426 129.719 98.48 129.651 98.5339C129.854 98.7497 130.058 98.952 130.247 99.1678ZM129.936 95.2838L129.909 95.3107C129.773 94.8657 129.651 94.4071 129.002 94.4341C128.961 95.1894 129.408 95.2972 129.922 95.2838H129.936ZM125.4 91.4536C124.845 90.9007 124.29 90.3477 123.735 89.8083L123.762 89.7813C123.898 90.7254 124.331 91.3727 125.387 91.4267L125.427 91.3188L125.4 91.4402V91.4536ZM139.995 104.67C140.834 104.117 141.619 103.524 141.809 102.027C140.347 103.227 139.142 104.212 137.72 105.371C138.248 105.52 138.478 105.574 138.708 105.641C138.429 106.585 138.668 107.197 139.426 107.475C140.089 106.639 140.36 105.722 139.995 104.67ZM127.973 115.055C127.851 114.03 127.133 114.138 126.578 114.502C125.739 115.041 124.872 115.635 124.818 116.848C124.805 117.266 124.52 117.657 124.358 118.062C124.141 117.32 124.074 116.646 123.099 116.97H123.112C122.909 116.956 122.598 116.821 122.544 116.889C121.515 118.103 121 120.517 122.693 121.757C123.234 121.542 123.803 121.326 124.371 121.097C124.277 121.663 124.006 122.027 123.708 122.364C123.41 122.728 123.099 123.079 122.788 123.43C122.476 124.239 122.232 125.048 122.76 125.884V123.416C122.815 123.564 122.909 123.726 122.909 123.875C122.855 126.006 124.168 126.788 126.023 127.071C126.402 127.125 126.768 127.219 127.133 127.314C127.946 127.503 128.622 127.408 129.083 126.599C129.205 126.37 129.448 126.208 129.624 126.019L129.597 126.046C130.166 125.088 130.667 124.09 131.303 123.2C131.845 122.459 131.885 121.663 131.547 120.962C130.883 119.586 130.044 118.291 129.286 116.97H129.299C129.272 116.08 128.582 115.594 128 115.041H127.986L127.973 115.055ZM117.223 122.499C117.088 122.89 116.005 122.85 116.749 123.645C116.898 123.794 116.777 124.32 116.628 124.589C116.438 124.927 116.086 125.183 115.761 125.534C116.533 126.167 117.142 126.006 117.792 125.641C118.076 124.522 118.009 123.511 117.237 122.499H117.223ZM122.395 137.253C122.53 137.294 122.666 137.321 122.801 137.361C123.194 136.687 123.586 136.026 123.952 135.352C124.182 134.92 124.399 134.434 123.776 134.124C123.194 133.828 122.53 134.097 122.422 134.785C122.3 135.594 122.395 136.43 122.395 137.253ZM116.073 137.523C117.129 133.976 117.142 133.342 116.167 132.789C115.585 134.259 116.032 135.716 116.073 137.523ZM119.958 123.119C120.053 123.119 120.148 123.146 120.229 123.146V122.283C120.134 122.283 120.039 122.283 119.958 122.283V123.106V123.119ZM117.981 144.792C117.819 144.981 117.711 145.062 117.67 145.17C117.643 145.237 117.724 145.345 117.765 145.439C117.873 145.385 118.063 145.358 118.09 145.277C118.13 145.183 118.049 145.035 117.981 144.792ZM119.863 133.868C119.769 133.895 119.687 133.922 119.593 133.949C119.66 134.138 119.728 134.327 119.809 134.515L120.012 134.448C119.972 134.259 119.917 134.07 119.877 133.882L119.863 133.868ZM117.277 134.111C117.359 134.111 117.44 134.111 117.521 134.111V133.221H117.237C117.25 133.531 117.264 133.828 117.277 134.124V134.111ZM114.272 137.563C114.191 137.563 114.123 137.563 114.042 137.577C114.055 137.793 114.069 138.008 114.082 138.211C114.164 138.211 114.231 138.211 114.313 138.197C114.299 137.981 114.286 137.766 114.272 137.563ZM135.04 122.378C134.836 122.27 134.715 122.148 134.579 122.135C134.498 122.135 134.349 122.337 134.363 122.432C134.363 122.54 134.512 122.647 134.606 122.755C134.701 122.674 134.809 122.58 135.053 122.378H135.04ZM117.508 140.085C117.508 140.085 117.386 139.977 117.332 139.923C117.305 139.964 117.237 140.018 117.25 140.031C117.305 140.099 117.359 140.153 117.413 140.207C117.44 140.166 117.467 140.139 117.521 140.085H117.508ZM131.926 124.387L131.953 124.293L131.858 124.32L131.926 124.387ZM112.999 115.594L113.108 115.662V115.527L112.999 115.594ZM143.988 96.6324L144.083 96.5919L144.002 96.538V96.6458L143.988 96.6324ZM109.52 146.006C109.52 146.006 109.52 146.1 109.534 146.154C109.588 146.114 109.642 146.073 109.669 146.019C109.669 146.006 109.628 145.952 109.601 145.911C109.574 145.952 109.547 145.979 109.52 146.019V146.006ZM128 93.3013C127.918 93.2608 127.851 93.2203 127.77 93.1799C127.756 93.2203 127.715 93.3012 127.729 93.3147C127.797 93.3687 127.878 93.3956 127.959 93.4361C127.959 93.3956 127.986 93.3417 128 93.3013ZM119.945 125.493L120.012 125.574L120.053 125.48H119.945V125.493ZM110.265 141.259V141.016H110.143C110.143 141.097 110.143 141.178 110.143 141.259H110.278H110.265ZM131.777 127.678L131.858 127.624L131.777 127.583V127.678ZM131.899 98.2372V98.1428L131.831 98.1698L131.899 98.2372ZM114.15 95.7557C114.15 95.8367 114.15 95.9041 114.137 95.985C114.164 95.9446 114.231 95.9176 114.231 95.8771C114.231 95.8367 114.191 95.7962 114.15 95.7557Z" fill="#FF1F1F"/>
<path d="M61.3787 57.3739C60.4311 58.6685 59.4293 59.9497 58.5357 61.2849C56.9788 63.618 55.4355 65.9511 54.0004 68.3652C52.7549 70.4421 51.6448 72.5999 50.5347 74.7577C49.9661 75.8501 49.5193 77.0099 49.0319 78.1427L49.0184 78.1293C49.1538 78.4125 49.2756 78.6957 49.5329 79.2486C50.467 77.7516 51.3199 76.4435 51.9156 75.0004C52.7143 73.0719 53.6755 71.2378 55.1918 69.7543H55.1783C54.7044 71.9121 53.5131 73.7597 52.5248 75.7152C52.2946 76.1872 52.1186 76.6862 51.9291 77.1717C51.3064 78.1697 50.5888 79.1407 50.1015 80.2061C49.8578 80.7321 49.8713 81.4873 50.0473 82.0672C50.3316 83.0383 50.8325 83.9553 51.2657 84.8859C52.254 87.0302 53.2423 89.1745 54.2577 91.3054C54.5826 91.9662 55.0429 92.5731 55.422 93.2069C56.2613 94.6365 57.1955 96.0391 57.8588 97.5495C58.1431 98.1969 57.8182 99.1004 57.7776 99.8826C57.6964 99.6399 57.6287 99.4106 57.5474 99.1679C57.4798 99.2083 57.3985 99.2488 57.3308 99.2893C57.4798 99.4781 57.6422 99.6669 57.7911 99.8557C57.737 99.8557 57.6828 99.8961 57.6422 99.8826C57.033 99.6399 56.4373 99.3027 55.801 99.1814C55.1918 99.06 54.5284 99.1814 53.8921 99.1814H53.9057C53.6891 98.7768 53.4589 98.3452 53.2423 97.9136L53.2558 97.9001C52.7414 99.0734 52.2676 99.3432 51.198 98.8307C49.6276 98.0755 48.0301 97.6035 46.2702 97.5765C45.7422 97.5765 45.2142 97.118 44.7133 96.8213C44.077 96.4436 43.4678 96.0121 42.8585 95.6075L42.8721 95.621C41.789 94.4342 41.7755 94.4342 40.6383 95.3378C40.3946 95.5266 40.1644 95.7424 39.9343 95.9582C39.8937 95.8772 39.8531 95.7963 39.826 95.7154C39.7448 95.7963 39.6635 95.8772 39.5823 95.9582C39.3657 96.619 39.1355 97.2798 38.9189 97.9406L38.8919 97.8327L38.9325 97.9271C38.1473 98.6959 37.7276 99.6264 37.3079 100.638C36.5768 102.459 35.4938 104.144 34.6544 105.938C33.8421 107.678 33.1246 109.471 32.4477 111.265C32.2446 111.805 32.3529 112.479 32.3123 113.409C32.8268 112.681 33.111 112.277 33.4495 111.805C35.2501 113.248 34.8304 114.893 34.3024 116.808C33.9233 116.336 33.6797 116.039 33.436 115.729C33.964 114.825 33.8421 113.962 33.3006 112.749C33.0163 114.016 33.1923 114.879 33.463 115.743C33.0704 115.891 32.6643 116.039 32.204 116.215C32.0415 116.012 31.8655 115.769 31.676 115.527C31.5948 115.581 31.4729 115.621 31.4323 115.702C31.3105 115.931 31.2834 116.336 31.1209 116.403C29.6994 116.983 29.6317 118.224 29.5099 119.465C29.3881 120.692 29.3881 120.665 28.0749 120.84C27.6687 120.894 27.2761 121.124 26.8835 121.272C25.814 121.703 25.1777 121.596 24.4737 120.665C23.7968 119.775 22.971 119.168 21.9285 118.777C20.8049 118.345 20.1415 117.037 20.3716 115.864C20.489 115.288 20.2949 114.825 19.7895 114.475C20.1009 111.912 20.3852 109.417 20.7101 106.922C20.7642 106.504 20.9809 106.113 21.1298 105.709H21.1027C21.1298 105.844 21.1568 105.992 21.1975 106.302C22.0774 104.697 22.8897 103.214 23.702 101.73C23.7291 102.081 23.7697 102.432 23.7968 102.782C23.8645 102.769 23.9322 102.755 23.9999 102.742C23.8916 102.418 23.7968 102.081 23.6885 101.757C23.6885 101.461 23.6885 101.15 23.6885 100.854C23.7426 100.719 23.8103 100.584 23.7426 100.732C23.7833 100.584 23.7426 100.732 23.702 100.881L23.3365 100.786H23.35C22.5107 99.8557 22.7137 98.2643 21.1298 97.4147C21.2787 97.8732 21.3464 98.0485 21.4005 98.2238L21.4276 98.2103C20.4122 99.033 21.2787 99.8826 21.3464 100.395C20.9267 101.595 20.6018 102.499 20.1956 103.672C20.155 103.092 20.1144 102.755 20.1009 102.418C19.9384 98.8442 20.6965 95.3513 20.9944 91.8179C21.0892 90.7524 21.1433 89.6735 21.1298 88.5946C21.1298 87.5696 20.859 87.273 19.7624 87.1786C18.2055 87.0437 16.6351 87.0302 15.0782 86.9358C13.9816 86.8684 12.8038 87.0572 11.7614 86.0727C12.1675 85.8704 12.4653 85.7085 12.8986 85.4793C12.6007 85.277 12.3841 85.0073 12.1404 84.9668C9.62232 84.6566 7.10423 84.4273 4.69443 83.5777C3.476 83.1461 2.25756 82.7011 1.13389 82.0942C-0.260539 81.3525 -0.368844 80.341 0.808977 79.2756C3.17816 77.1447 5.56087 75.0409 8.02482 73.018C12.3977 69.4171 16.7976 65.8567 21.2381 62.3503C22.5513 61.3119 23.0793 60.0576 23.0928 58.4393C23.0928 57.1581 23.2282 55.8634 23.3094 54.3934C23.6885 54.6227 23.9186 54.771 24.1488 54.9059C24.7715 53.8405 24.6903 49.6597 23.9863 46.7737L23.9999 46.7871C23.2282 45.7891 23.2553 45.6543 24.3112 45.4115C24.5414 45.3576 24.758 45.2362 24.9881 45.1553H24.9746C25.5432 45.3036 25.6651 44.8316 25.9358 44.5079C26.9241 43.3076 27.5469 43.3616 28.3862 44.6833C29.4557 46.369 30.972 47.2996 32.9757 47.5019C33.3954 47.5423 33.8421 47.9065 34.1535 48.2437C34.5055 48.6348 34.7086 49.1607 35.0064 49.6057C35.5885 50.4419 36.1978 50.5768 37.0913 50.1048C37.4297 49.9294 37.7411 49.7136 38.0389 49.4844C40.4758 47.7042 42.9804 45.9914 45.336 44.1169C47.8541 42.1209 50.7242 40.7318 53.4589 39.0999C54.4743 38.4931 55.5303 37.9401 56.5456 37.3332C57.7911 36.578 59.0773 36.578 60.5123 36.9826C60.3769 37.2388 60.2822 37.4007 60.1874 37.576C60.2551 37.6434 60.3363 37.7648 60.404 37.7648C61.2975 37.8457 62.0557 38.1424 62.7461 38.7493C63.4366 39.3427 64.2353 39.8282 65.007 40.3002C65.8193 40.7857 66.4826 41.3791 66.8753 42.2422L66.8617 42.2287C67.1731 42.431 67.4574 42.6738 67.7958 42.8221C68.8924 43.3076 69.109 43.7527 68.906 44.9395C68.378 48.0279 66.9294 50.6712 65.1288 53.1661C64.8175 53.5977 64.5467 54.0697 64.1947 54.4743C63.7073 55.0138 63.1387 55.4858 62.6243 56.0117C62.1775 56.4703 61.7714 56.9558 61.3517 57.4278L61.3652 57.4143L61.3787 57.3739ZM39.2709 57.1041L39.2574 57.0907H39.2709V57.1041ZM20.0603 72.9505L20.0467 72.9235L20.4393 72.9505C20.6559 73.2877 20.9132 73.5439 21.2787 73.1528C21.3328 73.0989 21.1433 72.8157 21.0621 72.6403C21.1568 72.4785 21.2381 72.3302 21.3328 72.1683C21.2787 72.1279 21.2245 72.0739 21.1568 72.0334C20.9132 72.2357 20.683 72.4246 20.4393 72.6268C20.3175 72.7347 20.1956 72.8292 20.0738 72.937L20.0603 72.9505ZM23.9863 97.8732L23.9999 97.8867H23.9863V97.8732ZM10.3534 74.906L10.3398 74.8925H10.3534V74.906ZM9.37864 75.5668C9.27033 75.6747 9.16203 75.7826 9.04018 75.904C8.93188 76.0119 8.82357 76.1198 8.71527 76.2412C7.53745 76.7132 6.54916 77.4414 5.80456 78.4799L5.76395 78.6148C5.76395 78.6148 5.79102 78.5204 5.80456 78.4799C7.03653 78.0618 7.93006 77.2257 8.71527 76.2277C8.82357 76.1198 8.93188 76.0119 9.04018 75.8905C9.14849 75.7827 9.2568 75.6748 9.37864 75.5534L9.39218 75.5668H9.37864ZM33.7473 105.345L33.6932 105.399L33.7203 105.318H33.7338L33.7473 105.345ZM37.6463 84.3329L37.5922 84.3869L37.6193 84.306H37.6328L37.6463 84.3329ZM16.2019 74.3126C16.2019 74.3126 16.1748 74.3801 16.1613 74.407C16.1613 74.3666 16.1748 74.3261 16.1883 74.2991C16.2966 74.1912 16.4185 74.0699 16.5268 73.962C18.1649 73.463 19.3157 72.2897 20.5341 71.1703C20.9402 70.8197 21.3599 70.4691 21.7661 70.1184C21.7931 70.0914 21.8338 70.051 21.8608 70.024C21.8338 69.997 21.7931 69.9566 21.7931 69.9566C21.7525 69.9701 21.7255 70.0105 21.6984 70.0375C21.2516 70.3477 20.8049 70.6444 20.3446 70.9546C19.0855 71.9525 17.8129 72.964 16.5539 73.962C16.4456 74.0699 16.3237 74.1912 16.2154 74.2991L16.2019 74.3126ZM16.5403 69.7813L16.4726 69.8756L16.5133 69.7678H16.5268L16.5403 69.7813ZM47.0689 69.7813C47.1772 69.552 47.272 69.3362 47.3803 69.1069C47.4209 69.026 47.4615 68.9586 47.5021 68.8777C47.4615 68.9586 47.4344 69.0395 47.3938 69.1204C47.2855 69.3497 47.1908 69.5654 47.0824 69.7947L47.0689 69.7813ZM41.234 58.4662C41.234 58.3584 41.2204 58.2505 41.2069 58.1426C42.317 57.1446 43.373 56.0927 44.5237 55.1351C45.9317 53.9753 47.2584 52.5458 48.8966 51.8715C50.5618 51.1837 51.1845 49.9699 51.8343 48.5269C49.9255 49.6462 48.0843 50.86 46.4055 52.3165H46.4191C43.8197 53.3819 42.0869 55.5667 39.9749 57.2525C39.7989 57.3873 39.7312 57.8459 39.8124 58.0886C39.9884 58.5876 40.4352 58.6011 40.882 58.4527C41.0038 58.4527 41.1121 58.4527 41.234 58.4527V58.4662ZM22.0098 110.2L22.5513 109.822L22.3482 109.647C22.2399 109.836 22.1316 110.038 22.0233 110.227C21.9691 110.388 21.9014 110.55 21.8473 110.726C21.9014 110.726 21.9556 110.739 22.0098 110.753C22.0098 110.577 22.0098 110.388 22.0098 110.213V110.2ZM42.5336 51.0353C42.0733 51.1297 41.6266 51.2646 41.4506 51.9524C42.1275 51.8445 42.3847 51.4938 42.5201 51.0218H42.5336V51.0353ZM48.0301 67.8662C48.3821 67.4886 48.8424 67.1514 49.0861 66.7064C50.0744 64.9532 50.9814 63.1595 51.9291 61.3928C52.4029 60.9747 52.9851 60.6106 53.3371 60.1116C54.8127 58.0077 56.2342 55.8634 57.6422 53.7056C58.1837 52.8829 58.6711 52.0063 59.172 51.1567C58.644 51.2241 58.265 51.4399 58.0484 51.7636C56.0718 54.7171 54.1223 57.6705 52.1728 60.651C52.0374 60.8668 52.0239 61.15 51.9426 61.4062C51.5094 61.8378 51.0762 62.2694 50.6294 62.7144L50.643 62.701C50.3181 63.2944 49.9796 63.8877 49.6682 64.4946C49.1132 65.614 48.5716 66.7603 48.0301 67.8931L48.003 67.8662H48.0301ZM49.0319 64.3328C48.8966 64.4137 48.707 64.4676 48.6258 64.5755C47.448 66.4097 46.2702 68.2573 45.1194 70.1184C45.0653 70.1993 45.2006 70.3747 45.2954 70.6714C45.6203 70.3342 45.9182 70.1049 46.0942 69.8082C46.8388 68.581 47.5834 67.3402 48.2738 66.0725C48.5852 65.5196 48.7747 64.8992 49.0184 64.3058C49.0726 64.2923 49.1267 64.2788 49.1673 64.2519C49.1944 64.2384 49.1673 64.171 49.1673 64.1305C49.1267 64.1979 49.0726 64.2519 49.0319 64.3193V64.3328ZM44.4696 60.1116C45.0788 59.4912 45.688 58.8574 46.4732 58.0617C44.2665 58.2505 41.7755 59.8823 41.1933 61.3658C42.1004 61.15 42.9804 60.9477 43.8468 60.7454C43.3865 61.2579 42.9398 61.7973 42.4795 62.2963C41.7078 63.1325 41.6807 63.5101 42.3712 64.7644C42.6419 64.6565 43.0887 64.616 43.1835 64.4137C43.7791 63.1595 44.2936 61.8783 44.808 60.5836C44.8486 60.4757 44.5914 60.2599 44.4831 60.0846L44.4696 60.1116ZM54.5149 63.2944C54.8669 62.9707 55.3001 62.6874 55.5438 62.2963C57.737 58.7494 59.9166 55.2026 62.0692 51.6287C62.2317 51.3724 62.2587 51.0218 62.34 50.7251L62.3941 50.6307L62.367 50.7386C62.0692 51.0353 61.6901 51.2915 61.4871 51.6422C59.1585 55.5127 56.857 59.4103 54.542 63.2944L54.5149 63.3753L54.5284 63.2674L54.5149 63.2944ZM28.8736 76.2816C28.6705 77.6572 28.4675 79.0329 28.2779 80.4085C28.1696 81.2446 28.7382 81.7166 29.2933 82.3774C29.9973 80.5029 29.8754 78.7092 29.8348 76.9829C29.7942 75.2162 30.7283 73.5035 30.1056 71.3591C29.7942 72.3571 29.6724 73.0449 29.3745 73.6518C28.9548 74.5015 28.8059 75.3781 28.8601 76.2951H28.8736V76.2816ZM17.8265 80.1522C18.4086 80.2736 19.0043 80.0443 19.5593 80.6512C19.979 81.1097 21.1704 80.6512 21.4411 79.9364C21.7931 79.0059 21.9421 77.9809 22.1451 76.9964C22.1722 76.8885 21.8879 76.7267 21.739 76.5783V76.5918C21.7931 76.2547 22.0098 75.8231 21.8608 75.6208C21.7119 75.405 21.1433 75.2432 20.9132 75.3511C18.9095 76.3491 16.8382 77.2661 15.173 78.817C14.9834 78.9924 14.9834 79.3565 14.8751 79.7071C16.0394 80.0173 17.0006 79.896 17.8941 79.2891C18.2868 79.0194 18.72 78.8036 19.1397 78.5608H19.1261C18.7064 79.0868 18.2868 79.6262 17.8671 80.1657H17.8535L17.8265 80.1522ZM28.0884 88.3923C28.0072 89.3364 27.9395 90.1725 27.8582 91.0087C28.3456 90.4288 28.657 89.8354 28.9278 89.242C29.1714 88.689 28.8871 88.4732 28.0884 88.3923ZM25.3808 55.3644C25.3808 55.3644 25.4755 55.3644 25.5297 55.3644V53.0178C25.5297 53.0178 25.4349 53.0178 25.3808 53.0178V55.3644ZM15.4708 86.0457C15.5927 85.8704 15.6874 85.7355 15.7957 85.5872C15.6739 85.5198 15.525 85.3579 15.4302 85.3849C15.2813 85.4388 15.173 85.6006 15.0376 85.722C15.1459 85.8029 15.2677 85.8839 15.4708 86.0322V86.0457ZM22.6325 79.8825C22.7408 79.8825 22.8627 79.896 22.971 79.9094V78.898C22.8762 78.898 22.795 78.898 22.7002 78.898C22.6731 79.2216 22.646 79.5453 22.6325 79.8825ZM35.223 101.919L35.5615 102.04L35.6968 101.326C35.6292 101.312 35.5479 101.285 35.4802 101.272C35.399 101.487 35.3178 101.703 35.223 101.919ZM19.6406 85.803C19.7353 85.776 19.8166 85.749 19.9113 85.722C19.8572 85.6411 19.803 85.5333 19.7353 85.5063C19.6676 85.4793 19.5593 85.5467 19.4646 85.5737C19.5187 85.6546 19.5864 85.7221 19.6406 85.803ZM21.8067 95.6615C21.8067 95.6615 21.8744 95.5805 21.9014 95.54C21.8202 95.4996 21.739 95.4456 21.6578 95.4187C21.6442 95.4187 21.6036 95.4996 21.563 95.54C21.6442 95.5805 21.7255 95.621 21.8067 95.6615ZM22.7408 95.54C22.822 95.5535 22.8897 95.5671 22.971 95.5805C22.971 95.4187 22.9439 95.2568 22.9303 95.095C22.8762 95.095 22.8356 95.095 22.7814 95.095C22.7679 95.2434 22.7544 95.3782 22.7273 95.5266L22.7408 95.54ZM21.211 113.301C21.211 113.301 21.2245 113.207 21.211 113.167C21.1975 113.14 21.1298 113.153 21.0892 113.14C21.0892 113.207 21.0892 113.288 21.0892 113.355C21.1298 113.328 21.1704 113.315 21.211 113.288V113.301ZM23.6479 94.0161C23.6479 94.0161 23.6479 93.9352 23.6479 93.8813C23.5937 93.9082 23.5396 93.9487 23.4854 93.9757C23.5125 94.0026 23.526 94.0431 23.5531 94.0835C23.5802 94.0566 23.6208 94.0296 23.6479 94.0161ZM35.047 77.6437L35.0199 77.7517L35.1282 77.7112L35.047 77.6302V77.6437ZM23.1199 98.0485C23.174 97.9811 23.2147 97.9406 23.2553 97.8867C23.2147 97.8867 23.174 97.8732 23.1334 97.8597C23.1334 97.9001 23.1334 97.9541 23.1199 98.035V98.0485ZM23.4719 107.017V107.152L23.5666 107.071L23.4719 107.017ZM33.6255 104.266H33.5443L33.5984 104.36L33.639 104.266H33.6255ZM21.8067 65.1689L21.7796 65.2768L21.8744 65.2498L21.7931 65.1689H21.8067ZM23.499 108.581L23.5666 108.473H23.4583L23.499 108.581ZM17.2849 69.0665L17.3255 69.1609L17.3797 69.0665H17.2849Z" fill="#FF1F1F"/>
<path d="M121.772 46.3956C121.339 46.7193 120.906 47.0564 120.473 47.3801L120.5 47.3531C120.378 47.4745 120.256 47.5959 120.148 47.7038C119.498 48.014 118.862 48.3376 118.212 48.6478L118.225 48.6748C118.104 48.7961 117.995 48.904 117.873 49.0254L117.846 49.0119C116.912 49.1872 116.411 49.902 115.924 50.6168L115.938 50.6303C115.748 50.5763 115.464 50.4145 115.369 50.482C114.651 51.0349 113.988 51.6418 113.298 52.2352L113.311 52.2217C112.621 52.2217 112.418 52.6532 112.391 53.2466H112.296L112.377 53.2197C113.013 53.368 112.919 53.7591 112.702 54.1907C112.634 54.2446 112.58 54.312 112.512 54.366C112.567 54.2985 112.621 54.2311 112.675 54.1772C113.108 54.7301 113.122 55.2966 112.553 55.7416C109.358 58.2096 106.664 61.3114 102.941 63.0782C101.33 63.8469 99.7053 64.3863 97.6475 63.8064C98.4597 62.8758 99.1773 62.0532 99.9083 61.2305C99.8407 61.1361 99.773 61.0417 99.6917 60.9608C99.2585 61.2035 98.8117 61.4328 98.3921 61.6891C97.8776 61.9993 97.4038 62.1071 96.9164 61.6351C96.2259 60.9743 95.5897 61.0957 94.9398 61.7295C94.4118 62.242 93.7891 62.242 93.1393 61.9049C92.8143 61.7295 92.4488 61.4868 92.1239 61.5137C91.1762 61.5947 91.2574 60.6911 90.743 60.2191C90.1879 60.3 89.5652 60.3809 88.6446 60.5023C88.983 60.1112 89.1049 59.8684 89.2944 59.774C90.215 59.3424 90.6618 58.5332 91.271 57.778C93.7349 54.7436 94.0598 50.954 95.1835 47.4745C96.4967 43.4286 97.5392 39.3018 98.6899 35.202C98.717 35.0941 98.7441 34.9997 98.7711 34.8918C99.2856 33.0846 99.2314 32.8823 97.3632 32.5182C94.7368 32.0057 92.2999 31.0347 89.8359 30.0502C88.3874 29.4703 86.8169 29.2141 85.3277 28.7151C82.6066 27.798 82.2546 27.0832 82.9315 24.2376C82.9721 24.0758 83.0262 23.9274 83.0669 23.7791L83.0939 23.7521C83.6355 23.388 84.1228 22.9295 84.705 22.7002C87.1148 21.7696 89.511 20.7717 91.9885 20.0838C95.8063 19.0049 99.6917 18.1283 103.564 17.2382C104.593 17.009 105.148 16.483 105.5 15.5524C105.743 14.9051 106.149 14.3252 106.474 13.7183L106.488 13.7318C106.65 12.9631 106.704 12.1404 106.989 11.4256C107.936 9.0925 108.952 6.78636 109.967 4.4802C110.712 2.82139 111.93 1.54019 113.379 0.474771C114.029 0.00275064 114.841 -0.172546 115.518 0.20507C117.021 1.05471 118.591 1.71552 120.243 2.17406C122.246 2.74048 123.668 4.12957 125.008 5.62654C124.954 5.68049 124.9 5.72093 124.873 5.73442C124.886 5.70744 124.94 5.65353 124.981 5.59959C126.172 6.5706 127.147 7.68994 127.54 9.24086C127.662 9.69939 127.946 10.1175 128.149 10.5625C128.988 12.4102 130.139 13.3272 132.427 12.9496C134.471 12.6124 136.637 12.8147 138.736 12.99C140.97 13.1654 143.027 13.8936 144.842 15.3636C145.694 16.0514 146.805 16.483 147.861 16.8876C149.025 17.3461 150.121 17.8721 151.042 18.7487C151.732 19.4095 152.572 19.9085 153.343 20.475C154.075 21.0144 154.372 21.7966 153.939 22.6058C153.005 24.3725 151.895 26.0178 150.257 27.2586C148.064 28.9174 145.857 30.5762 143.664 32.2215C142.838 32.8419 142.026 33.4487 141.2 34.0556C140.983 34.2175 140.739 34.3523 140.55 34.5412C139.359 35.7145 138.952 36.4427 140.469 38.0071C141.904 37.1575 143.352 36.2809 144.814 35.4043L144.801 35.3908C143.88 36.1191 142.987 36.9012 142.012 37.5621C140.739 38.4117 140.591 38.6949 141.24 40.057C141.795 41.2304 142.459 42.3497 142.973 43.523C143.474 44.6963 143.853 45.9101 144.259 47.016C143.054 48.2163 141.674 47.2318 140.482 47.8117C140.658 48.1218 140.807 48.3646 141.051 48.7692C140.184 48.4725 139.48 48.2432 138.776 47.9735C136.881 47.2452 134.999 46.49 133.104 45.7618C132.955 45.7078 132.793 45.6673 132.63 45.6538C131.087 45.5325 129.53 45.3706 127.987 45.3167C127.553 45.3032 127.107 45.6269 126.66 45.7887L126.673 45.8157C126.633 45.5729 126.592 45.3302 126.511 44.7907C125.577 45.4111 124.819 45.9101 124.047 46.4091L124.074 46.4361C123.952 46.1124 123.83 45.7887 123.708 45.4651L123.722 45.4516C123.289 45.7752 122.856 46.0989 122.422 46.4226C122.192 46.4361 121.962 46.4361 121.732 46.4361L121.772 46.3956ZM109.453 28.6072L109.439 28.5937H109.453V28.6072ZM103.929 35.1076L103.916 35.0941H103.929V35.1076ZM113.027 47.7442C112.919 47.8521 112.81 47.96 112.702 48.0679C112.661 48.0679 112.621 48.0679 112.58 48.0949C112.553 48.1083 112.553 48.1488 112.539 48.1893C112.594 48.1488 112.634 48.1084 112.688 48.0679C112.797 47.96 112.905 47.8521 113.013 47.7442L113.027 47.7577V47.7442ZM111.402 49.0389C111.294 49.1468 111.186 49.2547 111.077 49.3626C110.482 49.6862 109.832 49.929 109.29 50.3336C108.221 51.1428 107.232 52.0329 106.204 52.8825C105.879 53.1657 105.445 53.395 105.825 53.9884C105.946 53.6107 106.068 53.2331 106.19 52.8555C106.65 52.7746 107.205 52.8151 107.571 52.5858C108.925 51.7227 110.319 50.8596 111.077 49.3356C111.186 49.2277 111.294 49.1198 111.402 48.9985L111.416 49.0119L111.402 49.0389ZM94.4931 52.923H94.5066C94.5066 53.0309 94.5066 53.1522 94.5201 53.2736C94.3712 53.5433 94.2088 53.813 94.0599 54.0693C94.1411 54.0963 94.2223 54.1233 94.3035 54.1502C94.3712 53.8535 94.4389 53.5568 94.5066 53.2601C94.5066 53.1522 94.5066 53.0444 94.4931 52.923ZM110.752 53.5703C110.752 53.6782 110.739 53.7996 110.725 53.9074C110.631 54.1232 110.522 54.3255 110.427 54.5413L110.414 54.5278C110.509 54.3256 110.617 54.1367 110.712 53.9344C110.712 53.8131 110.712 53.6917 110.725 53.5568L110.752 53.5838V53.5703ZM139.034 41.2034V41.2978V41.2168L138.993 41.1494L139.047 41.2034H139.034ZM107.476 38.0071L107.53 37.9397L107.503 38.0341H107.49L107.476 38.0071ZM108.14 57.7645L108.072 57.7915L108.126 57.751H108.14V57.7645ZM113.69 12.8282C113.582 13.1384 113.46 13.4486 113.352 13.7588H113.338C113.447 13.4351 113.568 13.1249 113.677 12.8147L113.704 12.7338V12.8282H113.69ZM110.414 26.7056H110.427C110.522 26.7596 110.631 26.8405 110.725 26.9214C110.752 26.881 110.766 26.854 110.793 26.8135C110.671 26.773 110.536 26.7461 110.414 26.7191V26.7056ZM108.18 56.1597C108.261 56.0383 108.329 55.9169 108.234 56.0788C108.288 55.89 108.248 56.0248 108.207 56.1732H108.112H108.194L108.18 56.1597ZM102.968 37.0091C102.778 37.0766 102.589 37.1575 102.386 37.2249C102.426 37.3058 102.481 37.3868 102.521 37.4542C102.67 37.2924 102.819 37.144 102.968 36.9822C103.022 37.1845 103.063 37.3733 103.157 37.7104C103.496 37.171 103.645 36.8608 102.968 37.0091ZM107.801 44.1569C108.288 43.8872 108.613 43.5365 108.207 42.8892C108.085 43.3207 107.95 43.7523 107.828 44.1838C107.747 44.2378 107.679 44.2917 107.598 44.3457C107.652 44.3726 107.72 44.4131 107.774 44.4401C107.774 44.3457 107.774 44.2513 107.788 44.1569H107.801ZM101.668 42.9161C100.951 43.5635 100.856 44.4266 100.734 45.2897C100.842 45.3167 100.951 45.3572 101.059 45.3841C101.249 44.5615 101.452 43.7253 101.641 42.9026C101.655 42.8217 101.668 42.7408 101.682 42.6599C101.682 42.7408 101.668 42.8352 101.655 42.9161H101.668ZM105.892 43.5635C105.161 44.2243 105.175 45.0874 105.134 45.9236C105.242 45.9506 105.337 45.964 105.445 45.991C105.594 45.1683 105.73 44.3592 105.879 43.5365L105.919 43.4691V43.5635H105.892ZM115.274 24.7366L115.261 24.7501C114.976 24.9389 114.557 25.0738 114.435 25.3435C114.205 25.8695 114.123 26.4764 113.988 27.0428C113.65 27.353 113.325 27.6632 112.986 27.9733C113.122 27.0967 113.243 26.2201 113.379 25.3435C112.499 26.4898 111.93 28.4858 112.011 29.4029C112.35 28.9039 112.675 28.4184 113 27.9463C112.932 28.8095 112.377 29.6187 112.715 30.6166C113.934 29.3085 114.245 28.3779 113.961 27.0293C114.841 26.5168 115.003 25.5997 115.274 24.7366ZM102.589 55.5123L102.602 55.4989C102.467 55.7281 102.332 55.9709 102.102 56.3755C103.956 55.4989 104.132 55.337 104.525 54.2716C103.807 54.7301 103.198 55.1212 102.589 55.5123ZM113.65 39.639L113.636 39.6525C113.785 39.612 113.947 39.5581 114.096 39.5176C114.76 39.3693 115.396 39.14 115.45 38.3443C115.504 37.4677 114.651 37.4407 114.137 37.1575C113.609 36.8743 112.959 36.6585 112.512 37.2519C111.416 38.668 110.955 40.3133 110.874 42.1204C111.646 41.7563 112.282 41.3248 112.702 40.61C113.027 40.2863 113.352 39.9491 113.677 39.6255L113.65 39.639ZM121.772 28.3375C121.664 27.8924 121.556 27.4608 121.448 27.0158H121.434C121.15 26.5842 120.825 26.1527 120.568 25.6942C120.256 25.1277 119.999 24.5343 119.688 23.9814C118.957 22.6462 117.968 22.5788 117.102 23.7926C116.98 23.9679 116.872 24.1567 116.79 24.359C116.114 26.0448 115.437 27.7441 114.787 29.4433C114.557 30.0367 114.421 30.6571 114.191 31.4528C115.166 31.8439 116.032 32.2215 116.939 32.5317C118.009 32.8958 119.092 33.1925 120.175 33.5297L120.067 33.5566L120.161 33.5027C120.419 33.5566 120.689 33.6645 120.947 33.6511C122.558 33.5567 123.424 32.1271 122.774 30.6706C122.436 29.8884 122.097 29.1062 121.759 28.324L121.786 28.351L121.772 28.3375ZM138.37 21.1088C137.815 20.92 137.341 20.6098 136.895 20.6503C135.988 20.7042 135.094 20.947 134.201 21.1358C133.483 21.2841 132.928 21.7561 133.117 22.4709C133.28 23.0778 133.821 23.5903 134.241 24.1162C134.295 24.1837 134.783 24.0623 134.796 24.0084C134.905 23.0913 135.757 23.2801 136.272 23.0104C137.044 22.6327 137.869 22.3495 138.37 21.1223V21.1088ZM98.2025 59.3694C99.1502 59.2346 100.166 58.6816 100.721 57.9264C100.937 57.6432 100.951 57.2116 101.167 56.5103C99.6782 57.2925 98.4733 57.7646 98.2025 59.3694ZM100.87 39.3423C100.761 39.3018 100.639 39.2748 100.531 39.2344C99.8136 40.1919 99.448 42.1744 99.8271 43.7927C100.22 42.1069 100.545 40.7314 100.87 39.3423ZM100.03 26.9619C99.976 27.1237 99.9219 27.299 99.8677 27.4609C100.152 27.5553 100.45 27.6631 100.734 27.7576C100.788 27.5822 100.842 27.4069 100.91 27.2316C100.626 27.1507 100.328 27.0562 100.044 26.9753L100.03 26.9619ZM109.48 54.5144C109.29 54.339 109.155 54.1637 109.101 54.1772C108.938 54.2446 108.789 54.393 108.64 54.5009C108.722 54.6087 108.83 54.7976 108.898 54.7841C109.074 54.7571 109.223 54.6357 109.48 54.5009V54.5144ZM106.041 41.8912L106.393 42.053C106.474 41.8103 106.569 41.5675 106.65 41.3248C106.569 41.2843 106.488 41.2573 106.407 41.2168C106.285 41.4461 106.163 41.6754 106.041 41.9047V41.8912ZM107.341 39.0456C107.029 39.2209 106.88 39.2749 106.88 39.3153C106.894 39.4771 106.962 39.639 107.002 39.8008C107.084 39.612 107.178 39.4097 107.341 39.0321V39.0456ZM101.492 59.5312C101.425 59.6122 101.357 59.6796 101.289 59.7605C101.357 59.801 101.438 59.8549 101.519 59.8684C101.546 59.8684 101.628 59.7875 101.614 59.7605C101.587 59.6796 101.533 59.6122 101.492 59.5312ZM124.467 44.2378C124.426 44.3052 124.372 44.3727 124.331 44.4536C124.372 44.4806 124.453 44.521 124.453 44.521C124.507 44.4536 124.548 44.3861 124.588 44.3187C124.548 44.2917 124.507 44.2782 124.467 44.2513V44.2378ZM104.349 57.751C104.349 57.751 104.281 57.6702 104.241 57.6836C104.2 57.6836 104.159 57.7241 104.119 57.751C104.173 57.7915 104.227 57.832 104.281 57.8724C104.295 57.832 104.322 57.7915 104.335 57.751H104.349ZM103.144 58.5198L103.252 58.5872V58.4523L103.144 58.5063V58.5198ZM109.047 40.9201V40.7988L108.952 40.8392L109.047 40.9201ZM105.378 41.1225L105.324 41.2168H105.418L105.378 41.1225Z" fill="#FF1F1F"/>
<path d="M19.4243 116.982C19.1671 117.36 18.9099 117.751 18.5037 118.371C18.3006 117.36 18.7474 116.861 19.1129 116.335L19.0994 116.308C19.2212 116.537 19.3295 116.766 19.4514 116.982H19.4379H19.4243Z" fill="#FF1F1F"/>
<path d="M53.2423 77.8183C53.6214 77.0361 53.9869 76.2539 54.366 75.4717L54.7044 75.6605C54.217 76.3752 53.7161 77.0765 53.2288 77.7913L53.2423 77.8048V77.8183Z" fill="#FF1F1F"/>
<path d="M55.8415 67.7848L56.5049 67.5016V67.4746C56.18 68.1085 55.8551 68.7289 55.5302 69.3627L55.5437 69.3762C55.0563 68.8502 55.1376 68.3242 55.5031 67.7713C55.6249 67.7578 55.7468 67.7579 55.8686 67.7579L55.8415 67.7848Z" fill="#FF1F1F"/>
<path d="M123.113 156.78C123.506 156.227 123.898 155.688 124.291 155.135C124.345 156.011 123.83 156.456 123.099 156.753L123.126 156.78H123.113Z" fill="#FF1F1F"/>
<path d="M21.116 105.695C20.8723 105.101 20.6963 104.508 21.3597 103.941C21.2785 104.521 21.1837 105.101 21.1025 105.681L21.1295 105.695H21.116Z" fill="#FF1F1F"/>
<path d="M120.5 49.3214C120.892 49.1056 121.285 48.9033 121.799 48.6201C121.601 49.2225 121.163 49.4608 120.486 49.3349H120.5V49.3214Z" fill="#FF1F1F"/>
<path d="M117.969 51.6549C117.779 51.7898 117.589 51.9246 117.413 52.073C117.332 51.9786 117.237 51.8842 117.156 51.7898C117.346 51.6414 117.535 51.4931 117.725 51.3447C117.806 51.4526 117.887 51.5605 117.969 51.6684V51.6549Z" fill="#FF1F1F"/>
<path d="M106.827 119.194L105.987 120.449C105.893 120.368 105.811 120.287 105.717 120.219C106.096 119.882 106.475 119.558 106.854 119.221C106.854 119.221 106.827 119.194 106.84 119.194H106.827Z" fill="#FF1F1F"/>
<path d="M21.3872 98.1824C21.5767 98.5196 21.7527 98.8702 21.9423 99.2074C21.1841 99.0725 21.4955 98.5466 21.4143 98.1689L21.3872 98.1824Z" fill="#FF1F1F"/>
<path d="M153.343 102.741C153.655 102.215 153.98 101.689 154.291 101.163L154.278 101.149C153.953 101.675 153.641 102.201 153.316 102.727L153.343 102.754V102.741Z" fill="#FF1F1F"/>
<path d="M121.123 156.781C121.786 156.781 122.449 156.781 123.126 156.781L123.099 156.754C122.544 157.469 121.827 157.212 121.136 157.091V157.118C121.15 156.997 121.15 156.889 121.15 156.767L121.123 156.794V156.781Z" fill="#FF1F1F"/>
<path d="M122.45 47.7037C123.005 47.2721 123.547 46.854 124.102 46.4225L124.075 46.3955C123.533 46.8271 122.978 47.2586 122.437 47.6902L122.45 47.7037Z" fill="#FF1F1F"/>
<path d="M65.5897 56.1197C65.9146 55.5937 66.2531 55.0812 66.578 54.5553L66.5645 54.5283C66.2395 55.0543 65.9011 55.5802 65.5762 56.0927L65.5897 56.1062V56.1197Z" fill="#FF1F1F"/>
<path d="M149.742 28.6067C149.918 28.5123 150.094 28.4178 150.27 28.3369L150.325 28.5392C150.121 28.5527 149.918 28.5797 149.715 28.5932H149.729L149.742 28.6067Z" fill="#FF1F1F"/>
<path d="M20.1825 105.804H20.0605C20.0605 105.804 20.0605 105.709 20.0741 105.668C20.0741 105.655 20.1554 105.668 20.1961 105.668C20.1961 105.709 20.1961 105.763 20.1961 105.804H20.1825Z" fill="#FF1F1F"/>
<path d="M155.929 139.303C155.496 138.979 155.049 138.642 154.616 138.318V138.345C155.049 138.669 155.482 138.993 155.916 139.316H155.943L155.929 139.303Z" fill="#FF1F1F"/>
<path d="M153.317 102.715C153.141 102.958 152.951 103.187 152.775 103.43C152.735 103.389 152.694 103.362 152.653 103.322C152.883 103.133 153.114 102.931 153.344 102.742L153.317 102.715Z" fill="#FF1F1F"/>
<path d="M102.142 67.7312L102.061 67.8125L102.033 67.7041L102.142 67.7312Z" fill="#FF1F1F"/>
<path d="M99.3267 130.712L99.4215 130.807L99.2996 130.834L99.3267 130.712Z" fill="#FF1F1F"/>
<path d="M42.4934 96.2273C42.3174 96.1329 42.1279 96.0385 41.9519 95.9576C41.979 95.9036 41.9925 95.8362 42.0196 95.7822C42.1821 95.8362 42.331 95.9036 42.4934 95.9576L42.4799 95.9441C42.4799 96.0519 42.4799 96.1464 42.4799 96.2543L42.4934 96.2408V96.2273Z" fill="#FF1F1F"/>
<path d="M20.7373 119.357C20.7373 119.357 20.6425 119.357 20.6154 119.344C20.5883 119.317 20.5883 119.262 20.5747 119.222C20.6425 119.222 20.7102 119.222 20.778 119.235C20.778 119.276 20.7509 119.317 20.7509 119.357H20.7373Z" fill="#FF1F1F"/>
<path d="M118.876 50.6173C118.984 50.536 119.093 50.4547 118.971 50.5496C119.106 50.4954 118.971 50.5496 118.849 50.6038L118.862 50.6173H118.876Z" fill="#FF1F1F"/>
<path d="M126.687 45.7754C126.579 45.8296 126.47 45.8703 126.619 45.8025C126.457 45.8296 126.592 45.8025 126.714 45.8025L126.701 45.7754H126.687Z" fill="#FF1F1F"/>
<path d="M121.122 47.3795C120.798 47.4874 120.473 47.5953 120.148 47.7032C120.27 47.5818 120.391 47.4604 120.5 47.3525L120.473 47.3795C120.689 47.3795 120.919 47.3795 121.136 47.3795H121.122Z" fill="#FF1F1F"/>
<path d="M30.9314 121.595L30.9585 121.717L30.8501 121.676L30.9314 121.595Z" fill="#FF1F1F"/>
<path d="M156.227 98.1824C156.011 98.3982 155.781 98.6275 155.564 98.8433H155.591C155.591 98.614 155.591 98.3847 155.591 98.1689L155.564 98.1959C155.794 98.1959 156.024 98.1959 156.241 98.1959V98.1689L156.227 98.1824Z" fill="#FF1F1F"/>
<path d="M19.1128 116.335C19.2211 116.335 19.3294 116.321 19.4377 116.308C19.3158 116.308 19.2075 116.308 19.0857 116.308V116.335H19.1128Z" fill="#FF1F1F"/>
<path d="M23.3237 100.745C23.2831 100.826 23.256 100.894 23.2424 100.921C23.256 100.894 23.2966 100.826 23.3509 100.759L23.3373 100.745H23.3237Z" fill="#FF1F1F"/>
<path d="M121.123 157.091C121.069 157.172 121.014 157.266 120.974 157.347C120.92 157.266 120.866 157.172 120.811 157.091L120.798 157.118C120.92 157.118 121.028 157.118 121.15 157.118L121.136 157.091H121.123Z" fill="#FF1F1F"/>
<path d="M30.4712 120.489C30.4712 120.179 30.4983 119.869 30.5118 119.559H30.4983C30.4983 119.869 30.4712 120.165 30.4712 120.476V120.503V120.489Z" fill="#FF1F1F"/>
<path d="M58.1165 67.1241V66.8945C58.1165 66.8945 58.1571 66.962 58.1436 66.989C58.1436 67.0295 58.1165 67.0565 58.0894 67.097L58.1029 67.1105L58.1165 67.1241Z" fill="#FF1F1F"/>
<path d="M61.3518 57.3866L61.3925 57.4679L61.3789 57.373L61.3518 57.3866Z" fill="#FF1F1F"/>
<path d="M56.505 67.5021L56.5186 67.4072L56.4915 67.475L56.505 67.5021Z" fill="#FF1F1F"/>
<path d="M66.5645 54.555C66.6592 54.3257 66.754 54.11 66.8623 53.8807L66.8488 53.8672C66.754 54.0965 66.6592 54.3122 66.5645 54.5415L66.578 54.5685L66.5645 54.555Z" fill="#FF1F1F"/>
<path d="M154.575 100.408C154.481 100.651 154.372 100.894 154.278 101.136L154.291 101.15C154.386 100.907 154.494 100.664 154.589 100.422L154.575 100.395V100.408Z" fill="#FF1F1F"/>
<path d="M56.1394 72.6263L56.2207 72.5586L56.153 72.6128L56.1394 72.6263Z" fill="#FF1F1F"/>
<path d="M41.5183 100.139L41.4915 100.206L41.5452 100.152L41.5183 100.139Z" fill="#FF1F1F"/>
<path d="M67.2274 53.5169C67.3222 53.3146 67.4305 53.1123 67.5252 52.91V52.8965C67.4169 53.0988 67.3086 53.3011 67.2139 53.5034L67.2274 53.5169Z" fill="#FF1F1F"/>
<path d="M114.056 52.6L114.11 52.5322L114.029 52.6135L114.056 52.6Z" fill="#FF1F1F"/>
<path d="M19.4375 116.308C19.4375 116.537 19.4375 116.753 19.4375 116.982H19.451C19.451 116.753 19.451 116.523 19.451 116.308H19.4375Z" fill="#FF1F1F"/>
<path d="M42.845 96.6053L42.9127 96.6325L42.8585 96.5918L42.845 96.6053Z" fill="#FF1F1F"/>
<path d="M145.18 118.25C145.085 118.021 144.976 117.805 144.882 117.576L144.868 117.59C144.976 117.805 145.071 118.035 145.18 118.25Z" fill="#FF1F1F"/>
<path d="M30.4576 120.476L30.4441 120.57L30.4712 120.489L30.4576 120.476Z" fill="#FF1F1F"/>
<path d="M122.45 46.3955C122.219 46.3955 122.003 46.3955 121.773 46.3955V46.409C122.003 46.409 122.233 46.409 122.463 46.409L122.45 46.3955Z" fill="#FF1F1F"/>
<path d="M42.8455 95.5801C42.7237 95.7015 42.6018 95.8228 42.48 95.9442L42.4935 95.9577C42.6154 95.8363 42.7372 95.7149 42.859 95.5935L42.8455 95.5801Z" fill="#FF1F1F"/>
<path d="M42.48 96.241C42.6018 96.3624 42.7237 96.4838 42.8455 96.6052L42.859 96.5917C42.7372 96.4703 42.6154 96.3489 42.4935 96.2275L42.48 96.241Z" fill="#FF1F1F"/>
<path d="M56.153 72.6123L56.1394 72.6937V72.6259L56.153 72.6123Z" fill="#FF1F1F"/>
<path d="M55.1783 69.7274C55.3002 69.606 55.4085 69.4981 55.5303 69.3767L55.5168 69.3633C55.3949 69.4847 55.2866 69.5925 55.1648 69.7139L55.1783 69.7274Z" fill="#FF1F1F"/>
<path d="M57.7778 67.4608C57.8861 67.3529 58.008 67.2316 58.1163 67.1102L58.1027 67.0967C57.9809 67.2046 57.8726 67.3259 57.7507 67.4338L57.7643 67.4473L57.7778 67.4608Z" fill="#FF1F1F"/>
<path d="M66.8622 53.8805C66.984 53.7592 67.1059 53.6378 67.2277 53.5164L67.2142 53.5029C67.0923 53.6243 66.9705 53.7457 66.8486 53.867L66.8622 53.8805Z" fill="#FF1F1F"/>
<path d="M152.653 114.366L152.612 114.393L152.653 114.366Z" fill="#FF1F1F"/>
<path d="M114.029 52.6129C113.921 52.6129 113.799 52.5858 113.691 52.5723H113.677C113.799 52.5993 113.934 52.5993 114.056 52.6129H114.029Z" fill="#FF1F1F"/>
<path d="M113.69 52.5721C113.568 52.4507 113.446 52.3294 113.324 52.208L113.311 52.2215C113.433 52.3428 113.554 52.4642 113.676 52.5856L113.69 52.5721Z" fill="#FF1F1F"/>
<path d="M120.486 49.3213L120.432 49.3349L120.5 49.3213H120.486Z" fill="#FF1F1F"/>
<path d="M118.212 48.6483C118.091 48.7696 117.969 48.891 117.86 48.9989L117.887 49.0124C118.009 48.891 118.118 48.7831 118.239 48.6618V48.6348L118.212 48.6483Z" fill="#FF1F1F"/>
<path d="M101.33 124.723C101.316 124.615 101.316 124.507 101.33 124.399C101.33 124.521 101.33 124.629 101.33 124.75L101.357 124.723H101.33Z" fill="#FF1F1F"/>
<path d="M101.317 125.074C101.317 124.953 101.317 124.845 101.317 124.724L101.29 124.751C101.411 124.751 101.52 124.751 101.642 124.751V124.724C101.642 124.845 101.642 124.966 101.642 125.088L101.669 125.061C101.547 125.061 101.425 125.061 101.303 125.061H101.33L101.317 125.074Z" fill="#FF1F1F"/>
<path d="M149.702 126.005C149.81 126.005 149.932 126.032 150.04 126.032L150.054 126.018C149.932 126.018 149.796 126.005 149.675 125.991H149.688L149.702 126.005Z" fill="#FF1F1F"/>
<path d="M145.167 35.0809C145.058 35.1888 144.95 35.2966 144.842 35.4045L144.855 35.418C144.964 35.3101 145.072 35.2023 145.18 35.0809L145.167 35.0674V35.0809Z" fill="#FF1F1F"/>
<path d="M131.547 118.277C131.006 117.521 130.45 116.753 129.909 115.997C129.922 115.566 129.936 115.134 129.95 114.703L129.936 114.716C130.044 114.703 130.153 114.689 130.261 114.676C130.694 115.876 131.127 117.076 131.561 118.277H131.547Z" fill="#FF1F1F"/>
<path d="M139.995 104.656L139.643 105.007C139.765 104.886 139.887 104.764 139.995 104.656Z" fill="#FF1F1F"/>
<path d="M139.02 105.304C138.898 105.425 138.777 105.546 138.668 105.654C138.79 105.533 138.912 105.412 139.02 105.304Z" fill="#FF1F1F"/>
<path d="M129.57 114.38C129.692 114.501 129.8 114.609 129.922 114.73C129.922 114.73 129.936 114.717 129.949 114.717C129.828 114.595 129.706 114.488 129.597 114.366L129.584 114.38H129.57Z" fill="#FF1F1F"/>
<path d="M107.802 126.693C107.802 126.572 107.802 126.464 107.802 126.343C107.924 126.343 108.032 126.343 108.154 126.343C108.032 126.464 107.924 126.572 107.802 126.693Z" fill="#FF1F1F"/>
<path d="M19.1128 78.4656C19.5595 77.9666 20.0063 77.4541 20.4531 76.9551L20.7238 77.2383C20.1823 77.6429 19.6408 78.0475 19.0857 78.4521L19.0992 78.4656H19.1128Z" fill="#FF1F1F"/>
<path d="M21.7123 76.4834L21.6987 76.5647V76.5105L21.7123 76.4834Z" fill="#FF1F1F"/>
<path d="M41.2202 58.3985C41.0983 58.3985 40.9765 58.3985 40.8682 58.3985C40.99 58.2771 41.0983 58.1692 41.2202 58.0479C41.2202 58.1692 41.2202 58.2906 41.2202 58.3985Z" fill="#FF1F1F"/>
<path d="M20.3989 72.963C20.3989 72.8416 20.3989 72.7337 20.3989 72.6123C20.6291 72.6123 20.8592 72.6123 21.0894 72.6123C20.8592 72.7337 20.6291 72.8416 20.3989 72.963Z" fill="#FF1F1F"/>
<path d="M112.702 40.5828L112.648 40.5557L112.688 40.5828H112.702Z" fill="#FF1F1F"/>
</svg>
