<svg width="482" height="495" viewBox="0 0 482 495" fill="none" xmlns="http://www.w3.org/2000/svg">
<path d="M359.56 467.194C355.979 467.956 355.375 471.483 353.967 473.928C352.438 476.654 351.19 478.979 347.368 478.338C347.046 480.903 346.844 482.907 346.563 484.952C346.201 487.878 345.798 488.159 342.981 487.998C341.251 487.878 339.521 487.998 337.348 487.998C336.221 486.395 335.014 483.789 331.715 485.473C331.312 485.673 330.226 484.631 329.099 483.99C328.053 487.637 327.087 490.884 326.121 494.211C323.385 493.73 323.184 492.127 323.425 490.524C323.828 488.038 323.425 485.954 322.057 483.709C321.172 482.226 321.091 480.021 321.212 478.137C322.057 464.909 323.023 451.681 323.948 438.453C324.069 436.689 323.828 434.926 324.109 433.202C324.552 430.396 325.236 427.63 325.84 424.864C325.84 426.227 325.84 427.59 325.84 428.993C326.162 428.993 326.483 428.913 326.805 428.873C326.483 427.55 326.121 426.227 325.799 424.945C325.88 423.502 326.242 422.018 325.96 420.656C324.27 412.278 324.471 403.86 325.075 395.402C325.316 391.714 323.948 390.472 320.327 390.391C318.476 390.351 316.585 389.991 314.734 389.83C313.647 389.75 312.359 389.429 311.434 389.83C307.531 391.674 303.628 391.073 299.644 390.351L299.684 390.391C298.155 388.066 296.626 385.701 295.097 383.377C296.908 379.408 297.592 374.798 301.616 372.153H301.535C301.897 372.113 302.259 372.113 302.622 372.113L302.541 372.193C302.541 371.832 302.541 371.471 302.541 371.111V371.191C302.541 370.83 302.541 370.509 302.541 370.149C303.708 369.668 305.036 369.387 306.042 368.665C311.032 364.938 316.021 361.129 320.89 357.241C322.258 356.159 324.431 355.397 324.109 352.431C321.896 353.233 319.924 353.954 317.953 354.716L318.033 354.796C318.878 354.034 319.643 353.193 320.568 352.551C324.673 349.745 326.926 346.258 325.236 341.127C325.035 340.526 325.075 339.844 325.156 339.203C326.604 329.663 324.391 320.082 325.518 310.502C325.799 308.137 325.316 305.732 325.196 303.327C324.834 295.711 326.725 288.375 327.932 280.96C328.576 276.871 328.737 272.702 329.461 268.654C329.864 266.369 330.306 263.683 331.755 262.08C333.968 259.674 336.825 257.55 339.843 256.267C341.573 255.546 344.511 256.107 346.201 257.189C350.748 260.115 355.697 261.759 360.848 263.002C361.934 263.242 363.101 263.803 364.107 263.603C368.574 262.801 371.913 264.845 374.811 267.732C381.45 274.225 388.371 280.519 393.079 288.736C393.602 289.658 394.528 290.38 395.695 291.582C397.908 290.259 400.121 289.057 402.213 287.654C409.819 282.563 417.142 277.031 424.989 272.381C430.984 268.814 437.262 265.607 444.827 265.687C449.374 265.727 453.961 264.204 458.548 263.603C460.037 263.402 461.687 263.683 463.176 264.084C466.113 264.845 468.97 265.808 471.867 266.689C472.954 267.01 474.121 267.13 475.087 267.651C482.611 271.78 483.899 275.909 479.352 281.24C478.748 281.962 478.346 282.884 477.702 283.605C474.322 287.614 470.942 291.622 466.958 296.312C467.361 294.147 467.602 292.785 467.884 291.422C467.803 290.78 467.763 290.179 467.723 289.538C467.723 289.137 467.723 288.696 467.723 288.295C470.58 286.131 472.069 283.164 473.356 279.196C470.177 282.162 469.574 283.204 467.763 288.375C467.763 288.736 467.763 289.137 467.763 289.498L467.964 291.462C466.958 291.742 465.952 291.983 464.946 292.263V292.344C464.302 290.7 463.618 290.901 462.934 292.344L463.015 292.263C462.331 292.624 461.687 292.945 461.003 293.306L461.083 293.226C461.727 293.586 462.371 293.907 463.015 294.268H462.934C462.733 296.312 461.808 297.875 459.997 298.918V298.998C460.077 298.236 460.118 297.475 460.198 296.152C459.112 296.633 458.186 296.753 457.904 297.234C454.645 302.565 449.977 307.095 448.488 313.468C448.207 314.15 447.885 314.871 447.603 315.553C446.959 316.515 446.316 317.437 445.631 318.399C445.31 318.92 445.028 319.441 444.706 320.002C444.827 320.042 444.988 320.123 445.108 320.163C445.269 319.561 445.39 318.96 445.551 318.359C446.195 317.397 446.879 316.475 447.523 315.513C447.804 314.831 448.126 314.11 448.448 313.428C449.615 312.667 450.742 311.905 451.909 311.144C452.15 311.304 452.392 311.464 452.633 311.625C450.581 315.272 448.649 319 446.436 322.608C441.004 331.547 434.847 340.125 431.105 349.986L431.145 349.946C431.145 352.19 431.145 354.475 431.105 356.72C430.783 357.402 430.502 358.123 430.18 358.804C429.496 358.444 428.771 358.083 428.087 357.682C427.926 357.882 427.765 358.083 427.604 358.323C428.449 359.366 429.335 360.448 430.18 361.49L430.26 361.731L430.139 361.53C430.139 360.608 430.139 359.686 430.139 358.764C430.461 358.083 430.743 357.361 431.065 356.68C432.514 357.522 433.962 358.363 435.572 359.285C434.686 361.53 433.882 363.494 433.077 365.459L432.996 365.378C433.882 365.9 434.324 367.783 435.894 366.34L435.934 366.381C435.894 365.659 435.813 364.978 435.773 364.256C436.095 364.136 436.417 363.975 436.739 363.855C437.664 365.378 438.751 366.781 439.515 368.385C440.843 371.191 442.573 373.556 445.471 374.919L445.43 374.879C445.672 375.6 445.631 376.763 446.155 377.043C448.931 378.647 449.977 381.372 450.702 384.138C452.633 391.594 456.416 397.887 461.486 403.619C464.021 406.466 465.952 409.833 468.045 413.039C468.568 413.881 468.648 415.004 469.01 416.166C466.596 416.887 465.349 415.565 464.021 414.482H463.94C465.429 414.202 466.355 413.52 465.349 411.957C464.182 410.073 462.854 408.229 461.083 405.664C460.6 408.349 460.319 409.993 460.037 411.636V411.556C457.663 411.556 455.289 411.556 452.915 411.436C449.092 411.276 445.269 410.995 442.05 410.795C439.676 412.278 437.785 413.641 435.773 414.763C431.87 416.888 427.926 418.892 423.983 420.976C421.971 422.059 420.281 421.297 418.551 420.375C414.889 418.411 411.227 416.407 407.485 414.603C405.352 413.561 403.058 412.879 401.167 412.117C398.23 413.601 398.149 417.89 394.286 417.328H394.327C393.964 416.567 393.602 415.805 392.838 414.162C388.572 419.774 386.52 425.947 382.657 430.917L382.617 430.677L382.738 430.877C380.565 434.365 378.15 437.692 376.259 441.339C373.684 446.35 371.471 451.601 369.217 456.491C369.097 456.131 368.855 455.329 368.493 454.006C366.079 455.77 365.314 458.215 364.027 460.259C362.739 462.264 361.652 464.388 360.445 466.432L360.526 466.352C360.164 466.713 359.842 467.034 359.48 467.394L359.52 467.314L359.56 467.194ZM320.93 375.841C320.93 376.161 320.93 376.522 320.93 376.843C321.373 376.843 321.775 376.883 322.218 376.923C322.097 376.562 321.977 376.241 321.896 375.881C321.896 375.52 321.896 375.159 321.896 374.798C322.379 374.598 322.862 374.397 323.305 374.197C323.224 374.077 323.144 373.957 323.103 373.876C322.741 374.197 322.339 374.558 321.977 374.879C321.655 375.199 321.333 375.52 320.971 375.801L320.93 375.841ZM396.298 371.03L396.218 371.111C395.896 371.111 395.614 371.111 395.292 371.111C393.415 373.061 393.133 374.865 394.447 376.522C396.419 374.879 395.695 372.914 395.252 371.03C395.614 371.03 395.976 371.03 396.298 371.03ZM436.819 371.111H436.859C437.181 371.672 437.463 372.313 437.785 372.954C438.147 373.275 438.469 373.636 438.831 373.957L438.912 374.197L438.751 374.037C438.429 373.716 438.067 373.355 437.745 373.035C437.423 372.393 437.141 371.792 436.819 371.151V371.111ZM440.682 377.845H440.722L440.843 378.005L440.682 377.845ZM438.67 380.531L438.71 380.571C438.71 380.931 438.71 381.332 438.71 381.693C438.71 381.693 438.67 381.733 438.71 381.733C438.71 381.332 438.71 380.891 438.71 380.49L438.67 380.531ZM367.286 311.424L367.165 311.304L367.326 311.384C367.326 311.384 367.527 311.584 367.608 311.705C367.487 311.625 367.407 311.544 367.286 311.424ZM395.212 348.102V347.781L395.252 348.022C395.252 348.944 395.252 349.866 395.252 350.787C394.246 349.344 393.28 347.821 392.194 346.498C390.705 344.695 389.096 343.011 387.526 341.247C387.405 339.564 386.762 338.321 384.991 337.92C383.462 341.047 383.703 342.049 386.641 344.975C387.003 348.863 388.935 351.95 391.912 354.475C391.751 353.553 391.55 352.672 391.389 351.75C392.637 352.752 393.844 353.754 395.775 355.317C395.574 353.193 395.453 351.99 395.333 350.828C395.654 349.825 395.936 348.863 396.258 347.861C396.379 347.621 396.499 347.42 396.66 347.18C396.54 347.42 396.459 347.661 396.339 347.901C395.976 347.941 395.614 347.982 395.212 348.022V348.102ZM432.996 284.487C432.795 284.647 432.554 284.768 432.353 284.928C432.554 284.768 432.755 284.607 432.956 284.447H432.996V284.487ZM356.743 411.356C357.025 412.077 357.347 412.759 357.629 413.48C357.629 415.404 357.468 417.409 360.325 418.01C361.693 415.445 362.86 412.759 361.974 409.873C361.17 407.227 359.761 404.782 358.675 402.297C358.313 405.944 357.95 409.752 357.588 413.56C357.307 412.839 356.985 412.117 356.703 411.436C356.623 411.195 356.542 410.955 356.542 410.875C356.542 410.915 356.663 411.155 356.784 411.356H356.743ZM465.872 285.569C465.59 285.89 465.308 286.211 465.63 285.85C465.389 286.291 465.63 285.89 465.791 285.529C466.395 285.409 466.958 285.289 467.562 285.209L466.314 284.166C466.153 284.647 466.033 285.128 465.872 285.609V285.569ZM387.607 295.029L387.566 295.069C387.204 294.268 386.842 293.466 386.48 292.664C386.279 292.825 386.037 292.985 385.836 293.145C386.44 293.787 387.043 294.388 387.607 295.029ZM386.681 283.485L386.601 283.565C386.198 282.242 385.836 280.879 383.905 280.96C383.784 283.204 385.112 283.525 386.641 283.485H386.681ZM373.201 272.101C371.551 270.457 369.901 268.814 368.252 267.21L368.332 267.13C368.734 269.936 370.022 271.86 373.161 272.021L373.282 271.7L373.201 272.061V272.101ZM416.579 311.384C419.074 309.741 421.408 307.977 421.971 303.527C417.625 307.095 414.044 310.021 409.819 313.468C411.388 313.909 412.072 314.07 412.756 314.27C411.924 317.076 412.635 318.893 414.889 319.722C416.86 317.236 417.665 314.511 416.579 311.384ZM380.846 342.249C380.484 339.203 378.352 339.524 376.702 340.606C374.207 342.209 371.632 343.973 371.471 347.581C371.431 348.823 370.586 349.986 370.103 351.188C369.459 348.984 369.258 346.979 366.36 347.941H366.401C365.797 347.901 364.872 347.501 364.711 347.701C361.652 351.309 360.123 358.484 365.153 362.172C366.763 361.53 368.453 360.889 370.143 360.207C369.861 361.891 369.056 362.973 368.171 363.975C367.286 365.058 366.36 366.1 365.435 367.142C364.509 369.547 363.785 371.952 365.354 374.438V367.102C365.515 367.543 365.797 368.024 365.797 368.465C365.636 374.798 369.539 377.123 375.052 377.965C376.179 378.125 377.265 378.406 378.352 378.687C380.766 379.248 382.778 378.967 384.146 376.562C384.508 375.881 385.233 375.4 385.756 374.838L385.675 374.919C387.365 372.073 388.854 369.106 390.745 366.461C392.355 364.256 392.476 361.891 391.47 359.807C389.498 355.718 387.003 351.87 384.75 347.941H384.79C384.709 345.296 382.657 343.853 380.927 342.209H380.887L380.846 342.249ZM348.897 364.376C348.494 365.539 345.275 365.419 347.488 367.784C347.931 368.224 347.569 369.788 347.126 370.589C346.563 371.592 345.517 372.353 344.551 373.395C346.844 375.279 348.655 374.798 350.587 373.716C351.432 370.389 351.23 367.383 348.937 364.376H348.897ZM364.268 408.229C364.67 408.349 365.073 408.43 365.475 408.55C366.642 406.546 367.809 404.581 368.895 402.577C369.58 401.295 370.223 399.851 368.372 398.93C366.642 398.048 364.67 398.849 364.348 400.894C363.986 403.299 364.268 405.784 364.268 408.229ZM345.476 409.031C348.615 398.489 348.655 396.605 345.758 394.961C344.028 399.33 345.356 403.659 345.476 409.031ZM357.025 366.22C357.307 366.22 357.588 366.3 357.83 366.3V363.735C357.548 363.735 357.266 363.735 357.025 363.735V366.18V366.22ZM351.15 430.637C350.667 431.198 350.345 431.438 350.225 431.759C350.144 431.959 350.385 432.28 350.506 432.561C350.828 432.4 351.391 432.32 351.472 432.08C351.593 431.799 351.351 431.358 351.15 430.637ZM356.743 398.168C356.462 398.248 356.22 398.328 355.938 398.408C356.14 398.97 356.341 399.531 356.582 400.092L357.186 399.891C357.065 399.33 356.904 398.769 356.784 398.208L356.743 398.168ZM349.058 398.889C349.299 398.889 349.54 398.889 349.782 398.889V396.244H348.937C348.977 397.166 349.017 398.048 349.058 398.93V398.889ZM340.124 409.151C339.883 409.151 339.682 409.151 339.44 409.191C339.481 409.833 339.521 410.474 339.561 411.075C339.803 411.075 340.004 411.075 340.245 411.035C340.205 410.394 340.165 409.752 340.124 409.151ZM401.851 364.016C401.248 363.695 400.886 363.334 400.483 363.294C400.242 363.294 399.799 363.895 399.839 364.176C399.839 364.496 400.282 364.817 400.564 365.138C400.845 364.897 401.167 364.617 401.892 364.016H401.851ZM349.742 416.647C349.742 416.647 349.379 416.326 349.219 416.166C349.138 416.286 348.937 416.447 348.977 416.487C349.138 416.687 349.299 416.848 349.46 417.008C349.54 416.888 349.621 416.807 349.782 416.647H349.742ZM392.596 369.988L392.677 369.708L392.395 369.788L392.596 369.988ZM336.342 343.853L336.664 344.053V343.652L336.342 343.853ZM428.449 287.493L428.731 287.373L428.49 287.213V287.533L428.449 287.493ZM326.001 434.244C326.001 434.244 326.001 434.525 326.041 434.685C326.202 434.565 326.363 434.445 326.443 434.284C326.443 434.244 326.322 434.084 326.242 433.964C326.162 434.084 326.081 434.164 326.001 434.284V434.244ZM380.927 277.592C380.686 277.472 380.484 277.352 380.243 277.232C380.203 277.352 380.082 277.592 380.122 277.632C380.323 277.793 380.565 277.873 380.806 277.993C380.806 277.873 380.887 277.713 380.927 277.592ZM356.985 373.275L357.186 373.516L357.307 373.235H356.985V373.275ZM328.214 420.134V419.413H327.852C327.852 419.653 327.852 419.894 327.852 420.134H328.254H328.214ZM392.154 379.769L392.395 379.609L392.154 379.488V379.769ZM392.516 292.263V291.983L392.315 292.063L392.516 292.263ZM339.762 284.888C339.762 285.128 339.762 285.329 339.722 285.569C339.803 285.449 340.004 285.369 340.004 285.249C340.004 285.128 339.883 285.008 339.762 284.888Z" fill="#FF1F1F"/>
<path d="M182.911 170.806C180.094 174.655 177.117 178.463 174.461 182.431C169.833 189.366 165.246 196.3 160.981 203.476C157.279 209.649 153.979 216.062 150.679 222.476C148.989 225.723 147.662 229.17 146.213 232.537L146.173 232.497C146.575 233.339 146.937 234.181 147.702 235.824C150.478 231.375 153.013 227.487 154.784 223.197C157.158 217.465 160.015 212.014 164.522 207.604H164.481C163.073 214.018 159.532 219.51 156.595 225.322C155.911 226.725 155.387 228.208 154.824 229.651C152.973 232.617 150.84 235.504 149.392 238.67C148.667 240.234 148.708 242.478 149.231 244.202C150.076 247.088 151.565 249.814 152.852 252.58C155.79 258.953 158.727 265.327 161.745 271.66C162.711 273.624 164.079 275.428 165.206 277.312C167.701 281.561 170.477 285.73 172.449 290.219C173.294 292.144 172.328 294.829 172.207 297.154C171.966 296.433 171.765 295.751 171.523 295.03C171.322 295.15 171.081 295.27 170.88 295.39C171.322 295.952 171.805 296.513 172.248 297.074C172.087 297.074 171.926 297.194 171.805 297.154C169.994 296.433 168.224 295.43 166.332 295.07C164.522 294.709 162.55 295.07 160.659 295.07H160.699C160.055 293.867 159.371 292.584 158.727 291.302L158.768 291.262C157.238 294.749 155.83 295.551 152.651 294.027C147.983 291.783 143.235 290.38 138.004 290.3C136.435 290.3 134.865 288.937 133.377 288.055C131.485 286.932 129.675 285.65 127.864 284.447L127.904 284.487C124.685 280.96 124.645 280.96 121.265 283.645C120.54 284.207 119.856 284.848 119.172 285.489C119.052 285.249 118.931 285.008 118.85 284.768C118.609 285.008 118.367 285.249 118.126 285.489C117.482 287.454 116.798 289.418 116.154 291.382L116.074 291.061L116.195 291.342C113.861 293.627 112.613 296.393 111.366 299.399C109.193 304.81 105.974 309.821 103.479 315.152C101.065 320.323 98.932 325.654 96.92 330.986C96.3164 332.589 96.6383 334.593 96.5176 337.359C98.0467 335.195 98.8917 333.992 99.8977 332.589C105.249 336.878 104.002 341.769 102.433 347.461C101.306 346.058 100.582 345.176 99.8575 344.254C101.427 341.568 101.065 339.003 99.4551 335.395C98.61 339.163 99.1332 341.729 99.9379 344.294C98.771 344.735 97.5638 345.176 96.1957 345.697C95.7128 345.096 95.1897 344.374 94.6264 343.653C94.3849 343.813 94.0228 343.933 93.9021 344.174C93.5399 344.855 93.4594 346.058 92.9766 346.258C88.7515 347.982 88.5503 351.67 88.1881 355.357C87.826 359.005 87.826 358.925 83.9228 359.446C82.7156 359.606 81.5487 360.288 80.3817 360.729C77.2028 362.012 75.3116 361.691 73.2192 358.925C71.2072 356.279 68.7526 354.476 65.6542 353.313C62.3144 352.03 60.3426 348.142 61.0267 344.655C61.3754 342.944 60.7987 341.568 59.2964 340.526C60.2219 332.91 61.0669 325.494 62.0327 318.078C62.1936 316.836 62.8375 315.673 63.2801 314.471H63.1996C63.2801 314.872 63.3606 315.313 63.4813 316.235C66.0968 311.464 68.5112 307.055 70.9255 302.646C71.006 303.688 71.1267 304.73 71.2072 305.772C71.4084 305.732 71.6096 305.692 71.8108 305.652C71.4889 304.69 71.2072 303.688 70.8853 302.726C70.8853 301.844 70.8853 300.922 70.8853 300.04C71.0462 299.639 71.2475 299.239 71.0463 299.679C71.167 299.239 71.0462 299.68 70.9255 300.12L69.8391 299.84H69.8793C67.3845 297.074 67.9881 292.344 63.2801 289.819C63.7227 291.181 63.9239 291.703 64.0849 292.224L64.1654 292.184C61.1474 294.629 63.7227 297.154 63.9239 298.677C62.6765 302.245 61.7108 304.931 60.5036 308.418C60.3829 306.694 60.2622 305.692 60.2219 304.69C59.7391 294.068 61.9924 283.686 62.8777 273.183C63.1594 270.017 63.3203 266.81 63.2801 263.603C63.2801 260.557 62.4753 259.675 59.2159 259.394C54.5884 258.993 49.9207 258.953 45.2932 258.673C42.0338 258.472 38.533 259.033 35.4346 256.107C36.6418 255.506 37.5271 255.025 38.8147 254.343C37.9295 253.742 37.2856 252.94 36.5613 252.82C29.0768 251.898 21.5924 251.217 14.4298 248.691C10.8083 247.409 7.18677 246.086 3.84692 244.282C-0.297707 242.078 -0.619619 239.071 2.88118 235.904C9.92303 229.571 17.0051 223.318 24.3286 217.305C37.3259 206.602 50.4036 196.02 63.602 185.598C67.5052 182.511 69.0745 178.783 69.1148 173.973C69.1148 170.165 69.5172 166.317 69.7586 161.948C70.8853 162.629 71.5694 163.07 72.2534 163.471C74.1044 160.304 73.863 147.878 71.7706 139.3L71.8108 139.34C69.5172 136.374 69.5976 135.973 72.7363 135.251C73.4204 135.091 74.0642 134.73 74.7482 134.49H74.708C76.3981 134.93 76.7602 133.527 77.565 132.565C80.5024 128.998 82.3535 129.158 84.8483 133.087C88.0272 138.097 92.534 140.863 98.4893 141.464C99.7367 141.585 101.065 142.667 101.99 143.669C103.036 144.832 103.64 146.395 104.525 147.718C106.255 150.203 108.066 150.604 110.722 149.201C111.728 148.68 112.653 148.038 113.539 147.357C120.782 142.066 128.226 136.975 135.228 131.403C142.712 125.47 151.243 121.342 159.371 116.491C162.389 114.688 165.528 113.044 168.546 111.24C172.248 108.996 176.07 108.996 180.336 110.198C179.933 110.96 179.652 111.441 179.37 111.962C179.571 112.162 179.813 112.523 180.014 112.523C182.67 112.763 184.923 113.645 186.975 115.449C189.027 117.213 191.401 118.656 193.695 120.059C196.109 121.502 198.081 123.266 199.248 125.831L199.208 125.791C200.133 126.392 200.978 127.114 201.984 127.555C205.244 128.998 205.888 130.321 205.284 133.848C203.715 143.028 199.409 150.884 194.057 158.3C193.132 159.583 192.327 160.986 191.281 162.188C189.832 163.792 188.142 165.195 186.613 166.758C185.285 168.121 184.078 169.564 182.831 170.967L182.871 170.927L182.911 170.806ZM117.201 170.005L117.16 169.965H117.201V170.005ZM60.1012 217.105L60.061 217.024L61.2279 217.105C61.8717 218.107 62.6363 218.868 63.7227 217.706C63.8837 217.546 63.3203 216.704 63.0789 216.183C63.3606 215.702 63.602 215.261 63.8837 214.78C63.7227 214.659 63.5618 214.499 63.3606 214.379C62.6363 214.98 61.9522 215.541 61.2279 216.143C60.8657 216.463 60.5036 216.744 60.1414 217.065L60.1012 217.105ZM71.7706 291.181L71.8108 291.222H71.7706V291.181ZM31.2498 222.917L31.2095 222.877H31.2498V222.917ZM28.3525 224.881C28.0306 225.202 27.7087 225.522 27.3466 225.883C27.0247 226.204 26.7027 226.524 26.3808 226.885C22.88 228.288 19.9426 230.453 17.7294 233.539L17.6087 233.94C17.6087 233.94 17.6892 233.66 17.7294 233.539C21.3912 232.297 24.047 229.812 26.3808 226.845C26.7027 226.525 27.0247 226.204 27.3466 225.843C27.6685 225.522 27.9904 225.202 28.3525 224.841L28.3928 224.881H28.3525ZM100.783 313.389L100.622 313.549L100.702 313.308H100.743L100.783 313.389ZM112.372 250.936L112.211 251.097L112.291 250.856H112.332L112.372 250.936ZM48.6331 221.153C48.6331 221.153 48.5526 221.354 48.5123 221.434C48.5123 221.313 48.5526 221.193 48.5928 221.113C48.9147 220.792 49.2769 220.432 49.5988 220.111C54.4677 218.628 57.888 215.14 61.5096 211.813C62.7167 210.771 63.9642 209.729 65.1713 208.687C65.2518 208.607 65.3725 208.486 65.453 208.406C65.3725 208.326 65.2518 208.206 65.2518 208.206C65.1311 208.246 65.0506 208.366 64.9701 208.446C63.6423 209.368 62.3144 210.25 60.9462 211.172C57.204 214.138 53.4215 217.145 49.6793 220.111C49.3574 220.432 48.9952 220.792 48.6733 221.113L48.6331 221.153ZM49.639 207.685L49.4378 207.965L49.5586 207.645H49.5988L49.639 207.685ZM140.378 207.685C140.7 207.003 140.982 206.362 141.304 205.68C141.424 205.44 141.545 205.239 141.666 204.999C141.545 205.239 141.465 205.48 141.344 205.72C141.022 206.402 140.74 207.043 140.418 207.725L140.378 207.685ZM123.035 174.053C123.035 173.733 122.995 173.412 122.955 173.091C126.254 170.125 129.393 166.998 132.813 164.152C136.998 160.705 140.942 156.456 145.811 154.452C150.76 152.408 152.611 148.8 154.542 144.511C148.869 147.838 143.396 151.445 138.407 155.775H138.447C130.721 158.941 125.57 165.435 119.293 170.446C118.77 170.847 118.569 172.209 118.81 172.931C119.333 174.414 120.661 174.454 121.989 174.013C122.351 174.013 122.673 174.013 123.035 174.013V174.053ZM65.8956 327.819L67.5052 326.697L66.9016 326.176C66.5797 326.737 66.2578 327.338 65.9359 327.899C65.7749 328.38 65.5737 328.861 65.4128 329.382C65.5737 329.382 65.7347 329.423 65.8956 329.463C65.8956 328.942 65.8956 328.38 65.8956 327.859V327.819ZM126.898 151.967C125.53 152.247 124.202 152.648 123.679 154.692C125.691 154.372 126.456 153.329 126.858 151.927H126.898V151.967ZM143.235 201.993C144.281 200.87 145.65 199.868 146.374 198.545C149.311 193.334 152.007 188.003 154.824 182.752C156.232 181.509 157.963 180.427 159.009 178.944C163.395 172.69 167.62 166.317 171.805 159.903C173.415 157.458 174.863 154.853 176.352 152.327C174.783 152.528 173.656 153.169 173.012 154.131C167.137 162.91 161.343 171.688 155.548 180.547C155.146 181.188 155.106 182.03 154.864 182.792C153.577 184.075 152.289 185.357 150.961 186.68L151.001 186.64C150.036 188.404 149.03 190.167 148.104 191.971C146.454 195.298 144.845 198.706 143.235 202.073L143.155 201.993H143.235ZM146.213 191.49C145.811 191.731 145.247 191.891 145.006 192.212C141.505 197.663 138.004 203.155 134.584 208.687C134.423 208.927 134.825 209.448 135.107 210.33C136.073 209.328 136.958 208.647 137.481 207.765C139.694 204.117 141.907 200.429 143.96 196.661C144.885 195.018 145.448 193.174 146.173 191.41C146.334 191.37 146.495 191.33 146.615 191.25C146.696 191.21 146.615 191.009 146.615 190.889C146.495 191.089 146.334 191.25 146.213 191.45V191.49ZM132.652 178.944C134.463 177.1 136.274 175.216 138.608 172.851C132.049 173.412 124.645 178.262 122.914 182.672C125.61 182.03 128.226 181.429 130.801 180.828C129.433 182.351 128.105 183.954 126.737 185.437C124.444 187.923 124.363 189.045 126.415 192.773C127.22 192.452 128.548 192.332 128.83 191.731C130.6 188.003 132.129 184.195 133.658 180.347C133.779 180.026 133.014 179.385 132.693 178.864L132.652 178.944ZM162.51 188.404C163.556 187.442 164.844 186.6 165.568 185.437C172.087 174.895 178.565 164.353 184.963 153.73C185.446 152.969 185.527 151.927 185.768 151.045L185.929 150.764L185.848 151.085C184.963 151.967 183.836 152.728 183.233 153.77C176.312 165.275 169.471 176.859 162.59 188.404L162.51 188.644L162.55 188.324L162.51 188.404ZM86.2969 227.005C85.6933 231.094 85.0897 235.183 84.5264 239.272C84.2044 241.757 85.8945 243.16 87.5443 245.124C89.6367 239.552 89.2746 234.221 89.1539 229.09C89.0331 223.839 91.8096 218.748 89.9586 212.375C89.0331 215.341 88.671 217.385 87.7857 219.189C86.5383 221.714 86.0957 224.32 86.2566 227.046H86.2969V227.005ZM53.4617 238.51C55.192 238.871 56.9626 238.189 58.6124 239.993C59.8598 241.356 63.4008 239.993 64.2056 237.869C65.2518 235.103 65.6945 232.056 66.298 229.13C66.3785 228.809 65.5335 228.328 65.0909 227.887V227.927C65.2518 226.925 65.8957 225.643 65.453 225.041C65.0104 224.4 63.3203 223.919 62.6363 224.24C56.6809 227.206 50.5243 229.932 45.5749 234.541C45.0115 235.063 45.0115 236.145 44.6896 237.187C48.1502 238.109 51.0072 237.748 53.663 235.944C54.8299 235.143 56.1175 234.501 57.3649 233.78H57.3247C56.0773 235.343 54.8299 236.947 53.5825 238.55H53.5422L53.4617 238.51ZM83.963 263.002C83.7216 265.808 83.5204 268.293 83.2789 270.778C84.7275 269.055 85.653 267.291 86.4578 265.527C87.1821 263.884 86.3371 263.242 83.963 263.002ZM75.9152 164.834C75.9152 164.834 76.1969 164.834 76.3578 164.834V157.859C76.3578 157.859 76.0761 157.859 75.9152 157.859V164.834ZM46.4601 256.027C46.8223 255.506 47.104 255.105 47.4259 254.664C47.0637 254.464 46.6211 253.983 46.3394 254.063C45.8968 254.223 45.5749 254.704 45.1725 255.065C45.4944 255.305 45.8566 255.546 46.4601 255.987V256.027ZM67.7467 237.708C68.0686 237.708 68.4307 237.748 68.7526 237.788V234.782C68.471 234.782 68.2295 234.782 67.9478 234.782C67.8674 235.744 67.7869 236.706 67.7467 237.708ZM105.169 303.207L106.175 303.568L106.577 301.443C106.376 301.403 106.135 301.323 105.934 301.283C105.692 301.924 105.451 302.566 105.169 303.207ZM58.8538 255.306C59.1355 255.225 59.3769 255.145 59.6586 255.065C59.4976 254.824 59.3367 254.504 59.1355 254.424C58.9343 254.344 58.6124 254.544 58.3307 254.624C58.4916 254.865 58.6928 255.065 58.8538 255.306ZM65.2921 284.608C65.2921 284.608 65.4933 284.367 65.5737 284.247C65.3323 284.126 65.0909 283.966 64.8494 283.886C64.8092 283.886 64.6885 284.126 64.5677 284.247C64.8092 284.367 65.0506 284.487 65.2921 284.608ZM68.0686 284.247C68.31 284.287 68.5112 284.327 68.7526 284.367C68.7526 283.886 68.6721 283.405 68.6319 282.924C68.4709 282.924 68.3502 282.924 68.1893 282.924C68.149 283.365 68.1088 283.766 68.0283 284.207L68.0686 284.247ZM63.5215 337.039C63.5215 337.039 63.5618 336.758 63.5215 336.638C63.4813 336.558 63.2801 336.598 63.1594 336.558C63.1594 336.758 63.1594 336.999 63.1594 337.199C63.2801 337.119 63.4008 337.079 63.5215 336.999V337.039ZM70.7646 279.717C70.7646 279.717 70.7646 279.477 70.7646 279.316C70.6036 279.397 70.4427 279.517 70.2817 279.597C70.3622 279.677 70.4024 279.797 70.4829 279.918C70.5634 279.837 70.6841 279.757 70.7646 279.717ZM104.646 231.054L104.565 231.375L104.887 231.255L104.646 231.014V231.054ZM69.1952 291.703C69.3562 291.502 69.4769 291.382 69.5976 291.222C69.4769 291.222 69.3562 291.181 69.2355 291.141C69.2355 291.262 69.2355 291.422 69.1952 291.662V291.703ZM70.2415 318.359V318.76L70.5231 318.519L70.2415 318.359ZM100.421 310.182H100.179L100.34 310.462L100.461 310.182H100.421ZM65.2921 193.976L65.2116 194.296L65.4932 194.216L65.2518 193.976H65.2921ZM70.322 323.009L70.5231 322.688H70.2012L70.322 323.009ZM51.8522 205.56L51.9729 205.841L52.1339 205.56H51.8522Z" fill="#FF1F1F"/>
<path d="M362.418 138.178C361.13 139.14 359.842 140.142 358.555 141.104L358.635 141.024C358.273 141.384 357.911 141.745 357.589 142.066C355.657 142.988 353.766 143.95 351.835 144.872L351.875 144.952C351.513 145.313 351.191 145.633 350.829 145.994L350.748 145.954C347.972 146.475 346.483 148.6 345.034 150.724L345.075 150.764C344.511 150.604 343.666 150.123 343.384 150.323C341.252 151.967 339.28 153.771 337.228 155.534L337.268 155.494C335.216 155.494 334.612 156.777 334.532 158.541H334.25L334.492 158.461C336.383 158.902 336.101 160.064 335.457 161.347C335.256 161.507 335.095 161.707 334.894 161.868C335.055 161.667 335.216 161.467 335.377 161.307C336.665 162.95 336.705 164.634 335.015 165.957C325.518 173.292 317.511 182.512 306.445 187.763C301.656 190.048 296.828 191.651 290.711 189.927C293.126 187.161 295.258 184.716 297.431 182.271C297.23 181.991 297.029 181.71 296.788 181.469C295.5 182.191 294.172 182.872 292.925 183.634C291.396 184.556 289.987 184.877 288.539 183.474C286.486 181.509 284.595 181.87 282.664 183.754C281.094 185.277 279.243 185.277 277.312 184.275C276.346 183.754 275.26 183.033 274.294 183.113C271.477 183.353 271.719 180.668 270.189 179.265C268.54 179.505 266.689 179.746 263.952 180.106C264.958 178.944 265.321 178.222 265.884 177.942C268.62 176.659 269.948 174.254 271.759 172.009C279.082 162.99 280.048 151.726 283.388 141.384C287.291 129.359 290.39 117.093 293.81 104.907C293.89 104.586 293.971 104.306 294.051 103.985C295.58 98.6139 295.419 98.0126 289.866 96.9303C282.06 95.4071 274.817 92.5209 267.493 89.5947C263.188 87.871 258.52 87.1095 254.094 85.6263C246.006 82.9005 244.96 80.776 246.972 72.3181C247.092 71.8371 247.253 71.3962 247.374 70.9552L247.454 70.8751C249.064 69.7928 250.513 68.4299 252.243 67.7485C259.405 64.9826 266.528 62.0163 273.891 59.972C285.239 56.7652 296.788 54.1596 308.296 51.514C311.354 50.8326 313.004 49.2693 314.05 46.5034C314.774 44.5793 315.982 42.8557 316.947 41.0519L316.988 41.092C317.47 38.8072 317.631 36.3619 318.476 34.2374C321.293 27.3027 324.311 20.4482 327.329 13.5937C329.542 8.66327 333.164 4.8552 337.469 1.68849C339.401 0.285519 341.815 -0.235511 343.827 0.886867C348.294 3.41222 352.961 5.37634 357.871 6.73923C363.826 8.4228 368.051 12.5515 372.035 17.001C371.874 17.1613 371.713 17.2815 371.632 17.3216C371.673 17.2414 371.834 17.0812 371.954 16.9208C375.495 19.8069 378.393 23.1339 379.559 27.7437C379.922 29.1066 380.767 30.3493 381.37 31.6721C383.865 37.1637 387.285 39.8894 394.086 38.767C400.162 37.7649 406.6 38.3662 412.837 38.8873C419.477 39.4084 425.593 41.573 430.985 45.9423C433.52 47.9866 436.82 49.2693 439.958 50.4719C443.419 51.8348 446.678 53.3981 449.415 56.0036C451.467 57.9678 453.962 59.4509 456.255 61.1345C458.428 62.7379 459.313 65.0628 458.026 67.4678C455.249 72.719 451.95 77.6094 447.081 81.2972C440.562 86.2276 434.003 91.1581 427.484 96.0484C425.03 97.8923 422.615 99.6961 420.161 101.5C419.517 101.981 418.793 102.382 418.229 102.943C414.688 106.43 413.481 108.595 417.988 113.245C422.253 110.72 426.559 108.114 430.905 105.508L430.864 105.468C428.128 107.633 425.472 109.958 422.575 111.922C418.793 114.447 418.35 115.289 420.281 119.338C421.931 122.825 423.903 126.152 425.432 129.64C426.921 133.127 428.048 136.735 429.255 140.022C425.673 143.589 421.569 140.663 418.028 142.387C418.551 143.309 418.994 144.03 419.718 145.233C417.143 144.351 415.05 143.669 412.958 142.868C407.324 140.703 401.731 138.458 396.098 136.294C395.655 136.133 395.172 136.013 394.689 135.973C390.102 135.612 385.475 135.131 380.887 134.971C379.6 134.931 378.272 135.893 376.944 136.374L376.984 136.454C376.863 135.732 376.743 135.011 376.501 133.408C373.725 135.251 371.471 136.735 369.178 138.218L369.258 138.298C368.896 137.336 368.534 136.374 368.172 135.412L368.212 135.372C366.924 136.334 365.637 137.296 364.349 138.258C363.665 138.298 362.981 138.298 362.297 138.298L362.418 138.178ZM325.8 85.3057L325.76 85.2656H325.8V85.3057ZM309.382 104.627L309.342 104.587H309.382V104.627ZM336.423 142.186C336.101 142.507 335.779 142.828 335.457 143.148C335.337 143.148 335.216 143.148 335.095 143.228C335.015 143.268 335.015 143.389 334.974 143.509C335.135 143.389 335.256 143.268 335.417 143.148C335.739 142.828 336.061 142.507 336.383 142.186L336.423 142.226V142.186ZM331.594 146.034C331.272 146.355 330.951 146.676 330.629 146.996C328.858 147.958 326.927 148.68 325.317 149.882C322.138 152.288 319.201 154.933 316.143 157.459C315.177 158.3 313.889 158.982 315.016 160.745C315.378 159.623 315.74 158.501 316.102 157.378C317.47 157.138 319.12 157.258 320.207 156.577C324.231 154.011 328.375 151.446 330.629 146.916C330.951 146.596 331.272 146.275 331.594 145.914L331.635 145.954L331.594 146.034ZM281.336 157.579H281.376C281.376 157.899 281.376 158.26 281.416 158.621C280.974 159.423 280.491 160.224 280.048 160.986C280.29 161.066 280.531 161.146 280.772 161.227C280.974 160.345 281.175 159.463 281.376 158.581C281.376 158.26 281.376 157.94 281.336 157.579ZM329.663 159.503C329.663 159.823 329.623 160.184 329.582 160.505C329.301 161.146 328.979 161.748 328.697 162.389L328.657 162.349C328.939 161.748 329.261 161.186 329.542 160.585C329.542 160.224 329.542 159.864 329.582 159.463L329.663 159.543V159.503ZM413.722 122.745V123.026V122.785L413.602 122.585L413.763 122.745H413.722ZM319.925 113.245L320.086 113.044L320.006 113.325H319.965L319.925 113.245ZM321.897 171.969L321.696 172.049L321.857 171.929H321.897V171.969ZM338.395 38.4063C338.073 39.3282 337.711 40.2502 337.389 41.1722H337.349C337.671 40.2101 338.033 39.2881 338.355 38.3662L338.435 38.1257V38.4063H338.395ZM328.657 79.6537H328.697C328.979 79.814 329.301 80.0546 329.582 80.2951C329.663 80.1748 329.703 80.0946 329.784 79.9743C329.421 79.8541 329.019 79.7739 328.657 79.6937V79.6537ZM322.017 167.199C322.259 166.838 322.46 166.478 322.178 166.959C322.339 166.397 322.219 166.798 322.098 167.239H321.816H322.058L322.017 167.199ZM306.525 110.279C305.962 110.479 305.399 110.719 304.795 110.92C304.916 111.16 305.077 111.401 305.198 111.601C305.64 111.12 306.083 110.679 306.525 110.198C306.686 110.8 306.807 111.361 307.089 112.363C308.095 110.76 308.537 109.838 306.525 110.279ZM320.891 131.524C322.339 130.722 323.305 129.68 322.098 127.756C321.736 129.038 321.333 130.321 320.971 131.604C320.73 131.764 320.529 131.924 320.287 132.085C320.448 132.165 320.649 132.285 320.81 132.365C320.81 132.085 320.81 131.804 320.851 131.524H320.891ZM302.662 127.836C300.53 129.76 300.248 132.325 299.886 134.891C300.208 134.971 300.53 135.091 300.852 135.171C301.415 132.726 302.019 130.241 302.582 127.796C302.622 127.555 302.662 127.315 302.703 127.074C302.703 127.315 302.662 127.595 302.622 127.836H302.662ZM315.217 129.76C313.044 131.724 313.084 134.289 312.964 136.775C313.286 136.855 313.567 136.895 313.889 136.975C314.332 134.53 314.734 132.125 315.177 129.68L315.298 129.479V129.76H315.217ZM343.103 73.8012L343.063 73.8413C342.218 74.4025 340.97 74.8034 340.608 75.6051C339.924 77.1684 339.682 78.9723 339.28 80.6558C338.274 81.5778 337.308 82.4997 336.302 83.4217C336.705 80.8162 337.067 78.2106 337.469 75.6051C334.854 79.0123 333.164 84.9449 333.405 87.6707C334.411 86.1875 335.377 84.7444 336.343 83.3414C336.141 85.9069 334.492 88.312 335.498 91.2783C339.119 87.3901 340.045 84.6242 339.2 80.6157C341.815 79.0925 342.298 76.3666 343.103 73.8012ZM305.399 165.275L305.439 165.235C305.037 165.916 304.634 166.638 303.95 167.841C309.463 165.235 309.986 164.754 311.153 161.587C309.02 162.95 307.209 164.113 305.399 165.275ZM338.274 118.095L338.234 118.135C338.676 118.015 339.159 117.855 339.602 117.734C341.574 117.293 343.465 116.612 343.626 114.247C343.787 111.641 341.252 111.561 339.723 110.72C338.153 109.878 336.222 109.236 334.894 111C331.635 115.209 330.267 120.099 330.025 125.471C332.319 124.388 334.21 123.106 335.457 120.981C336.423 120.019 337.389 119.017 338.355 118.055L338.274 118.095ZM362.418 84.5039C362.096 83.1811 361.774 81.8984 361.452 80.5756H361.412C360.567 79.2929 359.601 78.0102 358.836 76.6473C357.911 74.9638 357.146 73.2 356.221 71.5565C354.048 67.5881 351.11 67.3877 348.535 70.9953C348.173 71.5164 347.851 72.0776 347.61 72.6788C345.598 77.6895 343.586 82.7402 341.654 87.7909C340.97 89.5547 340.568 91.3985 339.884 93.7635C342.781 94.926 345.356 96.0485 348.052 96.9704C351.231 98.0527 354.45 98.9345 357.669 99.9367L357.347 100.017L357.629 99.8564C358.394 100.017 359.198 100.337 359.963 100.297C364.751 100.017 367.327 95.7678 365.395 91.4387C364.389 89.1137 363.383 86.7887 362.377 84.4638L362.458 84.5441L362.418 84.5039ZM411.751 63.0185C410.101 62.4573 408.693 61.5352 407.365 61.6555C404.669 61.8158 402.013 62.5374 399.357 63.0986C397.224 63.5395 395.575 64.9425 396.138 67.067C396.621 68.8708 398.23 70.394 399.478 71.9573C399.639 72.1578 401.087 71.7971 401.128 71.6367C401.45 68.9109 403.985 69.472 405.514 68.6703C407.807 67.548 410.262 66.7062 411.751 63.0585V63.0185ZM292.361 176.739C295.178 176.339 298.196 174.695 299.846 172.45C300.49 171.608 300.53 170.326 301.174 168.241C296.747 170.566 293.166 171.969 292.361 176.739ZM300.288 117.213C299.966 117.093 299.604 117.013 299.282 116.892C297.15 119.739 296.063 125.631 297.19 130.441C298.357 125.431 299.323 121.342 300.288 117.213ZM297.794 80.4153C297.633 80.8963 297.472 81.4174 297.311 81.8984C298.156 82.179 299.041 82.4997 299.886 82.7803C300.047 82.2592 300.208 81.7381 300.409 81.2169C299.564 80.9764 298.679 80.6958 297.834 80.4553L297.794 80.4153ZM325.88 162.309C325.317 161.788 324.915 161.267 324.754 161.307C324.271 161.507 323.828 161.948 323.386 162.269C323.627 162.589 323.949 163.151 324.15 163.111C324.673 163.03 325.116 162.669 325.88 162.269V162.309ZM315.66 124.789L316.706 125.27C316.947 124.549 317.229 123.827 317.47 123.106C317.229 122.985 316.988 122.905 316.746 122.785C316.384 123.466 316.022 124.148 315.66 124.829V124.789ZM319.523 116.331C318.597 116.852 318.155 117.013 318.155 117.133C318.195 117.614 318.396 118.095 318.517 118.576C318.758 118.015 319.04 117.414 319.523 116.291V116.331ZM302.139 177.22C301.938 177.461 301.737 177.661 301.536 177.902C301.737 178.022 301.978 178.182 302.22 178.222C302.3 178.222 302.542 177.982 302.502 177.902C302.421 177.661 302.26 177.461 302.139 177.22ZM370.425 131.764C370.304 131.965 370.143 132.165 370.023 132.405C370.143 132.486 370.385 132.606 370.385 132.606C370.546 132.405 370.667 132.205 370.787 132.005C370.667 131.924 370.546 131.884 370.425 131.804V131.764ZM310.63 171.929C310.63 171.929 310.429 171.689 310.308 171.729C310.187 171.729 310.066 171.849 309.946 171.929C310.107 172.049 310.268 172.17 310.429 172.29C310.469 172.17 310.549 172.049 310.59 171.929H310.63ZM307.049 174.214L307.37 174.414V174.014L307.049 174.174V174.214ZM324.593 121.903V121.542L324.311 121.663L324.593 121.903ZM313.688 122.504L313.527 122.785H313.809L313.688 122.504Z" fill="#FF1F1F"/>
<path d="M58.2114 347.981C57.4468 349.103 56.6823 350.266 55.4751 352.11C54.8715 349.103 56.1994 347.62 57.2859 346.057L57.2456 345.977C57.6078 346.658 57.9297 347.339 58.2918 347.981H58.2516H58.2114Z" fill="#FF1F1F"/>
<path d="M158.727 231.574C159.854 229.249 160.94 226.925 162.067 224.6L163.073 225.161C161.624 227.285 160.136 229.37 158.687 231.494L158.727 231.534V231.574Z" fill="#FF1F1F"/>
<path d="M166.453 201.751L168.424 200.909V200.829C167.459 202.713 166.493 204.557 165.527 206.441L165.567 206.481C164.119 204.918 164.36 203.354 165.447 201.711C165.809 201.671 166.171 201.671 166.533 201.671L166.453 201.751Z" fill="#FF1F1F"/>
<path d="M366.402 466.272C367.569 464.629 368.736 463.025 369.903 461.382C370.064 463.987 368.535 465.31 366.362 466.192L366.442 466.272H366.402Z" fill="#FF1F1F"/>
<path d="M63.2391 314.429C62.5148 312.665 61.9917 310.901 63.9635 309.218C63.722 310.941 63.4403 312.665 63.1989 314.389L63.2794 314.429H63.2391Z" fill="#FF1F1F"/>
<path d="M358.634 146.875C359.801 146.234 360.968 145.633 362.497 144.791C361.907 146.581 360.606 147.29 358.594 146.916H358.634V146.875Z" fill="#FF1F1F"/>
<path d="M351.111 153.81C350.548 154.211 349.985 154.611 349.461 155.052C349.22 154.772 348.938 154.491 348.697 154.211C349.26 153.77 349.824 153.329 350.387 152.888C350.628 153.208 350.87 153.529 351.111 153.85V153.81Z" fill="#FF1F1F"/>
<path d="M317.995 354.554L315.5 358.282C315.218 358.041 314.977 357.801 314.695 357.6C315.822 356.598 316.948 355.636 318.075 354.634C318.075 354.634 317.995 354.554 318.035 354.554H317.995Z" fill="#FF1F1F"/>
<path d="M64.0453 292.104C64.6086 293.106 65.1317 294.148 65.6951 295.15C63.4417 294.749 64.3672 293.186 64.1257 292.063L64.0453 292.104Z" fill="#FF1F1F"/>
<path d="M456.255 305.652C457.181 304.089 458.146 302.525 459.072 300.962L459.032 300.922C458.066 302.485 457.14 304.049 456.175 305.612L456.255 305.692V305.652Z" fill="#FF1F1F"/>
<path d="M360.486 466.273C362.458 466.273 364.43 466.273 366.442 466.273L366.361 466.192C364.711 468.317 362.579 467.555 360.526 467.195V467.275C360.567 466.914 360.567 466.593 360.567 466.233L360.486 466.313V466.273Z" fill="#FF1F1F"/>
<path d="M364.431 142.066C366.081 140.783 367.691 139.541 369.341 138.258L369.26 138.178C367.651 139.46 366.001 140.743 364.391 142.026L364.431 142.066Z" fill="#FF1F1F"/>
<path d="M195.427 167.079C196.393 165.515 197.399 163.992 198.365 162.429L198.324 162.349C197.359 163.912 196.353 165.475 195.387 166.998L195.427 167.038V167.079Z" fill="#FF1F1F"/>
<path d="M445.552 85.3037C446.075 85.0231 446.598 84.7425 447.121 84.502L447.282 85.1032C446.678 85.1433 446.075 85.2235 445.471 85.2636H445.512L445.552 85.3037Z" fill="#FF1F1F"/>
<path d="M60.4646 314.755H60.1021C60.1021 314.755 60.1021 314.473 60.1424 314.352C60.1424 314.312 60.384 314.352 60.5049 314.352C60.5049 314.473 60.5049 314.634 60.5049 314.755H60.4646Z" fill="#FF1F1F"/>
<path d="M463.94 414.322C462.652 413.36 461.325 412.358 460.037 411.396V411.476C461.325 412.438 462.612 413.4 463.9 414.362H463.98L463.94 414.322Z" fill="#FF1F1F"/>
<path d="M456.176 305.572C455.653 306.294 455.089 306.975 454.566 307.697C454.446 307.577 454.325 307.496 454.204 307.376C454.888 306.815 455.572 306.214 456.256 305.653L456.176 305.572Z" fill="#FF1F1F"/>
<path d="M304.07 201.593L303.828 201.835L303.748 201.513L304.07 201.593Z" fill="#FF1F1F"/>
<path d="M295.703 388.789L295.984 389.071L295.622 389.152L295.703 388.789Z" fill="#FF1F1F"/>
<path d="M126.779 286.291C126.256 286.01 125.692 285.729 125.169 285.489C125.25 285.329 125.29 285.128 125.37 284.968C125.853 285.128 126.296 285.329 126.779 285.489L126.738 285.449C126.738 285.769 126.738 286.05 126.738 286.371L126.779 286.331V286.291Z" fill="#FF1F1F"/>
<path d="M62.1137 355.037C62.1137 355.037 61.8317 355.038 61.7512 354.997C61.6706 354.917 61.6706 354.756 61.6303 354.635C61.8317 354.635 62.0331 354.635 62.2345 354.675C62.2345 354.796 62.154 354.917 62.154 355.037H62.1137Z" fill="#FF1F1F"/>
<path d="M353.808 150.724C354.13 150.482 354.452 150.241 354.09 150.523C354.492 150.361 354.09 150.523 353.727 150.684L353.767 150.724H353.808Z" fill="#FF1F1F"/>
<path d="M377.025 136.333C376.703 136.494 376.381 136.615 376.824 136.414C376.34 136.494 376.743 136.414 377.106 136.414L377.065 136.333H377.025Z" fill="#FF1F1F"/>
<path d="M360.486 141.104C359.52 141.424 358.554 141.745 357.589 142.066C357.951 141.705 358.313 141.344 358.635 141.023L358.554 141.104C359.198 141.104 359.882 141.104 360.526 141.104H360.486Z" fill="#FF1F1F"/>
<path d="M92.4132 361.691L92.4938 362.054L92.1715 361.933L92.4132 361.691Z" fill="#FF1F1F"/>
<path d="M464.827 292.104C464.183 292.745 463.499 293.426 462.855 294.068H462.935C462.935 293.386 462.935 292.705 462.935 292.063L462.855 292.144C463.539 292.144 464.223 292.144 464.867 292.144V292.063L464.827 292.104Z" fill="#FF1F1F"/>
<path d="M57.2854 346.057C57.6073 346.057 57.9292 346.017 58.2511 345.977C57.889 345.977 57.567 345.977 57.2049 345.977V346.057H57.2854Z" fill="#FF1F1F"/>
<path d="M69.8012 299.721C69.6804 299.962 69.5998 300.164 69.5595 300.244C69.5998 300.164 69.7206 299.962 69.8818 299.761L69.8415 299.721H69.8012Z" fill="#FF1F1F"/>
<path d="M360.487 467.194C360.326 467.435 360.165 467.715 360.044 467.956C359.883 467.715 359.722 467.435 359.561 467.194L359.521 467.274C359.883 467.274 360.205 467.274 360.567 467.274L360.527 467.194H360.487Z" fill="#FF1F1F"/>
<path d="M91.0453 358.403C91.0453 357.481 91.1258 356.56 91.1661 355.638H91.1258C91.1258 356.56 91.0453 357.441 91.0453 358.363V358.444V358.403Z" fill="#FF1F1F"/>
<path d="M173.215 199.789V199.106C173.215 199.106 173.335 199.307 173.295 199.387C173.295 199.508 173.215 199.588 173.134 199.708L173.174 199.748L173.215 199.789Z" fill="#FF1F1F"/>
<path d="M182.831 170.847L182.952 171.089L182.911 170.807L182.831 170.847Z" fill="#FF1F1F"/>
<path d="M168.425 200.912L168.466 200.63L168.385 200.831L168.425 200.912Z" fill="#FF1F1F"/>
<path d="M198.324 162.428C198.606 161.747 198.888 161.105 199.21 160.424L199.169 160.384C198.888 161.065 198.606 161.707 198.324 162.388L198.365 162.468L198.324 162.428Z" fill="#FF1F1F"/>
<path d="M459.917 298.717C459.635 299.438 459.313 300.16 459.032 300.882L459.072 300.922C459.353 300.2 459.675 299.479 459.957 298.757L459.917 298.677V298.717Z" fill="#FF1F1F"/>
<path d="M167.338 216.143L167.58 215.941L167.378 216.102L167.338 216.143Z" fill="#FF1F1F"/>
<path d="M123.881 297.915L123.801 298.114L123.961 297.955L123.881 297.915Z" fill="#FF1F1F"/>
<path d="M200.295 159.343C200.577 158.742 200.899 158.14 201.18 157.539V157.499C200.858 158.1 200.537 158.702 200.255 159.303L200.295 159.343Z" fill="#FF1F1F"/>
<path d="M339.481 156.617L339.643 156.416L339.401 156.658L339.481 156.617Z" fill="#FF1F1F"/>
<path d="M58.2506 345.977C58.2506 346.658 58.2506 347.299 58.2506 347.981H58.2908C58.2908 347.299 58.2908 346.618 58.2908 345.977H58.2506Z" fill="#FF1F1F"/>
<path d="M127.824 287.414L128.025 287.495L127.864 287.374L127.824 287.414Z" fill="#FF1F1F"/>
<path d="M431.99 351.751C431.708 351.07 431.386 350.429 431.105 349.747L431.065 349.787C431.386 350.428 431.668 351.11 431.99 351.751Z" fill="#FF1F1F"/>
<path d="M91.0051 358.363L90.9648 358.645L91.0453 358.403L91.0051 358.363Z" fill="#FF1F1F"/>
<path d="M364.431 138.178C363.746 138.178 363.103 138.178 362.419 138.178V138.218C363.103 138.218 363.787 138.218 364.471 138.218L364.431 138.178Z" fill="#FF1F1F"/>
<path d="M127.825 284.367C127.463 284.728 127.101 285.089 126.739 285.449L126.779 285.49C127.141 285.129 127.503 284.768 127.865 284.407L127.825 284.367Z" fill="#FF1F1F"/>
<path d="M126.739 286.332C127.101 286.693 127.463 287.054 127.825 287.414L127.865 287.374C127.503 287.014 127.141 286.653 126.779 286.292L126.739 286.332Z" fill="#FF1F1F"/>
<path d="M167.378 216.103L167.338 216.344V216.143L167.378 216.103Z" fill="#FF1F1F"/>
<path d="M164.482 207.525C164.844 207.164 165.166 206.843 165.528 206.482L165.488 206.442C165.126 206.803 164.804 207.124 164.442 207.485L164.482 207.525Z" fill="#FF1F1F"/>
<path d="M172.208 200.789C172.53 200.469 172.892 200.108 173.214 199.747L173.174 199.707C172.812 200.028 172.49 200.388 172.128 200.709L172.168 200.749L172.208 200.789Z" fill="#FF1F1F"/>
<path d="M199.209 160.423C199.571 160.062 199.933 159.702 200.296 159.341L200.255 159.301C199.893 159.662 199.531 160.022 199.169 160.383L199.209 160.423Z" fill="#FF1F1F"/>
<path d="M454.202 340.205L454.082 340.285L454.202 340.205Z" fill="#FF1F1F"/>
<path d="M339.401 156.657C339.08 156.657 338.717 156.576 338.395 156.536H338.355C338.717 156.617 339.12 156.617 339.482 156.657H339.401Z" fill="#FF1F1F"/>
<path d="M338.394 156.536C338.032 156.176 337.669 155.815 337.307 155.454L337.267 155.494C337.629 155.855 337.991 156.216 338.354 156.576L338.394 156.536Z" fill="#FF1F1F"/>
<path d="M358.595 146.875L358.434 146.915L358.635 146.875H358.595Z" fill="#FF1F1F"/>
<path d="M351.836 144.872C351.473 145.233 351.111 145.594 350.789 145.914L350.87 145.954C351.232 145.594 351.554 145.273 351.916 144.912V144.832L351.836 144.872Z" fill="#FF1F1F"/>
<path d="M301.657 370.989C301.616 370.669 301.616 370.348 301.657 370.027C301.657 370.388 301.657 370.709 301.657 371.069L301.737 370.989H301.657Z" fill="#FF1F1F"/>
<path d="M301.617 372.032C301.617 371.672 301.617 371.351 301.617 370.99L301.537 371.07C301.899 371.07 302.221 371.07 302.583 371.07V370.99C302.583 371.351 302.583 371.712 302.583 372.072L302.663 371.992C302.301 371.992 301.939 371.992 301.577 371.992H301.657L301.617 372.032Z" fill="#FF1F1F"/>
<path d="M445.431 374.798C445.753 374.798 446.115 374.879 446.437 374.879L446.477 374.838C446.115 374.838 445.713 374.798 445.35 374.758H445.391L445.431 374.798Z" fill="#FF1F1F"/>
<path d="M431.952 104.546C431.63 104.867 431.308 105.187 430.986 105.508L431.026 105.548C431.348 105.227 431.67 104.907 431.992 104.546L431.952 104.506V104.546Z" fill="#FF1F1F"/>
<path d="M391.47 351.829C389.861 349.584 388.211 347.299 386.601 345.054C386.642 343.772 386.682 342.489 386.722 341.206L386.682 341.246C387.004 341.206 387.326 341.166 387.648 341.126C388.935 344.694 390.223 348.261 391.51 351.829H391.47Z" fill="#FF1F1F"/>
<path d="M416.581 311.344L415.535 312.386C415.897 312.025 416.259 311.664 416.581 311.344Z" fill="#FF1F1F"/>
<path d="M413.682 313.269C413.32 313.629 412.958 313.99 412.636 314.311C412.998 313.95 413.361 313.589 413.682 313.269Z" fill="#FF1F1F"/>
<path d="M385.595 340.245C385.957 340.606 386.279 340.927 386.641 341.287C386.641 341.287 386.681 341.247 386.722 341.247C386.359 340.886 385.997 340.566 385.675 340.205L385.635 340.245H385.595Z" fill="#FF1F1F"/>
<path d="M320.893 376.845C320.893 376.484 320.893 376.163 320.893 375.803C321.255 375.803 321.577 375.803 321.939 375.803C321.577 376.163 321.255 376.484 320.893 376.845Z" fill="#FF1F1F"/>
<path d="M57.2854 233.499C58.6133 232.016 59.9412 230.493 61.2691 229.01L62.0738 229.852C60.4643 231.054 58.8547 232.257 57.2049 233.459L57.2451 233.499H57.2854Z" fill="#FF1F1F"/>
<path d="M65.0115 227.606L64.9712 227.848V227.687L65.0115 227.606Z" fill="#FF1F1F"/>
<path d="M122.994 173.854C122.632 173.854 122.27 173.854 121.948 173.854C122.31 173.493 122.632 173.172 122.994 172.812C122.994 173.172 122.994 173.533 122.994 173.854Z" fill="#FF1F1F"/>
<path d="M61.1075 217.145C61.1075 216.784 61.1075 216.463 61.1075 216.103C61.7915 216.103 62.4756 216.103 63.1596 216.103C62.4756 216.463 61.7915 216.784 61.1075 217.145Z" fill="#FF1F1F"/>
<path d="M335.458 120.9L335.297 120.819L335.417 120.9H335.458Z" fill="#FF1F1F"/>
</svg>
