<svg width="482" height="495" viewBox="0 0 482 495" fill="none" xmlns="http://www.w3.org/2000/svg">
<path d="M359.198 27.9992C355.617 27.2376 355.013 23.7102 353.605 21.265C352.075 18.5392 350.828 16.2143 347.005 16.8556C346.683 14.2902 346.482 12.286 346.201 10.2417C345.838 7.31546 345.436 7.03482 342.619 7.19516C340.889 7.31541 339.159 7.19516 336.986 7.19516C335.859 8.79855 334.652 11.4041 331.352 9.72054C330.95 9.52011 329.863 10.5623 328.737 11.2036C327.691 7.55592 326.725 4.3091 325.759 0.98204C323.023 1.46306 322.822 3.06639 323.063 4.66978C323.465 7.15506 323.063 9.23952 321.695 11.4843C320.81 12.9674 320.729 15.172 320.85 17.056C321.695 30.284 322.661 43.5122 323.586 56.7402C323.707 58.5039 323.465 60.2677 323.747 61.9913C324.19 64.7972 324.874 67.563 325.477 70.3289C325.477 68.966 325.477 67.6031 325.477 66.2002C325.799 66.2002 326.121 66.2803 326.443 66.3204C326.121 67.6432 325.759 68.9661 325.437 70.2488C325.518 71.6918 325.88 73.1749 325.598 74.5378C323.908 82.9155 324.109 91.3334 324.713 99.7914C324.954 103.479 323.586 104.722 319.965 104.802C318.114 104.842 316.222 105.203 314.371 105.363C313.285 105.443 311.997 105.764 311.072 105.363C307.169 103.519 303.265 104.121 299.282 104.842L299.322 104.802C297.793 107.127 296.264 109.492 294.735 111.817C296.546 115.785 297.23 120.395 301.253 123.041H301.173C301.535 123.081 301.897 123.081 302.259 123.081L302.179 123.001C302.179 123.361 302.179 123.722 302.179 124.083V124.003C302.179 124.363 302.179 124.684 302.179 125.045C303.346 125.526 304.674 125.806 305.68 126.528C310.669 130.256 315.659 134.064 320.528 137.952C321.896 139.034 324.069 139.796 323.747 142.762C321.534 141.961 319.562 141.239 317.591 140.478L317.671 140.397C318.516 141.159 319.281 142.001 320.206 142.642C324.311 145.448 326.564 148.936 324.874 154.066C324.673 154.668 324.713 155.349 324.793 155.99C326.242 165.531 324.029 175.111 325.156 184.691C325.437 187.056 324.954 189.461 324.834 191.866C324.471 199.483 326.363 206.818 327.57 214.234C328.214 218.322 328.375 222.491 329.099 226.54C329.501 228.825 329.944 231.51 331.393 233.114C333.606 235.519 336.463 237.643 339.481 238.926C341.211 239.648 344.148 239.086 345.838 238.004C350.385 235.078 355.335 233.434 360.485 232.192C361.572 231.951 362.739 231.39 363.745 231.591C368.211 232.392 371.551 230.348 374.448 227.462C381.088 220.968 388.009 214.675 392.717 206.457C393.24 205.535 394.166 204.814 395.333 203.611C397.546 204.934 399.759 206.137 401.851 207.54C409.456 212.63 416.78 218.162 424.627 222.812C430.622 226.38 436.9 229.586 444.465 229.506C449.012 229.466 453.599 230.989 458.186 231.591C459.675 231.791 461.325 231.51 462.814 231.11C465.751 230.348 468.608 229.386 471.505 228.504C472.592 228.183 473.759 228.063 474.724 227.542C482.249 223.413 483.537 219.285 478.99 213.953C478.386 213.232 477.984 212.31 477.34 211.588C473.96 207.58 470.58 203.571 466.596 198.881C466.998 201.046 467.24 202.409 467.521 203.772C467.441 204.413 467.401 205.014 467.361 205.656C467.361 206.056 467.361 206.497 467.361 206.898C470.218 209.063 471.706 212.029 472.994 215.997C469.815 213.031 469.212 211.989 467.401 206.818C467.401 206.457 467.401 206.056 467.401 205.696L467.602 203.732C466.596 203.451 465.59 203.21 464.584 202.93V202.85C463.94 204.493 463.256 204.293 462.572 202.85L462.653 202.93C461.969 202.569 461.325 202.248 460.641 201.888L460.721 201.968C461.365 201.607 462.009 201.286 462.653 200.926H462.572C462.371 198.881 461.445 197.318 459.635 196.276V196.196C459.715 196.957 459.755 197.719 459.836 199.042C458.749 198.561 457.824 198.44 457.542 197.959C454.283 192.628 449.615 188.098 448.126 181.725C447.845 181.043 447.523 180.322 447.241 179.64C446.597 178.678 445.953 177.756 445.269 176.794C444.947 176.273 444.666 175.752 444.344 175.191C444.465 175.151 444.625 175.071 444.746 175.031C444.907 175.632 445.028 176.233 445.189 176.835C445.833 177.797 446.517 178.719 447.161 179.681C447.442 180.362 447.764 181.083 448.086 181.765C449.253 182.527 450.38 183.288 451.547 184.05C451.788 183.889 452.029 183.729 452.271 183.569C450.219 179.921 448.287 176.193 446.074 172.586C440.642 163.647 434.485 155.068 430.743 145.208L430.783 145.248C430.783 143.003 430.783 140.718 430.743 138.473C430.421 137.792 430.139 137.07 429.817 136.389C429.133 136.75 428.409 137.11 427.725 137.511C427.564 137.311 427.403 137.11 427.242 136.87C428.087 135.828 428.972 134.745 429.817 133.703L429.898 133.463L429.777 133.663C429.777 134.585 429.777 135.507 429.777 136.429C430.099 137.11 430.381 137.832 430.703 138.513C432.151 137.672 433.6 136.83 435.209 135.908C434.324 133.663 433.519 131.699 432.715 129.735L432.634 129.815C433.519 129.294 433.962 127.41 435.531 128.853L435.572 128.813C435.531 129.534 435.451 130.216 435.411 130.937C435.733 131.058 436.055 131.218 436.376 131.338C437.302 129.815 438.388 128.412 439.153 126.809C440.481 124.003 442.211 121.638 445.108 120.275L445.068 120.315C445.309 119.593 445.269 118.431 445.792 118.15C448.569 116.547 449.615 113.821 450.339 111.055C452.271 103.599 456.053 97.306 461.123 91.5739C463.659 88.7278 465.59 85.3608 467.682 82.154C468.206 81.3122 468.286 80.1898 468.648 79.0274C466.234 78.3059 464.986 79.6286 463.659 80.7109H463.578C465.067 80.9915 465.992 81.6729 464.986 83.2363C463.82 85.1203 462.492 86.9642 460.721 89.5296C460.238 86.8439 459.957 85.2004 459.675 83.5569V83.6371C457.301 83.6371 454.927 83.6371 452.553 83.7574C448.73 83.9177 444.907 84.1983 441.688 84.3988C439.314 82.9156 437.423 81.5526 435.411 80.4303C431.508 78.3058 427.564 76.3016 423.621 74.2171C421.609 73.1349 419.919 73.8965 418.188 74.8184C414.527 76.7826 410.865 78.7868 407.123 80.5906C404.99 81.6328 402.696 82.3143 400.805 83.0759C397.868 81.5927 397.787 77.3037 393.924 77.8649H393.964C393.602 78.6265 393.24 79.3882 392.476 81.0316C388.21 75.4198 386.158 69.2466 382.295 64.276L382.255 64.5165L382.376 64.3162C380.203 60.8288 377.788 57.5018 375.897 53.8541C373.322 48.8434 371.109 43.5923 368.855 38.702C368.734 39.0627 368.493 39.8644 368.131 41.1872C365.717 39.4235 364.952 36.9783 363.664 34.934C362.377 32.9297 361.29 30.8052 360.083 28.7609L360.164 28.841C359.801 28.4802 359.479 28.1596 359.117 27.7989L359.158 27.879L359.198 27.9992ZM320.568 119.353C320.568 119.032 320.568 118.671 320.568 118.351C321.011 118.351 321.413 118.311 321.856 118.27C321.735 118.631 321.614 118.952 321.534 119.313C321.534 119.673 321.534 120.034 321.534 120.395C322.017 120.595 322.5 120.796 322.942 120.996C322.862 121.117 322.781 121.237 322.741 121.317C322.379 120.996 321.977 120.635 321.614 120.315C321.293 119.994 320.971 119.673 320.608 119.393L320.568 119.353ZM395.936 124.163L395.856 124.083C395.534 124.083 395.252 124.083 394.93 124.083C393.052 122.132 392.771 120.328 394.085 118.671C396.057 120.315 395.333 122.279 394.89 124.163C395.252 124.163 395.614 124.163 395.936 124.163ZM436.457 124.083H436.497C436.819 123.522 437.101 122.88 437.423 122.239C437.785 121.918 438.107 121.557 438.469 121.237L438.549 120.996L438.388 121.157C438.066 121.477 437.704 121.838 437.382 122.159C437.061 122.8 436.779 123.401 436.457 124.043V124.083ZM440.32 117.349H440.36L440.481 117.188L440.32 117.349ZM438.308 114.663L438.348 114.623C438.348 114.262 438.348 113.861 438.348 113.5C438.348 113.5 438.308 113.46 438.348 113.46C438.348 113.861 438.348 114.302 438.348 114.703L438.308 114.663ZM366.924 183.769L366.803 183.89L366.964 183.809C366.964 183.809 367.165 183.609 367.246 183.489C367.125 183.569 367.044 183.649 366.924 183.769ZM394.85 147.092V147.412L394.89 147.172C394.89 146.25 394.89 145.328 394.89 144.406C393.884 145.849 392.918 147.372 391.832 148.695C390.343 150.499 388.733 152.182 387.164 153.946C387.043 155.63 386.399 156.872 384.629 157.273C383.1 154.146 383.341 153.144 386.279 150.218C386.641 146.33 388.572 143.243 391.55 140.718C391.389 141.64 391.188 142.522 391.027 143.444C392.274 142.442 393.482 141.44 395.413 139.876C395.212 142.001 395.091 143.203 394.97 144.366C395.292 145.368 395.574 146.33 395.896 147.332C396.017 147.573 396.137 147.773 396.298 148.014C396.178 147.773 396.097 147.533 395.976 147.292C395.614 147.252 395.252 147.212 394.85 147.172V147.092ZM432.634 210.706C432.433 210.546 432.192 210.426 431.99 210.265C432.192 210.426 432.393 210.586 432.594 210.746H432.634V210.706ZM356.381 83.8375C356.663 83.116 356.985 82.4345 357.266 81.713C357.266 79.7889 357.105 77.7847 359.962 77.1834C361.33 79.7488 362.497 82.4345 361.612 85.3206C360.807 87.9662 359.399 90.4115 358.313 92.8967C357.95 89.249 357.588 85.4409 357.226 81.6329C356.944 82.3544 356.622 83.0759 356.341 83.7574C356.26 83.9979 356.18 84.2383 356.18 84.3185C356.18 84.2784 356.301 84.0379 356.421 83.8375H356.381ZM465.51 209.624C465.228 209.303 464.946 208.983 465.268 209.343C465.027 208.902 465.268 209.303 465.429 209.664C466.033 209.784 466.596 209.905 467.2 209.985L465.952 211.027C465.791 210.546 465.671 210.065 465.51 209.584V209.624ZM387.244 200.164L387.204 200.124C386.842 200.926 386.48 201.727 386.118 202.529C385.917 202.369 385.675 202.208 385.474 202.048C386.078 201.407 386.681 200.805 387.244 200.164ZM386.319 211.708L386.238 211.628C385.836 212.951 385.474 214.314 383.542 214.234C383.422 211.989 384.75 211.668 386.279 211.708H386.319ZM372.839 223.093C371.189 224.736 369.539 226.38 367.889 227.983L367.97 228.063C368.372 225.257 369.66 223.333 372.799 223.173L372.919 223.493L372.839 223.133V223.093ZM416.217 183.809C418.711 185.453 421.045 187.216 421.609 191.666C417.263 188.098 413.682 185.172 409.456 181.725C411.026 181.284 411.71 181.124 412.394 180.923C411.562 178.117 412.273 176.3 414.527 175.472C416.498 177.957 417.303 180.683 416.217 183.809ZM380.484 152.944C380.122 155.99 377.989 155.67 376.34 154.587C373.845 152.984 371.27 151.22 371.109 147.613C371.068 146.37 370.223 145.208 369.74 144.005C369.097 146.21 368.895 148.214 365.998 147.252H366.038C365.435 147.292 364.509 147.693 364.348 147.492C361.29 143.885 359.761 136.71 364.791 133.022C366.401 133.663 368.091 134.304 369.781 134.986C369.499 133.302 368.694 132.22 367.809 131.218C366.924 130.136 365.998 129.093 365.073 128.051C364.147 125.646 363.423 123.241 364.992 120.756V128.091C365.153 127.65 365.435 127.169 365.435 126.728C365.274 120.395 369.177 118.07 374.69 117.228C375.817 117.068 376.903 116.787 377.989 116.507C380.404 115.946 382.416 116.226 383.784 118.631C384.146 119.313 384.87 119.794 385.393 120.355L385.313 120.275C387.003 123.121 388.492 126.087 390.383 128.733C391.993 130.937 392.113 133.302 391.107 135.387C389.136 139.475 386.641 143.324 384.387 147.252H384.428C384.347 149.897 382.295 151.341 380.565 152.984H380.525L380.484 152.944ZM348.534 130.817C348.132 129.655 344.913 129.775 347.126 127.41C347.569 126.969 347.207 125.406 346.764 124.604C346.201 123.602 345.154 122.84 344.189 121.798C346.482 119.914 348.293 120.395 350.224 121.477C351.07 124.804 350.868 127.811 348.575 130.817H348.534ZM363.906 86.9641C364.308 86.8439 364.711 86.7637 365.113 86.6435C366.28 88.6478 367.447 90.6119 368.533 92.6161C369.217 93.8988 369.861 95.3419 368.01 96.2639C366.28 97.1457 364.308 96.3441 363.986 94.2997C363.624 91.8946 363.906 89.4093 363.906 86.9641ZM345.114 86.1625C348.253 96.7048 348.293 98.5887 345.396 100.232C343.665 95.863 344.993 91.5339 345.114 86.1625ZM356.663 128.973C356.944 128.973 357.226 128.893 357.468 128.893V131.458C357.186 131.458 356.904 131.458 356.663 131.458V129.013V128.973ZM350.788 64.5567C350.305 63.9955 349.983 63.755 349.862 63.4343C349.782 63.2339 350.023 62.9133 350.144 62.6327C350.466 62.793 351.029 62.8732 351.11 63.1137C351.23 63.3943 350.989 63.8351 350.788 64.5567ZM356.381 97.0255C356.099 96.9453 355.858 96.8651 355.576 96.785C355.777 96.2238 355.979 95.6626 356.22 95.1014L356.824 95.3019C356.703 95.8631 356.542 96.4242 356.421 96.9854L356.381 97.0255ZM348.695 96.304C348.937 96.304 349.178 96.304 349.42 96.304V98.9496H348.575C348.615 98.0276 348.655 97.1457 348.695 96.2639V96.304ZM339.762 86.0423C339.521 86.0423 339.32 86.0422 339.078 86.0021C339.118 85.3608 339.159 84.7194 339.199 84.1181C339.44 84.1181 339.642 84.1182 339.883 84.1582C339.843 84.7996 339.803 85.441 339.762 86.0423ZM401.489 131.178C400.886 131.498 400.523 131.859 400.121 131.899C399.88 131.899 399.437 131.298 399.477 131.018C399.477 130.697 399.92 130.376 400.201 130.055C400.483 130.296 400.805 130.577 401.529 131.178H401.489ZM349.379 78.5463C349.379 78.5463 349.017 78.8671 348.856 79.0274C348.776 78.9071 348.575 78.7467 348.615 78.7066C348.776 78.5062 348.937 78.3459 349.098 78.1855C349.178 78.3058 349.259 78.3859 349.42 78.5463H349.379ZM392.234 125.205L392.315 125.486L392.033 125.406L392.234 125.205ZM335.98 151.341L336.302 151.14V151.541L335.98 151.341ZM428.087 207.7L428.369 207.82L428.127 207.981V207.66L428.087 207.7ZM325.638 60.9491C325.638 60.9491 325.638 60.6684 325.679 60.5081C325.84 60.6283 326.001 60.7486 326.081 60.9089C326.081 60.949 325.96 61.1094 325.88 61.2297C325.799 61.1094 325.719 61.0292 325.638 60.9089V60.9491ZM380.565 217.601C380.323 217.721 380.122 217.841 379.881 217.962C379.84 217.841 379.72 217.601 379.76 217.561C379.961 217.401 380.203 217.32 380.444 217.2C380.444 217.32 380.525 217.481 380.565 217.601ZM356.622 121.918L356.824 121.678L356.944 121.958H356.622V121.918ZM327.852 75.0589V75.7805H327.489C327.489 75.54 327.489 75.2994 327.489 75.0589H327.892H327.852ZM391.791 115.424L392.033 115.585L391.791 115.705V115.424ZM392.154 202.93V203.21L391.952 203.13L392.154 202.93ZM339.4 210.306C339.4 210.065 339.4 209.865 339.36 209.624C339.44 209.744 339.642 209.825 339.642 209.945C339.642 210.065 339.521 210.185 339.4 210.306Z" fill="#BE78FF"/>
<path d="M182.549 324.387C179.732 320.539 176.754 316.731 174.099 312.762C169.471 305.828 164.884 298.893 160.618 291.718C156.916 285.545 153.617 279.131 150.317 272.717C148.627 269.47 147.299 266.023 145.851 262.656L145.811 262.696C146.213 261.854 146.575 261.013 147.34 259.369C150.116 263.819 152.651 267.707 154.422 271.996C156.796 277.728 159.653 283.18 164.16 287.589H164.119C162.711 281.175 159.17 275.684 156.232 269.871C155.548 268.468 155.025 266.985 154.462 265.542C152.611 262.576 150.478 259.69 149.03 256.523C148.305 254.96 148.346 252.715 148.869 250.991C149.714 248.105 151.203 245.38 152.49 242.614C155.428 236.24 158.365 229.867 161.383 223.533C162.349 221.569 163.717 219.765 164.844 217.881C167.338 213.632 170.115 209.463 172.087 204.974C172.932 203.05 171.966 200.364 171.845 198.039C171.604 198.761 171.403 199.442 171.161 200.164C170.96 200.044 170.719 199.923 170.517 199.803C170.96 199.242 171.443 198.681 171.885 198.119C171.724 198.119 171.564 197.999 171.443 198.039C169.632 198.761 167.862 199.763 165.97 200.124C164.16 200.484 162.188 200.124 160.297 200.124H160.337C159.693 201.326 159.009 202.609 158.365 203.892L158.405 203.932C156.876 200.444 155.468 199.643 152.289 201.166C147.621 203.411 142.873 204.814 137.642 204.894C136.073 204.894 134.503 206.257 133.014 207.139C131.123 208.261 129.312 209.544 127.502 210.746L127.542 210.706C124.323 214.233 124.283 214.234 120.902 211.548C120.178 210.987 119.494 210.345 118.81 209.704C118.689 209.944 118.569 210.185 118.488 210.426C118.247 210.185 118.005 209.944 117.764 209.704C117.12 207.74 116.436 205.776 115.792 203.811L115.712 204.132L115.832 203.852C113.498 201.567 112.251 198.801 111.004 195.794C108.831 190.383 105.612 185.372 103.117 180.041C100.702 174.87 98.5698 169.539 96.5578 164.208C95.9542 162.604 96.2762 160.6 96.1554 157.834C97.6845 159.999 98.5295 161.201 99.5355 162.604C104.887 158.315 103.64 153.425 102.071 147.733C100.944 149.136 100.22 150.018 99.4953 150.939C101.065 153.625 100.702 156.191 99.0929 159.798C98.2479 156.03 98.771 153.465 99.5758 150.899C98.4088 150.458 97.2017 150.017 95.8335 149.496C95.3507 150.098 94.8276 150.819 94.2642 151.541C94.0228 151.38 93.6606 151.26 93.5399 151.02C93.1777 150.338 93.0973 149.136 92.6144 148.935C88.3893 147.212 88.1881 143.524 87.8259 139.836C87.4638 136.188 87.4638 136.268 83.5606 135.747C82.3534 135.587 81.1865 134.905 80.0195 134.465C76.8407 133.182 74.9494 133.503 72.857 136.268C70.845 138.914 68.3904 140.718 65.292 141.88C61.9522 143.163 59.9805 147.051 60.6645 150.539C61.0133 152.249 60.4365 153.625 58.9342 154.667C59.8597 162.284 60.7048 169.699 61.6705 177.115C61.8315 178.358 62.4753 179.52 62.9179 180.723H62.8374C62.9179 180.322 62.9984 179.881 63.1191 178.959C65.7347 183.729 68.149 188.138 70.5633 192.548C70.6438 191.505 70.7645 190.463 70.845 189.421C71.0462 189.461 71.2474 189.501 71.4486 189.541C71.1267 190.503 70.845 191.505 70.5231 192.467C70.5231 193.349 70.5231 194.271 70.5231 195.153C70.6841 195.554 70.8853 195.955 70.6841 195.514C70.8048 195.955 70.6841 195.514 70.5633 195.073L69.4769 195.354H69.5171C67.0223 198.119 67.6259 202.849 62.9179 205.375C63.3605 204.012 63.5617 203.491 63.7227 202.97L63.8032 203.01C60.7852 200.565 63.3605 198.039 63.5617 196.516C62.3143 192.948 61.3486 190.263 60.1414 186.775C60.0207 188.499 59.9 189.501 59.8597 190.503C59.3769 201.126 61.6303 211.508 62.5155 222.01C62.7972 225.177 62.9582 228.384 62.9179 231.59C62.9179 234.637 62.1131 235.519 58.8538 235.799C54.2263 236.2 49.5585 236.24 44.931 236.521C41.6717 236.721 38.1709 236.16 35.0724 239.086C36.2796 239.687 37.1649 240.168 38.4525 240.85C37.5673 241.451 36.9234 242.253 36.1991 242.373C28.7147 243.295 21.2302 243.977 14.0676 246.502C10.4461 247.785 6.82459 249.107 3.48474 250.911C-0.65989 253.116 -0.981802 256.122 2.519 259.289C9.56085 265.622 16.6429 271.876 23.9665 277.888C36.9637 288.591 50.0414 299.173 63.2398 309.596C67.143 312.682 68.7124 316.41 68.7526 321.22C68.7526 325.028 69.155 328.876 69.3964 333.246C70.5231 332.564 71.2072 332.123 71.8912 331.722C73.7422 334.889 73.5008 347.315 71.4084 355.894L71.4486 355.854C69.155 358.82 69.2355 359.221 72.3741 359.942C73.0582 360.103 73.702 360.463 74.3861 360.704H74.3458C76.0359 360.263 76.398 361.666 77.2028 362.628C80.1403 366.195 81.9913 366.035 84.4861 362.107C87.665 357.096 92.1718 354.33 98.1272 353.729C99.3746 353.609 100.702 352.526 101.628 351.524C102.674 350.362 103.278 348.799 104.163 347.476C105.893 344.991 107.704 344.59 110.36 345.993C111.366 346.514 112.291 347.155 113.177 347.837C120.42 353.128 127.864 358.218 134.865 363.79C142.35 369.723 150.881 373.852 159.009 378.702C162.027 380.506 165.166 382.149 168.183 383.953C171.885 386.198 175.708 386.198 179.973 384.995C179.571 384.234 179.289 383.753 179.008 383.232C179.209 383.031 179.45 382.67 179.652 382.67C182.307 382.43 184.561 381.548 186.613 379.744C188.665 377.98 191.039 376.537 193.333 375.134C195.747 373.691 197.719 371.928 198.886 369.362L198.846 369.402C199.771 368.801 200.616 368.079 201.622 367.639C204.882 366.195 205.525 364.873 204.922 361.345C203.352 352.166 199.047 344.309 193.695 336.893C192.77 335.611 191.965 334.208 190.919 333.005C189.47 331.402 187.78 329.999 186.251 328.435C184.923 327.073 183.716 325.629 182.468 324.227L182.509 324.267L182.549 324.387ZM116.838 325.189L116.798 325.229H116.838V325.189ZM59.739 278.089L59.6988 278.169L60.8657 278.089C61.5095 277.087 62.2741 276.325 63.3605 277.487C63.5215 277.648 62.9582 278.49 62.7167 279.011C62.9984 279.492 63.2398 279.933 63.5215 280.414C63.3605 280.534 63.1996 280.694 62.9984 280.815C62.2741 280.213 61.59 279.652 60.8657 279.051C60.5036 278.73 60.1414 278.45 59.7793 278.129L59.739 278.089ZM71.4084 204.012L71.4486 203.972H71.4084V204.012ZM30.8876 272.276L30.8473 272.317H30.8876V272.276ZM27.9904 270.312C27.6685 269.992 27.3465 269.671 26.9844 269.31C26.6625 268.99 26.3406 268.669 26.0186 268.308C22.5178 266.905 19.5804 264.741 17.3672 261.654L17.2465 261.253C17.2465 261.253 17.327 261.534 17.3672 261.654C21.029 262.897 23.6848 265.382 26.0186 268.348C26.3406 268.669 26.6625 268.989 26.9844 269.35C27.3063 269.671 27.6282 269.992 27.9904 270.352L28.0306 270.312H27.9904ZM100.421 181.805L100.26 181.644L100.34 181.885H100.381L100.421 181.805ZM112.01 244.257L111.849 244.097L111.929 244.337H111.969L112.01 244.257ZM48.2709 274.04C48.2709 274.04 48.1904 273.84 48.1502 273.76C48.1502 273.88 48.1904 274 48.2306 274.08C48.5525 274.401 48.9147 274.762 49.2366 275.082C54.1055 276.566 57.5259 280.053 61.1474 283.38C62.3546 284.422 63.602 285.464 64.8092 286.507C64.8896 286.587 65.0104 286.707 65.0908 286.787C65.0104 286.867 64.8896 286.988 64.8896 286.988C64.7689 286.947 64.6884 286.827 64.608 286.747C63.2801 285.825 61.9522 284.943 60.584 284.021C56.8418 281.055 53.0593 278.049 49.3171 275.082C48.9952 274.762 48.633 274.401 48.3111 274.08L48.2709 274.04ZM49.2769 287.509L49.0756 287.228L49.1964 287.549H49.2366L49.2769 287.509ZM140.016 287.509C140.338 288.19 140.62 288.832 140.942 289.513C141.062 289.753 141.183 289.954 141.304 290.194C141.183 289.954 141.103 289.713 140.982 289.473C140.66 288.792 140.378 288.15 140.056 287.469L140.016 287.509ZM122.673 321.14C122.673 321.461 122.633 321.781 122.593 322.102C125.892 325.068 129.031 328.195 132.451 331.041C136.636 334.488 140.579 338.737 145.448 340.741C150.398 342.786 152.249 346.393 154.18 350.683C148.507 347.356 143.034 343.748 138.044 339.419H138.085C130.359 336.252 125.208 329.758 118.931 324.748C118.408 324.347 118.206 322.984 118.448 322.262C118.971 320.779 120.299 320.739 121.627 321.18C121.989 321.18 122.311 321.18 122.673 321.18V321.14ZM65.5335 167.374L67.143 168.497L66.5394 169.018C66.2175 168.457 65.8956 167.855 65.5737 167.294C65.4128 166.813 65.2115 166.332 65.0506 165.811C65.2115 165.811 65.3725 165.771 65.5335 165.731C65.5335 166.252 65.5335 166.813 65.5335 167.334V167.374ZM126.536 343.227C125.168 342.946 123.84 342.545 123.317 340.501C125.329 340.822 126.093 341.864 126.496 343.267H126.536V343.227ZM142.873 293.201C143.919 294.323 145.287 295.325 146.012 296.648C148.949 301.859 151.645 307.19 154.462 312.442C155.87 313.684 157.601 314.767 158.647 316.25C163.033 322.503 167.258 328.876 171.443 335.29C173.052 337.735 174.501 340.341 175.99 342.866C174.421 342.666 173.294 342.024 172.65 341.062C166.775 332.284 160.981 323.505 155.186 314.646C154.784 314.005 154.744 313.163 154.502 312.402C153.214 311.119 151.927 309.836 150.599 308.513L150.639 308.553C149.673 306.79 148.667 305.026 147.742 303.222C146.092 299.895 144.483 296.488 142.873 293.121L142.793 293.201H142.873ZM145.851 303.703C145.448 303.463 144.885 303.302 144.644 302.982C141.143 297.53 137.642 292.038 134.222 286.507C134.061 286.266 134.463 285.745 134.745 284.863C135.71 285.865 136.596 286.547 137.119 287.429C139.332 291.076 141.545 294.764 143.597 298.532C144.523 300.176 145.086 302.019 145.811 303.783C145.971 303.823 146.132 303.863 146.253 303.944C146.334 303.984 146.253 304.184 146.253 304.304C146.132 304.104 145.971 303.944 145.851 303.743V303.703ZM132.29 316.25C134.101 318.094 135.912 319.977 138.246 322.343C131.687 321.781 124.283 316.931 122.552 312.522C125.248 313.163 127.864 313.764 130.439 314.366C129.071 312.842 127.743 311.239 126.375 309.756C124.081 307.271 124.001 306.148 126.053 302.42C126.858 302.741 128.186 302.861 128.467 303.463C130.238 307.19 131.767 310.998 133.296 314.847C133.417 315.167 132.652 315.809 132.33 316.33L132.29 316.25ZM162.148 306.79C163.194 307.752 164.481 308.593 165.206 309.756C171.724 320.298 178.203 330.841 184.601 341.463C185.084 342.225 185.164 343.267 185.406 344.149L185.567 344.429L185.486 344.109C184.601 343.227 183.474 342.465 182.871 341.423C175.95 329.919 169.109 318.334 162.228 306.79L162.148 306.549L162.188 306.87L162.148 306.79ZM85.9347 268.188C85.3311 264.099 84.7275 260.01 84.1642 255.922C83.8423 253.437 85.5323 252.034 87.1821 250.069C89.2745 255.641 88.9124 260.973 88.7917 266.103C88.671 271.354 91.4474 276.445 89.5965 282.819C88.671 279.853 88.3088 277.808 87.4235 276.004C86.1761 273.479 85.7335 270.874 85.8945 268.148H85.9347V268.188ZM53.0996 256.683C54.8298 256.323 56.6004 257.004 58.2502 255.2C59.4976 253.837 63.0386 255.2 63.8434 257.325C64.8896 260.091 65.3323 263.137 65.9359 266.063C66.0163 266.384 65.1713 266.865 64.7287 267.306V267.266C64.8896 268.268 65.5335 269.551 65.0908 270.152C64.6482 270.793 62.9582 271.274 62.2741 270.954C56.3187 267.987 50.1621 265.262 45.2127 260.652C44.6494 260.131 44.6494 259.048 44.3274 258.006C47.788 257.084 50.645 257.445 53.3008 259.249C54.4677 260.051 55.7553 260.692 57.0028 261.414H56.9625C55.7151 259.85 54.4677 258.247 53.2203 256.643H53.18L53.0996 256.683ZM83.6008 232.192C83.3594 229.386 83.1582 226.9 82.9168 224.415C84.3654 226.139 85.2909 227.902 86.0956 229.666C86.82 231.31 85.9749 231.951 83.6008 232.192ZM75.553 330.359C75.553 330.359 75.8347 330.359 75.9956 330.359V337.334C75.9956 337.334 75.714 337.334 75.553 337.334V330.359ZM46.098 239.166C46.4601 239.687 46.7418 240.088 47.0637 240.529C46.7015 240.73 46.2589 241.211 45.9773 241.131C45.5346 240.97 45.2127 240.489 44.8103 240.128C45.1322 239.888 45.4944 239.647 46.098 239.206V239.166ZM67.3845 257.485C67.7064 257.485 68.0685 257.445 68.3904 257.405V260.411C68.1088 260.411 67.8673 260.411 67.5857 260.411C67.5052 259.449 67.4247 258.487 67.3845 257.485ZM104.807 191.986L105.813 191.626L106.215 193.75C106.014 193.79 105.773 193.87 105.571 193.911C105.33 193.269 105.089 192.628 104.807 191.986ZM58.4916 239.888C58.7733 239.968 59.0147 240.048 59.2964 240.128C59.1354 240.369 58.9745 240.69 58.7733 240.77C58.5721 240.85 58.2502 240.649 57.9685 240.569C58.1295 240.329 58.3307 240.128 58.4916 239.888ZM64.9299 210.586C64.9299 210.586 65.1311 210.826 65.2115 210.947C64.9701 211.067 64.7287 211.227 64.4872 211.307C64.447 211.307 64.3263 211.067 64.2056 210.947C64.447 210.826 64.6884 210.706 64.9299 210.586ZM67.7064 210.947C67.9478 210.907 68.149 210.866 68.3904 210.826C68.3904 211.307 68.31 211.788 68.2697 212.269C68.1088 212.269 67.988 212.269 67.8271 212.269C67.7868 211.828 67.7466 211.428 67.6661 210.987L67.7064 210.947ZM63.1593 158.155C63.1593 158.155 63.1996 158.435 63.1593 158.556C63.1191 158.636 62.9179 158.596 62.7972 158.636C62.7972 158.435 62.7972 158.195 62.7972 157.994C62.9179 158.075 63.0386 158.115 63.1593 158.195V158.155ZM70.4024 215.476C70.4024 215.476 70.4024 215.717 70.4024 215.877C70.2414 215.797 70.0805 215.677 69.9195 215.596C70 215.516 70.0403 215.396 70.1207 215.276C70.2012 215.356 70.3219 215.436 70.4024 215.476ZM104.284 264.139L104.203 263.819L104.525 263.939L104.284 264.179V264.139ZM68.8331 203.491C68.994 203.691 69.1147 203.811 69.2355 203.972C69.1147 203.972 68.994 204.012 68.8733 204.052C68.8733 203.932 68.8733 203.771 68.8331 203.531V203.491ZM69.8793 176.834V176.433L70.161 176.674L69.8793 176.834ZM100.059 185.012H99.8172L99.9781 184.731L100.099 185.012H100.059ZM64.9299 301.218L64.8494 300.897L65.1311 300.977L64.8896 301.218H64.9299ZM69.9598 172.184L70.161 172.505H69.839L69.9598 172.184ZM51.49 289.633L51.6107 289.353L51.7717 289.633H51.49Z" fill="#BE78FF"/>
<path d="M362.055 357.016C360.768 356.054 359.48 355.052 358.192 354.09L358.273 354.17C357.911 353.809 357.549 353.448 357.227 353.127C355.295 352.205 353.404 351.243 351.472 350.322L351.513 350.241C351.151 349.881 350.829 349.56 350.466 349.199L350.386 349.239C347.609 348.718 346.121 346.594 344.672 344.469L344.712 344.429C344.149 344.589 343.304 345.07 343.022 344.87C340.89 343.226 338.918 341.423 336.866 339.659L336.906 339.699C334.854 339.699 334.25 338.416 334.17 336.653H333.888L334.129 336.733C336.021 336.292 335.739 335.129 335.095 333.847C334.894 333.686 334.733 333.486 334.532 333.326C334.693 333.526 334.854 333.726 335.015 333.887C336.302 332.243 336.343 330.56 334.652 329.237C325.156 321.901 317.148 312.682 306.083 307.431C301.294 305.146 296.466 303.542 290.349 305.266C292.764 308.032 294.896 310.477 297.069 312.922C296.868 313.203 296.667 313.483 296.425 313.724C295.138 313.002 293.81 312.321 292.562 311.559C291.033 310.637 289.625 310.317 288.176 311.72C286.124 313.684 284.233 313.323 282.301 311.439C280.732 309.916 278.881 309.916 276.95 310.918C275.984 311.439 274.897 312.161 273.932 312.081C271.115 311.84 271.356 314.526 269.827 315.929C268.177 315.688 266.326 315.448 263.59 315.087C264.596 316.249 264.958 316.971 265.522 317.251C268.258 318.534 269.586 320.939 271.397 323.184C278.72 332.203 279.686 343.467 283.026 353.809C286.929 365.834 290.027 378.1 293.448 390.286C293.528 390.607 293.609 390.887 293.689 391.208C295.218 396.579 295.057 397.181 289.504 398.263C281.698 399.786 274.455 402.672 267.131 405.599C262.826 407.322 258.158 408.084 253.732 409.567C245.644 412.293 244.597 414.417 246.609 422.875C246.73 423.356 246.891 423.797 247.012 424.238L247.092 424.318C248.702 425.401 250.15 426.763 251.881 427.445C259.043 430.211 266.165 433.177 273.529 435.221C284.877 438.428 296.425 441.034 307.934 443.679C310.992 444.361 312.642 445.924 313.688 448.69C314.412 450.614 315.619 452.338 316.585 454.141L316.625 454.101C317.108 456.386 317.269 458.831 318.114 460.956C320.931 467.891 323.949 474.745 326.967 481.6C329.18 486.53 332.801 490.338 337.107 493.505C339.039 494.908 341.453 495.429 343.465 494.306C347.931 491.781 352.599 489.817 357.508 488.454C363.464 486.771 367.689 482.642 371.672 478.192C371.512 478.032 371.351 477.912 371.27 477.872C371.31 477.952 371.471 478.112 371.592 478.273C375.133 475.386 378.03 472.059 379.197 467.45C379.559 466.087 380.404 464.844 381.008 463.521C383.503 458.03 386.923 455.304 393.724 456.426C399.8 457.428 406.238 456.827 412.475 456.306C419.114 455.785 425.231 453.62 430.623 449.251C433.158 447.207 436.457 445.924 439.596 444.721C443.057 443.359 446.316 441.795 449.052 439.19C451.104 437.226 453.599 435.742 455.893 434.059C458.066 432.455 458.951 430.131 457.663 427.726C454.887 422.474 451.587 417.584 446.718 413.896C440.2 408.966 433.641 404.035 427.122 399.145C424.667 397.301 422.253 395.497 419.798 393.693C419.155 393.212 418.43 392.812 417.867 392.25C414.326 388.763 413.119 386.598 417.626 381.948C421.891 384.474 426.196 387.079 430.542 389.685L430.502 389.725C427.766 387.56 425.11 385.236 422.213 383.271C418.43 380.746 417.988 379.904 419.919 375.856C421.569 372.368 423.541 369.041 425.07 365.554C426.559 362.066 427.685 358.459 428.892 355.172C425.311 351.604 421.207 354.53 417.666 352.807C418.189 351.885 418.632 351.163 419.356 349.961C416.781 350.843 414.688 351.524 412.596 352.326C406.962 354.49 401.369 356.735 395.735 358.9C395.293 359.06 394.81 359.18 394.327 359.22C389.74 359.581 385.112 360.062 380.525 360.223C379.237 360.263 377.91 359.301 376.582 358.82L376.622 358.739C376.501 359.461 376.38 360.182 376.139 361.786C373.363 359.942 371.109 358.459 368.815 356.976L368.896 356.895C368.534 357.857 368.172 358.819 367.81 359.782L367.85 359.822C366.562 358.86 365.274 357.898 363.987 356.936C363.303 356.895 362.619 356.895 361.935 356.895L362.055 357.016ZM325.438 409.888L325.397 409.928H325.438V409.888ZM309.02 390.567L308.98 390.607H309.02V390.567ZM336.061 353.007C335.739 352.686 335.417 352.366 335.095 352.045C334.974 352.045 334.854 352.045 334.733 351.965C334.652 351.925 334.652 351.805 334.612 351.684C334.773 351.805 334.894 351.925 335.055 352.045C335.377 352.366 335.699 352.686 336.021 353.007L336.061 352.967V353.007ZM331.232 349.159C330.91 348.838 330.588 348.518 330.266 348.197C328.496 347.235 326.564 346.513 324.955 345.311C321.776 342.906 318.839 340.26 315.78 337.735C314.815 336.893 313.527 336.212 314.654 334.448C315.016 335.57 315.378 336.693 315.74 337.815C317.108 338.056 318.758 337.935 319.844 338.617C323.868 341.182 328.013 343.748 330.266 348.277C330.588 348.598 330.91 348.919 331.232 349.279L331.272 349.239L331.232 349.159ZM280.974 337.615H281.014C281.014 337.294 281.014 336.933 281.054 336.572C280.611 335.771 280.128 334.969 279.686 334.207C279.927 334.127 280.169 334.047 280.41 333.967C280.611 334.849 280.813 335.731 281.014 336.612C281.014 336.933 281.014 337.254 280.974 337.615ZM329.301 335.691C329.301 335.37 329.26 335.009 329.22 334.688C328.939 334.047 328.617 333.446 328.335 332.804L328.295 332.844C328.576 333.446 328.898 334.007 329.18 334.608C329.18 334.969 329.18 335.33 329.22 335.731L329.301 335.65V335.691ZM413.36 372.448V372.168V372.408L413.239 372.609L413.4 372.448H413.36ZM319.563 381.948L319.724 382.149L319.643 381.868H319.603L319.563 381.948ZM321.535 323.224L321.333 323.144L321.494 323.264H321.535V323.224ZM338.033 456.787C337.711 455.865 337.349 454.943 337.027 454.021H336.986C337.308 454.983 337.67 455.905 337.992 456.827L338.073 457.068V456.787H338.033ZM328.295 415.54H328.335C328.617 415.379 328.939 415.139 329.22 414.898C329.301 415.019 329.341 415.099 329.421 415.219C329.059 415.339 328.657 415.419 328.295 415.5V415.54ZM321.655 327.994C321.897 328.355 322.098 328.716 321.816 328.235C321.977 328.796 321.856 328.395 321.736 327.954H321.454H321.695L321.655 327.994ZM306.163 384.915C305.6 384.714 305.036 384.474 304.433 384.273C304.554 384.033 304.715 383.792 304.835 383.592C305.278 384.073 305.721 384.514 306.163 384.995C306.324 384.394 306.445 383.832 306.727 382.83C307.732 384.434 308.175 385.356 306.163 384.915ZM320.529 363.67C321.977 364.471 322.943 365.514 321.736 367.438C321.374 366.155 320.971 364.872 320.609 363.59C320.368 363.429 320.166 363.269 319.925 363.109C320.086 363.028 320.287 362.908 320.448 362.828C320.448 363.109 320.448 363.389 320.488 363.67H320.529ZM302.3 367.358C300.168 365.434 299.886 362.868 299.524 360.303C299.846 360.222 300.168 360.102 300.489 360.022C301.053 362.467 301.656 364.953 302.22 367.398C302.26 367.638 302.3 367.879 302.34 368.119C302.34 367.879 302.3 367.598 302.26 367.358H302.3ZM314.855 365.434C312.682 363.469 312.722 360.904 312.601 358.419C312.923 358.338 313.205 358.298 313.527 358.218C313.97 360.663 314.372 363.069 314.815 365.514L314.935 365.714V365.434H314.855ZM342.741 421.392L342.7 421.352C341.855 420.791 340.608 420.39 340.246 419.588C339.562 418.025 339.32 416.221 338.918 414.538C337.912 413.616 336.946 412.694 335.94 411.772C336.343 414.377 336.705 416.983 337.107 419.588C334.492 416.181 332.801 410.248 333.043 407.523C334.049 409.006 335.015 410.449 335.98 411.852C335.779 409.286 334.129 406.881 335.135 403.915C338.757 407.803 339.682 410.569 338.837 414.578C341.453 416.101 341.936 418.827 342.741 421.392ZM305.036 329.918L305.077 329.958C304.674 329.277 304.272 328.555 303.588 327.353C309.101 329.958 309.624 330.439 310.791 333.606C308.658 332.243 306.847 331.081 305.036 329.918ZM337.912 377.098L337.872 377.058C338.314 377.178 338.797 377.339 339.24 377.459C341.211 377.9 343.103 378.581 343.264 380.946C343.425 383.552 340.89 383.632 339.36 384.474C337.791 385.316 335.86 385.957 334.532 384.193C331.272 379.984 329.904 375.094 329.663 369.723C331.956 370.805 333.848 372.088 335.095 374.212C336.061 375.174 337.027 376.176 337.992 377.138L337.912 377.098ZM362.055 410.689C361.733 412.012 361.411 413.295 361.09 414.618H361.049C360.204 415.901 359.239 417.183 358.474 418.546C357.549 420.23 356.784 421.993 355.858 423.637C353.686 427.605 350.748 427.806 348.173 424.198C347.811 423.677 347.489 423.116 347.247 422.515C345.235 417.504 343.223 412.453 341.292 407.402C340.608 405.639 340.205 403.795 339.521 401.43C342.419 400.267 344.994 399.145 347.69 398.223C350.869 397.141 354.088 396.259 357.307 395.257L356.985 395.177L357.267 395.337C358.031 395.177 358.836 394.856 359.601 394.896C364.389 395.177 366.965 399.426 365.033 403.755C364.027 406.08 363.021 408.405 362.015 410.73L362.096 410.649L362.055 410.689ZM411.388 432.175C409.739 432.736 408.33 433.658 407.002 433.538C404.306 433.378 401.651 432.656 398.995 432.095C396.862 431.654 395.212 430.251 395.776 428.126C396.259 426.323 397.868 424.799 399.116 423.236C399.276 423.036 400.725 423.396 400.765 423.557C401.087 426.282 403.622 425.721 405.151 426.523C407.445 427.645 409.9 428.487 411.388 432.135V432.175ZM291.999 318.454C294.816 318.855 297.834 320.498 299.483 322.743C300.127 323.585 300.168 324.868 300.811 326.952C296.385 324.627 292.804 323.224 291.999 318.454ZM299.926 377.98C299.604 378.1 299.242 378.181 298.92 378.301C296.787 375.455 295.701 369.562 296.828 364.752C297.995 369.763 298.96 373.851 299.926 377.98ZM297.431 414.778C297.27 414.297 297.109 413.776 296.948 413.295C297.793 413.014 298.679 412.694 299.524 412.413C299.685 412.934 299.846 413.455 300.047 413.976C299.202 414.217 298.317 414.498 297.472 414.738L297.431 414.778ZM325.518 332.885C324.955 333.406 324.552 333.927 324.391 333.887C323.909 333.686 323.466 333.245 323.023 332.925C323.265 332.604 323.587 332.043 323.788 332.083C324.311 332.163 324.754 332.524 325.518 332.925V332.885ZM315.297 370.404L316.344 369.923C316.585 370.645 316.867 371.366 317.108 372.088C316.867 372.208 316.625 372.288 316.384 372.408C316.022 371.727 315.66 371.045 315.297 370.364V370.404ZM319.16 378.862C318.235 378.341 317.792 378.18 317.792 378.06C317.833 377.579 318.034 377.098 318.154 376.617C318.396 377.178 318.678 377.78 319.16 378.902V378.862ZM301.777 317.973C301.576 317.732 301.375 317.532 301.174 317.292C301.375 317.171 301.616 317.011 301.858 316.971C301.938 316.971 302.18 317.211 302.139 317.292C302.059 317.532 301.898 317.732 301.777 317.973ZM370.063 363.429C369.942 363.229 369.781 363.028 369.66 362.788C369.781 362.708 370.023 362.588 370.023 362.588C370.184 362.788 370.304 362.988 370.425 363.189C370.304 363.269 370.184 363.309 370.063 363.389V363.429ZM310.268 323.264C310.268 323.264 310.066 323.505 309.946 323.465C309.825 323.465 309.704 323.344 309.583 323.264C309.744 323.144 309.905 323.024 310.066 322.903C310.107 323.024 310.187 323.144 310.227 323.264H310.268ZM306.686 320.979L307.008 320.779V321.18L306.686 321.019V320.979ZM324.231 373.29V373.651L323.949 373.531L324.231 373.29ZM313.326 372.689L313.165 372.408H313.446L313.326 372.689Z" fill="#BE78FF"/>
<path d="M57.8492 147.213C57.0846 146.09 56.3201 144.928 55.1129 143.084C54.5093 146.09 55.8372 147.573 56.9237 149.137L56.8834 149.217C57.2456 148.535 57.5675 147.854 57.9297 147.213H57.8894H57.8492Z" fill="#BE78FF"/>
<path d="M158.365 263.619C159.492 265.944 160.578 268.269 161.705 270.594L162.711 270.033C161.262 267.908 159.773 265.824 158.325 263.699L158.365 263.659V263.619Z" fill="#BE78FF"/>
<path d="M166.09 293.443L168.062 294.284V294.365C167.096 292.481 166.131 290.637 165.165 288.753L165.205 288.713C163.756 290.276 163.998 291.839 165.084 293.483C165.447 293.523 165.809 293.523 166.171 293.523L166.09 293.443Z" fill="#BE78FF"/>
<path d="M366.04 28.9216C367.207 30.5651 368.374 32.1685 369.541 33.812C369.702 31.2065 368.173 29.8836 366 29.0018L366.08 28.9216H366.04Z" fill="#BE78FF"/>
<path d="M62.877 180.764C62.1527 182.528 61.6296 184.292 63.6013 185.976C63.3598 184.252 63.0782 182.528 62.8367 180.805L62.9172 180.764H62.877Z" fill="#BE78FF"/>
<path d="M358.272 348.318C359.439 348.959 360.606 349.561 362.135 350.402C361.545 348.612 360.244 347.904 358.232 348.278H358.272V348.318Z" fill="#BE78FF"/>
<path d="M350.749 341.384C350.186 340.983 349.622 340.582 349.099 340.141C348.858 340.422 348.576 340.702 348.335 340.983C348.898 341.424 349.461 341.865 350.025 342.306C350.266 341.985 350.508 341.664 350.749 341.344V341.384Z" fill="#BE78FF"/>
<path d="M317.632 140.64L315.138 136.912C314.856 137.152 314.614 137.393 314.333 137.593C315.459 138.595 316.586 139.557 317.713 140.559C317.713 140.559 317.632 140.64 317.673 140.64H317.632Z" fill="#BE78FF"/>
<path d="M63.6831 203.09C64.2464 202.088 64.7695 201.046 65.3329 200.043C63.0795 200.444 64.005 202.008 63.7636 203.13L63.6831 203.09Z" fill="#BE78FF"/>
<path d="M455.893 189.541C456.818 191.104 457.784 192.668 458.71 194.231L458.67 194.271C457.704 192.708 456.778 191.144 455.812 189.581L455.893 189.501V189.541Z" fill="#BE78FF"/>
<path d="M360.124 28.9209C362.096 28.9209 364.067 28.9209 366.079 28.9209L365.999 29.001C364.349 26.8765 362.216 27.6381 360.164 27.9989V27.9187C360.205 28.2795 360.204 28.6001 360.204 28.9609L360.124 28.8807V28.9209Z" fill="#BE78FF"/>
<path d="M364.069 353.128C365.719 354.411 367.329 355.653 368.978 356.936L368.898 357.016C367.288 355.733 365.639 354.451 364.029 353.168L364.069 353.128Z" fill="#BE78FF"/>
<path d="M195.065 328.115C196.031 329.678 197.037 331.201 198.002 332.765L197.962 332.845C196.996 331.281 195.99 329.718 195.025 328.195L195.065 328.155V328.115Z" fill="#BE78FF"/>
<path d="M445.19 409.889C445.713 410.17 446.236 410.45 446.759 410.691L446.92 410.09C446.316 410.05 445.713 409.969 445.109 409.929H445.149L445.19 409.889Z" fill="#BE78FF"/>
<path d="M60.1024 180.439H59.7399C59.7399 180.439 59.7399 180.721 59.7802 180.841C59.7802 180.882 60.0219 180.841 60.1427 180.841C60.1427 180.721 60.1427 180.559 60.1427 180.439H60.1024Z" fill="#BE78FF"/>
<path d="M463.578 80.8716C462.29 81.8336 460.962 82.8358 459.675 83.7979V83.7176C460.962 82.7556 462.25 81.7935 463.538 80.8315H463.618L463.578 80.8716Z" fill="#BE78FF"/>
<path d="M455.814 189.621C455.29 188.9 454.727 188.218 454.204 187.497C454.083 187.617 453.963 187.697 453.842 187.817C454.526 188.378 455.21 188.98 455.894 189.541L455.814 189.621Z" fill="#BE78FF"/>
<path d="M303.708 293.601L303.466 293.359L303.386 293.681L303.708 293.601Z" fill="#BE78FF"/>
<path d="M295.34 106.405L295.622 106.123L295.26 106.042L295.34 106.405Z" fill="#BE78FF"/>
<path d="M126.417 208.902C125.893 209.183 125.33 209.463 124.807 209.704C124.887 209.864 124.928 210.065 125.008 210.225C125.491 210.065 125.934 209.864 126.417 209.704L126.376 209.744C126.376 209.423 126.376 209.143 126.376 208.822L126.417 208.862V208.902Z" fill="#BE78FF"/>
<path d="M61.7515 140.155C61.7515 140.155 61.4695 140.155 61.389 140.196C61.3084 140.276 61.3084 140.437 61.2681 140.558C61.4695 140.558 61.6709 140.558 61.8723 140.518C61.8723 140.397 61.7918 140.276 61.7918 140.155H61.7515Z" fill="#BE78FF"/>
<path d="M353.445 344.469C353.768 344.711 354.09 344.952 353.727 344.67C354.13 344.831 353.727 344.67 353.365 344.509L353.405 344.469H353.445Z" fill="#BE78FF"/>
<path d="M376.663 358.86C376.341 358.699 376.018 358.578 376.462 358.78C375.978 358.699 376.381 358.78 376.744 358.78L376.703 358.86H376.663Z" fill="#BE78FF"/>
<path d="M360.124 354.09C359.158 353.769 358.192 353.448 357.226 353.128C357.589 353.488 357.951 353.849 358.273 354.17L358.192 354.09C358.836 354.09 359.52 354.09 360.164 354.09H360.124Z" fill="#BE78FF"/>
<path d="M92.051 133.502L92.1316 133.139L91.8094 133.26L92.051 133.502Z" fill="#BE78FF"/>
<path d="M464.465 203.09C463.821 202.448 463.137 201.767 462.493 201.126H462.573C462.573 201.807 462.573 202.489 462.573 203.13L462.493 203.05C463.177 203.05 463.861 203.05 464.505 203.05V203.13L464.465 203.09Z" fill="#BE78FF"/>
<path d="M56.9232 149.136C57.2451 149.136 57.567 149.177 57.8889 149.217C57.5268 149.217 57.2049 149.217 56.8427 149.217V149.136H56.9232Z" fill="#BE78FF"/>
<path d="M69.439 195.473C69.3182 195.231 69.2376 195.03 69.1973 194.949C69.2376 195.03 69.3585 195.231 69.5196 195.432L69.4793 195.473H69.439Z" fill="#BE78FF"/>
<path d="M360.125 27.9995C359.964 27.759 359.803 27.4784 359.682 27.2379C359.521 27.4784 359.36 27.759 359.199 27.9995L359.159 27.9194C359.521 27.9194 359.843 27.9194 360.205 27.9194L360.165 27.9995H360.125Z" fill="#BE78FF"/>
<path d="M90.6832 136.79C90.6832 137.712 90.7637 138.634 90.8039 139.556H90.7636C90.7636 138.634 90.6832 137.752 90.6832 136.83V136.75V136.79Z" fill="#BE78FF"/>
<path d="M172.852 295.405V296.087C172.852 296.087 172.973 295.887 172.933 295.806C172.933 295.686 172.852 295.606 172.772 295.486L172.812 295.445L172.852 295.405Z" fill="#BE78FF"/>
<path d="M182.469 324.346L182.59 324.104L182.549 324.386L182.469 324.346Z" fill="#BE78FF"/>
<path d="M168.063 294.281L168.103 294.563L168.023 294.362L168.063 294.281Z" fill="#BE78FF"/>
<path d="M197.962 332.765C198.244 333.447 198.525 334.088 198.847 334.769L198.807 334.81C198.525 334.128 198.244 333.487 197.962 332.805L198.002 332.725L197.962 332.765Z" fill="#BE78FF"/>
<path d="M459.555 196.476C459.273 195.754 458.951 195.033 458.669 194.311L458.71 194.271C458.991 194.993 459.313 195.714 459.595 196.436L459.555 196.516V196.476Z" fill="#BE78FF"/>
<path d="M166.976 279.051L167.217 279.252L167.016 279.091L166.976 279.051Z" fill="#BE78FF"/>
<path d="M123.519 197.278L123.439 197.079L123.598 197.239L123.519 197.278Z" fill="#BE78FF"/>
<path d="M199.933 335.851C200.215 336.452 200.537 337.053 200.818 337.655V337.695C200.496 337.094 200.174 336.492 199.893 335.891L199.933 335.851Z" fill="#BE78FF"/>
<path d="M339.119 338.576L339.28 338.777L339.039 338.536L339.119 338.576Z" fill="#BE78FF"/>
<path d="M57.8884 149.217C57.8884 148.535 57.8884 147.894 57.8884 147.213H57.9286C57.9286 147.894 57.9286 148.575 57.9286 149.217H57.8884Z" fill="#BE78FF"/>
<path d="M127.461 207.779L127.663 207.698L127.502 207.819L127.461 207.779Z" fill="#BE78FF"/>
<path d="M431.628 143.442C431.346 144.123 431.024 144.765 430.743 145.446L430.702 145.406C431.024 144.765 431.306 144.083 431.628 143.442Z" fill="#BE78FF"/>
<path d="M90.6429 136.83L90.6026 136.548L90.6832 136.79L90.6429 136.83Z" fill="#BE78FF"/>
<path d="M364.068 357.016C363.384 357.016 362.74 357.016 362.056 357.016V356.976C362.74 356.976 363.425 356.976 364.109 356.976L364.068 357.016Z" fill="#BE78FF"/>
<path d="M127.463 210.826C127.101 210.465 126.739 210.105 126.377 209.744L126.417 209.704C126.779 210.065 127.141 210.425 127.503 210.786L127.463 210.826Z" fill="#BE78FF"/>
<path d="M126.377 208.862C126.739 208.501 127.101 208.14 127.463 207.779L127.503 207.819C127.141 208.18 126.779 208.541 126.417 208.902L126.377 208.862Z" fill="#BE78FF"/>
<path d="M167.016 279.091L166.976 278.85V279.051L167.016 279.091Z" fill="#BE78FF"/>
<path d="M164.12 287.669C164.482 288.029 164.804 288.35 165.166 288.711L165.126 288.751C164.764 288.39 164.442 288.07 164.08 287.709L164.12 287.669Z" fill="#BE78FF"/>
<path d="M171.846 294.404C172.168 294.725 172.53 295.085 172.852 295.446L172.812 295.486C172.449 295.166 172.128 294.805 171.765 294.484L171.806 294.444L171.846 294.404Z" fill="#BE78FF"/>
<path d="M198.847 334.77C199.209 335.13 199.571 335.491 199.933 335.852L199.893 335.892C199.531 335.531 199.169 335.171 198.807 334.81L198.847 334.77Z" fill="#BE78FF"/>
<path d="M453.839 154.989L453.72 154.909L453.839 154.989Z" fill="#BE78FF"/>
<path d="M339.039 338.537C338.717 338.537 338.355 338.617 338.033 338.657H337.993C338.355 338.577 338.758 338.577 339.12 338.537H339.039Z" fill="#BE78FF"/>
<path d="M338.032 338.657C337.669 339.018 337.307 339.379 336.945 339.74L336.905 339.7C337.267 339.339 337.629 338.978 337.991 338.617L338.032 338.657Z" fill="#BE78FF"/>
<path d="M358.233 348.318L358.072 348.278L358.273 348.318H358.233Z" fill="#BE78FF"/>
<path d="M351.473 350.322C351.111 349.961 350.749 349.6 350.427 349.279L350.508 349.239C350.87 349.6 351.192 349.921 351.554 350.282V350.362L351.473 350.322Z" fill="#BE78FF"/>
<path d="M301.294 124.204C301.254 124.525 301.254 124.845 301.294 125.166C301.294 124.805 301.294 124.485 301.294 124.124L301.375 124.204H301.294Z" fill="#BE78FF"/>
<path d="M301.255 123.161C301.255 123.522 301.255 123.843 301.255 124.204L301.175 124.123C301.537 124.123 301.859 124.123 302.221 124.123V124.204C302.221 123.843 302.221 123.482 302.221 123.121L302.301 123.201C301.939 123.201 301.577 123.201 301.215 123.201H301.295L301.255 123.161Z" fill="#BE78FF"/>
<path d="M445.069 120.396C445.391 120.396 445.753 120.315 446.075 120.315L446.115 120.356C445.753 120.356 445.35 120.396 444.988 120.436H445.028L445.069 120.396Z" fill="#BE78FF"/>
<path d="M431.59 390.647C431.268 390.327 430.946 390.006 430.624 389.685L430.664 389.645C430.986 389.966 431.308 390.287 431.63 390.647L431.59 390.688V390.647Z" fill="#BE78FF"/>
<path d="M391.108 143.364C389.499 145.609 387.849 147.894 386.239 150.139C386.279 151.421 386.32 152.704 386.36 153.987L386.32 153.947C386.642 153.987 386.963 154.027 387.285 154.067C388.573 150.499 389.861 146.932 391.148 143.364H391.108Z" fill="#BE78FF"/>
<path d="M416.219 183.849L415.173 182.807C415.535 183.168 415.897 183.528 416.219 183.849Z" fill="#BE78FF"/>
<path d="M413.32 181.925C412.958 181.564 412.596 181.203 412.274 180.883C412.636 181.243 412.998 181.604 413.32 181.925Z" fill="#BE78FF"/>
<path d="M385.233 154.949C385.595 154.588 385.917 154.267 386.279 153.907C386.279 153.907 386.319 153.947 386.359 153.947C385.997 154.307 385.635 154.628 385.313 154.989L385.273 154.949H385.233Z" fill="#BE78FF"/>
<path d="M320.531 118.349C320.531 118.71 320.531 119.03 320.531 119.391C320.893 119.391 321.215 119.391 321.577 119.391C321.215 119.03 320.893 118.71 320.531 118.349Z" fill="#BE78FF"/>
<path d="M56.9232 261.693C58.2511 263.177 59.579 264.7 60.9069 266.183L61.7117 265.341C60.1021 264.139 58.4925 262.936 56.8427 261.734L56.883 261.693H56.9232Z" fill="#BE78FF"/>
<path d="M64.6493 267.586L64.609 267.345V267.506L64.6493 267.586Z" fill="#BE78FF"/>
<path d="M122.632 321.34C122.27 321.34 121.908 321.34 121.586 321.34C121.948 321.7 122.27 322.021 122.632 322.382C122.632 322.021 122.632 321.66 122.632 321.34Z" fill="#BE78FF"/>
<path d="M60.7453 278.049C60.7453 278.41 60.7453 278.731 60.7453 279.091C61.4293 279.091 62.1134 279.091 62.7975 279.091C62.1134 278.731 61.4293 278.41 60.7453 278.049Z" fill="#BE78FF"/>
<path d="M335.096 374.293L334.934 374.374L335.055 374.293H335.096Z" fill="#BE78FF"/>
</svg>
