<svg width="483" height="495" viewBox="0 0 483 495" fill="none" xmlns="http://www.w3.org/2000/svg">
<path d="M360.028 467.426C356.447 468.187 355.843 471.715 354.435 474.16C352.906 476.886 351.658 479.211 347.835 478.569C347.513 481.135 347.312 483.139 347.031 485.183C346.668 488.109 346.266 488.39 343.449 488.23C341.719 488.109 339.989 488.23 337.816 488.23C336.689 486.626 335.482 484.021 332.182 485.704C331.78 485.905 330.694 484.863 329.567 484.221C328.521 487.869 327.555 491.116 326.589 494.443C323.853 493.962 323.652 492.358 323.893 490.755C324.296 488.27 323.893 486.185 322.525 483.941C321.64 482.457 321.559 480.253 321.68 478.369C322.525 465.141 323.491 451.913 324.416 438.685C324.537 436.921 324.296 435.157 324.577 433.434C325.02 430.628 325.704 427.862 326.307 425.096C326.307 426.459 326.307 427.822 326.307 429.225C326.629 429.225 326.951 429.144 327.273 429.104C326.951 427.782 326.589 426.459 326.267 425.176C326.348 423.733 326.71 422.25 326.428 420.887C324.738 412.509 324.939 404.091 325.543 395.633C325.784 391.946 324.416 390.703 320.795 390.623C318.944 390.583 317.052 390.222 315.201 390.062C314.115 389.982 312.827 389.661 311.902 390.062C307.999 391.906 304.095 391.304 300.112 390.583L300.152 390.623C298.623 388.298 297.094 385.933 295.565 383.608C297.376 379.64 298.06 375.03 302.084 372.384H302.003C302.365 372.344 302.727 372.344 303.089 372.344L303.009 372.424C303.009 372.063 303.009 371.703 303.009 371.342V371.422C303.009 371.061 303.009 370.741 303.009 370.38C304.176 369.899 305.504 369.618 306.51 368.897C311.499 365.169 316.489 361.361 321.358 357.473C322.726 356.39 324.899 355.629 324.577 352.662C322.364 353.464 320.392 354.186 318.421 354.947L318.501 355.027C319.346 354.266 320.111 353.424 321.036 352.783C325.141 349.977 327.394 346.489 325.704 341.358C325.503 340.757 325.543 340.076 325.623 339.434C327.072 329.894 324.859 320.314 325.986 310.734C326.267 308.369 325.784 305.963 325.664 303.558C325.301 295.942 327.193 288.607 328.4 281.191C329.044 277.102 329.205 272.934 329.929 268.885C330.331 266.6 330.774 263.914 332.223 262.311C334.436 259.906 337.293 257.781 340.311 256.499C342.041 255.777 344.978 256.338 346.668 257.421C351.215 260.347 356.165 261.99 361.315 263.233C362.402 263.473 363.569 264.035 364.575 263.834C369.041 263.033 372.381 265.077 375.278 267.963C381.918 274.457 388.839 280.75 393.547 288.968C394.07 289.889 394.996 290.611 396.163 291.814C398.376 290.491 400.589 289.288 402.681 287.885C410.286 282.794 417.61 277.263 425.457 272.613C431.452 269.045 437.73 265.839 445.295 265.919C449.842 265.959 454.429 264.435 459.016 263.834C460.505 263.634 462.155 263.914 463.644 264.315C466.581 265.077 469.438 266.039 472.335 266.921C473.422 267.242 474.589 267.362 475.554 267.883C483.079 272.012 484.367 276.14 479.82 281.472C479.216 282.193 478.814 283.115 478.17 283.837C474.79 287.845 471.41 291.854 467.426 296.544C467.828 294.379 468.07 293.016 468.352 291.653C468.271 291.012 468.231 290.411 468.191 289.769C468.191 289.368 468.191 288.927 468.191 288.527C471.048 286.362 472.536 283.396 473.824 279.427C470.645 282.394 470.042 283.436 468.231 288.607C468.231 288.968 468.231 289.368 468.231 289.729L468.432 291.693C467.426 291.974 466.42 292.214 465.414 292.495V292.575C464.77 290.932 464.086 291.132 463.402 292.575L463.483 292.495C462.799 292.856 462.155 293.176 461.471 293.537L461.551 293.457C462.195 293.818 462.839 294.138 463.483 294.499H463.402C463.201 296.543 462.275 298.107 460.465 299.149V299.229C460.545 298.468 460.585 297.706 460.666 296.383C459.579 296.864 458.654 296.985 458.372 297.466C455.113 302.797 450.445 307.326 448.956 313.7C448.675 314.381 448.353 315.103 448.071 315.784C447.427 316.746 446.783 317.668 446.099 318.63C445.777 319.151 445.496 319.673 445.174 320.234C445.295 320.274 445.455 320.354 445.576 320.394C445.737 319.793 445.858 319.192 446.019 318.59C446.663 317.628 447.347 316.706 447.991 315.744C448.272 315.063 448.594 314.341 448.916 313.66C450.083 312.898 451.21 312.137 452.377 311.375C452.618 311.535 452.86 311.696 453.101 311.856C451.049 315.504 449.117 319.232 446.904 322.839C441.472 331.778 435.315 340.356 431.573 350.217L431.613 350.177C431.613 352.422 431.613 354.707 431.573 356.952C431.251 357.633 430.969 358.354 430.648 359.036C429.963 358.675 429.239 358.314 428.555 357.914C428.394 358.114 428.233 358.314 428.072 358.555C428.917 359.597 429.802 360.679 430.648 361.722L430.728 361.962L430.607 361.762C430.607 360.84 430.607 359.918 430.607 358.996C430.929 358.314 431.211 357.593 431.533 356.911C432.981 357.753 434.43 358.595 436.04 359.517C435.154 361.762 434.35 363.726 433.545 365.69L433.464 365.61C434.35 366.131 434.792 368.015 436.361 366.572L436.402 366.612C436.361 365.89 436.281 365.209 436.241 364.488C436.563 364.367 436.885 364.207 437.207 364.087C438.132 365.61 439.218 367.013 439.983 368.616C441.311 371.422 443.041 373.787 445.938 375.15L445.898 375.11C446.14 375.832 446.099 376.994 446.622 377.275C449.399 378.878 450.445 381.604 451.169 384.37C453.101 391.825 456.883 398.119 461.954 403.851C464.489 406.697 466.42 410.064 468.513 413.271C469.036 414.113 469.116 415.235 469.478 416.397C467.064 417.119 465.817 415.796 464.489 414.714H464.408C465.897 414.433 466.823 413.752 465.817 412.189C464.65 410.305 463.322 408.461 461.551 405.895C461.068 408.581 460.787 410.224 460.505 411.868V411.788C458.131 411.788 455.757 411.788 453.383 411.667C449.56 411.507 445.737 411.226 442.518 411.026C440.144 412.509 438.253 413.872 436.241 414.995C432.338 417.119 428.394 419.123 424.451 421.208C422.439 422.29 420.749 421.528 419.018 420.606C415.357 418.642 411.695 416.638 407.953 414.834C405.82 413.792 403.526 413.111 401.635 412.349C398.698 413.832 398.617 418.121 394.754 417.56H394.794C394.432 416.798 394.07 416.037 393.306 414.393C389.04 420.005 386.988 426.178 383.125 431.149L383.085 430.908L383.206 431.109C381.033 434.596 378.618 437.923 376.727 441.571C374.152 446.581 371.939 451.832 369.685 456.723C369.565 456.362 369.323 455.56 368.961 454.238C366.547 456.001 365.782 458.447 364.494 460.491C363.207 462.495 362.12 464.62 360.913 466.664L360.994 466.584C360.631 466.945 360.31 467.265 359.947 467.626L359.988 467.546L360.028 467.426ZM321.398 376.072C321.398 376.393 321.398 376.753 321.398 377.074C321.841 377.074 322.243 377.114 322.686 377.154C322.565 376.794 322.445 376.473 322.364 376.112C322.364 375.751 322.364 375.391 322.364 375.03C322.847 374.829 323.33 374.629 323.772 374.428C323.692 374.308 323.611 374.188 323.571 374.108C323.209 374.429 322.807 374.789 322.445 375.11C322.123 375.431 321.801 375.751 321.439 376.032L321.398 376.072ZM396.766 371.262L396.686 371.342C396.364 371.342 396.082 371.342 395.76 371.342C393.882 373.293 393.601 375.097 394.915 376.753C396.887 375.11 396.163 373.146 395.72 371.262C396.082 371.262 396.444 371.262 396.766 371.262ZM437.287 371.342H437.327C437.649 371.903 437.931 372.545 438.253 373.186C438.615 373.507 438.937 373.867 439.299 374.188L439.379 374.428L439.218 374.268C438.897 373.948 438.534 373.587 438.212 373.266C437.891 372.625 437.609 372.023 437.287 371.382V371.342ZM441.15 378.076H441.19L441.311 378.237L441.15 378.076ZM439.138 380.762L439.178 380.802C439.178 381.163 439.178 381.564 439.178 381.924C439.178 381.924 439.138 381.964 439.178 381.964C439.178 381.564 439.178 381.123 439.178 380.722L439.138 380.762ZM367.754 311.656L367.633 311.535L367.794 311.615C367.794 311.615 367.995 311.816 368.076 311.936C367.955 311.856 367.874 311.776 367.754 311.656ZM395.68 348.333V348.013L395.72 348.253C395.72 349.175 395.72 350.097 395.72 351.019C394.714 349.576 393.748 348.053 392.662 346.73C391.173 344.926 389.563 343.242 387.994 341.479C387.873 339.795 387.229 338.553 385.459 338.152C383.93 341.278 384.171 342.28 387.109 345.207C387.471 349.095 389.402 352.181 392.38 354.707C392.219 353.785 392.018 352.903 391.857 351.981C393.104 352.983 394.312 353.985 396.243 355.549C396.042 353.424 395.921 352.221 395.8 351.059C396.122 350.057 396.404 349.095 396.726 348.093C396.847 347.852 396.967 347.652 397.128 347.411C397.008 347.652 396.927 347.892 396.806 348.133C396.444 348.173 396.082 348.213 395.68 348.253V348.333ZM433.464 284.719C433.263 284.879 433.022 284.999 432.82 285.159C433.022 284.999 433.223 284.839 433.424 284.678H433.464V284.719ZM357.211 411.587C357.493 412.309 357.815 412.99 358.096 413.712C358.096 415.636 357.935 417.64 360.792 418.241C362.161 415.676 363.327 412.99 362.442 410.104C361.637 407.459 360.229 405.013 359.143 402.528C358.78 406.176 358.418 409.984 358.056 413.792C357.774 413.07 357.453 412.349 357.171 411.667C357.09 411.427 357.01 411.186 357.01 411.106C357.01 411.146 357.131 411.387 357.251 411.587H357.211ZM466.34 285.801C466.058 286.121 465.776 286.442 466.098 286.081C465.857 286.522 466.098 286.121 466.259 285.761C466.863 285.64 467.426 285.52 468.03 285.44L466.782 284.398C466.621 284.879 466.501 285.36 466.34 285.841V285.801ZM388.075 295.261L388.034 295.301C387.672 294.499 387.31 293.697 386.948 292.896C386.747 293.056 386.505 293.216 386.304 293.377C386.908 294.018 387.511 294.619 388.075 295.261ZM387.149 283.716L387.069 283.797C386.666 282.474 386.304 281.111 384.373 281.191C384.252 283.436 385.58 283.757 387.109 283.716H387.149ZM373.669 272.332C372.019 270.689 370.369 269.045 368.72 267.442L368.8 267.362C369.202 270.168 370.49 272.092 373.629 272.252L373.749 271.931L373.669 272.292V272.332ZM417.047 311.615C419.541 309.972 421.875 308.208 422.439 303.759C418.093 307.326 414.512 310.253 410.287 313.7C411.856 314.141 412.54 314.301 413.224 314.502C412.392 317.308 413.103 319.125 415.357 319.953C417.328 317.468 418.133 314.742 417.047 311.615ZM381.314 342.481C380.952 339.434 378.82 339.755 377.17 340.837C374.675 342.441 372.1 344.205 371.939 347.812C371.898 349.055 371.053 350.217 370.571 351.42C369.927 349.215 369.725 347.211 366.828 348.173H366.869C366.265 348.133 365.339 347.732 365.178 347.932C362.12 351.54 360.591 358.715 365.621 362.403C367.231 361.762 368.921 361.12 370.611 360.439C370.329 362.122 369.524 363.205 368.639 364.207C367.754 365.289 366.828 366.331 365.903 367.374C364.977 369.779 364.253 372.184 365.822 374.669V367.334C365.983 367.774 366.265 368.255 366.265 368.696C366.104 375.03 370.007 377.355 375.52 378.196C376.647 378.357 377.733 378.638 378.82 378.918C381.234 379.479 383.246 379.199 384.614 376.794C384.976 376.112 385.7 375.631 386.224 375.07L386.143 375.15C387.833 372.304 389.322 369.338 391.213 366.692C392.823 364.487 392.943 362.122 391.937 360.038C389.966 355.949 387.471 352.101 385.218 348.173H385.258C385.177 345.527 383.125 344.084 381.395 342.441H381.355L381.314 342.481ZM349.364 364.608C348.962 365.77 345.743 365.65 347.956 368.015C348.399 368.456 348.037 370.019 347.594 370.821C347.031 371.823 345.984 372.585 345.019 373.627C347.312 375.511 349.123 375.03 351.055 373.947C351.9 370.62 351.698 367.614 349.405 364.608H349.364ZM364.736 408.461C365.138 408.581 365.541 408.661 365.943 408.781C367.11 406.777 368.277 404.813 369.363 402.809C370.047 401.526 370.691 400.083 368.84 399.161C367.11 398.279 365.138 399.081 364.816 401.125C364.454 403.53 364.736 406.016 364.736 408.461ZM345.944 409.262C349.083 398.72 349.123 396.836 346.226 395.193C344.496 399.562 345.823 403.891 345.944 409.262ZM357.493 366.452C357.774 366.452 358.056 366.532 358.298 366.532V363.966C358.016 363.966 357.734 363.966 357.493 363.966V366.412V366.452ZM351.618 430.868C351.135 431.429 350.813 431.67 350.692 431.991C350.612 432.191 350.853 432.512 350.974 432.792C351.296 432.632 351.859 432.552 351.94 432.311C352.061 432.031 351.819 431.59 351.618 430.868ZM357.211 398.399C356.929 398.479 356.688 398.56 356.406 398.64C356.608 399.201 356.809 399.762 357.05 400.323L357.654 400.123C357.533 399.562 357.372 399.001 357.251 398.439L357.211 398.399ZM349.525 399.121C349.767 399.121 350.008 399.121 350.25 399.121V396.475H349.405C349.445 397.397 349.485 398.279 349.525 399.161V399.121ZM340.592 409.383C340.351 409.383 340.15 409.383 339.908 409.423C339.949 410.064 339.989 410.705 340.029 411.307C340.27 411.307 340.472 411.307 340.713 411.267C340.673 410.625 340.633 409.984 340.592 409.383ZM402.319 364.247C401.716 363.926 401.353 363.565 400.951 363.525C400.71 363.525 400.267 364.127 400.307 364.407C400.307 364.728 400.75 365.049 401.032 365.369C401.313 365.129 401.635 364.848 402.359 364.247H402.319ZM350.21 416.879C350.21 416.879 349.847 416.558 349.686 416.397C349.606 416.518 349.405 416.678 349.445 416.718C349.606 416.919 349.767 417.079 349.928 417.239C350.008 417.119 350.089 417.039 350.25 416.879H350.21ZM393.064 370.22L393.145 369.939L392.863 370.019L393.064 370.22ZM336.81 344.084L337.132 344.285V343.884L336.81 344.084ZM428.917 287.725L429.199 287.605L428.957 287.444V287.765L428.917 287.725ZM326.468 434.476C326.468 434.476 326.468 434.756 326.509 434.917C326.67 434.796 326.831 434.676 326.911 434.516C326.911 434.476 326.79 434.315 326.71 434.195C326.629 434.315 326.549 434.396 326.468 434.516V434.476ZM381.395 277.824C381.153 277.704 380.952 277.583 380.711 277.463C380.671 277.583 380.55 277.824 380.59 277.864C380.791 278.024 381.033 278.104 381.274 278.225C381.274 278.104 381.355 277.944 381.395 277.824ZM357.453 373.507L357.654 373.747L357.774 373.466H357.453V373.507ZM328.682 420.366V419.644H328.319C328.319 419.885 328.319 420.125 328.319 420.366H328.722H328.682ZM392.622 380L392.863 379.84L392.622 379.72V380ZM392.984 292.495V292.214L392.782 292.295L392.984 292.495ZM340.23 285.119C340.23 285.36 340.23 285.56 340.19 285.801C340.27 285.681 340.472 285.6 340.472 285.48C340.472 285.36 340.351 285.24 340.23 285.119Z" fill="#6FADEC"/>
<path d="M183.379 171.038C180.562 174.886 177.584 178.694 174.929 182.663C170.301 189.597 165.714 196.532 161.449 203.707C157.747 209.88 154.447 216.294 151.147 222.707C149.457 225.954 148.129 229.402 146.681 232.769L146.641 232.729C147.043 233.57 147.405 234.412 148.17 236.056C150.946 231.606 153.481 227.718 155.252 223.429C157.626 217.697 160.483 212.245 164.99 207.836H164.949C163.541 214.249 160 219.741 157.062 225.553C156.378 226.956 155.855 228.439 155.292 229.883C153.441 232.849 151.308 235.735 149.86 238.902C149.135 240.465 149.176 242.71 149.699 244.433C150.544 247.32 152.033 250.045 153.32 252.811C156.258 259.185 159.195 265.558 162.213 271.892C163.179 273.856 164.547 275.66 165.674 277.544C168.169 281.793 170.945 285.961 172.917 290.451C173.762 292.375 172.796 295.061 172.675 297.386C172.434 296.664 172.233 295.983 171.991 295.261C171.79 295.381 171.549 295.502 171.347 295.622C171.79 296.183 172.273 296.744 172.716 297.305C172.555 297.305 172.394 297.426 172.273 297.386C170.462 296.664 168.692 295.662 166.8 295.301C164.99 294.94 163.018 295.301 161.127 295.301H161.167C160.523 294.099 159.839 292.816 159.195 291.533L159.235 291.493C157.706 294.98 156.298 295.782 153.119 294.259C148.451 292.014 143.703 290.611 138.472 290.531C136.903 290.531 135.333 289.168 133.845 288.286C131.953 287.164 130.143 285.881 128.332 284.679L128.372 284.719C125.153 281.191 125.113 281.191 121.733 283.877C121.008 284.438 120.324 285.08 119.64 285.721C119.519 285.48 119.399 285.24 119.318 284.999C119.077 285.24 118.835 285.48 118.594 285.721C117.95 287.685 117.266 289.649 116.622 291.613L116.542 291.293L116.662 291.573C114.329 293.858 113.081 296.624 111.834 299.63C109.661 305.042 106.442 310.052 103.947 315.384C101.533 320.555 99.3999 325.886 97.3879 331.217C96.7843 332.821 97.1062 334.825 96.9855 337.591C98.5146 335.426 99.3596 334.224 100.366 332.821C105.717 337.11 104.47 342 102.901 347.692C101.774 346.289 101.05 345.407 100.325 344.485C101.895 341.8 101.533 339.234 99.923 335.627C99.0779 339.395 99.6011 341.96 100.406 344.525C99.2389 344.966 98.0317 345.407 96.6636 345.928C96.1807 345.327 95.6576 344.606 95.0943 343.884C94.8528 344.044 94.4907 344.165 94.37 344.405C94.0078 345.087 93.9273 346.289 93.4445 346.49C89.2194 348.213 89.0182 351.901 88.656 355.589C88.2939 359.237 88.2938 359.156 84.3907 359.678C83.1835 359.838 82.0166 360.519 80.8496 360.96C77.6707 362.243 75.7795 361.922 73.687 359.156C71.6751 356.511 69.2205 354.707 66.1221 353.545C62.7823 352.262 60.8105 348.374 61.4946 344.886C61.8433 343.176 61.2666 341.8 59.7643 340.757C60.6898 333.141 61.5348 325.726 62.5006 318.31C62.6615 317.067 63.3054 315.905 63.748 314.702H63.6675C63.748 315.103 63.8285 315.544 63.9492 316.466C66.5647 311.696 68.9791 307.287 71.3934 302.877C71.4739 303.919 71.5946 304.962 71.6751 306.004C71.8763 305.964 72.0775 305.924 72.2787 305.884C71.9568 304.922 71.6751 303.919 71.3532 302.957C71.3532 302.076 71.3532 301.154 71.3532 300.272C71.5141 299.871 71.7153 299.47 71.5142 299.911C71.6349 299.47 71.5141 299.911 71.3934 300.352L70.307 300.071H70.3472C67.8524 297.305 68.456 292.575 63.748 290.05C64.1906 291.413 64.3918 291.934 64.5528 292.455L64.6332 292.415C61.6153 294.86 64.1906 297.386 64.3918 298.909C63.1444 302.476 62.1787 305.162 60.9715 308.65C60.8508 306.926 60.7301 305.924 60.6898 304.922C60.2069 294.299 62.4603 283.917 63.3456 273.415C63.6273 270.248 63.7882 267.041 63.748 263.834C63.748 260.788 62.9432 259.906 59.6838 259.626C55.0563 259.225 50.3886 259.185 45.7611 258.904C42.5017 258.704 39.0009 259.265 35.9025 256.339C37.1097 255.737 37.995 255.256 39.2826 254.575C38.3973 253.974 37.7535 253.172 37.0292 253.052C29.5447 252.13 22.0603 251.448 14.8977 248.923C11.2762 247.64 7.65466 246.317 4.31482 244.514C0.170188 242.309 -0.151724 239.302 3.34908 236.136C10.3909 229.802 17.473 223.549 24.7965 217.536C37.7938 206.834 50.8715 196.251 64.0699 185.829C67.9731 182.743 69.5424 179.015 69.5827 174.205C69.5827 170.397 69.9851 166.548 70.2265 162.179C71.3532 162.861 72.0373 163.302 72.7213 163.702C74.5723 160.536 74.3309 148.109 72.2385 139.531L72.2787 139.571C69.9851 136.605 70.0655 136.204 73.2042 135.483C73.8883 135.322 74.5321 134.962 75.2161 134.721H75.1759C76.866 135.162 77.2281 133.759 78.0329 132.797C80.9703 129.229 82.8214 129.39 85.3162 133.318C88.4951 138.329 93.0018 141.094 98.9572 141.696C100.205 141.816 101.533 142.898 102.458 143.9C103.504 145.063 104.108 146.626 104.993 147.949C106.723 150.434 108.534 150.835 111.19 149.432C112.196 148.911 113.121 148.27 114.007 147.588C121.25 142.297 128.694 137.206 135.696 131.635C143.18 125.702 151.711 121.573 159.839 116.723C162.857 114.919 165.996 113.276 169.014 111.472C172.716 109.227 176.538 109.227 180.804 110.43C180.401 111.191 180.12 111.672 179.838 112.193C180.039 112.394 180.28 112.754 180.482 112.754C183.137 112.995 185.391 113.877 187.443 115.681C189.495 117.444 191.869 118.887 194.163 120.29C196.577 121.733 198.549 123.497 199.716 126.063L199.676 126.023C200.601 126.624 201.446 127.345 202.452 127.786C205.712 129.229 206.355 130.552 205.752 134.08C204.183 143.259 199.877 151.116 194.525 158.531C193.6 159.814 192.795 161.217 191.749 162.42C190.3 164.023 188.61 165.426 187.081 166.989C185.753 168.352 184.546 169.795 183.298 171.198L183.339 171.158L183.379 171.038ZM117.668 170.236L117.628 170.196H117.668V170.236ZM60.5691 217.336L60.5289 217.256L61.6958 217.336C62.3396 218.338 63.1042 219.1 64.1906 217.937C64.3516 217.777 63.7882 216.935 63.5468 216.414C63.8285 215.933 64.0699 215.492 64.3516 215.011C64.1906 214.891 64.0297 214.73 63.8285 214.61C63.1042 215.211 62.4201 215.773 61.6958 216.374C61.3336 216.695 60.9715 216.975 60.6093 217.296L60.5691 217.336ZM72.2385 291.413L72.2787 291.453H72.2385V291.413ZM31.7177 223.148L31.6774 223.108H31.7177V223.148ZM28.8204 225.112C28.4985 225.433 28.1766 225.754 27.8145 226.115C27.4925 226.435 27.1706 226.756 26.8487 227.117C23.3479 228.52 20.4105 230.684 18.1973 233.771L18.0766 234.172C18.0766 234.172 18.1571 233.891 18.1973 233.771C21.8591 232.528 24.5149 230.043 26.8487 227.077C27.1706 226.756 27.4925 226.435 27.8145 226.075C28.1364 225.754 28.4583 225.433 28.8204 225.072L28.8607 225.112H28.8204ZM101.251 313.62L101.09 313.78L101.17 313.54H101.211L101.251 313.62ZM112.84 251.168L112.679 251.328L112.759 251.087H112.799L112.84 251.168ZM49.101 221.385C49.101 221.385 49.0205 221.585 48.9802 221.665C48.9802 221.545 49.0205 221.425 49.0607 221.344C49.3826 221.024 49.7448 220.663 50.0667 220.342C54.9356 218.859 58.3559 215.372 61.9775 212.045C63.1846 211.003 64.4321 209.96 65.6392 208.918C65.7197 208.838 65.8404 208.718 65.9209 208.638C65.8404 208.557 65.7197 208.437 65.7197 208.437C65.599 208.477 65.5185 208.598 65.438 208.678C64.1101 209.6 62.7822 210.482 61.4141 211.403C57.6719 214.37 53.8894 217.376 50.1472 220.342C49.8253 220.663 49.4631 221.024 49.1412 221.344L49.101 221.385ZM50.1069 207.916L49.9057 208.197L50.0265 207.876H50.0667L50.1069 207.916ZM140.846 207.916C141.168 207.235 141.45 206.593 141.772 205.912C141.892 205.671 142.013 205.471 142.134 205.23C142.013 205.471 141.933 205.711 141.812 205.952C141.49 206.633 141.208 207.275 140.886 207.956L140.846 207.916ZM123.503 174.285C123.503 173.964 123.463 173.643 123.423 173.323C126.722 170.357 129.861 167.23 133.281 164.384C137.466 160.937 141.409 156.688 146.278 154.683C151.228 152.639 153.079 149.031 155.01 144.742C149.337 148.069 143.864 151.677 138.874 156.006H138.915C131.189 159.173 126.038 165.667 119.761 170.677C119.238 171.078 119.037 172.441 119.278 173.162C119.801 174.646 121.129 174.686 122.457 174.245C122.819 174.245 123.141 174.245 123.503 174.245V174.285ZM66.3635 328.051L67.9731 326.928L67.3695 326.407C67.0476 326.968 66.7257 327.57 66.4038 328.131C66.2428 328.612 66.0416 329.093 65.8807 329.614C66.0416 329.614 66.2026 329.654 66.3635 329.694C66.3635 329.173 66.3635 328.612 66.3635 328.091V328.051ZM127.366 152.198C125.998 152.479 124.67 152.88 124.147 154.924C126.159 154.603 126.923 153.561 127.326 152.158H127.366V152.198ZM143.703 202.224C144.749 201.102 146.117 200.1 146.842 198.777C149.779 193.566 152.475 188.234 155.292 182.983C156.7 181.741 158.431 180.658 159.477 179.175C163.863 172.922 168.088 166.548 172.273 160.135C173.882 157.69 175.331 155.084 176.82 152.559C175.251 152.759 174.124 153.401 173.48 154.363C167.605 163.141 161.811 171.92 156.016 180.779C155.614 181.42 155.574 182.262 155.332 183.023C154.045 184.306 152.757 185.589 151.429 186.912L151.469 186.872C150.504 188.635 149.498 190.399 148.572 192.203C146.922 195.53 145.313 198.937 143.703 202.304L143.623 202.224H143.703ZM146.681 191.722C146.278 191.962 145.715 192.123 145.474 192.443C141.973 197.895 138.472 203.386 135.052 208.918C134.891 209.159 135.293 209.68 135.575 210.562C136.541 209.56 137.426 208.878 137.949 207.996C140.162 204.348 142.375 200.661 144.427 196.893C145.353 195.249 145.916 193.405 146.641 191.642C146.802 191.602 146.962 191.561 147.083 191.481C147.164 191.441 147.083 191.241 147.083 191.121C146.962 191.321 146.802 191.481 146.681 191.682V191.722ZM133.12 179.175C134.931 177.331 136.742 175.447 139.076 173.082C132.517 173.643 125.113 178.494 123.382 182.903C126.078 182.262 128.694 181.66 131.269 181.059C129.901 182.582 128.573 184.186 127.205 185.669C124.911 188.154 124.831 189.277 126.883 193.005C127.688 192.684 129.016 192.564 129.298 191.962C131.068 188.234 132.597 184.426 134.126 180.578C134.247 180.257 133.482 179.616 133.16 179.095L133.12 179.175ZM162.978 188.635C164.024 187.673 165.312 186.831 166.036 185.669C172.555 175.127 179.033 164.584 185.431 153.962C185.914 153.2 185.994 152.158 186.236 151.276L186.397 150.995L186.316 151.316C185.431 152.198 184.304 152.96 183.701 154.002C176.78 165.506 169.939 177.091 163.058 188.635L162.978 188.876L163.018 188.555L162.978 188.635ZM86.7648 227.237C86.1612 231.326 85.5576 235.414 84.9942 239.503C84.6723 241.988 86.3624 243.391 88.0122 245.355C90.1046 239.784 89.7425 234.452 89.6218 229.321C89.501 224.07 92.2775 218.979 90.4265 212.606C89.501 215.572 89.1389 217.617 88.2536 219.42C87.0062 221.946 86.5636 224.551 86.7245 227.277H86.7648V227.237ZM53.9296 238.741C55.6599 239.102 57.4305 238.421 59.0803 240.225C60.3277 241.587 63.8687 240.225 64.6735 238.1C65.7197 235.334 66.1623 232.288 66.7659 229.361C66.8464 229.041 66.0014 228.56 65.5588 228.119V228.159C65.7197 227.157 66.3635 225.874 65.9209 225.273C65.4783 224.631 63.7882 224.151 63.1042 224.471C57.1488 227.437 50.9922 230.163 46.0428 234.773C45.4794 235.294 45.4794 236.376 45.1575 237.419C48.6181 238.34 51.4751 237.98 54.1309 236.176C55.2978 235.374 56.5854 234.733 57.8328 234.011H57.7926C56.5452 235.575 55.2978 237.178 54.0504 238.781H54.0101L53.9296 238.741ZM84.4309 263.233C84.1895 266.039 83.9883 268.524 83.7468 271.01C85.1954 269.286 86.1209 267.522 86.9257 265.759C87.65 264.115 86.805 263.474 84.4309 263.233ZM76.3831 165.065C76.3831 165.065 76.6648 165.065 76.8257 165.065V158.09C76.8257 158.09 76.544 158.09 76.3831 158.09V165.065ZM46.928 256.258C47.2902 255.737 47.5719 255.337 47.8938 254.896C47.5316 254.695 47.089 254.214 46.8073 254.294C46.3647 254.455 46.0428 254.936 45.6404 255.296C45.9623 255.537 46.3245 255.777 46.928 256.218V256.258ZM68.2145 237.94C68.5365 237.94 68.8986 237.98 69.2205 238.02V235.013C68.9389 235.013 68.6974 235.013 68.4157 235.013C68.3353 235.975 68.2548 236.938 68.2145 237.94ZM105.637 303.438L106.643 303.799L107.045 301.675C106.844 301.635 106.603 301.554 106.401 301.514C106.16 302.156 105.919 302.797 105.637 303.438ZM59.3217 255.537C59.6034 255.457 59.8448 255.377 60.1265 255.296C59.9655 255.056 59.8046 254.735 59.6034 254.655C59.4022 254.575 59.0803 254.775 58.7986 254.855C58.9595 255.096 59.1607 255.296 59.3217 255.537ZM65.76 284.839C65.76 284.839 65.9612 284.598 66.0416 284.478C65.8002 284.358 65.5588 284.198 65.3173 284.117C65.2771 284.117 65.1564 284.358 65.0356 284.478C65.2771 284.598 65.5185 284.719 65.76 284.839ZM68.5365 284.478C68.7779 284.518 68.9791 284.558 69.2205 284.599C69.2205 284.118 69.14 283.636 69.0998 283.155C68.9388 283.155 68.8181 283.155 68.6572 283.155C68.6169 283.596 68.5767 283.997 68.4962 284.438L68.5365 284.478ZM63.9894 337.27C63.9894 337.27 64.0297 336.989 63.9894 336.869C63.9492 336.789 63.748 336.829 63.6273 336.789C63.6273 336.989 63.6273 337.23 63.6273 337.43C63.748 337.35 63.8687 337.31 63.9894 337.23V337.27ZM71.2325 279.949C71.2325 279.949 71.2325 279.708 71.2325 279.548C71.0715 279.628 70.9106 279.748 70.7496 279.828C70.8301 279.909 70.8703 280.029 70.9508 280.149C71.0313 280.069 71.152 279.989 71.2325 279.949ZM105.114 231.286L105.033 231.606L105.355 231.486L105.114 231.245V231.286ZM69.6631 291.934C69.8241 291.734 69.9448 291.613 70.0655 291.453C69.9448 291.453 69.8241 291.413 69.7034 291.373C69.7034 291.493 69.7034 291.653 69.6631 291.894V291.934ZM70.7094 318.59V318.991L70.991 318.751L70.7094 318.59ZM100.889 310.413H100.647L100.808 310.694L100.929 310.413H100.889ZM65.76 194.207L65.6795 194.528L65.9611 194.448L65.7197 194.207H65.76ZM70.7898 323.24L70.991 322.92H70.6691L70.7898 323.24ZM52.3201 205.792L52.4408 206.072L52.6018 205.792H52.3201Z" fill="#6FADEC"/>
<path d="M362.885 138.409C361.598 139.371 360.31 140.373 359.022 141.335L359.103 141.255C358.741 141.616 358.379 141.977 358.057 142.297C356.125 143.219 354.234 144.181 352.303 145.103L352.343 145.183C351.981 145.544 351.659 145.865 351.297 146.226L351.216 146.186C348.44 146.707 346.951 148.831 345.502 150.956L345.542 150.996C344.979 150.835 344.134 150.354 343.852 150.555C341.72 152.198 339.748 154.002 337.696 155.766L337.736 155.726C335.684 155.726 335.08 157.008 335 158.772H334.718L334.959 158.692C336.851 159.133 336.569 160.296 335.925 161.578C335.724 161.739 335.563 161.939 335.362 162.099C335.523 161.899 335.684 161.698 335.845 161.538C337.132 163.182 337.173 164.865 335.483 166.188C325.986 173.523 317.979 182.743 306.913 187.994C302.124 190.279 297.296 191.882 291.179 190.159C293.594 187.393 295.726 184.948 297.899 182.503C297.698 182.222 297.497 181.941 297.255 181.701C295.968 182.422 294.64 183.104 293.392 183.865C291.863 184.787 290.455 185.108 289.006 183.705C286.954 181.741 285.063 182.102 283.131 183.986C281.562 185.509 279.711 185.509 277.78 184.507C276.814 183.986 275.728 183.264 274.762 183.344C271.945 183.585 272.186 180.899 270.657 179.496C269.008 179.737 267.157 179.977 264.42 180.338C265.426 179.175 265.788 178.454 266.352 178.173C269.088 176.891 270.416 174.485 272.227 172.241C279.55 163.222 280.516 151.958 283.856 141.616C287.759 129.59 290.857 117.324 294.278 105.139C294.358 104.818 294.439 104.537 294.519 104.217C296.048 98.8453 295.887 98.244 290.334 97.1617C282.528 95.6385 275.285 92.7523 267.961 89.8261C263.656 88.1025 258.988 87.3409 254.562 85.8578C246.474 83.132 245.427 81.0075 247.439 72.5495C247.56 72.0685 247.721 71.6276 247.842 71.1867L247.922 71.1065C249.532 70.0242 250.98 68.6614 252.711 67.9799C259.873 65.2141 266.996 62.2478 274.359 60.2034C285.707 56.9966 297.255 54.3911 308.764 51.7455C311.822 51.064 313.472 49.5007 314.518 46.7348C315.242 44.8108 316.449 43.0872 317.415 41.2834L317.455 41.3235C317.938 39.0386 318.099 36.5934 318.944 34.4689C321.761 27.5342 324.779 20.6797 327.797 13.8252C330.01 8.89472 333.632 5.08665 337.937 1.91994C339.869 0.516965 342.283 -0.00406575 344.295 1.11831C348.762 3.64366 353.429 5.60779 358.338 6.97067C364.294 8.65424 368.519 12.783 372.503 17.2324C372.342 17.3927 372.181 17.5129 372.1 17.553C372.14 17.4729 372.301 17.3126 372.422 17.1523C375.963 20.0384 378.86 23.3654 380.027 27.9751C380.389 29.338 381.234 30.5807 381.838 31.9035C384.333 37.3951 387.753 40.1209 394.554 38.9985C400.63 37.9964 407.068 38.5976 413.305 39.1187C419.945 39.6398 426.061 41.8045 431.453 46.1737C433.988 48.218 437.288 49.5008 440.426 50.7033C443.887 52.0662 447.146 53.6296 449.882 56.2351C451.935 58.1992 454.429 59.6824 456.723 61.3659C458.896 62.9693 459.781 65.2942 458.494 67.6993C455.717 72.9504 452.417 77.8408 447.549 81.5286C441.03 86.4591 434.471 91.3895 427.952 96.2799C425.498 98.1238 423.083 99.9275 420.629 101.731C419.985 102.212 419.26 102.613 418.697 103.174C415.156 106.662 413.949 108.826 418.456 113.476C422.721 110.951 427.027 108.345 431.372 105.74L431.332 105.7C428.596 107.864 425.94 110.189 423.043 112.153C419.26 114.679 418.818 115.521 420.749 119.569C422.399 123.057 424.371 126.384 425.9 129.871C427.389 133.358 428.515 136.966 429.723 140.253C426.141 143.821 422.037 140.894 418.496 142.618C419.019 143.54 419.462 144.261 420.186 145.464C417.611 144.582 415.518 143.901 413.426 143.099C407.792 140.934 402.199 138.69 396.566 136.525C396.123 136.365 395.64 136.244 395.157 136.204C390.57 135.844 385.942 135.363 381.355 135.202C380.068 135.162 378.74 136.124 377.412 136.605L377.452 136.685C377.331 135.964 377.211 135.242 376.969 133.639C374.193 135.483 371.939 136.966 369.646 138.449L369.726 138.529C369.364 137.567 369.002 136.605 368.64 135.643L368.68 135.603C367.392 136.565 366.105 137.527 364.817 138.489C364.133 138.529 363.449 138.529 362.765 138.529L362.885 138.409ZM326.268 85.5371L326.228 85.497H326.268V85.5371ZM309.85 104.858L309.81 104.818H309.85V104.858ZM336.891 142.418C336.569 142.738 336.247 143.059 335.925 143.38C335.805 143.38 335.684 143.38 335.563 143.46C335.483 143.5 335.483 143.62 335.442 143.74C335.603 143.62 335.724 143.5 335.885 143.38C336.207 143.059 336.529 142.738 336.851 142.418L336.891 142.458V142.418ZM332.062 146.266C331.74 146.586 331.418 146.907 331.097 147.228C329.326 148.19 327.395 148.911 325.785 150.114C322.606 152.519 319.669 155.165 316.61 157.69C315.645 158.532 314.357 159.213 315.484 160.977C315.846 159.854 316.208 158.732 316.57 157.61C317.938 157.369 319.588 157.49 320.675 156.808C324.699 154.243 328.843 151.677 331.097 147.148C331.418 146.827 331.74 146.506 332.062 146.146L332.103 146.186L332.062 146.266ZM281.804 157.81H281.844C281.844 158.131 281.844 158.492 281.884 158.852C281.441 159.654 280.959 160.456 280.516 161.217C280.757 161.298 280.999 161.378 281.24 161.458C281.441 160.576 281.643 159.694 281.844 158.812C281.844 158.492 281.844 158.171 281.804 157.81ZM330.131 159.734C330.131 160.055 330.091 160.416 330.05 160.736C329.769 161.378 329.447 161.979 329.165 162.62L329.125 162.58C329.406 161.979 329.728 161.418 330.01 160.817C330.01 160.456 330.01 160.095 330.05 159.694L330.131 159.774V159.734ZM414.19 122.976V123.257V123.016L414.07 122.816L414.231 122.976H414.19ZM320.393 113.476L320.554 113.276L320.473 113.556H320.433L320.393 113.476ZM322.365 172.201L322.163 172.281L322.324 172.161H322.365V172.201ZM338.863 38.6377C338.541 39.5597 338.179 40.4816 337.857 41.4036H337.816C338.138 40.4416 338.501 39.5196 338.822 38.5976L338.903 38.3571V38.6377H338.863ZM329.125 79.8851H329.165C329.447 80.0455 329.769 80.286 330.05 80.5265C330.131 80.4063 330.171 80.326 330.251 80.2058C329.889 80.0855 329.487 80.0053 329.125 79.9251V79.8851ZM322.485 167.431C322.727 167.07 322.928 166.709 322.646 167.19C322.807 166.629 322.687 167.03 322.566 167.471H322.284H322.526L322.485 167.431ZM306.993 110.51C306.43 110.71 305.867 110.951 305.263 111.151C305.384 111.392 305.545 111.632 305.665 111.833C306.108 111.352 306.551 110.911 306.993 110.43C307.154 111.031 307.275 111.592 307.557 112.594C308.563 110.991 309.005 110.069 306.993 110.51ZM321.359 131.755C322.807 130.953 323.773 129.911 322.566 127.987C322.204 129.27 321.801 130.552 321.439 131.835C321.198 131.995 320.997 132.156 320.755 132.316C320.916 132.396 321.117 132.517 321.278 132.597C321.278 132.316 321.278 132.036 321.318 131.755H321.359ZM303.13 128.067C300.998 129.991 300.716 132.557 300.354 135.122C300.676 135.202 300.998 135.323 301.32 135.403C301.883 132.958 302.487 130.472 303.05 128.027C303.09 127.787 303.13 127.546 303.171 127.306C303.171 127.546 303.13 127.827 303.09 128.067H303.13ZM315.685 129.991C313.512 131.955 313.552 134.521 313.432 137.006C313.753 137.086 314.035 137.126 314.357 137.207C314.8 134.761 315.202 132.356 315.645 129.911L315.765 129.711V129.991H315.685ZM343.571 74.0327L343.53 74.0728C342.685 74.634 341.438 75.0348 341.076 75.8365C340.392 77.3998 340.15 79.2037 339.748 80.8873C338.742 81.8092 337.776 82.7312 336.77 83.6531C337.173 81.0476 337.535 78.442 337.937 75.8365C335.322 79.2437 333.632 85.1764 333.873 87.9021C334.879 86.419 335.845 84.9759 336.81 83.5729C336.609 86.1383 334.959 88.5435 335.965 91.5097C339.587 87.6215 340.512 84.8556 339.667 80.8471C342.283 79.3239 342.766 76.5981 343.571 74.0327ZM305.867 165.506L305.907 165.466C305.504 166.148 305.102 166.869 304.418 168.072C309.931 165.466 310.454 164.985 311.621 161.819C309.488 163.182 307.677 164.344 305.867 165.506ZM338.742 118.327L338.702 118.367C339.144 118.246 339.627 118.086 340.07 117.966C342.042 117.525 343.933 116.843 344.094 114.478C344.255 111.873 341.72 111.793 340.191 110.951C338.621 110.109 336.69 109.468 335.362 111.232C332.103 115.44 330.734 120.331 330.493 125.702C332.787 124.62 334.678 123.337 335.925 121.213C336.891 120.251 337.857 119.248 338.822 118.286L338.742 118.327ZM362.885 84.7354C362.564 83.4126 362.242 82.1298 361.92 80.807H361.879C361.034 79.5243 360.069 78.2417 359.304 76.8788C358.379 75.1952 357.614 73.4314 356.689 71.7879C354.516 67.8195 351.578 67.6191 349.003 71.2268C348.641 71.7479 348.319 72.309 348.077 72.9103C346.065 77.9209 344.054 82.9717 342.122 88.0224C341.438 89.7861 341.036 91.63 340.352 93.995C343.249 95.1575 345.824 96.2799 348.52 97.2019C351.699 98.2841 354.918 99.166 358.137 100.168L357.815 100.248L358.097 100.088C358.862 100.248 359.666 100.569 360.431 100.529C365.219 100.248 367.795 95.9993 365.863 91.6701C364.857 89.3452 363.851 87.0202 362.845 84.6953L362.926 84.7755L362.885 84.7354ZM412.219 63.2499C410.569 62.6887 409.16 61.7667 407.833 61.8869C405.137 62.0473 402.481 62.7689 399.825 63.3301C397.692 63.771 396.042 65.1739 396.606 67.2984C397.089 69.1022 398.698 70.6255 399.946 72.1888C400.107 72.3892 401.555 72.0285 401.595 71.8682C401.917 69.1424 404.452 69.7035 405.982 68.9018C408.275 67.7794 410.73 66.9377 412.219 63.2899V63.2499ZM292.829 176.971C295.646 176.57 298.664 174.926 300.314 172.682C300.957 171.84 300.998 170.557 301.642 168.473C297.215 170.798 293.634 172.201 292.829 176.971ZM300.756 117.445C300.434 117.324 300.072 117.244 299.75 117.124C297.618 119.97 296.531 125.862 297.658 130.673C298.825 125.662 299.79 121.573 300.756 117.445ZM298.261 80.6468C298.1 81.1278 297.939 81.6489 297.779 82.1299C298.624 82.4105 299.509 82.7312 300.354 83.0118C300.515 82.4907 300.676 81.9695 300.877 81.4484C300.032 81.2079 299.147 80.9273 298.302 80.6868L298.261 80.6468ZM326.348 162.54C325.785 162.019 325.383 161.498 325.222 161.538C324.739 161.739 324.296 162.179 323.853 162.5C324.095 162.821 324.417 163.382 324.618 163.342C325.141 163.262 325.584 162.901 326.348 162.5V162.54ZM316.128 125.021L317.174 125.502C317.415 124.78 317.697 124.059 317.938 123.337C317.697 123.217 317.455 123.137 317.214 123.016C316.852 123.698 316.49 124.379 316.128 125.061V125.021ZM319.991 116.563C319.065 117.084 318.622 117.244 318.622 117.365C318.663 117.846 318.864 118.327 318.985 118.808C319.226 118.246 319.508 117.645 319.991 116.523V116.563ZM302.607 177.452C302.406 177.692 302.205 177.893 302.004 178.133C302.205 178.253 302.446 178.414 302.688 178.454C302.768 178.454 303.01 178.213 302.969 178.133C302.889 177.893 302.728 177.692 302.607 177.452ZM370.893 131.996C370.772 132.196 370.611 132.396 370.491 132.637C370.611 132.717 370.853 132.837 370.853 132.837C371.014 132.637 371.134 132.436 371.255 132.236C371.134 132.156 371.014 132.116 370.893 132.036V131.996ZM311.098 172.161C311.098 172.161 310.896 171.92 310.776 171.96C310.655 171.96 310.534 172.08 310.414 172.161C310.575 172.281 310.736 172.401 310.896 172.521C310.937 172.401 311.017 172.281 311.057 172.161H311.098ZM307.516 174.445L307.838 174.646V174.245L307.516 174.405V174.445ZM325.061 122.135V121.774L324.779 121.894L325.061 122.135ZM314.156 122.736L313.995 123.016H314.277L314.156 122.736Z" fill="#6FADEC"/>
<path d="M58.6793 348.212C57.9147 349.335 57.1502 350.497 55.943 352.341C55.3394 349.335 56.6673 347.851 57.7538 346.288L57.7135 346.208C58.0757 346.889 58.3976 347.571 58.7597 348.212H58.7195H58.6793Z" fill="#6FADEC"/>
<path d="M159.195 231.806C160.322 229.481 161.408 227.156 162.535 224.831L163.541 225.392C162.092 227.517 160.604 229.601 159.155 231.726L159.195 231.766V231.806Z" fill="#6FADEC"/>
<path d="M166.92 201.983L168.892 201.141V201.061C167.926 202.945 166.961 204.789 165.995 206.673L166.035 206.713C164.587 205.149 164.828 203.586 165.914 201.942C166.277 201.902 166.639 201.902 167.001 201.902L166.92 201.983Z" fill="#6FADEC"/>
<path d="M366.87 466.504C368.037 464.86 369.204 463.257 370.371 461.613C370.532 464.219 369.003 465.542 366.83 466.424L366.91 466.504H366.87Z" fill="#6FADEC"/>
<path d="M63.7071 314.66C62.9828 312.897 62.4596 311.133 64.4314 309.449C64.1899 311.173 63.9083 312.897 63.6668 314.62L63.7473 314.66H63.7071Z" fill="#6FADEC"/>
<path d="M359.102 147.107C360.269 146.465 361.436 145.864 362.965 145.022C362.375 146.813 361.074 147.521 359.062 147.147H359.102V147.107Z" fill="#6FADEC"/>
<path d="M351.579 154.041C351.016 154.442 350.452 154.843 349.929 155.284C349.688 155.003 349.406 154.723 349.165 154.442C349.728 154.001 350.291 153.56 350.855 153.119C351.096 153.44 351.338 153.76 351.579 154.081V154.041Z" fill="#6FADEC"/>
<path d="M318.462 354.785L315.968 358.513C315.686 358.273 315.445 358.032 315.163 357.832C316.29 356.83 317.416 355.868 318.543 354.865C318.543 354.865 318.462 354.785 318.503 354.785H318.462Z" fill="#6FADEC"/>
<path d="M64.5132 292.335C65.0765 293.337 65.5996 294.379 66.163 295.381C63.9096 294.981 64.8351 293.417 64.5936 292.295L64.5132 292.335Z" fill="#6FADEC"/>
<path d="M456.723 305.883C457.649 304.32 458.614 302.757 459.54 301.193L459.5 301.153C458.534 302.717 457.608 304.28 456.643 305.843L456.723 305.923V305.883Z" fill="#6FADEC"/>
<path d="M360.954 466.504C362.926 466.504 364.897 466.504 366.909 466.504L366.829 466.424C365.179 468.548 363.046 467.787 360.994 467.426V467.506C361.035 467.145 361.035 466.825 361.035 466.464L360.954 466.544V466.504Z" fill="#6FADEC"/>
<path d="M364.899 142.297C366.549 141.015 368.159 139.772 369.809 138.489L369.728 138.409C368.118 139.692 366.469 140.975 364.859 142.257L364.899 142.297Z" fill="#6FADEC"/>
<path d="M195.895 167.31C196.861 165.747 197.867 164.224 198.832 162.66L198.792 162.58C197.826 164.143 196.82 165.707 195.855 167.23L195.895 167.27V167.31Z" fill="#6FADEC"/>
<path d="M446.02 85.5351C446.543 85.2546 447.066 84.9739 447.589 84.7334L447.75 85.3346C447.146 85.3747 446.543 85.4549 445.939 85.495H445.979L446.02 85.5351Z" fill="#6FADEC"/>
<path d="M60.9325 314.986H60.57C60.57 314.986 60.57 314.704 60.6103 314.583C60.6103 314.543 60.8519 314.583 60.9728 314.583C60.9728 314.704 60.9728 314.865 60.9728 314.986H60.9325Z" fill="#6FADEC"/>
<path d="M464.408 414.553C463.12 413.591 461.792 412.589 460.505 411.627V411.707C461.792 412.669 463.08 413.631 464.368 414.593H464.448L464.408 414.553Z" fill="#6FADEC"/>
<path d="M456.644 305.804C456.121 306.525 455.557 307.207 455.034 307.928C454.913 307.808 454.793 307.728 454.672 307.608C455.356 307.046 456.04 306.445 456.724 305.884L456.644 305.804Z" fill="#6FADEC"/>
<path d="M304.538 201.825L304.296 202.066L304.216 201.744L304.538 201.825Z" fill="#6FADEC"/>
<path d="M296.17 389.021L296.452 389.303L296.09 389.383L296.17 389.021Z" fill="#6FADEC"/>
<path d="M127.247 286.522C126.723 286.241 126.16 285.961 125.637 285.72C125.718 285.56 125.758 285.36 125.838 285.199C126.321 285.36 126.764 285.56 127.247 285.72L127.206 285.68C127.206 286.001 127.206 286.282 127.206 286.602L127.247 286.562V286.522Z" fill="#6FADEC"/>
<path d="M62.5816 355.269C62.5816 355.269 62.2996 355.269 62.219 355.229C62.1385 355.148 62.1385 354.987 62.0982 354.866C62.2996 354.866 62.501 354.866 62.7024 354.906C62.7024 355.027 62.6218 355.148 62.6218 355.269H62.5816Z" fill="#6FADEC"/>
<path d="M354.275 150.955C354.598 150.714 354.92 150.472 354.557 150.754C354.96 150.593 354.557 150.754 354.195 150.915L354.235 150.955H354.275Z" fill="#6FADEC"/>
<path d="M377.493 136.564C377.171 136.726 376.849 136.847 377.292 136.645C376.808 136.726 377.211 136.645 377.574 136.645L377.533 136.564H377.493Z" fill="#6FADEC"/>
<path d="M360.954 141.335C359.988 141.656 359.022 141.976 358.057 142.297C358.419 141.936 358.781 141.576 359.103 141.255L359.022 141.335C359.666 141.335 360.35 141.335 360.994 141.335H360.954Z" fill="#6FADEC"/>
<path d="M92.8811 361.923L92.9617 362.285L92.6394 362.165L92.8811 361.923Z" fill="#6FADEC"/>
<path d="M465.295 292.335C464.651 292.976 463.967 293.658 463.323 294.299H463.403C463.403 293.618 463.403 292.936 463.403 292.295L463.323 292.375C464.007 292.375 464.691 292.375 465.335 292.375V292.295L465.295 292.335Z" fill="#6FADEC"/>
<path d="M57.7533 346.288C58.0752 346.288 58.3971 346.248 58.719 346.208C58.3569 346.208 58.035 346.208 57.6728 346.208V346.288H57.7533Z" fill="#6FADEC"/>
<path d="M70.2691 299.952C70.1483 300.194 70.0677 300.395 70.0274 300.476C70.0677 300.395 70.1885 300.194 70.3497 299.992L70.3094 299.952H70.2691Z" fill="#6FADEC"/>
<path d="M360.955 467.426C360.794 467.666 360.633 467.947 360.512 468.187C360.351 467.947 360.19 467.666 360.029 467.426L359.989 467.506C360.351 467.506 360.673 467.506 361.035 467.506L360.995 467.426H360.955Z" fill="#6FADEC"/>
<path d="M91.5132 358.635C91.5132 357.713 91.5937 356.791 91.634 355.869H91.5937C91.5937 356.791 91.5132 357.673 91.5132 358.595V358.675V358.635Z" fill="#6FADEC"/>
<path d="M173.682 200.02V199.338C173.682 199.338 173.803 199.539 173.763 199.619C173.763 199.739 173.682 199.819 173.602 199.94L173.642 199.98L173.682 200.02Z" fill="#6FADEC"/>
<path d="M183.299 171.078L183.42 171.32L183.379 171.038L183.299 171.078Z" fill="#6FADEC"/>
<path d="M168.893 201.143L168.933 200.861L168.853 201.063L168.893 201.143Z" fill="#6FADEC"/>
<path d="M198.792 162.66C199.074 161.978 199.356 161.337 199.677 160.655L199.637 160.615C199.356 161.297 199.074 161.938 198.792 162.619L198.832 162.7L198.792 162.66Z" fill="#6FADEC"/>
<path d="M460.385 298.948C460.103 299.67 459.781 300.391 459.499 301.113L459.54 301.153C459.821 300.431 460.143 299.71 460.425 298.988L460.385 298.908V298.948Z" fill="#6FADEC"/>
<path d="M167.806 216.374L168.047 216.173L167.846 216.334L167.806 216.374Z" fill="#6FADEC"/>
<path d="M124.349 298.146L124.269 298.345L124.428 298.186L124.349 298.146Z" fill="#6FADEC"/>
<path d="M200.763 159.574C201.045 158.973 201.367 158.372 201.648 157.771V157.73C201.326 158.332 201.004 158.933 200.723 159.534L200.763 159.574Z" fill="#6FADEC"/>
<path d="M339.949 156.849L340.11 156.647L339.869 156.889L339.949 156.849Z" fill="#6FADEC"/>
<path d="M58.7185 346.208C58.7185 346.889 58.7185 347.531 58.7185 348.212H58.7587C58.7587 347.531 58.7587 346.849 58.7587 346.208H58.7185Z" fill="#6FADEC"/>
<path d="M128.291 287.646L128.493 287.726L128.332 287.605L128.291 287.646Z" fill="#6FADEC"/>
<path d="M432.458 351.983C432.176 351.301 431.854 350.66 431.573 349.979L431.532 350.019C431.854 350.66 432.136 351.341 432.458 351.983Z" fill="#6FADEC"/>
<path d="M91.473 358.595L91.4327 358.877L91.5132 358.635L91.473 358.595Z" fill="#6FADEC"/>
<path d="M364.898 138.409C364.214 138.409 363.571 138.409 362.886 138.409V138.449C363.571 138.449 364.255 138.449 364.939 138.449L364.898 138.409Z" fill="#6FADEC"/>
<path d="M128.293 284.599C127.931 284.959 127.569 285.32 127.207 285.681L127.247 285.721C127.609 285.36 127.971 284.999 128.333 284.639L128.293 284.599Z" fill="#6FADEC"/>
<path d="M127.207 286.564C127.569 286.924 127.931 287.285 128.293 287.646L128.333 287.606C127.971 287.245 127.609 286.884 127.247 286.523L127.207 286.564Z" fill="#6FADEC"/>
<path d="M167.846 216.334L167.806 216.576V216.374L167.846 216.334Z" fill="#6FADEC"/>
<path d="M164.95 207.756C165.312 207.395 165.634 207.075 165.996 206.714L165.956 206.674C165.594 207.035 165.272 207.355 164.91 207.716L164.95 207.756Z" fill="#6FADEC"/>
<path d="M172.676 201.021C172.998 200.7 173.36 200.339 173.682 199.979L173.642 199.938C173.279 200.259 172.958 200.62 172.595 200.941L172.636 200.981L172.676 201.021Z" fill="#6FADEC"/>
<path d="M199.677 160.655C200.039 160.294 200.401 159.933 200.764 159.572L200.723 159.532C200.361 159.893 199.999 160.254 199.637 160.614L199.677 160.655Z" fill="#6FADEC"/>
<path d="M454.669 340.437L454.55 340.516L454.669 340.437Z" fill="#6FADEC"/>
<path d="M339.869 156.888C339.547 156.888 339.185 156.808 338.863 156.768H338.823C339.185 156.848 339.588 156.848 339.95 156.888H339.869Z" fill="#6FADEC"/>
<path d="M338.862 156.768C338.5 156.407 338.137 156.046 337.775 155.686L337.735 155.726C338.097 156.086 338.459 156.447 338.821 156.808L338.862 156.768Z" fill="#6FADEC"/>
<path d="M359.063 147.106L358.902 147.147L359.103 147.106H359.063Z" fill="#6FADEC"/>
<path d="M352.303 145.104C351.941 145.464 351.579 145.825 351.257 146.146L351.338 146.186C351.7 145.825 352.022 145.504 352.384 145.144V145.063L352.303 145.104Z" fill="#6FADEC"/>
<path d="M302.124 371.221C302.084 370.9 302.084 370.579 302.124 370.259C302.124 370.62 302.124 370.94 302.124 371.301L302.205 371.221H302.124Z" fill="#6FADEC"/>
<path d="M302.085 372.264C302.085 371.903 302.085 371.582 302.085 371.222L302.005 371.302C302.367 371.302 302.689 371.302 303.051 371.302V371.222C303.051 371.582 303.051 371.943 303.051 372.304L303.131 372.224C302.769 372.224 302.407 372.224 302.045 372.224H302.125L302.085 372.264Z" fill="#6FADEC"/>
<path d="M445.899 375.03C446.221 375.03 446.583 375.11 446.905 375.11L446.945 375.07C446.583 375.07 446.181 375.029 445.818 374.989H445.859L445.899 375.03Z" fill="#6FADEC"/>
<path d="M432.42 104.777C432.098 105.098 431.776 105.419 431.454 105.739L431.494 105.78C431.816 105.459 432.138 105.138 432.46 104.777L432.42 104.737V104.777Z" fill="#6FADEC"/>
<path d="M391.938 352.06C390.329 349.815 388.679 347.531 387.069 345.286C387.109 344.003 387.15 342.72 387.19 341.438L387.15 341.478C387.472 341.438 387.794 341.398 388.115 341.357C389.403 344.925 390.691 348.493 391.978 352.06H391.938Z" fill="#6FADEC"/>
<path d="M417.049 311.575L416.003 312.617C416.365 312.257 416.727 311.896 417.049 311.575Z" fill="#6FADEC"/>
<path d="M414.15 313.5C413.788 313.861 413.426 314.221 413.104 314.542C413.466 314.181 413.828 313.821 414.15 313.5Z" fill="#6FADEC"/>
<path d="M386.063 340.477C386.425 340.837 386.747 341.158 387.109 341.519C387.109 341.519 387.149 341.479 387.189 341.479C386.827 341.118 386.465 340.797 386.143 340.437L386.103 340.477H386.063Z" fill="#6FADEC"/>
<path d="M321.361 377.076C321.361 376.716 321.361 376.395 321.361 376.034C321.723 376.034 322.045 376.034 322.407 376.034C322.045 376.395 321.723 376.716 321.361 377.076Z" fill="#6FADEC"/>
<path d="M57.7533 233.731C59.0812 232.248 60.4091 230.724 61.737 229.241L62.5418 230.083C60.9322 231.286 59.3226 232.488 57.6728 233.691L57.7131 233.731H57.7533Z" fill="#6FADEC"/>
<path d="M65.4794 227.838L65.4391 228.08V227.918L65.4794 227.838Z" fill="#6FADEC"/>
<path d="M123.462 174.085C123.1 174.085 122.738 174.085 122.416 174.085C122.778 173.724 123.1 173.404 123.462 173.043C123.462 173.404 123.462 173.765 123.462 174.085Z" fill="#6FADEC"/>
<path d="M61.5754 217.376C61.5754 217.015 61.5754 216.695 61.5754 216.334C62.2594 216.334 62.9435 216.334 63.6276 216.334C62.9435 216.695 62.2594 217.015 61.5754 217.376Z" fill="#6FADEC"/>
<path d="M335.926 121.131L335.764 121.051L335.885 121.131H335.926Z" fill="#6FADEC"/>
</svg>
