<svg width="162" height="167" viewBox="0 0 162 167" fill="none" xmlns="http://www.w3.org/2000/svg">
<path d="M120.811 9.08876C119.606 8.83252 119.403 7.64574 118.929 6.82307C118.415 5.906 117.995 5.12379 116.709 5.33957C116.601 4.47645 116.533 3.80214 116.438 3.11434C116.316 2.12984 116.181 2.03542 115.233 2.08937C114.651 2.12983 114.069 2.08937 113.338 2.08937C112.959 2.62882 112.553 3.50543 111.443 2.93901C111.307 2.87158 110.942 3.22221 110.563 3.438C110.211 2.21075 109.886 1.11837 109.561 -0.000991821C108.64 0.160843 108.572 0.700272 108.654 1.23972C108.789 2.07587 108.654 2.77718 108.193 3.53241C107.896 4.0314 107.868 4.77313 107.909 5.40698C108.193 9.85746 108.518 14.308 108.83 18.7584C108.87 19.3518 108.789 19.9452 108.884 20.5251C109.033 21.4692 109.263 22.3997 109.466 23.3303C109.466 22.8717 109.466 22.4132 109.466 21.9412C109.574 21.9412 109.683 21.9682 109.791 21.9816C109.683 22.4267 109.561 22.8718 109.452 23.3033C109.479 23.7888 109.601 24.2878 109.507 24.7463C108.938 27.565 109.006 30.3971 109.209 33.2427C109.29 34.4834 108.83 34.9015 107.611 34.9285C106.988 34.942 106.352 35.0633 105.729 35.1173C105.364 35.1443 104.931 35.2521 104.619 35.1173C103.306 34.4969 101.993 34.6992 100.653 34.942L100.666 34.9285C100.152 35.7107 99.6373 36.5064 99.1228 37.2886C99.732 38.6237 99.9622 40.1746 101.316 41.0647H101.289C101.411 41.0782 101.533 41.0782 101.654 41.0782L101.627 41.0513C101.627 41.1727 101.627 41.294 101.627 41.4154V41.3884C101.627 41.5098 101.627 41.6177 101.627 41.7391C102.02 41.9009 102.467 41.9953 102.805 42.238C104.484 43.4923 106.163 44.7735 107.801 46.0816C108.261 46.4458 108.992 46.702 108.884 47.7C108.139 47.4303 107.476 47.1875 106.812 46.9313L106.84 46.9043C107.124 47.1606 107.381 47.4438 107.692 47.6596C109.073 48.6036 109.831 49.7769 109.263 51.5032C109.195 51.7055 109.209 51.9347 109.236 52.1505C109.723 55.3602 108.979 58.5834 109.358 61.8067C109.452 62.6024 109.29 63.4115 109.249 64.2207C109.128 66.7831 109.764 69.2511 110.17 71.7461C110.387 73.1217 110.441 74.5242 110.684 75.8864C110.82 76.6551 110.969 77.5587 111.456 78.0981C112.201 78.9073 113.162 79.6221 114.177 80.0536C114.759 80.2964 115.748 80.1076 116.316 79.7435C117.846 78.759 119.511 78.206 121.244 77.7879C121.61 77.707 122.002 77.5182 122.341 77.5856C123.844 77.8554 124.967 77.1676 125.942 76.1966C128.176 74.0118 130.504 71.8944 132.088 69.1297C132.264 68.8195 132.576 68.5768 132.968 68.1722C133.713 68.6172 134.457 69.0218 135.161 69.4939C137.72 71.2066 140.184 73.0677 142.824 74.6321C144.841 75.8324 146.953 76.9113 149.498 76.8843C151.028 76.8708 152.572 77.3833 154.115 77.5856C154.616 77.6531 155.171 77.5587 155.672 77.4238C156.66 77.1676 157.621 76.8439 158.596 76.5472C158.962 76.4393 159.354 76.3988 159.679 76.2235C162.211 74.8344 162.644 73.4454 161.114 71.6517C160.911 71.4089 160.776 71.0987 160.559 70.856C159.422 69.5073 158.285 68.1587 156.944 66.5808C157.08 67.3091 157.161 67.7676 157.256 68.2262C157.229 68.4419 157.215 68.6442 157.202 68.86C157.202 68.9949 157.202 69.1432 157.202 69.2781C158.163 70.0063 158.664 71.0043 159.097 72.3395C158.027 71.3415 157.824 70.9908 157.215 69.2511C157.215 69.1297 157.215 68.9948 157.215 68.8735L157.283 68.2127C156.944 68.1183 156.606 68.0374 156.267 67.943V67.916C156.051 68.4689 155.821 68.4015 155.591 67.916L155.618 67.943C155.387 67.8216 155.171 67.7137 154.941 67.5923L154.968 67.6193C155.184 67.4979 155.401 67.39 155.618 67.2686H155.591C155.523 66.5808 155.211 66.0549 154.602 65.7042V65.6772C154.629 65.9335 154.643 66.1897 154.67 66.6348C154.304 66.4729 153.993 66.4325 153.898 66.2706C152.802 64.4769 151.231 62.953 150.73 60.8087C150.636 60.5794 150.527 60.3366 150.432 60.1074C150.216 59.7837 149.999 59.4735 149.769 59.1499C149.661 58.9745 149.566 58.7992 149.458 58.6104C149.498 58.5969 149.552 58.57 149.593 58.5565C149.647 58.7588 149.688 58.9611 149.742 59.1634C149.959 59.487 150.189 59.7972 150.405 60.1209C150.5 60.3501 150.608 60.5929 150.717 60.8222C151.109 61.0784 151.488 61.3346 151.881 61.5909C151.962 61.5369 152.044 61.483 152.125 61.4291C151.434 60.2018 150.784 58.9476 150.04 57.7338C148.212 54.7264 146.141 51.8403 144.882 48.5227L144.895 48.5362C144.895 47.7809 144.895 47.0122 144.882 46.257C144.774 46.0277 144.679 45.785 144.57 45.5557C144.34 45.6771 144.097 45.7985 143.866 45.9333C143.812 45.8659 143.758 45.7985 143.704 45.7175C143.988 45.3669 144.286 45.0027 144.57 44.6521L144.598 44.5712L144.557 44.6386C144.557 44.9488 144.557 45.259 144.557 45.5692C144.665 45.7984 144.76 46.0412 144.868 46.2705C145.356 45.9873 145.843 45.7041 146.385 45.3939C146.087 44.6386 145.816 43.9778 145.545 43.317L145.518 43.3439C145.816 43.1686 145.965 42.5348 146.493 43.0203L146.506 43.0068C146.493 43.2495 146.466 43.4788 146.452 43.7215C146.561 43.762 146.669 43.816 146.777 43.8564C147.089 43.3439 147.454 42.8719 147.711 42.3325C148.158 41.3884 148.74 40.5927 149.715 40.1342L149.701 40.1477C149.783 39.9049 149.769 39.5138 149.945 39.4194C150.879 38.88 151.231 37.9629 151.475 37.0324C152.125 34.5239 153.397 32.4065 155.103 30.478C155.956 29.5205 156.606 28.3877 157.31 27.3088C157.486 27.0255 157.513 26.6479 157.635 26.2568C156.822 26.0141 156.403 26.4591 155.956 26.8232H155.929C156.43 26.9176 156.741 27.1469 156.403 27.6729C156.01 28.3067 155.563 28.9271 154.968 29.7902C154.805 28.8866 154.711 28.3337 154.616 27.7807V27.8077C153.817 27.8077 153.018 27.8077 152.22 27.8482C150.933 27.9021 149.647 27.9965 148.564 28.064C147.765 27.565 147.129 27.1064 146.452 26.7288C145.139 26.014 143.812 25.3397 142.486 24.6385C141.809 24.2743 141.24 24.5306 140.658 24.8407C139.426 25.5016 138.194 26.1759 136.935 26.7828C136.217 27.1334 135.446 27.3627 134.809 27.6189C133.821 27.1199 133.794 25.6769 132.494 25.8657H132.508C132.386 26.1219 132.264 26.3782 132.007 26.9311C130.572 25.0431 129.882 22.9661 128.582 21.2938L128.568 21.3747L128.609 21.3073C127.878 20.134 127.066 19.0147 126.429 17.7874C125.563 16.1016 124.818 14.3349 124.06 12.6896C124.019 12.811 123.938 13.0807 123.816 13.5258C123.004 12.9324 122.747 12.1097 122.314 11.4219C121.88 10.7476 121.515 10.0328 121.109 9.345L121.136 9.37196C121.014 9.25058 120.906 9.14272 120.784 9.02134L120.797 9.0483L120.811 9.08876ZM107.814 39.824C107.814 39.7161 107.814 39.5948 107.814 39.4869C107.963 39.4869 108.099 39.4734 108.248 39.4599C108.207 39.5812 108.166 39.6892 108.139 39.8105C108.139 39.9319 108.139 40.0533 108.139 40.1746C108.302 40.2421 108.464 40.3095 108.613 40.377C108.586 40.4174 108.559 40.4579 108.545 40.4848C108.424 40.377 108.288 40.2556 108.166 40.1477C108.058 40.0398 107.95 39.9319 107.828 39.8375L107.814 39.824ZM133.171 41.4424L133.144 41.4154C133.036 41.4154 132.941 41.4154 132.833 41.4154C132.201 40.7591 132.106 40.1522 132.549 39.5947C133.212 40.1477 132.968 40.8085 132.819 41.4424C132.941 41.4424 133.063 41.4424 133.171 41.4424ZM146.804 41.4154H146.818C146.926 41.2266 147.021 41.0108 147.129 40.795C147.251 40.6872 147.359 40.5658 147.481 40.4579L147.508 40.377L147.454 40.4309C147.346 40.5388 147.224 40.6602 147.116 40.768C147.007 40.9838 146.913 41.1861 146.804 41.4019V41.4154ZM148.104 39.1497H148.117L148.158 39.0958L148.104 39.1497ZM147.427 38.2461L147.441 38.2326C147.441 38.1112 147.441 37.9764 147.441 37.855C147.441 37.855 147.427 37.8415 147.441 37.8415C147.441 37.9764 147.441 38.1248 147.441 38.2596L147.427 38.2461ZM123.41 61.4965L123.37 61.537L123.424 61.51C123.424 61.51 123.492 61.4426 123.519 61.4021C123.478 61.4291 123.451 61.456 123.41 61.4965ZM132.806 49.1565V49.2644L132.819 49.1835C132.819 48.8733 132.819 48.5631 132.819 48.253C132.481 48.7385 132.156 49.2509 131.79 49.696C131.289 50.3028 130.748 50.8693 130.22 51.4627C130.179 52.0291 129.963 52.4472 129.367 52.582C128.853 51.5301 128.934 51.1929 129.922 50.2084C130.044 48.9003 130.694 47.8618 131.696 47.0122C131.641 47.3224 131.574 47.6191 131.52 47.9293C131.939 47.5921 132.345 47.255 132.995 46.729C132.928 47.4438 132.887 47.8484 132.846 48.2395C132.955 48.5766 133.049 48.9003 133.158 49.2374C133.198 49.3184 133.239 49.3858 133.293 49.4667C133.253 49.3858 133.225 49.3049 133.185 49.224C133.063 49.2105 132.941 49.197 132.806 49.1835V49.1565ZM145.518 70.5593C145.45 70.5053 145.369 70.4649 145.301 70.4109C145.369 70.4649 145.437 70.5188 145.505 70.5728H145.518V70.5593ZM119.863 27.8751C119.958 27.6324 120.066 27.4031 120.161 27.1604C120.161 26.513 120.107 25.8387 121.068 25.6364C121.528 26.4995 121.921 27.4031 121.623 28.3741C121.352 29.2642 120.879 30.0869 120.513 30.9231C120.391 29.6958 120.269 28.4146 120.148 27.1334C120.053 27.3762 119.945 27.6189 119.85 27.8482C119.823 27.9291 119.796 28.01 119.796 28.037C119.796 28.0235 119.836 27.9426 119.877 27.8751H119.863ZM156.579 70.1951C156.484 70.0873 156.389 69.9794 156.498 70.1007C156.416 69.9524 156.498 70.0873 156.552 70.2086C156.755 70.2491 156.944 70.2895 157.147 70.3165L156.728 70.6672C156.674 70.5053 156.633 70.3435 156.579 70.1816V70.1951ZM130.247 67.0124L130.234 66.9989C130.112 67.2686 129.99 67.5384 129.868 67.8081C129.8 67.7541 129.719 67.7002 129.651 67.6463C129.854 67.4305 130.058 67.2282 130.247 67.0124ZM129.936 70.8964L129.909 70.8695C129.773 71.3145 129.651 71.773 129.002 71.7461C128.961 70.9908 129.408 70.8829 129.922 70.8964H129.936ZM125.4 74.7266C124.845 75.2795 124.29 75.8324 123.735 76.3719L123.762 76.3988C123.898 75.4548 124.331 74.8075 125.387 74.7535L125.427 74.8614L125.4 74.74V74.7266ZM139.995 61.51C140.834 62.0629 141.619 62.6563 141.809 64.1533C140.347 62.953 139.142 61.9685 137.72 60.8087C138.248 60.6603 138.478 60.6064 138.708 60.539C138.429 59.5949 138.668 58.9836 139.426 58.7048C140.089 59.541 140.36 60.458 139.995 61.51ZM127.973 51.1255C127.851 52.1505 127.133 52.0426 126.578 51.6784C125.739 51.139 124.872 50.5456 124.818 49.3318C124.805 48.9138 124.52 48.5227 124.358 48.1181C124.141 48.8598 124.074 49.5341 123.099 49.2105H123.112C122.909 49.224 122.598 49.3588 122.544 49.2914C121.515 48.0776 121 45.6636 122.693 44.4229C123.234 44.6386 123.803 44.8544 124.371 45.0837C124.277 44.5173 124.006 44.1531 123.708 43.816C123.41 43.4518 123.099 43.1012 122.788 42.7505C122.476 41.9414 122.232 41.1322 122.76 40.2961V42.764C122.815 42.6157 122.909 42.4538 122.909 42.3055C122.855 40.1747 124.168 39.3925 126.023 39.1093C126.402 39.0553 126.768 38.9609 127.133 38.8665C127.946 38.6777 128.622 38.7721 129.083 39.5812C129.205 39.8105 129.448 39.9724 129.624 40.1612L129.597 40.1342C130.166 41.0917 130.667 42.0897 131.303 42.9798C131.845 43.7216 131.885 44.5173 131.547 45.2185C130.883 46.5941 130.044 47.8888 129.286 49.2105H129.299C129.272 50.1006 128.582 50.5861 128 51.139H127.986L127.973 51.1255ZM117.223 43.6811C117.088 43.29 116.005 43.3304 116.749 42.5347C116.898 42.3864 116.777 41.8605 116.628 41.5907C116.438 41.2536 116.086 40.9973 115.761 40.6467C116.533 40.0128 117.142 40.1747 117.792 40.5388C118.076 41.6582 118.009 42.6696 117.237 43.6811H117.223ZM122.395 28.9271C122.53 28.8866 122.666 28.8597 122.801 28.8192C123.194 29.4935 123.586 30.1543 123.952 30.8287C124.182 31.2602 124.399 31.7457 123.776 32.0559C123.194 32.3526 122.53 32.0829 122.422 31.3951C122.3 30.5859 122.395 29.7497 122.395 28.9271ZM116.073 28.6574C117.129 32.2043 117.142 32.8381 116.167 33.391C115.585 31.921 116.032 30.4645 116.073 28.6574ZM119.958 43.0607C120.053 43.0607 120.148 43.0338 120.229 43.0338V43.8969C120.134 43.8969 120.039 43.8969 119.958 43.8969V43.0742V43.0607ZM117.981 21.3882C117.819 21.1994 117.711 21.1185 117.67 21.0106C117.643 20.9432 117.724 20.8353 117.765 20.7409C117.873 20.7949 118.063 20.8218 118.09 20.9028C118.13 20.9972 118.049 21.1455 117.981 21.3882ZM119.863 32.3122C119.769 32.2852 119.687 32.2582 119.593 32.2312C119.66 32.0424 119.728 31.8536 119.809 31.6648L120.012 31.7323C119.972 31.9211 119.917 32.1098 119.877 32.2987L119.863 32.3122ZM117.277 32.0694C117.359 32.0694 117.44 32.0694 117.521 32.0694V32.9595H117.237C117.25 32.6493 117.264 32.3526 117.277 32.0559V32.0694ZM114.272 28.6169C114.191 28.6169 114.123 28.6169 114.042 28.6034C114.055 28.3876 114.069 28.1719 114.082 27.9696C114.164 27.9696 114.231 27.9696 114.313 27.9831C114.299 28.1988 114.286 28.4146 114.272 28.6169ZM135.04 43.8025C134.836 43.9104 134.715 44.0318 134.579 44.0452C134.498 44.0452 134.349 43.8429 134.363 43.7485C134.363 43.6407 134.512 43.5327 134.606 43.4248C134.701 43.5058 134.809 43.6002 135.053 43.8025H135.04ZM117.508 26.095C117.508 26.095 117.386 26.2029 117.332 26.2568C117.305 26.2164 117.237 26.1624 117.25 26.1489C117.305 26.0815 117.359 26.0275 117.413 25.9736C117.44 26.014 117.467 26.041 117.521 26.095H117.508ZM131.926 41.793L131.953 41.8874L131.858 41.8604L131.926 41.793ZM112.999 50.5861L113.108 50.5186V50.6535L112.999 50.5861ZM143.988 69.5478L144.083 69.5882L144.002 69.6422V69.5343L143.988 69.5478ZM109.52 20.1745C109.52 20.1745 109.52 20.0801 109.534 20.0261C109.588 20.0666 109.642 20.107 109.669 20.161C109.669 20.1745 109.628 20.2284 109.601 20.2689C109.574 20.2284 109.547 20.2015 109.52 20.161V20.1745ZM128 72.8789C127.918 72.9194 127.851 72.9599 127.77 73.0003C127.756 72.9599 127.715 72.8789 127.729 72.8654C127.797 72.8115 127.878 72.7845 127.959 72.7441C127.959 72.7845 127.986 72.8384 128 72.8789ZM119.945 40.6871L120.012 40.6062L120.053 40.7006H119.945V40.6871ZM110.265 24.9216V25.1644H110.143C110.143 25.0835 110.143 25.0026 110.143 24.9216H110.278H110.265ZM131.777 38.5024L131.858 38.5563L131.777 38.5968V38.5024ZM131.899 67.943V68.0373L131.831 68.0104L131.899 67.943ZM114.15 70.4244C114.15 70.3435 114.15 70.2761 114.137 70.1951C114.164 70.2356 114.231 70.2626 114.231 70.3031C114.231 70.3435 114.191 70.384 114.15 70.4244Z" fill="#BE78FF"/>
<path d="M61.3787 108.806C60.4311 107.511 59.4293 106.23 58.5357 104.895C56.9788 102.562 55.4355 100.229 54.0004 97.8145C52.7549 95.7376 51.6448 93.5798 50.5347 91.422C49.9661 90.3296 49.5193 89.1698 49.0319 88.037L49.0184 88.0504C49.1538 87.7672 49.2756 87.484 49.5329 86.9311C50.467 88.428 51.3199 89.7362 51.9156 91.1792C52.7143 93.1078 53.6755 94.9419 55.1918 96.4254H55.1783C54.7044 94.2676 53.5131 92.42 52.5248 90.4645C52.2946 89.9925 52.1186 89.4935 51.9291 89.008C51.3064 88.01 50.5888 87.039 50.1015 85.9736C49.8578 85.4476 49.8713 84.6923 50.0473 84.1124C50.3316 83.1414 50.8325 82.2244 51.2657 81.2938C52.254 79.1495 53.2423 77.0052 54.2577 74.8743C54.5826 74.2135 55.0429 73.6066 55.422 72.9727C56.2613 71.5432 57.1955 70.1406 57.8588 68.6302C58.1431 67.9828 57.8182 67.0793 57.7776 66.2971C57.6964 66.5398 57.6287 66.7691 57.5474 67.0118C57.4798 66.9714 57.3985 66.9309 57.3308 66.8904C57.4798 66.7016 57.6422 66.5128 57.7911 66.324C57.737 66.324 57.6828 66.2836 57.6422 66.2971C57.033 66.5398 56.4373 66.877 55.801 66.9983C55.1918 67.1197 54.5284 66.9983 53.8921 66.9983H53.9057C53.6891 67.4029 53.4589 67.8345 53.2423 68.266L53.2558 68.2795C52.7414 67.1062 52.2676 66.8365 51.198 67.349C49.6276 68.1042 48.0301 68.5762 46.2702 68.6032C45.7422 68.6032 45.2142 69.0617 44.7133 69.3584C44.077 69.736 43.4678 70.1676 42.8585 70.5722L42.8721 70.5587C41.789 71.7455 41.7755 71.7455 40.6383 70.8419C40.3946 70.6531 40.1644 70.4373 39.9343 70.2215C39.8937 70.3025 39.8531 70.3834 39.826 70.4643C39.7448 70.3834 39.6635 70.3025 39.5823 70.2215C39.3657 69.5607 39.1355 68.8999 38.9189 68.239L38.8919 68.347L38.9325 68.2525C38.1473 67.4838 37.7276 66.5533 37.3079 65.5418C36.5768 63.7211 35.4938 62.0354 34.6544 60.2417C33.8421 58.502 33.1246 56.7083 32.4477 54.9146C32.2446 54.3752 32.3529 53.7009 32.3123 52.7703C32.8268 53.4986 33.111 53.9031 33.4495 54.3751C35.2501 52.9321 34.8304 51.2868 34.3024 49.3717C33.9233 49.8438 33.6797 50.1405 33.436 50.4507C33.964 51.3542 33.8421 52.2174 33.3006 53.4311C33.0163 52.1634 33.1923 51.3003 33.463 50.4372C33.0704 50.2888 32.6643 50.1405 32.204 49.9651C32.0415 50.1674 31.8655 50.4102 31.676 50.653C31.5948 50.599 31.4729 50.5585 31.4323 50.4776C31.3105 50.2484 31.2834 49.8438 31.1209 49.7764C29.6994 49.1964 29.6317 47.9557 29.5099 46.7149C29.3881 45.4877 29.3881 45.5147 28.0749 45.3394C27.6687 45.2854 27.2761 45.0561 26.8835 44.9078C25.814 44.4762 25.1777 44.5841 24.4737 45.5147C23.7968 46.4048 22.971 47.0117 21.9285 47.4028C20.8049 47.8343 20.1415 49.1425 20.3716 50.3158C20.489 50.8912 20.2949 51.3542 19.7895 51.7049C20.1009 54.2673 20.3852 56.7623 20.7101 59.2572C20.7642 59.6753 20.9809 60.0664 21.1298 60.471H21.1027C21.1298 60.3361 21.1568 60.1878 21.1975 59.8776C22.0774 61.4824 22.8897 62.9659 23.702 64.4494C23.7291 64.0988 23.7697 63.7481 23.7968 63.3975C23.8645 63.411 23.9322 63.4244 23.9999 63.4379C23.8916 63.7616 23.7968 64.0988 23.6885 64.4224C23.6885 64.7191 23.6885 65.0294 23.6885 65.326C23.7426 65.4609 23.8103 65.5958 23.7426 65.4474C23.7833 65.5958 23.7426 65.4474 23.702 65.299L23.3365 65.3935H23.35C22.5107 66.324 22.7137 67.9154 21.1298 68.765C21.2787 68.3065 21.3464 68.1312 21.4005 67.9558L21.4276 67.9693C20.4122 67.1467 21.2787 66.2971 21.3464 65.7846C20.9267 64.5843 20.6018 63.6807 20.1956 62.5074C20.155 63.0873 20.1144 63.4245 20.1009 63.7616C19.9384 67.3355 20.6965 70.8284 20.9944 74.3618C21.0892 75.4273 21.1433 76.5062 21.1298 77.5851C21.1298 78.61 20.859 78.9067 19.7624 79.0011C18.2055 79.136 16.6351 79.1495 15.0782 79.2439C13.9816 79.3113 12.8038 79.1225 11.7614 80.107C12.1675 80.3093 12.4653 80.4711 12.8986 80.7004C12.6007 80.9027 12.3841 81.1724 12.1404 81.2129C9.62232 81.5231 7.10423 81.7523 4.69443 82.602C3.476 83.0335 2.25756 83.4786 1.13389 84.0854C-0.260539 84.8272 -0.368844 85.8387 0.808977 86.9041C3.17816 89.0349 5.56087 91.1388 8.02482 93.1617C12.3977 96.7626 16.7976 100.323 21.2381 103.829C22.5513 104.868 23.0793 106.122 23.0928 107.74C23.0928 109.022 23.2282 110.316 23.3094 111.786C23.6885 111.557 23.9186 111.409 24.1488 111.274C24.7715 112.339 24.6903 116.52 23.9863 119.406L23.9999 119.393C23.2282 120.391 23.2553 120.525 24.3112 120.768C24.5414 120.822 24.758 120.943 24.9881 121.024H24.9746C25.5432 120.876 25.6651 121.348 25.9358 121.672C26.9241 122.872 27.5469 122.818 28.3862 121.496C29.4557 119.811 30.972 118.88 32.9757 118.678C33.3954 118.637 33.8421 118.273 34.1535 117.936C34.5055 117.545 34.7086 117.019 35.0064 116.574C35.5885 115.738 36.1978 115.603 37.0913 116.075C37.4297 116.25 37.7411 116.466 38.0389 116.695C40.4758 118.476 42.9804 120.188 45.336 122.063C47.8541 124.059 50.7242 125.448 53.4589 127.08C54.4743 127.687 55.5303 128.24 56.5456 128.846C57.7911 129.602 59.0773 129.602 60.5123 129.197C60.3769 128.941 60.2822 128.779 60.1874 128.604C60.2551 128.536 60.3363 128.415 60.404 128.415C61.2975 128.334 62.0557 128.037 62.7461 127.43C63.4366 126.837 64.2353 126.352 65.007 125.879C65.8193 125.394 66.4826 124.801 66.8753 123.937L66.8617 123.951C67.1731 123.749 67.4574 123.506 67.7958 123.358C68.8924 122.872 69.109 122.427 68.906 121.24C68.378 118.152 66.9294 115.509 65.1288 113.014C64.8175 112.582 64.5467 112.11 64.1947 111.705C63.7073 111.166 63.1387 110.694 62.6243 110.168C62.1775 109.709 61.7714 109.224 61.3517 108.752L61.3652 108.765L61.3787 108.806ZM39.2709 109.076L39.2574 109.089H39.2709V109.076ZM20.0603 93.2292L20.0467 93.2561L20.4393 93.2292C20.6559 92.892 20.9132 92.6358 21.2787 93.0269C21.3328 93.0808 21.1433 93.364 21.0621 93.5393C21.1568 93.7012 21.2381 93.8495 21.3328 94.0114C21.2787 94.0518 21.2245 94.1058 21.1568 94.1462C20.9132 93.9439 20.683 93.7551 20.4393 93.5528C20.3175 93.445 20.1956 93.3505 20.0738 93.2426L20.0603 93.2292ZM23.9863 68.3065L23.9999 68.293H23.9863V68.3065ZM10.3534 91.2737L10.3398 91.2872H10.3534V91.2737ZM9.37864 90.6128C9.27033 90.5049 9.16203 90.3971 9.04018 90.2757C8.93188 90.1678 8.82357 90.0599 8.71527 89.9385C7.53745 89.4665 6.54916 88.7382 5.80456 87.6998L5.76395 87.5649C5.76395 87.5649 5.79102 87.6593 5.80456 87.6998C7.03653 88.1179 7.93006 88.954 8.71527 89.952C8.82357 90.0599 8.93188 90.1678 9.04018 90.2891C9.14849 90.397 9.2568 90.5049 9.37864 90.6263L9.39218 90.6128H9.37864ZM33.7473 60.8351L33.6932 60.7811L33.7203 60.8621H33.7338L33.7473 60.8351ZM37.6463 81.8468L37.5922 81.7928L37.6193 81.8737H37.6328L37.6463 81.8468ZM16.2019 91.8671C16.2019 91.8671 16.1748 91.7996 16.1613 91.7726C16.1613 91.8131 16.1748 91.8536 16.1883 91.8806C16.2966 91.9884 16.4185 92.1098 16.5268 92.2177C18.1649 92.7167 19.3157 93.89 20.5341 95.0093C20.9402 95.36 21.3599 95.7106 21.7661 96.0613C21.7931 96.0882 21.8338 96.1287 21.8608 96.1557C21.8338 96.1827 21.7931 96.2231 21.7931 96.2231C21.7525 96.2096 21.7255 96.1692 21.6984 96.1422C21.2516 95.832 20.8049 95.5353 20.3446 95.2251C19.0855 94.2271 17.8129 93.2157 16.5539 92.2177C16.4456 92.1098 16.3237 91.9884 16.2154 91.8806L16.2019 91.8671ZM16.5403 96.3984L16.4726 96.3041L16.5133 96.4119H16.5268L16.5403 96.3984ZM47.0689 96.3984C47.1772 96.6277 47.272 96.8435 47.3803 97.0727C47.4209 97.1537 47.4615 97.2211 47.5021 97.302C47.4615 97.2211 47.4344 97.1402 47.3938 97.0593C47.2855 96.83 47.1908 96.6142 47.0824 96.385L47.0689 96.3984ZM41.234 107.713C41.234 107.821 41.2204 107.929 41.2069 108.037C42.317 109.035 43.373 110.087 44.5237 111.045C45.9317 112.204 47.2584 113.634 48.8966 114.308C50.5618 114.996 51.1845 116.21 51.8343 117.653C49.9255 116.533 48.0843 115.32 46.4055 113.863H46.4191C43.8197 112.798 42.0869 110.613 39.9749 108.927C39.7989 108.792 39.7312 108.334 39.8124 108.091C39.9884 107.592 40.4352 107.579 40.882 107.727C41.0038 107.727 41.1121 107.727 41.234 107.727V107.713ZM22.0098 55.98L22.5513 56.3576L22.3482 56.533C22.2399 56.3442 22.1316 56.1419 22.0233 55.9531C21.9691 55.7912 21.9014 55.6294 21.8473 55.4541C21.9014 55.4541 21.9556 55.4406 22.0098 55.4271C22.0098 55.6024 22.0098 55.7912 22.0098 55.9666V55.98ZM42.5336 115.144C42.0733 115.05 41.6266 114.915 41.4506 114.227C42.1275 114.335 42.3847 114.686 42.5201 115.158H42.5336V115.144ZM48.0301 98.3135C48.3821 98.6911 48.8424 99.0283 49.0861 99.4733C50.0744 101.227 50.9814 103.02 51.9291 104.787C52.4029 105.205 52.9851 105.569 53.3371 106.068C54.8127 108.172 56.2342 110.316 57.6422 112.474C58.1837 113.297 58.6711 114.173 59.172 115.023C58.644 114.956 58.265 114.74 58.0484 114.416C56.0718 111.463 54.1223 108.509 52.1728 105.529C52.0374 105.313 52.0239 105.03 51.9426 104.773C51.5094 104.342 51.0762 103.91 50.6294 103.465L50.643 103.479C50.3181 102.885 49.9796 102.292 49.6682 101.685C49.1132 100.566 48.5716 99.4194 48.0301 98.2865L48.003 98.3135H48.0301ZM49.0319 101.847C48.8966 101.766 48.707 101.712 48.6258 101.604C47.448 99.77 46.2702 97.9224 45.1194 96.0613C45.0653 95.9804 45.2006 95.805 45.2954 95.5083C45.6203 95.8455 45.9182 96.0748 46.0942 96.3715C46.8388 97.5987 47.5834 98.8394 48.2738 100.107C48.5852 100.66 48.7747 101.28 49.0184 101.874C49.0726 101.887 49.1267 101.901 49.1673 101.928C49.1944 101.941 49.1673 102.009 49.1673 102.049C49.1267 101.982 49.0726 101.928 49.0319 101.86V101.847ZM44.4696 106.068C45.0788 106.688 45.688 107.322 46.4732 108.118C44.2665 107.929 41.7755 106.297 41.1933 104.814C42.1004 105.03 42.9804 105.232 43.8468 105.434C43.3865 104.922 42.9398 104.382 42.4795 103.883C41.7078 103.047 41.6807 102.67 42.3712 101.415C42.6419 101.523 43.0887 101.564 43.1835 101.766C43.7791 103.02 44.2936 104.301 44.808 105.596C44.8486 105.704 44.5914 105.92 44.4831 106.095L44.4696 106.068ZM54.5149 102.885C54.8669 103.209 55.3001 103.492 55.5438 103.883C57.737 107.43 59.9166 110.977 62.0692 114.551C62.2317 114.807 62.2587 115.158 62.34 115.455L62.3941 115.549L62.367 115.441C62.0692 115.144 61.6901 114.888 61.4871 114.538C59.1585 110.667 56.857 106.769 54.542 102.885L54.5149 102.804L54.5284 102.912L54.5149 102.885ZM28.8736 89.8981C28.6705 88.5225 28.4675 87.1468 28.2779 85.7712C28.1696 84.9351 28.7382 84.4631 29.2933 83.8022C29.9973 85.6768 29.8754 87.4705 29.8348 89.1968C29.7942 90.9635 30.7283 92.6762 30.1056 94.8206C29.7942 93.8226 29.6724 93.1348 29.3745 92.5279C28.9548 91.6782 28.8059 90.8016 28.8601 89.8846H28.8736V89.8981ZM17.8265 86.0275C18.4086 85.9061 19.0043 86.1354 19.5593 85.5285C19.979 85.0699 21.1704 85.5285 21.4411 86.2433C21.7931 87.1738 21.9421 88.1988 22.1451 89.1833C22.1722 89.2912 21.8879 89.453 21.739 89.6014V89.5879C21.7931 89.925 22.0098 90.3566 21.8608 90.5589C21.7119 90.7747 21.1433 90.9365 20.9132 90.8286C18.9095 89.8306 16.8382 88.9136 15.173 87.3626C14.9834 87.1873 14.9834 86.8232 14.8751 86.4725C16.0394 86.1624 17.0006 86.2837 17.8941 86.8906C18.2868 87.1603 18.72 87.3761 19.1397 87.6189H19.1261C18.7064 87.0929 18.2868 86.5535 17.8671 86.014H17.8535L17.8265 86.0275ZM28.0884 77.7874C28.0072 76.8433 27.9395 76.0072 27.8582 75.171C28.3456 75.7509 28.657 76.3443 28.9278 76.9377C29.1714 77.4907 28.8871 77.7064 28.0884 77.7874ZM25.3808 110.815C25.3808 110.815 25.4755 110.815 25.5297 110.815V113.162C25.5297 113.162 25.4349 113.162 25.3808 113.162V110.815ZM15.4708 80.134C15.5927 80.3093 15.6874 80.4441 15.7957 80.5925C15.6739 80.6599 15.525 80.8218 15.4302 80.7948C15.2813 80.7409 15.173 80.579 15.0376 80.4577C15.1459 80.3767 15.2677 80.2958 15.4708 80.1475V80.134ZM22.6325 86.2972C22.7408 86.2972 22.8627 86.2837 22.971 86.2703V87.2817C22.8762 87.2817 22.795 87.2817 22.7002 87.2817C22.6731 86.9581 22.646 86.6344 22.6325 86.2972ZM35.223 64.2606L35.5615 64.1392L35.6968 64.854C35.6292 64.8675 35.5479 64.8945 35.4802 64.908C35.399 64.6922 35.3178 64.4764 35.223 64.2606ZM19.6406 80.3767C19.7353 80.4037 19.8166 80.4307 19.9113 80.4577C19.8572 80.5386 19.803 80.6464 19.7353 80.6734C19.6676 80.7004 19.5593 80.633 19.4646 80.606C19.5187 80.5251 19.5864 80.4576 19.6406 80.3767ZM21.8067 70.5182C21.8067 70.5182 21.8744 70.5992 21.9014 70.6396C21.8202 70.6801 21.739 70.734 21.6578 70.761C21.6442 70.761 21.6036 70.6801 21.563 70.6396C21.6442 70.5992 21.7255 70.5587 21.8067 70.5182ZM22.7408 70.6396C22.822 70.6262 22.8897 70.6126 22.971 70.5991C22.971 70.761 22.9439 70.9228 22.9303 71.0847C22.8762 71.0847 22.8356 71.0847 22.7814 71.0847C22.7679 70.9363 22.7544 70.8015 22.7273 70.6531L22.7408 70.6396ZM21.211 52.8782C21.211 52.8782 21.2245 52.9726 21.211 53.0131C21.1975 53.04 21.1298 53.0265 21.0892 53.04C21.0892 52.9726 21.0892 52.8917 21.0892 52.8242C21.1298 52.8512 21.1704 52.8647 21.211 52.8917V52.8782ZM23.6479 72.1636C23.6479 72.1636 23.6479 72.2445 23.6479 72.2984C23.5937 72.2715 23.5396 72.231 23.4854 72.204C23.5125 72.177 23.526 72.1366 23.5531 72.0961C23.5802 72.1231 23.6208 72.1501 23.6479 72.1636ZM35.047 88.5359L35.0199 88.428L35.1282 88.4685L35.047 88.5494V88.5359ZM23.1199 68.1312C23.174 68.1986 23.2147 68.2391 23.2553 68.293C23.2147 68.293 23.174 68.3065 23.1334 68.32C23.1334 68.2795 23.1334 68.2256 23.1199 68.1447V68.1312ZM23.4719 59.1628V59.0279L23.5666 59.1088L23.4719 59.1628ZM33.6255 61.914H33.5443L33.5984 61.8196L33.639 61.914H33.6255ZM21.8067 101.011L21.7796 100.903L21.8744 100.93L21.7931 101.011H21.8067ZM23.499 57.5984L23.5666 57.7063H23.4583L23.499 57.5984ZM17.2849 97.1132L17.3255 97.0188L17.3797 97.1132H17.2849Z" fill="#BE78FF"/>
<path d="M121.772 119.784C121.339 119.46 120.906 119.123 120.473 118.8L120.5 118.827C120.378 118.705 120.256 118.584 120.148 118.476C119.498 118.166 118.862 117.842 118.212 117.532L118.225 117.505C118.104 117.384 117.995 117.276 117.873 117.154L117.846 117.168C116.912 116.992 116.411 116.278 115.924 115.563L115.938 115.549C115.748 115.603 115.464 115.765 115.369 115.698C114.651 115.145 113.988 114.538 113.298 113.945L113.311 113.958C112.621 113.958 112.418 113.526 112.391 112.933H112.296L112.377 112.96C113.013 112.812 112.919 112.421 112.702 111.989C112.634 111.935 112.58 111.868 112.512 111.814C112.567 111.881 112.621 111.949 112.675 112.002C113.108 111.45 113.122 110.883 112.553 110.438C109.358 107.97 106.664 104.868 102.941 103.102C101.33 102.333 99.7053 101.793 97.6475 102.373C98.4597 103.304 99.1773 104.126 99.9083 104.949C99.8407 105.044 99.773 105.138 99.6917 105.219C99.2585 104.976 98.8117 104.747 98.3921 104.491C97.8776 104.18 97.4038 104.073 96.9164 104.545C96.2259 105.205 95.5897 105.084 94.9398 104.45C94.4118 103.938 93.7891 103.938 93.1393 104.275C92.8143 104.45 92.4488 104.693 92.1239 104.666C91.1762 104.585 91.2574 105.489 90.743 105.961C90.1879 105.88 89.5652 105.799 88.6446 105.677C88.983 106.069 89.1049 106.311 89.2944 106.406C90.215 106.837 90.6618 107.646 91.271 108.402C93.7349 111.436 94.0598 115.226 95.1835 118.705C96.4967 122.751 97.5392 126.878 98.6899 130.978C98.717 131.086 98.7441 131.18 98.7711 131.288C99.2856 133.095 99.2314 133.297 97.3632 133.661C94.7368 134.174 92.2999 135.145 89.8359 136.129C88.3874 136.709 86.8169 136.966 85.3277 137.465C82.6066 138.382 82.2546 139.096 82.9315 141.942C82.9721 142.104 83.0262 142.252 83.0669 142.401L83.0939 142.428C83.6355 142.792 84.1228 143.25 84.705 143.479C87.1148 144.41 89.511 145.408 91.9885 146.096C95.8063 147.175 99.6917 148.051 103.564 148.941C104.593 149.171 105.148 149.697 105.5 150.627C105.743 151.275 106.149 151.854 106.474 152.461L106.488 152.448C106.65 153.217 106.704 154.039 106.989 154.754C107.936 157.087 108.952 159.393 109.967 161.699C110.712 163.358 111.93 164.639 113.379 165.705C114.029 166.177 114.841 166.352 115.518 165.975C117.021 165.125 118.591 164.464 120.243 164.006C122.246 163.439 123.668 162.05 125.008 160.553C124.954 160.499 124.9 160.459 124.873 160.445C124.886 160.472 124.94 160.526 124.981 160.58C126.172 159.609 127.147 158.49 127.54 156.939C127.662 156.48 127.946 156.062 128.149 155.617C128.988 153.77 130.139 152.852 132.427 153.23C134.471 153.567 136.637 153.365 138.736 153.19C140.97 153.014 143.027 152.286 144.842 150.816C145.694 150.128 146.805 149.697 147.861 149.292C149.025 148.834 150.121 148.308 151.042 147.431C151.732 146.77 152.572 146.271 153.343 145.705C154.075 145.165 154.372 144.383 153.939 143.574C153.005 141.807 151.895 140.162 150.257 138.921C148.064 137.262 145.857 135.604 143.664 133.958C142.838 133.338 142.026 132.731 141.2 132.124C140.983 131.962 140.739 131.827 140.55 131.639C139.359 130.465 138.952 129.737 140.469 128.173C141.904 129.022 143.352 129.899 144.814 130.775L144.801 130.789C143.88 130.061 142.987 129.278 142.012 128.618C140.739 127.768 140.591 127.485 141.24 126.123C141.795 124.949 142.459 123.83 142.973 122.657C143.474 121.483 143.853 120.27 144.259 119.164C143.054 117.963 141.674 118.948 140.482 118.368C140.658 118.058 140.807 117.815 141.051 117.411C140.184 117.707 139.48 117.936 138.776 118.206C136.881 118.934 134.999 119.69 133.104 120.418C132.955 120.472 132.793 120.512 132.63 120.526C131.087 120.647 129.53 120.809 127.987 120.863C127.553 120.876 127.107 120.553 126.66 120.391L126.673 120.364C126.633 120.607 126.592 120.849 126.511 121.389C125.577 120.769 124.819 120.27 124.047 119.771L124.074 119.744C123.952 120.067 123.83 120.391 123.708 120.715L123.722 120.728C123.289 120.404 122.856 120.081 122.422 119.757C122.192 119.744 121.962 119.744 121.732 119.744L121.772 119.784ZM109.453 137.572L109.439 137.586H109.453V137.572ZM103.929 131.072L103.916 131.086H103.929V131.072ZM113.027 118.435C112.919 118.328 112.81 118.22 112.702 118.112C112.661 118.112 112.621 118.112 112.58 118.085C112.553 118.071 112.553 118.031 112.539 117.99C112.594 118.031 112.634 118.071 112.688 118.112C112.797 118.22 112.905 118.328 113.013 118.435L113.027 118.422V118.435ZM111.402 117.141C111.294 117.033 111.186 116.925 111.077 116.817C110.482 116.493 109.832 116.251 109.29 115.846C108.221 115.037 107.232 114.147 106.204 113.297C105.879 113.014 105.445 112.785 105.825 112.191C105.946 112.569 106.068 112.947 106.19 113.324C106.65 113.405 107.205 113.365 107.571 113.594C108.925 114.457 110.319 115.32 111.077 116.844C111.186 116.952 111.294 117.06 111.402 117.181L111.416 117.168L111.402 117.141ZM94.4931 113.257H94.5066C94.5066 113.149 94.5066 113.027 94.5201 112.906C94.3712 112.636 94.2088 112.367 94.0599 112.11C94.1411 112.083 94.2223 112.056 94.3035 112.029C94.3712 112.326 94.4389 112.623 94.5066 112.92C94.5066 113.027 94.5066 113.135 94.4931 113.257ZM110.752 112.609C110.752 112.502 110.739 112.38 110.725 112.272C110.631 112.056 110.522 111.854 110.427 111.638L110.414 111.652C110.509 111.854 110.617 112.043 110.712 112.245C110.712 112.367 110.712 112.488 110.725 112.623L110.752 112.596V112.609ZM139.034 124.976V124.882V124.963L138.993 125.03L139.047 124.976H139.034ZM107.476 128.173L107.53 128.24L107.503 128.146H107.49L107.476 128.173ZM108.14 108.415L108.072 108.388L108.126 108.429H108.14V108.415ZM113.69 153.351C113.582 153.041 113.46 152.731 113.352 152.421H113.338C113.447 152.745 113.568 153.055 113.677 153.365L113.704 153.446V153.351H113.69ZM110.414 139.474H110.427C110.522 139.42 110.631 139.339 110.725 139.258C110.752 139.299 110.766 139.326 110.793 139.366C110.671 139.407 110.536 139.434 110.414 139.461V139.474ZM108.18 110.02C108.261 110.141 108.329 110.263 108.234 110.101C108.288 110.29 108.248 110.155 108.207 110.007H108.112H108.194L108.18 110.02ZM102.968 129.171C102.778 129.103 102.589 129.022 102.386 128.955C102.426 128.874 102.481 128.793 102.521 128.725C102.67 128.887 102.819 129.036 102.968 129.198C103.022 128.995 103.063 128.806 103.157 128.469C103.496 129.009 103.645 129.319 102.968 129.171ZM107.801 122.023C108.288 122.293 108.613 122.643 108.207 123.291C108.085 122.859 107.95 122.427 107.828 121.996C107.747 121.942 107.679 121.888 107.598 121.834C107.652 121.807 107.72 121.767 107.774 121.74C107.774 121.834 107.774 121.928 107.788 122.023H107.801ZM101.668 123.264C100.951 122.616 100.856 121.753 100.734 120.89C100.842 120.863 100.951 120.823 101.059 120.796C101.249 121.618 101.452 122.454 101.641 123.277C101.655 123.358 101.668 123.439 101.682 123.52C101.682 123.439 101.668 123.344 101.655 123.264H101.668ZM105.892 122.616C105.161 121.955 105.175 121.092 105.134 120.256C105.242 120.229 105.337 120.216 105.445 120.189C105.594 121.011 105.73 121.821 105.879 122.643L105.919 122.711V122.616H105.892ZM115.274 141.443L115.261 141.43C114.976 141.241 114.557 141.106 114.435 140.836C114.205 140.31 114.123 139.703 113.988 139.137C113.65 138.827 113.325 138.517 112.986 138.206C113.122 139.083 113.243 139.96 113.379 140.836C112.499 139.69 111.93 137.694 112.011 136.777C112.35 137.276 112.675 137.761 113 138.233C112.932 137.37 112.377 136.561 112.715 135.563C113.934 136.871 114.245 137.802 113.961 139.15C114.841 139.663 115.003 140.58 115.274 141.443ZM102.589 110.667L102.602 110.681C102.467 110.452 102.332 110.209 102.102 109.804C103.956 110.681 104.132 110.843 104.525 111.908C103.807 111.45 103.198 111.058 102.589 110.667ZM113.65 126.541L113.636 126.527C113.785 126.568 113.947 126.622 114.096 126.662C114.76 126.81 115.396 127.04 115.45 127.835C115.504 128.712 114.651 128.739 114.137 129.022C113.609 129.305 112.959 129.521 112.512 128.928C111.416 127.512 110.955 125.866 110.874 124.059C111.646 124.423 112.282 124.855 112.702 125.57C113.027 125.893 113.352 126.231 113.677 126.554L113.65 126.541ZM121.772 137.842C121.664 138.287 121.556 138.719 121.448 139.164H121.434C121.15 139.595 120.825 140.027 120.568 140.486C120.256 141.052 119.999 141.645 119.688 142.198C118.957 143.533 117.968 143.601 117.102 142.387C116.98 142.212 116.872 142.023 116.79 141.821C116.114 140.135 115.437 138.436 114.787 136.736C114.557 136.143 114.421 135.523 114.191 134.727C115.166 134.336 116.032 133.958 116.939 133.648C118.009 133.284 119.092 132.987 120.175 132.65L120.067 132.623L120.161 132.677C120.419 132.623 120.689 132.515 120.947 132.529C122.558 132.623 123.424 134.053 122.774 135.509C122.436 136.291 122.097 137.074 121.759 137.856L121.786 137.829L121.772 137.842ZM138.37 145.071C137.815 145.26 137.341 145.57 136.895 145.529C135.988 145.475 135.094 145.233 134.201 145.044C133.483 144.896 132.928 144.424 133.117 143.709C133.28 143.102 133.821 142.589 134.241 142.063C134.295 141.996 134.783 142.117 134.796 142.171C134.905 143.088 135.757 142.9 136.272 143.169C137.044 143.547 137.869 143.83 138.37 145.057V145.071ZM98.2025 106.81C99.1502 106.945 100.166 107.498 100.721 108.253C100.937 108.537 100.951 108.968 101.167 109.669C99.6782 108.887 98.4733 108.415 98.2025 106.81ZM100.87 126.837C100.761 126.878 100.639 126.905 100.531 126.945C99.8136 125.988 99.448 124.005 99.8271 122.387C100.22 124.073 100.545 125.448 100.87 126.837ZM100.03 139.218C99.976 139.056 99.9219 138.881 99.8677 138.719C100.152 138.624 100.45 138.517 100.734 138.422C100.788 138.597 100.842 138.773 100.91 138.948C100.626 139.029 100.328 139.123 100.044 139.204L100.03 139.218ZM109.48 111.665C109.29 111.841 109.155 112.016 109.101 112.002C108.938 111.935 108.789 111.787 108.64 111.679C108.722 111.571 108.83 111.382 108.898 111.396C109.074 111.423 109.223 111.544 109.48 111.679V111.665ZM106.041 124.289L106.393 124.127C106.474 124.369 106.569 124.612 106.65 124.855C106.569 124.895 106.488 124.922 106.407 124.963C106.285 124.734 106.163 124.504 106.041 124.275V124.289ZM107.341 127.134C107.029 126.959 106.88 126.905 106.88 126.864C106.894 126.703 106.962 126.541 107.002 126.379C107.084 126.568 107.178 126.77 107.341 127.148V127.134ZM101.492 106.648C101.425 106.568 101.357 106.5 101.289 106.419C101.357 106.379 101.438 106.325 101.519 106.311C101.546 106.311 101.628 106.392 101.614 106.419C101.587 106.5 101.533 106.568 101.492 106.648ZM124.467 121.942C124.426 121.874 124.372 121.807 124.331 121.726C124.372 121.699 124.453 121.659 124.453 121.659C124.507 121.726 124.548 121.794 124.588 121.861C124.548 121.888 124.507 121.901 124.467 121.928V121.942ZM104.349 108.429C104.349 108.429 104.281 108.51 104.241 108.496C104.2 108.496 104.159 108.456 104.119 108.429C104.173 108.388 104.227 108.348 104.281 108.307C104.295 108.348 104.322 108.388 104.335 108.429H104.349ZM103.144 107.66L103.252 107.592V107.727L103.144 107.673V107.66ZM109.047 125.26V125.381L108.952 125.34L109.047 125.26ZM105.378 125.057L105.324 124.963H105.418L105.378 125.057Z" fill="#BE78FF"/>
<path d="M19.4243 49.1973C19.1671 48.8197 18.9099 48.4286 18.5037 47.8082C18.3006 48.8197 18.7474 49.3187 19.1129 49.8446L19.0994 49.8716C19.2212 49.6423 19.3295 49.413 19.4514 49.1973H19.4379H19.4243Z" fill="#BE78FF"/>
<path d="M53.2423 88.3614C53.6214 89.1436 53.9869 89.9258 54.366 90.708L54.7044 90.5192C54.217 89.8044 53.7161 89.1031 53.2288 88.3884L53.2423 88.3749V88.3614Z" fill="#BE78FF"/>
<path d="M55.8415 98.3949L56.5049 98.6781V98.7051C56.18 98.0712 55.8551 97.4508 55.5302 96.817L55.5437 96.8035C55.0563 97.3295 55.1376 97.8554 55.5031 98.4084C55.6249 98.4219 55.7468 98.4218 55.8686 98.4218L55.8415 98.3949Z" fill="#BE78FF"/>
<path d="M123.113 9.3991C123.506 9.95204 123.898 10.4915 124.291 11.0444C124.345 10.1678 123.83 9.72276 123.099 9.42606L123.126 9.3991H123.113Z" fill="#BE78FF"/>
<path d="M21.116 60.4855C20.8723 61.0789 20.6963 61.6723 21.3597 62.2388C21.2785 61.6589 21.1837 61.0789 21.1025 60.499L21.1295 60.4855H21.116Z" fill="#BE78FF"/>
<path d="M120.5 116.858C120.892 117.074 121.285 117.276 121.799 117.56C121.601 116.957 121.163 116.719 120.486 116.845H120.5V116.858Z" fill="#BE78FF"/>
<path d="M117.969 114.525C117.779 114.39 117.589 114.255 117.413 114.107C117.332 114.201 117.237 114.295 117.156 114.39C117.346 114.538 117.535 114.687 117.725 114.835C117.806 114.727 117.887 114.619 117.969 114.511V114.525Z" fill="#BE78FF"/>
<path d="M106.827 46.9858L105.987 45.7316C105.893 45.8125 105.811 45.8934 105.717 45.9609C106.096 46.298 106.475 46.6217 106.854 46.9588C106.854 46.9588 106.827 46.9858 106.84 46.9858H106.827Z" fill="#BE78FF"/>
<path d="M21.3872 67.9968C21.5767 67.6596 21.7527 67.309 21.9423 66.9718C21.1841 67.1067 21.4955 67.6326 21.4143 68.0103L21.3872 67.9968Z" fill="#BE78FF"/>
<path d="M153.343 63.4384C153.655 63.9643 153.98 64.4903 154.291 65.0163L154.278 65.0298C153.953 64.5038 153.641 63.9778 153.316 63.4519L153.343 63.4249V63.4384Z" fill="#BE78FF"/>
<path d="M121.123 9.39882C121.786 9.39882 122.449 9.39882 123.126 9.39882L123.099 9.42578C122.544 8.71101 121.827 8.96725 121.136 9.08862V9.06167C121.15 9.18304 121.15 9.29091 121.15 9.41228L121.123 9.38532V9.39882Z" fill="#BE78FF"/>
<path d="M122.45 118.476C123.005 118.908 123.547 119.326 124.102 119.757L124.075 119.784C123.533 119.353 122.978 118.921 122.437 118.49L122.45 118.476Z" fill="#BE78FF"/>
<path d="M65.5897 110.06C65.9146 110.586 66.2531 111.098 66.578 111.624L66.5645 111.651C66.2395 111.125 65.9011 110.599 65.5762 110.087L65.5897 110.073V110.06Z" fill="#BE78FF"/>
<path d="M149.742 137.573C149.918 137.667 150.094 137.762 150.27 137.843L150.325 137.64C150.121 137.627 149.918 137.6 149.715 137.587H149.729L149.742 137.573Z" fill="#BE78FF"/>
<path d="M20.1825 60.376H20.0605C20.0605 60.376 20.0605 60.4709 20.0741 60.5116C20.0741 60.5251 20.1554 60.5116 20.1961 60.5116C20.1961 60.4709 20.1961 60.4167 20.1961 60.376H20.1825Z" fill="#BE78FF"/>
<path d="M155.929 26.8773C155.496 27.201 155.049 27.5381 154.616 27.8618V27.8348C155.049 27.5111 155.482 27.1875 155.916 26.8638H155.943L155.929 26.8773Z" fill="#BE78FF"/>
<path d="M153.317 63.4653C153.141 63.2226 152.951 62.9933 152.775 62.7506C152.735 62.791 152.694 62.818 152.653 62.8584C152.883 63.0472 153.114 63.2495 153.344 63.4383L153.317 63.4653Z" fill="#BE78FF"/>
<path d="M102.142 98.4485L102.061 98.3672L102.033 98.4756L102.142 98.4485Z" fill="#BE78FF"/>
<path d="M99.3267 35.4678L99.4215 35.3729L99.2996 35.3458L99.3267 35.4678Z" fill="#BE78FF"/>
<path d="M42.4934 69.9524C42.3174 70.0468 42.1279 70.1412 41.9519 70.2221C41.979 70.2761 41.9925 70.3435 42.0196 70.3975C42.1821 70.3435 42.331 70.2761 42.4934 70.2221L42.4799 70.2356C42.4799 70.1277 42.4799 70.0333 42.4799 69.9254L42.4934 69.9389V69.9524Z" fill="#BE78FF"/>
<path d="M20.7373 46.823C20.7373 46.823 20.6425 46.823 20.6154 46.8365C20.5883 46.8636 20.5883 46.9178 20.5747 46.9585C20.6425 46.9585 20.7102 46.9585 20.778 46.945C20.778 46.9043 20.7509 46.8637 20.7509 46.823H20.7373Z" fill="#BE78FF"/>
<path d="M118.876 115.562C118.984 115.644 119.093 115.725 118.971 115.63C119.106 115.684 118.971 115.63 118.849 115.576L118.862 115.562H118.876Z" fill="#BE78FF"/>
<path d="M126.687 120.404C126.579 120.35 126.47 120.309 126.619 120.377C126.457 120.35 126.592 120.377 126.714 120.377L126.701 120.404H126.687Z" fill="#BE78FF"/>
<path d="M121.122 118.8C120.798 118.692 120.473 118.584 120.148 118.476C120.27 118.598 120.391 118.719 120.5 118.827L120.473 118.8C120.689 118.8 120.919 118.8 121.136 118.8H121.122Z" fill="#BE78FF"/>
<path d="M30.9314 44.5845L30.9585 44.4625L30.8501 44.5032L30.9314 44.5845Z" fill="#BE78FF"/>
<path d="M156.227 67.9968C156.011 67.781 155.781 67.5517 155.564 67.3359H155.591C155.591 67.5652 155.591 67.7945 155.591 68.0103L155.564 67.9833C155.794 67.9833 156.024 67.9833 156.241 67.9833V68.0103L156.227 67.9968Z" fill="#BE78FF"/>
<path d="M19.1128 49.8445C19.2211 49.8445 19.3294 49.858 19.4377 49.8716C19.3158 49.8716 19.2075 49.8716 19.0857 49.8716V49.8445H19.1128Z" fill="#BE78FF"/>
<path d="M23.3237 65.4341C23.2831 65.3528 23.256 65.285 23.2424 65.2579C23.256 65.285 23.2966 65.3528 23.3509 65.4205L23.3373 65.4341H23.3237Z" fill="#BE78FF"/>
<path d="M121.123 9.08887C121.069 9.00795 121.014 8.91354 120.974 8.83262C120.92 8.91354 120.866 9.00795 120.811 9.08887L120.798 9.06191C120.92 9.06191 121.028 9.06191 121.15 9.06191L121.136 9.08887H121.123Z" fill="#BE78FF"/>
<path d="M30.4712 45.6906C30.4712 46.0008 30.4983 46.3109 30.5118 46.6211H30.4983C30.4983 46.3109 30.4712 46.0142 30.4712 45.704V45.6771V45.6906Z" fill="#BE78FF"/>
<path d="M58.1165 99.0556V99.2852C58.1165 99.2852 58.1571 99.2176 58.1436 99.1906C58.1436 99.1501 58.1165 99.1232 58.0894 99.0827L58.1029 99.0691L58.1165 99.0556Z" fill="#BE78FF"/>
<path d="M61.3518 108.793L61.3925 108.712L61.3789 108.807L61.3518 108.793Z" fill="#BE78FF"/>
<path d="M56.505 98.6776L56.5186 98.7725L56.4915 98.7047L56.505 98.6776Z" fill="#BE78FF"/>
<path d="M66.5645 111.625C66.6592 111.854 66.754 112.07 66.8623 112.299L66.8488 112.312C66.754 112.083 66.6592 111.867 66.5645 111.638L66.578 111.611L66.5645 111.625Z" fill="#BE78FF"/>
<path d="M154.575 65.7717C154.481 65.5289 154.372 65.2861 154.278 65.0434L154.291 65.0299C154.386 65.2727 154.494 65.5154 154.589 65.7582L154.575 65.7852V65.7717Z" fill="#BE78FF"/>
<path d="M56.1394 93.5533L56.2207 93.6211L56.153 93.5669L56.1394 93.5533Z" fill="#BE78FF"/>
<path d="M41.5183 66.0415L41.4915 65.9746L41.5452 66.0281L41.5183 66.0415Z" fill="#BE78FF"/>
<path d="M67.2274 112.663C67.3222 112.865 67.4305 113.067 67.5252 113.27V113.283C67.4169 113.081 67.3086 112.879 67.2139 112.676L67.2274 112.663Z" fill="#BE78FF"/>
<path d="M114.056 113.58L114.11 113.647L114.029 113.566L114.056 113.58Z" fill="#BE78FF"/>
<path d="M19.4375 49.8716C19.4375 49.6423 19.4375 49.4265 19.4375 49.1973H19.451C19.451 49.4265 19.451 49.6558 19.451 49.8716H19.4375Z" fill="#BE78FF"/>
<path d="M42.845 69.5744L42.9127 69.5472L42.8585 69.5879L42.845 69.5744Z" fill="#BE78FF"/>
<path d="M145.18 47.9287C145.085 48.158 144.976 48.3738 144.882 48.603L144.868 48.5896C144.976 48.3738 145.071 48.1445 145.18 47.9287Z" fill="#BE78FF"/>
<path d="M30.4576 45.7041L30.4441 45.6092L30.4712 45.6906L30.4576 45.7041Z" fill="#BE78FF"/>
<path d="M122.45 119.784C122.219 119.784 122.003 119.784 121.773 119.784V119.771C122.003 119.771 122.233 119.771 122.463 119.771L122.45 119.784Z" fill="#BE78FF"/>
<path d="M42.8455 70.5996C42.7237 70.4782 42.6018 70.3569 42.48 70.2355L42.4935 70.222C42.6154 70.3434 42.7372 70.4648 42.859 70.5862L42.8455 70.5996Z" fill="#BE78FF"/>
<path d="M42.48 69.9386C42.6018 69.8173 42.7237 69.6959 42.8455 69.5745L42.859 69.588C42.7372 69.7094 42.6154 69.8308 42.4935 69.9521L42.48 69.9386Z" fill="#BE78FF"/>
<path d="M56.153 93.5669L56.1394 93.4855V93.5533L56.153 93.5669Z" fill="#BE78FF"/>
<path d="M55.1783 96.4523C55.3002 96.5737 55.4085 96.6816 55.5303 96.8029L55.5168 96.8164C55.3949 96.695 55.2866 96.5872 55.1648 96.4658L55.1783 96.4523Z" fill="#BE78FF"/>
<path d="M57.7778 98.7189C57.8861 98.8267 58.008 98.9481 58.1163 99.0695L58.1027 99.083C57.9809 98.9751 57.8726 98.8537 57.7507 98.7459L57.7643 98.7324L57.7778 98.7189Z" fill="#BE78FF"/>
<path d="M66.8622 112.299C66.984 112.421 67.1059 112.542 67.2277 112.663L67.2142 112.677C67.0923 112.555 66.9705 112.434 66.8486 112.313L66.8622 112.299Z" fill="#BE78FF"/>
<path d="M152.653 51.8135L152.612 51.7866L152.653 51.8135Z" fill="#BE78FF"/>
<path d="M114.029 113.567C113.921 113.567 113.799 113.594 113.691 113.607H113.677C113.799 113.58 113.934 113.58 114.056 113.567H114.029Z" fill="#BE78FF"/>
<path d="M113.69 113.608C113.568 113.729 113.446 113.85 113.324 113.972L113.311 113.958C113.433 113.837 113.554 113.715 113.676 113.594L113.69 113.608Z" fill="#BE78FF"/>
<path d="M120.486 116.858L120.432 116.845L120.5 116.858H120.486Z" fill="#BE78FF"/>
<path d="M118.212 117.531C118.091 117.41 117.969 117.289 117.86 117.181L117.887 117.167C118.009 117.289 118.118 117.397 118.239 117.518V117.545L118.212 117.531Z" fill="#BE78FF"/>
<path d="M101.33 41.4561C101.316 41.564 101.316 41.6719 101.33 41.7798C101.33 41.6584 101.33 41.5505 101.33 41.4292L101.357 41.4561H101.33Z" fill="#BE78FF"/>
<path d="M101.317 41.1054C101.317 41.2268 101.317 41.3347 101.317 41.4561L101.29 41.4291C101.411 41.4291 101.52 41.4291 101.642 41.4291V41.4561C101.642 41.3347 101.642 41.2133 101.642 41.0919L101.669 41.1189C101.547 41.1189 101.425 41.1189 101.303 41.1189H101.33L101.317 41.1054Z" fill="#BE78FF"/>
<path d="M149.702 40.1749C149.81 40.1749 149.932 40.1479 150.04 40.1479L150.054 40.1614C149.932 40.1614 149.796 40.1749 149.675 40.1885H149.688L149.702 40.1749Z" fill="#BE78FF"/>
<path d="M145.167 131.099C145.058 130.991 144.95 130.883 144.842 130.775L144.855 130.762C144.964 130.87 145.072 130.977 145.18 131.099L145.167 131.112V131.099Z" fill="#BE78FF"/>
<path d="M131.547 47.9026C131.006 48.6578 130.45 49.4265 129.909 50.1817C129.922 50.6133 129.936 51.0449 129.95 51.4764L129.936 51.463C130.044 51.4764 130.153 51.4899 130.261 51.5034C130.694 50.3031 131.127 49.1028 131.561 47.9026H131.547Z" fill="#BE78FF"/>
<path d="M139.995 61.5234L139.643 61.1728C139.765 61.2942 139.887 61.4155 139.995 61.5234Z" fill="#BE78FF"/>
<path d="M139.02 60.876C138.898 60.7546 138.777 60.6333 138.668 60.5254C138.79 60.6467 138.912 60.7681 139.02 60.876Z" fill="#BE78FF"/>
<path d="M129.57 51.8C129.692 51.6786 129.8 51.5707 129.922 51.4494C129.922 51.4494 129.936 51.4629 129.949 51.4629C129.828 51.5842 129.706 51.6921 129.597 51.8135L129.584 51.8H129.57Z" fill="#BE78FF"/>
<path d="M107.802 39.4863C107.802 39.6077 107.802 39.7155 107.802 39.8369C107.924 39.8369 108.032 39.8369 108.154 39.8369C108.032 39.7155 107.924 39.6077 107.802 39.4863Z" fill="#BE78FF"/>
<path d="M19.1128 87.7136C19.5595 88.2126 20.0063 88.7251 20.4531 89.2241L20.7238 88.9409C20.1823 88.5363 19.6408 88.1317 19.0857 87.7271L19.0992 87.7136H19.1128Z" fill="#BE78FF"/>
<path d="M21.7123 89.6963L21.6987 89.615V89.6692L21.7123 89.6963Z" fill="#BE78FF"/>
<path d="M41.2202 107.781C41.0983 107.781 40.9765 107.781 40.8682 107.781C40.99 107.903 41.0983 108.01 41.2202 108.132C41.2202 108.01 41.2202 107.889 41.2202 107.781Z" fill="#BE78FF"/>
<path d="M20.3989 93.2162C20.3989 93.3376 20.3989 93.4455 20.3989 93.5669C20.6291 93.5669 20.8592 93.5669 21.0894 93.5669C20.8592 93.4455 20.6291 93.3376 20.3989 93.2162Z" fill="#BE78FF"/>
<path d="M112.702 125.597L112.648 125.624L112.688 125.597H112.702Z" fill="#BE78FF"/>
</svg>
