<svg width="225" height="324" viewBox="0 0 225 324" fill="none" xmlns="http://www.w3.org/2000/svg">
<path d="M183.811 157.091C182.606 157.348 182.403 158.534 181.929 159.357C181.415 160.274 180.995 161.056 179.709 160.841C179.601 161.704 179.533 162.378 179.438 163.066C179.317 164.05 179.181 164.145 178.233 164.091C177.651 164.05 177.069 164.091 176.338 164.091C175.959 163.551 175.553 162.675 174.443 163.241C174.307 163.309 173.942 162.958 173.563 162.742C173.211 163.969 172.886 165.062 172.561 166.181C171.64 166.019 171.573 165.48 171.654 164.94C171.789 164.104 171.654 163.403 171.194 162.648C170.896 162.149 170.869 161.407 170.909 160.773C171.194 156.323 171.519 151.872 171.83 147.422C171.871 146.828 171.789 146.235 171.884 145.655C172.033 144.711 172.263 143.78 172.466 142.85C172.466 143.308 172.466 143.767 172.466 144.239C172.575 144.239 172.683 144.212 172.791 144.199C172.683 143.753 172.561 143.308 172.453 142.877C172.48 142.391 172.602 141.892 172.507 141.434C171.938 138.615 172.006 135.783 172.209 132.937C172.29 131.697 171.83 131.279 170.611 131.252C169.989 131.238 169.352 131.117 168.73 131.063C168.364 131.036 167.931 130.928 167.62 131.063C166.306 131.683 164.993 131.481 163.653 131.238L163.666 131.252C163.152 130.469 162.637 129.674 162.123 128.892C162.732 127.556 162.962 126.006 164.316 125.115H164.289C164.411 125.102 164.533 125.102 164.655 125.102L164.628 125.129C164.628 125.008 164.628 124.886 164.628 124.765V124.792C164.628 124.67 164.628 124.562 164.628 124.441C165.02 124.279 165.467 124.185 165.805 123.942C167.484 122.688 169.163 121.407 170.801 120.099C171.261 119.734 171.992 119.478 171.884 118.48C171.139 118.75 170.476 118.993 169.813 119.249L169.84 119.276C170.124 119.02 170.381 118.736 170.693 118.521C172.074 117.577 172.832 116.403 172.263 114.677C172.195 114.475 172.209 114.245 172.236 114.03C172.723 110.82 171.979 107.597 172.358 104.374C172.453 103.578 172.29 102.769 172.25 101.959C172.128 99.3971 172.764 96.9291 173.17 94.4341C173.387 93.0585 173.441 91.6559 173.685 90.2938C173.82 89.5251 173.969 88.6215 174.456 88.082C175.201 87.2729 176.162 86.5581 177.177 86.1266C177.76 85.8838 178.748 86.0726 179.317 86.4367C180.846 87.4212 182.512 87.9742 184.244 88.3922C184.61 88.4732 185.003 88.662 185.341 88.5945C186.844 88.3248 187.967 89.0126 188.942 89.9836C191.176 92.1684 193.505 94.2858 195.088 97.0505C195.264 97.3606 195.576 97.6034 195.968 98.008C196.713 97.5629 197.458 97.1583 198.162 96.6863C200.72 94.9735 203.184 93.1124 205.824 91.548C207.841 90.3478 209.953 89.2689 212.499 89.2958C214.028 89.3093 215.572 88.7968 217.115 88.5945C217.616 88.5271 218.171 88.6215 218.672 88.7564C219.66 89.0126 220.621 89.3363 221.596 89.633C221.962 89.7409 222.354 89.7813 222.679 89.9567C225.211 91.3457 225.644 92.7348 224.114 94.5285C223.911 94.7712 223.776 95.0815 223.559 95.3242C222.422 96.6728 221.285 98.0215 219.945 99.5994C220.08 98.8711 220.161 98.4126 220.256 97.954C220.229 97.7382 220.215 97.5359 220.202 97.3202C220.202 97.1853 220.202 97.037 220.202 96.9021C221.163 96.1738 221.664 95.1759 222.097 93.8407C221.028 94.8387 220.825 95.1894 220.215 96.9291C220.215 97.0505 220.215 97.1853 220.215 97.3067L220.283 97.9675C219.945 98.0619 219.606 98.1428 219.268 98.2372V98.2642C219.051 97.7113 218.821 97.7787 218.591 98.2642L218.618 98.2372C218.388 98.3586 218.171 98.4665 217.941 98.5879L217.968 98.5609C218.185 98.6823 218.401 98.7902 218.618 98.9115H218.591C218.523 99.5993 218.212 100.125 217.602 100.476V100.503C217.63 100.247 217.643 99.9904 217.67 99.5454C217.305 99.7072 216.993 99.7477 216.898 99.9096C215.802 101.703 214.231 103.227 213.731 105.371C213.636 105.601 213.527 105.844 213.433 106.073C213.216 106.396 212.999 106.707 212.769 107.03C212.661 107.206 212.566 107.381 212.458 107.57C212.499 107.583 212.553 107.61 212.593 107.624C212.647 107.421 212.688 107.219 212.742 107.017C212.959 106.693 213.189 106.383 213.406 106.059C213.5 105.83 213.609 105.587 213.717 105.358C214.11 105.102 214.489 104.846 214.881 104.589C214.963 104.643 215.044 104.697 215.125 104.751C214.435 105.978 213.785 107.233 213.04 108.446C211.212 111.454 209.141 114.34 207.882 117.658L207.896 117.644C207.896 118.399 207.896 119.168 207.882 119.923C207.774 120.152 207.679 120.395 207.571 120.624C207.341 120.503 207.097 120.382 206.867 120.247C206.813 120.314 206.758 120.382 206.704 120.463C206.989 120.813 207.286 121.177 207.571 121.528L207.598 121.609L207.557 121.542C207.557 121.231 207.557 120.921 207.557 120.611C207.665 120.382 207.76 120.139 207.869 119.91C208.356 120.193 208.843 120.476 209.385 120.786C209.087 121.542 208.816 122.202 208.545 122.863L208.518 122.836C208.816 123.012 208.965 123.645 209.493 123.16L209.507 123.173C209.493 122.931 209.466 122.701 209.452 122.459C209.561 122.418 209.669 122.364 209.777 122.324C210.089 122.836 210.454 123.308 210.712 123.848C211.158 124.792 211.74 125.587 212.715 126.046L212.702 126.032C212.783 126.275 212.769 126.666 212.945 126.761C213.879 127.3 214.231 128.217 214.475 129.148C215.125 131.656 216.398 133.774 218.103 135.702C218.956 136.66 219.606 137.793 220.31 138.871C220.486 139.155 220.513 139.532 220.635 139.923C219.823 140.166 219.403 139.721 218.956 139.357H218.929C219.43 139.263 219.742 139.033 219.403 138.507C219.01 137.873 218.564 137.253 217.968 136.39C217.806 137.294 217.711 137.847 217.616 138.399V138.372C216.817 138.372 216.018 138.372 215.22 138.332C213.934 138.278 212.647 138.184 211.564 138.116C210.766 138.615 210.129 139.074 209.452 139.451C208.139 140.166 206.813 140.84 205.486 141.542C204.809 141.906 204.24 141.65 203.658 141.339C202.426 140.679 201.194 140.004 199.935 139.397C199.218 139.047 198.446 138.818 197.81 138.561C196.821 139.06 196.794 140.503 195.495 140.314H195.508C195.386 140.058 195.264 139.802 195.007 139.249C193.572 141.137 192.882 143.214 191.582 144.886L191.569 144.805L191.609 144.873C190.878 146.046 190.066 147.165 189.43 148.393C188.563 150.079 187.818 151.845 187.06 153.491C187.02 153.369 186.939 153.099 186.817 152.654C186.004 153.248 185.747 154.07 185.314 154.758C184.881 155.433 184.515 156.147 184.109 156.835L184.136 156.808C184.014 156.93 183.906 157.037 183.784 157.159L183.798 157.132L183.811 157.091ZM170.815 126.356C170.815 126.464 170.815 126.585 170.815 126.693C170.963 126.693 171.099 126.707 171.248 126.72C171.207 126.599 171.167 126.491 171.139 126.37C171.139 126.248 171.139 126.127 171.139 126.006C171.302 125.938 171.464 125.871 171.613 125.803C171.586 125.763 171.559 125.722 171.546 125.695C171.424 125.803 171.288 125.925 171.167 126.032C171.058 126.14 170.95 126.248 170.828 126.343L170.815 126.356ZM196.172 124.738L196.144 124.765C196.036 124.765 195.941 124.765 195.833 124.765C195.201 125.421 195.107 126.028 195.549 126.585C196.212 126.032 195.968 125.372 195.82 124.738C195.941 124.738 196.063 124.738 196.172 124.738ZM209.804 124.765H209.818C209.926 124.954 210.021 125.169 210.129 125.385C210.251 125.493 210.36 125.614 210.481 125.722L210.508 125.803L210.454 125.749C210.346 125.641 210.224 125.52 210.116 125.412C210.008 125.196 209.913 124.994 209.804 124.778V124.765ZM211.104 127.03H211.118L211.158 127.084L211.104 127.03ZM210.427 127.934L210.441 127.948C210.441 128.069 210.441 128.204 210.441 128.325C210.441 128.325 210.427 128.339 210.441 128.339C210.441 128.204 210.441 128.055 210.441 127.921L210.427 127.934ZM186.411 104.684L186.37 104.643L186.424 104.67C186.424 104.67 186.492 104.738 186.519 104.778C186.478 104.751 186.451 104.724 186.411 104.684ZM195.806 117.024V116.916L195.82 116.997C195.82 117.307 195.82 117.617 195.82 117.927C195.481 117.442 195.156 116.929 194.791 116.484C194.29 115.877 193.748 115.311 193.22 114.717C193.18 114.151 192.963 113.733 192.367 113.598C191.853 114.65 191.934 114.987 192.922 115.972C193.044 117.28 193.694 118.318 194.696 119.168C194.642 118.858 194.574 118.561 194.52 118.251C194.94 118.588 195.346 118.925 195.996 119.451C195.928 118.736 195.887 118.332 195.847 117.941C195.955 117.604 196.05 117.28 196.158 116.943C196.199 116.862 196.239 116.794 196.293 116.713C196.253 116.794 196.226 116.875 196.185 116.956C196.063 116.97 195.941 116.983 195.806 116.997V117.024ZM208.518 95.6209C208.451 95.6749 208.369 95.7153 208.302 95.7692C208.369 95.7153 208.437 95.6614 208.505 95.6074H208.518V95.6209ZM182.864 138.305C182.958 138.548 183.067 138.777 183.161 139.02C183.161 139.667 183.107 140.341 184.068 140.544C184.529 139.681 184.921 138.777 184.623 137.806C184.353 136.916 183.879 136.093 183.513 135.257C183.392 136.484 183.27 137.766 183.148 139.047C183.053 138.804 182.945 138.561 182.85 138.332C182.823 138.251 182.796 138.17 182.796 138.143C182.796 138.157 182.836 138.238 182.877 138.305H182.864ZM219.579 95.985C219.484 96.0929 219.39 96.2008 219.498 96.0794C219.417 96.2278 219.498 96.0929 219.552 95.9715C219.755 95.9311 219.945 95.8906 220.148 95.8637L219.728 95.513C219.674 95.6748 219.633 95.8367 219.579 95.9985V95.985ZM193.247 99.1678L193.234 99.1813C193.112 98.9116 192.99 98.6418 192.868 98.3721C192.801 98.426 192.719 98.48 192.652 98.5339C192.855 98.7497 193.058 98.952 193.247 99.1678ZM192.936 95.2838L192.909 95.3107C192.773 94.8657 192.652 94.4071 192.002 94.4341C191.961 95.1894 192.408 95.2972 192.922 95.2838H192.936ZM188.401 91.4536C187.846 90.9007 187.291 90.3477 186.735 89.8083L186.763 89.7813C186.898 90.7254 187.331 91.3727 188.387 91.4267L188.428 91.3188L188.401 91.4402V91.4536ZM202.995 104.67C203.834 104.117 204.619 103.524 204.809 102.027C203.347 103.227 202.142 104.212 200.72 105.371C201.248 105.52 201.479 105.574 201.709 105.641C201.429 106.585 201.668 107.197 202.426 107.475C203.09 106.639 203.36 105.722 202.995 104.67ZM190.973 115.055C190.851 114.03 190.134 114.138 189.578 114.502C188.739 115.041 187.873 115.635 187.818 116.848C187.805 117.266 187.521 117.657 187.358 118.062C187.142 117.32 187.074 116.646 186.099 116.97H186.113C185.91 116.956 185.598 116.821 185.544 116.889C184.515 118.103 184.001 120.517 185.693 121.757C186.235 121.542 186.803 121.326 187.372 121.097C187.277 121.663 187.006 122.027 186.708 122.364C186.411 122.728 186.099 123.079 185.788 123.43C185.476 124.239 185.233 125.048 185.761 125.884V123.416C185.815 123.564 185.91 123.726 185.91 123.875C185.855 126.006 187.169 126.788 189.023 127.071C189.402 127.125 189.768 127.219 190.134 127.314C190.946 127.503 191.623 127.408 192.083 126.599C192.205 126.37 192.449 126.208 192.625 126.019L192.597 126.046C193.166 125.088 193.667 124.09 194.303 123.2C194.845 122.459 194.885 121.663 194.547 120.962C193.884 119.586 193.044 118.291 192.286 116.97H192.3C192.273 116.08 191.582 115.594 191 115.041H190.986L190.973 115.055ZM180.224 122.499C180.088 122.89 179.005 122.85 179.75 123.645C179.899 123.794 179.777 124.32 179.628 124.589C179.438 124.927 179.086 125.183 178.761 125.534C179.533 126.167 180.142 126.006 180.792 125.641C181.076 124.522 181.009 123.511 180.237 122.499H180.224ZM185.395 137.253C185.531 137.294 185.666 137.321 185.801 137.361C186.194 136.687 186.587 136.026 186.952 135.352C187.182 134.92 187.399 134.434 186.776 134.124C186.194 133.828 185.531 134.097 185.422 134.785C185.3 135.594 185.395 136.43 185.395 137.253ZM179.073 137.523C180.129 133.976 180.142 133.342 179.168 132.789C178.585 134.259 179.032 135.716 179.073 137.523ZM182.958 123.119C183.053 123.119 183.148 123.146 183.229 123.146V122.283C183.134 122.283 183.04 122.283 182.958 122.283V123.106V123.119ZM180.982 144.792C180.819 144.981 180.711 145.062 180.67 145.17C180.643 145.237 180.724 145.345 180.765 145.439C180.873 145.385 181.063 145.358 181.09 145.277C181.131 145.183 181.049 145.035 180.982 144.792ZM182.864 133.868C182.769 133.895 182.688 133.922 182.593 133.949C182.66 134.138 182.728 134.327 182.809 134.515L183.012 134.448C182.972 134.259 182.918 134.07 182.877 133.882L182.864 133.868ZM180.278 134.111C180.359 134.111 180.44 134.111 180.521 134.111V133.221H180.237C180.251 133.531 180.264 133.828 180.278 134.124V134.111ZM177.272 137.563C177.191 137.563 177.123 137.563 177.042 137.577C177.056 137.793 177.069 138.008 177.083 138.211C177.164 138.211 177.232 138.211 177.313 138.197C177.299 137.981 177.286 137.766 177.272 137.563ZM198.04 122.378C197.837 122.27 197.715 122.148 197.58 122.135C197.498 122.135 197.349 122.337 197.363 122.432C197.363 122.54 197.512 122.647 197.607 122.755C197.701 122.674 197.81 122.58 198.053 122.378H198.04ZM180.508 140.085C180.508 140.085 180.386 139.977 180.332 139.923C180.305 139.964 180.237 140.018 180.251 140.031C180.305 140.099 180.359 140.153 180.413 140.207C180.44 140.166 180.467 140.139 180.521 140.085H180.508ZM194.926 124.387L194.953 124.293L194.858 124.32L194.926 124.387ZM176 115.594L176.108 115.662V115.527L176 115.594ZM206.989 96.6324L207.083 96.5919L207.002 96.538V96.6458L206.989 96.6324ZM172.52 146.006C172.52 146.006 172.52 146.1 172.534 146.154C172.588 146.114 172.642 146.073 172.669 146.019C172.669 146.006 172.629 145.952 172.602 145.911C172.575 145.952 172.547 145.979 172.52 146.019V146.006ZM191 93.3013C190.919 93.2608 190.851 93.2203 190.77 93.1799C190.756 93.2203 190.716 93.3012 190.729 93.3147C190.797 93.3687 190.878 93.3956 190.959 93.4361C190.959 93.3956 190.986 93.3417 191 93.3013ZM182.945 125.493L183.012 125.574L183.053 125.48H182.945V125.493ZM173.265 141.259V141.016H173.143C173.143 141.097 173.143 141.178 173.143 141.259H173.278H173.265ZM194.777 127.678L194.858 127.624L194.777 127.583V127.678ZM194.899 98.2372V98.1428L194.831 98.1698L194.899 98.2372ZM177.15 95.7557C177.15 95.8367 177.15 95.9041 177.137 95.985C177.164 95.9446 177.232 95.9176 177.232 95.8771C177.232 95.8367 177.191 95.7962 177.15 95.7557Z" fill="#FFE57C"/>
<path d="M124.379 57.3739C123.431 58.6685 122.429 59.9497 121.536 61.2849C119.979 63.618 118.435 65.9511 117 68.3652C115.755 70.4421 114.645 72.5999 113.535 74.7577C112.966 75.8501 112.519 77.0099 112.032 78.1427L112.018 78.1293C112.154 78.4125 112.276 78.6957 112.533 79.2486C113.467 77.7516 114.32 76.4435 114.916 75.0004C115.714 73.0719 116.676 71.2378 118.192 69.7543H118.178C117.704 71.9121 116.513 73.7597 115.525 75.7152C115.295 76.1872 115.119 76.6862 114.929 77.1717C114.306 78.1697 113.589 79.1407 113.101 80.2061C112.858 80.7321 112.871 81.4873 113.047 82.0672C113.332 83.0383 113.833 83.9553 114.266 84.8859C115.254 87.0302 116.242 89.1745 117.258 91.3054C117.583 91.9662 118.043 92.5731 118.422 93.2069C119.261 94.6365 120.195 96.0391 120.859 97.5495C121.143 98.1969 120.818 99.1004 120.778 99.8826C120.696 99.6399 120.629 99.4106 120.547 99.1679C120.48 99.2083 120.399 99.2488 120.331 99.2893C120.48 99.4781 120.642 99.6669 120.791 99.8557C120.737 99.8557 120.683 99.8961 120.642 99.8826C120.033 99.6399 119.437 99.3027 118.801 99.1814C118.192 99.06 117.528 99.1814 116.892 99.1814H116.906C116.689 98.7768 116.459 98.3452 116.242 97.9136L116.256 97.9001C115.741 99.0734 115.268 99.3432 114.198 98.8307C112.628 98.0755 111.03 97.6035 109.27 97.5765C108.742 97.5765 108.214 97.118 107.713 96.8213C107.077 96.4436 106.468 96.0121 105.859 95.6075L105.872 95.621C104.789 94.4342 104.775 94.4342 103.638 95.3378C103.395 95.5266 103.164 95.7424 102.934 95.9582C102.894 95.8772 102.853 95.7963 102.826 95.7154C102.745 95.7963 102.664 95.8772 102.582 95.9582C102.366 96.619 102.136 97.2798 101.919 97.9406L101.892 97.8327L101.932 97.9271C101.147 98.6959 100.728 99.6264 100.308 100.638C99.5768 102.459 98.4938 104.144 97.6544 105.938C96.8421 107.678 96.1246 109.471 95.4477 111.265C95.2446 111.805 95.3529 112.479 95.3123 113.409C95.8268 112.681 96.111 112.277 96.4495 111.805C98.2501 113.248 97.8304 114.893 97.3024 116.808C96.9233 116.336 96.6797 116.039 96.436 115.729C96.964 114.825 96.8421 113.962 96.3006 112.749C96.0163 114.016 96.1923 114.879 96.463 115.743C96.0704 115.891 95.6643 116.039 95.204 116.215C95.0415 116.012 94.8655 115.769 94.676 115.527C94.5948 115.581 94.4729 115.621 94.4323 115.702C94.3105 115.931 94.2834 116.336 94.1209 116.403C92.6994 116.983 92.6317 118.224 92.5099 119.465C92.3881 120.692 92.3881 120.665 91.0749 120.84C90.6687 120.894 90.2761 121.124 89.8835 121.272C88.814 121.703 88.1777 121.596 87.4737 120.665C86.7968 119.775 85.971 119.168 84.9285 118.777C83.8049 118.345 83.1415 117.037 83.3716 115.864C83.489 115.288 83.2949 114.825 82.7895 114.475C83.1009 111.912 83.3852 109.417 83.7101 106.922C83.7642 106.504 83.9809 106.113 84.1298 105.709H84.1027C84.1298 105.844 84.1568 105.992 84.1975 106.302C85.0774 104.697 85.8897 103.214 86.702 101.73C86.7291 102.081 86.7697 102.432 86.7968 102.782C86.8645 102.769 86.9322 102.755 86.9999 102.742C86.8916 102.418 86.7968 102.081 86.6885 101.757C86.6885 101.461 86.6885 101.15 86.6885 100.854C86.7426 100.719 86.8103 100.584 86.7426 100.732C86.7833 100.584 86.7426 100.732 86.702 100.881L86.3365 100.786H86.35C85.5107 99.8557 85.7137 98.2643 84.1298 97.4147C84.2787 97.8732 84.3464 98.0485 84.4005 98.2238L84.4276 98.2103C83.4122 99.033 84.2787 99.8826 84.3464 100.395C83.9267 101.595 83.6018 102.499 83.1956 103.672C83.155 103.092 83.1144 102.755 83.1009 102.418C82.9384 98.8442 83.6965 95.3513 83.9944 91.8179C84.0892 90.7524 84.1433 89.6735 84.1298 88.5946C84.1298 87.5696 83.859 87.273 82.7624 87.1786C81.2055 87.0437 79.6351 87.0302 78.0782 86.9358C76.9816 86.8684 75.8038 87.0572 74.7614 86.0727C75.1675 85.8704 75.4653 85.7085 75.8986 85.4793C75.6007 85.277 75.3841 85.0073 75.1404 84.9668C72.6223 84.6566 70.1042 84.4273 67.6944 83.5777C66.476 83.1461 65.2576 82.7011 64.1339 82.0942C62.7395 81.3525 62.6312 80.341 63.809 79.2756C66.1782 77.1447 68.5609 75.0409 71.0248 73.018C75.3977 69.4171 79.7976 65.8567 84.2381 62.3503C85.5513 61.3119 86.0793 60.0576 86.0928 58.4393C86.0928 57.1581 86.2282 55.8634 86.3094 54.3934C86.6885 54.6227 86.9186 54.771 87.1488 54.9059C87.7715 53.8405 87.6903 49.6597 86.9863 46.7737L86.9999 46.7871C86.2282 45.7891 86.2553 45.6543 87.3112 45.4115C87.5414 45.3576 87.758 45.2362 87.9881 45.1553H87.9746C88.5432 45.3036 88.6651 44.8316 88.9358 44.5079C89.9241 43.3076 90.5469 43.3616 91.3862 44.6833C92.4557 46.369 93.972 47.2996 95.9757 47.5019C96.3954 47.5423 96.8421 47.9065 97.1535 48.2437C97.5055 48.6348 97.7086 49.1607 98.0064 49.6057C98.5885 50.4419 99.1978 50.5768 100.091 50.1048C100.43 49.9294 100.741 49.7136 101.039 49.4844C103.476 47.7042 105.98 45.9914 108.336 44.1169C110.854 42.1209 113.724 40.7318 116.459 39.0999C117.474 38.4931 118.53 37.9401 119.546 37.3332C120.791 36.578 122.077 36.578 123.512 36.9826C123.377 37.2388 123.282 37.4007 123.187 37.576C123.255 37.6434 123.336 37.7648 123.404 37.7648C124.298 37.8457 125.056 38.1424 125.746 38.7493C126.437 39.3427 127.235 39.8282 128.007 40.3002C128.819 40.7857 129.483 41.3791 129.875 42.2422L129.862 42.2287C130.173 42.431 130.457 42.6738 130.796 42.8221C131.892 43.3076 132.109 43.7527 131.906 44.9395C131.378 48.0279 129.929 50.6712 128.129 53.1661C127.817 53.5977 127.547 54.0697 127.195 54.4743C126.707 55.0138 126.139 55.4858 125.624 56.0117C125.178 56.4703 124.771 56.9558 124.352 57.4278L124.365 57.4143L124.379 57.3739ZM102.271 57.1041L102.257 57.0907H102.271V57.1041ZM83.0603 72.9505L83.0467 72.9235L83.4393 72.9505C83.6559 73.2877 83.9132 73.5439 84.2787 73.1528C84.3328 73.0989 84.1433 72.8157 84.0621 72.6403C84.1568 72.4785 84.2381 72.3302 84.3328 72.1683C84.2787 72.1279 84.2245 72.0739 84.1568 72.0334C83.9132 72.2357 83.683 72.4246 83.4393 72.6268C83.3175 72.7347 83.1956 72.8292 83.0738 72.937L83.0603 72.9505ZM86.9863 97.8732L86.9999 97.8867H86.9863V97.8732ZM73.3534 74.906L73.3398 74.8925H73.3534V74.906ZM72.3786 75.5668C72.2703 75.6747 72.162 75.7826 72.0402 75.904C71.9319 76.0119 71.8236 76.1198 71.7153 76.2412C70.5374 76.7132 69.5492 77.4414 68.8046 78.4799L68.7639 78.6148C68.7639 78.6148 68.791 78.5204 68.8046 78.4799C70.0365 78.0618 70.9301 77.2257 71.7153 76.2277C71.8236 76.1198 71.9319 76.0119 72.0402 75.8905C72.1485 75.7827 72.2568 75.6748 72.3786 75.5534L72.3922 75.5668H72.3786ZM96.7473 105.345L96.6932 105.399L96.7203 105.318H96.7338L96.7473 105.345ZM100.646 84.3329L100.592 84.3869L100.619 84.306H100.633L100.646 84.3329ZM79.2019 74.3126C79.2019 74.3126 79.1748 74.3801 79.1613 74.407C79.1613 74.3666 79.1748 74.3261 79.1883 74.2991C79.2966 74.1912 79.4185 74.0699 79.5268 73.962C81.1649 73.463 82.3157 72.2897 83.5341 71.1703C83.9402 70.8197 84.3599 70.4691 84.7661 70.1184C84.7931 70.0914 84.8338 70.051 84.8608 70.024C84.8338 69.997 84.7931 69.9566 84.7931 69.9566C84.7525 69.9701 84.7255 70.0105 84.6984 70.0375C84.2516 70.3477 83.8049 70.6444 83.3446 70.9546C82.0855 71.9525 80.8129 72.964 79.5539 73.962C79.4456 74.0699 79.3237 74.1912 79.2154 74.2991L79.2019 74.3126ZM79.5403 69.7813L79.4726 69.8756L79.5133 69.7678H79.5268L79.5403 69.7813ZM110.069 69.7813C110.177 69.552 110.272 69.3362 110.38 69.1069C110.421 69.026 110.462 68.9586 110.502 68.8777C110.462 68.9586 110.434 69.0395 110.394 69.1204C110.286 69.3497 110.191 69.5654 110.082 69.7947L110.069 69.7813ZM104.234 58.4662C104.234 58.3584 104.22 58.2505 104.207 58.1426C105.317 57.1446 106.373 56.0927 107.524 55.1351C108.932 53.9753 110.258 52.5458 111.897 51.8715C113.562 51.1837 114.185 49.9699 114.834 48.5269C112.925 49.6462 111.084 50.86 109.406 52.3165H109.419C106.82 53.3819 105.087 55.5667 102.975 57.2525C102.799 57.3873 102.731 57.8459 102.812 58.0886C102.988 58.5876 103.435 58.6011 103.882 58.4527C104.004 58.4527 104.112 58.4527 104.234 58.4527V58.4662ZM85.0098 110.2L85.5513 109.822L85.3482 109.647C85.2399 109.836 85.1316 110.038 85.0233 110.227C84.9691 110.388 84.9014 110.55 84.8473 110.726C84.9014 110.726 84.9556 110.739 85.0098 110.753C85.0098 110.577 85.0098 110.388 85.0098 110.213V110.2ZM105.534 51.0353C105.073 51.1297 104.627 51.2646 104.451 51.9524C105.127 51.8445 105.385 51.4938 105.52 51.0218H105.534V51.0353ZM111.03 67.8662C111.382 67.4886 111.842 67.1514 112.086 66.7064C113.074 64.9532 113.981 63.1595 114.929 61.3928C115.403 60.9747 115.985 60.6106 116.337 60.1116C117.813 58.0077 119.234 55.8634 120.642 53.7056C121.184 52.8829 121.671 52.0063 122.172 51.1567C121.644 51.2241 121.265 51.4399 121.048 51.7636C119.072 54.7171 117.122 57.6705 115.173 60.651C115.037 60.8668 115.024 61.15 114.943 61.4062C114.509 61.8378 114.076 62.2694 113.629 62.7144L113.643 62.701C113.318 63.2944 112.98 63.8877 112.668 64.4946C112.113 65.614 111.572 66.7603 111.03 67.8931L111.003 67.8662H111.03ZM112.032 64.3328C111.897 64.4137 111.707 64.4676 111.626 64.5755C110.448 66.4097 109.27 68.2573 108.119 70.1184C108.065 70.1993 108.201 70.3747 108.295 70.6714C108.62 70.3342 108.918 70.1049 109.094 69.8082C109.839 68.581 110.583 67.3402 111.274 66.0725C111.585 65.5196 111.775 64.8992 112.018 64.3058C112.073 64.2923 112.127 64.2788 112.167 64.2519C112.194 64.2384 112.167 64.171 112.167 64.1305C112.127 64.1979 112.073 64.2519 112.032 64.3193V64.3328ZM107.47 60.1116C108.079 59.4912 108.688 58.8574 109.473 58.0617C107.267 58.2505 104.775 59.8823 104.193 61.3658C105.1 61.15 105.98 60.9477 106.847 60.7454C106.387 61.2579 105.94 61.7973 105.479 62.2963C104.708 63.1325 104.681 63.5101 105.371 64.7644C105.642 64.6565 106.089 64.616 106.183 64.4137C106.779 63.1595 107.294 61.8783 107.808 60.5836C107.849 60.4757 107.591 60.2599 107.483 60.0846L107.47 60.1116ZM117.515 63.2944C117.867 62.9707 118.3 62.6874 118.544 62.2963C120.737 58.7494 122.917 55.2026 125.069 51.6287C125.232 51.3724 125.259 51.0218 125.34 50.7251L125.394 50.6307L125.367 50.7386C125.069 51.0353 124.69 51.2915 124.487 51.6422C122.158 55.5127 119.857 59.4103 117.542 63.2944L117.515 63.3753L117.528 63.2674L117.515 63.2944ZM91.8736 76.2816C91.6705 77.6572 91.4675 79.0329 91.2779 80.4085C91.1696 81.2446 91.7382 81.7166 92.2933 82.3774C92.9973 80.5029 92.8754 78.7092 92.8348 76.9829C92.7942 75.2162 93.7283 73.5035 93.1056 71.3591C92.7942 72.3571 92.6724 73.0449 92.3745 73.6518C91.9548 74.5015 91.8059 75.3781 91.8601 76.2951H91.8736V76.2816ZM80.8265 80.1522C81.4086 80.2736 82.0043 80.0443 82.5593 80.6512C82.979 81.1097 84.1704 80.6512 84.4411 79.9364C84.7931 79.0059 84.9421 77.9809 85.1451 76.9964C85.1722 76.8885 84.8879 76.7267 84.739 76.5783V76.5918C84.7931 76.2547 85.0098 75.8231 84.8608 75.6208C84.7119 75.405 84.1433 75.2432 83.9132 75.3511C81.9095 76.3491 79.8382 77.2661 78.173 78.817C77.9834 78.9924 77.9834 79.3565 77.8751 79.7071C79.0394 80.0173 80.0006 79.896 80.8941 79.2891C81.2868 79.0194 81.72 78.8036 82.1397 78.5608H82.1261C81.7064 79.0868 81.2868 79.6262 80.8671 80.1657H80.8535L80.8265 80.1522ZM91.0884 88.3923C91.0072 89.3364 90.9395 90.1725 90.8582 91.0087C91.3456 90.4288 91.657 89.8354 91.9278 89.242C92.1714 88.689 91.8871 88.4732 91.0884 88.3923ZM88.3808 55.3644C88.3808 55.3644 88.4755 55.3644 88.5297 55.3644V53.0178C88.5297 53.0178 88.4349 53.0178 88.3808 53.0178V55.3644ZM78.4708 86.0457C78.5927 85.8704 78.6874 85.7355 78.7957 85.5872C78.6739 85.5198 78.525 85.3579 78.4302 85.3849C78.2813 85.4388 78.173 85.6006 78.0376 85.722C78.1459 85.8029 78.2677 85.8839 78.4708 86.0322V86.0457ZM85.6325 79.8825C85.7408 79.8825 85.8627 79.896 85.971 79.9094V78.898C85.8762 78.898 85.795 78.898 85.7002 78.898C85.6731 79.2216 85.646 79.5453 85.6325 79.8825ZM98.223 101.919L98.5615 102.04L98.6968 101.326C98.6292 101.312 98.5479 101.285 98.4802 101.272C98.399 101.487 98.3178 101.703 98.223 101.919ZM82.6406 85.803C82.7353 85.776 82.8166 85.749 82.9113 85.722C82.8572 85.6411 82.803 85.5333 82.7353 85.5063C82.6676 85.4793 82.5593 85.5467 82.4646 85.5737C82.5187 85.6546 82.5864 85.7221 82.6406 85.803ZM84.8067 95.6615C84.8067 95.6615 84.8744 95.5805 84.9014 95.54C84.8202 95.4996 84.739 95.4456 84.6578 95.4187C84.6442 95.4187 84.6036 95.4996 84.563 95.54C84.6442 95.5805 84.7255 95.621 84.8067 95.6615ZM85.7408 95.54C85.822 95.5535 85.8897 95.5671 85.971 95.5805C85.971 95.4187 85.9439 95.2568 85.9303 95.095C85.8762 95.095 85.8356 95.095 85.7814 95.095C85.7679 95.2434 85.7544 95.3782 85.7273 95.5266L85.7408 95.54ZM84.211 113.301C84.211 113.301 84.2245 113.207 84.211 113.167C84.1975 113.14 84.1298 113.153 84.0892 113.14C84.0892 113.207 84.0892 113.288 84.0892 113.355C84.1298 113.328 84.1704 113.315 84.211 113.288V113.301ZM86.6479 94.0161C86.6479 94.0161 86.6479 93.9352 86.6479 93.8813C86.5937 93.9082 86.5396 93.9487 86.4854 93.9757C86.5125 94.0026 86.526 94.0431 86.5531 94.0835C86.5802 94.0566 86.6208 94.0296 86.6479 94.0161ZM98.047 77.6437L98.0199 77.7517L98.1282 77.7112L98.047 77.6302V77.6437ZM86.1199 98.0485C86.174 97.9811 86.2147 97.9406 86.2553 97.8867C86.2147 97.8867 86.174 97.8732 86.1334 97.8597C86.1334 97.9001 86.1334 97.9541 86.1199 98.035V98.0485ZM86.4719 107.017V107.152L86.5666 107.071L86.4719 107.017ZM96.6255 104.266H96.5443L96.5984 104.36L96.639 104.266H96.6255ZM84.8067 65.1689L84.7796 65.2768L84.8744 65.2498L84.7931 65.1689H84.8067ZM86.499 108.581L86.5666 108.473H86.4583L86.499 108.581ZM80.2849 69.0665L80.3255 69.1609L80.3797 69.0665H80.2849Z" fill="#FFE57C"/>
<path d="M184.772 46.3956C184.339 46.7193 183.906 47.0564 183.473 47.3801L183.5 47.3531C183.378 47.4745 183.256 47.5959 183.148 47.7038C182.498 48.014 181.862 48.3376 181.212 48.6478L181.225 48.6748C181.104 48.7961 180.995 48.904 180.873 49.0254L180.846 49.0119C179.912 49.1872 179.411 49.902 178.924 50.6168L178.938 50.6303C178.748 50.5763 178.464 50.4145 178.369 50.482C177.651 51.0349 176.988 51.6418 176.298 52.2352L176.311 52.2217C175.621 52.2217 175.418 52.6532 175.391 53.2466H175.296L175.377 53.2197C176.013 53.368 175.919 53.7591 175.702 54.1907C175.634 54.2446 175.58 54.312 175.512 54.366C175.567 54.2985 175.621 54.2311 175.675 54.1772C176.108 54.7301 176.122 55.2966 175.553 55.7416C172.358 58.2096 169.664 61.3114 165.941 63.0782C164.33 63.8469 162.705 64.3863 160.647 63.8064C161.46 62.8758 162.177 62.0532 162.908 61.2305C162.841 61.1361 162.773 61.0417 162.692 60.9608C162.259 61.2035 161.812 61.4328 161.392 61.6891C160.878 61.9993 160.404 62.1071 159.916 61.6351C159.226 60.9743 158.59 61.0957 157.94 61.7295C157.412 62.242 156.789 62.242 156.139 61.9049C155.814 61.7295 155.449 61.4868 155.124 61.5137C154.176 61.5947 154.257 60.6911 153.743 60.2191C153.188 60.3 152.565 60.3809 151.645 60.5023C151.983 60.1112 152.105 59.8684 152.294 59.774C153.215 59.3424 153.662 58.5332 154.271 57.778C156.735 54.7436 157.06 50.954 158.184 47.4745C159.497 43.4286 160.539 39.3018 161.69 35.202C161.717 35.0941 161.744 34.9997 161.771 34.8918C162.286 33.0846 162.231 32.8823 160.363 32.5182C157.737 32.0057 155.3 31.0347 152.836 30.0502C151.387 29.4703 149.817 29.2141 148.328 28.7151C145.607 27.798 145.255 27.0832 145.931 24.2376C145.972 24.0758 146.026 23.9274 146.067 23.7791L146.094 23.7521C146.635 23.388 147.123 22.9295 147.705 22.7002C150.115 21.7696 152.511 20.7717 154.989 20.0838C158.806 19.0049 162.692 18.1283 166.564 17.2382C167.593 17.009 168.148 16.483 168.5 15.5524C168.743 14.9051 169.149 14.3252 169.474 13.7183L169.488 13.7318C169.65 12.9631 169.704 12.1404 169.989 11.4256C170.936 9.0925 171.952 6.78636 172.967 4.4802C173.712 2.82139 174.93 1.54019 176.379 0.474771C177.029 0.00275064 177.841 -0.172546 178.518 0.20507C180.021 1.05471 181.591 1.71552 183.243 2.17406C185.246 2.74048 186.668 4.12957 188.008 5.62654C187.954 5.68049 187.9 5.72093 187.873 5.73442C187.886 5.70744 187.94 5.65353 187.981 5.59959C189.172 6.5706 190.147 7.68994 190.54 9.24086C190.662 9.69939 190.946 10.1175 191.149 10.5625C191.988 12.4102 193.139 13.3272 195.427 12.9496C197.471 12.6124 199.637 12.8147 201.736 12.99C203.97 13.1654 206.027 13.8936 207.842 15.3636C208.694 16.0514 209.805 16.483 210.861 16.8876C212.025 17.3461 213.121 17.8721 214.042 18.7487C214.732 19.4095 215.572 19.9085 216.343 20.475C217.075 21.0144 217.372 21.7966 216.939 22.6058C216.005 24.3725 214.895 26.0178 213.257 27.2586C211.064 28.9174 208.857 30.5762 206.664 32.2215C205.838 32.8419 205.026 33.4487 204.2 34.0556C203.983 34.2175 203.739 34.3523 203.55 34.5412C202.359 35.7145 201.952 36.4427 203.469 38.0071C204.904 37.1575 206.352 36.2809 207.814 35.4043L207.801 35.3908C206.88 36.1191 205.987 36.9012 205.012 37.5621C203.739 38.4117 203.591 38.6949 204.24 40.057C204.795 41.2304 205.459 42.3497 205.973 43.523C206.474 44.6963 206.853 45.9101 207.259 47.016C206.054 48.2163 204.674 47.2318 203.482 47.8117C203.658 48.1218 203.807 48.3646 204.051 48.7692C203.184 48.4725 202.48 48.2432 201.776 47.9735C199.881 47.2452 197.999 46.49 196.104 45.7618C195.955 45.7078 195.793 45.6673 195.63 45.6538C194.087 45.5325 192.53 45.3706 190.987 45.3167C190.553 45.3032 190.107 45.6269 189.66 45.7887L189.673 45.8157C189.633 45.5729 189.592 45.3302 189.511 44.7907C188.577 45.4111 187.819 45.9101 187.047 46.4091L187.074 46.4361C186.952 46.1124 186.83 45.7887 186.708 45.4651L186.722 45.4516C186.289 45.7752 185.856 46.0989 185.422 46.4226C185.192 46.4361 184.962 46.4361 184.732 46.4361L184.772 46.3956ZM172.453 28.6072L172.439 28.5937H172.453V28.6072ZM166.929 35.1076L166.916 35.0941H166.929V35.1076ZM176.027 47.7442C175.919 47.8521 175.81 47.96 175.702 48.0679C175.661 48.0679 175.621 48.0679 175.58 48.0949C175.553 48.1083 175.553 48.1488 175.539 48.1893C175.594 48.1488 175.634 48.1084 175.688 48.0679C175.797 47.96 175.905 47.8521 176.013 47.7442L176.027 47.7577V47.7442ZM174.402 49.0389C174.294 49.1468 174.186 49.2547 174.077 49.3626C173.482 49.6862 172.832 49.929 172.29 50.3336C171.221 51.1428 170.232 52.0329 169.204 52.8825C168.879 53.1657 168.445 53.395 168.825 53.9884C168.946 53.6107 169.068 53.2331 169.19 52.8555C169.65 52.7746 170.205 52.8151 170.571 52.5858C171.925 51.7227 173.319 50.8596 174.077 49.3356C174.186 49.2277 174.294 49.1198 174.402 48.9985L174.416 49.0119L174.402 49.0389ZM157.493 52.923H157.507C157.507 53.0309 157.507 53.1522 157.52 53.2736C157.371 53.5433 157.209 53.813 157.06 54.0693C157.141 54.0963 157.222 54.1233 157.304 54.1502C157.371 53.8535 157.439 53.5568 157.507 53.2601C157.507 53.1522 157.507 53.0444 157.493 52.923ZM173.752 53.5703C173.752 53.6782 173.739 53.7996 173.725 53.9074C173.631 54.1232 173.522 54.3255 173.427 54.5413L173.414 54.5278C173.509 54.3256 173.617 54.1367 173.712 53.9344C173.712 53.8131 173.712 53.6917 173.725 53.5568L173.752 53.5838V53.5703ZM202.034 41.2034V41.2978V41.2168L201.993 41.1494L202.047 41.2034H202.034ZM170.476 38.0071L170.53 37.9397L170.503 38.0341H170.49L170.476 38.0071ZM171.14 57.7645L171.072 57.7915L171.126 57.751H171.14V57.7645ZM176.69 12.8282C176.582 13.1384 176.46 13.4486 176.352 13.7588H176.338C176.447 13.4351 176.568 13.1249 176.677 12.8147L176.704 12.7338V12.8282H176.69ZM173.414 26.7056H173.427C173.522 26.7596 173.631 26.8405 173.725 26.9214C173.752 26.881 173.766 26.854 173.793 26.8135C173.671 26.773 173.536 26.7461 173.414 26.7191V26.7056ZM171.18 56.1597C171.261 56.0383 171.329 55.9169 171.234 56.0788C171.288 55.89 171.248 56.0248 171.207 56.1732H171.112H171.194L171.18 56.1597ZM165.968 37.0091C165.778 37.0766 165.589 37.1575 165.386 37.2249C165.426 37.3058 165.481 37.3868 165.521 37.4542C165.67 37.2924 165.819 37.144 165.968 36.9822C166.022 37.1845 166.063 37.3733 166.157 37.7104C166.496 37.171 166.645 36.8608 165.968 37.0091ZM170.801 44.1569C171.288 43.8872 171.613 43.5365 171.207 42.8892C171.085 43.3207 170.95 43.7523 170.828 44.1838C170.747 44.2378 170.679 44.2917 170.598 44.3457C170.652 44.3726 170.72 44.4131 170.774 44.4401C170.774 44.3457 170.774 44.2513 170.788 44.1569H170.801ZM164.668 42.9161C163.951 43.5635 163.856 44.4266 163.734 45.2897C163.842 45.3167 163.951 45.3572 164.059 45.3841C164.249 44.5615 164.452 43.7253 164.641 42.9026C164.655 42.8217 164.668 42.7408 164.682 42.6599C164.682 42.7408 164.668 42.8352 164.655 42.9161H164.668ZM168.892 43.5635C168.161 44.2243 168.175 45.0874 168.134 45.9236C168.242 45.9506 168.337 45.964 168.445 45.991C168.594 45.1683 168.73 44.3592 168.879 43.5365L168.919 43.4691V43.5635H168.892ZM178.274 24.7366L178.261 24.7501C177.976 24.9389 177.557 25.0738 177.435 25.3435C177.205 25.8695 177.123 26.4764 176.988 27.0428C176.65 27.353 176.325 27.6632 175.986 27.9733C176.122 27.0967 176.243 26.2201 176.379 25.3435C175.499 26.4898 174.93 28.4858 175.011 29.4029C175.35 28.9039 175.675 28.4184 176 27.9463C175.932 28.8095 175.377 29.6187 175.715 30.6166C176.934 29.3085 177.245 28.3779 176.961 27.0293C177.841 26.5168 178.003 25.5997 178.274 24.7366ZM165.589 55.5123L165.602 55.4989C165.467 55.7281 165.332 55.9709 165.102 56.3755C166.956 55.4989 167.132 55.337 167.525 54.2716C166.807 54.7301 166.198 55.1212 165.589 55.5123ZM176.65 39.639L176.636 39.6525C176.785 39.612 176.947 39.5581 177.096 39.5176C177.76 39.3693 178.396 39.14 178.45 38.3443C178.504 37.4677 177.651 37.4407 177.137 37.1575C176.609 36.8743 175.959 36.6585 175.512 37.2519C174.416 38.668 173.955 40.3133 173.874 42.1204C174.646 41.7563 175.282 41.3248 175.702 40.61C176.027 40.2863 176.352 39.9491 176.677 39.6255L176.65 39.639ZM184.772 28.3375C184.664 27.8924 184.556 27.4608 184.448 27.0158H184.434C184.15 26.5842 183.825 26.1527 183.568 25.6942C183.256 25.1277 182.999 24.5343 182.688 23.9814C181.957 22.6462 180.968 22.5788 180.102 23.7926C179.98 23.9679 179.872 24.1567 179.79 24.359C179.114 26.0448 178.437 27.7441 177.787 29.4433C177.557 30.0367 177.421 30.6571 177.191 31.4528C178.166 31.8439 179.032 32.2215 179.939 32.5317C181.009 32.8958 182.092 33.1925 183.175 33.5297L183.067 33.5566L183.161 33.5027C183.419 33.5566 183.689 33.6645 183.947 33.6511C185.558 33.5567 186.424 32.1271 185.774 30.6706C185.436 29.8884 185.097 29.1062 184.759 28.324L184.786 28.351L184.772 28.3375ZM201.37 21.1088C200.815 20.92 200.341 20.6098 199.895 20.6503C198.988 20.7042 198.094 20.947 197.201 21.1358C196.483 21.2841 195.928 21.7561 196.117 22.4709C196.28 23.0778 196.821 23.5903 197.241 24.1162C197.295 24.1837 197.783 24.0623 197.796 24.0084C197.905 23.0913 198.757 23.2801 199.272 23.0104C200.044 22.6327 200.869 22.3495 201.37 21.1223V21.1088ZM161.203 59.3694C162.15 59.2346 163.166 58.6816 163.721 57.9264C163.937 57.6432 163.951 57.2116 164.167 56.5103C162.678 57.2925 161.473 57.7646 161.203 59.3694ZM163.87 39.3423C163.761 39.3018 163.639 39.2748 163.531 39.2344C162.814 40.1919 162.448 42.1744 162.827 43.7927C163.22 42.1069 163.545 40.7314 163.87 39.3423ZM163.03 26.9619C162.976 27.1237 162.922 27.299 162.868 27.4609C163.152 27.5553 163.45 27.6631 163.734 27.7576C163.788 27.5822 163.842 27.4069 163.91 27.2316C163.626 27.1507 163.328 27.0562 163.044 26.9753L163.03 26.9619ZM172.48 54.5144C172.29 54.339 172.155 54.1637 172.101 54.1772C171.938 54.2446 171.789 54.393 171.64 54.5009C171.722 54.6087 171.83 54.7976 171.898 54.7841C172.074 54.7571 172.223 54.6357 172.48 54.5009V54.5144ZM169.041 41.8912L169.393 42.053C169.474 41.8103 169.569 41.5675 169.65 41.3248C169.569 41.2843 169.488 41.2573 169.407 41.2168C169.285 41.4461 169.163 41.6754 169.041 41.9047V41.8912ZM170.341 39.0456C170.029 39.2209 169.88 39.2749 169.88 39.3153C169.894 39.4771 169.962 39.639 170.002 39.8008C170.084 39.612 170.178 39.4097 170.341 39.0321V39.0456ZM164.492 59.5312C164.425 59.6122 164.357 59.6796 164.289 59.7605C164.357 59.801 164.438 59.8549 164.519 59.8684C164.546 59.8684 164.628 59.7875 164.614 59.7605C164.587 59.6796 164.533 59.6122 164.492 59.5312ZM187.467 44.2378C187.426 44.3052 187.372 44.3727 187.331 44.4536C187.372 44.4806 187.453 44.521 187.453 44.521C187.507 44.4536 187.548 44.3861 187.588 44.3187C187.548 44.2917 187.507 44.2782 187.467 44.2513V44.2378ZM167.349 57.751C167.349 57.751 167.281 57.6702 167.241 57.6836C167.2 57.6836 167.159 57.7241 167.119 57.751C167.173 57.7915 167.227 57.832 167.281 57.8724C167.295 57.832 167.322 57.7915 167.335 57.751H167.349ZM166.144 58.5198L166.252 58.5872V58.4523L166.144 58.5063V58.5198ZM172.047 40.9201V40.7988L171.952 40.8392L172.047 40.9201ZM168.378 41.1225L168.324 41.2168H168.418L168.378 41.1225Z" fill="#FFE57C"/>
<path d="M82.4243 116.982C82.1671 117.36 81.9099 117.751 81.5037 118.371C81.3006 117.36 81.7474 116.861 82.1129 116.335L82.0994 116.308C82.2212 116.537 82.3295 116.766 82.4514 116.982H82.4379H82.4243Z" fill="#FFE57C"/>
<path d="M116.242 77.8183C116.621 77.0361 116.987 76.2539 117.366 75.4717L117.704 75.6605C117.217 76.3752 116.716 77.0765 116.229 77.7913L116.242 77.8048V77.8183Z" fill="#FFE57C"/>
<path d="M118.842 67.7848L119.505 67.5016V67.4746C119.18 68.1085 118.855 68.7289 118.53 69.3627L118.544 69.3762C118.056 68.8502 118.138 68.3242 118.503 67.7713C118.625 67.7578 118.747 67.7579 118.869 67.7579L118.842 67.7848Z" fill="#FFE57C"/>
<path d="M186.113 156.78C186.506 156.227 186.898 155.688 187.291 155.135C187.345 156.011 186.83 156.456 186.099 156.753L186.126 156.78H186.113Z" fill="#FFE57C"/>
<path d="M84.116 105.695C83.8723 105.101 83.6963 104.508 84.3597 103.941C84.2785 104.521 84.1837 105.101 84.1025 105.681L84.1295 105.695H84.116Z" fill="#FFE57C"/>
<path d="M183.5 49.3214C183.892 49.1056 184.285 48.9033 184.799 48.6201C184.601 49.2225 184.163 49.4608 183.486 49.3349H183.5V49.3214Z" fill="#FFE57C"/>
<path d="M180.969 51.6549C180.779 51.7898 180.589 51.9246 180.413 52.073C180.332 51.9786 180.237 51.8842 180.156 51.7898C180.346 51.6414 180.535 51.4931 180.725 51.3447C180.806 51.4526 180.887 51.5605 180.969 51.6684V51.6549Z" fill="#FFE57C"/>
<path d="M169.827 119.194L168.987 120.449C168.893 120.368 168.811 120.287 168.717 120.219C169.096 119.882 169.475 119.558 169.854 119.221C169.854 119.221 169.827 119.194 169.84 119.194H169.827Z" fill="#FFE57C"/>
<path d="M84.3872 98.1824C84.5767 98.5196 84.7527 98.8702 84.9423 99.2074C84.1841 99.0725 84.4955 98.5466 84.4143 98.1689L84.3872 98.1824Z" fill="#FFE57C"/>
<path d="M216.343 102.741C216.655 102.215 216.98 101.689 217.291 101.163L217.278 101.149C216.953 101.675 216.641 102.201 216.316 102.727L216.343 102.754V102.741Z" fill="#FFE57C"/>
<path d="M184.123 156.781C184.786 156.781 185.449 156.781 186.126 156.781L186.099 156.754C185.544 157.469 184.827 157.212 184.136 157.091V157.118C184.15 156.997 184.15 156.889 184.15 156.767L184.123 156.794V156.781Z" fill="#FFE57C"/>
<path d="M185.45 47.7037C186.005 47.2721 186.547 46.854 187.102 46.4225L187.075 46.3955C186.533 46.8271 185.978 47.2586 185.437 47.6902L185.45 47.7037Z" fill="#FFE57C"/>
<path d="M128.59 56.1197C128.915 55.5937 129.253 55.0812 129.578 54.5553L129.564 54.5283C129.24 55.0543 128.901 55.5802 128.576 56.0927L128.59 56.1062V56.1197Z" fill="#FFE57C"/>
<path d="M212.742 28.6067C212.918 28.5123 213.094 28.4178 213.27 28.3369L213.325 28.5392C213.121 28.5527 212.918 28.5797 212.715 28.5932H212.729L212.742 28.6067Z" fill="#FFE57C"/>
<path d="M83.1825 105.804H83.0605C83.0605 105.804 83.0605 105.709 83.0741 105.668C83.0741 105.655 83.1554 105.668 83.1961 105.668C83.1961 105.709 83.1961 105.763 83.1961 105.804H83.1825Z" fill="#FFE57C"/>
<path d="M218.929 139.303C218.496 138.979 218.049 138.642 217.616 138.318V138.345C218.049 138.669 218.482 138.993 218.916 139.316H218.943L218.929 139.303Z" fill="#FFE57C"/>
<path d="M216.317 102.715C216.141 102.958 215.951 103.187 215.775 103.43C215.735 103.389 215.694 103.362 215.653 103.322C215.883 103.133 216.114 102.931 216.344 102.742L216.317 102.715Z" fill="#FFE57C"/>
<path d="M165.142 67.7312L165.061 67.8125L165.033 67.7041L165.142 67.7312Z" fill="#FFE57C"/>
<path d="M162.327 130.712L162.422 130.807L162.3 130.834L162.327 130.712Z" fill="#FFE57C"/>
<path d="M105.493 96.2273C105.317 96.1329 105.128 96.0385 104.952 95.9576C104.979 95.9036 104.993 95.8362 105.02 95.7822C105.182 95.8362 105.331 95.9036 105.493 95.9576L105.48 95.9441C105.48 96.0519 105.48 96.1464 105.48 96.2543L105.493 96.2408V96.2273Z" fill="#FFE57C"/>
<path d="M83.7373 119.357C83.7373 119.357 83.6425 119.357 83.6154 119.344C83.5883 119.317 83.5883 119.262 83.5747 119.222C83.6425 119.222 83.7102 119.222 83.778 119.235C83.778 119.276 83.7509 119.317 83.7509 119.357H83.7373Z" fill="#FFE57C"/>
<path d="M181.876 50.6173C181.984 50.536 182.093 50.4547 181.971 50.5496C182.106 50.4954 181.971 50.5496 181.849 50.6038L181.862 50.6173H181.876Z" fill="#FFE57C"/>
<path d="M189.687 45.7754C189.579 45.8296 189.47 45.8703 189.619 45.8025C189.457 45.8296 189.592 45.8025 189.714 45.8025L189.701 45.7754H189.687Z" fill="#FFE57C"/>
<path d="M184.122 47.3795C183.798 47.4874 183.473 47.5953 183.148 47.7032C183.27 47.5818 183.391 47.4604 183.5 47.3525L183.473 47.3795C183.689 47.3795 183.919 47.3795 184.136 47.3795H184.122Z" fill="#FFE57C"/>
<path d="M93.9314 121.595L93.9585 121.717L93.8501 121.676L93.9314 121.595Z" fill="#FFE57C"/>
<path d="M219.227 98.1824C219.011 98.3982 218.781 98.6275 218.564 98.8433H218.591C218.591 98.614 218.591 98.3847 218.591 98.1689L218.564 98.1959C218.794 98.1959 219.024 98.1959 219.241 98.1959V98.1689L219.227 98.1824Z" fill="#FFE57C"/>
<path d="M82.1128 116.335C82.2211 116.335 82.3294 116.321 82.4377 116.308C82.3158 116.308 82.2075 116.308 82.0857 116.308V116.335H82.1128Z" fill="#FFE57C"/>
<path d="M86.3237 100.745C86.2831 100.826 86.256 100.894 86.2424 100.921C86.256 100.894 86.2966 100.826 86.3509 100.759L86.3373 100.745H86.3237Z" fill="#FFE57C"/>
<path d="M184.123 157.091C184.069 157.172 184.014 157.266 183.974 157.347C183.92 157.266 183.866 157.172 183.811 157.091L183.798 157.118C183.92 157.118 184.028 157.118 184.15 157.118L184.136 157.091H184.123Z" fill="#FFE57C"/>
<path d="M93.4712 120.489C93.4712 120.179 93.4983 119.869 93.5118 119.559H93.4983C93.4983 119.869 93.4712 120.165 93.4712 120.476V120.503V120.489Z" fill="#FFE57C"/>
<path d="M121.116 67.1241V66.8945C121.116 66.8945 121.157 66.962 121.144 66.989C121.144 67.0295 121.116 67.0565 121.089 67.097L121.103 67.1105L121.116 67.1241Z" fill="#FFE57C"/>
<path d="M124.352 57.3866L124.392 57.4679L124.379 57.373L124.352 57.3866Z" fill="#FFE57C"/>
<path d="M119.505 67.5021L119.519 67.4072L119.491 67.475L119.505 67.5021Z" fill="#FFE57C"/>
<path d="M129.564 54.555C129.659 54.3257 129.754 54.11 129.862 53.8807L129.849 53.8672C129.754 54.0965 129.659 54.3122 129.564 54.5415L129.578 54.5685L129.564 54.555Z" fill="#FFE57C"/>
<path d="M217.575 100.408C217.481 100.651 217.372 100.894 217.278 101.136L217.291 101.15C217.386 100.907 217.494 100.664 217.589 100.422L217.575 100.395V100.408Z" fill="#FFE57C"/>
<path d="M119.139 72.6263L119.221 72.5586L119.153 72.6128L119.139 72.6263Z" fill="#FFE57C"/>
<path d="M104.518 100.139L104.491 100.206L104.545 100.152L104.518 100.139Z" fill="#FFE57C"/>
<path d="M130.227 53.5169C130.322 53.3146 130.43 53.1123 130.525 52.91V52.8965C130.417 53.0988 130.309 53.3011 130.214 53.5034L130.227 53.5169Z" fill="#FFE57C"/>
<path d="M177.056 52.6L177.11 52.5322L177.029 52.6135L177.056 52.6Z" fill="#FFE57C"/>
<path d="M82.4375 116.308C82.4375 116.537 82.4375 116.753 82.4375 116.982H82.451C82.451 116.753 82.451 116.523 82.451 116.308H82.4375Z" fill="#FFE57C"/>
<path d="M105.845 96.6053L105.913 96.6325L105.859 96.5918L105.845 96.6053Z" fill="#FFE57C"/>
<path d="M208.18 118.25C208.085 118.021 207.976 117.805 207.882 117.576L207.868 117.59C207.976 117.805 208.071 118.035 208.18 118.25Z" fill="#FFE57C"/>
<path d="M93.4576 120.476L93.4441 120.57L93.4712 120.489L93.4576 120.476Z" fill="#FFE57C"/>
<path d="M185.45 46.3955C185.219 46.3955 185.003 46.3955 184.773 46.3955V46.409C185.003 46.409 185.233 46.409 185.463 46.409L185.45 46.3955Z" fill="#FFE57C"/>
<path d="M105.846 95.5801C105.724 95.7015 105.602 95.8228 105.48 95.9442L105.494 95.9577C105.615 95.8363 105.737 95.7149 105.859 95.5935L105.846 95.5801Z" fill="#FFE57C"/>
<path d="M105.48 96.241C105.602 96.3624 105.724 96.4838 105.846 96.6052L105.859 96.5917C105.737 96.4703 105.615 96.3489 105.494 96.2275L105.48 96.241Z" fill="#FFE57C"/>
<path d="M119.153 72.6123L119.139 72.6937V72.6259L119.153 72.6123Z" fill="#FFE57C"/>
<path d="M118.178 69.7274C118.3 69.606 118.408 69.4981 118.53 69.3767L118.517 69.3633C118.395 69.4847 118.287 69.5925 118.165 69.7139L118.178 69.7274Z" fill="#FFE57C"/>
<path d="M120.778 67.4608C120.886 67.3529 121.008 67.2316 121.116 67.1102L121.103 67.0967C120.981 67.2046 120.873 67.3259 120.751 67.4338L120.764 67.4473L120.778 67.4608Z" fill="#FFE57C"/>
<path d="M129.862 53.8805C129.984 53.7592 130.106 53.6378 130.228 53.5164L130.214 53.5029C130.092 53.6243 129.97 53.7457 129.849 53.867L129.862 53.8805Z" fill="#FFE57C"/>
<path d="M215.653 114.366L215.612 114.393L215.653 114.366Z" fill="#FFE57C"/>
<path d="M177.029 52.6129C176.92 52.6129 176.799 52.5858 176.69 52.5723H176.677C176.799 52.5993 176.934 52.5993 177.056 52.6129H177.029Z" fill="#FFE57C"/>
<path d="M176.69 52.5721C176.568 52.4507 176.446 52.3294 176.324 52.208L176.311 52.2215C176.433 52.3428 176.554 52.4642 176.676 52.5856L176.69 52.5721Z" fill="#FFE57C"/>
<path d="M183.486 49.3213L183.432 49.3349L183.5 49.3213H183.486Z" fill="#FFE57C"/>
<path d="M181.212 48.6483C181.091 48.7696 180.969 48.891 180.86 48.9989L180.887 49.0124C181.009 48.891 181.118 48.7831 181.239 48.6618V48.6348L181.212 48.6483Z" fill="#FFE57C"/>
<path d="M164.33 124.723C164.316 124.615 164.316 124.507 164.33 124.399C164.33 124.521 164.33 124.629 164.33 124.75L164.357 124.723H164.33Z" fill="#FFE57C"/>
<path d="M164.317 125.074C164.317 124.953 164.317 124.845 164.317 124.724L164.29 124.751C164.411 124.751 164.52 124.751 164.642 124.751V124.724C164.642 124.845 164.642 124.966 164.642 125.088L164.669 125.061C164.547 125.061 164.425 125.061 164.303 125.061H164.33L164.317 125.074Z" fill="#FFE57C"/>
<path d="M212.702 126.005C212.81 126.005 212.932 126.032 213.04 126.032L213.054 126.018C212.932 126.018 212.796 126.005 212.675 125.991H212.688L212.702 126.005Z" fill="#FFE57C"/>
<path d="M208.167 35.0809C208.058 35.1888 207.95 35.2966 207.842 35.4045L207.855 35.418C207.964 35.3101 208.072 35.2023 208.18 35.0809L208.167 35.0674V35.0809Z" fill="#FFE57C"/>
<path d="M194.547 118.277C194.006 117.521 193.45 116.753 192.909 115.997C192.922 115.566 192.936 115.134 192.95 114.703L192.936 114.716C193.044 114.703 193.153 114.689 193.261 114.676C193.694 115.876 194.127 117.076 194.561 118.277H194.547Z" fill="#FFE57C"/>
<path d="M202.995 104.656L202.643 105.007C202.765 104.886 202.887 104.764 202.995 104.656Z" fill="#FFE57C"/>
<path d="M202.02 105.304C201.898 105.425 201.777 105.546 201.668 105.654C201.79 105.533 201.912 105.412 202.02 105.304Z" fill="#FFE57C"/>
<path d="M192.57 114.38C192.692 114.501 192.8 114.609 192.922 114.73C192.922 114.73 192.936 114.717 192.949 114.717C192.828 114.595 192.706 114.488 192.597 114.366L192.584 114.38H192.57Z" fill="#FFE57C"/>
<path d="M170.802 126.693C170.802 126.572 170.802 126.464 170.802 126.343C170.924 126.343 171.032 126.343 171.154 126.343C171.032 126.464 170.924 126.572 170.802 126.693Z" fill="#FFE57C"/>
<path d="M82.1128 78.4656C82.5595 77.9666 83.0063 77.4541 83.4531 76.9551L83.7238 77.2383C83.1823 77.6429 82.6408 78.0475 82.0857 78.4521L82.0992 78.4656H82.1128Z" fill="#FFE57C"/>
<path d="M84.7123 76.4834L84.6987 76.5647V76.5105L84.7123 76.4834Z" fill="#FFE57C"/>
<path d="M104.22 58.3985C104.098 58.3985 103.976 58.3985 103.868 58.3985C103.99 58.2771 104.098 58.1692 104.22 58.0479C104.22 58.1692 104.22 58.2906 104.22 58.3985Z" fill="#FFE57C"/>
<path d="M83.3989 72.963C83.3989 72.8416 83.3989 72.7337 83.3989 72.6123C83.6291 72.6123 83.8592 72.6123 84.0894 72.6123C83.8592 72.7337 83.6291 72.8416 83.3989 72.963Z" fill="#FFE57C"/>
<path d="M175.702 40.5828L175.648 40.5557L175.689 40.5828H175.702Z" fill="#FFE57C"/>
<path d="M120.811 314.091C119.606 314.348 119.403 315.534 118.929 316.357C118.415 317.274 117.995 318.056 116.709 317.841C116.601 318.704 116.533 319.378 116.438 320.066C116.316 321.05 116.181 321.145 115.233 321.091C114.651 321.05 114.069 321.091 113.338 321.091C112.959 320.551 112.553 319.675 111.443 320.241C111.307 320.309 110.942 319.958 110.563 319.742C110.211 320.969 109.886 322.062 109.561 323.181C108.64 323.019 108.572 322.48 108.654 321.94C108.789 321.104 108.654 320.403 108.193 319.648C107.896 319.149 107.868 318.407 107.909 317.773C108.193 313.323 108.518 308.872 108.83 304.422C108.87 303.828 108.789 303.235 108.884 302.655C109.033 301.711 109.263 300.78 109.466 299.85C109.466 300.308 109.466 300.767 109.466 301.239C109.574 301.239 109.683 301.212 109.791 301.199C109.683 300.753 109.561 300.308 109.452 299.877C109.479 299.391 109.601 298.892 109.507 298.434C108.938 295.615 109.006 292.783 109.209 289.937C109.29 288.697 108.83 288.279 107.611 288.252C106.988 288.238 106.352 288.117 105.729 288.063C105.364 288.036 104.931 287.928 104.619 288.063C103.306 288.683 101.993 288.481 100.653 288.238L100.666 288.252C100.152 287.469 99.6373 286.674 99.1228 285.892C99.732 284.556 99.9622 283.006 101.316 282.115H101.289C101.411 282.102 101.533 282.102 101.654 282.102L101.627 282.129C101.627 282.008 101.627 281.886 101.627 281.765V281.792C101.627 281.67 101.627 281.562 101.627 281.441C102.02 281.279 102.467 281.185 102.805 280.942C104.484 279.688 106.163 278.407 107.801 277.099C108.261 276.734 108.992 276.478 108.884 275.48C108.139 275.75 107.476 275.993 106.812 276.249L106.84 276.276C107.124 276.02 107.381 275.736 107.692 275.521C109.073 274.577 109.831 273.403 109.263 271.677C109.195 271.475 109.209 271.245 109.236 271.03C109.723 267.82 108.979 264.597 109.358 261.374C109.452 260.578 109.29 259.769 109.249 258.959C109.128 256.397 109.764 253.929 110.17 251.434C110.387 250.059 110.441 248.656 110.684 247.294C110.82 246.525 110.969 245.621 111.456 245.082C112.201 244.273 113.162 243.558 114.177 243.127C114.759 242.884 115.748 243.073 116.316 243.437C117.846 244.421 119.511 244.974 121.244 245.392C121.61 245.473 122.002 245.662 122.341 245.595C123.844 245.325 124.967 246.013 125.942 246.984C128.176 249.168 130.504 251.286 132.088 254.05C132.264 254.361 132.576 254.603 132.968 255.008C133.713 254.563 134.457 254.158 135.161 253.686C137.72 251.974 140.184 250.112 142.824 248.548C144.841 247.348 146.953 246.269 149.498 246.296C151.028 246.309 152.572 245.797 154.115 245.595C154.616 245.527 155.171 245.621 155.672 245.756C156.66 246.013 157.621 246.336 158.596 246.633C158.962 246.741 159.354 246.781 159.679 246.957C162.211 248.346 162.644 249.735 161.114 251.528C160.911 251.771 160.776 252.081 160.559 252.324C159.422 253.673 158.285 255.021 156.944 256.599C157.08 255.871 157.161 255.413 157.256 254.954C157.229 254.738 157.215 254.536 157.202 254.32C157.202 254.185 157.202 254.037 157.202 253.902C158.163 253.174 158.664 252.176 159.097 250.841C158.027 251.839 157.824 252.189 157.215 253.929C157.215 254.05 157.215 254.185 157.215 254.307L157.283 254.968C156.944 255.062 156.606 255.143 156.267 255.237V255.264C156.051 254.711 155.821 254.779 155.591 255.264L155.618 255.237C155.387 255.359 155.171 255.467 154.941 255.588L154.968 255.561C155.184 255.682 155.401 255.79 155.618 255.912H155.591C155.523 256.599 155.211 257.125 154.602 257.476V257.503C154.629 257.247 154.643 256.99 154.67 256.545C154.304 256.707 153.993 256.748 153.898 256.91C152.802 258.703 151.231 260.227 150.73 262.371C150.636 262.601 150.527 262.844 150.432 263.073C150.216 263.396 149.999 263.707 149.769 264.03C149.661 264.206 149.566 264.381 149.458 264.57C149.498 264.583 149.552 264.61 149.593 264.624C149.647 264.421 149.688 264.219 149.742 264.017C149.959 263.693 150.189 263.383 150.405 263.059C150.5 262.83 150.608 262.587 150.717 262.358C151.109 262.102 151.488 261.846 151.881 261.589C151.962 261.643 152.044 261.697 152.125 261.751C151.434 262.978 150.784 264.233 150.04 265.446C148.212 268.454 146.141 271.34 144.882 274.658L144.895 274.644C144.895 275.399 144.895 276.168 144.882 276.923C144.774 277.152 144.679 277.395 144.57 277.624C144.34 277.503 144.097 277.382 143.866 277.247C143.812 277.314 143.758 277.382 143.704 277.463C143.988 277.813 144.286 278.177 144.57 278.528L144.598 278.609L144.557 278.542C144.557 278.231 144.557 277.921 144.557 277.611C144.665 277.382 144.76 277.139 144.868 276.91C145.356 277.193 145.843 277.476 146.385 277.786C146.087 278.542 145.816 279.202 145.545 279.863L145.518 279.836C145.816 280.012 145.965 280.645 146.493 280.16L146.506 280.173C146.493 279.931 146.466 279.701 146.452 279.459C146.561 279.418 146.669 279.364 146.777 279.324C147.089 279.836 147.454 280.308 147.711 280.848C148.158 281.792 148.74 282.587 149.715 283.046L149.701 283.032C149.783 283.275 149.769 283.666 149.945 283.761C150.879 284.3 151.231 285.217 151.475 286.148C152.125 288.656 153.397 290.774 155.103 292.702C155.956 293.66 156.606 294.793 157.31 295.871C157.486 296.155 157.513 296.532 157.635 296.923C156.822 297.166 156.403 296.721 155.956 296.357H155.929C156.43 296.263 156.741 296.033 156.403 295.507C156.01 294.873 155.563 294.253 154.968 293.39C154.805 294.294 154.711 294.847 154.616 295.399V295.372C153.817 295.372 153.018 295.372 152.22 295.332C150.933 295.278 149.647 295.184 148.564 295.116C147.765 295.615 147.129 296.074 146.452 296.451C145.139 297.166 143.812 297.84 142.486 298.542C141.809 298.906 141.24 298.65 140.658 298.339C139.426 297.679 138.194 297.004 136.935 296.397C136.217 296.047 135.446 295.818 134.809 295.561C133.821 296.06 133.794 297.503 132.494 297.314H132.508C132.386 297.058 132.264 296.802 132.007 296.249C130.572 298.137 129.882 300.214 128.582 301.886L128.568 301.805L128.609 301.873C127.878 303.046 127.066 304.165 126.429 305.393C125.563 307.079 124.818 308.845 124.06 310.491C124.019 310.369 123.938 310.099 123.816 309.654C123.004 310.248 122.747 311.07 122.314 311.758C121.88 312.433 121.515 313.147 121.109 313.835L121.136 313.808C121.014 313.93 120.906 314.037 120.784 314.159L120.797 314.132L120.811 314.091ZM107.814 283.356C107.814 283.464 107.814 283.585 107.814 283.693C107.963 283.693 108.099 283.707 108.248 283.72C108.207 283.599 108.166 283.491 108.139 283.37C108.139 283.248 108.139 283.127 108.139 283.006C108.302 282.938 108.464 282.871 108.613 282.803C108.586 282.763 108.559 282.722 108.545 282.695C108.424 282.803 108.288 282.925 108.166 283.032C108.058 283.14 107.95 283.248 107.828 283.343L107.814 283.356ZM133.171 281.738L133.144 281.765C133.036 281.765 132.941 281.765 132.833 281.765C132.201 282.421 132.106 283.028 132.549 283.585C133.212 283.032 132.968 282.372 132.819 281.738C132.941 281.738 133.063 281.738 133.171 281.738ZM146.804 281.765H146.818C146.926 281.954 147.021 282.169 147.129 282.385C147.251 282.493 147.359 282.614 147.481 282.722L147.508 282.803L147.454 282.749C147.346 282.641 147.224 282.52 147.116 282.412C147.007 282.196 146.913 281.994 146.804 281.778V281.765ZM148.104 284.03H148.117L148.158 284.084L148.104 284.03ZM147.427 284.934L147.441 284.948C147.441 285.069 147.441 285.204 147.441 285.325C147.441 285.325 147.427 285.339 147.441 285.339C147.441 285.204 147.441 285.055 147.441 284.921L147.427 284.934ZM123.41 261.684L123.37 261.643L123.424 261.67C123.424 261.67 123.492 261.738 123.519 261.778C123.478 261.751 123.451 261.724 123.41 261.684ZM132.806 274.024V273.916L132.819 273.997C132.819 274.307 132.819 274.617 132.819 274.927C132.481 274.442 132.156 273.929 131.79 273.484C131.289 272.877 130.748 272.311 130.22 271.717C130.179 271.151 129.963 270.733 129.367 270.598C128.853 271.65 128.934 271.987 129.922 272.972C130.044 274.28 130.694 275.318 131.696 276.168C131.641 275.858 131.574 275.561 131.52 275.251C131.939 275.588 132.345 275.925 132.995 276.451C132.928 275.736 132.887 275.332 132.846 274.941C132.955 274.604 133.049 274.28 133.158 273.943C133.198 273.862 133.239 273.794 133.293 273.713C133.253 273.794 133.225 273.875 133.185 273.956C133.063 273.97 132.941 273.983 132.806 273.997V274.024ZM145.518 252.621C145.45 252.675 145.369 252.715 145.301 252.769C145.369 252.715 145.437 252.661 145.505 252.607H145.518V252.621ZM119.863 295.305C119.958 295.548 120.066 295.777 120.161 296.02C120.161 296.667 120.107 297.341 121.068 297.544C121.528 296.681 121.921 295.777 121.623 294.806C121.352 293.916 120.879 293.093 120.513 292.257C120.391 293.484 120.269 294.766 120.148 296.047C120.053 295.804 119.945 295.561 119.85 295.332C119.823 295.251 119.796 295.17 119.796 295.143C119.796 295.157 119.836 295.238 119.877 295.305H119.863ZM156.579 252.985C156.484 253.093 156.389 253.201 156.498 253.079C156.416 253.228 156.498 253.093 156.552 252.972C156.755 252.931 156.944 252.891 157.147 252.864L156.728 252.513C156.674 252.675 156.633 252.837 156.579 252.999V252.985ZM130.247 256.168L130.234 256.181C130.112 255.912 129.99 255.642 129.868 255.372C129.8 255.426 129.719 255.48 129.651 255.534C129.854 255.75 130.058 255.952 130.247 256.168ZM129.936 252.284L129.909 252.311C129.773 251.866 129.651 251.407 129.002 251.434C128.961 252.189 129.408 252.297 129.922 252.284H129.936ZM125.4 248.454C124.845 247.901 124.29 247.348 123.735 246.808L123.762 246.781C123.898 247.725 124.331 248.373 125.387 248.427L125.427 248.319L125.4 248.44V248.454ZM139.995 261.67C140.834 261.117 141.619 260.524 141.809 259.027C140.347 260.227 139.142 261.212 137.72 262.371C138.248 262.52 138.478 262.574 138.708 262.641C138.429 263.585 138.668 264.197 139.426 264.475C140.089 263.639 140.36 262.722 139.995 261.67ZM127.973 272.055C127.851 271.03 127.133 271.138 126.578 271.502C125.739 272.041 124.872 272.635 124.818 273.848C124.805 274.266 124.52 274.657 124.358 275.062C124.141 274.32 124.074 273.646 123.099 273.97H123.112C122.909 273.956 122.598 273.821 122.544 273.889C121.515 275.103 121 277.517 122.693 278.757C123.234 278.542 123.803 278.326 124.371 278.097C124.277 278.663 124.006 279.027 123.708 279.364C123.41 279.728 123.099 280.079 122.788 280.43C122.476 281.239 122.232 282.048 122.76 282.884V280.416C122.815 280.564 122.909 280.726 122.909 280.875C122.855 283.006 124.168 283.788 126.023 284.071C126.402 284.125 126.768 284.219 127.133 284.314C127.946 284.503 128.622 284.408 129.083 283.599C129.205 283.37 129.448 283.208 129.624 283.019L129.597 283.046C130.166 282.088 130.667 281.09 131.303 280.2C131.845 279.459 131.885 278.663 131.547 277.962C130.883 276.586 130.044 275.291 129.286 273.97H129.299C129.272 273.08 128.582 272.594 128 272.041H127.986L127.973 272.055ZM117.223 279.499C117.088 279.89 116.005 279.85 116.749 280.645C116.898 280.794 116.777 281.32 116.628 281.589C116.438 281.927 116.086 282.183 115.761 282.534C116.533 283.167 117.142 283.006 117.792 282.641C118.076 281.522 118.009 280.511 117.237 279.499H117.223ZM122.395 294.253C122.53 294.294 122.666 294.321 122.801 294.361C123.194 293.687 123.586 293.026 123.952 292.352C124.182 291.92 124.399 291.434 123.776 291.124C123.194 290.828 122.53 291.097 122.422 291.785C122.3 292.594 122.395 293.43 122.395 294.253ZM116.073 294.523C117.129 290.976 117.142 290.342 116.167 289.789C115.585 291.259 116.032 292.716 116.073 294.523ZM119.958 280.119C120.053 280.119 120.148 280.146 120.229 280.146V279.283C120.134 279.283 120.039 279.283 119.958 279.283V280.106V280.119ZM117.981 301.792C117.819 301.981 117.711 302.062 117.67 302.17C117.643 302.237 117.724 302.345 117.765 302.439C117.873 302.385 118.063 302.358 118.09 302.277C118.13 302.183 118.049 302.035 117.981 301.792ZM119.863 290.868C119.769 290.895 119.687 290.922 119.593 290.949C119.66 291.138 119.728 291.327 119.809 291.515L120.012 291.448C119.972 291.259 119.917 291.07 119.877 290.882L119.863 290.868ZM117.277 291.111C117.359 291.111 117.44 291.111 117.521 291.111V290.221H117.237C117.25 290.531 117.264 290.828 117.277 291.124V291.111ZM114.272 294.563C114.191 294.563 114.123 294.563 114.042 294.577C114.055 294.793 114.069 295.008 114.082 295.211C114.164 295.211 114.231 295.211 114.313 295.197C114.299 294.981 114.286 294.766 114.272 294.563ZM135.04 279.378C134.836 279.27 134.715 279.148 134.579 279.135C134.498 279.135 134.349 279.337 134.363 279.432C134.363 279.54 134.512 279.647 134.606 279.755C134.701 279.674 134.809 279.58 135.053 279.378H135.04ZM117.508 297.085C117.508 297.085 117.386 296.977 117.332 296.923C117.305 296.964 117.237 297.018 117.25 297.031C117.305 297.099 117.359 297.153 117.413 297.207C117.44 297.166 117.467 297.139 117.521 297.085H117.508ZM131.926 281.387L131.953 281.293L131.858 281.32L131.926 281.387ZM112.999 272.594L113.108 272.662V272.527L112.999 272.594ZM143.988 253.632L144.083 253.592L144.002 253.538V253.646L143.988 253.632ZM109.52 303.006C109.52 303.006 109.52 303.1 109.534 303.154C109.588 303.114 109.642 303.073 109.669 303.019C109.669 303.006 109.628 302.952 109.601 302.911C109.574 302.952 109.547 302.979 109.52 303.019V303.006ZM128 250.301C127.918 250.261 127.851 250.22 127.77 250.18C127.756 250.22 127.715 250.301 127.729 250.315C127.797 250.369 127.878 250.396 127.959 250.436C127.959 250.396 127.986 250.342 128 250.301ZM119.945 282.493L120.012 282.574L120.053 282.48H119.945V282.493ZM110.265 298.259V298.016H110.143C110.143 298.097 110.143 298.178 110.143 298.259H110.278H110.265ZM131.777 284.678L131.858 284.624L131.777 284.583V284.678ZM131.899 255.237V255.143L131.831 255.17L131.899 255.237ZM114.15 252.756C114.15 252.837 114.15 252.904 114.137 252.985C114.164 252.945 114.231 252.918 114.231 252.877C114.231 252.837 114.191 252.796 114.15 252.756Z" fill="#FFE57C"/>
<path d="M61.3787 214.374C60.4311 215.669 59.4293 216.95 58.5357 218.285C56.9788 220.618 55.4355 222.951 54.0004 225.365C52.7549 227.442 51.6448 229.6 50.5347 231.758C49.9661 232.85 49.5193 234.01 49.0319 235.143L49.0184 235.129C49.1538 235.412 49.2756 235.696 49.5329 236.249C50.467 234.752 51.3199 233.443 51.9156 232C52.7143 230.072 53.6755 228.238 55.1918 226.754H55.1783C54.7044 228.912 53.5131 230.76 52.5248 232.715C52.2946 233.187 52.1186 233.686 51.9291 234.172C51.3064 235.17 50.5888 236.141 50.1015 237.206C49.8578 237.732 49.8713 238.487 50.0473 239.067C50.3316 240.038 50.8325 240.955 51.2657 241.886C52.254 244.03 53.2423 246.175 54.2577 248.305C54.5826 248.966 55.0429 249.573 55.422 250.207C56.2613 251.636 57.1955 253.039 57.8588 254.55C58.1431 255.197 57.8182 256.1 57.7776 256.883C57.6964 256.64 57.6287 256.411 57.5474 256.168C57.4798 256.208 57.3985 256.249 57.3308 256.289C57.4798 256.478 57.6422 256.667 57.7911 256.856C57.737 256.856 57.6828 256.896 57.6422 256.883C57.033 256.64 56.4373 256.303 55.801 256.181C55.1918 256.06 54.5284 256.181 53.8921 256.181H53.9057C53.6891 255.777 53.4589 255.345 53.2423 254.914L53.2558 254.9C52.7414 256.073 52.2676 256.343 51.198 255.831C49.6276 255.075 48.0301 254.603 46.2702 254.576C45.7422 254.576 45.2142 254.118 44.7133 253.821C44.077 253.444 43.4678 253.012 42.8585 252.607L42.8721 252.621C41.789 251.434 41.7755 251.434 40.6383 252.338C40.3946 252.527 40.1644 252.742 39.9343 252.958C39.8937 252.877 39.8531 252.796 39.826 252.715C39.7448 252.796 39.6635 252.877 39.5823 252.958C39.3657 253.619 39.1355 254.28 38.9189 254.941L38.8919 254.833L38.9325 254.927C38.1473 255.696 37.7276 256.626 37.3079 257.638C36.5768 259.459 35.4938 261.144 34.6544 262.938C33.8421 264.678 33.1246 266.471 32.4477 268.265C32.2446 268.805 32.3529 269.479 32.3123 270.409C32.8268 269.681 33.111 269.277 33.4495 268.805C35.2501 270.248 34.8304 271.893 34.3024 273.808C33.9233 273.336 33.6797 273.039 33.436 272.729C33.964 271.825 33.8421 270.962 33.3006 269.749C33.0163 271.016 33.1923 271.879 33.463 272.743C33.0704 272.891 32.6643 273.039 32.204 273.215C32.0415 273.012 31.8655 272.769 31.676 272.527C31.5948 272.581 31.4729 272.621 31.4323 272.702C31.3105 272.931 31.2834 273.336 31.1209 273.403C29.6994 273.983 29.6317 275.224 29.5099 276.465C29.3881 277.692 29.3881 277.665 28.0749 277.84C27.6687 277.894 27.2761 278.124 26.8835 278.272C25.814 278.703 25.1777 278.596 24.4737 277.665C23.7968 276.775 22.971 276.168 21.9285 275.777C20.8049 275.345 20.1415 274.037 20.3716 272.864C20.489 272.288 20.2949 271.825 19.7895 271.475C20.1009 268.912 20.3852 266.417 20.7101 263.922C20.7642 263.504 20.9809 263.113 21.1298 262.709H21.1027C21.1298 262.844 21.1568 262.992 21.1975 263.302C22.0774 261.697 22.8897 260.214 23.702 258.73C23.7291 259.081 23.7697 259.432 23.7968 259.782C23.8645 259.769 23.9322 259.755 23.9999 259.742C23.8916 259.418 23.7968 259.081 23.6885 258.757C23.6885 258.461 23.6885 258.15 23.6885 257.854C23.7426 257.719 23.8103 257.584 23.7426 257.732C23.7833 257.584 23.7426 257.732 23.702 257.881L23.3365 257.786H23.35C22.5107 256.856 22.7137 255.264 21.1298 254.415C21.2787 254.873 21.3464 255.049 21.4005 255.224L21.4276 255.21C20.4122 256.033 21.2787 256.883 21.3464 257.395C20.9267 258.595 20.6018 259.499 20.1956 260.672C20.155 260.092 20.1144 259.755 20.1009 259.418C19.9384 255.844 20.6965 252.351 20.9944 248.818C21.0892 247.752 21.1433 246.674 21.1298 245.595C21.1298 244.57 20.859 244.273 19.7624 244.179C18.2055 244.044 16.6351 244.03 15.0782 243.936C13.9816 243.868 12.8038 244.057 11.7614 243.073C12.1675 242.87 12.4653 242.709 12.8986 242.479C12.6007 242.277 12.3841 242.007 12.1404 241.967C9.62232 241.657 7.10423 241.427 4.69443 240.578C3.476 240.146 2.25756 239.701 1.13389 239.094C-0.260539 238.353 -0.368844 237.341 0.808977 236.276C3.17816 234.145 5.56087 232.041 8.02482 230.018C12.3977 226.417 16.7976 222.857 21.2381 219.35C22.5513 218.312 23.0793 217.058 23.0928 215.439C23.0928 214.158 23.2282 212.863 23.3094 211.393C23.6885 211.623 23.9186 211.771 24.1488 211.906C24.7715 210.84 24.6903 206.66 23.9863 203.774L23.9999 203.787C23.2282 202.789 23.2553 202.654 24.3112 202.412C24.5414 202.358 24.758 202.236 24.9881 202.155H24.9746C25.5432 202.304 25.6651 201.832 25.9358 201.508C26.9241 200.308 27.5469 200.362 28.3862 201.683C29.4557 203.369 30.972 204.3 32.9757 204.502C33.3954 204.542 33.8421 204.906 34.1535 205.244C34.5055 205.635 34.7086 206.161 35.0064 206.606C35.5885 207.442 36.1978 207.577 37.0913 207.105C37.4297 206.929 37.7411 206.714 38.0389 206.484C40.4758 204.704 42.9804 202.991 45.336 201.117C47.8541 199.121 50.7242 197.732 53.4589 196.1C54.4743 195.493 55.5303 194.94 56.5456 194.333C57.7911 193.578 59.0773 193.578 60.5123 193.983C60.3769 194.239 60.2822 194.401 60.1874 194.576C60.2551 194.643 60.3363 194.765 60.404 194.765C61.2975 194.846 62.0557 195.142 62.7461 195.749C63.4366 196.343 64.2353 196.828 65.007 197.3C65.8193 197.786 66.4826 198.379 66.8753 199.242L66.8617 199.229C67.1731 199.431 67.4574 199.674 67.7958 199.822C68.8924 200.308 69.109 200.753 68.906 201.939C68.378 205.028 66.9294 207.671 65.1288 210.166C64.8175 210.598 64.5467 211.07 64.1947 211.474C63.7073 212.014 63.1387 212.486 62.6243 213.012C62.1775 213.47 61.7714 213.956 61.3517 214.428L61.3652 214.414L61.3787 214.374ZM39.2709 214.104L39.2574 214.091H39.2709V214.104ZM20.0603 229.951L20.0467 229.924L20.4393 229.951C20.6559 230.288 20.9132 230.544 21.2787 230.153C21.3328 230.099 21.1433 229.816 21.0621 229.64C21.1568 229.479 21.2381 229.33 21.3328 229.168C21.2787 229.128 21.2245 229.074 21.1568 229.033C20.9132 229.236 20.683 229.425 20.4393 229.627C20.3175 229.735 20.1956 229.829 20.0738 229.937L20.0603 229.951ZM23.9863 254.873L23.9999 254.887H23.9863V254.873ZM10.3534 231.906L10.3398 231.893H10.3534V231.906ZM9.37864 232.567C9.27033 232.675 9.16203 232.783 9.04018 232.904C8.93188 233.012 8.82357 233.12 8.71527 233.241C7.53745 233.713 6.54916 234.441 5.80456 235.48L5.76395 235.615C5.76395 235.615 5.79102 235.52 5.80456 235.48C7.03653 235.062 7.93006 234.226 8.71527 233.228C8.82357 233.12 8.93188 233.012 9.04018 232.891C9.14849 232.783 9.2568 232.675 9.37864 232.553L9.39218 232.567H9.37864ZM33.7473 262.345L33.6932 262.399L33.7203 262.318H33.7338L33.7473 262.345ZM37.6463 241.333L37.5922 241.387L37.6193 241.306H37.6328L37.6463 241.333ZM16.2019 231.313C16.2019 231.313 16.1748 231.38 16.1613 231.407C16.1613 231.367 16.1748 231.326 16.1883 231.299C16.2966 231.191 16.4185 231.07 16.5268 230.962C18.1649 230.463 19.3157 229.29 20.5341 228.17C20.9402 227.82 21.3599 227.469 21.7661 227.118C21.7931 227.091 21.8338 227.051 21.8608 227.024C21.8338 226.997 21.7931 226.957 21.7931 226.957C21.7525 226.97 21.7255 227.011 21.6984 227.038C21.2516 227.348 20.8049 227.644 20.3446 227.955C19.0855 228.953 17.8129 229.964 16.5539 230.962C16.4456 231.07 16.3237 231.191 16.2154 231.299L16.2019 231.313ZM16.5403 226.781L16.4726 226.876L16.5133 226.768H16.5268L16.5403 226.781ZM47.0689 226.781C47.1772 226.552 47.272 226.336 47.3803 226.107C47.4209 226.026 47.4615 225.959 47.5021 225.878C47.4615 225.959 47.4344 226.039 47.3938 226.12C47.2855 226.35 47.1908 226.565 47.0824 226.795L47.0689 226.781ZM41.234 215.466C41.234 215.358 41.2204 215.25 41.2069 215.143C42.317 214.145 43.373 213.093 44.5237 212.135C45.9317 210.975 47.2584 209.546 48.8966 208.871C50.5618 208.184 51.1845 206.97 51.8343 205.527C49.9255 206.646 48.0843 207.86 46.4055 209.316H46.4191C43.8197 210.382 42.0869 212.567 39.9749 214.252C39.7989 214.387 39.7312 214.846 39.8124 215.089C39.9884 215.588 40.4352 215.601 40.882 215.453C41.0038 215.453 41.1121 215.453 41.234 215.453V215.466ZM22.0098 267.2L22.5513 266.822L22.3482 266.647C22.2399 266.836 22.1316 267.038 22.0233 267.227C21.9691 267.388 21.9014 267.55 21.8473 267.726C21.9014 267.726 21.9556 267.739 22.0098 267.753C22.0098 267.577 22.0098 267.388 22.0098 267.213V267.2ZM42.5336 208.035C42.0733 208.13 41.6266 208.265 41.4506 208.952C42.1275 208.844 42.3847 208.494 42.5201 208.022H42.5336V208.035ZM48.0301 224.866C48.3821 224.489 48.8424 224.151 49.0861 223.706C50.0744 221.953 50.9814 220.159 51.9291 218.393C52.4029 217.975 52.9851 217.611 53.3371 217.112C54.8127 215.008 56.2342 212.863 57.6422 210.706C58.1837 209.883 58.6711 209.006 59.172 208.157C58.644 208.224 58.265 208.44 58.0484 208.764C56.0718 211.717 54.1223 214.671 52.1728 217.651C52.0374 217.867 52.0239 218.15 51.9426 218.406C51.5094 218.838 51.0762 219.269 50.6294 219.714L50.643 219.701C50.3181 220.294 49.9796 220.888 49.6682 221.495C49.1132 222.614 48.5716 223.76 48.0301 224.893L48.003 224.866H48.0301ZM49.0319 221.333C48.8966 221.414 48.707 221.468 48.6258 221.576C47.448 223.41 46.2702 225.257 45.1194 227.118C45.0653 227.199 45.2006 227.375 45.2954 227.671C45.6203 227.334 45.9182 227.105 46.0942 226.808C46.8388 225.581 47.5834 224.34 48.2738 223.073C48.5852 222.52 48.7747 221.899 49.0184 221.306C49.0726 221.292 49.1267 221.279 49.1673 221.252C49.1944 221.238 49.1673 221.171 49.1673 221.131C49.1267 221.198 49.0726 221.252 49.0319 221.319V221.333ZM44.4696 217.112C45.0788 216.491 45.688 215.857 46.4732 215.062C44.2665 215.25 41.7755 216.882 41.1933 218.366C42.1004 218.15 42.9804 217.948 43.8468 217.745C43.3865 218.258 42.9398 218.797 42.4795 219.296C41.7078 220.132 41.6807 220.51 42.3712 221.764C42.6419 221.656 43.0887 221.616 43.1835 221.414C43.7791 220.159 44.2936 218.878 44.808 217.584C44.8486 217.476 44.5914 217.26 44.4831 217.085L44.4696 217.112ZM54.5149 220.294C54.8669 219.971 55.3001 219.687 55.5438 219.296C57.737 215.749 59.9166 212.203 62.0692 208.629C62.2317 208.372 62.2587 208.022 62.34 207.725L62.3941 207.631L62.367 207.739C62.0692 208.035 61.6901 208.292 61.4871 208.642C59.1585 212.513 56.857 216.41 54.542 220.294L54.5149 220.375L54.5284 220.267L54.5149 220.294ZM28.8736 233.282C28.6705 234.657 28.4675 236.033 28.2779 237.408C28.1696 238.245 28.7382 238.717 29.2933 239.377C29.9973 237.503 29.8754 235.709 29.8348 233.983C29.7942 232.216 30.7283 230.503 30.1056 228.359C29.7942 229.357 29.6724 230.045 29.3745 230.652C28.9548 231.501 28.8059 232.378 28.8601 233.295H28.8736V233.282ZM17.8265 237.152C18.4086 237.274 19.0043 237.044 19.5593 237.651C19.979 238.11 21.1704 237.651 21.4411 236.936C21.7931 236.006 21.9421 234.981 22.1451 233.996C22.1722 233.889 21.8879 233.727 21.739 233.578V233.592C21.7931 233.255 22.0098 232.823 21.8608 232.621C21.7119 232.405 21.1433 232.243 20.9132 232.351C18.9095 233.349 16.8382 234.266 15.173 235.817C14.9834 235.992 14.9834 236.357 14.8751 236.707C16.0394 237.017 17.0006 236.896 17.8941 236.289C18.2868 236.019 18.72 235.804 19.1397 235.561H19.1261C18.7064 236.087 18.2868 236.626 17.8671 237.166H17.8535L17.8265 237.152ZM28.0884 245.392C28.0072 246.336 27.9395 247.173 27.8582 248.009C28.3456 247.429 28.657 246.835 28.9278 246.242C29.1714 245.689 28.8871 245.473 28.0884 245.392ZM25.3808 212.364C25.3808 212.364 25.4755 212.364 25.5297 212.364V210.018C25.5297 210.018 25.4349 210.018 25.3808 210.018V212.364ZM15.4708 243.046C15.5927 242.87 15.6874 242.736 15.7957 242.587C15.6739 242.52 15.525 242.358 15.4302 242.385C15.2813 242.439 15.173 242.601 15.0376 242.722C15.1459 242.803 15.2677 242.884 15.4708 243.032V243.046ZM22.6325 236.882C22.7408 236.882 22.8627 236.896 22.971 236.909V235.898C22.8762 235.898 22.795 235.898 22.7002 235.898C22.6731 236.222 22.646 236.545 22.6325 236.882ZM35.223 258.919L35.5615 259.04L35.6968 258.326C35.6292 258.312 35.5479 258.285 35.4802 258.272C35.399 258.487 35.3178 258.703 35.223 258.919ZM19.6406 242.803C19.7353 242.776 19.8166 242.749 19.9113 242.722C19.8572 242.641 19.803 242.533 19.7353 242.506C19.6676 242.479 19.5593 242.547 19.4646 242.574C19.5187 242.655 19.5864 242.722 19.6406 242.803ZM21.8067 252.661C21.8067 252.661 21.8744 252.58 21.9014 252.54C21.8202 252.5 21.739 252.446 21.6578 252.419C21.6442 252.419 21.6036 252.5 21.563 252.54C21.6442 252.58 21.7255 252.621 21.8067 252.661ZM22.7408 252.54C22.822 252.554 22.8897 252.567 22.971 252.581C22.971 252.419 22.9439 252.257 22.9303 252.095C22.8762 252.095 22.8356 252.095 22.7814 252.095C22.7679 252.243 22.7544 252.378 22.7273 252.527L22.7408 252.54ZM21.211 270.301C21.211 270.301 21.2245 270.207 21.211 270.167C21.1975 270.14 21.1298 270.153 21.0892 270.14C21.0892 270.207 21.0892 270.288 21.0892 270.355C21.1298 270.328 21.1704 270.315 21.211 270.288V270.301ZM23.6479 251.016C23.6479 251.016 23.6479 250.935 23.6479 250.881C23.5937 250.908 23.5396 250.949 23.4854 250.976C23.5125 251.003 23.526 251.043 23.5531 251.084C23.5802 251.057 23.6208 251.03 23.6479 251.016ZM35.047 234.644L35.0199 234.752L35.1282 234.711L35.047 234.63V234.644ZM23.1199 255.049C23.174 254.981 23.2147 254.941 23.2553 254.887C23.2147 254.887 23.174 254.873 23.1334 254.86C23.1334 254.9 23.1334 254.954 23.1199 255.035V255.049ZM23.4719 264.017V264.152L23.5666 264.071L23.4719 264.017ZM33.6255 261.266H33.5443L33.5984 261.36L33.639 261.266H33.6255ZM21.8067 222.169L21.7796 222.277L21.8744 222.25L21.7931 222.169H21.8067ZM23.499 265.581L23.5666 265.473H23.4583L23.499 265.581ZM17.2849 226.066L17.3255 226.161L17.3797 226.066H17.2849Z" fill="#FFE57C"/>
<path d="M121.772 203.396C121.339 203.719 120.906 204.056 120.473 204.38L120.5 204.353C120.378 204.475 120.256 204.596 120.148 204.704C119.498 205.014 118.862 205.338 118.212 205.648L118.225 205.675C118.104 205.796 117.995 205.904 117.873 206.025L117.846 206.012C116.912 206.187 116.411 206.902 115.924 207.617L115.938 207.63C115.748 207.576 115.464 207.415 115.369 207.482C114.651 208.035 113.988 208.642 113.298 209.235L113.311 209.222C112.621 209.222 112.418 209.653 112.391 210.247H112.296L112.377 210.22C113.013 210.368 112.919 210.759 112.702 211.191C112.634 211.245 112.58 211.312 112.512 211.366C112.567 211.299 112.621 211.231 112.675 211.177C113.108 211.73 113.122 212.297 112.553 212.742C109.358 215.21 106.664 218.311 102.941 220.078C101.33 220.847 99.7053 221.386 97.6475 220.806C98.4597 219.876 99.1773 219.053 99.9083 218.231C99.8407 218.136 99.773 218.042 99.6917 217.961C99.2585 218.204 98.8117 218.433 98.3921 218.689C97.8776 218.999 97.4038 219.107 96.9164 218.635C96.2259 217.974 95.5897 218.096 94.9398 218.73C94.4118 219.242 93.7891 219.242 93.1393 218.905C92.8143 218.73 92.4488 218.487 92.1239 218.514C91.1762 218.595 91.2574 217.691 90.743 217.219C90.1879 217.3 89.5652 217.381 88.6446 217.502C88.983 217.111 89.1049 216.868 89.2944 216.774C90.215 216.342 90.6618 215.533 91.271 214.778C93.7349 211.744 94.0598 207.954 95.1835 204.475C96.4967 200.429 97.5392 196.302 98.6899 192.202C98.717 192.094 98.7441 192 98.7711 191.892C99.2856 190.085 99.2314 189.882 97.3632 189.518C94.7368 189.006 92.2999 188.035 89.8359 187.05C88.3874 186.47 86.8169 186.214 85.3277 185.715C82.6066 184.798 82.2546 184.083 82.9315 181.238C82.9721 181.076 83.0262 180.927 83.0669 180.779L83.0939 180.752C83.6355 180.388 84.1228 179.929 84.705 179.7C87.1148 178.77 89.511 177.772 91.9885 177.084C95.8063 176.005 99.6917 175.128 103.564 174.238C104.593 174.009 105.148 173.483 105.5 172.552C105.743 171.905 106.149 171.325 106.474 170.718L106.488 170.732C106.65 169.963 106.704 169.14 106.989 168.426C107.936 166.093 108.952 163.786 109.967 161.48C110.712 159.821 111.93 158.54 113.379 157.475C114.029 157.003 114.841 156.827 115.518 157.205C117.021 158.055 118.591 158.716 120.243 159.174C122.246 159.74 123.668 161.13 125.008 162.627C124.954 162.68 124.9 162.721 124.873 162.734C124.886 162.707 124.94 162.654 124.981 162.6C126.172 163.571 127.147 164.69 127.54 166.241C127.662 166.699 127.946 167.117 128.149 167.563C128.988 169.41 130.139 170.327 132.427 169.95C134.471 169.612 136.637 169.815 138.736 169.99C140.97 170.165 143.027 170.894 144.842 172.364C145.694 173.051 146.805 173.483 147.861 173.888C149.025 174.346 150.121 174.872 151.042 175.749C151.732 176.41 152.572 176.909 153.343 177.475C154.075 178.014 154.372 178.797 153.939 179.606C153.005 181.372 151.895 183.018 150.257 184.259C148.064 185.917 145.857 187.576 143.664 189.222C142.838 189.842 142.026 190.449 141.2 191.056C140.983 191.217 140.739 191.352 140.55 191.541C139.359 192.714 138.952 193.443 140.469 195.007C141.904 194.158 143.352 193.281 144.814 192.404L144.801 192.391C143.88 193.119 142.987 193.901 142.012 194.562C140.739 195.412 140.591 195.695 141.24 197.057C141.795 198.23 142.459 199.35 142.973 200.523C143.474 201.696 143.853 202.91 144.259 204.016C143.054 205.216 141.674 204.232 140.482 204.812C140.658 205.122 140.807 205.365 141.051 205.769C140.184 205.472 139.48 205.243 138.776 204.973C136.881 204.245 134.999 203.49 133.104 202.762C132.955 202.708 132.793 202.667 132.63 202.654C131.087 202.532 129.53 202.371 127.987 202.317C127.553 202.303 127.107 202.627 126.66 202.789L126.673 202.816C126.633 202.573 126.592 202.33 126.511 201.791C125.577 202.411 124.819 202.91 124.047 203.409L124.074 203.436C123.952 203.112 123.83 202.789 123.708 202.465L123.722 202.452C123.289 202.775 122.856 203.099 122.422 203.423C122.192 203.436 121.962 203.436 121.732 203.436L121.772 203.396ZM109.453 185.607L109.439 185.594H109.453V185.607ZM103.929 192.108L103.916 192.094H103.929V192.108ZM113.027 204.744C112.919 204.852 112.81 204.96 112.702 205.068C112.661 205.068 112.621 205.068 112.58 205.095C112.553 205.108 112.553 205.149 112.539 205.189C112.594 205.149 112.634 205.108 112.688 205.068C112.797 204.96 112.905 204.852 113.013 204.744L113.027 204.758V204.744ZM111.402 206.039C111.294 206.147 111.186 206.255 111.077 206.363C110.482 206.686 109.832 206.929 109.29 207.334C108.221 208.143 107.232 209.033 106.204 209.883C105.879 210.166 105.445 210.395 105.825 210.988C105.946 210.611 106.068 210.233 106.19 209.856C106.65 209.775 107.205 209.815 107.571 209.586C108.925 208.723 110.319 207.86 111.077 206.336C111.186 206.228 111.294 206.12 111.402 205.998L111.416 206.012L111.402 206.039ZM94.4931 209.923H94.5066C94.5066 210.031 94.5066 210.152 94.5201 210.274C94.3712 210.543 94.2088 210.813 94.0599 211.069C94.1411 211.096 94.2223 211.123 94.3035 211.15C94.3712 210.854 94.4389 210.557 94.5066 210.26C94.5066 210.152 94.5066 210.044 94.4931 209.923ZM110.752 210.57C110.752 210.678 110.739 210.8 110.725 210.907C110.631 211.123 110.522 211.326 110.427 211.541L110.414 211.528C110.509 211.326 110.617 211.137 110.712 210.934C110.712 210.813 110.712 210.692 110.725 210.557L110.752 210.584V210.57ZM139.034 198.203V198.298V198.217L138.993 198.149L139.047 198.203H139.034ZM107.476 195.007L107.53 194.94L107.503 195.034H107.49L107.476 195.007ZM108.14 214.765L108.072 214.792L108.126 214.751H108.14V214.765ZM113.69 169.828C113.582 170.138 113.46 170.449 113.352 170.759H113.338C113.447 170.435 113.568 170.125 113.677 169.815L113.704 169.734V169.828H113.69ZM110.414 183.706H110.427C110.522 183.76 110.631 183.84 110.725 183.921C110.752 183.881 110.766 183.854 110.793 183.813C110.671 183.773 110.536 183.746 110.414 183.719V183.706ZM108.18 213.16C108.261 213.038 108.329 212.917 108.234 213.079C108.288 212.89 108.248 213.025 108.207 213.173H108.112H108.194L108.18 213.16ZM102.968 194.009C102.778 194.077 102.589 194.157 102.386 194.225C102.426 194.306 102.481 194.387 102.521 194.454C102.67 194.292 102.819 194.144 102.968 193.982C103.022 194.184 103.063 194.373 103.157 194.71C103.496 194.171 103.645 193.861 102.968 194.009ZM107.801 201.157C108.288 200.887 108.613 200.537 108.207 199.889C108.085 200.321 107.95 200.752 107.828 201.184C107.747 201.238 107.679 201.292 107.598 201.346C107.652 201.373 107.72 201.413 107.774 201.44C107.774 201.346 107.774 201.251 107.788 201.157H107.801ZM101.668 199.916C100.951 200.563 100.856 201.427 100.734 202.29C100.842 202.317 100.951 202.357 101.059 202.384C101.249 201.561 101.452 200.725 101.641 199.903C101.655 199.822 101.668 199.741 101.682 199.66C101.682 199.741 101.668 199.835 101.655 199.916H101.668ZM105.892 200.563C105.161 201.224 105.175 202.087 105.134 202.924C105.242 202.951 105.337 202.964 105.445 202.991C105.594 202.168 105.73 201.359 105.879 200.536L105.919 200.469V200.563H105.892ZM115.274 181.737L115.261 181.75C114.976 181.939 114.557 182.074 114.435 182.343C114.205 182.869 114.123 183.476 113.988 184.043C113.65 184.353 113.325 184.663 112.986 184.973C113.122 184.097 113.243 183.22 113.379 182.343C112.499 183.49 111.93 185.486 112.011 186.403C112.35 185.904 112.675 185.418 113 184.946C112.932 185.809 112.377 186.619 112.715 187.617C113.934 186.308 114.245 185.378 113.961 184.029C114.841 183.517 115.003 182.6 115.274 181.737ZM102.589 212.512L102.602 212.499C102.467 212.728 102.332 212.971 102.102 213.375C103.956 212.499 104.132 212.337 104.525 211.272C103.807 211.73 103.198 212.121 102.589 212.512ZM113.65 196.639L113.636 196.652C113.785 196.612 113.947 196.558 114.096 196.518C114.76 196.369 115.396 196.14 115.45 195.344C115.504 194.468 114.651 194.441 114.137 194.157C113.609 193.874 112.959 193.659 112.512 194.252C111.416 195.668 110.955 197.313 110.874 199.12C111.646 198.756 112.282 198.325 112.702 197.61C113.027 197.286 113.352 196.949 113.677 196.625L113.65 196.639ZM121.772 185.337C121.664 184.892 121.556 184.461 121.448 184.016H121.434C121.15 183.584 120.825 183.153 120.568 182.694C120.256 182.128 119.999 181.534 119.688 180.981C118.957 179.646 117.968 179.579 117.102 180.793C116.98 180.968 116.872 181.157 116.79 181.359C116.114 183.045 115.437 184.744 114.787 186.443C114.557 187.037 114.421 187.657 114.191 188.453C115.166 188.844 116.032 189.222 116.939 189.532C118.009 189.896 119.092 190.193 120.175 190.53L120.067 190.557L120.161 190.503C120.419 190.557 120.689 190.665 120.947 190.651C122.558 190.557 123.424 189.127 122.774 187.671C122.436 186.888 122.097 186.106 121.759 185.324L121.786 185.351L121.772 185.337ZM138.37 178.109C137.815 177.92 137.341 177.61 136.895 177.65C135.988 177.704 135.094 177.947 134.201 178.136C133.483 178.284 132.928 178.756 133.117 179.471C133.28 180.078 133.821 180.59 134.241 181.116C134.295 181.184 134.783 181.062 134.796 181.008C134.905 180.091 135.757 180.28 136.272 180.01C137.044 179.633 137.869 179.35 138.37 178.122V178.109ZM98.2025 216.369C99.1502 216.235 100.166 215.682 100.721 214.926C100.937 214.643 100.951 214.212 101.167 213.51C99.6782 214.293 98.4733 214.765 98.2025 216.369ZM100.87 196.342C100.761 196.302 100.639 196.275 100.531 196.234C99.8136 197.192 99.448 199.174 99.8271 200.793C100.22 199.107 100.545 197.731 100.87 196.342ZM100.03 183.962C99.976 184.124 99.9219 184.299 99.8677 184.461C100.152 184.555 100.45 184.663 100.734 184.758C100.788 184.582 100.842 184.407 100.91 184.232C100.626 184.151 100.328 184.056 100.044 183.975L100.03 183.962ZM109.48 211.514C109.29 211.339 109.155 211.164 109.101 211.177C108.938 211.245 108.789 211.393 108.64 211.501C108.722 211.609 108.83 211.798 108.898 211.784C109.074 211.757 109.223 211.636 109.48 211.501V211.514ZM106.041 198.891L106.393 199.053C106.474 198.81 106.569 198.568 106.65 198.325C106.569 198.284 106.488 198.257 106.407 198.217C106.285 198.446 106.163 198.675 106.041 198.905V198.891ZM107.341 196.046C107.029 196.221 106.88 196.275 106.88 196.315C106.894 196.477 106.962 196.639 107.002 196.801C107.084 196.612 107.178 196.41 107.341 196.032V196.046ZM101.492 216.531C101.425 216.612 101.357 216.68 101.289 216.76C101.357 216.801 101.438 216.855 101.519 216.868C101.546 216.868 101.628 216.787 101.614 216.76C101.587 216.68 101.533 216.612 101.492 216.531ZM124.467 201.238C124.426 201.305 124.372 201.373 124.331 201.454C124.372 201.481 124.453 201.521 124.453 201.521C124.507 201.454 124.548 201.386 124.588 201.319C124.548 201.292 124.507 201.278 124.467 201.251V201.238ZM104.349 214.751C104.349 214.751 104.281 214.67 104.241 214.684C104.2 214.684 104.159 214.724 104.119 214.751C104.173 214.792 104.227 214.832 104.281 214.872C104.295 214.832 104.322 214.792 104.335 214.751H104.349ZM103.144 215.52L103.252 215.587V215.452L103.144 215.506V215.52ZM109.047 197.92V197.799L108.952 197.839L109.047 197.92ZM105.378 198.122L105.324 198.217H105.418L105.378 198.122Z" fill="#FFE57C"/>
<path d="M19.4243 273.982C19.1671 274.36 18.9099 274.751 18.5037 275.371C18.3006 274.36 18.7474 273.861 19.1129 273.335L19.0994 273.308C19.2212 273.537 19.3295 273.766 19.4514 273.982H19.4379H19.4243Z" fill="#FFE57C"/>
<path d="M53.2423 234.818C53.6214 234.036 53.9869 233.254 54.366 232.472L54.7044 232.66C54.217 233.375 53.7161 234.077 53.2288 234.791L53.2423 234.805V234.818Z" fill="#FFE57C"/>
<path d="M55.8415 224.785L56.5049 224.502V224.475C56.18 225.108 55.8551 225.729 55.5302 226.363L55.5437 226.376C55.0563 225.85 55.1376 225.324 55.5031 224.771C55.6249 224.758 55.7468 224.758 55.8686 224.758L55.8415 224.785Z" fill="#FFE57C"/>
<path d="M123.113 313.78C123.506 313.227 123.898 312.688 124.291 312.135C124.345 313.011 123.83 313.456 123.099 313.753L123.126 313.78H123.113Z" fill="#FFE57C"/>
<path d="M21.116 262.695C20.8723 262.101 20.6963 261.508 21.3597 260.941C21.2785 261.521 21.1837 262.101 21.1025 262.681L21.1295 262.695H21.116Z" fill="#FFE57C"/>
<path d="M120.5 206.321C120.892 206.106 121.285 205.903 121.799 205.62C121.601 206.223 121.163 206.461 120.486 206.335H120.5V206.321Z" fill="#FFE57C"/>
<path d="M117.969 208.655C117.779 208.79 117.589 208.925 117.413 209.073C117.332 208.979 117.237 208.884 117.156 208.79C117.346 208.641 117.535 208.493 117.725 208.345C117.806 208.453 117.887 208.56 117.969 208.668V208.655Z" fill="#FFE57C"/>
<path d="M106.827 276.194L105.987 277.449C105.893 277.368 105.811 277.287 105.717 277.219C106.096 276.882 106.475 276.558 106.854 276.221C106.854 276.221 106.827 276.194 106.84 276.194H106.827Z" fill="#FFE57C"/>
<path d="M21.3872 255.182C21.5767 255.52 21.7527 255.87 21.9423 256.207C21.1841 256.073 21.4955 255.547 21.4143 255.169L21.3872 255.182Z" fill="#FFE57C"/>
<path d="M153.343 259.741C153.655 259.215 153.98 258.689 154.291 258.163L154.278 258.149C153.953 258.675 153.641 259.201 153.316 259.727L153.343 259.754V259.741Z" fill="#FFE57C"/>
<path d="M121.123 313.781C121.786 313.781 122.449 313.781 123.126 313.781L123.099 313.754C122.544 314.469 121.827 314.212 121.136 314.091V314.118C121.15 313.997 121.15 313.889 121.15 313.767L121.123 313.794V313.781Z" fill="#FFE57C"/>
<path d="M122.45 204.704C123.005 204.272 123.547 203.854 124.102 203.422L124.075 203.396C123.533 203.827 122.978 204.259 122.437 204.69L122.45 204.704Z" fill="#FFE57C"/>
<path d="M65.5897 213.12C65.9146 212.594 66.2531 212.081 66.578 211.555L66.5645 211.528C66.2395 212.054 65.9011 212.58 65.5762 213.093L65.5897 213.106V213.12Z" fill="#FFE57C"/>
<path d="M149.742 185.607C149.918 185.512 150.094 185.418 150.27 185.337L150.325 185.539C150.121 185.553 149.918 185.58 149.715 185.593H149.729L149.742 185.607Z" fill="#FFE57C"/>
<path d="M20.1825 262.804H20.0605C20.0605 262.804 20.0605 262.709 20.0741 262.668C20.0741 262.655 20.1554 262.668 20.1961 262.668C20.1961 262.709 20.1961 262.763 20.1961 262.804H20.1825Z" fill="#FFE57C"/>
<path d="M155.929 296.303C155.496 295.979 155.049 295.642 154.616 295.318V295.345C155.049 295.669 155.482 295.993 155.916 296.316H155.943L155.929 296.303Z" fill="#FFE57C"/>
<path d="M153.317 259.715C153.141 259.958 152.951 260.187 152.775 260.43C152.735 260.389 152.694 260.362 152.653 260.322C152.883 260.133 153.114 259.931 153.344 259.742L153.317 259.715Z" fill="#FFE57C"/>
<path d="M102.142 224.731L102.061 224.813L102.033 224.704L102.142 224.731Z" fill="#FFE57C"/>
<path d="M99.3267 287.712L99.4215 287.807L99.2996 287.834L99.3267 287.712Z" fill="#FFE57C"/>
<path d="M42.4934 253.227C42.3174 253.133 42.1279 253.038 41.9519 252.958C41.979 252.904 41.9925 252.836 42.0196 252.782C42.1821 252.836 42.331 252.904 42.4934 252.958L42.4799 252.944C42.4799 253.052 42.4799 253.146 42.4799 253.254L42.4934 253.241V253.227Z" fill="#FFE57C"/>
<path d="M20.7373 276.357C20.7373 276.357 20.6425 276.357 20.6154 276.344C20.5883 276.317 20.5883 276.262 20.5747 276.222C20.6425 276.222 20.7102 276.222 20.778 276.235C20.778 276.276 20.7509 276.317 20.7509 276.357H20.7373Z" fill="#FFE57C"/>
<path d="M118.876 207.617C118.984 207.536 119.093 207.455 118.971 207.55C119.106 207.495 118.971 207.55 118.849 207.604L118.862 207.617H118.876Z" fill="#FFE57C"/>
<path d="M126.687 202.775C126.579 202.83 126.47 202.87 126.619 202.803C126.457 202.83 126.592 202.803 126.714 202.803L126.701 202.775H126.687Z" fill="#FFE57C"/>
<path d="M121.122 204.379C120.798 204.487 120.473 204.595 120.148 204.703C120.27 204.582 120.391 204.46 120.5 204.353L120.473 204.379C120.689 204.379 120.919 204.379 121.136 204.379H121.122Z" fill="#FFE57C"/>
<path d="M30.9314 278.595L30.9585 278.717L30.8501 278.676L30.9314 278.595Z" fill="#FFE57C"/>
<path d="M156.227 255.182C156.011 255.398 155.781 255.627 155.564 255.843H155.591C155.591 255.614 155.591 255.385 155.591 255.169L155.564 255.196C155.794 255.196 156.024 255.196 156.241 255.196V255.169L156.227 255.182Z" fill="#FFE57C"/>
<path d="M19.1128 273.335C19.2211 273.335 19.3294 273.321 19.4377 273.308C19.3158 273.308 19.2075 273.308 19.0857 273.308V273.335H19.1128Z" fill="#FFE57C"/>
<path d="M23.3237 257.745C23.2831 257.826 23.256 257.894 23.2424 257.921C23.256 257.894 23.2966 257.826 23.3509 257.759L23.3373 257.745H23.3237Z" fill="#FFE57C"/>
<path d="M121.123 314.091C121.069 314.172 121.014 314.266 120.974 314.347C120.92 314.266 120.866 314.172 120.811 314.091L120.798 314.118C120.92 314.118 121.028 314.118 121.15 314.118L121.136 314.091H121.123Z" fill="#FFE57C"/>
<path d="M30.4712 277.489C30.4712 277.179 30.4983 276.869 30.5118 276.559H30.4983C30.4983 276.869 30.4712 277.165 30.4712 277.476V277.503V277.489Z" fill="#FFE57C"/>
<path d="M58.1165 224.124V223.895C58.1165 223.895 58.1571 223.962 58.1436 223.989C58.1436 224.03 58.1165 224.057 58.0894 224.097L58.1029 224.111L58.1165 224.124Z" fill="#FFE57C"/>
<path d="M61.3518 214.387L61.3925 214.468L61.3789 214.373L61.3518 214.387Z" fill="#FFE57C"/>
<path d="M56.505 224.502L56.5186 224.407L56.4915 224.475L56.505 224.502Z" fill="#FFE57C"/>
<path d="M66.5645 211.555C66.6592 211.326 66.754 211.11 66.8623 210.881L66.8488 210.867C66.754 211.096 66.6592 211.312 66.5645 211.542L66.578 211.569L66.5645 211.555Z" fill="#FFE57C"/>
<path d="M154.575 257.408C154.481 257.651 154.372 257.894 154.278 258.136L154.291 258.15C154.386 257.907 154.494 257.664 154.589 257.422L154.575 257.395V257.408Z" fill="#FFE57C"/>
<path d="M56.1394 229.626L56.2207 229.559L56.153 229.613L56.1394 229.626Z" fill="#FFE57C"/>
<path d="M41.5183 257.139L41.4915 257.206L41.5452 257.152L41.5183 257.139Z" fill="#FFE57C"/>
<path d="M67.2274 210.517C67.3222 210.315 67.4305 210.112 67.5252 209.91V209.896C67.4169 210.099 67.3086 210.301 67.2139 210.503L67.2274 210.517Z" fill="#FFE57C"/>
<path d="M114.056 209.6L114.11 209.532L114.029 209.614L114.056 209.6Z" fill="#FFE57C"/>
<path d="M19.4375 273.308C19.4375 273.537 19.4375 273.753 19.4375 273.982H19.451C19.451 273.753 19.451 273.523 19.451 273.308H19.4375Z" fill="#FFE57C"/>
<path d="M42.845 253.605L42.9127 253.632L42.8585 253.592L42.845 253.605Z" fill="#FFE57C"/>
<path d="M145.18 275.25C145.085 275.021 144.976 274.805 144.882 274.576L144.868 274.59C144.976 274.805 145.071 275.035 145.18 275.25Z" fill="#FFE57C"/>
<path d="M30.4576 277.476L30.4441 277.57L30.4712 277.489L30.4576 277.476Z" fill="#FFE57C"/>
<path d="M122.45 203.396C122.219 203.396 122.003 203.396 121.773 203.396V203.409C122.003 203.409 122.233 203.409 122.463 203.409L122.45 203.396Z" fill="#FFE57C"/>
<path d="M42.8455 252.58C42.7237 252.701 42.6018 252.823 42.48 252.944L42.4935 252.958C42.6154 252.836 42.7372 252.715 42.859 252.594L42.8455 252.58Z" fill="#FFE57C"/>
<path d="M42.48 253.241C42.6018 253.362 42.7237 253.484 42.8455 253.605L42.859 253.592C42.7372 253.47 42.6154 253.349 42.4935 253.228L42.48 253.241Z" fill="#FFE57C"/>
<path d="M56.153 229.612L56.1394 229.694V229.626L56.153 229.612Z" fill="#FFE57C"/>
<path d="M55.1783 226.727C55.3002 226.606 55.4085 226.498 55.5303 226.377L55.5168 226.363C55.3949 226.485 55.2866 226.593 55.1648 226.714L55.1783 226.727Z" fill="#FFE57C"/>
<path d="M57.7778 224.461C57.8861 224.353 58.008 224.232 58.1163 224.11L58.1027 224.097C57.9809 224.205 57.8726 224.326 57.7507 224.434L57.7643 224.447L57.7778 224.461Z" fill="#FFE57C"/>
<path d="M66.8622 210.881C66.984 210.759 67.1059 210.638 67.2277 210.516L67.2142 210.503C67.0923 210.624 66.9705 210.746 66.8486 210.867L66.8622 210.881Z" fill="#FFE57C"/>
<path d="M152.653 271.366L152.612 271.393L152.653 271.366Z" fill="#FFE57C"/>
<path d="M114.029 209.613C113.921 209.613 113.799 209.586 113.691 209.572H113.677C113.799 209.599 113.934 209.599 114.056 209.613H114.029Z" fill="#FFE57C"/>
<path d="M113.69 209.572C113.568 209.451 113.446 209.329 113.324 209.208L113.311 209.221C113.433 209.343 113.554 209.464 113.676 209.586L113.69 209.572Z" fill="#FFE57C"/>
<path d="M120.486 206.321L120.432 206.335L120.5 206.321H120.486Z" fill="#FFE57C"/>
<path d="M118.212 205.648C118.091 205.77 117.969 205.891 117.86 205.999L117.887 206.012C118.009 205.891 118.118 205.783 118.239 205.662V205.635L118.212 205.648Z" fill="#FFE57C"/>
<path d="M101.33 281.723C101.316 281.615 101.316 281.507 101.33 281.399C101.33 281.521 101.33 281.629 101.33 281.75L101.357 281.723H101.33Z" fill="#FFE57C"/>
<path d="M101.317 282.074C101.317 281.953 101.317 281.845 101.317 281.724L101.29 281.751C101.411 281.751 101.52 281.751 101.642 281.751V281.724C101.642 281.845 101.642 281.966 101.642 282.088L101.669 282.061C101.547 282.061 101.425 282.061 101.303 282.061H101.33L101.317 282.074Z" fill="#FFE57C"/>
<path d="M149.702 283.005C149.81 283.005 149.932 283.032 150.04 283.032L150.054 283.018C149.932 283.018 149.796 283.005 149.675 282.991H149.688L149.702 283.005Z" fill="#FFE57C"/>
<path d="M145.167 192.081C145.058 192.189 144.95 192.297 144.842 192.405L144.855 192.418C144.964 192.31 145.072 192.202 145.18 192.081L145.167 192.067V192.081Z" fill="#FFE57C"/>
<path d="M131.547 275.277C131.006 274.521 130.45 273.753 129.909 272.997C129.922 272.566 129.936 272.134 129.95 271.703L129.936 271.716C130.044 271.703 130.153 271.689 130.261 271.676C130.694 272.876 131.127 274.076 131.561 275.277H131.547Z" fill="#FFE57C"/>
<path d="M139.995 261.656L139.643 262.007C139.765 261.886 139.887 261.764 139.995 261.656Z" fill="#FFE57C"/>
<path d="M139.02 262.304C138.898 262.425 138.777 262.546 138.668 262.654C138.79 262.533 138.912 262.412 139.02 262.304Z" fill="#FFE57C"/>
<path d="M129.57 271.38C129.692 271.501 129.8 271.609 129.922 271.73C129.922 271.73 129.936 271.717 129.949 271.717C129.828 271.595 129.706 271.488 129.597 271.366L129.584 271.38H129.57Z" fill="#FFE57C"/>
<path d="M107.802 283.693C107.802 283.572 107.802 283.464 107.802 283.343C107.924 283.343 108.032 283.343 108.154 283.343C108.032 283.464 107.924 283.572 107.802 283.693Z" fill="#FFE57C"/>
<path d="M19.1128 235.466C19.5595 234.967 20.0063 234.454 20.4531 233.955L20.7238 234.238C20.1823 234.643 19.6408 235.047 19.0857 235.452L19.0992 235.466H19.1128Z" fill="#FFE57C"/>
<path d="M21.7123 233.483L21.6987 233.565V233.51L21.7123 233.483Z" fill="#FFE57C"/>
<path d="M41.2202 215.399C41.0983 215.399 40.9765 215.399 40.8682 215.399C40.99 215.277 41.0983 215.169 41.2202 215.048C41.2202 215.169 41.2202 215.291 41.2202 215.399Z" fill="#FFE57C"/>
<path d="M20.3989 229.963C20.3989 229.842 20.3989 229.734 20.3989 229.612C20.6291 229.612 20.8592 229.612 21.0894 229.612C20.8592 229.734 20.6291 229.842 20.3989 229.963Z" fill="#FFE57C"/>
<path d="M112.702 197.583L112.648 197.556L112.688 197.583H112.702Z" fill="#FFE57C"/>
</svg>
