<svg width="670" height="961" viewBox="0 0 670 961" fill="none" xmlns="http://www.w3.org/2000/svg">
<path d="M546.677 467.336C543.095 468.097 542.492 471.625 541.083 474.07C539.554 476.796 538.307 479.121 534.484 478.479C534.162 481.045 533.961 483.049 533.679 485.093C533.317 488.02 532.915 488.3 530.098 488.14C528.368 488.02 526.638 488.14 524.465 488.14C523.338 486.536 522.131 483.931 518.831 485.614C518.429 485.815 517.342 484.773 516.216 484.131C515.169 487.779 514.204 491.026 513.238 494.353C510.502 493.872 510.301 492.269 510.542 490.665C510.944 488.18 510.542 486.095 509.174 483.851C508.289 482.368 508.208 480.163 508.329 478.279C509.174 465.051 510.14 451.823 511.065 438.595C511.186 436.831 510.944 435.067 511.226 433.344C511.669 430.538 512.353 427.772 512.956 425.006C512.956 426.369 512.956 427.732 512.956 429.135C513.278 429.135 513.6 429.055 513.922 429.015C513.6 427.692 513.238 426.369 512.916 425.086C512.997 423.643 513.359 422.16 513.077 420.797C511.387 412.419 511.588 404.002 512.192 395.544C512.433 391.856 511.065 390.613 507.444 390.533C505.593 390.493 503.701 390.132 501.85 389.972C500.764 389.892 499.476 389.571 498.551 389.972C494.648 391.816 490.744 391.214 486.761 390.493L486.801 390.533C485.272 388.208 483.743 385.843 482.214 383.518C484.024 379.55 484.708 374.94 488.732 372.294H488.652C489.014 372.254 489.376 372.254 489.738 372.254L489.658 372.334C489.658 371.974 489.658 371.613 489.658 371.252V371.332C489.658 370.972 489.658 370.651 489.658 370.29C490.825 369.809 492.153 369.529 493.159 368.807C498.148 365.079 503.138 361.271 508.007 357.383C509.375 356.301 511.548 355.539 511.226 352.573C509.013 353.374 507.041 354.096 505.069 354.857L505.15 354.938C505.995 354.176 506.759 353.334 507.685 352.693C511.789 349.887 514.043 346.399 512.353 341.269C512.152 340.667 512.192 339.986 512.272 339.345C513.721 329.804 511.508 320.224 512.634 310.644C512.916 308.279 512.433 305.874 512.312 303.469C511.95 295.852 513.842 288.517 515.049 281.101C515.693 277.013 515.854 272.844 516.578 268.795C516.98 266.51 517.423 263.825 518.871 262.221C521.085 259.816 523.942 257.692 526.96 256.409C528.69 255.687 531.627 256.248 533.317 257.331C537.864 260.257 542.814 261.9 547.964 263.143C549.051 263.384 550.218 263.945 551.224 263.744C555.69 262.943 559.03 264.987 561.927 267.873C568.567 274.367 575.488 280.66 580.196 288.878C580.719 289.8 581.644 290.521 582.811 291.724C585.025 290.401 587.238 289.198 589.33 287.795C596.935 282.705 604.259 277.173 612.105 272.523C618.101 268.955 624.378 265.749 631.943 265.829C636.49 265.869 641.078 264.346 645.665 263.744C647.154 263.544 648.804 263.825 650.292 264.225C653.23 264.987 656.087 265.949 658.984 266.831C660.071 267.152 661.237 267.272 662.203 267.793C669.728 271.922 671.016 276.05 666.469 281.382C665.865 282.103 665.463 283.025 664.819 283.747C661.439 287.755 658.059 291.764 654.075 296.454C654.477 294.289 654.719 292.926 655 291.563C654.92 290.922 654.88 290.321 654.839 289.679C654.839 289.278 654.839 288.838 654.839 288.437C657.696 286.272 659.185 283.306 660.473 279.337C657.294 282.304 656.69 283.346 654.88 288.517C654.88 288.878 654.88 289.279 654.88 289.639L655.081 291.603C654.075 291.884 653.069 292.124 652.063 292.405V292.485C651.419 290.842 650.735 291.042 650.051 292.485L650.131 292.405C649.447 292.766 648.804 293.087 648.12 293.447L648.2 293.367C648.844 293.728 649.488 294.049 650.131 294.409H650.051C649.85 296.454 648.924 298.017 647.114 299.059V299.139C647.194 298.378 647.234 297.616 647.315 296.293C646.228 296.774 645.303 296.895 645.021 297.376C641.762 302.707 637.094 307.237 635.605 313.61C635.323 314.291 635.002 315.013 634.72 315.695C634.076 316.657 633.432 317.578 632.748 318.541C632.426 319.062 632.145 319.583 631.823 320.144C631.943 320.184 632.104 320.264 632.225 320.304C632.386 319.703 632.507 319.102 632.668 318.5C633.311 317.538 633.996 316.616 634.639 315.654C634.921 314.973 635.243 314.251 635.565 313.57C636.732 312.808 637.859 312.047 639.025 311.285C639.267 311.445 639.508 311.606 639.75 311.766C637.698 315.414 635.766 319.142 633.553 322.749C628.121 331.688 621.964 340.267 618.222 350.127L618.262 350.087C618.262 352.332 618.262 354.617 618.222 356.862C617.9 357.543 617.618 358.265 617.296 358.946C616.612 358.585 615.888 358.225 615.204 357.824C615.043 358.024 614.882 358.225 614.721 358.465C615.566 359.507 616.451 360.59 617.296 361.632L617.377 361.872L617.256 361.672C617.256 360.75 617.256 359.828 617.256 358.906C617.578 358.225 617.86 357.503 618.182 356.822C619.63 357.663 621.079 358.505 622.688 359.427C621.803 361.672 620.998 363.636 620.194 365.6L620.113 365.52C620.998 366.041 621.441 367.925 623.01 366.482L623.051 366.522C623.01 365.801 622.93 365.119 622.89 364.398C623.211 364.277 623.533 364.117 623.855 363.997C624.781 365.52 625.867 366.923 626.632 368.526C627.96 371.332 629.69 373.697 632.587 375.06L632.547 375.02C632.788 375.742 632.748 376.904 633.271 377.185C636.048 378.788 637.094 381.514 637.818 384.28C639.75 391.736 643.532 398.029 648.602 403.761C651.137 406.607 653.069 409.974 655.161 413.181C655.684 414.023 655.765 415.145 656.127 416.308C653.713 417.029 652.465 415.706 651.137 414.624H651.057C652.546 414.343 653.471 413.662 652.465 412.099C651.298 410.215 649.97 408.371 648.2 405.805C647.717 408.491 647.435 410.135 647.154 411.778V411.698C644.78 411.698 642.406 411.698 640.031 411.578C636.209 411.417 632.386 411.137 629.167 410.936C626.793 412.419 624.902 413.782 622.89 414.905C618.986 417.029 615.043 419.033 611.1 421.118C609.088 422.2 607.398 421.439 605.667 420.517C602.005 418.552 598.344 416.548 594.601 414.744C592.469 413.702 590.175 413.021 588.284 412.259C585.346 413.742 585.266 418.031 581.403 417.47H581.443C581.081 416.708 580.719 415.947 579.954 414.303C575.689 419.915 573.637 426.088 569.774 431.059L569.734 430.818L569.854 431.019C567.682 434.506 565.267 437.833 563.376 441.481C560.801 446.492 558.587 451.743 556.334 456.633C556.213 456.272 555.972 455.471 555.61 454.148C553.195 455.911 552.431 458.357 551.143 460.401C549.856 462.405 548.769 464.53 547.562 466.574L547.642 466.494C547.28 466.855 546.958 467.175 546.596 467.536L546.636 467.456L546.677 467.336ZM508.047 375.982C508.047 376.303 508.047 376.664 508.047 376.984C508.49 376.984 508.892 377.024 509.335 377.065C509.214 376.704 509.093 376.383 509.013 376.022C509.013 375.662 509.013 375.301 509.013 374.94C509.496 374.74 509.979 374.539 510.421 374.339C510.341 374.218 510.26 374.098 510.22 374.018C509.858 374.339 509.456 374.699 509.093 375.02C508.771 375.341 508.45 375.662 508.087 375.942L508.047 375.982ZM583.415 371.172L583.335 371.252C583.013 371.252 582.731 371.252 582.409 371.252C580.531 373.203 580.25 375.007 581.564 376.664C583.536 375.02 582.811 373.056 582.369 371.172C582.731 371.172 583.093 371.172 583.415 371.172ZM623.936 371.252H623.976C624.298 371.813 624.58 372.455 624.902 373.096C625.264 373.417 625.586 373.777 625.948 374.098L626.028 374.339L625.867 374.178C625.545 373.858 625.183 373.497 624.861 373.176C624.539 372.535 624.258 371.934 623.936 371.292V371.252ZM627.799 377.986H627.839L627.96 378.147L627.799 377.986ZM625.787 380.672L625.827 380.712C625.827 381.073 625.827 381.474 625.827 381.835C625.827 381.835 625.787 381.875 625.827 381.875C625.827 381.474 625.827 381.033 625.827 380.632L625.787 380.672ZM554.403 311.566L554.282 311.445L554.443 311.526C554.443 311.526 554.644 311.726 554.725 311.846C554.604 311.766 554.523 311.686 554.403 311.566ZM582.329 348.243V347.923L582.369 348.163C582.369 349.085 582.369 350.007 582.369 350.929C581.363 349.486 580.397 347.963 579.311 346.64C577.822 344.836 576.212 343.153 574.643 341.389C574.522 339.705 573.878 338.463 572.108 338.062C570.579 341.188 570.82 342.191 573.758 345.117C574.12 349.005 576.051 352.092 579.029 354.617C578.868 353.695 578.667 352.813 578.506 351.891C579.753 352.893 580.96 353.895 582.892 355.459C582.691 353.334 582.57 352.132 582.449 350.969C582.771 349.967 583.053 349.005 583.375 348.003C583.495 347.762 583.616 347.562 583.777 347.321C583.656 347.562 583.576 347.802 583.455 348.043C583.093 348.083 582.731 348.123 582.329 348.163V348.243ZM620.113 284.629C619.912 284.789 619.67 284.909 619.469 285.07C619.67 284.909 619.872 284.749 620.073 284.589H620.113V284.629ZM543.86 411.497C544.142 412.219 544.464 412.9 544.745 413.622C544.745 415.546 544.584 417.55 547.441 418.152C548.809 415.586 549.976 412.9 549.091 410.014C548.286 407.369 546.878 404.923 545.791 402.438C545.429 406.086 545.067 409.894 544.705 413.702C544.423 412.981 544.101 412.259 543.82 411.578C543.739 411.337 543.659 411.097 543.659 411.016C543.659 411.057 543.779 411.297 543.9 411.497H543.86ZM652.988 285.711C652.707 286.032 652.425 286.352 652.747 285.992C652.506 286.433 652.747 286.032 652.908 285.671C653.512 285.551 654.075 285.43 654.678 285.35L653.431 284.308C653.27 284.789 653.149 285.27 652.988 285.751V285.711ZM574.723 295.171L574.683 295.211C574.321 294.409 573.959 293.608 573.597 292.806C573.395 292.966 573.154 293.127 572.953 293.287C573.556 293.928 574.16 294.53 574.723 295.171ZM573.798 283.627L573.717 283.707C573.315 282.384 572.953 281.021 571.021 281.101C570.901 283.346 572.229 283.667 573.758 283.627H573.798ZM560.318 272.242C558.668 270.599 557.018 268.955 555.368 267.352L555.449 267.272C555.851 270.078 557.139 272.002 560.278 272.162L560.398 271.842L560.318 272.202V272.242ZM603.696 311.526C606.19 309.882 608.524 308.118 609.088 303.669C604.742 307.237 601.16 310.163 596.935 313.61C598.505 314.051 599.189 314.211 599.873 314.412C599.041 317.218 599.752 319.035 602.005 319.863C603.977 317.378 604.782 314.652 603.696 311.526ZM567.963 342.391C567.601 339.345 565.468 339.665 563.819 340.748C561.324 342.351 558.748 344.115 558.587 347.722C558.547 348.965 557.702 350.127 557.219 351.33C556.576 349.125 556.374 347.121 553.477 348.083H553.517C552.914 348.043 551.988 347.642 551.827 347.843C548.769 351.45 547.24 358.625 552.27 362.313C553.879 361.672 555.57 361.03 557.26 360.349C556.978 362.033 556.173 363.115 555.288 364.117C554.403 365.199 553.477 366.242 552.552 367.284C551.626 369.689 550.902 372.094 552.471 374.579V367.244C552.632 367.685 552.914 368.166 552.914 368.607C552.753 374.94 556.656 377.265 562.169 378.107C563.295 378.267 564.382 378.548 565.468 378.828C567.883 379.389 569.895 379.109 571.263 376.704C571.625 376.022 572.349 375.541 572.872 374.98L572.792 375.06C574.482 372.214 575.971 369.248 577.862 366.602C579.472 364.398 579.592 362.033 578.586 359.948C576.615 355.86 574.12 352.011 571.866 348.083H571.907C571.826 345.437 569.774 343.994 568.044 342.351H568.003L567.963 342.391ZM536.013 364.518C535.611 365.68 532.392 365.56 534.605 367.925C535.048 368.366 534.685 369.929 534.243 370.731C533.679 371.733 532.633 372.495 531.668 373.537C533.961 375.421 535.772 374.94 537.703 373.858C538.548 370.531 538.347 367.524 536.054 364.518H536.013ZM551.385 408.371C551.787 408.491 552.189 408.571 552.592 408.691C553.759 406.687 554.926 404.723 556.012 402.719C556.696 401.436 557.34 399.993 555.489 399.071C553.759 398.189 551.787 398.991 551.465 401.035C551.103 403.44 551.385 405.926 551.385 408.371ZM532.593 409.172C535.732 398.63 535.772 396.746 532.875 395.103C531.144 399.472 532.472 403.801 532.593 409.172ZM544.142 366.362C544.423 366.362 544.705 366.442 544.946 366.442V363.877C544.665 363.877 544.383 363.877 544.142 363.877V366.322V366.362ZM538.267 430.778C537.784 431.339 537.462 431.58 537.341 431.901C537.261 432.101 537.502 432.422 537.623 432.702C537.945 432.542 538.508 432.462 538.589 432.221C538.709 431.941 538.468 431.5 538.267 430.778ZM543.86 398.309C543.578 398.39 543.337 398.47 543.055 398.55C543.256 399.111 543.458 399.672 543.699 400.234L544.303 400.033C544.182 399.472 544.021 398.911 543.9 398.35L543.86 398.309ZM536.174 399.031C536.416 399.031 536.657 399.031 536.899 399.031V396.385H536.054C536.094 397.307 536.134 398.189 536.174 399.071V399.031ZM527.241 409.293C527 409.293 526.799 409.293 526.557 409.333C526.597 409.974 526.638 410.616 526.678 411.217C526.919 411.217 527.12 411.217 527.362 411.177C527.322 410.535 527.281 409.894 527.241 409.293ZM588.968 364.157C588.364 363.836 588.002 363.476 587.6 363.436C587.358 363.436 586.916 364.037 586.956 364.317C586.956 364.638 587.399 364.959 587.68 365.28C587.962 365.039 588.284 364.758 589.008 364.157H588.968ZM536.858 416.789C536.858 416.789 536.496 416.468 536.335 416.308C536.255 416.428 536.054 416.588 536.094 416.628C536.255 416.829 536.416 416.989 536.577 417.149C536.657 417.029 536.738 416.949 536.899 416.789H536.858ZM579.713 370.13L579.793 369.849L579.512 369.929L579.713 370.13ZM523.459 343.994L523.781 344.195V343.794L523.459 343.994ZM615.566 287.635L615.848 287.515L615.606 287.354V287.675L615.566 287.635ZM513.117 434.386C513.117 434.386 513.117 434.667 513.157 434.827C513.318 434.707 513.479 434.586 513.56 434.426C513.56 434.386 513.439 434.226 513.359 434.105C513.278 434.226 513.198 434.306 513.117 434.426V434.386ZM568.044 277.734C567.802 277.614 567.601 277.493 567.36 277.373C567.319 277.493 567.199 277.734 567.239 277.774C567.44 277.934 567.681 278.015 567.923 278.135C567.923 278.015 568.003 277.854 568.044 277.734ZM544.101 373.417L544.303 373.657L544.423 373.377H544.101V373.417ZM515.33 420.276V419.554H514.968C514.968 419.795 514.968 420.036 514.968 420.276H515.371H515.33ZM579.27 379.911L579.512 379.75L579.27 379.63V379.911ZM579.633 292.405V292.125L579.431 292.205L579.633 292.405ZM526.879 285.029C526.879 285.27 526.879 285.47 526.839 285.711C526.919 285.591 527.12 285.51 527.12 285.39C527.12 285.27 527 285.15 526.879 285.029Z" fill="#FFE57C"/>
<path d="M370.028 170.948C367.211 174.796 364.233 178.604 361.577 182.573C356.95 189.507 352.363 196.442 348.097 203.617C344.395 209.79 341.096 216.204 337.796 222.618C336.106 225.864 334.778 229.312 333.329 232.679L333.289 232.639C333.692 233.481 334.054 234.322 334.818 235.966C337.595 231.516 340.13 227.628 341.9 223.339C344.275 217.607 347.132 212.155 351.638 207.746H351.598C350.19 214.16 346.649 219.651 343.711 225.464C343.027 226.867 342.504 228.35 341.941 229.793C340.09 232.759 337.957 235.645 336.508 238.812C335.784 240.375 335.824 242.62 336.347 244.344C337.192 247.23 338.681 249.955 339.969 252.721C342.906 259.095 345.844 265.468 348.862 271.802C349.828 273.766 351.196 275.57 352.322 277.454C354.817 281.703 357.594 285.872 359.565 290.361C360.41 292.285 359.445 294.971 359.324 297.296C359.083 296.574 358.881 295.893 358.64 295.171C358.439 295.291 358.197 295.412 357.996 295.532C358.439 296.093 358.922 296.654 359.364 297.216C359.203 297.216 359.042 297.336 358.922 297.296C357.111 296.574 355.34 295.572 353.449 295.211C351.638 294.851 349.667 295.211 347.775 295.211H347.816C347.172 294.009 346.488 292.726 345.844 291.443L345.884 291.403C344.355 294.891 342.947 295.692 339.768 294.169C335.1 291.924 330.352 290.521 325.121 290.441C323.551 290.441 321.982 289.078 320.493 288.196C318.602 287.074 316.791 285.791 314.98 284.589L315.021 284.629C311.802 281.101 311.761 281.101 308.381 283.787C307.657 284.348 306.973 284.99 306.289 285.631C306.168 285.391 306.047 285.15 305.967 284.909C305.725 285.15 305.484 285.391 305.243 285.631C304.599 287.595 303.915 289.559 303.271 291.524L303.19 291.203L303.311 291.483C300.977 293.768 299.73 296.534 298.482 299.541C296.31 304.952 293.09 309.963 290.596 315.294C288.181 320.465 286.049 325.796 284.037 331.127C283.433 332.731 283.755 334.735 283.634 337.501C285.163 335.336 286.008 334.134 287.014 332.731C292.366 337.02 291.119 341.91 289.549 347.602C288.423 346.199 287.698 345.317 286.974 344.395C288.543 341.71 288.181 339.144 286.572 335.537C285.727 339.305 286.25 341.87 287.055 344.436C285.888 344.877 284.68 345.317 283.312 345.839C282.829 345.237 282.306 344.516 281.743 343.794C281.502 343.955 281.139 344.075 281.019 344.315C280.657 344.997 280.576 346.199 280.093 346.4C275.868 348.123 275.667 351.811 275.305 355.499C274.943 359.147 274.943 359.067 271.039 359.588C269.832 359.748 268.665 360.429 267.498 360.87C264.319 362.153 262.428 361.832 260.336 359.067C258.324 356.421 255.869 354.617 252.771 353.455C249.431 352.172 247.459 348.284 248.143 344.796C248.492 343.086 247.915 341.71 246.413 340.668C247.338 333.051 248.184 325.636 249.149 318.22C249.31 316.977 249.954 315.815 250.397 314.612H250.316C250.397 315.013 250.477 315.454 250.598 316.376C253.213 311.606 255.628 307.197 258.042 302.787C258.123 303.83 258.243 304.872 258.324 305.914C258.525 305.874 258.726 305.834 258.927 305.794C258.605 304.832 258.324 303.83 258.002 302.868C258.002 301.986 258.002 301.064 258.002 300.182C258.163 299.781 258.364 299.38 258.163 299.821C258.284 299.38 258.163 299.821 258.042 300.262L256.956 299.981H256.996C254.501 297.216 255.105 292.486 250.397 289.96C250.839 291.323 251.041 291.844 251.201 292.365L251.282 292.325C248.264 294.77 250.839 297.296 251.041 298.819C249.793 302.386 248.827 305.072 247.62 308.56C247.499 306.836 247.379 305.834 247.338 304.832C246.856 294.209 249.109 283.827 249.994 273.325C250.276 270.158 250.437 266.951 250.397 263.745C250.397 260.698 249.592 259.816 246.333 259.536C241.705 259.135 237.037 259.095 232.41 258.814C229.15 258.614 225.65 259.175 222.551 256.249C223.758 255.647 224.644 255.166 225.931 254.485C225.046 253.884 224.402 253.082 223.678 252.962C216.193 252.04 208.709 251.358 201.546 248.833C197.925 247.55 194.303 246.228 190.963 244.424C186.819 242.219 186.497 239.213 189.998 236.046C197.04 229.713 204.122 223.459 211.445 217.447C224.442 206.744 237.52 196.161 250.719 185.739C254.622 182.653 256.191 178.925 256.231 174.115C256.231 170.307 256.634 166.459 256.875 162.089C258.002 162.771 258.686 163.212 259.37 163.613C261.221 160.446 260.98 148.02 258.887 139.441L258.927 139.481C256.634 136.515 256.714 136.114 259.853 135.393C260.537 135.232 261.181 134.872 261.865 134.631H261.825C263.515 135.072 263.877 133.669 264.682 132.707C267.619 129.139 269.47 129.3 271.965 133.228C275.144 138.239 279.651 141.005 285.606 141.606C286.853 141.726 288.181 142.809 289.107 143.811C290.153 144.973 290.757 146.536 291.642 147.859C293.372 150.344 295.183 150.745 297.839 149.342C298.845 148.821 299.77 148.18 300.655 147.498C307.898 142.207 315.343 137.116 322.344 131.545C329.829 125.612 338.359 121.483 346.488 116.633C349.506 114.829 352.644 113.186 355.662 111.382C359.364 109.137 363.187 109.137 367.452 110.34C367.05 111.101 366.768 111.582 366.487 112.103C366.688 112.304 366.929 112.665 367.13 112.665C369.786 112.905 372.04 113.787 374.092 115.591C376.144 117.355 378.518 118.798 380.812 120.201C383.226 121.644 385.198 123.407 386.365 125.973L386.324 125.933C387.25 126.534 388.095 127.255 389.101 127.696C392.36 129.139 393.004 130.462 392.401 133.99C390.831 143.169 386.526 151.026 381.174 158.442C380.248 159.724 379.444 161.127 378.397 162.33C376.949 163.933 375.259 165.336 373.73 166.899C372.402 168.262 371.195 169.705 369.947 171.108L369.987 171.068L370.028 170.948ZM304.317 170.146L304.277 170.106H304.317V170.146ZM247.218 217.246L247.178 217.166L248.344 217.246C248.988 218.248 249.753 219.01 250.839 217.847C251 217.687 250.437 216.845 250.195 216.324C250.477 215.843 250.719 215.402 251 214.921C250.839 214.801 250.678 214.641 250.477 214.52C249.753 215.122 249.069 215.683 248.344 216.284C247.982 216.605 247.62 216.885 247.258 217.206L247.218 217.246ZM258.887 291.323L258.927 291.363H258.887V291.323ZM218.366 223.058L218.326 223.018H218.366V223.058ZM215.469 225.023C215.147 225.343 214.825 225.664 214.463 226.025C214.141 226.345 213.819 226.666 213.497 227.027C209.997 228.43 207.059 230.594 204.846 233.681L204.725 234.082C204.725 234.082 204.806 233.801 204.846 233.681C208.508 232.438 211.164 229.953 213.497 226.987C213.819 226.666 214.141 226.345 214.463 225.985C214.785 225.664 215.107 225.343 215.469 224.983L215.509 225.023H215.469ZM287.9 313.53L287.739 313.691L287.819 313.45H287.859L287.9 313.53ZM299.488 251.078L299.327 251.238L299.408 250.998H299.448L299.488 251.078ZM235.75 221.295C235.75 221.295 235.669 221.495 235.629 221.575C235.629 221.455 235.669 221.335 235.709 221.255C236.031 220.934 236.393 220.573 236.715 220.252C241.584 218.769 245.005 215.282 248.626 211.955C249.833 210.913 251.081 209.871 252.288 208.828C252.368 208.748 252.489 208.628 252.57 208.548C252.489 208.468 252.368 208.347 252.368 208.347C252.248 208.387 252.167 208.508 252.087 208.588C250.759 209.51 249.431 210.392 248.063 211.314C244.321 214.28 240.538 217.286 236.796 220.252C236.474 220.573 236.112 220.934 235.79 221.255L235.75 221.295ZM236.756 207.826L236.554 208.107L236.675 207.786H236.715L236.756 207.826ZM327.495 207.826C327.817 207.145 328.098 206.503 328.42 205.822C328.541 205.581 328.662 205.381 328.782 205.141C328.662 205.381 328.581 205.621 328.461 205.862C328.139 206.543 327.857 207.185 327.535 207.866L327.495 207.826ZM310.152 174.195C310.152 173.874 310.112 173.554 310.071 173.233C313.371 170.267 316.51 167.14 319.93 164.294C324.115 160.847 328.058 156.598 332.927 154.593C337.877 152.549 339.728 148.941 341.659 144.652C335.985 147.979 330.513 151.587 325.523 155.916H325.563C317.837 159.083 312.687 165.577 306.41 170.587C305.886 170.988 305.685 172.351 305.927 173.073C306.45 174.556 307.778 174.596 309.106 174.155C309.468 174.155 309.79 174.155 310.152 174.155V174.195ZM253.012 327.961L254.622 326.838L254.018 326.317C253.696 326.878 253.374 327.48 253.052 328.041C252.892 328.522 252.69 329.003 252.529 329.524C252.69 329.524 252.851 329.564 253.012 329.604C253.012 329.083 253.012 328.522 253.012 328.001V327.961ZM314.015 152.108C312.647 152.389 311.319 152.79 310.796 154.834C312.808 154.513 313.572 153.471 313.974 152.068H314.015V152.108ZM330.352 202.134C331.398 201.012 332.766 200.01 333.49 198.687C336.428 193.476 339.124 188.145 341.941 182.893C343.349 181.651 345.079 180.568 346.126 179.085C350.512 172.832 354.737 166.459 358.922 160.045C360.531 157.6 361.98 154.994 363.469 152.469C361.899 152.669 360.773 153.311 360.129 154.273C354.254 163.051 348.459 171.83 342.665 180.689C342.263 181.33 342.222 182.172 341.981 182.933C340.693 184.216 339.406 185.499 338.078 186.822L338.118 186.782C337.152 188.545 336.146 190.309 335.221 192.113C333.571 195.44 331.961 198.847 330.352 202.214L330.271 202.134H330.352ZM333.329 191.632C332.927 191.872 332.364 192.033 332.122 192.353C328.622 197.805 325.121 203.297 321.7 208.828C321.539 209.069 321.942 209.59 322.223 210.472C323.189 209.47 324.074 208.788 324.598 207.906C326.811 204.259 329.024 200.571 331.076 196.803C332.002 195.159 332.565 193.316 333.289 191.552C333.45 191.512 333.611 191.472 333.732 191.391C333.812 191.351 333.732 191.151 333.732 191.031C333.611 191.231 333.45 191.391 333.329 191.592V191.632ZM319.769 179.085C321.58 177.241 323.39 175.357 325.724 172.992C319.165 173.554 311.761 178.404 310.031 182.813C312.727 182.172 315.343 181.571 317.918 180.969C316.55 182.493 315.222 184.096 313.854 185.579C311.56 188.064 311.48 189.187 313.532 192.915C314.337 192.594 315.665 192.474 315.946 191.872C317.717 188.145 319.246 184.336 320.775 180.488C320.896 180.168 320.131 179.526 319.809 179.005L319.769 179.085ZM349.626 188.545C350.673 187.583 351.96 186.742 352.685 185.579C359.203 175.037 365.682 164.494 372.08 153.872C372.563 153.11 372.643 152.068 372.885 151.186L373.046 150.906L372.965 151.226C372.08 152.108 370.953 152.87 370.349 153.912C363.428 165.416 356.588 177.001 349.707 188.545L349.626 188.786L349.667 188.465L349.626 188.545ZM273.413 227.147C272.81 231.236 272.206 235.325 271.643 239.413C271.321 241.898 273.011 243.301 274.661 245.266C276.753 239.694 276.391 234.362 276.27 229.232C276.15 223.98 278.926 218.89 277.075 212.516C276.15 215.482 275.788 217.527 274.902 219.331C273.655 221.856 273.212 224.461 273.373 227.187H273.413V227.147ZM240.578 238.652C242.309 239.012 244.079 238.331 245.729 240.135C246.976 241.498 250.517 240.135 251.322 238.01C252.368 235.244 252.811 232.198 253.415 229.272C253.495 228.951 252.65 228.47 252.207 228.029V228.069C252.368 227.067 253.012 225.784 252.57 225.183C252.127 224.542 250.437 224.061 249.753 224.381C243.797 227.348 237.641 230.073 232.691 234.683C232.128 235.204 232.128 236.286 231.806 237.329C235.267 238.251 238.124 237.89 240.78 236.086C241.946 235.284 243.234 234.643 244.482 233.921H244.441C243.194 235.485 241.946 237.088 240.699 238.692H240.659L240.578 238.652ZM271.08 263.143C270.838 265.949 270.637 268.435 270.396 270.92C271.844 269.196 272.77 267.432 273.574 265.669C274.299 264.025 273.454 263.384 271.08 263.143ZM263.032 164.975C263.032 164.975 263.313 164.975 263.474 164.975V158.001C263.474 158.001 263.193 158.001 263.032 158.001V164.975ZM233.577 256.169C233.939 255.648 234.221 255.247 234.542 254.806C234.18 254.605 233.738 254.124 233.456 254.204C233.013 254.365 232.691 254.846 232.289 255.207C232.611 255.447 232.973 255.688 233.577 256.129V256.169ZM254.863 237.85C255.185 237.85 255.547 237.89 255.869 237.93V234.924C255.588 234.924 255.346 234.924 255.064 234.924C254.984 235.886 254.903 236.848 254.863 237.85ZM292.286 303.349L293.292 303.709L293.694 301.585C293.493 301.545 293.251 301.465 293.05 301.424C292.809 302.066 292.567 302.707 292.286 303.349ZM245.97 255.447C246.252 255.367 246.493 255.287 246.775 255.207C246.614 254.966 246.453 254.645 246.252 254.565C246.051 254.485 245.729 254.685 245.447 254.766C245.608 255.006 245.809 255.207 245.97 255.447ZM252.409 284.749C252.409 284.749 252.61 284.509 252.69 284.388C252.449 284.268 252.207 284.108 251.966 284.028C251.926 284.028 251.805 284.268 251.684 284.388C251.926 284.509 252.167 284.629 252.409 284.749ZM255.185 284.388C255.427 284.428 255.628 284.469 255.869 284.509C255.869 284.028 255.789 283.547 255.748 283.066C255.588 283.066 255.467 283.066 255.306 283.066C255.266 283.507 255.225 283.907 255.145 284.348L255.185 284.388ZM250.638 337.18C250.638 337.18 250.678 336.9 250.638 336.779C250.598 336.699 250.397 336.739 250.276 336.699C250.276 336.9 250.276 337.14 250.276 337.341C250.397 337.26 250.517 337.22 250.638 337.14V337.18ZM257.881 279.859C257.881 279.859 257.881 279.618 257.881 279.458C257.72 279.538 257.559 279.658 257.398 279.739C257.479 279.819 257.519 279.939 257.599 280.059C257.68 279.979 257.801 279.899 257.881 279.859ZM291.762 231.196L291.682 231.516L292.004 231.396L291.762 231.156V231.196ZM256.312 291.844C256.473 291.644 256.594 291.524 256.714 291.363C256.594 291.363 256.473 291.323 256.352 291.283C256.352 291.403 256.352 291.564 256.312 291.804V291.844ZM257.358 318.501V318.902L257.64 318.661L257.358 318.501ZM287.537 310.323H287.296L287.457 310.604L287.578 310.323H287.537ZM252.409 194.117L252.328 194.438L252.61 194.358L252.368 194.117H252.409ZM257.439 323.15L257.64 322.83H257.318L257.439 323.15ZM238.969 205.702L239.089 205.982L239.25 205.702H238.969Z" fill="#FFE57C"/>
<path d="M549.534 138.319C548.247 139.281 546.959 140.283 545.671 141.245L545.752 141.165C545.39 141.526 545.027 141.887 544.706 142.208C542.774 143.13 540.883 144.091 538.951 145.013L538.992 145.094C538.629 145.454 538.307 145.775 537.945 146.136L537.865 146.096C535.088 146.617 533.6 148.741 532.151 150.866L532.191 150.906C531.628 150.746 530.783 150.265 530.501 150.465C528.368 152.109 526.397 153.912 524.345 155.676L524.385 155.636C522.333 155.636 521.729 156.919 521.648 158.682H521.367L521.608 158.602C523.5 159.043 523.218 160.206 522.574 161.488C522.373 161.649 522.212 161.849 522.011 162.009C522.172 161.809 522.333 161.609 522.494 161.448C523.781 163.092 523.821 164.775 522.131 166.098C512.635 173.434 504.627 182.653 493.562 187.904C488.773 190.189 483.944 191.792 477.828 190.069C480.242 187.303 482.375 184.858 484.548 182.413C484.347 182.132 484.146 181.851 483.904 181.611C482.617 182.332 481.289 183.014 480.041 183.776C478.512 184.698 477.104 185.018 475.655 183.615C473.603 181.651 471.712 182.012 469.78 183.896C468.211 185.419 466.36 185.419 464.428 184.417C463.463 183.896 462.376 183.174 461.411 183.254C458.594 183.495 458.835 180.809 457.306 179.406C455.656 179.647 453.805 179.887 451.069 180.248C452.075 179.086 452.437 178.364 453.001 178.083C455.737 176.801 457.065 174.396 458.875 172.151C466.199 163.132 467.165 151.868 470.505 141.526C474.408 129.501 477.506 117.235 480.927 105.049C481.007 104.728 481.087 104.448 481.168 104.127C482.697 98.7555 482.536 98.1542 476.983 97.0719C469.177 95.5487 461.934 92.6625 454.61 89.7363C450.305 88.0126 445.637 87.2511 441.21 85.7679C433.122 83.0421 432.076 80.9176 434.088 72.4597C434.209 71.9787 434.37 71.5378 434.491 71.0968L434.571 71.0167C436.181 69.9344 437.629 68.5715 439.359 67.8901C446.522 65.1242 453.644 62.1579 461.008 60.1136C472.356 56.9068 483.904 54.3012 495.413 51.6556C498.471 50.9742 500.121 49.4109 501.167 46.645C501.891 44.7209 503.098 42.9973 504.064 41.1935L504.104 41.2336C504.587 38.9488 504.748 36.5035 505.593 34.379C508.41 27.4443 511.428 20.5898 514.446 13.7353C516.659 8.80487 520.28 4.9968 524.586 1.83009C526.517 0.427121 528.932 -0.0939095 530.944 1.02847C535.41 3.55382 540.078 5.51794 544.987 6.88083C550.943 8.5644 555.168 12.6931 559.151 17.1426C558.99 17.3029 558.829 17.4231 558.749 17.4632C558.789 17.383 558.95 17.2228 559.071 17.0624C562.612 19.9485 565.509 23.2755 566.676 27.8853C567.038 29.2482 567.883 30.4909 568.487 31.8137C570.982 37.3053 574.402 40.031 581.202 38.9086C587.279 37.9065 593.717 38.5078 599.954 39.0289C606.593 39.55 612.71 41.7146 618.102 46.0839C620.637 48.1282 623.936 49.4109 627.075 50.6135C630.536 51.9764 633.795 53.5397 636.531 56.1452C638.583 58.1094 641.078 59.5925 643.372 61.2761C645.545 62.8795 646.43 65.2044 645.142 67.6095C642.366 72.8606 639.066 77.751 634.197 81.4388C627.679 86.3692 621.12 91.2997 614.601 96.19C612.146 98.0339 609.732 99.8377 607.277 101.642C606.634 102.123 605.909 102.523 605.346 103.085C601.805 106.572 600.598 108.737 605.104 113.386C609.37 110.861 613.675 108.256 618.021 105.65L617.981 105.61C615.245 107.775 612.589 110.099 609.692 112.064C605.909 114.589 605.467 115.431 607.398 119.479C609.048 122.967 611.02 126.294 612.549 129.781C614.038 133.269 615.164 136.876 616.371 140.163C612.79 143.731 608.686 140.805 605.145 142.528C605.668 143.45 606.11 144.172 606.835 145.374C604.259 144.492 602.167 143.811 600.075 143.009C594.441 140.845 588.848 138.6 583.214 136.435C582.772 136.275 582.289 136.155 581.806 136.115C577.219 135.754 572.591 135.273 568.004 135.112C566.716 135.072 565.388 136.034 564.061 136.515L564.101 136.596C563.98 135.874 563.859 135.153 563.618 133.549C560.841 135.393 558.588 136.876 556.294 138.359L556.375 138.44C556.013 137.478 555.651 136.515 555.288 135.553L555.329 135.513C554.041 136.475 552.753 137.437 551.466 138.399C550.782 138.44 550.098 138.44 549.413 138.44L549.534 138.319ZM512.917 85.4473L512.876 85.4072H512.917V85.4473ZM496.499 104.768L496.459 104.728H496.499V104.768ZM523.54 142.328C523.218 142.648 522.896 142.969 522.574 143.29C522.453 143.29 522.333 143.29 522.212 143.37C522.131 143.41 522.131 143.53 522.091 143.651C522.252 143.53 522.373 143.41 522.534 143.29C522.856 142.969 523.178 142.648 523.5 142.328L523.54 142.368V142.328ZM518.711 146.176C518.389 146.497 518.067 146.817 517.745 147.138C515.975 148.1 514.043 148.821 512.434 150.024C509.255 152.429 506.317 155.075 503.259 157.6C502.293 158.442 501.006 159.123 502.133 160.887C502.495 159.765 502.857 158.642 503.219 157.52C504.587 157.279 506.237 157.4 507.323 156.718C511.347 154.153 515.492 151.587 517.745 147.058C518.067 146.737 518.389 146.416 518.711 146.056L518.751 146.096L518.711 146.176ZM468.452 157.72H468.493C468.493 158.041 468.493 158.402 468.533 158.763C468.09 159.564 467.607 160.366 467.165 161.128C467.406 161.208 467.648 161.288 467.889 161.368C468.09 160.486 468.291 159.604 468.493 158.723C468.493 158.402 468.493 158.081 468.452 157.72ZM516.78 159.644C516.78 159.965 516.739 160.326 516.699 160.646C516.417 161.288 516.095 161.889 515.814 162.531L515.774 162.49C516.055 161.889 516.377 161.328 516.659 160.727C516.659 160.366 516.659 160.005 516.699 159.604L516.78 159.685V159.644ZM600.839 122.887V123.167V122.927L600.718 122.726L600.879 122.887H600.839ZM507.042 113.386L507.203 113.186L507.122 113.467H507.082L507.042 113.386ZM509.013 172.111L508.812 172.191L508.973 172.071H509.013V172.111ZM525.511 38.5479C525.19 39.4698 524.827 40.3918 524.505 41.3138H524.465C524.787 40.3517 525.149 39.4297 525.471 38.5078L525.552 38.2673V38.5479H525.511ZM515.774 79.7953H515.814C516.095 79.9556 516.417 80.1962 516.699 80.4367C516.78 80.3164 516.82 80.2362 516.9 80.1159C516.538 79.9957 516.136 79.9155 515.774 79.8353V79.7953ZM509.134 167.341C509.376 166.98 509.577 166.619 509.295 167.1C509.456 166.539 509.335 166.94 509.215 167.381H508.933H509.174L509.134 167.341ZM493.642 110.42C493.079 110.621 492.515 110.861 491.912 111.061C492.032 111.302 492.193 111.543 492.314 111.743C492.757 111.262 493.199 110.821 493.642 110.34C493.803 110.941 493.924 111.502 494.205 112.505C495.211 110.901 495.654 109.979 493.642 110.42ZM508.007 131.665C509.456 130.863 510.422 129.821 509.215 127.897C508.852 129.18 508.45 130.463 508.088 131.745C507.846 131.906 507.645 132.066 507.404 132.226C507.565 132.306 507.766 132.427 507.927 132.507C507.927 132.226 507.927 131.946 507.967 131.665H508.007ZM489.779 127.977C487.646 129.901 487.365 132.467 487.003 135.032C487.325 135.112 487.646 135.233 487.968 135.313C488.532 132.868 489.135 130.382 489.699 127.937C489.739 127.697 489.779 127.456 489.819 127.216C489.819 127.456 489.779 127.737 489.739 127.977H489.779ZM502.334 129.901C500.161 131.866 500.201 134.431 500.08 136.916C500.402 136.996 500.684 137.037 501.006 137.117C501.448 134.671 501.851 132.266 502.293 129.821L502.414 129.621V129.901H502.334ZM530.219 73.9428L530.179 73.9829C529.334 74.5441 528.087 74.945 527.725 75.7467C527.041 77.31 526.799 79.1139 526.397 80.7974C525.391 81.7194 524.425 82.6413 523.419 83.5633C523.821 80.9578 524.184 78.3522 524.586 75.7467C521.97 79.1539 520.28 85.0865 520.522 87.8123C521.528 86.3291 522.494 84.886 523.459 83.483C523.258 86.0485 521.608 88.4536 522.614 91.4199C526.236 87.5317 527.161 84.7658 526.316 80.7573C528.932 79.2341 529.415 76.5082 530.219 73.9428ZM492.515 165.417L492.556 165.377C492.153 166.058 491.751 166.78 491.067 167.982C496.58 165.377 497.103 164.896 498.27 161.729C496.137 163.092 494.326 164.254 492.515 165.417ZM525.391 118.237L525.351 118.277C525.793 118.157 526.276 117.996 526.719 117.876C528.69 117.435 530.582 116.754 530.743 114.389C530.903 111.783 528.368 111.703 526.839 110.861C525.27 110.019 523.339 109.378 522.011 111.142C518.751 115.351 517.383 120.241 517.142 125.612C519.435 124.53 521.327 123.247 522.574 121.123C523.54 120.161 524.505 119.159 525.471 118.197L525.391 118.237ZM549.534 84.6455C549.212 83.3227 548.89 82.04 548.568 80.7172H548.528C547.683 79.4345 546.717 78.1518 545.953 76.7889C545.027 75.1054 544.263 73.3416 543.337 71.6981C541.164 67.7297 538.227 67.5293 535.652 71.1369C535.29 71.6581 534.968 72.2192 534.726 72.8204C532.714 77.8311 530.702 82.8818 528.771 87.9325C528.087 89.6963 527.684 91.5401 527 93.9051C529.898 95.0676 532.473 96.1901 535.169 97.112C538.348 98.1943 541.567 99.0761 544.786 100.078L544.464 100.158L544.746 99.998C545.51 100.158 546.315 100.479 547.08 100.439C551.868 100.158 554.443 95.9094 552.512 91.5803C551.506 89.2553 550.5 86.9303 549.494 84.6054L549.574 84.6857L549.534 84.6455ZM598.867 63.1601C597.218 62.5989 595.809 61.6768 594.481 61.7971C591.785 61.9574 589.129 62.679 586.474 63.2402C584.341 63.6811 582.691 65.0841 583.255 67.2086C583.737 69.0124 585.347 70.5356 586.594 72.0989C586.755 72.2994 588.204 71.9387 588.244 71.7783C588.566 69.0525 591.101 69.6136 592.63 68.812C594.924 67.6896 597.379 66.8478 598.867 63.2001V63.1601ZM479.478 176.881C482.295 176.48 485.313 174.837 486.962 172.592C487.606 171.75 487.646 170.467 488.29 168.383C483.864 170.708 480.283 172.111 479.478 176.881ZM487.405 117.355C487.083 117.235 486.721 117.154 486.399 117.034C484.266 119.88 483.18 125.773 484.307 130.583C485.474 125.572 486.439 121.484 487.405 117.355ZM484.91 80.5569C484.749 81.0379 484.588 81.559 484.427 82.04C485.272 82.3206 486.158 82.6413 487.003 82.9219C487.164 82.4008 487.325 81.8797 487.526 81.3586C486.681 81.118 485.795 80.8374 484.95 80.5969L484.91 80.5569ZM512.997 162.45C512.434 161.929 512.031 161.408 511.87 161.448C511.388 161.649 510.945 162.09 510.502 162.41C510.744 162.731 511.066 163.292 511.267 163.252C511.79 163.172 512.233 162.811 512.997 162.41V162.45ZM502.776 124.931L503.823 125.412C504.064 124.69 504.346 123.969 504.587 123.247C504.346 123.127 504.104 123.047 503.863 122.927C503.501 123.608 503.139 124.29 502.776 124.971V124.931ZM506.639 116.473C505.714 116.994 505.271 117.154 505.271 117.275C505.311 117.756 505.513 118.237 505.633 118.718C505.875 118.157 506.156 117.555 506.639 116.433V116.473ZM489.256 177.362C489.055 177.602 488.854 177.803 488.652 178.043C488.854 178.164 489.095 178.324 489.336 178.364C489.417 178.364 489.658 178.124 489.618 178.043C489.538 177.803 489.377 177.602 489.256 177.362ZM557.542 131.906C557.421 132.106 557.26 132.307 557.139 132.547C557.26 132.627 557.502 132.747 557.502 132.747C557.663 132.547 557.783 132.347 557.904 132.146C557.783 132.066 557.663 132.026 557.542 131.946V131.906ZM497.746 172.071C497.746 172.071 497.545 171.83 497.425 171.87C497.304 171.87 497.183 171.991 497.062 172.071C497.223 172.191 497.384 172.311 497.545 172.431C497.585 172.311 497.666 172.191 497.706 172.071H497.746ZM494.165 174.356L494.487 174.556V174.155L494.165 174.315V174.356ZM511.709 122.045V121.684L511.428 121.804L511.709 122.045ZM500.805 122.646L500.644 122.927H500.925L500.805 122.646Z" fill="#FFE57C"/>
<path d="M245.328 348.122C244.563 349.245 243.799 350.407 242.592 352.251C241.988 349.245 243.316 347.762 244.403 346.198L244.362 346.118C244.724 346.8 245.046 347.481 245.409 348.122H245.368H245.328Z" fill="#FFE57C"/>
<path d="M345.844 231.716C346.971 229.391 348.057 227.066 349.184 224.741L350.19 225.302C348.741 227.427 347.252 229.511 345.804 231.636L345.844 231.676V231.716Z" fill="#FFE57C"/>
<path d="M353.57 201.893L355.541 201.051V200.971C354.576 202.855 353.61 204.699 352.644 206.583L352.684 206.623C351.236 205.059 351.477 203.496 352.564 201.853C352.926 201.812 353.288 201.813 353.65 201.813L353.57 201.893Z" fill="#FFE57C"/>
<path d="M553.518 466.414C554.685 464.77 555.852 463.167 557.019 461.523C557.18 464.129 555.651 465.452 553.478 466.334L553.558 466.414H553.518Z" fill="#FFE57C"/>
<path d="M250.356 314.57C249.632 312.807 249.108 311.043 251.08 309.359C250.839 311.083 250.557 312.807 250.316 314.53L250.396 314.57H250.356Z" fill="#FFE57C"/>
<path d="M545.751 147.017C546.918 146.376 548.085 145.774 549.614 144.933C549.024 146.723 547.723 147.431 545.711 147.057H545.751V147.017Z" fill="#FFE57C"/>
<path d="M538.228 153.951C537.664 154.352 537.101 154.753 536.578 155.194C536.337 154.913 536.055 154.633 535.813 154.352C536.377 153.911 536.94 153.47 537.504 153.029C537.745 153.35 537.986 153.671 538.228 153.991V153.951Z" fill="#FFE57C"/>
<path d="M505.111 354.695L502.616 358.423C502.335 358.183 502.093 357.942 501.812 357.742C502.938 356.74 504.065 355.778 505.192 354.776C505.192 354.776 505.111 354.695 505.151 354.695H505.111Z" fill="#FFE57C"/>
<path d="M251.162 292.245C251.725 293.247 252.248 294.289 252.812 295.292C250.558 294.891 251.484 293.327 251.242 292.205L251.162 292.245Z" fill="#FFE57C"/>
<path d="M643.372 305.794C644.297 304.23 645.263 302.667 646.189 301.104L646.149 301.063C645.183 302.627 644.257 304.19 643.292 305.753L643.372 305.834V305.794Z" fill="#FFE57C"/>
<path d="M547.603 466.414C549.575 466.414 551.546 466.414 553.558 466.414L553.478 466.334C551.828 468.458 549.695 467.697 547.643 467.336V467.416C547.684 467.055 547.683 466.735 547.683 466.374L547.603 466.454V466.414Z" fill="#FFE57C"/>
<path d="M551.548 142.208C553.198 140.925 554.808 139.682 556.457 138.399L556.377 138.319C554.767 139.602 553.118 140.885 551.508 142.167L551.548 142.208Z" fill="#FFE57C"/>
<path d="M382.544 167.22C383.509 165.657 384.515 164.134 385.481 162.57L385.441 162.49C384.475 164.054 383.469 165.617 382.503 167.14L382.544 167.18V167.22Z" fill="#FFE57C"/>
<path d="M632.668 85.4453C633.191 85.1647 633.715 84.8841 634.238 84.6436L634.399 85.2448C633.795 85.2849 633.191 85.3651 632.588 85.4052H632.628L632.668 85.4453Z" fill="#FFE57C"/>
<path d="M247.581 314.896H247.219C247.219 314.896 247.219 314.614 247.259 314.493C247.259 314.453 247.501 314.493 247.622 314.493C247.622 314.614 247.622 314.775 247.622 314.896H247.581Z" fill="#FFE57C"/>
<path d="M651.057 414.463C649.769 413.501 648.441 412.499 647.154 411.537V411.617C648.441 412.579 649.729 413.541 651.017 414.503H651.097L651.057 414.463Z" fill="#FFE57C"/>
<path d="M643.292 305.714C642.769 306.435 642.206 307.117 641.683 307.838C641.562 307.718 641.441 307.638 641.321 307.518C642.005 306.957 642.689 306.355 643.373 305.794L643.292 305.714Z" fill="#FFE57C"/>
<path d="M491.187 201.735L490.945 201.976L490.865 201.654L491.187 201.735Z" fill="#FFE57C"/>
<path d="M482.819 388.931L483.101 389.213L482.739 389.293L482.819 388.931Z" fill="#FFE57C"/>
<path d="M313.895 286.432C313.372 286.152 312.809 285.871 312.286 285.63C312.366 285.47 312.407 285.27 312.487 285.109C312.97 285.27 313.413 285.47 313.895 285.63L313.855 285.59C313.855 285.911 313.855 286.192 313.855 286.512L313.895 286.472V286.432Z" fill="#FFE57C"/>
<path d="M249.23 355.179C249.23 355.179 248.948 355.179 248.868 355.139C248.787 355.058 248.787 354.897 248.747 354.776C248.948 354.776 249.15 354.776 249.351 354.817C249.351 354.937 249.271 355.058 249.271 355.179H249.23Z" fill="#FFE57C"/>
<path d="M540.924 150.865C541.247 150.624 541.569 150.382 541.206 150.664C541.609 150.503 541.206 150.664 540.844 150.825L540.884 150.865H540.924Z" fill="#FFE57C"/>
<path d="M564.142 136.475C563.819 136.636 563.497 136.757 563.94 136.555C563.457 136.636 563.86 136.555 564.222 136.555L564.182 136.475H564.142Z" fill="#FFE57C"/>
<path d="M547.603 141.245C546.637 141.566 545.671 141.887 544.705 142.207C545.067 141.847 545.43 141.486 545.752 141.165L545.671 141.245C546.315 141.245 546.999 141.245 547.643 141.245H547.603Z" fill="#FFE57C"/>
<path d="M279.53 361.833L279.611 362.196L279.288 362.075L279.53 361.833Z" fill="#FFE57C"/>
<path d="M651.943 292.245C651.3 292.887 650.616 293.568 649.972 294.209H650.052C650.052 293.528 650.052 292.846 650.052 292.205L649.972 292.285C650.656 292.285 651.34 292.285 651.984 292.285V292.205L651.943 292.245Z" fill="#FFE57C"/>
<path d="M244.402 346.199C244.724 346.199 245.046 346.158 245.368 346.118C245.006 346.118 244.684 346.118 244.322 346.118V346.199H244.402Z" fill="#FFE57C"/>
<path d="M256.918 299.862C256.797 300.104 256.717 300.305 256.676 300.386C256.717 300.305 256.837 300.104 256.999 299.903L256.958 299.862H256.918Z" fill="#FFE57C"/>
<path d="M547.603 467.336C547.442 467.576 547.282 467.857 547.161 468.098C547 467.857 546.839 467.576 546.678 467.336L546.638 467.416C547 467.416 547.322 467.416 547.684 467.416L547.644 467.336H547.603Z" fill="#FFE57C"/>
<path d="M278.162 358.545C278.162 357.623 278.243 356.701 278.283 355.779H278.243C278.243 356.701 278.162 357.583 278.162 358.505V358.585V358.545Z" fill="#FFE57C"/>
<path d="M360.331 199.93V199.248C360.331 199.248 360.452 199.449 360.412 199.529C360.412 199.649 360.331 199.73 360.251 199.85L360.291 199.89L360.331 199.93Z" fill="#FFE57C"/>
<path d="M369.948 170.989L370.068 171.23L370.028 170.948L369.948 170.989Z" fill="#FFE57C"/>
<path d="M355.542 201.053L355.582 200.771L355.502 200.973L355.542 201.053Z" fill="#FFE57C"/>
<path d="M385.441 162.57C385.723 161.888 386.004 161.247 386.326 160.566L386.286 160.525C386.004 161.207 385.723 161.848 385.441 162.53L385.481 162.61L385.441 162.57Z" fill="#FFE57C"/>
<path d="M647.033 298.858C646.752 299.58 646.43 300.302 646.148 301.023L646.188 301.063C646.47 300.342 646.792 299.62 647.074 298.899L647.033 298.818V298.858Z" fill="#FFE57C"/>
<path d="M354.455 216.284L354.697 216.083L354.495 216.244L354.455 216.284Z" fill="#FFE57C"/>
<path d="M310.997 298.057L310.917 298.255L311.077 298.096L310.997 298.057Z" fill="#FFE57C"/>
<path d="M387.412 159.485C387.693 158.883 388.015 158.282 388.297 157.681V157.641C387.975 158.242 387.653 158.843 387.372 159.444L387.412 159.485Z" fill="#FFE57C"/>
<path d="M526.598 156.759L526.759 156.558L526.518 156.799L526.598 156.759Z" fill="#FFE57C"/>
<path d="M245.367 346.118C245.367 346.8 245.367 347.441 245.367 348.122H245.407C245.407 347.441 245.407 346.76 245.407 346.118H245.367Z" fill="#FFE57C"/>
<path d="M314.94 287.556L315.142 287.636L314.98 287.516L314.94 287.556Z" fill="#FFE57C"/>
<path d="M619.107 351.893C618.825 351.211 618.503 350.57 618.221 349.889L618.181 349.929C618.503 350.57 618.785 351.252 619.107 351.893Z" fill="#FFE57C"/>
<path d="M278.122 358.505L278.082 358.787L278.162 358.545L278.122 358.505Z" fill="#FFE57C"/>
<path d="M551.547 138.319C550.863 138.319 550.219 138.319 549.535 138.319V138.359C550.219 138.359 550.903 138.359 551.587 138.359L551.547 138.319Z" fill="#FFE57C"/>
<path d="M314.942 284.509C314.58 284.87 314.218 285.23 313.855 285.591L313.896 285.631C314.258 285.27 314.62 284.91 314.982 284.549L314.942 284.509Z" fill="#FFE57C"/>
<path d="M313.855 286.474C314.218 286.834 314.58 287.195 314.942 287.556L314.982 287.516C314.62 287.155 314.258 286.794 313.896 286.434L313.855 286.474Z" fill="#FFE57C"/>
<path d="M354.495 216.244L354.455 216.486V216.284L354.495 216.244Z" fill="#FFE57C"/>
<path d="M351.599 207.666C351.961 207.305 352.283 206.985 352.645 206.624L352.605 206.584C352.243 206.945 351.921 207.265 351.559 207.626L351.599 207.666Z" fill="#FFE57C"/>
<path d="M359.325 200.931C359.647 200.61 360.009 200.25 360.331 199.889L360.29 199.849C359.928 200.169 359.606 200.53 359.244 200.851L359.284 200.891L359.325 200.931Z" fill="#FFE57C"/>
<path d="M386.326 160.565C386.688 160.204 387.05 159.843 387.412 159.483L387.372 159.442C387.01 159.803 386.648 160.164 386.286 160.525L386.326 160.565Z" fill="#FFE57C"/>
<path d="M641.318 340.347L641.199 340.426L641.318 340.347Z" fill="#FFE57C"/>
<path d="M526.518 156.798C526.196 156.798 525.834 156.718 525.512 156.678H525.472C525.834 156.758 526.236 156.758 526.599 156.798H526.518Z" fill="#FFE57C"/>
<path d="M525.511 156.678C525.148 156.317 524.786 155.956 524.424 155.596L524.384 155.636C524.746 155.996 525.108 156.357 525.47 156.718L525.511 156.678Z" fill="#FFE57C"/>
<path d="M545.711 147.017L545.55 147.057L545.752 147.017H545.711Z" fill="#FFE57C"/>
<path d="M538.952 145.014C538.59 145.375 538.228 145.735 537.906 146.056L537.987 146.096C538.349 145.735 538.671 145.415 539.033 145.054V144.974L538.952 145.014Z" fill="#FFE57C"/>
<path d="M488.773 371.131C488.733 370.81 488.733 370.49 488.773 370.169C488.773 370.53 488.773 370.85 488.773 371.211L488.854 371.131H488.773Z" fill="#FFE57C"/>
<path d="M488.734 372.174C488.734 371.813 488.734 371.493 488.734 371.132L488.653 371.212C489.015 371.212 489.337 371.212 489.7 371.212V371.132C489.7 371.493 489.7 371.853 489.7 372.214L489.78 372.134C489.418 372.134 489.056 372.134 488.694 372.134H488.774L488.734 372.174Z" fill="#FFE57C"/>
<path d="M632.547 374.94C632.869 374.94 633.231 375.02 633.553 375.02L633.593 374.98C633.231 374.98 632.829 374.94 632.467 374.899H632.507L632.547 374.94Z" fill="#FFE57C"/>
<path d="M619.069 104.688C618.747 105.008 618.425 105.329 618.103 105.65L618.143 105.69C618.465 105.369 618.787 105.048 619.109 104.688L619.069 104.647V104.688Z" fill="#FFE57C"/>
<path d="M578.587 351.97C576.977 349.726 575.328 347.441 573.718 345.196C573.758 343.913 573.798 342.631 573.839 341.348L573.799 341.388C574.12 341.348 574.442 341.308 574.764 341.268C576.052 344.835 577.34 348.403 578.627 351.97H578.587Z" fill="#FFE57C"/>
<path d="M603.698 311.485L602.652 312.528C603.014 312.167 603.376 311.806 603.698 311.485Z" fill="#FFE57C"/>
<path d="M600.799 313.41C600.437 313.771 600.075 314.132 599.753 314.452C600.115 314.092 600.477 313.731 600.799 313.41Z" fill="#FFE57C"/>
<path d="M572.711 340.387C573.074 340.747 573.395 341.068 573.758 341.429C573.758 341.429 573.798 341.389 573.838 341.389C573.476 341.028 573.114 340.707 572.792 340.347L572.752 340.387H572.711Z" fill="#FFE57C"/>
<path d="M508.01 376.986C508.01 376.626 508.01 376.305 508.01 375.944C508.372 375.944 508.694 375.944 509.056 375.944C508.694 376.305 508.372 376.626 508.01 376.986Z" fill="#FFE57C"/>
<path d="M244.402 233.641C245.73 232.158 247.058 230.635 248.386 229.151L249.19 229.993C247.581 231.196 245.971 232.398 244.322 233.601L244.362 233.641H244.402Z" fill="#FFE57C"/>
<path d="M252.128 227.748L252.088 227.99V227.829L252.128 227.748Z" fill="#FFE57C"/>
<path d="M310.111 173.995C309.749 173.995 309.387 173.995 309.065 173.995C309.427 173.635 309.749 173.314 310.111 172.953C310.111 173.314 310.111 173.675 310.111 173.995Z" fill="#FFE57C"/>
<path d="M248.225 217.286C248.225 216.926 248.225 216.605 248.225 216.244C248.909 216.244 249.593 216.244 250.277 216.244C249.593 216.605 248.909 216.926 248.225 217.286Z" fill="#FFE57C"/>
<path d="M522.574 121.041L522.413 120.961L522.534 121.041H522.574Z" fill="#FFE57C"/>
<path d="M359.424 933.982C355.842 934.744 355.239 938.271 353.83 940.716C352.301 943.442 351.054 945.767 347.231 945.126C346.909 947.691 346.708 949.695 346.426 951.74C346.064 954.666 345.662 954.947 342.845 954.786C341.115 954.666 339.384 954.786 337.212 954.786C336.085 953.183 334.878 950.577 331.578 952.261C331.176 952.461 330.089 951.419 328.962 950.778C327.916 954.426 326.951 957.672 325.985 960.999C323.249 960.518 323.047 958.915 323.289 957.312C323.691 954.826 323.289 952.742 321.921 950.497C321.035 949.014 320.955 946.809 321.076 944.925C321.921 931.697 322.886 918.469 323.812 905.241C323.933 903.478 323.691 901.714 323.973 899.99C324.415 897.184 325.1 894.418 325.703 891.653C325.703 893.015 325.703 894.378 325.703 895.781C326.025 895.781 326.347 895.701 326.669 895.661C326.347 894.338 325.985 893.015 325.663 891.733C325.743 890.29 326.106 888.807 325.824 887.444C324.134 879.066 324.335 870.648 324.939 862.19C325.18 858.502 323.812 857.26 320.19 857.179C318.339 857.139 316.448 856.779 314.597 856.618C313.511 856.538 312.223 856.218 311.298 856.618C307.394 858.462 303.491 857.861 299.507 857.139L299.548 857.179C298.019 854.855 296.49 852.49 294.96 850.165C296.771 846.196 297.455 841.586 301.479 838.941H301.399C301.761 838.901 302.123 838.901 302.485 838.901L302.405 838.981C302.405 838.62 302.405 838.259 302.405 837.899V837.979C302.405 837.618 302.405 837.297 302.405 836.937C303.572 836.456 304.9 836.175 305.905 835.454C310.895 831.726 315.885 827.918 320.754 824.029C322.122 822.947 324.295 822.185 323.973 819.219C321.76 820.021 319.788 820.742 317.816 821.504L317.897 821.584C318.742 820.822 319.506 819.981 320.432 819.339C324.536 816.533 326.79 813.046 325.1 807.915C324.898 807.314 324.939 806.632 325.019 805.991C326.468 796.451 324.255 786.871 325.381 777.29C325.663 774.925 325.18 772.52 325.059 770.115C324.697 762.499 326.588 755.163 327.796 747.748C328.439 743.659 328.6 739.49 329.325 735.442C329.727 733.157 330.17 730.471 331.618 728.868C333.831 726.463 336.688 724.338 339.706 723.055C341.437 722.334 344.374 722.895 346.064 723.977C350.611 726.903 355.561 728.547 360.711 729.79C361.798 730.03 362.965 730.591 363.971 730.391C368.437 729.589 371.777 731.633 374.674 734.52C381.314 741.013 388.235 747.307 392.943 755.524C393.466 756.446 394.391 757.168 395.558 758.37C397.771 757.047 399.985 755.845 402.077 754.442C409.682 749.351 417.006 743.819 424.852 739.169C430.848 735.602 437.125 732.395 444.69 732.475C449.237 732.515 453.825 730.992 458.412 730.391C459.901 730.19 461.55 730.471 463.039 730.872C465.977 731.633 468.834 732.596 471.731 733.477C472.817 733.798 473.984 733.918 474.95 734.439C482.475 738.568 483.762 742.697 479.215 748.028C478.612 748.75 478.209 749.672 477.566 750.393C474.185 754.402 470.805 758.41 466.822 763.1C467.224 760.936 467.466 759.573 467.747 758.21C467.667 757.568 467.627 756.967 467.586 756.326C467.586 755.925 467.586 755.484 467.586 755.083C470.443 752.919 471.932 749.952 473.22 745.984C470.041 748.95 469.437 749.992 467.626 755.163C467.626 755.524 467.626 755.925 467.626 756.286L467.828 758.25C466.822 758.531 465.816 758.771 464.81 759.052V759.132C464.166 757.488 463.482 757.689 462.798 759.132L462.878 759.052C462.194 759.412 461.55 759.733 460.866 760.094L460.947 760.014C461.591 760.374 462.234 760.695 462.878 761.056H462.798C462.597 763.1 461.671 764.663 459.86 765.706V765.786C459.941 765.024 459.981 764.263 460.062 762.94C458.975 763.421 458.05 763.541 457.768 764.022C454.509 769.353 449.841 773.883 448.352 780.257C448.07 780.938 447.748 781.66 447.467 782.341C446.823 783.303 446.179 784.225 445.495 785.187C445.173 785.708 444.891 786.229 444.57 786.79C444.69 786.83 444.851 786.911 444.972 786.951C445.133 786.349 445.254 785.748 445.414 785.147C446.058 784.185 446.742 783.263 447.386 782.301C447.668 781.619 447.99 780.898 448.312 780.216C449.479 779.455 450.605 778.693 451.772 777.932C452.014 778.092 452.255 778.252 452.497 778.413C450.444 782.06 448.513 785.788 446.3 789.396C440.867 798.335 434.711 806.913 430.969 816.774L431.009 816.734C431.009 818.979 431.009 821.263 430.969 823.508C430.647 824.19 430.365 824.911 430.043 825.593C429.359 825.232 428.635 824.871 427.951 824.47C427.79 824.671 427.629 824.871 427.468 825.112C428.313 826.154 429.198 827.236 430.043 828.278L430.124 828.519L430.003 828.318C430.003 827.396 430.003 826.474 430.003 825.553C430.325 824.871 430.607 824.149 430.928 823.468C432.377 824.31 433.826 825.152 435.435 826.074C434.55 828.318 433.745 830.282 432.94 832.247L432.86 832.167C433.745 832.688 434.188 834.572 435.757 833.129L435.797 833.169C435.757 832.447 435.677 831.766 435.636 831.044C435.958 830.924 436.28 830.764 436.602 830.643C437.528 832.167 438.614 833.569 439.379 835.173C440.707 837.979 442.437 840.344 445.334 841.707L445.294 841.667C445.535 842.388 445.495 843.551 446.018 843.831C448.795 845.435 449.841 848.16 450.565 850.926C452.497 858.382 456.279 864.675 461.349 870.408C463.884 873.254 465.816 876.621 467.908 879.827C468.431 880.669 468.512 881.792 468.874 882.954C466.46 883.676 465.212 882.353 463.884 881.271H463.804C465.293 880.99 466.218 880.309 465.212 878.745C464.045 876.861 462.717 875.017 460.947 872.452C460.464 875.138 460.182 876.781 459.901 878.425V878.344C457.526 878.344 455.152 878.344 452.778 878.224C448.956 878.064 445.133 877.783 441.914 877.583C439.54 879.066 437.648 880.429 435.636 881.551C431.733 883.676 427.79 885.68 423.846 887.764C421.834 888.847 420.144 888.085 418.414 887.163C414.752 885.199 411.091 883.195 407.348 881.391C405.216 880.349 402.922 879.667 401.031 878.906C398.093 880.389 398.013 884.678 394.15 884.117H394.19C393.828 883.355 393.466 882.593 392.701 880.95C388.436 886.562 386.384 892.735 382.521 897.705L382.481 897.465L382.601 897.665C380.428 901.153 378.014 904.48 376.123 908.127C373.547 913.138 371.334 918.389 369.081 923.279C368.96 922.919 368.719 922.117 368.357 920.794C365.942 922.558 365.178 925.003 363.89 927.047C362.602 929.052 361.516 931.176 360.309 933.221L360.389 933.14C360.027 933.501 359.705 933.822 359.343 934.183L359.383 934.102L359.424 933.982ZM320.794 842.629C320.794 842.949 320.794 843.31 320.794 843.631C321.237 843.631 321.639 843.671 322.082 843.711C321.961 843.35 321.84 843.03 321.76 842.669C321.76 842.308 321.76 841.947 321.76 841.587C322.243 841.386 322.725 841.186 323.168 840.985C323.088 840.865 323.007 840.745 322.967 840.665C322.605 840.985 322.202 841.346 321.84 841.667C321.518 841.987 321.196 842.308 320.834 842.589L320.794 842.629ZM396.162 837.819L396.081 837.899C395.759 837.899 395.478 837.899 395.156 837.899C393.278 839.849 392.996 841.653 394.311 843.31C396.283 841.667 395.558 839.702 395.116 837.819C395.478 837.819 395.84 837.819 396.162 837.819ZM436.683 837.899H436.723C437.045 838.46 437.326 839.101 437.648 839.743C438.011 840.063 438.332 840.424 438.695 840.745L438.775 840.985L438.614 840.825C438.292 840.504 437.93 840.143 437.608 839.823C437.286 839.181 437.005 838.58 436.683 837.939V837.899ZM440.546 844.633H440.586L440.707 844.793L440.546 844.633ZM438.534 847.319L438.574 847.359C438.574 847.72 438.574 848.12 438.574 848.481C438.574 848.481 438.534 848.521 438.574 848.521C438.574 848.12 438.574 847.679 438.574 847.278L438.534 847.319ZM367.149 778.212L367.029 778.092L367.19 778.172C367.19 778.172 367.391 778.373 367.471 778.493C367.351 778.413 367.27 778.333 367.149 778.212ZM395.075 814.89V814.569L395.116 814.81C395.116 815.732 395.116 816.654 395.116 817.576C394.11 816.132 393.144 814.609 392.057 813.287C390.569 811.483 388.959 809.799 387.39 808.035C387.269 806.352 386.625 805.109 384.855 804.708C383.326 807.835 383.567 808.837 386.504 811.763C386.867 815.652 388.798 818.738 391.776 821.263C391.615 820.341 391.414 819.46 391.253 818.538C392.5 819.54 393.707 820.542 395.639 822.105C395.438 819.981 395.317 818.778 395.196 817.616C395.518 816.614 395.8 815.652 396.122 814.649C396.242 814.409 396.363 814.208 396.524 813.968C396.403 814.208 396.323 814.449 396.202 814.689C395.84 814.73 395.478 814.77 395.075 814.81V814.89ZM432.86 751.275C432.659 751.436 432.417 751.556 432.216 751.716C432.417 751.556 432.618 751.395 432.82 751.235H432.86V751.275ZM356.607 878.144C356.888 878.865 357.21 879.547 357.492 880.268C357.492 882.193 357.331 884.197 360.188 884.798C361.556 882.233 362.723 879.547 361.838 876.661C361.033 874.015 359.625 871.57 358.538 869.085C358.176 872.732 357.814 876.54 357.452 880.349C357.17 879.627 356.848 878.906 356.567 878.224C356.486 877.984 356.406 877.743 356.406 877.663C356.406 877.703 356.526 877.944 356.647 878.144H356.607ZM465.735 752.357C465.454 752.678 465.172 752.999 465.494 752.638C465.252 753.079 465.494 752.678 465.655 752.317C466.258 752.197 466.822 752.077 467.425 751.997L466.178 750.954C466.017 751.435 465.896 751.917 465.735 752.398V752.357ZM387.47 761.817L387.43 761.858C387.068 761.056 386.706 760.254 386.343 759.452C386.142 759.613 385.901 759.773 385.7 759.933C386.303 760.575 386.907 761.176 387.47 761.817ZM386.545 750.273L386.464 750.353C386.062 749.03 385.7 747.668 383.768 747.748C383.647 749.992 384.975 750.313 386.504 750.273H386.545ZM373.065 738.889C371.415 737.245 369.765 735.602 368.115 733.998L368.196 733.918C368.598 736.724 369.886 738.648 373.024 738.809L373.145 738.488L373.065 738.849V738.889ZM416.442 778.172C418.937 776.529 421.271 774.765 421.834 770.316C417.489 773.883 413.907 776.809 409.682 780.257C411.252 780.697 411.936 780.858 412.62 781.058C411.788 783.864 412.499 785.681 414.752 786.51C416.724 784.024 417.529 781.299 416.442 778.172ZM380.71 809.037C380.348 805.991 378.215 806.312 376.565 807.394C374.071 808.997 371.495 810.761 371.334 814.369C371.294 815.611 370.449 816.774 369.966 817.976C369.322 815.772 369.121 813.768 366.224 814.73H366.264C365.661 814.689 364.735 814.289 364.574 814.489C361.516 818.097 359.987 825.272 365.017 828.96C366.626 828.318 368.316 827.677 370.006 826.996C369.725 828.679 368.92 829.761 368.035 830.764C367.149 831.846 366.224 832.888 365.298 833.93C364.373 836.335 363.649 838.74 365.218 841.226V833.89C365.379 834.331 365.661 834.812 365.661 835.253C365.5 841.586 369.403 843.911 374.916 844.753C376.042 844.913 377.129 845.194 378.215 845.475C380.63 846.036 382.641 845.755 384.01 843.35C384.372 842.669 385.096 842.188 385.619 841.627L385.539 841.707C387.229 838.861 388.718 835.894 390.609 833.249C392.218 831.044 392.339 828.679 391.333 826.595C389.361 822.506 386.867 818.658 384.613 814.73H384.653C384.573 812.084 382.521 810.641 380.79 808.997H380.75L380.71 809.037ZM348.76 831.164C348.358 832.327 345.139 832.207 347.352 834.572C347.794 835.013 347.432 836.576 346.99 837.378C346.426 838.38 345.38 839.141 344.414 840.184C346.708 842.067 348.519 841.586 350.45 840.504C351.295 837.177 351.094 834.171 348.8 831.164H348.76ZM364.131 875.017C364.534 875.138 364.936 875.218 365.339 875.338C366.506 873.334 367.673 871.37 368.759 869.365C369.443 868.083 370.087 866.64 368.236 865.718C366.506 864.836 364.534 865.637 364.212 867.682C363.85 870.087 364.131 872.572 364.131 875.017ZM345.34 875.819C348.478 865.277 348.519 863.393 345.621 861.749C343.891 866.118 345.219 870.448 345.34 875.819ZM356.888 833.008C357.17 833.008 357.452 833.088 357.693 833.088V830.523C357.412 830.523 357.13 830.523 356.888 830.523V832.968V833.008ZM351.014 897.425C350.531 897.986 350.209 898.226 350.088 898.547C350.008 898.748 350.249 899.068 350.37 899.349C350.692 899.188 351.255 899.108 351.335 898.868C351.456 898.587 351.215 898.146 351.014 897.425ZM356.607 864.956C356.325 865.036 356.084 865.116 355.802 865.196C356.003 865.758 356.204 866.319 356.446 866.88L357.049 866.68C356.929 866.118 356.768 865.557 356.647 864.996L356.607 864.956ZM348.921 865.677C349.163 865.677 349.404 865.677 349.645 865.677V863.032H348.8C348.841 863.954 348.881 864.836 348.921 865.718V865.677ZM339.988 875.939C339.747 875.939 339.545 875.939 339.304 875.979C339.344 876.621 339.384 877.262 339.425 877.863C339.666 877.863 339.867 877.863 340.109 877.823C340.069 877.182 340.028 876.54 339.988 875.939ZM401.715 830.804C401.111 830.483 400.749 830.122 400.347 830.082C400.105 830.082 399.663 830.683 399.703 830.964C399.703 831.285 400.146 831.605 400.427 831.926C400.709 831.686 401.031 831.405 401.755 830.804H401.715ZM349.605 883.435C349.605 883.435 349.243 883.114 349.082 882.954C349.002 883.074 348.8 883.235 348.841 883.275C349.002 883.475 349.163 883.636 349.324 883.796C349.404 883.676 349.484 883.596 349.645 883.435H349.605ZM392.46 836.776L392.54 836.496L392.259 836.576L392.46 836.776ZM336.206 810.641L336.527 810.841V810.44L336.206 810.641ZM428.313 754.282L428.595 754.161L428.353 754.001V754.322L428.313 754.282ZM325.864 901.032C325.864 901.032 325.864 901.313 325.904 901.473C326.065 901.353 326.226 901.233 326.307 901.073C326.307 901.032 326.186 900.872 326.106 900.752C326.025 900.872 325.945 900.952 325.864 901.073V901.032ZM380.79 744.381C380.549 744.26 380.348 744.14 380.106 744.02C380.066 744.14 379.945 744.38 379.986 744.421C380.187 744.581 380.428 744.661 380.67 744.781C380.67 744.661 380.75 744.501 380.79 744.381ZM356.848 840.063L357.049 840.304L357.17 840.023H356.848V840.063ZM328.077 886.923V886.201H327.715C327.715 886.441 327.715 886.682 327.715 886.923H328.117H328.077ZM392.017 846.557L392.259 846.397L392.017 846.276V846.557ZM392.379 759.052V758.771L392.178 758.851L392.379 759.052ZM339.626 751.676C339.626 751.916 339.626 752.117 339.586 752.357C339.666 752.237 339.867 752.157 339.867 752.037C339.867 751.916 339.747 751.796 339.626 751.676Z" fill="#FFE57C"/>
<path d="M182.775 637.595C179.958 641.443 176.98 645.251 174.324 649.219C169.697 656.154 165.11 663.089 160.844 670.264C157.142 676.437 153.843 682.85 150.543 689.264C148.853 692.511 147.525 695.958 146.077 699.325L146.036 699.285C146.439 700.127 146.801 700.969 147.565 702.612C150.342 698.163 152.877 694.275 154.647 689.986C157.022 684.253 159.879 678.802 164.385 674.392H164.345C162.937 680.806 159.396 686.298 156.458 692.11C155.774 693.513 155.251 694.996 154.688 696.439C152.837 699.405 150.704 702.292 149.255 705.458C148.531 707.022 148.571 709.266 149.095 710.99C149.94 713.876 151.428 716.602 152.716 719.368C155.653 725.741 158.591 732.115 161.609 738.448C162.575 740.412 163.943 742.216 165.069 744.1C167.564 748.349 170.341 752.518 172.312 757.008C173.157 758.932 172.192 761.617 172.071 763.942C171.83 763.221 171.628 762.539 171.387 761.818C171.186 761.938 170.944 762.058 170.743 762.179C171.186 762.74 171.669 763.301 172.111 763.862C171.95 763.862 171.789 763.982 171.669 763.942C169.858 763.221 168.087 762.219 166.196 761.858C164.385 761.497 162.414 761.858 160.522 761.858H160.563C159.919 760.655 159.235 759.373 158.591 758.09L158.631 758.05C157.102 761.537 155.694 762.339 152.515 760.816C147.847 758.571 143.099 757.168 137.868 757.088C136.298 757.088 134.729 755.725 133.24 754.843C131.349 753.721 129.538 752.438 127.728 751.235L127.768 751.275C124.549 747.748 124.508 747.748 121.128 750.434C120.404 750.995 119.72 751.636 119.036 752.278C118.915 752.037 118.794 751.796 118.714 751.556C118.473 751.796 118.231 752.037 117.99 752.278C117.346 754.242 116.662 756.206 116.018 758.17L115.937 757.849L116.058 758.13C113.724 760.415 112.477 763.181 111.229 766.187C109.057 771.599 105.837 776.609 103.343 781.94C100.928 787.111 98.7956 792.443 96.7837 797.774C96.1801 799.377 96.502 801.381 96.3813 804.147C97.9103 801.983 98.7554 800.78 99.7613 799.377C105.113 803.666 103.866 808.557 102.296 814.249C101.17 812.846 100.445 811.964 99.7211 811.042C101.29 808.356 100.928 805.791 99.3187 802.183C98.4737 805.951 98.9968 808.517 99.8016 811.082C98.6347 811.523 97.4275 811.964 96.0594 812.485C95.5765 811.884 95.0534 811.162 94.49 810.441C94.2486 810.601 93.8864 810.721 93.7657 810.962C93.4036 811.643 93.3231 812.846 92.8402 813.046C88.6151 814.77 88.4139 818.458 88.0518 822.146C87.6896 825.793 87.6896 825.713 83.7864 826.234C82.5792 826.395 81.4123 827.076 80.2454 827.517C77.0665 828.8 75.1752 828.479 73.0828 825.713C71.0708 823.067 68.6163 821.264 65.5179 820.101C62.178 818.818 60.2063 814.93 60.8904 811.443C61.2391 809.733 60.6623 808.356 59.1601 807.314C60.0856 799.698 60.9306 792.282 61.8963 784.867C62.0573 783.624 62.7011 782.461 63.1437 781.259H63.0633C63.1437 781.66 63.2242 782.101 63.3449 783.023C65.9605 778.253 68.3748 773.843 70.7892 769.434C70.8697 770.476 70.9904 771.518 71.0708 772.561C71.272 772.52 71.4733 772.48 71.6744 772.44C71.3525 771.478 71.0709 770.476 70.7489 769.514C70.7489 768.632 70.7489 767.71 70.7489 766.828C70.9099 766.427 71.1111 766.027 70.9099 766.468C71.0306 766.027 70.9099 766.468 70.7892 766.909L69.7027 766.628H69.743C67.2481 763.862 67.8517 759.132 63.1437 756.607C63.5864 757.97 63.7876 758.491 63.9485 759.012L64.029 758.972C61.0111 761.417 63.5864 763.942 63.7876 765.465C62.5402 769.033 61.5744 771.719 60.3672 775.206C60.2465 773.482 60.1258 772.48 60.0856 771.478C59.6027 760.856 61.8561 750.474 62.7413 739.971C63.023 736.805 63.184 733.598 63.1437 730.391C63.1437 727.345 62.339 726.463 59.0796 726.182C54.4521 725.781 49.7844 725.741 45.1569 725.461C41.8975 725.26 38.3967 725.821 35.2983 722.895C36.5055 722.294 37.3907 721.813 38.6784 721.132C37.7931 720.53 37.1493 719.729 36.425 719.608C28.9405 718.686 21.456 718.005 14.2935 715.48C10.6719 714.197 7.05042 712.874 3.71057 711.07C-0.43406 708.866 -0.755972 705.859 2.74483 702.692C9.78668 696.359 16.8688 690.106 24.1923 684.093C37.1895 673.39 50.2672 662.808 63.4657 652.386C67.3688 649.299 68.9382 645.571 68.9784 640.761C68.9784 636.953 69.3808 633.105 69.6223 628.736C70.7489 629.417 71.433 629.858 72.1171 630.259C73.9681 627.092 73.7266 614.666 71.6342 606.088L71.6744 606.128C69.3808 603.162 69.4613 602.761 72.5999 602.039C73.284 601.879 73.9278 601.518 74.6119 601.278H74.5717C76.2617 601.719 76.6239 600.316 77.4286 599.354C80.3661 595.786 82.2171 595.946 84.7119 599.875C87.8908 604.885 92.3976 607.651 98.353 608.252C99.6004 608.373 100.928 609.455 101.854 610.457C102.9 611.62 103.504 613.183 104.389 614.506C106.119 616.991 107.93 617.392 110.586 615.989C111.592 615.468 112.517 614.826 113.402 614.145C120.645 608.854 128.09 603.763 135.091 598.191C142.576 592.259 151.106 588.13 159.235 583.28C162.253 581.476 165.391 579.832 168.409 578.028C172.111 575.784 175.934 575.784 180.199 576.986C179.797 577.748 179.515 578.229 179.234 578.75C179.435 578.95 179.676 579.311 179.877 579.311C182.533 579.552 184.787 580.433 186.839 582.237C188.891 584.001 191.265 585.444 193.559 586.847C195.973 588.29 197.945 590.054 199.112 592.619L199.071 592.579C199.997 593.18 200.842 593.902 201.848 594.343C205.107 595.786 205.751 597.109 205.148 600.636C203.578 609.816 199.273 617.672 193.921 625.088C192.995 626.371 192.191 627.774 191.144 628.976C189.696 630.58 188.006 631.983 186.477 633.546C185.149 634.909 183.942 636.352 182.694 637.755L182.734 637.715L182.775 637.595ZM117.064 636.793L117.024 636.753H117.064V636.793ZM59.9649 683.893L59.9246 683.812L61.0915 683.893C61.7354 684.895 62.4999 685.656 63.5864 684.494C63.7473 684.334 63.184 683.492 62.9426 682.971C63.2242 682.49 63.4657 682.049 63.7473 681.568C63.5864 681.447 63.4254 681.287 63.2242 681.167C62.4999 681.768 61.8158 682.329 61.0915 682.931C60.7294 683.251 60.3672 683.532 60.0051 683.853L59.9649 683.893ZM71.6342 757.97L71.6744 758.01H71.6342V757.97ZM31.1134 689.705L31.0732 689.665H31.1134V689.705ZM28.2162 691.669C27.8943 691.99 27.5724 692.31 27.2102 692.671C26.8883 692.992 26.5664 693.313 26.2445 693.673C22.7437 695.076 19.8062 697.241 17.5931 700.327L17.4723 700.728C17.4723 700.728 17.5528 700.448 17.5931 700.327C21.2548 699.085 23.9106 696.6 26.2445 693.633C26.5664 693.313 26.8883 692.992 27.2102 692.631C27.5321 692.311 27.854 691.99 28.2162 691.629L28.2564 691.669H28.2162ZM100.647 780.177L100.486 780.337L100.566 780.096H100.606L100.647 780.177ZM112.235 717.724L112.075 717.885L112.155 717.644H112.195L112.235 717.724ZM48.4967 687.941C48.4967 687.941 48.4162 688.142 48.376 688.222C48.376 688.102 48.4162 687.981 48.4565 687.901C48.7784 687.58 49.1405 687.22 49.4624 686.899C54.3314 685.416 57.7517 681.929 61.3732 678.601C62.5804 677.559 63.8278 676.517 65.035 675.475C65.1155 675.395 65.2362 675.274 65.3167 675.194C65.2362 675.114 65.1155 674.994 65.1155 674.994C64.9947 675.034 64.9143 675.154 64.8338 675.234C63.5059 676.156 62.178 677.038 60.8099 677.96C57.0676 680.926 53.2852 683.933 49.5429 686.899C49.221 687.22 48.8589 687.58 48.5369 687.901L48.4967 687.941ZM49.5027 674.473L49.3015 674.753L49.4222 674.433H49.4624L49.5027 674.473ZM140.242 674.473C140.564 673.791 140.845 673.15 141.167 672.468C141.288 672.228 141.409 672.028 141.53 671.787C141.409 672.028 141.328 672.268 141.208 672.508C140.886 673.19 140.604 673.831 140.282 674.513L140.242 674.473ZM122.899 640.841C122.899 640.521 122.859 640.2 122.818 639.879C126.118 636.913 129.257 633.786 132.677 630.94C136.862 627.493 140.805 623.244 145.674 621.24C150.624 619.196 152.475 615.588 154.406 611.299C148.732 614.626 143.26 618.234 138.27 622.563H138.31C130.585 625.729 125.434 632.223 119.157 637.234C118.633 637.635 118.432 638.998 118.674 639.719C119.197 641.202 120.525 641.242 121.853 640.801C122.215 640.801 122.537 640.801 122.899 640.801V640.841ZM65.7593 794.607L67.3689 793.485L66.7653 792.964C66.4434 793.525 66.1214 794.126 65.7995 794.687C65.6386 795.168 65.4374 795.649 65.2764 796.17C65.4374 796.17 65.5983 796.211 65.7593 796.251C65.7593 795.73 65.7593 795.168 65.7593 794.647V794.607ZM126.762 618.755C125.394 619.035 124.066 619.436 123.543 621.48C125.555 621.16 126.319 620.118 126.722 618.715H126.762V618.755ZM143.099 668.781C144.145 667.658 145.513 666.656 146.238 665.333C149.175 660.122 151.871 654.791 154.688 649.54C156.096 648.297 157.826 647.215 158.873 645.732C163.259 639.479 167.484 633.105 171.669 626.691C173.278 624.246 174.727 621.641 176.216 619.115C174.646 619.316 173.52 619.957 172.876 620.919C167.001 629.698 161.206 638.476 155.412 647.335C155.01 647.977 154.969 648.818 154.728 649.58C153.44 650.863 152.153 652.145 150.825 653.468L150.865 653.428C149.899 655.192 148.893 656.956 147.968 658.759C146.318 662.086 144.708 665.494 143.099 668.861L143.018 668.781H143.099ZM146.077 658.278C145.674 658.519 145.111 658.679 144.869 659C141.369 664.451 137.868 669.943 134.447 675.475C134.286 675.715 134.689 676.236 134.971 677.118C135.936 676.116 136.822 675.435 137.345 674.553C139.558 670.905 141.771 667.217 143.823 663.449C144.749 661.806 145.312 659.962 146.036 658.198C146.197 658.158 146.358 658.118 146.479 658.038C146.559 657.998 146.479 657.797 146.479 657.677C146.358 657.878 146.197 658.038 146.077 658.238V658.278ZM132.516 645.732C134.327 643.888 136.137 642.004 138.471 639.639C131.912 640.2 124.508 645.05 122.778 649.46C125.474 648.818 128.09 648.217 130.665 647.616C129.297 649.139 127.969 650.742 126.601 652.226C124.307 654.711 124.227 655.833 126.279 659.561C127.084 659.24 128.412 659.12 128.693 658.519C130.464 654.791 131.993 650.983 133.522 647.135C133.643 646.814 132.878 646.173 132.556 645.652L132.516 645.732ZM162.373 655.192C163.42 654.23 164.707 653.388 165.432 652.226C171.95 641.683 178.429 631.141 184.827 620.518C185.31 619.757 185.39 618.715 185.632 617.833L185.793 617.552L185.712 617.873C184.827 618.755 183.7 619.516 183.097 620.558C176.175 632.063 169.335 643.647 162.454 655.192L162.373 655.432L162.414 655.112L162.373 655.192ZM86.1605 693.794C85.5569 697.882 84.9534 701.971 84.39 706.06C84.0681 708.545 85.7581 709.948 87.4079 711.912C89.5004 706.34 89.1382 701.009 89.0175 695.878C88.8968 690.627 91.6733 685.536 89.8223 679.163C88.8968 682.129 88.5346 684.173 87.6494 685.977C86.402 688.502 85.9593 691.108 86.1203 693.834H86.1605V693.794ZM53.3254 705.298C55.0557 705.659 56.8262 704.977 58.476 706.781C59.7234 708.144 63.2645 706.781 64.0692 704.657C65.1155 701.891 65.5581 698.844 66.1617 695.918C66.2422 695.597 65.3971 695.116 64.9545 694.675V694.716C65.1155 693.713 65.7593 692.431 65.3167 691.829C64.874 691.188 63.184 690.707 62.4999 691.028C56.5445 693.994 50.3879 696.72 45.4385 701.33C44.8752 701.851 44.8752 702.933 44.5533 703.975C48.0138 704.897 50.8708 704.536 53.5266 702.733C54.6935 701.931 55.9812 701.289 57.2286 700.568H57.1884C55.9409 702.131 54.6935 703.735 53.4461 705.338H53.4059L53.3254 705.298ZM83.8267 729.79C83.5852 732.596 83.384 735.081 83.1426 737.566C84.5912 735.843 85.5167 734.079 86.3215 732.315C87.0458 730.672 86.2008 730.03 83.8267 729.79ZM75.7788 631.622C75.7788 631.622 76.0605 631.622 76.2215 631.622V624.647C76.2215 624.647 75.9398 624.647 75.7788 624.647V631.622ZM46.3238 722.815C46.6859 722.294 46.9676 721.893 47.2895 721.452C46.9274 721.252 46.4848 720.771 46.2031 720.851C45.7605 721.011 45.4385 721.492 45.0361 721.853C45.3581 722.094 45.7202 722.334 46.3238 722.775V722.815ZM67.6103 704.496C67.9322 704.496 68.2944 704.536 68.6163 704.576V701.57C68.3346 701.57 68.0932 701.57 67.8115 701.57C67.731 702.532 67.6505 703.494 67.6103 704.496ZM105.033 769.995L106.039 770.356L106.441 768.231C106.24 768.191 105.998 768.111 105.797 768.071C105.556 768.712 105.314 769.354 105.033 769.995ZM58.7174 722.094C58.9991 722.013 59.2406 721.933 59.5222 721.853C59.3613 721.613 59.2003 721.292 58.9991 721.212C58.7979 721.132 58.476 721.332 58.1943 721.412C58.3553 721.653 58.5565 721.853 58.7174 722.094ZM65.1557 751.396C65.1557 751.396 65.3569 751.155 65.4374 751.035C65.1959 750.915 64.9545 750.754 64.7131 750.674C64.6728 750.674 64.5521 750.915 64.4314 751.035C64.6728 751.155 64.9143 751.275 65.1557 751.396ZM67.9322 751.035C68.1736 751.075 68.3748 751.115 68.6163 751.155C68.6163 750.674 68.5358 750.193 68.4956 749.712C68.3346 749.712 68.2139 749.712 68.0529 749.712C68.0127 750.153 67.9725 750.554 67.892 750.995L67.9322 751.035ZM63.3852 803.827C63.3852 803.827 63.4254 803.546 63.3852 803.426C63.3449 803.346 63.1437 803.386 63.023 803.346C63.023 803.546 63.023 803.787 63.023 803.987C63.1437 803.907 63.2645 803.867 63.3852 803.787V803.827ZM70.6282 746.505C70.6282 746.505 70.6282 746.265 70.6282 746.104C70.4673 746.185 70.3063 746.305 70.1454 746.385C70.2258 746.465 70.2661 746.585 70.3466 746.706C70.427 746.626 70.5478 746.545 70.6282 746.505ZM104.51 697.842L104.429 698.163L104.751 698.043L104.51 697.802V697.842ZM69.0589 758.491C69.2198 758.29 69.3406 758.17 69.4613 758.01C69.3406 758.01 69.2199 757.97 69.0991 757.929C69.0991 758.05 69.0991 758.21 69.0589 758.451V758.491ZM70.1051 785.147V785.548L70.3868 785.307L70.1051 785.147ZM100.284 776.97H100.043L100.204 777.25L100.325 776.97H100.284ZM65.1557 660.764L65.0752 661.084L65.3569 661.004L65.1155 660.764H65.1557ZM70.1856 789.797L70.3868 789.476H70.0649L70.1856 789.797ZM51.7158 672.348L51.8366 672.629L51.9975 672.348H51.7158Z" fill="#FFE57C"/>
<path d="M362.281 604.966C360.994 605.928 359.706 606.93 358.418 607.892L358.499 607.812C358.137 608.173 357.774 608.533 357.453 608.854C355.521 609.776 353.63 610.738 351.698 611.66L351.739 611.74C351.376 612.101 351.055 612.422 350.692 612.782L350.612 612.742C347.835 613.263 346.347 615.388 344.898 617.512L344.938 617.552C344.375 617.392 343.53 616.911 343.248 617.112C341.116 618.755 339.144 620.559 337.092 622.322L337.132 622.282C335.08 622.282 334.476 623.565 334.396 625.329H334.114L334.355 625.249C336.247 625.69 335.965 626.852 335.321 628.135C335.12 628.295 334.959 628.496 334.758 628.656C334.919 628.455 335.08 628.255 335.241 628.095C336.528 629.738 336.568 631.422 334.878 632.745C325.382 640.08 317.374 649.3 306.309 654.551C301.52 656.836 296.691 658.439 290.575 656.715C292.989 653.949 295.122 651.504 297.295 649.059C297.094 648.779 296.893 648.498 296.651 648.257C295.364 648.979 294.036 649.66 292.788 650.422C291.259 651.344 289.851 651.665 288.402 650.262C286.35 648.298 284.459 648.658 282.527 650.542C280.958 652.066 279.107 652.066 277.176 651.063C276.21 650.542 275.123 649.821 274.158 649.901C271.341 650.141 271.582 647.456 270.053 646.053C268.403 646.293 266.552 646.534 263.816 646.895C264.822 645.732 265.184 645.011 265.748 644.73C268.484 643.447 269.812 641.042 271.623 638.797C278.946 629.778 279.912 618.514 283.252 608.173C287.155 596.147 290.253 583.881 293.674 571.695C293.754 571.375 293.835 571.094 293.915 570.773C295.444 565.402 295.283 564.801 289.73 563.718C281.924 562.195 274.681 559.309 267.357 556.383C263.052 554.659 258.384 553.898 253.958 552.414C245.869 549.689 244.823 547.564 246.835 539.106C246.956 538.625 247.117 538.184 247.238 537.743L247.318 537.663C248.928 536.581 250.376 535.218 252.107 534.537C259.269 531.771 266.391 528.804 273.755 526.76C285.103 523.553 296.651 520.948 308.16 518.302C311.218 517.621 312.868 516.057 313.914 513.291C314.638 511.367 315.845 509.644 316.811 507.84L316.851 507.88C317.334 505.595 317.495 503.15 318.34 501.026C321.157 494.091 324.175 487.236 327.193 480.382C329.406 475.451 333.027 471.643 337.333 468.477C339.265 467.074 341.679 466.553 343.691 467.675C348.157 470.2 352.825 472.164 357.734 473.527C363.69 475.211 367.915 479.34 371.898 483.789C371.737 483.949 371.577 484.07 371.496 484.11C371.536 484.03 371.697 483.869 371.818 483.709C375.359 486.595 378.256 489.922 379.423 494.532C379.785 495.895 380.63 497.137 381.234 498.46C383.729 503.952 387.149 506.678 393.949 505.555C400.026 504.553 406.464 505.154 412.701 505.675C419.34 506.196 425.457 508.361 430.849 512.73C433.384 514.775 436.683 516.057 439.822 517.26C443.283 518.623 446.542 520.186 449.278 522.792C451.33 524.756 453.825 526.239 456.119 527.923C458.292 529.526 459.177 531.851 457.889 534.256C455.113 539.507 451.813 544.397 446.944 548.085C440.426 553.016 433.867 557.946 427.348 562.837C424.893 564.68 422.479 566.484 420.024 568.288C419.381 568.769 418.656 569.17 418.093 569.731C414.552 573.218 413.345 575.383 417.852 580.033C422.117 577.508 426.422 574.902 430.768 572.296L430.728 572.256C427.992 574.421 425.336 576.746 422.439 578.71C418.656 581.235 418.214 582.077 420.145 586.126C421.795 589.613 423.767 592.94 425.296 596.428C426.785 599.915 427.911 603.523 429.118 606.81C425.537 610.377 421.433 607.451 417.892 609.175C418.415 610.097 418.857 610.818 419.582 612.021C417.006 611.139 414.914 610.457 412.822 609.656C407.188 607.491 401.595 605.246 395.961 603.082C395.519 602.921 395.036 602.801 394.553 602.761C389.966 602.4 385.338 601.919 380.751 601.759C379.463 601.719 378.135 602.681 376.808 603.162L376.848 603.242C376.727 602.521 376.606 601.799 376.365 600.196C373.588 602.04 371.335 603.523 369.041 605.006L369.122 605.086C368.76 604.124 368.398 603.162 368.035 602.2L368.076 602.16C366.788 603.122 365.5 604.084 364.213 605.046C363.529 605.086 362.845 605.086 362.161 605.086L362.281 604.966ZM325.664 552.094L325.623 552.054H325.664V552.094ZM309.246 571.415L309.206 571.375H309.246V571.415ZM336.287 608.974C335.965 609.295 335.643 609.616 335.321 609.936C335.2 609.936 335.08 609.936 334.959 610.016C334.878 610.056 334.878 610.177 334.838 610.297C334.999 610.177 335.12 610.057 335.281 609.936C335.603 609.616 335.925 609.295 336.247 608.974L336.287 609.014V608.974ZM331.458 612.822C331.136 613.143 330.814 613.464 330.492 613.784C328.722 614.746 326.79 615.468 325.181 616.671C322.002 619.076 319.064 621.721 316.006 624.247C315.041 625.088 313.753 625.77 314.88 627.533C315.242 626.411 315.604 625.289 315.966 624.166C317.334 623.926 318.984 624.046 320.07 623.365C324.094 620.799 328.239 618.234 330.492 613.704C330.814 613.384 331.136 613.063 331.458 612.702L331.498 612.742L331.458 612.822ZM281.199 624.367H281.24C281.24 624.688 281.24 625.048 281.28 625.409C280.837 626.211 280.354 627.012 279.912 627.774C280.153 627.854 280.395 627.934 280.636 628.015C280.837 627.133 281.038 626.251 281.24 625.369C281.24 625.048 281.24 624.728 281.199 624.367ZM329.527 626.291C329.527 626.612 329.486 626.972 329.446 627.293C329.164 627.934 328.843 628.536 328.561 629.177L328.521 629.137C328.802 628.536 329.124 627.975 329.406 627.373C329.406 627.012 329.406 626.652 329.446 626.251L329.527 626.331V626.291ZM413.586 589.533V589.814V589.573L413.465 589.373L413.626 589.533H413.586ZM319.789 580.033L319.95 579.832L319.869 580.113H319.829L319.789 580.033ZM321.76 638.757L321.559 638.837L321.72 638.717H321.76V638.757ZM338.259 505.194C337.937 506.116 337.574 507.038 337.253 507.96H337.212C337.534 506.998 337.896 506.076 338.218 505.154L338.299 504.914V505.194H338.259ZM328.521 546.442H328.561C328.843 546.602 329.164 546.843 329.446 547.083C329.527 546.963 329.567 546.883 329.647 546.762C329.285 546.642 328.883 546.562 328.521 546.482V546.442ZM321.881 633.987C322.123 633.626 322.324 633.266 322.042 633.747C322.203 633.186 322.082 633.586 321.962 634.027H321.68H321.921L321.881 633.987ZM306.389 577.067C305.826 577.267 305.262 577.508 304.659 577.708C304.78 577.948 304.941 578.189 305.061 578.389C305.504 577.908 305.946 577.467 306.389 576.986C306.55 577.588 306.671 578.149 306.952 579.151C307.958 577.548 308.401 576.626 306.389 577.067ZM320.754 598.312C322.203 597.51 323.169 596.468 321.962 594.544C321.6 595.826 321.197 597.109 320.835 598.392C320.594 598.552 320.392 598.712 320.151 598.873C320.312 598.953 320.513 599.073 320.674 599.153C320.674 598.873 320.674 598.592 320.714 598.312H320.754ZM302.526 594.624C300.394 596.548 300.112 599.113 299.75 601.679C300.072 601.759 300.394 601.879 300.715 601.959C301.279 599.514 301.882 597.029 302.446 594.584C302.486 594.343 302.526 594.103 302.566 593.862C302.566 594.103 302.526 594.383 302.486 594.624H302.526ZM315.081 596.548C312.908 598.512 312.948 601.078 312.827 603.563C313.149 603.643 313.431 603.683 313.753 603.763C314.196 601.318 314.598 598.913 315.041 596.468L315.161 596.267V596.548H315.081ZM342.967 540.589L342.926 540.629C342.081 541.191 340.834 541.591 340.472 542.393C339.788 543.956 339.546 545.76 339.144 547.444C338.138 548.366 337.172 549.288 336.166 550.21C336.568 547.604 336.931 544.999 337.333 542.393C334.717 545.8 333.027 551.733 333.269 554.459C334.275 552.976 335.241 551.533 336.206 550.13C336.005 552.695 334.355 555.1 335.361 558.066C338.983 554.178 339.908 551.412 339.063 547.404C341.679 545.881 342.162 543.155 342.967 540.589ZM305.262 632.063L305.303 632.023C304.9 632.705 304.498 633.426 303.814 634.629C309.327 632.023 309.85 631.542 311.017 628.375C308.884 629.738 307.073 630.901 305.262 632.063ZM338.138 584.883L338.098 584.923C338.54 584.803 339.023 584.643 339.466 584.522C341.437 584.082 343.329 583.4 343.49 581.035C343.651 578.43 341.115 578.349 339.586 577.508C338.017 576.666 336.086 576.024 334.758 577.788C331.498 581.997 330.13 586.887 329.889 592.259C332.182 591.177 334.074 589.894 335.321 587.769C336.287 586.807 337.253 585.805 338.218 584.843L338.138 584.883ZM362.281 551.292C361.959 549.969 361.637 548.686 361.316 547.364H361.275C360.43 546.081 359.465 544.798 358.7 543.435C357.774 541.752 357.01 539.988 356.084 538.345C353.912 534.376 350.974 534.176 348.399 537.783C348.037 538.305 347.715 538.866 347.473 539.467C345.461 544.478 343.449 549.528 341.518 554.579C340.834 556.343 340.431 558.187 339.747 560.552C342.645 561.714 345.22 562.837 347.916 563.758C351.095 564.841 354.314 565.723 357.533 566.725L357.211 566.805L357.493 566.644C358.257 566.805 359.062 567.126 359.827 567.085C364.615 566.805 367.19 562.556 365.259 558.227C364.253 555.902 363.247 553.577 362.241 551.252L362.322 551.332L362.281 551.292ZM411.614 529.807C409.965 529.245 408.556 528.323 407.228 528.444C404.532 528.604 401.877 529.326 399.221 529.887C397.088 530.328 395.438 531.731 396.002 533.855C396.485 535.659 398.094 537.182 399.341 538.745C399.502 538.946 400.951 538.585 400.991 538.425C401.313 535.699 403.848 536.26 405.377 535.458C407.671 534.336 410.126 533.494 411.614 529.847V529.807ZM292.225 643.527C295.042 643.127 298.06 641.483 299.709 639.238C300.353 638.397 300.394 637.114 301.037 635.029C296.611 637.354 293.03 638.757 292.225 643.527ZM300.152 584.001C299.83 583.881 299.468 583.801 299.146 583.681C297.013 586.527 295.927 592.419 297.054 597.229C298.221 592.219 299.186 588.13 300.152 584.001ZM297.657 547.203C297.496 547.684 297.335 548.206 297.174 548.687C298.019 548.967 298.905 549.288 299.75 549.568C299.911 549.047 300.072 548.526 300.273 548.005C299.428 547.765 298.543 547.484 297.697 547.243L297.657 547.203ZM325.744 629.097C325.181 628.576 324.778 628.055 324.617 628.095C324.135 628.295 323.692 628.736 323.249 629.057C323.491 629.377 323.813 629.939 324.014 629.899C324.537 629.818 324.98 629.458 325.744 629.057V629.097ZM315.523 591.577L316.57 592.058C316.811 591.337 317.093 590.615 317.334 589.894C317.093 589.774 316.851 589.693 316.61 589.573C316.248 590.255 315.886 590.936 315.523 591.617V591.577ZM319.386 583.119C318.461 583.641 318.018 583.801 318.018 583.921C318.058 584.402 318.26 584.883 318.38 585.364C318.622 584.803 318.904 584.202 319.386 583.079V583.119ZM302.003 644.008C301.802 644.249 301.601 644.449 301.399 644.69C301.601 644.81 301.842 644.97 302.084 645.011C302.164 645.011 302.405 644.77 302.365 644.69C302.285 644.449 302.124 644.249 302.003 644.008ZM370.289 598.552C370.168 598.753 370.007 598.953 369.886 599.194C370.007 599.274 370.249 599.394 370.249 599.394C370.41 599.193 370.53 598.993 370.651 598.793C370.53 598.713 370.41 598.672 370.289 598.592V598.552ZM310.494 638.717C310.494 638.717 310.292 638.477 310.172 638.517C310.051 638.517 309.93 638.637 309.809 638.717C309.97 638.837 310.131 638.958 310.292 639.078C310.333 638.958 310.413 638.837 310.453 638.717H310.494ZM306.912 641.002L307.234 641.202V640.802L306.912 640.962V641.002ZM324.457 588.691V588.33L324.175 588.451L324.457 588.691ZM313.552 589.293L313.391 589.573H313.672L313.552 589.293Z" fill="#FFE57C"/>
<path d="M58.0751 814.769C57.3106 815.891 56.546 817.054 55.3388 818.898C54.7352 815.891 56.0631 814.408 57.1496 812.845L57.1094 812.765C57.4715 813.446 57.7934 814.128 58.1556 814.769H58.1153H58.0751Z" fill="#FFE57C"/>
<path d="M158.591 698.362C159.717 696.038 160.804 693.713 161.931 691.388L162.937 691.949C161.488 694.073 159.999 696.158 158.551 698.282L158.591 698.322V698.362Z" fill="#FFE57C"/>
<path d="M166.316 668.539L168.288 667.697V667.617C167.322 669.501 166.356 671.345 165.391 673.229L165.431 673.269C163.982 671.706 164.224 670.143 165.31 668.499C165.672 668.459 166.035 668.459 166.397 668.459L166.316 668.539Z" fill="#FFE57C"/>
<path d="M366.266 933.06C367.433 931.417 368.599 929.813 369.766 928.17C369.927 930.775 368.398 932.098 366.225 932.98L366.306 933.06H366.266Z" fill="#FFE57C"/>
<path d="M63.1029 781.217C62.3786 779.453 61.8555 777.689 63.8272 776.006C63.5858 777.73 63.3041 779.453 63.0627 781.177L63.1432 781.217H63.1029Z" fill="#FFE57C"/>
<path d="M358.498 613.663C359.665 613.022 360.832 612.421 362.361 611.579C361.771 613.37 360.47 614.078 358.458 613.704H358.498V613.663Z" fill="#FFE57C"/>
<path d="M350.975 620.598C350.412 620.999 349.848 621.399 349.325 621.84C349.084 621.56 348.802 621.279 348.561 620.999C349.124 620.558 349.687 620.117 350.251 619.676C350.492 619.996 350.733 620.317 350.975 620.638V620.598Z" fill="#FFE57C"/>
<path d="M317.858 821.342L315.363 825.07C315.082 824.829 314.84 824.589 314.559 824.388C315.685 823.386 316.812 822.424 317.939 821.422C317.939 821.422 317.858 821.342 317.898 821.342H317.858Z" fill="#FFE57C"/>
<path d="M63.9089 758.892C64.4723 759.894 64.9954 760.936 65.5587 761.938C63.3053 761.537 64.2309 759.974 63.9894 758.852L63.9089 758.892Z" fill="#FFE57C"/>
<path d="M456.119 772.44C457.044 770.877 458.01 769.313 458.936 767.75L458.895 767.71C457.93 769.273 457.004 770.837 456.038 772.4L456.119 772.48V772.44Z" fill="#FFE57C"/>
<path d="M360.35 933.061C362.322 933.061 364.293 933.061 366.305 933.061L366.225 932.98C364.575 935.105 362.442 934.343 360.39 933.983V934.063C360.43 933.702 360.43 933.381 360.43 933.021L360.35 933.101V933.061Z" fill="#FFE57C"/>
<path d="M364.295 608.854C365.945 607.571 367.554 606.329 369.204 605.046L369.124 604.966C367.514 606.249 365.864 607.531 364.255 608.814L364.295 608.854Z" fill="#FFE57C"/>
<path d="M195.291 633.867C196.256 632.303 197.262 630.78 198.228 629.217L198.188 629.137C197.222 630.7 196.216 632.263 195.25 633.786L195.291 633.827V633.867Z" fill="#FFE57C"/>
<path d="M445.415 552.092C445.939 551.811 446.462 551.531 446.985 551.29L447.146 551.891C446.542 551.931 445.939 552.012 445.335 552.052H445.375L445.415 552.092Z" fill="#FFE57C"/>
<path d="M60.3284 781.543H59.9658C59.9658 781.543 59.9658 781.261 60.0061 781.14C60.0061 781.1 60.2478 781.14 60.3686 781.14C60.3686 781.261 60.3686 781.422 60.3686 781.543H60.3284Z" fill="#FFE57C"/>
<path d="M463.804 881.11C462.516 880.148 461.188 879.146 459.901 878.184V878.264C461.188 879.226 462.476 880.188 463.764 881.15H463.844L463.804 881.11Z" fill="#FFE57C"/>
<path d="M456.04 772.36C455.516 773.082 454.953 773.763 454.43 774.485C454.309 774.365 454.189 774.284 454.068 774.164C454.752 773.603 455.436 773.002 456.12 772.441L456.04 772.36Z" fill="#FFE57C"/>
<path d="M303.934 668.381L303.692 668.623L303.611 668.301L303.934 668.381Z" fill="#FFE57C"/>
<path d="M295.566 855.577L295.848 855.859L295.486 855.94L295.566 855.577Z" fill="#FFE57C"/>
<path d="M126.642 753.079C126.119 752.798 125.556 752.517 125.033 752.277C125.113 752.117 125.153 751.916 125.234 751.756C125.717 751.916 126.159 752.117 126.642 752.277L126.602 752.237C126.602 752.558 126.602 752.838 126.602 753.159L126.642 753.119V753.079Z" fill="#FFE57C"/>
<path d="M61.9773 821.826C61.9773 821.826 61.6953 821.826 61.6147 821.785C61.5342 821.705 61.5342 821.544 61.4939 821.423C61.6953 821.423 61.8967 821.423 62.0981 821.463C62.0981 821.584 62.0175 821.705 62.0175 821.826H61.9773Z" fill="#FFE57C"/>
<path d="M353.671 617.512C353.994 617.27 354.316 617.029 353.953 617.311C354.356 617.149 353.953 617.311 353.591 617.472L353.631 617.512H353.671Z" fill="#FFE57C"/>
<path d="M376.889 603.121C376.567 603.282 376.244 603.403 376.687 603.202C376.204 603.282 376.607 603.202 376.969 603.202L376.929 603.121H376.889Z" fill="#FFE57C"/>
<path d="M360.35 607.892C359.384 608.212 358.418 608.533 357.452 608.854C357.815 608.493 358.177 608.132 358.499 607.812L358.418 607.892C359.062 607.892 359.746 607.892 360.39 607.892H360.35Z" fill="#FFE57C"/>
<path d="M92.2768 828.479L92.3574 828.842L92.0352 828.721L92.2768 828.479Z" fill="#FFE57C"/>
<path d="M464.69 758.892C464.047 759.533 463.363 760.214 462.719 760.856H462.799C462.799 760.174 462.799 759.493 462.799 758.852L462.719 758.932C463.403 758.932 464.087 758.932 464.731 758.932V758.852L464.69 758.892Z" fill="#FFE57C"/>
<path d="M57.1491 812.845C57.471 812.845 57.7929 812.805 58.1148 812.765C57.7527 812.765 57.4308 812.765 57.0686 812.765V812.845H57.1491Z" fill="#FFE57C"/>
<path d="M69.6648 766.509C69.5439 766.75 69.4634 766.952 69.4231 767.032C69.4634 766.952 69.5842 766.751 69.7454 766.549L69.7051 766.509H69.6648Z" fill="#FFE57C"/>
<path d="M360.35 933.982C360.19 934.223 360.029 934.504 359.908 934.744C359.747 934.504 359.586 934.223 359.425 933.982L359.385 934.063C359.747 934.063 360.069 934.063 360.431 934.063L360.391 933.982H360.35Z" fill="#FFE57C"/>
<path d="M90.9089 825.192C90.9089 824.27 90.9894 823.348 91.0297 822.426H90.9894C90.9894 823.348 90.9089 824.23 90.9089 825.152V825.232V825.192Z" fill="#FFE57C"/>
<path d="M173.078 666.577V665.895C173.078 665.895 173.199 666.095 173.159 666.175C173.159 666.296 173.078 666.376 172.998 666.496L173.038 666.537L173.078 666.577Z" fill="#FFE57C"/>
<path d="M182.695 637.635L182.815 637.877L182.775 637.595L182.695 637.635Z" fill="#FFE57C"/>
<path d="M168.289 667.7L168.329 667.418L168.249 667.619L168.289 667.7Z" fill="#FFE57C"/>
<path d="M198.188 629.216C198.47 628.535 198.751 627.893 199.073 627.212L199.033 627.172C198.751 627.853 198.47 628.495 198.188 629.176L198.228 629.256L198.188 629.216Z" fill="#FFE57C"/>
<path d="M459.781 765.505C459.499 766.226 459.177 766.948 458.895 767.67L458.935 767.71C459.217 766.988 459.539 766.267 459.821 765.545L459.781 765.465V765.505Z" fill="#FFE57C"/>
<path d="M167.201 682.931L167.443 682.729L167.242 682.891L167.201 682.931Z" fill="#FFE57C"/>
<path d="M123.744 764.703L123.665 764.902L123.824 764.743L123.744 764.703Z" fill="#FFE57C"/>
<path d="M200.159 626.131C200.441 625.53 200.762 624.929 201.044 624.327V624.287C200.722 624.888 200.4 625.49 200.119 626.091L200.159 626.131Z" fill="#FFE57C"/>
<path d="M339.345 623.405L339.506 623.204L339.265 623.446L339.345 623.405Z" fill="#FFE57C"/>
<path d="M58.1143 812.765C58.1143 813.446 58.1143 814.087 58.1143 814.769H58.1545C58.1545 814.087 58.1545 813.406 58.1545 812.765H58.1143Z" fill="#FFE57C"/>
<path d="M127.687 754.202L127.889 754.283L127.728 754.162L127.687 754.202Z" fill="#FFE57C"/>
<path d="M431.854 818.539C431.572 817.858 431.25 817.217 430.968 816.535L430.928 816.575C431.25 817.217 431.532 817.898 431.854 818.539Z" fill="#FFE57C"/>
<path d="M90.8687 825.151L90.8284 825.433L90.9089 825.192L90.8687 825.151Z" fill="#FFE57C"/>
<path d="M364.294 604.966C363.61 604.966 362.966 604.966 362.282 604.966V605.006C362.966 605.006 363.65 605.006 364.334 605.006L364.294 604.966Z" fill="#FFE57C"/>
<path d="M127.689 751.155C127.327 751.516 126.964 751.877 126.602 752.238L126.643 752.278C127.005 751.917 127.367 751.556 127.729 751.195L127.689 751.155Z" fill="#FFE57C"/>
<path d="M126.602 753.12C126.964 753.481 127.327 753.842 127.689 754.202L127.729 754.162C127.367 753.802 127.005 753.441 126.643 753.08L126.602 753.12Z" fill="#FFE57C"/>
<path d="M167.242 682.891L167.201 683.132V682.931L167.242 682.891Z" fill="#FFE57C"/>
<path d="M164.346 674.313C164.708 673.952 165.03 673.631 165.392 673.27L165.352 673.23C164.989 673.591 164.668 673.912 164.305 674.273L164.346 674.313Z" fill="#FFE57C"/>
<path d="M172.072 667.577C172.394 667.257 172.756 666.896 173.078 666.535L173.037 666.495C172.675 666.816 172.353 667.177 171.991 667.497L172.031 667.537L172.072 667.577Z" fill="#FFE57C"/>
<path d="M199.073 627.211C199.435 626.85 199.797 626.49 200.159 626.129L200.119 626.089C199.757 626.45 199.395 626.81 199.033 627.171L199.073 627.211Z" fill="#FFE57C"/>
<path d="M454.065 806.993L453.946 807.073L454.065 806.993Z" fill="#FFE57C"/>
<path d="M339.265 623.445C338.943 623.445 338.581 623.364 338.259 623.324H338.219C338.581 623.405 338.983 623.405 339.345 623.445H339.265Z" fill="#FFE57C"/>
<path d="M338.258 623.324C337.895 622.964 337.533 622.603 337.171 622.242L337.131 622.282C337.493 622.643 337.855 623.004 338.217 623.365L338.258 623.324Z" fill="#FFE57C"/>
<path d="M358.459 613.663L358.298 613.703L358.499 613.663H358.459Z" fill="#FFE57C"/>
<path d="M351.699 611.66C351.337 612.021 350.975 612.382 350.653 612.702L350.733 612.742C351.095 612.382 351.417 612.061 351.78 611.7V611.62L351.699 611.66Z" fill="#FFE57C"/>
<path d="M301.52 837.777C301.48 837.457 301.48 837.136 301.52 836.815C301.52 837.176 301.52 837.497 301.52 837.858L301.601 837.777H301.52Z" fill="#FFE57C"/>
<path d="M301.481 838.821C301.481 838.46 301.481 838.139 301.481 837.778L301.4 837.858C301.763 837.858 302.084 837.858 302.447 837.858V837.778C302.447 838.139 302.447 838.5 302.447 838.861L302.527 838.78C302.165 838.78 301.803 838.78 301.441 838.78H301.521L301.481 838.821Z" fill="#FFE57C"/>
<path d="M445.295 841.586C445.616 841.586 445.979 841.667 446.301 841.667L446.341 841.626C445.979 841.626 445.576 841.586 445.214 841.546H445.254L445.295 841.586Z" fill="#FFE57C"/>
<path d="M431.816 571.334C431.494 571.655 431.172 571.975 430.85 572.296L430.89 572.336C431.212 572.016 431.534 571.695 431.856 571.334L431.816 571.294V571.334Z" fill="#FFE57C"/>
<path d="M391.334 818.617C389.724 816.372 388.074 814.087 386.465 811.842C386.505 810.56 386.545 809.277 386.586 807.994L386.545 808.034C386.867 807.994 387.189 807.954 387.511 807.914C388.799 811.482 390.086 815.049 391.374 818.617H391.334Z" fill="#FFE57C"/>
<path d="M416.445 778.132L415.398 779.174C415.761 778.813 416.123 778.453 416.445 778.132Z" fill="#FFE57C"/>
<path d="M413.546 780.057C413.184 780.417 412.822 780.778 412.5 781.099C412.862 780.738 413.224 780.377 413.546 780.057Z" fill="#FFE57C"/>
<path d="M385.458 807.033C385.821 807.394 386.143 807.715 386.505 808.075C386.505 808.075 386.545 808.035 386.585 808.035C386.223 807.675 385.861 807.354 385.539 806.993L385.499 807.033H385.458Z" fill="#FFE57C"/>
<path d="M320.756 843.633C320.756 843.272 320.756 842.952 320.756 842.591C321.118 842.591 321.44 842.591 321.803 842.591C321.44 842.952 321.118 843.272 320.756 843.633Z" fill="#FFE57C"/>
<path d="M57.1491 700.287C58.477 698.804 59.8049 697.281 61.1328 695.798L61.9375 696.64C60.328 697.842 58.7184 699.045 57.0686 700.247L57.1089 700.287H57.1491Z" fill="#FFE57C"/>
<path d="M64.8753 694.395L64.835 694.636V694.475L64.8753 694.395Z" fill="#FFE57C"/>
<path d="M122.858 640.642C122.496 640.642 122.133 640.642 121.812 640.642C122.174 640.281 122.496 639.96 122.858 639.6C122.858 639.96 122.858 640.321 122.858 640.642Z" fill="#FFE57C"/>
<path d="M60.9712 683.933C60.9712 683.572 60.9712 683.251 60.9712 682.891C61.6553 682.891 62.3393 682.891 63.0234 682.891C62.3393 683.251 61.6553 683.572 60.9712 683.933Z" fill="#FFE57C"/>
<path d="M335.321 587.688L335.16 587.607L335.281 587.688H335.321Z" fill="#FFE57C"/>
</svg>
