<svg xmlns="http://www.w3.org/2000/svg" width="702" height="494" fill="#ffe57c" xmlns:v="https://vecta.io/nano"><path d="M405.136 339.172c.345.172.828.241 1.034.551 6.754 9.201 13.75 18.299 18.643 28.706.793 1.688 1.068 3.652 1.344 5.548.138.896 0 2.205-.551 2.722-2.585 2.413-3.033 5.755-4.308 8.753-.861 2.033-2.033 3.515-4.238 4.135-.793.207-1.586.517-2.24 1-1.965 1.447-4.136 1.654-6.272.792-3.584-1.413-7.306-2.653-10.545-4.652-11.027-6.789-22.089-13.543-32.737-20.883-26.707-18.401-51.311-39.457-74.641-61.959l-79.224-77.915-28.326-27.706c-.792-.758-1.585-1.55-2.481-2.17-2.068-1.448-4.239-2.826-6.341-4.239l-.861.448c.62 4.893.861 9.855 1.93 14.611 1.826 8.167 4.169 16.231 6.34 24.294.207.724.758 1.379 1.137 2.068l-.103-.138c.965 4.411 1.723 8.891 4.652 12.578 0 .793-.069 1.585-.103 2.378l2.171 4.273-.104-.172c.379 2.515.827 5.031 2.998 6.754.104.655.207 1.309.345 1.964l2.481 7.788.62-.207-.551-3.825-.103.104 5.996 13.37 17.747 39.319c.482 1.103.689 2.309 1.034 3.481l.103-.069-2.826-3.687c-.103.034-.207.103-.344.137l3.963 8.202c.516.793 1.068 1.551 1.585 2.343 0 1.689.551 3.067 2.171 3.86l12.75 25.948 6.72 12.957-.138-.172c2.205 4.549 4.273 9.201 6.616 13.681l26.121 50.07c.241.448.551.827 1.241 1.827v-2.55l-.104.069c.931 1.585 2.102 3.101 2.723 4.824 2.446 6.857 4.927 13.715 6.961 20.71 1.964 6.755 1.412 13.371-2.654 19.436-.379.551-.689 1.206-.93 1.861-3.653 10.751-15.576 14.818-25.777 12.199-8.511-2.171-16.265-5.996-23.88-10.166-24.881-13.577-47.9-29.843-69.748-47.9-28.498-23.57-53.137-50.759-75.847-79.809-10.442-13.336-20.469-27.017-30.256-40.836-7.891-11.096-15.404-22.468-22.606-34.012-11.234-17.954-21.848-36.321-29.463-56.204-2.412-6.272-4.101-12.82-5.789-19.333-.896-3.446-.517-4.273 1.172-7.65 1.792 3.998 1.585 8.167 3.377 11.786.069-4.377-.276-8.753.62-12.992.379-.034.724-.103 1.103-.138l1.964 6.375c.689-2.584-.62-4.996 1.447-6.754 2.55.758 2.412 2.826 2.86 4.687l.345-2.722c.172-.069.345-.173.517-.242.379.862.965 1.723 1.103 2.619.861 5.204 2.791 9.959 5.617 14.405 1.206 1.895 2.205 4.032 2.86 6.203 1.516 5.169 4.308 9.579 7.133 14.163 2.102 3.411 4.859 6.409 6.582 10.096 1.688 3.584 3.894 6.961 6.031 10.338l16.334 25.329c.93 1.447 2.033 2.619 1.654 4.79-.241 1.275 1.172 2.963 2.137 4.307l16.506 22.537 2.757 3.412 11.716 14.68 3.412 4.686-.138-.138c.62 1.034 1.137 2.171 1.93 3.102l16.162 19.47c.517.62 1.241 1.034 1.861 1.516l-.069-.138 5.1 5.962-.138-.172 6.72 7.994 1.585.69c1.516 3.239 7.306 9.511 10.442 11.303l5.513 5.823c.586.793 1.206 1.551 1.792 2.344l3.446 2.55 1.137 1.137 2.55 3.411.311.31 4.652 3.791 2.377 1.551c.483.724 1 1.413 1.896 2.722l-.138-2.309-.069.104c1.034.654 2.171 1.171 3.067 1.964 21.158 18.815 43.937 35.425 68.128 50.071 6.926 4.204 14.025 8.201 21.227 11.923 3.618 1.861 7.685 2.929 12.44 4.686-.275-2.136-.31-3.446-.586-4.652-2.067-8.753-5.479-17.058-9.442-25.087l-28.739-56.756C211.539 350.337 193 312.982 177.63 274.111c-7.65-19.332-14.645-38.94-19.263-59.271-1.723-7.512-3.205-15.094-2.791-22.882.138-2.446.482-4.928 1.068-7.34.793-3.273 2.86-5.341 6.065-6.754 3.929-1.757 7.823-3.343 12.13-3.687 5.341-.414 10.269.448 14.784 3.79 6.685 4.928 13.267 9.925 19.401 15.542 1.309 1.172 2.86 2.068 4.204 3.205 1.24 1.034 2.584 2.102 3.377 3.446.896 1.516 2.067 2.102 3.618 2.343.448 2.137 1.551 3.481 3.929 3.274 1.585 1.654 2.894 3.859 4.79 4.859 2.171 1.137 2.55 3.515 4.169 4.652 1.827 1.275 2.206 4.032 4.549 4.376 2.412.345 3.17 2.447 4.79 3.619l-1.172.758c.242.275.621.792.758.758.38-.172.69-.552 1.034-.862 2.171 2.378 5.135 4.101 5.893 7.582.103.413.793 1.068 1.137 1.033 2.86-.379 3.963 2.068 5.514 3.584l58.272 55.688c9.408 8.891 19.298 17.264 28.981 25.879.93.827 1.826 1.689 2.584 2.654.173.207-.275.861-.448 1.309l-1.929-1.826c-.138.172-.276.379-.414.551l2.412 1.172c1.206 2.722 3.757 3.894 6.065 5.376l-.103-.069 3.791 3.032c.758.655 1.481 1.344 2.24 1.999.137-.207.275-.414.379-.62l-2.723-1.275c-.103-.517-.172-1.069-.413-2.275l32.254 24.502c.207-2.344-1.171-3.688-2.171-5.169l-29.463-43.834c-12.199-18.884-23.261-38.423-33.082-58.651-12.061-24.811-22.847-50.14-30.118-76.812-2.826-10.338-4.687-20.952-6.754-31.496-.655-3.343-.655-6.858-.62-10.304.034-6.375 1.344-11.785 8.511-14.335 6.892-2.447 13.509-3.653 20.366-.621 4.032 1.792 7.823 3.894 11.131 6.961 2.653 2.481 6.099 4.067 8.822 6.479 7.477 6.651 14.921 13.405 22.123 20.366l37.389 36.838 26.535 27.189 23.605 23.605c1.172 1.172 3.17 1.964 2.757 4.204l.103-.103-8.891-8.133-.585.551c1.24 1.344 2.412 2.723 3.721 3.998l25.707 24.88c6.72 6.203 13.922 11.923 20.952 17.85.379.311 1 .38 1.517.552l-.138-.138c4.79 4.824 9.924 9.166 15.851 12.544l-.137-.138 3.48 2.619-.172-.138 3.48 2.619-.172-.104 2.584 2.171-.206-.069 8.925 5.411 3.997 3.239 3.343 2.171c.138-.103.276-.241.413-.345a34.41 34.41 0 0 1-.792-1.585l11.854 6.548c.241-.138.483-.311.724-.448-.345-1.207-.586-2.482-1.069-3.653l-17.505-39.664c-9.856-21.71-19.574-43.454-27.396-65.957-4.48-12.957-8.443-26.12-12.647-39.181-.482-1.447-.896-2.929.448-4.204l-.103.069c.723.689 1.826 1.241 2.102 2.068 2.825 8.27 5.858 16.506 8.201 24.914 3.584 12.854 9.373 24.812 14.198 37.148 5.1 13.061 11.268 25.673 16.954 38.492l10.476 23.64c1.654 3.584 3.618 6.996 6.099 10.338-.241-1.068-.275-2.205-.723-3.17l-12.199-28.327c-4.273-9.545-9.063-18.849-13.095-28.464-5.651-13.577-11.165-27.258-16.024-41.145-4.514-12.888-8.167-26.086-11.992-39.181-2.033-6.961-3.722-14.06-5.41-21.09-.965-3.997-1.654-8.064-2.481-12.13-.311-1.551-.724-3.101-1.069-4.652-.275.035-.551.103-.827.138l1.62 17.092c.103 1.31-.035 2.654-.276 3.963-.172 1.068-.551 1.895.655 2.86.93.724 1.068 2.275-1.275 2.516l-1.551-7.133c-1.55-7.616-3.721-15.163-3.377-23.02.138-3.549.517-7.168 1.551-10.545.724-2.377 2.412-4.721 4.273-6.375 6.272-5.582 13.543-9.408 21.848-11.096 4.411-.896 8.787-.758 12.957 1.034 3.515 1.516 7.064 2.998 10.441 4.824 8.719 4.79 17.678 8.891 27.327 11.338 5.031 1.275 6.099.758 8.787-3.653 2.998-4.962 3.929-10.545 4.756-16.127.724-5.031 1.344-10.062 1.861-15.128 1.413-13.853 6.961-20.159 21.951-25.018 5.617-1.826 11.441-1.344 17.23-.758l10.269.931c3.136.241 5.996-.482 8.615-2.274l14.404-9.683c3.688-2.447 7.582-4.514 12.061-5.203 2.826-.414 3.171-.069 4.274 3.722l-20.642 17.23c-1.999 1.654-4.17 3.17-6.306 4.687-4.825 3.446-10.235 5.583-16.128 5.858-6.03.276-12.095.103-18.126-.241-6.099-.379-5.892-.827-7.236 5.445-1.275 5.893-1.965 11.923-2.998 17.85-.242 1.275-.862 2.516-1.344 3.756-.104.241-.379.482-.345.689.793 4.135-1.688 7.512-2.929 11.062-.999 2.826-3.136 5.445-5.307 7.616-3.377 3.377-7.133 6.444-10.889 9.442-2.964 2.343-6.548 3.515-10.235 4.135-7.478 1.275-14.887.758-21.882-2.171-8.098-3.411-16.024-7.271-23.984-10.993-2.619-1.206-5.135-2.688-7.788-3.79-4.653-1.93-6.824-.551-7.134 4.411-.172 2.998-.069 6.03-.069 9.028 0 .62 0 1.206-.482 1.861-.207-.448-.379-.896-.862-1.964.621 12.681 3.688 24.329 5.824 36.252-.379-.551-.93-1.034-1.068-1.62l-3.687-13.887c-.31-1.172-1.034-2.206-1.551-3.308l-.448-6.755c-.345.035-.655.104-.999.138l1.516 6.548c.758 6.203 1.792 12.302 3.928 18.229.965 2.723 1.551 5.617-1.137 7.892l.104-.104c-.621-1.137-1.482-2.24-1.861-3.48-.931-2.86-1.654-5.79-2.481-8.684-.207-.69-.655-1.344-1.758-1.792.345 2.309.62 4.652 1.068 6.961.414 2.24.896 4.48 1.551 6.685.827 2.722 1.895 5.41 2.791 8.098l5.514 16.748c1.378 3.997 2.86 7.926 4.376 11.854.276.689 1 1.206 2.068 2.447-.413-1.792-.551-2.791-.861-3.756l-4.722-14.853c-.379-1.309-.068-2.825-.068-4.48-3.412-2.894-3.826-4.962-1.586-8.925.311.241.724.414.827.724l4.239 11.51c.276.758 0 1.723-.069 2.584 0 .345-.207.896-.069.965 3.756 2.619 2.895 7.512 5.273 10.786l2.24 2.998c.241 1.792.344 3.618.792 5.341.138.517 1.206.793 1.826 1.172-.792 1.895-.31 3.308 1.517 4.239-.276 1.688 0 3.205 1.482 4.307 1.033 3.998 1.791 8.133 4.652 11.407-.759-4.101-2.275-7.926-4.721-11.338l-1.482-4.307-1.516-4.239-2.619-6.513-2.482-9.339c.276-.103.552-.241.828-.344.448.827 1.068 1.619 1.378 2.515 6.134 17.196 13.129 34.047 20.745 50.657.482 1.068 1.24 1.998 1.895 2.998l-.138-.138c.69 2.826 1.172 5.755 3.825 7.581l.311 1.344c.551 2.86 1.137 5.686 3.411 7.788l-.103-.172 4.238 9.27-.137-.138c1.481 3.549 2.825 7.133 4.479 10.579.965 1.999 1.275 4.273 3.894 5.583 1.551.758 2.034 3.721 3.102 5.892h-2.171c1.103 1.896 1.999 3.722 3.136 5.411 4.617 6.788 6.237 14.473 6.513 22.502 0 1.068-.345 2.171-.758 3.17-1.379 3.309-2.757 6.617-4.308 9.822-2.481 5.169-9.649 8.856-15.61 7.787-3.102-.551-6.307-1.309-9.029-2.791-8.96-4.824-17.954-9.649-26.534-15.128-16.955-10.855-32.462-23.639-47.59-36.907-31.083-27.292-59.513-57.307-88.321-86.908l-59.168-59.478c-2.516-2.516-4.963-5.445-9.339-6.548.793 5.341 1.275 10.407 2.274 15.335 3.033 14.714 7.513 29.015 12.82 43.041.62 1.619 1.757 3.032 2.653 4.548l-.069.173c.655 2.343 1.137 4.755 1.964 7.03.896 2.446 2.068 4.755 3.55 7.133-.035-.724-.069-1.482-.138-2.206l.551-.103 2.412 5.548 11.648 24.984c.448.999.827 2.033 1.206 3.032-.551-.138-1.068-.275-1.792-.482.586 1.757 1.172.62 1.723.448l6.341 11.509 17.402 30.325c.586 1.034.965 2.206 1.447 3.309l.104-.069h-2.068l3.343 3.411 1.172 1.964 2.55 4.722-.138-.173 3.446 5.135-.138-.173c1.103 3.067 2.584 5.824 5.514 7.582l6.099 9.407c1.068 3.55 3.239 6.341 5.893 8.822l-.138-.172c.655 1.171 1.171 2.446 1.964 3.549l20.711 28.843 4.893 6.892c0-1.24-.379-2.171-.965-2.998l-9.856-14.266c-.964-1.447-1.723-3.067-2.55-4.583l-.068.069-.38-.035zM304.651 196.61l.241-3.17h-.655l.414 3.136 2.102 4.376c0-1.895.034-3.825-2.102-4.376v.034zm-39.354 221.131l1.826 3.929c.311-.207.586-.414.896-.586l-2.86-3.205c0-2.757-.655-5.169-3.377-6.513.551-1.344.31-2.378-1.585-3.205l1.689 3.136 3.411 6.479v-.035zm36.183-279.368c-1.171 2.791-.517 5.41 1.172 7.926l-1.206-7.892-1.792-10.82c-.379 3.342-.069 6.582.379 9.786.069.379.93.655 1.413 1h.034zM460.893 275.18c-.23 1.033.161 1.608 1.172 1.723l.792-.793-2.033-.896L456 269.39c-.276 1.482-.69 2.344-.448 2.723 1.275 1.861 2.894 3.273 5.341 3.032v.035zm5.548 5.169l-1.757-1.654c-.138.206-.276.448-.448.654.758.31 1.55.586 2.308.896.724 3.584 4.101 4.583 6.755 7.306-1.206-3.171-3.894-5.824-6.858-7.202zm-215.169 110.1c-.689-3.343-2.619-5.996-4.652-8.615 1.413 2.963 1.792 6.444 4.721 8.546.689 4.686 4.135 7.926 6.306 11.854-2.309-3.825-2.998-8.511-6.375-11.785zm-13.026 2.653c1.034-1.378.413-2.309-.896-3.48-.379 1.654-.069 2.653 1.068 3.377.241.792.31 1.619.689 2.309l9.718 18.436 13.991 27.499c2.343 4.721 4.411 9.615 6.616 14.439.517-.689.483-1.206.276-1.654-2.757-6.582-5.169-13.371-8.374-19.711-6.478-12.889-13.37-25.57-20.193-38.32-.621-1.172-.828-3.101-2.93-2.895h.035zm127.158-81.981s-.31.276-.483.414c.69 1.137 1.31 2.309 2.068 3.412 3.033 4.548 6.272 8.959 9.132 13.611 6.789 10.959 14.749 21.09 22.709 31.187.586.724 1.448 1.24 2.206 1.861-11.028-16.851-22.606-33.151-34.185-49.382-.344-.482-.965-.723-1.447-1.103zm-68.817-142.837c-3.308-13.715-6.203-27.499-6.858-41.628 0-.241-.172-.517-.344-.723-.069-.104-.242-.069-.379-.138-1.965 6.34 2.619 32.944 7.581 42.489zm-136.118 23.847c-2.136 5.41 1.241 27.292 5.204 33.736l-5.204-33.736zm139.392-13.509c-.379.104-.759.241-1.138.345l3.998 10.855c.069.172.758.069 1.068.069l-3.928-11.303v.034zm-128.227 18.057l-.827.173 2.792 15.61c.275-.034.551-.103.827-.138l-2.792-15.61v-.035zm-3.239 12.751c-.276.069-.551.103-.827.172l2.619 12.061.93-.207-2.756-12.026h.034zm291.809 54.791c-.241.173-.448.379-.689.552.758 2.446 3.17 3.067 5.169 4.204l-4.48-4.756zm-69.093 71.746l-5.031-7.202-.689.483c1.171 2.756 2.757 5.203 5.72 6.719zm-138.22 68.921l-.62.516 4.066 7.651c.207-.138.448-.241.655-.379l-4.101-7.788zm175.851-184.466c1.332 2.757 2.825 4.182 4.479 4.273l-4.479-4.273zm28.395 33.323l.62-.517-5.1-4.583a8.79 8.79 0 0 1-.517.586l4.962 4.514h.035zm-97.626 48.003c.62 2.252 1.815 3.802 3.584 4.652l-3.584-4.652zm104.311-44.178l-1.309 1.344 4.479 3.998c.104-.138.242-.276.345-.379l-3.515-4.963zM167.43 206.397l.345-.103-1.241-4.79c-.172.034-.379.103-.551.138l1.447 4.721v.034zm68.197 181.088c.241-.172.448-.344.689-.517l-1.688-2.894-.621.379 1.585 3.032h.035zm-116.441-3.756l-.448.207c.276.482.517 1.034.896 1.447.448.483 1.034.827 1.551 1.241.206-.241.448-.483.654-.758l-2.619-2.171-.034.034zm47.521-152.348c.31-.035.62-.069.93-.138l-.793-2.757-.517.103.414 2.792h-.034zm319.445-92.974c.242-.069.517-.172.758-.241-.31-.896-.654-1.758-.964-2.653-.104 0-.207.069-.311.069l.552 2.825h-.035zM175.907 256.743c-.206.069-.379.104-.585.173l.689 2.515.689-.207-.793-2.481zm134.705-82.118l-.482.172.999 2.826.517-.172-1.034-2.826zM126.147 392.448c.207-.207.379-.448.586-.655l-1.448-1.275-.31.275c.379.552.793 1.103 1.172 1.689v-.034zM446.006 262.74c.173-.207.345-.448.517-.655l-1.551-1.31-.482.586c.517.448.999.931 1.516 1.379zM55.814 302.162c-.379.379-.758.724-1.137 1.103a116.68 116.68 0 0 0 2.688 1.102l-1.551-2.205zm417.864-33.702l.31-.62-1.551-1.034s-.207.275-.276.413c.517.414 1.034.793 1.517 1.206v.035zm-303.146-27.499c-.242.103-.448.172-.69.275.242.517.448 1.034.69 1.551l.517-.207-.517-1.619zm2.86 173.713s.207-.275.31-.379c-.517-.448-1.068-.861-1.585-1.309l-.31.413 1.585 1.275zm34.46-117.199l.414-.206c-.311-.552-.586-1.138-.896-1.689a6.21 6.21 0 0 0-.448.241l.93 1.689v-.035zm244.977-39.801c-.206.207-.413.448-.654.655.482.379.964.723 1.447 1.102.207-.207.413-.448.62-.654-.482-.345-.93-.724-1.413-1.069v-.034zM312.06 196.3s.241-.138.344-.206l-.517-1.586c-.207.069-.379.138-.586.242.242.516.517 1.033.759 1.55zm86.357 139.667c-.173.138-.379.242-.552.379l1.689 2.481c.172-.137.379-.241.551-.379l-1.688-2.515v.034zm-33.185 2.723c.137-.173.241-.345.379-.517-.483-.345-.965-.724-1.448-1.069-.103.138-.206.242-.31.38.448.413.931.792 1.379 1.206zm29.256 3.377s.345-.207.517-.345l-1.585-2.412c-.172.103-.379.241-.551.345l1.585 2.377.034.035zm80.947-53.551c-.069.172-.172.379-.241.551l1.861.861c.103-.206.172-.413.276-.585l-1.861-.827h-.035zM307.752 184.894l.482-.276-.896-1.413c-.137.069-.275.173-.413.242.276.482.551.965.793 1.447h.034zm22.434 33.323s.275-.138.379-.207l-.827-1.723c-.138.069-.311.172-.448.241.31.552.62 1.138.896 1.689zm-3.757-9.856c-.206.173-.379.345-.585.483l1.102 1.861.448-.242-.965-2.102zM204.061 288.24s-.241.138-.379.172c.276.552.552 1.103.793 1.654l.413-.206a35.76 35.76 0 0 0-.861-1.62h.034zm28.568 92.181c-.31-.138-.655-.31-.965-.448 0 .241-.034.551.069.758.103.172.413.276.62.379.069-.207.172-.379.276-.689zm184.706-171.612l-.861.862a17.71 17.71 0 0 0 .861.792l.862-.861c-.31-.276-.586-.551-.896-.793h.034zm6.169 6.341c-.242.207-.483.448-.689.655.482.379.93.792 1.412 1.171.138-.137.276-.31.414-.448-.379-.448-.758-.93-1.103-1.378h-.034zM133.315 389.07s-.207.242-.31.345c.344.31.723.62 1.068.93l.31-.379c-.379-.31-.724-.62-1.103-.896h.035zm336.021-116.509l-.414.413c.207.241.448.517.689.724l.276-.138-.551-.965v-.034zm-38.285-44.902l-.38.482c.276.207.517.448.793.655.103-.103.172-.207.276-.31-.207-.276-.448-.551-.655-.827h-.034zm73.951-29.015l.827-.414c-.345-.448-.655-.93-.999-1.378l-.414.206c.173.517.379 1.034.552 1.586h.034zm-168.407 32.082s-.31.207-.448.276a23.94 23.94 0 0 0 .758 1.206 3.1 3.1 0 0 1 .448-.276c-.241-.413-.482-.793-.758-1.206zm72.435-29.843s-.206.035-.275.069c.138.207.275.414.413.586.035.035.207 0 .345-.069l-.483-.586zm-100.417 2.792c-.172.069-.344.138-.551.172l.62 1.172c.104-.035.207-.069.311-.138l-.414-1.241.034.035zM685.331 24.689c-7.029-.138-10.372-2.55-12.681-8.374-1.275-3.274-.448-3.722 2.378-6.168 2.653-2.309 6.065-2.895 8.718-5.479 2.998-2.929 7.444-4.859 12.199-4.652 3.722.172 6.341 2.619 6.031 6.444-.414 4.48-2.068 8.615-5.514 11.647-2.447 2.171-5.307 3.928-8.098 5.651-1.103.689-2.55.827-3.102.999l.069-.069z"/><path d="M237.246 357.677l-12.75-25.948-.413-2.585-.104.103 7.65 14.336 11.028 21.469c.482.964.758 1.998 1.137 3.032l.103-.069-2.378-3.101-4.307-7.237h.034zM94.167 329.558l-11.716-14.68-2.757-3.412-1.068-3.446 1.895 1.585 15.886 20.78c.483.62.724 1.413 1.068 2.136l.103-.069-3.377-2.929-.034.035zm291.12-16.541l-6.099-9.408-5.514-7.581.138.172-.827-3.446-.103.104 4.79 6.513 10.751 15.541c.758 1.103 1.241 2.378 1.827 3.584l.103-.069-5.031-5.41h-.035zm102.657-36.632c-1.137-1.309-2.171-2.722-3.48-3.859-3.688-3.274-7.444-6.444-11.2-9.614-1.034-.862-2.24-1.551-3.377-2.344.31-.344.586-.723.896-1.068.551.345 1.137.655 1.62 1.103l18.091 15.472c.586.517.965 1.31 1.413 1.965l.138-.104-4.273-1.654.138.138.034-.035zm18.573-94.351c-2.791-6.892-4.962-13.095-6.375-19.539 2.344 2.447 6.686 15.473 6.375 19.539zM182.765 233.31l-1.516-6.65-1.206-5.514-.069.103s.31.104.344.207l6.479 20.952.103-.069-2.205-4.549-2.033-4.652.103.138v.034zm94.972 200.214l-9.166-17.816c-.207-.413-.345-.861-.173-1.481 3.274 6.375 7.547 12.233 9.236 19.366l.103-.069zm258.072-185.602l-.31-1.344-3.826-7.581.138.137-2.653-8.236-.104.069c.552.655 1.275 1.241 1.62 1.999l8.305 18.953-3.205-3.997h.035zM130.557 372.564l-1.585-.689v-2.171l-.069.103 11.578 12.406.104-.069c-1.069-.827-2.206-1.516-3.171-2.447l-6.857-7.099v-.034z"/><path d="M117.359 358.229l1.034-.793 10.51 12.371.069-.103-3.239-2.722-3.515-3.102.137.173c-.827-2.723-2.791-4.48-5.1-5.962l.069.138h.035zm45.42 46.624l-2.378-1.551c-1.137-1.792-2.378-3.446-4.652-3.79l-.31-.31-.827-2.998-.069.103 9.959 9.097.069-.103-1.758-.413-.034-.035zm227.47-86.357l8.27 11.578.069-.068-3.48-3.894-4.067-4.411.138.172-.861-3.412-.104.069.035-.034zm101.692-40.525l11.613 9.098.104-.104c-1.31-.655-2.826-1.068-3.86-1.999-2.584-2.377-6.168-3.618-7.719-7.098l-.138.103zM260.472 398.409l5.686 10.752-.758.413-5.721-10.717.758-.448h.035zm-113.959-8.719l-5.514-5.823-.413-1.758-.104.069c2.895 1.62 5.204 3.791 6.479 6.892l-.448.62zm352.803-229.056l-2.688-9.27c2.482 2.619 3.136 5.824 3.584 9.098l-.861.207-.035-.035z"/><path d="M503.52 287.069l9.063 6.581.138-.069h-2.619l.172.104-3.48-2.619.172.138-3.481-2.619.138.138v-1.792l-.103.103v.035zm-316.345-38.941l.103-2.378-.414-3.411-.103.069 4.135 11.578.104-.068-1.758-1.723.103.172c-.172-1.689-.344-3.412-2.17-4.273v.034zm258.315-11.337c.516.035 1.206-.103 1.516.173 2.481 2.24 4.859 4.583 7.064 7.133-2.205-.207-2.929-2.309-4.411-3.481s-2.722-2.619-4.101-3.928l-.103.103h.035zm-265.448-15.645l-3.411-13.991-.069.069c.482 1.206 1.137 2.343 1.413 3.584.758 3.446 1.344 6.926 1.998 10.407l.069-.103v.034zm349.082 9.752l-5.066-10.441.896-.379c1.516 3.583 3.825 6.823 4.101 10.889l.069-.069zm-130.605 99.177c3.067 2.412 5.135 5.548 6.616 9.097l.069-.069c-3.032-2.446-5.203-5.479-6.616-9.097l-.069.069zm126.917-25.708l-3.997-3.239-.586-1.757 7.65 5.582-3.067-.586z"/><path d="M192.586 260.913l-.344-1.964-1.241-5.066-.103.069 4.135 10.786.103-.103-2.55-3.756v.034zm126.503-70.195l.069-.173-1.481-4.652.482-.206 3.653 9.304.069-.104-2.826-4.169h.034zM222.36 327.904l-1.585-2.344-.793-4.652-.103.069 4.135 8.305.104-.103-1.758-1.275zm23.053 43.626c2.585 2.171 3.377 5.342 4.618 8.236-2.137-2.446-3.722-5.169-4.549-8.305l-.103.104.034-.035zm247.494-215.238c1.413 1.309 4.307 1.654 3.067 5.169-1.344-1.792-3.515-2.654-2.964-5.273l-.103.104zm26.878 142.355l-3.274-1.172-3.963-1.723.207.069v-2.205l-.138.069 7.168 4.962zm19.331-45.66l4.135 9.27.104-.069-1.896-2.964-2.343-3.721.104.172-.104-2.722v.034zm-171.197 33.565l-1.171-1.965-1.241-3.411-.103.069 4.135 6.65.103-.068-1.723-1.275zm-113.926 99.831l2.722 5.341-.586.31-2.756-5.307.62-.379v.035zm54.792-226.886c2.619 1.206 1.516 4.032 2.24 6.03l-2.24-6.065v.035zM351 327.077l-2.895-3.722.345-.345 2.86 2.585c.172.172-.276.896-.414 1.378l.104.104zm-204.487 62.614a7.09 7.09 0 0 0 .448-.621c2.102.345 3.033 1.896 3.722 3.688l-2.378-.724-1.792-2.343z"/><path d="M321.846 194.991l1.999 4.721c-1.654-1.241-2.275-2.826-1.93-4.79l-.069.069zm221.373 67.232l2.309 4.169c-.104.069-.172.138-.276.173l-2.102-1.93.138.138v-2.619l-.103.069h.034zM308.062 151.502c-1.895-.999-1.895-2.757-1.689-4.618l1.689 4.618zm61.476 136.394l3.308 4.996.103-.103-2.584-1.689.138.173-.827-3.446-.104.069h-.034z"/><path d="M308.062 151.502l.724 7.961-.689-7.995-.035.034zm174.885 3.584c-2.447.345-2.413-1.034-2.206-2.688 2.55-.276 1.241 1.999 2.171 2.688h.035zm-168.579 20.09l-2.034-4.032.896-.31 1.034 4.445.104-.103zM97.475 332.556l2.826 2.756-.414.414-2.447-1.62.138.138v-1.792l-.103.069v.035zm55.413 63.2l-1.137-1.137-1.206-1.965c1.861.621 3.377 1.654 3.997 3.619l.069-.104-1.723-.413zm306.729-145.904l-1.998-1.689c.137-.172.275-.31.379-.482l2.171 1.757-.552.414zm59.478-45.35l-2.619-3.033v.069l2.585 2.998h.034v-.034z"/><path d="M516.476 201.469l-.999-3.273.62-.104.345 3.446.034-.069zM304.72 135.823l-1.344-2.516.379-.206.965 2.722z"/><path d="M304.72 135.823v3.618h-.276l.276-3.618zm214.342 68.713l.586 3.171c-1.551-.862-1.172-1.999-.552-3.171h-.034zm-403.289 150.66l-1.378-1.551c.138-.103.276-.241.379-.344l1.344 1.585-.379.31h.034zM314.3 175.245l1.378 2.964-.827.207-.448-3.24-.103.104v-.035zm208.138 38.699l.931 2.446-.448.207-1.138-2.343.655-.31zm-39.664-55.894c-1.826-.759-1.826-1.138.138-2.964l-.241 3.067.103-.069v-.034zM243.828 368.119l1.585 3.411.104-.103-1.723-.965.138.172v-2.619l-.104.069v.035zm249.353-246.253l-1.171-2.24c.103-.068.241-.137.344-.172l.827 2.447v-.035zm-317.756 78.156c0-.62-.069-1.241-.103-1.861h.448c0 .62.069 1.241.103 1.861h-.448zm287.639 52.069l1.033 1.241-.413.379-1.206-1.103.62-.517h-.034z"/><path d="M493.182 121.866l.345 3.033h-.345v-3.033zm-316.551 85.289l-.379-2.757h.344v2.861l.069-.069-.034-.035z"/></svg>