<svg width="702" height="494" viewBox="0 0 702 494" fill="none" xmlns="http://www.w3.org/2000/svg">
<path d="M405.136 339.172C405.481 339.344 405.964 339.413 406.17 339.723C412.924 348.924 419.92 358.022 424.813 368.429C425.606 370.117 425.881 372.081 426.157 373.977C426.295 374.873 426.157 376.182 425.606 376.699C423.021 379.112 422.573 382.454 421.298 385.452C420.437 387.485 419.265 388.967 417.06 389.587C416.267 389.794 415.474 390.104 414.82 390.587C412.855 392.034 410.684 392.241 408.548 391.379C404.964 389.966 401.242 388.726 398.003 386.727C386.976 379.938 375.914 373.184 365.266 365.844C338.559 347.443 313.955 326.387 290.625 303.885C263.988 278.178 237.798 251.953 211.401 225.97C201.994 216.701 192.517 207.5 183.075 198.264C182.283 197.506 181.49 196.714 180.594 196.094C178.526 194.646 176.355 193.268 174.253 191.855C173.978 191.993 173.668 192.165 173.392 192.303C174.012 197.196 174.253 202.158 175.322 206.914C177.148 215.081 179.491 223.145 181.662 231.208C181.869 231.932 182.42 232.587 182.799 233.276L182.696 233.138C183.661 237.549 184.419 242.029 187.348 245.716C187.348 246.509 187.279 247.301 187.245 248.094C187.968 249.507 188.692 250.954 189.416 252.367L189.312 252.195C189.691 254.71 190.139 257.226 192.31 258.949C192.414 259.604 192.517 260.258 192.655 260.913C193.482 263.498 194.309 266.117 195.136 268.701C195.343 268.632 195.55 268.563 195.756 268.494C195.584 267.219 195.377 265.944 195.205 264.669L195.102 264.773C197.1 269.218 199.099 273.698 201.098 278.143C207.025 291.238 212.952 304.367 218.845 317.462C219.327 318.565 219.534 319.771 219.879 320.943L219.982 320.874C219.052 319.633 218.087 318.427 217.156 317.187C217.053 317.221 216.949 317.29 216.812 317.324C218.121 320.047 219.465 322.804 220.775 325.526C221.291 326.319 221.843 327.077 222.36 327.869C222.36 329.558 222.911 330.936 224.531 331.729C228.769 340.378 233.008 349.028 237.281 357.677C239.521 361.985 241.761 366.327 244.001 370.634L243.863 370.462C246.068 375.011 248.136 379.663 250.479 384.143C259.129 400.856 267.882 417.535 276.6 434.213C276.841 434.661 277.151 435.04 277.841 436.04V433.49L277.737 433.559C278.668 435.144 279.839 436.66 280.46 438.383C282.906 445.24 285.387 452.098 287.421 459.093C289.385 465.848 288.833 472.464 284.767 478.529C284.388 479.08 284.078 479.735 283.837 480.39C280.184 491.141 268.261 495.208 258.06 492.589C249.549 490.418 241.795 486.593 234.18 482.423C209.299 468.846 186.28 452.58 164.432 434.523C135.934 410.953 111.295 383.764 88.5854 354.714C78.1439 341.378 68.116 327.697 58.3293 313.878C50.438 302.782 42.9256 291.41 35.7235 279.866C24.4895 261.912 13.8757 243.545 6.26002 223.662C3.84781 217.39 2.15926 210.842 0.470713 204.329C-0.425251 200.883 -0.0461889 200.056 1.64236 196.679C3.43429 200.677 3.22754 204.846 5.01947 208.465C5.08839 204.088 4.74377 199.712 5.63974 195.473C6.0188 195.439 6.36341 195.37 6.74248 195.335C7.3283 197.3 7.94858 199.229 8.7067 201.71C9.39591 199.126 8.08641 196.714 10.154 194.956C12.7041 195.714 12.5662 197.782 13.0142 199.643C13.1176 198.747 13.2554 197.851 13.3588 196.921C13.5311 196.852 13.7034 196.748 13.8757 196.679C14.2548 197.541 14.8406 198.402 14.9785 199.298C15.84 204.502 17.7697 209.257 20.5954 213.703C21.8016 215.598 22.8009 217.735 23.4557 219.906C24.9719 225.075 27.7632 229.485 30.5889 234.069C32.691 237.48 35.4478 240.478 37.1708 244.165C38.8593 247.749 41.0648 251.126 43.2013 254.503C48.6116 262.981 54.0907 271.389 59.5354 279.832C60.4659 281.279 61.5686 282.451 61.1895 284.622C60.9483 285.897 62.3612 287.585 63.3261 288.929C68.8052 296.476 74.3189 303.988 79.8325 311.466C80.7629 312.603 81.6933 313.741 82.5893 314.878C86.4833 319.771 90.3773 324.664 94.3057 329.558C95.4429 331.108 96.5801 332.694 97.7173 334.244L97.5795 334.106C98.1998 335.14 98.7167 336.277 99.5092 337.208C104.851 343.721 110.261 350.234 115.671 356.678C116.188 357.298 116.912 357.712 117.532 358.194L117.463 358.056C119.152 360.055 120.875 362.019 122.563 364.018L122.425 363.846C124.665 366.499 126.905 369.187 129.145 371.84L130.73 372.53C132.246 375.769 138.036 382.041 141.172 383.833C142.998 385.762 144.859 387.727 146.685 389.656C147.271 390.449 147.891 391.207 148.477 392C149.614 392.861 150.751 393.688 151.923 394.55C152.302 394.929 152.681 395.308 153.06 395.687C153.922 396.824 154.749 397.961 155.61 399.098C155.714 399.202 155.817 399.305 155.921 399.408C157.471 400.683 159.022 401.959 160.573 403.199C161.365 403.716 162.158 404.233 162.95 404.75C163.433 405.474 163.95 406.163 164.846 407.472C164.777 406.163 164.742 405.646 164.708 405.163L164.639 405.267C165.673 405.921 166.81 406.438 167.706 407.231C188.864 426.046 211.643 442.656 235.834 457.302C242.76 461.506 249.859 465.503 257.061 469.225C260.679 471.086 264.746 472.154 269.501 473.911C269.226 471.775 269.191 470.465 268.915 469.259C266.848 460.506 263.436 452.201 259.473 444.172C250.031 425.185 240.486 406.266 230.734 387.416C211.539 350.337 193 312.982 177.63 274.111C169.98 254.779 162.985 235.171 158.367 214.84C156.644 207.328 155.162 199.746 155.576 191.958C155.714 189.512 156.058 187.03 156.644 184.618C157.437 181.345 159.504 179.277 162.709 177.864C166.638 176.107 170.532 174.521 174.839 174.177C180.18 173.763 185.108 174.625 189.623 177.967C196.308 182.895 202.89 187.892 209.024 193.509C210.333 194.681 211.884 195.577 213.228 196.714C214.468 197.748 215.812 198.816 216.605 200.16C217.501 201.676 218.672 202.262 220.223 202.503C220.671 204.64 221.774 205.984 224.152 205.777C225.737 207.431 227.046 209.636 228.942 210.636C231.113 211.773 231.492 214.151 233.111 215.288C234.938 216.563 235.317 219.32 237.66 219.664C240.072 220.009 240.83 222.111 242.45 223.283L241.278 224.041C241.52 224.316 241.899 224.833 242.036 224.799C242.416 224.627 242.726 224.247 243.07 223.937C245.241 226.315 248.205 228.038 248.963 231.519C249.066 231.932 249.756 232.587 250.1 232.552C252.96 232.173 254.063 234.62 255.614 236.136C275.049 254.676 294.313 273.388 313.886 291.824C323.294 300.715 333.184 309.088 342.867 317.703C343.797 318.53 344.693 319.392 345.451 320.357C345.624 320.564 345.176 321.218 345.003 321.666C344.349 321.046 343.728 320.46 343.074 319.84C342.936 320.012 342.798 320.219 342.66 320.391C343.453 320.77 344.28 321.184 345.072 321.563C346.278 324.285 348.829 325.457 351.137 326.939L351.034 326.87C352.275 327.869 353.55 328.903 354.825 329.902C355.583 330.557 356.306 331.246 357.065 331.901C357.202 331.694 357.34 331.487 357.444 331.281C356.548 330.867 355.652 330.419 354.721 330.006C354.618 329.489 354.549 328.937 354.308 327.731C365.335 336.105 375.949 344.169 386.562 352.233C386.769 349.889 385.391 348.545 384.391 347.064C374.57 332.452 364.473 318.014 354.928 303.23C342.729 284.346 331.667 264.807 321.846 244.579C309.785 219.768 298.999 194.439 291.728 167.767C288.902 157.429 287.041 146.815 284.974 136.271C284.319 132.928 284.319 129.413 284.354 125.967C284.388 119.592 285.698 114.182 292.865 111.632C299.757 109.185 306.374 107.979 313.231 111.011C317.263 112.803 321.054 114.905 324.362 117.972C327.015 120.453 330.461 122.039 333.184 124.451C340.661 131.102 348.105 137.856 355.307 144.817C367.885 156.981 380.325 169.284 392.696 181.655C401.656 190.614 410.34 199.815 419.231 208.844C427.053 216.77 435.013 224.523 442.836 232.449C444.008 233.621 446.006 234.413 445.593 236.653L445.696 236.55L436.805 228.417L436.22 228.968C437.46 230.312 438.632 231.691 439.941 232.966C448.487 241.305 456.896 249.782 465.648 257.846C472.368 264.049 479.57 269.769 486.6 275.696C486.979 276.007 487.6 276.076 488.117 276.248L487.979 276.11C492.769 280.934 497.903 285.276 503.83 288.654L503.693 288.516C504.864 289.377 506.001 290.273 507.173 291.135L507.001 290.997C508.172 291.858 509.31 292.754 510.481 293.616L510.309 293.512C511.17 294.236 512.032 294.96 512.893 295.683L512.687 295.614C515.65 297.406 518.614 299.233 521.612 301.025C522.956 302.093 524.265 303.196 525.609 304.264C526.712 304.988 527.815 305.711 528.952 306.435C529.09 306.332 529.228 306.194 529.365 306.09C529.09 305.573 528.814 305.022 528.573 304.505C532.536 306.676 536.464 308.847 540.427 311.053C540.668 310.915 540.91 310.742 541.151 310.605C540.806 309.398 540.565 308.123 540.082 306.952C534.293 293.719 528.573 280.452 522.577 267.288C512.721 245.578 503.003 223.834 495.181 201.331C490.701 188.374 486.738 175.211 482.534 162.15C482.052 160.703 481.638 159.221 482.982 157.946L482.879 158.015C483.602 158.704 484.705 159.256 484.981 160.083C487.806 168.353 490.839 176.589 493.182 184.997C496.766 197.851 502.555 209.809 507.38 222.145C512.48 235.206 518.648 247.818 524.334 260.637C527.815 268.529 531.226 276.455 534.81 284.277C536.464 287.861 538.428 291.273 540.909 294.615C540.668 293.547 540.634 292.41 540.186 291.445C536.154 281.968 532.191 272.492 527.987 263.118C523.714 253.573 518.924 244.269 514.892 234.654C509.241 221.077 503.727 207.396 498.868 193.509C494.354 180.621 490.701 167.423 486.876 154.328C484.843 147.367 483.154 140.268 481.466 133.238C480.501 129.241 479.812 125.174 478.985 121.108C478.674 119.557 478.261 118.007 477.916 116.456C477.641 116.491 477.365 116.559 477.089 116.594C477.641 122.28 478.226 127.966 478.709 133.686C478.812 134.996 478.674 136.34 478.433 137.649C478.261 138.717 477.882 139.544 479.088 140.509C480.018 141.233 480.156 142.784 477.813 143.025C477.296 140.613 476.745 138.269 476.262 135.892C474.712 128.276 472.541 120.729 472.885 112.872C473.023 109.323 473.402 105.704 474.436 102.327C475.16 99.9496 476.848 97.6064 478.709 95.9523C484.981 90.3698 492.252 86.5447 500.557 84.8561C504.968 83.9602 509.344 84.098 513.514 85.8899C517.029 87.4061 520.578 88.8879 523.955 90.7143C532.674 95.5043 541.633 99.6051 551.282 102.052C556.313 103.327 557.381 102.81 560.069 98.399C563.067 93.4367 563.998 87.8542 564.825 82.2716C565.549 77.2404 566.169 72.2092 566.686 67.1436C568.099 53.2906 573.647 46.9843 588.637 42.1254C594.254 40.2991 600.078 40.7815 605.867 41.3673C609.279 41.7119 612.724 42.0221 616.136 42.2978C619.272 42.539 622.132 41.8154 624.751 40.0234C629.507 36.7497 634.331 33.5449 639.155 30.3401C642.843 27.8935 646.737 25.8258 651.216 25.1366C654.042 24.7231 654.387 25.0677 655.49 28.8584C648.77 34.4754 641.843 40.2991 634.848 46.0884C632.849 47.7425 630.678 49.2587 628.542 50.775C623.717 54.221 618.307 56.3576 612.414 56.6333C606.384 56.9089 600.319 56.7366 594.288 56.392C588.189 56.0129 588.396 55.5649 587.052 61.8367C585.777 67.7294 585.087 73.76 584.054 79.6871C583.812 80.9621 583.192 82.2027 582.71 83.4433C582.606 83.6845 582.331 83.9256 582.365 84.1324C583.158 88.2676 580.677 91.6448 579.436 95.1942C578.437 98.0199 576.3 100.639 574.129 102.81C570.752 106.187 566.996 109.254 563.24 112.252C560.276 114.595 556.692 115.767 553.005 116.387C545.527 117.662 538.118 117.145 531.123 114.216C523.025 110.805 515.099 106.945 507.139 103.223C504.52 102.017 502.004 100.535 499.351 99.4327C494.698 97.503 492.527 98.8814 492.217 103.844C492.045 106.842 492.148 109.874 492.148 112.872C492.148 113.492 492.148 114.078 491.666 114.733C491.459 114.285 491.287 113.837 490.804 112.769C491.425 125.45 494.492 137.098 496.628 149.021C496.249 148.47 495.698 147.987 495.56 147.401C494.285 142.784 493.148 138.132 491.873 133.514C491.563 132.342 490.839 131.308 490.322 130.206C490.184 127.931 490.012 125.691 489.874 123.451C489.529 123.486 489.219 123.555 488.875 123.589C489.392 125.76 489.874 127.966 490.391 130.137C491.149 136.34 492.183 142.439 494.319 148.366C495.284 151.089 495.87 153.983 493.182 156.258L493.286 156.154C492.665 155.017 491.804 153.914 491.425 152.674C490.494 149.814 489.771 146.884 488.944 143.99C488.737 143.3 488.289 142.646 487.186 142.198C487.531 144.507 487.806 146.85 488.254 149.159C488.668 151.399 489.15 153.639 489.805 155.844C490.632 158.566 491.7 161.254 492.596 163.942C494.457 169.525 496.215 175.142 498.11 180.69C499.488 184.687 500.97 188.616 502.486 192.544C502.762 193.233 503.486 193.75 504.554 194.991C504.141 193.199 504.003 192.2 503.693 191.235C502.142 186.272 500.453 181.379 498.971 176.382C498.592 175.073 498.903 173.557 498.903 171.902C495.491 169.008 495.077 166.94 497.317 162.977C497.628 163.218 498.041 163.391 498.144 163.701C499.592 167.526 501.074 171.351 502.383 175.211C502.659 175.969 502.383 176.934 502.314 177.795C502.314 178.14 502.107 178.691 502.245 178.76C506.001 181.379 505.14 186.272 507.518 189.546C508.241 190.545 508.999 191.545 509.758 192.544C509.999 194.336 510.102 196.162 510.55 197.885C510.688 198.402 511.756 198.678 512.376 199.057C511.584 200.952 512.066 202.365 513.893 203.296C513.617 204.984 513.893 206.501 515.375 207.603C516.408 211.601 517.166 215.736 520.027 219.01C519.268 214.909 517.752 211.084 515.306 207.672C514.823 206.225 514.306 204.777 513.824 203.365C513.307 201.952 512.824 200.539 512.308 199.126C511.446 196.955 510.585 194.784 509.689 192.613C508.862 189.512 508.035 186.376 507.207 183.274C507.483 183.171 507.759 183.033 508.035 182.93C508.483 183.757 509.103 184.549 509.413 185.445C515.547 202.641 522.542 219.492 530.158 236.102C530.64 237.17 531.398 238.1 532.053 239.1L531.915 238.962C532.605 241.788 533.087 244.717 535.74 246.543L536.051 247.887C536.602 250.747 537.188 253.573 539.462 255.675L539.359 255.503C540.772 258.604 542.185 261.706 543.597 264.773L543.46 264.635C544.941 268.184 546.285 271.768 547.939 275.214C548.904 277.213 549.214 279.487 551.833 280.797C553.384 281.555 553.867 284.518 554.935 286.689H552.764C553.867 288.585 554.763 290.411 555.9 292.1C560.517 298.888 562.137 306.573 562.413 314.602C562.413 315.67 562.068 316.773 561.655 317.772C560.276 321.081 558.898 324.389 557.347 327.594C554.866 332.763 547.698 336.45 541.737 335.381C538.635 334.83 535.43 334.072 532.708 332.59C523.748 327.766 514.754 322.941 506.174 317.462C489.219 306.607 473.712 293.823 458.584 280.555C427.501 253.263 399.071 223.248 370.263 193.647C350.758 173.591 330.909 153.914 311.095 134.169C308.579 131.653 306.132 128.724 301.756 127.621C302.549 132.962 303.031 138.028 304.03 142.956C307.063 157.67 311.543 171.971 316.85 185.997C317.47 187.616 318.607 189.029 319.503 190.545L319.434 190.718C320.089 193.061 320.571 195.473 321.398 197.748C322.294 200.194 323.466 202.503 324.948 204.881C324.913 204.157 324.879 203.399 324.81 202.675L325.361 202.572C326.154 204.433 326.912 206.294 327.773 208.12C331.633 216.459 335.527 224.764 339.421 233.104C339.869 234.103 340.248 235.137 340.627 236.136C340.076 235.998 339.559 235.861 338.835 235.654C339.421 237.411 340.007 236.274 340.558 236.102C342.66 239.927 344.728 243.786 346.899 247.611C352.688 257.743 358.512 267.84 364.301 277.936C364.887 278.97 365.266 280.142 365.748 281.245L365.852 281.176H363.784C365.163 282.589 366.162 283.588 367.127 284.587C367.506 285.242 367.885 285.897 368.299 286.551C369.16 288.137 370.022 289.687 370.849 291.273L370.711 291.1C371.848 292.823 373.02 294.512 374.157 296.235L374.019 296.062C375.122 299.129 376.603 301.886 379.533 303.644C381.566 306.78 383.599 309.915 385.632 313.051C386.7 316.601 388.871 319.392 391.525 321.873L391.387 321.701C392.042 322.872 392.558 324.147 393.351 325.25C400.243 334.899 407.17 344.479 414.062 354.093C415.716 356.368 417.335 358.677 418.955 360.985C418.955 359.745 418.576 358.814 417.99 357.987C414.716 353.232 411.374 348.511 408.134 343.721C407.17 342.274 406.411 340.654 405.584 339.138L405.516 339.207L405.136 339.172ZM304.651 196.61C304.72 195.542 304.823 194.508 304.892 193.44C304.685 193.44 304.444 193.44 304.237 193.44C304.375 194.474 304.513 195.508 304.651 196.576C305.34 198.023 306.063 199.505 306.753 200.952C306.753 199.057 306.787 197.127 304.651 196.576V196.61ZM265.297 417.741C265.917 419.051 266.503 420.36 267.123 421.67C267.434 421.463 267.709 421.256 268.019 421.084C267.055 420.016 266.124 418.947 265.159 417.879C265.159 415.122 264.504 412.71 261.782 411.366C262.333 410.022 262.092 408.988 260.197 408.161C260.886 409.471 261.369 410.367 261.886 411.297C263.023 413.468 264.16 415.605 265.297 417.776V417.741ZM301.48 138.373C300.309 141.164 300.963 143.783 302.652 146.299L301.446 138.407C300.86 134.789 300.274 131.205 299.654 127.587C299.275 130.929 299.585 134.169 300.033 137.373C300.102 137.752 300.963 138.028 301.446 138.373H301.48ZM460.893 275.18C460.663 276.213 461.054 276.788 462.065 276.903C462.34 276.627 462.582 276.386 462.857 276.11C462.168 275.8 461.513 275.524 460.824 275.214C459.411 273.491 457.964 271.768 456 269.39C455.724 270.872 455.31 271.734 455.552 272.113C456.827 273.974 458.446 275.386 460.893 275.145V275.18ZM466.441 280.349L464.684 278.695C464.546 278.901 464.408 279.143 464.236 279.349C464.994 279.659 465.786 279.935 466.544 280.245C467.268 283.829 470.645 284.828 473.299 287.551C472.093 284.38 469.405 281.727 466.441 280.349ZM251.272 390.449C250.583 387.106 248.653 384.453 246.62 381.834C248.033 384.797 248.412 388.278 251.341 390.38C252.03 395.066 255.476 398.306 257.647 402.234C255.338 398.409 254.649 393.723 251.272 390.449ZM238.246 393.102C239.28 391.724 238.659 390.793 237.35 389.622C236.971 391.276 237.281 392.275 238.418 392.999C238.659 393.791 238.728 394.618 239.107 395.308C242.312 401.476 245.62 407.576 248.825 413.744C253.546 422.876 258.267 432.008 262.816 441.243C265.159 445.964 267.227 450.858 269.432 455.682C269.949 454.993 269.915 454.476 269.708 454.028C266.951 447.446 264.539 440.657 261.334 434.317C254.856 421.428 247.964 408.747 241.141 395.997C240.52 394.825 240.313 392.896 238.211 393.102H238.246ZM365.404 311.121C365.404 311.121 365.094 311.397 364.921 311.535C365.611 312.672 366.231 313.844 366.989 314.947C370.022 319.495 373.261 323.906 376.121 328.558C382.91 339.517 390.87 349.648 398.83 359.745C399.416 360.469 400.278 360.985 401.036 361.606C390.008 344.755 378.43 328.455 366.851 312.224C366.507 311.742 365.886 311.501 365.404 311.121ZM296.587 168.284C293.279 154.569 290.384 140.785 289.729 126.656C289.729 126.415 289.557 126.139 289.385 125.933C289.316 125.829 289.143 125.864 289.006 125.795C287.041 132.135 291.625 158.739 296.587 168.284ZM160.469 192.131C158.333 197.541 161.71 219.423 165.673 225.867C163.95 214.633 162.227 203.433 160.469 192.131ZM299.861 178.622C299.482 178.726 299.102 178.863 298.723 178.967C300.033 182.585 301.342 186.238 302.721 189.822C302.79 189.994 303.479 189.891 303.789 189.891C302.411 185.928 301.136 182.275 299.861 178.588V178.622ZM171.634 196.679L170.807 196.852L173.599 212.462C173.874 212.428 174.15 212.359 174.426 212.324C173.495 207.121 172.565 201.917 171.634 196.714V196.679ZM168.395 209.43C168.119 209.499 167.844 209.533 167.568 209.602C168.43 213.634 169.326 217.631 170.187 221.663C170.497 221.594 170.807 221.525 171.117 221.456L168.361 209.43H168.395ZM460.204 264.221C459.963 264.394 459.756 264.6 459.515 264.773C460.273 267.219 462.685 267.84 464.684 268.977C463.202 267.392 461.686 265.806 460.204 264.221ZM391.111 335.967C389.423 333.555 387.769 331.177 386.08 328.765C385.839 328.938 385.632 329.075 385.391 329.248C386.562 332.004 388.148 334.451 391.111 335.967ZM252.891 404.888C252.685 405.06 252.478 405.232 252.271 405.404C253.615 407.954 254.993 410.505 256.337 413.055C256.544 412.917 256.785 412.814 256.992 412.676L252.891 404.888ZM428.742 220.422C430.074 223.179 431.567 224.604 433.221 224.695C431.567 223.145 430.154 221.766 428.742 220.422ZM457.137 253.745C457.344 253.573 457.55 253.401 457.757 253.228L452.657 248.645C452.485 248.852 452.312 249.059 452.14 249.231C453.794 250.747 455.448 252.264 457.102 253.745H457.137ZM359.511 301.748C360.131 304 361.326 305.55 363.095 306.4C361.786 304.712 360.855 303.506 359.511 301.748ZM463.822 257.57C463.374 258.018 462.926 258.466 462.513 258.914C463.994 260.258 465.511 261.602 466.992 262.912C467.096 262.774 467.234 262.636 467.337 262.533C466.165 260.879 464.994 259.225 463.822 257.57ZM167.43 206.397L167.775 206.294C167.361 204.709 166.948 203.089 166.534 201.504C166.362 201.538 166.155 201.607 165.983 201.642C166.465 203.227 166.948 204.812 167.43 206.363V206.397ZM235.627 387.485C235.868 387.313 236.075 387.141 236.316 386.968C235.765 386.003 235.213 385.039 234.628 384.074L234.007 384.453C234.524 385.452 235.076 386.486 235.592 387.485H235.627ZM119.186 383.729C119.186 383.729 118.876 383.867 118.738 383.936C119.014 384.418 119.255 384.97 119.634 385.383C120.082 385.866 120.668 386.21 121.185 386.624C121.391 386.383 121.633 386.141 121.839 385.866C120.978 385.142 120.082 384.418 119.22 383.695L119.186 383.729ZM166.707 231.381C167.017 231.346 167.327 231.312 167.637 231.243C167.361 230.312 167.12 229.417 166.844 228.486C166.672 228.521 166.5 228.555 166.327 228.589C166.465 229.52 166.603 230.45 166.741 231.381H166.707ZM486.152 138.407C486.394 138.338 486.669 138.235 486.91 138.166C486.6 137.27 486.256 136.408 485.946 135.513C485.842 135.513 485.739 135.582 485.635 135.582C485.808 136.512 485.98 137.442 486.187 138.407H486.152ZM175.907 256.743C175.701 256.812 175.528 256.847 175.322 256.916L176.011 259.431C176.252 259.362 176.493 259.293 176.7 259.224C176.424 258.397 176.183 257.57 175.907 256.743ZM310.612 174.625L310.13 174.797C310.474 175.728 310.785 176.692 311.129 177.623L311.646 177.451C311.301 176.52 310.957 175.59 310.612 174.625ZM126.147 392.448C126.354 392.241 126.526 392 126.733 391.793C126.25 391.379 125.768 390.931 125.285 390.518L124.975 390.793C125.354 391.345 125.768 391.896 126.147 392.482V392.448ZM446.006 262.74C446.179 262.533 446.351 262.292 446.523 262.085C446.006 261.637 445.489 261.223 444.972 260.775L444.49 261.361C445.007 261.809 445.489 262.292 446.006 262.74ZM55.8137 302.162C55.4347 302.541 55.0556 302.886 54.6766 303.265C55.4002 303.575 56.1583 303.885 57.3645 304.367C56.6753 303.402 56.2273 302.782 55.8137 302.162ZM473.678 268.46C473.781 268.253 473.884 268.046 473.988 267.84L472.437 266.806C472.437 266.806 472.23 267.081 472.161 267.219C472.678 267.633 473.195 268.012 473.678 268.425V268.46ZM170.532 240.961C170.29 241.064 170.084 241.133 169.842 241.236C170.084 241.753 170.29 242.27 170.532 242.787L171.049 242.58C170.876 242.029 170.704 241.478 170.532 240.961ZM173.392 414.674C173.392 414.674 173.599 414.399 173.702 414.295C173.185 413.847 172.634 413.434 172.117 412.986L171.807 413.399C172.324 413.813 172.875 414.261 173.392 414.674ZM207.852 297.475C207.852 297.475 208.128 297.337 208.266 297.269C207.955 296.717 207.68 296.131 207.37 295.58C207.232 295.649 207.094 295.718 206.922 295.821C207.232 296.373 207.542 296.924 207.852 297.51V297.475ZM452.829 257.674C452.623 257.881 452.416 258.122 452.175 258.329C452.657 258.708 453.139 259.052 453.622 259.431C453.829 259.224 454.035 258.983 454.242 258.777C453.76 258.432 453.312 258.053 452.829 257.708V257.674ZM312.06 196.3C312.06 196.3 312.301 196.162 312.404 196.094C312.232 195.577 312.06 195.025 311.887 194.508C311.68 194.577 311.508 194.646 311.301 194.75C311.543 195.266 311.818 195.783 312.06 196.3ZM398.417 335.967C398.244 336.105 398.038 336.209 397.865 336.346C398.417 337.173 399.003 338 399.554 338.827C399.726 338.69 399.933 338.586 400.105 338.448C399.554 337.621 398.968 336.794 398.417 335.933V335.967ZM365.232 338.69C365.369 338.517 365.473 338.345 365.611 338.173C365.128 337.828 364.646 337.449 364.163 337.104C364.06 337.242 363.957 337.346 363.853 337.484C364.301 337.897 364.784 338.276 365.232 338.69ZM394.488 342.067C394.488 342.067 394.833 341.86 395.005 341.722C394.488 340.93 393.971 340.137 393.42 339.31C393.248 339.413 393.041 339.551 392.869 339.655C393.386 340.447 393.937 341.24 394.454 342.032L394.488 342.067ZM475.435 288.516C475.366 288.688 475.263 288.895 475.194 289.067C475.814 289.343 476.435 289.653 477.055 289.928C477.158 289.722 477.227 289.515 477.331 289.343C476.71 289.067 476.09 288.791 475.47 288.516H475.435ZM307.752 184.894L308.234 184.618C307.924 184.136 307.649 183.688 307.338 183.205C307.201 183.274 307.063 183.378 306.925 183.447C307.201 183.929 307.476 184.412 307.718 184.894H307.752ZM330.186 218.217C330.186 218.217 330.461 218.079 330.565 218.01C330.289 217.424 330.013 216.873 329.738 216.287C329.6 216.356 329.427 216.459 329.29 216.528C329.6 217.08 329.91 217.666 330.186 218.217ZM326.429 208.361C326.223 208.534 326.05 208.706 325.844 208.844C326.223 209.464 326.567 210.084 326.946 210.705L327.394 210.463C327.084 209.774 326.74 209.051 326.429 208.361ZM204.061 288.24C204.061 288.24 203.82 288.378 203.682 288.412C203.958 288.964 204.234 289.515 204.475 290.066C204.613 289.997 204.751 289.929 204.888 289.86C204.613 289.308 204.337 288.791 204.027 288.24H204.061ZM232.629 380.421C232.319 380.283 231.974 380.111 231.664 379.973C231.664 380.214 231.63 380.524 231.733 380.731C231.836 380.903 232.146 381.007 232.353 381.11C232.422 380.903 232.525 380.731 232.629 380.421ZM417.335 208.809L416.474 209.671C416.749 209.947 417.06 210.222 417.335 210.463C417.611 210.188 417.921 209.878 418.197 209.602C417.887 209.326 417.611 209.051 417.301 208.809H417.335ZM423.504 215.15C423.262 215.357 423.021 215.598 422.815 215.805C423.297 216.184 423.745 216.597 424.227 216.976C424.365 216.839 424.503 216.666 424.641 216.528C424.262 216.08 423.883 215.598 423.538 215.15H423.504ZM133.315 389.07C133.315 389.07 133.108 389.312 133.005 389.415C133.349 389.725 133.728 390.035 134.073 390.345L134.383 389.966C134.004 389.656 133.659 389.346 133.28 389.07H133.315ZM469.336 272.561C469.336 272.561 469.06 272.836 468.922 272.974C469.129 273.215 469.37 273.491 469.611 273.698C469.611 273.698 469.818 273.594 469.887 273.56C469.715 273.25 469.508 272.905 469.336 272.595V272.561ZM431.051 227.659C431.051 227.659 430.809 227.969 430.671 228.141C430.947 228.348 431.188 228.589 431.464 228.796C431.567 228.693 431.636 228.589 431.74 228.486C431.533 228.21 431.292 227.935 431.085 227.659H431.051ZM505.002 198.644C505.278 198.506 505.553 198.368 505.829 198.23C505.484 197.782 505.174 197.3 504.83 196.852C504.692 196.921 504.554 196.99 504.416 197.058C504.589 197.575 504.795 198.092 504.968 198.644H505.002ZM336.595 230.726C336.595 230.726 336.285 230.933 336.147 231.002C336.388 231.415 336.63 231.794 336.905 232.208C337.043 232.104 337.215 232.001 337.353 231.932C337.112 231.519 336.871 231.139 336.595 230.726ZM409.03 200.883C409.03 200.883 408.824 200.918 408.755 200.952C408.893 201.159 409.03 201.366 409.168 201.538C409.203 201.573 409.375 201.538 409.513 201.469C409.341 201.263 409.203 201.09 409.03 200.883ZM308.613 203.675C308.441 203.744 308.269 203.813 308.062 203.847C308.269 204.226 308.476 204.64 308.682 205.019C308.786 204.984 308.889 204.95 308.993 204.881C308.855 204.467 308.717 204.054 308.579 203.64L308.613 203.675Z" fill="#FFE57C"/>
<path d="M685.331 24.6886C678.302 24.5508 674.959 22.1386 672.65 16.3148C671.375 13.0411 672.202 12.5931 675.028 10.1464C677.681 7.8376 681.093 7.25179 683.746 4.66728C686.744 1.73817 691.19 -0.191623 695.945 0.0151381C699.667 0.187439 702.286 2.6342 701.976 6.45928C701.562 10.9391 699.908 15.0742 696.462 18.1067C694.015 20.2777 691.155 22.0352 688.364 23.7582C687.261 24.4474 685.814 24.5853 685.262 24.7576L685.331 24.6886Z" fill="#FFE57C"/>
<path d="M237.246 357.677C233.008 349.028 228.769 340.378 224.496 331.729C224.358 330.867 224.22 330.006 224.083 329.144L223.979 329.247C226.529 334.037 229.148 338.793 231.629 343.583C235.351 350.716 239.004 357.884 242.657 365.052C243.139 366.016 243.415 367.05 243.794 368.084L243.897 368.015C243.105 366.981 242.209 366.016 241.519 364.914C240.038 362.536 238.625 360.089 237.212 357.677H237.246Z" fill="#FFE57C"/>
<path d="M94.167 329.558C90.273 324.664 86.379 319.771 82.4506 314.878C81.5201 313.706 80.5897 312.569 79.6938 311.466C79.4525 310.639 79.1769 309.812 78.6255 308.02C79.7627 308.985 80.2107 309.226 80.5208 309.605C85.8277 316.532 91.1345 323.424 96.4069 330.385C96.8894 331.005 97.1306 331.798 97.4752 332.521L97.5786 332.452L94.2015 329.523L94.167 329.558Z" fill="#FFE57C"/>
<path d="M385.287 313.017C383.254 309.881 381.221 306.745 379.188 303.609C377.362 301.094 375.535 298.544 373.674 296.028L373.812 296.2C373.537 295.063 373.261 293.926 372.985 292.754L372.882 292.858C374.467 295.029 376.121 297.165 377.672 299.371C381.29 304.54 384.874 309.709 388.423 314.912C389.181 316.015 389.664 317.29 390.25 318.496L390.353 318.427C388.665 316.635 386.976 314.809 385.322 313.017H385.287Z" fill="#FFE57C"/>
<path d="M487.944 276.385C486.807 275.076 485.773 273.663 484.464 272.526C480.776 269.252 477.02 266.082 473.264 262.912C472.23 262.05 471.024 261.361 469.887 260.568C470.197 260.224 470.473 259.845 470.783 259.5C471.334 259.845 471.92 260.155 472.403 260.603C478.433 265.737 484.498 270.872 490.494 276.075C491.08 276.592 491.459 277.385 491.907 278.04L492.045 277.936C490.632 277.385 489.219 276.833 487.772 276.282L487.91 276.42L487.944 276.385Z" fill="#FFE57C"/>
<path d="M506.517 182.034C503.726 175.142 501.555 168.939 500.142 162.495C502.486 164.942 506.828 177.968 506.517 182.034Z" fill="#FFE57C"/>
<path d="M182.765 233.31C182.248 231.105 181.766 228.865 181.249 226.66C180.835 224.833 180.422 222.972 180.043 221.146L179.974 221.249C179.974 221.249 180.284 221.353 180.318 221.456C182.489 228.452 184.626 235.413 186.797 242.408L186.9 242.339C186.142 240.823 185.384 239.341 184.695 237.79C183.971 236.274 183.351 234.689 182.662 233.138L182.765 233.276V233.31Z" fill="#FFE57C"/>
<path d="M277.737 433.524C274.67 427.597 271.638 421.635 268.571 415.708C268.364 415.295 268.226 414.847 268.398 414.227C271.672 420.602 275.945 426.46 277.634 433.593L277.737 433.524Z" fill="#FFE57C"/>
<path d="M535.809 247.922L535.499 246.578C534.224 244.062 532.948 241.512 531.673 238.997L531.811 239.134C530.915 236.378 530.054 233.655 529.158 230.898L529.054 230.967C529.606 231.622 530.329 232.208 530.674 232.966C533.5 239.272 536.222 245.578 538.979 251.919C537.911 250.575 536.842 249.266 535.774 247.922H535.809Z" fill="#FFE57C"/>
<path d="M130.557 372.564C130.04 372.323 129.488 372.116 128.972 371.875C128.972 371.151 128.972 370.427 128.972 369.704L128.903 369.807C132.762 373.942 136.622 378.077 140.481 382.213L140.585 382.144C139.516 381.317 138.379 380.628 137.414 379.697C135.071 377.388 132.831 374.976 130.557 372.598V372.564Z" fill="#FFE57C"/>
<path d="M117.359 358.229C117.703 357.953 118.358 357.402 118.393 357.436C121.942 361.537 125.422 365.672 128.903 369.807L128.972 369.704C127.904 368.808 126.801 367.912 125.733 366.982C124.561 365.948 123.389 364.914 122.218 363.88L122.355 364.053C121.528 361.33 119.564 359.573 117.255 358.091L117.324 358.229H117.359Z" fill="#FFE57C"/>
<path d="M162.779 404.853C161.986 404.336 161.194 403.819 160.401 403.302C159.264 401.51 158.023 399.856 155.749 399.512C155.645 399.408 155.542 399.305 155.439 399.202C155.163 398.202 154.887 397.203 154.612 396.204L154.543 396.307C157.851 399.34 161.159 402.372 164.502 405.404L164.571 405.301C163.985 405.163 163.399 405.025 162.813 404.888L162.779 404.853Z" fill="#FFE57C"/>
<path d="M390.249 318.496C393.006 322.355 395.762 326.215 398.519 330.074L398.588 330.006C397.417 328.696 396.279 327.387 395.108 326.112C393.764 324.63 392.385 323.148 391.041 321.701L391.179 321.873C390.904 320.736 390.628 319.599 390.318 318.461L390.214 318.53L390.249 318.496Z" fill="#FFE57C"/>
<path d="M491.941 277.971C495.801 281.004 499.66 284.036 503.554 287.069L503.658 286.965C502.348 286.31 500.832 285.897 499.798 284.966C497.214 282.589 493.63 281.348 492.079 277.868L491.941 277.971Z" fill="#FFE57C"/>
<path d="M260.472 398.409C262.367 401.993 264.262 405.577 266.158 409.161C265.916 409.299 265.641 409.436 265.4 409.574C263.504 405.99 261.609 402.441 259.679 398.857C259.92 398.719 260.196 398.581 260.437 398.409H260.472Z" fill="#FFE57C"/>
<path d="M146.513 389.69C144.686 387.761 142.825 385.796 140.999 383.867C140.861 383.281 140.723 382.695 140.586 382.109L140.482 382.178C143.377 383.798 145.686 385.969 146.961 389.07C146.823 389.277 146.685 389.484 146.513 389.69Z" fill="#FFE57C"/>
<path d="M499.316 160.634C498.42 157.533 497.524 154.431 496.628 151.364C499.11 153.983 499.764 157.188 500.212 160.462L499.351 160.669L499.316 160.634Z" fill="#FFE57C"/>
<path d="M503.52 287.069C506.552 289.274 509.585 291.479 512.583 293.65L512.721 293.581C511.859 293.581 510.963 293.581 510.102 293.581L510.274 293.685C509.102 292.823 507.965 291.927 506.794 291.066L506.966 291.204C505.794 290.342 504.657 289.446 503.485 288.585L503.623 288.723C503.623 288.137 503.623 287.551 503.623 286.931L503.52 287.034V287.069Z" fill="#FFE57C"/>
<path d="M187.175 248.128C187.175 247.336 187.243 246.543 187.278 245.75C187.14 244.613 187.002 243.476 186.864 242.339L186.761 242.408C188.139 246.267 189.518 250.127 190.896 253.986L191 253.918C190.414 253.332 189.828 252.78 189.242 252.195L189.345 252.367C189.173 250.678 189.001 248.955 187.175 248.094V248.128Z" fill="#FFE57C"/>
<path d="M445.49 236.791C446.006 236.826 446.696 236.688 447.006 236.964C449.487 239.204 451.865 241.547 454.07 244.097C451.865 243.89 451.141 241.788 449.659 240.616C448.177 239.445 446.937 237.997 445.558 236.688L445.455 236.791H445.49Z" fill="#FFE57C"/>
<path d="M180.042 221.146C178.905 216.494 177.768 211.807 176.631 207.155L176.562 207.224C177.044 208.43 177.699 209.567 177.975 210.808C178.733 214.254 179.319 217.734 179.973 221.215L180.042 221.112V221.146Z" fill="#FFE57C"/>
<path d="M529.124 230.898C527.435 227.418 525.747 223.937 524.058 220.457C524.368 220.319 524.644 220.181 524.954 220.078C526.47 223.661 528.779 226.901 529.055 230.967L529.124 230.898Z" fill="#FFE57C"/>
<path d="M398.519 330.075C401.586 332.487 403.654 335.623 405.135 339.172L405.204 339.103C402.172 336.657 400.001 333.624 398.588 330.006L398.519 330.075Z" fill="#FFE57C"/>
<path d="M525.436 304.367C524.093 303.299 522.783 302.196 521.439 301.128C521.232 300.542 521.06 299.956 520.853 299.371C523.403 301.231 525.953 303.092 528.503 304.953C527.47 304.746 526.47 304.574 525.436 304.367Z" fill="#FFE57C"/>
<path d="M192.586 260.913C192.483 260.258 192.38 259.604 192.242 258.949C191.828 257.26 191.415 255.572 191.001 253.883L190.898 253.952C192.276 257.536 193.655 261.154 195.033 264.738L195.136 264.635C194.275 263.394 193.413 262.119 192.586 260.879V260.913Z" fill="#FFE57C"/>
<path d="M319.089 190.718L319.158 190.545C318.676 188.995 318.159 187.444 317.677 185.893L318.159 185.687C319.365 188.788 320.606 191.889 321.812 194.991L321.881 194.887C320.95 193.509 319.985 192.096 319.055 190.718H319.089Z" fill="#FFE57C"/>
<path d="M222.36 327.904C221.843 327.111 221.292 326.353 220.775 325.56C220.499 324.01 220.258 322.459 219.982 320.908L219.879 320.977C221.257 323.734 222.636 326.525 224.014 329.282L224.118 329.179C223.532 328.765 222.946 328.317 222.36 327.904Z" fill="#FFE57C"/>
<path d="M245.413 371.53C247.998 373.701 248.79 376.872 250.031 379.766C247.894 377.32 246.309 374.597 245.482 371.461L245.379 371.565L245.413 371.53Z" fill="#FFE57C"/>
<path d="M492.907 156.292C494.32 157.601 497.214 157.946 495.974 161.461C494.63 159.669 492.459 158.807 493.01 156.188L492.907 156.292Z" fill="#FFE57C"/>
<path d="M519.785 298.647C518.682 298.268 517.579 297.889 516.511 297.475C515.167 296.924 513.858 296.338 512.548 295.752L512.755 295.821C512.755 295.098 512.755 294.374 512.755 293.616L512.617 293.685C514.995 295.339 517.407 296.993 519.785 298.647Z" fill="#FFE57C"/>
<path d="M539.116 252.987C540.495 256.088 541.873 259.155 543.251 262.257L543.355 262.188C542.735 261.189 542.08 260.224 541.459 259.224C540.667 257.984 539.909 256.743 539.116 255.503L539.22 255.675C539.22 254.779 539.151 253.849 539.116 252.953V252.987Z" fill="#FFE57C"/>
<path d="M367.919 286.552C367.54 285.897 367.161 285.242 366.748 284.587C366.334 283.45 365.921 282.313 365.507 281.176L365.404 281.245C366.782 283.45 368.161 285.656 369.539 287.895L369.642 287.827C369.057 287.413 368.471 286.965 367.919 286.552Z" fill="#FFE57C"/>
<path d="M253.993 386.383C254.889 388.175 255.819 389.932 256.715 391.724C256.508 391.827 256.336 391.931 256.129 392.034L253.373 386.727L253.993 386.348V386.383Z" fill="#FFE57C"/>
<path d="M308.785 159.497C311.404 160.703 310.301 163.529 311.025 165.527C310.267 163.529 309.509 161.496 308.785 159.462V159.497Z" fill="#FFE57C"/>
<path d="M351 327.077C350.035 325.836 349.07 324.595 348.105 323.355C348.209 323.251 348.346 323.114 348.45 323.01C349.415 323.872 350.449 324.664 351.31 325.595C351.482 325.767 351.034 326.491 350.896 326.973L351 327.077Z" fill="#FFE57C"/>
<path d="M146.513 389.691C146.685 389.484 146.823 389.277 146.961 389.07C149.063 389.415 149.994 390.966 150.683 392.758C149.89 392.516 149.098 392.275 148.305 392.034C147.719 391.241 147.099 390.483 146.513 389.691Z" fill="#FFE57C"/>
<path d="M321.846 194.991C322.501 196.576 323.19 198.127 323.845 199.712C322.191 198.471 321.57 196.886 321.915 194.922L321.846 194.991Z" fill="#FFE57C"/>
<path d="M543.219 262.223C543.977 263.601 544.77 264.98 545.528 266.392C545.424 266.461 545.356 266.53 545.252 266.565C544.563 265.91 543.874 265.29 543.15 264.635L543.288 264.773C543.288 263.911 543.288 263.015 543.288 262.154L543.185 262.223H543.219Z" fill="#FFE57C"/>
<path d="M308.062 151.502C306.167 150.503 306.167 148.745 306.373 146.884C306.925 148.435 307.476 149.951 308.062 151.502Z" fill="#FFE57C"/>
<path d="M369.538 287.896C370.641 289.55 371.743 291.204 372.846 292.892L372.949 292.789L370.365 291.1L370.503 291.273C370.227 290.135 369.951 288.998 369.676 287.827L369.572 287.896H369.538Z" fill="#FFE57C"/>
<path d="M308.062 151.502C308.304 154.156 308.545 156.809 308.786 159.463C308.545 156.809 308.304 154.156 308.097 151.468L308.062 151.502Z" fill="#FFE57C"/>
<path d="M482.947 155.086C480.5 155.431 480.534 154.052 480.741 152.398C483.291 152.122 481.982 154.397 482.912 155.086H482.947Z" fill="#FFE57C"/>
<path d="M314.368 175.176C313.678 173.832 313.024 172.488 312.334 171.144C312.645 171.041 312.955 170.937 313.23 170.834C313.575 172.316 313.92 173.798 314.264 175.279L314.368 175.176Z" fill="#FFE57C"/>
<path d="M97.4749 332.556C98.4053 333.486 99.3702 334.382 100.301 335.312C100.163 335.45 100.025 335.588 99.8871 335.726C99.0601 335.175 98.2675 334.623 97.4404 334.106L97.5783 334.244C97.5783 333.658 97.5783 333.072 97.5783 332.452L97.4749 332.521V332.556Z" fill="#FFE57C"/>
<path d="M152.888 395.756C152.509 395.377 152.13 394.998 151.751 394.619C151.338 393.964 150.958 393.309 150.545 392.654C152.406 393.275 153.922 394.308 154.542 396.273L154.611 396.169C154.025 396.031 153.44 395.893 152.888 395.756Z" fill="#FFE57C"/>
<path d="M459.617 249.852C458.963 249.3 458.308 248.714 457.619 248.163C457.756 247.991 457.894 247.853 457.998 247.681C458.721 248.266 459.445 248.852 460.169 249.438C459.996 249.576 459.79 249.714 459.617 249.852Z" fill="#FFE57C"/>
<path d="M519.095 204.502C518.234 203.502 517.338 202.469 516.476 201.469V201.538C517.303 202.537 518.165 203.537 519.061 204.536H519.095V204.502Z" fill="#FFE57C"/>
<path d="M516.476 201.469L515.477 198.196C515.684 198.161 515.89 198.127 516.097 198.092C516.235 199.229 516.338 200.367 516.442 201.538L516.476 201.469Z" fill="#FFE57C"/>
<path d="M304.72 135.823C304.272 134.996 303.824 134.169 303.376 133.307C303.514 133.238 303.617 133.17 303.755 133.101C304.065 133.997 304.41 134.927 304.72 135.823Z" fill="#FFE57C"/>
<path d="M304.72 135.823V139.441C304.72 139.441 304.547 139.441 304.444 139.441C304.547 138.235 304.651 137.029 304.72 135.823Z" fill="#FFE57C"/>
<path d="M519.062 204.536C519.234 205.535 519.441 206.535 519.648 207.707C518.097 206.845 518.476 205.708 519.096 204.536H519.062Z" fill="#FFE57C"/>
<path d="M115.773 355.196C115.325 354.679 114.877 354.162 114.395 353.645C114.533 353.542 114.671 353.404 114.774 353.301C115.222 353.818 115.67 354.369 116.118 354.886C115.98 354.989 115.877 355.093 115.739 355.196H115.773Z" fill="#FFE57C"/>
<path d="M314.3 175.245C314.748 176.244 315.23 177.209 315.678 178.209C315.402 178.278 315.127 178.347 314.851 178.416C314.713 177.347 314.541 176.245 314.403 175.176L314.3 175.28V175.245Z" fill="#FFE57C"/>
<path d="M522.438 213.944C522.748 214.771 523.058 215.563 523.369 216.39C523.231 216.459 523.058 216.528 522.921 216.597C522.542 215.805 522.163 215.047 521.783 214.254C521.99 214.151 522.231 214.047 522.438 213.944Z" fill="#FFE57C"/>
<path d="M482.774 158.05C480.948 157.291 480.948 156.912 482.912 155.086C482.843 156.12 482.774 157.119 482.671 158.153L482.774 158.084V158.05Z" fill="#FFE57C"/>
<path d="M243.828 368.119C244.345 369.256 244.896 370.393 245.413 371.53L245.517 371.427C244.931 371.117 244.38 370.806 243.794 370.462L243.932 370.634C243.932 369.773 243.932 368.911 243.932 368.015L243.828 368.084V368.119Z" fill="#FFE57C"/>
<path d="M493.181 121.866C492.802 121.108 492.389 120.385 492.01 119.626C492.113 119.558 492.251 119.489 492.354 119.454C492.63 120.281 492.906 121.074 493.181 121.901V121.866Z" fill="#FFE57C"/>
<path d="M175.425 200.022C175.425 199.402 175.356 198.781 175.322 198.161C175.46 198.161 175.632 198.161 175.77 198.161C175.77 198.781 175.839 199.402 175.873 200.022C175.735 200.022 175.597 200.022 175.425 200.022Z" fill="#FFE57C"/>
<path d="M463.064 252.091C463.408 252.505 463.753 252.918 464.097 253.332C463.96 253.47 463.822 253.573 463.684 253.711L462.478 252.608C462.685 252.436 462.891 252.264 463.098 252.091H463.064Z" fill="#FFE57C"/>
<path d="M493.182 121.866C493.286 122.866 493.423 123.899 493.527 124.899H493.182C493.182 123.899 493.182 122.866 493.182 121.866Z" fill="#FFE57C"/>
<path d="M176.631 207.155C176.493 206.225 176.39 205.329 176.252 204.398C176.355 204.398 176.458 204.398 176.596 204.398C176.596 205.329 176.596 206.294 176.596 207.259L176.665 207.19L176.631 207.155Z" fill="#FFE57C"/>
</svg>
