<svg width="2087" height="1467" viewBox="0 0 2087 1467" fill="none" xmlns="http://www.w3.org/2000/svg">
<path d="M1204.41 1008.48C1205.44 1008.99 1206.87 1009.2 1207.48 1010.12C1227.56 1037.47 1248.35 1064.51 1262.9 1095.44C1265.25 1100.46 1266.07 1106.3 1266.89 1111.93C1267.3 1114.59 1266.89 1118.49 1265.25 1120.02C1257.57 1127.19 1256.24 1137.13 1252.45 1146.04C1249.89 1152.08 1246.41 1156.49 1239.85 1158.33C1237.5 1158.94 1235.14 1159.87 1233.19 1161.3C1227.36 1165.6 1220.9 1166.22 1214.55 1163.66C1203.9 1159.46 1192.84 1155.77 1183.21 1149.83C1150.43 1129.65 1117.56 1109.58 1085.91 1087.76C1006.53 1033.06 933.396 970.483 864.054 903.599C784.879 827.19 707.036 749.245 628.579 672.016C600.617 644.464 572.45 617.117 544.386 589.667C542.03 587.413 539.674 585.058 537.011 583.214C530.865 578.912 524.413 574.815 518.165 570.616C517.345 571.026 516.424 571.538 515.604 571.947C517.448 586.492 518.165 601.241 521.34 615.375C526.768 639.65 533.733 663.618 540.186 687.585C540.801 689.736 542.439 691.682 543.566 693.731L543.259 693.321C546.127 706.431 548.38 719.747 557.086 730.706C557.086 733.062 556.881 735.418 556.779 737.773C558.93 741.973 561.081 746.275 563.232 750.474L562.924 749.962C564.051 757.439 565.383 764.916 571.835 770.037C572.143 771.983 572.45 773.93 572.86 775.876C575.318 783.557 577.776 791.341 580.234 799.023C580.849 798.819 581.463 798.614 582.078 798.409C581.566 794.619 580.951 790.83 580.439 787.04L580.132 787.347C586.073 800.56 592.013 813.875 597.954 827.088C615.571 866.01 633.188 905.033 650.703 943.955C652.137 947.233 652.751 950.817 653.775 954.3L654.083 954.095C651.317 950.408 648.449 946.823 645.684 943.135C645.377 943.238 645.069 943.443 644.66 943.545C648.552 951.637 652.546 959.831 656.438 967.922C657.975 970.278 659.614 972.531 661.15 974.887C661.15 979.906 662.789 984.003 667.603 986.359C680.201 1012.07 692.799 1037.78 705.5 1063.48C712.158 1076.29 718.815 1089.19 725.473 1102L725.063 1101.48C731.618 1115 737.764 1128.83 744.729 1142.15C770.437 1191.82 796.453 1241.4 822.367 1290.97C823.084 1292.3 824.006 1293.43 826.054 1296.4V1288.82L825.747 1289.02C828.512 1293.74 831.995 1298.24 833.839 1303.36C841.111 1323.75 848.485 1344.13 854.528 1364.92C860.367 1385 858.728 1404.66 846.642 1422.69C845.515 1424.33 844.593 1426.27 843.876 1428.22C833.019 1460.18 797.58 1472.26 767.262 1464.48C741.963 1458.03 718.918 1446.66 696.282 1434.26C622.331 1393.91 553.911 1345.56 488.974 1291.89C404.268 1221.83 331.034 1141.02 263.536 1054.68C232.502 1015.04 202.696 974.375 173.607 933.303C150.152 900.322 127.823 866.522 106.416 832.209C73.0259 778.846 41.479 724.253 18.8431 665.154C11.6733 646.513 6.65448 627.052 1.63566 607.694C-1.02739 597.451 0.0992863 594.993 5.11811 584.955C10.4442 596.837 9.82969 609.23 15.1558 619.985C15.3606 606.977 14.3364 593.969 16.9994 581.37C18.1261 581.268 19.1504 581.063 20.277 580.961C22.0183 586.799 23.8619 592.535 26.1153 599.909C28.1638 592.227 24.2716 585.058 30.4171 579.834C37.9965 582.087 37.5869 588.233 38.9184 593.764C39.2257 591.101 39.6353 588.438 39.9426 585.672C40.4547 585.467 40.9669 585.16 41.479 584.955C42.6057 587.516 44.3469 590.077 44.7566 592.74C47.3172 608.206 53.053 622.34 61.4518 635.553C65.0367 641.187 68.0071 647.537 69.9531 653.99C74.4598 669.354 82.7563 682.464 91.1551 696.086C97.403 706.227 105.597 715.137 110.718 726.097C115.737 736.749 122.292 746.787 128.643 756.824C144.723 782.021 161.009 807.013 177.192 832.107C179.958 836.409 183.235 839.891 182.108 846.344C181.392 850.134 185.591 855.153 188.459 859.147C204.744 881.578 221.132 903.907 237.52 926.133C240.286 929.513 243.051 932.893 245.714 936.273C257.288 950.817 268.862 965.362 280.539 979.906C283.919 984.515 287.299 989.227 290.679 993.836L290.269 993.426C292.113 996.499 293.649 999.879 296.005 1002.64C311.881 1022 327.962 1041.36 344.042 1060.51C345.579 1062.36 347.73 1063.59 349.573 1065.02L349.368 1064.61C354.387 1070.55 359.509 1076.39 364.527 1082.33L364.118 1081.82C370.775 1089.71 377.433 1097.69 384.09 1105.58L388.802 1107.63C393.309 1117.26 410.516 1135.9 419.837 1141.23C425.265 1146.96 430.796 1152.8 436.225 1158.54C437.966 1160.89 439.81 1163.14 441.551 1165.5C444.931 1168.06 448.311 1170.52 451.793 1173.08C452.92 1174.21 454.047 1175.33 455.173 1176.46C457.734 1179.84 460.192 1183.22 462.753 1186.6C463.06 1186.91 463.367 1187.21 463.675 1187.52C468.284 1191.31 472.893 1195.1 477.502 1198.79C479.858 1200.32 482.214 1201.86 484.569 1203.4C486.003 1205.55 487.54 1207.6 490.203 1211.49C489.998 1207.6 489.895 1206.06 489.793 1204.63L489.588 1204.93C492.661 1206.88 496.041 1208.42 498.704 1210.77C561.593 1266.7 629.296 1316.07 701.198 1359.6C721.786 1372.09 742.885 1383.97 764.292 1395.03C775.047 1400.57 787.133 1403.74 801.267 1408.96C800.448 1402.61 800.346 1398.72 799.526 1395.14C793.381 1369.12 783.241 1344.44 771.462 1320.57C743.397 1264.14 715.026 1207.9 686.039 1151.88C628.989 1041.67 573.884 930.64 528.202 815.104C505.464 757.644 484.672 699.364 470.947 638.933C465.826 616.605 461.421 594.071 462.65 570.923C463.06 563.651 464.084 556.276 465.826 549.107C468.181 539.376 474.327 533.231 483.852 529.031C495.529 523.808 507.103 519.096 519.906 518.072C535.782 516.843 550.429 519.403 563.846 529.339C583.717 543.985 603.28 558.837 621.512 575.532C625.404 579.015 630.013 581.678 634.007 585.058C637.695 588.131 641.689 591.306 644.045 595.3C646.708 599.807 650.191 601.548 654.8 602.265C656.131 608.615 659.409 612.61 666.476 611.996C671.188 616.912 675.08 623.467 680.713 626.438C687.166 629.818 688.293 636.885 693.107 640.265C698.535 644.054 699.662 652.249 706.627 653.273C713.796 654.297 716.05 660.545 720.864 664.027L717.381 666.281C718.098 667.1 719.225 668.637 719.635 668.534C720.761 668.022 721.683 666.895 722.707 665.973C729.16 673.041 737.969 678.162 740.222 688.507C740.529 689.736 742.578 691.682 743.602 691.58C752.103 690.453 755.381 697.725 759.99 702.232C817.758 757.337 875.013 812.953 933.191 867.751C961.153 894.176 990.549 919.065 1019.33 944.672C1022.1 947.13 1024.76 949.691 1027.01 952.559C1027.52 953.173 1026.19 955.119 1025.68 956.451C1023.73 954.607 1021.89 952.866 1019.94 951.022C1019.53 951.534 1019.13 952.149 1018.72 952.661C1021.07 953.788 1023.53 955.017 1025.89 956.144C1029.47 964.235 1037.05 967.718 1043.91 972.122L1043.6 971.917C1047.29 974.887 1051.08 977.96 1054.87 980.93C1057.12 982.876 1059.28 984.925 1061.53 986.871C1061.94 986.256 1062.35 985.642 1062.66 985.027C1059.99 983.798 1057.33 982.467 1054.56 981.237C1054.26 979.701 1054.05 978.062 1053.34 974.477C1086.11 999.367 1117.66 1023.33 1149.2 1047.3C1149.82 1040.34 1145.72 1036.34 1142.75 1031.94C1113.56 988.51 1083.55 945.594 1055.18 901.653C1018.92 845.525 986.042 787.449 956.851 727.326C921.002 653.58 888.943 578.298 867.331 499.021C858.933 468.293 853.402 436.746 847.256 405.404C845.31 395.469 845.31 385.022 845.412 374.779C845.515 355.831 849.407 339.75 870.711 332.171C891.196 324.898 910.862 321.314 931.245 330.327C943.228 335.653 954.495 341.901 964.328 351.017C972.215 358.391 982.457 363.103 990.549 370.273C1012.77 390.041 1034.9 410.116 1056.31 430.806C1093.69 466.962 1130.67 503.528 1167.44 540.298C1194.07 566.929 1219.88 594.276 1246.3 621.111C1269.55 644.669 1293.21 667.715 1316.47 691.272C1319.95 694.755 1325.89 697.111 1324.66 703.768L1324.97 703.461L1298.54 679.289L1296.8 680.927C1300.49 684.922 1303.97 689.019 1307.86 692.809C1333.26 717.596 1358.25 742.792 1384.27 766.76C1404.24 785.196 1425.65 802.199 1446.54 819.816C1447.67 820.737 1449.52 820.942 1451.05 821.454L1450.64 821.045C1464.88 835.385 1480.14 848.29 1497.76 858.328L1497.35 857.918C1500.83 860.478 1504.21 863.142 1507.69 865.702L1507.18 865.292C1510.66 867.853 1514.04 870.516 1517.53 873.077L1517.01 872.769C1519.57 874.92 1522.13 877.071 1524.7 879.222L1524.08 879.017C1532.89 884.343 1541.7 889.772 1550.61 895.098C1554.6 898.273 1558.5 901.551 1562.49 904.726C1565.77 906.877 1569.04 909.028 1572.42 911.179C1572.83 910.872 1573.24 910.462 1573.65 910.155C1572.83 908.618 1572.02 906.979 1571.3 905.443C1583.08 911.896 1594.75 918.349 1606.53 924.904C1607.25 924.494 1607.97 923.982 1608.68 923.572C1607.66 919.987 1606.94 916.198 1605.51 912.715C1588.3 873.384 1571.3 833.951 1553.48 794.824C1524.18 730.297 1495.3 665.666 1472.05 598.783C1458.73 560.271 1446.95 521.145 1434.46 482.326C1433.02 478.024 1431.8 473.619 1435.79 469.83L1435.48 470.034C1437.63 472.083 1440.91 473.722 1441.73 476.18C1450.13 500.762 1459.14 525.242 1466.11 550.233C1476.76 588.438 1493.97 623.979 1508.31 660.647C1523.47 699.467 1541.8 736.954 1558.7 775.056C1569.04 798.511 1579.19 822.069 1589.84 845.32C1594.75 855.972 1600.59 866.112 1607.97 876.047C1607.25 872.872 1607.15 869.492 1605.82 866.624C1593.83 838.457 1582.05 810.29 1569.56 782.431C1556.86 754.059 1542.62 726.404 1530.64 697.828C1513.84 657.472 1497.45 616.81 1483.01 575.532C1469.59 537.225 1458.73 497.996 1447.36 459.075C1441.32 438.385 1436.3 417.286 1431.28 396.391C1428.42 384.51 1426.37 372.424 1423.91 360.337C1422.99 355.728 1421.76 351.119 1420.73 346.51C1419.91 346.612 1419.09 346.817 1418.28 346.92C1419.91 363.82 1421.66 380.72 1423.09 397.722C1423.4 401.615 1422.99 405.609 1422.27 409.501C1421.76 412.676 1420.63 415.135 1424.22 418.003C1426.98 420.154 1427.39 424.763 1420.43 425.48C1418.89 418.31 1417.25 411.345 1415.82 404.278C1411.21 381.642 1404.76 359.211 1405.78 335.858C1406.19 325.308 1407.32 314.553 1410.39 304.516C1412.54 297.448 1417.56 290.484 1423.09 285.567C1441.73 268.974 1463.34 257.605 1488.03 252.586C1501.14 249.923 1514.15 250.333 1526.54 255.659C1536.99 260.166 1547.54 264.57 1557.57 269.999C1583.49 284.236 1610.12 296.424 1638.8 303.696C1653.75 307.486 1656.93 305.95 1664.91 292.839C1673.83 278.09 1676.59 261.497 1679.05 244.905C1681.2 229.951 1683.04 214.996 1684.58 199.94C1688.78 158.765 1705.27 140.021 1749.83 125.579C1766.52 120.151 1783.83 121.585 1801.04 123.326C1811.18 124.35 1821.42 125.272 1831.56 126.092C1840.88 126.809 1849.38 124.658 1857.17 119.331C1871.3 109.601 1885.64 100.076 1899.98 90.5501C1910.94 83.2779 1922.51 77.1323 1935.83 75.0838C1944.23 73.8547 1945.25 74.8791 1948.53 86.1459C1928.56 102.841 1907.97 120.151 1887.18 137.358C1881.24 142.275 1874.78 146.781 1868.43 151.288C1854.09 161.531 1838.01 167.881 1820.5 168.7C1802.57 169.52 1784.55 169.008 1766.62 167.983C1748.49 166.857 1749.11 165.525 1745.11 184.166C1741.32 201.681 1739.28 219.606 1736.2 237.223C1735.49 241.012 1733.64 244.7 1732.21 248.387C1731.9 249.104 1731.08 249.821 1731.18 250.435C1733.54 262.726 1726.16 272.764 1722.48 283.314C1719.51 291.713 1713.16 299.497 1706.7 305.95C1696.67 315.987 1685.5 325.103 1674.34 334.014C1665.53 340.979 1654.88 344.462 1643.92 346.305C1621.69 350.095 1599.67 348.559 1578.88 339.852C1554.81 329.712 1531.25 318.241 1507.59 307.179C1499.81 303.594 1492.33 299.19 1484.44 295.912C1470.61 290.176 1464.16 294.273 1463.24 309.022C1462.73 317.933 1463.04 326.947 1463.04 335.858C1463.04 337.701 1463.04 339.443 1461.6 341.389C1460.99 340.057 1460.47 338.726 1459.04 335.55C1460.88 373.243 1470 407.863 1476.35 443.302C1475.22 441.663 1473.58 440.229 1473.18 438.488C1469.39 424.763 1466.01 410.935 1462.22 397.21C1461.29 393.728 1459.14 390.655 1457.61 387.377C1457.2 380.617 1456.68 373.96 1456.28 367.302C1455.25 367.405 1454.33 367.61 1453.3 367.712C1454.84 374.165 1456.28 380.72 1457.81 387.173C1460.06 405.609 1463.14 423.738 1469.49 441.356C1472.36 449.447 1474.1 458.051 1466.11 464.811L1466.42 464.504C1464.57 461.124 1462.01 457.846 1460.88 454.159C1458.12 445.657 1455.97 436.951 1453.51 428.347C1452.9 426.299 1451.56 424.353 1448.29 423.021C1449.31 429.884 1450.13 436.849 1451.46 443.711C1452.69 450.369 1454.12 457.026 1456.07 463.582C1458.53 471.673 1461.7 479.662 1464.37 487.652C1469.9 504.244 1475.12 520.94 1480.75 537.43C1484.85 549.312 1489.26 560.988 1493.76 572.664C1494.58 574.713 1496.73 576.249 1499.91 579.937C1498.68 574.61 1498.27 571.64 1497.35 568.772C1492.74 554.023 1487.72 539.479 1483.32 524.627C1482.19 520.735 1483.11 516.228 1483.11 511.312C1472.97 502.708 1471.74 496.563 1478.4 484.784C1479.32 485.501 1480.55 486.013 1480.86 486.935C1485.16 498.304 1489.56 509.673 1493.46 521.145C1494.27 523.398 1493.46 526.266 1493.25 528.827C1493.25 529.851 1492.64 531.49 1493.05 531.694C1504.21 539.479 1501.65 554.023 1508.72 563.753C1510.87 566.724 1513.12 569.694 1515.37 572.664C1516.09 577.991 1516.4 583.419 1517.73 588.54C1518.14 590.077 1521.31 590.896 1523.16 592.023C1520.8 597.656 1522.24 601.856 1527.67 604.621C1526.85 609.64 1527.67 614.147 1532.07 617.424C1535.14 629.305 1537.4 641.596 1545.9 651.327C1543.64 639.138 1539.14 627.769 1531.86 617.629C1530.43 613.327 1528.89 609.025 1527.46 604.826C1525.92 600.626 1524.49 596.427 1522.95 592.227C1520.39 585.775 1517.83 579.322 1515.17 572.869C1512.71 563.651 1510.25 554.33 1507.79 545.112C1508.61 544.805 1509.43 544.395 1510.25 544.088C1511.58 546.546 1513.43 548.902 1514.35 551.565C1532.58 602.675 1553.37 652.761 1576.01 702.129C1577.44 705.305 1579.7 708.07 1581.64 711.04L1581.23 710.631C1583.28 719.03 1584.72 727.736 1592.6 733.164L1593.52 737.159C1595.16 745.66 1596.9 754.059 1603.66 760.307L1603.36 759.795C1607.56 769.013 1611.76 778.231 1615.96 787.347L1615.55 786.937C1619.95 797.487 1623.94 808.139 1628.86 818.382C1631.73 824.323 1632.65 831.083 1640.44 834.975C1645.04 837.228 1646.48 846.036 1649.65 852.489H1643.2C1646.48 858.123 1649.14 863.551 1652.52 868.57C1666.25 888.748 1671.06 911.589 1671.88 935.453C1671.88 938.629 1670.86 941.906 1669.63 944.877C1665.53 954.71 1661.43 964.542 1656.82 974.068C1649.45 989.432 1628.14 1000.39 1610.42 997.216C1601.21 995.577 1591.68 993.324 1583.59 988.919C1556.96 974.58 1530.23 960.241 1504.72 943.955C1454.33 911.691 1408.24 873.691 1363.27 834.258C1270.89 753.137 1186.39 663.925 1100.76 575.942C1042.79 516.331 983.789 457.846 924.894 399.157C917.417 391.68 910.145 382.973 897.137 379.696C899.493 395.571 900.927 410.628 903.897 425.275C912.911 469.01 926.226 511.517 941.999 553.203C943.843 558.017 947.223 562.217 949.886 566.724L949.681 567.236C951.627 574.201 953.061 581.37 955.519 588.13C958.182 595.403 961.665 602.265 966.069 609.332C965.967 607.182 965.864 604.928 965.659 602.777L967.298 602.47C969.654 608.001 971.907 613.532 974.468 618.96C985.94 643.747 997.514 668.432 1009.09 693.219C1010.42 696.189 1011.55 699.262 1012.67 702.232C1011.03 701.822 1009.5 701.412 1007.35 700.798C1009.09 706.022 1010.83 702.642 1012.47 702.129C1018.72 713.499 1024.86 724.97 1031.31 736.339C1048.52 766.452 1065.83 796.463 1083.04 826.474C1084.78 829.546 1085.91 833.029 1087.34 836.306L1087.65 836.102H1081.5C1085.6 840.301 1088.57 843.271 1091.44 846.241C1092.56 848.188 1093.69 850.134 1094.92 852.08C1097.48 856.791 1100.04 861.4 1102.5 866.112L1102.09 865.6C1105.47 870.721 1108.95 875.74 1112.33 880.861L1111.92 880.349C1115.2 889.465 1119.6 897.659 1128.31 902.882C1134.35 912.203 1140.4 921.524 1146.44 930.845C1149.61 941.394 1156.07 949.691 1163.95 957.065L1163.54 956.553C1165.49 960.035 1167.03 963.825 1169.38 967.103C1189.87 995.782 1210.46 1024.26 1230.94 1052.83C1235.86 1059.59 1240.67 1066.45 1245.48 1073.32C1245.48 1069.63 1244.36 1066.86 1242.62 1064.41C1232.89 1050.27 1222.95 1036.24 1213.32 1022C1210.46 1017.7 1208.2 1012.89 1205.74 1008.38L1205.54 1008.59L1204.41 1008.48ZM905.741 584.751C905.946 581.575 906.253 578.502 906.458 575.327C905.843 575.327 905.126 575.327 904.512 575.327C904.921 578.4 905.331 581.473 905.741 584.648C907.789 588.95 909.94 593.354 911.989 597.656C911.989 592.023 912.091 586.287 905.741 584.648V584.751ZM788.771 1242.01C790.615 1245.9 792.356 1249.8 794.2 1253.69C795.122 1253.07 795.941 1252.46 796.863 1251.95C793.995 1248.77 791.23 1245.6 788.362 1242.42C788.362 1234.23 786.416 1227.06 778.324 1223.06C779.963 1219.07 779.246 1216 773.613 1213.54C775.661 1217.43 777.095 1220.09 778.631 1222.86C782.011 1229.31 785.391 1235.66 788.771 1242.11V1242.01ZM896.318 411.652C892.835 419.949 894.781 427.733 899.8 435.21L896.215 411.755C894.474 401 892.733 390.348 890.889 379.593C889.763 389.529 890.684 399.156 892.016 408.682C892.221 409.809 894.781 410.628 896.215 411.652H896.318ZM1370.14 818.279C1369.45 821.352 1370.61 823.059 1373.62 823.401C1374.44 822.581 1375.15 821.864 1375.97 821.045C1373.93 820.123 1371.98 819.304 1369.93 818.382C1365.73 813.261 1361.43 808.139 1355.59 801.072C1354.77 805.476 1353.54 808.037 1354.26 809.164C1358.05 814.695 1362.86 818.894 1370.14 818.177V818.279ZM1386.63 833.643L1381.4 828.727C1380.99 829.341 1380.58 830.058 1380.07 830.673C1382.32 831.595 1384.68 832.414 1386.93 833.336C1389.08 843.988 1399.12 846.958 1407.01 855.05C1403.42 845.627 1395.43 837.74 1386.63 833.643ZM747.085 1160.89C745.036 1150.96 739.3 1143.07 733.257 1135.28C737.457 1144.09 738.583 1154.44 747.289 1160.69C749.338 1174.62 759.58 1184.24 766.033 1195.92C759.171 1184.55 757.122 1170.62 747.085 1160.89ZM708.368 1168.78C711.441 1164.68 709.597 1161.92 705.705 1158.43C704.578 1163.35 705.5 1166.32 708.88 1168.47C709.597 1170.83 709.802 1173.28 710.929 1175.33C720.454 1193.67 730.287 1211.8 739.812 1230.13C753.845 1257.27 767.877 1284.42 781.397 1311.87C788.362 1325.9 794.507 1340.44 801.062 1354.78C802.599 1352.73 802.496 1351.2 801.882 1349.87C793.688 1330.3 786.518 1310.12 776.993 1291.28C757.737 1252.97 737.252 1215.28 716.972 1177.38C715.128 1173.9 714.513 1168.16 708.266 1168.78H708.368ZM1086.32 925.109C1086.32 925.109 1085.39 925.928 1084.88 926.338C1086.93 929.718 1088.77 933.2 1091.03 936.478C1100.04 949.998 1109.67 963.108 1118.17 976.936C1138.35 1009.51 1162.01 1039.62 1185.67 1069.63C1187.41 1071.78 1189.97 1073.32 1192.22 1075.16C1159.45 1025.08 1125.03 976.628 1090.62 928.386C1089.59 926.952 1087.75 926.235 1086.32 925.109ZM881.773 500.557C871.941 459.792 863.337 418.822 861.391 376.828C861.391 376.111 860.879 375.291 860.367 374.677C860.162 374.37 859.65 374.472 859.24 374.267C853.402 393.113 867.024 472.185 881.773 500.557ZM477.195 571.435C470.844 587.516 480.882 652.556 492.661 671.709C487.54 638.319 482.418 605.031 477.195 571.435ZM891.504 531.285C890.377 531.592 889.25 532.002 888.124 532.309C892.016 543.064 895.908 553.921 900.005 564.573C900.21 565.085 902.258 564.778 903.18 564.778C899.083 552.999 895.293 542.142 891.504 531.182V531.285ZM510.38 584.955L507.922 585.468L516.219 631.866C517.038 631.764 517.857 631.559 518.677 631.456C515.911 615.99 513.146 600.524 510.38 585.058V584.955ZM500.753 622.853C499.933 623.057 499.114 623.16 498.294 623.365C500.855 635.348 503.518 647.23 506.079 659.213C507 659.009 507.922 658.804 508.844 658.599L500.65 622.853H500.753ZM1368.09 785.708C1367.37 786.22 1366.76 786.835 1366.04 787.347C1368.29 794.619 1375.46 796.463 1381.4 799.843C1377 795.131 1372.49 790.42 1368.09 785.708ZM1162.72 998.957C1157.71 991.787 1152.79 984.72 1147.77 977.55C1147.05 978.062 1146.44 978.472 1145.72 978.984C1149.2 987.178 1153.92 994.45 1162.72 998.957ZM751.899 1203.81C751.284 1204.32 750.669 1204.83 750.055 1205.34C754.049 1212.92 758.146 1220.5 762.141 1228.08C762.756 1227.67 763.472 1227.36 764.087 1226.96L751.899 1203.81ZM1274.57 655.526C1278.53 663.72 1282.97 667.954 1287.89 668.227C1282.97 663.618 1278.77 659.521 1274.57 655.526ZM1358.97 754.571C1359.59 754.059 1360.2 753.547 1360.82 753.035L1345.66 739.412C1345.14 740.027 1344.63 740.641 1344.12 741.153C1349.04 745.66 1353.95 750.167 1358.87 754.571H1358.97ZM1068.8 897.249C1070.65 903.941 1074.2 908.55 1079.45 911.076C1075.56 906.057 1072.8 902.473 1068.8 897.249ZM1378.84 765.94C1377.51 767.272 1376.18 768.603 1374.95 769.935C1379.35 773.929 1383.86 777.924 1388.26 781.816C1388.57 781.406 1388.98 780.997 1389.29 780.69C1385.81 775.773 1382.32 770.857 1378.84 765.94ZM497.885 613.839L498.909 613.532C497.68 608.82 496.451 604.006 495.222 599.295C494.709 599.397 494.095 599.602 493.583 599.704C495.017 604.416 496.451 609.128 497.885 613.737V613.839ZM700.584 1152.08C701.301 1151.57 701.915 1151.06 702.632 1150.55C700.993 1147.68 699.354 1144.81 697.613 1141.94L695.77 1143.07C697.306 1146.04 698.945 1149.11 700.481 1152.08H700.584ZM354.49 1140.92C354.49 1140.92 353.568 1141.33 353.158 1141.53C353.978 1142.97 354.694 1144.61 355.821 1145.83C357.153 1147.27 358.894 1148.29 360.43 1149.52C361.045 1148.8 361.762 1148.09 362.376 1147.27C359.816 1145.12 357.153 1142.97 354.592 1140.82L354.49 1140.92ZM495.734 688.097C496.656 687.995 497.577 687.892 498.499 687.688C497.68 684.922 496.963 682.259 496.143 679.494C495.631 679.596 495.119 679.698 494.607 679.801C495.017 682.566 495.426 685.332 495.836 688.097H495.734ZM1445.21 411.755C1445.93 411.55 1446.75 411.243 1447.47 411.038C1446.54 408.375 1445.52 405.814 1444.6 403.151C1444.29 403.151 1443.98 403.356 1443.68 403.356C1444.19 406.121 1444.7 408.887 1445.32 411.755H1445.21ZM523.081 763.482C522.467 763.687 521.955 763.789 521.34 763.994L523.388 771.471C524.105 771.266 524.822 771.061 525.437 770.857C524.618 768.398 523.901 765.94 523.081 763.482ZM923.46 519.403L922.026 519.915C923.051 522.681 923.972 525.549 924.997 528.314L926.533 527.802C925.509 525.037 924.484 522.271 923.46 519.403ZM375.18 1166.83C375.794 1166.22 376.306 1165.5 376.921 1164.89C375.487 1163.66 374.053 1162.33 372.619 1161.1L371.697 1161.91C372.824 1163.55 374.053 1165.19 375.18 1166.93V1166.83ZM1325.89 781.304C1326.4 780.69 1326.91 779.973 1327.42 779.358C1325.89 778.026 1324.35 776.797 1322.82 775.466L1321.38 777.207C1322.92 778.539 1324.35 779.973 1325.89 781.304ZM166.13 898.478C165.003 899.605 163.877 900.629 162.75 901.756C164.901 902.677 167.154 903.599 170.739 905.033C168.691 902.165 167.359 900.322 166.13 898.478ZM1408.14 798.307C1408.44 797.692 1408.75 797.077 1409.06 796.463L1404.45 793.39C1404.45 793.39 1403.83 794.209 1403.63 794.619C1405.17 795.848 1406.7 796.975 1408.14 798.204V798.307ZM507.103 716.571C506.386 716.879 505.771 717.083 505.054 717.391C505.771 718.927 506.386 720.464 507.103 722L508.639 721.385C508.127 719.747 507.615 718.108 507.103 716.571ZM515.604 1232.9C515.604 1232.9 516.219 1232.08 516.526 1231.77C514.99 1230.44 513.351 1229.21 511.814 1227.88L510.893 1229.11C512.429 1230.33 514.068 1231.67 515.604 1232.9ZM618.029 884.548C618.029 884.548 618.849 884.139 619.258 883.934C618.336 882.295 617.517 880.554 616.595 878.915C616.185 879.12 615.776 879.325 615.264 879.632C616.185 881.271 617.107 882.91 618.029 884.651V884.548ZM1346.17 766.248C1345.55 766.862 1344.94 767.579 1344.22 768.194C1345.66 769.32 1347.09 770.344 1348.52 771.471C1349.14 770.857 1349.75 770.14 1350.37 769.525C1348.93 768.501 1347.6 767.374 1346.17 766.35V766.248ZM927.762 583.829C927.762 583.829 928.479 583.419 928.786 583.214C928.274 581.678 927.762 580.039 927.25 578.502C926.636 578.707 926.123 578.912 925.509 579.22C926.226 580.756 927.045 582.292 927.762 583.829ZM1184.44 998.957C1183.93 999.367 1183.31 999.674 1182.8 1000.08C1184.44 1002.54 1186.18 1005 1187.82 1007.46C1188.33 1007.05 1188.95 1006.74 1189.46 1006.33C1187.82 1003.87 1186.08 1001.42 1184.44 998.855V998.957ZM1085.8 1007.05C1086.21 1006.54 1086.52 1006.02 1086.93 1005.51C1085.5 1004.49 1084.06 1003.36 1082.63 1002.34C1082.32 1002.75 1082.01 1003.05 1081.71 1003.46C1083.04 1004.69 1084.47 1005.82 1085.8 1007.05ZM1172.76 1017.09C1172.76 1017.09 1173.79 1016.47 1174.3 1016.06C1172.76 1013.71 1171.23 1011.35 1169.59 1008.89C1169.08 1009.2 1168.46 1009.61 1167.95 1009.92C1169.49 1012.27 1171.12 1014.63 1172.66 1016.98L1172.76 1017.09ZM1413.36 857.918C1413.15 858.43 1412.85 859.044 1412.64 859.557C1414.49 860.376 1416.33 861.298 1418.17 862.117C1418.48 861.503 1418.69 860.888 1418.99 860.376C1417.15 859.557 1415.31 858.737 1413.46 857.918H1413.36ZM914.959 549.926L916.393 549.107C915.471 547.673 914.652 546.341 913.73 544.907C913.32 545.112 912.911 545.419 912.501 545.624C913.32 547.058 914.14 548.492 914.857 549.926H914.959ZM981.638 648.971C981.638 648.971 982.457 648.561 982.764 648.356C981.945 646.615 981.126 644.976 980.306 643.235C979.896 643.44 979.384 643.747 978.975 643.952C979.896 645.591 980.818 647.332 981.638 648.971ZM970.473 619.677C969.859 620.19 969.347 620.702 968.732 621.111C969.859 622.955 970.883 624.799 972.01 626.642L973.341 625.925C972.419 623.877 971.395 621.726 970.473 619.677ZM606.762 857.098C606.762 857.098 606.045 857.508 605.636 857.61C606.455 859.249 607.274 860.888 607.991 862.527C608.401 862.322 608.811 862.117 609.221 861.912C608.401 860.274 607.582 858.737 606.66 857.098H606.762ZM691.673 1131.08C690.751 1130.68 689.727 1130.16 688.805 1129.75C688.805 1130.47 688.702 1131.39 689.01 1132.01C689.317 1132.52 690.239 1132.83 690.853 1133.13C691.058 1132.52 691.365 1132.01 691.673 1131.08ZM1240.67 621.009L1238.11 623.57C1238.93 624.389 1239.85 625.208 1240.67 625.925C1241.49 625.106 1242.41 624.184 1243.23 623.365C1242.31 622.545 1241.49 621.726 1240.57 621.009H1240.67ZM1259 639.855C1258.29 640.47 1257.57 641.187 1256.96 641.801C1258.39 642.928 1259.72 644.157 1261.16 645.284C1261.57 644.874 1261.97 644.362 1262.38 643.952C1261.26 642.621 1260.13 641.187 1259.11 639.855H1259ZM396.484 1156.79C396.484 1156.79 395.869 1157.51 395.562 1157.82C396.586 1158.74 397.713 1159.66 398.737 1160.58L399.659 1159.46C398.532 1158.54 397.508 1157.61 396.382 1156.79H396.484ZM1395.23 810.495C1395.23 810.495 1394.41 811.315 1394 811.724C1394.62 812.441 1395.33 813.261 1396.05 813.875C1396.05 813.875 1396.66 813.568 1396.87 813.465C1396.36 812.544 1395.74 811.519 1395.23 810.597V810.495ZM1281.44 677.036C1281.44 677.036 1280.72 677.957 1280.31 678.469C1281.13 679.084 1281.85 679.801 1282.66 680.415C1282.97 680.108 1283.18 679.801 1283.48 679.494C1282.87 678.674 1282.15 677.855 1281.54 677.036H1281.44ZM1501.24 590.794C1502.06 590.384 1502.88 589.974 1503.7 589.565C1502.67 588.233 1501.75 586.799 1500.73 585.468C1500.32 585.672 1499.91 585.877 1499.5 586.082C1500.01 587.618 1500.63 589.155 1501.14 590.794H1501.24ZM1000.69 686.151C1000.69 686.151 999.767 686.766 999.357 686.97C1000.07 688.2 1000.79 689.326 1001.61 690.555C1002.02 690.248 1002.53 689.941 1002.94 689.736C1002.23 688.507 1001.51 687.38 1000.69 686.151ZM1215.99 597.451C1215.99 597.451 1215.37 597.554 1215.17 597.656C1215.58 598.271 1215.99 598.885 1216.4 599.397C1216.5 599.5 1217.01 599.397 1217.42 599.193C1216.91 598.578 1216.5 598.066 1215.99 597.451ZM917.52 605.747C917.008 605.952 916.495 606.157 915.881 606.26C916.495 607.387 917.11 608.616 917.724 609.742C918.032 609.64 918.339 609.537 918.646 609.332C918.237 608.103 917.827 606.874 917.417 605.645L917.52 605.747Z" fill="#FFE57C"/>
<path d="M2037.23 73.7524C2016.33 73.3427 2006.4 66.173 1999.53 48.8632C1995.75 39.1328 1998.2 37.8012 2006.6 30.5291C2014.49 23.6666 2024.63 21.9254 2032.52 14.2435C2041.43 5.5374 2054.64 -0.198462 2068.77 0.416088C2079.84 0.928213 2087.62 8.20065 2086.7 19.5698C2085.47 32.8851 2080.55 45.1758 2070.31 54.1892C2063.04 60.642 2054.54 65.8658 2046.24 70.987C2042.96 73.0355 2038.66 73.4453 2037.02 73.9575L2037.23 73.7524Z" fill="#FFE57C"/>
<path d="M705.397 1063.48C692.799 1037.78 680.201 1012.07 667.5 986.359C667.09 983.798 666.681 981.237 666.271 978.677L665.964 978.984C673.543 993.221 681.327 1007.36 688.702 1021.59C699.764 1042.79 710.621 1064.1 721.478 1085.4C722.912 1088.27 723.731 1091.34 724.858 1094.42L725.165 1094.21C722.809 1091.14 720.146 1088.27 718.098 1084.99C713.694 1077.93 709.494 1070.65 705.295 1063.48H705.397Z" fill="#FFE57C"/>
<path d="M280.126 979.906C268.552 965.361 256.978 950.817 245.302 936.273C242.536 932.79 239.771 929.41 237.108 926.133C236.391 923.674 235.571 921.216 233.933 915.89C237.313 918.758 238.644 919.475 239.566 920.602C255.339 941.189 271.113 961.674 286.784 982.364C288.218 984.208 288.935 986.564 289.959 988.714L290.266 988.509L280.229 979.804L280.126 979.906Z" fill="#FFE57C"/>
<path d="M1145.42 930.743C1139.37 921.422 1133.33 912.101 1127.29 902.78C1121.86 895.303 1116.43 887.724 1110.9 880.247L1111.31 880.759C1110.49 877.379 1109.67 873.999 1108.85 870.517L1108.54 870.824C1113.25 877.277 1118.17 883.627 1122.78 890.182C1133.53 905.546 1144.19 920.91 1154.74 936.376C1156.99 939.653 1158.42 943.443 1160.16 947.028L1160.47 946.823C1155.45 941.497 1150.43 936.069 1145.52 930.743H1145.42Z" fill="#FFE57C"/>
<path d="M1450.54 821.863C1447.16 817.971 1444.09 813.772 1440.19 810.392C1429.23 800.662 1418.07 791.238 1406.91 781.815C1403.83 779.255 1400.25 777.206 1396.87 774.85C1397.79 773.826 1398.61 772.7 1399.53 771.675C1401.17 772.7 1402.91 773.621 1404.35 774.953C1422.27 790.214 1440.3 805.476 1458.12 820.942C1459.86 822.478 1460.99 824.834 1462.32 826.78L1462.73 826.473C1458.53 824.834 1454.33 823.195 1450.03 821.556L1450.44 821.966L1450.54 821.863Z" fill="#FFE57C"/>
<path d="M1505.74 541.425C1497.45 520.94 1490.99 502.504 1486.8 483.351C1493.76 490.623 1506.67 529.339 1505.74 541.425Z" fill="#FFE57C"/>
<path d="M543.464 693.833C541.928 687.278 540.494 680.62 538.957 674.065C537.728 668.636 536.499 663.105 535.373 657.677L535.168 657.984C535.168 657.984 536.09 658.291 536.192 658.599C542.645 679.391 548.995 700.081 555.448 720.873L555.755 720.668C553.502 716.161 551.248 711.757 549.2 707.148C547.049 702.641 545.205 697.93 543.157 693.321L543.464 693.73V693.833Z" fill="#FFE57C"/>
<path d="M825.746 1288.92C816.631 1271.31 807.617 1253.59 798.501 1235.97C797.887 1234.74 797.477 1233.41 797.989 1231.56C807.72 1250.51 820.42 1267.93 825.439 1289.13L825.746 1288.92Z" fill="#FFE57C"/>
<path d="M1592.81 737.262L1591.88 733.268C1588.09 725.791 1584.3 718.211 1580.51 710.734L1580.92 711.144C1578.26 702.95 1575.7 694.858 1573.04 686.664L1572.73 686.869C1574.37 688.815 1576.52 690.556 1577.54 692.81C1585.94 711.553 1594.03 730.297 1602.23 749.143C1599.05 745.149 1595.88 741.257 1592.7 737.262H1592.81Z" fill="#FFE57C"/>
<path d="M388.287 1107.73C386.75 1107.01 385.111 1106.4 383.575 1105.68C383.575 1103.53 383.575 1101.38 383.575 1099.23L383.37 1099.54C394.842 1111.83 406.313 1124.12 417.785 1136.41L418.092 1136.21C414.917 1133.75 411.537 1131.7 408.669 1128.93C401.704 1122.07 395.047 1114.9 388.287 1107.83V1107.73Z" fill="#FFE57C"/>
<path d="M349.058 1065.12C350.082 1064.3 352.029 1062.67 352.131 1062.77C362.681 1074.96 373.026 1087.25 383.371 1099.54L383.575 1099.23C380.4 1096.57 377.123 1093.91 373.948 1091.14C370.465 1088.07 366.983 1084.99 363.5 1081.92L363.91 1082.43C361.452 1074.34 355.613 1069.12 348.751 1064.71L348.956 1065.12H349.058Z" fill="#FFE57C"/>
<path d="M484.059 1203.7C481.703 1202.17 479.348 1200.63 476.992 1199.1C473.612 1193.77 469.924 1188.85 463.164 1187.83C462.857 1187.52 462.55 1187.21 462.243 1186.91C461.423 1183.94 460.604 1180.97 459.784 1178L459.58 1178.3C469.412 1187.32 479.245 1196.33 489.18 1205.34L489.385 1205.04C487.644 1204.63 485.903 1204.22 484.162 1203.81L484.059 1203.7Z" fill="#FFE57C"/>
<path d="M1160.16 947.027C1168.36 958.499 1176.55 969.97 1184.74 981.442L1184.95 981.237C1181.47 977.345 1178.09 973.453 1174.6 969.663C1170.61 965.259 1166.51 960.855 1162.52 956.553L1162.93 957.065C1162.11 953.685 1161.29 950.305 1160.37 946.925L1160.06 947.13L1160.16 947.027Z" fill="#FFE57C"/>
<path d="M1462.42 826.576C1473.89 835.59 1485.36 844.603 1496.94 853.617L1497.24 853.309C1493.35 851.363 1488.84 850.134 1485.77 847.369C1478.09 840.301 1467.44 836.614 1462.83 826.269L1462.42 826.576Z" fill="#FFE57C"/>
<path d="M774.429 1184.55C780.063 1195.2 785.696 1205.86 791.33 1216.51C790.613 1216.92 789.793 1217.33 789.076 1217.74C783.443 1207.08 777.81 1196.54 772.074 1185.88C772.791 1185.47 773.61 1185.06 774.327 1184.55H774.429Z" fill="#FFE57C"/>
<path d="M435.712 1158.64C430.283 1152.9 424.753 1147.06 419.324 1141.33C418.914 1139.59 418.505 1137.85 418.095 1136.1L417.788 1136.31C426.391 1141.12 433.254 1147.58 437.043 1156.79C436.634 1157.41 436.224 1158.02 435.712 1158.64Z" fill="#FFE57C"/>
<path d="M1484.34 477.819C1481.68 468.601 1479.01 459.382 1476.35 450.267C1483.73 458.051 1485.67 467.577 1487 477.307L1484.44 477.921L1484.34 477.819Z" fill="#FFE57C"/>
<path d="M1496.83 853.617C1505.85 860.172 1514.86 866.727 1523.77 873.18L1524.18 872.975C1521.62 872.975 1518.96 872.975 1516.4 872.975L1516.91 873.282C1513.43 870.722 1510.05 868.059 1506.56 865.498L1507.08 865.908C1503.59 863.347 1500.21 860.684 1496.73 858.124L1497.14 858.533C1497.14 856.792 1497.14 855.051 1497.14 853.207L1496.83 853.514V853.617Z" fill="#FFE57C"/>
<path d="M556.57 737.875C556.57 735.52 556.775 733.164 556.877 730.808C556.468 727.428 556.058 724.048 555.648 720.668L555.341 720.873C559.438 732.345 563.535 743.816 567.632 755.288L567.939 755.083C566.198 753.342 564.457 751.703 562.715 749.962L563.023 750.474C562.511 745.455 561.998 740.334 556.57 737.773V737.875Z" fill="#FFE57C"/>
<path d="M1324.35 704.179C1325.89 704.282 1327.94 703.872 1328.86 704.691C1336.23 711.349 1343.3 718.314 1349.86 725.893C1343.3 725.279 1341.15 719.031 1336.75 715.548C1332.34 712.066 1328.65 707.764 1324.56 703.872L1324.25 704.179H1324.35Z" fill="#FFE57C"/>
<path d="M535.371 657.677C531.991 643.85 528.611 629.92 525.231 616.093L525.026 616.298C526.46 619.882 528.406 623.262 529.226 626.95C531.479 637.192 533.22 647.537 535.166 657.882L535.371 657.575V657.677Z" fill="#FFE57C"/>
<path d="M1572.94 686.663C1567.92 676.318 1562.9 665.973 1557.88 655.628C1558.8 655.218 1559.62 654.809 1560.54 654.501C1565.05 665.154 1571.91 674.782 1572.73 686.868L1572.94 686.663Z" fill="#FFE57C"/>
<path d="M1184.74 981.443C1193.86 988.613 1200 997.934 1204.41 1008.48L1204.61 1008.28C1195.6 1001.01 1189.15 991.993 1184.95 981.238L1184.74 981.443Z" fill="#FFE57C"/>
<path d="M1561.98 905.033C1557.98 901.858 1554.09 898.58 1550.09 895.405C1549.48 893.664 1548.97 891.923 1548.35 890.182C1555.93 895.713 1563.51 901.243 1571.09 906.774C1568.02 906.16 1565.05 905.648 1561.98 905.033Z" fill="#FFE57C"/>
<path d="M572.655 775.876C572.348 773.93 572.041 771.984 571.631 770.037C570.402 765.019 569.173 760 567.944 754.981L567.636 755.186C571.733 765.838 575.83 776.593 579.927 787.245L580.235 786.937C577.674 783.25 575.113 779.461 572.655 775.773V775.876Z" fill="#FFE57C"/>
<path d="M948.657 567.236L948.862 566.724C947.428 562.115 945.891 557.505 944.458 552.896L945.891 552.282C949.476 561.5 953.164 570.718 956.748 579.937L956.953 579.629C954.188 575.532 951.32 571.333 948.555 567.236H948.657Z" fill="#FFE57C"/>
<path d="M661.151 974.99C659.615 972.634 657.976 970.38 656.439 968.024C655.62 963.415 654.903 958.806 654.084 954.197L653.776 954.402C657.873 962.596 661.97 970.892 666.067 979.086L666.375 978.779C664.633 977.55 662.892 976.219 661.151 974.99Z" fill="#FFE57C"/>
<path d="M729.671 1104.66C737.353 1111.11 739.709 1120.54 743.396 1129.14C737.046 1121.87 732.334 1113.78 729.876 1104.46L729.569 1104.76L729.671 1104.66Z" fill="#FFE57C"/>
<path d="M1465.29 464.913C1469.49 468.805 1478.09 469.829 1474.4 480.276C1470.41 474.95 1463.96 472.39 1465.6 464.605L1465.29 464.913Z" fill="#FFE57C"/>
<path d="M1545.18 888.031C1541.9 886.904 1538.62 885.777 1535.45 884.548C1531.45 882.909 1527.56 881.168 1523.67 879.427L1524.28 879.632C1524.28 877.481 1524.28 875.33 1524.28 873.077L1523.87 873.281C1530.94 878.198 1538.11 883.114 1545.18 888.031Z" fill="#FFE57C"/>
<path d="M1602.64 752.317C1606.73 761.535 1610.83 770.651 1614.93 779.869L1615.23 779.665C1613.39 776.694 1611.44 773.826 1609.6 770.856C1607.25 767.169 1604.99 763.481 1602.64 759.794L1602.94 760.306C1602.94 757.643 1602.74 754.878 1602.64 752.215V752.317Z" fill="#FFE57C"/>
<path d="M1093.79 852.08C1092.67 850.134 1091.54 848.188 1090.31 846.242C1089.08 842.862 1087.85 839.482 1086.62 836.102L1086.32 836.306C1090.41 842.861 1094.51 849.417 1098.61 856.074L1098.91 855.87C1097.17 854.64 1095.43 853.309 1093.79 852.08Z" fill="#FFE57C"/>
<path d="M755.172 1148.81C757.835 1154.13 760.601 1159.35 763.264 1164.68C762.649 1164.99 762.137 1165.3 761.523 1165.6L753.329 1149.83L755.172 1148.7V1148.81Z" fill="#FFE57C"/>
<path d="M918.03 474.439C925.814 478.024 922.537 486.422 924.688 492.363C922.434 486.422 920.181 480.379 918.03 474.336V474.439Z" fill="#FFE57C"/>
<path d="M1043.5 972.531C1040.64 968.844 1037.77 965.157 1034.9 961.47C1035.21 961.162 1035.62 960.753 1035.92 960.445C1038.79 963.006 1041.86 965.362 1044.43 968.127C1044.94 968.639 1043.61 970.79 1043.2 972.224L1043.5 972.531Z" fill="#FFE57C"/>
<path d="M435.713 1158.64C436.226 1158.02 436.635 1157.41 437.045 1156.79C443.293 1157.82 446.058 1162.43 448.107 1167.75C445.751 1167.04 443.395 1166.32 441.04 1165.6C439.298 1163.25 437.455 1160.99 435.713 1158.64Z" fill="#FFE57C"/>
<path d="M956.85 579.937C958.796 584.648 960.845 589.257 962.791 593.969C957.874 590.282 956.031 585.57 957.055 579.732L956.85 579.937Z" fill="#FFE57C"/>
<path d="M1614.83 779.769C1617.08 783.866 1619.44 787.962 1621.69 792.162C1621.39 792.367 1621.18 792.571 1620.87 792.674C1618.83 790.728 1616.78 788.884 1614.63 786.938L1615.04 787.348C1615.04 784.787 1615.04 782.124 1615.04 779.563L1614.73 779.769H1614.83Z" fill="#FFE57C"/>
<path d="M915.88 450.676C910.247 447.706 910.247 442.482 910.862 436.951C912.5 441.56 914.139 446.067 915.88 450.676Z" fill="#FFE57C"/>
<path d="M1098.6 856.075C1101.88 860.991 1105.16 865.908 1108.44 870.927L1108.74 870.619L1101.06 865.6L1101.47 866.113C1100.65 862.733 1099.83 859.353 1099.01 855.87L1098.71 856.075H1098.6Z" fill="#FFE57C"/>
<path d="M915.882 450.677C916.599 458.563 917.316 466.45 918.033 474.337C917.316 466.45 916.599 458.563 915.984 450.574L915.882 450.677Z" fill="#FFE57C"/>
<path d="M1435.68 461.329C1428.41 462.353 1428.51 458.256 1429.13 453.34C1436.71 452.52 1432.82 459.28 1435.58 461.329H1435.68Z" fill="#FFE57C"/>
<path d="M934.623 521.042C932.574 517.047 930.628 513.053 928.579 509.058C929.501 508.751 930.423 508.444 931.242 508.136C932.267 512.541 933.291 516.945 934.315 521.349L934.623 521.042Z" fill="#FFE57C"/>
<path d="M289.958 988.817C292.723 991.582 295.591 994.245 298.357 997.011C297.947 997.42 297.537 997.83 297.128 998.24C294.669 996.601 292.314 994.962 289.855 993.426L290.265 993.836C290.265 992.094 290.265 990.353 290.265 988.509L289.958 988.714V988.817Z" fill="#FFE57C"/>
<path d="M454.662 1176.66C453.535 1175.54 452.409 1174.41 451.282 1173.28C450.053 1171.34 448.926 1169.39 447.697 1167.45C453.228 1169.29 457.735 1172.36 459.578 1178.2L459.783 1177.89C458.042 1177.48 456.301 1177.07 454.662 1176.66Z" fill="#FFE57C"/>
<path d="M1366.34 742.998C1364.4 741.359 1362.45 739.618 1360.4 737.979C1360.81 737.467 1361.22 737.058 1361.53 736.545C1363.68 738.287 1365.83 740.028 1367.98 741.769C1367.47 742.179 1366.86 742.588 1366.34 742.998Z" fill="#FFE57C"/>
<path d="M1543.13 608.206C1540.57 605.236 1537.9 602.163 1535.34 599.192V599.397C1537.8 602.367 1540.36 605.338 1543.03 608.308H1543.13V608.206Z" fill="#FFE57C"/>
<path d="M1535.34 599.193L1532.37 589.463C1532.99 589.36 1533.6 589.258 1534.22 589.155C1534.63 592.535 1534.93 595.915 1535.24 599.398L1535.34 599.193Z" fill="#FFE57C"/>
<path d="M905.946 404.073C904.615 401.615 903.283 399.157 901.952 396.596C902.361 396.392 902.669 396.187 903.078 395.982C904 398.645 905.024 401.41 905.946 404.073Z" fill="#FFE57C"/>
<path d="M905.946 404.073V414.828C905.946 414.828 905.434 414.828 905.126 414.828C905.434 411.243 905.741 407.658 905.946 404.073Z" fill="#FFE57C"/>
<path d="M1543.03 608.308C1543.54 611.278 1544.16 614.249 1544.77 617.731C1540.16 615.171 1541.29 611.791 1543.13 608.308H1543.03Z" fill="#FFE57C"/>
<path d="M344.347 1056.11C343.015 1054.57 341.683 1053.04 340.25 1051.5C340.659 1051.19 341.069 1050.78 341.376 1050.48C342.708 1052.01 344.039 1053.65 345.371 1055.19C344.961 1055.5 344.654 1055.8 344.244 1056.11H344.347Z" fill="#FFE57C"/>
<path d="M934.42 521.247C935.752 524.218 937.186 527.086 938.517 530.056C937.698 530.261 936.878 530.466 936.059 530.67C935.649 527.495 935.137 524.218 934.727 521.042L934.42 521.35V521.247Z" fill="#FFE57C"/>
<path d="M1553.06 636.271C1553.99 638.729 1554.91 641.084 1555.83 643.543C1555.42 643.747 1554.91 643.952 1554.5 644.157C1553.37 641.801 1552.25 639.548 1551.12 637.192C1551.73 636.885 1552.45 636.578 1553.06 636.271Z" fill="#FFE57C"/>
<path d="M1435.17 470.137C1429.74 467.884 1429.74 466.757 1435.58 461.329C1435.38 464.401 1435.17 467.372 1434.86 470.445L1435.17 470.24V470.137Z" fill="#FFE57C"/>
<path d="M724.96 1094.52C726.496 1097.9 728.135 1101.28 729.672 1104.66L729.979 1104.35C728.238 1103.43 726.599 1102.51 724.858 1101.48L725.267 1102C725.267 1099.44 725.267 1096.87 725.267 1094.21L724.96 1094.42V1094.52Z" fill="#FFE57C"/>
<path d="M1466.1 362.591C1464.98 360.337 1463.75 358.187 1462.62 355.933C1462.93 355.728 1463.34 355.523 1463.65 355.421C1464.47 357.879 1465.29 360.235 1466.1 362.693V362.591Z" fill="#FFE57C"/>
<path d="M521.648 594.891C521.648 593.047 521.443 591.204 521.341 589.36C521.75 589.36 522.262 589.36 522.672 589.36C522.672 591.204 522.877 593.047 522.979 594.891C522.57 594.891 522.16 594.891 521.648 594.891Z" fill="#FFE57C"/>
<path d="M1376.59 749.655C1377.61 750.884 1378.64 752.113 1379.66 753.342C1379.25 753.752 1378.84 754.059 1378.43 754.469L1374.85 751.191C1375.46 750.679 1376.07 750.167 1376.69 749.655H1376.59Z" fill="#FFE57C"/>
<path d="M1466.11 362.59C1466.41 365.561 1466.82 368.633 1467.13 371.604H1466.11C1466.11 368.633 1466.11 365.561 1466.11 362.59Z" fill="#FFE57C"/>
<path d="M525.231 616.092C524.821 613.327 524.514 610.664 524.104 607.898C524.412 607.898 524.719 607.898 525.129 607.898C525.129 610.664 525.129 613.532 525.129 616.4L525.334 616.195L525.231 616.092Z" fill="#FFE57C"/>
</svg>
