<svg width="333" height="555" viewBox="0 0 333 555" fill="none" xmlns="http://www.w3.org/2000/svg">
<path d="M234.773 433.596C235.85 440.107 234.724 450.908 234.011 457.751C229.869 497.081 224.402 544.413 216.583 547.843C208.68 551.322 203.114 552.73 195.393 548.34C189.992 545.242 193.455 487.837 187.192 484.589C185.685 483.811 183.945 483.33 182.123 483.098H182.106C177.053 482.369 171.421 483.314 168.604 484.159C167.295 484.54 166.417 486.478 165.821 489.46C162.789 504.652 167.444 547.097 162.342 549.848C154.837 553.906 146.934 552.018 141.6 549.632C135.172 546.766 135.354 539.211 118.472 459.523C117.113 453.095 116.351 442.592 117.461 435.054" stroke="#3F2A25" stroke-width="2" stroke-linecap="round" stroke-linejoin="round"/>
<path d="M94.5654 383.927C91.3349 380.697 91.3348 376.936 91.3348 372.91" stroke="#3F2A25" stroke-width="2" stroke-linecap="round" stroke-linejoin="round"/>
<path d="M258.431 372.91C258.431 376.886 258.431 380.614 255.317 383.811" stroke="#3F2A25" stroke-width="2" stroke-linecap="round" stroke-linejoin="round"/>
<path d="M189.777 302.053C209.409 298.607 227.749 290.273 239.396 278.577C248.524 269.415 253.527 258.199 251.755 245.658C251.407 243.222 251.026 240.754 250.578 238.252V238.203" stroke="#3F2A25" stroke-width="2" stroke-linecap="round" stroke-linejoin="round"/>
<path d="M87.2262 255.333C87.309 257.255 87.541 259.143 87.8889 260.949C93.1738 287.871 128.478 302.119 163.601 303.643" stroke="#3F2A25" stroke-width="2" stroke-linecap="round" stroke-linejoin="round"/>
<path d="M196.056 148.392C204.986 131.543 215.042 104.191 221.95 72.3487C231.559 28.0978 254.339 2.84942 266.036 4.48957C281.725 6.70957 300.976 65.3739 278.13 109.956C264.097 137.342 240.704 154.323 226.921 165.821C226.921 165.837 226.871 165.854 226.854 165.887" stroke="#3F2A25" stroke-width="2" stroke-linecap="round" stroke-linejoin="round"/>
<path d="M113.551 169.35C101.59 156.643 77.7995 136.961 65.5895 106.278C47.0839 59.7412 71.8353 3.1643 87.6569 2.45191C99.4528 1.92176 119.731 29.241 125.099 74.1877C129.091 107.703 135.519 133.796 142.809 150.728" stroke="#3F2A25" stroke-width="2" stroke-linecap="round" stroke-linejoin="round"/>
<path d="M34.7745 269.399C53.3298 262.855 72.1335 259.657 87.8889 260.949" stroke="#3F2A25" stroke-width="2" stroke-linecap="round" stroke-linejoin="round"/>
<path d="M251.97 242.112C272.778 233.713 299.286 232.437 318.123 237.093" stroke="#3F2A25" stroke-width="2" stroke-linecap="round" stroke-linejoin="round"/>
<path d="M304.438 267.477C285.883 260.933 267.079 257.735 251.324 259.028" stroke="#3F2A25" stroke-width="2" stroke-linecap="round" stroke-linejoin="round"/>
<path d="M163.617 303.643C164.429 307.304 164.678 311.347 162.955 314.478C160.37 319.183 145.145 317.377 138.468 322.43C132.471 326.97 118.853 349.219 116.948 353.709" stroke="#3F2A25" stroke-width="2" stroke-linecap="round" stroke-linejoin="round"/>
<path d="M182.139 483.098H182.123" stroke="#3F2A25" stroke-width="2" stroke-linecap="round" stroke-linejoin="round"/>
<path d="M189.777 302.052C189.827 305.333 190.721 308.729 192.212 312.539C194.316 317.891 209.658 316.019 216.086 320.922C222.729 326.009 234.078 349.501 235.221 354.09" stroke="#3F2A25" stroke-width="2" stroke-linecap="round" stroke-linejoin="round"/>
<path d="M117.461 435.252C115.374 434.126 113.518 432.718 112.027 431.028" stroke="#3F2A25" stroke-width="2" stroke-linecap="round" stroke-linejoin="round"/>
<path d="M94.5654 383.497C94.5654 397.695 94.5654 410.982 108.283 419.48" stroke="#3F2A25" stroke-width="2" stroke-linecap="round" stroke-linejoin="round"/>
<path d="M243.604 418.039C255.184 409.59 255.317 397.115 255.317 383.696" stroke="#3F2A25" stroke-width="2" stroke-linecap="round" stroke-linejoin="round"/>
<path d="M91.3348 372.463V371.784C91.3348 371.204 91.3514 370.624 91.368 370.061C91.4508 367.559 91.7987 365.173 93.2732 363.003C94.7311 360.866 97.2659 358.928 101.689 357.254C103.81 356.459 106.361 355.714 109.443 355.051C111.646 354.57 114.131 354.14 116.931 353.726" stroke="#3F2A25" stroke-width="2" stroke-linecap="round" stroke-linejoin="round"/>
<path d="M235.221 354.09C240.042 354.885 243.869 355.796 246.884 356.823C258.431 360.766 258.431 366.316 258.431 372.463" stroke="#3F2A25" stroke-width="2" stroke-linecap="round" stroke-linejoin="round"/>
<path d="M108.3 419.48C108.3 423.258 109.161 427.731 112.044 430.597" stroke="#3F2A25" stroke-width="2" stroke-linecap="round" stroke-linejoin="round"/>
<path d="M239.843 429.818C238.451 431.409 236.745 432.751 234.806 433.828" stroke="#3F2A25" stroke-width="2" stroke-linecap="round" stroke-linejoin="round"/>
<path d="M243.62 418.039C243.62 421.85 242.792 426.422 239.859 429.338" stroke="#3F2A25" stroke-width="2" stroke-linecap="round" stroke-linejoin="round"/>
<path d="M251.639 283.265C247.58 281.542 243.488 279.985 239.396 278.577" stroke="#3F2A25" stroke-width="2" stroke-linecap="round" stroke-linejoin="round"/>
<path d="M253.063 284.044C251.755 288.948 253.826 295.061 254.521 295.111C255.764 295.21 256.891 289.561 258.199 289.71C259.558 289.859 259.276 295.989 261.231 296.403C262.772 296.735 264.048 293.123 265.555 293.371C268.123 293.802 267.891 304.968 269.233 305.035C270.326 305.101 270.89 297.629 272.696 297.464C275.23 297.248 277.599 311.894 280.482 311.728C282.454 311.612 280.648 304.554 282.802 304.322C285.999 303.974 290.108 318.769 294.1 318.023C296.735 317.543 287.755 305.366 289.544 301.572C290.406 299.75 299.915 298.607 299.915 297.679C299.915 296.254 282.023 295.575 281.973 294.001C281.94 292.792 293.487 292.212 292.56 290.969C290.969 288.832 272.298 291.085 272.033 289.031C271.834 287.54 283.265 285.916 281.973 284.276C279.173 280.714 262.573 286.579 261.877 284.061C261.579 282.984 265.158 282.039 264.478 280.598C264.081 279.77 254.19 280.051 251.49 283.381" stroke="#3F2A25" stroke-width="2" stroke-linecap="round" stroke-linejoin="round"/>
<path d="M250.363 238.269C250.363 238.269 250.512 238.236 250.578 238.203C285.866 228.064 331.824 206.477 330.184 192.129C330.101 191.434 329.819 190.787 329.306 190.191C328.775 189.528 327.997 188.932 326.97 188.385C326.936 188.352 326.92 188.335 326.887 188.335" stroke="#3F2A25" stroke-width="2" stroke-linecap="round" stroke-linejoin="round"/>
<path d="M3.42948 239.429C2.9656 240.108 2.76679 240.771 2.81649 241.4C3.46261 249.121 43.2569 253.991 87.2262 255.333" stroke="#3F2A25" stroke-width="2" stroke-linecap="round" stroke-linejoin="round"/>
<path d="M329.306 190.191C328.593 189.561 327.815 188.965 326.986 188.402C326.953 188.369 326.92 188.335 326.887 188.335C311.678 177.832 277.749 175.463 237.341 178.13" stroke="#3F2A25" stroke-width="2" stroke-linecap="round" stroke-linejoin="round"/>
<path d="M91.6496 202.219C44.6817 214.263 8.33336 228.428 3.42948 239.429" stroke="#3F2A25" stroke-width="2" stroke-linecap="round" stroke-linejoin="round"/>
<path d="M226.904 165.821C230.284 169.068 234.624 174.121 237.341 178.13H237.358" stroke="#3F2A25" stroke-width="2" stroke-linecap="round" stroke-linejoin="round"/>
<path d="M196.056 148.375C179.141 143.538 160.254 144.151 142.826 150.728C142.792 150.744 142.776 150.761 142.743 150.778" stroke="#3F2A25" stroke-width="2" stroke-linecap="round" stroke-linejoin="round"/>
<path d="M91.6496 202.219C96.9843 189.247 104.936 177.716 113.551 169.35" stroke="#3F2A25" stroke-width="2" stroke-linecap="round" stroke-linejoin="round"/>
<path d="M142.825 150.728H142.809" stroke="#3F2A25" stroke-width="2" stroke-linecap="round" stroke-linejoin="round"/>
<path d="M210.27 156.543C211.645 157.355 213.004 158.15 214.396 158.962C212.706 158.515 211.347 157.686 210.27 156.543Z" fill="#BC7171"/>
<path d="M330.034 191.98C331.658 206.361 285.75 227.981 250.429 238.103C247.48 221.387 242.245 203.644 233.415 188.584C279.09 183.63 316.333 182.504 326.986 188.335C327.003 188.335 327.019 188.352 327.019 188.352C327.781 188.882 328.494 189.445 329.156 190.025C329.653 190.622 329.952 191.268 330.034 191.98Z" fill="#BC7171"/>
<path d="M226.589 178.76C229.803 178.478 232.984 178.23 236.132 178.031C277.235 175.248 311.777 177.6 326.986 188.336C316.333 182.504 279.09 183.631 233.415 188.568C205.847 191.55 175.214 195.923 145.509 200.993C142.494 201.49 139.479 202.02 136.48 202.55C127.7 204.091 119.035 205.698 110.619 207.338H110.586C105.483 208.332 100.463 209.343 95.5427 210.353C46.9015 220.393 8.58169 231.344 3.29677 239.246C8.26692 228.18 44.9632 213.932 92.2956 201.854C133.647 191.301 183.117 182.405 226.572 178.76C226.589 178.743 226.589 178.76 226.589 178.76Z" fill="#BC7171"/>
<path d="M260.386 287.076L261.811 284.11C263.202 286.198 279.09 280.681 281.824 284.16C283.116 285.8 271.685 287.424 271.884 288.915C272.149 290.969 290.803 288.716 292.41 290.853C293.322 292.079 281.791 292.676 281.824 293.885C281.857 295.442 299.75 296.138 299.75 297.563C299.75 298.474 290.24 299.617 289.379 301.44C287.589 305.25 296.569 317.41 293.935 317.891C289.925 318.636 285.817 303.842 282.636 304.19C280.482 304.422 282.288 311.479 280.3 311.595C277.434 311.777 275.065 297.132 272.53 297.331C270.724 297.497 270.161 304.968 269.067 304.902C267.742 304.819 267.957 293.67 265.389 293.239C263.898 292.974 262.623 296.602 261.082 296.254C259.127 295.84 259.409 289.71 258.05 289.561H258L258.994 286.413C259.458 286.645 259.922 286.86 260.386 287.076Z" fill="#BC7171"/>
<path d="M282.304 26.0271C290.008 47.6472 292.443 81.5437 277.964 109.807C263.931 137.193 240.539 154.174 226.755 165.672C226.755 165.688 226.705 165.705 226.688 165.738C221.801 163.154 217.991 161.033 214.412 158.962C214.843 158.366 215.29 157.719 215.738 157.073C216.235 156.344 216.732 155.599 217.212 154.82C228.329 157.338 232.156 156.112 252.152 135.586C268.156 119.135 289.842 78.2137 282.271 26.0437H282.304V26.0271Z" fill="#BC7171"/>
<path d="M282.271 26.0435C289.842 78.2135 268.156 119.134 252.152 135.586C232.156 156.112 228.329 157.338 217.212 154.82C224.12 144.051 231.808 127.832 232.586 106.891C233.547 81.1293 236.794 60.5363 242.311 40.4403H242.295C245.674 31.3118 260.949 4.48959 273.076 8.99586C276.456 12.7897 279.687 18.7042 282.288 26.0269H282.271V26.0435Z" fill="#BC7171"/>
<path d="M273.076 8.99601C260.949 4.48974 245.674 31.312 242.295 40.4239H242.311C236.794 60.5365 233.547 81.1294 232.586 106.891C231.808 127.832 224.121 144.052 217.212 154.82C216.732 155.599 216.235 156.344 215.738 157.073C215.29 157.719 214.843 158.366 214.412 158.962H214.396C213.004 158.15 211.645 157.355 210.27 156.543C201.904 147.829 209.376 120.858 213.203 105.798L212.938 105.715C216.185 95.3772 219.2 84.095 221.785 72.1997C231.393 27.9488 254.173 2.70049 265.87 4.34064C268.239 4.67198 270.707 6.31213 273.076 8.99601Z" fill="#BC7171"/>
<path d="M264.312 280.482C265.008 281.924 261.43 282.868 261.728 283.945C261.745 284.011 261.778 284.061 261.811 284.11L260.386 287.076C259.922 286.861 259.458 286.645 258.994 286.413C257.006 285.485 255.002 284.574 252.98 283.729C252.483 283.497 251.986 283.299 251.489 283.083C254.405 279.919 263.915 279.67 264.312 280.482Z" fill="#BC7171"/>
<path d="M258.994 286.413L258 289.561C256.708 289.561 255.598 295.061 254.372 294.962C253.676 294.912 251.589 288.799 252.914 283.895L252.981 283.729C255.002 284.574 257.006 285.485 258.994 286.413Z" fill="#BC7171"/>
<path d="M257.951 367.244C258.265 369.034 258.265 370.889 258.265 372.761C258.265 376.82 258.265 380.614 254.952 383.861C252.136 386.628 246.884 388.997 237.159 390.77C239.909 388.798 239.478 382.238 237.291 379.819C247.298 377.996 252.533 375.511 255.267 372.612L255.416 372.463C256.907 370.856 257.603 369.1 257.951 367.244Z" fill="#BC7171"/>
<path d="M257.951 367.228C257.603 369.1 256.907 370.856 255.416 372.463C255.366 372.413 255.316 372.347 255.267 372.297C253.842 370.79 251.738 369.398 248.623 368.139C245.277 366.814 240.804 365.637 234.773 364.66C229.074 363.749 222 363.003 213.186 362.473C215.29 359.242 213.17 353.51 209.79 351.506C211.463 351.605 213.07 351.688 214.611 351.787C214.992 351.804 215.356 351.837 215.721 351.87C217.129 351.953 218.471 352.052 219.78 352.152C222.828 352.4 225.645 352.665 228.213 352.98C229.405 353.113 230.549 353.262 231.642 353.411C232.835 353.577 233.978 353.742 235.071 353.924C239.892 354.72 243.703 355.631 246.735 356.675C254.753 359.408 257.189 363.136 257.951 367.228Z" fill="#BC7171"/>
<path d="M237.291 379.819C230.118 381.161 220.492 382.138 207.553 382.751C205.201 382.85 202.732 382.966 200.148 383.033C197.133 383.132 193.968 383.215 190.638 383.265C185.701 383.364 180.4 383.397 174.717 383.397C169.035 383.397 163.799 383.364 158.896 383.265C150.479 383.116 143.107 382.85 136.646 382.469C109.542 380.879 98.5911 377.301 94.1677 372.629C94.118 372.579 94.0683 372.529 94.0351 372.479C94.0683 372.43 94.118 372.363 94.1677 372.314C95.8741 370.491 98.5745 368.851 102.783 367.426C110.42 364.842 123.028 362.97 143.935 362.075C146.951 361.959 150.115 361.86 153.478 361.76C154.058 361.76 154.638 361.76 155.234 361.727C156.99 361.678 158.796 361.645 160.652 361.628C160.784 361.611 160.9 361.611 161.033 361.611C165.324 361.545 169.896 361.512 174.734 361.512C183.912 361.512 192.096 361.628 199.369 361.86C203.793 361.992 207.868 362.175 211.662 362.39C212.176 362.423 212.689 362.44 213.186 362.473C222 363.003 229.074 363.749 234.773 364.66C240.804 365.637 245.277 366.813 248.623 368.139C251.738 369.398 253.842 370.79 255.267 372.297C255.316 372.347 255.366 372.413 255.416 372.463L255.267 372.612C252.533 375.511 247.298 377.996 237.291 379.819Z" fill="#BC7171"/>
<path d="M254.952 383.861L255.035 383.944C255.035 397.364 255.035 409.441 243.454 417.89C241.963 418.984 240.29 420.011 238.401 420.972C238.352 420.972 238.302 421.021 238.252 421.038L237.822 421.369C235.668 418.586 233.564 415.902 231.509 413.384C232.106 412.821 232.686 412.224 233.232 411.595C238.037 406.21 239.859 398.656 240.539 393.503C232.967 394.862 222.331 395.674 210.999 395.972C196.321 396.32 180.499 395.773 168.786 394.282C170.725 394.315 172.696 394.315 174.734 394.315C205.449 394.315 224.883 393.006 237.159 390.77C246.884 388.997 252.136 386.628 254.952 383.861Z" fill="#BC7171"/>
<path d="M251.605 245.509C253.378 258.033 248.375 269.249 239.246 278.411C235.966 277.285 232.702 276.257 229.472 275.363C232.255 272 234.608 268.554 236.347 265.174C236.927 264.047 237.441 262.888 237.904 261.678C239.064 260.701 239.677 259.558 239.545 258.415C239.495 258.067 239.395 257.735 239.197 257.421C242.858 242.725 239.048 223.789 234.558 206.791C223.922 204.985 210.618 204.074 196.337 203.776C198.077 202.765 199.336 201.622 199.22 200.761C199.038 199.419 195.492 198.309 192.577 199.203C190.125 199.949 188.451 202.003 187.805 203.677C174.32 203.61 160.304 204.025 147.1 204.687C146.918 203.412 146.404 202.07 145.509 200.993C175.214 195.923 205.847 191.549 233.415 188.567C242.245 203.644 247.48 221.387 250.429 238.103C250.876 240.605 251.258 243.073 251.605 245.509Z" fill="#BC7171"/>
<path d="M237.822 421.369L238.252 421.038C238.252 421.038 238.352 420.988 238.401 420.972C240.29 420.011 241.963 418.984 243.454 417.89C243.471 421.701 242.626 426.754 239.694 429.67C238.302 431.26 236.596 432.602 234.657 433.679C223.955 439.742 206.493 438.367 198.839 433.447C218.388 435.998 236.38 428.427 226.572 407.602C228.196 409.375 229.836 411.33 231.509 413.384C233.564 415.902 235.668 418.586 237.822 421.369Z" fill="#BC7171"/>
<path d="M239.545 258.415C239.677 259.558 239.064 260.701 237.904 261.662C238.418 260.303 238.849 258.879 239.197 257.421C239.395 257.735 239.495 258.067 239.545 258.415Z" fill="#BC7171"/>
<path d="M225.181 225.893C221.387 218.256 213.899 212.06 208.133 213.451C204.621 214.296 201.175 217.411 198.276 221.486H198.259C192.875 229.107 189.412 240.008 191.135 245.658C191.202 245.906 191.284 246.138 191.384 246.37C193.041 250.313 200.827 251.556 208.746 250.396C216.715 249.203 224.816 245.592 226.871 239.843C228.411 235.552 227.45 230.466 225.181 225.893ZM229.472 275.363C220.807 285.883 208.05 295.624 197.05 300.346C197.05 300.346 197.039 300.352 197.017 300.363C194.581 300.942 192.113 301.456 189.611 301.903C183.084 303.046 176.39 303.643 169.78 303.643C167.676 303.643 165.572 303.593 163.452 303.494C125.977 301.87 88.2863 285.75 87.0769 255.184C86.9941 253.047 87.0935 250.827 87.3751 248.54C88.9159 236.33 91.3512 223.06 95.5427 210.353C100.463 209.343 105.483 208.332 110.586 207.338H110.619C118.737 206.559 128.23 205.797 138.452 205.168C140.97 207.62 144.863 209.707 146.271 208.713C147.033 208.183 147.381 206.51 147.1 204.687C160.304 204.025 174.32 203.61 187.805 203.677C187.408 204.638 187.358 205.482 187.689 205.88C188.617 207.04 193.239 205.598 196.337 203.776C210.618 204.074 223.922 204.985 234.558 206.791C239.048 223.789 242.858 242.725 239.197 257.42C238.053 255.333 234.193 254.14 229.82 254.67C224.783 255.283 220.956 257.951 221.288 260.635C221.602 263.302 225.959 264.975 230.996 264.362C233.895 264.014 236.38 262.987 237.904 261.678C237.441 262.888 236.927 264.047 236.347 265.174C234.608 268.554 232.255 272 229.472 275.363ZM154.671 268.156C151.523 268.023 148.906 268.421 147.332 270.674C144.515 274.7 149.055 278.08 155.566 279.902C159.906 281.112 165.125 281.642 169.615 281.194C174.452 280.714 179.29 278.991 183.349 276.688C186.679 274.783 189.479 272.48 191.318 270.144C193.869 266.897 194.548 263.583 192.196 261.165C188.253 257.106 184.144 259.326 179.389 262.391C175.811 264.677 171.884 267.444 167.395 268.388C166.516 268.57 165.622 268.67 164.711 268.703C161.165 268.819 157.67 268.239 154.671 268.156ZM164.048 248.159C171.404 248.159 180.648 243.736 180.615 240.92C180.599 237.341 150.529 240.837 150.214 244.299C149.982 246.9 157.885 248.159 164.048 248.159ZM164.793 258.646C169.167 258.381 171.967 255.631 171.006 253.212C170.741 252.583 169.366 252.334 167.61 252.334C164.23 252.334 159.442 253.212 158.78 254.024C157.835 255.184 160.552 258.017 163.518 258.564C163.949 258.646 164.363 258.68 164.793 258.646ZM141.235 247.464C143.14 241.93 138.916 230.648 132.802 223.093H132.786C129.655 219.2 126.01 216.284 122.431 215.671C116.865 214.71 110.172 220.724 106.692 228.113C104.34 233.1 103.478 238.716 105.417 243.222C107.852 248.806 116.136 251.887 124.154 252.55C124.154 252.55 124.165 252.555 124.187 252.566C132.156 253.229 139.843 251.489 141.235 247.464ZM117.08 265.737C117.08 263.037 112.955 260.85 107.885 260.85C102.816 260.85 98.6905 263.037 98.6905 265.737C98.6905 268.438 102.799 270.608 107.885 270.608C112.971 270.608 117.08 268.421 117.08 265.737Z" fill="#BC7171"/>
<path d="M240.539 393.503C239.859 398.656 238.037 406.21 233.232 411.595C232.686 412.224 232.106 412.82 231.509 413.384C229.836 411.329 228.196 409.375 226.572 407.602C220.923 401.29 215.721 397.049 211.032 397.049L210.999 395.972C222.331 395.674 232.967 394.862 240.539 393.503Z" fill="#BC7171"/>
<path d="M239.197 257.421C238.849 258.879 238.418 260.303 237.904 261.662C236.38 262.987 233.895 264.014 230.996 264.362C225.959 264.975 221.602 263.302 221.288 260.635C220.956 257.951 224.783 255.283 229.82 254.67C234.193 254.14 238.053 255.333 239.197 257.421Z" fill="#BC7171"/>
<path d="M168.786 394.282C158.034 394.232 148.773 394 140.788 393.603C111.298 392.161 99.3366 388.616 94.499 383.861C91.1856 380.614 91.1856 376.82 91.1856 372.761V371.635C91.1856 371.038 91.1856 370.475 91.2187 369.912C91.2353 369.017 91.3015 368.139 91.4506 367.294H91.4838C91.8483 369.133 92.5607 370.856 94.0351 372.479C94.0683 372.529 94.118 372.579 94.1677 372.629C98.5911 377.301 109.542 380.879 136.646 382.469C143.107 382.85 150.479 383.116 158.896 383.265C163.799 383.364 169.068 383.397 174.717 383.397C180.367 383.397 185.701 383.364 190.638 383.265C193.968 383.215 197.133 383.132 200.148 383.033C202.732 382.966 205.201 382.85 207.553 382.751C220.492 382.138 230.118 381.161 237.291 379.819C239.478 382.238 239.909 388.798 237.159 390.77C224.883 393.006 205.449 394.315 174.734 394.315C172.696 394.315 170.725 394.315 168.786 394.282Z" fill="#BC7171"/>
<path d="M195.89 148.227C201.755 151.54 206.079 154.091 210.27 156.543C211.347 157.686 212.706 158.515 214.396 158.962H214.412C217.991 161.033 221.801 163.154 226.688 165.738C226.705 165.705 226.738 165.688 226.755 165.672C230.184 168.952 233.299 172.613 236.032 176.639L236.132 178.031C232.984 178.23 229.803 178.478 226.589 178.76C226.556 178.71 226.523 178.677 226.506 178.627C218.272 164.148 186.778 145.775 162.275 145.725C173.69 144.284 185.188 145.162 195.89 148.227Z" fill="#BC7171"/>
<path d="M187.49 430.2C187.49 430.2 187.573 430.183 187.606 430.183C188.451 430.067 191.268 429.835 195.211 429.189C195.294 429.537 195.426 429.868 195.608 430.2C196.238 431.392 197.348 432.486 198.839 433.447C206.493 438.367 223.955 439.742 234.657 433.679C235.734 440.19 234.574 450.759 233.862 457.602C231.079 484.076 227.682 514.179 223.375 532.071C220.111 533.082 217.411 533.86 215.009 534.407C217.345 526.852 219.167 517.326 220.575 507.055C220.857 506.607 221.022 506.11 221.022 505.613C221.022 505.332 220.973 505.067 220.873 504.802C223.623 483.91 224.717 460.352 224.949 444.116C198.16 444.099 199.634 439.51 194.581 437.29C189.876 435.219 165.307 433.894 154.837 432.95C155.615 432.138 156.145 431.276 156.394 430.349C156.41 430.332 156.41 430.316 156.41 430.299C156.427 430.266 156.427 430.216 156.444 430.183C162.027 430.547 168.09 430.448 174.734 430.448C178.064 430.448 181.245 430.398 184.31 430.316C185.42 430.282 186.48 430.249 187.49 430.2Z" fill="#BC7171"/>
<path d="M235.071 353.924C233.978 353.742 232.835 353.576 231.642 353.411C229.19 346.502 222.58 330.763 219.051 324.021H219.068C225.628 332.221 234.077 350.014 235.071 353.924Z" fill="#BC7171"/>
<path d="M229.472 275.363C232.702 276.257 235.966 277.285 239.246 278.411C229.107 288.617 213.832 296.271 197.05 300.346C208.05 295.624 220.807 285.883 229.472 275.363Z" fill="#BC7171"/>
<path d="M214.362 347.447H214.346C210.966 349.037 205.482 343.702 204.372 339.66C205.532 339.113 206.36 337.92 206.36 336.545C206.36 335.899 206.178 335.303 205.88 334.789C205.466 331.028 206.311 320.74 207.139 317.708L207.172 317.576C210.535 318.222 213.749 319.1 215.936 320.773C216.897 321.502 217.958 322.612 219.068 324.004H219.051C222.58 330.763 229.19 346.502 231.642 353.411C230.549 353.262 229.405 353.112 228.213 352.98C225.645 352.665 222.828 352.4 219.78 352.152C218.471 352.052 217.129 351.953 215.721 351.87C215.224 350.396 214.793 348.921 214.362 347.447Z" fill="#BC7171"/>
<path d="M226.572 407.602C236.38 428.427 218.388 435.998 198.839 433.43C197.348 432.486 196.238 431.392 195.608 430.199C195.426 429.868 195.294 429.537 195.211 429.189C195.178 429.123 195.161 429.056 195.145 428.99C191.483 420.591 199.982 398.722 209.84 397.148C210.237 397.082 210.635 397.049 211.032 397.049C215.721 397.049 220.923 401.29 226.572 407.585V407.602Z" fill="#BC7171"/>
<path d="M225.181 225.893C227.45 230.466 228.411 235.552 226.871 239.843C224.816 245.592 216.715 249.203 208.746 250.396C221.652 246.735 217.792 232.619 210.734 225.048C215.787 223.806 220.973 224.087 225.181 225.893Z" fill="#BC7171"/>
<path d="M124.817 162.491C126.026 161.696 127.169 160.95 128.313 160.188C132.206 157.604 136.066 154.953 142.577 150.629C142.61 150.612 142.627 150.596 142.66 150.579C149.055 148.177 155.648 146.553 162.275 145.725C186.778 145.775 218.272 164.148 226.506 178.627C226.523 178.677 226.556 178.71 226.572 178.76C183.117 182.405 133.647 191.301 92.2956 201.854L92.1133 201.142C97.448 188.17 104.787 177.567 113.402 169.201C113.518 169.316 113.601 169.399 113.684 169.499C118.488 166.55 121.868 164.413 124.817 162.491Z" fill="#BC7171"/>
<path d="M224.949 444.099C224.717 460.352 223.624 483.91 220.873 504.802C220.095 502.482 215.936 500.726 210.933 500.726C205.35 500.726 200.827 502.913 200.827 505.613C200.827 508.314 205.35 510.484 210.933 510.484C215.456 510.484 219.283 509.043 220.575 507.055C219.167 517.326 217.345 526.852 215.009 534.407C207.305 536.213 202.699 535.915 192.361 534.821C191.019 516.78 191.516 486.76 187.043 484.44C185.536 483.662 183.796 483.181 181.974 482.949H181.957C176.904 482.22 171.271 483.165 168.455 484.01C165.92 484.109 158.167 484.01 158.167 486.197C158.249 497.032 159.326 519.695 156.957 535.335C148.972 535.931 144.267 535.385 133.531 532.071C130.665 519.662 126.49 497.992 118.323 459.374C116.964 452.946 116.202 442.642 117.312 435.103C118.439 435.716 119.631 436.23 120.874 436.677C132.819 441.034 149.502 438.533 154.82 432.95H154.837C165.307 433.894 189.876 435.219 194.581 437.29C199.634 439.51 198.16 444.099 224.949 444.099ZM156.063 507.469C156.063 504.768 151.722 502.581 146.371 502.581C141.02 502.581 136.662 504.768 136.662 507.469C136.662 510.169 141.003 512.34 146.371 512.34C151.739 512.34 156.063 510.153 156.063 507.469Z" fill="#BC7171"/>
<path d="M220.873 504.802C220.973 505.067 221.022 505.332 221.022 505.613C221.022 506.11 220.857 506.607 220.575 507.055C220.691 506.309 220.791 505.547 220.873 504.802Z" fill="#BC7171"/>
<path d="M220.873 504.801C220.79 505.547 220.691 506.309 220.575 507.054C219.283 509.043 215.456 510.484 210.933 510.484C205.35 510.484 200.827 508.297 200.827 505.613C200.827 502.929 205.35 500.726 210.933 500.726C215.936 500.726 220.095 502.482 220.873 504.801Z" fill="#BC7171"/>
<path d="M225.181 225.893C220.973 224.087 215.787 223.806 210.734 225.048C206.791 220.807 201.821 218.604 198.276 221.486C201.175 217.411 204.621 214.296 208.133 213.451C213.899 212.06 221.387 218.256 225.181 225.893Z" fill="#BC7171"/>
<path d="M223.375 532.071C221.304 540.752 218.985 546.567 216.433 547.694C211.877 549.698 208.083 551.024 204.223 550.924C208.663 549.682 212.209 543.469 215.009 534.407C217.411 533.86 220.111 533.082 223.375 532.071Z" fill="#BC7171"/>
<path d="M215.721 351.87C215.356 351.837 214.992 351.804 214.611 351.787C213.07 351.688 211.463 351.605 209.79 351.506H209.773C208.034 351.423 206.228 351.34 204.339 351.257C203.66 351.224 202.964 351.207 202.268 351.174C194.283 350.893 185.155 350.743 174.734 350.743C167.312 350.743 160.552 350.826 154.389 350.959C150.96 351.042 147.729 351.141 144.664 351.274C144.598 350.346 144.482 349.269 144.35 348.109C147.696 346.867 151.49 343.354 152.302 340.488C152.766 340.72 153.296 340.853 153.859 340.853C155.764 340.853 157.305 339.295 157.305 337.39C169.2 336.645 186.911 336.131 199.452 336.976H199.485C199.701 338.683 201.142 339.991 202.898 339.991C203.428 339.991 203.925 339.875 204.372 339.66C205.482 343.702 210.966 349.037 214.346 347.447H214.362C214.793 348.921 215.224 350.396 215.721 351.87Z" fill="#BC7171"/>
<path d="M91.4838 367.294H91.4506C91.6826 365.737 92.1796 364.246 93.1239 362.837C94.5653 360.7 97.1 358.762 101.523 357.089C103.644 356.293 106.195 355.564 109.277 354.885C111.497 354.405 113.982 353.957 116.782 353.56C122.713 352.715 130.036 352.019 139.048 351.539C139.313 351.522 139.578 351.506 139.86 351.506C141.401 351.423 143.008 351.34 144.664 351.274C147.729 351.141 150.96 351.042 154.389 350.959C160.552 350.826 167.312 350.743 174.734 350.743C185.155 350.743 194.283 350.893 202.268 351.174C202.964 351.207 203.66 351.224 204.339 351.257C206.228 351.34 208.034 351.423 209.773 351.506H209.79C213.17 353.51 215.29 359.242 213.186 362.473C212.689 362.44 212.176 362.423 211.662 362.39C207.868 362.175 203.793 361.993 199.369 361.86C192.096 361.628 183.912 361.512 174.734 361.512C169.896 361.512 165.324 361.545 161.033 361.611C160.9 361.611 160.784 361.611 160.652 361.628C158.796 361.645 156.99 361.678 155.234 361.727C154.638 361.744 154.058 361.761 153.478 361.761C150.115 361.86 146.951 361.959 143.935 362.075C123.028 362.97 110.42 364.842 102.783 367.427C98.5745 368.851 95.8741 370.491 94.1677 372.314C94.118 372.364 94.0683 372.43 94.0351 372.48C92.5607 370.856 91.8483 369.133 91.4838 367.294Z" fill="#BC7171"/>
<path d="M212.938 105.715L213.203 105.798C209.376 120.857 201.904 147.829 210.27 156.543C206.079 154.091 201.755 151.54 195.89 148.226C201.49 137.69 207.52 123.028 212.938 105.715Z" fill="#BC7171"/>
<path d="M210.999 395.972L211.032 397.049C210.635 397.049 210.237 397.082 209.84 397.148C199.982 398.722 191.483 420.59 195.145 428.99C195.161 429.056 195.178 429.123 195.211 429.189C191.268 429.835 188.451 430.067 187.606 430.183C187.573 430.183 187.524 430.199 187.49 430.199C186.48 430.249 185.42 430.282 184.31 430.315C181.245 430.398 178.064 430.448 174.734 430.448C168.09 430.448 162.027 430.547 156.444 430.183C159.144 423.97 155.218 410.418 148.988 403.129C147.928 401.87 146.785 400.809 145.609 399.997C144.366 399.136 143.074 398.556 141.749 398.341C141.351 398.275 140.953 398.241 140.556 398.241L140.788 393.603C148.773 394 158.034 394.232 168.786 394.282C180.499 395.773 196.321 396.32 210.999 395.972Z" fill="#BC7171"/>
<path d="M210.734 225.048C217.792 232.62 221.652 246.735 208.746 250.38C200.827 251.556 193.04 250.313 191.384 246.37C191.284 246.138 191.202 245.906 191.135 245.658L191.235 245.625C192.726 236.894 198.044 230.797 204.455 227.417C204.72 227.848 205.201 228.146 205.748 228.146C206.592 228.146 207.288 227.451 207.288 226.606C207.288 226.457 207.288 226.307 207.222 226.158C208.382 225.694 209.541 225.33 210.734 225.048Z" fill="#BC7171"/>
<path d="M210.734 225.048C209.541 225.33 208.382 225.694 207.222 226.158C207.023 225.529 206.443 225.065 205.748 225.065C204.903 225.065 204.223 225.761 204.223 226.606C204.223 226.904 204.306 227.186 204.455 227.417C198.044 230.797 192.726 236.894 191.235 245.625L191.135 245.658C189.412 240.008 192.875 229.107 198.259 221.503H198.276C201.821 218.604 206.791 220.807 210.734 225.048Z" fill="#BC7171"/>
<path d="M207.222 226.158C207.272 226.307 207.288 226.456 207.288 226.606C207.288 227.45 206.592 228.146 205.748 228.146C205.201 228.146 204.72 227.848 204.455 227.417C205.35 226.937 206.278 226.523 207.222 226.158Z" fill="#BC7171"/>
<path d="M207.172 317.576L207.139 317.708C206.311 320.74 205.466 331.028 205.88 334.789C205.267 333.779 204.157 333.099 202.898 333.099C201.937 333.099 201.076 333.497 200.446 334.126C200.082 330.83 200.595 320.26 201.556 316.797L201.589 316.615C203.412 316.913 205.317 317.211 207.172 317.576Z" fill="#BC7171"/>
<path d="M205.748 225.065C206.443 225.065 207.023 225.529 207.222 226.158C206.278 226.523 205.35 226.937 204.455 227.417C204.306 227.186 204.223 226.904 204.223 226.606C204.223 225.761 204.903 225.065 205.748 225.065Z" fill="#BC7171"/>
<path d="M205.88 334.789C206.178 335.303 206.36 335.899 206.36 336.545C206.36 337.92 205.532 339.113 204.372 339.66C203.925 339.875 203.428 339.991 202.898 339.991C201.142 339.991 199.7 338.682 199.485 336.976C199.469 336.844 199.452 336.694 199.452 336.545C199.452 335.601 199.833 334.756 200.446 334.127C201.076 333.497 201.937 333.099 202.898 333.099C204.157 333.099 205.267 333.779 205.88 334.789Z" fill="#BC7171"/>
<path d="M192.361 534.821C202.699 535.915 207.305 536.213 215.009 534.407C212.209 543.469 208.663 549.682 204.223 550.924H204.207C201.39 550.875 198.508 550.046 195.244 548.191C193.703 547.296 192.891 542.011 192.361 534.821Z" fill="#BC7171"/>
<path d="M201.589 316.615L201.556 316.797C200.595 320.26 200.082 330.83 200.446 334.127C199.833 334.756 199.452 335.601 199.452 336.545C199.452 336.694 199.469 336.844 199.485 336.976H199.452C186.911 336.131 169.2 336.645 157.305 337.39C157.305 336.462 156.941 335.618 156.311 334.988C156.692 331.641 156.179 321.105 155.218 317.659C158.829 317.013 161.778 316.168 162.789 314.329C163.816 312.457 164.147 310.253 164.065 308.017H164.081C175.363 309.044 179.455 308.828 190.191 306.758H190.208C190.622 308.497 191.251 310.319 192.063 312.39C193.074 314.909 197.017 315.836 201.589 316.615Z" fill="#BC7171"/>
<path d="M199.22 200.761C199.336 201.622 198.077 202.766 196.337 203.776C193.537 203.71 190.671 203.677 187.805 203.677C188.451 202.004 190.125 199.949 192.577 199.204C195.492 198.309 199.038 199.419 199.22 200.761Z" fill="#BC7171"/>
<path d="M192.196 261.165C194.548 263.584 193.869 266.897 191.317 270.144C189.479 272.48 186.679 274.783 183.349 276.688C183.813 274.766 180.996 265.157 179.389 262.391C184.144 259.326 188.253 257.106 192.196 261.165Z" fill="#BC7171"/>
<path d="M190.207 306.757H190.191C179.455 308.828 175.363 309.044 164.081 308.017H164.065C164.015 306.492 163.766 304.968 163.452 303.494C165.572 303.593 167.676 303.643 169.78 303.643C176.39 303.643 183.084 303.046 189.611 301.903V301.936C189.611 303.593 189.81 305.15 190.207 306.757Z" fill="#BC7171"/>
<path d="M196.337 203.776C193.239 205.599 188.617 207.04 187.689 205.88C187.358 205.483 187.408 204.638 187.805 203.677C190.671 203.677 193.538 203.71 196.337 203.776Z" fill="#BC7171"/>
<path d="M179.389 262.391C180.996 265.157 183.813 274.766 183.349 276.672C179.29 278.991 174.452 280.714 169.615 281.194C170.078 279.289 169.018 271.155 167.395 268.388C171.884 267.444 175.811 264.677 179.389 262.391Z" fill="#BC7171"/>
<path d="M180.615 240.92C180.648 243.736 171.404 248.159 164.048 248.159C157.885 248.159 149.982 246.9 150.214 244.299C150.529 240.837 180.599 237.341 180.615 240.92Z" fill="#BC7171"/>
<path d="M171.006 253.213C171.967 255.631 169.167 258.381 164.793 258.647C164.363 258.68 163.949 258.647 163.518 258.564C167.643 258.382 168.322 254.057 167.593 252.666V252.334C169.366 252.334 170.741 252.583 171.006 253.213Z" fill="#BC7171"/>
<path d="M167.395 268.388C169.018 271.155 170.078 279.289 169.615 281.194C165.125 281.642 159.906 281.112 155.566 279.902C156.029 277.997 156.295 270.956 154.671 268.156C157.67 268.239 161.165 268.819 164.711 268.703C165.622 268.67 166.516 268.57 167.395 268.388Z" fill="#BC7171"/>
<path d="M167.593 252.666C168.322 254.057 167.643 258.382 163.518 258.564C160.552 258.017 157.835 255.184 158.78 254.024C159.442 253.213 164.23 252.334 167.61 252.334V252.666H167.593Z" fill="#BC7171"/>
<path d="M168.455 484.01C167.146 484.391 166.268 486.329 165.672 489.311C163.717 499.069 164.943 520.093 164.711 534.589C161.729 534.904 159.21 535.169 156.957 535.335C159.326 519.695 158.249 497.032 158.167 486.197C158.167 484.01 165.92 484.109 168.455 484.01Z" fill="#BC7171"/>
<path d="M164.711 534.589C164.595 542.674 164.015 548.721 162.192 549.699C157.603 552.184 152.865 552.432 148.657 551.703C153.114 550.925 155.599 544.298 156.957 535.335C159.21 535.169 161.729 534.904 164.711 534.589Z" fill="#BC7171"/>
<path d="M148.988 403.129C155.218 410.418 159.144 423.97 156.444 430.183C156.427 430.216 156.427 430.266 156.411 430.299C156.411 430.315 156.41 430.332 156.394 430.349C156.145 431.276 155.615 432.138 154.837 432.95H154.82C149.502 438.533 132.819 441.034 120.874 436.677C137.706 437.323 148.525 432.916 149.138 419.05C151.391 414.858 150.281 408.745 148.756 403.328L148.988 403.129Z" fill="#BC7171"/>
<path d="M152.302 340.488C151.192 339.908 150.413 338.732 150.413 337.39C150.413 336.761 150.579 336.181 150.877 335.667C151.473 334.64 152.583 333.944 153.859 333.944C154.82 333.944 155.682 334.342 156.311 334.971C156.941 335.618 157.305 336.463 157.305 337.39C157.305 339.296 155.764 340.853 153.859 340.853C153.296 340.853 152.766 340.72 152.302 340.488Z" fill="#BC7171"/>
<path d="M155.218 317.659C156.179 321.105 156.692 331.641 156.311 334.971C155.682 334.342 154.82 333.944 153.859 333.944C152.583 333.944 151.473 334.64 150.877 335.667C151.291 331.923 150.446 321.651 149.618 318.57C151.54 318.239 153.462 317.973 155.218 317.659Z" fill="#BC7171"/>
<path d="M154.671 268.156C156.295 270.956 156.029 277.997 155.566 279.902C149.055 278.08 144.515 274.7 147.332 270.674C148.906 268.421 151.523 268.023 154.671 268.156Z" fill="#BC7171"/>
<path d="M146.371 502.582C151.722 502.582 156.063 504.768 156.063 507.469C156.063 510.169 151.722 512.34 146.371 512.34C141.02 512.34 136.662 510.153 136.662 507.469C136.662 504.785 141.003 502.582 146.371 502.582Z" fill="#BC7171"/>
<path d="M133.531 532.071C144.267 535.384 148.972 535.931 156.957 535.335C155.599 544.298 153.114 550.924 148.657 551.703C145.99 551.256 143.521 550.411 141.45 549.483C138.137 548.009 136.58 545.275 133.531 532.071Z" fill="#BC7171"/>
<path d="M150.413 337.39C150.413 338.732 151.192 339.909 152.302 340.488C151.49 343.355 147.696 346.867 144.35 348.109C143.952 344.58 143.372 340.339 143.157 337.523C142.776 340.406 141.715 344.415 140.688 348.308C140.407 349.385 140.125 350.462 139.86 351.506C139.578 351.506 139.313 351.506 139.048 351.539C130.036 352.019 122.713 352.715 116.782 353.56C118.687 349.07 132.305 326.82 138.303 322.281C141.086 320.177 145.377 319.249 149.618 318.57C150.446 321.652 151.291 331.923 150.877 335.667C150.579 336.181 150.413 336.761 150.413 337.39Z" fill="#BC7171"/>
<path d="M148.756 403.328C150.281 408.745 151.391 414.858 149.138 419.033C149.369 413.997 148.259 407.718 145.609 399.998C146.785 400.809 147.928 401.87 148.988 403.129L148.756 403.328Z" fill="#BC7171"/>
<path d="M149.138 419.05C148.525 432.917 137.706 437.323 120.874 436.677C119.631 436.23 118.439 435.716 117.312 435.103C115.225 433.96 113.369 432.569 111.878 430.862C108.995 427.996 108.15 423.109 108.134 419.331C109.675 420.292 111.398 421.204 113.319 422.032C113.369 422.065 113.419 422.098 113.468 422.098L113.866 422.413C121.388 412.754 128.246 404.139 134.393 400.329C136.53 398.987 138.584 398.241 140.556 398.241C140.953 398.241 141.351 398.275 141.749 398.341C143.074 398.556 144.366 399.136 145.609 399.998C148.259 407.718 149.369 413.997 149.138 419.033V419.05Z" fill="#BC7171"/>
<path d="M147.1 204.687C147.381 206.51 147.033 208.183 146.271 208.713C144.863 209.707 140.97 207.62 138.452 205.168C141.285 205.002 144.167 204.853 147.1 204.687Z" fill="#BC7171"/>
<path d="M145.509 200.993C146.404 202.07 146.917 203.412 147.1 204.687C144.167 204.853 141.285 205.002 138.452 205.168C137.557 204.306 136.845 203.395 136.48 202.567C139.479 202.02 142.494 201.49 145.509 200.993Z" fill="#BC7171"/>
<path d="M144.35 348.109C144.482 349.269 144.598 350.346 144.664 351.273C143.008 351.34 141.401 351.423 139.86 351.505C140.125 350.462 140.407 349.385 140.688 348.308C141.666 348.772 142.975 348.639 144.35 348.109Z" fill="#BC7171"/>
<path d="M143.157 337.523C143.372 340.339 143.952 344.581 144.35 348.109C142.975 348.639 141.666 348.772 140.688 348.308C141.715 344.415 142.776 340.406 143.157 337.523Z" fill="#BC7171"/>
<path d="M142.66 150.579C142.66 150.579 142.61 150.612 142.577 150.629C136.066 154.953 132.206 157.603 128.313 160.188L128.213 160.022C134.128 157.106 123.972 130.152 121.735 79.4726C121.238 68.1903 118.919 43.7041 111.613 26.6399C117.577 38.6345 122.647 54.7047 124.949 74.0386C128.942 107.554 135.37 133.647 142.66 150.579Z" fill="#BC7171"/>
<path d="M132.802 223.093C138.916 230.648 143.14 241.93 141.235 247.464C139.727 238.468 134.045 232.387 127.302 229.223C127.269 228.411 126.59 227.782 125.778 227.782C125.397 227.782 125.049 227.914 124.784 228.163C123.492 227.699 122.166 227.335 120.857 227.086C124.486 222.812 129.141 220.492 132.786 223.093H132.802Z" fill="#BC7171"/>
<path d="M140.788 393.603L140.556 398.242C138.584 398.242 136.53 398.987 134.393 400.313C128.246 404.14 121.388 412.754 113.866 422.413L113.468 422.098C113.468 422.098 113.369 422.065 113.319 422.032C111.398 421.204 109.675 420.292 108.134 419.332C94.4162 410.833 94.4162 398.142 94.4162 383.944L94.499 383.861C99.3366 388.616 111.298 392.161 140.788 393.603Z" fill="#BC7171"/>
<path d="M136.48 202.567C136.845 203.395 137.557 204.306 138.452 205.168C128.23 205.797 118.737 206.559 110.619 207.338C119.035 205.698 127.7 204.091 136.48 202.55V202.567Z" fill="#BC7171"/>
<path d="M132.786 223.093C129.141 220.492 124.486 222.812 120.857 227.086C115.953 226.109 110.983 226.506 106.974 228.246L106.692 228.113C110.172 220.724 116.865 214.71 122.431 215.671C126.01 216.284 129.655 219.2 132.786 223.093Z" fill="#BC7171"/>
<path d="M141.235 247.464C139.843 251.49 132.156 253.229 124.187 252.566C124.187 252.566 124.176 252.561 124.154 252.55C110.884 249.684 114.115 235.005 120.857 227.086C122.166 227.335 123.492 227.699 124.784 228.163C124.452 228.428 124.237 228.842 124.237 229.323C124.237 230.168 124.933 230.847 125.778 230.847C126.623 230.847 127.319 230.168 127.319 229.323C127.319 229.29 127.319 229.256 127.302 229.223C134.045 232.388 139.727 238.468 141.235 247.464Z" fill="#BC7171"/>
<path d="M128.213 160.022L128.313 160.188C127.169 160.95 126.026 161.696 124.817 162.491C118.323 151.904 109.393 133.399 110.884 107.537C111.779 92.3288 111.696 78.8266 110.735 66.103C110.735 66.0698 110.718 66.0201 110.718 65.987C110.652 64.496 110.536 63.0712 110.37 61.7127C109.708 54.4728 108.747 47.4649 107.537 40.4736H107.521C106.676 32.0243 96.8681 6.36178 83.6972 3.44596C85.006 2.75014 86.2817 2.35252 87.5077 2.30282C94.2174 2.00461 103.677 10.7189 111.58 26.5737C111.58 26.5903 111.596 26.6069 111.613 26.64C118.919 43.7042 121.238 68.1904 121.735 79.4727C123.972 130.152 134.128 157.106 128.213 160.022Z" fill="#BC7171"/>
<path d="M127.302 229.223C127.302 229.223 127.319 229.29 127.319 229.323C127.319 230.168 126.623 230.847 125.778 230.847C124.933 230.847 124.237 230.168 124.237 229.323C124.237 228.842 124.452 228.428 124.784 228.163C125.629 228.461 126.474 228.809 127.302 229.223Z" fill="#BC7171"/>
<path d="M125.778 227.782C126.59 227.782 127.269 228.412 127.302 229.223C126.474 228.809 125.629 228.461 124.784 228.163C125.049 227.915 125.397 227.782 125.778 227.782Z" fill="#BC7171"/>
<path d="M106.974 228.246C110.983 226.506 115.953 226.109 120.857 227.086C114.115 235.005 110.884 249.684 124.154 252.55C116.136 251.887 107.852 248.806 105.417 243.222C103.478 238.716 104.34 233.1 106.692 228.113L106.974 228.246Z" fill="#BC7171"/>
<path d="M107.885 260.85C112.955 260.85 117.08 263.037 117.08 265.737C117.08 268.438 112.955 270.608 107.885 270.608C102.816 270.608 98.6905 268.421 98.6905 265.737C98.6905 263.054 102.799 260.85 107.885 260.85Z" fill="#BC7171"/>
<path d="M124.817 162.491C121.868 164.413 118.488 166.55 113.684 169.499C113.601 169.399 113.518 169.316 113.402 169.2C115.572 164.86 110.072 146.537 108.548 141.202C103.445 123.293 111.779 88.2533 110.735 66.103C111.696 78.8266 111.779 92.3289 110.884 107.538C109.393 133.399 118.323 151.904 124.817 162.491Z" fill="#BC7171"/>
<path d="M108.548 141.202C110.072 146.537 115.572 164.86 113.402 169.201C101.441 156.494 77.6502 136.812 65.4402 106.129C48.376 63.2038 68.1075 11.7131 83.6972 3.44604C96.8681 6.36187 106.676 32.0244 107.521 40.4737H107.537C108.747 47.465 109.708 54.4729 110.37 61.7128C110.503 63.1375 110.619 64.5623 110.718 65.9871C110.718 66.0202 110.735 66.0699 110.735 66.1031C111.779 88.2534 103.445 123.293 108.548 141.202Z" fill="#BC7171"/>
<path d="M95.5427 210.353C91.3512 223.06 88.9159 236.331 87.3751 248.541C87.0935 250.827 86.9941 253.047 87.0769 255.184H87.0438C42.9089 253.859 3.29676 248.971 2.65065 241.251C2.60094 240.621 2.79975 239.959 3.2802 239.263H3.29677C8.5817 231.344 46.9015 220.393 95.5427 210.353Z" fill="#BC7171"/>
<path d="M330.018 191.964C331.658 206.344 285.75 227.981 250.413 238.103C247.464 221.37 242.228 203.627 233.398 188.567C278.709 183.664 315.737 182.504 326.721 188.17C326.754 188.17 326.771 188.186 326.804 188.219C327.632 188.783 328.427 189.396 329.14 190.025C329.653 190.622 329.935 191.268 330.018 191.964Z" fill="#BF7E67"/>
<path d="M326.721 188.17C315.737 182.504 278.709 183.664 233.398 188.551C205.83 191.533 175.198 195.907 145.493 200.976C142.477 201.49 139.462 202.003 136.464 202.534C127.666 204.091 119.002 205.698 110.569 207.321C105.466 208.316 100.447 209.326 95.5261 210.337C46.9512 220.36 8.68104 231.294 3.29671 239.197C8.3497 228.146 45.0128 213.915 92.2789 201.854C133.631 191.301 183.084 182.404 226.572 178.76C229.786 178.478 232.967 178.23 236.115 178.031C276.986 175.264 311.38 177.583 326.721 188.17Z" fill="#DBA77F"/>
<path d="M267.079 290.472C264.876 289.296 262.639 288.169 260.369 287.076L261.794 284.11C263.186 286.198 279.074 280.681 281.807 284.16C283.1 285.8 271.668 287.424 271.867 288.915C272.149 290.969 290.803 288.716 292.394 290.853C293.322 292.079 281.774 292.659 281.807 293.885C281.857 295.442 299.75 296.122 299.75 297.546C299.75 298.474 290.24 299.617 289.379 301.44C287.573 305.233 296.552 317.41 293.918 317.891C289.925 318.636 285.817 303.842 282.619 304.19C280.465 304.422 282.271 311.479 280.3 311.595C277.417 311.761 275.048 297.116 272.513 297.331C270.724 297.48 270.144 304.952 269.067 304.902C267.775 304.819 267.941 294.332 265.621 293.289L267.079 290.472Z" fill="#BF7E67"/>
<path d="M282.288 26.0435C289.991 47.6636 292.427 81.5435 277.947 109.79C263.915 137.176 240.522 154.157 226.738 165.655C226.721 165.672 226.688 165.688 226.672 165.721C221.784 163.137 217.974 161.016 214.396 158.945C214.826 158.349 215.274 157.703 215.721 157.057C216.201 156.328 216.698 155.582 217.195 154.803H217.212C228.312 157.338 232.139 156.112 252.136 135.569C268.156 119.134 289.826 78.1969 282.271 26.0435H282.288Z" fill="#EAA0A0"/>
<path d="M282.271 26.0435C289.826 78.1969 268.156 119.134 252.136 135.569C232.139 156.112 228.312 157.338 217.212 154.82H217.195C224.104 144.035 231.791 127.816 232.57 106.875C233.531 81.1127 236.778 60.5198 242.295 40.4238C245.658 31.2953 260.933 4.48962 273.076 8.99589C276.456 12.8063 279.687 18.7208 282.288 26.0435H282.271Z" fill="#FCB9B9"/>
<path d="M273.076 8.99598C260.933 4.48971 245.658 31.2954 242.295 40.4239C236.778 60.5199 233.531 81.1128 232.57 106.875C231.791 127.816 224.104 144.035 217.195 154.804C216.698 155.582 216.201 156.328 215.721 157.057C215.274 157.703 214.826 158.349 214.396 158.945H214.379C212.987 158.15 211.645 157.355 210.287 156.56C201.887 147.895 209.359 120.874 213.186 105.781L212.921 105.699C216.152 95.3606 219.183 84.0784 221.768 72.1831C231.377 27.9322 254.157 2.68389 265.853 4.32404C268.239 4.65538 270.707 6.29553 273.076 8.99598Z" fill="#B27967"/>
<path d="M267.079 290.472L265.621 293.288C265.621 293.288 265.472 293.239 265.389 293.222C263.882 292.974 262.606 296.585 261.065 296.254C259.127 295.823 259.392 289.71 258.033 289.561H257.984L258.978 286.413C259.442 286.645 259.906 286.86 260.369 287.076C262.639 288.169 264.876 289.296 267.079 290.472Z" fill="#DBA77F"/>
<path d="M264.312 280.482C264.992 281.907 261.413 282.851 261.711 283.944C261.728 284.011 261.761 284.06 261.794 284.11L260.369 287.076C259.906 286.86 259.442 286.645 258.978 286.413C256.99 285.485 254.985 284.574 252.964 283.729C252.467 283.497 251.97 283.298 251.473 283.1C254.339 279.902 263.898 279.654 264.312 280.482Z" fill="#DBA77F"/>
<path d="M258.978 286.413L257.984 289.561C256.692 289.561 255.581 295.045 254.372 294.962C253.66 294.912 251.589 288.799 252.898 283.895L252.964 283.729C254.985 284.574 256.99 285.485 258.978 286.413Z" fill="#DBA77F"/>
<path d="M257.934 367.228C258.265 369.017 258.265 370.873 258.265 372.745C258.265 376.804 258.265 380.597 254.952 383.861C252.136 386.611 246.884 388.98 237.159 390.77C239.892 388.798 239.478 382.238 237.291 379.819C247.298 377.98 252.533 375.511 255.267 372.612C255.316 372.562 255.366 372.513 255.399 372.463C256.89 370.839 257.586 369.083 257.934 367.228Z" fill="#BF7E67"/>
<path d="M246.718 356.658C254.753 359.408 257.189 363.136 257.934 367.228C257.586 369.083 256.89 370.839 255.399 372.463C255.366 372.397 255.316 372.347 255.267 372.297C253.842 370.79 251.721 369.382 248.607 368.139C242.129 365.521 231.294 363.566 213.186 362.456C215.274 359.226 213.17 353.494 209.757 351.506C211.43 351.588 213.037 351.688 214.611 351.787C214.975 351.804 215.34 351.837 215.704 351.87C217.113 351.953 218.471 352.052 219.78 352.152C222.812 352.4 225.628 352.665 228.213 352.98C229.389 353.113 230.532 353.262 231.625 353.411C232.818 353.577 233.961 353.742 235.055 353.924C239.876 354.72 243.703 355.631 246.718 356.658Z" fill="#BF7E67"/>
<path d="M213.186 362.456C231.294 363.566 242.129 365.521 248.607 368.139C251.721 369.381 253.842 370.79 255.267 372.297C255.316 372.347 255.366 372.397 255.399 372.463C255.366 372.513 255.316 372.562 255.267 372.612C252.533 375.511 247.298 377.98 237.291 379.819C230.101 381.161 220.476 382.155 207.537 382.751C205.184 382.85 202.716 382.95 200.131 383.033C197.133 383.132 193.952 383.215 190.622 383.265C185.685 383.347 180.4 383.397 174.717 383.397C169.035 383.397 163.799 383.347 158.896 383.265C150.463 383.116 143.09 382.85 136.629 382.469C109.542 380.862 98.5745 377.301 94.151 372.629C94.1013 372.579 94.0516 372.529 94.0185 372.479C94.0516 372.413 94.1013 372.363 94.151 372.314C95.874 370.491 98.5579 368.835 102.783 367.41C110.403 364.825 123.028 362.97 143.935 362.075C146.934 361.943 150.115 361.843 153.461 361.76C154.058 361.744 154.638 361.727 155.234 361.711C156.99 361.678 158.796 361.644 160.635 361.611H161.033C165.324 361.545 169.88 361.512 174.717 361.512C183.895 361.512 192.08 361.628 199.369 361.86C203.776 361.992 207.868 362.175 211.645 362.373H211.662C212.176 362.407 212.689 362.44 213.186 362.456Z" fill="#BF7E67"/>
<path d="M254.952 383.861L255.018 383.927C255.018 397.347 255.018 409.424 243.438 417.873C241.947 418.967 240.273 419.994 238.385 420.955C238.335 420.972 238.285 421.005 238.236 421.021L237.805 421.353C235.635 418.586 233.531 415.902 231.493 413.384C232.089 412.82 232.669 412.224 233.216 411.595C238.02 406.21 239.843 398.656 240.522 393.503C232.967 394.862 222.315 395.69 210.983 395.972C196.304 396.32 180.499 395.773 168.77 394.282C170.708 394.315 172.679 394.315 174.717 394.315C205.449 394.315 224.883 393.006 237.159 390.77C246.884 388.98 252.136 386.611 254.952 383.861Z" fill="#BF7E67"/>
<path d="M251.589 245.492C253.361 258.033 248.358 269.249 239.23 278.411C235.949 277.285 232.669 276.257 229.439 275.346C232.222 271.983 234.574 268.537 236.33 265.157C236.91 264.047 237.424 262.888 237.871 261.695C239.047 260.717 239.677 259.558 239.528 258.398C239.478 258.05 239.379 257.719 239.18 257.404C242.841 242.692 239.031 223.773 234.558 206.775C223.922 204.969 210.618 204.058 196.354 203.759C198.077 202.749 199.319 201.622 199.203 200.761C199.038 199.419 195.492 198.292 192.56 199.187C190.108 199.932 188.451 201.987 187.789 203.66C174.303 203.594 160.287 204.008 147.083 204.687C146.901 203.412 146.404 202.053 145.493 200.976C175.198 195.907 205.83 191.533 233.398 188.551C242.228 203.627 247.464 221.37 250.413 238.087C250.86 240.605 251.241 243.057 251.589 245.492Z" fill="#935D51"/>
<path d="M237.805 421.353L238.236 421.021C238.236 421.021 238.335 420.972 238.385 420.955C240.273 419.994 241.947 418.967 243.438 417.874C243.454 421.684 242.609 426.737 239.677 429.653C238.285 431.243 236.579 432.585 234.641 433.679C223.938 439.726 206.476 438.367 198.822 433.43C218.372 435.998 236.364 428.443 226.589 407.635C228.196 409.408 229.82 411.329 231.493 413.384C233.531 415.902 235.635 418.586 237.805 421.353Z" fill="#935D51"/>
<path d="M239.528 258.398C239.677 259.558 239.047 260.718 237.871 261.695C238.385 260.303 238.832 258.879 239.18 257.404C239.379 257.719 239.478 258.05 239.528 258.398Z" fill="#D17E75"/>
<path d="M225.164 225.893C221.37 218.256 213.882 212.06 208.117 213.451C204.604 214.28 201.158 217.411 198.259 221.486H198.243C192.858 229.091 189.429 239.992 191.135 245.641C191.201 245.89 191.284 246.138 191.384 246.37C193.04 250.313 200.81 251.539 208.73 250.379C208.73 250.379 208.741 250.374 208.763 250.363C216.715 249.187 224.8 245.575 226.854 239.843C228.395 235.552 227.45 230.466 225.164 225.893ZM229.439 275.346C220.79 285.866 208.034 295.608 197.033 300.329C197.033 300.329 197.022 300.335 197 300.346C194.565 300.926 192.096 301.439 189.594 301.887C183.067 303.03 176.374 303.626 169.764 303.626C167.66 303.626 165.556 303.577 163.435 303.477C128.313 301.953 93.0079 287.705 87.723 260.784C87.3585 258.978 87.1266 257.106 87.0603 255.184C86.9775 253.047 87.0769 250.827 87.3585 248.524C87.5407 247 87.7561 245.476 87.9715 243.935C89.5288 233.034 91.8482 221.47 95.5261 210.337C100.447 209.326 105.466 208.315 110.569 207.321C118.687 206.559 128.213 205.797 138.452 205.168C140.97 207.603 144.847 209.69 146.255 208.696C147.017 208.166 147.365 206.493 147.083 204.687C160.287 204.008 174.303 203.594 187.789 203.66C187.408 204.637 187.358 205.482 187.673 205.88C188.6 207.04 193.256 205.582 196.354 203.759C210.618 204.058 223.922 204.969 234.558 206.775C239.031 223.773 242.841 242.692 239.18 257.404C238.053 255.333 234.193 254.14 229.82 254.67C224.767 255.283 220.956 257.951 221.271 260.618C221.602 263.302 225.943 264.975 230.996 264.362C233.862 264.014 236.33 263.004 237.871 261.695C237.424 262.888 236.91 264.047 236.33 265.157C234.574 268.537 232.222 271.983 229.439 275.346ZM179.373 262.391C175.811 264.677 171.884 267.427 167.394 268.371C166.516 268.554 165.622 268.67 164.694 268.703C161.149 268.819 157.67 268.239 154.671 268.139C151.507 268.007 148.889 268.421 147.315 270.674C144.499 274.7 149.038 278.08 155.549 279.886C159.89 281.095 165.108 281.625 169.598 281.178C174.436 280.697 179.29 278.974 183.349 276.672C186.679 274.766 189.462 272.463 191.301 270.144C193.852 266.897 194.531 263.583 192.179 261.148C188.236 257.089 184.127 259.326 179.373 262.391ZM180.615 240.92C180.582 237.341 150.529 240.82 150.214 244.299C149.966 246.9 157.868 248.143 164.031 248.143C171.387 248.159 180.632 243.719 180.615 240.92ZM164.777 258.646C169.151 258.381 171.967 255.631 170.99 253.212C170.724 252.583 169.349 252.334 167.61 252.334C164.214 252.318 159.442 253.212 158.78 254.024C157.835 255.167 160.536 258.017 163.501 258.564C163.915 258.646 164.346 258.68 164.777 258.646ZM141.235 247.447C143.157 241.93 138.916 230.631 132.786 223.077H132.769C129.638 219.183 125.993 216.284 122.431 215.671C116.865 214.71 110.171 220.691 106.709 228.063C104.34 233.05 103.462 238.7 105.417 243.206C107.836 248.806 116.119 251.887 124.138 252.55C124.138 252.55 124.149 252.555 124.171 252.566C132.14 253.229 139.827 251.489 141.235 247.447ZM117.063 265.721C117.063 263.037 112.955 260.85 107.869 260.85C102.783 260.85 98.6739 263.037 98.6739 265.721C98.6739 268.404 102.799 270.608 107.869 270.608C112.938 270.608 117.063 268.421 117.063 265.721Z" fill="#B27967"/>
<path d="M226.589 407.635C220.923 401.306 215.721 397.049 211.016 397.049L210.983 395.972C222.315 395.69 232.967 394.862 240.522 393.503C239.843 398.656 238.02 406.21 233.216 411.595C232.669 412.224 232.089 412.82 231.493 413.384C229.82 411.329 228.196 409.408 226.589 407.635Z" fill="#DBA77F"/>
<path d="M239.18 257.404C238.832 258.878 238.385 260.303 237.871 261.695C236.33 263.004 233.862 264.014 230.996 264.362C225.943 264.975 221.602 263.302 221.271 260.618C220.956 257.951 224.767 255.283 229.82 254.67C234.193 254.14 238.053 255.333 239.18 257.404Z" fill="#E08F82"/>
<path d="M168.77 394.282C158.017 394.232 148.756 394 140.771 393.603C111.281 392.161 99.32 388.599 94.4824 383.845C91.1689 380.597 91.1689 376.803 91.1689 372.744V371.618C91.1689 371.038 91.169 370.458 91.2021 369.895C91.2352 369 91.3015 368.139 91.434 367.277H91.4837C91.8316 369.116 92.544 370.856 94.0185 372.479C94.0516 372.529 94.1013 372.579 94.151 372.629C98.5745 377.3 109.542 380.862 136.629 382.469C143.09 382.85 150.463 383.116 158.896 383.265C163.799 383.347 169.068 383.397 174.717 383.397C180.367 383.397 185.685 383.347 190.622 383.265C193.952 383.215 197.133 383.132 200.131 383.033C202.716 382.95 205.184 382.85 207.537 382.751C220.476 382.155 230.101 381.161 237.291 379.819C239.478 382.238 239.892 388.798 237.159 390.77C224.883 393.006 205.449 394.315 174.717 394.315C172.679 394.315 170.708 394.315 168.77 394.282Z" fill="#DBA77F"/>
<path d="M236.016 176.622L236.115 178.031C232.967 178.229 229.786 178.478 226.572 178.76C218.454 164.214 186.745 145.725 162.159 145.725C173.607 144.267 185.138 145.145 195.873 148.21C201.771 151.54 206.095 154.108 210.287 156.56C211.347 157.686 212.706 158.498 214.379 158.945H214.396C217.974 161.016 221.784 163.137 226.672 165.721C226.688 165.688 226.721 165.671 226.738 165.655C230.167 168.935 233.282 172.597 236.016 176.622Z" fill="#BF7E67"/>
<path d="M187.59 430.183C188.435 430.067 191.251 429.835 195.194 429.189C195.277 429.537 195.41 429.868 195.592 430.2C196.221 431.392 197.331 432.486 198.822 433.43C206.476 438.367 223.938 439.726 234.641 433.679C235.734 440.19 234.558 450.743 233.845 457.585C231.062 484.076 227.666 514.179 223.358 532.071C220.095 533.082 217.394 533.844 214.992 534.407C217.311 526.869 219.15 517.359 220.542 507.088C220.857 506.624 221.022 506.127 221.022 505.597C221.022 505.315 220.973 505.033 220.873 504.752C223.607 483.877 224.684 460.335 224.932 444.099C198.143 444.099 199.634 439.51 194.581 437.29C189.876 435.219 165.29 433.894 154.82 432.95C155.599 432.138 156.129 431.26 156.377 430.332C156.394 430.316 156.394 430.299 156.394 430.282C156.41 430.249 156.41 430.216 156.427 430.183C162.01 430.547 168.074 430.432 174.717 430.432C178.047 430.432 181.228 430.382 184.293 430.299C185.453 430.266 186.546 430.233 187.59 430.183Z" fill="#3D587F"/>
<path d="M235.055 353.924C233.961 353.742 232.818 353.576 231.625 353.411C229.173 346.519 222.58 330.797 219.067 324.037C225.661 332.288 234.077 349.998 235.055 353.924Z" fill="#935D51"/>
<path d="M229.439 275.346C232.669 276.257 235.949 277.285 239.23 278.411C229.074 288.616 213.799 296.254 197.033 300.329C208.034 295.608 220.79 285.866 229.439 275.346Z" fill="#935D51"/>
<path d="M214.346 347.43H214.329C210.95 349.02 205.499 343.719 204.356 339.677C205.532 339.13 206.344 337.937 206.344 336.545C206.344 335.899 206.162 335.286 205.863 334.773C205.449 331.012 206.311 320.74 207.139 317.708L207.172 317.559C210.535 318.205 213.733 319.1 215.92 320.757C216.881 321.486 217.941 322.612 219.051 324.004C219.051 324.021 219.067 324.021 219.067 324.037C222.58 330.796 229.173 346.519 231.625 353.411C230.532 353.262 229.389 353.112 228.213 352.98C225.628 352.665 222.812 352.4 219.78 352.152C218.471 352.052 217.113 351.953 215.704 351.87C215.207 350.379 214.777 348.904 214.346 347.43Z" fill="#B27967"/>
<path d="M226.589 407.635C236.364 428.443 218.372 435.998 198.822 433.43C197.331 432.486 196.221 431.392 195.592 430.199C195.41 429.868 195.277 429.537 195.194 429.189C195.161 429.123 195.144 429.04 195.128 428.973C191.467 420.591 199.966 398.722 209.823 397.148C210.221 397.082 210.618 397.049 211.016 397.049C215.721 397.049 220.923 401.306 226.589 407.635Z" fill="#B27967"/>
<path d="M225.164 225.893C227.45 230.466 228.395 235.552 226.854 239.843C224.8 245.575 216.715 249.187 208.763 250.363C221.635 246.702 217.775 232.603 210.718 225.048C215.771 223.806 220.956 224.087 225.164 225.893Z" fill="white"/>
<path d="M226.572 178.743C183.084 182.404 133.631 191.301 92.2789 201.854L92.0967 201.125C97.4313 188.153 104.771 177.55 113.386 169.184C113.501 169.3 113.601 169.399 113.684 169.498C118.488 166.55 121.868 164.412 124.817 162.491C126.175 161.596 127.451 160.751 128.727 159.89C132.487 157.388 136.265 154.787 142.56 150.612C142.593 150.612 142.61 150.579 142.643 150.562C149.005 148.16 155.566 146.553 162.159 145.725C186.745 145.725 218.454 164.214 226.572 178.743Z" fill="#DBA77F"/>
<path d="M220.873 504.752C220.973 505.033 221.022 505.315 221.022 505.597C221.022 506.127 220.857 506.624 220.542 507.088C220.658 506.309 220.774 505.53 220.873 504.752Z" fill="#3D587F"/>
<path d="M224.932 444.099C224.684 460.335 223.607 483.877 220.873 504.752C220.045 502.466 215.903 500.726 210.916 500.726C205.333 500.726 200.81 502.896 200.81 505.597C200.81 508.297 205.333 510.484 210.916 510.484C215.423 510.484 219.25 509.059 220.542 507.088C219.15 517.359 217.311 526.869 214.992 534.407C207.288 536.213 202.699 535.898 192.345 534.805C191.003 516.763 191.5 486.743 187.027 484.424C185.519 483.645 183.779 483.165 181.957 482.933H181.94C176.887 482.204 171.255 483.148 168.438 483.993C165.903 484.109 158.15 483.993 158.15 486.197C158.233 497.032 159.31 519.695 156.941 535.335C148.955 535.931 144.25 535.385 133.531 532.071C130.665 519.662 126.507 497.992 118.306 459.358C116.947 452.93 116.185 442.625 117.295 435.087C118.422 435.7 119.615 436.213 120.857 436.677H120.89C132.835 441.018 149.485 438.533 154.803 432.95H154.82C165.29 433.894 189.876 435.219 194.581 437.29C199.634 439.51 198.143 444.099 224.932 444.099ZM156.063 507.452C156.063 504.768 151.722 502.581 146.354 502.581C140.986 502.581 136.646 504.768 136.646 507.452C136.646 510.136 140.986 512.34 146.354 512.34C151.722 512.34 156.063 510.153 156.063 507.452Z" fill="#507096"/>
<path d="M220.873 504.752C220.774 505.53 220.658 506.309 220.542 507.088C219.25 509.059 215.423 510.484 210.916 510.484C205.333 510.484 200.81 508.297 200.81 505.597C200.81 502.896 205.333 500.726 210.916 500.726C215.903 500.726 220.045 502.465 220.873 504.752Z" fill="#3D587F"/>
<path d="M225.164 225.893C220.956 224.087 215.771 223.806 210.718 225.048C206.775 220.807 201.804 218.604 198.259 221.486C201.158 217.411 204.604 214.28 208.117 213.451C213.882 212.06 221.37 218.256 225.164 225.893Z" fill="#EAD0D0"/>
<path d="M223.358 532.071C221.271 540.752 218.968 546.551 216.417 547.677C211.861 549.682 208.067 551.007 204.207 550.908C208.647 549.665 212.176 543.469 214.992 534.407C217.394 533.844 220.095 533.082 223.358 532.071Z" fill="#935D51"/>
<path d="M215.704 351.854C215.34 351.837 214.975 351.804 214.611 351.787C213.037 351.688 211.43 351.588 209.757 351.489C208.001 351.406 206.211 351.323 204.339 351.257H204.323C203.643 351.224 202.964 351.191 202.252 351.174C194.266 350.876 185.138 350.743 174.717 350.743C167.295 350.743 160.536 350.81 154.389 350.959C150.96 351.042 147.729 351.141 144.664 351.257C144.582 350.329 144.482 349.252 144.35 348.093C147.713 346.85 151.49 343.338 152.285 340.472C152.766 340.704 153.296 340.836 153.859 340.836C155.748 340.836 157.305 339.296 157.305 337.39C169.2 336.628 186.911 336.115 199.452 336.96H199.485C199.684 338.666 201.142 339.991 202.898 339.991C203.428 339.991 203.925 339.875 204.356 339.677C205.499 343.719 210.95 349.021 214.329 347.43H214.346C214.777 348.905 215.207 350.379 215.704 351.854Z" fill="#507096"/>
<path d="M91.4837 367.277H91.434C91.666 365.737 92.163 364.246 93.1073 362.837C94.5652 360.7 97.1 358.762 101.523 357.089C103.627 356.293 106.195 355.548 109.277 354.885C111.48 354.405 113.965 353.974 116.765 353.56C122.696 352.698 130.019 352.003 139.048 351.522C139.313 351.505 139.578 351.489 139.843 351.489C141.401 351.406 143.008 351.323 144.664 351.257C147.729 351.141 150.96 351.042 154.389 350.959C160.536 350.81 167.295 350.743 174.717 350.743C185.138 350.743 194.266 350.876 202.252 351.174C202.964 351.191 203.643 351.224 204.323 351.257H204.339C206.211 351.323 208.001 351.406 209.757 351.489C213.17 353.494 215.274 359.226 213.186 362.456C212.689 362.44 212.176 362.407 211.662 362.374H211.645C207.868 362.175 203.776 361.993 199.369 361.86C192.08 361.628 183.895 361.512 174.717 361.512C169.88 361.512 165.324 361.545 161.033 361.611H160.635C158.796 361.645 156.99 361.678 155.234 361.711C154.638 361.727 154.058 361.744 153.461 361.761C150.115 361.843 146.934 361.943 143.935 362.075C123.028 362.97 110.403 364.825 102.783 367.41C98.5579 368.835 95.874 370.491 94.151 372.314C94.1013 372.364 94.0516 372.413 94.0185 372.48C92.544 370.856 91.8316 369.116 91.4837 367.277Z" fill="#DBA77F"/>
<path d="M212.921 105.698L213.186 105.781C209.359 120.874 201.887 147.895 210.287 156.56C206.095 154.108 201.771 151.54 195.873 148.226C201.473 137.673 207.504 123.011 212.921 105.698Z" fill="#935D51"/>
<path d="M210.983 395.972L211.016 397.049C210.618 397.049 210.221 397.082 209.823 397.148C199.966 398.722 191.467 420.59 195.128 428.973C195.128 429.04 195.161 429.123 195.194 429.189C191.251 429.835 188.435 430.067 187.59 430.183C186.546 430.233 185.453 430.266 184.293 430.299C181.228 430.382 178.047 430.431 174.717 430.431C168.074 430.431 162.01 430.547 156.427 430.183C159.127 423.97 155.201 410.418 148.972 403.129C147.911 401.87 146.768 400.809 145.592 399.997C144.35 399.136 143.057 398.556 141.732 398.341C141.334 398.275 140.937 398.241 140.539 398.241L140.771 393.603C148.756 394 158.017 394.232 168.77 394.282C180.499 395.773 196.304 396.32 210.983 395.972Z" fill="#DBA77F"/>
<path d="M210.718 225.048C217.775 232.603 221.635 246.702 208.763 250.363C208.763 250.363 208.752 250.369 208.73 250.38C200.81 251.539 193.04 250.313 191.384 246.37C191.284 246.138 191.201 245.89 191.135 245.641L191.218 245.608C192.709 236.894 198.027 230.797 204.439 227.417C204.704 227.848 205.184 228.13 205.747 228.13C206.592 228.13 207.272 227.451 207.272 226.606C207.272 226.457 207.255 226.307 207.205 226.158C208.365 225.694 209.525 225.33 210.718 225.048Z" fill="#7F4D40"/>
<path d="M210.718 225.048C209.525 225.33 208.365 225.694 207.205 226.158C207.023 225.529 206.443 225.065 205.747 225.065C204.886 225.065 204.207 225.761 204.207 226.606C204.207 226.904 204.29 227.186 204.439 227.417C198.027 230.797 192.709 236.894 191.218 245.608L191.135 245.641C189.429 239.992 192.858 229.091 198.243 221.503H198.259C201.804 218.604 206.775 220.807 210.718 225.048Z" fill="#6B3D34"/>
<path d="M207.205 226.158C207.255 226.307 207.272 226.456 207.272 226.606C207.272 227.45 206.592 228.13 205.747 228.13C205.184 228.13 204.704 227.848 204.439 227.417C205.333 226.937 206.261 226.523 207.205 226.158Z" fill="white"/>
<path d="M207.172 317.559L207.139 317.708C206.311 320.74 205.449 331.012 205.863 334.773C205.267 333.779 204.157 333.099 202.898 333.099C201.937 333.099 201.059 333.497 200.446 334.143H200.429C200.065 330.813 200.578 320.26 201.539 316.797L201.573 316.598C203.378 316.913 205.3 317.195 207.172 317.559Z" fill="#507096"/>
<path d="M205.747 225.065C206.443 225.065 207.023 225.529 207.205 226.158C206.261 226.523 205.333 226.937 204.439 227.417C204.29 227.186 204.207 226.904 204.207 226.606C204.207 225.761 204.886 225.065 205.747 225.065Z" fill="white"/>
<path d="M205.863 334.773C206.162 335.286 206.344 335.899 206.344 336.545C206.344 337.937 205.532 339.13 204.356 339.66C203.925 339.875 203.428 339.991 202.898 339.991C201.142 339.991 199.684 338.666 199.485 336.96C199.469 336.827 199.452 336.694 199.452 336.545C199.452 335.601 199.816 334.756 200.446 334.143C201.059 333.497 201.937 333.099 202.898 333.099C204.157 333.099 205.267 333.779 205.863 334.773Z" fill="#FFCC99"/>
<path d="M192.345 534.805C202.699 535.898 207.288 536.213 214.992 534.407C212.176 543.469 208.647 549.665 204.207 550.908H204.19C201.374 550.858 198.491 550.03 195.227 548.174C193.687 547.28 192.875 541.995 192.345 534.805Z" fill="#B27967"/>
<path d="M201.573 316.598L201.539 316.797C200.579 320.26 200.065 330.813 200.429 334.127H200.446C199.816 334.756 199.452 335.601 199.452 336.545C199.452 336.694 199.469 336.827 199.485 336.96H199.452C186.911 336.115 169.2 336.628 157.305 337.39C157.305 336.446 156.907 335.601 156.311 334.971C156.676 331.675 156.162 321.105 155.201 317.642C158.813 316.996 161.762 316.151 162.772 314.312C163.799 312.44 164.131 310.253 164.048 308.017H164.064C175.347 309.027 179.455 308.812 190.191 306.758C190.605 308.497 191.235 310.303 192.046 312.374C193.04 314.892 197 315.82 201.573 316.598Z" fill="#B27967"/>
<path d="M199.203 200.761C199.319 201.622 198.077 202.749 196.354 203.759C193.537 203.693 190.671 203.66 187.789 203.66C188.451 201.987 190.108 199.932 192.56 199.187C195.492 198.292 199.038 199.419 199.203 200.761Z" fill="#CC8E87"/>
<path d="M192.179 261.148C194.531 263.584 193.852 266.897 191.301 270.144C189.462 272.464 186.679 274.766 183.349 276.655C183.796 274.717 180.996 265.191 179.373 262.391C184.127 259.326 188.236 257.089 192.179 261.148Z" fill="#EAD0D0"/>
<path d="M189.594 301.92C189.594 303.577 189.793 305.134 190.191 306.757C179.455 308.812 175.347 309.027 164.064 308.017H164.048C163.998 306.492 163.75 304.952 163.435 303.477C165.556 303.577 167.66 303.626 169.764 303.626C176.374 303.626 183.067 303.03 189.594 301.887V301.92Z" fill="#935D51"/>
<path d="M196.354 203.76C193.256 205.582 188.6 207.04 187.673 205.88C187.358 205.483 187.408 204.638 187.789 203.66C190.671 203.66 193.537 203.693 196.354 203.76Z" fill="#EAB5A7"/>
<path d="M179.373 262.391C180.996 265.19 183.796 274.717 183.349 276.655C179.29 278.974 174.436 280.697 169.598 281.178C170.062 279.273 169.018 271.188 167.394 268.388C171.884 267.427 175.811 264.677 179.373 262.391Z" fill="#EAD0D0"/>
<path d="M150.214 244.299C150.529 240.82 180.582 237.341 180.615 240.92C180.632 243.72 171.387 248.16 164.031 248.143C157.868 248.143 149.966 246.901 150.214 244.299Z" fill="#935D51"/>
<path d="M170.99 253.213C171.967 255.631 169.151 258.381 164.777 258.647C164.346 258.68 163.915 258.647 163.501 258.564C167.643 258.382 168.322 254.057 167.593 252.666V252.334C169.349 252.334 170.724 252.583 170.99 253.213Z" fill="#EAA0A0"/>
<path d="M167.394 268.388C169.018 271.188 170.062 279.273 169.598 281.178C165.108 281.625 159.89 281.095 155.549 279.886C156.013 277.981 156.294 270.906 154.671 268.14C157.67 268.239 161.149 268.819 164.694 268.703C165.622 268.67 166.516 268.554 167.394 268.388Z" fill="white"/>
<path d="M167.593 252.666C168.322 254.057 167.643 258.381 163.501 258.564C160.536 258.017 157.835 255.167 158.78 254.024C159.442 253.213 164.214 252.318 167.61 252.334V252.666H167.593Z" fill="#FCB9B9"/>
<path d="M168.438 483.993C167.129 484.374 166.251 486.313 165.655 489.295C163.7 499.069 164.926 520.093 164.694 534.589C161.712 534.904 159.194 535.169 156.941 535.335C159.31 519.695 158.233 497.031 158.15 486.197C158.15 483.993 165.903 484.109 168.438 483.993Z" fill="#487899"/>
<path d="M164.694 534.589C164.561 542.658 163.998 548.705 162.176 549.682C157.603 552.151 152.882 552.416 148.69 551.703C153.114 550.875 155.582 544.248 156.941 535.335C159.194 535.169 161.712 534.904 164.694 534.589Z" fill="#935D51"/>
<path d="M148.972 403.129C155.201 410.418 159.127 423.97 156.427 430.183C156.41 430.216 156.41 430.249 156.394 430.282C156.394 430.299 156.394 430.315 156.377 430.332C156.129 431.26 155.599 432.138 154.82 432.95H154.803C149.485 438.533 132.835 441.018 120.89 436.677C137.739 437.323 148.541 432.9 149.137 419C151.374 414.825 150.247 408.745 148.74 403.328L148.972 403.129Z" fill="#935D51"/>
<path d="M150.877 335.634C151.49 334.624 152.6 333.944 153.859 333.944C154.803 333.944 155.681 334.342 156.311 334.971C156.907 335.601 157.305 336.446 157.305 337.39C157.305 339.296 155.748 340.836 153.859 340.836C153.296 340.836 152.766 340.704 152.285 340.472C151.175 339.892 150.397 338.732 150.397 337.39C150.397 336.744 150.579 336.148 150.877 335.634Z" fill="#FFCC99"/>
<path d="M155.201 317.642C156.162 321.105 156.676 331.674 156.311 334.971C155.682 334.342 154.803 333.944 153.859 333.944C152.6 333.944 151.49 334.623 150.877 335.634C151.291 331.873 150.43 321.602 149.618 318.553C151.54 318.238 153.445 317.957 155.201 317.642Z" fill="#507096"/>
<path d="M154.671 268.14C156.294 270.906 156.013 277.981 155.549 279.886C149.038 278.08 144.499 274.7 147.315 270.674C148.889 268.421 151.507 268.007 154.671 268.14Z" fill="white"/>
<path d="M146.354 502.582C151.722 502.582 156.063 504.768 156.063 507.452C156.063 510.136 151.722 512.34 146.354 512.34C140.986 512.34 136.646 510.153 136.646 507.452C136.646 504.752 140.986 502.582 146.354 502.582Z" fill="#3D587F"/>
<path d="M133.531 532.071C144.25 535.384 148.955 535.931 156.941 535.335C155.582 544.248 153.114 550.875 148.69 551.703C146.006 551.256 143.521 550.394 141.434 549.467C138.12 547.992 136.563 545.275 133.531 532.071Z" fill="#B27967"/>
<path d="M150.397 337.39C150.397 338.732 151.175 339.892 152.285 340.472C151.49 343.338 147.713 346.85 144.35 348.093C143.935 344.564 143.372 340.323 143.14 337.506C142.759 340.389 141.699 344.398 140.672 348.292C140.39 349.368 140.108 350.445 139.843 351.489C139.578 351.489 139.313 351.506 139.048 351.522C130.019 352.003 122.696 352.698 116.765 353.56C118.67 349.07 132.289 326.82 138.286 322.281C141.086 320.16 145.377 319.249 149.618 318.537C150.43 321.602 151.291 331.873 150.877 335.634C150.579 336.148 150.397 336.744 150.397 337.39Z" fill="#B27967"/>
<path d="M148.74 403.328C150.247 408.745 151.374 414.825 149.137 419C149.353 413.964 148.243 407.701 145.592 399.998C146.768 400.809 147.911 401.87 148.972 403.129L148.74 403.328Z" fill="#935D51"/>
<path d="M149.137 419C148.541 432.9 137.739 437.323 120.89 436.677H120.857C119.615 436.213 118.422 435.7 117.295 435.087C115.208 433.96 113.352 432.552 111.861 430.862C108.979 427.996 108.134 423.092 108.117 419.315C109.658 420.276 111.381 421.187 113.303 422.015C113.352 422.048 113.402 422.082 113.452 422.082L113.866 422.396C121.371 412.754 128.23 404.123 134.376 400.329C136.513 398.987 138.568 398.241 140.539 398.241C140.937 398.241 141.334 398.275 141.732 398.341C143.057 398.556 144.35 399.136 145.592 399.981C148.243 407.701 149.353 413.964 149.137 419Z" fill="#B27967"/>
<path d="M147.083 204.687C147.365 206.493 147.017 208.166 146.255 208.697C144.847 209.691 140.97 207.603 138.452 205.168C141.268 205.002 144.151 204.836 147.083 204.687Z" fill="#EAB5A7"/>
<path d="M145.493 200.976C146.404 202.053 146.901 203.412 147.083 204.687C144.151 204.836 141.268 205.002 138.452 205.168C137.557 204.306 136.828 203.379 136.464 202.55C139.462 202.003 142.477 201.49 145.493 200.976Z" fill="#CC8E87"/>
<path d="M144.35 348.093C144.482 349.252 144.582 350.329 144.664 351.257C143.008 351.323 141.401 351.406 139.843 351.489C140.108 350.445 140.39 349.368 140.672 348.291C141.666 348.755 142.974 348.623 144.35 348.093Z" fill="#3D587F"/>
<path d="M143.14 337.506C143.372 340.323 143.935 344.564 144.35 348.093C142.974 348.623 141.666 348.755 140.672 348.292C141.699 344.398 142.759 340.389 143.14 337.506Z" fill="#935D51"/>
<path d="M142.643 150.562C142.643 150.562 142.593 150.595 142.56 150.612C136.265 154.787 132.487 157.388 128.727 159.89L128.627 159.74C133.597 155.698 123.906 128.826 121.735 79.456C121.238 68.1738 118.902 43.704 111.596 26.6233C117.56 38.6179 122.63 54.6881 124.933 74.022C128.926 107.537 135.354 133.631 142.643 150.562Z" fill="#935D51"/>
<path d="M132.786 223.077C138.916 230.631 143.157 241.93 141.235 247.447C139.711 238.451 134.028 232.388 127.285 229.207C127.252 228.412 126.59 227.782 125.761 227.782C125.38 227.782 125.032 227.914 124.767 228.163C123.475 227.699 122.166 227.335 120.857 227.086C124.486 222.795 129.141 220.492 132.769 223.077H132.786Z" fill="#6B3D34"/>
<path d="M140.771 393.603L140.539 398.242C138.568 398.242 136.513 398.987 134.376 400.312C128.23 404.123 121.371 412.754 113.866 422.397L113.452 422.082C113.452 422.082 113.352 422.049 113.303 422.015C111.381 421.187 109.658 420.276 108.117 419.315C94.3995 410.816 94.3996 398.126 94.3996 383.928L94.4824 383.845C99.32 388.6 111.281 392.161 140.771 393.603Z" fill="#DBA77F"/>
<path d="M136.464 202.55C136.828 203.378 137.557 204.306 138.452 205.168C128.213 205.797 118.687 206.559 110.569 207.338C119.002 205.698 127.666 204.091 136.464 202.533V202.55Z" fill="#935D51"/>
<path d="M132.769 223.077C129.141 220.492 124.486 222.795 120.857 227.086C115.953 226.109 110.983 226.506 106.957 228.246L106.709 228.064C110.171 220.691 116.865 214.71 122.431 215.671C125.993 216.284 129.638 219.184 132.769 223.077Z" fill="#EAD0D0"/>
<path d="M128.627 159.741L128.727 159.89C127.451 160.751 126.175 161.596 124.817 162.491C118.323 151.904 109.376 133.399 110.867 107.521C111.762 92.2956 111.679 78.8099 110.702 66.0698V65.9704C110.635 64.4794 110.519 63.0546 110.354 61.6961C109.691 54.4562 108.73 47.4483 107.521 40.457H107.504C106.676 32.0077 96.8515 6.36174 83.6806 3.42936C84.9894 2.73353 86.2651 2.33592 87.491 2.28622C94.2007 1.98801 103.661 10.7023 111.563 26.5571C111.563 26.5737 111.58 26.5903 111.596 26.6234C118.902 43.7041 121.238 68.1738 121.735 79.4561C123.906 128.826 133.597 155.698 128.627 159.741Z" fill="#B27967"/>
<path d="M141.235 247.447C139.827 251.49 132.14 253.229 124.171 252.566C124.171 252.566 124.16 252.561 124.138 252.55C110.867 249.684 114.114 235.005 120.857 227.086C122.166 227.335 123.475 227.699 124.767 228.163C124.436 228.428 124.237 228.842 124.237 229.306C124.237 230.151 124.916 230.847 125.761 230.847C126.606 230.847 127.302 230.151 127.302 229.306C127.302 229.273 127.302 229.24 127.285 229.207C134.028 232.388 139.711 238.451 141.235 247.447Z" fill="#7F4D40"/>
<path d="M127.285 229.207C127.285 229.207 127.302 229.273 127.302 229.306C127.302 230.151 126.623 230.847 125.761 230.847C124.9 230.847 124.237 230.151 124.237 229.306C124.237 228.842 124.436 228.428 124.767 228.163C125.612 228.461 126.457 228.809 127.285 229.207Z" fill="white"/>
<path d="M125.761 227.782C126.59 227.782 127.252 228.412 127.285 229.207C126.457 228.809 125.612 228.461 124.767 228.163C125.032 227.915 125.38 227.782 125.761 227.782Z" fill="white"/>
<path d="M106.957 228.246C110.983 226.506 115.953 226.109 120.857 227.086C114.114 235.005 110.867 249.684 124.138 252.55C116.119 251.887 107.836 248.806 105.417 243.206C103.462 238.7 104.34 233.05 106.709 228.064L106.957 228.246Z" fill="white"/>
<path d="M107.869 260.85C112.955 260.85 117.063 263.037 117.063 265.721C117.063 268.404 112.955 270.608 107.869 270.608C102.783 270.608 98.6739 268.421 98.6739 265.721C98.6739 263.02 102.799 260.85 107.869 260.85Z" fill="#E08F82"/>
<path d="M124.817 162.491C121.868 164.413 118.488 166.55 113.684 169.499C113.601 169.399 113.501 169.3 113.386 169.184C115.572 164.843 110.056 146.52 108.548 141.202C103.445 123.293 111.779 88.2367 110.702 66.0698C111.679 78.81 111.762 92.2956 110.867 107.521C109.376 133.399 118.323 151.904 124.817 162.491Z" fill="#EAA0A0"/>
<path d="M108.548 141.202C110.056 146.52 115.572 164.843 113.386 169.184C101.424 156.477 77.6336 136.795 65.4236 106.113C48.3594 63.1872 68.0909 11.6965 83.6806 3.42944C96.8515 6.36183 106.676 32.0078 107.504 40.4571H107.521C108.73 47.4484 109.691 54.4563 110.354 61.6962C110.486 63.1209 110.602 64.5457 110.702 65.9705V66.0699C111.779 88.2368 103.445 123.293 108.548 141.202Z" fill="#FCB9B9"/>
<path d="M3.29671 239.197C8.68104 231.294 46.9512 220.36 95.5261 210.337C91.8482 221.47 89.5288 233.034 87.9715 243.935C87.7561 245.476 87.5407 247 87.3585 248.524C87.0769 250.827 86.9775 253.047 87.0603 255.184H87.0272C42.8922 253.859 3.29671 248.971 2.63402 241.234C2.58432 240.588 2.79969 239.909 3.29671 239.197Z" fill="#BF7E67"/>
<path d="M234.773 433.596C235.85 440.107 234.724 450.908 234.011 457.751C229.869 497.081 224.402 544.413 216.583 547.843C208.68 551.322 203.113 552.73 195.393 548.34C189.992 545.242 193.455 487.837 187.192 484.589C185.685 483.811 183.945 483.33 182.123 483.098H182.106C177.053 482.369 171.42 483.314 168.604 484.159C167.295 484.54 166.417 486.478 165.821 489.46C162.789 504.652 167.444 547.097 162.342 549.848C154.837 553.906 146.934 552.018 141.6 549.632C135.171 546.766 135.354 539.211 118.472 459.523C117.113 453.095 116.351 442.592 117.461 435.054" stroke="#3F2A25" stroke-linecap="round" stroke-linejoin="round"/>
<path d="M156.56 430.05C162.143 430.415 168.256 430.597 174.9 430.597C178.23 430.597 181.41 430.547 184.475 430.465C188.468 430.349 192.229 430.166 195.774 429.901" stroke="#3F2A25" stroke-linecap="round" stroke-linejoin="round"/>
<path d="M258.431 372.91C258.431 384.822 258.431 394.481 174.883 394.481C91.3348 394.481 91.3348 384.822 91.3348 372.91" stroke="#3F2A25" stroke-linecap="round" stroke-linejoin="round"/>
<path d="M95.7085 210.502C91.517 223.209 89.0816 236.48 87.5409 248.69C82.9187 285.386 127.882 303.792 169.946 303.792C212.01 303.792 256.543 279.505 251.771 245.658C251.423 243.223 251.042 240.754 250.595 238.252C247.646 221.536 242.411 203.793 233.58 188.733" stroke="#3F2A25" stroke-linecap="round" stroke-linejoin="round"/>
<path d="M196.056 148.392C204.986 131.543 215.042 104.191 221.95 72.3487C231.559 28.0978 254.339 2.84942 266.036 4.48957C281.725 6.70957 300.976 65.3739 278.13 109.956C264.097 137.342 240.704 154.323 226.92 165.821C226.92 165.837 226.871 165.854 226.854 165.887" stroke="#3F2A25" stroke-linecap="round" stroke-linejoin="round"/>
<path d="M214.578 159.111C215.009 158.515 215.456 157.869 215.903 157.222C223.143 146.52 231.924 129.489 232.752 107.04C233.713 81.2786 236.96 60.6856 242.477 40.5896" stroke="#3F2A25" stroke-linecap="round" stroke-linejoin="round"/>
<path d="M142.826 150.728C135.536 133.796 129.108 107.703 125.115 74.1877C119.747 29.241 99.4693 1.92176 87.6734 2.45191C71.8518 3.1643 47.1004 59.7411 65.606 106.278C77.816 136.961 101.606 156.643 113.568 169.35C113.684 169.465 113.783 169.565 113.866 169.664" stroke="#3F2A25" stroke-linecap="round" stroke-linejoin="round"/>
<path d="M107.703 40.6226C111.265 61.1493 112.557 81.9576 111.05 107.686C109.559 133.564 118.505 152.07 124.999 162.656" stroke="#3F2A25" stroke-linecap="round" stroke-linejoin="round"/>
<path d="M191.55 246.519C188.12 238.352 197.928 216.085 208.282 213.6C217.51 211.38 231.129 228.56 227.02 239.992C222.911 251.423 194.863 254.438 191.55 246.519Z" stroke="#3F2A25" stroke-linecap="round" stroke-linejoin="round"/>
<path d="M198.425 221.669C208.299 213.617 229.074 244.83 208.912 250.545" stroke="#3F2A25" stroke-linecap="round" stroke-linejoin="round"/>
<path d="M141.401 247.613C144.3 239.23 133.084 217.643 122.597 215.82C113.253 214.197 100.762 232.205 105.583 243.355C110.404 254.505 138.601 255.714 141.401 247.596V247.613Z" stroke="#3F2A25" stroke-linecap="round" stroke-linejoin="round"/>
<path d="M132.968 223.242C122.597 215.837 103.86 248.325 124.353 252.732" stroke="#3F2A25" stroke-linecap="round" stroke-linejoin="round"/>
<path d="M145.675 201.142C147.862 203.743 147.729 207.951 146.437 208.862C144.532 210.204 138.054 205.897 136.646 202.716" stroke="#3F2A25" stroke-linecap="round" stroke-linejoin="round"/>
<path d="M187.855 206.046C186.96 204.919 188.882 200.529 192.742 199.353C195.675 198.458 199.22 199.585 199.386 200.927C199.701 203.345 189.296 207.852 187.855 206.046Z" stroke="#3F2A25" stroke-linecap="round" stroke-linejoin="round"/>
<path d="M164.943 258.812C169.316 258.547 172.116 255.797 171.155 253.378C170.426 251.539 159.939 252.964 158.945 254.19C157.868 255.499 161.563 259.028 164.943 258.812Z" stroke="#3F2A25" stroke-linecap="round" stroke-linejoin="round"/>
<path d="M164.86 268.869C165.357 265.191 165.423 260.187 165.042 258.829" stroke="#3F2A25" stroke-linecap="round" stroke-linejoin="round"/>
<path d="M88.1539 244.101C67.3455 235.701 39.9269 234.359 21.0734 239.015" stroke="#3F2A25" stroke-linecap="round" stroke-linejoin="round"/>
<path d="M34.7745 269.399C53.3297 262.855 72.1334 259.657 87.8888 260.949" stroke="#3F2A25" stroke-linecap="round" stroke-linejoin="round"/>
<path d="M251.97 242.112C272.778 233.713 299.286 232.437 318.123 237.093" stroke="#3F2A25" stroke-linecap="round" stroke-linejoin="round"/>
<path d="M304.438 267.477C285.883 260.933 267.079 257.735 251.324 259.028" stroke="#3F2A25" stroke-linecap="round" stroke-linejoin="round"/>
<path d="M163.617 303.643C164.429 307.304 164.678 311.347 162.955 314.478C160.37 319.183 145.145 317.377 138.468 322.43C132.471 326.97 118.853 349.219 116.948 353.709" stroke="#3F2A25" stroke-linecap="round" stroke-linejoin="round"/>
<path d="M182.139 483.098H182.123" stroke="#3F2A25" stroke-linecap="round" stroke-linejoin="round"/>
<path d="M189.777 302.086C189.76 305.515 190.655 308.547 192.229 312.54C194.333 317.891 209.674 316.019 216.102 320.923C222.746 326.009 234.094 349.501 235.237 354.09" stroke="#3F2A25" stroke-linecap="round" stroke-linejoin="round"/>
<path d="M112.077 425.064C112.607 424.401 113.121 423.722 113.634 423.076C121.305 413.218 128.296 404.355 134.559 400.478C137.143 398.871 139.595 398.109 141.914 398.49C151.772 400.064 160.271 421.933 156.609 430.332C156.593 430.365 156.593 430.415 156.576 430.448C156.576 430.448 156.576 430.481 156.56 430.498C154.423 438.5 130.947 442.509 117.478 435.253C115.39 434.126 113.535 432.718 112.044 431.011" stroke="#3F2A25" stroke-linecap="round" stroke-linejoin="round"/>
<path d="M112.077 424.335C112.077 424.335 112.06 424.368 112.044 424.384" stroke="#3F2A25" stroke-linecap="round" stroke-linejoin="round"/>
<path d="M148.906 403.477C150.728 410.004 151.971 417.476 147.514 421.452" stroke="#3F2A25" stroke-linecap="round" stroke-linejoin="round"/>
<path d="M134.559 401.058C135.453 409.358 134.757 414.544 131.775 419.746" stroke="#3F2A25" stroke-linecap="round" stroke-linejoin="round"/>
<path d="M94.5819 384.093C94.5819 398.291 94.5819 410.982 108.3 419.481C109.84 420.441 111.563 421.353 113.485 422.181C113.535 422.214 113.584 422.247 113.634 422.247" stroke="#3F2A25" stroke-linecap="round" stroke-linejoin="round"/>
<path d="M238.418 421.187C238.418 421.187 238.517 421.137 238.567 421.121C240.456 420.16 242.129 419.133 243.62 418.039C255.201 409.59 255.201 397.512 255.201 384.093" stroke="#3F2A25" stroke-linecap="round" stroke-linejoin="round"/>
<path d="M91.6495 367.426C91.9975 369.282 92.7264 371.022 94.1843 372.629C94.2175 372.678 94.2672 372.728 94.3169 372.778C98.7403 377.45 109.691 381.012 136.795 382.619C143.256 383.016 150.629 383.265 159.045 383.414C163.949 383.497 169.217 383.546 174.866 383.546C180.516 383.546 185.834 383.497 190.771 383.414C194.101 383.364 197.265 383.281 200.28 383.182C202.865 383.099 205.317 383 207.686 382.9C238.667 381.475 250.727 377.748 255.416 372.761C255.466 372.711 255.515 372.662 255.549 372.612C257.04 371.005 257.735 369.232 258.083 367.393" stroke="#3F2A25" stroke-linecap="round" stroke-linejoin="round"/>
<path d="M258.431 372.463C258.431 366.317 258.431 360.75 246.9 356.824C242.56 355.349 236.612 354.09 228.395 353.146C225.81 352.831 223.011 352.566 219.962 352.317C218.322 352.185 216.599 352.052 214.793 351.936C211.612 351.738 208.2 351.555 204.522 351.406C203.842 351.39 203.147 351.356 202.451 351.323C194.465 351.042 185.337 350.893 174.916 350.893C167.494 350.893 160.735 350.975 154.588 351.125C148.989 351.257 143.886 351.439 139.247 351.688C125.993 352.4 116.401 353.543 109.476 355.051C106.394 355.714 103.843 356.459 101.722 357.254C97.299 358.928 94.7642 360.866 93.3228 363.003C91.8484 365.173 91.4839 367.559 91.4176 370.061C91.401 370.624 91.3845 371.204 91.3845 371.784V372.463" stroke="#3F2A25" stroke-linecap="round" stroke-linejoin="round"/>
<path d="M94.1843 372.629C94.1843 372.629 94.2672 372.513 94.3169 372.463C96.0233 370.641 98.7237 369 102.932 367.576C110.553 364.991 123.177 363.119 144.085 362.241C147.083 362.108 150.264 362.009 153.627 361.926C154.207 361.926 154.787 361.893 155.383 361.877C157.14 361.843 158.945 361.81 160.784 361.777C160.917 361.777 161.033 361.777 161.165 361.777C165.456 361.711 170.029 361.678 174.866 361.678C184.045 361.678 192.229 361.794 199.502 362.026C203.909 362.158 208.001 362.34 211.795 362.539C230.814 363.6 242.079 365.621 248.756 368.288C251.871 369.547 253.975 370.939 255.399 372.446C255.449 372.496 255.499 372.562 255.532 372.612" stroke="#3F2A25" stroke-linecap="round" stroke-linejoin="round"/>
<path d="M108.3 419.48C108.3 423.258 109.161 427.731 112.044 430.597" stroke="#3F2A25" stroke-linecap="round" stroke-linejoin="round"/>
<path d="M239.661 422.844C239.661 422.844 239.76 422.993 239.826 423.076" stroke="#3F2A25" stroke-linecap="round" stroke-linejoin="round"/>
<path d="M239.859 423.92C239.859 423.92 239.843 423.92 239.826 423.871C239.346 423.274 238.882 422.678 238.418 422.082C227.517 408.082 218.024 396.038 210.005 397.314C200.148 398.888 191.649 420.756 195.31 429.156C195.41 429.586 195.559 429.967 195.774 430.365C200.214 438.831 229.223 441.995 239.859 429.835" stroke="#3F2A25" stroke-linecap="round" stroke-linejoin="round"/>
<path d="M202.981 402.367C201.159 408.894 199.916 416.366 204.373 420.342" stroke="#3F2A25" stroke-linecap="round" stroke-linejoin="round"/>
<path d="M217.345 399.948C216.45 408.248 217.146 413.417 220.128 418.619" stroke="#3F2A25" stroke-linecap="round" stroke-linejoin="round"/>
<path d="M243.62 418.039C243.62 421.85 242.792 426.422 239.859 429.338" stroke="#3F2A25" stroke-linecap="round" stroke-linejoin="round"/>
<path d="M140.026 351.655C141.235 346.867 142.826 341.366 143.323 337.672" stroke="#3F2A25" stroke-linecap="round" stroke-linejoin="round"/>
<path d="M215.887 352.019C214.396 347.563 213.369 343.106 211.563 338.649" stroke="#3F2A25" stroke-linecap="round" stroke-linejoin="round"/>
<path d="M192.361 261.314C184.89 253.627 176.805 268.504 164.876 268.868C157.603 269.1 150.562 266.433 147.497 270.84C142.809 277.55 158.548 282.47 169.78 281.36C184.078 279.952 198.491 267.642 192.361 261.33V261.314Z" stroke="#3F2A25" stroke-linecap="round" stroke-linejoin="round"/>
<path d="M167.56 268.537C169.184 271.32 170.228 279.438 169.78 281.344" stroke="#3F2A25" stroke-linecap="round" stroke-linejoin="round"/>
<path d="M179.538 262.54C181.162 265.323 183.962 274.932 183.514 276.837" stroke="#3F2A25" stroke-linecap="round" stroke-linejoin="round"/>
<path d="M154.837 268.289C156.46 271.072 156.179 278.146 155.731 280.051" stroke="#3F2A25" stroke-linecap="round" stroke-linejoin="round"/>
<path d="M191.467 270.31C216.003 268.686 255.234 281.012 283.265 300.313" stroke="#3F2A25" stroke-linecap="round" stroke-linejoin="round"/>
<path d="M253.063 284.044C251.755 288.948 253.826 295.061 254.521 295.111C255.764 295.21 256.89 289.561 258.199 289.71C259.558 289.859 259.276 295.989 261.231 296.403C262.772 296.735 264.047 293.123 265.555 293.371C268.123 293.802 267.891 304.968 269.233 305.035C270.326 305.101 270.89 297.629 272.696 297.464C275.23 297.248 277.599 311.894 280.482 311.728C282.454 311.612 280.648 304.554 282.801 304.322C285.999 303.974 290.108 318.769 294.1 318.023C296.734 317.543 287.755 305.366 289.544 301.572C290.406 299.75 299.915 298.607 299.915 297.679C299.915 296.254 282.023 295.575 281.973 294.001C281.94 292.792 293.487 292.212 292.56 290.969C290.969 288.832 272.298 291.085 272.033 289.031C271.834 287.54 283.265 285.916 281.973 284.276C279.173 280.714 262.573 286.579 261.877 284.061C261.579 282.984 265.157 282.039 264.478 280.598C264.081 279.77 254.19 280.051 251.49 283.381" stroke="#3F2A25" stroke-linecap="round" stroke-linejoin="round"/>
<path d="M154.025 341.002C155.928 341.002 157.471 339.459 157.471 337.556C157.471 335.653 155.928 334.11 154.025 334.11C152.122 334.11 150.579 335.653 150.579 337.556C150.579 339.459 152.122 341.002 154.025 341.002Z" stroke="#3F2A25" stroke-linecap="round" stroke-linejoin="round"/>
<path d="M149.784 318.719C150.612 321.767 151.457 332.089 151.043 335.833" stroke="#3F2A25" stroke-linecap="round" stroke-linejoin="round"/>
<path d="M155.383 317.808C156.344 321.254 156.858 331.824 156.477 335.137" stroke="#3F2A25" stroke-linecap="round" stroke-linejoin="round"/>
<path d="M203.064 340.157C204.967 340.157 206.51 338.614 206.51 336.711C206.51 334.808 204.967 333.265 203.064 333.265C201.161 333.265 199.618 334.808 199.618 336.711C199.618 338.614 201.161 340.157 203.064 340.157Z" stroke="#3F2A25" stroke-linecap="round" stroke-linejoin="round"/>
<path d="M207.305 317.857C206.477 320.906 205.632 331.227 206.046 334.971" stroke="#3F2A25" stroke-linecap="round" stroke-linejoin="round"/>
<path d="M201.705 316.963C200.744 320.409 200.231 330.979 200.612 334.292" stroke="#3F2A25" stroke-linecap="round" stroke-linejoin="round"/>
<path d="M157.471 337.556C169.366 336.794 187.076 336.28 199.618 337.125" stroke="#3F2A25" stroke-linecap="round" stroke-linejoin="round"/>
<path d="M204.522 339.826C205.648 343.868 211.115 349.186 214.495 347.612" stroke="#3F2A25" stroke-linecap="round" stroke-linejoin="round"/>
<path d="M152.468 340.637C151.341 344.68 144.234 350.048 140.854 348.474" stroke="#3F2A25" stroke-linecap="round" stroke-linejoin="round"/>
<path d="M133.697 532.22C147.448 536.478 151.308 536.163 164.876 534.738" stroke="#3F2A25" stroke-linecap="round" stroke-linejoin="round"/>
<path d="M223.541 532.22C209.79 536.478 206.096 536.395 192.51 534.97" stroke="#3F2A25" stroke-linecap="round" stroke-linejoin="round"/>
<path d="M87.2096 255.35C43.0746 254.024 3.46254 249.137 2.81642 241.417C0.927761 218.885 327.069 164.694 330.184 192.146C331.824 206.526 285.916 228.146 250.595 238.269" stroke="#3F2A25" stroke-linecap="round" stroke-linejoin="round"/>
<path d="M3.4294 239.412C17.379 208.15 285.055 151.44 329.306 190.174" stroke="#3F2A25" stroke-linecap="round" stroke-linejoin="round"/>
<path d="M236.198 176.788C233.464 172.762 230.35 169.101 226.92 165.821" stroke="#3F2A25" stroke-linecap="round" stroke-linejoin="round"/>
<path d="M196.056 148.375C179.141 143.538 160.254 144.151 142.826 150.728C142.792 150.744 142.776 150.761 142.743 150.778" stroke="#3F2A25" stroke-linecap="round" stroke-linejoin="round"/>
<path d="M92.2791 201.291C97.6137 188.319 104.953 177.716 113.568 169.349" stroke="#3F2A25" stroke-linecap="round" stroke-linejoin="round"/>
<path d="M113.85 169.664C127.385 161.347 129.688 159.442 142.826 150.744" stroke="#3F2A25" stroke-linecap="round" stroke-linejoin="round"/>
<path d="M196.039 148.392C208.813 155.582 214.247 159.243 226.838 165.887" stroke="#3F2A25" stroke-linecap="round" stroke-linejoin="round"/>
</svg>
