<svg width="373" height="584" viewBox="0 0 373 584" fill="none" xmlns="http://www.w3.org/2000/svg">
<path d="M241.886 216.063C245.036 222.4 247.639 229.266 249.628 236.628C251.087 241.988 253.192 245.412 255.414 248.506C259.144 253.717 263.189 258.068 265.029 269.318C268.726 292.017 228.326 314.649 197.541 323.169" stroke="#3F2A25" stroke-width="2" stroke-linecap="round" stroke-linejoin="round"/>
<path d="M88.6414 257.49C88.8569 259.723 89.1553 261.99 89.5366 264.289C91.0783 273.719 93.1339 282.14 95.9024 289.502C98.9859 297.708 102.948 304.623 108.071 310.232C119.957 323.252 138.093 329.224 165.894 327.818" stroke="#3F2A25" stroke-width="2" stroke-linecap="round" stroke-linejoin="round"/>
<path d="M152.25 163.355C150.924 140.044 137.098 103.234 127.069 61.9406C121.25 37.9519 130.832 3.06079 145.934 2.58101C166.176 1.9358 210.123 50.9223 212.262 94.9953C213.77 126.313 203.824 148.399 199.132 164.066" stroke="#3F2A25" stroke-width="2" stroke-linecap="round" stroke-linejoin="round"/>
<path d="M87.4145 212.391C70.041 199.371 42.2235 182.744 24.9992 161.22C-2.61938 126.743 -2.10547 60.9809 13.5108 48.1097C25.1484 38.5143 55.4692 58.367 66.9907 80.1884C83.4856 111.423 101.373 151.575 116.591 176.59" stroke="#3F2A25" stroke-width="2" stroke-linecap="round" stroke-linejoin="round"/>
<path d="M255.43 248.506C270.002 231.466 292.896 218.098 311.778 213.516" stroke="#3F2A25" stroke-width="2" stroke-linecap="round" stroke-linejoin="round"/>
<path d="M313.685 246.752C294.206 249.532 277.446 254.909 264.067 263.346" stroke="#3F2A25" stroke-width="2" stroke-linecap="round" stroke-linejoin="round"/>
<path d="M95.9023 289.502C80.1203 290.577 64.4709 294.796 52.8333 300.818" stroke="#3F2A25" stroke-width="2" stroke-linecap="round" stroke-linejoin="round"/>
<path d="M73.2903 327.106C85.0771 319.48 96.6981 313.755 108.07 310.231" stroke="#3F2A25" stroke-width="2" stroke-linecap="round" stroke-linejoin="round"/>
<path d="M165.894 327.818C166.739 333.013 166.606 336.206 165.28 339.911C162.943 346.446 148.719 343.568 145.171 348.531C132.97 365.588 88.5251 405.078 95.0071 424.5C102.086 445.693 131.428 484.803 139.552 495.275C141.359 497.591 143.447 499.246 145.636 500.404" stroke="#3F2A25" stroke-width="2" stroke-linecap="round" stroke-linejoin="round"/>
<path d="M215.179 515.227C221.015 537.776 230.464 566.646 235.769 569.822C243.494 574.454 257.768 573.032 262.161 568.647C265.808 564.975 275.423 536.188 261.282 449.101C260.155 442.169 257.569 432.938 254.087 422.73C247.622 403.804 238.123 381.552 229.337 364.628" stroke="#3F2A25" stroke-width="2" stroke-linecap="round" stroke-linejoin="round"/>
<path d="M197.541 323.169C197.939 326.296 198.602 332.45 202.696 335.263C203.956 336.139 205.647 337.033 207.405 337.943" stroke="#3F2A25" stroke-width="2" stroke-linecap="round" stroke-linejoin="round"/>
<path d="M145.636 500.387C147.559 533.922 159.014 578.359 163.125 579.434C173.569 582.18 186.036 582.23 190.578 578.574C194.623 575.298 194.49 535.129 203.99 520.736C205.548 518.37 210.04 516.633 215.18 515.227" stroke="#3F2A25" stroke-width="2" stroke-linecap="round" stroke-linejoin="round"/>
<path d="M229.337 364.628C277.081 350.913 294.156 326.875 312.325 319.628C319.984 316.568 341.95 309.487 352.543 303.664C354.35 302.671 371.823 285.184 369.403 270.857C367.247 258.069 346.028 252.923 335.02 254.677C311.994 258.317 292.051 273.818 284.209 280.138C272.936 289.204 249.28 335.908 234.476 334.353C226.685 333.542 226.966 332.384 218.694 334.402C214.168 335.511 209.659 337.082 207.405 337.943" stroke="#3F2A25" stroke-width="2" stroke-linecap="round" stroke-linejoin="round"/>
<path d="M199.132 164.066C217.417 151.873 233.697 144.048 237.725 149.044" stroke="#3F2A25" stroke-width="2" stroke-linecap="round" stroke-linejoin="round"/>
<path d="M237.725 149.044C252.148 165.109 265.261 191.546 263.553 199.206C262.061 205.972 245.765 214.955 241.886 216.064" stroke="#3F2A25" stroke-width="2" stroke-linecap="round" stroke-linejoin="round"/>
<path d="M87.4146 212.391C80.5348 228.703 79.6727 245.413 84.414 256.398C84.8782 257.473 86.337 257.854 88.6413 257.49" stroke="#3F2A25" stroke-width="2" stroke-linecap="round" stroke-linejoin="round"/>
<path d="M116.575 176.59C126.339 169.972 138.192 165.174 152.234 163.354" stroke="#3F2A25" stroke-width="2" stroke-linecap="round" stroke-linejoin="round"/>
<path d="M369.635 275.705C369.635 275.705 369.552 275.754 369.519 275.787" stroke="#3F2A25" stroke-width="2" stroke-linecap="round" stroke-linejoin="round"/>
<path d="M368.706 275.125C367.281 288.245 353.339 302.109 351.731 302.985C341.138 308.825 319.189 315.906 311.513 318.95C295.98 325.138 281.242 343.634 247.456 357.431C238.322 349.341 236.598 345.023 239.052 332.467C253.69 325.088 273.417 287.5 283.414 279.476C291.255 273.157 311.198 257.655 334.225 253.999C341.801 252.808 354.234 254.876 361.926 260.451C365.407 262.966 367.927 266.208 368.607 270.195C368.872 271.8 368.889 273.454 368.706 275.125Z" fill="#BC7171"/>
<path d="M212.08 273.653C215.312 272.644 217.517 268.044 216.042 267.201C214.682 266.407 204.371 268.806 204.338 270.774C204.288 273.372 207.885 274.943 212.08 273.653ZM200.624 288.377C203.078 292.711 206.609 299.494 212.643 298.518C217.268 297.757 224.844 288.956 222.64 279.493C221.877 279.625 221.065 279.724 220.203 279.84C219.042 280.006 217.799 280.221 216.522 280.651C216.257 280.734 215.975 280.866 215.677 281.015C215.279 281.18 214.865 281.412 214.4 281.677C212.328 282.851 209.643 284.655 206.609 286.16C204.736 287.103 202.713 287.914 200.624 288.377ZM107.275 309.57C102.152 303.961 98.1902 297.046 95.1068 288.84C92.3383 281.462 90.2826 273.057 88.7409 263.627C88.3596 261.328 88.0612 259.061 87.8457 256.828C96.1512 255.537 115.365 244.718 138.64 223.045C145.056 226.767 166.441 226.403 175.111 213.764C184.411 200.181 195.353 187.641 205.415 177.268H205.432C220.385 185.358 232.686 198.461 241.091 215.402C244.24 221.738 246.843 228.604 248.833 235.966C250.291 241.326 252.397 244.751 254.618 247.844C258.348 253.056 262.393 257.407 264.233 268.657C267.93 291.355 227.48 314.003 196.695 322.507C191.739 323.88 187.031 324.873 182.803 325.452C176.471 326.312 170.552 326.891 165.015 327.156C137.247 328.546 119.145 322.59 107.275 309.57ZM200.343 227.065C202.431 228.819 211.549 223.359 211.002 220.299C210.67 218.512 206.907 217.04 203.923 218.098C199.596 219.637 198.834 225.808 200.343 227.065ZM165.811 237.356C166.06 235.949 162.28 233.021 158.318 233.832C155.334 234.444 152.748 237.124 153.228 238.381C154.107 240.648 165.43 239.622 165.811 237.356Z" fill="#BC7171"/>
<path d="M236.913 148.383C251.352 164.447 264.465 190.884 262.758 198.544C261.249 205.31 244.953 214.294 241.091 215.402C232.686 198.461 220.385 185.358 205.432 177.285H205.415C222.424 159.765 236.913 148.383 236.913 148.383Z" fill="#BC7171"/>
<path d="M214.367 514.565C209.212 515.972 204.736 517.709 203.194 520.075C193.678 534.468 193.827 574.636 189.782 577.912C185.24 581.568 172.774 581.519 162.313 578.772C158.202 577.697 146.747 533.26 144.84 499.742C148.255 501.545 151.935 502.141 155.185 502.191C159.13 502.273 162.429 501.529 163.888 501.165C167.237 500.305 169.889 497.542 171.878 493.67C177.747 482.255 177.797 461.277 172.542 451.665C171.132 449.101 169.64 446.636 168.066 444.237C228.276 453.039 239.416 440.763 253.292 422.085C256.773 432.293 259.376 441.524 260.487 448.439C274.628 535.527 265.012 564.313 261.349 567.986C256.972 572.37 242.699 573.793 234.973 569.16C229.669 565.984 220.203 537.115 214.367 514.565Z" fill="#BC7171"/>
<path d="M149.979 393.249C143.066 383.852 138.375 379.849 118 378.194C128.362 366.216 139.237 355.049 144.376 347.869C147.923 342.906 162.131 345.785 164.485 339.25C185.19 356.671 201.884 350.202 201.884 334.601C203.144 335.478 204.835 336.371 206.592 337.281C210.272 339.151 214.301 341.037 215.627 342.691C219.34 347.373 223.833 354.9 228.541 363.967C237.311 380.891 246.826 403.142 253.292 422.069C239.416 440.763 228.276 453.039 168.065 444.238C159.959 431.879 150.145 421.787 143.713 414.773C144.094 407.874 146.63 400.462 149.979 393.249Z" fill="#BC7171"/>
<path d="M239.052 332.467C236.598 345.024 238.322 349.342 247.457 357.432C241.737 359.781 235.454 361.981 228.541 363.966C223.833 354.9 219.341 347.373 215.627 342.691C214.301 341.037 210.273 339.151 206.592 337.281C208.847 336.421 213.373 334.849 217.882 333.741C226.154 331.722 225.872 332.864 233.68 333.691C235.355 333.873 237.162 333.41 239.052 332.467Z" fill="#BC7171"/>
<path d="M138.64 223.045C137.861 222.582 137.314 222.069 137.015 221.523C133.832 215.501 161.136 190.04 188.125 170.502H188.141C190.313 168.913 192.501 167.375 194.656 165.902C195.883 165.042 197.11 164.215 198.336 163.404C216.622 151.195 232.885 143.386 236.913 148.382C236.913 148.382 222.424 159.765 205.415 177.268C195.352 187.641 184.411 200.181 175.111 213.764C166.441 226.404 145.056 226.768 138.64 223.045Z" fill="#BC7171"/>
<path d="M222.64 279.493C224.844 288.956 217.268 297.758 212.643 298.519C206.609 299.495 203.078 292.712 200.624 288.377C202.713 287.914 204.736 287.103 206.609 286.16C206.924 286.64 207.686 292.778 212.179 292.05C215.196 291.554 220.352 284.903 220.219 279.94V279.841C221.065 279.725 221.877 279.626 222.64 279.493Z" fill="#BC7171"/>
<path d="M220.219 279.94C220.352 284.903 215.196 291.553 212.179 292.05C214.052 289.949 215.063 283.596 214.4 281.693C214.865 281.412 215.279 281.18 215.677 281.015C215.975 280.866 216.257 280.734 216.522 280.651C217.799 280.221 219.042 280.006 220.203 279.84V279.94H220.219Z" fill="#BC7171"/>
<path d="M216.042 267.201C217.517 268.045 215.312 272.644 212.079 273.653C207.885 274.943 204.288 273.372 204.338 270.774C204.371 268.806 214.682 266.407 216.042 267.201Z" fill="#BC7171"/>
<path d="M214.4 281.693C215.064 283.596 214.052 289.949 212.179 292.05C207.686 292.778 206.924 286.64 206.609 286.16C209.643 284.655 212.328 282.851 214.4 281.677V281.693Z" fill="#BC7171"/>
<path d="M211.466 94.3337C212.975 125.651 203.028 147.737 198.337 163.404C197.11 164.215 195.883 165.042 194.656 165.903C178.46 161.849 164.087 161.055 151.455 162.693C150.128 139.383 136.302 102.573 126.273 61.2789C120.454 37.2903 130.036 2.39917 145.138 1.91939C165.38 1.27418 209.328 50.2607 211.466 94.3337Z" fill="#BC7171"/>
<path d="M211.002 220.299C211.549 223.36 202.431 228.819 200.342 227.065C198.834 225.808 199.596 219.637 203.923 218.099C206.907 217.04 210.67 218.512 211.002 220.299Z" fill="#BC7171"/>
<path d="M196.695 322.507C197.11 325.584 197.723 331.706 201.884 334.601C201.884 350.202 185.19 356.67 164.485 339.25C165.811 335.544 165.894 332.549 165.032 327.355V327.156C170.552 326.891 176.47 326.312 182.803 325.452C187.03 324.873 191.738 323.88 196.695 322.507Z" fill="#BC7171"/>
<path d="M103.81 231.466C124.864 227.479 131.86 212.441 129.937 194.97C125.61 190.867 120.852 184.233 115.796 175.928C125.56 169.311 137.413 164.513 151.455 162.693C164.087 161.055 178.46 161.849 194.656 165.903C192.501 167.375 190.313 168.914 188.141 170.502H188.125C161.136 190.04 133.832 215.501 137.015 221.523C137.314 222.069 137.861 222.582 138.64 223.045C115.365 244.718 96.1511 255.538 87.8457 256.828C85.5413 257.192 84.0825 256.811 83.6183 255.736C78.8771 244.751 79.7391 228.058 86.6189 211.746C93.1008 216.593 98.1073 220.961 100.577 224.882C100.594 224.915 100.611 224.931 100.611 224.948C101.638 227.115 102.699 229.282 103.81 231.466Z" fill="#BC7171"/>
<path d="M144.84 499.742C142.635 498.584 140.546 496.929 138.756 494.613C130.633 484.141 101.29 445.031 94.2114 423.838C90.4483 412.605 103.76 394.638 118.001 378.194C138.375 379.848 143.066 383.852 149.979 393.249C146.63 400.462 144.094 407.874 143.713 414.772C150.145 421.787 159.959 431.879 168.065 444.237C169.64 446.636 171.132 449.101 172.541 451.665C177.797 461.277 177.747 482.255 171.878 493.67C169.889 497.542 167.237 500.304 163.888 501.165C162.429 501.529 159.13 502.273 155.184 502.207C151.935 502.141 148.255 501.545 144.84 499.742Z" fill="#BC7171"/>
<path d="M158.318 233.832C162.28 233.021 166.06 235.949 165.811 237.356C165.43 239.622 154.107 240.648 153.228 238.381C152.748 237.124 155.334 234.444 158.318 233.832Z" fill="#BC7171"/>
<path d="M115.796 175.928C120.852 184.233 125.61 190.867 129.937 194.97C131.86 212.441 124.864 227.479 103.81 231.466C102.699 229.282 101.638 227.115 100.61 224.948C100.61 224.931 100.594 224.915 100.577 224.882C98.1072 220.961 93.1008 216.593 86.6188 211.746C69.2619 198.709 41.4278 182.082 24.1869 160.559C-3.41508 126.081 -2.90116 60.3193 12.6985 47.4481C24.3527 37.8527 54.6735 57.7054 66.195 79.5268C82.6733 110.762 100.561 150.914 115.796 175.928Z" fill="#BC7171"/>
<path d="M238.157 340.738C237.991 347.703 240.66 351.657 247.556 357.762C241.82 360.111 235.554 362.312 228.624 364.297C223.916 355.231 219.424 347.703 215.71 343.038C220.949 341.417 229.569 341.185 238.157 340.738Z" fill="#D84E4E"/>
<path d="M158.318 378.061C155.5 382.925 152.566 388.202 150.079 393.579C149.101 392.256 148.156 391.031 147.211 389.906C151.82 384.811 156.876 379.815 159.628 375.811C159.197 376.539 158.766 377.3 158.318 378.061Z" fill="#AA3D3D"/>
<path d="M150.079 393.579C152.566 388.202 155.5 382.925 158.318 378.061C155.284 389.592 148.471 408.915 148.471 420.132C146.78 418.329 145.222 416.658 143.812 415.119C144.194 408.204 146.73 400.792 150.079 393.579Z" fill="#AA3D3D"/>
<path d="M253.391 422.415H253.375C252.231 423.954 251.104 425.459 249.96 426.898C246.213 408.601 240.627 389.278 232.487 371.989C240.113 387.623 247.871 406.235 253.391 422.415Z" fill="#AA3D3D"/>
<path d="M239.151 332.797C238.554 335.891 238.19 338.471 238.157 340.738C229.569 341.185 220.949 341.416 215.71 343.038C214.401 341.367 210.372 339.497 206.692 337.628C208.946 336.751 213.472 335.179 217.981 334.071C226.254 332.052 225.972 333.21 233.763 334.021C235.454 334.203 237.261 333.74 239.151 332.78V332.797Z" fill="#AA3D3D"/>
<path d="M205.515 177.615C222.524 160.095 237.013 148.713 237.013 148.713C251.452 164.794 264.565 191.231 262.857 198.891C261.349 205.64 245.053 214.624 241.174 215.749C232.769 198.791 220.468 185.689 205.515 177.615Z" fill="#AA3D3D"/>
<path d="M119.244 174.108C128.329 168.599 139.088 164.645 151.538 163.023C164.17 161.385 178.543 162.179 194.739 166.233C192.584 167.722 190.413 169.26 188.224 170.832H188.208C186.964 171.742 185.721 172.652 184.478 173.578C167.071 167.573 145.503 166.332 119.244 174.108Z" fill="#EAD0D0"/>
<path d="M115.879 176.242C116.973 175.498 118.1 174.786 119.244 174.108C145.503 166.332 167.071 167.573 184.478 173.579C158.766 192.687 134.065 216.113 137.115 221.87C137.413 222.416 137.96 222.929 138.723 223.376C115.448 245.048 96.2341 255.868 87.9287 257.158C85.6244 257.522 84.1655 257.142 83.7013 256.066C78.9601 245.081 79.8221 228.372 86.7019 212.06C93.1838 216.924 98.2069 221.291 100.677 225.229C100.694 225.262 100.71 225.278 100.71 225.295C101.489 226.916 102.268 228.554 103.097 230.175C103.363 230.738 103.628 231.267 103.893 231.797C105.319 231.532 106.678 231.217 107.971 230.854L108.12 230.804C125.908 225.708 131.827 211.547 130.02 195.284C125.693 191.181 120.935 184.547 115.879 176.242Z" fill="white"/>
<path d="M138.723 223.375C137.96 222.929 137.413 222.416 137.115 221.87C134.065 216.113 158.766 192.686 184.478 173.578C185.721 172.652 186.964 171.742 188.208 170.832H188.224C190.413 169.26 192.584 167.722 194.739 166.233C195.983 165.389 197.209 164.545 198.42 163.734C216.705 151.542 232.984 143.733 237.013 148.713C237.013 148.713 222.524 160.095 205.515 177.615C204.238 178.938 202.929 180.311 201.619 181.718C192.667 191.23 183.317 202.265 175.211 214.111C166.524 226.767 145.122 227.114 138.723 223.375Z" fill="#D84E4E"/>
<path d="M159.628 375.811C156.876 379.815 151.82 384.811 147.211 389.907C141.508 383.107 135.59 379.964 118.1 378.524C128.478 366.547 139.32 355.396 144.459 348.216C148.023 343.253 162.23 346.115 164.568 339.58C185.273 357.001 201.984 350.532 201.984 334.948C203.244 335.825 204.935 336.718 206.692 337.628C210.372 339.497 214.401 341.367 215.71 343.038C219.424 347.703 223.916 355.231 228.624 364.297C229.868 366.712 231.144 369.243 232.421 371.857C232.421 371.907 232.47 371.94 232.487 371.99C240.627 389.278 246.213 408.601 249.96 426.899C237.328 442.98 223.402 452.641 168.165 444.584H168.149C161.832 434.923 154.439 426.634 148.471 420.132C148.471 408.916 155.284 389.592 158.318 378.061C158.766 377.3 159.197 376.539 159.628 375.811Z" fill="#D84E4E"/>
<path d="M212.279 292.38C207.786 293.108 207.023 286.971 206.708 286.491C209.742 284.985 212.428 283.182 214.5 282.024C215.163 283.926 214.152 290.279 212.279 292.38Z" fill="white"/>
<path d="M220.319 280.27C220.451 285.25 215.296 291.884 212.279 292.38C214.152 290.279 215.163 283.926 214.5 282.024C214.964 281.759 215.379 281.528 215.776 281.346C216.075 281.197 216.357 281.081 216.622 280.998C217.898 280.568 219.142 280.353 220.302 280.188V280.27H220.319Z" fill="#EAD0D0"/>
<path d="M222.739 279.84C224.944 289.286 217.368 298.088 212.743 298.849C206.692 299.841 203.177 293.042 200.724 288.707C202.813 288.244 204.835 287.433 206.708 286.49C207.023 286.97 207.786 293.108 212.279 292.38C215.296 291.884 220.451 285.25 220.319 280.27V280.187C221.164 280.055 221.977 279.972 222.739 279.823V279.84Z" fill="#472B28"/>
<path d="M211.947 267.796C213.588 269.285 212.958 271.8 210.521 274.348C207.09 274.844 204.387 273.372 204.437 271.105C204.454 269.864 208.582 268.458 211.947 267.796Z" fill="#FCB9B9"/>
<path d="M216.141 267.531C217.617 268.392 215.412 272.974 212.163 273.984C211.599 274.149 211.052 274.281 210.521 274.348C212.958 271.8 213.588 269.285 211.947 267.796C213.92 267.383 215.644 267.25 216.141 267.531Z" fill="#EAA0A0"/>
<path d="M76.1086 203.358C90.9458 201.124 77.667 165.985 76.1086 152.138H76.1252C83.0547 176.772 89.1222 200.628 100.677 225.229C98.2068 221.291 93.1838 216.924 86.7018 212.06C83.3366 209.545 79.59 206.881 75.5947 204.086L76.1086 203.358Z" fill="#EAA0A0"/>
<path d="M76.1087 152.137C77.667 165.985 90.9458 201.124 76.1087 203.357L75.5948 204.085C58.9673 192.405 38.1788 178.244 24.2866 160.889C-3.3154 126.412 -2.81806 60.6661 12.7982 47.7949C26.7401 51.9474 44.097 68.7726 50.4463 82.3551C62.8465 106.972 69.8423 129.853 76.1253 152.137H76.1087Z" fill="#FCB9B9"/>
<path d="M242.317 254.511C246.064 252.857 249.893 253.303 250.855 255.487C251.269 256.414 251.104 257.522 250.474 258.614H250.457C246.843 257.853 243.611 257.787 242.019 254.66C242.119 254.594 242.218 254.561 242.317 254.511Z" fill="#D17E75"/>
<path d="M144.31 293.175C144.658 296.384 140.696 299.428 135.457 299.991C130.235 300.537 125.71 298.386 125.361 295.176C125.03 291.967 128.992 288.906 134.231 288.36C139.453 287.798 143.978 289.949 144.31 293.175Z" fill="#E08F82"/>
<path d="M242.019 254.66C243.611 257.787 246.843 257.853 250.457 258.614H250.474C249.628 260.07 247.971 261.509 245.832 262.452C242.085 264.09 238.256 263.66 237.294 261.46C236.35 259.342 238.455 256.331 242.019 254.644V254.66Z" fill="#E08F82"/>
<path d="M211.102 220.646C211.649 223.69 202.531 229.149 200.442 227.396C198.933 226.138 199.696 219.984 204.023 218.445C207.007 217.37 210.77 218.842 211.102 220.646Z" fill="#EAB5A7"/>
<path d="M158.417 234.162C162.363 233.352 166.159 236.296 165.91 237.703C165.513 239.969 154.207 240.995 153.328 238.712C152.847 237.454 155.417 234.774 158.417 234.162Z" fill="#EAB5A7"/>
<path d="M267.881 517.162C268.063 522.556 268.079 527.42 267.997 531.837C266.488 532.482 264.814 532.995 263.007 533.309C255.447 534.633 248.683 532.102 247.888 527.651C247.092 523.184 252.579 518.486 260.139 517.146C262.924 516.666 265.593 516.699 267.881 517.162Z" fill="#824F46"/>
<path d="M198.27 532.978C197.21 537.048 196.347 541.499 195.635 545.982C193.944 546.627 192.021 547.074 189.965 547.223C187.13 547.438 184.461 547.074 182.24 546.296C182.472 541.068 182.986 536.105 184.196 532.151C185.605 531.705 187.13 531.407 188.755 531.291C192.419 531.01 195.784 531.688 198.27 532.978Z" fill="#824F46"/>
<path d="M166.408 332.797C177.084 337.628 194.706 335.692 197.707 328.032C198.387 330.613 199.613 333.293 201.984 334.948C201.984 350.532 185.274 357.001 164.568 339.58C165.397 337.297 165.728 335.278 165.662 332.813H166.408V332.797Z" fill="#B27967"/>
<path d="M197.707 328.015C194.706 335.691 177.084 337.627 166.408 332.796H165.662C165.645 331.324 165.463 329.67 165.132 327.684V327.486C170.635 327.205 176.554 326.642 182.886 325.782C187.13 325.203 191.838 324.194 196.795 322.837C196.961 324.177 197.193 326.063 197.707 328.015Z" fill="#935D51"/>
<path d="M167.253 491.47C168.712 492.628 170.287 493.505 171.961 494.001C169.989 497.889 167.336 500.652 163.988 501.512C163.291 501.677 162.181 501.942 160.788 502.157C164.385 500.205 166.391 496.201 167.253 491.47Z" fill="#935D51"/>
<path d="M184.196 532.151C182.986 536.105 182.472 541.068 182.24 546.296C178.825 545.105 176.487 542.888 176.288 540.224C176.023 536.816 179.339 533.656 184.196 532.151Z" fill="#935D51"/>
<path d="M195.634 545.982C193.231 560.987 192.319 576.274 189.882 578.243C187.694 580.013 183.682 580.906 178.924 581.055C183.301 578.127 181.577 561.12 182.24 546.296C184.461 547.074 187.13 547.438 189.965 547.223C192.021 547.074 193.944 546.627 195.634 545.982Z" fill="#935D51"/>
<path d="M207.471 517.311C205.548 518.221 204.056 519.23 203.277 520.405C201.188 523.565 199.563 527.982 198.27 532.978C195.784 531.688 192.418 531.009 188.755 531.291C187.13 531.406 185.605 531.704 184.196 532.151C185.008 529.454 186.119 527.221 187.677 525.666C189.799 523.532 202.382 519.164 207.471 517.311Z" fill="#935D51"/>
<path d="M267.88 517.162C265.593 516.699 262.924 516.666 260.139 517.145C252.579 518.486 247.092 523.184 247.888 527.651C248.683 532.101 255.447 534.632 263.007 533.309C264.814 532.995 266.488 532.482 267.996 531.836C267.499 556.106 263.52 566.231 261.448 568.316C257.072 572.716 242.798 574.123 235.073 569.507C229.752 566.331 220.302 537.461 214.467 514.912C219.689 513.473 225.624 512.381 229.884 511.355C240.643 508.658 255.464 503.348 256.21 497.177C257.354 487.912 256.508 458.977 249.96 426.898C251.104 425.459 252.231 423.954 253.375 422.415H253.391C256.873 432.623 259.475 441.854 260.586 448.77C265.261 477.523 267.333 499.923 267.88 517.162Z" fill="#935D51"/>
<path d="M150.079 393.579C146.73 400.793 144.194 408.204 143.812 415.12C140.281 411.265 137.762 408.337 137.115 406.467C137.115 405.044 137.563 403.489 138.325 401.868C140.066 398.146 143.497 393.993 147.211 389.907C148.156 391.032 149.101 392.256 150.079 393.579Z" fill="#935D51"/>
<path d="M143.812 415.119C145.221 416.658 146.78 418.329 148.471 420.132C154.439 426.634 161.832 434.922 168.148 444.584C169.723 446.983 171.232 449.448 172.625 452.012C177.896 461.608 177.83 482.569 171.961 494.001C170.287 493.504 168.712 492.628 167.253 491.469C169.077 481.51 165.778 468.407 161.501 464.801C153.842 458.349 133.866 480.881 131.661 464.586C130.053 452.707 146.912 451.086 150.079 440.415C152.665 431.663 130.401 411.513 138.325 401.868C137.563 403.489 137.115 405.044 137.115 406.467C137.761 408.336 140.281 411.265 143.812 415.119Z" fill="#935D51"/>
<path d="M362.009 260.781C364.794 262.783 366.966 265.265 368.077 268.209C368.358 268.954 368.574 269.715 368.706 270.526C368.972 272.13 368.988 273.785 368.806 275.456C367.38 288.592 353.438 302.455 351.83 303.332C349.228 304.755 345.962 306.26 342.364 307.766H342.331C328.19 310.496 309.225 303.266 304.335 291.967C302.445 287.599 303.141 280.651 305.379 273.752C297.986 279.062 291.686 285.663 286.05 291.636C263.355 315.724 263.073 339.15 242.268 340.506C240.908 340.606 239.532 340.672 238.156 340.738C238.19 338.471 238.554 335.891 239.151 332.797C253.806 325.385 273.517 287.831 283.497 279.807C291.355 273.487 311.298 257.985 334.324 254.346C341.9 253.138 354.317 255.206 362.009 260.781Z" fill="#935D51"/>
<path d="M248.352 234.344L243.926 235.602C240.146 222.73 226.967 197.236 201.619 181.718C202.929 180.312 204.238 178.939 205.515 177.615C220.468 185.689 232.769 198.791 241.174 215.732C244.042 221.523 246.462 227.727 248.352 234.344Z" fill="#935D51"/>
<path d="M244.904 243.079C245.335 242.021 245.02 239.357 243.926 235.602L248.352 234.344C248.551 234.989 248.733 235.635 248.915 236.296C250.374 241.657 252.48 245.081 254.701 248.175C258.431 253.386 262.476 257.737 264.316 268.987C267.118 286.143 244.688 303.266 220.286 314.284C251.021 296.599 258.547 263.098 252.695 259.193C251.933 258.928 251.203 258.763 250.474 258.614C251.104 257.522 251.27 256.414 250.855 255.487C249.894 253.304 246.064 252.857 242.318 254.511C242.218 254.561 242.119 254.594 242.019 254.644C241.82 254.28 241.654 253.916 241.522 253.469C240.196 249.217 243.014 247.397 244.854 243.195C244.854 243.162 244.887 243.113 244.904 243.079Z" fill="#935D51"/>
<path d="M211.549 94.6641C213.058 125.982 203.111 148.068 198.42 163.735C197.209 164.546 195.983 165.389 194.739 166.233C178.543 162.18 164.17 161.386 151.538 163.024C151.223 157.465 150.195 151.145 148.686 144.18L149.3 144.048C150.493 124.939 174.962 114.384 180.002 106.874C189.534 92.6788 189.385 45.8265 159.893 7.52734C181.543 21.2588 209.842 59.5083 211.549 94.6641Z" fill="#935D51"/>
<path d="M115.879 176.242C120.935 184.547 125.693 191.181 130.02 195.284C131.827 211.546 125.908 225.708 108.12 230.804L107.971 230.853C106.678 231.217 105.319 231.531 103.893 231.796C103.628 231.267 103.363 230.737 103.097 230.191C103.379 227.048 112.978 218.644 111.436 203.622C109.463 184.398 80.6677 112.084 73.4895 93.853C87.8624 122.342 102.832 154.817 115.879 176.242Z" fill="#935D51"/>
<path d="M159.893 7.52715C189.385 45.8263 189.534 92.6787 180.002 106.873C174.962 114.384 150.493 124.939 149.3 144.047L148.686 144.18C143.829 121.912 133.998 93.0591 126.356 61.6092C120.537 37.6205 130.119 2.72941 145.221 2.24964C149.316 2.11728 154.389 4.01984 159.893 7.52715Z" fill="#B27967"/>
<path d="M111.436 203.622C112.978 218.644 103.379 227.048 103.097 230.175C102.268 228.554 101.489 226.916 100.71 225.295C100.71 225.278 100.693 225.262 100.677 225.229C89.1222 200.628 83.0547 176.772 76.1252 152.138C69.8422 129.853 62.8464 106.973 50.4462 82.3554C44.0969 68.7729 26.74 51.9477 12.7981 47.7952C24.4523 38.1832 54.773 58.0359 66.2946 79.8739C68.6652 84.3738 71.069 89.0557 73.4893 93.8535C80.6675 112.085 109.463 184.398 111.436 203.622Z" fill="#B27967"/>
<path d="M304.335 291.967C309.225 303.266 328.19 310.496 342.331 307.766C331.307 312.399 317.382 316.981 311.613 319.297C296.079 325.485 281.342 343.964 247.556 357.762C240.66 351.657 237.991 347.703 238.156 340.738C239.532 340.672 240.908 340.606 242.268 340.507C263.073 339.15 263.355 315.724 286.05 291.636C291.686 285.664 297.986 279.063 305.379 273.752C303.141 280.651 302.445 287.599 304.335 291.967Z" fill="#B27967"/>
<path d="M249.96 426.899C256.508 458.978 257.354 487.913 256.21 497.177C255.464 503.348 240.643 508.659 229.884 511.356C225.624 512.381 219.689 513.473 214.467 514.896C211.914 515.591 209.527 516.368 207.571 517.262L207.471 517.311C202.382 519.164 189.799 523.532 187.677 525.666C186.119 527.221 185.008 529.455 184.196 532.151C179.339 533.657 176.023 536.817 176.288 540.225C176.487 542.888 178.825 545.105 182.24 546.296C181.577 561.12 183.301 578.127 178.924 581.055C173.802 581.237 167.834 580.526 162.413 579.103C158.301 578.028 146.846 533.574 144.923 500.073C148.338 501.892 152.035 502.488 155.284 502.538C157.356 502.587 159.246 502.389 160.788 502.157C162.181 501.942 163.291 501.677 163.988 501.512C167.336 500.652 169.989 497.889 171.961 494.001C177.83 482.569 177.896 461.608 172.625 452.013C171.232 449.448 169.723 446.983 168.149 444.584H168.165C223.402 452.641 237.328 442.98 249.96 426.899Z" fill="#B27967"/>
<path d="M155.284 502.538C152.035 502.488 148.338 501.892 144.923 500.073C142.718 498.914 140.63 497.26 138.839 494.944C130.716 484.488 101.39 445.362 94.2947 424.169C90.5481 412.936 103.86 394.969 118.1 378.524C135.59 379.964 141.508 383.107 147.211 389.907C143.498 393.993 140.066 398.146 138.325 401.868C130.401 411.513 152.665 431.663 150.079 440.415C146.913 451.086 130.053 452.707 131.661 464.586C133.866 480.882 153.842 458.349 161.501 464.801C165.778 468.408 169.077 481.51 167.253 491.47C166.391 496.201 164.386 500.205 160.788 502.157C159.246 502.389 157.357 502.587 155.284 502.538Z" fill="#B27967"/>
<path d="M200.724 288.707C203.177 293.042 206.692 299.841 212.743 298.849C217.368 298.088 224.944 289.286 222.739 279.84C221.977 279.972 221.164 280.055 220.302 280.187C219.142 280.353 217.898 280.568 216.622 280.998C216.357 281.081 216.075 281.196 215.777 281.345C215.379 281.527 214.964 281.759 214.5 282.024C212.428 283.182 209.742 284.985 206.708 286.49C204.835 287.433 202.813 288.244 200.724 288.707ZM204.437 271.105C204.388 273.371 207.09 274.843 210.521 274.347C211.052 274.281 211.599 274.149 212.163 273.983C215.412 272.974 217.617 268.391 216.141 267.531C215.644 267.25 213.92 267.382 211.947 267.796C208.582 268.457 204.454 269.864 204.437 271.105ZM107.374 309.917C102.235 304.308 98.2732 297.376 95.1898 289.17C92.4213 281.808 90.3656 273.388 88.8239 263.958C88.4426 261.658 88.1442 259.391 87.9287 257.158C96.2342 255.868 115.448 245.048 138.723 223.375C145.122 227.114 166.524 226.767 175.211 214.111C183.317 202.265 192.667 191.231 201.619 181.718C226.967 197.236 240.146 222.73 243.926 235.601C245.02 239.357 245.335 242.02 244.904 243.079C244.904 243.112 244.871 243.162 244.854 243.195C243.014 247.397 240.196 249.217 241.522 253.469C241.654 253.915 241.82 254.279 242.019 254.643C238.455 256.331 236.35 259.342 237.294 261.459C238.256 263.66 242.085 264.09 245.832 262.452C247.971 261.509 249.628 260.07 250.474 258.614C251.203 258.763 251.933 258.928 252.695 259.193C258.547 263.097 251.021 296.599 220.286 314.284C212.395 317.841 204.305 320.753 196.795 322.837C191.838 324.194 187.13 325.203 182.886 325.782C176.554 326.642 170.635 327.205 165.115 327.486C137.364 328.876 119.244 322.92 107.374 309.917ZM200.442 227.396C202.531 229.149 211.649 223.69 211.102 220.646C210.77 218.842 207.007 217.37 204.023 218.445C199.696 219.984 198.934 226.138 200.442 227.396ZM165.911 237.702C166.159 236.296 162.363 233.351 158.417 234.162C155.417 234.774 152.847 237.454 153.328 238.712C154.207 240.995 165.513 239.969 165.911 237.702ZM135.457 299.99C140.696 299.428 144.658 296.384 144.31 293.174C143.978 289.948 139.452 287.797 134.23 288.36C128.992 288.906 125.03 291.966 125.361 295.176C125.709 298.385 130.235 300.536 135.457 299.99Z" fill="#B27967"/>
<path d="M188.357 170.981H188.34" stroke="#3F2A25" stroke-linecap="round" stroke-linejoin="round"/>
<path d="M205.647 177.764C220.601 185.838 232.901 198.94 241.306 215.881C244.456 222.218 247.059 229.083 249.048 236.445C250.507 241.806 252.612 245.23 254.834 248.324C258.564 253.535 262.609 257.886 264.449 269.136C268.742 295.491 213.538 321.779 183.019 325.931C131.246 332.996 106.96 320.34 95.3223 289.32C92.5539 281.958 90.4982 273.537 88.9565 264.107C88.5752 261.807 88.2768 259.541 88.0613 257.307" stroke="#3F2A25" stroke-linecap="round" stroke-linejoin="round"/>
<path d="M200.575 227.545C199.066 226.288 199.829 220.117 204.155 218.578C207.139 217.519 210.903 218.992 211.234 220.778C211.798 223.839 202.663 229.282 200.575 227.528V227.545Z" stroke="#3F2A25" stroke-linecap="round" stroke-linejoin="round"/>
<path d="M166.043 237.835C166.292 236.429 162.495 233.484 158.55 234.295C155.549 234.907 152.98 237.587 153.461 238.845C154.339 241.111 165.645 240.085 166.043 237.835Z" stroke="#3F2A25" stroke-linecap="round" stroke-linejoin="round"/>
<path d="M227.563 276.283C226.005 281.048 221.661 279.46 216.754 281.147C213.107 282.388 205.465 289.204 197.375 289.287" stroke="#3F2A25" stroke-linecap="round" stroke-linejoin="round"/>
<path d="M212.295 274.132C208.101 275.423 204.504 273.868 204.553 271.254C204.586 269.285 214.898 266.886 216.274 267.68C217.749 268.524 215.544 273.123 212.295 274.132Z" stroke="#3F2A25" stroke-linecap="round" stroke-linejoin="round"/>
<path d="M215.909 281.495C214.318 280.999 212.494 275.274 212.312 274.133" stroke="#3F2A25" stroke-linecap="round" stroke-linejoin="round"/>
<path d="M151.67 163.173C150.344 139.862 136.518 103.052 126.489 61.7584C120.67 37.7698 130.252 2.87866 145.354 2.39888C165.595 1.75367 209.543 50.7402 211.682 94.8132C213.19 126.131 203.244 148.217 198.552 163.884" stroke="#3F2A25" stroke-linecap="round" stroke-linejoin="round"/>
<path d="M130.169 195.45C112.812 179.022 88.3762 121.614 66.4273 80.0063C54.9057 58.1848 24.5849 38.3321 12.9308 47.9276C-2.6855 60.7988 -3.18283 126.544 24.4192 161.038C48.4404 191.049 93.1009 211.547 101.224 226.039" stroke="#3F2A25" stroke-linecap="round" stroke-linejoin="round"/>
<path d="M50.5789 82.5044C77.9156 136.735 78.9103 182.645 104.042 231.962" stroke="#3F2A25" stroke-linecap="round" stroke-linejoin="round"/>
<path d="M254.85 248.324C269.422 231.284 292.316 217.917 311.198 213.334" stroke="#3F2A25" stroke-linecap="round" stroke-linejoin="round"/>
<path d="M313.088 246.57C293.609 249.35 276.849 254.726 263.471 263.164" stroke="#3F2A25" stroke-linecap="round" stroke-linejoin="round"/>
<path d="M117.769 290.031C95.5543 286.756 69.5107 291.719 52.2698 300.636" stroke="#3F2A25" stroke-linecap="round" stroke-linejoin="round"/>
<path d="M72.7268 326.924C89.2383 316.237 105.418 309.288 121.034 306.873" stroke="#3F2A25" stroke-linecap="round" stroke-linejoin="round"/>
<path d="M222.872 279.973C225.077 289.436 217.501 298.237 212.875 298.982C206.841 299.974 203.31 293.175 200.856 288.84" stroke="#3F2A25" stroke-linecap="round" stroke-linejoin="round"/>
<path d="M220.451 280.419C220.584 285.383 215.428 292.033 212.411 292.53C207.885 293.258 207.139 287.037 206.824 286.623" stroke="#3F2A25" stroke-linecap="round" stroke-linejoin="round"/>
<path d="M214.633 282.173C215.296 284.075 214.284 290.428 212.411 292.529" stroke="#3F2A25" stroke-linecap="round" stroke-linejoin="round"/>
<path d="M235.57 231.516C231.111 234.725 226.552 242.17 221.927 252.146" stroke="#3F2A25" stroke-linecap="round" stroke-linejoin="round"/>
<path d="M175.343 271.469C162.28 269.219 149.167 266.307 136.833 272.627" stroke="#3F2A25" stroke-linecap="round" stroke-linejoin="round"/>
<path d="M165.264 327.834C166.11 333.029 166.027 336.023 164.7 339.729C162.363 346.264 148.139 343.402 144.592 348.365C132.39 365.422 87.9453 404.912 94.4272 424.318C101.506 445.511 130.849 484.637 138.972 495.093C146.979 505.4 160.672 502.521 164.104 501.644C177.3 498.269 179.803 465.016 172.757 452.145C160.142 429.116 139.287 412.506 137.248 406.616" stroke="#3F2A25" stroke-linecap="round" stroke-linejoin="round"/>
<path d="M160.92 373.975C153.792 386.118 144.707 401.653 143.945 415.252" stroke="#3F2A25" stroke-linecap="round" stroke-linejoin="round"/>
<path d="M118.233 378.674C138.607 380.328 143.282 384.332 150.211 393.729" stroke="#3F2A25" stroke-linecap="round" stroke-linejoin="round"/>
<path d="M196.927 322.987C197.325 326.081 197.939 332.202 202.116 335.08C206.012 337.777 213.903 340.705 215.843 343.17C230.216 361.302 256.392 422.25 260.719 448.902C274.86 535.99 265.228 564.793 261.581 568.449C257.204 572.849 242.931 574.256 235.206 569.64C229.901 566.464 220.435 537.594 214.599 515.045" stroke="#3F2A25" stroke-linecap="round" stroke-linejoin="round"/>
<path d="M230.017 511.489C221.579 513.54 206.559 515.807 203.426 520.555C193.927 534.948 194.076 575.116 190.015 578.392C185.472 582.065 173.006 581.999 162.545 579.252C158.434 578.177 146.979 533.724 145.056 500.222" stroke="#3F2A25" stroke-linecap="round" stroke-linejoin="round"/>
<path d="M228.757 364.446C276.501 350.731 293.576 326.693 311.745 319.446C319.404 316.386 341.37 309.305 351.963 303.481C353.77 302.489 371.243 285.002 368.823 270.675C366.667 257.886 345.448 252.741 334.44 254.495C311.414 258.135 291.471 273.636 283.629 279.956C272.356 289.022 248.7 335.726 233.896 334.17C226.104 333.36 226.386 332.202 218.114 334.22C213.588 335.328 209.079 336.9 206.824 337.76" stroke="#3F2A25" stroke-linecap="round" stroke-linejoin="round"/>
<path d="M239.284 332.93C236.83 345.503 238.538 349.821 247.689 357.911" stroke="#3F2A25" stroke-linecap="round" stroke-linejoin="round"/>
<path d="M164.7 339.729C185.406 357.15 202.116 350.681 202.116 335.097" stroke="#3F2A25" stroke-linecap="round" stroke-linejoin="round"/>
<path d="M168.281 444.717C228.508 453.501 239.632 441.226 253.507 422.548" stroke="#3F2A25" stroke-linecap="round" stroke-linejoin="round"/>
<path d="M141.79 475.77C143.713 486.821 148.288 494.299 155.417 502.67" stroke="#3F2A25" stroke-linecap="round" stroke-linejoin="round"/>
<path d="M155.417 471.353C158.268 480.749 164.12 491.751 172.111 494.133" stroke="#3F2A25" stroke-linecap="round" stroke-linejoin="round"/>
<path d="M237.145 148.862C226.552 135.759 131.429 211.051 137.247 222.019C139.983 227.164 165.629 228.422 175.343 214.26C200.359 177.764 237.145 148.862 237.145 148.862Z" stroke="#3F2A25" stroke-linecap="round" stroke-linejoin="round"/>
<path d="M237.145 148.862C251.585 164.943 264.698 191.38 262.99 199.04C261.481 205.806 245.185 214.773 241.323 215.898" stroke="#3F2A25" stroke-linecap="round" stroke-linejoin="round"/>
<path d="M86.8345 212.209C79.9547 228.521 79.0927 245.231 83.8339 256.216C84.2981 257.291 85.7569 257.672 88.0612 257.308C96.3667 256.017 115.58 245.198 138.856 223.525H138.872" stroke="#3F2A25" stroke-linecap="round" stroke-linejoin="round"/>
<path d="M115.995 176.408C125.759 169.79 137.629 164.992 151.67 163.173C164.303 161.535 178.675 162.329 194.872 166.382" stroke="#3F2A25" stroke-linecap="round" stroke-linejoin="round"/>
<path d="M100.71 232.475C126.77 229.183 133.617 210.488 129.257 189.742" stroke="#3F2A25" stroke-linecap="round" stroke-linejoin="round"/>
<path d="M332.716 269.798C338.933 266.622 345.232 260.55 362.158 260.914" stroke="#3F2A25" stroke-linecap="round" stroke-linejoin="round"/>
<path d="M341.469 285.565C353.041 283.298 361.247 280.552 369.055 275.522" stroke="#3F2A25" stroke-linecap="round" stroke-linejoin="round"/>
</svg>
