<?xml version="1.0" encoding="UTF-8"?><svg xmlns="http://www.w3.org/2000/svg" viewBox="0 0 419.48 529.95"><defs><style>.e{fill:#ead0d0;}.f{fill:#fcb9b9;}.g{fill:#fff;}.h{fill:#6b3d34;}.i{stroke-width:3px;}.i,.j{fill:none;stroke:#3f2a25;stroke-linecap:round;stroke-linejoin:round;}.k{fill:#eab5a7;}.l{fill:#7f4d40;}.m{fill:#bc7171;}.n{fill:#472b28;}.o{fill:#eaa0a0;}.p{fill:#b27967;}.q{fill:#d17e75;}.r{fill:#935d51;}.s{fill:#e08f82;}</style></defs><g id="a"><path class="i" d="M188.72,265.35c6.32-2.05,13.44-3.2,21.47-3.26,7.29-.05,13.47,.85,19.45,2.66m24.07,14.62c15.52,15.65,23.05,39.45,26.4,60.71,.17,1.02,.32,2.04,.46,3.05,4.1,29.12-34.2,50-70.38,50-31.9,0-65.73-12.3-70.58-36.84-.65-3.29-.78-6.81-.31-10.55,.16-1.3,.34-2.62,.53-3.95,3.02-21.15,9.41-45.17,24.74-61.27"/><path class="i" d="M229.64,264.75c8.33-13.57,18.54-39.66,25.28-70.69,8.27-38.06,27.86-59.78,37.92-58.36,13.49,1.9,30.06,52.37,10.41,90.71-14.25,27.79-39.68,43.11-49.53,52.97"/><path class="i" d="M164.57,280.52c-8.98-10.76-32.65-28.4-44.13-57.27-15.92-40.03,5.37-88.7,18.98-89.31,10.15-.45,27.59,23.04,32.2,61.71,3.72,31.23,10.16,55.35,17.1,69.7"/><path class="i" d="M139.83,341.79c-17.89-7.22-41.48-8.38-57.69-4.37"/><path class="i" d="M93.93,363.55c15.96-5.63,32.14-8.38,45.68-7.26"/><path class="i" d="M280.11,340.08c17.89-7.22,41.34-8.32,57.55-4.31"/><path class="i" d="M325.87,361.9c-15.96-5.63-32.14-8.38-45.68-7.26"/></g><g id="b"><g><path class="m" d="M245.56,272.29c-4.74-3.35-10.07-6.02-16.05-7.82,8.33-13.57,18.54-39.66,25.28-70.69,8.27-38.06,27.86-59.78,37.92-58.37,13.49,1.9,30.06,52.37,10.41,90.71-14.25,27.79-39.68,43.11-49.54,52.97-2.46-2.49-5.13-4.77-8.02-6.8Z"/><path class="m" d="M206.45,363.68h0l-.6,.04c-3.25,.1-6.45-.4-9.24-.53-3.2-.16-5.86,.17-7.43,2.42-4.51,6.44,10.61,11.15,21.38,10.09,13.72-1.36,27.55-13.17,21.67-19.22-3.87-3.98-7.91-1.66-12.62,1.38-3.33,2.15-7,4.67-11.17,5.54-.65,.14-1.31,.24-1.99,.28Zm73.99-20.83c4.1,29.12-34.19,50-70.38,50-31.91,0-65.74-12.3-70.58-36.85-.65-3.3-.78-6.81-.31-10.55,2.77-21.97,8.94-47.94,25.12-65.05,2.48-2.62,5.19-5.04,8.17-7.2,4.68-3.4,9.99-6.16,16.05-8.12,6.34-2.05,13.49-3.21,21.55-3.27,7.15-.06,13.61,.89,19.45,2.66,5.98,1.8,11.31,4.47,16.05,7.82,2.89,2.03,5.56,4.31,8.02,6.8,15.53,15.66,23.06,39.48,26.41,60.75,.16,1.01,.31,2.01,.45,3.01Zm-54.98-34.08c1.24,1.55,10.2-2.32,9.92-4.4-.15-1.16-3.2-2.12-5.72-1.35-3.31,1.01-4.96,4.79-4.2,5.75Zm-19.69,45.39c3.76-.23,6.17-2.59,5.34-4.67-.64-1.58-9.65-.36-10.51,.69-.92,1.14,2.25,4.16,5.17,3.98Zm-15.93-42.96c1.38-.96,1.2-6.31-2.38-7.96-2.48-1.14-5.81-.16-6.23,1.35-.71,2.58,6.68,7.96,8.61,6.61Zm-4.33,33.33c1.64-4.75-2-14.46-7.26-20.96,0,0-.01,0-.01-.01-2.71-3.34-5.84-5.84-8.91-6.37-8.04-1.39-18.78,14.1-14.63,23.69,2.08,4.82,9.22,7.48,16.13,8.05h.01c6.85,.57,13.47-.92,14.67-4.4Z"/><path class="m" d="M235.38,304.37c.28,2.08-8.68,5.95-9.92,4.4-.76-.96,.89-4.74,4.2-5.75,2.52-.77,5.57,.19,5.72,1.35Z"/><path class="m" d="M232.23,356.48c5.88,6.05-7.95,17.86-21.67,19.22-10.77,1.06-25.89-3.65-21.38-10.09,1.57-2.25,4.23-2.58,7.43-2.42v.22c2.82,7.22,8.32,10.01,13.23,9.27,5.61-.82,10.46-6.21,9.77-14.82,4.71-3.04,8.75-5.36,12.62-1.38Z"/><path class="m" d="M219.61,357.86c.69,8.61-4.16,14-9.77,14.82l-.02-.13c.44-1.83,.17-6.48-1.38-9.14h0c4.17-.88,7.84-3.4,11.17-5.55Z"/><path class="m" d="M211.11,349.49c.83,2.08-1.58,4.44-5.34,4.67-2.92,.18-6.09-2.84-5.17-3.98,.86-1.05,9.87-2.27,10.51-.69Z"/><path class="m" d="M208.44,363.41c1.55,2.66,1.82,7.31,1.38,9.14l.02,.13c-4.91,.74-10.41-2.05-13.24-9.27v-.22c2.8,.13,6,.63,9.25,.53l.6-.03h0c.68-.05,1.34-.15,1.99-.29h0Z"/><path class="m" d="M187.46,303.24c3.58,1.65,3.76,7,2.38,7.96-1.93,1.35-9.32-4.03-8.61-6.61,.42-1.51,3.75-2.49,6.23-1.35Z"/><path class="m" d="M178.25,323.57c5.26,6.5,8.9,16.21,7.26,20.96-1.2,3.48-7.82,4.97-14.67,4.4h-.01c-17.61-3.8-1.51-31.72,7.41-25.37,0,.01,.01,.01,.01,.01Z"/><path class="m" d="M172.46,273.2c-2.98,2.16-5.69,4.58-8.17,7.2-8.88-10.75-32.44-28.42-43.98-57.44-15.92-40.03,5.37-88.69,18.98-89.3,10.15-.46,27.59,23.03,32.2,61.7,3.76,31.53,10.02,55.42,17.02,69.72-6.06,1.96-11.37,4.72-16.05,8.12Z"/><path class="m" d="M178.24,323.56c-8.92-6.35-25.02,21.57-7.41,25.37-6.91-.57-14.05-3.23-16.13-8.05-4.15-9.59,6.59-25.08,14.63-23.69,3.07,.53,6.2,3.03,8.91,6.37Z"/></g></g><g id="c"><g><path class="p" d="M299.26,139.95c11.38,13.19,20.56,54.14,3.99,86.46-14.25,27.79-39.68,43.11-49.54,52.96-.02-.03-.05-.06-.07-.08,9.85-9.86,35.29-25.18,49.53-52.97,16.54-32.25,7.44-73.09-3.91-86.37Z"/><path class="o" d="M299.26,139.95c11.35,13.28,20.45,54.12,3.91,86.37-14.24,27.79-39.68,43.11-49.53,52.97-.21-.21-.42-.42-.63-.61-.18-.19-.35-.36-.53-.53-2.11-2.02-4.36-3.9-6.77-5.6,2.05-2.62,4.59-6.13,7.14-10.46,11.67-1.7,18.04-5.61,29.86-21.26,12.26-16.23,31.9-44.42,15.62-101.89,.31,.31,.62,.65,.93,1.01Z"/><path class="f" d="M298.33,138.94c16.28,57.47-3.36,85.66-15.62,101.89-11.82,15.65-18.19,19.56-29.86,21.26,5.39-9.17,10.76-22.06,11.36-38.19,.83-22.16,3.63-39.87,8.37-57.16,3.16-9.85,10.76-27.55,20.26-31.04,1.55,.22,3.14,1.08,4.72,2.49,.26,.23,.51,.47,.77,.75Z"/><path class="p" d="M297.56,138.19c-1.58-1.41-3.17-2.27-4.72-2.49-10.06-1.42-29.65,20.31-37.92,58.36-2,9.19-4.3,17.95-6.76,26.07h0c-.8,2.24-1.62,4.82-2.41,7.6-5.25,15.81-11.01,28.7-16.08,36.97-.03-.01-.07-.02-.1-.03,8.33-13.57,18.53-39.66,25.28-70.69,8.26-38.06,27.86-59.78,37.91-58.36,1.58,.22,3.2,1.11,4.8,2.57Z"/><path class="p" d="M249.63,267l-.4-.28c-11.29-.94-8-23.16-3.48-38.99,.81-2.46,1.62-4.99,2.41-7.59h0c2.46-8.13,4.76-16.89,6.76-26.08,8.27-38.05,27.86-59.78,37.92-58.36-9.5,3.49-17.1,21.19-20.26,31.04-4.74,17.29-7.54,35-8.37,57.16-.6,16.13-5.97,29.02-11.36,38.19-2.55,4.33-5.09,7.84-7.14,10.46l-.09-.06c1.2-1.53,2.57-3.37,4.01-5.49Z"/><path class="p" d="M280.57,343.14c4.1,29.11-34.19,50-70.38,50-1.03,0-2.06-.01-3.09-.04,.25-.02,.5-.04,.75-.07,.76,.01,1.52,.02,2.27,.02,36.18,0,74.48-20.88,70.38-50-.14-1-.29-2-.45-3.01,.02-.01,.03-.01,.05-.02,.01,.04,.02,.07,.02,.11,.16,1.01,.31,2.01,.45,3.01Z"/><path class="r" d="M229.64,264.75c5.98,1.8,11.31,4.47,16.05,7.82,2.41,1.7,4.67,3.57,6.79,5.58,.18,.17,.35,.34,.53,.53,.24,.22,.47,.46,.7,.69l.11,.11c1.66,1.68,3.23,3.46,4.71,5.32,12.26,15.42,18.54,36.34,21.52,55.24,.16,1.01,.31,2.01,.45,3.01,4.1,29.12-34.2,50-70.38,50-.75,0-1.51-.01-2.27-.02,23.42-2.34,48.14-12.72,59.02-33.81,8-15.52,8.64-42.08-11.09-68.31-7.41-9.86-22.59-23.39-42.46-28.78,5.92,.21,11.35,1.11,16.32,2.62Z"/><path class="p" d="M280.1,340.02s-.03,.01-.05,.02c-2.98-18.9-9.26-39.82-21.52-55.24,12.29,15.39,18.59,36.3,21.57,55.22Z"/><path class="p" d="M206.51,363.88h0l-.6,.04c-6.97,.22-13.73-2.33-16.68,1.89-1.24,1.77-.99,3.41,.25,4.84,.19,.23,.41,.45,.65,.67,.13,.12,.28,.25,.43,.36,4,3.19,13.01,5.01,20.13,4.3,13.49-1.33,27.08-12.76,21.95-18.91-.09-.1-.18-.21-.28-.31-.02-.03-.04-.05-.07-.08-7.03-7.23-14.62,6.33-25.7,7.2-.03,0-.05,.01-.08,0Zm-.58-9.43c3.74-.25,6.14-2.61,5.31-4.68-.03-.06-.07-.12-.13-.18-.03-.03-.05-.07-.09-.09-1.29-1.28-9.54-.12-10.36,.89-.32,.39-.15,1.02,.35,1.65,.04,.08,.1,.15,.17,.22,.08,.09,.16,.18,.26,.28,.09,.1,.19,.2,.31,.29,.62,.57,1.44,1.07,2.33,1.36,.59,.2,1.21,.3,1.82,.26h.03Zm-35.04-5.25c6.04,.52,11.9-.56,14.07-3.19h0c.31-.37,.53-.77,.68-1.19,1.74-5.02-2.41-15.55-8.14-22.01-.44-.49-.88-.96-1.33-1.4-2.16-2.12-4.49-3.61-6.78-4.01-8.04-1.4-18.78,14.1-14.63,23.69,.24,.54,.54,1.06,.9,1.55,.31,.43,.67,.85,1.07,1.24,3.11,3.1,8.69,4.86,14.14,5.32h.02Zm84.89-58.29c19.73,26.23,19.09,52.79,11.09,68.31-10.88,21.09-35.6,31.47-59.02,33.81-22.4-.41-45.39-6.85-58.34-19.31-.94-.91-1.82-1.84-2.64-2.8-.27-.32-.54-.65-.8-.97-5.29-6.65-7.96-14.72-6.76-24.21,.16-1.3,.34-2.62,.53-3.95,3-21.07,9.36-45.01,24.58-61.1,2.48-2.63,5.19-5.04,8.17-7.2,.87-.63,1.76-1.24,2.67-1.82,.15-.07,.29-.16,.42-.27,3.9-2.46,8.2-4.5,12.96-6.03,6.34-2.06,13.49-3.22,21.55-3.28,1.06-.01,2.1,0,3.13,.04,19.87,5.39,35.05,18.92,42.46,28.78Zm-30.08,18.23c1.54,1.29,10.08-2.46,9.81-4.49-.02-.19-.13-.37-.3-.55-.01-.02-.04-.05-.07-.07-.83-.88-3.31-1.45-5.42-.81-3.32,1.01-4.97,4.79-4.2,5.76,.02,.03,.04,.05,.07,.06,.03,.05,.07,.07,.11,.1Zm-35.73,2.35c1.18-.82,1.22-4.79-.98-6.98,0-.01,0-.02-.02-.03-.4-.41-.88-.77-1.45-1.03-2.48-1.15-5.82-.17-6.23,1.34-.17,.62,.12,1.39,.7,2.2,.16,.24,.36,.48,.57,.72,2.05,2.37,6.06,4.72,7.41,3.78Z"/><path class="p" d="M253.82,279.48l-.11-.11s.08,.07,.11,.11Z"/><path class="p" d="M253.64,279.29s.05,.05,.07,.08c-.23-.23-.46-.47-.7-.69,.21,.19,.42,.4,.63,.61Z"/><path class="r" d="M249.23,266.72l.4,.28c-1.44,2.12-2.81,3.96-4.01,5.49-4.72-3.33-10.01-5.99-15.95-7.79,5.07-8.27,10.83-21.16,16.08-36.97-4.52,15.83-7.81,38.05,3.48,38.99Z"/><path class="p" d="M245.71,272.55c2.41,1.7,4.66,3.58,6.77,5.6-2.12-2.01-4.38-3.88-6.79-5.58l.02-.02Z"/><path class="p" d="M248.16,220.14c-.79,2.6-1.6,5.13-2.41,7.59,.79-2.78,1.61-5.36,2.41-7.59Z"/><path class="p" d="M245.71,272.55l-.02,.02c-4.74-3.35-10.07-6.02-16.05-7.82,.02-.02,.03-.03,.03-.05,5.94,1.8,11.23,4.46,15.95,7.79l.09,.06Z"/><path class="p" d="M235.51,304.65c.27,2.03-8.27,5.78-9.81,4.49,1.76,1.08,10.01-2.57,9.74-4.57-.02-.16-.1-.32-.23-.47,.17,.18,.28,.36,.3,.55Z"/><path class="k" d="M235.44,304.57c.27,2-7.98,5.65-9.74,4.57-.04-.03-.08-.05-.11-.1-.74-.99,.91-4.73,4.21-5.73,2.04-.63,4.44-.11,5.34,.72,.03,.02,.06,.05,.07,.07,.13,.15,.21,.31,.23,.47Z"/><path class="p" d="M210.62,375.9c13.43-1.32,26.96-12.66,22.02-18.83,5.13,6.15-8.46,17.58-21.95,18.91-7.12,.71-16.13-1.11-20.13-4.3,3.66,2.82,11.31,4.56,17.97,4.34,.71-.01,1.41-.05,2.09-.12Z"/><path class="n" d="M232.64,357.07c4.94,6.17-8.59,17.51-22.02,18.83-.68,.07-1.38,.11-2.09,.12l-.07-2.93c6.21,0,12.03-5.56,11.28-14.93h0c4.71-3.05,8.75-5.39,12.62-1.4,.1,.1,.19,.21,.28,.31Z"/><path class="p" d="M219.68,358.2c-3.32,2.14-6.96,4.63-11.11,5.49t-.02,.01c-.83,.17-1.69,.28-2.56,.31-3.28,.1-6.51-.41-9.32-.54-3.16-.15-5.8,.19-7.36,2.42-1.22,1.74-1,3.36,.17,4.76-1.24-1.43-1.49-3.07-.25-4.84,2.95-4.22,9.71-1.67,16.68-1.89l.6-.03h0s.05-.01,.08-.01c11.08-.87,18.67-14.43,25.7-7.2,.03,.03,.05,.05,.07,.08-3.87-3.99-7.91-1.65-12.62,1.39h0s-.04,.03-.06,.05Z"/><path class="p" d="M235.14,304.03c-.9-.83-3.3-1.35-5.34-.72-3.3,1-4.95,4.74-4.21,5.73-.03-.01-.05-.03-.07-.06-.77-.97,.88-4.75,4.2-5.76,2.11-.64,4.59-.07,5.42,.81Z"/><path class="p" d="M229.67,264.7s-.01,.03-.03,.05c-4.97-1.51-10.4-2.41-16.32-2.62l-.33-.09c6.02,.19,11.53,1.1,16.58,2.63,.03,.01,.07,.02,.1,.03Z"/><path class="p" d="M219.74,358.16c.75,9.37-5.07,14.93-11.28,14.93-2.56,0-5.18-.94-7.43-2.96,2.71,2.37,5.93,3.22,8.93,2.76,5.55-.86,10.35-6.19,9.72-14.69,.02-.02,.04-.03,.06-.04Z"/><path class="e" d="M219.68,358.2c.63,8.5-4.17,13.83-9.72,14.69v-.05c.43-1.83,.17-6.48-1.39-9.15,4.15-.86,7.79-3.35,11.11-5.49Z"/><path class="p" d="M212.99,262.04l.33,.09c-1.03-.03-2.07-.05-3.13-.04-8.06,.06-15.21,1.22-21.55,3.28-.01-.03-.03-.06-.04-.09,6.33-2.05,13.47-3.21,21.52-3.27,.97-.01,1.93,0,2.87,.03Z"/><path class="p" d="M205.93,354.45h-.03c-.61,.04-1.23-.06-1.82-.26,.05,0,.1-.01,.15-.02,.52,.15,1.06,.22,1.59,.19,3.76-.23,6.18-2.59,5.34-4.67-.01-.03-.03-.07-.05-.1,.06,.06,.1,.12,.13,.18,.83,2.07-1.57,4.43-5.31,4.68Z"/><path class="o" d="M211.16,349.69c.84,2.08-1.58,4.44-5.34,4.67-.53,.03-1.07-.04-1.59-.19,3.58-.24,5.77-3.89,5.13-5.11,.74,.06,1.34,.2,1.66,.44,.04,.02,.06,.06,.09,.09,.02,.03,.04,.07,.05,.1Z"/><path class="g" d="M199,367.9c-.9-1.2-1.69-2.63-2.34-4.29v-.14c2.82,.13,6.05,.64,9.33,.54,.87-.03,1.73-.14,2.56-.31t.02-.01c1.56,2.67,1.82,7.32,1.38,9.15v.05c-2.99,.46-6.21-.39-8.92-2.76-.12-.11-.24-.23-.37-.34-.12-.11-.24-.23-.36-.35-.45-.47-.89-.98-1.3-1.54Z"/><path class="p" d="M211.02,349.5c-.32-.24-.92-.38-1.66-.44-2.86-.24-7.99,.63-8.63,1.41-.31,.38-.16,.96,.28,1.57-.5-.63-.67-1.26-.35-1.65,.82-1.01,9.07-2.17,10.36-.89Z"/><path class="f" d="M209.36,349.06c.64,1.22-1.55,4.87-5.13,5.11-.93-.26-1.81-.77-2.48-1.34-.11-.09-.21-.19-.31-.29-.09-.09-.18-.18-.26-.28-.07-.07-.13-.14-.17-.22-.44-.61-.59-1.19-.28-1.57,.64-.78,5.77-1.65,8.63-1.41Z"/><path class="n" d="M208.46,373.09l.07,2.93c-6.66,.22-14.31-1.52-17.97-4.34-.15-.12-.29-.24-.43-.36-.24-.22-.46-.44-.65-.67-1.17-1.4-1.39-3.02-.17-4.76,1.56-2.23,4.2-2.57,7.36-2.42v.14c.64,1.66,1.43,3.09,2.33,4.29,.41,.56,.85,1.07,1.3,1.54,.12,.12,.24,.24,.36,.35,.13,.11,.25,.23,.37,.34,2.25,2.02,4.87,2.96,7.43,2.96Z"/><path class="p" d="M207.85,393.03c-.25,.03-.5,.05-.75,.07-22.18-.55-44.82-7.02-57.59-19.38,12.95,12.46,35.94,18.9,58.34,19.31Z"/><path class="p" d="M204.23,354.17c-.05,.01-.1,.02-.15,.02-.89-.29-1.71-.79-2.33-1.36,.67,.57,1.55,1.08,2.48,1.34Z"/><path class="p" d="M201.44,352.54c.1,.1,.2,.2,.31,.29-.12-.09-.22-.19-.31-.29Z"/><path class="p" d="M201.18,352.26c.08,.1,.17,.19,.26,.28-.1-.1-.18-.19-.26-.28Z"/><path class="p" d="M200.3,369.44c.12,.12,.24,.24,.36,.35-.12-.11-.24-.23-.36-.35Z"/><path class="p" d="M190.13,371.32c.14,.12,.28,.24,.43,.36-.15-.11-.3-.24-.43-.36Z"/><path class="p" d="M188.99,304.51c2.2,2.19,2.16,6.16,.98,6.98-1.35,.94-5.36-1.41-7.41-3.78,2.08,2.35,6.01,4.62,7.33,3.7,1.16-.81,1.23-4.69-.9-6.9Z"/><path class="k" d="M188.99,304.51c2.13,2.21,2.06,6.09,.9,6.9-1.32,.92-5.25-1.35-7.33-3.7-.21-.24-.41-.48-.57-.72-.53-.77-.79-1.52-.63-2.11,.42-1.52,3.75-2.49,6.23-1.35,.53,.25,.99,.57,1.38,.95,.01,.01,.02,.02,.02,.03Z"/><path class="p" d="M188.6,265.28s.03,.06,.04,.09c-4.76,1.53-9.06,3.57-12.96,6.03,.1-.09,.2-.19,.29-.31,3.81-2.36,8.01-4.33,12.63-5.81Z"/><path class="p" d="M188.97,304.48c-.39-.38-.85-.7-1.38-.95-2.48-1.14-5.81-.17-6.23,1.35-.16,.59,.1,1.34,.63,2.11-.58-.81-.87-1.58-.7-2.2,.41-1.51,3.75-2.49,6.23-1.34,.57,.26,1.05,.62,1.45,1.03Z"/><path class="p" d="M177.5,322.81c5.73,6.46,9.88,16.99,8.14,22.01-.15,.42-.37,.82-.68,1.18-.01-.04-.02-.09-.03-.13,.28-.35,.5-.73,.64-1.13,1.64-4.74-1.97-14.38-7.19-20.88h-.01s-.04-.06-.06-.09c0,0,0,0,0,0-.26-.33-.53-.64-.8-.95Z"/><path class="h" d="M178.38,323.86c5.22,6.5,8.83,16.14,7.19,20.88-.14,.4-.36,.78-.64,1.13-1.81-10.33-9.41-16.31-17.33-17.95,3.19-4.08,7.47-6.42,10.77-4.07h.01Z"/><path class="p" d="M184.93,345.87s.02,.09,.03,.13h0c-2.17,2.64-8.03,3.72-14.07,3.2h-.02c-.17-.04-.34-.08-.5-.12,.17,.02,.34,.04,.51,.05h.01c6.06,.51,11.93-.59,14.04-3.26Z"/><path class="r" d="M158.84,152.39h0c-.03-.07-.05-.12-.08-.18,5.73,10.55,10.7,25.33,12.86,43.44,3.76,31.47,9.99,55.31,16.98,69.63-4.62,1.48-8.82,3.45-12.63,5.81,3.6-4.61-5.24-29.38-7.13-72.01-.44-9.98-3.54-31.57-10-46.69Z"/><path class="p" d="M178.31,323.77s.04,.05,.06,.08c-3.3-2.35-7.58,0-10.77,4.07l-.12-.03c3.2-4.11,7.51-6.48,10.82-4.13,0,0,0,0,0,0Z"/><path class="e" d="M177.5,322.81c.27,.31,.54,.62,.8,.95-3.31-2.35-7.62,.02-10.82,4.13-4.14-.83-8.37-.48-11.89,1.05,2.86-6.69,8.89-12.32,13.88-11.46,2.26,.39,4.56,1.85,6.7,3.93,.45,.44,.89,.91,1.33,1.4Z"/><path class="p" d="M168.84,199.08c1.89,42.63,10.73,67.4,7.13,72.01-1.18,.73-2.33,1.5-3.44,2.31-5.58-8.77-14.38-25.27-12.99-48.94,.92-15.88,.61-29.58-.78-42.58v-.02c-.54-5.11-1.25-10.11-2.12-15.09-1.84-10.18-7.79-28.11-16.74-32.82,2.96,.07,6.5,2.1,10.14,5.87,.03,.03,.06,.06,.08,.09,.39,.41,.79,.84,1.18,1.29,.65,.74,1.3,1.54,1.94,2.38,.52,.67,1.03,1.38,1.55,2.13,.39,.57,.78,1.16,1.17,1.76,.02,.04,.04,.07,.07,.1,.95,1.49,1.89,3.1,2.81,4.81h0c6.46,15.13,9.56,36.72,10,46.7Z"/><path class="p" d="M175.97,271.09c-.09,.12-.19,.22-.29,.31-.14,.08-.28,.17-.42,.27-.91,.58-1.8,1.19-2.67,1.82l-.06-.09c1.11-.81,2.26-1.58,3.44-2.31Z"/><path class="p" d="M175.26,271.67c.14-.1,.28-.19,.42-.27-.13,.11-.27,.2-.42,.27Z"/><path class="l" d="M184.93,345.87c-2.11,2.67-7.98,3.77-14.04,3.26h-.01c-2.68-.58-4.58-1.72-5.84-3.21-.09-.1-.17-.2-.24-.3-3.51-4.73-1.22-12.58,2.8-17.7,7.92,1.64,15.52,7.62,17.33,17.95Z"/><path class="p" d="M172.53,273.4l.06,.09c-2.98,2.16-5.69,4.57-8.17,7.2-.02-.03-.04-.05-.07-.08h0c2.48-2.63,5.2-5.05,8.17-7.21h.01Z"/><path class="p" d="M172.53,273.4h-.01c-5.58-8.75-14.44-25.27-13.06-49.02,.9-15.36,.63-28.68-.64-41.29v-.04c-.01-.41-.03-.8-.06-1.17,1.39,13,1.7,26.7,.78,42.58-1.39,23.67,7.41,40.17,12.99,48.94Z"/><path class="p" d="M170.88,349.13c-.17-.01-.34-.03-.51-.05-2.43-.62-4.16-1.74-5.33-3.16,1.26,1.49,3.16,2.63,5.84,3.21Z"/><path class="p" d="M170.37,349.08c.16,.04,.33,.08,.5,.12-5.45-.46-11.03-2.22-14.14-5.32,3.05,2.97,8.38,4.69,13.64,5.2Z"/><path class="p" d="M176.17,321.41c-2.14-2.08-4.44-3.54-6.7-3.93-4.99-.86-11.02,4.77-13.88,11.46h-.01c-1.75,4.1-2.33,8.59-.75,12.23,.22,.51,.5,1,.83,1.47-.36-.49-.66-1.01-.9-1.55-4.15-9.59,6.59-25.09,14.63-23.69,2.29,.4,4.62,1.89,6.78,4.01Z"/><path class="p" d="M167.48,327.89l.12,.03c-4.02,5.12-6.31,12.97-2.8,17.7-3.6-4.71-1.33-12.58,2.68-17.73Z"/><path class="g" d="M165.04,345.92c1.17,1.42,2.9,2.54,5.33,3.16-5.26-.51-10.59-2.23-13.64-5.2-.4-.39-.76-.81-1.07-1.24-.33-.47-.61-.96-.83-1.47-1.58-3.64-1-8.13,.75-12.23h.01c3.52-1.53,7.75-1.88,11.89-1.05-4.01,5.15-6.28,13.02-2.68,17.73,.07,.1,.15,.2,.24,.3Z"/><path class="o" d="M172.52,273.4c-2.97,2.16-5.69,4.58-8.17,7.2-.25-.31-.52-.62-.8-.94-.34-.39-.69-.79-1.07-1.2,1.93-3.84-3.91-25.44-5.26-30.16-4.67-16.43,2.01-51.75,1.6-65.21,1.27,12.61,1.54,25.93,.64,41.29-1.38,23.75,7.48,40.27,13.06,49.02Z"/><path class="p" d="M164.35,280.61s.05,.05,.07,.08c-15.22,16.09-21.58,40.03-24.58,61.1-.03-.01-.05-.02-.08-.03-.01-.02,0-.03,0-.05,3-21.07,9.37-45.01,24.59-61.1Z"/><path class="p" d="M163.55,279.66c-.34-.39-.7-.79-1.07-1.2,.38,.41,.73,.81,1.07,1.2Z"/><path class="f" d="M158.82,183.05v.04c.41,13.46-6.27,48.78-1.6,65.21,1.35,4.72,7.19,26.32,5.26,30.16-.15-.16-.31-.33-.47-.51-.31-.34-.64-.68-.99-1.04-1.09-1.15-2.3-2.38-3.6-3.67l-.65-.65c-.65-.66-1.33-1.33-2.03-2.02-.46-.46-.93-.93-1.41-1.4-.24-.25-.48-.49-.72-.72-1.71-1.73-3.5-3.55-5.33-5.47-.49-.52-.99-1.05-1.49-1.58-1.32-1.43-2.67-2.91-4.02-4.45-1.03-1.18-2.07-2.4-3.1-3.66-.03-.02-.05-.05-.07-.08-1.03-1.25-2.06-2.55-3.08-3.88-5.72-7.47-11.11-16.1-15.08-26.08-15.92-40.03,5.37-88.69,18.99-89.3,.16-.01,.31-.01,.47,0,8.95,4.71,14.9,22.64,16.74,32.82,.87,4.98,1.58,9.98,2.12,15.09v.02c.03,.37,.05,.76,.06,1.17Z"/><path class="p" d="M162.01,277.95c-.33-.34-.65-.69-.99-1.04,.35,.36,.68,.7,.99,1.04Z"/><path class="p" d="M158.76,152.21c.03,.06,.05,.11,.08,.17-.92-1.71-1.86-3.32-2.81-4.81,.93,1.44,1.84,2.98,2.73,4.63h0Z"/><path class="p" d="M157.42,273.24l-.65-.65,.65,.65Z"/><path class="p" d="M155.96,147.47c-.39-.6-.78-1.19-1.17-1.76,.4,.56,.79,1.15,1.17,1.76Z"/><path class="p" d="M154.74,270.57c-.46-.46-.93-.93-1.41-1.4,.48,.47,.95,.94,1.41,1.4Z"/><path class="p" d="M153.24,143.58c.52,.68,1.04,1.39,1.55,2.13-.52-.75-1.03-1.46-1.55-2.13Z"/><path class="p" d="M153.33,269.17l-.72-.72c.24,.23,.48,.47,.72,.72Z"/><path class="p" d="M151.3,141.2c-.39-.45-.79-.88-1.18-1.29,.4,.41,.79,.84,1.18,1.29Z"/><path class="p" d="M146.07,369.95c.26,.32,.53,.65,.8,.97-.28-.32-.55-.64-.8-.97Z"/><path class="p" d="M147.28,262.98c-.5-.52-.99-1.05-1.49-1.58,.5,.53,1,1.06,1.49,1.58Z"/><path class="p" d="M138.67,253.29c1.03,1.26,2.07,2.48,3.1,3.66-1.03-1.18-2.07-2.4-3.1-3.66Z"/><path class="p" d="M139.9,133.95c-.16-.01-.31-.01-.47,0-13.62,.61-34.91,49.27-18.99,89.3,3.97,9.98,9.36,18.61,15.08,26.08-5.76-7.49-11.17-16.16-15.15-26.16-15.92-40.03,5.37-88.7,18.98-89.31,3.08-.14,6.83,1.93,10.69,5.96-3.64-3.77-7.18-5.8-10.14-5.87Z"/><path class="p" d="M139.56,356.29s0-.05-.02-.08c-.65-3.3-.78-6.82-.31-10.56,.16-1.28,.34-2.58,.53-3.89,.03,.01,.05,.02,.08,.03-.19,1.33-.37,2.65-.53,3.95-1.2,9.49,1.47,17.56,6.76,24.21-3.24-4.03-5.5-8.58-6.51-13.66Z"/><path class="p" d="M135.52,249.33c1.02,1.33,2.05,2.63,3.08,3.88-1.04-1.25-2.07-2.55-3.08-3.88Z"/></g><path class="r" d="M225.58,333.39c.56,2.03-9.98,7.38-18.08,8.2-8.62,.88-16.81-2.16-16.72-4.33,.18-3.97,33.74-7.72,34.8-3.87Z"/><path class="s" d="M155.58,352.47c5.19,0,9.39,2.51,9.39,5.6s-4.2,5.59-9.39,5.59-9.39-2.51-9.39-5.59,4.21-5.6,9.39-5.6Z"/><g><path class="q" d="M271.2,345.57c1.52,.99,2.45,2.31,2.45,3.76,0,2.05-1.84,3.84-4.6,4.81,.89-1.81,1.9-6.91,2.15-8.57Z"/><path class="s" d="M264.26,343.74c2.75,0,5.23,.71,6.94,1.83-.25,1.66-1.26,6.76-2.15,8.57-1.4,.5-3.04,.79-4.79,.79-5.18,0-9.39-2.51-9.39-5.6s4.21-5.59,9.39-5.59Z"/></g><circle class="g" cx="170.65" cy="328.88" r="1.43"/></g><g id="d"><path class="j" d="M280.57,343.13c4.1,29.12-34.19,50-70.38,50s-74.86-15.83-70.88-47.4c4.56-36.19,18.36-83.24,70.88-83.64,48.31-.37,65.28,44.87,70.38,81.04Z"/><path class="j" d="M229.64,264.75c8.33-13.57,18.54-39.66,25.28-70.69,8.27-38.06,27.86-59.78,37.92-58.36,13.49,1.9,30.06,52.37,10.41,90.71-14.25,27.79-39.68,43.11-49.53,52.97"/><path class="j" d="M272.58,166.74c-4.74,17.29-7.54,35-8.36,57.16-.88,23.77-12.13,40.5-18.52,48.68"/><path class="j" d="M188.64,265.36c-7-14.3-13.26-38.18-17.02-69.72-4.61-38.67-22.05-62.16-32.2-61.71-13.61,.61-34.91,49.28-18.99,89.31,11.54,29.02,35.1,46.69,43.98,57.44"/><path class="j" d="M156.64,166.77c3.07,17.66,4.18,35.56,2.89,57.69-1.38,23.75,7.48,40.27,13.06,49.02"/><path class="j" d="M185.64,344.82c2.49-7.21-7.15-25.78-16.18-27.34-8.04-1.39-18.79,14.1-14.64,23.69,4.15,9.59,28.4,10.63,30.81,3.65Z"/><path class="j" d="M178.38,323.86c-8.92-6.38-25.04,21.57-7.41,25.36"/><path class="j" d="M189.97,311.49c1.39-.97,1.21-6.31-2.38-7.96-2.48-1.14-5.81-.16-6.23,1.35-.71,2.58,6.68,7.95,8.61,6.61Z"/><path class="j" d="M225.59,309.06c-.77-.96,.88-4.75,4.2-5.76,2.52-.77,5.56,.19,5.72,1.35,.28,2.08-8.68,5.96-9.92,4.41Z"/><path class="j" d="M205.9,354.45c3.76-.23,6.18-2.59,5.34-4.68-.63-1.58-9.64-.36-10.51,.7-.92,1.13,2.25,4.16,5.17,3.98Z"/><path class="j" d="M206.58,363.97c.43-3.17-.28-8.34-.6-9.52"/><path class="j" d="M139.83,341.79c-17.89-7.22-41.48-8.38-57.69-4.37"/><path class="j" d="M93.93,363.55c15.96-5.63,32.14-8.38,45.68-7.26"/><path class="j" d="M280.12,340.13c17.89-7.22,41.33-8.37,57.54-4.36"/><path class="j" d="M325.87,361.9c-15.96-5.63-32.14-8.38-45.68-7.26"/><path class="j" d="M253.54,317.92c-10.72,7.71-17.93,15.4-18.02,18.72-.08,2.83,12.29,2.45,22.93,.7"/><path class="j" d="M232.36,356.76c-7.16-7.38-14.93,6.89-26.37,7.24-6.97,.22-13.73-2.33-16.68,1.89-4.5,6.44,10.61,11.15,21.39,10.09,13.72-1.35,27.55-13.16,21.67-19.22Z"/><path class="j" d="M196.73,363.69c6.06,15.45,24.31,10.62,23.01-5.54"/><path class="j" d="M208.57,363.69c1.55,2.67,1.82,7.32,1.38,9.14"/></g></svg>