<svg width="431" height="436" viewBox="0 0 431 436" fill="none" xmlns="http://www.w3.org/2000/svg">
<path d="M180.224 221.067C190.701 217.668 202.504 215.762 215.815 215.662C227.899 215.58 238.144 217.072 248.057 220.072M287.958 244.309C313.685 270.254 326.167 309.709 331.721 344.954C332.002 346.645 332.251 348.336 332.483 350.01C339.28 398.285 275.79 432.9 215.815 432.9C162.934 432.9 106.855 412.509 98.8149 371.827C97.7374 366.373 97.5219 360.537 98.301 354.337C98.5662 352.182 98.8646 349.994 99.1796 347.789C104.186 312.726 114.778 272.906 140.191 246.216" stroke="#3F2A25" stroke-width="3" stroke-linecap="round" stroke-linejoin="round"/>
<path d="M248.057 220.072C261.866 197.576 278.791 154.324 289.964 102.882C303.673 39.7868 336.147 3.77951 352.823 6.13357C375.186 9.28338 402.654 92.9523 370.08 156.512C346.458 202.582 304.303 227.98 287.974 244.326" stroke="#3F2A25" stroke-width="3" stroke-linecap="round" stroke-linejoin="round"/>
<path d="M140.191 246.216C125.305 228.378 86.0671 199.134 67.0367 151.274C40.6463 84.9122 75.9385 4.22735 98.4997 3.2161C115.325 2.47009 144.235 41.4117 151.877 105.519C158.044 157.292 168.72 197.278 180.224 221.067" stroke="#3F2A25" stroke-width="3" stroke-linecap="round" stroke-linejoin="round"/>
<path d="M99.1796 347.788C69.5235 335.819 30.4186 333.896 3.54736 340.544" stroke="#3F2A25" stroke-width="3" stroke-linecap="round" stroke-linejoin="round"/>
<path d="M23.0918 383.862C49.5486 374.529 76.37 369.97 98.8152 371.827" stroke="#3F2A25" stroke-width="3" stroke-linecap="round" stroke-linejoin="round"/>
<path d="M331.721 344.954C361.377 332.984 400.25 331.161 427.121 337.809" stroke="#3F2A25" stroke-width="3" stroke-linecap="round" stroke-linejoin="round"/>
<path d="M407.577 381.127C381.12 371.793 354.299 367.235 331.854 369.091" stroke="#3F2A25" stroke-width="3" stroke-linecap="round" stroke-linejoin="round"/>
<path d="M274.447 232.572C266.59 227.018 257.754 222.592 247.841 219.608C261.65 197.112 278.575 153.86 289.748 102.419C303.457 39.3229 335.931 3.3156 352.607 5.65309C374.97 8.8029 402.438 92.4718 369.864 156.032C346.242 202.102 304.087 227.499 287.742 243.845C283.664 239.717 279.238 235.937 274.447 232.572Z" fill="#BC7171"/>
<path d="M209.615 384.078L208.621 384.144C203.233 384.31 197.928 383.481 193.304 383.266C187.999 383 183.589 383.547 180.987 387.277C173.511 397.954 198.575 405.762 216.428 404.005C239.172 401.75 262.098 382.171 252.35 372.142C245.935 365.544 239.238 369.39 231.43 374.429C225.91 377.994 219.827 382.171 212.914 383.614C211.837 383.846 210.742 384.012 209.615 384.078ZM332.268 349.546C339.064 397.821 275.591 432.436 215.599 432.436C162.702 432.436 106.623 412.045 98.5995 371.346C97.522 365.875 97.3065 360.056 98.0857 353.856C102.677 317.435 112.905 274.382 139.727 246.017C143.838 241.673 148.33 237.661 153.27 234.081C161.028 228.444 169.831 223.869 179.876 220.619C190.386 217.221 202.238 215.298 215.599 215.198C227.452 215.099 238.161 216.674 247.842 219.608C257.755 222.592 266.59 227.018 274.448 232.572C279.238 235.937 283.664 239.717 287.742 243.845C313.486 269.806 325.969 309.295 331.522 344.556C331.787 346.23 332.036 347.888 332.268 349.546ZM241.128 293.048C243.183 295.618 258.036 289.202 257.572 285.754C257.324 283.831 252.268 282.239 248.09 283.516C242.603 285.19 239.868 291.457 241.128 293.048ZM208.488 368.296C214.721 367.914 218.716 364.002 217.34 360.554C216.279 357.934 201.343 359.957 199.918 361.698C198.393 363.587 203.648 368.594 208.488 368.296ZM182.081 297.077C184.369 295.485 184.07 286.616 178.136 283.881C174.025 281.991 168.504 283.615 167.808 286.119C166.631 290.396 178.882 299.315 182.081 297.077ZM174.903 352.331C177.622 344.457 171.588 328.359 162.868 317.584C162.868 317.584 162.852 317.584 162.852 317.567C158.359 312.03 153.171 307.886 148.082 307.007C134.754 304.703 116.95 330.382 123.83 346.28C127.278 354.271 139.114 358.68 150.568 359.625H150.585C161.94 360.57 172.914 358.1 174.903 352.331Z" fill="#BC7171"/>
<path d="M257.572 285.754C258.036 289.202 243.183 295.618 241.128 293.048C239.868 291.457 242.603 285.19 248.09 283.516C252.267 282.239 257.323 283.831 257.572 285.754Z" fill="#BC7171"/>
<path d="M252.35 372.142C262.098 382.171 239.172 401.75 216.428 404.005C198.575 405.762 173.511 397.954 180.987 387.277C183.589 383.547 187.999 383 193.303 383.265V383.63C197.978 395.599 207.095 400.225 215.235 398.998C224.534 397.639 232.574 388.703 231.43 374.429C239.238 369.39 245.935 365.544 252.35 372.142Z" fill="#BC7171"/>
<path d="M231.43 374.429C232.574 388.703 224.534 397.638 215.235 398.998L215.202 398.782C215.931 395.748 215.483 388.04 212.914 383.63C219.827 382.171 225.91 377.993 231.43 374.429Z" fill="#BC7171"/>
<path d="M217.34 360.554C218.716 364.002 214.721 367.914 208.488 368.295C203.647 368.594 198.392 363.587 199.917 361.697C201.343 359.957 216.279 357.934 217.34 360.554Z" fill="#BC7171"/>
<path d="M212.914 383.63C215.483 388.04 215.931 395.748 215.201 398.782L215.234 398.998C207.095 400.224 197.978 395.599 193.287 383.63V383.265C197.928 383.481 203.233 384.31 208.62 384.144L209.615 384.094C210.742 384.011 211.836 383.845 212.914 383.613V383.63Z" fill="#BC7171"/>
<path d="M178.135 283.88C184.07 286.616 184.368 295.485 182.081 297.076C178.881 299.314 166.631 290.396 167.808 286.118C168.504 283.615 174.024 281.99 178.135 283.88Z" fill="#BC7171"/>
<path d="M162.868 317.584C171.588 328.359 177.622 344.456 174.903 352.331C172.914 358.1 161.94 360.57 150.585 359.625H150.568C121.376 353.326 148.065 307.04 162.852 317.567C162.852 317.583 162.868 317.584 162.868 317.584Z" fill="#BC7171"/>
<path d="M153.27 234.08C148.33 237.661 143.838 241.673 139.727 246.016C125.006 228.195 85.9512 198.902 66.8214 150.793C40.431 84.4313 75.7232 3.76298 98.2844 2.75172C115.11 1.98914 144.02 40.9307 151.662 105.038C157.895 157.308 168.272 196.913 179.876 220.619C169.83 223.868 161.028 228.444 153.27 234.08Z" fill="#BC7171"/>
<path d="M162.852 317.567C148.065 307.04 121.376 353.326 150.568 359.625C139.113 358.68 127.277 354.271 123.829 346.28C116.95 330.382 134.754 304.703 148.082 307.007C153.171 307.886 158.359 312.03 162.852 317.567Z" fill="#BC7171"/>
<path d="M363.466 13.1797C382.33 35.046 397.548 102.933 370.08 156.513C346.458 202.583 304.303 227.98 287.958 244.309C287.925 244.26 287.875 244.21 287.842 244.177C304.17 227.831 346.342 202.434 369.947 156.363C397.366 102.9 382.281 35.1952 363.466 13.1797Z" fill="#B27967"/>
<path d="M363.466 13.1797C382.281 35.1952 397.366 102.9 369.947 156.363C346.342 202.434 304.17 227.831 287.842 244.177C287.494 243.829 287.146 243.481 286.797 243.166C286.499 242.851 286.217 242.569 285.919 242.287C282.421 238.938 278.691 235.822 274.696 233.003C278.095 228.66 282.305 222.841 286.532 215.663C305.877 212.845 316.437 206.363 336.031 180.418C356.354 153.512 388.911 106.779 361.924 11.5054C362.438 12.0193 362.952 12.5829 363.466 13.1797Z" fill="#EAA0A0"/>
<path d="M361.924 11.5055C388.911 106.779 356.354 153.512 336.031 180.418C316.437 206.363 305.877 212.845 286.532 215.663C295.467 200.461 304.369 179.092 305.364 152.352C306.739 115.615 311.381 86.2555 319.238 57.5922C324.477 41.263 337.075 11.92 352.823 6.13428C355.393 6.49899 358.028 7.9247 360.648 10.2622C361.079 10.6435 361.493 11.0414 361.924 11.5055Z" fill="#FCB9B9"/>
<path d="M360.647 10.2618C358.028 7.9243 355.393 6.49859 352.823 6.13388C336.147 3.77981 303.673 39.8037 289.963 102.883C286.648 118.118 282.835 132.64 278.757 146.101C277.431 149.815 276.072 154.092 274.762 158.701C266.059 184.91 256.511 206.279 248.107 219.989C248.057 219.973 247.991 219.956 247.941 219.94C261.749 197.443 278.658 154.192 289.847 102.75C303.54 39.6545 336.031 3.64718 352.69 6.00125C355.31 6.36596 357.995 7.84141 360.647 10.2618Z" fill="#B27967"/>
<path d="M281.194 223.802L280.531 223.338C261.816 221.78 267.27 184.944 274.762 158.701C276.105 154.623 277.448 150.428 278.757 146.118C282.835 132.64 286.648 118.118 289.963 102.883C303.673 39.8038 336.147 3.77995 352.823 6.13402C337.075 11.9197 324.477 41.2627 319.238 57.592C311.381 86.2553 306.739 115.615 305.363 152.352C304.369 179.092 295.467 200.461 286.532 215.663C282.305 222.841 278.094 228.66 274.696 233.003L274.547 232.904C276.536 230.367 278.807 227.317 281.194 223.802Z" fill="#B27967"/>
<path d="M332.484 350.027C339.28 398.285 275.807 432.917 215.815 432.917C214.108 432.917 212.4 432.9 210.693 432.85C211.107 432.817 211.522 432.784 211.936 432.734C213.196 432.751 214.456 432.767 215.699 432.767C275.674 432.767 339.164 398.153 332.367 349.878C332.135 348.22 331.887 346.562 331.621 344.888C331.655 344.871 331.671 344.871 331.704 344.854C331.721 344.921 331.738 344.971 331.738 345.037C332.003 346.711 332.251 348.369 332.484 350.027Z" fill="#B27967"/>
<path d="M248.057 220.072C257.97 223.056 266.806 227.483 274.663 233.036C278.658 235.855 282.405 238.955 285.919 242.287C286.217 242.569 286.499 242.851 286.797 243.165C287.195 243.53 287.577 243.928 287.958 244.309L288.14 244.492C290.892 247.277 293.494 250.228 295.948 253.311C316.271 278.874 326.681 313.555 331.621 344.888C331.887 346.562 332.135 348.22 332.367 349.878C339.164 398.153 275.674 432.767 215.699 432.767C214.456 432.767 213.196 432.751 211.936 432.734C250.759 428.855 291.737 411.647 309.773 376.684C323.035 350.955 324.095 306.924 291.389 263.44C279.106 247.094 253.942 224.665 221.004 215.729C230.817 216.077 239.818 217.569 248.057 220.072Z" fill="#935D51"/>
<path d="M331.704 344.855C331.704 344.855 331.654 344.872 331.621 344.888C326.681 313.556 316.271 278.875 295.948 253.312C316.321 278.825 326.764 313.489 331.704 344.855Z" fill="#B27967"/>
<path d="M209.715 384.41L208.72 384.476C197.166 384.841 185.96 380.613 181.07 387.609C179.014 390.543 179.429 393.262 181.484 395.633C181.799 396.014 182.164 396.379 182.562 396.744C182.777 396.943 183.026 397.158 183.275 397.34C189.905 402.629 204.841 405.646 216.644 404.469C239.006 402.264 261.534 383.316 253.03 373.12C252.881 372.954 252.732 372.772 252.566 372.606C252.533 372.556 252.5 372.523 252.45 372.474C240.796 360.488 228.215 382.967 209.847 384.41C209.798 384.41 209.764 384.426 209.715 384.41ZM208.753 368.777C214.953 368.362 218.932 364.45 217.556 361.018C217.506 360.919 217.44 360.819 217.34 360.72C217.29 360.67 217.257 360.604 217.191 360.571C215.053 358.449 201.377 360.372 200.017 362.046C199.487 362.693 199.769 363.737 200.597 364.781C200.664 364.914 200.763 365.03 200.879 365.146C201.012 365.295 201.144 365.444 201.31 365.61C201.459 365.776 201.625 365.942 201.824 366.091C202.852 367.036 204.211 367.865 205.687 368.346C206.665 368.677 207.692 368.843 208.704 368.777H208.753ZM150.668 360.073C160.68 360.935 170.394 359.145 173.991 354.785C174.505 354.171 174.87 353.508 175.119 352.812C178.003 344.49 171.124 327.033 161.625 316.324C160.896 315.512 160.166 314.733 159.42 314.003C155.84 310.489 151.977 308.018 148.181 307.355C134.853 305.034 117.05 330.73 123.929 346.629C124.327 347.524 124.824 348.386 125.421 349.198C125.935 349.911 126.532 350.607 127.195 351.254C132.35 356.393 141.6 359.311 150.635 360.073H150.668ZM291.389 263.44C324.096 306.924 323.035 350.955 309.773 376.684C291.737 411.647 250.759 428.855 211.936 432.734C174.804 432.055 136.693 421.378 115.226 400.722C113.668 399.214 112.209 397.672 110.85 396.081C110.402 395.55 109.955 395.003 109.524 394.472C100.755 383.448 96.3286 370.07 98.3178 354.337C98.583 352.182 98.8814 349.994 99.1964 347.789C104.169 312.859 114.712 273.172 139.942 246.498C144.054 242.138 148.546 238.142 153.486 234.562C154.928 233.517 156.403 232.506 157.912 231.544C158.16 231.428 158.393 231.279 158.608 231.097C165.073 227.019 172.201 223.637 180.092 221.1C190.602 217.685 202.454 215.762 215.815 215.663C217.572 215.646 219.296 215.663 221.004 215.729C253.942 224.665 279.106 247.095 291.389 263.44ZM241.526 293.662C244.079 295.801 258.235 289.584 257.788 286.218C257.755 285.903 257.572 285.605 257.291 285.307C257.274 285.274 257.224 285.224 257.174 285.191C255.799 283.732 251.688 282.787 248.19 283.848C242.686 285.522 239.951 291.789 241.227 293.397C241.261 293.446 241.294 293.48 241.343 293.496C241.393 293.579 241.46 293.612 241.526 293.662ZM182.297 297.558C184.253 296.198 184.319 289.617 180.672 285.986C180.672 285.97 180.672 285.953 180.639 285.937C179.976 285.257 179.18 284.66 178.235 284.229C174.124 282.323 168.587 283.947 167.908 286.451C167.626 287.478 168.107 288.755 169.068 290.098C169.333 290.496 169.665 290.893 170.013 291.291C173.411 295.22 180.059 299.116 182.297 297.558Z" fill="#B27967"/>
<path d="M288.14 244.492L287.958 244.31C287.958 244.31 288.09 244.426 288.14 244.492Z" fill="#B27967"/>
<path d="M287.842 244.177C287.842 244.177 287.925 244.26 287.958 244.309C287.576 243.928 287.195 243.53 286.797 243.166C287.145 243.481 287.494 243.829 287.842 244.177Z" fill="#B27967"/>
<path d="M280.531 223.339L281.194 223.803C278.807 227.317 276.536 230.368 274.547 232.904C266.723 227.384 257.954 222.974 248.107 219.99C256.511 206.28 266.06 184.911 274.763 158.701C267.27 184.944 261.816 221.78 280.531 223.339Z" fill="#935D51"/>
<path d="M274.696 233.003C278.691 235.822 282.421 238.938 285.919 242.287C282.404 238.955 278.658 235.855 274.663 233.037L274.696 233.003Z" fill="#B27967"/>
<path d="M278.758 146.118C277.448 150.428 276.105 154.623 274.763 158.701C276.072 154.092 277.432 149.815 278.758 146.118Z" fill="#B27967"/>
<path d="M274.696 233.003L274.663 233.037C266.806 227.483 257.97 223.057 248.057 220.073C248.09 220.039 248.107 220.023 248.107 219.99C257.954 222.974 266.723 227.383 274.547 232.904L274.696 233.003Z" fill="#B27967"/>
<path d="M257.788 286.218C258.235 289.584 244.079 295.8 241.526 293.662C244.443 295.452 258.119 289.401 257.672 286.086C257.639 285.821 257.506 285.555 257.291 285.307C257.572 285.605 257.755 285.903 257.788 286.218Z" fill="#B27967"/>
<path d="M257.672 286.086C258.119 289.401 244.443 295.452 241.526 293.662C241.459 293.612 241.393 293.579 241.343 293.496C240.117 291.855 242.852 285.655 248.322 283.997C251.704 282.952 255.682 283.814 257.174 285.19C257.224 285.224 257.274 285.273 257.29 285.307C257.506 285.555 257.638 285.82 257.672 286.086Z" fill="#EAB5A7"/>
<path d="M216.528 404.336C238.791 402.148 261.219 383.349 253.03 373.12C261.534 383.316 239.006 402.264 216.644 404.469C204.841 405.646 189.905 402.629 183.274 397.34C189.342 402.015 202.023 404.9 213.063 404.535C214.24 404.519 215.4 404.452 216.528 404.336Z" fill="#B27967"/>
<path d="M253.03 373.12C261.219 383.349 238.791 402.148 216.528 404.336C215.401 404.452 214.24 404.519 213.063 404.535L212.947 399.678C223.242 399.678 232.889 390.461 231.646 374.927C239.454 369.871 246.151 365.991 252.566 372.606C252.732 372.772 252.881 372.954 253.03 373.12Z" fill="#472B28"/>
<path d="M231.546 374.994C226.043 378.541 220.009 382.669 213.13 384.095C213.13 384.095 213.118 384.1 213.096 384.111C211.72 384.393 210.295 384.576 208.853 384.625C203.415 384.791 198.061 383.946 193.403 383.73C188.165 383.481 183.788 384.045 181.202 387.742C179.18 390.627 179.545 393.312 181.484 395.633C179.429 393.262 179.014 390.544 181.07 387.609C185.96 380.613 197.166 384.841 208.72 384.476L209.715 384.426C209.715 384.426 209.798 384.41 209.847 384.41C228.215 382.967 240.796 360.488 252.45 372.474C252.5 372.523 252.533 372.557 252.566 372.606C246.151 365.992 239.454 369.871 231.646 374.911C231.646 374.911 231.58 374.96 231.546 374.994Z" fill="#B27967"/>
<path d="M257.174 285.191C255.682 283.815 251.704 282.953 248.322 283.997C242.852 285.655 240.117 291.855 241.343 293.497C241.294 293.48 241.26 293.447 241.227 293.397C239.951 291.789 242.686 285.523 248.19 283.848C251.687 282.787 255.798 283.732 257.174 285.191Z" fill="#B27967"/>
<path d="M248.107 219.99C248.107 219.99 248.09 220.04 248.057 220.073C239.818 217.569 230.817 216.077 221.004 215.729L220.457 215.58C230.436 215.895 239.57 217.404 247.941 219.94C247.991 219.957 248.057 219.973 248.107 219.99Z" fill="#B27967"/>
<path d="M231.646 374.927C232.889 390.461 223.241 399.678 212.947 399.678C208.703 399.678 204.36 398.12 200.63 394.771C205.123 398.7 210.46 400.109 215.434 399.347C224.634 397.921 232.591 389.085 231.546 374.994C231.579 374.96 231.613 374.944 231.646 374.927Z" fill="#B27967"/>
<path d="M231.546 374.994C232.591 389.085 224.634 397.921 215.434 399.347V399.264C216.146 396.23 215.715 388.521 213.129 384.095C220.009 382.669 226.043 378.541 231.546 374.994Z" fill="#EAD0D0"/>
<path d="M220.457 215.58L221.004 215.729C219.296 215.679 217.572 215.646 215.815 215.663C202.454 215.762 190.601 217.685 180.092 221.1C180.075 221.051 180.042 221.001 180.025 220.951C190.519 217.553 202.354 215.63 215.699 215.53C217.307 215.514 218.898 215.53 220.457 215.58Z" fill="#B27967"/>
<path d="M208.753 368.777H208.704C207.692 368.843 206.665 368.677 205.687 368.346C205.769 368.346 205.852 368.329 205.935 368.312C206.797 368.561 207.692 368.677 208.571 368.627C214.804 368.246 218.815 364.334 217.423 360.886C217.406 360.836 217.373 360.769 217.34 360.72C217.44 360.819 217.506 360.919 217.556 361.018C218.931 364.45 214.953 368.362 208.753 368.777Z" fill="#B27967"/>
<path d="M217.423 360.886C218.815 364.334 214.804 368.246 208.571 368.628C207.692 368.677 206.797 368.561 205.935 368.313C211.87 367.915 215.5 361.864 214.439 359.841C215.666 359.941 216.66 360.173 217.191 360.571C217.257 360.604 217.29 360.67 217.34 360.72C217.373 360.77 217.406 360.836 217.423 360.886Z" fill="#EAA0A0"/>
<path d="M197.265 391.074C195.773 389.085 194.464 386.714 193.386 383.962V383.73C198.061 383.945 203.415 384.791 208.853 384.625C210.295 384.575 211.72 384.393 213.096 384.111C213.096 384.111 213.107 384.106 213.129 384.095C215.715 388.521 216.146 396.23 215.417 399.264V399.346C210.46 400.109 205.123 398.7 200.63 394.771C200.431 394.589 200.233 394.39 200.017 394.207C199.818 394.025 199.619 393.826 199.42 393.627C198.674 392.848 197.945 392.002 197.265 391.074Z" fill="white"/>
<path d="M217.191 360.571C216.66 360.173 215.666 359.941 214.439 359.841C209.698 359.443 201.194 360.886 200.133 362.179C199.619 362.809 199.868 363.77 200.597 364.781C199.768 363.737 199.486 362.693 200.017 362.046C201.376 360.372 215.052 358.449 217.191 360.571Z" fill="#B27967"/>
<path d="M214.439 359.841C215.5 361.864 211.869 367.915 205.935 368.313C204.393 367.882 202.935 367.036 201.824 366.091C201.642 365.942 201.476 365.776 201.31 365.61C201.161 365.461 201.012 365.312 200.879 365.146C200.763 365.03 200.663 364.914 200.597 364.781C199.868 363.77 199.619 362.809 200.133 362.179C201.194 360.886 209.698 359.443 214.439 359.841Z" fill="#FCB9B9"/>
<path d="M212.947 399.678L213.063 404.535C202.023 404.9 189.342 402.015 183.274 397.34C183.026 397.141 182.794 396.943 182.562 396.744C182.164 396.379 181.799 396.014 181.484 395.633C179.545 393.312 179.18 390.626 181.202 387.742C183.788 384.045 188.165 383.481 193.403 383.73V383.962C194.464 386.714 195.773 389.085 197.265 391.074C197.945 392.002 198.674 392.848 199.42 393.627C199.619 393.826 199.818 394.025 200.017 394.207C200.233 394.39 200.432 394.588 200.63 394.771C204.36 398.12 208.703 399.678 212.947 399.678Z" fill="#472B28"/>
<path d="M211.936 432.735C211.521 432.784 211.107 432.818 210.693 432.851C173.925 431.939 136.395 421.213 115.226 400.723C136.693 421.379 174.804 432.055 211.936 432.735Z" fill="#B27967"/>
<path d="M205.935 368.312C205.852 368.329 205.77 368.345 205.687 368.345C204.211 367.865 202.852 367.036 201.824 366.091C202.935 367.036 204.394 367.881 205.935 368.312Z" fill="#B27967"/>
<path d="M201.31 365.61C201.476 365.776 201.642 365.942 201.824 366.091C201.625 365.942 201.459 365.776 201.31 365.61Z" fill="#B27967"/>
<path d="M200.879 365.146C201.012 365.312 201.161 365.461 201.31 365.61C201.144 365.444 201.012 365.295 200.879 365.146Z" fill="#B27967"/>
<path d="M182.562 396.744C182.794 396.943 183.026 397.141 183.274 397.34C183.026 397.158 182.777 396.943 182.562 396.744Z" fill="#B27967"/>
<path d="M180.672 285.986C184.319 289.617 184.252 296.198 182.296 297.558C180.058 299.116 173.411 295.22 170.013 291.291C173.461 295.187 179.975 298.95 182.164 297.425C184.087 296.082 184.203 289.65 180.672 285.986Z" fill="#B27967"/>
<path d="M180.672 285.986C184.203 289.65 184.087 296.082 182.164 297.425C179.976 298.95 173.461 295.187 170.013 291.291C169.665 290.893 169.333 290.495 169.068 290.098C168.19 288.821 167.759 287.578 168.024 286.6C168.72 284.08 174.24 282.472 178.351 284.362C179.23 284.776 179.992 285.307 180.639 285.937C180.655 285.953 180.672 285.97 180.672 285.986Z" fill="#EAB5A7"/>
<path d="M180.025 220.951C180.025 220.951 180.075 221.051 180.092 221.1C172.201 223.637 165.073 227.019 158.608 231.097C158.774 230.948 158.939 230.782 159.089 230.583C165.404 226.671 172.367 223.405 180.025 220.951Z" fill="#B27967"/>
<path d="M180.639 285.937C179.992 285.307 179.23 284.776 178.351 284.362C174.24 282.472 168.72 284.08 168.024 286.6C167.758 287.578 168.189 288.821 169.068 290.098C168.107 288.755 167.626 287.479 167.908 286.451C168.587 283.947 174.124 282.323 178.235 284.229C179.18 284.66 179.976 285.257 180.639 285.937Z" fill="#B27967"/>
<path d="M161.625 316.324C171.124 327.034 178.003 344.49 175.119 352.812C174.87 353.509 174.505 354.172 173.991 354.768C173.975 354.702 173.958 354.619 173.942 354.553C174.406 353.973 174.771 353.343 175.003 352.68C177.721 344.822 171.737 328.841 163.084 318.065H163.067C163.067 318.065 163.001 317.965 162.968 317.916C162.537 317.369 162.089 316.855 161.642 316.341L161.625 316.324Z" fill="#B27967"/>
<path d="M163.084 318.065C171.737 328.841 177.721 344.822 175.003 352.68C174.771 353.343 174.406 353.973 173.942 354.553C170.941 337.428 158.343 327.514 145.214 324.796C150.502 318.032 157.597 314.153 163.067 318.048H163.084V318.065Z" fill="#6B3D34"/>
<path d="M173.942 354.553C173.942 354.553 173.975 354.702 173.991 354.768C170.394 359.145 160.68 360.935 150.668 360.073H150.635C150.353 360.007 150.071 359.941 149.806 359.874C150.087 359.907 150.369 359.941 150.651 359.957H150.668C160.713 360.803 170.444 358.979 173.942 354.553Z" fill="#B27967"/>
<path d="M130.692 33.8028C130.642 33.6867 130.609 33.6039 130.56 33.5044C140.058 50.9941 148.297 75.4963 151.877 105.519C158.11 157.69 168.438 197.212 180.025 220.951C172.367 223.405 165.404 226.671 159.088 230.583C165.056 222.941 150.402 181.877 147.269 111.205C146.54 94.6604 141.401 58.8686 130.692 33.8028Z" fill="#935D51"/>
<path d="M162.967 317.916C162.967 317.916 163.034 317.999 163.067 318.048C157.597 314.152 150.502 318.048 145.214 324.796L145.015 324.746C150.319 317.932 157.464 314.003 162.951 317.899L162.967 317.916Z" fill="#B27967"/>
<path d="M161.625 316.324C162.072 316.838 162.52 317.352 162.951 317.899C157.464 314.003 150.319 317.932 145.015 324.746C138.152 323.37 131.14 323.95 125.305 326.486C130.046 315.396 140.042 306.062 148.313 307.488C152.06 308.135 155.873 310.555 159.42 314.003C160.166 314.733 160.895 315.512 161.625 316.324Z" fill="#EAD0D0"/>
<path d="M147.27 111.205C150.403 181.877 165.057 222.94 159.089 230.583C157.133 231.793 155.226 233.07 153.386 234.412C144.136 219.874 129.549 192.52 131.853 153.28C133.378 126.954 132.864 104.242 130.56 82.691V82.6579C129.665 74.1865 128.488 65.8976 127.046 57.6417C123.996 40.7654 114.132 11.0411 99.2959 3.23291C104.203 3.34896 110.071 6.7143 116.105 12.9642C116.155 13.0139 116.204 13.0636 116.238 13.1134C116.884 13.7931 117.547 14.5059 118.194 15.2519C119.271 16.4787 120.349 17.8049 121.41 19.1975C122.272 20.3082 123.117 21.4852 123.979 22.7286C124.625 23.6735 125.272 24.6516 125.918 25.6463C125.952 25.7126 125.985 25.7624 126.034 25.8121C127.609 28.2822 129.168 30.9512 130.693 33.7861C141.401 58.8685 146.54 94.6603 147.27 111.205Z" fill="#B27967"/>
<path d="M159.089 230.583C158.94 230.782 158.774 230.948 158.608 231.097C158.376 231.23 158.144 231.379 157.912 231.545C156.403 232.506 154.928 233.517 153.486 234.562L153.386 234.413C155.226 233.07 157.133 231.793 159.089 230.583Z" fill="#B27967"/>
<path d="M157.912 231.544C158.144 231.379 158.376 231.229 158.608 231.097C158.392 231.279 158.16 231.428 157.912 231.544Z" fill="#B27967"/>
<path d="M173.941 354.553C170.444 358.979 160.713 360.803 150.667 359.957H150.651C146.208 358.996 143.059 357.106 140.97 354.636C140.821 354.47 140.688 354.304 140.572 354.138C134.754 346.297 138.55 333.283 145.214 324.795C158.343 327.514 170.941 337.428 173.941 354.553Z" fill="#7F4D40"/>
<path d="M153.386 234.413L153.486 234.562C148.546 238.143 144.053 242.138 139.942 246.498C139.909 246.448 139.876 246.415 139.826 246.365C143.937 242.005 148.446 237.993 153.37 234.413H153.386Z" fill="#B27967"/>
<path d="M153.386 234.412H153.369C144.12 219.907 129.432 192.52 131.72 153.147C133.212 127.683 132.764 105.602 130.659 84.6968V84.6305C130.642 83.9508 130.609 83.3043 130.56 82.6909C132.864 104.242 133.378 126.954 131.853 153.28C129.548 192.52 144.136 219.873 153.386 234.412Z" fill="#B27967"/>
<path d="M150.651 359.957C150.369 359.941 150.088 359.907 149.806 359.874C145.778 358.846 142.91 356.99 140.97 354.636C143.059 357.106 146.209 358.996 150.651 359.957Z" fill="#B27967"/>
<path d="M149.806 359.874C150.071 359.941 150.353 360.007 150.635 360.073C141.6 359.311 132.35 356.393 127.195 351.254C132.251 356.178 141.086 359.029 149.806 359.874Z" fill="#B27967"/>
<path d="M159.42 314.003C155.873 310.555 152.06 308.135 148.314 307.488C140.042 306.062 130.046 315.396 125.305 326.486H125.288C122.387 333.283 121.426 340.727 124.045 346.761C124.41 347.607 124.874 348.419 125.421 349.198C124.824 348.386 124.327 347.524 123.929 346.629C117.05 330.73 134.853 305.035 148.181 307.356C151.977 308.019 155.84 310.489 159.42 314.003Z" fill="#B27967"/>
<path d="M145.015 324.746L145.214 324.795C138.55 333.283 134.754 346.297 140.572 354.138C134.605 346.33 138.368 333.283 145.015 324.746Z" fill="#B27967"/>
<path d="M140.97 354.636C142.91 356.99 145.777 358.847 149.806 359.875C141.086 359.029 132.251 356.178 127.195 351.254C126.532 350.607 125.935 349.911 125.421 349.198C124.874 348.419 124.41 347.607 124.045 346.761C121.426 340.727 122.387 333.284 125.288 326.487H125.305C131.14 323.95 138.152 323.37 145.015 324.746C138.367 333.284 134.605 346.33 140.572 354.139C140.688 354.304 140.821 354.47 140.97 354.636Z" fill="white"/>
<path d="M153.37 234.412C148.446 237.993 143.937 242.005 139.826 246.348C139.412 245.834 138.964 245.321 138.5 244.79C137.937 244.143 137.356 243.48 136.726 242.801C139.926 236.435 130.245 200.626 128.007 192.802C120.266 165.564 131.339 107.011 130.659 84.6968C132.765 105.602 133.212 127.683 131.72 153.147C129.433 192.52 144.12 219.907 153.37 234.412Z" fill="#EAA0A0"/>
<path d="M139.826 246.365C139.826 246.365 139.909 246.448 139.942 246.498C114.712 273.172 104.169 312.859 99.1961 347.789C99.1464 347.773 99.1133 347.756 99.0635 347.739C99.0469 347.706 99.0635 347.69 99.0635 347.657C104.037 312.727 114.596 273.039 139.826 246.365Z" fill="#B27967"/>
<path d="M138.5 244.79C137.937 244.144 137.34 243.48 136.727 242.801C137.356 243.48 137.937 244.144 138.5 244.79Z" fill="#B27967"/>
<path d="M130.659 84.6309V84.6972C131.339 107.011 120.265 165.564 128.007 192.802C130.245 200.627 139.926 236.435 136.726 242.801C136.478 242.536 136.212 242.254 135.947 241.956C135.433 241.392 134.886 240.828 134.306 240.231C132.499 238.325 130.493 236.286 128.338 234.147L127.261 233.07C126.183 231.976 125.056 230.865 123.896 229.721C123.133 228.958 122.354 228.179 121.558 227.4C121.161 226.986 120.763 226.588 120.365 226.207C117.53 223.339 114.563 220.321 111.529 217.138C110.717 216.276 109.888 215.398 109.059 214.519C106.871 212.148 104.633 209.695 102.396 207.142C100.688 205.186 98.9641 203.163 97.2567 201.074C97.207 201.041 97.1738 200.991 97.1407 200.942C95.4332 198.87 93.7258 196.714 92.035 194.509C82.553 182.126 73.618 167.819 67.037 151.274C40.6465 84.9127 75.9388 4.24439 98.5165 3.23314C98.7818 3.21656 99.0304 3.21656 99.2956 3.23314C114.132 11.0413 123.995 40.7656 127.045 57.642C128.488 65.8978 129.665 74.1868 130.56 82.6581V82.6912C130.609 83.3046 130.643 83.9512 130.659 84.6309Z" fill="#FCB9B9"/>
<path d="M135.947 241.956C135.4 241.392 134.87 240.812 134.306 240.231C134.886 240.828 135.433 241.392 135.947 241.956Z" fill="#B27967"/>
<path d="M130.56 33.5042C130.609 33.6036 130.643 33.6865 130.692 33.786C129.167 30.9512 127.609 28.2821 126.034 25.812C127.576 28.1992 129.084 30.7522 130.56 33.4876V33.5042Z" fill="#B27967"/>
<path d="M125.919 25.6462C125.272 24.6515 124.626 23.6735 123.979 22.7285C124.642 23.6569 125.289 24.635 125.919 25.6462Z" fill="#B27967"/>
<path d="M121.409 19.1978C122.271 20.3251 123.133 21.5021 123.979 22.7289C123.117 21.4855 122.271 20.3085 121.409 19.1978Z" fill="#B27967"/>
<path d="M121.559 227.4L120.365 226.207C120.763 226.588 121.161 226.986 121.559 227.4Z" fill="#B27967"/>
<path d="M118.193 15.2518C117.547 14.5058 116.884 13.793 116.237 13.1133C116.9 13.793 117.547 14.5058 118.193 15.2518Z" fill="#B27967"/>
<path d="M109.524 394.473C109.955 395.003 110.402 395.55 110.85 396.081C110.386 395.55 109.938 395.02 109.524 394.473Z" fill="#B27967"/>
<path d="M111.53 217.138C110.701 216.276 109.888 215.398 109.06 214.519C109.888 215.398 110.717 216.276 111.53 217.138Z" fill="#B27967"/>
<path d="M99.2957 3.23299C99.0305 3.21641 98.7818 3.21641 98.5166 3.23299C75.9388 4.24424 40.6466 84.9125 67.0371 151.274C73.6181 167.819 82.5531 182.126 92.0351 194.509C82.4868 182.092 73.5186 167.719 66.921 151.141C40.5306 84.7799 75.8228 4.09505 98.384 3.08379C103.49 2.8517 109.706 6.28335 116.105 12.9643C110.071 6.71438 104.203 3.34904 99.2957 3.23299Z" fill="#B27967"/>
<path d="M98.7323 371.827C98.7323 371.827 98.7323 371.744 98.6991 371.694C97.6216 366.224 97.4062 360.388 98.1853 354.188C98.4505 352.066 98.7489 349.911 99.0638 347.739C99.1136 347.756 99.1467 347.772 99.1965 347.789C98.8815 349.994 98.5831 352.182 98.3179 354.337C96.3287 370.07 100.755 383.448 109.524 394.472C104.153 387.792 100.407 380.249 98.7323 371.827Z" fill="#B27967"/>
<path d="M92.0352 194.509C93.726 196.714 95.4334 198.869 97.1409 200.942C95.4169 198.869 93.7094 196.714 92.0352 194.509Z" fill="#B27967"/>
<path d="M241.327 333.864C242.255 337.229 224.783 346.098 211.356 347.458C197.066 348.916 183.49 343.877 183.639 340.279C183.937 333.698 239.569 327.481 241.327 333.864Z" fill="#935D51"/>
<path d="M125.288 365.494C133.892 365.494 140.854 369.655 140.854 374.778C140.854 379.9 133.892 384.045 125.288 384.045C116.685 384.045 109.723 379.884 109.723 374.778C109.723 369.672 116.702 365.494 125.288 365.494Z" fill="#E08F82"/>
<path d="M316.951 354.055C319.47 355.696 321.012 357.885 321.012 360.288C321.012 363.687 317.962 366.654 313.387 368.262C314.862 365.262 316.536 356.807 316.951 354.055Z" fill="#D17E75"/>
<path d="M305.447 351.021C310.005 351.021 314.116 352.199 316.951 354.055C316.537 356.807 314.862 365.262 313.387 368.263C311.066 369.091 308.348 369.572 305.447 369.572C296.86 369.572 289.881 365.411 289.881 360.289C289.881 355.166 296.86 351.021 305.447 351.021Z" fill="#E08F82"/>
<path d="M150.27 328.757C151.579 328.757 152.64 327.696 152.64 326.387C152.64 325.077 151.579 324.016 150.27 324.016C148.961 324.016 147.899 325.077 147.899 326.387C147.899 327.696 148.961 328.757 150.27 328.757Z" fill="white"/>
<path d="M332.483 350.011C339.28 398.286 275.807 432.9 215.815 432.9C155.823 432.9 91.7202 406.657 98.3178 354.321C105.877 294.325 128.753 216.326 215.815 215.663C295.898 215.05 324.029 290.048 332.483 350.011Z" stroke="#3F2A25" stroke-linecap="round" stroke-linejoin="round"/>
<path d="M248.057 220.072C261.866 197.576 278.791 154.324 289.964 102.883C303.673 39.7873 336.147 3.77999 352.823 6.13406C375.186 9.28387 402.654 92.9528 370.08 156.513C346.458 202.583 304.303 227.98 287.974 244.326" stroke="#3F2A25" stroke-linecap="round" stroke-linejoin="round"/>
<path d="M319.238 57.5923C311.381 86.2556 306.739 115.615 305.38 152.352C303.921 191.758 285.272 219.492 274.68 233.053" stroke="#3F2A25" stroke-linecap="round" stroke-linejoin="round"/>
<path d="M180.092 221.084C168.488 197.377 158.111 157.789 151.878 105.502C144.236 41.3956 115.326 2.45397 98.5 3.19998C75.9388 4.21124 40.63 84.8961 67.0204 151.258C86.1502 199.367 125.205 228.66 139.926 246.481" stroke="#3F2A25" stroke-linecap="round" stroke-linejoin="round"/>
<path d="M127.045 57.6421C132.135 86.9187 133.975 116.593 131.836 153.28C129.549 192.653 144.236 220.04 153.486 234.545" stroke="#3F2A25" stroke-linecap="round" stroke-linejoin="round"/>
<path d="M175.119 352.812C179.246 340.86 163.266 310.074 148.297 307.488C134.969 305.184 117.149 330.863 124.029 346.761C130.908 362.66 171.107 364.384 175.102 352.812H175.119Z" stroke="#3F2A25" stroke-linecap="round" stroke-linejoin="round"/>
<path d="M163.084 318.065C148.297 307.488 121.575 353.824 150.8 360.107" stroke="#3F2A25" stroke-linecap="round" stroke-linejoin="round"/>
<path d="M182.296 297.558C184.601 295.95 184.302 287.097 178.351 284.362C174.24 282.472 168.72 284.097 168.024 286.6C166.847 290.877 179.097 299.779 182.296 297.558Z" stroke="#3F2A25" stroke-linecap="round" stroke-linejoin="round"/>
<path d="M241.343 293.53C240.067 291.938 242.802 285.655 248.306 283.981C252.483 282.704 257.523 284.296 257.788 286.219C258.252 289.667 243.399 296.099 241.343 293.53Z" stroke="#3F2A25" stroke-linecap="round" stroke-linejoin="round"/>
<path d="M208.704 368.777C214.937 368.395 218.948 364.483 217.556 361.018C216.511 358.399 201.576 360.421 200.133 362.179C198.608 364.052 203.863 369.075 208.704 368.777Z" stroke="#3F2A25" stroke-linecap="round" stroke-linejoin="round"/>
<path d="M209.831 384.559C210.543 379.304 209.366 370.733 208.836 368.777" stroke="#3F2A25" stroke-linecap="round" stroke-linejoin="round"/>
<path d="M99.1796 347.789C69.5235 335.82 30.4186 333.897 3.54736 340.544" stroke="#3F2A25" stroke-linecap="round" stroke-linejoin="round"/>
<path d="M23.0918 383.863C49.5486 374.529 76.37 369.97 98.8152 371.827" stroke="#3F2A25" stroke-linecap="round" stroke-linejoin="round"/>
<path d="M331.737 345.037C361.393 333.068 400.25 331.162 427.121 337.809" stroke="#3F2A25" stroke-linecap="round" stroke-linejoin="round"/>
<path d="M407.577 381.127C381.12 371.794 354.299 367.235 331.854 369.092" stroke="#3F2A25" stroke-linecap="round" stroke-linejoin="round"/>
<path d="M287.676 308.218C269.905 320.999 257.954 333.748 257.804 339.252C257.672 343.943 278.177 343.313 295.815 340.412" stroke="#3F2A25" stroke-linecap="round" stroke-linejoin="round"/>
<path d="M252.566 372.606C240.697 360.372 227.817 384.029 208.853 384.609C197.298 384.974 186.092 380.746 181.202 387.742C173.743 398.418 198.79 406.226 216.66 404.469C239.404 402.231 262.33 382.653 252.582 372.606H252.566Z" stroke="#3F2A25" stroke-linecap="round" stroke-linejoin="round"/>
<path d="M193.502 384.095C203.548 409.708 233.801 401.701 231.646 374.911" stroke="#3F2A25" stroke-linecap="round" stroke-linejoin="round"/>
<path d="M213.129 384.095C215.699 388.522 216.146 396.23 215.417 399.247" stroke="#3F2A25" stroke-linecap="round" stroke-linejoin="round"/>
</svg>
