<svg width="432" height="263" viewBox="0 0 432 263" fill="none" xmlns="http://www.w3.org/2000/svg">
<path d="M408.548 155.622C410.688 153.485 413.568 152.211 416.736 152.211H426.98C427.351 153.526 427.515 154.882 427.515 156.403L427.803 175.47H416.736C410.359 175.47 405.133 170.21 405.133 163.8C405.133 160.635 406.409 157.718 408.548 155.622Z" fill="#BC7171"/>
<path d="M427.803 175.47L428.132 199.387C428.132 210.318 419.204 219.235 408.26 219.235H352.8V218.29C352.8 200.784 340.992 186.072 324.946 181.593C321.655 180.648 318.199 180.155 314.619 180.155C293.513 180.155 276.398 197.209 276.398 218.29V219.235H137.952C137.54 202.017 125.65 187.593 109.645 183.319C106.477 182.497 103.186 182.045 99.7712 182.045C78.9941 182.045 62.0432 198.647 61.5495 219.235H22.6695C11.7666 219.235 2.83862 210.318 2.83862 199.387V152.951H21.0238C24.1918 152.951 27.1541 151.677 29.2523 149.581C31.3506 147.403 32.6261 144.527 32.6261 141.362H418.628C422.743 143.992 425.828 147.526 426.98 152.17H416.736C413.568 152.17 410.688 153.485 408.548 155.622C406.409 157.718 405.133 160.635 405.133 163.8C405.133 170.21 410.359 175.47 416.736 175.47H427.803Z" fill="#BC7171"/>
<path d="M332.064 218.29C332.064 227.865 324.329 235.631 314.784 235.714C322.025 227.577 325.769 216.564 326.839 205.88C330.048 209.003 332.064 213.441 332.064 218.29Z" fill="#BC7171"/>
<path d="M352.8 219.235C352.306 239.864 335.355 256.425 314.619 256.425C305.65 256.425 297.38 253.343 290.88 248.165C301.289 246.727 309.106 242.083 314.784 235.714C324.329 235.631 332.064 227.865 332.064 218.29C332.064 213.441 330.048 209.003 326.839 205.88C327.744 197.168 326.921 188.62 324.823 182.045L324.946 181.593C340.992 186.072 352.8 200.784 352.8 218.29V219.235Z" fill="#BC7171"/>
<path d="M297.175 218.29C297.175 208.674 304.992 200.866 314.619 200.866C319.392 200.866 323.671 202.798 326.839 205.88C325.769 216.564 322.025 227.577 314.784 235.714H314.619C304.992 235.714 297.175 227.906 297.175 218.29Z" fill="#BC7171"/>
<path d="M290.88 248.165C282.281 241.385 276.685 230.988 276.397 219.235V218.29C276.397 197.209 293.513 180.155 314.619 180.155C318.199 180.155 321.655 180.648 324.946 181.593L324.823 182.045C326.921 188.62 327.744 197.168 326.839 205.88C323.671 202.798 319.392 200.866 314.619 200.866C304.992 200.866 297.175 208.674 297.175 218.29C297.175 227.906 304.992 235.714 314.619 235.714H314.784C309.106 242.083 301.289 246.727 290.88 248.165Z" fill="#BC7171"/>
<path d="M270.02 97.7209L170.578 97.4332V97.1456L170.496 25.8479C218.098 25.8479 258.171 56.2984 270.02 97.7209Z" fill="#BC7171"/>
<path d="M170.578 97.1456V97.4332L71.1358 97.1456C83.1906 56.0518 123.099 25.8479 170.496 25.8479L170.578 97.1456Z" fill="#BC7171"/>
<path d="M137.952 220.18C137.952 241.261 120.836 258.356 99.7712 258.356C90.5963 258.356 82.162 255.11 75.5792 249.727L75.6615 249.603C85.8649 248.206 93.5586 243.727 99.1952 237.563C99.4009 237.604 99.5655 237.604 99.7712 237.604C109.399 237.604 117.216 229.837 117.216 220.18C117.216 215.126 115.076 210.564 111.62 207.4C112.525 198.647 111.703 190.1 109.604 183.484V183.319C125.65 187.593 137.54 202.017 137.952 219.235V220.18Z" fill="#BC7171"/>
<path d="M99.1952 237.563C106.683 229.385 110.509 218.249 111.62 207.4C115.076 210.564 117.216 215.126 117.216 220.18C117.216 229.837 109.399 237.604 99.7712 237.604C99.5655 237.604 99.4009 237.604 99.1952 237.563Z" fill="#BC7171"/>
<path d="M111.62 207.4C110.509 218.249 106.683 229.385 99.1952 237.563C89.8146 237.275 82.3266 229.632 82.3266 220.18C82.3266 210.729 90.1026 202.756 99.7712 202.756C104.338 202.756 108.493 204.524 111.62 207.4Z" fill="#BC7171"/>
<path d="M75.5792 249.727C67.0215 242.741 61.5495 232.097 61.5495 220.18V219.235C62.0432 198.647 78.9941 182.045 99.7712 182.045C103.186 182.045 106.477 182.497 109.645 183.319V183.484C111.703 190.1 112.525 198.647 111.62 207.4C108.493 204.524 104.338 202.756 99.7712 202.756C90.1026 202.756 82.3266 210.564 82.3266 220.18C82.3266 229.796 89.8146 237.275 99.1952 237.563C93.5586 243.727 85.8649 248.206 75.6615 249.603L75.5792 249.727Z" fill="#BC7171"/>
<path d="M21.0238 152.951H2.83862V141.362H32.6261C32.6261 144.527 31.3506 147.403 29.2523 149.581C27.1541 151.677 24.1918 152.951 21.0238 152.951Z" fill="#BC7171"/>
<path d="M32.6261 141.362H2.83862V129.733H21.0238C27.4421 129.733 32.6261 134.911 32.6261 141.362Z" fill="#BC7171"/>
<path d="M21.0238 129.733H2.83862V128.664C2.83862 117.733 11.7666 108.816 22.6695 108.816L30.8158 108.405C48.4661 48.0385 107.095 3.73944 176.708 3.73944C246.322 3.73944 305.444 48.4494 322.807 109.227L407.684 136.554C411.675 137.746 415.46 139.267 418.628 141.362H32.6261C32.6261 134.911 27.4421 129.733 21.0238 129.733ZM170.578 97.4332L270.02 97.7208C258.171 56.2983 218.098 25.8479 170.496 25.8479C122.893 25.8479 83.1906 56.0518 71.1358 97.1455L170.578 97.4332Z" fill="#BC7171"/>
<path d="M416.736 175.47C410.359 175.47 405.133 170.21 405.133 163.8C405.133 160.594 406.409 157.718 408.507 155.622C410.605 153.526 413.568 152.17 416.736 152.17H426.98C427.351 153.485 427.515 154.882 427.515 156.403L427.803 175.47H416.736Z" fill="#E2E2E2"/>
<path d="M32.6261 141.321H418.628C422.743 143.992 425.828 147.526 426.98 152.17H416.736C413.568 152.17 410.647 153.485 408.507 155.622C406.368 157.759 405.133 160.594 405.133 163.8C405.133 170.21 410.359 175.47 416.736 175.47H427.803L428.132 199.387C428.132 210.318 419.204 219.235 408.26 219.235H352.8V218.29C352.8 200.784 341.033 186.031 324.946 181.552C321.655 180.607 318.158 180.114 314.578 180.114C293.513 180.114 276.398 197.209 276.398 218.29V219.235H137.952C137.54 202.017 125.65 187.634 109.645 183.36C106.477 182.497 103.186 182.045 99.7301 182.045C78.9941 182.045 62.0432 198.647 61.5495 219.235H22.6695C11.7666 219.235 2.83862 210.318 2.83862 199.387V152.951H20.9826C24.1918 152.951 27.1129 151.636 29.2112 149.54C31.3095 147.403 32.6261 144.527 32.6261 141.321Z" fill="#BCB7B7"/>
<path d="M352.8 218.29V219.235C352.306 239.823 335.355 256.425 314.578 256.425C305.609 256.425 297.38 253.343 290.88 248.165C301.289 246.727 309.065 242.083 314.701 235.714C324.329 235.632 332.023 227.865 332.023 218.29C332.023 213.441 330.048 209.044 326.839 205.88C327.744 197.168 326.921 188.661 324.823 182.045L324.946 181.552C341.033 186.031 352.8 200.784 352.8 218.29Z" fill="#4F4A41"/>
<path d="M326.839 205.88C330.048 209.044 332.023 213.441 332.023 218.29C332.023 227.865 324.329 235.631 314.702 235.714C322.025 227.536 325.728 216.564 326.839 205.88Z" fill="#CCCAC6"/>
<path d="M276.397 219.235V218.29C276.397 197.209 293.513 180.114 314.578 180.114C318.157 180.114 321.655 180.607 324.946 181.552L324.823 182.045C326.921 188.661 327.744 197.168 326.839 205.88C323.671 202.798 319.351 200.866 314.578 200.866C304.951 200.866 297.133 208.674 297.133 218.29C297.133 227.906 304.951 235.714 314.578 235.714H314.701C309.065 242.083 301.289 246.727 290.88 248.165C282.281 241.344 276.685 230.947 276.397 219.235Z" fill="#8E8C87"/>
<path d="M314.578 200.866C319.351 200.866 323.671 202.798 326.839 205.88C325.728 216.564 322.025 227.536 314.701 235.714H314.578C304.951 235.714 297.133 227.906 297.133 218.29C297.133 208.674 304.951 200.866 314.578 200.866Z" fill="#E2E2E2"/>
<path d="M269.979 97.6798L170.578 97.4332V97.1456L170.496 25.8479C218.098 25.8479 258.171 56.2984 269.979 97.6798Z" fill="#9FC9D3"/>
<path d="M170.578 97.1456V97.4332L71.1358 97.1456C83.1495 56.0107 123.099 25.8479 170.496 25.8479L170.578 97.1456Z" fill="#9FC9D3"/>
<path d="M137.952 220.18C137.952 241.261 120.836 258.356 99.7301 258.356C90.5552 258.356 82.162 255.11 75.5792 249.727L75.6615 249.603C85.8238 248.206 93.5175 243.727 99.1129 237.563C99.3186 237.604 99.5243 237.604 99.7301 237.604C109.357 237.604 117.175 229.796 117.175 220.18C117.175 215.167 115.035 210.605 111.62 207.441C112.525 198.688 111.703 190.1 109.604 183.484V183.36C125.65 187.634 137.54 202.017 137.952 219.235V220.18Z" fill="#4F4A41"/>
<path d="M117.175 220.18C117.175 229.796 109.357 237.604 99.7301 237.604C99.5243 237.604 99.3186 237.604 99.1129 237.563C106.642 229.385 110.468 218.29 111.62 207.441C115.035 210.605 117.175 215.167 117.175 220.18Z" fill="#CCCAC6"/>
<path d="M111.62 207.441C110.468 218.29 106.642 229.385 99.1129 237.563C89.7735 237.275 82.2855 229.591 82.2855 220.18C82.2855 210.77 90.1026 202.756 99.7301 202.756C104.338 202.756 108.493 204.565 111.62 207.441Z" fill="#E2E2E2"/>
<path d="M99.1129 237.563C93.5175 243.727 85.8238 248.206 75.6615 249.603L75.5792 249.727C67.0215 242.741 61.5495 232.097 61.5495 220.18V219.235C62.0432 198.647 78.9941 182.045 99.7301 182.045C103.186 182.045 106.477 182.497 109.645 183.36V183.484C111.703 190.1 112.525 198.688 111.62 207.441C108.493 204.565 104.338 202.756 99.7301 202.756C90.1026 202.756 82.2855 210.564 82.2855 220.18C82.2855 229.796 89.7735 237.275 99.1129 237.563Z" fill="#8E8C87"/>
<path d="M20.9826 152.951H2.83862V141.321H32.6261C32.6261 144.527 31.3095 147.403 29.2112 149.54C27.1129 151.636 24.1918 152.951 20.9826 152.951Z" fill="#FF8585"/>
<path d="M20.9826 129.733C27.4009 129.733 32.6261 134.911 32.6261 141.321H2.83862V129.733H20.9826Z" fill="#E87979"/>
<path d="M20.9826 129.733H2.83862V128.664C2.83862 117.733 11.7666 108.816 22.6695 108.816L30.8158 108.405C48.4661 48.0385 107.095 3.73944 176.708 3.73944C246.322 3.73944 305.444 48.4494 322.807 109.227L407.684 136.554C411.675 137.746 415.419 139.267 418.587 141.321H32.6261C32.6261 134.911 27.4009 129.733 20.9826 129.733ZM170.578 97.4332L269.979 97.6797C258.171 56.2983 218.098 25.8479 170.496 25.8479C122.894 25.8479 83.1495 56.0107 71.1358 97.1455L170.578 97.4332Z" fill="#A09A9A"/>
<path d="M30.7339 108.405C48.3842 48.0385 107.013 3.73944 176.626 3.73944C246.24 3.73944 305.363 48.4494 322.725 109.227" stroke="#3F2A25" stroke-width="0.5" stroke-linecap="round" stroke-linejoin="round"/>
<path d="M322.725 109.227L407.603 136.554C416.819 139.267 424.882 143.951 426.898 152.17C427.269 153.485 427.433 154.882 427.433 156.403L427.721 175.47L428.05 199.387C428.05 210.318 419.123 219.235 408.179 219.235H352.718" stroke="#3F2A25" stroke-width="0.5" stroke-linecap="round" stroke-linejoin="round"/>
<path d="M30.7339 108.405L22.5876 108.816C11.6848 108.816 2.75676 117.733 2.75676 128.664V199.387C2.75676 210.318 11.6848 219.235 22.5876 219.235H61.4676" stroke="#3F2A25" stroke-width="0.5" stroke-linecap="round" stroke-linejoin="round"/>
<path d="M276.357 219.235H137.87" stroke="#3F2A25" stroke-width="0.5" stroke-linecap="round" stroke-linejoin="round"/>
<path d="M99.6893 258.315C120.776 258.315 137.87 241.242 137.87 220.18C137.87 199.119 120.776 182.045 99.6893 182.045C78.6028 182.045 61.5088 199.119 61.5088 220.18C61.5088 241.242 78.6028 258.315 99.6893 258.315Z" stroke="#3F2A25" stroke-width="0.5" stroke-linecap="round" stroke-linejoin="round"/>
<path d="M314.537 256.425C335.624 256.425 352.718 239.351 352.718 218.29C352.718 197.229 335.624 180.155 314.537 180.155C293.451 180.155 276.357 197.229 276.357 218.29C276.357 239.351 293.451 256.425 314.537 256.425Z" stroke="#3F2A25" stroke-width="0.5" stroke-linecap="round" stroke-linejoin="round"/>
<path d="M99.6893 237.604C109.324 237.604 117.134 229.803 117.134 220.18C117.134 210.557 109.324 202.756 99.6893 202.756C90.055 202.756 82.2448 210.557 82.2448 220.18C82.2448 229.803 90.055 237.604 99.6893 237.604Z" stroke="#3F2A25" stroke-width="0.5" stroke-linecap="round" stroke-linejoin="round"/>
<path d="M314.537 235.714C324.172 235.714 331.982 227.913 331.982 218.29C331.982 208.667 324.172 200.866 314.537 200.866C304.903 200.866 297.093 208.667 297.093 218.29C297.093 227.913 304.903 235.714 314.537 235.714Z" stroke="#3F2A25" stroke-width="0.5" stroke-linecap="round" stroke-linejoin="round"/>
<path d="M71.095 97.1456C83.1088 56.0518 123.058 25.8479 170.455 25.8479C217.852 25.8479 258.13 56.2984 269.938 97.6798" stroke="#3F2A25" stroke-width="0.5" stroke-linecap="round" stroke-linejoin="round"/>
<path d="M269.938 97.6797L71.095 97.1455" stroke="#3F2A25" stroke-width="0.5" stroke-linecap="round" stroke-linejoin="round"/>
<path d="M71.095 113.912H96.1099" stroke="#3F2A25" stroke-width="0.5" stroke-linecap="round" stroke-linejoin="round"/>
<path d="M177.326 113.912H202.341" stroke="#3F2A25" stroke-width="0.5" stroke-linecap="round" stroke-linejoin="round"/>
<path d="M170.455 25.8479L170.496 97.1456" stroke="#3F2A25" stroke-width="0.5" stroke-linecap="round" stroke-linejoin="round"/>
<path d="M2.75676 152.951H20.9419C24.1511 152.951 27.0722 151.636 29.1705 149.54C31.2688 147.403 32.5853 144.527 32.5853 141.321C32.5853 134.911 27.3602 129.692 20.9419 129.692H2.75676" stroke="#3F2A25" stroke-width="0.5" stroke-linecap="round" stroke-linejoin="round"/>
<path d="M427.721 175.429H416.695C410.318 175.429 405.052 170.169 405.052 163.759C405.052 160.553 406.368 157.677 408.467 155.581C410.565 153.485 413.486 152.129 416.695 152.129H426.94" stroke="#3F2A25" stroke-width="0.5" stroke-linecap="round" stroke-linejoin="round"/>
</svg>
