<svg xmlns="http://www.w3.org/2000/svg" viewBox="0 0 640 480" xmlns:v="https://vecta.io/nano"><style><![CDATA[.B{fill:#006233}.C{fill:#f7c608}.D{stroke-width:.139}.E{stroke-width:.348}.F{stroke-linejoin:round}.G{stroke-width:1.794}]]></style><path d="M0 0v480h640V0Z" class="B"/><g fill="#fff"><g fill-rule="evenodd" stroke="#fff"><path d="M259.689 248.625c-9.416 12.868-2.618 21.237 7.089 21.833 6.398.43 19.704-8.237 19.668-18.426l-3.636-1.852c2.036 5.227-.073 6.881-4.399 10.453-8.543 7.046-25.994 7.542-18.723-12.008z" class="D"/><g class="E"><path d="M334.326 282.366c53.006 1.356 69.874-45.32 37.155-85.28l-3.236 4.4c2.109 18.624 5.162 36.983 5.453 56.071-6.398 6.848-15.705 4.3-17.559-3.308.109-10.321-3.599-19.054-8.289-27.39l-2.618 4.4c3.054 6.848 6.362 14.555 7.053 22.991-15.124 16.507-31.847 19.848-25.63-1.852-11.961 19.021 6.144 32.418 26.648 3.143 4.399 19.98 21.413 7.575 22.431 3.275 1.854-13.1.909-34.205-2.836-50.877 14.76 23.255 15.269 40.027 7.416 51.241-8.725 12.471-27.703 18.293-45.989 23.189z"/><path d="M364.392 229.604c-11.343.761-17.16-1.356-11.016-8.998 6.071-7.476 11.743-1.522 13.27 8.468 1.418 9.362-19.923 21.304-27.303 21.304-11.161 0-16.323-13.067-6.035-24.81-13.233 34.271 28.575 14.39 31.084 4.036zm-7.853-7.939c-1.381-.066-2.399 2.15-1.709 2.58 2 1.257 5.162.496 5.49-.132.691-1.389-1.854-2.382-3.781-2.448z"/><path d="M302.806 245.78c-10.906 19.517-.036 27.589 13.96 25.339 8.144-1.356 18.468-6.616 24.431-13.794.109-15.812-.145-31.492-1.672-46.808 5.453-5.921-.473-5.888-2.545-12.24-.945 3.705-3.236 7.708-1.018 10.586 1.563 15.448 2.436 31.095 2.399 47.04-10.979 8.038-19.232 11.016-25.121 10.949-12.179-.099-14.796-9.428-10.434-21.072zm22.286 5.16c-.182-14.721-.436-31.426-1.89-41.714 5.671-5.723-.291-5.855-2.145-12.273-1.091 3.639-3.49 7.608-1.381 10.553.945 15.746 1.854 31.492 2.036 47.238 1.309-.761 2.799-1.059 3.381-3.804z"/></g><path d="M282.775 250.246c-1.381-1.588-2.363-3.374-3.49-4.929-.182-2.216 1.454-4.267 1.672-5.392 1.854 2.613 2.945 4.598 4.435 5.888m1.963 1.025c2.727.992 6.071.992 9.161 1.059 11.924.198 24.467-1.588 23.122 13.1-.815 11.409-11.139 20.328-23.703 20.477-15.16-.132-28.102-15.349-4.726-43.368 2.254-.331 5.199.232 7.635.43 4.181.298 8.471-.066 13.379-3.639-.582-9.229-.582-17.962-1.818-26.299-2.109-2.944.291-6.881 1.381-10.553 1.854 6.418 7.78 6.55 2.145 12.306 1.345 9.262 1.491 18.69 1.491 24.314-2.836 3.937-5.053 8.105-13.342 9.692-8.471-1.125-12.288-11.909-21.122-8.336 2.436-9.726 24.867-11.942 27.121-4.267-1.491 8.005-22.431 4.797-27.993 30.665-1.709 7.972 7.525 15.316 17.014 14.721 9.271-.562 19.159-6.418 20.141-16.275.763-8.237-11.997-7.278-17.341-7.178-7.78.165-12.688-.926-15.633-2.481m7.962-17.83c1.381-1.191 6.217-2.018 7.962-.099-1.309.794-2.581 1.654-3.636 2.679-1.818-.86-3.017-1.72-4.326-2.58z" class="D"/><path d="M304.079 206.018c1.204 2.156 1.862 4.529 1.927 6.947-.8 3.44-4.035 6.649-7.38 6.748-2.072.066-4.399-.463-6.035-3.407-.182-.364-1.054-1.224-1.89-.827-3.672 5.491-6.398 7.807-9.707 7.774-6.617-.099-4.653-5.458-10.761-7.112-2.545-.066-6.726 2.283-8.871 6.881-8.144 21.006-15.56-.066-12.397-9.858.473 9.362 2.945 14.919 5.49 14.754 1.854-.165 3.49-4.069 5.853-8.171 1.818-3.143 6.18-8.799 10.797-8.799 4.217.099 1.563 7.145 9.998 7.046 4.072-.066 7.816-2.911 11.597-8.601.836-.132 1.054 1.224 1.236 1.687.582 1.952 4.29 7.311 9.307 2.415-.254-1.059-.145-2.812-1.418-3.176z" class="E"/><g class="D"><path d="M330.581 188.618c-4.472 2.018-7.744.165-9.598-1.621 3.236-.595 5.744-1.654 6.471-3.97-1.454-2.977-4.908-4.267-9.779-4.3-6.508.165-9.852 2.547-10.252 5.822 3.017.099 5.744-.662 6.907 1.985-5.344 2.382-11.634 3.242-18.468 3.209-11.197.529-12.833-4.069-15.778-8.105-.218-.265-1.2-.695-1.709-.629-3.454 0-5.999 10.983-9.889 10.949-3.89-.463-3.017-7.079-4.144-10.85-.945 5.921 1.2 27.953 13.233 4.036.364-.794.873-.562 1.2.099 3.236 6.682 9.816 8.998 16.905 9.329 5.926.298 13.488-2.051 21.595-6.219 2.145 2.15 3.854 4.598 8.362 5.061 5.271.232 10.907-3.242 12.179-7.542.654-2.216.763-6.583-1.818-6.649-3.599-.099-6.217 7.84-5.381 14.985.073-.099.473-1.786.473-1.786m-15.923-9.527c2.363-.992 4.653-1.456 6.471.728a10.42 10.42 0 0 0-3.054 1.323c-1.018-.728-2.399-1.092-3.417-2.051zm17.378 4.929c.582-2.349.909-4.234 3.017-5.458.436 2.481.509 3.87-3.017 5.458zm14.178 3.639c-.691-2.018-1.381-3.771-1.6-5.954-.509-4.433 3.672-6.947 7.453-6.583 3.89.364 6.471 1.687 10.179 2.845 2.908.893 6.835 1.588 10.579 2.547 2.109.86 0 3.11-.545 3.407-9.38 3.341-16.033 8.634-21.995 8.865-3.563.165-6.726-1.952-9.598-6.285-.182-8.402-.509-18.26-1.418-24.446 1.381-1.257 1.672-2.183 2.327-3.209.727 8.171 1.018 16.772 1.2 25.439.763 1.489 1.709 2.746 3.417 3.374zm5.999.662c-5.017 1.29-4.399-2.58-4.872-4.962-.545-2.779-.182-5.921 3.708-5.127 5.053 1.224 9.67 2.845 14.142 4.565z"/><path d="M347.814 196.226l.691 3.076h.545l-.218-2.878"/></g><path d="M267.796 228.38l2.545-2.382 2.945 2.283-2.727 2.216zm6.471-.794l2.581-2.382 2.945 2.283-2.727 2.216zm-17.996-24.678l2.581-2.382 2.945 2.283-2.727 2.216zm1.163 7.013l2.581-2.382 2.908 2.283-2.727 2.216zm46.716 11.743l2.363-1.753 2.181 2.15-2.472 1.588zm-31.193-44.89l1.672-1.555 1.927 1.489-1.781 1.456zm4.254-.496l1.672-1.588 1.927 1.522-1.781 1.422zm89.288 17.764l-1.6 1.224-1.527-1.422 1.672-1.125z" stroke-width="1.39" class="F"/><path d="M291.245 237.94l-.182 2.613 4.581.397 3.672-2.514z" class="D"/><path d="M329.963 189.114l1.345-.265-.145 3.407-.836.298z" class="E"/></g><path d="M320 326.3c51.6 0 93.6-38.2 93.6-85.2a81.9 81.9 0 0 0-32.6-64.4 70.2 70.2 0 0 1 19.2 48c0 40.8-35.9 73.9-80.2 73.9s-80.2-33.1-80.2-74c0-18.3 7.2-35.1 19.2-48a81.8 81.8 0 0 0-32.6 64.6c0 46.9 42 85.1 93.6 85.1z"/><g stroke="#000" class="G"><path d="M307.333 373.729c-20.643 9.392-46.447 6.83-68.263-5.977-.938-.427-1.407.213-.469 2.561 2.346 6.19 4.222 11.099-2.815 20.278-3.05 4.056.469 4.696 5.63 4.269 26.273-2.348 52.077-7.684 64.51-12.167zm-.469 11.099c-8.21 2.988-22.285 6.617-38.002 9.178-6.334.854-6.099 4.482 5.161 5.763 11.494 1.067 26.273-6.404 35.187-13.02z"/><path d="M320 364.338c2.815 0 7.976-1.067 13.136-1.708 9.618-1.494 2.58 11.953-13.136 11.953v4.482c15.951 0 32.607-15.795 29.088-22.839-4.926-10.246-18.532-1.494-29.088-1.494s-24.162-8.751-29.088 1.494c-3.519 7.044 13.136 22.839 29.088 22.839v-4.482c-15.717 0-22.754-13.447-13.136-11.953 5.161.64 10.322 1.708 13.136 1.708z"/><path d="M332.667 373.729c20.643 9.392 46.447 6.83 68.263-5.977.938-.427 1.407.213.469 2.561-2.346 6.19-4.222 11.099 2.815 20.278 3.05 4.056-.469 4.696-5.63 4.269-26.273-2.348-52.077-7.684-64.509-12.167zm.469 11.099c8.21 2.988 22.051 6.617 38.002 9.178 6.334.854 6.099 4.482-5.161 5.763-11.494 1.067-26.273-6.404-35.187-13.02z"/><path d="M320.704 382.694c.469 3.629 1.173 11.526 6.568 8.111 7.272-4.482 8.914-7.898 8.914-14.301 0-4.056-5.395-10.032-16.186-10.032s-16.186 5.977-16.186 10.032c0 6.404 1.642 9.819 8.914 14.301 5.395 3.415 5.864-4.482 6.568-8.111.235-1.281 1.407-.854 1.407 0z"/><path d="M313.197 109.265c-3.05-15.795-28.619-16.863-32.607-19.424-4.692-2.775-3.988 0-2.346 4.269 4.692 11.099 20.643 15.582 27.915 16.863 5.864.854 7.741 1.281 7.037-1.708z"/><path d="M320.938 109.692c2.58-16.222-22.754-23.906-25.804-27.535-3.519-3.842-3.988-1.494-2.346 2.988 3.05 9.605 14.075 20.918 20.643 23.906 5.395 2.561 7.037 3.629 7.507.64z"/><path d="M341.816 119.084c2.346-19.424-18.297-22.412-23.693-28.602-3.519-3.842-3.753-1.708-2.58 2.775 2.346 9.819 12.667 21.345 19.001 24.974 4.926 2.775 7.037 3.842 7.272.854z"/><path d="M335.482 114.815c-21.347-12.594-36.36-5.55-42.459-6.19-5.865-.64-7.741 2.775 2.346 7.898 12.433 6.19 29.792 5.336 36.594 2.988 7.037-2.561 4.926-3.842 3.519-4.696zm32.137 8.538c-6.568-20.918-21.816-17.503-26.273-20.064s-4.926-1.921-3.988 2.775c1.877 8.325 17.594 17.503 25.335 20.278 2.815.854 6.334 2.135 4.926-2.988z"/><path d="M364.57 126.981c-18.297-13.447-32.607-3.415-38.237-4.909-4.222-1.067-2.346 1.494-.704 2.561 11.729 7.471 26.273 11.526 37.533 6.83 4.457-1.708 4.692-2.135 1.407-4.482zm39.644 13.661c.235-13.234-29.792-18.784-36.125-26.895-3.753-4.909-7.037-2.348-5.161 5.55 2.815 10.246 23.458 21.558 34.718 23.693 6.803 1.281 6.568-.854 6.568-2.348z"/><path d="M403.276 142.99c-19.001-15.582-34.952-10.459-40.817-11.953-5.865-1.281-8.21 1.921.938 8.325 11.26 7.684 28.619 9.178 35.891 7.684s5.395-2.988 3.988-4.056zm34.014 22.839c-5.395-22.626-22.52-27.322-26.742-31.591-3.988-4.269-8.21-2.988-4.692 7.257 4.222 12.167 18.063 22.839 25.335 25.401 7.037 2.775 6.568.64 6.099-1.067z"/><path d="M437.055 168.817c-13.84-20.278-31.903-19.637-37.533-22.412-5.395-2.988-9.149-.427-1.877 8.325 8.445 10.673 25.804 16.649 33.78 17.076s6.568-1.494 5.63-2.988z"/><path d="M454.884 192.937c7.976-23.053-10.322-31.591-12.198-35.433-2.111-3.842-4.222-3.842-5.395.213-5.161 16.436 11.494 32.444 14.075 35.646 2.58 2.988 3.05 1.494 3.519-.427z"/><path d="M451.13 199.341c-6.334-25.827-22.989-24.333-26.742-27.962-3.988-3.629-4.457-1.067-3.753 3.629 1.877 12.594 18.532 21.132 26.038 25.401 2.346 1.281 5.161 2.775 4.457-1.067zm15.951 30.31c11.494-24.333-2.111-40.769-6.334-44.398-4.222-3.415-6.803-4.909-5.395 0 1.877 7.471-4.692 26.681 5.395 40.769 3.284 4.696 3.753 9.178 6.334 3.629z"/><path d="M460.983 234.56c2.58-14.941-6.803-28.602-16.89-33.939-5.865-3.202-6.099-2.348-6.099 2.135.469 13.874 14.779 25.401 19.001 31.804 3.988 5.977 3.753 1.494 3.988 0zm-2.581 38.848c-8.445-28.175 9.149-44.398 14.544-47.599 5.161-3.415 8.445-4.696 6.099.64-3.519 7.898.235 29.883-13.136 43.757-4.222 4.696-5.865 9.605-7.507 3.202z"/><path d="M460.279 267.218c7.037-24.547-8.21-38.421-12.902-41.196-4.457-2.775-7.272-3.842-5.161.64 2.815 6.83-.235 26.041 11.494 37.994 3.753 4.056 5.161 8.111 6.568 2.561z"/><path d="M451.599 255.692c-12.667 12.38-12.902 30.523-7.272 41.196 3.519 6.19 3.988 5.763 7.272 1.281 8.914-13.02 3.519-31.804 3.988-40.129.235-7.898-2.58-3.629-3.988-2.348z"/><path d="M472.477 275.329c0 17.076-11.494 30.95-23.693 35.219-7.037 2.348-7.037 1.708-6.099-3.415 3.284-19.21 19.47-26.254 25.335-32.444 5.63-5.977 4.457-1.067 4.457.64zm-43.632 50.801c20.643-17.076 9.618-29.029 10.556-40.129.469-5.977-2.111-4.482-4.457-2.348-13.136 11.74-13.84 32.658-11.025 40.769 1.173 3.629 3.05 3.202 4.926 1.708z"/><path d="M456.526 315.031c-6.803 18.784-24.865 30.31-40.113 30.95-8.914.427-8.679-.213-5.63-5.763 11.494-20.064 31.903-22.412 41.052-27.535 8.445-4.696 5.395.427 4.692 2.348z"/><path d="M400.461 350.25c26.742-12.167 21.347-32.444 26.273-37.567 3.519-3.629-.704-3.202-2.815-1.921-15.717 8.325-28.384 21.558-28.619 35.646 0 5.336.469 5.977 5.161 3.842z"/><path d="M363.866 372.876c33.78 4.909 49.496-18.357 59.349-20.491 5.161-1.067 1.407-2.988-1.173-3.202-22.52-2.348-51.138 7.257-59.818 17.93-3.519 4.269-3.519 5.123 1.642 5.763z"/><path d="M398.115 336.376c-6.803 20.278-32.137 36.927-51.138 38.208-8.914.64-8.914-.213-5.63-5.55 15.248-25.187 41.755-29.456 51.138-35.86 7.976-5.55 6.334 1.281 5.63 3.202zm-71.312-227.111c3.05-15.795 28.619-16.863 32.607-19.424 4.692-2.775 3.988 0 2.346 4.269-4.692 11.099-20.643 15.582-27.915 16.863-5.864.854-7.741 1.281-7.037-1.708z"/><path d="M319.062 109.692c-2.58-16.222 22.754-23.906 25.804-27.535 3.519-3.842 3.988-1.494 2.346 2.988-3.05 9.605-14.075 20.918-20.643 23.906-5.395 2.561-7.037 3.629-7.507.64z"/><path d="M298.184 119.084c-2.346-19.424 18.297-22.412 23.693-28.602 3.519-3.842 3.753-1.708 2.58 2.775-2.346 9.819-12.667 21.345-19.001 24.974-4.926 2.775-7.037 3.842-7.272.854z"/><path d="M304.518 114.815c21.347-12.594 36.36-5.55 42.459-6.19 5.865-.64 7.741 2.775-2.346 7.898-12.433 6.19-29.792 5.336-36.594 2.988-7.037-2.561-4.926-3.842-3.519-4.696zm-32.137 8.538c6.568-20.918 21.816-17.503 26.273-20.064s4.926-1.921 3.988 2.775c-1.877 8.325-17.594 17.503-25.335 20.278-2.815.854-6.334 2.135-4.926-2.988z"/><path d="M275.43 126.981c18.297-13.447 32.607-3.415 38.237-4.909 4.222-1.067 2.346 1.494.704 2.561-11.729 7.471-26.273 11.526-37.533 6.83-4.457-1.708-4.692-2.135-1.407-4.482zm-39.644 13.661c-.235-13.234 29.792-18.784 36.125-26.895 3.753-4.909 7.037-2.348 5.161 5.55-2.815 10.246-23.458 21.558-34.718 23.693-6.803 1.281-6.568-.854-6.568-2.348z"/><path d="M236.724 142.99c19.001-15.582 34.952-10.459 40.817-11.953 5.865-1.281 8.21 1.921-.938 8.325-11.26 7.684-28.619 9.178-35.891 7.684s-5.395-2.988-3.988-4.056zm-34.014 22.839c5.395-22.626 22.52-27.322 26.742-31.591 3.988-4.269 8.21-2.988 4.692 7.257-4.222 12.167-18.063 22.839-25.335 25.401-7.037 2.775-6.568.64-6.099-1.067z"/><path d="M202.945 168.817c13.84-20.278 31.903-19.637 37.533-22.412 5.395-2.988 9.149-.427 1.877 8.325-8.445 10.673-25.804 16.649-33.78 17.076s-6.568-1.494-5.63-2.988z"/><path d="M185.117 192.937c-7.976-23.053 10.322-31.591 12.198-35.433 2.111-3.842 4.222-3.842 5.395.213 5.161 16.436-11.494 32.444-14.075 35.646-2.58 2.988-3.05 1.494-3.519-.427z"/><path d="M188.87 199.341c6.334-25.827 22.989-24.333 26.742-27.962 3.988-3.629 4.457-1.067 3.753 3.629-1.877 12.594-18.532 21.132-26.038 25.401-2.346 1.281-5.161 2.775-4.457-1.067zm-15.951 30.31c-11.494-24.333 2.111-40.769 6.334-44.398 4.222-3.415 6.803-4.909 5.395 0-1.877 7.471 4.692 26.681-5.395 40.769-3.284 4.696-3.753 9.178-6.334 3.629z"/><path d="M179.017 234.56c-2.58-14.941 6.803-28.602 16.89-33.939 5.865-3.202 6.099-2.348 6.099 2.135-.469 13.874-14.779 25.401-19.001 31.804-3.988 5.977-3.753 1.494-3.988 0zm2.581 38.848c8.445-28.175-9.149-44.398-14.544-47.599-5.161-3.415-8.445-4.696-6.099.64 3.519 7.898-.235 29.883 13.136 43.757 4.222 4.696 5.63 9.605 7.507 3.202z"/><path d="M179.721 267.218c-7.037-24.547 8.21-38.421 12.902-41.196 4.457-2.775 7.272-3.842 5.161.64-2.815 6.83.235 26.041-11.494 37.994-3.753 4.056-5.161 8.111-6.568 2.561z"/><path d="M188.401 255.692c12.667 12.38 12.902 30.523 7.272 41.196-3.519 6.19-3.988 5.763-7.272 1.281-8.914-13.02-3.519-31.804-3.988-40.129-.235-7.898 2.58-3.629 3.988-2.348z"/><path d="M167.523 275.329c0 17.076 11.494 30.95 23.693 35.219 7.037 2.348 7.037 1.708 6.099-3.415-3.284-19.21-19.47-26.254-25.335-32.444-5.63-5.977-4.457-1.067-4.457.64zm43.632 50.801c-20.643-17.076-9.618-29.029-10.556-40.129-.469-5.977 2.111-4.482 4.457-2.348 13.136 11.74 13.84 32.658 11.025 40.769-1.173 3.629-3.05 3.202-4.926 1.708z"/><path d="M183.474 315.031c6.803 18.784 24.865 30.31 40.113 30.95 8.914.427 8.679-.213 5.63-5.763-11.494-20.064-31.903-22.412-41.052-27.535-8.445-4.696-5.395.427-4.692 2.348z"/><path d="M239.539 350.25c-26.742-12.167-21.347-32.444-26.273-37.567-3.519-3.629.704-3.202 2.815-1.921 15.717 8.325 28.384 21.558 28.619 35.646 0 5.336-.469 5.977-5.161 3.842z"/><path d="M276.134 372.876c-33.78 4.909-49.496-18.357-59.349-20.491-5.161-1.067-1.407-2.988 1.173-3.202 22.52-2.348 51.138 7.257 59.818 17.93 3.519 4.269 3.519 5.123-1.642 5.763z"/><path d="M241.885 336.376c6.803 20.278 32.137 36.927 51.138 38.208 8.914.64 8.914-.213 5.63-5.55-15.248-25.187-41.755-29.456-51.138-35.86-7.976-5.55-6.334 1.281-5.63 3.202z"/></g></g><path d="M359.6 128.9c-4.4-3-20.8-1.3-23.9-3.3 5.9 4.5 19 1.3 24 3.3zm39.7 7.6c-3.5-5.7-24.4-9.6-27.5-14.7 5.5 9.8 21.6 8.5 27.5 14.7zm-3 6.6c-7.8-6.8-25.8-4-31.3-8 12.7 10.4 19.7 2.3 31.2 8zM351 112.8c4.9 2.4 11 4.7 14 10.3-3.5-4.3-9.8-6-15-9.6.3 0 .7-.4 1-.7zm77 44c-3.1-6.4-14-13.4-14.9-15.8 3 8.3 12 10.3 14.8 15.8zm2.7 11.3c-9.4-13.4-24.1-12-30-17 4.5 4.9 21.4 8 30 17zm21.8 20.7c.7-14.3-11-19.6-11.4-27.7-.3 9.6 12 22.6 11.4 27.7zm-5.8 7.7c-2.4-12.4-18.3-13.2-21.1-20.5 0 6.8 18.7 13.9 21 20.5zm13.1-7c8.5 9.4 2.6 23.7 6.1 34.1-4.2-7.7-2.1-26.9-6-34.1zm-13.8 40c12.6 12.5 7.5 26.3 12.6 32.3-6.3-8.3-5.4-24.5-12.6-32.2zm26.3 1.8c-10.9 10.9-4.3 27.3-10 35 6.4-6.6 5.5-27 10-35zm-13.7 0c-1.4-12.6-14.3-19.2-15.4-26-1.5 6.8 12.4 17.5 15.4 26zm-6.5 30c2 8.8-5.7 27.6-3.3 33.4-5.2-10 4.4-29 3.3-33.3zm16.6 20.1c-5.1 15.6-15.5 14.6-18.7 24 2.3-9 16-17.1 18.7-24zm-33.5 7.3c-6.8 10.5-1.2 22.4-6.8 29.9 8-7.5 3.7-21.4 6.8-29.9zm16.4 28.6c-8.2 13.9-25.1 12.6-31.9 22.6 6.8-12.6 27.7-14.7 32-22.6zm-29.8-1.7c-14.5 9.2-10 18.8-21.1 29 13.8-10.2 12.7-21.5 21.1-29zm-6.8 37.2c-14-.5-34.2 16.2-46.4 14.9 12.2 2.4 34.7-12.6 46.4-15zm-22.7-15c-1 13-37.6 21.4-41.5 30.1 4.4-11.5 36.6-20 41.5-30zm-82.8-240c-4.7-3.7-10.4-6.7-12-10.3 1.2 4.7 5.8 8 10.5 11.3.5-.2 1-.9 1.5-1.1zm-8 3.7c-7.3-3.2-15.7-3-19.5-7.4 2.4 4.4 10.3 6.1 17.1 8.5.7-.4 1.7-.9 2.4-1zm-21.1 27.3c4.4-3 20.8-1.2 23.9-3.2-5.9 4.5-19 1.3-24 3.2zm-39.7 7.7c3.5-5.7 24.4-9.6 27.5-14.7-5.4 9.8-21.6 8.5-27.5 14.7zm3 6.6c7.8-6.8 25.9-4 31.3-8-12.7 10.4-19.7 2.3-31.2 8zm31.3-20c4.4-8.6 17-9.6 20.4-14.8-5 7.7-15.7 9-20.4 14.8zm36-7.5c13-5.5 25.7-.8 31.8-3.4-7.5 3.6-25.4 1.9-31.7 3.4zm-98.9 41.2c3-6.4 13.8-13.5 14.8-15.8-3 8.3-12 10.3-14.8 15.8zm-2.8 11.3c9.4-13.4 24.1-12 30-17-4.4 4.9-21.3 8-30 17zm-21.8 20.7c-.7-14.3 11-19.6 11.5-27.7.2 9.6-12 22.6-11.5 27.7zm5.8 7.7c2.4-12.4 18.3-13.2 21.1-20.5 0 6.8-18.7 13.9-21 20.5zm-13.1-7c-8.4 9.4-2.6 23.6-6 34.1 4.1-7.7 2-26.9 6-34.1zm13.8 40c-12.6 12.5-7.5 26.3-12.6 32.3 6.3-8.3 5.4-24.5 12.6-32.2zm-26.2 1.8c10.8 10.9 4.2 27.3 9.8 35-6.3-6.6-5.4-27-9.8-35zm13.6 0c1.4-12.6 14.3-19.2 15.4-26 1.5 6.8-12.4 17.5-15.4 26zm6.5 30c-2 8.8 5.7 27.6 3.3 33.4 5.2-10-4.4-29-3.3-33.3zm-16.6 20.1c5.2 15.6 15.5 14.6 18.8 24-2.4-9-16-17.1-18.8-24zm33.5 7.3c6.8 10.5 1.2 22.4 6.8 29.9-8-7.5-3.7-21.4-6.8-29.9zm-16.4 28.6c8.2 13.9 25.1 12.6 32 22.6-6.9-12.6-27.8-14.7-32-22.6zm29.8-1.7c14.5 9.2 10.1 18.8 21.1 29-13.8-10.2-12.6-21.5-21.1-29zm6.8 37.1c14-.4 34.3 16.3 46.4 15-12.1 2.3-34.7-12.6-46.4-15zm22.8-15c.9 13.1 37.5 21.4 41.5 30.2-4.5-11.5-36.6-20-41.6-30.1zM301 116c2.8-11.5 17-13.6 18.8-20.5-.7 7.3-17.4 15.4-18.8 20.5zm41.5-28.6c-2 8.8-17.3 13.7-19.4 20.3.7-9 16.4-14 19.4-20.3zm-12 20.8c7.3-10.7 22.3-8 27.5-14.1-3.8 7.2-22.3 7.4-27.5 14z" class="B"/><path fill="none" stroke="#f7c608" stroke-width="1.8" d="M429.8 240c0 55.5-49.3 100.4-110.3 100.4-60.9 0-110.3-44.9-110.3-100.3 0-55.5 49.4-100.4 110.3-100.4 61 0 110.3 45 110.3 100.4z" class="F"/><path d="M298 340.5l-.5 1.2c-.3.8-1.1 1.3-2.1 1.2l-8-1.9 2.6-7.7 8 1.7c.9.2 1.4 1 1 1.8l-.2 1m-19-4.8l.4-1.2c.2-.9 1.1-1.3 2-1a95 95 0 0 0 7.8 2.5l-2.5 7.7-7.9-2.3c-.8-.4-1-2-.7-2.9" class="C"/><path d="M296.4 339.8l-.3.9c-.2.6-1 .9-1.7.8l-6.6-1.6 1.8-5.6c2.4.7 4.9 1.2 6.6 1.5.8.2 1.2.8 1 1.4l-.2.7m-15.8-4l.3-1c.2-.5.9-.8 1.6-.6l6.5 2-1.8 5.6a98.9 98.9 0 0 1-6.5-1.9c-.7-.4-1-1.5-.7-2.1" class="B"/><path d="M267.7 330.8l-.7 1c-.5.8-1.5 1-2.4.7l-7-3.9 4.8-6.8a80.3 80.3 0 0 0 7.1 3.7c.8.4 1 1.3.5 2l-.6 1m-16.7-9.6l.7-1c.5-.8 1.5-1 2.3-.5l6.7 4.4-4.9 6.8a91.1 91.1 0 0 1-6.7-4.2c-.7-.7-.4-2.3 0-3" class="C"/><path d="M266.5 329.7l-.6.8c-.3.5-1.1.6-1.9.3-1.6-1-3.8-2-5.8-3.2l3.5-4.9c2 1.3 4.3 2.4 5.9 3.1.6.4.9 1 .5 1.6l-.5.6m-13.8-7.9l.5-.8c.4-.5 1.1-.6 1.8-.2a89.5 89.5 0 0 0 5.6 3.6l-3.5 4.9-5.6-3.5c-.6-.5-.5-1.7-.1-2.2" class="B"/><path d="M241.8 313.7l-1 .8c-.8.6-1.8.5-2.6 0l-5.5-5.5 6.7-5.3c2 2.1 4.2 4 5.7 5.4.7.6.6 1.5-.1 2l-.9.8m-13-13.4l1-.9c.7-.5 1.7-.5 2.3.2a73 73 0 0 0 5 6l-6.7 5.2-5.2-5.8c-.5-.8.3-2.2 1-2.8" class="C"/><path d="M240.9 312.4l-.8.6c-.5.4-1.2.3-1.9-.2l-4.6-4.6 4.9-3.8a77 77 0 0 0 4.7 4.5c.5.6.5 1.3 0 1.7l-.7.5m-10.8-11.2l.7-.6c.6-.4 1.3-.3 1.8.2l4.3 5-4.9 3.7-4.3-4.8c-.4-.6.1-1.7.6-2.1" class="B"/><path d="M222.2 290.7l-1.3.5c-.8.4-1.8 0-2.4-.6l-3.6-6.8 8.1-3.3 3.8 6.6c.4.8 0 1.6-.8 2l-1 .4m-8.4-16.2l1.2-.6c.9-.3 1.8 0 2.2.8a70.6 70.6 0 0 0 3 7l-8 3.3a60.2 60.2 0 0 1-3.3-6.8c-.2-1 1-2.1 1.9-2.5" class="C"/><path d="m221.7 289.2-.9.3c-.6.3-1.3 0-1.8-.6l-3-5.6 5.8-2.4a67.8 67.8 0 0 0 3.2 5.5c.3.7.1 1.4-.5 1.6l-.8.3m-7-13.5 1-.3c.6-.3 1.3 0 1.6.6a77 77 0 0 0 2.5 5.8l-5.7 2.4a58 58 0 0 1-2.7-5.7c-.2-.7.6-1.6 1.2-1.9" class="B"/><path d="M210.5 263.5l-1.4.2a2 2 0 0 1-2-1.2l-1.5-7.4 8.8-1.1a63.7 63.7 0 0 0 1.7 7.3c.1.9-.5 1.6-1.4 1.7l-1.2.2m-3-17.7l1.4-.2c.9-.2 1.7.4 1.8 1.2l.7 7.5-8.8 1.1a75 75 0 0 1-1-7.4c.2-.9 1.7-1.7 2.6-1.8" class="C"/><path d="M210.5 262l-1 .1c-.6.1-1.2-.3-1.5-1l-1.1-6.2 6.3-.8a64.4 64.4 0 0 0 1.3 6.1c.1.7-.3 1.3-1 1.4l-.8.1m-2.5-14.7l1-.2c.7 0 1.3.4 1.3 1.1l.7 6.2-6.3.8c-.4-2-.7-4.2-.8-6.1 0-.7 1.1-1.4 1.8-1.5" class="B"/><path d="M207.7 234.5l-1.4-.2c-1 0-1.5-.8-1.6-1.7l1-7.4 8.7 1.2a64.7 64.7 0 0 0-.7 7.4c-.1.9-.9 1.4-1.8 1.3l-1.2-.2m2.6-17.7l1.4.1c.9.2 1.5.9 1.4 1.7a68.7 68.7 0 0 0-1.7 7.4l-8.8-1.2 1.4-7.4c.4-.8 2.1-1.2 3-1" class="C"/><path d="M208.2 233h-1c-.7-.2-1-.8-1.1-1.5l.8-6.1 6.3.8a65 65 0 0 0-.6 6.2c-.1.7-.7 1.1-1.4 1h-.8m2.1-14.9l1 .2c.7 0 1.1.7 1 1.4l-1.3 6-6.3-.7 1.1-6.2c.3-.7 1.5-1 2.2-1" class="B"/><path d="M214 206l-1.3-.6c-.9-.3-1.2-1.1-1-2l3.2-6.9 8 3.4a69.8 69.8 0 0 0-3 7c-.3.7-1.2 1-2 .7l-1.2-.5m8-16.4l1.3.6c.8.3 1.2 1.2.8 2a72.5 72.5 0 0 0-3.8 6.6l-8.1-3.4 3.6-6.7c.6-.7 2.4-.7 3.2-.3" class="C"/><path d="M215 204.7l-1-.4c-.6-.2-.8-1-.6-1.6l2.6-5.7 5.8 2.4a66.3 66.3 0 0 0-2.5 5.8c-.3.6-1 .9-1.6.6l-.8-.3m6.7-13.6l.9.4c.6.2.8.9.5 1.6a71.3 71.3 0 0 0-3.2 5.5l-5.7-2.4 3-5.6c.4-.6 1.7-.7 2.3-.4" class="B"/><path d="M228.9 180.2l-1.1-.9c-.7-.5-.8-1.4-.4-2.2 1.6-1.6 3.4-3.9 5.2-5.8l6.8 5.3a72 72 0 0 0-5 6 1.7 1.7 0 0 1-2.4 0l-.9-.6m12.8-13.7l1 .8c.8.6.8 1.5.2 2.2a78.4 78.4 0 0 0-5.7 5.3l-6.8-5.3 5.6-5.5c.8-.5 2.5 0 3.2.5" class="C"/><path d="M230.2 179.2l-.8-.6c-.5-.4-.5-1.1-.1-1.7l4.3-4.9 4.8 3.8a71.3 71.3 0 0 0-4.2 5c-.5.5-1.2.6-1.8.2l-.6-.5m10.6-11.4l.8.6c.5.4.5 1.1 0 1.6a80 80 0 0 0-4.8 4.6l-4.8-3.8 4.6-4.6c.7-.5 2-.2 2.4.2" class="B"/><path d="M251 159.2l-.7-1c-.5-.8-.3-1.6.4-2.3 2-1.1 4.4-2.8 6.8-4.2l4.8 6.8a78 78 0 0 0-6.7 4.4 1.7 1.7 0 0 1-2.2-.4l-.7-1m16.5-9.8l.7 1c.6.8.3 1.7-.4 2.1l-7.2 3.7-4.8-6.8 7-3.9c1-.2 2.4.7 2.9 1.4" class="C"/><path d="M252.7 158.6l-.6-.7c-.3-.6-.1-1.2.4-1.7l5.7-3.5 3.4 4.8a97 97 0 0 0-5.5 3.7c-.7.4-1.4.3-1.8-.3l-.5-.6m13.7-8.2l.6.8c.3.5.1 1.2-.5 1.5a83.3 83.3 0 0 0-6 3.1l-3.4-4.8 5.8-3.3c.8-.2 1.9.4 2.3.9" class="B"/><path d="m279 144.9-.5-1.3c-.2-.8.2-1.6 1-2l7.9-2.3 2.5 7.7a82.5 82.5 0 0 0-7.8 2.6c-.9.2-1.7-.2-2-1l-.3-1m18.8-5.4.4 1.3c.3.8-.2 1.6-1 1.8a88.9 88.9 0 0 0-8.1 1.7l-2.5-7.7a85 85 0 0 1 8-2c.9 0 2 1.3 2.3 2" class="C"/><path d="m280.6 144.7-.3-1c-.1-.5.3-1 1-1.4l6.5-2 1.8 5.6a81.2 81.2 0 0 0-6.5 2c-.7.3-1.4 0-1.6-.6l-.3-.7m15.7-4.4.3.9c.2.6-.2 1.2-1 1.4-1.9.3-4.2.8-6.6 1.4l-1.8-5.5a90 90 0 0 1 6.6-1.6c.8-.1 1.6.8 1.8 1.4" class="B"/><path d="M310 138.2v-1.3c0-.8.8-1.5 1.7-1.7l8.2-.2v8.1a84 84 0 0 0-8.2.4c-1 0-1.6-.6-1.6-1.5v-1m19.7-.2v1.2c0 .9-.7 1.5-1.7 1.5a90 90 0 0 0-8.2-.4V135l8.2.2c1 .2 1.7 1.7 1.7 2.6" class="C"/><path d="M311.8 138.5v-1c0-.6.5-1 1.3-1.2l6.9-.1v5.8l-6.9.3c-.7 0-1.3-.5-1.3-1v-.9m16.3-.1v.9c0 .6-.5 1-1.3 1a82.4 82.4 0 0 0-6.8-.2v-5.8l6.8.1c.8.2 1.3 1.2 1.3 1.9" class="B"/><path d="M340 139.6l.3-1.2c.3-.8 1.1-1.2 2.1-1.2l8 1.8-2.5 7.8a84.5 84.5 0 0 0-8-1.6c-.9-.3-1.4-1-1.1-1.9l.3-1m19 4.7l-.4 1.2c-.2.9-1.1 1.3-2 1a87.5 87.5 0 0 0-7.8-2.4l2.5-7.8 7.8 2.3c.8.4 1 2 .8 2.8" class="C"/><path d="M341.5 140.3l.2-.9c.2-.6 1-.9 1.7-.8l6.6 1.5-1.7 5.6a83.5 83.5 0 0 0-6.7-1.4c-.7-.2-1.1-.8-1-1.4l.3-.7m15.8 4l-.3.8c-.2.6-.9 1-1.6.7a86.6 86.6 0 0 0-6.5-2l1.7-5.6 6.6 1.9c.7.3 1 1.5.7 2" class="B"/><path d="M370.2 149.1l.7-1c.5-.8 1.5-1 2.4-.7l7.1 3.8-4.7 6.9a80.6 80.6 0 0 0-7.3-3.6c-.7-.5-1-1.4-.5-2.1l.7-1m16.8 9.5l-.8 1a1.7 1.7 0 0 1-2.2.5 82.3 82.3 0 0 0-6.7-4.3l4.7-6.9 6.8 4.2c.7.6.4 2.2-.1 3" class="C"/><path d="m371.5 150.2.5-.8c.4-.5 1.1-.6 1.9-.4 1.6 1 3.8 2 5.8 3.2l-3.4 5a79.3 79.3 0 0 0-6-3.1c-.6-.4-.8-1-.4-1.6l.4-.7m14 7.9-.6.8c-.4.5-1 .6-1.8.2a81.5 81.5 0 0 0-5.6-3.6l3.4-4.9 5.7 3.4c.6.6.5 1.7.1 2.3" class="B"/><path d="M396.3 166l1-.9c.7-.5 1.7-.5 2.5 0l5.6 5.5-6.6 5.3a74.7 74.7 0 0 0-5.8-5.3c-.6-.6-.6-1.5.1-2l.9-.8m13.2 13.3l-1 .9a1.7 1.7 0 0 1-2.4-.2 72 72 0 0 0-5-5.9l6.7-5.3 5.2 5.7c.4.8-.3 2.3-1 2.8" class="C"/><path d="m397.2 167.3.7-.6c.5-.4 1.3-.3 2 .1 1.2 1.4 3 3 4.6 4.6l-4.8 3.8a73.6 73.6 0 0 0-4.8-4.5c-.5-.5-.5-1.2 0-1.6l.7-.5m11 11-.8.7c-.5.4-1.3.3-1.8-.2a75.1 75.1 0 0 0-4.3-4.9l4.8-3.8 4.4 4.7c.4.7-.1 1.8-.6 2.2" class="B"/><path d="m416.1 188.9 1.3-.6c.8-.3 1.8 0 2.4.7l3.7 6.6-8.1 3.5c-1.3-2.6-2.8-5-4-6.6-.3-.8 0-1.6.9-2l1-.5m8.6 16.2-1.3.5c-.8.4-1.8 0-2.1-.7a70.7 70.7 0 0 0-3.1-7l8-3.4a81.1 81.1 0 0 1 3.3 6.9c.2.9-1 2-1.8 2.4" class="C"/><path d="M416.6 190.4l.9-.4c.6-.3 1.3 0 1.8.6l3 5.5-5.8 2.5a74.4 74.4 0 0 0-3.2-5.5c-.3-.6-.1-1.3.5-1.6l.8-.3m7 13.5l-.8.3c-.7.3-1.3 0-1.7-.6l-2.6-5.8 5.8-2.5 2.8 5.7c.1.8-.7 1.7-1.3 2" class="B"/><path d="M428 215.9l1.4-.2a2 2 0 0 1 2.1 1.2l1.5 7.3-8.8 1.3a65.4 65.4 0 0 0-1.7-7.3c-.1-.9.4-1.6 1.4-1.7l1.1-.2m3.2 17.7l-1.4.2c-.9.1-1.7-.4-1.8-1.3a71 71 0 0 0-.8-7.4l8.8-1.3 1 7.5c0 .9-1.6 1.7-2.5 1.8" class="C"/><path d="M428 217.4l1-.1c.7-.1 1.3.4 1.5 1l1.2 6.1-6.3 1a64.5 64.5 0 0 0-1.3-6.2c-.1-.7.2-1.3 1-1.3l.8-.2m2.6 14.7l-1 .2c-.7 0-1.3-.4-1.4-1a67.2 67.2 0 0 0-.7-6.3l6.3-.9.9 6.2c0 .7-1.1 1.4-1.8 1.5" class="B"/><path d="M431.1 244.9l1.4.1c1 .1 1.6.9 1.7 1.8l-.9 7.4-8.8-1.1c.4-2.7.6-5.5.6-7.5.1-.8 1-1.4 1.9-1.2l1.1.1m-2.4 17.8l-1.4-.2c-1 0-1.5-.8-1.4-1.7.6-2 1.2-4.6 1.6-7.3l8.8 1-1.3 7.4c-.4.9-2.1 1.3-3 1.2" class="C"/><path d="M430.6 246.4h1c.7.2 1.1.8 1.2 1.5l-.8 6.2-6.3-.8.6-6.2c0-.7.6-1.2 1.3-1.1h.9m-2 14.9l-1-.1c-.7-.1-1.1-.7-1-1.4l1.2-6.1 6.3.8a76.8 76.8 0 0 1-1 6c-.3.8-1.6 1.2-2.2 1" class="B"/><path d="m425.1 273.5 1.3.5c.9.4 1.2 1.2 1 2l-3 7-8.2-3.3a66 66 0 0 0 3-7c.3-.8 1.2-1.1 2-.8l1.2.4m-7.9 16.5-1.2-.5c-.9-.4-1.3-1.2-.9-2 1.2-1.8 2.6-4.1 3.8-6.6l8.1 3.3a78.3 78.3 0 0 1-3.5 6.7c-.6.7-2.4.7-3.3.3" class="C"/><path d="m424.2 274.8 1 .3c.5.3.7 1 .6 1.7l-2.6 5.7-5.9-2.3a66.2 66.2 0 0 0 2.5-5.8c.3-.7 1-1 1.6-.8l.8.4m-6.5 13.6-1-.3c-.6-.3-.8-1-.4-1.6a71.2 71.2 0 0 0 3-5.5l5.9 2.3a80.7 80.7 0 0 1-3 5.6c-.5.6-1.8.7-2.4.4" class="B"/><path d="M410.5 299.4l1.1.8c.7.6.8 1.5.4 2.3-1.6 1.6-3.4 3.8-5.2 5.8L400 303c2-2 3.8-4.3 5-6 .6-.6 1.6-.6 2.3-.1l.9.7m-12.6 13.8l-1-.8c-.8-.6-.9-1.5-.3-2.1l5.7-5.5 6.8 5.3a88.2 88.2 0 0 1-5.5 5.6c-.8.5-2.5 0-3.2-.6" class="C"/><path d="M409.2 300.4l.8.6c.5.4.5 1 .1 1.7l-4.3 4.8-4.9-3.7c1.7-1.8 3.2-3.6 4.2-5 .5-.5 1.3-.6 1.8-.2l.6.5m-10.4 11.5l-.8-.6c-.5-.4-.5-1.1 0-1.7a77 77 0 0 0 4.6-4.5l5 3.7-4.7 4.7c-.6.4-1.8.1-2.4-.3" class="B"/><path d="m388.5 320.5.7 1c.5.8.3 1.7-.3 2.3l-6.7 4.3-5-6.8a77.9 77.9 0 0 0 6.7-4.4 1.7 1.7 0 0 1 2.2.4l.7.9m-16.4 10-.7-1c-.6-.8-.4-1.7.4-2.2a84.3 84.3 0 0 0 7.2-3.7l4.8 6.8-7 4c-.9.2-2.3-.7-2.9-1.4" class="C"/><path d="M386.9 321.1l.5.8c.4.5.2 1.2-.4 1.7l-5.6 3.5-3.5-4.8 5.6-3.7c.6-.4 1.4-.3 1.7.2l.5.7m-13.6 8.3l-.6-.8c-.3-.5-.1-1.2.5-1.6a83 83 0 0 0 6-3.1l3.4 4.8-5.8 3.3c-.7.3-1.9-.3-2.2-.8" class="B"/><path d="M360.8 335.1l.4 1.2c.3.8-.2 1.7-1 2l-7.8 2.5-2.6-7.8a75.4 75.4 0 0 0 7.7-2.6c.9-.2 1.8.2 2 1l.4 1m-18.8 5.5l-.4-1.3c-.3-.8.2-1.6 1-1.8 2.4-.4 5.1-1 8-1.8l2.7 7.8-8 2c-1 0-2-1.3-2.3-2" class="C"/><path d="m359 335.3.4.9c.2.6-.3 1.2-1 1.5l-6.4 2-1.9-5.6a82.2 82.2 0 0 0 6.4-2c.8-.3 1.5 0 1.7.6l.2.7m-15.6 4.5-.3-.9c-.2-.6.2-1.2 1-1.4a82.4 82.4 0 0 0 6.6-1.5l1.9 5.6a99.4 99.4 0 0 1-6.6 1.6c-.8 0-1.7-.8-2-1.4" class="B"/><path d="M329.7 342v1.3c0 .9-.7 1.5-1.6 1.7l-8.2.3-.1-8.1a82.2 82.2 0 0 0 8.2-.5c1 0 1.6.6 1.6 1.5v1m-19.6.4v-1.2c0-.9.6-1.5 1.6-1.5l8.2.3v8.1l-8.2-.1c-.9-.2-1.6-1.7-1.6-2.6" class="C"/><path d="M328 341.8v.9c0 .6-.6 1-1.4 1.2l-6.8.2v-5.7c2.5 0 5-.3 6.8-.4.8 0 1.3.4 1.4 1v.8m-16.4.3v-1c0-.5.5-1 1.3-1l6.9.2v5.8H313c-.8-.2-1.4-1.3-1.4-1.9" class="B"/></svg>