<svg xmlns="http://www.w3.org/2000/svg" xmlns:xlink="http://www.w3.org/1999/xlink" viewBox="0 0 640 480" xmlns:v="https://vecta.io/nano"><style><![CDATA[.B{fill:#108c00}.C{fill:#ffe700}.D{stroke-width:2.5}.E{fill:#009200}.F{fill:#804bff}.G{stroke-width:1.5}.H{stroke-width:1.6}]]></style><defs><clipPath id="A"><path fill-opacity=".7" d="M-85 0h682.7v512H-85z"/></clipPath><path id="B" d="M328.7 333.7l2.8-8 2.5 7.9 8.6.1c0-.2-6.8 5.2-6.8 5.2l3 8.7c0-.2-7.3-5.4-7.3-5.4l-7.3 5.2 2.8-8.5-6.6-5 8.3-.2z"/><path id="C" d="M419.84-41.15c0 4 6.84 2.78 7.02 6.12-.105 3.54-11.505.35-11.79-6.12.285-6.48 11.25-9.8 11.505-6.1.18 3.06-6.75 2.1-6.75 6.1z"/><path id="D" d="M139.9 644c0 57.7-18.8 86.2-34.6 110.3 7.5-32.5 13-52.6 13-110.3s29.5-85.3 40.3-102c-4.2 16.7-18.7 44.3-18.7 102z"/><path id="E" d="M145.7 569.5c0 34-6.7 61.6-15 61.6s-15-27.6-15-61.6"/><path id="F" d="M502.208-138.312c-1.968 2.024.064 5.544 1.92 6.754 2.08 1.694 13.856 12.804 21.808 2.64-6.528.176-18.992-13.904-23.728-9.394z"/></defs><g fill-rule="evenodd" clip-path="url(#A)" transform="matrix(.94 0 0 .94 79.7 0)"><path d="M-258.3 0H769.2v512H-258.3z" class="B"/><g fill="#ffd600"><path d="M-260 178.2H772.6v50.1H-260z"/><path d="M181 0h48.5v512h-48.4z"/></g><path d="M227.8 0h48.4v512h-48.4z"/><path d="M-260 226.6H772.6v50.2H-260z"/><g fill="#fff"><path d="M-260 276.8H772.6v50.1H-260z"/><path d="M276.2 0h48.5v512h-48.5z"/></g><rect width="273.8" height="275" x="-394.6" y="-393.9" fill="#e72910" ry="137.5" transform="scale(-1)"/><path d="M250.5 137l5.6-16 5.1 15.7s17.1.5 17.1.2-13.5 10.3-13.5 10.3l6.1 17.6c-.2-.5-14.8-10.9-14.8-10.9l-14.5 10.4c.3 0 5.6-17 5.6-17l-13.3-10.1 16.6-.3z"/><path d="M251.3 137.7L256 124l4.4 13.6 14.9.2c0-.2-11.7 9-11.7 9l5.2 15.2c-.2-.5-12.8-9.4-12.8-9.4l-12.6 9c.2 0 5-14.8 5-14.8l-11.6-8.8 14.4-.2z" class="C"/><path d="M253.3 140l2.8-8 2.6 7.9h8.5c0-.2-6.7 5.2-6.7 5.2l3 8.8c-.1-.3-7.4-5.4-7.4-5.4l-7.2 5.2c.2 0 2.8-8.5 2.8-8.5l-6.6-5 8.2-.2z" class="B"/><path d="M356.9 211.8l5.6-16 5 15.7s17.2.6 17.2.3-13.5 10.3-13.5 10.3l6 17.6c-.2-.5-14.7-10.9-14.7-10.9L348 239.2c.3 0 5.6-17 5.6-17L340.3 212l16.6-.3z"/><path d="M357.6 212.6l4.9-13.9 4.4 13.7 14.8.2c0-.2-11.7 9-11.7 9l5.3 15.1c-.2-.4-12.8-9.4-12.8-9.4l-12.6 9c.2 0 4.9-14.8 4.9-14.8l-11.5-8.7 14.3-.2z" class="C"/><path d="M359.7 214.9l2.8-8 2.5 7.8 8.6.2-6.8 5.1 3 8.8c0-.3-7.3-5.4-7.3-5.4l-7.3 5.1 2.8-8.5-6.6-5 8.3-.1z" class="B"/><path d="M325.9 330.6l5.6-16 5 15.8 17.2.3c0-.2-13.5 10.3-13.5 10.3l6 17.5c-.2-.5-14.7-10.8-14.7-10.8L316.9 358c.2 0 5.7-17 5.7-17l-13.3-10 16.6-.3z"/><path d="M326.6 331.4l4.9-13.8 4.4 13.6s14.8.5 14.8.2-11.7 9-11.7 9l5.3 15.2c-.2-.5-12.8-9.4-12.8-9.4l-12.6 9c.2 0 4.9-14.8 4.9-14.8l-11.5-8.7 14.3-.3z" class="C"/><use xlink:href="#B" class="B"/><path d="M177.2 330.6l5.6-16 5 15.8 17.1.3c0-.2-13.5 10.3-13.5 10.3l6.2 17.5c-.3-.5-14.8-10.8-14.8-10.8L168.2 358c.2 0 5.7-17 5.7-17l-13.3-10 16.6-.3z"/><path d="M178 331.4l4.8-13.8 4.4 13.6s14.8.5 14.8.2-11.7 9-11.7 9l5.3 15.2c-.2-.5-12.8-9.4-12.8-9.4l-12.6 9c.2 0 4.9-14.8 4.9-14.8l-11.5-8.7 14.3-.3z" class="C"/><path d="M180 333.7l2.8-8 2.5 7.9 8.6.1c0-.2-6.8 5.2-6.8 5.2l3 8.7c0-.2-7.3-5.4-7.3-5.4l-7.3 5.2 2.8-8.5-6.6-5 8.3-.2z" class="B"/><path d="M150 208.7l5.6-16 5.1 15.8s17.1.5 17.1.2-13.5 10.4-13.5 10.4l6.1 17.5c-.3-.5-14.8-10.8-14.8-10.8L141.1 236c.3 0 5.6-17 5.6-17l-13.3-10 16.6-.3z"/><path d="M150.8 209.5l4.8-13.8 4.5 13.6s14.7.5 14.7.2-11.7 9-11.7 9l5.3 15.2c-.2-.5-12.8-9.4-12.8-9.4l-12.5 9c.3 0 4.8-14.8 4.8-14.8l-11.5-8.7 14.4-.3z" class="C"/><path d="m152.8 211.8 2.8-8 2.6 7.9 8.5.1-6.7 5.2 3 8.7c-.1-.2-7.4-5.4-7.4-5.4l-7.2 5.2c.2 0 2.8-8.5 2.8-8.5l-6.6-5 8.2-.2z" class="B"/><path d="M324.6 174.1l-5.6 16-5-15.7-17.2-.3c0 .2 13.5-10.3 13.5-10.3l-6-17.5c.2.5 14.7 10.8 14.7 10.8l14.5-10.3c-.3 0-5.6 17-5.6 17l13.3 10-16.6.3z"/><path d="M323.9 173.3c0 .3-5 13.9-5 13.9l-4.3-13.6-14.8-.3c0 .2 11.7-8.9 11.7-8.9l-5.3-15.2c.2.5 12.8 9.4 12.8 9.4l12.6-9c-.2 0-4.9 14.8-4.9 14.8l11.5 8.7-14.4.2z" class="C"/><path d="M321.8 171l-2.8 8-2.5-7.8-8.6-.1c0 .2 6.8-5.2 6.8-5.2l-3-8.7c0 .2 7.3 5.4 7.3 5.4l7.3-5.2c-.2 0-2.9 8.5-2.9 8.5l6.7 5-8.3.2z" class="B"/><path d="M367.3 290.3l-5.6 16-5-15.8s-17.2-.5-17.2-.2S353 280 353 280l-6-17.6c.2.5 14.7 10.8 14.7 10.8l14.5-10.3c-.3 0-5.6 17-5.6 17L384 290l-16.6.3z"/><path d="M366.6 289.5l-4.9 13.8-4.4-13.6-14.8-.2c0 .2 11.7-9 11.7-9l-5.3-15.2c.2.5 12.8 9.4 12.8 9.4l12.6-9c-.2 0-4.9 14.8-4.9 14.8l11.5 8.8-14.4.2z" class="C"/><path d="m364.5 287.2-2.8 8-2.5-7.9s-8.6-.2-8.6 0 6.8-5.2 6.8-5.2l-3-8.8c0 .3 7.3 5.4 7.3 5.4l7.3-5.2c-.2 0-2.9 8.6-2.9 8.6l6.7 5-8.3.1z" class="B"/><path d="M261.4 375.3l-5.6 16-5-15.8-17.2-.3c0 .2 13.5-10.3 13.5-10.3l-6-17.5c.2.5 14.7 10.8 14.7 10.8l14.5-10.3c-.3 0-5.6 17-5.6 17L278 375l-16.6.3z"/><path d="m260.7 374.4-4.9 14-4.4-13.7s-14.8-.5-14.8-.2 11.7-9 11.7-9l-5.3-15.2c.2.5 12.8 9.4 12.8 9.4s12.8-9 12.6-9-4.9 14.8-4.9 14.8l11.5 8.7-14.3.3z" class="C"/><path d="M258.6 372.2l-2.8 8-2.5-7.9-8.6-.1c0 .2 6.8-5.2 6.8-5.2l-3-8.7c0 .2 7.3 5.4 7.3 5.4l7.3-5.2-2.8 8.5 6.6 5-8.3.2z" class="B"/><path d="m162 290.3-5.7 16-5-15.8s-17.2-.5-17.2-.2 13.5-10.3 13.5-10.3l-6-17.6c.2.5 14.7 10.8 14.7 10.8L171 263l-5.7 17 13.3 10.1-16.6.3z"/><path d="M161.2 289.5l-4.9 13.8-4.4-13.6-14.8-.2c0 .2 11.7-9 11.7-9l-5.3-15.2c.2.5 12.8 9.4 12.8 9.4l12.6-9c-.2 0-4.9 14.8-4.9 14.8l11.5 8.8-14.3.2z" class="C"/><path d="m159.1 287.2-2.8 8-2.5-7.9s-8.6-.2-8.6 0 6.8-5.2 6.8-5.2l-3-8.8c0 .3 7.3 5.4 7.3 5.4l7.3-5.2-2.8 8.6 6.6 5-8.3.1z" class="B"/><path d="M198.7 175.8l-5.6 16-5.2-15.7-17-.3c0 .2 13.5-10.3 13.5-10.3l-6.1-17.5c.2.5 14.7 10.8 14.7 10.8l14.6-10.3c-.2 0-5.6 17-5.6 17l13.2 10-16.5.4z"/><path d="m197.9 175-4.9 14-4.4-13.7s-14.8-.5-14.8-.2 11.7-9 11.7-9l-5.3-15.2c.2.5 12.8 9.4 12.8 9.4s12.8-9 12.6-9-4.8 14.8-4.8 14.8l11.4 8.7-14.3.3z" class="C"/><path d="M195.8 172.8l-2.8 8-2.5-7.9-8.5-.1c0 .2 6.7-5.2 6.7-5.2l-3-8.7c0 .2 7.3 5.4 7.3 5.4l7.3-5.2-2.8 8.5 6.6 5-8.3.2z" class="B"/><g transform="matrix(1.04 0 0 1.04 -250.6 359.4)"><g stroke="#000"><g transform="matrix(.16 -.02 0 .18 429.8 -215.6)" class="E D"><ellipse cx="680.2" cy="586.1" rx="30.8" ry="189.8" transform="matrix(1.4 0 0 1 -534.3 263.7)"/><ellipse cx="680.2" cy="586.1" rx="30.8" ry="189.8" transform="matrix(1.5 0 0 1 -547.2 267)"/><ellipse cx="680.2" cy="586.1" rx="30.8" ry="189.8" transform="matrix(1.2 0 0 1.1 -365 214.1)"/></g><g transform="translate(72.9 -9.8)"><path fill="#a95600" stroke-width=".5" d="M388.5-53c6-.3 3.4-3.3 6.4-5 3-1.6 7.3-.6 8.6 1.4s.3 4 2 4 47-2.5 48.6-.9c1.6 1.7 2 5 .3 6.3-1.6 1.4-58.9 3-60.9 1.6s-5-7-5-7.4z"/><g fill="#ff0" stroke-width=".497"><use xlink:href="#C"/><path d="M423.84-41.05c0 4 6.84 2.78 7.02 6.12-.105 3.54-11.505.35-11.79-6.12.285-6.48 11.25-9.8 11.505-6.1.18 3.06-6.75 2.1-6.75 6.1z"/><path d="M428.14-41.25c0 4 6.84 2.78 7.02 6.12-.105 3.54-11.505.35-11.79-6.12.285-6.48 11.25-9.8 11.505-6.1.18 3.06-6.75 2.1-6.75 6.1z"/><path d="M432.14-41.25c0 4 6.84 2.78 7.02 6.12-.105 3.54-11.505.35-11.79-6.12.285-6.48 11.25-9.8 11.505-6.1.18 3.06-6.75 2.1-6.75 6.1z"/></g><ellipse cx="478.4" cy="-41.1" fill="#a95600" stroke-width=".4" rx="3.5" ry="3.4" transform="matrix(1.1 .02 -.02 1.15 -75.6 4.7)"/></g><g transform="rotate(354.2 688.4 -625.2)" class="E D"><ellipse cx="427.1" cy="905" rx="20.8" ry="24.1" transform="matrix(.17 0 0 .32 369.8 -361.6)"/><ellipse cx="427.1" cy="905" rx="20.8" ry="24.1" transform="matrix(.17 0 0 .32 364 -362.7)"/><ellipse cx="427.1" cy="905" rx="20.8" ry="24.1" transform="matrix(.17 0 0 .32 360.6 -370.6)"/><ellipse cx="427.1" cy="905" rx="20.8" ry="24.1" transform="matrix(.16 0 0 .35 369.3 -399.4)"/><ellipse cx="427.1" cy="905" rx="20.8" ry="24.1" transform="matrix(.16 0 0 .33 377.4 -379)"/><ellipse cx="427.1" cy="905" rx="20.8" ry="24.1" transform="matrix(.16 0 0 .33 373.2 -382.2)"/><ellipse cx="427.1" cy="905" rx="20.8" ry="24.1" transform="matrix(.16 0 0 .33 368 -386.7)"/><ellipse cx="427.1" cy="905" rx="20.8" ry="24.1" transform="matrix(.16 0 0 .33 363 -389.5)"/></g><path stroke-width=".5" d="M482.6-141s-11.7 10-10.1 36.9c1.8 27 26.5 39.5 26.5 39.5s6.2-7.7 5.2-29.5c-2-31.8-13.8-45.7-13.8-45.7l-7.8-1.3z" class="F"/><g transform="rotate(4.5 181 769.9)" class="E D"><ellipse cx="427.1" cy="905" rx="20.8" ry="24.1" transform="matrix(.17 0 0 .32 369.8 -361.6)"/><ellipse cx="427.1" cy="905" rx="20.8" ry="24.1" transform="matrix(.17 0 0 .32 364 -362.7)"/><ellipse cx="427.1" cy="905" rx="20.8" ry="24.1" transform="matrix(.17 0 0 .32 360.6 -370.6)"/><ellipse cx="427.1" cy="905" rx="20.8" ry="24.1" transform="matrix(.16 0 0 .35 369.3 -399.4)"/><ellipse cx="427.1" cy="905" rx="20.8" ry="24.1" transform="matrix(.16 0 0 .33 377.4 -379)"/><ellipse cx="427.1" cy="905" rx="20.8" ry="24.1" transform="matrix(.16 0 0 .33 373.2 -382.2)"/><ellipse cx="427.1" cy="905" rx="20.8" ry="24.1" transform="matrix(.16 0 0 .33 368 -386.7)"/><ellipse cx="427.1" cy="905" rx="20.8" ry="24.1" transform="matrix(.16 0 0 .33 363 -389.5)"/></g><ellipse cx="624.4" cy="606.1" fill="#c90000" stroke-width="1pt" rx="58.3" ry="186.5" transform="matrix(.16 -.06 .06 .15 369.6 -145)"/><g class="E"><g transform="rotate(1 242.4 -1957.8)"><ellipse cx="218.1" cy="356.8" rx="10.8" ry="12.9" transform="matrix(.4 0 0 .3 445 -230.5)" class="G"/><g class="H"><ellipse cx="218.1" cy="356.8" rx="10.8" ry="12.9" transform="matrix(.35 0 0 .3 457.2 -236)"/><ellipse cx="218.1" cy="356.8" rx="10.8" ry="12.9" transform="matrix(.35 0 0 .3 452 -236)"/><ellipse cx="218.1" cy="356.8" rx="10.8" ry="12.9" transform="matrix(.37 0 0 .27 449.5 -233.5)"/><ellipse cx="218.1" cy="356.8" rx="10.8" ry="12.9" transform="matrix(.37 0 0 .27 449 -238)"/><ellipse cx="218.1" cy="356.8" rx="10.8" ry="12.9" transform="matrix(.35 0 0 .3 447 -238.8)"/><ellipse cx="218.1" cy="356.8" rx="10.8" ry="12.9" transform="matrix(.35 0 0 .3 448 -241.6)"/></g><ellipse cx="218.1" cy="356.8" rx="10.8" ry="12.9" transform="matrix(.4 0 0 .3 432.8 -243.5)" class="G"/><g class="H"><ellipse cx="218.1" cy="356.8" rx="10.8" ry="12.9" transform="matrix(.37 0 0 .27 446 -243.5)"/><ellipse cx="218.1" cy="356.8" rx="10.8" ry="12.9" transform="matrix(.35 0 0 .3 444.2 -247)"/><ellipse cx="218.1" cy="356.8" rx="10.8" ry="12.9" transform="matrix(.35 0 0 .3 436.1 -243.2)"/><ellipse cx="218.1" cy="356.8" rx="10.8" ry="12.9" transform="matrix(.35 0 0 .3 437.4 -243.9)"/><ellipse cx="218.1" cy="356.8" rx="10.8" ry="12.9" transform="matrix(.35 0 0 .3 439 -247)"/></g></g><g transform="matrix(.18 0 0 .2 421 -216.8)"><g class="D"><ellipse cx="528.7" cy="564.5" rx="67.4" ry="205.6" transform="matrix(.98 -.3 .36 .87 -245.8 324.4)"/><ellipse cx="528.7" cy="646.1" rx="13.3" ry="40.8" transform="rotate(336.6 630.5 660.9)"/></g><g class="G"><use xlink:href="#D" transform="matrix(1.88 -.46 .95 1.18 -352.3 -10)"/><use xlink:href="#D" transform="matrix(1.88 -.46 .95 1.18 -348.4 44)"/><use xlink:href="#D" transform="matrix(1.87 -.5 .98 1.16 -362 105.8)"/></g><ellipse cx="528.7" cy="646.1" stroke-width="1.4" rx="13.3" ry="40.8" transform="matrix(1.8 -.4 .7 1.64 -915.6 -221)"/><g class="H"><ellipse cx="528.7" cy="646.1" rx="13.3" ry="40.8" transform="matrix(1.63 -.23 .54 1.35 -739.5 -91.8)"/><ellipse cx="528.7" cy="646.1" rx="13.3" ry="40.8" transform="matrix(1.63 -.2 .5 1.36 -750.6 -91.8)"/></g><g stroke-width="2.1"><ellipse cx="528.7" cy="646.1" rx="13.3" ry="40.8" transform="matrix(1.3 -.2 .47 1 -531 47.6)"/><ellipse cx="528.7" cy="646.1" rx="13.3" ry="40.8" transform="matrix(1.33 -.13 .4 1.03 -517.9 12.2)"/><use xlink:href="#E" transform="matrix(1.03 -.5 .46 1.18 12.8 -14.5)"/><ellipse cx="528.7" cy="646.1" rx="13.3" ry="40.8" transform="matrix(1.33 -.13 .4 1.03 -519.5 -34.4)"/><ellipse cx="528.7" cy="646.1" rx="13.3" ry="40.8" transform="matrix(1.33 -.1 .38 1.04 -534 -40.1)"/></g><g stroke-width="2.9"><use xlink:href="#E" transform="matrix(.67 -.47 .46 .8 39.5 143.3)"/><use xlink:href="#E" transform="matrix(.67 -.47 .46 .8 51.1 125.8)"/></g><use xlink:href="#E" stroke-width="2.1" transform="matrix(.94 -.64 .64 1.1 -40.2 -10.7)"/><use xlink:href="#E" stroke-width="2.7" transform="matrix(.67 -.52 .46 .88 68.6 71.2)"/></g></g><g stroke-width=".481" class="F"><use xlink:href="#F"/><path d="M500.808-144.212c-1.968 2.024.064 5.544 1.92 6.754 2.08 1.694 13.856 12.804 21.808 2.64-6.528.176-18.992-13.904-23.728-9.394z"/><path d="M499.008-149.812c-1.968 2.024.064 5.544 1.92 6.754 2.08 1.694 13.856 12.804 21.808 2.64-6.528.176-18.992-13.904-23.728-9.394z"/><path d="M495.108-156.212c-1.968 2.024.064 5.544 1.92 6.754 2.08 1.694 13.856 12.804 21.808 2.64-6.528.176-18.992-13.904-23.728-9.394z"/></g></g><g transform="rotate(1 -589.6 681.6)"><g stroke="#000" class="D"><path d="M211.2 247.3c21.7-12 56.6-9.8 79.7 11.2 19.4 17 45.3 75.2 70.3 92.8a57.7 57.7 0 0 1-42.2-15.2c-28.8 15.5-38.1 16.7-64 15.7-35.8-1.4-62.4-17.7-68-40.6-6.3-21.8 4.8-52.5 24.2-63.9z" transform="matrix(.2 -.04 .05 .18 407.8 -213.6)" class="F"/><ellipse cx="287.2" cy="323" fill="red" rx="14.2" ry="15" transform="matrix(.25 0 0 .13 401.8 -215.2)"/><ellipse cx="204.6" cy="348.3" fill="#ff0" rx="23.3" ry="15.9" transform="matrix(.2 -.08 .07 .17 398.7 -208)"/></g><circle cx="283.9" cy="333.9" r="5.8" transform="matrix(.2 0 0 .2 411.3 -233.7)"/><path fill="#ff0" stroke="#000" d="M469.58-170.676c.44 1.44-.67 3.44-3.31 4.208-2.68 1.056-4.61 3.344-5.57 7.04-4.72-8.256-2.3-11.864 2.06-12.824 3.74-1.152 6.04-1.072 6.82 1.576z" stroke-width=".598"/><circle cx="199" cy="362.4" r="4.7" transform="matrix(.2 0 0 .2 418.7 -235)"/></g></g></g></svg>