<svg xmlns="http://www.w3.org/2000/svg" xmlns:xlink="http://www.w3.org/1999/xlink" viewBox="0 0 640 480" xmlns:v="https://vecta.io/nano"><style><![CDATA[.B{fill:#fff}.C{fill:#008300}.D{stroke:#000}.E{fill-rule:evenodd}.F{fill-opacity:1}.G{fill-rule:nonzero}.H{stroke-width:.792}]]></style><path id="A" stroke="none" d="M0 326.4h640V348H0z" class="B F G"/><use xlink:href="#A" width="600" height="330" y="-194.4"/><path id="B" fill="#0087ff" stroke="none" d="M0 348h640v132H0z" class="F G"/><use xlink:href="#B" width="600" height="330" y="-348"/><path fill="red" d="M0 290.4h640v36H0z"/><path d="M0 153.6h640v36H0z"/><path fill="#ff0" d="M0 206.4h640v67.2H0z"/><path id="C" stroke="none" d="M0 273.6h640v16.8H0z" class="C F G"/><use xlink:href="#C" width="600" height="330" y="-84"/><g transform="matrix(.87273 0 0 .87273 41.1 674.6)"><path stroke-width="2" d="M319.6-589.5a80 80 0 0 0-56.7 136.3l-34.2 11 3.1 7.8-11 2.4 8 25.6h181.6l7.9-25.6-11-2.4 3.1-7.9-34.2-10.9a80 80 0 0 0-56.6-136.3z" class="B D"/><path d="m230.5-431.6 7 22.6h164.2l6.9-22.6z" class="C"/><path d="m234.9-428.7 5.1 16.8h159.1l5.1-16.8H275.4z" class="B"/><path d="M246.113-418.805q0 .55-.113 1.058-.113.487-.397.847-.284.381-.756.593-.473.212-1.21.212-.662 0-1.134-.169-.491-.19-.813-.423l.51-1.333q.284.19.624.317.321.148.699.148.567 0 .813-.317.246-.296.246-1.037v-4.973h1.531zm4.158 2.709q-.737 0-1.247-.212-.529-.233-.869-.635-.34-.402-.51-.952-.151-.571-.151-1.227v-4.762h1.531v4.592q0 .466.095.783.095.317.265.529.151.212.378.296.246.085.529.085.567 0 .907-.381.34-.381.34-1.312v-4.614h1.55v4.762q0 .656-.189 1.227-.151.55-.491.973-.359.402-.888.614-.529.212-1.247.212zm6.086-7.788q.189.36.416.91l.491 1.143.491 1.27.473 1.227.454-1.227.491-1.27.491-1.143q.227-.55.416-.91h1.399l.189 1.693.132 1.968q.076 1.016.113 2.053l.095 1.926h-1.493l-.076-2.434-.151-2.645-.378 1.037-.454 1.122q-.189.571-.397 1.079l-.34.868h-1.077l-.321-.868-.416-1.079-.435-1.122-.378-1.037q-.113 1.333-.151 2.645l-.076 2.434h-1.512l.095-1.926.113-2.053.151-1.947.189-1.714zm9.715 7.788q-.718 0-1.247-.212-.529-.233-.869-.635-.34-.402-.51-.952-.151-.571-.151-1.227v-4.762h1.531v4.592q0 .466.095.783.095.317.265.529.17.212.378.296.246.085.529.085.567 0 .907-.381.34-.381.34-1.312v-4.614h1.55v4.762q0 .656-.189 1.227-.151.55-.491.973-.359.402-.888.614-.529.212-1.247.212zm4.272-7.788h1.55v7.64h-1.531zm5.632 3.132l.794-1.566q.378-.783.68-1.566h1.701q-.567 1.227-1.172 2.391-.605 1.164-1.266 2.328v2.92h-1.531v-2.899q-.68-1.164-1.285-2.328-.605-1.185-1.172-2.413h1.796q.302.783.68 1.566l.756 1.566zm7.598 4.508l-.246-.804-.265-.847h-2.646l-.284.847-.227.804h-1.625l.737-2.286.662-1.968.662-1.757q.321-.847.662-1.63h1.474q.34.783.662 1.63l.643 1.757.68 1.968.737 2.286zm-1.852-5.926q-.038.19-.151.466l-.227.656-.284.847-.302.931h1.947l-.302-.952-.284-.825-.227-.635-.17-.466zm9.243 1.418l.794-1.566q.378-.783.68-1.566h1.701q-.567 1.227-1.153 2.391-.605 1.164-1.285 2.328v2.92h-1.512v-2.899l-1.285-2.328q-.605-1.185-1.153-2.413h1.777l.68 1.566.775 1.566zm7.598 4.508l-.246-.804-.265-.847h-2.646l-.265.847-.246.804h-1.588l.718-2.286.68-1.968.643-1.757q.321-.847.68-1.63h1.455q.34.783.662 1.63l.662 1.757.68 1.968.718 2.286zm-1.833-5.926l-.151.466-.227.656-.284.847-.302.931h1.928l-.302-.952-.284-.825-.227-.635-.151-.466zm11.303 5.926l-.246-.804-.265-.847h-2.646l-.265.847-.246.804h-1.588l.718-2.286q.34-1.058.68-1.968l.643-1.757q.321-.847.662-1.63h1.474q.34.783.662 1.63l.643 1.757.68 1.968.737 2.286zm-1.852-5.926l-.132.466-.227.656-.284.847-.321.931h1.947l-.302-.952-.284-.825-.227-.635-.17-.466zm4.385 5.926v-7.64h4.574v1.439h-3.024v1.608h2.684v1.439h-2.703v3.174zm7.655-7.724q1.531 0 2.344.614.832.614.832 1.905 0 .804-.34 1.312-.321.487-.945.783l.435.635.435.783.435.847.378.847h-1.701l-.397-.762-.378-.741-.416-.698-.378-.593h-.756v2.794h-1.55v-7.534q.51-.106 1.04-.148l.945-.042zm.095 1.46h-.34l-.246.042v2.074h.435q.869 0 1.247-.254.378-.233.378-.825 0-.571-.378-.783-.378-.254-1.134-.254zm4.48-1.376h1.531v7.64h-1.531zm7.145 7.64q-.208-.381-.491-.804l-.624-.868q-.321-.444-.68-.847-.359-.402-.699-.72v3.238h-1.55v-7.64h1.55v2.878q.605-.698 1.191-1.46l1.134-1.418h1.833q-.699.931-1.418 1.778-.699.868-1.474 1.735.813.762 1.569 1.82.775 1.058 1.474 2.328zm7.504 0l-.227-.804-.265-.847h-2.646l-.284.847-.227.804h-1.607l.737-2.286.662-1.968.662-1.757q.321-.847.662-1.63h1.474q.34.783.662 1.63l.643 1.757.68 1.968.737 2.286zm-1.833-5.926l-.132.466-.227.656-.302.847-.302.931h1.947l-.302-.952-.284-.825-.227-.635-.17-.466zm8.562-1.714q.189.36.397.91l.491 1.143.491 1.27.473 1.227.454-1.227.491-1.27.491-1.143q.227-.55.416-.91h1.399l.189 1.693.132 1.968q.076 1.016.113 2.053l.095 1.926h-1.493l-.076-2.434-.151-2.645-.378 1.037-.454 1.122q-.189.571-.397 1.079l-.34.868h-1.077l-.321-.868-.416-1.079-.435-1.122-.378-1.037q-.113 1.333-.151 2.645l-.076 2.434h-1.512l.095-1.926.113-2.053.151-1.947.189-1.714zm11.605 7.64l-.265-.804-.246-.847h-2.665l-.265.847-.246.804h-1.588l.718-2.286.68-1.968.643-1.757q.321-.847.68-1.63h1.455q.34.783.662 1.63.34.847.662 1.757l.68 1.968.718 2.286zm-1.852-5.926l-.151.466-.227.656-.284.847-.302.931h1.928l-.302-.952-.284-.825-.227-.635-.151-.466zm6.426 4.614q.321 0 .529-.063.208-.063.34-.148.132-.127.189-.254.038-.148.038-.317 0-.381-.321-.635-.302-.254-1.077-.529l-.68-.296q-.321-.19-.586-.423-.265-.275-.435-.635-.189-.381-.189-.91 0-.529.189-.952.189-.423.51-.72.321-.296.794-.466.454-.148 1.04-.148.68 0 1.191.148.491.169.832.381l-.454 1.354q-.284-.169-.643-.296-.34-.127-.832-.127-.567 0-.794.169-.246.169-.246.529 0 .212.095.339.095.148.246.275l.378.212.473.19q.529.212.926.423.378.212.643.508.265.296.397.677.132.381.132.931 0 1.058-.68 1.672-.662.571-2.004.571-.454 0-.832-.063-.359-.042-.643-.148l-.491-.169-.321-.212.435-1.354q.302.19.756.339.435.148 1.096.148zm7.976-6.328h1.55v7.64h-1.55v-3.238h-2.571v3.238h-1.55v-7.64h1.55v2.899h2.571zm7.674 7.64l-.227-.804-.265-.847h-2.646l-.284.847-.227.804h-1.607q.378-1.227.756-2.286.321-1.058.662-1.968l.643-1.757q.321-.847.662-1.63h1.474q.34.783.662 1.63l.643 1.757.68 1.968.737 2.286zm-1.833-5.926l-.132.466-.227.656-.302.847-.302.931h1.947l-.302-.952-.284-.825-.227-.635-.17-.466zm6.37-1.799q1.55 0 2.363.614.813.614.813 1.905 0 .804-.321 1.312-.34.487-.945.783l.435.635.435.783.435.847.378.847h-1.701l-.397-.762-.397-.741-.378-.698-.416-.593h-.756v2.794h-1.531v-7.534q.491-.106 1.021-.148l.983-.042zm.095 1.46h-.284l-.246.042v2.074h.435q.869 0 1.247-.254.378-.233.378-.825 0-.571-.378-.783-.378-.254-1.134-.254zm4.48-1.376h1.55v7.64h-1.55zm7.145 7.64q-.189-.381-.491-.804-.265-.423-.605-.868-.321-.444-.68-.847-.359-.402-.718-.72v3.238h-1.512v-7.64h1.512v2.878q.605-.698 1.21-1.46l1.134-1.418h1.814q-.699.931-1.399 1.778-.699.868-1.474 1.735.813.762 1.569 1.82.756 1.058 1.474 2.328zm2.722-7.64h1.512v7.64h-1.512z"/><g id="D" class="E"><path d="m230.5-431.6 10.4-2.8-3.2-5.7 17.9-6.7v6.1h5.5v9.3h-30Z" class="C"/><path d="M258.5-431.4h-21.8l21.8-5.9zm-4.8-9.2H244l10-3.8zM241-439l2.2 4 14.5-4z" class="B"/></g><use xlink:href="#D" width="600" height="330" transform="matrix(-1 0 0 1 639.1 0)"/><g class="D"><path fill="#ff0" stroke-width="1.2" d="M317.7-580A70.8 70.8 0 0 0 294-443.4v-7.8a63.5 63.5 0 0 1 25.2-121.6h.5a63.5 63.5 0 0 1 25.6 121.6v7.8A70.7 70.7 0 0 0 319.6-580h-1.9z"/><g class="B E"><path stroke-width=".871" d="m339-458.3.1 10.6c-6.4 1-13.5 7.6-15.4 8.8-1.9 1.3-5 3.8-6.7 3.6-2.9-.4-.8-2.7-.8-2.7s-2 2.4-3.4 1.3c-1.4-.9.8-2.7.8-2.7s-.7 1-2.2.5c-1.4-.4-.4-2-.4-2s-3.8 2-4.5 1.3c-1-1.3.4-2.5.4-2.5l8.9-7.5s-5.8 2.1 0 0c4.9-2 6.3.8 8.5.6 2.4-.2 8.5-3.5 10.2-5.1 1.7-1.7 1.2-3.5 2.5-4s2-.2 2-.2z"/><path d="M300-457.5l-.1 9.8c6 .8 12.7 7.2 14.5 8.4 1.7 1.1 4.7 3 6.3 2.8 2.6-.3 2-1.3 2-1.3s1.2.6 2.8 0 .8-1.7.8-1.7 2.4.7 3.4-.6c1-1.1-1-2.3-1-2.3s1-.7-.6.2c-1.6.8-4.8-2.8-8-3-3.3 0-3.6 3.2-5.6 1.7-2.1-1.6 1.6-4.2 2.9-4.6 5.1-1.7 9.9.4 3.7-2-3.2-1.2-5.7 1.1-7.8 1-2.2-.1-7.6-3-9-4.6-1.6-1.6-1.2-3.2-2.4-3.7-1.2-.4-1.9-.2-2-.1z" class="H"/></g><path fill="none" d="m326.4-439.5-4.3-1.8m1.1 3.7-5-3" class="H"/></g><path d="M291.8-462.6c-12.4 6-13-9.8-18.6-9.6 10.5-7 8.8 6 18.6 9.6zM287-480c-6.2 11.3 8.3 12.8 7.8 18.3 7.1-9.6-5-8.8-7.8-18.3zm-6 4.4c-15.3 2.6-11.1-10.6-17.5-11.7 13.5-4 7.7 6.2 17.5 11.7zm-1.6-15.6c-8.4 9.9 3.7 10.4 2.3 15.6 8.7-8-.3-7.7-2.3-15.6zm-8.8 1.8c-15.2-2.2-5.6-17.7-10.2-21 12.5.9 4.4 14.5 10.2 21zm5.8-19.6c-14 6.7.1 13.9-5.4 20 13.8-.7 1.6-9.7 5.4-19.8zm-7.8.5c-16.3-7.4.7-21.4-2.2-26.5 11.1 11.3-5.8 15.5 2.2 26.5zm10.4-18.8c-14 1.8-7 14.7-9.9 19.3 11-2.5 2.2-9 10-19.3zm-6.8-3.9c-7.9-12 5.3-14.7 6.2-20.8 3.8 15.8-5.2 10.7-6.2 20.8zm15.8-10c-13-3.7-10.6 9.4-15 12.5 11 1.8 8.7-8.7 15-12.5zm-6-5.6c-2.6-10.4 2.6-8.7 8.5-13.3 3.2 8.4-4.7 7.4-8.5 13.3zm16.6-1.6c-10-7.4-11.1 2.6-16.3 4 9.6 5.7 10-2.8 16.3-3.9zm-6-5c.3-4.5 6.3-10.4 12.5-8.4-.3 7.5-7.5 9.4-12.5 8.5z" stroke-opacity="1" id="E" stroke-width=".382" stroke-dasharray="none" stroke-miterlimit="4" class="C D E"/><use xlink:href="#E" width="600" height="330" transform="matrix(-1 0 0 1 639.1 0)"/><path d="M307.314-566.405l.596 3.504 1.864-.373c.522 0 .82-.224.969-.373.224-.224.298-.596.224-1.118h.224l.522 2.982h-.224l-.298-.746-.447-.298h-.82l-1.938.373.447 2.908.224.746.224.075h.447l1.491-.224 1.044-.298.596-.522c.224-.298.447-.746.596-1.342h.298l-.373 2.237-6.71 1.193-.075-.224h.298l.522-.298c.149-.149.224-.224.224-.373v-.895l-1.044-5.666c0-.522-.149-.895-.298-.969-.224-.149-.447-.224-.82-.149h-.298v-.149l6.71-1.193.373 1.938h-.224a2.98 2.98 0 0 0-.447-.895l-.596-.298a2.98 2.98 0 0 0-.895 0l-2.386.447m12.824 4.25h-3.43l-.596 1.417c-.118.234-.193.486-.224.746a.41.41 0 0 0 .224.373c.149.149.373.149.82.224v.224h-2.759v-.224c.373 0 .596-.149.746-.224l.746-1.342 2.982-7.306h.298l3.131 7.381c.224.596.447.969.671 1.118.224.224.447.298.82.298v.298h-3.504v-.224c.373 0 .596-.075.746-.224.149-.075.149-.224.149-.373s0-.447-.224-.895l-.596-1.267m-.149-.522l-1.491-3.579-1.566 3.653h3.057m13.271-4.101l-.298 2.982h-.224a3.8 3.8 0 0 0-.746-2.088 2.98 2.98 0 0 0-1.715-.895 2.98 2.98 0 0 0-3.057 1.342c-.373.596-.596 1.417-.746 2.386a5.22 5.22 0 0 0 0 2.088c.149.671.447 1.193.895 1.491.447.447 1.044.746 1.715.82.522.075 1.044.075 1.491-.075.522-.149 1.044-.596 1.715-1.193l.224.149c-.596.746-1.193 1.193-1.864 1.491-.671.224-1.342.298-2.237.149-1.417-.298-2.46-.969-2.982-2.237-.473-.918-.63-1.966-.447-2.982.149-.82.447-1.64.969-2.237.522-.746 1.193-1.193 1.938-1.491 1.397-.57 2.994-.342 4.175.596l.298.224.373-.075.298-.447h.224"/><path fill="red" d="M317.2-550.3c-1 0-2 .2-2.9.4a13 13 0 0 1-7 5.8l-.6.2a13.4 13.4 0 0 1-9.7.3 41.5 41.5 0 0 0-7.6 6.5 13.1 13.1 0 0 1-2 9.5 13.4 13.4 0 0 1-7.2 6.4c-1 3.2-1.6 6.6-1.7 10 2 1.5 3.7 4.4 4.4 7.9l.2.7c.7 3.8 0 7.4-1.4 9.5 1.3 3.1 3 6 5 8.7 2.4-.2 5.6 1 8.4 3.1l.5.5c3 2.5 4.8 5.6 5 8.2 3.1 1.6 6.3 2.8 9.7 3.5 1.8-1.7 5-3 8.6-3h.7c3.9 0 7.3 1.2 9.2 3 3.4-.7 6.6-2 9.6-3.5a13.2 13.2 0 0 1 5-8.3 13.6 13.6 0 0 1 9-3.5c2-2.6 3.7-5.5 5-8.5a13 13 0 0 1-1.5-8.9v-.6c.8-3.9 2.6-7 4.7-8.6a41 41 0 0 0-1.7-10 13 13 0 0 1-6.8-5.9l-.4-.6c-2-3.4-2.6-7-2-9.5a39 39 0 0 0-7.9-6.7 13 13 0 0 1-9 0l-.7-.3a13.5 13.5 0 0 1-7.6-6c-1.6-.2-3.3-.3-5-.3h-1.8a1 1 0 0 0-.1 0h-.5zm-3 .4zm11 81.5z"/><g class="D"><g fill="#fbf014" stroke-width=".4"><path d="M354.7-509.4a35.1 35.1 0 1 1-70.3 0 35.1 35.1 0 0 1 70.3 0z"/><path d="M351.7-509.4a32.2 32.2 0 1 1-64.4 0 32.2 32.2 0 0 1 64.4 0z"/></g><g class="E"><g stroke-width=".357"><path fill="#0087ff" d="m310-525.2 10.6 1.9-1.4 10.6-9 6.2-5-5.5.3-8.7z"/><g class="B"><path d="M307-517.4l-4.2.2h-.4v.2h-.1l-.1.3-.4.2v.2l-.3.2-.4.2h-.1l-.1-.4h-.6l-.3.1v-.5l-.1-.1v-1h.2v-.9l.1-.2v-.2l.3-.3.3-.1v-.3l.1-.3.1-.1-.1-.2-.3.2-.3-.2v-.6l.3-.2.1.1.2-.8.3-.3-.2-.5.2-.3-.1-.4.9-.3v-.3l.1-.4.4-.1.3-.2.2.5v.3h.2l.2-.4.2-.1v-.3l.6-.7.2-.2.4-.2h.4l.3-.4v-.4h.2l.2-.2-.1-.3v-.7h-.2v-.2l-.2.3-.2-.1v-.3h-.6l-.2-.4-.2.1v.3l-.2-.1v-.4h-.4l.1-.4.4-.7v-.4l-.4-.4.3-.8.4-.4v-.5l-.3.1.4-.5.7-.3h.4l.6.4.2-.1h.3l.5-.4.5.4v.3h.4l.1.2h.3v-.3l.7-.3 1-.1.9-.5.5.4h1.1l1.7-1.5 5.2 1.2-.3 9-5.4 3-.3-.2-.1.1h-.1v-.5h-.3v.6h-.4l-.4-.2v-.2h.4v-.1l-.3-.1h-.3v-.2l.3-.2v-.1l-.3.2-.2-.1-.2.1.2.3-.3.2v.2l-.4-.1v.2h.2l-.6.4-.2-.2v-.1l-.3.2h-.4v-.1l.4-.1-.1-.1h-.3v-.3l-.1.3h-.2v.5h-.4l-.1-.2s-.3 0-.2.2v.3l-.3-.2h-.2v.3h-.2l-.4-.2.2.3h-.4l-.2.1.2.2.1.2.2.2-.1.1h-.1l-.3.3h-.2l-.1.3-.2.1.1.2h.1v.2h-.1l-.4.4v.1h.3z"/><path d="M314.2-517.3l11.5 6.3.1.9-.4.2.1.4.4.1.1.4 4.5 3.2.3-.2.4.2.1-.4.3-.3.5-1.1-.3-.1.2-.4h.2l.4-.5v-.4l-.2-.3.3.1.4-.9.4-.1.1-.7.2-.2s-.2-.8 0-1.1c.3-.3 1.3-.3 1.3-.3l.6-.7v-.2l.4-.3-.4-.7.8.2.6-.2h.4l.6-.8v-.3l-1.9-2.4v-11.7l1.1-1 1.8-2.5-.5-.2-1.8.2-.5-.6h-.2l-.1-.4-.4-.2-3 1.4-.1.5-.7.6v.4h-.2l-.2-.1-3.1-.7-.2.2h-1l-3.7-2.7h-2.7l-.6-.2v-.3h-5l-1 1 .2 1.3h.5l.2.6h.5l-.1.6h-.1v.7l.2.3.3.2v.5l.6.3.1.7.4.2v.3l-.2.4.4.6-.1.4.2.5v.2l-.1.6-.3.2-.1.4h-.2v.8h-.5l-.2.3-.3-.1v.7l-.3.4h-.3v.3l-.4.2-.1.5v.5l-.5.2v.9l.3.1h.2l-.1.3.3.1.2.5.4-.3v-.3h.5l.6-.3.2.4.2.3h-.4l-.1.2h-.3l-.5-.1v.2l.2.2-.3.2-.1-.2-.3.1h-.2l-.3-.2v.4h-.2l-.2.5.3.3.3.2-.3.4zm17.6 21.8l.4-.3v-.2h.4l.2-.5v.5l-.2.2v.3h-.2v.3l-.1-.2zm-1.2-5.6v-.7l-.1-.1.4-.3v-.4l.5-.2v.4h-.3v.6l.2.3v.3l.3.2.3.4v.3l-.3.1-.4-.5-.4.1zm1.5-2.6v-.4l.2-.4-.3-.8h.4l.1.4h.2v-.3s.2-.1.2 0l-.1.9.1.4-.2.3-.3.3z"/><path d="m334.4-487.5-1.3 1-1.8.8-.5.3h-.9l-.7.2-.4.2-.5.5-.8-.5h-1l-.3.3v.5l-.7.3h-.3l-.3.2-1-.1-.4-.4-.5.1-.8.6-.4-.1v-.2h-.3l-.2.2-.5-.1v-.4h-.3l-.4-.6h-.5l-.1.3-.4.3-.4-.1h-1.5l-.4-.7h-.4l-.4-1v-.5l.2-.2v-.6l-.4-.3.1-1-.1-.2-.1-.4-.7-.7v-.3l-.8-.6h-.3v.6l-.4-.1-.2-.3-1 .2-.4-.5-.5.1-.4-.3h-.5l-.4-.4h-.9l-.2-.6h-.6l-.2-.1h-.7v-.3l-.8-.1-.4-.3v-.5l-.6-.3-.5.1-.2-.6-.5-.4-.1-.6-.7-1v-.4l-.4-.4v-.8l-.3-.4v-.4h.2v-.3l-.5-.4-.2-.4-.8-.6h-.6l-.7-.8v-.4l.3-.4h.4l.1-.3v-.3l-.7-1v-.5l.3-.2-.1-.6-.6-.6v-.6l.1-.5v-.2l.6-.2.3-.2.3-.3v-.3l.6-.2v-.3l.5-.6v-.3l.3-.5.7-.3v-.2l.5-.3v-1l-.2-.1h-.3l-.3-.1h-.5v-.3l.3-.4-.2-.2.3-.6 1-.1v-.7l.1-.3-.4-.5v-1l-.2-.3v-.3l-.5-.3-.4-.7h.6l.3-.3h3.5l.1.3v.4l-.2.5-.1.3v.2l-.1.4v.4l-.2.2v.3l-.2.2h.3v.5l-.2.4h.8l-.3.6-.1.4.1.6.4-.4.3.3v-.5l.1-.4.4.2.1-.2-.2-.4.4-.4.4.5.3.1.2.5.3-.6.1.4h.4v.4l.3.4-.4.2v.5h.3v-.5h.4l-.2-.5-.1-.4.4-.6h.4l.2.5h.7l.6-.6.8-.3-.2-.5h-.2l-.3.3-.9-.1-.3-.2-.2.2h-.3l-.8-.3v-.3l-.2-.1.4-.2.2.3h.2l.3-.1.4.3.6-.1v-.3l-.4-.1v-.3h.7l.1-.2.5-.2-.3-.4v-.2l1 .2-.5-.4.1-.4.6.4v-.2l-.4-.3.6-.6 11.6 6.3.1.9-.4.3v.4h.5v.4l4.5 3 .3.5-.3.3-.2.4-.1.7-.2.4v.6l-.4.4-.3.7v.5l.3.4-.2.6.5.4h.3l.9 1 .4.4.2.5-.2.5-.3.1-.3 1v.6l.4.4-.1.4-.2.6-.2.6.2.6.2.5.2.2v.4h-.2l.3.5.4.2v.8h-.1v.2l.4.3.2 1-.2.3v.2h.6l.2.5.4-.1.7.3.3.5z"/></g></g><g stroke-width=".465" class="B"><path d="M298.1-512.9c-.3-.3 1-1 .8-1.5 0-1 .5-1.3 1.6-1.7l.6-.4c.3.2.3.7.6.4.3-.2 1-1.3 1.5-1.1-.3.4.3 1.2.7 1.5l.6 1.9c-.2.7-.6.7-1.4.6-.8-.3-1 .3-1.6-.2-.1.7 0 1.3-.9 1.6-.5 0-1 0-1-.3-.4-.5-1-.5-1.2 0-.1-.2-.3-.3-.3-.8"/><path d="M298.4-512.1c.5-1.1 1.1.1 1.3.1 1.5.2 1.5-.1 1.8-1.5.8.6.5 0 2.2.4-.3 0-1 .8-.5.8-.4 1.1.5 1.1 1.1 1-.3.4.5.6-.3 1-.5.3-.5 0-.5.7l-.6.1c-.1.2.3.6.2.6 0 0-.2.5-.6.8-.5.3-.7.8-1.3 1l-.7.2-1-1.8c-.1-.5 0-1.1-.3-1.6v-.9c-.3-.3-.6-.5-.8-1"/></g></g></g></g></svg>