<svg xmlns="http://www.w3.org/2000/svg" xmlns:xlink="http://www.w3.org/1999/xlink" viewBox="0 0 640 480" xmlns:v="https://vecta.io/nano"><style><![CDATA[.B{stroke:#000}.C{fill:none}.D{fill:#fff}.E{stroke-width:1.067}.F{fill:#bcac0b}.G{stroke-width:.747}.H{fill:#fc0}.I{stroke-width:.534}.J{fill:#ccc}.K{stroke-width:.32}.L{stroke-width:.427}.M{fill-opacity:.9}.N{stroke-width:1.601}]]></style><path fill-rule="evenodd" d="M0 0h640v480H0z" class="D"/><path fill="#09c" d="M640 410.1 91.7-.1H0v68.4L550.4 480H640v-69.8"/><path fill="#005bbf" d="M316.4 352.3c-64 0-62-60.3-62-60.3v-92.8h124V292s2.2 60.3-62 60.3"/><path d="M316.374 352.313c-64 0-61.974-60.318-61.974-60.318v-92.773h124.054v92.773s2.133 60.318-62.08 60.318z" class="B C E"/><path fill="#d81126" d="M315.8 141s-13.2-6.5-25.7 3c0 0-22.5-3.3-24.2 18.3 0 .8-.2 2.4.2 3 .5.4.9 1.3.9 1.9s.3 1 .5 1.2c0 .3.4.7.6 1.8 0 1.2-.3 1.7 1 2.9 1 1 1 4.3 1 5.3s.6 3.5 1 4c.6.6 1.4 2 1.4 3.2 0 1 .5 4.2.2 5-.2.8 1.3 1.8 2.6 2.2s17 5.6 40.1 5.1c23-.3 31.4-1.6 41-5a2.3 2.3 0 0 0 1.6-2.4 7 7 0 0 1 .3-3.3c.4-.6 3.2-5 2.6-5.7-.6-.9-.6-2.6 0-3.2.5-.7 2.2-4 2.5-5.3s.4-3 1-3.3c.6-.5.8-2 1-2.4a4.3 4.3 0 0 1 1.2-1.7s1-5.5.4-8.1c-.7-2.7-4.8-14.2-21-11.8 0 0-12.2-9.3-30.2-4.8"/><path d="M315.841 140.932s-13.227-6.405-25.707 2.989c0 0-22.507-3.203-24.213 18.362 0 .854-.213 2.455.213 2.989.427.427.853 1.281.853 1.922s.32.961.533 1.174c0 .32.427.747.533 1.815 0 1.174-.213 1.708.96 2.882 1.067 1.068 1.067 4.377 1.067 5.338s.64 3.523 1.067 4.057c.533.534 1.387 1.922 1.387 3.096 0 1.068.427 4.27.213 5.018-.213.854 1.28 1.815 2.56 2.242s17.067 5.551 40.107 5.124c23.04-.32 31.36-1.601 40.96-5.018a2.35 2.35 0 0 0 1.6-2.455c-.213-.641 0-2.776.32-3.309.427-.534 3.2-4.911 2.56-5.658-.533-.854-.533-2.562 0-3.203.533-.747 2.24-3.95 2.56-5.338.32-1.281.427-2.882 1.067-3.309.533-.427.747-2.028.853-2.349a4.27 4.27 0 0 1 1.28-1.708c0 0 1.067-5.445.427-8.114-.747-2.669-4.8-14.199-21.12-11.743 0 0-12.16-9.288-30.08-4.804z" class="B C N"/><path d="M360.1 181c-50.1-15.8-89-.7-89-.7s.5 1.7.9 2.3 1 1.8 1 2.7v3c0 .8-.4 4 2.4 3.9 0 0 35-13.7 80.4.7 0 0 1.3-1 1.3-2.6a8.5 8.5 0 0 1 1-4.3c.6-.9 2-3.6 2-5" class="F"/><path fill="#c8b100" d="M313.6 264.9h-21.9s-2.1 19.5 14.8 25.5v1.7h3.5v2.4s-6.2 5.5-.8 12v1.8h.9v3.2h1v5s-.8 18.2-18.7 27v1H340v-1c-17.9-8.7-18.7-27-18.7-27v-5h1v-3.2h1v-1.9c5.2-6.4-1-12-1-12v-2.3h3.7v-1.7c16.7-6 14.6-25.5 14.6-25.5h-27.1" class="M"/><g class="B C"><path d="M313.601 264.878h-21.867s-2.133 19.537 14.72 25.515v1.708h3.52v2.349s-6.187 5.551-.747 11.957v1.922h.853v3.203h1.067v5.018s-.853 18.149-18.773 26.903v1.068h47.68v-1.068c-17.813-8.647-18.667-26.903-18.667-26.903v-5.018h1.067v-3.203h.853v-1.922c5.333-6.405-.853-11.957-.853-11.957v-2.349h3.627v-1.708c16.747-5.978 14.613-25.515 14.613-25.515h-27.093z" class="E"/><path d="M305.708 290.073h21.013m-20.267 1.601h19.627m-16 2.669h12.267m-13.12 12.277h13.973m-13.227 1.495h12.373m-12.373 2.989h12.267m-19.733 24.768h27.2m-34.88 6.299h42.667m-44.267.961h45.867" class="K"/></g><path d="M316.4 263.8a14 14 0 1 0 0-27.9 13.9 13.9 0 0 0 0 27.8" class="J"/><path d="M316.374 263.811a13.93 13.93 0 1 0 0-27.864c-7.658 0-13.867 6.214-13.867 13.879s6.208 13.879 13.867 13.879z" class="B C E"/><path d="M284 223h-8.6v-8.8h-7.7v8.7H259v7.7h8.7v8.5h7.7v-8.5h8.5V223" class="J"/><path d="M284.054 222.922h-8.64v-8.754h-7.68v8.754h-8.747v7.687h8.747v8.541h7.68v-8.541h8.533v-7.687" class="B C E"/><path d="M374.2 223h-8.7v-8.8H358v8.7h-9v7.7h8.8v8.5h7.6v-8.5h8.7V223" class="J"/><path d="M374.188 222.922h-8.64v-8.754h-7.68v8.754h-8.747v7.687h8.747v8.541h7.68v-8.541h8.64v-7.687" class="B C E"/><path d="M328.5 212h-8.7v-8.6H312v8.5h-8.5v7.7h8.5v8.8h7.7v-8.8h8.7V212" class="J"/><path d="M328.534 211.926h-8.747v-8.541h-7.68v8.541h-8.533v7.687h8.533v8.754h7.68v-8.754h8.747v-7.687" class="B C E"/><path d="M284 260.5h-8.6v-8.8h-7.7v8.8H259v7.7h8.7v8.5h7.7v-8.5h8.5v-7.7" class="J"/><path d="M284.054 260.501h-8.64v-8.754h-7.68v8.754h-8.747v7.687h8.747v8.541h7.68v-8.541h8.533v-7.687" class="B C E"/><path d="M374.2 260.5h-8.7v-8.8H358v8.8h-9v7.7h8.8v8.5h7.6v-8.5h8.7v-7.7" class="J"/><path d="M374.188 260.501h-8.64v-8.754h-7.68v8.754h-8.747v7.687h8.747v8.541h7.68v-8.541h8.64v-7.687" class="B C E"/><path d="M284 298.4h-8.6v-8.6h-7.7v8.6H259v7.7h8.7v8.6h7.7v-8.5h8.5v-7.8" class="J"/><path d="M284.054 298.4h-8.64v-8.647h-7.68v8.647h-8.747v7.687h8.747v8.647h7.68v-8.541h8.533V298.4" class="B C E"/><path d="M374.2 298.4h-8.7v-8.6H358v8.6h-9v7.7h8.8v8.6h7.6v-8.5h8.7v-7.8" class="J"/><path d="M374.188 298.4h-8.64v-8.647h-7.68v8.647h-8.747v7.687h8.747v8.647h7.68v-8.541h8.64V298.4" class="B C E"/><path fill="#005bbf" d="M316.3 122.4a8.4 8.4 0 1 0 0-16.8 8.4 8.4 0 0 0 0 16.8"/><path d="M316.268 122.356a8.38 8.38 0 1 0 0-16.761 8.38 8.38 0 1 0 0 16.761z" class="B C E"/><path d="M324 112.5h-6.8v-11h2.7v-2.2h-2.7v-2.7h-2.1v2.6h-2.7v2.2h2.6v11.1h-6.4v1.5H324v-1.5" class="H"/><path d="M324.054 112.535h-6.827v-11.103h2.667v-2.135h-2.667v-2.669h-2.133v2.562h-2.667v2.242h2.56v11.103h-6.4v1.495h15.467v-1.495" class="B F I"/><path d="M282.9 132.3s6.2-.7 9.7.7c0 0-4 4.7-3.2 10.8a15 15 0 0 0 2 6.4 11 11 0 0 1 1.3 7h1.2s1.1-5-.8-7.8a10.7 10.7 0 0 1-1-11c2-4 4.9-5.7 4.9-5.7a18 18 0 0 0 12.1-1.4c2-1.4 3-3.4-.6-3.5-3.8-.2-10-.1-14.2 3.1 0 0-2.2-2.6-13.4-1.4-11.2 1.3-19.2 6-21.8 16.1-1.3 5.2 3.5 16 7.9 18.5 0 0-.1-1.7.3-3 0 0-7.5-8.4-5.3-16.2 2.3-7.7 11.3-12.8 20.9-12.6" class="H"/><path d="M282.881 132.285s6.187-.641 9.707.747c0 0-4.053 4.697-3.2 10.783.427 3.203 1.067 4.804 2.027 6.405.853 1.388 1.813 4.591 1.28 7.046h1.173s1.173-5.124-.747-7.9c-2.37-3.182-2.781-7.417-1.067-10.996 2.027-4.057 4.907-5.658 4.907-5.658 3.2 1.281 10.24 0 12.16-1.388 2.027-1.388 2.987-3.416-.64-3.523-3.733-.214-9.92-.107-14.187 3.096 0 0-2.24-2.562-13.44-1.388-11.2 1.281-19.2 6.085-21.76 16.12-1.28 5.124 3.52 15.907 7.893 18.469 0 0-.107-1.708.32-2.989 0 0-7.467-8.434-5.333-16.227 2.347-7.687 11.307-12.811 20.907-12.597z" class="B F G"/><path d="M303.9 130.8c2-.2 3.5-.5 3.4-.8 0-.3-1.6-.3-3.5-.2-2 .1-3.4.6-3.4.8 0 .3 1.6.3 3.5.2" class="D"/><path d="M296.854 132.605s-2.133 2.135 0 0 6.827-3.416 9.493-2.882c2.56.641-.533.961-1.387 1.068-.853 0-2.56.32-5.12 0" class="B C G"/><path d="M349.5 133s-6-.7-9.7.7a15.6 15.6 0 0 1 1.3 17c-1 1.7-1.9 4.8-1.4 7.2h-1s-1.3-5 .7-7.9a10.7 10.7 0 0 0 1-10.9 13.4 13.5 0 0 0-4.8-5.7c-3.3 1.3-10.4 0-12.3-1.4-2-1.4-3-3.3.8-3.6 3.6-.2 9.9 0 14.1 3.2 0 0 2.2-2.6 13.5-1.3 11 1.1 19.2 6 21.6 16 1.3 5-3.4 15.9-7.8 18.4 0 0 0-1.7-.3-3 0 0 7.5-8.3 5.3-16-2.3-7.9-11.2-12.9-21-12.7" class="H"/><path d="M349.548 133.032s-6.08-.747-9.707.641a15.6 15.6 0 0 1 1.28 17.081c-.96 1.601-1.92 4.697-1.387 7.153h-1.067s-1.28-5.018.747-7.9c2.293-3.178 2.662-7.358.96-10.889a13.45 13.45 0 0 0-4.8-5.765c-3.307 1.388-10.347 0-12.267-1.388s-2.987-3.309.747-3.523c3.627-.214 9.92-.107 14.187 3.203 0 0 2.133-2.669 13.44-1.388 11.093 1.174 19.2 5.978 21.653 16.014 1.28 5.124-3.413 15.907-7.787 18.469 0 0 0-1.708-.32-2.989 0 0 7.467-8.327 5.227-16.12s-11.2-12.811-20.907-12.597z" class="B F G"/><path d="M328.5 131.4c-1.9 0-3.4-.4-3.4-.7 0-.2 1.6-.3 3.5-.2 2 .2 3.6.5 3.6.7 0 .3-1.6.4-3.7.2" class="D"/><path d="M335.574 133.246s2.24 2.135 0 0c-2.133-2.028-6.827-3.416-9.387-2.776-2.667.534.427.854 1.28.961.96 0 2.667.427 5.227 0" class="B C G"/><path d="M310.5 126v24c-.2 2.3 2.9 5.7 5.1 6.6 0 0 5.4-1.7 5.7-6.6v-25h-1.8v21.7c0 2.1-1.5 6.2-3.6 6.8 0 0-3.8-.6-4-6.8v-21.1l-1.4.6" class="H"/><path d="M310.508 126.093V149.9c-.213 2.349 2.88 5.658 5.12 6.619 0 0 5.333-1.708 5.653-6.619v-25.088h-1.813v21.779c0 2.135-1.493 6.192-3.52 6.833 0 0-3.84-.641-4.053-6.833v-21.138l-1.387.641" class="B F G"/><use xlink:href="#B" class="D"/><use xlink:href="#C" class="B C E"/><use xlink:href="#D" class="D"/><use xlink:href="#C" x="-1.814" y="-6.512" class="B C E"/><use xlink:href="#D" x="0.9" y="-7.9" class="D"/><use xlink:href="#C" x="-0.854" y="-14.412" class="B C E"/><use xlink:href="#D" x="5.3" y="-14.5" class="D"/><use xlink:href="#C" x="3.52" y="-21.031" class="B C E"/><use xlink:href="#D" x="10.6" y="-19.3" class="D"/><use xlink:href="#C" x="8.747" y="-25.835" class="B C E"/><use xlink:href="#D" x="17.4" y="-22" class="D"/><use xlink:href="#C" x="15.573" y="-28.504" class="B C E"/><path d="M280.5 129a2.9 2.9 0 1 0 0-5.8 2.9 2.9 0 0 0 0 5.7" class="D"/><path d="M280.534 128.975a2.88 2.88 0 0 0 0-5.765 2.88 2.88 0 0 0 0 5.658z" class="B C E"/><use xlink:href="#B" x="29.3" y="-30.2" class="D"/><use xlink:href="#E" class="B C E"/><path d="M293.3 129a2.9 2.9 0 1 0 0-5.7 2.9 2.9 0 0 0 0 5.8" class="D"/><path d="M293.334 128.975a2.88 2.88 0 0 0 2.948-1.231c.645-.968.645-2.229 0-3.197a2.88 2.88 0 0 0-2.948-1.231 2.88 2.88 0 1 0 0 5.765z" class="B C E"/><use xlink:href="#D" x="54.3" y="-25.3" class="D"/><use xlink:href="#C" x="52.48" y="-31.814" class="B C E"/><use xlink:href="#D" x="59.9" y="-23.8" class="D"/><use xlink:href="#C" x="58.027" y="-30.319" class="B C E"/><use xlink:href="#F" class="D"/><use xlink:href="#E" x="28.694" y="20.925" class="B C E"/><use xlink:href="#B" x="116.7" y="1.8" class="D"/><use xlink:href="#C" x="116.8" y="1.815" class="B C E"/><path d="M376.2 153.5a2.9 2.9 0 1 0 0-5.7 2.9 2.9 0 0 0 0 5.6" class="D"/><path d="M376.215 153.53a2.88 2.88 0 1 0 0-5.765 2.88 2.88 0 0 0 0 5.658z" class="B C E"/><path d="M375 146a2.9 2.9 0 1 0 0-5.6 2.9 2.9 0 0 0 0 5.7" class="D"/><use xlink:href="#C" x="117.12" y="-12.597" class="B C E"/><use xlink:href="#B" x="114" y="-19.6" class="D"/><use xlink:href="#E" x="84.694" y="10.569" class="B C E"/><path d="M366.7 134.3a2.9 2.9 0 1 0 0-5.8 2.9 2.9 0 0 0 0 5.7" class="D"/><path d="M366.721 134.313a2.88 2.88 0 1 0 0-5.765 2.88 2.88 0 0 0 0 5.658z" class="B C E"/><use xlink:href="#D" x="104.3" y="-21" class="D"/><use xlink:href="#C" x="102.507" y="-27.543" class="B C E"/><use xlink:href="#D" x="97.1" y="-22.6" class="D"/><use xlink:href="#C" x="95.253" y="-29.145" class="B C E"/><use xlink:href="#B" x="88.7" y="-29.7" class="D"/><use xlink:href="#C" x="88.747" y="-29.679" class="B C E"/><use xlink:href="#B" x="82.7" y="-30.5" class="D"/><use xlink:href="#E" x="53.44" y="-0.32" class="B C E"/><path d="M344.5 151.4a2.9 2.9 0 1 0 0-5.7 2.9 2.9 0 0 0 0 5.8" class="D"/><use xlink:href="#G" class="B C E"/><path d="M346 146a2.9 2.9 0 1 0 0-5.7 2.9 2.9 0 0 0 0 5.6" class="D"/><path d="M346.028 146.057a2.88 2.88 0 1 0 0-5.765 2.88 2.88 0 0 0 0 5.658z" class="B C E"/><use xlink:href="#F" x="6.1" y="-21.7" class="D"/><path d="M322.134 127.801a2.88 2.88 0 0 0 0-5.765 2.88 2.88 0 1 0 0 5.765z" class="B C E"/><path d="M308.3 127a2.9 2.9 0 1 0 0-5.7 2.9 2.9 0 0 0 0 5.6" class="D"/><use xlink:href="#C" x="50.347" y="-31.707" class="B C E"/><use xlink:href="#D" x="48.8" y="-25.3" class="D"/><use xlink:href="#C" x="46.933" y="-31.814" class="B C E"/><use xlink:href="#B" x="28.7" y="-7.2" class="D"/><use xlink:href="#C" x="28.8" y="-7.153" class="B C E"/><use xlink:href="#F" x="-30.1" y="-4.7" class="D"/><path d="M285.868 144.776a2.88 2.88 0 1 0 0-5.765 2.88 2.88 0 1 0 0 5.765z" class="B C E"/><use xlink:href="#B" x="30" y="-20.5" class="D"/><use xlink:href="#C" x="30.08" y="-20.497" class="B C E"/><use xlink:href="#B" x="42.5" y="-31.2" class="D"/><use xlink:href="#C" x="42.56" y="-31.173" class="B C E"/><use xlink:href="#B" x="37.7" y="-29.3" class="D"/><use xlink:href="#C" x="37.76" y="-29.252" class="B C E"/><use xlink:href="#D" x="35.1" y="-18.9" class="D"/><use xlink:href="#C" x="33.28" y="-25.408" class="B C E"/><use xlink:href="#D" x="59.9" y="-20.6" class="D"/><use xlink:href="#C" x="58.027" y="-27.116" class="B C E"/><use xlink:href="#F" y="-12.5" class="D"/><path d="M315.948 136.982a2.88 2.88 0 1 0 0-5.765 2.88 2.88 0 1 0 0 5.765z" class="B C E"/><use xlink:href="#B" x="58" y="-16" class="D"/><use xlink:href="#E" x="28.694" y="14.199" class="B C E"/><path d="M325.8 127a2.9 2.9 0 1 0 0-5.7 2.9 2.9 0 0 0 0 5.8" class="D"/><path d="M325.761 127.054a2.88 2.88 0 1 0 0-5.765 2.88 2.88 0 1 0 0 5.765z" class="B C E"/><use xlink:href="#B" x="71.6" y="-32.5" class="D"/><use xlink:href="#C" x="71.68" y="-32.454" class="B C E"/><path d="M334 126.8a2.9 2.9 0 1 0 0-5.6 2.9 2.9 0 0 0 0 5.7" class="D"/><use xlink:href="#G" x="-10.453" y="-24.555" class="B C E"/><use xlink:href="#D" x="88.9" y="-13.1" class="D"/><use xlink:href="#C" x="87.147" y="-19.643" class="B C E"/><use xlink:href="#F" x="22.5" y="-20" class="D"/><use xlink:href="#E" x="51.2" y="0.961" class="B C E"/><use xlink:href="#B" x="84.5" y="-25.3" class="D"/><use xlink:href="#C" x="84.587" y="-25.302" class="B C E"/><path d="m315.7 176-7.4 3.8 6.7 4.3 8-4-7.3-4.2" class="D"/><path d="M315.734 175.949l-7.467 3.843 6.72 4.27 8-4.057-7.253-4.057" class="B C I"/><path d="m299.3 176.8-11.2 1.7s-.2 6.1.3 7.5l11.7-1.5s.5-5.7-.8-7.7" class="D"/><path d="M299.308 176.803l-11.2 1.708s-.213 6.085.32 7.473l11.627-1.495s.533-5.658-.747-7.687z" class="B C I"/><path fill="#058e6e" d="M298.1 179s-6.8.6-8.5 1.2v4l8.6-1V179" class="M"/><path d="M298.134 178.938s-6.827.641-8.533 1.281v4.057l8.64-1.068-.107-4.27" class="B C I"/><path d="m331.4 177 11.3 1.8s.1 6.1-.4 7.5l-11.5-1.5s-.6-5.6.6-7.7" class="D"/><path d="M331.414 177.016l11.307 1.815s.107 6.085-.427 7.473l-11.52-1.495s-.533-5.658.64-7.687z" class="B C I"/><path fill="#058e6e" d="M332.8 179.3s6.7.6 8.4 1.2v4.1s-4.6-.8-8.6-1v-4.3" class="M"/><g class="B C I"><path d="M332.801 179.258s6.72.641 8.427 1.281l-.107 4.057-8.533-1.068.107-4.27"/><path d="M271.148 182.141s39.467-14.626 89.814 1.281m-88.214 7.153s38.293-14.306 85.334.641m-85.12-9.608l7.68 2.242-5.333 5.765"/></g><path fill="red" d="m273 188.5 4.5-3.7-5-1s.7.8.6 1.5v3.2"/><path d="M273.068 188.546l4.48-3.737-5.013-.961s.64.747.533 1.495v3.203zm87.04-5.445l-8.213 1.495 5.547 6.405" class="B C I"/><path fill="red" d="m357.7 188.8-3.1-3.2 4.4-.5s-1.2.8-1.2 1.5.2 1.6 0 2.2"/><path d="M357.654 188.76l-3.093-3.203 4.48-.427s-1.28.747-1.28 1.495c0 .641.213 1.601 0 2.135zm-74.667-6.619c.64 0 1.28-.427 1.28-1.068 0-.427-.64-.961-1.28-.961-.747 0-1.28.534-1.28 1.068s.533 1.068 1.28 1.068zm21.973-2.455c.747 0 1.28-.427 1.28-1.068 0-.534-.533-.961-1.28-.961s-1.28.427-1.28 1.068c0 .534.533.961 1.28.961zm0 3.523c.747 0 1.28-.427 1.28-.961s-.533-1.068-1.28-1.068-1.28.534-1.28 1.068.533 1.068 1.28 1.068zm21.653-3.309c.64 0 1.28-.534 1.28-1.068s-.64-1.068-1.28-1.068c-.747 0-1.28.534-1.28 1.068s.533 1.068 1.28 1.068zm21.44 3.95c.747 0 1.28-.534 1.28-1.068s-.533-1.068-1.28-1.068-1.28.534-1.28 1.068.533 1.068 1.28 1.068zm-.32 2.776c.64 0 1.28-.427 1.28-1.068 0-.427-.64-.961-1.28-.961-.747 0-1.28.534-1.28 1.068s.533 1.068 1.28 1.068zm-21.12-3.203c.64 0 1.28-.427 1.28-1.068 0-.534-.64-.961-1.28-.961-.747 0-1.28.427-1.28 1.068 0 .534.533 1.068 1.28 1.068zm-42.667 3.203c.747 0 1.387-.427 1.387-1.068 0-.427-.64-.961-1.28-.961-.747 0-1.28.534-1.28 1.068s.533 1.068 1.28 1.068z" class="B C I"/><path d="M270.5 170.6s.1 7.7 5.1 6.6 4.5-7.3 4.8-7.7c.5-.3 1-.3 1-.3s.6 6.1 5.3 5.4c4.7-.8 4.5-8.3 4-9.5l1-.4s1.8 8.8 7.2 7.5c5.3-1.3 4.8-6.8 4.8-6.8h.4s1.2 6 5.6 5.5c4.2-.3 5-1.7 4.5-7.7l3-.5s-1.1 8.6 4 8.6c5.2-.4 5.4-4.4 5.7-5.2h.9s.2 6.1 4.6 6.1c4.2 0 5-5.1 5-7.1l4.4.2s-4.5 8 2 9c6.4 1.1 6.6-5 6.6-5h1.3s-.2 8 3.3 8.1c3.6.2 5.7-1 6-7l2 .7s-1.6 9.7-8.3 8c-3.6-1-4.7-5-4.5-6.1 0 0-2.5 4.4-7.4 3-4.8-1.4-4.2-4.9-4.2-6 0 0-3 5.4-7 4.2-3.6-1-5-2.3-5-4.9 0 0-1.8 4.2-5.3 4-3.6-.1-5.4-2.4-5.6-4.3 0 0-.7 3.9-5.5 4.2-3.2 0-5-1.5-5.8-3.7 0 0-1 3.9-5.5 4.5-2.9.3-5.8-1.3-6.4-4 0 0-.8 5.3-5.4 6s-5.7-2.5-5.7-2.5-1 4-4.7 5c-3.7.9-6.2-.7-7.2-4.5-.8-3.7-.5-5.3-.5-5.3l1.5 2" class="H"/><path d="M270.508 170.611s.107 7.687 5.12 6.619 4.48-7.366 4.8-7.687c.427-.32.96-.32.96-.32s.64 6.085 5.333 5.338 4.48-8.22 3.947-9.501l1.067-.32s1.813 8.754 7.147 7.473 4.8-6.833 4.8-6.833h.427s1.173 5.978 5.547 5.551c4.267-.32 5.12-1.708 4.587-7.687l2.88-.534s-1.067 8.541 4.16 8.541c5.12-.32 5.333-4.377 5.653-5.124h.853s.213 6.085 4.587 6.085c4.267 0 5.12-5.124 5.12-7.153l4.267.214s-4.48 8.007 2.027 9.074c6.4 1.068 6.613-5.124 6.613-5.124h1.28s-.213 8.007 3.307 8.22c3.627.107 5.76-1.068 6.08-7.046l2.027.747s-1.707 9.608-8.427 7.9c-3.52-.961-4.693-5.018-4.48-6.085 0 0-2.453 4.484-7.36 2.989-4.8-1.388-4.267-4.804-4.267-5.872 0 0-2.88 5.338-6.933 4.164-3.627-1.068-5.013-2.349-5.013-4.911 0 0-1.813 4.164-5.333 3.95-3.627-.107-5.333-2.349-5.547-4.27 0 0-.747 3.843-5.547 4.164-3.2.107-5.013-1.495-5.76-3.63 0 0-.96 3.843-5.547 4.484-2.88.32-5.76-1.281-6.4-3.95 0 0-.747 5.231-5.333 5.872-4.693.747-5.76-2.455-5.76-2.455s-.96 4.057-4.693 5.018c-3.733.854-6.187-.747-7.147-4.484-.853-3.737-.533-5.338-.533-5.338l1.493 1.922z" class="B F G"/><path d="M280.9 171a1.8 1.8 0 1 0 0-3.6 1.8 1.8 0 0 0 0 3.5" class="H"/><use xlink:href="#H" class="B F G"/><path d="M304.1 167.2a1.8 1.8 0 1 0 0-3.5 1.8 1.8 0 0 0 0 3.5" class="H"/><use xlink:href="#H" x="23.254" y="-3.736" class="B F G"/><path d="M327.8 168a1.8 1.8 0 1 0 0-3.6 1.8 1.8 0 0 0 0 3.5" class="H"/><use xlink:href="#H" x="46.934" y="-2.989" class="B F G"/><path d="M351.1 171.7a1.8 1.8 0 1 0 0-3.5 1.8 1.8 0 0 0 0 3.5" class="H"/><use xlink:href="#H" x="70.294" y="0.748" class="B F G"/><path d="M314.9 165.3h-1.6c-.4 1.6-3.9 2.5-3.9 2.5-.4-1.2.6-3 .6-3-4-1.1-4-2.4-4-2.4.6-1.4 4.3-1.6 4.3-1.6-1-1.2-.9-3.2-.9-3.2 2.5.2 4.5 2.7 4.5 2.7s-2.4-1.3-2.1-5.6c0 0 1.3 0 2.1.9 0 0 0-4.7 2-5.3h.2c1.9.6 1.9 5.3 1.9 5.3.8-1 2.1-.9 2.1-.9.3 4.3-2.1 5.6-2.1 5.6s2-2.5 4.5-2.6c0 0 0 2-.8 3.2 0 0 3.6.1 4.3 1.5 0 0 0 1.4-4 2.3 0 0 .8 1.9.5 3.2 0 0-3.6-1-3.9-2.6H315" class="H"/><path d="M314.881 165.273h-1.6c-.427 1.601-3.84 2.562-3.84 2.562-.427-1.281.533-3.096.533-3.096-3.947-1.068-3.947-2.349-3.947-2.349.533-1.388 4.267-1.601 4.267-1.601-1.067-1.174-.853-3.203-.853-3.203 2.453.214 4.48 2.669 4.48 2.669s-2.453-1.281-2.133-5.551c0 0 1.28 0 2.133.854 0 0 0-4.697 1.92-5.231h.213c1.92.534 1.92 5.231 1.92 5.231.853-.961 2.133-.854 2.133-.854.32 4.27-2.133 5.551-2.133 5.551s2.027-2.455 4.48-2.562c0 0 .107 1.922-.747 3.203 0 0 3.627.107 4.267 1.495 0 0 0 1.388-4.053 2.349 0 0 .853 1.815.533 3.203 0 0-3.52-1.068-3.84-2.669h-3.733z" class="B F G"/><path d="M315.7 166.1a3.2 3.2 0 1 0 0-6.4 3.2 3.2 0 0 0 0 6.4" class="D"/><path d="M315.734 166.127a3.2 3.2 0 1 0 0-6.405 3.2 3.2 0 1 0 0 6.405z" class="B C L"/><path d="M315.7 164.7a1.8 1.8 0 1 0 0-3.6 1.8 1.8 0 0 0 0 3.6" class="D"/><path d="M315.734 164.739c1.001 0 1.813-.813 1.813-1.815s-.812-1.815-1.813-1.815-1.813.813-1.813 1.815.812 1.815 1.813 1.815z" class="B C K"/><path d="m340.4 167.4 1.6.3c0 1.6 3.2 3.3 3.2 3.3.6-1 0-3 0-3 4.2-.2 4.5-1.6 4.5-1.6-.3-1.4-3.8-2.4-3.8-2.4 1-1 1.4-2.9 1.4-2.9-2.4-.4-4.9 1.5-4.9 1.5s2.7-.6 3.2-5c0 0-1.2-.2-2.1.4 0 0 1-4.5-.9-5.3l-.2-.1c-2 0-3 4.6-3 4.6-.6-1.1-2-1.2-2-1.2-1 4 1 5.8 1 5.8s-1.4-2.8-3.8-3.5c0 0-.5 2 0 3.2 0 0-3.5-.5-4.4.7 0 0-.3 1.4 3.3 3.2 0 0-1.1 1.6-1 3 0 0 3.5-.4 4.2-1.8l1.6.3 2.2.4" class="H"/><path d="M340.374 167.408l1.6.32c0 1.601 3.2 3.309 3.2 3.309.64-1.068.107-3.096.107-3.096 4.16-.107 4.373-1.495 4.373-1.495-.213-1.495-3.733-2.455-3.733-2.455 1.067-.961 1.387-2.882 1.387-2.882-2.453-.427-4.907 1.495-4.907 1.495s2.667-.641 3.2-4.911c0 0-1.173-.32-2.133.32 0 0 .96-4.484-.853-5.338l-.213-.107c-2.027 0-2.987 4.591-2.987 4.591-.64-1.068-1.92-1.174-1.92-1.174-1.173 4.057.96 5.765.96 5.765s-1.493-2.776-3.84-3.416c0 0-.533 1.922 0 3.203 0 0-3.52-.534-4.373.641 0 0-.32 1.388 3.307 3.203 0 0-1.173 1.601-1.067 2.989 0 0 3.52-.32 4.267-1.815l3.733.747" class="B F G"/><path d="M339.2 168a3.3 3.3 0 1 1 .1 0" class="D"/><path d="M339.201 168.049c-1.143-.267-2.057-1.124-2.398-2.249a3.29 3.29 0 0 1 .747-3.203c.803-.857 2.001-1.221 3.145-.954a3.28 3.28 0 0 1 2.507 3.897c-.383 1.769-2.126 2.892-3.893 2.509z" class="B C L"/><path d="M339.6 166.7a1.8 1.8 0 1 1 .8-3.6 1.8 1.8 0 0 1-.8 3.6" class="D"/><path d="M339.628 166.661c-.7-.059-1.303-.517-1.547-1.175s-.088-1.4.403-1.902a1.81 1.81 0 0 1 1.891-.445c.863.3 1.369 1.196 1.179 2.091s-1.015 1.509-1.926 1.432z" class="B C K"/><path d="m290.5 167-1.6.2c-.3 1.7-3.6 3.2-3.6 3.2-.5-1.3 0-3.2 0-3.2-4-.4-4.1-1.8-4.1-1.8.4-1.4 4-2.2 4-2.2-1-1-1.1-3-1.1-3 2.3-.2 4.6 2 4.6 2s-2.5-.9-2.8-5.1c0 0 1.4-.4 2.2.4 0 0-.5-4.6 1.3-5.4h.2c2 .3 2.6 4.8 2.6 4.8.7-1 2-1 2-1 .8 4.2-1.4 5.7-1.4 5.7s1.7-2.6 4-3.2c0 0 .5 2-.3 3.4 0 0 3.7-.4 4.4 1 0 0 .2 1.3-3.6 2.8 0 0 1 1.7 1 3 0 0-3.6-.6-4.3-2.2l-1.5.4-2.2.2" class="H"/><path d="M290.454 166.981l-1.6.214c-.213 1.708-3.52 3.203-3.52 3.203-.533-1.281 0-3.203 0-3.203-3.947-.427-4.16-1.815-4.16-1.815.427-1.388 4.053-2.135 4.053-2.135-1.067-1.068-1.173-2.989-1.173-2.989 2.347-.214 4.693 1.922 4.693 1.922s-2.56-.854-2.88-5.124c0 0 1.387-.32 2.24.427 0 0-.533-4.591 1.28-5.338h.213c2.027.214 2.56 4.804 2.56 4.804.747-.961 2.133-1.068 2.133-1.068.747 4.27-1.493 5.765-1.493 5.765s1.707-2.669 4.053-3.203c0 0 .427 2.028-.32 3.309 0 0 3.627-.32 4.373 1.068 0 0 .213 1.281-3.627 2.776 0 0 1.067 1.708.96 2.989 0 0-3.52-.534-4.267-2.135l-1.493.32-2.133.214" class="B F G"/><path d="M291.4 167.8a3.2 3.2 0 1 0-.8-6.4 3.2 3.2 0 0 0 .8 6.4" class="D"/><path d="M291.414 167.835a3.23 3.23 0 0 0 2.558-1.971c.44-1.067.277-2.288-.427-3.203s-1.841-1.384-2.985-1.232a3.23 3.23 0 1 0 .853 6.405z" class="B C L"/><path d="M291.2 166.3a1.8 1.8 0 1 0-.4-3.5 1.8 1.8 0 0 0 .4 3.5" class="D"/><path d="M291.201 166.341c.737.067 1.441-.32 1.779-.98s.241-1.458-.244-2.017a1.81 1.81 0 0 0-1.961-.526c-.808.279-1.312 1.085-1.209 1.934s.784 1.511 1.635 1.589z" class="B C K"/><path d="M362.9 174s-.9-2.2-2.7-1.5-1.6 1.1-3.2 1.1c0 0-.6-2 .2-2.9 0 0-2.5-1-3.2-3.2 0 0 1.4-1.6 4.7-1 0 0 0-1.5.3-2.3 0 0 3.6 1 3.6 3.1 0 0-1.1-3.8.8-6.6 0 0 1.6.6 1.5 2.4 0 0 .8-3.6 5.6-2.6 0 0-2.6 2.3-2.7 3.4-.2 1-2.4 2.9-2.5 3.5a4 4 0 0 1-.8 2.3c-.7.6-.8 1.7-.8 2s0 1.8-.8 2.2" class="H"/><path d="M362.881 173.92s-.853-2.135-2.667-1.388-1.6 1.068-3.2 1.068c0 0-.64-2.028.213-2.882 0 0-2.56-.961-3.2-3.203 0 0 1.387-1.601 4.693-.961 0 0-.107-1.601.32-2.349 0 0 3.52 1.068 3.52 3.096 0 0-1.067-3.843.853-6.619 0 0 1.6.641 1.493 2.455 0 0 .747-3.63 5.547-2.669 0 0-2.56 2.349-2.667 3.416-.213 1.068-2.347 2.882-2.453 3.523 0 .534-.213 1.601-.853 2.242s-.747 1.708-.747 2.135c0 .214 0 1.708-.853 2.135z" class="B F G"/><path d="M360.2 169.7a3.2 3.2 0 0 1 5.1-2c0 .6-.3 1.4-.8 2-.7.6-.8 1.7-.8 2a3.2 3.2 0 0 1-.4 1.8h-.5a3.2 3.2 0 0 1-2.6-3.8" class="D"/><path d="M360.214 169.65a3.2 3.2 0 0 1 5.12-1.922c0 .534-.32 1.388-.853 1.922-.64.641-.747 1.708-.747 2.135.02.598-.128 1.19-.427 1.708h-.533a3.2 3.2 0 0 1-2.098-1.376c-.483-.725-.65-1.616-.462-2.467z" class="B C L"/><path d="M361.6 170a1.8 1.8 0 0 1 3.2-.8l-.3.5c-.7.6-.8 1.7-.8 2v.3h-.6c-1-.1-1.6-1-1.4-2.1" class="D"/><path d="M361.601 169.97c.145-.69.676-1.233 1.362-1.393s1.402.092 1.838.646l-.32.427c-.64.641-.747 1.708-.747 2.135v.214h-.64c-1.067-.107-1.6-1.068-1.387-2.135z" class="B C K"/><path d="M269 173s.9-2 2.7-1.2c1.7 1 1.5 1.2 3.2 1.2 0 0 .6-2 0-2.8 0 0 2.5-.8 3.2-3 0 0-1.3-1.7-4.6-1.3 0 0 .2-1.6-.2-2.3 0 0-3.5.8-3.6 2.7 0 0 1.2-3.7-.5-6.6 0 0-1.7.7-1.7 2.4 0 0-.5-3.7-5.3-3 0 0 2.4 2.5 2.4 3.6s2.2 3 2.2 3.6.2 1.7.8 2.4c.7.6.7 1.7.6 2.1 0 .2 0 1.7.8 2.2" class="H"/><path d="M269.014 173.066s.853-2.135 2.667-1.281c1.707.961 1.493 1.174 3.2 1.174 0 0 .64-1.922 0-2.776 0 0 2.56-.747 3.2-2.989 0 0-1.28-1.708-4.587-1.281 0 0 .213-1.601-.213-2.349 0 0-3.52.854-3.627 2.776 0 0 1.28-3.737-.427-6.619 0 0-1.707.641-1.707 2.349 0 0-.533-3.63-5.333-2.882 0 0 2.453 2.455 2.453 3.523s2.133 2.989 2.133 3.63c0 .534.213 1.708.853 2.349s.64 1.708.533 2.135c0 .214 0 1.708.853 2.135z" class="B F G"/><path d="M271.8 168.9a3.2 3.2 0 0 0-5-2.1c0 .5.3 1.4.8 1.9.7.6.7 1.7.6 2.1 0 .2 0 1 .4 1.8h.4a3.2 3.2 0 0 0 2.8-3.7" class="D"/><path d="M271.788 168.903a3.2 3.2 0 0 0-4.907-2.135c0 .534.213 1.388.747 1.922.64.641.64 1.708.533 2.135 0 .214 0 1.068.427 1.815h.427a3.2 3.2 0 0 0 2.191-1.27c.525-.707.735-1.599.583-2.466z" class="B C L"/><path d="M270.4 169.1a1.8 1.8 0 0 0-3.2-1l.4.6c.7.6.7 1.7.6 2.1v.2h.7c1 0 1.6-1 1.5-1.9" class="D"/><g class="B C"><path d="M270.401 169.116c-.079-.725-.584-1.333-1.282-1.542s-1.454.019-1.918.582l.427.534c.64.641.64 1.708.533 2.135v.214h.747c.96 0 1.6-.961 1.493-1.922z" class="K"/><path d="M274.348 192.603s36.053-14.092 81.494.32" class="N"/><path d="M360.961 181.394c-50.24-16.014-90.347-.854-90.347-.854" class="I"/></g><path fill="red" d="m315.7 177.9-4 2 3.6 2.2 4.3-2-3.9-2.2"/><path d="M315.734 177.871l-4.053 2.028 3.627 2.242 4.267-2.135-3.84-2.135" class="B C I"/><defs ><path id="B" d="M258 158.7a2.9 2.9 0 1 0 0-5.7 2.9 2.9 0 0 0 0 5.7"/><path id="C" d="M257.921 158.654a2.88 2.88 0 0 0 2.948-1.231c.645-.968.645-2.229 0-3.197a2.88 2.88 0 0 0-5.277 1.599 2.88 2.88 0 0 0 2.328 2.829z"/><path id="D" d="M256.1 152.1a2.9 2.9 0 1 0 0-5.6 2.9 2.9 0 0 0 0 5.6"/><path id="E" d="M287.254 128.548a2.88 2.88 0 0 0 0-5.765 2.88 2.88 0 0 0 0 5.765z"/><path id="F" d="M316 149.5a2.9 2.9 0 1 0 0-5.8 2.9 2.9 0 0 0 0 5.8"/><path id="G" d="M344.534 151.395a2.88 2.88 0 0 0 2.948-1.231c.645-.968.645-2.229 0-3.197a2.88 2.88 0 0 0-2.948-1.231 2.88 2.88 0 0 0 0 5.765z"/><path id="H" d="M280.854 170.931c.732.182 1.5-.109 1.928-.73s.429-1.443 0-2.063-1.197-.911-1.928-.73c-.809.201-1.377.927-1.377 1.762s.568 1.561 1.377 1.762z"/></defs></svg>