<svg xmlns="http://www.w3.org/2000/svg" xmlns:xlink="http://www.w3.org/1999/xlink" viewBox="0 0 640 480" xmlns:v="https://vecta.io/nano"><style><![CDATA[.B{fill:#fff100}.C{stroke:#000}.D{fill:#fff}.E{fill-rule:evenodd}.F{stroke:#fff}.G{fill:#006d00}.H{fill:none}.I{stroke-width:.3}.J{stroke-width:.166}.K{stroke-width:2}.L{stroke-width:.156}]]></style><path d="M0 0h640v480H0z" class="D"/><g class="E"><path fill="#000063" d="M640 416.2c-7.2 6.7-13.3 22-32.4 22-38.1 0-47.6-32.5-76.2-32.5-19 0-28.5 32.5-47.6 32.5-38.1 0-47.6-32.5-76.2-32.5-19 0-28.5 32.5-47.5 32.5-38.2 0-47.7-32.5-76.3-32.5-19 0-28.6 32.5-47.6 32.5-38.1 0-47.6-32.5-76.2-32.5-19 0-28.6 32.5-47.6 32.5-38.2 0-47.7-32.5-76.2-32.5-19 0-24.8 23.2-36.2 23.2v41.7c11.4 0 17.1-23 36.3-23 28.5 0 38 32.4 76 32.4 19.1 0 28.6-32.5 47.7-32.5 28.6 0 38.1 32.5 76.3 32.5 19 0 28.4-32.5 47.5-32.5 28.6 0 38.1 32.5 76.2 32.5 19 0 28.6-32.5 47.6-32.5 28.6 0 38.1 32.5 76.2 32.5 19 0 28.6-32.5 47.6-32.5 28.6 0 38.2 32.5 76.2 32.5 19 0 25.2-9.2 32.4-15.8zm0-81.2c-7.2 6.7-13.3 22-32.4 22-38.1 0-47.6-32.5-76.2-32.5-19 0-28.5 32.5-47.6 32.5-38.1 0-47.6-32.5-76.2-32.5-19 0-28.5 32.5-47.5 32.5-38.2 0-47.7-32.5-76.3-32.5-19 0-28.6 32.5-47.6 32.5-38.1 0-47.6-32.5-76.2-32.5-19 0-28.6 32.5-47.6 32.5-38.2 0-47.7-32.5-76.2-32.5-19 0-24.8 23.2-36.2 23.2v41.8c11.4 0 17.1-23.1 36.3-23.1 28.5 0 38 32.5 76 32.5 19.1 0 28.6-32.5 47.7-32.5 28.6 0 38.1 32.5 76.3 32.5 19 0 28.4-32.5 47.5-32.5 28.6 0 38.1 32.5 76.3 32.5 19 0 28.5-32.5 47.5-32.5 28.6 0 38.1 32.5 76.2 32.5 19 0 28.6-32.5 47.6-32.5 28.6 0 38.2 32.5 76.2 32.5 19 0 25.2-9.2 32.4-15.8zm0-81.1c-7.2 6.7-13.3 22-32.4 22-38.1 0-47.6-32.5-76.2-32.5-19 0-28.5 32.5-47.6 32.5-38.1 0-47.6-32.5-76.2-32.5-19 0-28.5 32.5-47.5 32.5-38.2 0-47.7-32.5-76.3-32.5-19 0-28.6 32.5-47.6 32.5-38.1 0-47.6-32.5-76.2-32.5-19 0-28.6 32.5-47.6 32.5-38.2 0-47.7-32.5-76.2-32.5-19 0-24.8 23.2-36.2 23.2v41.8c11.4 0 17.1-23.2 36.3-23.2 28.5 0 38 32.5 76 32.5 19.1 0 28.6-32.5 47.7-32.5 28.6 0 38.1 32.5 76.3 32.5 19 0 28.4-32.5 47.5-32.5 28.6 0 38.1 32.5 76.3 32.5 19 0 28.5-32.5 47.5-32.5 28.6 0 38.1 32.5 76.2 32.5 19 0 28.6-32.5 47.6-32.5 28.6 0 38.2 32.5 76.2 32.5 19 0 25.2-9.2 32.4-15.8zm0-81.1c-7.2 6.6-13.3 22-32.4 22-38.1 0-47.6-32.5-76.2-32.5-19 0-28.5 32.5-47.6 32.5-38.1 0-47.6-32.5-76.2-32.5-19 0-28.5 32.5-47.5 32.5-38.2 0-47.7-32.5-76.3-32.5-19 0-28.6 32.5-47.6 32.5-38.1 0-47.6-32.5-76.2-32.5-19 0-28.6 32.5-47.6 32.5-38.2 0-47.7-32.5-76.2-32.5-19 0-24.8 23.2-36.2 23.2v41.7c11.4 0 17.1-23 36.3-23 28.5 0 38 32.4 76 32.4 19.1 0 28.6-32.5 47.7-32.5 28.6 0 38.1 32.5 76.3 32.5 19 0 28.4-32.5 47.5-32.5 28.6 0 38.1 32.5 76.3 32.5 19 0 28.5-32.5 47.5-32.5 28.6 0 38.1 32.5 76.2 32.5 19 0 28.6-32.5 47.6-32.5 28.6 0 38.2 32.5 76.2 32.5 19 0 25.2-9.3 32.4-15.9zm0-81.3c-7.2 6.7-13.3 22.1-32.4 22.1-38.1 0-47.6-32.5-76.2-32.5-19 0-28.5 32.5-47.6 32.5-38.1 0-47.6-32.5-76.2-32.5-19 0-28.5 32.5-47.5 32.5-38.2 0-47.7-32.5-76.3-32.5-19 0-28.6 32.5-47.6 32.5-38.1 0-47.6-32.5-76.2-32.5-19 0-28.6 32.5-47.6 32.5-38.2 0-47.7-32.5-76.2-32.5-19 .1-24.8 23.3-36.2 23.3v41.8c11.4 0 17.1-23.1 36.2-23.1 28.5 0 38.1 32.5 76.2 32.5 19 0 28.5-32.5 47.6-32.5 28.6 0 38.1 32.5 76.3 32.5 19 0 28.4-32.5 47.4-32.5 28.7 0 38.2 32.5 76.3 32.5 19 0 28.6-32.5 47.6-32.5 28.6 0 38.1 32.5 76.2 32.5 19 0 28.6-32.5 47.6-32.5 28.6 0 38.2 32.5 76.2 32.5 19 0 25.2-9.3 32.4-15.9v-48Zm0-81c-7.2 6.6-13.3 22-32.4 22C569.5 32.5 560 0 531.4 0c-19 0-28.5 32.5-47.6 32.5-38.1 0-47.6-32.5-76.2-32.5-19 0-28.5 32.5-47.5 32.5-38.2 0-47.7-32.5-76.3-32.5-19 0-28.6 32.5-47.6 32.5C198 32.5 188.6 0 160 0c-19 0-28.6 32.5-47.6 32.5C74.2 32.5 64.7 0 36.2 0 17.2 0 11.4 23.2 0 23.2v41.9C11.4 65 17.1 42 36.2 42c28.5 0 38.1 32.4 76.2 32.4 19 0 28.5-32.4 47.6-32.4 28.6 0 38.1 32.4 76.3 32.4 19 0 28.4-32.4 47.4-32.4 28.7 0 38.2 32.4 76.3 32.4 19 0 28.6-32.4 47.6-32.4 28.6 0 38.1 32.4 76.2 32.4 19 0 28.6-32.4 47.6-32.4 28.6 0 38.2 32.4 76.2 32.4 19 0 25.2-9.2 32.4-15.8z"/><g class="F"><path fill="#a24300" stroke-width="2.1" d="m474.8 131.7-3.5 329c0 17.3 15.7 17.3 17.4 0l-3.5-329Z"/><path stroke-width="1.8" d="m510.7 254-11-11.9-2.6 12.1-4.7-17.5-4.5 8.8-.8-18.6-4.4 8.8-.8-18.6-4.4 8.8L475 204l-4.4 8.8L468 191l-4.5 8.8-2.5-21.9-1.3-11 2.2-4.3 5.8 2.1 9.1 8.7 18.3 17.4-11.3-4.3 18.3 17.4-11.4-4.3 18.3 17.3-11.4-4.2 16.6 14-11.3-4.2 16.5 14-11.3-4.2 12.6 15.2-13.1-7.6 3 14.3z" class="G"/></g></g><g class="C H I"><path d="M510.7 254 462 162.6m33.1 28.2L469 175.6l-5.4 24.1"/><path d="M502.2 203.8l-26.3-15.1-5.3 24.1m38.5 4l-26.2-15-5.4 24m36.8.9l-24.5-11.9-7 21m36.7.7L495 224.6l-7 21m32.8 1.8l-22.3-16.2-1.4 23"/></g><path d="m383 97.9 17.8 6.8-5.2-13.5 15.6 15.3-1.5-11 12.6 18.4-1.5-11 12.6 18.4-1.5-11 16.3 20.8-1.5-11 16.3 20.8-1.4-11 16.2 20.8 8.2 10.4.7 5.5-6.7.6-14-4.3-28.2-8.7 13.3-1.1-28.1-8.7 13.3-1.1-28.1-8.7 13.3-1.2-24.4-6.2 13.3-1.1-24.4-6.2 13.3-1.2-21.5-9.3 17.1 1.3L383.1 98z" class="E F G K"/><g class="C H I"><path d="m383 97.9 103.7 68.7m-48.9-12.4 34.1 2.6-10.3-26.9"/><path d="M423 144.4l34 2.6-10.3-27m-38.5 14.6l34 2.6-10.3-27m-34.9 17l30.5.1-6.7-24.4M386 119.8l30.4.2-6.7-24.5m-31.9 13.9l31.1 5.7-13.2-23.9"/></g><path d="M589.8 120.8 575 131.7l16.4 1.8-22.9 5.4 12.2 3.6-24.7 1.8 12.2 3.6-24.7 1.8 12.1 3.7-28.9 3.6 12.2 3.6-28.9 3.6 12.2 3.6-28.9 3.6-14.5 1.8-6-1.8 2.2-5.4 10.7-9 21.3-18.1-4.6 10.8 21.3-18-4.6 10.8 21.3-18-4.6 10.8L553 119l-4.5 10.9 17-16.3-4.5 10.8 19-12.6-8.7 12.7 18.6-3.6z" class="E F G K"/><g class="C H I"><path d="m589.8 120.8-117 50.6m34.1-32.5-17.4 25.3 32.7 3.6"/><path d="M523.7 131.7L506.2 157l32.7 3.6m1.5-36.2l-17.5 25.3 32.7 3.7M553 119l-13.3 23.5 28.5 5.4m-2.7-34.3l-13.3 23.5 28.5 5.4m-.7-30.7l-19.4 21.7h30.7"/></g><path d="M587.4 230.3 569 225l6.6 13-17.1-14 2.6 10.7-14.5-17.2 2.7 10.8-14.5-17.3 2.6 10.8-18.5-19.4 2.7 10.8-18.5-19.4 2.7 10.8-18.5-19.4-9.2-9.7-1.3-5.4 6.6-1.2 14.5 3.2 29 6.4-13.2 2.2 29 6.4-13.2 2.2 29 6.4-13.2 2.3 25 4.2-13.2 2.2 25 4.2L569 211l22.3 7.5h-17l13 12z" class="E F G K"/><g class="C H I"><path d="M587.4 230.3l-110.6-60.2m50 8.4l-34.2.2 13.2 26m36.8-17.6l-34.2.2 13.2 26"/><path d="M558.4 195.7l-34.2.2 13.2 26m32.9-19.7l-30.3 2.3 9.3 23.8m32.9-19.6l-30.3 2.2 9.2 23.8m30.2-16.3l-31.5-3.2 15.8 22.8"/></g><path stroke-width="1.8" d="m395.2 236.6 9.3-13-14.1 2.1 17.4-9.9-11.1-.5 20-7-11.1-.6 20-7-11.1-.6 23-9.6-11.2-.5 23-9.7-11.1-.5 23-9.6 11.5-4.9 5.6.3-.4 5.3-6.3 10.4-12.6 20.8.8-10.6-12.6 20.8.7-10.7-12.6 20.8.7-10.6-9.6 18.2.7-10.6-9.6 18.2.7-10.6-12.2 15.4 3.7-13.2-14.5 7.4z" class="E F G"/><g class="C H I"><path d="m395.2 236.6 83-71m-19.1 36.5 7.3-26.4-28.2 4.1"/><path d="M447.2 212.3l7.3-26.4-28.2 4m9 32.5l7.4-26.4-28.2 4.1m11.9 29.9l4.4-23.8-25.2 1.5m11.9 29.9l4.4-23.8-25.2 1.5m9.3 27.1l10-23.5-25.6 6.8"/></g><path d="m563 66.2-17.9 12-2.9-12.9-10.5 17.8-2-8.5-8.6 18.2-1.2-8.4-6.7 18.7-3.8-9-6.7 22.7-3.8-9-6.7 22.7-3.9-9-6.7 22.7-3.3 11.4 1.9 4.5 7.2-2.4 12.4-9.2 25-18.4-14.4 4.7 24.9-18.5-14.4 4.8 24.9-18.5-14.4 4.8 25-14.4-17 4L566 83.3l-16.3 4.2 19.7-15.6-17 8.1z" class="E F G K"/><g class="C H I"><path d="m556 72.7-25.8 22.2-50 65.2"/><path d="M519.3 132.8l-28.6 13.5-2.4-20.8m41.9-6.3l-29 13.4-2.3-20.8m41.6-6.3l-28.7 13.4-2.2-20.7m39.5-2.9l-26.8 9.9-3-17m39.7-2.7L530.2 95l-1-16.4m33.6-2.4l-26.6 13.6 5.2-20.6"/></g><path d="m466.1 43.8 8 18.2 10.3-9.6-1.7 19.8 6.8-6.4-3.7 19.4 6-6.6-5.5 19 8.7-6-8 22.3 8.6-6-8 22.5 8.7-6-8 22.4-4 11.2-4.4 3-4.8-5.3-5-13.4-10-26.9 9.4 10.5-10.1-27 9.4 10.6-10-27L468 93l-12.5-23.4 12 11.1-14.4-23.9 11.3 11-7.3-22.2 9.6 14.6z" class="E F G K"/><g class="C H I"><path d="m468.2 52.4 8.5 30.5 3.2 78"/><path d="M463 120.2l16.2 24.3 14.7-16.7M462 103.7l16.5 24.4 14.7-16.7m-31.7-24.1l16.4 24.4L492.3 95m-31.9-20.1l16.8 20.4 13-13M458 62l18.7 21 11-13.6m-27.4-17l14.4 23.5 8.1-19.9"/></g><path stroke-width="1.9" d="m359 178 23.3-16.2-11.7-6 20.5 3.4-7-9.3 19.8 7.5-7-9.3 19.9 7.4-7-9.2 24 8.1-7-9.3 23.3 12.1-7-9.3 24 8.2 11.7 6 3.5 4.6-4.7 3.3-12.9 1.8-20.7 8.6 3.8-7.4-25.7 3.6 9.3-6.4-26.3 7.6 9.4-6.5-22.2 8.3 9.9-10.4-22.8 12.2 10-10.4-18.8 13 10.5-14.4z" class="E F G"/><g class="C H I"><path d="m366.3 173.6 24.2-10.5 12.9-1.8 10.7-.2 18.5 1.2 16.7.7 33 3.7"/><path d="M447.2 176.9l18.5-11.4-18.8-14.7m-20.4 24.4l22.7-12.2-18.7-14.8m-18.8 26.6l20.9-12.5-19-13.7m-29.5 29.6l19.3-16.9-15.6-8.5m-12.3 26.5l15-16.1-12-4.5m18.4 17.7l19-15.2-15.2-10.4"/></g><g class="E"><g class="C"><path fill="#c00" d="M437.538 355.193l-.22-27.277-7.903-12.739c-1.979-6.263-1.009-9.287 2.199-9.501 3.195-.19 6.364 1.619 10.968 1.822s3.738-7.072 10.541-6.87 18.664 3.846 28.752 4.453c10.101.595 15.366-3.238 27.006-3.643s14.706 5.048 15.366 5.048 3.958-2.215 7.243-2.619c3.298-.405 4.398 1.214 4.398 1.214s-.22 6.87-1.759 10.906c-1.539 4.048-7.023 10.715-7.243 10.715s-1.979 29.705-1.979 29.908-87.369-.81-87.369-1.417z" class="J"/><g class="J"><path d="M527.856 327.202s8.795-6.191 9.028-21.086c.129-8.572-4.449-14.763-15.909-14.763-16.038 0-38.944 6.322-38.944 6.322v2.107s18.327-6.322 38.957-6.322c9.157 0 13.749 6.191 13.749 12.525 0 10.549-9.183 21.228-9.183 21.228v16.871h2.302z" class="B"/><g class="D"><use xlink:href="#B"/><use xlink:href="#B" x="2.3" y="-4.8"/><use xlink:href="#B" x="3.5" y="-9.8"/><use xlink:href="#B" x="4.4" y="-15"/><use xlink:href="#B" x="4.2" y="-20.6"/><use xlink:href="#B" x="-3.3" y="4.3"/><use xlink:href="#B" x="2.2" y="-26"/><use xlink:href="#B" x="-2" y="-30.3"/><use xlink:href="#B" x="-7.7" y="-33.1"/><use xlink:href="#B" x="-13.5" y="-33.5"/><use xlink:href="#B" x="-19.5" y="-33.4"/><use xlink:href="#B" x="-25.7" y="-32.4"/><use xlink:href="#B" x="-31.8" y="-31.7"/><use xlink:href="#B" x="-38.5" y="-30.8"/><use xlink:href="#B" x="-44.1" y="-29.3"/></g><g class="D"><use xlink:href="#C"/><use xlink:href="#C" x="-2.3" y="-4.8"/><use xlink:href="#C" x="-3.5" y="-9.8"/><use xlink:href="#C" x="-4.3" y="-15"/><use xlink:href="#C" x="-4.1" y="-20.6"/><use xlink:href="#C" x="-2.2" y="-26"/><use xlink:href="#C" x="1.9" y="-30.3"/><use xlink:href="#C" x="7.7" y="-33.1"/><use xlink:href="#C" x="13.4" y="-33.5"/><use xlink:href="#C" x="19.5" y="-33.4"/><use xlink:href="#C" x="25.7" y="-32.4"/><use xlink:href="#C" x="31.9" y="-31.7"/><use xlink:href="#C" x="38.4" y="-30.8"/><use xlink:href="#C" x="44.1" y="-29.3"/><use xlink:href="#C" x="3.3" y="4.3"/></g><path d="M436.244 327.202s-8.795-6.191-9.028-21.086c-.129-8.572 4.449-14.763 15.909-14.763 16.038 0 38.944 6.322 38.944 6.322v2.107s-18.327-6.322-38.957-6.322c-9.157 0-13.749 6.191-13.749 12.525 0 10.549 9.183 21.228 9.183 21.228v16.871h-2.302z" class="B"/></g><g stroke-width=".133" class="B"><use xlink:href="#D"/><use xlink:href="#D" x="45.8"/></g><g class="J B"><path d="M436.244 356.741v-18.99s4.579 6.334 11.46 6.334c5.626 0 11.46-8.441 11.46-8.441s5.368 6.334 11.46 6.334c5.432 0 11.447-8.168 11.447-8.168s5.587 8.168 11.46 8.168c5.885 0 11.46-6.334 11.46-6.334s5.988 8.441 13.749 8.441c6.868 0 9.17-6.334 9.17-6.334v18.99z"/><path d="M436.163 356.741v-14.763s13.749 4.203 13.749 14.763zm91.574 0v-14.763s-13.749 4.203-13.749 14.763z"/><path d="M445.414 356.741c0-10.561 13.749-17.228 13.749-17.228s13.749 6.667 13.749 17.228zm45.8 0c0-10.561 13.749-17.228 13.749-17.228s13.749 6.667 13.749 17.228z"/><path d="M466.012 356.803c0-10.549 16.051-18.978 16.051-18.978s16.038 8.429 16.038 18.978h-32.076z"/></g><path d="M530.124 356.744c-4.527-2.107-21.228-4.215-48.121-4.215s-44.758 2.107-49.298 4.215c-4.527 2.107-4.527 6.334 0 8.441s22.417 4.215 49.298 4.215 43.594-2.107 48.121-4.215 4.527-6.334 0-8.441z" stroke-width=".165" class="D"/></g><path fill="gray" d="M527.9 365.2c0 4.2-38.2 4.2-45.9 4.2-8.3 0-45.8 1.2-45.8-4.2 0-4.2 37.8-4.2 45.8-4.2s45.9.8 45.9 4.2z"/><path fill="#c00" d="M440.8 350c0 1.4-1 2.6-2.3 2.6s-2.3-1.2-2.3-2.6 1-2.5 2.3-2.5c1.2 0 2.3 1.2 2.3 2.5zm87 0c0 1.4-1 2.6-2.3 2.6-1.2 0-2.3-1.2-2.3-2.6s1-2.5 2.3-2.5 2.3 1.2 2.3 2.5z"/><path d="M486.6 348.8c0 1.3-2.1 2.4-4.6 2.4-2.4 0-4.6-1.1-4.6-2.5s2-2.5 4.6-2.5 4.6 1.2 4.6 2.5z"/><path fill="#006300" d="M508.6 348.8c0 1.3-1.6 2.4-3.5 2.4s-3.4-1.1-3.4-2.5 1.6-2.5 3.4-2.5 3.5 1.2 3.5 2.5zm-47.2 0c0 1.3-1.5 2.4-3.4 2.4s-3.5-1.1-3.5-2.5 1.5-2.5 3.5-2.5c1.9 0 3.4 1.2 3.4 2.5z"/><g class="C"><g class="B"><use xlink:href="#E" class="L"/><path d="M436.075 341.994h2.62s-1.966-1.054-1.966-4.221v-2.101h1.308c1.312 0 2.624 3.167 2.624 3.167v-8.447s-1.312 3.167-2.624 3.167h-1.308v-2.113c0-3.161 1.966-4.215 1.966-4.215h-2.62zm91.85 0h-2.62s1.966-1.054 1.966-4.221v-2.101h-1.308c-1.312 0-2.624 3.167-2.624 3.167v-8.447s1.312 3.167 2.624 3.167h1.308v-2.113c0-3.161-1.966-4.215-1.966-4.215h2.62z" stroke-width=".164"/></g><use xlink:href="#F" class="D J"/><use xlink:href="#E" y="-44.3" class="B L"/><g class="J"><use xlink:href="#F" x="0.2" y="-43.9" class="D"/><g class="B"><path d="M477.491 293.544h9.17v6.334h-9.183z"/><path d="M477.491 296.854h9.17v24.11h-9.183z"/></g><g class="D"><use xlink:href="#C" x="52.9" y="-6.2"/><use xlink:href="#C" x="52.9" y="-11.6"/><use xlink:href="#C" x="52.9" y="-16.6"/><use xlink:href="#C" x="52.9" y="-21.9"/></g></g></g><path d="M486.9 356.8c0 1-2.1 1.7-4.8 1.7s-4.5-.7-4.5-1.7 2-1.7 4.6-1.7 4.7.8 4.7 1.7zM529 361c-.3.7-2.6.8-5.1 0-2.6-.5-4.4-1.4-4.2-2 .3-.8 2.6-.8 5.1-.2 2.6.6 4.4 1.5 4.2 2.2zm-17.7-2.8c0 .8-2.3 1.3-5 1.2-2.5-.2-4.6-1-4.5-2 .1-.8 2.4-1.2 5-1 2.6.1 4.7.9 4.5 1.8zm-77.5 2.8c.2.7 2.5.8 5 0 2.6-.5 4.5-1.4 4.2-2-.3-.8-2.5-.8-5-.2-2.6.6-4.4 1.5-4.2 2.2zm18.5-3.2c.1.8 2.4 1.3 5 1.1s4.7-1 4.5-1.9c0-.7-2.3-1.3-5-1.1-2.5.2-4.6 1-4.5 1.9z"/></g><path fill="#012169" d="M0 0h320v240H0Z"/><path d="m37.5 0 122 90.5L281 0h39v31l-120 89.5 120 89V240h-40l-120-89.5L40.5 240H0v-30l119.5-89L0 32V0Z" class="D"/><path fill="#c8102e" d="M212 140.5 320 220v20l-135.5-99.5Zm-92 10 3 17.5-96 72H0ZM320 0v1.5l-124.5 94 1-22L295 0ZM0 0l119.5 88h-30L0 21Z"/><path d="M120.5 0v240h80V0ZM0 80v80h320V80Z" class="D"/><path fill="#c8102e" d="M0 96.5v48h320v-48zM136.5 0v240h48V0Z"/><defs ><path id="B" d="M532.624 322.788c-.065.793.358 1.552 1.095 1.967s1.664.415 2.401 0 1.16-1.174 1.095-1.967c-.09-1.106-1.091-1.961-2.296-1.961s-2.206.855-2.296 1.961z"/><path id="C" d="M431.376 322.788c.065.793-.358 1.552-1.095 1.967s-1.664.415-2.401 0-1.16-1.174-1.095-1.967c.09-1.106 1.091-1.961 2.296-1.961s2.206.855 2.296 1.961z"/><path id="D" d="M452.165 335.009s.66-1.606 3.056-1.606c1.63 0 3.052 1.606 3.052 3.211v3.216h1.53v-3.216c0-1.606 1.526-3.211 3.052-3.211 2.293 0 3.056 1.606 3.056 1.606s0-4.822-3.056-4.822c-2.289 0-3.052 1.606-3.052 1.606s.763-2.409.763-4.822-1.526-4.019-1.526-4.019c0 .308-1.53 1.61-1.53 4.019s.763 4.822.763 4.822-.763-1.606-3.052-1.606c-3.056 0-3.056 4.822-3.056 4.822z"/><path id="E" d="M472.859 334.248s2.616-3.606 5.24-3.606h2.616v2.402c0 3.62-3.924 4.831-3.924 4.831h10.472s-3.931-1.211-3.931-4.831v-2.402h2.623c2.616 0 5.232 3.62 5.232 3.62v-9.655s-2.616 3.62-5.232 3.62h-2.623v-2.415c0-3.613 3.931-4.817 3.931-4.817h-10.479s3.924 1.204 3.924 4.817v2.415h-2.616c-2.623 0-5.24-3.62-5.24-3.62v9.648z"/><path id="F" d="M484.359 329.322c0 .753-.436 1.449-1.145 1.825a2.46 2.46 0 0 1-2.289 0c-.708-.376-1.145-1.072-1.145-1.825 0-1.164 1.025-2.107 2.289-2.107s2.289.943 2.289 2.107z"/></defs></svg>