<svg xmlns="http://www.w3.org/2000/svg" viewBox="0 0 640 480" xmlns:v="https://vecta.io/nano"><defs><clipPath id="A"><path fill-opacity=".7" d="M-5.3-6h40v30h-40z"/></clipPath></defs><g clip-path="url(#A)" transform="matrix(16 0 0 16 84.8 96)"><path fill="#fff" d="M-5.3-6h40v30h-40z"/><path fill="#df112d" fill-rule="evenodd" d="M-10.3-6v2L11.6 9-10.2 22v2H-7l21.8-13 21.7 13h3.2v-2L18 9 39.8-4v-2h-3.3L14.7 7-7-6h-3.2z"/><g stroke="#000"><g stroke="none"><path fill="#e8112d" d="M17.3-1.5c.7 2.6.3 5.8-2.6 7.6-2.9-1.8-3.3-5-2.6-7.6.7-.6 3.8-1 5.2 0z"/><g fill="#f9dd16"><path d="M14.7-2c1 0 1.8.2 2.6.6a5.7 5.7 0 0 1 1-2.4c-.5 0-.7.2-.7.5-.1-.3-.6-.3-.8-.1.6.3.2 1-.3.9-.3-.1-.4-.3-.4-.5a.3.3 0 1 0-.1 0 1 1 0 0 1-.7.3.7.7 0 0 1-.4-.6c0-.5.6-.6.7-.5 0-.3-.6-.7-.7-.3a1 1 0 0 0-.2-1.2 1 1 0 0 0-.2 1.1c-.2-.3-.7 0-.7.4.1-.1.6 0 .6.5 0 .2 0 .5-.3.5a.6.6 0 0 1-.7-.2l.2-.1a.3.3 0 1 0-.3 0c0 .3-.2.5-.4.5a.5.5 0 0 1-.3-.9c-.2-.2-.7-.2-.8.2 0-.3-.2-.5-.8-.5a5.7 5.7 0 0 1 1 2.4 5.3 5.3 0 0 1 2.7-.6zM17 .6h-.2.3c.1 0 .2-.1.1-.2h.2l-.2-.2h.2l-.2-.2h.1a.2.2 0 0 1 0-.2h-.7l-.5-.1.6-.3c0-.2-.3-.5-.8-.3L14.8-1l.7-.2.8-.1h-.7c-.3 0-1-.1-1 .3s.7.3 1.4.2l.6.1-.6.2a2 2 0 0 0-.9 0h-.7c-.2 0-.5 0-.7-.2 0 0-.4.2-.4.4V0c.2.2 0 .1-.2.1l-.5-.1c-.1-.2-.2-.3-.4-.2V0h.2a.2.2 0 0 0-.2 0v.2h.3-.2v.1h.4a.2.2 0 0 0-.2.2c.1-.1.2 0 .4 0l-.2.1c.1 0 .7.1.7-.1v.1s.3 0 .3-.2v.2s.2 0 .3-.2V.2h.5c.2-.2.3 0 .4-.1h.2c.1 0 .2 0 .3-.2.2.1.5.2 1.1.1.3 0 .5.1.5.3h-.5s-.1.1 0 .2 0 0 .1 0c0 0-.1.1 0 .2l.3-.1zm-4-1.7v.1l.1.2.1-.3z"/><path d="M13.7-1c.1-.1.2-.1.2 0l-.1.2-.1-.3z"/><path d="M13.4-1.2c.3 0 .4.2.4.4l-.2.4-.2.1-.2-.1c0-.3-.2-.2-.2-.4s0-.4.4-.4z"/><path d="M12.6-.4h-.2c.1 0 .1.2.4.2h-.2c.1 0 .2.2.5.2h0c0 .1.2 0 .3.2 0-.1-.2-.3 0-.5-.4 0-.5-.2-.6-.3-.2-.1-.2-.3-.3-.5 0 0-.1-.2-.2-.1v.2h-.1c.1 0 0 .2.2.3-.1-.1-.2-.2-.3-.1h.1l.4.4zm2.6 1h.5l.2-.1V.3c-.1 0-.2-.1-.1-.2-.3-.4-.9-.2-.9 0l.4.2h.1-.7l.1.1-.2.1c0 .2.2 0 .2 0v.1s0 .1.1 0a.3.3 0 0 1 .2 0z"/></g><path fill="#ff0016" d="M13.4-.4h.1v-.2h-.3v.1l.2.1z"/><path d="M13.3-.6h-.2m.2 0h-.2m.2 0h-.2m.4 0h.2m-.2 0h.2m-.2 0h.2"/><path fill="#0051ba" d="M12.3-1.2c0-.1-.2 0-.2 0h.2zm0 .1L12-1h.2zm0 .3H12h.2zm0 .7c-.1 0-.2 0-.2.2 0-.1.1 0 .2 0v-.2zm0 .2-.2.2.2-.1V0zm0 .1s-.1.1 0 .2V.1zm2.5.3c-.1 0-.2 0-.2.2l.2-.1V.5zm.1 0c-.1 0-.2.2-.1.3l.1-.1V.6zm0-.2c-.2 0-.3 0-.3.2l.2-.1zm1.6.2s-.2.1-.1.2l.1-.1V.5zm0-.1-.2.1h.2V.2zm0 .2s-.1.2 0 .2h.1V.5zm-3-1V0c-.2 0-.2 0-.2-.2v-.2h.1z"/><g fill="#f9dd16"><path d="M16.6 2.7h.2s.1 0 0-.1h.2l-.1-.2h.1l-.1-.2a.2.2 0 0 1 0-.2h-.5l-.5-.1c.3.1.6-.1.6-.3s-.3-.4-.7-.2l-1.1-.1.6-.2h.8l-.7-.1c-.3-.1-.9 0-.9.3s.7.3 1.3.2h.5l-.5.2a1.8 1.8 0 0 0-.8 0l-.7.1c-.1 0-.4 0-.6-.2l-.4.3.1.4c.1.1 0 0-.2 0h-.5c0-.2-.2-.3-.3-.2v.1h.2a.2.2 0 0 0-.2 0v.2h.2-.1c.2 0 .2.2.3.1a.2.2 0 0 0-.1 0s.2.2.3.1l-.1.2c0-.1.6 0 .6-.2v.2s.2 0 .3-.2h.2v-.2h.2l.3-.1h.5c.1 0 .2 0 .3-.2.2.1.4.2 1 .1.2 0 .3 0 .3.2v.1h-.4v.2c0 .1.1 0 .2 0-.1 0-.2 0-.1.1h.1l.2-.1zm-3.4-1.5H13l.1.3.1-.3z"/><path d="M13.7 1.2h.2l-.1.3-.1-.3z"/><path d="M13.5 1.1c.3 0 .3.2.3.4s-.1 0-.2.3l-.2.1h-.1c0-.3-.2-.3-.2-.4s0-.4.4-.4z"/><path d="M12.7 1.8h-.1s0 .2.3.2h-.2l.4.2h0l.4.2c0-.2-.2-.3-.1-.5-.3 0-.4-.2-.5-.3-.2 0-.2-.2-.2-.4l-.2-.1s-.1 0 0 0v.2h-.1l.1.2h-.2c.2 0 .3.3.4.3zm2.4.9H15h.8v-.2c-.1 0-.2-.1-.1-.3-.3-.3-.8-.1-.8 0l.4.2s.2 0 0 .1h-.2c-.2 0-.3-.1-.4 0v.2h.1s0 .1.1 0a.3.3 0 0 1 .2 0z"/></g><path fill="#ff0016" d="M13.5 1.9v-.1s.1-.1 0-.2c.1.1 0 .1 0 0 0 .1-.2.1-.2 0v.2h.2z"/><path d="m13.4 1.7-.2-.1m.2 0h-.2m.2 0-.2.1m.3 0 .2-.1m-.2 0h.2m-.2 0 .2.1"/><path fill="#0051ba" d="m12.5 1-.2.1h.2zm0 .2-.3.1h.2zm-.1.3c0-.1-.2 0-.2 0h.2zm0 .6-.2.1h.3zm0 .2s-.2 0 0 .2v-.2zm.2 0-.2.3.2-.1v-.1zm2 .3s-.1 0 0 .2l.1-.1v-.1zm.2.1s-.2.1-.1.2l.1-.1zm0-.3c-.1 0-.3.1-.2.2h.1v-.1zm1.4.3s-.1 0 0 .1v-.2zm0-.2-.1.1h.2v-.1zm.1.3s-.1 0 0 .1v-.1zm-2.8-1v.4V2c0-.1 0-.2-.1-.1v-.1z"/></g><g fill="#f9dd16" stroke-width=".015"><path d="M16.598 4.43c-.056 0-.056.075-.07.075.112 0 .168-.045.196-.105v.09c.084-.03.112-.105.084-.15l.098.03c-.056-.045-.014-.15-.112-.21.028 0 .084.03.112.075-.014-.105-.028-.165-.112-.225h.07c-.037-.027-.059-.072-.056-.12 0-.06-.028-.06-.084-.045l-.252.015c-.14 0-.28 0-.392-.09.182.09.42-.09.42-.225 0-.15-.196-.3-.56-.21s-.812.06-.812-.075.322-.15.49-.12.28.045.588-.075a1.02 1.02 0 0 1-.518-.015c-.196-.06-.672-.06-.672.21 0 .285.504.255.952.18.252-.03.392 0 .392.075 0 .09-.238.12-.42.105a1.31 1.31 0 0 0-.574.045c-.182.06-.308 0-.504.045-.098 0-.336 0-.448-.21-.07.06-.28.165-.322.285-.042.09 0 .195.056.3.084.12-.042.105-.14.105-.112 0-.28 0-.364-.12-.084-.09-.182-.165-.266-.105-.042.045 0 .09.028.075l.112.03c-.046-.022-.099-.017-.14.015s0 .09.042.075c.028-.015.098-.03.14 0-.042 0-.098 0-.112.03s0 .06.042.06c.084 0 .098.06.182.045-.04.002-.076.025-.098.06.084-.045.154.06.252.03-.028.015-.098.06-.098.09.056-.075.448.06.448-.105l-.014.12c.042-.03.196-.045.252-.15 0 .03 0 .075-.028.09.042 0 .112-.03.182-.135.028-.045.028-.075.028-.105.07 0 .112-.015.168-.06s.112.045.21-.03c.084-.06.168 0 .224-.03.042-.03.112 0 .168-.03s.14.015.224-.06c.14.06.322.15.728.075.224-.045.308.045.308.15 0 .09-.056.09-.084.09-.14.015-.182-.045-.238-.03-.028.015-.056.075 0 .105-.042.015-.042.06-.014.075s.07 0 .112-.015c-.056.015-.098.06-.07.105.014.03.056.045.098 0 .042-.06.112-.105.168-.105zm-2.604-1.2c-.112-.045-.14-.045-.126.06 0 .045.042.105.07.135 0-.045.014-.15.056-.18zm.378.015c.112-.06.154-.06.126.045 0 .045-.042.105-.07.135 0-.045 0-.15-.056-.18z"/><path d="M14.19 3.17c.224 0 .252.12.238.255 0 .15-.07.09-.112.3-.014.06-.07.075-.14.075-.042 0-.098 0-.126-.09-.042-.195-.112-.15-.112-.3 0-.12.028-.24.252-.24z"/><path d="M13.616 3.725c-.056-.03-.098 0-.126 0 .084.015.084.12.252.15-.042 0-.056.03-.098 0 .07.06.14.135.308.135.098 0 .028.045-.028.015.056.075.182.015.266.15 0-.105-.14-.255-.07-.36-.238-.015-.252-.15-.378-.255-.112-.09-.126-.18-.168-.345-.014-.075-.098-.12-.14-.105-.042 0-.07.045-.028.075.028.03.084.03.084.105-.042-.06-.112-.075-.14-.045-.014.03 0 .075.028.075.07 0 .028.09.098.15-.07-.075-.126-.09-.168-.045-.014.03 0 .075.056.075.07 0 .14.18.252.225zm1.82.69c-.028 0-.014.075-.07.075.112 0 .182-.03.224-.075l-.028.075c.056-.045.21-.06.28-.045s.084-.015.112-.06c.028-.06 0-.09-.042-.12-.042-.045-.056-.105-.042-.195-.196-.3-.56-.15-.56-.03.126.165.14.15.252.165.098.03.168.03.098.09-.028.03-.14 0-.21.015-.182 0-.28-.135-.322-.06-.042.06 0 .09.084.09-.056 0-.14 0-.126.06.028.105.112-.015.154.015-.028 0-.084.015-.084.045s.07.075.14 0c.041-.031.09-.047.14-.045z"/></g><g stroke-width=".015"><path fill="none" d="M15.59 3.98c-.056-.03-.126-.045-.196-.03m-.784 0c-.056.12-.028.18-.014.24m-.56-.84c.028.03.056-.03.112.03-.014-.015-.042.045-.084 0m.28-.015c-.042 0-.07-.045-.126.015.014-.015.042.045.084 0m-.084 0v.045c.014.105.042.15-.042.15-.07 0-.042-.045-.028-.15V3.38"/><path fill="#ff0016" d="M14.19 3.755c.056 0 .084 0 .084-.09 0-.03.042-.045.014-.105.028.06-.098.06-.098.03 0 .03-.14.03-.112-.03-.014.06.028.075.014.105 0 .09.028.09.098.09z"/><path d="M14.12 3.575l-.14-.045m.14.045h-.14m.14.015l-.126.045m.238-.06l.14-.045m-.14.045h.168m-.168.015l.14.045"/></g><path fill="#0051ba" stroke="none" d="M13 3.2h.1zm0 .1h-.2.2zm0 .2h-.2.1zm0 .6c0-.1-.1 0-.1 0h.1zm0 0s-.1.2 0 .2v-.1zm0 .2zm1.7.1s-.2.1-.1.2v-.2zm0 .1v.2-.1zm0-.2-.1.1h.1zm1.1.2v.1-.1zm0-.1s-.1 0 0 0zm0 .2v.1h.1v-.1zm-2-.8v.3-.3z"/></g></g></svg>