<svg xmlns="http://www.w3.org/2000/svg" xmlns:xlink="http://www.w3.org/1999/xlink" viewBox="0 0 640 480" xmlns:v="https://vecta.io/nano"><defs><clipPath id="A"><path fill-opacity=".7" d="M-95.8-.4h682.7v512H-95.8z"/></clipPath></defs><g fill-rule="evenodd" clip-path="url(#A)" transform="matrix(.9375 0 0 .9375 89.8 .4)"><path fill="#fff" d="M-95.8-.4H587v512H-95.8Z"/><g transform="matrix(5.918342 -8.87418 8.87418 5.918342 245.245208 255.740351)"><g id="B"><path id="C" d="M-6-26H6v2H-6Zm0 3H6v2H-6Zm0 3H6v2H-6Z"/><use xlink:href="#C" y="44"/></g><path stroke="#fff" d="M0 17v10"/><path fill="#cd2e3a" d="M0-12a12 12 0 0 1 0 24Z"/><path fill="#0047a0" d="M0-12a12 12 0 0 0 0 24A6 6 0 0 0 0 0Z"/><circle cy="-6" r="6" fill="#cd2e3a"/></g><g transform="matrix(-5.918342 -8.87418 8.87418 -5.918342 245.538708 255.780952)"><use xlink:href="#B"/><path stroke="#fff" d="M0-23.5v3M0 17v3.5m0 3v3"/></g></g></svg>