<svg xmlns="http://www.w3.org/2000/svg" xmlns:xlink="http://www.w3.org/1999/xlink" viewBox="0 0 640 480" xmlns:v="https://vecta.io/nano"><style><![CDATA[.B{stroke:#000}.C{fill:none}.D{fill-rule:evenodd}.E{fill:#a77b3b}.F{fill:#ff1900}.G{stroke-width:.7}.H{stroke-width:.741}.I{stroke-width:1.1}.J{stroke-width:1.685}.K{stroke-width:2.522}.L{stroke-width:2.326}.M{stroke-width:2.532}]]></style><g class="D"><path fill="#00319c" d="M0 0h213.3v480H0z"/><path fill="#ffde00" d="M213.3 0h213.4v480H213.3z"/><path fill="#de2110" d="M426.7 0H640v480H426.7z"/><g class="B"><path d="M360.4 320.4l24.2 35c1.4 2 2.7 3.9.7 5.2s-1.4 6.4 0 8.4c2.7 3.9 6 4.5 8 3.2l18.4-11.6c2-1.2 2.7-4.5 0-8.4-1.5-2-6-4.5-8-3.2-2.1 1.3-3.5-.7-4.8-2.6l-24.3-35" class="F G"/><use xlink:href="#B" stroke-width="2.5" transform="matrix(.52728 -.42386 .44358 .50386 -32.4 20)" class="E"/><path d="M262 306.1l-21.5 36.7c-1.2 2-2.4 4-4.5 3-2.1-1.2-6.6 1.7-7.8 3.8-2.4 4-1.5 7.2.7 8.4l19.2 10.2c2 1.1 5.4.2 7.8-3.8 1.1-2.2 1.4-7.3-.7-8.4s-1-3.2.3-5.2l21.4-36.7" class="F G"/><path stroke-width="1.7" d="M331.2 280.6h-19.6c-.6.6-6.2 35.6-12.2 49-7.3 16.3-29.2 30.7-29.2 30.7s13.1 4 17 6.6c1-.3 22-4.7 24.4-30.3 2.4 25.6-14.6 37.3-14.6 37.3s24.4 7 24.4 23.3c0-16.3 24.4-23.3 24.4-23.3s-12.2-11.7-14.7-37.3c5 25.6 23.5 30 24.5 30.3 3.9-2.6 17-6.6 17-6.6s-21.9-14.4-29.2-30.7c-6-13.4-11.6-48.4-12.2-49zm-83-116.7 36.6 11.7c12.1 0 24.4-11.7 24.4-23.4.4-26-9.8-35-12.2-35l4.8-4.6-7.3-7s2.5-12.1 26.9-11.7c24.4.5 24.4 11.7 24.4 23.3s-12.2 11.7-12.2 35c0 11.7 12.2 23.4 24.4 23.4l36.6-11.7v116.7H248.1V163.9z" class="E"/></g></g><g class="B C"><path d="M304.283 168.571l2.434 7.016 2.451-7.016 2.434 7.016 4.885-7.016 2.384 7.39 2.501-7.39 3.601 7.39 3.718-7.39 2.434 7.016 2.451-7.016" stroke-width=".176"/><path d="M314.076 142.944l-4.892 25.679m7.304-25.679v25.679m4.892-25.679v25.679m4.892-25.679l2.412 25.679m2.481-25.679l2.412 25.679" stroke-width=".135"/></g><g class="B"><g class="J"><path d="M223.662 93.957c-24.392 11.654-24.392 35.028-24.392 46.683.827 10.601 0 233.282 0 233.282s1.585-13.169 12.196-23.308l12.127-11.654 12.196-11.654c8.958-7.769 12.196-23.374 12.196-35.028V128.985s0-11.72-24.392-35.028z" class="D E"/><g class="C"><use xlink:href="#C"/><path d="M248.054 152.261c-.276 0-12.196 11.654-12.196 11.654l-12.196-11.654-12.196 11.654-12.196-11.654"/><use xlink:href="#C" y="46.6"/></g></g><path d="M235.72 128.954l.138 198.359" class="C K"/><path d="M223.72 140.615l.138 197.876" class="C L"/><path d="M211.52 129.007l.138 221.666" class="C M"/><g class="J"><path d="M419.038 93.957c24.392 11.654 24.392 35.028 24.392 46.683-.827 10.601 0 233.282 0 233.282s-1.585-13.169-12.196-23.308l-12.127-11.654-12.196-11.654c-8.958-7.769-12.196-23.374-12.196-35.028V128.985s0-11.72 24.392-35.028z" class="D E"/><g class="C"><use xlink:href="#D"/><path d="M394.646 152.261c.276 0 12.196 11.654 12.196 11.654l12.196-11.654 12.196 11.654 12.196-11.654"/><use xlink:href="#D" y="46.6"/></g></g><path d="M406.98 128.954l-.138 198.359" class="C K"/><path d="M419.08 140.615l-.138 197.876" class="C L"/><path d="M431.28 129.007l-.138 221.666" class="C M"/></g><g class="D"><use xlink:href="#B" stroke-width="2.5" transform="matrix(.63605 .25323 -.26502 .60778 361.1 -165.2)" class="B E"/><path fill="red" d="M248.1 175.6h146.5v70H248.1z"/><path fill="#564dff" d="M248.1 245.6h146.5v35c0 23.3-36.6 23.3-73.2 46.6C284.7 304 248 304 248 280.6v-35z"/></g><path stroke="#ff0" d="M248.134 175.602h146.492v105.085c0 23.308-36.589 23.308-73.246 46.683-36.589-23.374-73.246-23.374-73.246-46.749V175.668z" stroke-width="1.348" class="C"/><g class="D"><g fill="#ff0" class="B"><g stroke-width="1.013"><path d="M294.49 180.261s-24.406 17.159-24.406 33.576 25.612 21.92 25.612 21.92-8.537 0-8.537 21.889c0 10.976 25.612 5.503 25.612 10.976s-.338 18.705 0 27.392c0 5.472-17.075 0-17.075 5.472 0 2.721 12.83 16.417 25.66 16.417s25.612-13.696 25.612-16.417c0-5.472-17.075 0-17.075-5.472v-27.392c0-5.472 25.612 0 25.612-10.976 0-21.889-8.537-21.889-8.537-21.889s25.66-5.472 25.66-21.92-24.455-33.576-24.455-33.576 13.747 22.631 13.747 33.576c0 5.472-6.415 16.448-23.49 16.448 0 0-4.341-5.503-8.537 0 0 0-4.92-5.503-8.537 0-1.254 1.855-3.473-5.503-8.586 0-2.122 1.453-3.859-5.503-8.537 0-8.537 0-25.612-5.503-25.612-16.448s15.869-33.576 15.869-33.576z"/><path d="M294.992 278.274c-1.736 1.113 2.219 18.952 3.376 19.725 1.736 1.082 12.01 1.082 13.698 0 1.206-.773 0-17.53-1.688-18.612-1.736-1.113-14.181-1.855-15.435-1.113zm52.816 0c1.736 1.113-2.219 18.952-3.376 19.725-1.736 1.082-12.01 1.082-13.698 0-1.206-.773 0-17.53 1.688-18.612 1.736-1.113 14.181-1.855 15.435-1.113z"/></g><path d="M312.554 271.768c0 3.406-3.971 6.167-8.87 6.167s-8.87-2.761-8.87-6.167 3.971-6.167 8.87-6.167 8.87 2.761 8.87 6.167zm35.304.003c0 3.406-3.971 6.167-8.871 6.167s-8.871-2.761-8.871-6.167 3.971-6.167 8.871-6.167 8.871 2.761 8.871 6.167z" stroke-width="1.194"/></g><path d="M336.8 307.5c0 1.5-2 2.7-4.3 2.7-2.4 0-4.3-1.2-4.3-2.7s2-2.7 4.3-2.7 4.3 1.2 4.3 2.7zm-22.3 0c0 1.5-1.9 2.7-4.2 2.7-2.4 0-4.3-1.2-4.3-2.7s1.9-2.7 4.3-2.7c2.3 0 4.2 1.2 4.2 2.7z"/><g fill="#ff0" class="B"><path d="M321.387 220.003l-5.244-6.616-8.605 1.092 1.21-8.222-6.924-4.946 6.924-5.01-1.21-8.222 8.605 1.156 5.244-6.616 5.244 6.616 8.538-1.156-1.143 8.222 6.857 5.01-6.857 5.01 1.143 8.158-8.605-1.092z" stroke-width=".723"/><path d="M357.969 245.593l14.677 7.045 14.677-7.045-14.677-6.979-14.608 6.979zm-105 0l14.677 7.045 14.677-7.045-14.677-6.979-14.608 6.979z" class="H"/><path d="M535 659c-3.5-7-14.1-10.6-21.2-10.6s-14.2 0-21.3 10.7c0-14.2 10.5-21.3 21.3-21.3a22.7 22.7 0 0 1 21.2 21.3z" transform="matrix(.59753 -.3279 .34316 .57097 -165.2 86.5)" class="I"/><g class="H"><use xlink:href="#E"/><use xlink:href="#E" x="-4.9" y="16.3"/><use xlink:href="#E" x="-7.3" y="7"/><use xlink:href="#E" x="4.9" y="16.3"/><use xlink:href="#E" x="7.3" y="7"/><use xlink:href="#E" y="9.3"/></g></g><path fill="#da4500" d="M297.8 120.4c-12.4 0-14 2-19.6 3.9 0-5.4 13.8-11.7 26-11.7 0 3.9-3.2 7.8-6.4 7.8z"/><path fill="#cac9c7" d="M316.5 108c0 2.5-2.2 4.6-4.9 4.6s-4.9-2.1-4.9-4.7 2.2-4.6 4.9-4.6 4.9 2 4.9 4.6z"/><path fill="#ff0" d="M265.223 91.652v6.979h12.196v34.963h7.373V98.631h12.196v-6.979h-12.196v-9.35h-7.442v9.35h-12.196z" class="B H"/><path fill="#da4500" d="M304.3 112.6a78.5 78.5 0 0 0-29.3 3.9c0-7.2 8.4-15.6 22.8-15.6 3.2 0 6.5 7.8 6.5 11.7z"/><path fill="#008500" d="M67.3 613c-14.2-14.2-16.6-21.4 3.6-10.1l283.7 247.5-3.4 7L67.4 613z" transform="matrix(.38821 .29653 -.14073 .23692 237.4 71.3)" class="B G"/><g fill="#008f00"><path d="M228.4 330.4c.8-10.6-18.6-22-19.4-21.3-.7.8 1.2 7 4.9 10.1-7-3.6-14.4-5.8-14.6-4.3-.6 2.2 11 7.2 12 9.2 0 1.4-8.6 1.2-8.4 2.6s24.3 13.6 25.5 3.7zM209 299.6c.8-10.6-18.6-22-19.3-21.3-.8.7 1.1 6.9 4.8 10.1-7-3.6-14.4-5.9-14.6-4.3-.5 2.1 11 7.2 12 9.2.1 1.4-8.5 1.2-8.4 2.6.2 1.4 24.3 13.5 25.5 3.7zm-14.8-28c.8-10.6-18.6-22-19.4-21.3-.7.7 1.2 6.9 4.9 10.1-7-3.6-14.4-5.9-14.6-4.3-.5 2.1 11 7.2 12 9.2 0 1.4-8.5 1.2-8.4 2.6.2 1.4 24.3 13.6 25.5 3.7zm-14.6-30.4c.7-10.5-18.6-22-19.4-21.3-.8.8 1.2 7 4.8 10.2-7-3.7-14.4-5.9-14.5-4.3-.6 2.1 11 7.2 11.9 9.1.1 1.4-8.5 1.3-8.3 2.7.1 1.4 24.2 13.5 25.5 3.6z"/><path d="M184.6 239.9c9.4-5.7 7.5-27.4 6.5-27.6-1.1-.1-5.2 5-5.7 9.8-1.1-7.6-3.6-14.6-5-13.8-2.1.8.4 12.7-.7 14.6-1 1-6-5.8-7-4.8-1.2 1 2.8 26.7 12 21.8zm13.6 26.6c10.8-2.4 16.7-23.4 15.7-23.9s-6.6 3-8.7 7.4c1.6-7.5 1.7-14.9 0-14.6-2.3.1-4 12.1-5.7 13.5-1.3.6-3.7-7.3-5-6.8-1.4.6-6.6 26.1 3.7 24.4zm16.2 27.2c9.9-4.8 10-26.6 9-26.8-1-.3-5.5 4.5-6.5 9.2-.4-7.7-2.2-14.8-3.7-14.1-2.2.6-.8 12.6-2 14.4-1.2.9-5.5-6.3-6.7-5.4-1.2.8.4 26.8 10 22.7zm17.6 35.6c10.3-3.9 12.8-25.5 11.8-25.9-1-.3-6 4-7.5 8.6.4-7.7-.6-15-2.2-14.4-2.3.4-2.1 12.5-3.5 14.2-1.3.7-4.8-6.8-6-6-1.3.6-2.5 26.7 7.4 23.5z"/></g><g class="B"><use xlink:href="#F" transform="matrix(.60164 .32097 -.3359 .5749 389.6 -146.8)" class="F I"/><g stroke-width=".5" transform="matrix(.49887 .1571 -.1826 .4713 451.4 -3.7)" fill="#ff0"><path d="M156 414.6v-7.1h7v-7.1h7v7h7.2v7.2H170v17.7h-7v-17.7h-7zm7 60.2h7v205.5h-7z"/><path d="M159.4 676.8h14.2v56.7h-14.2zM156 439.4h21.3c14.1 0-3.6 39-3.6 39h-14.1s-17.8-39-3.6-39zm17.6-5.4c0 3-3.1 5.4-7 5.4s-7.1-2.4-7.1-5.3 3.1-5.4 7-5.4 7.1 2.4 7.1 5.4z"/></g><use xlink:href="#F" transform="matrix(.57449 -.36357 .38048 .54895 -2.3 4.2)" class="F I"/></g></g><defs ><path id="B" d="M177.2 696.3c0 24.4-9.6 44.3-21.3 44.3s-21.3-19.9-21.3-44.3S144.3 652 156 652s21.3 19.8 21.3 44.3z"/><path id="C" d="M248.054 140.639c-.276 0-12.196-11.654-12.196-11.654l-12.196 11.654-12.196-11.654-12.196 11.654"/><path id="D" d="M394.646 140.639c.276 0 12.196-11.654 12.196-11.654l12.196 11.654 12.196-11.654 12.196 11.654"/><path id="E" d="M279.811 273.596c0 2.564-2.175 4.642-4.858 4.642s-4.858-2.078-4.858-4.642 2.175-4.642 4.858-4.642 4.858 2.078 4.858 4.642z"/><path id="F" d="M209 776c0 7.8-10.2 14.2-23 14.2s-23-6.4-23-14.2 10.3-14.2 23-14.2 23 6.4 23 14.2z"/></defs></svg>