<svg xmlns="http://www.w3.org/2000/svg" xmlns:xlink="http://www.w3.org/1999/xlink" viewBox="0 0 640 480" xmlns:v="https://vecta.io/nano"><defs><g id="A"><g id="B"><path d="M0-.3v.5l1-.5z"/><path d="M.2.3 0-.1l1-.2z"/></g><use xlink:href="#B" transform="scale(-1 1)"/><use xlink:href="#B" transform="rotate(72)"/><use xlink:href="#B" transform="rotate(288)"/><use xlink:href="#B" transform="matrix(-.309017 .951057 .951057 .309017 0 0)"/></g></defs><path fill="#00247d" fill-rule="evenodd" d="M0 0h640v480H0z"/><g transform="matrix(.66825 0 0 .66825 -111 36.1)"><use xlink:href="#A" fill="#fff" transform="matrix(45.4 0 0 45.4 900 120)"/><use xlink:href="#A" fill="#cc142b" transform="matrix(30 0 0 30 900 120)"/></g><g transform="matrix(.093002 .661747 -.661747 .093002 565.591008 -421.438027)"><use xlink:href="#A" fill="#fff" transform="matrix(5.622593 -40.00683 40.00683 5.622593 900.014856 119.948656)"/><use xlink:href="#A" fill="#cc142b" transform="matrix(3.479328 -24.756702 24.756702 3.479328 900.014856 119.948656)"/><use xlink:href="#A" fill="#fff" transform="matrix(6.318459 -44.95817 44.95817 6.318459 900.059711 380.000256)"/><use xlink:href="#A" fill="#cc142b" transform="matrix(4.175193 -29.708042 29.708042 4.175193 900.059711 380.000256)"/></g><g transform="matrix(.66825 0 0 .66825 -111 36.1)"><use xlink:href="#A" fill="#fff" transform="matrix(50.4 0 0 50.4 900 480)"/><use xlink:href="#A" fill="#cc142b" transform="matrix(35 0 0 35 900 480)"/></g><path fill="#012169" d="M0 0h320v240H0z"/><path fill="#fff" d="m37.5 0 122 90.5L281 0h39v31l-120 89.5 120 89V240h-40l-120-89.5L40.5 240H0v-30l119.5-89L0 32V0z"/><path fill="#c8102e" d="M212 140.5 320 220v20l-135.5-99.5zm-92 10 3 17.5-96 72H0zM320 0v1.5l-124.5 94 1-22L295 0zM0 0l119.5 88h-30L0 21z"/><path fill="#fff" d="M120.5 0v240h80V0zM0 80v80h320V80z"/><path fill="#c8102e" d="M0 96.5v48h320v-48zM136.5 0v240h48V0z"/></svg>