<svg xmlns="http://www.w3.org/2000/svg" xmlns:xlink="http://www.w3.org/1999/xlink" viewBox="0 0 640 480" xmlns:v="https://vecta.io/nano"><style><![CDATA[.B{stroke-width:1.3}.C{fill:#fff}.D{fill-rule:evenodd}.E{stroke-width:.226}.F{stroke-width:1.4}.G{stroke-width:.237}.H{stroke-width:.238}.I{stroke-width:.227}.J{stroke-width:.233}]]></style><defs><clipPath id="A"><path fill-opacity=".7" d="M0 0h640v480H0z"/></clipPath><path id="B" d="m65 396 9.7.5.4 5.8 8 5.3 6.2-6.7 7.5 5.3-7 5.8 1.7 8 8.8-.5V430l-7-.4-3.6 6.6 8 7.5-6.2 6.2-6.7-6.6-9.7 2.6.5 9.7-10.6 1-1.4-9.4-8.8-4.8-4.9 6.6-7.5-4.9 4.4-7.5-5.3-4.8H34l-.4-13.7 7.5.9 5.3-8-6.2-6.2 8-7 5.7 5.7 9.7-1.8L65 396z"/><path id="C" d="m39 474.8-10.7 10.6m17.8-10.6-10.7 10.6m17.7-10.6-10.6 10.6m17.7-10.6-10.6 10.6m17.7-10.6-10.6 10.6m17.7-10.6-10.6 10.6m17.7-10.6-10.6 10.6m17.7-10.6L78 485.4m17.7-10.6L85 485.4m17.8-10.6L92 485.4m17.7-10.6-10.6 10.6m17.7-10.6-10.6 10.6m-17.7-10.6L78 485.4m46-10.6-10.6 10.6m17.7-10.6-10.6 10.6m17.7-10.6-10.6 10.6m17.7-10.6-10.6 10.6m0-10.6 10.6 10.6m-17.7-10.6 10.6 10.6m-17.7-10.6 10.6 10.6m-17.7-10.6 10.6 10.6m-17.7-10.6 10.6 10.6m-17.7-10.6 10.6 10.6m-17.7-10.6 10.7 10.6M85 474.8l10.6 10.6m-17.8-10.6 10.7 10.6m-17.7-10.6 10.6 10.6m-17.7-10.6 10.6 10.6m-17.7-10.6 10.6 10.6M85 474.8l10.6 10.6m-46-10.6 10.5 10.6m-17.7-10.6 10.7 10.6m-17.8-10.6L46 485.4m-17.8-10.6L39 485.4m0 49.6-10.6 10.7M46 535l-10.7 10.7M53.2 535l-10.7 10.7M60.2 535l-10.6 10.7M67.3 535l-10.6 10.7M74.4 535l-10.6 10.7M81.5 535 71 545.7M88.6 535 78 545.7M95.7 535 85 545.7m17.7-10.7L92 545.7m18-10.7-10.7 10.7M117 535l-10.6 10.7M88.6 535 78 545.7m46-10.7-10.6 10.7m17.7-10.7-10.6 10.7m17.7-10.7-10.6 10.7m17.7-10.7-10.6 10.7m0-10.7 10.6 10.7M127.6 535l10.6 10.7M120.5 535l10.6 10.7M113.4 535l10.6 10.7M106.3 535l10.6 10.7M99.2 535l10.7 10.7M92 535l10.7 10.7M85 535l10.6 10.7M78 535l10.6 10.7M70.9 535l10.6 10.7M63.8 535l10.6 10.7M56.7 535l10.6 10.7M85.1 535l10.6 10.7m-46-10.7 10.5 10.7M42.5 535l10.7 10.7M35.4 535l10.7 10.7M28.4 535 39 545.7"/><path id="D" d="M538.6 531.5c1.7 166.6 24.8 202 3.5 202s-31.9-92.1-31.9-205.5 14.2-205.5 35.5-205.5-9 31.9-7.1 209z"/><path id="E" d="M265.8 396.9v17.7a321.1 321.1 0 0 0 106.2 0v-17.7a321.1 321.1 0 0 1-106.2 0z"/><path id="F" d="M478.4 237.4c-6 0-10.7 6.6-10.7 14.8v16.5c0 8.1 4.8 14.8 10.7 14.8 5.8 0 10.6-6.6 10.6-14.9v-16.4c0-8.2-4.8-14.8-10.6-14.8zm0-7a18 18 0 0 0-17.8 18.4V272a18 18 0 0 0 17.7 18.6c9.9 0 17.8-8.3 17.8-18.6v-23.2a18 18 0 0 0-17.7-18.5z"/></defs><g clip-path="url(#A)"><g class="D"><path fill="#ef2d29" d="M-3.3-21.6H699v553H-3.3z"/><path fill="#009025" d="M174.6 317.3h535.7V525H174.6z"/><path d="M174.6-35.4h564.9v190h-565z" class="C"/></g><g stroke="#ef2d28"><g class="C D"><g transform="matrix(.19848 0 0 .17744 111.3 -13.4)"><rect width="138.2" height="85" x="17.7" y="467.7" rx="11.3" ry="11.8" class="F"/><g class="B"><rect width="131.1" height="78" x="21.3" y="471.3" rx="10.7" ry="10.9"/><use xlink:href="#B" transform="matrix(.68108 0 0 .5852 38 260.7)"/><ellipse cx="68.9" cy="426.8" rx="11.1" ry="9.9" transform="matrix(.65819 0 0 .70224 38.8 209.6)"/><use xlink:href="#C"/></g></g><g transform="matrix(.19848 0 0 .17744 19.1 -14)"><rect width="138.2" height="85" x="17.7" y="467.7" rx="11.3" ry="11.8" class="F"/><g class="B"><rect width="131.1" height="78" x="21.3" y="471.3" rx="10.7" ry="10.9"/><use xlink:href="#B" transform="matrix(.68108 0 0 .5852 38 260.7)"/><ellipse cx="68.9" cy="426.8" rx="11.1" ry="9.9" transform="matrix(.65819 0 0 .70224 38.8 209.6)"/><use xlink:href="#C"/></g></g><use xlink:href="#D" transform="matrix(-.32136 -.12684 -.20158 .20221 345.9 61.4)" class="B"/><path d="M36.989 124.914l11.968 3.141c-11.254 10.7-23.917 15.082-27.43 13.202s6.332-6.281 15.481-16.324z" class="E"/><path d="M36.985 126.161l9.86 2.508c-10.962 10.288-21.809 13.206-24.612 11.943-2.823-1.246 5.858-4.777 14.752-14.452z" class="G"/></g><g fill="none"><g class="H"><path d="M73.644 99.13l-.182 1.167c0 .397-.042.695-.084 1.006-.112.273-.098.521-.433.621-.155.248-.402.441-.699.546-.269.191-.565.35-.881.472a1.81 1.81 0 0 1-1.048.074c-.308-.186-.531-.385-.783-.546l-.182-.857a3.66 3.66 0 0 1 .182 1.018c-.028.372-.182.546-.349.844m1.285.851l-.084-.074c.21.186.126.099-.349-.161-.335-.149-.699-.223-1.132-.298h-1.23c-.475 0-.797.062-1.132.149-.252.223-.615.348-.881.546a1.39 1.39 0 0 0-.517.621c-.238.211-.391.534-.615.695-.098.36-.294.348-.433.621.419.025.741.074.964.31.363.161-.308-.161-.447-.31-.28-.074-.349-.149-.783-.149-.391-.124-.643.087-1.048.149-.238.124-.308.161-.615.161m3.594 1.603c-.182 0-.992.137-1.314 0-.363-.087-.559-.248-.783-.546-.112-.211 0 .372 0 .621-.042.459-.196.459-.447.77l-.783.472a2.62 2.62 0 0 1-.783.385c-.28.124-.573.223-.783.385-.294.186-.28.41-.447.708.042.372.112.596.349.77.112.261.335.521.531.695.21.372.461.534-.084.621-.308.124-.475.025-.797 0m-.199.529a22.11 22.11 0 0 1-1.314-.385h-1.23c-.461.037-.559.161-.951.31-.266.236-.433.397-.797.546-.182.211-.559.583-.699.857a2.84 2.84 0 0 0-.168.993c0 .459.14.546.168.943a2.31 2.31 0 0 0 .531.931c.042.099.07.124.168.149"/></g><path d="M56.099 118.956c-.04 0-.119.196-.248.363-.288.294-.318.314-.744.314-.397-.02-.347-.157-.625-.245-.129-.196-.288-.353-.437-.617-.099-.157-.189-.402-.298-.549-.119-.186-.258-.323-.377-.49-.119-.049-.159-.098-.318-.127.357.059.397.186.625.372a5.75 5.75 0 0 1 .308.549c.04.265.119.47.129.794 0 .343 0 .578-.129.862-.149.147-.248.304-.437.431a3.61 3.61 0 0 0-.427.49l-.566.363a1.56 1.56 0 0 1-.675.245c-.367-.029-.476-.127-.744-.245l-.625-.431c-.171-.139-.318-.305-.437-.49-.327-.078-.546-.049-.744.127-.168.116-.313.262-.427.431-.099.049-.278.196-.377.245" class="I"/><path d="M49.241 121.547c.099.037.469.293.617.379.099.33.259.501.308.856.086.318.086.685.086 1.064-.086.391-.247.673-.395.978-.247.171-.37.293-.691.465-.308.049-.617.086-.999.086-.247.073-.691.11-.925 0-.345-.049-.605-.183-.851-.306-.284-.159-.457-.318-.765-.465-.16-.22-.395-.428-.617-.685-.197-.257-.333-.404-.469-.685l.382.917c.185.318.284.44.308.832.123.318.086.709.086 1.076-.037.245-.049.709-.16.917v.232" class="J"/><path d="M37.863 128.41v.124c0-.302 0-.16.139.444.218.248.794.319 1.231.213.397-.302.397-.532 1.111-.657.715.035.992.213 1.389.444.422.14.774.411.992.763.139.373.218.639-.258.781-.415.248-.892.401-1.389.444-.556 0-.973-.053-1.231.231-.397.355-.357.568-.357 1.207-.139.195-.159.781-.258 1.011-.342.161-.726.234-1.111.213-.139-.355-.278-.958-.377-1.331-.099-.39-.119-.958-.377-1.224a3.13 3.13 0 0 0-.853-.781c-.201-.203-.462-.351-.754-.426.496.213.556.461.615.994-.417.177-.536.319-1.231.337-.695-.053-.853-.213-1.111-.568-.06.568-.258.745-.397 1.242-.238.319-.337.657-.595 1.1.099.532.337.55.357 1.207.159.444.159.852.496 1.118.159.177.278.195.635.213-.715 0-1.151-.071-1.628-.319-.357-.213-.635-.461-.992-.674-.448-.302-.952-.53-1.489-.674-.576 0-.992-.053-1.231.231-.357.231-.595.621-.754 1.118-.099.568-.159.958.139 1.331.198.426.258.586 0 1.1-.298.355-.715.408-1.389.55-.457-.018-.913-.106-1.231-.213" class="E"/></g><g class="D"><g transform="matrix(-.19848 0 0 .17744 145.3 -13.4)" class="B"><g class="C"><path d="M531.5 359.6c0-165.2 8-299.4 17.7-299.4 9.8 0 17.7 134.2 17.7 299.4h-35.4z" transform="matrix(1.4216 -.73423 .46161 .89375 -716.8 541)"/><path d="M531.5 359.6c0-165.2 8-299.4 17.7-299.4 9.8 0 17.7 134.2 17.7 299.4" transform="matrix(1.1373 -.58739 .44532 .86221 -554.8 471.8)"/><g transform="matrix(1.4216 -.73423 .45889 .88849 -716.7 541.4)"><path d="M563.4 301.2v60.2H535v-60.2h28.4z"/><path d="M559.8 304.7v53.2h-21.2v-53.2h21.2z"/><path d="M542.1 311.8h14.2v39h-14.2zm0 0 14.2 39m-14.2 0 14.2-39m-14.2-198.4h14.2"/></g></g><circle cx="545.7" cy="92.1" r="3.5" fill="#ef0000" transform="matrix(1.6046 .45375 -.36215 1.5787 -734.9 -170.8)"/></g><g class="C"><use xlink:href="#D" transform="matrix(.32136 -.12684 .20158 .20221 -181.5 60.8)" class="B"/><path d="M127.411 124.314l-11.968 3.141c11.254 10.7 23.917 15.082 27.43 13.202s-6.332-6.281-15.481-16.324z" class="E"/><path d="M127.415 125.461l-9.86 2.508c10.962 10.288 21.809 13.206 24.612 11.943 2.823-1.246-5.858-4.777-14.752-14.452z" class="G"/></g></g><g fill="none"><g class="H"><path d="M90.756 98.43l.182 1.167c0 .397.042.695.084 1.006.112.273.098.521.433.621.155.248.402.441.699.546.269.191.565.35.881.472a1.81 1.81 0 0 0 1.048.074c.308-.186.531-.385.783-.546l.182-.857a3.66 3.66 0 0 0-.182 1.018c.028.372.182.546.349.844m-1.285.851l.084-.074c-.21.186-.126.099.349-.161.335-.149.699-.223 1.132-.298h1.23c.475 0 .797.062 1.132.149.252.223.615.348.881.546a1.39 1.39 0 0 1 .517.621c.238.211.391.534.615.695.098.36.294.348.433.621-.419.025-.741.074-.964.31-.363.161.308-.161.447-.31.28-.074.349-.149.783-.149.391-.124.643.087 1.048.149.238.124.308.161.615.161m-3.594 1.703c.182 0 .992.137 1.314 0 .363-.087.559-.248.783-.546.112-.211 0 .372 0 .621.042.459.196.459.447.77l.783.472a2.62 2.62 0 0 0 .783.385c.28.124.573.223.783.385.294.186.28.41.447.708-.042.372-.112.596-.349.77-.112.261-.335.521-.531.695-.21.372-.461.534.084.621.308.124.475.025.797 0m.199.529a22.11 22.11 0 0 0 1.314-.385h1.23c.461.037.559.161.951.31.266.236.433.397.797.546.182.211.559.583.699.857a2.84 2.84 0 0 1 .168.993c0 .459-.14.546-.168.943a2.31 2.31 0 0 1-.531.931c-.042.099-.07.124-.168.149"/></g><path d="M108.401 118.356c.04 0 .119.196.248.363.288.294.318.314.744.314.397-.02.347-.157.625-.245.129-.196.288-.353.437-.617.099-.157.189-.402.298-.549.119-.186.258-.323.377-.49.119-.049.159-.098.318-.127-.357.059-.397.186-.625.372a5.75 5.75 0 0 0-.308.549c-.04.265-.119.47-.129.794 0 .343 0 .578.129.862.149.147.248.304.437.431a3.61 3.61 0 0 1 .427.49l.566.363a1.56 1.56 0 0 0 .675.245c.367-.029.476-.127.744-.245l.625-.431c.171-.139.318-.305.437-.49.327-.078.546-.049.744.127.168.116.313.262.427.431.099.049.278.196.377.245" class="I"/><path d="M115.159 120.847c-.099.037-.469.293-.617.379-.099.33-.259.501-.308.856-.086.318-.086.685-.086 1.064.086.391.247.673.395.978.247.171.37.293.691.465.308.049.617.086.999.086.247.073.691.11.925 0 .345-.049.605-.183.851-.306.284-.159.457-.318.765-.465.16-.22.395-.428.617-.685.197-.257.333-.404.469-.685l-.382.917c-.185.318-.284.44-.308.832-.123.318-.086.709-.086 1.076.037.245.049.709.16.917v.232" class="J"/><path d="M126.537 127.81v.124c0-.302 0-.16-.139.444-.218.248-.794.319-1.231.213-.397-.302-.397-.532-1.111-.657-.715.035-.992.213-1.389.444-.422.14-.774.411-.992.763-.139.373-.218.639.258.781.415.248.892.401 1.389.444.556 0 .973-.053 1.231.231.397.355.357.568.357 1.207.139.195.159.781.258 1.011.342.161.726.234 1.111.213.139-.355.278-.958.377-1.331.099-.39.119-.958.377-1.224a3.13 3.13 0 0 1 .853-.781c.201-.203.462-.351.754-.426-.496.213-.556.461-.615.994.417.177.536.319 1.231.337.695-.053.853-.213 1.111-.568.06.568.258.745.397 1.242.238.319.337.657.595 1.1-.099.532-.337.55-.357 1.207-.159.444-.159.852-.496 1.118-.159.177-.278.195-.635.213.715 0 1.151-.071 1.628-.319.357-.213.635-.461.992-.674.448-.302.952-.53 1.489-.674.576 0 .992-.053 1.231.231.357.231.595.621.754 1.118.099.568.159.958-.139 1.331-.198.426-.258.586 0 1.1.298.355.715.408 1.389.55.457-.018.913-.106 1.231-.213" class="E"/></g><g class="D"><g transform="matrix(.19848 0 0 .17744 19.1 -14)"><g class="C B"><path d="M531.5 359.6c0-165.2 8-299.4 17.7-299.4 9.8 0 17.7 134.2 17.7 299.4h-35.4z" transform="matrix(1.4216 -.73423 .46161 .89375 -716.8 541)"/><path d="M531.5 359.6c0-165.2 8-299.4 17.7-299.4 9.8 0 17.7 134.2 17.7 299.4" transform="matrix(1.1373 -.58739 .44532 .86221 -554.8 471.8)"/><g transform="matrix(1.4216 -.73423 .45889 .88849 -716.7 541.4)"><path d="M563.4 301.2v60.2H535v-60.2h28.4z"/><path d="M559.8 304.7v53.2h-21.2v-53.2h21.2z"/><path d="M542.1 311.8h14.2v39h-14.2zm0 0 14.2 39m-14.2 0 14.2-39m-14.2-198.4h14.2"/></g></g><circle cx="545.7" cy="92.1" r="3.5" fill="#ef0000" transform="matrix(1.6046 .45375 -.36215 1.5787 -734.9 -170.8)" class="B"/><g class="C"><g class="B"><path d="M305.6 396.9c0 124 .5 170.7-5.6 177.1-5.8 6.9-167.1 0-167.1 35.4s132.8 71 172.7 71c53.2 0 79.7-35.5 79.7-106.4V397h-79.7z" transform="matrix(1.3333 0 0 1 -141.7 0)"/><use xlink:href="#E" transform="matrix(1 0 0 .99999 0 35.4)"/><use xlink:href="#E" transform="scale(1 .99999)"/><use xlink:href="#E" transform="matrix(1 0 0 .99999 0 17.7)"/><use xlink:href="#E" transform="matrix(1 0 0 .99999 0 53.1)"/></g><g stroke-width="4.4"><ellipse cx="256.9" cy="210.8" rx="8.9" ry="26.6" transform="matrix(.54545 0 0 .14383 130.5 394.3)"/><ellipse cx="292.3" cy="246.3" rx="8.9" ry="26.6" transform="matrix(.54545 0 0 .14383 130.5 391.1)"/><g transform="matrix(.54545 0 0 .14383 130.5 390.5)"><ellipse cx="327.8" cy="264" rx="8.9" ry="26.6"/><ellipse cx="363.2" cy="264" rx="8.9" ry="26.6"/></g><ellipse cx="398.6" cy="246.3" rx="8.9" ry="26.6" transform="matrix(.54545 0 0 .14383 130.5 391.1)"/><ellipse cx="434.1" cy="210.8" rx="8.9" ry="26.6" transform="matrix(.54545 0 0 .14383 130.5 394.3)"/></g><g class="B"><path d="M265.8 485.4 372 581.1m-95.6-95.7 95.7 85M290.5 489l81.6 70.9m-71-71 71 60.3M311.8 489l60.2 49.6M322.4 489l49.6 39m-39-39 39 28.3M343.8 489l28.4 21.2M354.3 489l17.8 14.2M365 489l7 7m-106.2 0L372 591.8m0-106.3L255 591.7m106.3-106.3-102.7 92.2m88.6-88.6-81.5 70.8m70.8-70.8-70.8 60.2M326 489l-60.2 49.6m49.6-49.6-49.6 39m39-39-39 28.3M294 489l-28.3 21.2m17.7-21.2-17.7 14.2m7-14.2-7 7m106.3 0L255 602.5m117-95.7L255 613m117-95.7L255 623.6m117-95.7L255 634.4m117-95.7L255 644.9m117-95.7L255 655.5m117-95.7L255 666.1m117-95.6L255 676.8m117-95.7-109.9 99.2M372 591.7l-99.2 88.6m95.6-74.4-78 70.9M365 620l-63.8 56.7m56.7-39-32 28.3m-60.1-159.4 102.7 92.1m-102.7-81.5 102.7 92.2M265.8 528l99.2 88.5m-99.2-78 99.2 88.7m-99.2-78 95.6 85m-99.2-77.9 95.7 85M262.2 567l88.6 78m-92.1-71 88.6 78M255 581l85 74.4m-85-63.8 81.5 70.9M255 602.3l71 63.7"/><use xlink:href="#E" transform="matrix(1 0 0 .99999 0 70.9)"/><path d="m255.1 613 63.8 56.7m-63.8-46 56.7 49.5m-56.7-39 49.6 42.6m-49.6-32 35.5 32M255 655.5l28.4 24.8M255 666.1l17.7 14.2"/></g><g stroke-width="4.4"><ellipse cx="256.9" cy="210.8" rx="8.9" ry="26.6" transform="matrix(.54545 0 0 .14383 130.5 447.5)"/><ellipse cx="292.3" cy="246.3" rx="8.9" ry="26.6" transform="matrix(.54545 0 0 .14383 130.5 444.3)"/><g transform="matrix(.54545 0 0 .14383 130.5 443.6)"><ellipse cx="327.8" cy="264" rx="8.9" ry="26.6"/><ellipse cx="363.2" cy="264" rx="8.9" ry="26.6"/></g><ellipse cx="398.6" cy="246.3" rx="8.9" ry="26.6" transform="matrix(.54545 0 0 .14383 130.5 444.3)"/><ellipse cx="434.1" cy="210.8" rx="8.9" ry="26.6" transform="matrix(.54545 0 0 .14383 130.5 447.5)"/></g><g class="B"><path d="m113.4 652 127.5-74.4m-134.6 70.8 120.5-70.8m-124 63.7 109.8-63.7M99.2 634.3l95.7-56.7M92 627.2l88.6-49.6m-85 39 60.2-35.5M92 609.4l46-28.3m-46 17.7 32-17.7m0 74.4 120.4-70.9M134.7 659 248 591.7m-102.7 70.9 106.3-63.8m-95.7 67.3 88.6-53.1M170 666.1l78-46m-67.4 49.6 67.3-39m-56.7 42.5 53.2-31.9m-39 32 42.5-24.9m-28.3 28.4L248 659m-14 17.8 17.7-10.6"/><use xlink:href="#E" transform="matrix(0 1 -.99999 0 655.5 308.3)"/><path d="m49.6 623.6 42.5-35.4m-42.5 10.6 42.5 42.5"/><path d="m260.1 388 5.6 26.6c35.5 5.9 65.3 5.9 100.8 0l11.1-26.6c-35.4 5.9-82 5.9-117.5 0z" transform="matrix(0 .63333 -.8 0 423.8 416.3)"/><path d="M258.7 350.8v-17.9c-10.7.2-17.8-10.5-17.8-21.2l-35.4.1c0 10.6-7 21.3-17.7 21.3v17.7h70.9z" transform="matrix(1.4983 0 0 1 -15.6 53.1)"/></g><path d="M296 343.7h45.6V365H296zm3.9-21.3h37.9v21.3h-38zm0-21.2h37.9v21.2h-38zm3.8-28.4H334v28.4h-30.3zm-1.3-24.8h33v24.8h-33z" class="F"/><g class="B"><g transform="matrix(1.0333 0 0 1 75.3 63.8)"><ellipse cx="237.4" cy="161.2" rx="42.5" ry="33.7"/><path d="M258.7 159.4c0 9.3 10.6 24.8 10.6 24.8-7.7 6.2-20.2 10.7-31.9 10.7s-26.3-2.6-31.9-10.7c0 0 10.6-15.4 10.6-24.7s-10.6-21.3-10.6-21.3a54.6 54.6 0 0 1 32-10.6c11.6 0 24 4.5 31.8 10.6 0 0-10.6 12-10.6 21.3z"/><path d="M251.6 159.4c0 9.3 10.6 28.4 10.6 28.4-7.7 6-13 7-24.8 7s-19.2 1.1-24.8-7c0 0 10.6-19 10.6-28.4s-10.6-24.8-10.6-24.8c7.7-6 13-7 24.8-7 11.7 0 17.1 1 24.8 7 0 0-10.6 15.5-10.6 24.8z"/></g><circle cx="194.9" cy="166.5" r="10.6" transform="matrix(1.0333 0 0 1 75.3 60.2)"/><circle cx="194.9" cy="166.5" r="10.6" transform="matrix(1.0333 0 0 1 163.2 60.2)"/><circle cx="194.9" cy="166.5" r="10.6" transform="matrix(1.0333 0 0 1 119.3 60.2)"/><circle cx="194.9" cy="166.5" r="10.6" transform="matrix(1.0333 0 0 1 119.3 24.8)"/><circle cx="194.9" cy="166.5" r="10.6" transform="matrix(1.0702 0 0 1 80 226.8)"/><circle cx="194.9" cy="166.5" r="10.6" transform="matrix(1.0702 0 0 1 140.6 226.8)"/><path d="M212.6 311.8h49.6l-24.8 31.9-24.8-31.9z" transform="matrix(1.0702 0 0 1 64.8 53.1)"/><circle cx="194.9" cy="166.5" r="10.6" transform="matrix(1.427 0 0 1.3333 40.7 167.7)"/></g></g></g><g transform="matrix(.19848 0 0 .17744 18.8 -19.1)" class="C"><g stroke-width="1.2"><rect width="81.5" height="21.3" x="262.2" y="524.4" rx="4.3" ry="3.7"/><path d="M368.5 506.7c-9.8 0-17.7 8.3-17.7 18.5v16.1a18 18 0 0 0 17.7 18.5 18 18 0 0 0 17.7-18.5v-16a18 18 0 0 0-17.7-18.6zm0 7c-5.9 0-10.6 6.7-10.6 14.9v9.3c0 8.2 4.7 14.8 10.6 14.8s10.6-6.6 10.6-14.8v-9.3c0-8.2-4.7-14.8-10.6-14.8zm-92.1-3.5c-6 0-10.6 6.6-10.6 14.9v16.4c0 8.2 4.7 14.8 10.6 14.8s10.6-6.6 10.6-14.8V525c0-8.3-4.7-14.9-10.6-14.9zm0-7a18 18 0 0 0-17.7 18.5v23.2a18 18 0 0 0 17.7 18.5c9.8 0 17.7-8.3 17.7-18.5v-23.2a18 18 0 0 0-17.7-18.6z"/><path d="M248 517.3c-5.9 0-10.6 6.6-10.6 14.8v3.9c0 8.2 4.7 14.8 10.6 14.8 6 0 10.7-6.6 10.7-14.8v-3.9c0-8.2-4.8-14.8-10.7-14.8zm0-7a18 18 0 0 0-17.7 18.5v10.6a18 18 0 0 0 17.7 18.5c9.8 0 17.8-8.3 17.8-18.5v-10.6a18 18 0 0 0-17.8-18.6z"/></g><g stroke-width=".9"><use xlink:href="#F" transform="matrix(1.8 0 0 1.1176 -655.5 242.2)"/><use xlink:href="#F" transform="matrix(1.8 0 0 1.1176 -425.2 245.7)"/></g><g stroke-width="1.2"><rect width="42.5" height="21.3" x="375.6" y="524.4" rx="2.3" ry="3.7"/><rect width="24.8" height="28.4" x="336.6" y="520.9" rx="1.3" ry="4.9"/><rect width="24.8" height="28.4" x="219.7" y="520.9" rx="1.3" ry="4.9"/><rect width="49.6" height="35.4" x="141.7" y="517.3" rx="2.6" ry="6.1"/><rect width="46.1" height="35.4" x="450" y="520.9" rx="2.5" ry="6.1"/></g></g></g></g></g></svg>