<svg xmlns="http://www.w3.org/2000/svg" viewBox="0 0 640 480" xmlns:v="https://vecta.io/nano"><g fill-rule="evenodd"><path d="m1.6 0-.5 480h640L1.6 0z"/><path fill="red" d="m640.6 480 .5-480H1.1l639.5 480z"/></g><path fill="#fc0" stroke="#fc0" d="M396.24 119.445l-8.436-.442c-2.664-6.193-9.99-8.405-14.651-5.751-8.586.002-17.17-.146-25.751-.442l15.761 6.857c4.218 10.839 17.537 13.05 17.537 13.05-1.332 19.465-19.757-2.433-35.296 8.627-11.099 6.636-11.099 14.378-17.093 27.207-1.998 3.539-9.768 12.829-9.768 12.829l13.097-1.106-4.218 5.53 15.539-2.212-3.33 3.097c2.22.442 17.759-3.76 17.759-3.76l-1.11 5.087 17.759-6.415s3.552 2.876 6.66 4.203l2.22-8.848 8.88 2.212 2.22-8.848c13.319 17.696 17.759 35.391 42.178 39.815l-2.22-8.848c6.491 2.832 12.93 5.782 19.313 8.848l1.998-3.76c10.655 7.521 19.313 7.299 25.307 8.184l-4.44-11.06 4.44 2.212-6.66-17.696 6.66 2.212-8.88-13.272 3.33-2.212-1.11-6.636c13.319 4.424 31.078 11.06 33.298 26.543 2.22 24.331-24.419 30.967-42.178 28.755 13.319 11.06 37.738 6.636 48.838-4.424 4.44-4.424 6.66-11.06 8.88-17.696 2.22 6.636 6.66 15.484 6.66 24.331-2.22 19.907-28.859 26.543-46.618 28.755 19.979 11.06 55.497-2.212 57.717-30.967 0-24.331-15.539-35.391-22.199-46.451l-2.22-11.944 6.66 3.097s-3.996-7.299-4.44-8.848c0 0-6.882-18.801-9.324-23.004l4.884.885-18.203-22.783 5.106-.442s-21.089-16.59-26.861-18.801l6.66-2.212c-13.319-6.636-28.859-2.212-42.178 6.636l2.22-6.636-3.996.442v-7.742l3.996-5.972-6.66-2.212 4.44-11.06-6.66 2.212 2.22-11.06s-4.884 2.212-7.992 1.991a114.17 114.17 0 0 0 3.552-7.521c-2.22-3.318 0-9.954 0-9.954C414 44.239 411.78 46.451 402.9 59.722c-13.319 24.331-8.88 35.391-6.66 59.722z" stroke-width="2.438"/><g fill-rule="evenodd"><path fill="red" stroke="red" d="M480.152 155.721c1.11 1.991 13.763 7.963 23.087 13.272-2.442-10.175-20.867-12.387-23.087-13.272z" stroke-width="3.102"/><path fill="#fff" d="m175 399-14.2-9-19 9.1 4.3-16.2-14.5-15.1 16.7-1 10-18.4 6.1 15.5 20.7 3.8-13 10.6zm36.2-79-6.6-3-6.3 3.6 1-7.2-5.4-4.9 7.1-1.3 3-6.6 3.5 6.4 7.2.8-5 5.2zm32-45.2-14.5-7-13.9 7.8 2.3-15.7-11.8-10.8 15.7-2.8 6.6-14.4 7.6 14 15.8 1.8-11 11.5zm-65.8-63-17-8.5-16.5 9.1 2.8-18.6-13.8-13 18.7-3 8-17 8.7 16.7 18.8 2.3-13.3 13.4zm-60.8 65.4-17-10-17 10.3 4.3-19.3-15.1-13 19.7-1.8 7.7-18.3 7.9 18.2 19.8 1.6-14.9 13z"/></g></svg>