<svg xmlns="http://www.w3.org/2000/svg" viewBox="0 0 640 480" xmlns:v="https://vecta.io/nano"><style><![CDATA[.B{fill:none}.C{stroke:#000}.D{fill:#fff}.E{fill:#ff0}.F{stroke-width:.344}.G{stroke-width:1.376}]]></style><defs><clipPath id="A"><path fill-opacity=".7" d="M0 0h682.7v512H0z"/></clipPath></defs><g clip-path="url(#A)" transform="scale(.9375)"><g fill-rule="evenodd"><path fill="#ed2939" d="M0 0h768v256H341.3L0 0z"/><path fill="#002395" d="M0 512h768V256H341.3L0 512z"/><path d="m0 0 341.3 256L0 512V0z" class="D"/></g><path d="m172.3 193.2.1-4s-2.1-3.4.4-7c0 0-5.3-2.8-4-7.2 0 0-4.8-1.2-4.5-6.4 0 0-5-.3-5.6-4.7 0 0-5.1.8-7.4-3.4 0 0-5 1-6.4-2.5 0 0-4.9 1.6-7.7-2.5 0 0-5.2 2.1-7.3-1.8-2.1 3.9-7.3 1.8-7.3 1.8-2.8 4.1-7.7 2.4-7.7 2.4-1.4 3.5-6.3 2.5-6.3 2.5-2.3 4.3-7.4 3.4-7.4 3.4-.5 4.4-5.6 4.8-5.6 4.8a6 6 0 0 1-4.4 6.4c1.3 4.3-4 7.1-4 7.1 2.6 3.7.5 7 .5 7l-.1 3.7 84.7.4" class="E"/><path d="M172.422 193.177v-4.011s-2.064-3.438.459-6.877c0 0-5.273-2.865-4.012-7.22 0 0-4.815-1.146-4.471-6.418 0 0-5.159-.344-5.732-4.699 0 0-5.044.802-7.222-3.438 0 0-5.044.917-6.42-2.521 0 0-4.93 1.719-7.796-2.407 0 0-5.159 2.063-7.222-1.834-2.178 3.897-7.337 1.834-7.337 1.834-2.751 4.011-7.681 2.292-7.681 2.292-1.376 3.553-6.305 2.636-6.305 2.636-2.293 4.241-7.452 3.438-7.452 3.438-.459 4.241-5.617 4.584-5.617 4.584.392 2.899-1.42 5.641-4.242 6.418 1.146 4.355-4.012 7.106-4.012 7.106 2.522 3.668.344 7.106.344 7.106v3.668l84.719.344z" class="B C F"/><path fill="red" d="M170.3 188.2c-13.3-1.3-28.6-4.5-40.4 2.2-8-4.7-19-4.4-28.4-3.5-5.1 1-11.1 1-16.5 1.8l-.8.1c-9.7.7-18.5-2.2-27-6 2.8 15.2 5.7 30.7 7.2 46.6C67.6 253 53.3 272.7 59 296c3.5 11.2 15.8 17.7 27 19a214.7 214.7 0 0 1 32.2 4.5 32 32 0 0 1 5.5 1.9 19.7 19.7 0 0 1 6.6 4.7c6-6.3 15-8.1 23.7-9 15.8-1.9 35.3-.9 45-15.2v-.8c5.3-8 4.6-20 2.3-29-.2-3.1-1-5.9-1.5-8.9-9.6-25.5-1.3-54.2 2.8-80a61 61 0 0 1-16.4 5.5c-4.5.6-9.5.4-14 .1l-2-.5"/><path fill="#80cfe1" d="M190.2 261.5c0 1.6.9 3 1.2 4.5 1.9 11.2 3.6 26-7.8 32.9-12.8 8-29.4 4.6-44.1 8.9-3 .8-7 3.5-9 5.4-1.4-.9-2.7-2.2-4.4-3-12.1-6.4-27.9-4.3-41.5-7.8-6.9-2.1-14-7.5-15.8-14.5-4.4-18.4 6.2-34.1 5-52.4-.8-14-3.2-27.3-6.4-40.4 10.7 5 23 5.8 35 3.4A51.6 51.6 0 0 1 130 201c4.6-2 10-2.9 15-3.4 9.3 1 19.4 2.6 29.1 2.6 6.5-.4 12.4-2.2 18-4.7-3.3 21.6-9.8 44.2-1.9 66"/><path d="M171 265.8v-20.4h2.4l-31-20-.1-10.5h3l-15.6-11-15.4 11h3v10.5l-30.9 20h2.5v20.3H171" class="D"/><path d="M171.046 265.84v-20.401h2.407l-30.953-20.057-.115-10.315h2.981l-15.591-11.232-15.476 11.117h2.981l.115 10.43-30.953 20.057h2.522v20.286h82.082z" class="B C G"/><path d="M180.6 292.5v6.3H80.5v-6.4h100" class="D"/><path d="M180.676 292.544v6.304H80.481v-6.418h100.195z" class="B C G"/><path d="M87.1 292.1v-21.5h4l-.2 21.7.2-21.6-5.8-.1v-4.7l89.4.2v4.5h-5.4v21.8l-.1-21.8h4l.2 21.6" class="D"/><g class="B C G"><path d="M87.13 292.085v-21.547h4.012l-.229 21.776.229-21.547-5.732-.229v-4.584l89.419.115v4.584h-5.503l.115 21.776-.229-21.776h4.127l.115 21.547m-67.065-5.387v-15.014H94.238v14.899l12.037.115m-8.598-11.919v8.71h5.503v-8.71h-5.617m67.638 11.919l-.115-14.899h-11.923v14.899H165.2"/><path d="M156.372 275.008v8.71h5.503v-8.71h-5.503m8.713-12.607v-14.899h-12.037v14.899h12.037z"/><path d="M156.258 250.597v8.71h5.503v-8.71h-5.503m-49.983 11.805v-15.014H94.238v14.899h12.037z"/><path d="M97.562 250.482v8.71h5.503v-8.71h-5.503m30.494 11.919v-15.014h-12.037v14.899h12.037m-8.827-11.804v8.71h5.503v-8.71h-5.503m25.565 11.919v-14.899l-12.037-.115v14.899l12.037.115"/><path d="M135.967 250.482v8.71h5.617v-8.71h-5.617"/></g><path d="m147.7 257.8.2 34.6H113l-.1-34.6h34.7" class="D"/><g class="B C G"><path d="M147.774 257.817l.115 34.612h-34.736l-.115-34.612h34.736zm-34.965 9.856h35.08m-30.724 24.756v-24.527m26.482 24.527v-24.412m16.852-24.985L141.01 228.82h-22.126l-19.489 14.212H160.5m-39.895-26.131v8.71h18.572v-8.71h-18.572m5.044 2.178v4.355h8.483v-4.355h-8.483m4.127-12.263l10.318 7.335h-20.521l10.318-7.335"/></g><path d="M171.4 202c2.9 0 3.6 12 3.6 18 2.6.8 8.1 4.3 10.6 7.4h-28.2c2.4-3.1 7.9-6.6 10.4-7.3 0-6 .6-18.2 3.6-18" class="D"/><path d="M171.39 202.002c2.981 0 3.668 12.034 3.668 18.108 2.522.688 8.139 4.241 10.547 7.335h-28.201c2.407-3.094 8.025-6.647 10.432-7.335 0-6.074.688-18.108 3.554-18.108m-56.747 56.732h2.522l-.688 1.375a3.18 3.18 0 0 0 0 3.438l.688 1.146h-2.522l.688-1.146s-1.146-2.063 0-3.438l-.688-1.375m5.159 0h2.522l-.688 1.375a3.18 3.18 0 0 0 0 3.438l.688 1.146h-2.522l.688-1.146s-1.146-2.063 0-3.438l-.688-1.375m5.732 0h2.407l-.688 1.375a3.18 3.18 0 0 0 0 3.438l.688 1.146h-2.407l.573-1.146s-1.146-2.063 0-3.438l-.688-1.375zm6.305 0h2.522l-.802 1.49s1.261 1.49 0 3.324l.688 1.146h-2.407l.688-1.146s-1.146-2.063 0-3.438l-.688-1.261zm5.617 0h2.522l-.802 1.49s1.261 1.49 0 3.324l.688 1.146h-2.293l.573-1.146s-1.146-2.063 0-3.438l-.688-1.261m5.617 0h2.522l-.802 1.375s1.261 1.49 0 3.324l.688 1.146h-2.293l.573-1.146s-1.146-2.063 0-3.438l-.688-1.261" class="B C G"/><path d="M130.5 336.8c13 0 29-2.7 36.5-6.5l16.5-1.5.4 20.1c-14 7.7-46.2 9.4-53.3 9.3-7.1 0-39.7-1.6-53.8-9.3l.2-20.2 16.5 1.5a98 98 0 0 0 37 6.6" class="E"/><path d="M130.578 336.783c13.069 0 29.004-2.636 36.57-6.533l16.394-1.375.344 20.057c-13.871 7.679-46.2 9.398-53.193 9.283-7.108 0-39.78-1.605-53.881-9.398l.229-20.057 16.508 1.49c7.566 3.897 24.074 6.533 37.029 6.533" class="B C F"/><path d="m34.4 251 14.5 4.6-4.4 23.5-13.7 2.2s-2.3-12.4 3.6-30.3" class="E"/><path d="M34.51 251.055l14.445 4.584-4.356 23.495-13.757 2.178s-2.293-12.378 3.668-30.257z" class="B C F"/><path fill="#7e7e7e" d="m44.5 278.9-13.7 2.4 8.7-12.4 5 10"/><path d="M44.598 278.905l-13.757 2.292 8.713-12.263 5.044 9.971" class="B C F"/><path d="m25.7 268 14 1c.3 11.8 1.8 57 55.8 59.5L93.8 345c-65.7.6-70.7-55.5-68-77" class="E"/><path d="M25.798 268.017l13.986.917c.344 11.919 1.72 57.076 55.83 59.597l-1.72 16.504c-65.803.688-70.733-55.471-68.096-77.018zm51.359 80.342l16.508-3.553" class="B C F"/><path d="m225.4 251.2-14.4 4.6 4.6 23.4 13.8 2.2s2.2-12.3-4-30.2" class="E"/><path d="M225.5 251.17l-14.445 4.584 4.586 23.495 13.757 2.292s2.293-12.378-3.898-30.372z" class="B C F"/><path fill="#7e7e7e" d="m215.6 279 13.7 2.5-8.8-12.4-5 9.9"/><path d="M215.641 279.02l13.757 2.407-8.827-12.263-4.93 9.856" class="B C F"/><path d="m234.3 268.1-14 1c-.2 11.8-1.3 57-55.3 59.5l2 16.4c65.7.8 70.2-55.4 67.4-76.9" class="E"/><path d="M234.328 268.132l-13.986.917c-.229 11.919-1.146 57.19-55.256 59.597l1.834 16.389c65.803.802 70.274-55.357 67.408-76.789zm-50.671 80.227l-16.508-3.438" class="B C F"/><path fill="#009fc5" d="M121.8 346.7c-.4.2-1 .3-1.5.2l-2.6-.1.2-3.3 2.6.2c.5 0 1 .1 1.2.3.5.2.7.7.7 1.4 0 .6-.3 1-.7 1.3m-4.3 5 .2-3.9 3 .2c1 .1 1.8-.2 2.3-.7.5-.4.8-1 .8-1.8a2.5 2.5 0 0 0-.6-2 3.2 3.2 0 0 0-2-.9l-4.4-.3-.6 9.4h1.3m9.4-7.7h3.2l1.1.2c.5.3.7.7.7 1.4 0 .6-.1 1-.5 1.3a2.6 2.6 0 0 1-1.4.3h-3.1V344m0 8.2v-4l3 .1c.5 0 1 0 1.2.2.4.2.7.6.7 1.2v2.3l.2.3h1.6v-.2a.8.8 0 0 1-.4-.5 3.4 3.4 0 0 1-.1-.8v-1.3c0-.6-.2-1-.4-1.2a1.7 1.7 0 0 0-.8-.6c.4-.2.8-.5 1-.8.2-.4.4-.8.4-1.4 0-1-.5-1.8-1.4-2.2a4.7 4.7 0 0 0-1.8-.4h-4.5v9.4h1.3m10-2a4.5 4.5 0 0 1-1-2.6c0-1.3.2-2.3.8-3a3.1 3.1 0 0 1 2.4-1 3 3 0 0 1 2.4.8c.7.6 1 1.5 1.1 2.6a5 5 0 0 1-.6 2.8c-.5.8-1.3 1.3-2.5 1.3s-2-.2-2.7-.9m-1.5-5.9a6 6 0 0 0-.8 3.3c.1 1.4.5 2.6 1.4 3.4a4.6 4.6 0 0 0 3.6 1.3 4.4 4.4 0 0 0 3.5-1.8 6 6 0 0 0 1-3.6 5 5 0 0 0-1.2-3.1c-.9-1-2.2-1.5-3.9-1.4-1.6 0-2.8.7-3.6 1.9m44-13.5c1-.1 1.8-.1 2.5.1 1 .4 1.7 1.1 2.2 2.3l-1.3.2a2.4 2.4 0 0 0-1.2-1.3 3.5 3.5 0 0 0-2-.2 3 3 0 0 0-2 1.3c-.5.7-.7 1.7-.5 3a4.5 4.5 0 0 0 1.2 2.6c.6.6 1.5.8 2.6.7a3.2 3.2 0 0 0 2-1.1c.6-.6.7-1.4.5-2.5l-3 .5-.1-1 4.2-.7.8 5h-.9l-.5-1-1 1c-.5.5-1.2.7-2 .9a4.3 4.3 0 0 1-3.2-.7 5 5 0 0 1-1.9-3.4 5.1 5.1 0 0 1 .7-4 4.1 4.1 0 0 1 3-1.7m9.4-.7 3-1.1c.4-.2.8-.2 1.1-.2.6 0 1 .4 1.2 1 .2.6.2 1.1 0 1.5-.3.3-.7.6-1.3.8l-2.8 1-1.2-3m3 7.7-1.4-3.7 2.8-1a3 3 0 0 1 1.1-.3c.5.1.9.4 1.2 1l.6 1.4.3.7.2.3 1.5-.6v-.2c-.3 0-.5-.1-.6-.4-.2-.1-.3-.4-.4-.7l-.5-1.2c-.2-.5-.5-.8-.7-1a2.4 2.4 0 0 0-1-.2l.6-1.2c0-.4 0-.9-.2-1.4-.4-1-1-1.6-2-1.6a4.5 4.5 0 0 0-1.9.3l-4.2 1.5 3.4 8.8 1.2-.4m11-4.7-5.3-7.8 5.8-3.8.7 1-4.8 3 1.6 2.4 4.5-2.8.6.9-4.5 2.8 1.8 2.7 5-3.2.6 1-6 3.8m4.7-13.8 1.5-1.7c.8-.8 1.5-1.1 2.3-1 .9 0 1.7.5 2.6 1.3a4.7 4.7 0 0 1 1.4 2c.2.6.1 1.1 0 1.6a4 4 0 0 1-.7 1l-1.5 1.6-5.6-4.8m8.1 3.6c1.1-1.2 1.3-2.4.7-4a6.7 6.7 0 0 0-1.7-2.1 5.2 5.2 0 0 0-3.1-1.4c-1.2-.1-2.2.3-3.1 1.3l-2.6 2.8 7.2 6.3 2.6-2.8m5.6-7.3-8.3-5 .7-1 8.3 4.9-.7 1m3.3-5.6-9-3.6 2.6-6.3 1.1.4-2.1 5.2 2.7 1 2-4.7 1 .4-2 4.8 3 1.2 2.3-5.2 1 .4-2.6 6.4m4-11-9.4-2 .4-1.5 8.7-3-7.7-1.7.3-1.1 9.4 2-.3 1.4-8.7 3 7.7 1.7-.3 1.2m-.8-12 .1-1.2c.6 0 1 0 1.4-.2.7-.4 1-1.1 1.2-2.1a3.7 3.7 0 0 0-.1-1.4c-.2-.7-.6-1.2-1.3-1.2-.6-.1-1 0-1.2.3-.3.3-.5.8-.7 1.5l-.5 1.2c-.2.8-.5 1.4-.8 1.7-.4.6-1 .8-1.8.7a2.8 2.8 0 0 1-2-1c-.6-.6-.8-1.5-.7-2.6.1-1 .4-1.8 1-2.4.5-.6 1.3-1 2.4-.8l-.1 1.2c-.5 0-1 0-1.2.3-.6.3-.9 1-1 1.9 0 .7 0 1.2.4 1.6.3.4.6.6 1 .6.5 0 .9 0 1.1-.4l.7-1.7.4-1.3c.2-.6.5-1 .8-1.4.5-.5 1.2-.7 2-.7 1.1.1 1.9.6 2.2 1.4.4.8.6 1.6.5 2.7a3.9 3.9 0 0 1-1.2 2.6c-.7.6-1.5.8-2.6.7m-195.6-.6.3 1.2c-.6.1-1 .3-1.3.6-.5.5-.7 1.3-.5 2.4a4 4 0 0 0 .4 1.2c.4.7 1 1 1.7.9.5-.1.8-.3 1-.7l.3-1.6v-1.3c0-.8.2-1.5.3-1.8.3-.6.9-1 1.7-1.2.8-.1 1.6 0 2.2.6.7.4 1.1 1.2 1.3 2.2a4 4 0 0 1-.3 2.6c-.4.8-1 1.2-2.1 1.4l-.2-1.1a3 3 0 0 0 1-.6c.5-.5.6-1.2.5-2.1-.2-.8-.4-1.3-.8-1.5a1.5 1.5 0 0 0-1.2-.3 1 1 0 0 0-1 .7l-.1 1.8-.1 1.3a3.5 3.5 0 0 1-.4 1.6 2.2 2.2 0 0 1-1.7 1.2c-1 .2-2-.1-2.5-.8a5 5 0 0 1-1.2-2.4 3.8 3.8 0 0 1 .5-2.9 3 3 0 0 1 2.2-1.3m-.6 12.3 9.3-2.8 2.1 6.5-1.1.4-1.8-5.3-2.8.8 1.7 5-1.1.3-1.6-5-3.2 1 1.8 5.4-1 .3-2.3-6.6m4.1 11.3 8.5-4.5 1 1.6-5.9 6.1 8.5-1.4.9 1.5-8.5 4.5-.6-1 5-2.7.9-.4 1.3-.7-8.5 1.5-.6-1.1 5.8-6.2-.3.2-1 .5a7 7 0 0 1-.9.5l-5 2.6-.6-1m15.8 12.5c-.4-.1-.8-.4-1.2-.8l-1.8-1.8 2.4-2.2 1.8 1.8a3 3 0 0 1 .7 1c.2.5 0 1-.5 1.5-.5.4-1 .6-1.4.5m-6.8.8 3-2.7 2 2.1c.8.7 1.5 1 2.2 1a3 3 0 0 0 2-.8 3 3 0 0 0 .8-2c0-.6-.3-1.3-.9-1.9l-3-3-7 6.4 1 1m8.4 7.5 5.1-8 6 3.6-.6 1-5-3-1.5 2.5 4.5 2.7-.5 1-4.6-2.8-1.7 2.7 5 3-.6 1-6.1-3.7m15-1.6 3.1 1 1 .5c.4.4.5.9.2 1.5-.2.6-.4 1-.9 1.1l-1.5-.1-2.9-1 1-3m-2.6 7.9 1.3-3.8 2.8.9c.5.1 1 .3 1.1.5.3.3.4.8.3 1.4l-.5 1.5-.1.7v.3l1.5.5v-.2l-.2-.7.2-.7.4-1.2c.1-.6.2-1 0-1.2 0-.3-.3-.6-.6-.9.5 0 1-.2 1.3-.5.3-.3.6-.7.7-1.2.4-1 .2-1.9-.6-2.5a5.2 5.2 0 0 0-1.6-.9l-4.3-1.3-3 8.9 1.3.4"/><path fill="#bc715f" d="M78.5 175.6c1-2.7 11.3-10 44.8-6.8 0 0 5.7 3.5 9 3 2-.2-1 .2-3.6-1.9-2.5-2-3-6.3 2.7-6.1 5.8.1 27.3 1.3 27.7 3.3.4 1.9-11.4 2.7-15.7 2.6-4.4-.1-4 2.1.4 2 13.7-.6 28.6-5.4 44.3 5.8 1.9 1.3-4.7 1.5-9.8-.6 0 0-14 .7-20-.3 0 0-4.5 3.8-10.6 3.4.8 2-2.2 9.2-21 3.7-3.2 1-14.5 2.9-13.3-.5-3 0-8.2 1-9-.7s9.2-4.2 11-6c0 0-21.2.2-25.2-1.3 0 0-12.5 2.8-11.7.4"/><path fill="#008737" d="M85.3 205.2c.4-.6.6-1.8 1.6-1.7 2 .5 3.5 4.4 6 1.9 1-.2 1.3 1 2 1.2.5 2.1 2.3-.5 3.5-.3 2.8-1.2 6.1-1.5 9.4-1 0 2.2-1.6 4.5-3.6 5.7 0 2 2 3.4 1.9 5.5-.3.8 0 2-1.2 2.3-1.6-.3-3-.4-4.3-1.3-.2-.1-.3-.4-.6-.3-.2.7 1 1.4 1.4 2.1-.8 1.3-2 .1-3.1.1-.3.8 0 1.7-.8 2.2-1.3 0-1.6-1.5-2.4-2.2-.9.9.6 1.4.8 2.1-.6 2.8-.5 5.5-3.2 7.3l-1.9.9c-.5-1.4-.2-3.5-.5-5-1 1.8-2 3.4-3.5 4.9-2-.6-3-2.8-3.4-4.7a5.8 5.8 0 0 1 1.3-6.2c-.5-1-2.5-.8-2.8-2.4-3-2-4.5 3.3-6.4.6a8.6 8.6 0 0 1 2-7.6c-.5-1-1.9-.8-2.7-1.4-1.8-1.6-4.5-3.2-4.3-6a14 14 0 0 1 14.7 3.3"/><path d="M87.9 204.9c-.1 2.3 1.5.6 2.8 2-1-.4-1.7 1.7-2.7.5l-.6.6c.4.8 1 .9.4 1.8-1 .4-1.3-1-1.8-1.5 0-.2.2-.6-.2-.8-.6.5-1.2.7-2 .6-.2-.4-.7-1-.2-1.4.8-1 2 .4 2.6-.3.1-.7-.5-1.5.3-2 .5.1 1.2-.2 1.4.5m6.2 1.9c.1.4-.2 1 .4 1.4.8-.4 1.6-.1 2 .6 0 .4.1 1-.4 1.2l-1.2-.3c.1-.2-.3-.3-.4-.6-.5-.1-.9.3-1.2.6.3.4 1 .7.8 1.2-.7.7-1-.6-1.8-.2-.6-.2.1-1.3-.7-1.7-1 0-.3 1.6-1.6 1-.4-.5-.8-1.2-.4-1.7a1.6 1.6 0 0 1 1.9.2c.8-.9.8-4.1 2.7-1.7m-7.8 3.3c.5.8-.2 1.8.5 2.6 1-2 2 .4 3.2.2.4.5.1 1.1.2 1.6-1.5.4-3.3.9-4.6-.3l-.4.4c.8.7 1.5 1.6.9 2.8-1.1.2-2.9.3-3.4-.9-.3-1 .7-1.6-.4-2.4-.7 1-.7 2.2-2.2 1.3a1.9 1.9 0 0 1-.8-2.5c1-1.6 2.8 0 3.8-.7.2-1.4-.3-2.6 1-3.3 1-.2 1.5.6 2.2 1.2" class="E"/><path d="M90.6 211c-.5 2.3-2.2-.1-3-.2 1-2 1.7.6 3 .2m5.4 2.5c-1.2.3-1-1.2-1.6-1.8l.5-.4c.4.5.7 1.5 1.1 2.2" class="D"/><path d="M94.4 213c.3.8-.8 1.5.2 2l.8-.7c.9.2 1.8.4 2.4 1.2.6 1.7-1.1 1.7-2 2.2h-1c.2-.6-.5-.8-.6-1a1 1 0 0 0-1.1.3c.2 1 1.5 2 .2 2.9-1.2 0-3 .4-2.9-1.2-.4-1 1.2-2.3-.5-2.4-.6 1.3-1.2 2.4-2.7 1.3l.2-1.8c1.4 0 3.1.3 3.7-1.3.4-1.1-.7-2.2.3-3 1.5-.4 2.3.6 3 1.5" class="E"/><path d="M93.4 215.6c.3.9-.6 1-1.1 1.4-.6 0-1-.2-1.4-.6-.3-1 .5-1.2 1-1.6.7-.3 1 .5 1.5.8"/><path d="M92.5 216.2c-.1.2-.4.1-.6.2l-.2-1c.5 0 1 .1.8.8" class="D"/></g></svg>