<svg width="100%" height="100%" viewBox="0 0 53 53" fill="none" xmlns="http://www.w3.org/2000/svg">
<path fill-rule="evenodd" clip-rule="evenodd" d="M26.5 50.125C39.5477 50.125 50.125 39.5477 50.125 26.5C50.125 13.4523 39.5477 2.875 26.5 2.875C13.4523 2.875 2.875 13.4523 2.875 26.5C2.875 39.5477 13.4523 50.125 26.5 50.125Z" stroke="#FFDC4B" stroke-width="4" stroke-linecap="round" stroke-linejoin="round"/>
<path d="M18.375 19.75C18.375 18.6454 17.4796 17.75 16.375 17.75C15.2704 17.75 14.375 18.6454 14.375 19.75H18.375ZM14.375 23.125C14.375 24.2296 15.2704 25.125 16.375 25.125C17.4796 25.125 18.375 24.2296 18.375 23.125H14.375ZM38.625 19.75C38.625 18.6454 37.7296 17.75 36.625 17.75C35.5204 17.75 34.625 18.6454 34.625 19.75H38.625ZM34.625 23.125C34.625 24.2296 35.5204 25.125 36.625 25.125C37.7296 25.125 38.625 24.2296 38.625 23.125H34.625ZM36.6799 35.2492C37.784 35.2189 38.6546 34.2993 38.6242 33.1951C38.5939 32.091 37.6743 31.2204 36.5701 31.2508L36.6799 35.2492ZM28.1875 34.9375L28.7217 36.8649C28.784 36.8476 28.8454 36.8273 28.9058 36.8041L28.1875 34.9375ZM18.3008 38.6217C17.5395 39.4221 17.5713 40.688 18.3717 41.4492C19.1721 42.2105 20.438 42.1787 21.1992 41.3783L18.3008 38.6217ZM14.375 19.75V23.125H18.375V19.75H14.375ZM34.625 19.75V23.125H38.625V19.75H34.625ZM36.5701 31.2508C33.4551 31.3363 30.3775 31.9518 27.4692 33.0709L28.9058 36.8041C31.3901 35.8481 34.019 35.3223 36.6799 35.2492L36.5701 31.2508ZM27.6533 33.0101C24.0851 33.9991 20.8525 35.9386 18.3008 38.6217L21.1992 41.3783C23.2516 39.2203 25.8517 37.6603 28.7217 36.8649L27.6533 33.0101Z" fill="#FFDC4B"/>
</svg>
