<svg viewBox="0 0 48 48" fill="none" xmlns="http://www.w3.org/2000/svg">
<path d="M24 47C36.7025 47 47 36.7025 47 24C47 11.2975 36.7025 1 24 1C11.2975 1 1 11.2975 1 24C1 36.7025 11.2975 47 24 47Z" fill="#FFCE52"/>
<path d="M10 17V15C13.722 15 16 13.705 16 13H18C18 15.626 13.976 17 10 17Z" fill="#273941"/>
<path d="M38 17C34.024 17 30 15.626 30 13H32C32 13.705 34.278 15 38 15V17Z" fill="#273941"/>
<path d="M24 35C22.6131 35.0615 21.2527 35.4016 20 36C20 34.9391 20.4214 33.9217 21.1716 33.1716C21.9217 32.4214 22.9391 32 24 32C25.0609 32 26.0783 32.4214 26.8284 33.1716C27.5786 33.9217 28 34.9391 28 36C26.7473 35.4016 25.3869 35.0615 24 35Z" fill="#273941"/>
<path d="M34 27C36.7614 27 39 24.7614 39 22C39 19.2386 36.7614 17 34 17C31.2386 17 29 19.2386 29 22C29 24.7614 31.2386 27 34 27Z" fill="#273941"/>
<path d="M14 27C16.7614 27 19 24.7614 19 22C19 19.2386 16.7614 17 14 17C11.2386 17 9 19.2386 9 22C9 24.7614 11.2386 27 14 27Z" fill="#273941"/>
<path d="M34 26C36.2091 26 38 24.2091 38 22C38 19.7909 36.2091 18 34 18C31.7909 18 30 19.7909 30 22C30 24.2091 31.7909 26 34 26Z" fill="#141E21"/>
<path d="M14 26C16.2091 26 18 24.2091 18 22C18 19.7909 16.2091 18 14 18C11.7909 18 10 19.7909 10 22C10 24.2091 11.7909 26 14 26Z" fill="#141E21"/>
<path d="M35.5 22C36.3284 22 37 21.3284 37 20.5C37 19.6716 36.3284 19 35.5 19C34.6716 19 34 19.6716 34 20.5C34 21.3284 34.6716 22 35.5 22Z" fill="#F6FAFD"/>
<path d="M32.5 25C33.3284 25 34 24.3284 34 23.5C34 22.6716 33.3284 22 32.5 22C31.6716 22 31 22.6716 31 23.5C31 24.3284 31.6716 25 32.5 25Z" fill="#F6FAFD"/>
<path d="M35.5 24C35.7761 24 36 23.7761 36 23.5C36 23.2239 35.7761 23 35.5 23C35.2239 23 35 23.2239 35 23.5C35 23.7761 35.2239 24 35.5 24Z" fill="#F6FAFD"/>
<path d="M12.5 22C13.3284 22 14 21.3284 14 20.5C14 19.6716 13.3284 19 12.5 19C11.6716 19 11 19.6716 11 20.5C11 21.3284 11.6716 22 12.5 22Z" fill="#F6FAFD"/>
<path d="M15.5 25C16.3284 25 17 24.3284 17 23.5C17 22.6716 16.3284 22 15.5 22C14.6716 22 14 22.6716 14 23.5C14 24.3284 14.6716 25 15.5 25Z" fill="#F6FAFD"/>
<path d="M12.5 24C12.7761 24 13 23.7761 13 23.5C13 23.2239 12.7761 23 12.5 23C12.2239 23 12 23.2239 12 23.5C12 23.7761 12.2239 24 12.5 24Z" fill="#F6FAFD"/>
<path d="M24 4.00005C36.15 4.00005 46 12.5071 46 23.0001H46.975C46.6993 17.0921 44.1584 11.5174 39.8799 7.43396C35.6015 3.3505 29.9144 1.07214 24 1.07214C18.0857 1.07214 12.3986 3.3505 8.12013 7.43396C3.84168 11.5174 1.30071 17.0921 1.02502 23.0001H2.00002C2.00002 12.5071 11.85 4.00005 24 4.00005Z" fill="#FFE369"/>
<path d="M46 23C46 33.493 36.15 42 24 42C11.85 42 2 33.493 2 23H1.025C1.011 23.332 1 23.665 1 24C1 30.1 3.42321 35.9501 7.73654 40.2635C12.0499 44.5768 17.9 47 24 47C30.1 47 35.9501 44.5768 40.2635 40.2635C44.5768 35.9501 47 30.1 47 24C47 23.665 46.989 23.332 46.975 23H46Z" fill="#FFB32B"/>
<path d="M37.812 9.81111C38.134 9.48882 38.0316 8.86423 37.5831 8.41607C37.1346 7.9679 36.51 7.86587 36.1879 8.18816C35.8658 8.51046 35.9683 9.13504 36.4168 9.5832C36.8653 10.0314 37.4899 10.1334 37.812 9.81111Z" fill="#F6FAFD"/>
<path d="M31.1512 4.90532C31.3124 4.74398 31.2614 4.43153 31.0371 4.20745C30.8129 3.98337 30.5004 3.93251 30.3392 4.09385C30.1779 4.25519 30.229 4.56764 30.4533 4.79172C30.6775 5.01581 30.99 5.06667 31.1512 4.90532Z" fill="#F6FAFD"/>
<path d="M35.6245 8.62364C36.2687 7.97905 36.0634 6.72957 35.166 5.83285C34.2687 4.93612 33.0191 4.73173 32.3749 5.37632C31.7308 6.02091 31.9361 7.27039 32.8334 8.16711C33.7308 9.06384 34.9804 9.26823 35.6245 8.62364Z" fill="#F6FAFD"/>
</svg>
