<svg width="100%" height="100%" viewBox="0 0 53 53" fill="none" xmlns="http://www.w3.org/2000/svg">
<path d="M18.375 19.75C18.375 18.6454 17.4796 17.75 16.375 17.75C15.2704 17.75 14.375 18.6454 14.375 19.75H18.375ZM14.375 23.125C14.375 24.2296 15.2704 25.125 16.375 25.125C17.4796 25.125 18.375 24.2296 18.375 23.125H14.375ZM38.625 19.75C38.625 18.6454 37.7296 17.75 36.625 17.75C35.5204 17.75 34.625 18.6454 34.625 19.75H38.625ZM34.625 23.125C34.625 24.2296 35.5204 25.125 36.625 25.125C37.7296 25.125 38.625 24.2296 38.625 23.125H34.625ZM16.375 34.625C15.2704 34.625 14.375 35.5204 14.375 36.625C14.375 37.7296 15.2704 38.625 16.375 38.625V34.625ZM36.625 38.625C37.7296 38.625 38.625 37.7296 38.625 36.625C38.625 35.5204 37.7296 34.625 36.625 34.625V38.625ZM43.2054 9.7946L41.7912 11.2088L41.7912 11.2088L43.2054 9.7946ZM14.375 19.75V23.125H18.375V19.75H14.375ZM34.625 19.75V23.125H38.625V19.75H34.625ZM16.375 38.625H36.625V34.625H16.375V38.625ZM48.125 26.5C48.125 38.4432 38.4432 48.125 26.5 48.125V52.125C40.6523 52.125 52.125 40.6523 52.125 26.5H48.125ZM26.5 48.125C14.5568 48.125 4.875 38.4432 4.875 26.5H0.875C0.875 40.6523 12.3477 52.125 26.5 52.125V48.125ZM4.875 26.5C4.875 14.5568 14.5568 4.875 26.5 4.875V0.875C12.3477 0.875 0.875 12.3477 0.875 26.5H4.875ZM26.5 4.875C32.2353 4.875 37.7357 7.15334 41.7912 11.2088L44.6196 8.38039C39.814 3.57477 33.2962 0.875 26.5 0.875V4.875ZM41.7912 11.2088C45.8467 15.2643 48.125 20.7647 48.125 26.5H52.125C52.125 19.7038 49.4252 13.186 44.6196 8.38039L41.7912 11.2088Z" fill="#FFDC4B"/>
</svg>
