<svg width="100%" height="100%" viewBox="0 0 53 53" fill="none" xmlns="http://www.w3.org/2000/svg">
<path d="M16.375 33.2506C16.9869 34.8447 17.9896 36.2594 19.291 37.3648C23.4297 40.8386 29.4526 40.8825 33.6415 37.4694C34.9608 36.3836 35.9867 34.9841 36.625 33.3991" stroke="#FFDC4B" stroke-width="4" stroke-linecap="round" stroke-linejoin="round"/>
<path fill-rule="evenodd" clip-rule="evenodd" d="M50.125 26.5C50.125 39.5477 39.5477 50.125 26.5 50.125C13.4523 50.125 2.875 39.5477 2.875 26.5C2.875 13.4523 13.4523 2.875 26.5 2.875C32.7657 2.875 38.7749 5.36406 43.2054 9.7946C47.6359 14.2251 50.125 20.2343 50.125 26.5Z" stroke="#FFDC4B" stroke-width="4" stroke-linecap="round" stroke-linejoin="round"/>
<path d="M16.375 23.125V19.75" stroke="#FFDC4B" stroke-width="4" stroke-linecap="round"/>
<path d="M36.625 23.125V19.75" stroke="#FFDC4B" stroke-width="4" stroke-linecap="round"/>
</svg>
