<svg viewBox="0 0 48 48" fill="none" xmlns="http://www.w3.org/2000/svg">
<path d="M24 47C36.7025 47 47 36.7025 47 24C47 11.2975 36.7025 1 24 1C11.2975 1 1 11.2975 1 24C1 36.7025 11.2975 47 24 47Z" fill="#FFCE52"/>
<path d="M24 32C33.9411 32 42 25.2843 42 17C42 8.71573 33.9411 2 24 2C14.0589 2 6 8.71573 6 17C6 25.2843 14.0589 32 24 32Z" fill="url(#paint0_radial_23_28)"/>
<path d="M46 23C46 33.493 36.15 42 24 42C11.85 42 2 33.493 2 23H1.025C1.011 23.332 1 23.665 1 24C1 30.1 3.42321 35.9501 7.73654 40.2635C12.0499 44.5768 17.9 47 24 47C30.1 47 35.9501 44.5768 40.2635 40.2635C44.5768 35.9501 47 30.1 47 24C47 23.665 46.989 23.332 46.975 23H46Z" fill="#FFB32B"/>
<path d="M33 27C34.6569 27 36 25.2091 36 23C36 20.7909 34.6569 19 33 19C31.3431 19 30 20.7909 30 23C30 25.2091 31.3431 27 33 27Z" fill="#273941"/>
<path d="M33 26C34.1046 26 35 24.6569 35 23C35 21.3431 34.1046 20 33 20C31.8954 20 31 21.3431 31 23C31 24.6569 31.8954 26 33 26Z" fill="#141E21"/>
<path d="M34 23C34.5523 23 35 22.5523 35 22C35 21.4477 34.5523 21 34 21C33.4477 21 33 21.4477 33 22C33 22.5523 33.4477 23 34 23Z" fill="#F6FAFD"/>
<path d="M15 27C16.6569 27 18 25.2091 18 23C18 20.7909 16.6569 19 15 19C13.3431 19 12 20.7909 12 23C12 25.2091 13.3431 27 15 27Z" fill="#273941"/>
<path d="M15 26C16.1046 26 17 24.6569 17 23C17 21.3431 16.1046 20 15 20C13.8954 20 13 21.3431 13 23C13 24.6569 13.8954 26 15 26Z" fill="#141E21"/>
<path d="M16 23C16.5523 23 17 22.5523 17 22C17 21.4477 16.5523 21 16 21C15.4477 21 15 21.4477 15 22C15 22.5523 15.4477 23 16 23Z" fill="#F6FAFD"/>
<path d="M10 19V17C13.722 17 16 15.705 16 15H18C18 17.626 13.976 19 10 19Z" fill="#141E21"/>
<path d="M38 19C34.024 19 30 17.626 30 15H32C32 15.705 34.278 17 38 17V19Z" fill="#141E21"/>
<path d="M24 35H18.5C18.5687 33.6085 19.1861 32.3009 20.217 31.3637C21.2479 30.4265 22.6082 29.9362 24 30C25.3918 29.9362 26.7521 30.4265 27.783 31.3637C28.8139 32.3009 29.4313 33.6085 29.5 35H24Z" fill="#273941"/>
<path d="M24 31C25.218 30.9608 26.4134 31.3347 27.392 32.0609C28.3705 32.7871 29.0747 33.823 29.39 35H29.5C29.4313 33.6085 28.8139 32.3009 27.783 31.3637C26.7521 30.4265 25.3918 29.9362 24 30C22.6082 29.9362 21.2479 30.4265 20.217 31.3637C19.1861 32.3009 18.5687 33.6085 18.5 35H18.61C18.9253 33.823 19.6295 32.7871 20.608 32.0609C21.5866 31.3347 22.782 30.9608 24 31Z" fill="#141E21"/>
<path d="M44.8117 11.8114C45.1338 11.4891 45.0313 10.8645 44.5829 10.4163C44.1344 9.96815 43.5097 9.86611 43.1877 10.1884C42.8656 10.5107 42.9681 11.1353 43.4165 11.5834C43.865 12.0316 44.4897 12.1337 44.8117 11.8114Z" fill="#F6FAFD"/>
<path d="M45.1521 9.90569C45.3133 9.74435 45.2622 9.4319 45.038 9.20782C44.8137 8.98373 44.5013 8.93287 44.34 9.09422C44.1788 9.25556 44.2299 9.56801 44.4541 9.79209C44.6784 10.0162 44.9908 10.067 45.1521 9.90569Z" fill="#F6FAFD"/>
<path d="M36.8122 9.81148C37.1343 9.48918 37.0318 8.8646 36.5833 8.41644C36.1349 7.96827 35.5102 7.86623 35.1881 8.18853C34.8661 8.51082 34.9685 9.1354 35.417 9.58357C35.8655 10.0317 36.4902 10.1338 36.8122 9.81148Z" fill="#F6FAFD"/>
<path d="M30.1513 4.90569C30.3126 4.74435 30.2615 4.4319 30.0373 4.20782C29.813 3.98373 29.5005 3.93287 29.3393 4.09422C29.1781 4.25556 29.2291 4.56801 29.4534 4.79209C29.6776 5.01617 29.9901 5.06703 30.1513 4.90569Z" fill="#F6FAFD"/>
<path d="M34.6246 8.62303C35.2688 7.97844 35.0635 6.72896 34.1662 5.83224C33.2688 4.93552 32.0192 4.73112 31.3751 5.37571C30.7309 6.0203 30.9362 7.26978 31.8335 8.1665C32.7309 9.06322 33.9805 9.26762 34.6246 8.62303Z" fill="#F6FAFD"/>
<defs>
<radialGradient id="paint0_radial_23_28" cx="0" cy="0" r="1" gradientUnits="userSpaceOnUse" gradientTransform="translate(24 16.9995) scale(18 15)">
<stop stop-color="#5987DD"/>
<stop offset="0.118" stop-color="#638BD6"/>
<stop offset="0.316" stop-color="#7D98C3"/>
<stop offset="0.572" stop-color="#A8ABA3"/>
<stop offset="0.871" stop-color="#E3C678"/>
<stop offset="1" stop-color="#FFD364"/>
</radialGradient>
</defs>
</svg>
