<svg width="100%" height="100%" viewBox="0 0 53 53" fill="none" xmlns="http://www.w3.org/2000/svg">
<path d="M36.625 36.6244C36.0131 35.0303 35.0104 33.6156 33.709 32.5102C29.5703 29.0364 23.5474 28.9925 19.3585 32.4056C18.0392 33.4914 17.0133 34.8909 16.375 36.4759" stroke="#FFDC4B" stroke-width="4" stroke-linecap="round" stroke-linejoin="round"/>
<path d="M16.375 19.75V16.375" stroke="#FFDC4B" stroke-width="4" stroke-linecap="round"/>
<path fill-rule="evenodd" clip-rule="evenodd" d="M50.125 26.5C50.125 39.5477 39.5477 50.125 26.5 50.125C13.4523 50.125 2.875 39.5477 2.875 26.5C2.875 13.4523 13.4523 2.875 26.5 2.875C32.7657 2.875 38.7749 5.36406 43.2054 9.7946C47.6359 14.2251 50.125 20.2343 50.125 26.5Z" stroke="#FFDC4B" stroke-width="4" stroke-linecap="round" stroke-linejoin="round"/>
<path d="M36.625 19.75V16.375" stroke="#FFDC4B" stroke-width="4" stroke-linecap="round"/>
</svg>
