<svg width="299" height="290" viewBox="0 0 299 290" fill="none" xmlns="http://www.w3.org/2000/svg">
<path d="M239.877 122.314C257.586 110.73 289.088 83.3045 295.035 87.4308C302.816 92.8496 282.084 115.917 269.942 131.047" stroke="#3F2A25" stroke-width="2" stroke-linecap="round" stroke-linejoin="round"/>
<path d="M14.95 187.854V187.92C14.95 242.341 15.016 287.117 149.616 287.117C284.215 287.117 284.265 242.042 284.265 187.92" stroke="#3F2A25" stroke-width="2" stroke-linecap="round" stroke-linejoin="round"/>
<path d="M14.9498 187.937C9.5315 181.076 9.53149 173.055 9.53149 164.488" stroke="#3F2A25" stroke-width="2" stroke-linecap="round" stroke-linejoin="round"/>
<path d="M289.683 164.471C289.683 173.039 289.683 181.076 284.265 187.92" stroke="#3F2A25" stroke-width="2" stroke-linecap="round" stroke-linejoin="round"/>
<path d="M10.0437 153.136V153.087" stroke="#3F2A25" stroke-width="2" stroke-linecap="round" stroke-linejoin="round"/>
<path d="M269.959 131.03C283.769 136.897 287.915 144.47 289.154 152.987C289.7 156.683 289.7 160.511 289.7 164.471" stroke="#3F2A25" stroke-width="2" stroke-linecap="round" stroke-linejoin="round"/>
<path d="M40.1748 127.335C35.3182 128.661 31.2544 130.102 27.8184 131.66" stroke="#3F2A25" stroke-width="2" stroke-linecap="round" stroke-linejoin="round"/>
<path d="M13.0336 143.84C11.3982 146.773 10.5227 149.856 10.0436 153.087V153.137C9.5315 156.766 9.53149 160.577 9.53149 164.472" stroke="#3F2A25" stroke-width="2" stroke-linecap="round" stroke-linejoin="round"/>
<path d="M115.371 119.066C106.17 119.364 97.4143 119.762 89.7163 120.259" stroke="#3F2A25" stroke-width="2" stroke-linecap="round" stroke-linejoin="round"/>
<path d="M239.877 122.314C245.395 93.9102 245.775 67.6445 239.828 62.3914C237.151 60.0382 223.292 68.6719 206.772 82.2605C200.066 87.7622 192.88 94.1091 185.859 100.87" stroke="#3F2A25" stroke-width="2" stroke-linecap="round" stroke-linejoin="round"/>
<path d="M13.0336 143.84C5.48431 138.653 0.677182 133.715 3.10552 129.986C5.03829 127.037 15.3298 128.677 27.8019 131.66" stroke="#3F2A25" stroke-width="2" stroke-linecap="round" stroke-linejoin="round"/>
<path d="M124.589 103.157H124.572C120.145 107.532 116.858 112.852 115.371 119.049" stroke="#3F2A25" stroke-width="2" stroke-linecap="round" stroke-linejoin="round"/>
<path d="M164.351 89.9663C168.91 90.4635 173.255 91.64 177.054 93.5292C180.292 95.1532 183.216 97.6554 185.859 100.887" stroke="#3F2A25" stroke-width="2" stroke-linecap="round" stroke-linejoin="round"/>
<path d="M124.572 103.174C113.372 97.6058 102.139 83.4206 103.675 80.3052C106.269 75.0355 115.668 86.0886 119.319 79.8743C123.994 71.8869 104.766 7.54004 112.827 3.04918C124.407 -3.38053 142.165 55.8292 148.443 57.768C154.109 59.5246 153.085 46.4829 160.766 48.8858C165.16 50.2612 169.554 70.3623 164.334 89.9829" stroke="#3F2A25" stroke-width="2" stroke-linecap="round" stroke-linejoin="round"/>
<path d="M40.1749 127.335C27.075 98.7824 19.7239 69.683 24.7788 62.7893C26.8768 59.9224 42.2067 65.3744 61.1709 75.0521C66.7214 77.8858 72.5693 81.1173 78.5328 84.5973" stroke="#3F2A25" stroke-width="2" stroke-linecap="round" stroke-linejoin="round"/>
<path d="M83.2903 98.9479V98.9314" stroke="#3F2A25" stroke-width="2" stroke-linecap="round" stroke-linejoin="round"/>
<path d="M78.5164 84.5972C76.2202 89.4195 76.4514 92.5349 77.5087 94.5897C78.6981 96.9097 80.8951 98.02 83.2905 98.948C86.6604 100.307 90.4103 101.318 92.2109 105.079C94.6558 110.515 90.1625 115.337 89.7165 120.259" stroke="#3F2A25" stroke-width="2" stroke-linecap="round" stroke-linejoin="round"/>
<path d="M294.969 87.3814C302.75 92.7837 282.035 115.851 269.893 130.981C265.053 137.029 261.6 141.802 261.881 143.675C262.823 149.541 274.056 142.846 275.311 150.833C275.493 151.927 274.683 153.535 273.065 155.391C268.043 161.108 255.207 169.228 240.175 172.244C238.11 166.659 234.872 161.24 230.775 156.517C230.081 155.705 229.387 154.91 228.644 154.164C224.25 149.64 219.112 145.912 213.562 143.476C212.637 143.078 211.695 142.713 210.754 142.365C210.754 137.775 211.778 132.704 213.248 128.081C214.107 125.413 215.098 122.894 216.122 120.723C218.204 116.398 220.434 113.448 221.904 113.448C225.225 113.448 224.812 117.757 225.159 121.552H225.175C225.423 124.468 226.15 127.053 229.222 127.285C231.006 127.418 234.261 125.827 238.391 123.176C238.87 122.894 239.332 122.596 239.811 122.264C257.52 110.664 289.022 83.2551 294.969 87.3814Z" fill="#BC7171"/>
<path d="M289.088 152.971C289.634 156.65 289.633 160.478 289.633 164.422C289.633 173.155 289.634 181.292 283.951 188.235C273.081 201.476 241.48 210.325 149.55 210.325C57.6194 210.325 26.0675 201.492 15.1647 188.268C9.46557 181.325 9.46558 173.172 9.46558 164.438C9.46558 160.528 9.46558 156.716 9.99419 153.087C10.6054 157.114 11.8609 160.925 14.4874 164.455C19.1129 170.653 27.9507 175.922 44.9161 179.85C55.2241 182.236 68.5387 184.125 85.7023 185.401C96.539 186.23 108.895 186.793 123.019 187.108C131.246 187.29 140.084 187.39 149.55 187.39C159.015 187.39 167.936 187.29 176.212 187.108C181.812 186.992 187.148 186.826 192.202 186.611C196.531 186.429 200.66 186.23 204.608 185.998C219.79 185.103 232.245 183.794 242.487 182.137C267.299 178.077 279.045 171.929 284.612 164.422C287.255 160.892 288.494 157.031 289.088 152.971Z" fill="#BC7171"/>
<path d="M289.088 152.971C288.494 157.031 287.255 160.892 284.612 164.422C282.167 161.141 278.499 158.092 273.065 155.39C274.683 153.534 275.493 151.927 275.311 150.833C274.056 142.846 262.823 149.541 261.881 143.674C261.6 141.802 265.053 137.029 269.893 130.981C283.686 136.847 287.849 144.42 289.088 152.954V152.971Z" fill="#BC7171"/>
<path d="M283.951 188.235L284.215 188.5C284.215 242.954 284.215 287.084 149.566 287.084C14.9169 287.084 14.9004 242.954 14.9004 188.5L15.1647 188.268C26.0675 201.492 57.702 210.325 149.55 210.325C241.397 210.325 273.081 201.476 283.951 188.235Z" fill="#BC7171"/>
<path d="M273.065 155.39C278.499 158.092 282.167 161.141 284.612 164.422C279.045 171.929 267.299 178.077 242.487 182.137V182.104C242.173 178.839 241.364 175.525 240.175 172.244C255.207 169.228 268.043 161.108 273.065 155.39Z" fill="#BC7171"/>
<path d="M206.706 82.2277C223.226 68.6226 237.086 59.9889 239.762 62.342C245.709 67.5952 245.329 93.8775 239.811 122.264C239.332 122.596 238.87 122.894 238.391 123.176C234.261 125.827 231.006 127.418 229.222 127.285C226.15 127.053 225.423 124.468 225.175 121.552H225.159C224.812 117.757 225.225 113.448 221.904 113.448C220.434 113.448 218.204 116.398 216.122 120.723C215.098 122.894 214.107 125.413 213.248 128.081L212.455 127.832C204.542 122.911 198.893 119.199 193.937 114.459C193.937 114.459 193.92 114.459 193.92 114.426H193.904C191.558 109.14 188.833 104.533 185.793 100.837C192.814 94.0763 200 87.7295 206.706 82.2277Z" fill="#BC7171"/>
<path d="M193.937 114.459C198.893 119.198 204.542 122.91 212.455 127.832L213.248 128.081C211.778 132.704 210.754 137.775 210.754 142.349C207.978 141.404 205.121 140.725 202.213 140.509C200.512 132.986 198.48 125.86 196.002 119.48C195.341 117.757 194.647 116.083 193.937 114.459Z" fill="#BC7171"/>
<path d="M204.608 185.998C200.66 186.23 196.53 186.429 192.202 186.611C190.154 184.556 188.04 182.551 185.925 180.546C185.545 180.181 185.149 179.833 184.769 179.469C184.537 179.237 184.29 179.021 184.058 178.839C182.687 177.53 181.3 176.271 179.879 175.028C178.26 173.536 176.608 172.095 174.956 170.669C172.197 168.267 169.389 165.963 166.597 163.709C167.704 162.119 168.794 160.611 169.918 159.169C170.281 158.705 170.645 158.241 171.025 157.777C186.536 164.82 198.777 172.84 204.608 185.998Z" fill="#BC7171"/>
<path d="M171.025 157.777C172.445 155.954 173.932 154.197 175.386 152.606H175.402C180.044 147.585 184.653 143.89 189.08 142.15C189.08 142.15 189.08 142.133 189.097 142.15H189.13C189.642 141.918 190.171 141.736 190.699 141.586C194.565 140.46 198.414 140.145 202.213 140.509C205.121 140.725 207.978 141.404 210.754 142.365C211.695 142.713 212.637 143.078 213.562 143.476C219.112 145.912 224.25 149.64 228.644 154.164C229.387 154.91 230.081 155.705 230.775 156.517C234.872 161.24 238.11 166.659 240.175 172.244C241.364 175.525 242.173 178.839 242.487 182.104V182.137C232.245 183.794 219.79 185.103 204.608 185.998C198.777 172.84 186.536 164.82 171.025 157.777Z" fill="#BC7171"/>
<path d="M189.097 142.133L189.08 142.15C189.08 142.15 189.086 142.144 189.097 142.133Z" fill="#BC7171"/>
<path d="M185.925 180.546C188.04 182.551 190.154 184.556 192.202 186.611C187.147 186.826 181.812 186.992 176.212 187.108C178.557 184.606 181.316 182.153 184.769 179.469C185.149 179.833 185.545 180.181 185.925 180.546Z" fill="#BC7171"/>
<path d="M174.956 170.669C176.608 172.094 178.26 173.536 179.879 175.028C181.3 176.27 182.687 177.53 184.058 178.839C184.29 179.021 184.538 179.237 184.769 179.469C181.316 182.153 178.558 184.606 176.212 187.108C167.936 187.29 159.065 187.39 149.55 187.39C140.034 187.39 131.246 187.29 123.02 187.108C123.267 173.039 131.081 160.909 142.116 148.381L142.645 147.386C143.817 148.016 145.007 148.679 146.213 149.392C152.754 153.236 159.659 158.208 166.598 163.709C169.389 165.963 172.198 168.266 174.956 170.669Z" fill="#BC7171"/>
<path d="M160.717 48.8362C165.127 50.2282 169.521 70.3128 164.285 89.9168C150.508 88.4751 134.567 93.2642 124.523 103.108C113.306 97.5562 102.09 83.3711 103.626 80.2556C106.219 74.9859 115.619 86.0556 119.253 79.8248C123.945 71.8373 104.7 7.49048 112.778 2.99962C124.358 -3.43009 142.116 55.7796 148.393 57.7185C154.059 59.4751 153.035 46.4333 160.717 48.8362Z" fill="#BC7171"/>
<path d="M126.489 141.106C127.282 141.238 128.041 141.421 128.851 141.653C133.08 142.746 137.722 144.735 142.645 147.386L142.116 148.381C131.081 160.909 123.267 173.039 123.02 187.108C108.896 186.793 96.5391 186.23 85.7024 185.401C85.9502 172.161 91.7815 157.86 101.726 149.044C104.964 146.16 108.648 143.906 112.711 142.448C112.711 142.432 112.761 142.415 112.778 142.398C113.124 142.266 113.488 142.15 113.835 142.034C113.868 142.034 113.884 142.017 113.901 142.017C115.421 141.537 116.99 141.172 118.576 140.924C119.055 140.857 119.534 140.824 119.997 140.741C121.979 140.542 124.159 140.675 126.472 141.106H126.489Z" fill="#BC7171"/>
<path d="M175.386 152.607C173.932 154.197 172.445 155.954 171.025 157.777C170.645 158.241 170.281 158.705 169.918 159.169C168.795 160.611 167.704 162.119 166.598 163.709C159.659 158.208 152.754 153.236 146.213 149.392C145.007 148.679 143.817 148.016 142.644 147.387C137.722 144.735 133.08 142.747 128.851 141.653C128.041 141.421 127.281 141.239 126.489 141.106C124.176 140.675 121.995 140.543 120.013 140.741C119.55 140.824 119.071 140.857 118.592 140.924C118.179 139.863 117.766 138.803 117.403 137.775C115.933 133.566 114.975 129.672 114.727 126.159C114.595 124.269 114.661 122.463 114.958 120.823C115.074 120.209 115.189 119.596 115.321 119.016C116.808 112.802 120.079 107.483 124.506 103.141H124.539V103.108C134.583 93.2643 150.524 88.4751 164.301 89.9168C168.861 90.414 173.205 91.5906 177.005 93.4797C180.242 95.1037 183.166 97.606 185.809 100.837C188.849 104.533 191.575 109.14 193.92 114.409H193.937C193.937 114.409 193.954 114.443 193.954 114.459C194.664 116.083 195.358 117.757 196.018 119.48C198.496 125.86 200.528 132.986 202.23 140.509C198.43 140.145 194.581 140.46 190.716 141.587C190.187 141.736 189.658 141.918 189.146 142.15H189.113C189.113 142.15 189.097 142.117 189.097 142.15C184.67 143.89 180.061 147.585 175.419 152.607H175.402H175.386Z" fill="#BC7171"/>
<path d="M113.901 142.017C113.901 142.017 113.868 142.034 113.835 142.034C113.488 142.15 113.124 142.266 112.778 142.399C114.38 140.99 115.9 139.432 117.386 137.775C117.75 138.803 118.163 139.863 118.576 140.924C116.99 141.172 115.421 141.537 113.901 142.017Z" fill="#BC7171"/>
<path d="M101.726 149.044C91.7814 157.86 85.9501 172.161 85.7023 185.401C68.5387 184.125 55.2241 182.236 44.916 179.85C44.916 173.619 56.0666 174.994 54.8276 169.592C54.1504 166.676 42.0582 160.594 29.6522 153.766H29.6357C23.7383 150.518 17.8078 147.088 12.9842 143.79C5.41831 138.604 0.611171 133.665 3.03951 129.953C4.97228 126.987 15.2638 128.644 27.7525 131.61C33.0056 132.853 38.6222 134.345 44.1727 135.786H44.1892C52.7297 138.04 61.0554 140.228 67.5145 141.47C73.0485 142.548 77.1783 142.929 78.9294 142.084C85.3884 138.885 75.0804 128.677 80.5317 126.457C83.72 125.148 97.0015 137.41 101.726 149.044Z" fill="#BC7171"/>
<path d="M90.4102 124.253C89.7164 122.894 89.5512 121.568 89.6669 120.226C97.4475 119.712 105.971 119.298 115.305 119.016C115.173 119.596 115.057 120.209 114.941 120.822C114.644 122.463 114.578 124.269 114.71 126.158C113.356 127.12 111.951 128.677 108.383 129.821C102.122 131.876 93.169 129.522 90.4102 124.253Z" fill="#BC7171"/>
<path d="M83.241 98.8985C86.611 100.257 90.3609 101.285 92.145 105.047C94.6063 110.465 90.1131 115.304 89.6671 120.226C89.5514 121.568 89.7166 122.894 90.4104 124.253C93.1692 129.523 102.123 131.876 108.383 129.821C111.952 128.677 113.356 127.12 114.71 126.159C114.958 129.672 115.916 133.566 117.387 137.759C115.9 139.432 114.38 140.99 112.778 142.399C112.761 142.415 112.728 142.432 112.712 142.448C108.648 143.907 104.964 146.16 101.726 149.044C97.0017 137.411 83.7201 125.148 80.5319 126.457C75.0805 128.677 85.3886 138.885 78.9295 142.084C77.1784 142.929 73.0486 142.548 67.5146 141.471C61.0556 140.228 52.7298 138.04 44.1893 135.787C42.7687 132.969 41.4141 130.136 40.109 127.285C26.9927 98.7328 19.6581 69.6334 24.713 62.7728C26.7945 59.8894 42.1409 65.358 61.1051 75.0357C66.6721 77.8694 72.52 81.1008 78.467 84.5477C76.1708 89.4031 76.402 92.502 77.4428 94.5403C78.6487 96.8768 80.8292 97.9705 83.241 98.8985Z" fill="#BC7171"/>
<path d="M54.8275 169.592C56.0665 174.995 44.9159 173.619 44.9159 179.833C27.9506 175.923 19.1127 170.653 14.4873 164.455C17.4443 160.478 22.1523 156.865 29.6355 153.767H29.6521C42.0581 160.594 54.1502 166.676 54.8275 169.592Z" fill="#BC7171"/>
<path d="M44.1892 135.787H44.1727C38.6222 134.345 33.0056 132.853 27.7524 131.611C31.1885 130.053 35.2522 128.611 40.1089 127.285C41.4139 130.136 42.7685 132.969 44.1892 135.787Z" fill="#BC7171"/>
<path d="M29.6356 153.767C22.1524 156.865 17.4444 160.478 14.4874 164.455C11.8608 160.925 10.6054 157.114 9.99414 153.087V153.037C10.4567 149.823 11.3322 146.724 12.9841 143.791C17.8078 147.088 23.7382 150.519 29.6356 153.767Z" fill="#BC7171"/>
<path d="M295.135 87.3812C297.53 89.0383 297.233 92.3692 295.3 96.628C266.391 134.477 251.226 137.675 254.216 144.138C256.232 148.53 262.591 150.071 262.41 153.998C262.162 159.169 248.633 166.095 238.738 168.465C237.201 165.167 235.252 161.986 232.972 159.019C237.73 157.246 241.48 155.175 241.149 153.882C240.885 152.838 238.49 152.258 235.153 152.325C240.158 147.519 246.27 139.051 244.338 136.747C242.174 134.179 228.694 144.354 226.348 147.022C225.324 148.198 225.324 149.839 225.885 151.397C222.202 148.099 218.088 145.398 213.727 143.475C212.802 143.078 211.861 142.713 210.919 142.382V142.349C210.919 137.775 211.943 132.704 213.413 128.081C214.272 125.413 215.264 122.894 216.288 120.723C217.196 118.834 218.138 117.21 219.03 115.967C220.17 114.376 221.227 113.448 222.053 113.448C225.39 113.448 224.977 117.757 225.324 121.568H225.34C225.34 121.568 225.357 121.684 225.357 121.734H225.175C225.175 124.915 222.449 129.274 224.134 130.318C225.968 131.445 230.445 127.683 233.848 125.91C233.914 125.877 233.963 125.86 234.013 125.827C235.368 125.147 236.887 124.253 238.556 123.192C239.035 122.894 239.497 122.595 239.976 122.264C257.685 110.664 289.188 83.2549 295.135 87.3812Z" fill="#77B566"/>
<path d="M289.782 164.422H289.799C289.799 173.138 289.799 181.292 284.116 188.235C279.689 193.621 271.826 198.294 257.834 201.923C262.459 197.631 261.716 184.457 257.95 179.32L257.867 178.988C272.569 175.16 280.499 170.189 284.777 164.422C287.42 160.892 288.659 157.031 289.254 152.971C289.782 156.65 289.782 160.478 289.782 164.422Z" fill="#AD7766"/>
<path d="M289.254 152.954C288.659 157.031 287.42 160.892 284.777 164.422C282.332 161.141 278.665 158.092 273.23 155.39C274.849 153.534 275.658 151.944 275.477 150.833C274.205 142.846 262.988 149.541 262.046 143.691C261.766 141.818 265.218 137.029 270.058 130.981C283.852 136.847 288.015 144.42 289.254 152.954Z" fill="#AD7766"/>
<path d="M257.834 201.923C271.826 198.294 279.689 193.621 284.116 188.235L284.38 188.5C284.38 239.424 284.381 281.317 174.213 286.537C178.145 285.741 226.563 283.255 251.177 247.942C259.271 236.325 262.344 220.052 263.484 208.933C233.997 215.677 176.625 216.34 141.719 210.49V210.308C144.33 210.325 146.989 210.325 149.715 210.325C204.196 210.325 237.499 207.209 257.834 201.923Z" fill="#AD7766"/>
<path d="M273.23 155.39C278.665 158.092 282.332 161.141 284.777 164.422C280.498 170.189 272.569 175.16 257.867 178.988C253.423 180.132 248.385 181.192 242.653 182.137V182.104C242.339 178.839 241.529 175.525 240.34 172.26C255.372 169.228 268.208 161.108 273.23 155.39Z" fill="#C47B49"/>
<path d="M275.477 150.833C275.658 151.943 274.849 153.534 273.23 155.39C268.208 161.107 255.373 169.227 240.34 172.26C239.861 170.984 239.332 169.708 238.738 168.465C248.633 166.095 262.162 159.169 262.41 153.998C262.591 150.071 256.232 148.53 254.216 144.138C251.226 137.675 266.391 134.477 295.3 96.6279C290.988 106.223 278.467 120.491 270.058 130.981C265.218 137.029 261.766 141.818 262.046 143.691C262.988 149.541 274.205 142.846 275.477 150.833Z" fill="#6A964D"/>
<path d="M263.483 208.933C262.344 220.052 259.271 236.325 251.177 247.942C226.563 283.255 178.145 285.741 174.213 286.537H174.18C166.565 286.901 158.42 287.083 149.715 287.083C15.0657 287.083 15.0657 242.954 15.0657 188.5L15.33 188.251C23.6227 198.327 43.9415 205.867 93.7803 208.883H93.7968C107.442 209.711 123.3 210.192 141.719 210.308V210.49C176.625 216.34 233.996 215.677 263.483 208.933Z" fill="#C6977B"/>
<path d="M123.185 187.108C126.274 187.174 129.446 187.241 132.7 187.29H132.849C138.234 187.357 143.85 187.39 149.715 187.39C159.23 187.39 168.101 187.29 176.377 187.108C181.977 186.992 187.313 186.826 192.368 186.611C196.696 186.445 200.826 186.23 204.774 185.998C219.939 185.103 232.411 183.794 242.653 182.137C248.385 181.192 253.423 180.131 257.867 178.988L257.95 179.32C261.716 184.457 262.459 197.631 257.834 201.923C237.499 207.209 204.196 210.325 149.715 210.325C146.989 210.325 144.33 210.325 141.719 210.308C123.3 210.192 107.442 209.711 93.7969 208.883H93.7804C43.9415 205.867 23.6227 198.327 15.33 188.252C9.63085 181.308 9.63086 173.155 9.63086 164.438C9.63086 160.527 9.63086 156.716 10.143 153.087C10.7542 157.114 12.0096 160.909 14.6362 164.455C19.2451 170.636 28.0995 175.906 45.0648 179.85C55.3729 182.236 68.6875 184.125 85.8511 185.401C96.6878 186.23 109.044 186.793 123.168 187.108H123.185Z" fill="#C6977B"/>
<path d="M244.338 136.747C246.27 139.051 240.158 147.519 235.153 152.325C234.426 152.325 233.666 152.374 232.89 152.441C230.858 152.523 230.148 154.098 230.23 155.689C229.768 155.158 229.305 154.661 228.809 154.164C227.868 153.203 226.893 152.258 225.886 151.397C225.324 149.839 225.324 148.198 226.348 147.022C228.694 144.354 242.174 134.179 244.338 136.747Z" fill="#6A964D"/>
<path d="M242.653 182.104V182.137C232.411 183.794 219.939 185.103 204.774 185.998C203.634 183.446 202.279 181.093 200.694 178.905C216.998 173.337 232.279 166.328 230.974 158.075C231.469 158.804 232.163 159.252 232.923 159.036C232.939 159.036 232.956 159.02 232.972 159.02C235.252 161.986 237.201 165.168 238.738 168.465C239.332 169.708 239.861 170.984 240.34 172.26C241.529 175.525 242.339 178.839 242.653 182.104Z" fill="#C47B49"/>
<path d="M241.15 153.882C241.48 155.175 237.73 157.246 232.972 159.02C232.328 158.174 231.651 157.329 230.941 156.517C230.709 156.252 230.478 155.97 230.23 155.705C231.304 155.606 233.138 154.264 235.153 152.325C238.49 152.258 240.885 152.838 241.15 153.882Z" fill="#6A964D"/>
<path d="M222.78 101.865C232.163 85.0612 240.191 66.0869 239.382 62.0601C239.597 62.1263 239.778 62.2258 239.927 62.3583C245.874 67.5949 245.494 93.8772 239.976 122.264C239.497 122.595 239.035 122.894 238.556 123.192C236.887 124.253 235.368 125.147 234.013 125.827C233.963 125.86 233.914 125.877 233.848 125.91C231.948 126.854 230.428 127.368 229.388 127.285C226.381 127.07 225.621 124.567 225.357 121.734C225.357 121.684 225.34 121.618 225.34 121.568H225.324C224.977 117.757 225.39 113.448 222.053 113.448C221.227 113.448 220.17 114.376 219.03 115.967L214.95 114.774C217.56 110.863 220.219 106.438 222.78 101.865Z" fill="#C47B49"/>
<path d="M239.382 62.0602C240.191 66.087 232.163 85.0613 222.78 101.865C215.297 96.9762 209.928 90.9442 206.872 82.2276C222.466 69.3847 235.698 60.9664 239.382 62.0602Z" fill="#E09F57"/>
<path d="M232.89 152.441C233.666 152.374 234.426 152.325 235.153 152.325C233.137 154.264 231.304 155.606 230.23 155.705C230.147 154.098 230.858 152.524 232.89 152.441Z" fill="#6A964D"/>
<path d="M230.974 158.075C230.544 157.445 230.263 156.567 230.23 155.705C230.478 155.97 230.709 156.252 230.941 156.517C231.651 157.329 232.328 158.174 232.972 159.019C232.956 159.019 232.939 159.036 232.923 159.036C232.163 159.251 231.469 158.804 230.974 158.075Z" fill="#6A964D"/>
<path d="M175.551 152.623H175.568C180.209 147.585 184.818 143.89 189.246 142.15C189.246 142.15 189.246 142.133 189.262 142.15H189.279C189.807 141.918 190.336 141.752 190.864 141.586C191.575 141.371 192.285 141.205 192.995 141.04C196.151 140.36 199.256 140.211 202.362 140.509C205.286 140.725 208.144 141.404 210.919 142.382C211.861 142.713 212.802 143.078 213.727 143.476C218.088 145.398 222.202 148.099 225.885 151.397C226.629 153.501 228.38 155.407 229.9 155.705C229.999 155.722 230.114 155.722 230.23 155.705C230.263 156.567 230.544 157.445 230.973 158.075C232.278 166.328 216.998 173.337 200.693 178.905C194.069 169.774 183.695 163.461 171.19 157.777C172.594 155.97 174.081 154.214 175.518 152.64C175.535 152.64 175.535 152.64 175.551 152.64V152.623Z" fill="#E09F57"/>
<path d="M230.23 155.688C230.114 155.722 229.999 155.722 229.9 155.705C228.38 155.407 226.629 153.501 225.885 151.396C226.893 152.258 227.868 153.203 228.809 154.164C229.305 154.661 229.768 155.158 230.23 155.688Z" fill="#6A964D"/>
<path d="M229.388 127.285C230.428 127.368 231.948 126.854 233.848 125.91C230.445 127.683 225.968 131.445 224.135 130.318C222.45 129.274 225.175 124.915 225.175 121.75H225.357C225.621 124.567 226.381 127.07 229.388 127.285Z" fill="#6A964D"/>
<path d="M214.95 114.774L219.03 115.967C218.138 117.21 217.196 118.834 216.288 120.723C215.264 122.894 214.273 125.413 213.414 128.081L212.621 127.832C210.787 126.689 209.069 125.611 207.467 124.567C209.829 122.032 212.356 118.651 214.95 114.774Z" fill="#C47B49"/>
<path d="M194.086 114.442C194.086 114.442 194.069 114.426 194.069 114.409C191.707 109.14 188.998 104.533 185.958 100.837C192.979 94.0761 200.165 87.7293 206.872 82.2275C209.928 90.9441 215.297 96.9761 222.78 101.865C220.219 106.438 217.56 110.863 214.95 114.774C212.356 118.652 209.829 122.032 207.466 124.568C202.131 121.137 197.902 118.105 194.102 114.459C194.102 114.459 194.102 114.442 194.086 114.442Z" fill="#E09F57"/>
<path d="M212.621 127.832L213.413 128.081C211.943 132.704 210.919 137.775 210.919 142.349V142.382C208.144 141.404 205.286 140.725 202.362 140.509C201.503 136.698 200.561 132.986 199.504 129.423C201.569 129.87 204.344 127.981 207.466 124.567C209.069 125.611 210.787 126.689 212.621 127.832Z" fill="#C47B49"/>
<path d="M194.102 114.459C197.902 118.105 202.131 121.137 207.466 124.568C204.344 127.981 201.569 129.87 199.504 129.423C198.496 125.96 197.39 122.629 196.167 119.48C195.506 117.757 194.813 116.083 194.102 114.459Z" fill="#E09F57"/>
<path d="M200.693 178.905C202.279 181.093 203.634 183.446 204.774 185.998C200.826 186.23 196.696 186.445 192.368 186.611C191.079 185.335 189.774 184.076 188.453 182.816C192.434 181.606 196.597 180.297 200.693 178.905Z" fill="#C47B49"/>
<path d="M164.401 89.9332H164.45C169.009 90.4138 173.354 91.5904 177.153 93.4961C180.391 95.1035 183.299 97.6224 185.958 100.837C188.998 104.533 191.707 109.14 194.069 114.409C194.069 114.409 194.075 114.42 194.086 114.442L194.102 114.459C194.813 116.083 195.506 117.757 196.167 119.48C197.39 122.629 198.496 125.96 199.504 129.423C200.561 132.986 201.503 136.698 202.362 140.509C199.256 140.211 196.151 140.36 192.996 141.04L192.863 140.493C191.641 136.714 188.833 120.292 176.939 103.34C170.876 94.6892 157.677 92.0875 146.923 91.2258C151.615 90.0658 156.438 89.5521 161.097 89.7012C162.203 89.7344 163.31 89.8172 164.401 89.9332Z" fill="#C47B49"/>
<path d="M126.654 141.106H126.637C124.325 140.692 122.144 140.542 120.162 140.758C119.699 140.824 119.22 140.857 118.741 140.94C118.328 139.88 117.915 138.819 117.552 137.775C116.065 133.582 115.123 129.705 114.876 126.175C114.744 124.269 114.81 122.463 115.107 120.822C115.223 120.209 115.338 119.596 115.47 119.016C116.908 112.984 120.046 107.797 124.292 103.505C124.407 103.373 124.54 103.257 124.655 103.141H124.688C129.71 98.1858 136.202 94.5235 143.173 92.2864C144.544 92.2201 145.849 91.8555 146.742 91.2755C146.791 91.2424 146.857 91.2258 146.923 91.2258C157.677 92.0875 170.876 94.6893 176.939 103.34C188.833 120.292 191.641 136.714 192.863 140.493L192.996 141.04C192.285 141.205 191.575 141.371 190.865 141.586C190.336 141.752 189.807 141.918 189.279 142.15H189.262H189.246C184.819 143.89 180.21 147.585 175.568 152.606H175.551C175.551 152.606 175.535 152.64 175.518 152.64C174.081 154.214 172.594 155.97 171.19 157.777C170.81 158.257 170.447 158.705 170.083 159.169C168.96 160.627 167.87 162.135 166.763 163.709C159.808 158.208 152.92 153.253 146.378 149.392C145.172 148.679 143.983 148.016 142.81 147.386C137.887 144.735 133.245 142.746 129.016 141.653C128.207 141.421 127.447 141.255 126.654 141.106Z" fill="#E09F57"/>
<path d="M171.19 157.777C183.695 163.461 194.069 169.774 200.694 178.905C196.597 180.297 192.434 181.606 188.453 182.816C187.66 182.054 186.883 181.291 186.091 180.546C185.711 180.198 185.314 179.833 184.918 179.469C184.703 179.253 184.455 179.021 184.224 178.839C182.853 177.53 181.465 176.27 180.045 175.027C178.426 173.536 176.774 172.094 175.122 170.669C172.363 168.266 169.555 165.963 166.763 163.709C167.87 162.135 168.96 160.627 170.083 159.169C170.447 158.705 170.81 158.257 171.19 157.777Z" fill="#E09F57"/>
<path d="M188.453 182.816C189.774 184.075 191.079 185.335 192.368 186.611C187.313 186.826 181.977 186.992 176.377 187.108C178.723 184.606 181.482 182.153 184.918 179.469C185.314 179.833 185.711 180.198 186.091 180.546C186.883 181.291 187.66 182.054 188.453 182.816Z" fill="#C47B49"/>
<path d="M184.224 178.839C184.455 179.021 184.703 179.253 184.918 179.469C181.482 182.153 178.723 184.606 176.377 187.108C168.101 187.29 159.23 187.39 149.715 187.39C143.851 187.39 138.234 187.357 132.849 187.29C144.776 186.826 164.202 184.341 166.102 177.911C168.266 170.52 155.579 158.539 140.679 150.237C141.207 149.607 141.736 148.994 142.281 148.381L142.81 147.386C143.983 148.016 145.172 148.679 146.378 149.391C152.92 153.253 159.808 158.207 166.763 163.709C169.555 165.963 172.363 168.266 175.122 170.669C176.774 172.094 178.425 173.536 180.044 175.027C181.465 176.27 182.853 177.546 184.224 178.839Z" fill="#C47B49"/>
<path d="M180.044 175.027C181.465 176.27 182.853 177.53 184.224 178.839C182.853 177.546 181.465 176.27 180.044 175.027Z" fill="#E09F57"/>
<path d="M140.679 150.237C155.579 158.539 168.266 170.52 166.102 177.911C164.202 184.341 144.776 186.826 132.849 187.29H132.7C129.446 187.241 126.274 187.174 123.185 187.108C123.433 173.718 130.503 162.102 140.679 150.237Z" fill="#E09F57"/>
<path d="M160.717 49.3332C165.078 50.6921 169.439 70.4783 164.401 89.9332C163.31 89.8172 162.204 89.7343 161.097 89.7012V89.3201C162.93 79.2778 162.501 61.8778 157.876 59.5743C155.678 58.4806 153.3 60.1046 150.657 61.5132L149.401 58.3812C153.96 58.3812 153.514 47.0629 160.717 49.3332Z" fill="#6A964D"/>
<path d="M157.876 59.5743C162.501 61.8777 162.93 79.2777 161.113 89.32V89.7012C156.438 89.552 151.615 90.0657 146.923 91.2257C146.857 91.2257 146.791 91.2423 146.742 91.2755C147.204 90.9772 147.551 90.6292 147.749 90.2315C147.898 89.9332 147.898 89.4526 147.766 88.8395C149.385 88.972 151.004 88.3257 151.004 87.0166C150.557 81.9292 149.533 77.72 148.195 77.6869C147.138 77.6703 145.965 79.808 145.156 83.0063C141.505 76.6926 135.145 68.9206 132.551 70.1303C129.512 71.5389 135.773 87.2652 137.722 90.2315C138.763 91.8057 141.042 92.4023 143.173 92.2863C136.202 94.5235 129.71 98.1857 124.688 103.124H124.655C124.54 103.257 124.407 103.373 124.292 103.505C113.158 97.8709 102.106 83.8515 103.626 80.7526C105.311 77.3389 109.837 80.7692 113.802 81.9126C116.462 83.5366 119.485 86.1217 120.856 85.1606C122.64 83.9177 120.195 78.5155 119.98 74.6709H119.947C119.435 56.7572 105.724 7.37432 112.761 3.48004C113.554 3.03261 114.38 2.90003 115.223 3.03261C138.003 44.6103 138.498 63.2532 145.569 63.1206C147.369 63.0875 149.054 62.3252 150.64 61.4966C153.283 60.088 155.662 58.464 157.859 59.5577L157.876 59.5743Z" fill="#77B566"/>
<path d="M149.401 58.3811L150.656 61.5131C149.071 62.3416 147.386 63.1039 145.585 63.1371C138.515 63.2696 138.019 44.6268 115.239 3.04907C126.736 4.90507 142.529 56.3925 148.393 58.2154C148.757 58.3314 149.087 58.3811 149.401 58.3811Z" fill="#6A964D"/>
<path d="M148.195 77.6869C149.533 77.72 150.557 81.9292 151.003 87.0166C151.003 88.3257 149.384 88.972 147.766 88.8394C147.468 87.4309 146.494 85.3097 145.156 83.0063C145.965 79.808 147.138 77.6703 148.195 77.6869Z" fill="#6A964D"/>
<path d="M147.766 88.8394C147.898 89.4525 147.898 89.9331 147.749 90.2314C147.551 90.6291 147.204 90.9771 146.741 91.2754C145.536 91.5571 144.346 91.9051 143.173 92.2862C141.042 92.4022 138.763 91.8057 137.722 90.2314C135.773 87.2651 129.512 71.5388 132.551 70.1302C135.145 68.9205 141.505 76.6925 145.156 83.0062C144.957 83.7188 144.792 84.4977 144.66 85.3097C144.148 87.58 145.949 88.7068 147.766 88.8394Z" fill="#6A964D"/>
<path d="M143.173 92.2862C144.346 91.9051 145.536 91.5571 146.742 91.2754C145.849 91.8554 144.544 92.22 143.173 92.2862Z" fill="#6A964D"/>
<path d="M145.156 83.0063C146.494 85.3098 147.468 87.4309 147.766 88.8395C145.948 88.7069 144.148 87.5801 144.66 85.3098C144.792 84.4978 144.957 83.7189 145.156 83.0063Z" fill="#6A964D"/>
<path d="M126.654 141.106C127.447 141.255 128.207 141.421 129.016 141.653C133.245 142.746 137.887 144.735 142.81 147.386L142.281 148.381C141.736 148.994 141.207 149.607 140.679 150.237C132.7 145.796 124.093 142.398 116.775 141.305C117.42 141.172 118.08 141.04 118.741 140.94C119.22 140.857 119.699 140.824 120.162 140.758C122.144 140.542 124.325 140.692 126.637 141.106H126.654Z" fill="#C47B49"/>
<path d="M140.679 150.237C130.503 162.102 123.433 173.718 123.185 187.108C109.061 186.793 96.7044 186.23 85.8677 185.401C85.9833 179.22 87.3214 172.79 89.7497 166.808C90.5592 165.698 91.1208 164.405 91.286 163.295C93.3014 159.185 95.8288 155.341 98.8849 152.043C99.81 150.982 100.834 149.988 101.891 149.044C105.129 146.16 108.813 143.906 112.877 142.448C112.893 142.432 112.926 142.415 112.943 142.398C113.29 142.266 113.637 142.15 114 142.034C114.033 142.034 114.05 142.017 114.066 142.017C114.942 141.736 115.85 141.504 116.775 141.305C124.093 142.398 132.7 145.796 140.679 150.237Z" fill="#E09F57"/>
<path d="M119.997 74.6875C120.211 78.5321 122.656 83.9344 120.872 85.1772C119.501 86.1384 116.478 83.5532 113.818 81.9292C115.982 82.5424 117.981 82.4926 119.253 80.3052C119.848 79.2778 120.063 77.3224 119.964 74.6875H119.997Z" fill="#6A964D"/>
<path d="M117.552 137.775C117.915 138.819 118.328 139.879 118.741 140.94C118.08 141.039 117.42 141.172 116.775 141.305C115.85 141.503 114.942 141.735 114.066 142.017C114.05 142.017 114.033 142.034 114 142.034C113.637 142.15 113.29 142.266 112.943 142.398C114.562 140.973 116.065 139.449 117.552 137.775Z" fill="#C47B49"/>
<path d="M115.47 119.016C115.338 119.596 115.223 120.209 115.107 120.822C114.81 122.463 114.744 124.269 114.876 126.158C113.521 127.12 112.117 128.677 108.549 129.837C102.288 131.876 93.3345 129.522 90.5757 124.253C90.0141 123.159 89.7993 122.065 89.7993 120.988C89.7993 120.74 89.8158 120.491 89.8324 120.226C97.613 119.712 106.137 119.314 115.47 119.016Z" fill="#AD7766"/>
<path d="M114.876 126.175C115.123 129.705 116.065 133.582 117.552 137.775C116.065 139.449 114.562 140.973 112.943 142.398C112.926 142.398 112.893 142.431 112.877 142.448C108.813 143.906 105.129 146.16 101.891 149.043C98.8684 141.603 92.3267 133.881 87.1892 129.655C86.6111 128.147 86.3798 124.733 86.2146 121.021L89.7993 120.988C89.7993 122.065 90.014 123.159 90.5757 124.253C93.3344 129.522 102.288 131.875 108.549 129.837C112.117 128.677 113.521 127.119 114.876 126.175Z" fill="#C47B49"/>
<path d="M44.3381 135.786C52.8786 138.04 61.2209 140.228 67.68 141.47C73.1974 142.564 77.3273 142.945 79.0783 142.084C83.043 140.128 80.6972 135.538 79.5574 131.76C78.814 129.39 78.5662 127.318 80.6807 126.457C81.8205 125.993 84.2819 127.269 87.1728 129.655C92.3103 133.881 98.852 141.603 101.875 149.044C100.818 149.988 99.7936 150.982 98.8685 152.043H98.852C96.0767 143.625 89.2542 135.438 85.9669 136.714C82.3161 138.123 85.0914 144.901 82.1674 148.729C77.8724 154.396 51.2267 138.189 6.62451 128.644V128.478C11.0187 128.014 18.8819 129.473 27.8849 131.627C33.1546 132.853 38.7546 134.345 44.3051 135.786H44.3216H44.3381Z" fill="#6A964D"/>
<path d="M98.8684 152.026H98.8849C95.8288 155.341 93.3014 159.185 91.286 163.295C91.4016 162.549 91.3355 161.886 91.0547 161.389C89.4854 158.506 66.7218 157.893 65.9288 162.168C65.3176 165.482 81.7213 169.459 85.2564 169.592C86.9579 169.642 88.6099 168.399 89.7497 166.808C87.3214 172.79 85.9833 179.22 85.8677 185.401C68.7041 184.125 55.3895 182.236 45.0814 179.85C45.0814 176.105 49.1287 175.127 52.0691 173.735C52.1517 173.685 52.2508 173.635 52.3499 173.602C55.2904 172.277 61.6008 172.707 61.7164 170.769C61.832 168.995 54.6461 167.123 50.2685 165.283H50.252C45.4779 162.151 37.7138 158.108 29.8176 153.766H29.801C29.801 153.766 29.7184 153.717 29.6854 153.7C23.821 150.469 17.9401 147.071 13.133 143.79C13.1165 143.79 13.1165 143.79 13.1 143.79C5.56716 138.603 0.776557 133.682 3.2049 129.97C3.73352 129.141 4.92291 128.677 6.6244 128.495V128.661C51.2431 138.206 77.8888 154.413 82.1838 148.745C85.1078 144.917 82.3325 138.139 85.9833 136.731C89.2706 135.455 96.0931 143.641 98.8684 152.043V152.026Z" fill="#77B566"/>
<path d="M92.3101 105.046C94.755 110.465 90.2782 115.321 89.8322 120.226C89.8157 120.491 89.7992 120.74 89.7992 120.988L86.2145 121.021C85.9502 115.768 85.851 109.918 85.1242 108.046C84.2652 105.825 82.6133 104.516 80.697 103.439C81.6551 101.997 82.5472 100.506 83.4062 98.8984C86.7761 100.257 90.526 101.285 92.3101 105.046Z" fill="#C47B49"/>
<path d="M91.0547 161.389C91.3355 161.886 91.4016 162.549 91.2859 163.295C90.7243 164.438 90.2122 165.615 89.7496 166.808C88.6098 168.399 86.9579 169.642 85.2564 169.592C81.7212 169.46 65.3175 165.482 65.9288 162.168C66.7217 157.893 89.4853 158.506 91.0547 161.389Z" fill="#6A964D"/>
<path d="M89.7498 166.808C90.2123 165.615 90.7244 164.438 91.286 163.295C91.1208 164.405 90.5592 165.698 89.7498 166.808Z" fill="#6A964D"/>
<path d="M40.2579 127.285C27.158 98.7325 19.8235 69.6497 24.8619 62.7725C25.0766 62.4743 25.44 62.2754 25.9191 62.1428L25.9687 62.3085C43.1653 70.8594 54.0515 75.4331 60.6262 78.7971C66.5071 81.8131 68.9355 83.8514 69.3154 86.9171C69.6293 89.5188 68.9354 93.5457 71.6942 97.5062C73.8747 100.638 77.6246 101.715 80.6972 103.439C82.6135 104.516 84.2654 105.825 85.1244 108.046C85.8513 109.918 85.9504 115.768 86.2147 121.021C86.3799 124.733 86.6111 128.147 87.1893 129.655C84.2984 127.269 81.8371 125.993 80.6972 126.457C78.5828 127.318 78.8305 129.39 79.5739 131.759L75.9396 132.654C72.9166 136.317 70.3726 139.084 67.6965 141.47C61.2374 140.227 52.8952 138.04 44.3547 135.786H44.3381C42.934 132.969 41.5629 130.135 40.2744 127.285H40.2579Z" fill="#E09F57"/>
<path d="M83.4064 98.8983C82.5474 100.506 81.6554 101.997 80.6972 103.439C77.6246 101.715 73.8747 100.638 71.6942 97.5063C68.9354 93.5457 69.6293 89.5189 69.3154 86.9171C68.9355 83.8514 66.5071 81.8131 60.6262 78.7971C60.8905 77.5874 61.1053 76.3446 61.2705 75.052C66.8375 77.8691 72.6854 81.1006 78.6323 84.564C76.3361 89.4029 76.5674 92.5017 77.6081 94.54C78.814 96.8766 80.9946 97.9703 83.4064 98.8983Z" fill="#C47B49"/>
<path d="M79.5737 131.76C80.7135 135.538 83.0593 140.128 79.0946 142.084C77.3436 142.945 73.2137 142.564 67.6963 141.47C70.3724 139.084 72.9164 136.317 75.9394 132.654L79.5737 131.76Z" fill="#E09F57"/>
<path d="M50.2686 165.283C54.6462 167.123 61.8321 168.995 61.7165 170.769C61.6008 172.707 55.2904 172.277 52.35 173.602C54.1506 172.724 55.4556 171.647 54.9931 169.592C54.7453 168.548 52.9942 167.073 50.2686 165.283Z" fill="#6A964D"/>
<path d="M61.2703 75.0356C61.1051 76.3447 60.8904 77.5876 60.6261 78.7973C54.0514 75.4333 43.1651 70.8596 25.9685 62.3087L25.9189 62.143C30.1479 61.0659 44.2554 66.3521 61.2703 75.0356Z" fill="#C47B49"/>
<path d="M50.252 165.283H50.2685C52.9942 167.073 54.7452 168.548 54.993 169.592C55.4556 171.647 54.1506 172.724 52.35 173.602C52.2508 173.635 52.1517 173.685 52.0691 173.735C49.1287 175.127 45.0814 176.105 45.0814 179.833C28.1161 175.906 19.2617 170.636 14.6528 164.455C17.6098 160.478 22.1691 156.882 29.6524 153.766L29.6854 153.7C29.6854 153.7 29.768 153.75 29.801 153.766H29.8176C37.7138 158.108 45.4779 162.151 50.252 165.283Z" fill="#C47B49"/>
<path d="M40.2578 127.285C41.5463 130.135 42.9174 132.969 44.3216 135.786C38.7711 134.345 33.171 132.853 27.9014 131.627C31.3539 130.069 35.4011 128.627 40.2578 127.285Z" fill="#AD7766"/>
<path d="M10.1594 153.087V153.037C10.6385 149.822 11.3488 146.906 12.9842 143.973L13.1164 143.774C13.1164 143.774 13.1329 143.774 13.1494 143.774C17.9565 147.055 23.8374 150.452 29.7018 153.683L29.6688 153.75C22.1855 156.865 17.6262 160.461 14.6692 164.438C12.0426 160.892 10.7872 157.097 10.1759 153.07L10.1594 153.087Z" fill="#AD7766"/>
<path d="M202.197 140.691C205.121 140.923 207.979 141.586 210.737 142.564C211.679 142.895 212.62 143.26 213.546 143.674C219.096 146.11 224.25 149.822 228.628 154.363C229.371 155.108 230.065 155.904 230.759 156.716C234.856 161.455 238.093 166.857 240.158 172.459C241.348 175.723 242.157 179.037 242.471 182.319" stroke="#3F2A25" stroke-linecap="round" stroke-linejoin="round"/>
<path d="M166.598 163.891C169.389 166.145 172.198 168.448 174.956 170.851C176.592 172.276 178.26 173.718 179.879 175.209C181.3 176.452 182.687 177.712 184.059 179.021C184.29 179.203 184.538 179.419 184.752 179.651C185.132 180.015 185.545 180.38 185.925 180.728C188.04 182.733 190.154 184.738 192.203 186.793" stroke="#3F2A25" stroke-linecap="round" stroke-linejoin="round"/>
<path d="M240.158 172.442C255.191 169.426 268.026 161.306 273.048 155.572C274.667 153.716 275.477 152.125 275.295 151.015C274.039 143.028 262.823 149.723 261.881 143.873C261.584 142 265.053 137.228 269.877 131.179C282.018 116.049 302.734 92.982 294.969 87.5631C289.006 83.4368 257.52 110.863 239.811 122.446C239.332 122.777 238.87 123.076 238.391 123.374C234.261 126.009 230.99 127.616 229.223 127.484C226.15 127.252 225.423 124.667 225.175 121.75H225.159C224.828 117.939 225.225 113.63 221.904 113.63C220.451 113.63 218.221 116.58 216.123 120.921C213.314 126.837 210.754 135.339 210.754 142.547" stroke="#3F2A25" stroke-linecap="round" stroke-linejoin="round"/>
<path d="M171.008 157.959C186.553 165.018 198.843 173.072 204.658 186.296" stroke="#3F2A25" stroke-linecap="round" stroke-linejoin="round"/>
<path d="M284.215 188.682C284.215 243.119 284.215 287.266 149.55 287.266C14.884 287.266 14.884 243.136 14.884 188.682" stroke="#3F2A25" stroke-linecap="round" stroke-linejoin="round"/>
<path d="M289.617 164.62C289.617 189.958 289.617 210.507 149.533 210.507C9.44922 210.507 9.44922 189.958 9.44922 164.62" stroke="#3F2A25" stroke-linecap="round" stroke-linejoin="round"/>
<path d="M289.089 153.136C288.494 157.213 287.255 161.074 284.612 164.62C274.419 178.358 243.462 187.572 149.533 187.572C55.6043 187.572 24.6966 178.342 14.4876 164.637C11.8611 161.091 10.6056 157.279 9.99438 153.252" stroke="#3F2A25" stroke-linecap="round" stroke-linejoin="round"/>
<path d="M269.876 131.163C283.687 137.029 287.833 144.602 289.072 153.12C289.617 156.815 289.617 160.643 289.617 164.604" stroke="#3F2A25" stroke-linecap="round" stroke-linejoin="round"/>
<path d="M225.175 121.75H225.142" stroke="#3F2A25" stroke-linecap="round" stroke-linejoin="round"/>
<path d="M40.1091 127.467C35.2525 128.793 31.1887 130.235 27.7527 131.792" stroke="#3F2A25" stroke-linecap="round" stroke-linejoin="round"/>
<path d="M12.9679 143.972C11.3325 146.906 10.457 149.988 9.97792 153.219V153.269C9.46582 156.898 9.46582 160.71 9.46582 164.604" stroke="#3F2A25" stroke-linecap="round" stroke-linejoin="round"/>
<path d="M115.288 119.198C105.955 119.496 97.4476 119.894 89.667 120.408" stroke="#3F2A25" stroke-linecap="round" stroke-linejoin="round"/>
<path d="M189.113 142.332H189.097H189.081" stroke="#3F2A25" stroke-linecap="round" stroke-linejoin="round"/>
<path d="M284.612 164.604C282.167 161.306 278.5 158.274 273.065 155.556" stroke="#3F2A25" stroke-linecap="round" stroke-linejoin="round"/>
<path d="M29.6523 153.948H29.6358C22.1525 157.064 17.4445 160.676 14.4875 164.637" stroke="#3F2A25" stroke-linecap="round" stroke-linejoin="round"/>
<path d="M239.811 122.446C245.329 94.0425 245.709 67.7768 239.762 62.5237C237.086 60.1705 223.226 68.8043 206.707 82.3928C200 87.8945 192.814 94.2414 185.793 101.003" stroke="#3F2A25" stroke-linecap="round" stroke-linejoin="round"/>
<path d="M193.904 114.591C193.904 114.591 193.937 114.624 193.937 114.641C198.893 119.38 204.526 123.092 212.439 128.014" stroke="#3F2A25" stroke-linecap="round" stroke-linejoin="round"/>
<path d="M206.69 82.3928C210.357 92.8163 217.296 99.4117 227.257 104.797" stroke="#3F2A25" stroke-linecap="round" stroke-linejoin="round"/>
<path d="M192.203 186.793C190.154 184.738 188.04 182.733 185.925 180.728C185.545 180.363 185.132 179.999 184.752 179.651C184.521 179.419 184.273 179.203 184.059 179.021C182.687 177.728 181.3 176.452 179.879 175.209C178.26 173.718 176.592 172.276 174.956 170.851C172.198 168.432 169.389 166.145 166.598 163.891C159.659 158.389 152.754 153.435 146.213 149.573C139.985 145.928 134.104 143.193 128.851 141.835C128.041 141.603 127.249 141.437 126.472 141.288C124.159 140.857 121.979 140.724 119.997 140.923C119.517 140.989 119.055 141.039 118.576 141.105C116.973 141.354 115.404 141.719 113.901 142.183C113.884 142.183 113.851 142.199 113.835 142.199C113.471 142.315 113.108 142.431 112.778 142.564C112.761 142.564 112.728 142.58 112.711 142.613C108.648 144.072 104.964 146.342 101.726 149.225C91.798 158.041 85.9502 172.343 85.7024 185.583M93.6317 209.065H93.6151" stroke="#3F2A25" stroke-linecap="round" stroke-linejoin="round"/>
<path d="M44.9162 180.015C44.9162 173.817 56.0668 175.193 54.8278 169.774C54.1505 166.857 42.0584 160.776 29.6523 153.948H29.6358C23.7384 150.7 17.808 147.27 12.9843 143.989C5.435 138.802 0.627865 133.864 3.05621 130.135C4.98897 127.185 15.2805 128.826 27.7526 131.809C33.0058 133.052 38.6389 134.543 44.1894 135.985C52.7299 138.239 61.0721 140.426 67.5147 141.669C73.0486 142.746 77.1785 143.127 78.9295 142.282C85.3886 139.084 75.0805 128.892 80.5319 126.655C83.7201 125.346 97.0017 137.609 101.726 149.242" stroke="#3F2A25" stroke-linecap="round" stroke-linejoin="round"/>
<path d="M192.203 186.793C190.154 184.738 188.04 182.733 185.925 180.728C185.545 180.363 185.132 179.999 184.752 179.651C184.521 179.419 184.273 179.203 184.059 179.021C182.687 177.712 181.3 176.452 179.879 175.209C178.26 173.718 176.592 172.276 174.956 170.851C172.198 168.432 169.389 166.145 166.598 163.891C167.704 162.317 168.795 160.809 169.918 159.351C170.281 158.87 170.645 158.423 171.025 157.959C172.445 156.136 173.932 154.379 175.386 152.788H175.402C180.028 147.767 184.637 144.055 189.064 142.332C189.064 142.332 189.069 142.332 189.08 142.332" stroke="#3F2A25" stroke-linecap="round" stroke-linejoin="round"/>
<path d="M118.576 141.105C118.146 140.045 117.75 138.984 117.387 137.94C115.9 133.748 114.958 129.837 114.71 126.324C114.578 124.435 114.644 122.628 114.942 120.971C115.057 120.358 115.173 119.761 115.305 119.165C116.792 112.967 120.063 107.648 124.506 103.289H124.523C134.567 93.4128 150.508 88.6403 164.285 90.082C168.844 90.5791 173.189 91.7557 176.988 93.6448C180.226 95.2688 183.15 97.7711 185.793 101.003C188.833 104.698 191.542 109.305 193.904 114.575C193.904 114.591 193.921 114.591 193.921 114.624C194.647 116.248 195.341 117.922 195.986 119.645C198.463 126.025 200.512 133.151 202.197 140.658C198.397 140.293 194.548 140.608 190.683 141.735C190.171 141.901 189.626 142.067 189.113 142.299H189.097" stroke="#3F2A25" stroke-linecap="round" stroke-linejoin="round"/>
<path d="M124.506 103.306C113.306 97.7381 102.073 83.5529 103.609 80.4375C106.203 75.1678 115.602 86.2209 119.253 80.0066C123.928 72.0192 104.7 7.67236 112.761 3.18151C124.341 -3.24821 142.099 55.9615 148.377 57.9004C154.043 59.6569 153.019 46.6152 160.7 49.0181C165.094 50.3935 169.488 70.4946 164.268 90.1152" stroke="#3F2A25" stroke-linecap="round" stroke-linejoin="round"/>
<path d="M126.472 141.304C137.623 133.002 148.625 127.649 160.898 128.196" stroke="#3F2A25" stroke-linecap="round" stroke-linejoin="round"/>
<path d="M174.742 153.186C174.973 153.054 175.171 152.904 175.386 152.805H175.419" stroke="#3F2A25" stroke-linecap="round" stroke-linejoin="round"/>
<path d="M44.1728 135.985C28.5785 104.947 19.1625 70.5111 24.6964 62.9545C26.7944 60.0877 42.1243 65.5397 61.0885 75.2174C66.6556 78.0677 72.5034 81.2825 78.4504 84.746" stroke="#3F2A25" stroke-linecap="round" stroke-linejoin="round"/>
<path d="M117.387 137.94C115.883 139.631 114.347 141.188 112.712 142.63" stroke="#3F2A25" stroke-linecap="round" stroke-linejoin="round"/>
<path d="M83.2245 99.0637C78.9625 107.084 73.6433 112.569 65.2019 120.822" stroke="#3F2A25" stroke-linecap="round" stroke-linejoin="round"/>
<path d="M61.1053 75.2175C59.7507 86.1381 54.3984 94.0427 45.8579 101.417" stroke="#3F2A25" stroke-linecap="round" stroke-linejoin="round"/>
<path d="M75.7742 132.82C72.7347 136.482 70.1907 139.266 67.498 141.652" stroke="#3F2A25" stroke-linecap="round" stroke-linejoin="round"/>
<path d="M78.4504 84.7461C76.1542 89.585 76.3855 92.6838 77.4262 94.7387C78.6321 97.0752 80.8292 98.169 83.2245 99.097C86.5945 100.456 90.3444 101.483 92.1284 105.245C95.2506 112.139 87.1561 118.104 90.3939 124.451C93.1526 129.721 102.106 132.074 108.367 130.036C111.935 128.876 113.339 127.318 114.694 126.374" stroke="#3F2A25" stroke-linecap="round" stroke-linejoin="round"/>
<path d="M142.116 148.563C131.081 161.107 123.251 173.238 123.003 187.307" stroke="#3F2A25" stroke-linecap="round" stroke-linejoin="round"/>
<path d="M184.752 179.651C181.316 182.335 178.541 184.788 176.212 187.29" stroke="#3F2A25" stroke-linecap="round" stroke-linejoin="round"/>
</svg>
