<svg width="299" height="206" viewBox="0 0 299 206" fill="none" xmlns="http://www.w3.org/2000/svg">
<path d="M238.688 38.5419C238.869 38.4256 239.068 38.2927 239.249 38.1598C256.958 26.5307 288.461 -0.947003 294.407 3.18961C302.106 8.53896 281.919 31.2322 269.728 46.3998" stroke="#3F2A25" stroke-width="2" stroke-linecap="round" stroke-linejoin="round"/>
<path d="M224.613 37.4621H224.597C224.58 37.2295 224.564 36.9969 224.547 36.781C224.283 33.1427 224.465 29.3218 221.326 29.3218C219.938 29.3218 217.857 31.9965 215.875 35.9836" stroke="#3F2A25" stroke-width="2" stroke-linecap="round" stroke-linejoin="round"/>
<path d="M14.3386 103.448V103.947C14.3386 158.304 14.7516 203.392 149.004 203.392C283.257 203.392 283.67 158.288 283.67 103.93V103.448" stroke="#3F2A25" stroke-width="2" stroke-linecap="round" stroke-linejoin="round"/>
<path d="M283.67 103.93C289.072 97.0526 289.072 89.012 289.072 80.4397" stroke="#3F2A25" stroke-width="2" stroke-linecap="round" stroke-linejoin="round"/>
<path d="M8.92023 80.4397C8.92023 89.0286 8.92023 97.0692 14.3386 103.947" stroke="#3F2A25" stroke-width="2" stroke-linecap="round" stroke-linejoin="round"/>
<path d="M224.613 37.4622H224.597" stroke="#3F2A25" stroke-width="2" stroke-linecap="round" stroke-linejoin="round"/>
<path d="M8.90375 80.4231C8.90375 79.011 8.90375 77.5989 8.93679 76.22C8.93679 75.6884 8.95329 75.1568 8.96981 74.6418C9.03589 72.7479 9.16807 70.8873 9.43238 69.0599V69.01" stroke="#3F2A25" stroke-width="2" stroke-linecap="round" stroke-linejoin="round"/>
<path d="M12.1746 59.5737C4.7739 54.4237 0.0824126 49.5395 2.47772 45.8681C4.36092 42.9608 14.2064 44.4726 26.2656 47.3134" stroke="#3F2A25" stroke-width="2" stroke-linecap="round" stroke-linejoin="round"/>
<path d="M8.92023 79.7584V78.3131C8.92023 77.0671 8.92023 75.8378 8.96978 74.6416C9.10194 69.2923 9.69664 64.2087 12.1745 59.5737" stroke="#3F2A25" stroke-width="2" stroke-linecap="round" stroke-linejoin="round"/>
<path d="M269.728 46.3997C289.072 54.7892 289.072 66.6342 289.072 79.7584" stroke="#3F2A25" stroke-width="2" stroke-linecap="round" stroke-linejoin="round"/>
<path d="M26.2656 47.3134C29.8172 45.6023 34.0957 44.0407 39.2663 42.612C50.8794 39.4057 66.9527 36.9636 89.1877 35.4518C96.9683 34.9202 105.525 34.5215 114.908 34.2391C125.233 33.9235 136.565 33.7573 149.004 33.7573C166.482 33.7573 181.779 34.073 195.176 34.6876C196.349 34.7375 197.522 34.8039 198.661 34.8538C204.807 35.1694 210.539 35.5515 215.875 35.9835" stroke="#3F2A25" stroke-width="2" stroke-linecap="round" stroke-linejoin="round"/>
<path d="M238.688 38.542C234.36 37.8775 229.652 37.296 224.547 36.781" stroke="#3F2A25" stroke-width="2" stroke-linecap="round" stroke-linejoin="round"/>
<path d="M8.90378 77.9644C8.90378 76.7184 8.9203 75.4891 8.95333 74.293C9.01941 72.3991 9.15156 70.5385 9.41587 68.711C10.0271 72.6317 11.2165 76.3197 13.6779 79.7586C13.7439 79.8749 13.8265 79.9746 13.9091 80.0909C18.518 86.3041 27.3724 91.587 44.3378 95.5409C54.6458 97.9165 67.9604 99.8104 85.124 101.09C95.9607 101.92 108.317 102.485 122.441 102.801C130.668 102.983 139.506 103.083 148.971 103.083C158.437 103.083 167.39 102.983 175.666 102.801C181.25 102.684 186.553 102.518 191.608 102.302C195.936 102.136 200.066 101.92 204.014 101.688C219.195 100.791 231.651 99.4781 241.909 97.8168C266.705 93.7633 278.466 87.5999 284.033 80.0743C284.116 79.958 284.199 79.8583 284.265 79.742C286.759 76.2865 287.932 72.532 288.51 68.5947V68.5615H288.527C289.055 72.2828 289.055 76.1536 289.055 80.0743C289.055 88.8126 289.055 96.9862 283.373 103.947C272.503 117.221 240.901 126.092 148.971 126.092C57.0411 126.092 25.4562 117.221 14.5864 103.947C8.90378 96.9862 8.90378 88.8126 8.90378 80.0743H8.88727C8.88727 79.3765 8.88726 78.6621 8.90378 77.9644Z" fill="#BC7171"/>
<path d="M288.527 68.5618H288.51V68.595C287.932 72.5322 286.759 76.2868 284.265 79.7422C284.199 79.6259 284.116 79.5096 284.033 79.3934C281.638 76.1705 278.103 73.1968 272.883 70.5387C274.237 68.8774 274.898 67.4487 274.733 66.4519C273.461 58.4445 262.244 65.1561 261.303 59.2751C261.022 57.3979 264.474 52.6134 269.315 46.5497L269.711 46.0513C283.273 51.9322 287.321 59.84 288.527 68.5618Z" fill="#BC7171"/>
<path d="M283.373 103.947L283.637 104.213C283.637 158.786 283.637 203.043 148.988 203.043C14.3387 203.043 14.3221 158.786 14.3221 104.213L14.5865 103.947C25.4562 117.221 57.0577 126.092 148.971 126.092C240.885 126.092 272.503 117.221 283.373 103.947Z" fill="#BC7171"/>
<path d="M272.486 71.0203C272.618 70.8542 272.767 70.7047 272.883 70.5386C278.103 73.1966 281.638 76.1703 284.033 79.3932C284.116 79.5095 284.198 79.6258 284.265 79.7421C284.198 79.8584 284.116 79.9581 284.033 80.0744C278.466 87.6 266.705 93.7634 241.909 97.817C241.595 94.5276 240.786 91.205 239.596 87.9157C254.629 84.8921 267.464 76.7518 272.486 71.0203Z" fill="#BC7171"/>
<path d="M224.597 37.0969H224.58C224.58 36.8809 224.547 36.6483 224.531 36.4324C229.635 36.9474 234.343 37.5288 238.671 38.1933C238.39 38.3761 238.11 38.5588 237.812 38.7249C233.682 41.383 230.428 42.9778 228.644 42.8449C225.571 42.6124 224.845 40.0208 224.597 37.0969Z" fill="#BC7171"/>
<path d="M224.531 36.4323C224.547 36.6482 224.564 36.8808 224.58 37.0968H224.597C224.845 40.0207 225.571 42.6123 228.644 42.8448C230.428 42.9777 233.682 41.3829 237.812 38.7248C238.11 38.5587 238.39 38.376 238.671 38.1932C238.853 38.0769 239.051 37.944 239.233 37.8111C256.942 26.1821 288.444 -1.29564 294.391 2.84098C302.089 8.19033 281.902 30.8836 269.711 46.0511L269.315 46.5495C264.474 52.6132 261.022 57.3977 261.303 59.275C262.244 65.156 273.461 58.4444 274.733 66.4518C274.898 67.4486 274.237 68.8773 272.883 70.5386C272.767 70.7047 272.619 70.8542 272.486 71.0203C267.464 76.7518 254.629 84.8921 239.596 87.9157C237.531 82.3171 234.294 76.8847 230.197 72.1334C229.503 71.3194 228.809 70.5385 228.066 69.791C223.688 65.239 218.534 61.5177 212.984 59.0757C212.306 58.7766 211.613 58.4942 210.919 58.245H210.902C210.671 58.1453 210.423 58.0457 210.175 57.9626C210.175 50.7194 212.736 42.1969 215.544 36.2661C215.643 36.0502 215.742 35.8342 215.858 35.6348C217.84 31.6477 219.922 28.9731 221.309 28.9731C224.448 28.9731 224.266 32.794 224.531 36.4323Z" fill="#BC7171"/>
<path d="M204.014 101.688C200.066 101.92 195.936 102.136 191.608 102.302C189.559 100.242 187.461 98.2489 185.347 96.2387C184.967 95.8732 184.57 95.5078 184.19 95.1589H184.174C184.058 95.026 183.943 94.9097 183.827 94.8266C183.711 94.6937 183.596 94.6106 183.497 94.5276H183.48C182.109 93.1986 180.721 91.936 179.301 90.7066C177.682 89.2115 176.03 87.7661 174.378 86.3374C173.684 85.7228 172.99 85.1247 172.297 84.5432C170.215 82.7657 168.117 81.0545 166.019 79.3434C167.126 77.7652 168.233 76.2534 169.356 74.8081C169.703 74.3263 170.066 73.8778 170.446 73.4126C185.941 80.4565 198.182 88.5137 204.014 101.688Z" fill="#BC7171"/>
<path d="M174.841 68.2294C179.466 63.1957 184.075 59.4744 188.502 57.7467H188.535C189.064 57.5141 189.576 57.3313 190.104 57.1818C190.171 57.1652 190.22 57.1486 190.286 57.132C194.086 56.0355 197.869 55.7365 201.602 56.0854H201.618C204.542 56.3179 207.384 56.9991 210.159 57.9626C210.407 58.0457 210.655 58.1454 210.886 58.245H210.902C211.596 58.4942 212.29 58.7767 212.967 59.0757C218.518 61.5178 223.672 65.2391 228.049 69.791C228.793 70.5386 229.487 71.3194 230.18 72.1334C234.277 76.8847 237.515 82.3171 239.58 87.9157C240.769 91.205 241.579 94.5276 241.893 97.8004C231.634 99.4783 219.178 100.791 203.997 101.688C198.166 88.5138 185.925 80.4565 170.43 73.4126C171.851 71.5686 173.337 69.8076 174.791 68.2294H174.824H174.841Z" fill="#BC7171"/>
<path d="M175.667 102.801C177.996 100.309 180.738 97.8502 184.174 95.1589H184.19C184.57 95.5078 184.967 95.8733 185.347 96.2388C187.461 98.2489 189.559 100.242 191.608 102.302C186.553 102.518 181.25 102.685 175.667 102.801Z" fill="#BC7171"/>
<path d="M183.497 94.5276C183.596 94.6107 183.711 94.6937 183.827 94.8266C183.728 94.727 183.612 94.6273 183.497 94.5276Z" fill="#BC7171"/>
<path d="M179.301 90.7065C180.721 91.9359 182.109 93.1985 183.48 94.5275C182.109 93.2151 180.721 91.9525 179.301 90.7065Z" fill="#BC7171"/>
<path d="M183.497 94.5276C183.612 94.6273 183.728 94.727 183.827 94.8267C183.943 94.9097 184.058 95.026 184.174 95.1589C180.738 97.8502 177.996 100.309 175.666 102.801C167.39 102.984 158.503 103.083 148.971 103.083C139.44 103.083 130.668 102.984 122.441 102.801C122.689 88.6965 130.503 76.5525 141.538 63.9765L142.066 62.9963C143.239 63.6276 144.428 64.2922 145.634 65.0065C152.176 68.8607 159.081 73.8446 166.019 79.3601C168.117 81.0546 170.215 82.7823 172.297 84.5433C172.99 85.1247 173.684 85.7228 174.378 86.3375C176.03 87.7662 177.682 89.2115 179.301 90.7067C180.721 91.9526 182.109 93.2152 183.48 94.5276H183.497Z" fill="#BC7171"/>
<path d="M142.066 62.9964L141.538 63.9765C130.503 76.5525 122.689 88.6966 122.441 102.801C108.317 102.485 95.9607 101.92 85.124 101.106C85.3718 87.8161 91.2031 73.4957 101.148 64.6577C104.386 61.767 108.069 59.5077 112.133 58.0457C112.15 58.0291 112.183 58.0125 112.199 57.9959C112.546 57.863 112.893 57.7467 113.256 57.6304C113.289 57.6304 113.306 57.6138 113.323 57.6138C114.297 57.2981 115.288 57.049 116.296 56.833H116.313C116.874 56.7167 117.436 56.6004 117.997 56.5174C118.477 56.4509 118.956 56.4177 119.418 56.3346C121.252 56.1519 123.234 56.2515 125.365 56.617H125.382C125.547 56.617 125.729 56.6669 125.894 56.7001C126.687 56.833 127.463 57.0158 128.273 57.2483C132.501 58.3448 137.143 60.3383 142.066 62.9964Z" fill="#BC7171"/>
<path d="M128.273 57.2482C127.463 57.0156 126.687 56.8328 125.894 56.6999C125.943 56.6667 125.976 56.6335 126.026 56.6003C133.228 56.4673 140.877 56.4009 148.988 56.4009C164.384 56.4009 178.095 56.6501 190.303 57.1319C190.237 57.1485 190.187 57.1651 190.121 57.1817C189.592 57.3312 189.08 57.5139 188.552 57.7465H188.519C184.091 59.4743 179.483 63.1956 174.857 68.2293H174.824C173.37 69.8075 171.884 71.5685 170.463 73.4125C170.083 73.8777 169.72 74.3262 169.373 74.808C168.249 76.2533 167.143 77.7651 166.036 79.3433C168.134 81.0544 170.232 82.7656 172.313 84.5431C170.232 82.7822 168.134 81.0544 166.036 79.3599C159.098 73.8444 152.193 68.8606 145.651 65.0064C144.445 64.292 143.256 63.6275 142.083 62.9962C137.16 60.3381 132.518 58.3446 128.289 57.2482H128.273Z" fill="#BC7171"/>
<path d="M126.026 56.6003C126.026 56.6003 125.943 56.6668 125.894 56.7C125.729 56.6668 125.547 56.6336 125.382 56.6169C125.596 56.6003 125.811 56.6003 126.026 56.6003Z" fill="#BC7171"/>
<path d="M126.026 56.6003C125.811 56.6003 125.596 56.6003 125.382 56.6169H125.365C123.234 56.2514 121.252 56.1518 119.418 56.3345C118.956 56.4176 118.477 56.4508 117.997 56.5172C117.436 56.6003 116.874 56.7166 116.313 56.8329H116.296C115.305 56.8661 114.314 56.8993 113.356 56.9326C107.722 57.1153 102.403 57.3313 97.3648 57.5971C91.4509 48.5763 82.4974 40.9676 79.9534 41.9976C74.5186 44.2403 84.8101 54.4572 78.3511 57.6635C76.6 58.5274 72.4702 58.1453 66.9362 57.0655C60.4772 55.8195 52.1514 53.6266 43.5944 51.3672C38.0439 49.9219 32.4273 48.4267 27.1742 47.1808C26.8603 47.1143 26.563 47.0313 26.2491 46.9648C29.8007 45.2537 34.0792 43.6921 39.2498 42.2634C50.8629 39.0571 66.9362 36.615 89.1712 35.1032C96.9518 34.5716 105.509 34.1729 114.892 33.8905C125.216 33.5748 136.549 33.4087 148.988 33.4087C166.465 33.4087 181.762 33.7243 195.159 34.339C196.332 34.3888 197.505 34.4553 198.645 34.5051C204.79 34.8208 210.522 35.2029 215.858 35.6348C215.742 35.8342 215.643 36.0501 215.544 36.2661C212.736 42.1969 210.175 50.7193 210.175 57.946C207.4 56.999 204.559 56.3179 201.635 56.0853H201.618C197.885 55.7364 194.102 56.0355 190.303 57.1319C178.095 56.6501 164.384 56.4009 148.988 56.4009C140.877 56.4009 133.228 56.4674 126.026 56.6003Z" fill="#BC7171"/>
<path d="M112.199 57.9959C112.596 57.647 112.976 57.2982 113.356 56.9327C114.314 56.8995 115.305 56.8662 116.296 56.833C115.288 57.049 114.297 57.2981 113.323 57.6138C113.306 57.6138 113.289 57.6304 113.256 57.6304C112.893 57.7467 112.546 57.863 112.199 57.9959Z" fill="#BC7171"/>
<path d="M112.199 57.9958C112.199 57.9958 112.15 58.0291 112.133 58.0457C108.069 59.5076 104.386 61.767 101.148 64.6576C100.19 62.2986 98.8846 59.9063 97.3649 57.5971C102.403 57.3313 107.722 57.1154 113.356 56.9326C112.976 57.2981 112.596 57.647 112.199 57.9958Z" fill="#BC7171"/>
<path d="M97.3648 57.597C98.8846 59.9062 100.19 62.2985 101.148 64.6575C91.2031 73.4956 85.3718 87.8159 85.124 101.09C67.9604 99.8104 54.6458 97.9165 44.3378 95.5409V95.5077C44.3378 89.2945 55.4883 90.6733 54.2494 85.2575C53.5886 82.3336 41.4965 76.2367 29.0739 69.3756H29.0574C28.8261 69.2427 28.5783 69.1098 28.3471 68.9935C22.6974 65.837 17.0313 62.5643 12.4059 59.3912C12.3233 59.3414 12.2407 59.2749 12.1581 59.2251C4.74092 54.0751 0.0659556 49.1909 2.46126 45.5028C4.34446 42.6122 14.1735 44.1074 26.2491 46.9648C26.563 47.0312 26.8603 47.1143 27.1742 47.1807C32.4273 48.4267 38.0439 49.9219 43.5944 51.3672C52.1514 53.6265 60.4772 55.8195 66.9362 57.0654C72.4702 58.1453 76.6 58.5274 78.3511 57.6635C84.8101 54.4572 74.5186 44.2402 79.9534 41.9975C82.4974 40.9675 91.4509 48.5762 97.3648 57.597Z" fill="#BC7171"/>
<path d="M28.3471 68.9937C28.5784 69.1099 28.8261 69.2428 29.0574 69.3757H29.074C41.4965 76.2369 53.5886 82.3338 54.2494 85.2577C55.4884 90.6735 44.3378 89.2946 44.3378 95.5079V95.5411C27.3724 91.5872 18.5181 86.3043 13.9092 80.0911C13.8266 79.9748 13.744 79.8751 13.6779 79.7588C13.744 79.6425 13.8266 79.5428 13.9092 79.4266C16.7836 75.5557 21.2933 72.0338 28.3471 68.9937Z" fill="#BC7171"/>
<path d="M9.41591 68.7111C9.1516 70.5385 9.01945 72.3991 8.95337 74.293C9.08552 68.9437 9.68022 63.8601 12.1581 59.2251C12.2407 59.2749 12.3233 59.3414 12.4059 59.3912C17.0313 62.5643 22.6975 65.837 28.3471 68.9935C21.2933 72.0337 16.7835 75.5556 13.9092 79.4264C13.8266 79.5427 13.744 79.6424 13.6779 79.7586C11.2165 76.3198 10.0271 72.6317 9.41591 68.7111Z" fill="#BC7171"/>
<path d="M294.391 2.74112C296.787 4.40241 296.489 7.74161 294.557 12.0111C294.557 12.0277 294.54 12.0277 294.54 12.0443C282.134 28.325 272.255 38.2097 265.268 44.6887C255.967 53.3108 251.771 55.9522 253.473 59.6403C254.761 62.4479 257.834 64.0926 259.816 65.9366C260.956 66.9832 261.733 68.0963 261.667 69.5084C261.419 74.7082 247.889 81.6524 237.994 84.0281C236.458 80.7221 234.509 77.5324 232.229 74.5587C236.987 72.7811 240.737 70.7045 240.406 69.3921C240.142 68.3621 237.747 67.7806 234.41 67.8471C236.21 66.1193 238.143 63.9264 239.778 61.7169C242.768 57.7464 244.833 53.7095 243.594 52.231C241.86 50.1544 232.89 56.2845 228.165 60.1885C226.992 61.1687 226.067 61.9993 225.605 62.531C224.564 63.7105 224.581 65.3718 225.142 66.9168C221.458 63.6108 217.345 60.9029 212.984 58.9758C212.802 58.8927 212.621 58.8097 212.422 58.7432H212.406C211.679 58.4276 210.919 58.1452 210.176 57.8627C210.176 50.6195 212.736 42.0971 215.545 36.1663C215.578 36.1164 215.594 36.05 215.627 36.0002C217.692 31.7472 219.873 28.8732 221.31 28.8732C224.597 28.8732 224.25 33.0431 224.564 36.8142C224.564 36.8806 224.581 36.9305 224.581 36.9969H224.597C224.597 36.9969 224.614 37.1132 224.614 37.1631H224.432C224.432 40.3694 221.706 44.7385 223.391 45.7685C225.225 46.8982 229.702 43.1437 233.105 41.3661C233.171 41.3329 233.22 41.3163 233.27 41.2831C234.624 40.6019 236.144 39.7048 237.813 38.625C237.895 38.5752 237.961 38.5253 238.044 38.4755H238.06C238.457 38.2429 238.837 37.9937 239.233 37.7113C256.942 26.0822 288.444 -1.39549 294.391 2.74112Z" fill="#77B566"/>
<path d="M284.1 79.8747C286.693 76.3694 287.916 72.5318 288.51 68.4949C289.039 72.1829 289.039 76.0205 289.039 79.9744H289.056C289.056 88.7294 289.056 96.8863 283.373 103.847C278.946 109.246 271.066 113.931 257.074 117.569C261.716 113.283 260.973 100.059 257.206 94.9094L257.124 94.5771C271.826 90.7395 279.755 85.7391 284.034 79.9744C284.05 79.9412 284.083 79.9079 284.1 79.8747Z" fill="#AD7766"/>
<path d="M288.51 68.4784C287.916 72.532 286.693 76.3695 284.1 79.8749C284.083 79.8416 284.05 79.8084 284.034 79.7752C281.638 76.5523 278.103 73.5786 272.883 70.9039C272.784 70.854 272.701 70.8042 272.602 70.771C274.155 68.9768 274.915 67.4152 274.733 66.352C273.461 58.3445 262.245 65.0561 261.303 59.1752C261.022 57.2979 264.475 52.5134 269.315 46.4497C283.109 52.3307 287.271 59.9228 288.51 68.4784Z" fill="#AD7766"/>
<path d="M294.54 12.0444C290.228 21.6135 277.822 35.8341 269.431 46.3169C269.381 46.3667 269.348 46.3999 269.315 46.4498C264.475 52.5135 261.022 57.298 261.303 59.1752C262.245 65.0562 273.461 58.3446 274.733 66.352C274.915 67.4152 274.155 68.9769 272.602 70.7711C272.569 70.8209 272.536 70.8707 272.487 70.9206C267.465 76.652 254.629 84.7923 239.597 87.8159C239.134 86.5367 238.589 85.2741 237.994 84.0281C247.889 81.6525 261.419 74.7083 261.666 69.5085C261.733 68.0964 260.956 66.9833 259.816 65.9367C257.834 64.0927 254.761 62.448 253.473 59.6404C251.771 55.9523 255.967 53.3109 265.268 44.6888C272.255 38.2097 282.134 28.3251 294.54 12.0444Z" fill="#6A964D"/>
<path d="M284.034 79.7752C284.034 79.7752 284.083 79.8416 284.1 79.8749C284.083 79.9081 284.05 79.9413 284.034 79.9745C281.589 76.6852 277.922 73.6284 272.487 70.9205C272.536 70.8707 272.569 70.8208 272.602 70.771C272.701 70.8042 272.784 70.854 272.883 70.9039C278.103 73.5786 281.638 76.5523 284.034 79.7752Z" fill="#C6977B"/>
<path d="M283.373 103.847L283.637 104.113C283.637 155.164 283.637 197.178 173.47 202.395C177.401 201.598 225.82 199.106 250.433 163.703C258.528 152.058 261.6 135.744 262.74 124.597C233.253 131.358 175.882 132.023 140.976 126.142V125.976C143.586 125.976 146.246 125.976 148.972 125.976C203.436 125.976 236.739 122.869 257.074 117.553C271.066 113.915 278.946 109.23 283.373 103.831V103.847Z" fill="#AD7766"/>
<path d="M272.487 70.9204C277.922 73.6283 281.589 76.6851 284.034 79.9744C279.755 85.7391 271.826 90.7396 257.124 94.5772C252.68 95.7235 247.642 96.7867 241.909 97.7336V97.7004C241.596 94.4277 240.786 91.1051 239.597 87.8157C254.629 84.7922 267.465 76.6519 272.487 70.9204Z" fill="#AD7766"/>
<path d="M262.74 124.597C261.6 135.744 258.528 152.058 250.433 163.703C225.82 199.106 177.401 201.597 173.47 202.395H173.437C165.821 202.76 157.694 202.943 148.988 202.943C14.3225 202.943 14.3224 158.703 14.3224 104.113L14.5868 103.88C25.1757 116.739 55.2574 125.461 140.976 125.976V126.142C175.882 132.023 233.253 131.358 262.74 124.597Z" fill="#C6977B"/>
<path d="M8.90414 78.3465C8.90414 77.1005 8.90414 75.8712 8.9537 74.675C8.97022 74.2265 8.98675 73.7779 8.98675 73.3294C9.00327 73.2297 9.00326 73.13 9.00326 73.0304C9.01978 72.7978 9.03629 72.5652 9.05281 72.3492C9.05281 71.801 9.1189 71.2528 9.16846 70.7212C9.18498 70.3723 9.21801 70.04 9.26757 69.7078L9.41624 68.6113C10.0275 72.615 11.2664 76.3862 13.8434 79.9081C13.86 79.9413 13.893 79.9746 13.9095 80.0078C18.5184 86.221 27.3728 91.5039 44.3381 95.4412C54.6462 97.8334 67.9608 99.7273 85.1244 101.006C95.9611 101.837 108.318 102.402 122.442 102.718C125.498 102.784 128.636 102.851 131.858 102.9C137.309 102.967 143.025 103 148.972 103C158.487 103 167.358 102.9 175.634 102.718C181.234 102.601 186.57 102.435 191.625 102.219C195.953 102.053 200.082 101.837 204.031 101.605C219.195 100.707 231.667 99.395 241.909 97.7337C247.642 96.7868 252.68 95.7236 257.124 94.5773L257.206 94.9096C260.973 100.06 261.716 113.283 257.074 117.57C236.739 122.886 203.436 125.992 148.972 125.992C146.246 125.992 143.586 125.992 140.976 125.992C55.2574 125.477 25.1757 116.756 14.5868 103.897C8.88763 96.9363 8.88763 88.7628 8.88763 80.0078C8.88763 79.4429 8.88763 78.8947 8.90414 78.3631V78.3465Z" fill="#C6977B"/>
<path d="M243.594 52.231C244.833 53.7096 242.768 57.7465 239.778 61.717C238.143 63.9265 236.21 66.1194 234.41 67.8471C233.699 67.8471 232.939 67.897 232.146 67.9634C230.115 68.0465 229.404 69.6081 229.487 71.203C229.008 70.6713 228.562 70.1896 228.066 69.6912C227.125 68.7276 226.15 67.7807 225.142 66.9168C224.581 65.3718 224.564 63.7105 225.605 62.531C226.067 61.9994 226.992 61.1688 228.165 60.1886C232.89 56.2846 241.86 50.1544 243.594 52.231Z" fill="#6A964D"/>
<path d="M241.909 97.7005V97.7338C231.667 99.395 219.195 100.707 204.03 101.605C202.907 99.0462 201.536 96.6872 199.95 94.4942C216.238 88.9123 231.519 81.885 230.23 73.6118C230.726 74.3428 231.419 74.7747 232.179 74.5754C232.196 74.5754 232.212 74.5588 232.229 74.5588C234.509 77.5325 236.458 80.7221 237.994 84.0281C238.589 85.2741 239.134 86.5367 239.597 87.8159C240.786 91.1052 241.595 94.4278 241.909 97.7005Z" fill="#C47B49"/>
<path d="M240.406 69.3922C240.736 70.7046 236.987 72.7812 232.229 74.5588C231.585 73.6949 230.907 72.8643 230.197 72.0502C229.966 71.7678 229.718 71.502 229.487 71.2196C230.561 71.1199 232.394 69.7743 234.41 67.8472C237.746 67.7807 240.142 68.3622 240.406 69.3922Z" fill="#6A964D"/>
<path d="M238.044 38.4755C238.044 38.4755 237.895 38.5752 237.813 38.625C236.144 39.7048 234.624 40.602 233.27 41.2831C233.22 41.3163 233.171 41.3329 233.105 41.3661C231.205 42.3131 229.685 42.8281 228.644 42.745C225.638 42.5124 224.878 40.0205 224.614 37.1631C224.614 37.1132 224.597 37.0468 224.597 36.9969H224.581C224.581 36.9969 224.564 36.8807 224.564 36.8142C229.404 37.3126 233.898 37.8608 238.044 38.4755Z" fill="#C6977B"/>
<path d="M232.146 67.9635C232.939 67.897 233.699 67.8472 234.41 67.8472C232.394 69.7743 230.561 71.1199 229.487 71.2196C229.404 69.6081 230.115 68.0465 232.146 67.9635Z" fill="#6A964D"/>
<path d="M230.23 73.6117C229.801 72.9638 229.52 72.1 229.487 71.2195C229.718 71.5019 229.966 71.7677 230.197 72.0501C230.907 72.8642 231.585 73.6948 232.229 74.5587C232.212 74.5587 232.196 74.5753 232.179 74.5753C231.42 74.7747 230.726 74.3427 230.23 73.6117Z" fill="#C6977B"/>
<path d="M174.824 68.1294C179.466 63.0957 184.075 59.391 188.502 57.6467C188.502 57.6467 188.502 57.63 188.519 57.6467H188.535C188.684 57.5802 188.833 57.5137 188.981 57.4639C189.361 57.3144 189.741 57.1815 190.121 57.0818C193.987 55.9521 197.819 55.6365 201.619 55.9854C204.543 56.2179 207.4 56.8991 210.176 57.8626C210.919 58.145 211.679 58.4275 212.406 58.7431H212.422C212.621 58.8096 212.802 58.8926 212.984 58.9757C217.345 60.9028 221.458 63.6107 225.142 66.9167C225.886 69.0099 227.637 70.937 229.156 71.2194C229.256 71.236 229.371 71.236 229.487 71.2194C229.52 72.0999 229.801 72.9637 230.23 73.6117C231.519 81.8849 216.238 88.9121 199.95 94.4941C193.342 85.3404 182.952 79.0109 170.447 73.3126C171.867 71.4852 173.354 69.7076 174.808 68.1294H174.824Z" fill="#E09F57"/>
<path d="M229.487 71.2029C229.371 71.2361 229.256 71.2361 229.156 71.2195C227.637 70.9371 225.886 69.01 225.142 66.9167C226.15 67.7806 227.125 68.7276 228.066 69.6911C228.562 70.1895 229.008 70.6713 229.487 71.2029Z" fill="#C6977B"/>
<path d="M228.644 42.745C229.685 42.8281 231.205 42.3131 233.105 41.3661C229.702 43.1437 225.225 46.8982 223.391 45.7686C221.706 44.7386 224.432 40.3694 224.432 37.1797H224.614C224.878 40.0205 225.638 42.5124 228.644 42.745Z" fill="#6A964D"/>
<path d="M116.065 56.7828C115.404 56.9157 114.777 57.0818 114.132 57.2812H114.099C113.851 57.2978 113.604 57.2978 113.356 57.3144C113.174 57.3144 112.992 57.331 112.811 57.331C107.492 57.5137 102.437 57.7131 97.6625 57.9623C94.3752 52.8289 90.0801 48.1275 86.4624 45.1371V45.1039C83.555 42.7283 81.0936 41.4491 79.9538 41.9142C74.5024 44.1404 84.8105 54.3739 78.3514 57.5802C76.6004 58.4275 72.454 58.0454 66.9366 56.9655C60.4775 55.7196 52.1352 53.5267 43.5947 51.2673C38.0442 49.822 32.4276 48.3268 27.1745 47.0808C30.6105 45.5192 34.6743 44.0739 39.531 42.7449C39.4979 42.695 39.4814 42.6452 39.4484 42.5954C50.3842 39.5884 65.2351 37.2626 85.4382 35.7509C86.6441 35.6678 87.8666 35.5681 89.1055 35.4851H89.1716C96.9191 34.9534 105.443 34.5547 114.777 34.2723H114.892C125.217 33.9567 136.549 33.7905 148.988 33.7905C162.204 33.7905 174.164 33.9733 185 34.3222C188.502 34.4384 191.889 34.5713 195.16 34.7209C195.226 34.7209 195.275 34.7209 195.341 34.7375H195.358C196.465 34.7707 197.555 34.8371 198.629 34.887H198.645C198.86 34.9036 199.091 34.9036 199.306 34.9202C203.172 35.1196 206.855 35.3521 210.39 35.6013C212.175 35.7342 213.926 35.8671 215.627 36C215.594 36.0499 215.578 36.1163 215.545 36.1662C212.736 42.097 210.176 50.6194 210.176 57.846C207.4 56.8991 204.543 56.2179 201.619 55.9854C197.819 55.6365 193.987 55.9521 190.121 57.0818C189.741 57.1815 189.361 57.3144 188.981 57.4639C177.104 57.0154 163.822 56.7828 148.988 56.7828C141.439 56.7828 134.302 56.8326 127.546 56.9489H127.529C126.984 56.7994 126.439 56.6831 125.894 56.6001C123.581 56.1681 121.401 56.0352 119.418 56.2346C118.956 56.3176 118.477 56.3509 117.998 56.4173C117.354 56.517 116.709 56.6333 116.082 56.7828H116.065Z" fill="#C6977B"/>
<path d="M199.95 94.4941C201.536 96.687 202.907 99.0461 204.031 101.604C200.082 101.837 195.953 102.053 191.625 102.219C190.617 101.206 189.576 100.192 188.535 99.1956C188.271 98.9298 187.99 98.664 187.726 98.4148C191.707 97.202 195.853 95.8896 199.95 94.4941Z" fill="#C47B49"/>
<path d="M170.447 73.3127C182.952 79.011 193.343 85.3405 199.95 94.4942C195.853 95.8897 191.707 97.2021 187.726 98.4148C186.933 97.6506 186.14 96.8864 185.347 96.1389C184.967 95.7734 184.571 95.4245 184.174 95.059C183.96 94.8264 183.712 94.6105 183.48 94.4277C182.109 93.1153 180.722 91.8527 179.301 90.6068C177.682 89.1116 176.03 87.6663 174.378 86.2376C171.62 83.8287 168.811 81.5195 166.02 79.2602C167.126 77.6653 168.217 76.1535 169.34 74.7082C169.703 74.2431 170.067 73.7779 170.447 73.3127Z" fill="#E09F57"/>
<path d="M187.726 98.4149C187.99 98.6641 188.271 98.9299 188.535 99.1957C189.576 100.192 190.6 101.189 191.624 102.219C186.57 102.435 181.234 102.601 175.634 102.718C177.98 100.209 180.738 97.7504 184.174 95.0591C184.571 95.4246 184.967 95.7734 185.347 96.1389C186.14 96.8865 186.933 97.6507 187.726 98.4149Z" fill="#C47B49"/>
<path d="M191.625 102.219C190.6 101.189 189.576 100.192 188.535 99.1956C189.576 100.192 190.617 101.206 191.625 102.219Z" fill="#C6977B"/>
<path d="M188.519 57.6302C188.519 57.6302 188.502 57.6136 188.502 57.6468C184.075 59.3912 179.466 63.0959 174.824 68.1296H174.808C173.354 69.7078 171.867 71.4854 170.447 73.3128C170.067 73.778 169.703 74.2431 169.34 74.7083C168.217 76.1536 167.126 77.6654 166.02 79.2602C159.081 73.7448 152.176 68.7609 145.635 64.9067C144.495 64.2422 143.372 63.5942 142.265 63.0128C137.276 60.2883 132.551 58.2615 128.273 57.1484C128.025 57.082 127.777 57.0155 127.546 56.9491C134.302 56.8328 141.439 56.783 148.988 56.783C163.822 56.783 177.104 57.0155 188.981 57.4641C188.833 57.5139 188.684 57.5804 188.535 57.6468H188.519V57.6302Z" fill="#AD7766"/>
<path d="M188.519 57.6301L188.502 57.6465C188.502 57.6465 188.508 57.641 188.519 57.6301Z" fill="#C6977B"/>
<path d="M183.48 94.4277C183.712 94.6104 183.96 94.8264 184.174 95.059C180.738 97.7503 177.98 100.209 175.634 102.718C167.358 102.9 158.487 103 148.972 103C143.025 103 137.309 102.967 131.858 102.9C143.751 102.452 163.443 99.9764 165.359 93.4974C167.523 86.088 154.836 74.0603 139.935 65.7372C140.695 64.8235 141.472 63.9264 142.265 63.0127C143.372 63.5941 144.495 64.2421 145.635 64.9066C152.176 68.7608 159.081 73.7447 166.02 79.2601C168.811 81.5195 171.62 83.8287 174.378 86.2376C176.03 87.6663 177.682 89.1116 179.301 90.6067C180.722 91.8527 182.109 93.1153 183.48 94.4277Z" fill="#C47B49"/>
<path d="M139.936 65.7373C154.836 74.0604 167.523 86.0881 165.359 93.4975C163.443 99.9765 143.751 102.452 131.858 102.9C128.636 102.851 125.498 102.784 122.442 102.718C122.673 89.6765 130.09 77.4328 139.936 65.7373Z" fill="#E09F57"/>
<path d="M142.265 63.0127C141.472 63.9264 140.695 64.8235 139.935 65.7373C131.973 61.285 123.4 57.8793 116.082 56.7829C116.709 56.6334 117.354 56.5171 117.998 56.4174C118.477 56.351 118.956 56.3177 119.418 56.2347C121.401 56.0353 123.581 56.1682 125.894 56.6002C126.439 56.6832 126.984 56.7995 127.529 56.949H127.546C127.777 57.0155 128.025 57.0819 128.273 57.1484C132.551 58.2614 137.276 60.2882 142.265 63.0127Z" fill="#C47B49"/>
<path d="M139.936 65.7373C130.09 77.4328 122.673 89.6765 122.442 102.718C108.318 102.402 95.9611 101.837 85.1244 101.007C85.24 94.7933 86.5781 88.3807 89.0064 82.3834H89.023C89.8159 81.2538 90.3775 79.9746 90.5427 78.8615C92.5581 74.7083 95.1021 70.8541 98.1251 67.5481C99.0832 66.4849 100.091 65.4881 101.148 64.5578C104.386 61.6672 108.07 59.4078 112.134 57.9459C112.15 57.9293 112.183 57.9127 112.2 57.896C112.546 57.7631 112.893 57.6469 113.257 57.5306C113.29 57.5306 113.306 57.5139 113.323 57.5139C113.571 57.4309 113.835 57.3478 114.099 57.2814H114.132C114.777 57.082 115.404 56.9159 116.065 56.783H116.082C123.4 57.8794 131.973 61.2851 139.936 65.7373Z" fill="#E09F57"/>
<path d="M114.099 57.2812C113.835 57.3477 113.571 57.4308 113.323 57.5138C113.306 57.5138 113.29 57.5305 113.257 57.5305C112.893 57.6467 112.546 57.763 112.199 57.8959C112.183 57.9126 112.15 57.9292 112.133 57.9458C108.07 59.4077 104.386 61.6671 101.148 64.5577C100.256 62.3482 99.0501 60.1221 97.6625 57.9624C102.437 57.7132 107.491 57.5138 112.811 57.3311C112.992 57.3311 113.174 57.3145 113.356 57.3145C113.604 57.3145 113.851 57.3145 114.099 57.2812Z" fill="#AD7766"/>
<path d="M101.148 64.5578C100.091 65.4882 99.0831 66.4849 98.125 67.5482C95.3498 59.1254 88.5273 50.9186 85.24 52.1978C81.5892 53.6099 84.3644 60.388 81.4405 64.2422C77.1455 69.9238 50.4998 53.6764 5.89758 44.1074V43.9412C10.2422 43.4761 18.0228 44.9214 26.9432 47.0312C27.0258 47.0478 27.0919 47.0645 27.1745 47.0811C32.4276 48.327 38.0442 49.8222 43.5947 51.2675C52.1352 53.5269 60.4775 55.7198 66.9365 56.9657C72.454 58.0456 76.6003 58.4277 78.3514 57.5804C84.8104 54.3741 74.5024 44.1406 79.9538 41.9145C81.0936 41.4493 83.555 42.7285 86.4459 45.1041H86.4624V45.1374C90.0801 48.1277 94.3751 52.8291 97.6625 57.9625C99.0501 60.1222 100.256 62.3483 101.148 64.5578Z" fill="#6A964D"/>
<path d="M98.125 67.5481C95.102 70.8541 92.558 74.7083 90.5427 78.8449C90.6583 78.1139 90.5922 77.4328 90.3114 76.9344C88.7421 74.0437 65.9784 73.4125 65.1855 77.7152C64.5743 81.0212 80.978 85.0249 84.5131 85.1412C86.2146 85.2076 87.85 83.9616 89.0064 82.3834C86.578 88.3807 85.24 94.7933 85.1243 101.006C67.9607 99.7273 54.6461 97.8334 44.3381 95.4412C44.3381 91.67 48.3853 90.6899 51.3258 89.311C51.4084 89.2612 51.5075 89.2113 51.6066 89.1781C54.547 87.8491 60.8574 88.2644 60.9731 86.3373C61.0887 84.5597 53.9193 82.6658 49.5417 80.855C44.7676 77.7152 36.987 73.6451 29.0907 69.2925H29.0742C29.0742 69.2925 28.9256 69.2094 28.8595 69.1762C23.0281 65.9533 17.1803 62.5642 12.4062 59.2915C12.3897 59.2915 12.3897 59.2749 12.3732 59.2749C4.84037 54.075 0.0497488 49.141 2.47809 45.4197C3.00671 44.5891 4.19611 44.1239 5.89761 43.9412V44.1073C50.5163 53.6763 77.162 69.9237 81.457 64.2421C84.381 60.3879 81.6057 53.6099 85.2565 52.1978C88.5438 50.9186 95.3663 59.1254 98.1416 67.5481H98.125Z" fill="#77B566"/>
<path d="M90.3114 76.9344C90.5923 77.4327 90.6583 78.1139 90.5427 78.8449C89.981 80.0078 89.4524 81.1873 89.0229 82.3668H89.0064C87.8501 83.9616 86.2146 85.2076 84.5131 85.1411C80.978 85.0248 64.5743 81.0211 65.1855 77.7152C65.9785 73.4124 88.7421 74.0437 90.3114 76.9344Z" fill="#6A964D"/>
<path d="M89.0229 82.3667C89.4525 81.1871 89.9811 80.0076 90.5427 78.8613C90.3775 79.9744 89.8159 81.2536 89.0229 82.3667Z" fill="#C6977B"/>
<path d="M49.5417 80.855C53.9193 82.6658 61.0887 84.5597 60.9731 86.3372C60.8574 88.2643 54.547 87.849 51.6066 89.178C53.4072 88.2809 54.7122 87.2011 54.2497 85.1577C54.0019 84.0945 52.2509 82.6159 49.5417 80.855Z" fill="#6A964D"/>
<path d="M13.9095 80.0076C13.9095 80.0076 13.8599 79.9412 13.8434 79.908C13.8599 79.8747 13.8929 79.8415 13.9095 79.8083C16.7838 75.9375 21.2936 72.4155 28.3639 69.3754C28.5125 69.3089 28.6778 69.2425 28.8429 69.176C28.909 69.2093 28.9916 69.2591 29.0577 69.2923H29.0742C36.9705 73.6449 44.751 77.7151 49.5251 80.8383C52.2343 82.6159 53.9854 84.0944 54.2332 85.1576C54.6957 87.201 53.3907 88.2809 51.5901 89.1779C51.4909 89.2112 51.3918 89.261 51.3092 89.3109C48.3688 90.6897 44.3216 91.6699 44.3216 95.4244C27.3562 91.5038 18.5018 86.2209 13.8929 80.0076H13.9095Z" fill="#AD7766"/>
<path d="M39.4484 42.5955C39.4484 42.5955 39.4979 42.6951 39.531 42.745C34.6743 44.074 30.6105 45.5193 27.1745 47.0809C27.0919 47.0809 27.0258 47.0477 26.9432 47.0311C30.3627 45.4363 34.41 43.9743 39.2501 42.6453L39.4484 42.5955Z" fill="#C6977B"/>
<path d="M28.843 69.1762C28.6778 69.2427 28.5126 69.3091 28.3639 69.3756C21.2936 72.4157 16.7838 75.9376 13.9095 79.8085C13.8929 79.8417 13.8599 79.8749 13.8434 79.9082C11.2664 76.3862 10.0274 72.6151 9.4162 68.6114V68.5615C9.46576 68.1794 9.53184 67.7973 9.5814 67.4152C9.63096 67.1494 9.68051 66.867 9.73007 66.6012C9.73007 66.5514 9.76312 66.4849 9.76312 66.4351C9.79615 66.2523 9.8457 66.1028 9.87874 65.9367C9.94482 65.621 10.0109 65.3054 10.0935 65.0064C10.5726 63.1457 11.2333 61.3515 12.1584 59.6072C12.1749 59.5573 12.208 59.5241 12.2245 59.4743C12.274 59.4078 12.3071 59.3414 12.3566 59.2749C12.3566 59.2749 12.3566 59.2915 12.3897 59.2915C17.1638 62.5643 23.0116 65.9533 28.843 69.1762Z" fill="#C6977B"/>
<path d="M12.1584 59.6072C11.2333 61.3515 10.5726 63.1457 10.0935 65.0064C10.5395 63.1623 11.1838 61.3848 12.1584 59.6072Z" fill="#C6977B"/>
<path d="M9.87874 65.9365C9.84571 66.1027 9.79616 66.2522 9.76312 66.4349C9.79616 66.2688 9.82919 66.1027 9.87874 65.9365Z" fill="#C6977B"/>
<path d="M9.58139 67.415C9.53183 67.7971 9.46574 68.1792 9.41619 68.5613V68.6112L9.26752 69.7076C9.35011 68.9268 9.44923 68.1626 9.58139 67.415Z" fill="#C6977B"/>
<path d="M9.0528 72.3492C9.0528 71.801 9.11888 71.2528 9.16844 70.7212C9.11888 71.2528 9.06931 71.801 9.0528 72.3492Z" fill="#C6977B"/>
<path d="M8.98673 73.3293C8.98673 73.7779 8.97021 74.2264 8.95369 74.675C8.92065 75.8711 8.90413 77.1005 8.90413 78.3464C8.88761 76.6519 8.90414 74.974 8.98673 73.3293Z" fill="#C6977B"/>
<path d="M201.618 56.0022C204.542 56.2348 207.4 56.8993 210.159 57.8794C211.101 58.2117 212.042 58.5772 212.967 58.9925C218.518 61.4346 223.672 65.1559 228.049 69.7078C228.793 70.4554 229.487 71.2528 230.18 72.0669C234.277 76.8182 237.515 82.234 239.58 87.8491C240.769 91.1219 241.579 94.4444 241.893 97.7338" stroke="#3F2A25" stroke-linecap="round" stroke-linejoin="round"/>
<path d="M166.019 79.2603C168.811 81.5196 171.619 83.8288 174.378 86.2377C176.013 87.6664 177.682 89.1117 179.301 90.6068C180.721 91.8528 182.109 93.1154 183.48 94.4278C183.712 94.6106 183.959 94.8265 184.174 95.0591C184.554 95.4246 184.967 95.7901 185.347 96.1389C187.461 98.1491 189.576 100.159 191.624 102.219" stroke="#3F2A25" stroke-linecap="round" stroke-linejoin="round"/>
<path d="M210.176 57.8461C210.176 50.6195 212.736 42.0971 215.544 36.1663C215.643 35.9503 215.743 35.7343 215.858 35.535C217.841 31.5479 219.922 28.8732 221.31 28.8732C224.448 28.8732 224.267 32.6942 224.531 36.3324C224.547 36.5484 224.564 36.781 224.58 36.9969H224.597C224.845 39.9208 225.572 42.5124 228.644 42.745C230.428 42.8779 233.683 41.2831 237.812 38.625C238.11 38.4589 238.391 38.2761 238.671 38.0934C238.853 37.9771 239.051 37.8442 239.233 37.7113C256.942 26.0822 288.444 -1.39549 294.391 2.74112C302.089 8.09048 281.902 30.7837 269.711 45.9513L269.315 46.4497C264.475 52.5134 261.022 57.2979 261.303 59.1751C262.244 65.0561 273.461 58.3445 274.733 66.3519C274.898 67.3487 274.238 68.7774 272.883 70.4387C272.767 70.6048 272.619 70.7543 272.486 70.9205C267.465 76.6519 254.629 84.7922 239.596 87.8158" stroke="#3F2A25" stroke-linecap="round" stroke-linejoin="round"/>
<path d="M170.43 73.3127C185.975 80.3898 198.265 88.4637 204.08 101.721" stroke="#3F2A25" stroke-linecap="round" stroke-linejoin="round"/>
<path d="M283.637 104.113C283.637 158.686 283.637 202.943 148.971 202.943C14.3057 202.943 14.3057 158.703 14.3057 104.113" stroke="#3F2A25" stroke-linecap="round" stroke-linejoin="round"/>
<path d="M289.055 79.9912C289.055 105.392 289.055 125.992 148.971 125.992C8.8873 125.992 8.88733 105.392 8.88733 79.9912" stroke="#3F2A25" stroke-linecap="round" stroke-linejoin="round"/>
<path d="M288.51 68.4783C287.915 72.565 286.677 76.4358 284.033 79.991C273.841 93.7631 242.884 103 148.955 103C55.0258 103 24.1182 93.7465 13.9092 80.0076C11.2826 76.4525 10.0272 72.6315 9.41595 68.5945" stroke="#3F2A25" stroke-linecap="round" stroke-linejoin="round"/>
<path d="M224.597 37.0134H224.58" stroke="#3F2A25" stroke-linecap="round" stroke-linejoin="round"/>
<path d="M8.88733 79.9746C8.88733 78.5625 8.88731 77.1504 8.92035 75.7715C8.92035 75.2399 8.93688 74.7083 8.9534 74.1933C9.01947 72.2994 9.15163 70.4388 9.41593 68.6114V68.5615" stroke="#3F2A25" stroke-linecap="round" stroke-linejoin="round"/>
<path d="M188.535 57.6467H188.518H188.502" stroke="#3F2A25" stroke-linecap="round" stroke-linejoin="round"/>
<path d="M93.0533 124.53H93.0368M85.124 101.007C85.3718 87.7328 91.2031 73.3959 101.148 64.5578C104.386 61.6672 108.069 59.4078 112.133 57.9459C112.15 57.9293 112.183 57.9127 112.199 57.8961C112.546 57.7632 112.893 57.6469 113.256 57.5306C113.289 57.5306 113.306 57.5139 113.323 57.5139C114.297 57.1983 115.305 56.9491 116.313 56.7331C116.874 56.6168 117.436 56.5006 117.997 56.4175C118.477 56.3511 118.956 56.3178 119.418 56.2348C121.252 56.052 123.251 56.1517 125.382 56.5172C125.547 56.5338 125.729 56.567 125.894 56.6002C126.687 56.7332 127.463 56.9159 128.273 57.1485C133.509 58.5107 139.407 61.2352 145.634 64.9067C152.176 68.7609 159.081 73.7448 166.019 79.2602C168.811 81.5196 171.619 83.8288 174.378 86.2377C176.03 87.6664 177.682 89.1117 179.301 90.6068C180.721 91.8528 182.109 93.1154 183.48 94.4278C183.711 94.6106 183.959 94.8265 184.174 95.0591C184.57 95.4246 184.967 95.7735 185.347 96.1389C187.461 98.1491 189.576 100.159 191.624 102.219" stroke="#3F2A25" stroke-linecap="round" stroke-linejoin="round"/>
<path d="M44.3378 95.4246C44.3378 89.2114 55.4884 90.5903 54.2494 85.1578C53.5721 82.234 41.48 76.137 29.074 69.2925H29.0574C23.16 66.0364 17.2296 62.5975 12.406 59.3082C4.85661 54.1083 0.0494971 49.1577 2.47784 45.4198C4.4106 42.4627 14.7021 44.1074 27.1742 47.0977C32.4274 48.3437 38.0605 49.8388 43.611 51.2841C52.1515 53.5435 60.4938 55.7364 66.9363 56.9824C72.4703 58.0622 76.6001 58.4443 78.3511 57.597C84.8102 54.3907 74.5021 44.1738 79.9535 41.9311C83.1418 40.6187 96.4233 52.9122 101.148 64.5744" stroke="#3F2A25" stroke-linecap="round" stroke-linejoin="round"/>
<path d="M191.624 102.236C189.576 100.176 187.461 98.1656 185.347 96.1554C184.967 95.7899 184.554 95.4244 184.174 95.0756C183.943 94.843 183.695 94.627 183.48 94.4443C182.109 93.1319 180.721 91.8693 179.301 90.6233C177.682 89.1282 176.013 87.6828 174.378 86.2541C171.619 83.8286 168.811 81.5361 166.019 79.2767C167.126 77.6985 168.216 76.1867 169.34 74.7248C169.703 74.243 170.067 73.7944 170.446 73.3293C171.867 71.5019 173.354 69.7409 174.808 68.1461H174.824C179.45 63.1124 184.058 59.3911 188.486 57.6633C188.486 57.6633 188.491 57.6633 188.502 57.6633" stroke="#3F2A25" stroke-linecap="round" stroke-linejoin="round"/>
<path d="M201.618 55.9855C197.885 55.6366 194.102 55.9357 190.303 57.0321C190.237 57.0321 190.187 57.0654 190.121 57.082C189.592 57.2315 189.064 57.4142 188.535 57.6468H188.519V57.6136" stroke="#3F2A25" stroke-linecap="round" stroke-linejoin="round"/>
<path d="M126.026 56.5005C126.026 56.5005 125.943 56.567 125.894 56.6002" stroke="#3F2A25" stroke-linecap="round" stroke-linejoin="round"/>
<path d="M174.163 68.5283C174.395 68.3954 174.593 68.2459 174.808 68.1462H174.841" stroke="#3F2A25" stroke-linecap="round" stroke-linejoin="round"/>
<path d="M112.133 57.9458C112.133 57.9458 112.183 57.9126 112.199 57.896C112.596 57.5471 112.976 57.1982 113.356 56.8328" stroke="#3F2A25" stroke-linecap="round" stroke-linejoin="round"/>
<path d="M141.538 63.8933C130.503 76.4693 122.672 88.6299 122.425 102.734" stroke="#3F2A25" stroke-linecap="round" stroke-linejoin="round"/>
<path d="M184.174 95.0591C180.738 97.7504 177.963 100.209 175.634 102.718" stroke="#3F2A25" stroke-linecap="round" stroke-linejoin="round"/>
<path d="M8.90387 79.3099V77.8646C8.90387 76.6186 8.90387 75.3893 8.95343 74.1932C9.08558 68.8438 9.68028 63.7602 12.1582 59.1252" stroke="#3F2A25" stroke-linecap="round" stroke-linejoin="round"/>
<path d="M269.711 45.9512C289.055 54.3407 289.055 66.1857 289.055 79.3099" stroke="#3F2A25" stroke-linecap="round" stroke-linejoin="round"/>
<path d="M26.2491 46.865C29.8008 45.1538 34.0793 43.5922 39.2499 42.1635C50.863 38.9572 66.9363 36.5151 89.1713 35.0033C96.9519 34.4717 105.509 34.073 114.892 33.7906C125.217 33.475 136.549 33.3088 148.988 33.3088C166.465 33.3088 181.762 33.6245 195.159 34.2392C196.332 34.289 197.505 34.3554 198.645 34.4053C204.79 34.7209 210.522 35.103 215.858 35.535" stroke="#3F2A25" stroke-linecap="round" stroke-linejoin="round"/>
<path d="M238.671 38.0935C234.343 37.429 229.635 36.8475 224.531 36.3325" stroke="#3F2A25" stroke-linecap="round" stroke-linejoin="round"/>
<path d="M97.3649 57.4974C102.403 57.2316 107.722 57.0156 113.356 56.8329C114.314 56.7996 115.305 56.7664 116.296 56.7332H116.313" stroke="#3F2A25" stroke-linecap="round" stroke-linejoin="round"/>
<path d="M210.919 58.1453H210.902" stroke="#3F2A25" stroke-linecap="round" stroke-linejoin="round"/>
<path d="M272.883 70.4387C278.103 73.0968 281.638 76.0705 284.033 79.2934C284.116 79.4097 284.199 79.526 284.265 79.6423" stroke="#3F2A25" stroke-linecap="round" stroke-linejoin="round"/>
<path d="M190.303 57.032C178.095 56.5502 164.384 56.301 148.988 56.301C140.877 56.301 133.228 56.3675 126.026 56.5004C125.811 56.5004 125.596 56.5004 125.382 56.517" stroke="#3F2A25" stroke-linecap="round" stroke-linejoin="round"/>
<path d="M13.6779 79.6756C13.744 79.5593 13.8266 79.443 13.9092 79.3267C16.7836 75.4559 21.2933 71.934 28.3471 68.8938" stroke="#3F2A25" stroke-linecap="round" stroke-linejoin="round"/>
</svg>
