<?xml version="1.0" encoding="UTF-8"?><svg xmlns="http://www.w3.org/2000/svg" viewBox="0 0 334.3 511.6"><defs><style>.f{fill:#ead0d0;}.g{fill:#fcb9b9;}.h{fill:#fff;}.i{fill:#6b3d34;}.j{fill:#c47b49;}.k{fill:#bf7e67;}.l{fill:#eab5a7;}.m{fill:#507096;}.n{fill:#7f4d40;}.o{fill:#bc7171;}.p{fill:#6a964d;}.q{fill:#fc9;}.r{fill:#77b566;}.s{stroke-width:2px;}.s,.t{fill:none;stroke:#3f2a25;stroke-linecap:round;stroke-linejoin:round;}.u{fill:#e09f57;}.v{fill:#eaa0a0;}.w{fill:#3d587f;}.x{fill:#b27967;}.y{fill:#d17e75;}.a`{fill:#dba77f;}.aa{fill:#935d51;}.ab{fill:#cc8e87;}.ac{fill:#e08f82;}</style></defs><g id="a"><path class="s" d="M208.76,335.11c.65,3.93-.03,10.45-.46,14.58-2.5,23.74-5.8,52.31-10.52,54.38-4.77,2.1-8.13,2.95-12.79,.3-3.26-1.87-1.17-36.52-4.95-38.48-.91-.47-1.96-.76-3.06-.9h-.01c-3.05-.44-6.45,.13-8.15,.64-.79,.23-1.32,1.4-1.68,3.2-1.83,9.17,.98,34.79-2.1,36.45-4.53,2.45-9.3,1.31-12.52-.13-3.88-1.73-3.77-6.29-13.96-54.39-.82-3.88-1.28-10.22-.61-14.77"/><path class="s" d="M161.54,332.98c3.37,.22,7.06,.33,11.07,.33,2.01,0,3.93-.03,5.78-.08,2.41-.07,4.68-.18,6.82-.34"/><path class="s" d="M223.04,298.49c0,7.19,0,13.02-50.43,13.02s-50.43-5.83-50.43-13.02"/><path class="s" d="M124.81,200.46c-2.53,7.67-4,15.68-4.93,23.05-2.79,22.15,24.35,33.26,49.74,33.26s52.27-14.66,49.39-35.09c-.21-1.47-.44-2.96-.71-4.47-1.78-10.09-4.94-20.8-10.27-29.89"/><path class="s" d="M185.38,162.97h0c5.39-10.17,11.46-26.68,15.63-45.9,5.8-26.71,19.55-41.95,26.61-40.96,9.47,1.34,21.09,36.75,7.3,63.66-8.47,16.53-22.59,26.78-30.91,33.72-.01,.01-.03,.02-.04,.04"/><path class="s" d="M153.25,164.38c-4.4-10.22-8.28-25.97-10.69-46.2-3.24-27.13-15.48-43.62-22.6-43.3-9.55,.43-24.49,34.58-13.32,62.67,7.37,18.52,21.73,30.4,28.95,38.07,.07,.07,.13,.13,.18,.19"/><path class="s" d="M120.26,220.73c-12.56-5.07-29.11-5.88-40.49-3.07"/><path class="s" d="M88.04,236c11.2-3.95,22.55-5.88,32.06-5.1"/><path class="s" d="M219.14,219.53c12.56-5.07,28.56-5.84,39.93-3.03"/><path class="s" d="M250.8,234.85c-11.2-3.95-22.55-5.88-32.06-5.1"/><path class="s" d="M165.8,256.68c.49,2.21,.64,4.65-.4,6.54-1.56,2.84-10.75,1.75-14.78,4.8-3.62,2.74-11.84,16.17-12.99,18.88"/><line class="s" x1="176.98" y1="365" x2="176.97" y2="365"/><path class="s" d="M181.59,255.74c0,2.07,.53,3.9,1.48,6.31,1.27,3.23,10.53,2.1,14.41,5.06,4.01,3.07,10.86,17.25,11.55,20.02"/><path class="s" d="M134.69,329.97c.32-.4,.63-.81,.94-1.2,4.63-5.95,8.85-11.3,12.63-13.64h0c1.56-.97,3.04-1.43,4.44-1.2,5.95,.95,11.08,14.15,8.87,19.22-.01,.02-.01,.05-.02,.07,0,0,0,.02-.01,.03-1.29,4.83-15.46,7.25-23.59,2.87-1.26-.68-2.38-1.53-3.28-2.56"/><path class="s" d="M134.69,329.53s-.01,.02-.02,.03"/><path class="s" d="M124.13,305.24c0,8.57,0,16.23,8.28,21.36,.93,.58,1.97,1.13,3.13,1.63,.03,.02,.06,.04,.09,.04"/><path class="s" d="M210.95,327.63s.06-.03,.09-.04c1.14-.58,2.15-1.2,3.05-1.86,6.99-5.1,6.99-12.39,6.99-20.49"/><path class="s" d="M122.37,295.17h0c.21,1.12,.65,2.17,1.53,3.14,.02,.03,.05,.06,.08,.09,2.67,2.82,9.28,4.97,25.64,5.94h0c3.9,.24,8.35,.39,13.43,.48,2.96,.05,6.14,.08,9.55,.08s6.62-.03,9.6-.08c2.01-.03,3.92-.08,5.74-.14,1.56-.05,3.04-.11,4.47-.17,18.7-.86,25.98-3.11,28.81-6.12,.03-.03,.06-.06,.08-.09,.9-.97,1.32-2.04,1.53-3.15h0"/><path class="s" d="M122.18,298.22v-.41c0-.35,.01-.7,.02-1.04,.05-1.51,.26-2.95,1.15-4.26,.4-.6,.94-1.17,1.67-1.71"/><path class="s" d="M131.15,288.18h0c.61-.17,1.26-.32,1.95-.47,1.33-.29,2.83-.56,4.52-.81,3.58-.51,8-.93,13.45-1.22,.16-.01,.32-.02,.48-.02,2.67-.14,5.59-.24,8.78-.32,3.72-.09,7.79-.14,12.27-.14,6.29,0,11.8,.09,16.62,.26,.43,.02,.84,.04,1.25,.05h.01c2.21,.09,4.28,.2,6.2,.32,.22,.01,.44,.03,.66,.05,.85,.05,1.67,.12,2.46,.18,1.84,.14,3.53,.31,5.09,.49,4.96,.58,8.56,1.33,11.17,2.23,6.97,2.37,6.97,5.72,6.97,9.44"/><path class="s" d="M132.41,326.6c.01,2.28,.52,4.98,2.26,6.71"/><path class="s" d="M211.7,328.63s.06,.09,.1,.14"/><path class="s" d="M211.82,329.27s-.01,0-.02-.03c-.29-.36-.57-.72-.85-1.08-6.58-8.45-12.31-15.72-17.15-14.95-5.95,.95-11.08,14.15-8.87,19.22,.06,.26,.15,.49,.28,.73,2.68,5.11,20.19,7.02,26.61-.32"/><path class="s" d="M214.09,325.73c.01,2.3-.5,5.06-2.27,6.82"/><path class="s" d="M182.62,236.55c14.81-.98,38.49,6.46,55.41,18.11"/><path class="s" d="M219.8,244.85c-.79,2.96,.46,6.65,.88,6.68,.75,.06,1.43-3.35,2.22-3.26,.82,.09,.65,3.79,1.83,4.04,.93,.2,1.7-1.98,2.61-1.83,1.55,.26,1.41,7,2.22,7.04,.66,.04,1-4.47,2.09-4.57,1.53-.13,2.96,8.71,4.7,8.61,1.19-.07,.1-4.33,1.4-4.47,1.93-.21,4.41,8.72,6.82,8.27,1.59-.29-3.83-7.64-2.75-9.93,.52-1.1,6.26-1.79,6.26-2.35,0-.86-10.8-1.27-10.83-2.22-.02-.73,6.95-1.08,6.39-1.83-.96-1.29-12.23,.07-12.39-1.17-.12-.9,6.78-1.88,6-2.87-1.69-2.15-11.71,1.39-12.13-.13-.18-.65,1.98-1.22,1.57-2.09-.24-.5-6.21-.33-7.84,1.68"/><path class="s" d="M119.69,227.52c-26.64-.8-50.55-3.75-50.94-8.41-1.14-13.6,195.72-46.31,197.6-29.74,.99,8.68-26.72,21.73-48.04,27.84"/><path class="s" d="M69.12,217.91c8.42-18.87,169.99-53.1,196.7-29.72"/><path class="s" d="M209.61,180.11c-1.65-2.43-3.53-4.64-5.6-6.62"/><path class="s" d="M185.38,162.96c-10.21-2.92-21.61-2.55-32.13,1.42-.02,.01-.03,.02-.05,.03"/><path class="s" d="M122.74,194.9c3.22-7.83,7.65-14.23,12.85-19.28"/><path class="s" d="M135.77,175.8c8.17-5.02,9.56-6.17,17.49-11.42"/><path class="s" d="M185.38,162.96c7.71,4.34,10.99,6.55,18.59,10.56"/><path class="s" d="M157.68,294.39c-.36-.88-.87-1.77-1.44-2.62-2.03-2.98-4.96-5.43-5.81-5.08-1.86,.76,1.66,4.24-.55,5.33-.04,.02-.08,.04-.13,.05-.31,.11-.77,.13-1.36,.09-.66-.04-1.47-.17-2.41-.35h-.01c-2.2-.42-5.06-1.17-7.98-1.94-1.9-.49-3.82-1-5.62-1.42-.54-.13-1.06-.25-1.57-.36-3.54-.78-6.3-1.09-6.88-.21-.53,.81-.06,1.78,1.01,2.83,.62,.61,1.44,1.24,2.39,1.89,.99,.67,2.11,1.36,3.29,2.04,.79,.46,1.6,.92,2.41,1.36,4.25,2.33,8.39,4.41,8.62,5.4,.25,1.11-1.01,1.38-2.07,1.88"/></g><g id="b"><g><path class="o" d="M194.06,168.05c.8,.47,1.59,.93,2.41,1.4-.98-.26-1.78-.74-2.41-1.4Z"/><path class="o" d="M266.31,189.41c.99,8.68-26.72,21.73-48.05,27.84h0c-1.78-10.1-4.94-20.8-10.27-29.89,27.57-2.99,50.05-3.68,56.48-.15,.01,0,.02,.01,.02,.01,.46,.32,.89,.66,1.29,1.01,.3,.36,.48,.75,.53,1.18Z"/><path class="o" d="M133.97,198.67c-3.12,.6-6.2,1.22-9.2,1.83-29.36,6.06-52.49,12.67-55.68,17.44,3-6.68,25.15-15.27,53.72-22.57,24.96-6.37,54.81-11.73,81.06-13.94,1.94-.17,3.86-.32,5.76-.44,24.81-1.68,45.66-.26,54.84,6.22-6.43-3.53-28.91-2.84-56.48,.15-16.64,1.79-35.12,4.43-53.05,7.49-1.83,.31-3.65,.63-5.46,.94-5.26,.93-10.46,1.89-15.51,2.88Z"/><path class="o" d="M228.33,248.87c-1.34-.71-2.69-1.4-4.06-2.06l.86-1.79c.84,1.26,10.43-2.07,12.08,.03,.78,.99-6.12,1.97-6,2.87,.16,1.24,11.43-.12,12.39,1.17,.56,.74-6.41,1.09-6.39,1.83,.02,.94,10.83,1.36,10.83,2.21,0,.56-5.74,1.25-6.26,2.35-1.09,2.29,4.33,9.64,2.74,9.93-2.41,.45-4.89-8.48-6.82-8.27-1.3,.14-.21,4.4-1.4,4.47-1.74,.11-3.17-8.73-4.7-8.61-1.08,.09-1.43,4.61-2.09,4.57-.78-.05-.67-6.37-2.07-7l.89-1.7Z"/><path class="o" d="M237.5,89.25c4.65,13.05,6.12,33.5-2.62,50.55-8.47,16.53-22.59,26.78-30.91,33.72-.01,.01-.03,.02-.04,.04h0c-2.97-1.55-5.29-2.85-7.46-4.11,.02,.01,.03,.02,.05,.02,.26-.36,.53-.75,.8-1.14,.3-.44,.6-.89,.89-1.36h.01c6.7,1.53,9.01,.79,21.08-11.61,9.67-9.92,22.75-34.63,18.19-66.11h.01Z"/><path class="o" d="M237.49,89.25c4.56,31.48-8.52,56.19-18.19,66.11-12.07,12.4-14.38,13.14-21.08,11.62h-.01c4.17-6.51,8.81-16.3,9.28-28.94,.58-15.55,2.54-27.98,5.87-40.11,2.03-5.5,11.25-21.69,18.58-18.97,2.04,2.3,3.99,5.87,5.56,10.29h-.01Z"/><path class="o" d="M231.94,78.96c-7.33-2.72-16.55,13.47-18.58,18.97-3.33,12.13-5.29,24.56-5.87,40.11-.47,12.64-5.11,22.43-9.28,28.93-.29,.47-.59,.92-.89,1.36-.27,.39-.54,.78-.8,1.14-.02,0-.03-.01-.05-.02-.82-.47-1.61-.93-2.41-1.4-5.11-5.2-.58-21.55,1.73-30.66l-.16-.05c1.96-6.24,3.78-13.05,5.34-20.24,5.8-26.71,19.55-41.95,26.61-40.96,1.44,.2,2.93,1.19,4.36,2.82Z"/><path class="o" d="M228.33,248.87l-.89,1.7s-.09-.03-.14-.04c-.91-.16-1.68,2.02-2.61,1.82-1.17-.25-1.01-3.95-1.83-4.04h-.03l.6-1.9c.28,.14,.56,.27,.84,.4,1.37,.66,2.72,1.35,4.06,2.06Z"/><path class="o" d="M226.65,242.83c.41,.86-1.75,1.44-1.57,2.09,.01,.04,.03,.07,.05,.1l-.86,1.79c-.28-.13-.56-.26-.84-.4-1.2-.56-2.41-1.11-3.63-1.62-.3-.14-.59-.26-.89-.38,1.73-1.92,7.49-2.07,7.74-1.58Z"/><path class="o" d="M223.43,246.41l-.6,1.9c-.78,0-1.45,3.31-2.18,3.26-.43-.03-1.68-3.72-.89-6.68l.04-.1c1.22,.51,2.43,1.06,3.63,1.62Z"/><path class="o" d="M222.8,295.19c.2,1.08,.2,2.21,.2,3.34,0,2.45,0,4.75-2,6.7-1.7,1.67-4.87,3.1-10.74,4.17,1.65-1.19,1.4-5.15,.08-6.61,6.04-1.1,9.2-2.6,10.85-4.35,.03-.03,.06-.06,.08-.09,.9-.98,1.32-2.04,1.53-3.16Z"/><path class="o" d="M216.03,288.82c4.84,1.65,6.32,3.9,6.77,6.37-.21,1.12-.63,2.18-1.53,3.16-.02-.03-.05-.06-.08-.1-.86-.91-2.14-1.75-4.02-2.51-3.91-1.57-10.45-2.76-21.38-3.42,1.26-1.95-.01-5.41-2.06-6.62,1.01,.06,1.98,.11,2.92,.17,.22,.01,.44,.03,.66,.05,.85,.05,1.67,.12,2.46,.18,1.84,.14,3.53,.31,5.09,.49,.71,.08,1.4,.17,2.06,.26,.72,.1,1.41,.2,2.07,.31,2.91,.48,5.22,1.03,7.04,1.66Z"/><path class="o" d="M210.34,302.79c-4.33,.81-10.15,1.41-17.96,1.77-1.42,.06-2.91,.12-4.47,.17-.64,.02-1.3,.04-1.97,.06v-.18l-.02-.02c-.47-.44-.95-.87-1.43-1.3-.56-.5-1.12-1-1.69-1.48-.94-.82-1.9-1.61-2.86-2.38-2.37-1.87-4.73-3.57-6.97-4.88-.4-.23-.79-.46-1.18-.66-1.7-.92-3.3-1.61-4.76-1.98-.19-.06-.38-.1-.56-.13,1.95-.02,3.98-.03,6.1-.03,5.55,0,10.48,.07,14.88,.2,2.66,.08,5.13,.19,7.41,.32h.01c.31,.02,.62,.04,.92,.05,10.93,.66,17.47,1.85,21.38,3.42,1.88,.76,3.16,1.6,4.02,2.51,.03,.04,.06,.07,.08,.1-.02,.03-.05,.06-.08,.09-1.65,1.75-4.81,3.25-10.85,4.35Z"/><path class="o" d="M221,305.23l.04,.04c0,8.1,0,15.39-6.99,20.49-.9,.66-1.91,1.28-3.05,1.86-.03,.01-.06,.03-.09,.04l-.26,.2c-1.31-1.67-2.58-3.29-3.81-4.81,.36-.34,.71-.7,1.04-1.08,2.9-3.25,4-7.81,4.41-10.92-4.56,.82-10.99,1.32-17.83,1.49-8.86,.21-18.4-.12-25.48-1.02,1.17,.02,2.36,.02,3.59,.02,18.55,0,30.28-.78,37.69-2.14,5.87-1.07,9.04-2.5,10.74-4.17Z"/><path class="o" d="M218.97,221.71c1.07,7.57-1.95,14.34-7.46,19.87-1.98-.68-3.95-1.3-5.91-1.85,1.69-2.03,3.11-4.11,4.16-6.15,.35-.67,.66-1.37,.93-2.09,.71-.59,1.09-1.29,1-1.99-.03-.21-.09-.41-.21-.6,2.21-8.88-.09-20.3-2.79-30.56-6.42-1.09-14.45-1.64-23.06-1.82,1.04-.61,1.79-1.29,1.72-1.81-.1-.81-2.24-1.48-4.01-.95-1.48,.45-2.48,1.69-2.88,2.7-8.14-.04-16.6,.21-24.57,.62-.11-.77-.41-1.58-.95-2.23,17.93-3.06,36.41-5.7,53.05-7.49,5.33,9.09,8.49,19.79,10.27,29.88h0c.27,1.52,.5,3,.71,4.47Z"/><path class="o" d="M210.65,327.86l.26-.2s.06-.03,.09-.04c1.14-.58,2.15-1.2,3.05-1.86,.01,2.3-.5,5.36-2.27,7.12-.84,.96-1.87,1.77-3.04,2.42-6.46,3.66-17,2.83-21.62-.14h0c11.8,1.54,22.66-3.02,16.76-15.58,.97,1.07,1.95,2.23,2.96,3.47,1.23,1.52,2.5,3.14,3.81,4.81Z"/><path class="o" d="M211.69,229.5c.09,.7-.29,1.4-1,1.99,.31-.84,.58-1.7,.79-2.59,.12,.19,.18,.39,.21,.6Z"/><path class="o" d="M186.79,207.22c-3.26,4.58-5.35,11.18-4.31,14.59,.04,.15,.09,.29,.15,.43,1,2.38,5.69,3.13,10.47,2.43,4.81-.71,9.69-2.9,10.94-6.37,.93-2.59,.36-5.66-1.02-8.42-2.29-4.61-6.81-8.35-10.29-7.51-2.12,.51-4.2,2.39-5.94,4.85Zm-20.27,28.5c-2.14,.07-4.24-.28-6.05-.33-1.91-.08-3.49,.16-4.44,1.52-1.7,2.43,1.04,4.47,4.97,5.56,2.62,.74,5.77,1.05,8.48,.79,2.92-.29,5.85-1.33,8.3-2.73,2.01-1.15,3.69-2.53,4.8-3.94,1.54-1.96,1.95-3.96,.53-5.43-2.38-2.45-4.86-1.1-7.73,.75-2.15,1.38-4.52,3.04-7.23,3.61h0c-.53,.11-1.07,.18-1.63,.2Zm39.08,4.01c-5.22,6.35-12.92,12.23-19.56,15.08t-.02,.01c-1.47,.35-2.96,.66-4.47,.93-3.94,.69-7.98,1.05-11.97,1.05-1.27,0-2.54-.03-3.82-.09-21.19-.92-42.5-9.52-45.7-25.76-.22-1.1-.36-2.22-.4-3.39-.05-1.29,.01-2.63,.18-4.02,.93-7.37,2.4-15.37,4.93-23.04,3-.61,6.08-1.23,9.2-1.83,4.88-.47,10.58-.92,16.71-1.3,1.52,1.47,3.86,2.73,4.71,2.13,.46-.32,.67-1.33,.5-2.42,7.97-.41,16.43-.66,24.57-.62-.23,.59-.26,1.1-.07,1.34,.56,.7,3.37-.18,5.24-1.28,8.61,.18,16.64,.73,23.06,1.82,2.7,10.26,5,21.68,2.79,30.56-.68-1.25-3.01-1.97-5.66-1.65-3.04,.37-5.34,1.98-5.15,3.6,.2,1.61,2.82,2.62,5.87,2.25,1.73-.21,3.22-.82,4.15-1.61-.27,.72-.58,1.42-.93,2.09-1.05,2.04-2.47,4.12-4.16,6.15Zm-29.47-20.78c-.02-2.16-18.16-.05-18.36,2.04-.14,1.57,4.63,2.32,8.35,2.33,4.44,0,10.01-2.67,10.01-4.37Zm-9.56,10.7c2.64-.16,4.34-1.82,3.75-3.28-.16-.38-.99-.53-2.05-.53-2.05,0-4.92,.53-5.32,1.02-.57,.7,1.06,2.41,2.85,2.74,.25,.05,.51,.07,.77,.05Zm-14.21-6.75c1.15-3.34-1.4-10.15-5.1-14.71-1.89-2.35-4.1-4.11-6.25-4.48-3.36-.58-7.4,3.04-9.49,7.48-1.43,3.02-1.96,6.42-.78,9.14,1.46,3.38,6.45,5.24,11.29,5.64,.01,.01,.02,.01,.03,.01,4.81,.4,9.45-.64,10.3-3.08Zm-14.59,11.02c0-1.62-2.48-2.94-5.55-2.94s-5.55,1.32-5.55,2.94,2.49,2.95,5.55,2.95,5.55-1.32,5.55-2.95Z"/><path class="o" d="M203.88,319.58c-3.42-3.82-6.56-6.39-9.4-6.39l-.02-.65c6.84-.17,13.27-.67,17.83-1.49-.41,3.11-1.51,7.67-4.41,10.92-.33,.38-.68,.74-1.04,1.08-1.01-1.24-1.99-2.4-2.96-3.47Z"/><path class="o" d="M211.48,228.9c-.21,.89-.48,1.75-.79,2.59-.93,.79-2.42,1.4-4.15,1.61-3.05,.37-5.67-.64-5.87-2.25-.19-1.62,2.11-3.23,5.15-3.6,2.65-.32,4.98,.4,5.66,1.65Z"/><path class="o" d="M168.98,311.52c-6.49-.03-12.08-.17-16.9-.41-17.8-.87-25.02-3.01-27.94-5.88-2-1.95-2-4.25-2-6.7v-.68c0-.35,0-.7,.02-1.04,.02-.54,.06-1.06,.14-1.58h.03c.21,1.11,.64,2.15,1.53,3.13,.02,.03,.05,.06,.08,.09,2.04,2.16,6.41,3.93,15.68,5.07,2.84,.35,6.13,.65,9.96,.87,.94,.06,1.91,.11,2.91,.15,3.16,.15,6.66,.26,10.52,.33,.8,.01,1.61,.03,2.44,.03,2.25,.03,4.62,.05,7.12,.05,2.16,0,4.22-.01,6.2-.03,1.16-.02,2.3-.03,3.4-.05,1.3-.02,2.56-.05,3.77-.08,.67-.02,1.33-.04,1.97-.06,1.56-.05,3.05-.11,4.47-.17,7.81-.36,13.63-.96,17.96-1.77,1.32,1.46,1.57,5.42-.08,6.61-7.41,1.36-19.14,2.14-37.69,2.14-1.23,0-2.42,0-3.59-.02Z"/><path class="o" d="M209.57,180.14l.06,.85c-1.9,.12-3.82,.27-5.76,.44h0c-4.91-8.77-24.04-19.94-38.88-19.94,6.91-.88,13.87-.35,20.35,1.5h0c3.56,2.02,6.18,3.57,8.72,5.06,.63,.66,1.43,1.14,2.41,1.4,2.17,1.26,4.49,2.56,7.46,4.12h0s.03-.04,.04-.05c2.07,1.98,3.95,4.19,5.6,6.62Z"/><path class="o" d="M180.36,333.19c.52-.07,2.22-.22,4.57-.6,.05,.21,.13,.41,.24,.61,.38,.72,1.05,1.38,1.95,1.96,4.62,2.97,15.16,3.8,21.62,.14,.66,3.93-.05,10.3-.48,14.43-1.68,15.99-3.73,34.16-6.33,44.96-1.97,.61-3.6,1.07-5.05,1.42,1.4-4.55,2.51-10.3,3.35-16.5,.19-.28,.29-.58,.29-.9,0-.17-.03-.35-.09-.51,1.65-12.6,2.31-26.81,2.45-36.61-16.17,0-15.27-2.77-18.32-4.11-2.84-1.25-17.68-2.05-24-2.62,.47-.49,.79-1.02,.94-1.58,.01-.01,.01-.02,.01-.02,.01-.02,.01-.05,.02-.07,3.37,.22,7.03,.15,11.04,.15,2.01,0,3.93-.03,5.78-.08,.71-.02,1.37-.04,2.01-.07Z"/><path class="o" d="M208.99,287.16c-.66-.11-1.35-.21-2.07-.31-1.48-4.17-5.47-13.67-7.59-17.74,3.97,4.97,9.07,15.69,9.66,18.05Z"/><path class="o" d="M205.6,239.73c1.96,.55,3.93,1.17,5.91,1.85-6.13,6.16-15.35,10.77-25.47,13.23,6.64-2.85,14.34-8.73,19.56-15.08Z"/><path class="o" d="M196.49,283.25h0c-2.04,.95-5.34-2.26-6.02-4.7,.71-.33,1.2-1.05,1.2-1.88,0-.39-.11-.76-.29-1.07-.25-2.27,.27-8.47,.77-10.3l.02-.08c2.03,.39,3.97,.93,5.28,1.93,.58,.44,1.22,1.12,1.89,1.96,2.12,4.07,6.11,13.57,7.59,17.74-.66-.09-1.35-.18-2.06-.26-1.56-.18-3.25-.35-5.09-.49-.79-.06-1.61-.13-2.46-.18h0c-.3-.9-.56-1.78-.82-2.67Z"/><path class="o" d="M203.88,319.58c5.9,12.56-4.96,17.12-16.76,15.57h0c-.9-.57-1.57-1.23-1.95-1.95-.11-.2-.19-.4-.24-.61-.02-.04-.03-.08-.04-.12-2.21-5.07,2.92-18.27,8.87-19.22,.24-.04,.48-.06,.72-.06,2.84,0,5.98,2.57,9.4,6.39Z"/><path class="o" d="M203.02,209.88c1.38,2.76,1.95,5.83,1.02,8.42-1.25,3.47-6.13,5.66-10.94,6.37h0c7.8-2.21,5.46-10.73,1.2-15.3,3.06-.75,6.19-.58,8.72,.51Z"/><path class="o" d="M203.87,181.42h0c-26.25,2.22-56.1,7.58-81.06,13.95l-.11-.44c3.22-7.83,7.65-14.23,12.85-19.28,.07,.07,.13,.13,.18,.19,2.89-1.78,4.94-3.07,6.72-4.23,.73-.48,1.42-.93,2.11-1.39,2.36-1.57,4.69-3.17,8.65-5.8h0c3.84-1.46,7.8-2.43,11.78-2.93,14.84,0,33.97,11.17,38.88,19.93Z"/><path class="o" d="M200.43,378.2c.06,.16,.09,.34,.09,.51,0,.32-.1,.62-.29,.9,.07-.47,.14-.94,.2-1.41Z"/><path class="o" d="M202.88,341.59c-.14,9.8-.8,24.01-2.45,36.61-.51-1.38-3-2.43-6.01-2.43-3.37,0-6.1,1.32-6.1,2.94s2.73,2.95,6.1,2.95c2.72,0,5.03-.86,5.81-2.05-.84,6.2-1.95,11.95-3.35,16.5-4.65,1.08-7.42,.89-13.67,.23-.81-10.89-.51-29.01-3.21-30.41-.91-.47-1.96-.76-3.06-.9h-.01c-3.05-.44-6.45,.13-8.15,.64-1.53,.07-6.21,0-6.21,1.33,.05,6.54,.7,20.22-.73,29.66-4.82,.36-7.66,.03-14.13-1.97-1.74-7.49-4.25-20.57-9.19-43.89-.82-3.88-1.28-10.1-.61-14.65,.68,.37,1.4,.68,2.15,.96h.02c7.21,2.62,17.26,1.12,20.47-2.25h.01c6.32,.57,21.16,1.37,24,2.62,3.05,1.34,2.15,4.11,18.32,4.11Zm-41.57,38.25c0-1.63-2.63-2.95-5.86-2.95s-5.86,1.32-5.86,2.95,2.62,2.94,5.86,2.94,5.86-1.32,5.86-2.94Z"/><path class="o" d="M200.43,378.2c-.06,.47-.13,.94-.2,1.41-.78,1.19-3.09,2.05-5.81,2.05-3.37,0-6.1-1.32-6.1-2.95s2.73-2.94,6.1-2.94c3.01,0,5.5,1.05,6.01,2.43Z"/><path class="o" d="M203.02,209.88c-2.53-1.09-5.66-1.26-8.72-.51-2.38-2.56-5.37-3.88-7.51-2.15,1.74-2.46,3.82-4.34,5.94-4.85,3.48-.84,8,2.9,10.29,7.51Z"/><path class="o" d="M201.93,394.69c-1.26,5.24-2.65,8.74-4.19,9.42-2.75,1.21-5.04,2.01-7.37,1.95,2.68-.74,4.81-4.49,6.51-9.95,1.45-.35,3.08-.81,5.05-1.42Z"/><path class="o" d="M197.31,285.91h0c-.22-.01-.44-.03-.66-.04-.94-.06-1.91-.11-2.92-.17h-.01c-1.05-.05-2.14-.1-3.27-.15h-.01c-.41-.01-.82-.03-1.25-.05-4.82-.17-10.33-.26-16.62-.26-4.48,0-8.55,.05-12.27,.14-2.07,.05-4.02,.11-5.87,.18-.04-.56-.11-1.21-.2-1.9,2.02-.75,4.32-2.89,4.8-4.62,.28,.15,.6,.23,.94,.23,1.15,0,2.09-.94,2.09-2.09,7.18-.46,17.86-.77,25.44-.25h.02c.13,1.03,1,1.82,2.06,1.82,.31,0,.61-.07,.88-.2,.68,2.44,3.98,5.65,6.02,4.7h0c.26,.89,.52,1.77,.82,2.66Z"/><path class="o" d="M193.73,285.7c2.05,1.21,3.32,4.67,2.06,6.62-.3-.01-.61-.03-.92-.05h-.01c-2.28-.13-4.75-.24-7.41-.32-4.4-.13-9.33-.2-14.88-.2-2.12,0-4.15,0-6.1,.03-.01-.01-.02-.01-.03,0-.07-.03-.15-.04-.22-.05-.28-.05-.55-.09-.82-.12h-.09c-.46-.05-.89-.05-1.31-.01-.04,.01-.1,.02-.14,.03h-.02c-.11,.01-.21,.02-.32,.04-.3,.04-.6,.1-.89,.17-.61,0-1.23,0-1.82,.03-.36,.01-.71,.02-1.06,.03-1.14,.03-2.24,.06-3.32,.09h-.01c-.03-.06-.07-.12-.11-.18-1.9-2.79-4.59-5.11-5.62-5.11l-.06-.96c.13,0,.27-.01,.41-.02,.16-.01,.32-.02,.48-.02,.94-.05,1.91-.1,2.91-.14,1.85-.07,3.8-.13,5.87-.18,3.72-.09,7.79-.14,12.27-.14,6.29,0,11.8,.09,16.62,.26,.43,.02,.84,.04,1.25,.05h.01c1.13,.05,2.22,.1,3.27,.15h.01Z"/><path class="o" d="M195.63,137.34l.16,.05c-2.31,9.11-6.84,25.46-1.73,30.66-2.54-1.49-5.16-3.04-8.72-5.05h0c3.37-6.37,7.01-15.22,10.29-25.66Z"/><path class="o" d="M194.46,312.54l.02,.65c-.24,0-.48,.02-.72,.06-5.95,.95-11.08,14.15-8.87,19.22,0,.04,.02,.08,.04,.12-2.35,.38-4.05,.53-4.57,.6-.64,.03-1.3,.05-2.01,.07-1.85,.05-3.77,.08-5.78,.08-4.01,0-7.67,.07-11.04-.15,1.63-3.75-.74-11.93-4.5-16.33-.64-.76-1.33-1.4-2.04-1.89h0c-.75-.52-1.53-.87-2.33-1-.24-.04-.48-.06-.72-.06l.14-2.8c4.82,.24,10.41,.38,16.9,.41,7.08,.9,16.62,1.23,25.48,1.02Z"/><path class="o" d="M194.3,209.37c4.26,4.57,6.6,13.09-1.2,15.29h0c-4.78,.71-9.47-.04-10.47-2.42-.06-.14-.11-.28-.15-.43l.05-.02c.9-5.27,4.11-8.95,7.99-10.99,.15,.26,.44,.44,.77,.44,.52,0,.93-.42,.93-.93,0-.09-.01-.18-.04-.27,.7-.28,1.41-.5,2.12-.67Z"/><path class="o" d="M194.3,209.37c-.71,.17-1.42,.39-2.12,.67-.11-.38-.47-.66-.89-.66-.51,0-.92,.42-.92,.93,0,.18,.05,.35,.15,.49-3.88,2.04-7.09,5.72-7.99,10.99l-.05,.02c-1.04-3.41,1.05-10.01,4.31-14.59,2.14-1.73,5.13-.41,7.51,2.15Z"/><path class="o" d="M192.18,210.04c.03,.09,.04,.18,.04,.27,0,.51-.41,.93-.93,.93-.33,0-.62-.18-.77-.44,.54-.29,1.1-.54,1.66-.76Z"/><path class="o" d="M192.16,265.22l-.02,.08c-.5,1.83-1.02,8.03-.77,10.3-.36-.6-1.03-1.01-1.79-1.01-.58,0-1.11,.24-1.48,.63h-.01c-.22-2,.09-8.38,.67-10.47l.02-.12c1.1,.19,2.26,.37,3.38,.59Z"/><path class="o" d="M191.29,209.38c.42,0,.78,.28,.89,.66-.56,.22-1.12,.47-1.66,.76-.1-.14-.15-.31-.15-.49,0-.51,.41-.93,.92-.93Z"/><path class="o" d="M191.37,275.6c.18,.31,.29,.68,.29,1.07,0,.83-.49,1.55-1.2,1.88-.27,.13-.57,.2-.88,.2-1.06,0-1.93-.79-2.06-1.82-.01-.08-.02-.17-.02-.26,0-.57,.22-1.08,.6-1.45,.37-.39,.9-.63,1.48-.63,.76,0,1.43,.41,1.79,1.01Z"/><path class="o" d="M183.21,396.34c6.25,.66,9.02,.85,13.67-.23-1.7,5.46-3.83,9.21-6.51,9.95h-.01c-1.7-.03-3.44-.53-5.41-1.65-.93-.54-1.42-3.73-1.74-8.07Z"/><path class="o" d="M188.78,264.63l-.02,.12c-.58,2.09-.89,8.47-.67,10.46h.01c-.38,.38-.6,.89-.6,1.46,0,.09,.01,.18,.02,.26h-.02c-7.58-.52-18.26-.21-25.44,.25,0-.57-.23-1.08-.6-1.46,.22-1.99-.09-8.37-.67-10.45h0c2.18-.4,3.96-.91,4.57-2.02,.62-1.13,.82-2.45,.77-3.8h.01c6.81,.62,9.29,.49,15.77-.76,.25,1.05,.63,2.14,1.12,3.39,.61,1.52,2.99,2.08,5.75,2.55Z"/><path class="o" d="M187.35,194.71c.07,.52-.68,1.2-1.72,1.81-1.7-.04-3.43-.06-5.17-.06,.4-1.01,1.4-2.25,2.88-2.7,1.77-.53,3.91,.14,4.01,.95Z"/><path class="o" d="M185.94,304.61v.18c-1.21,.03-2.47,.06-3.77,.08-1.1,.02-2.24,.03-3.4,.05v-.2c.05-.09,.08-.17,.11-.26,.72-2.44-3.33-6.35-8.22-9.17,.32-.38,.66-.77,1-1.16l.13-.24c.39,.2,.78,.43,1.18,.66,2.24,1.31,4.6,3.01,6.97,4.88,.96,.77,1.92,1.56,2.86,2.38,.57,.48,1.13,.98,1.69,1.48,.48,.43,.96,.86,1.43,1.3l.02,.02Z"/><path class="o" d="M183.11,231.16c1.42,1.47,1.01,3.47-.53,5.43-1.11,1.41-2.79,2.79-4.8,3.94,.27-1.15-1.41-6.93-2.4-8.62,2.87-1.85,5.35-3.2,7.73-.75Z"/><path class="o" d="M181.55,255.77c0,1,.12,1.94,.36,2.92-6.48,1.25-8.96,1.38-15.77,.76h-.01c-.03-.92-.18-1.85-.37-2.74,1.28,.06,2.55,.09,3.82,.09,3.99,0,8.03-.36,11.97-1.05v.02Z"/><path class="o" d="M185.63,196.52c-1.87,1.1-4.68,1.98-5.24,1.28-.19-.24-.16-.75,.07-1.34,1.74,0,3.47,.02,5.17,.06Z"/><path class="o" d="M170.66,295.29c4.89,2.82,8.94,6.73,8.22,9.17-.03,.09-.06,.17-.11,.26v.2c-1.98,.02-4.04,.03-6.2,.03-2.5,0-4.87-.02-7.12-.05v-.25c.74-3.28,2.66-6.3,5.21-9.36Z"/><path class="o" d="M175.38,231.91c.99,1.69,2.67,7.47,2.4,8.62-2.45,1.4-5.38,2.44-8.3,2.73,.28-1.15-.35-6.04-1.33-7.73h0c2.71-.58,5.08-2.24,7.23-3.62Z"/><path class="o" d="M157.77,220.99c.2-2.09,18.34-4.2,18.36-2.04,0,1.7-5.57,4.37-10.01,4.37-3.72-.01-8.49-.76-8.35-2.33Z"/><path class="o" d="M162.63,291.84c.29-.07,.59-.13,.89-.17,.11-.02,.21-.03,.32-.04h.02s.1-.02,.14-.03c.42-.04,.85-.04,1.31,.01h.09c.27,.03,.54,.07,.82,.12,.07,.01,.15,.02,.22,.05,.01-.01,.02-.01,.03,0,.18,.03,.37,.07,.56,.13,1.46,.37,3.06,1.06,4.76,1.98l-.13,.24c-.34,.39-.68,.78-1,1.16-2.83-1.64-5.95-2.9-8.59-3.3,.18-.06,.37-.11,.56-.15Z"/><path class="o" d="M170.32,226.37c.59,1.46-1.11,3.12-3.75,3.28-.26,.02-.52,0-.77-.05,2.5-.11,2.91-2.72,2.46-3.56v-.2c1.07,0,1.9,.15,2.06,.53Z"/><path class="o" d="M168.15,235.53c.98,1.69,1.61,6.58,1.33,7.73-2.71,.26-5.86-.05-8.48-.79,.28-1.16,.45-5.41-.53-7.08,1.81,.05,3.91,.4,6.05,.33,.56-.02,1.1-.09,1.63-.19Z"/><path class="o" d="M168.26,226.04c.45,.84,.04,3.45-2.46,3.56-1.79-.33-3.42-2.04-2.85-2.74,.4-.49,3.27-1.02,5.32-1.02v.2Z"/><path class="o" d="M156.91,295.25c.27-.29,.55-.56,.84-.82,1.11-.98,2.37-1.75,3.76-2.25t.02-.01c.12-.05,.24-.09,.36-.13,0,0,.02-.01,.03-.01,.05-.02,.1-.03,.15-.04,2.64,.4,5.76,1.66,8.59,3.3-2.55,3.06-4.47,6.08-5.21,9.36v.25c-.83,0-1.64-.02-2.44-.03-3.86-.07-7.36-.18-10.52-.33v-.18c.56-3.35,2.11-6.68,4.42-9.11Z"/><path class="o" d="M168.78,365.67c-.79,.23-1.32,1.4-1.68,3.2-1.18,5.9-.44,18.59-.58,27.34-1.8,.19-3.32,.35-4.68,.45,1.43-9.44,.78-23.12,.73-29.66,0-1.33,4.68-1.26,6.21-1.33Z"/><path class="o" d="M166.52,396.21c-.08,4.87-.42,8.52-1.52,9.11-2.76,1.49-5.61,1.65-8.14,1.22,2.67-.5,4.16-4.5,4.98-9.88,1.36-.1,2.88-.26,4.68-.45Z"/><path class="o" d="M162.07,291.99c-.05,.01-.1,.02-.15,.04-.01,0-.02,.01-.03,.01-.12,.04-.24,.08-.36,.13t-.02,.01c-1.39,.5-2.65,1.27-3.76,2.25-.33-.82-.8-1.64-1.32-2.44,1.08-.03,2.18-.06,3.32-.09,.35-.01,.7-.02,1.06-.03,.59-.02,1.21-.03,1.82-.03-.19,.04-.38,.09-.56,.15Z"/><path class="o" d="M157.03,316.86c3.76,4.4,6.13,12.58,4.5,16.33-.01,.02-.01,.05-.02,.07,0,0,0,.01-.01,.02-.15,.56-.47,1.09-.94,1.58h-.01c-3.21,3.37-13.26,4.87-20.47,2.25,10.17,.39,16.69-2.28,17.05-10.67,1.35-2.52,.67-6.19-.24-9.46l.14-.12Z"/><path class="o" d="M158.18,276.12c.36-.61,1.03-1.02,1.79-1.02,.58,0,1.11,.24,1.49,.62,.37,.38,.6,.89,.6,1.46,0,1.15-.94,2.09-2.09,2.09-.34,0-.66-.08-.94-.23-.67-.34-1.14-1.05-1.14-1.86,0-.39,.11-.75,.29-1.06Z"/><path class="o" d="M160.79,265.27c.58,2.08,.89,8.46,.67,10.45-.38-.38-.91-.62-1.49-.62-.76,0-1.43,.41-1.79,1.02,.25-2.27-.27-8.47-.76-10.31,1.16-.19,2.32-.36,3.37-.55h0Z"/><path class="o" d="M160.47,235.39c.98,1.67,.81,5.92,.53,7.08-3.93-1.09-6.67-3.13-4.97-5.56,.95-1.36,2.53-1.6,4.44-1.52Z"/><path class="o" d="M155.45,376.89c3.23,0,5.86,1.32,5.86,2.95s-2.63,2.94-5.86,2.94-5.86-1.32-5.86-2.94,2.62-2.95,5.86-2.95Z"/><path class="o" d="M147.71,394.69c6.47,2,9.31,2.33,14.13,1.97-.82,5.38-2.31,9.38-4.98,9.88-1.62-.27-3.12-.79-4.38-1.35-2-.89-2.94-2.53-4.77-10.5Z"/><path class="o" d="M157.89,277.18c0,.81,.47,1.52,1.14,1.86-.48,1.73-2.78,3.87-4.8,4.62-.23-2.13-.58-4.7-.72-6.41-.24,1.75-.88,4.16-1.49,6.52-.17,.65-.34,1.3-.5,1.92h0l-.48,.03c-.14,.01-.28,.02-.41,.02-5.26,.29-9.55,.7-13.04,1.2,1.15-2.71,9.37-16.14,12.99-18.88,1.69-1.28,4.29-1.83,6.84-2.25,.49,1.84,1.01,8.04,.76,10.31-.18,.31-.29,.67-.29,1.06Z"/><path class="o" d="M131.2,288.2c.4,.09,.82,.19,1.24,.29,1.8,.42,3.72,.93,5.62,1.42,2.92,.77,5.78,1.52,7.98,1.94h.01c.94,.18,1.75,.31,2.41,.35,.59,.04,1.05,.02,1.36-.09,.05-.01,.09-.03,.13-.05,2.21-1.09-1.31-4.57,.55-5.33,.05-.02,.12-.03,.19-.03,1.03,0,3.72,2.32,5.62,5.11,.04,.06,.08,.12,.11,.18h.01c.52,.8,.99,1.62,1.32,2.44-.29,.26-.57,.53-.84,.82-.97-2.85-3.27-5.6-4.38-5.16-1.25,.48-.31,2.79-1.3,4.09-1.32,1.73-8.79-2.53-21.32-5.78-1.36-.35-2.78-.69-4.26-1.01,1.26-.03,3.1,.27,5.22,.74,.11,.02,.22,.05,.33,.07Z"/><path class="o" d="M156.89,316.98c.91,3.27,1.59,6.94,.24,9.46,.13-3.04-.54-6.82-2.14-11.47,.71,.49,1.4,1.13,2.04,1.89l-.14,.12Z"/><path class="o" d="M135.84,328.49c4.53-5.82,8.67-11.02,12.38-13.32h0c1.29-.81,2.53-1.26,3.72-1.26,.24,0,.48,.02,.72,.06,.8,.13,1.58,.48,2.33,.99h0c1.6,4.66,2.27,8.44,2.14,11.48-.36,8.39-6.88,11.06-17.05,10.67h-.02c-.75-.28-1.47-.59-2.15-.96-1.26-.68-2.38-1.53-3.28-2.55-1.74-1.73-2.25-4.69-2.26-6.97,.93,.58,1.97,1.13,3.13,1.63,.03,.02,.06,.04,.09,.04l.25,.19Z"/><path class="o" d="M155.89,197.08c.17,1.09-.04,2.1-.5,2.42-.85,.6-3.19-.66-4.71-2.13,1.7-.1,3.44-.2,5.21-.29Z"/><path class="o" d="M154.94,194.85c.54,.65,.84,1.46,.95,2.23-1.77,.09-3.51,.19-5.21,.29-.54-.52-.98-1.08-1.2-1.58,1.81-.31,3.63-.63,5.46-.94Z"/><path class="o" d="M139.55,299.47l-.07,.11c-1.64-1-4-2.23-6.39-3.54-.75-.41-1.5-.83-2.23-1.25-.06-.04-.12-.08-.18-.11-1.18-.68-2.3-1.37-3.29-2.04-.93-.63-1.73-1.25-2.34-1.85-.02-.01-.03-.02-.05-.04-1.07-1.05-1.54-2.02-1.01-2.83,.24-.35,.81-.51,1.66-.53,1.48,.32,2.9,.66,4.26,1.01,12.53,3.25,20,7.51,21.32,5.78,.99-1.3,.05-3.61,1.3-4.09,1.11-.44,3.41,2.31,4.38,5.16-2.31,2.43-3.86,5.76-4.41,9.11v.18c-1.01-.04-1.98-.09-2.92-.15-3.83-.22-7.12-.52-9.96-.87l.02-.2c.55-.26,1.14-.45,1.56-.73h.01c1.07-.36,2.94-.28,2.99-.89,.04-.73-3.47-1.5-4.65-2.23Zm12.46,1.82c1.26,.04,2.42-1.98,1.98-2.79-.55-.98-8.33-1.2-8.6,.26-.21,1.13,5.41,2.49,6.62,2.53Z"/><path class="o" d="M154.23,283.66c.09,.69,.16,1.34,.2,1.9-1,.04-1.97,.09-2.91,.14h0c.16-.63,.33-1.28,.5-1.93,.59,.28,1.38,.2,2.21-.11Z"/><path class="o" d="M153.99,298.5c.44,.81-.72,2.83-1.98,2.79-1.21-.04-6.83-1.4-6.62-2.53,.27-1.46,8.05-1.24,8.6-.26Z"/><path class="o" d="M153.51,277.25c.14,1.71,.49,4.28,.72,6.41-.83,.31-1.62,.39-2.21,.11,.61-2.36,1.25-4.77,1.49-6.52Z"/><path class="o" d="M153.21,164.41h0c-3.96,2.64-6.29,4.24-8.65,5.81l-.07-.1c3.58-1.76-2.55-18.04-3.9-48.62-.31-6.82-1.71-21.63-6.14-31.93,3.61,7.24,6.67,16.95,8.07,28.64,2.41,20.23,6.29,35.98,10.69,46.2Z"/><path class="o" d="M147.26,208.19c3.7,4.56,6.25,11.37,5.1,14.71-.92-5.43-4.35-9.1-8.42-11.01-.02-.49-.42-.87-.92-.87-.23,0-.44,.08-.6,.23-.78-.28-1.58-.5-2.37-.65,2.2-2.59,5.02-3.98,7.21-2.41Z"/><path class="o" d="M152.08,311.11l-.14,2.8c-1.19,0-2.43,.45-3.72,1.25h0c-3.71,2.31-7.85,7.51-12.38,13.33l-.25-.19s-.06-.02-.09-.04c-1.16-.5-2.2-1.05-3.13-1.63-8.28-5.13-8.28-12.79-8.28-21.36l.05-.04c2.92,2.87,10.14,5.01,27.94,5.88Z"/><path class="o" d="M150.63,285.74l.06,.96c-.07,0-.14,.01-.19,.03-1.86,.76,1.66,4.24-.55,5.33-.04,.02-.08,.04-.13,.05-.31,.11-.77,.13-1.36,.09-.66-.04-1.47-.17-2.41-.35h-.01c-2.2-.42-5.06-1.17-7.98-1.94-1.9-.49-3.82-1-5.62-1.42-.42-.1-.84-.2-1.24-.29,.58-.15,1.21-.3,1.87-.45,1.33-.29,2.83-.56,4.52-.81,3.49-.5,7.78-.91,13.04-1.2Z"/><path class="o" d="M149.48,195.79c.22,.5,.66,1.06,1.2,1.58-6.13,.38-11.83,.83-16.71,1.3,5.05-.99,10.25-1.95,15.51-2.88Z"/><path class="o" d="M147.26,208.19c-2.19-1.57-5.01-.18-7.21,2.41-2.96-.59-5.96-.35-8.38,.7l-.15-.11c2.09-4.44,6.13-8.06,9.49-7.48,2.15,.37,4.36,2.13,6.25,4.48Z"/><path class="o" d="M152.36,222.9c-.85,2.44-5.49,3.48-10.3,3.08-.01,0-.02,0-.03-.01-7.99-1.74-6.04-10.59-1.98-15.37,.79,.15,1.59,.37,2.37,.65-.2,.16-.32,.41-.32,.69,0,.52,.41,.93,.92,.93s.93-.41,.93-.93c0-.02,0-.03-.01-.05,4.07,1.91,7.5,5.58,8.42,11.01Z"/><path class="o" d="M144.49,170.12l.07,.1c-.69,.46-1.38,.91-2.11,1.39-3.92-6.39-9.32-17.56-8.42-33.18,.54-9.19,.49-17.33-.1-25.02v-.06c-.04-.89-.11-1.75-.21-2.57-.4-4.37-.98-8.61-1.71-12.83h-.01c-.5-5.1-6.43-20.58-14.38-22.34h0c.79-.43,1.56-.67,2.3-.7,4.05-.18,9.76,5.08,14.53,14.66,4.43,10.3,5.83,25.11,6.14,31.93,1.35,30.58,7.48,46.86,3.9,48.62Z"/><path class="o" d="M139.55,299.47c1.18,.73,4.69,1.5,4.65,2.23-.05,.61-1.92,.53-2.99,.88,.39-.26,.62-.6,.5-1.14-.1-.43-.95-1.07-2.23-1.86l.07-.11Z"/><path class="o" d="M143.94,211.89s.01,.03,.01,.05c0,.52-.41,.93-.93,.93s-.92-.41-.92-.93c0-.28,.12-.53,.32-.69,.51,.18,1.02,.39,1.52,.64Z"/><path class="o" d="M143.02,211.02c.5,0,.9,.38,.92,.87-.5-.25-1.01-.46-1.52-.64,.16-.15,.37-.23,.6-.23Z"/><path class="o" d="M141.2,302.59c-.42,.28-1.01,.47-1.56,.73l-.02,.2c-9.27-1.14-13.64-2.91-15.68-5.07-.03-.03-.06-.06-.08-.09,.03-.03,.05-.07,.08-.1,1.04-1.09,2.66-2.09,5.21-2.95,.53-.18,1.1-.35,1.71-.52,.73,.42,1.48,.84,2.23,1.25,2.39,1.31,4.75,2.54,6.39,3.54,1.28,.79,2.13,1.43,2.23,1.86,.12,.54-.11,.88-.5,1.14h-.01Z"/><path class="o" d="M131.67,211.3c2.42-1.05,5.42-1.29,8.38-.7-4.06,4.78-6.01,13.63,1.98,15.37-4.84-.4-9.83-2.26-11.29-5.64-1.18-2.72-.65-6.12,.78-9.14l.15,.11Z"/><path class="o" d="M132.22,230.98c3.07,0,5.55,1.32,5.55,2.94s-2.48,2.95-5.55,2.95-5.55-1.32-5.55-2.95,2.49-2.94,5.55-2.94Z"/><path class="o" d="M142.45,171.61c-1.78,1.16-3.83,2.45-6.72,4.23-.05-.06-.11-.12-.18-.19,1.32-2.62-2.01-13.67-2.92-16.89-3.08-10.81,1.95-31.98,1.3-45.35,.59,7.69,.64,15.83,.1,25.02-.9,15.62,4.5,26.79,8.42,33.18Z"/><path class="o" d="M132.63,158.76c.91,3.22,4.24,14.27,2.92,16.89-7.22-7.67-21.58-19.55-28.95-38.07-10.3-25.91,1.61-56.99,11.02-61.98h0c7.95,1.77,13.88,17.25,14.38,22.35h.01c.73,4.22,1.31,8.46,1.71,12.83,.08,.85,.15,1.71,.21,2.57v.06c.65,13.37-4.38,34.54-1.3,45.35Z"/><path class="o" d="M133.72,110.78c.1,.82,.17,1.68,.21,2.57-.06-.86-.13-1.72-.21-2.57Z"/><path class="o" d="M122.33,295.23h-.03c.14-.93,.44-1.83,1.01-2.68,.41-.61,.97-1.2,1.73-1.75h.01c.61,.59,1.41,1.21,2.34,1.84,.99,.67,2.11,1.36,3.29,2.04,.06,.03,.12,.07,.18,.11-.61,.17-1.18,.34-1.71,.52-2.55,.86-4.17,1.86-5.21,2.95-.03,.03-.05,.07-.08,.1-.89-.98-1.32-2.02-1.53-3.13Z"/><path class="o" d="M124.77,200.5c-2.53,7.67-4,15.67-4.93,23.04-.17,1.39-.23,2.73-.18,4.02h-.02c-26.64-.8-50.55-3.75-50.94-8.41-.03-.38,.09-.78,.38-1.2h.01c3.19-4.78,26.32-11.39,55.68-17.45Z"/></g></g><g id="c"><g><path class="k" d="M266.3,189.42c.99,8.68-26.72,21.73-48.04,27.84h-.01c-1.78-10.09-4.94-20.8-10.27-29.89,27.35-2.97,49.7-3.66,56.33-.24,.02,0,.03,.01,.05,.03,.5,.34,.98,.71,1.41,1.09,.31,.36,.48,.75,.53,1.17Z"/><path class="a`" d="M133.96,198.68c-3.12,.6-6.2,1.22-9.2,1.83-29.38,6.06-52.51,12.68-55.69,17.45,2.98-6.68,25.15-15.28,53.73-22.57,24.96-6.37,54.82-11.74,81.06-13.94,1.94-.17,3.86-.32,5.76-.44,24.67-1.67,45.43-.27,54.69,6.12-6.63-3.42-28.98-2.73-56.33,.24-16.64,1.8-35.13,4.43-53.06,7.49-1.82,.31-3.64,.63-5.45,.95-5.26,.92-10.45,1.88-15.51,2.87Z"/><path class="k" d="M228.32,248.88c-1.33-.71-2.69-1.4-4.06-2.06l.86-1.79c.84,1.26,10.43-2.07,12.08,.03,.78,.99-6.12,1.97-6,2.87,.17,1.24,11.43-.12,12.39,1.17,.56,.75-6.41,1.1-6.39,1.83,.03,.95,10.83,1.36,10.83,2.22,0,.55-5.74,1.24-6.26,2.35-1.09,2.29,4.33,9.63,2.74,9.92-2.41,.45-4.89-8.48-6.82-8.27-1.3,.15-.21,4.4-1.4,4.48-1.74,.1-3.17-8.74-4.7-8.61-1.08,.09-1.43,4.6-2.08,4.56-.78-.04-.68-6.37-2.08-7l.89-1.7Z"/><path class="v" d="M237.49,89.26c4.65,13.05,6.12,33.51-2.62,50.56-8.47,16.53-22.59,26.78-30.91,33.72-.01,.01-.03,.02-.04,.04-2.95-1.55-5.25-2.84-7.41-4.09,.26-.36,.53-.75,.8-1.14,.29-.44,.59-.89,.9-1.36,6.7,1.52,9.02,.78,21.08-11.61,9.67-9.93,22.75-34.63,18.19-66.12h.01Z"/><path class="g" d="M237.48,89.26c4.56,31.49-8.52,56.19-18.19,66.12-12.06,12.39-14.38,13.13-21.08,11.61,4.16-6.5,8.8-16.29,9.27-28.93,.58-15.55,2.54-27.98,5.87-40.11,2.03-5.51,11.25-21.7,18.58-18.97,2.04,2.3,3.98,5.86,5.56,10.28h-.01Z"/><path class="x" d="M231.93,78.98c-7.33-2.73-16.55,13.46-18.58,18.97-3.33,12.13-5.29,24.56-5.87,40.11-.47,12.64-5.11,22.43-9.27,28.93-.31,.47-.61,.92-.9,1.36-.27,.39-.54,.78-.8,1.14h-.01c-.83-.48-1.65-.96-2.47-1.44-5.08-5.23-.56-21.55,1.75-30.65l-.16-.05c1.95-6.24,3.78-13.05,5.34-20.23,5.8-26.71,19.55-41.95,26.61-40.96,1.44,.2,2.93,1.19,4.36,2.82Z"/><path class="a`" d="M228.32,248.88l-.89,1.7s-.09-.03-.14-.04c-.91-.15-1.68,2.03-2.61,1.82-1.17-.25-1.01-3.95-1.83-4.04h-.03l.6-1.9c.28,.14,.56,.27,.84,.4,1.37,.66,2.73,1.35,4.06,2.06Z"/><path class="a`" d="M226.64,242.84c.41,.87-1.75,1.44-1.57,2.09,.01,.04,.03,.07,.05,.1l-.86,1.79c-.28-.13-.56-.26-.84-.4-1.2-.56-2.41-1.11-3.63-1.62-.29-.14-.59-.26-.89-.38,1.73-1.92,7.49-2.07,7.74-1.58Z"/><path class="a`" d="M223.42,246.42l-.6,1.9c-.78,0-1.45,3.32-2.18,3.26-.43-.03-1.68-3.72-.89-6.68l.04-.1c1.22,.51,2.43,1.06,3.63,1.62Z"/><path class="k" d="M222.79,295.2c.2,1.08,.2,2.21,.2,3.34,0,2.45,0,4.75-2,6.71-1.7,1.66-4.87,3.09-10.74,4.17h0c1.65-1.19,1.4-5.14,.08-6.61,6.04-1.11,9.2-2.6,10.85-4.35,.03-.04,.06-.07,.08-.1,.9-.97,1.32-2.04,1.53-3.15h0Z"/><path class="k" d="M206.91,286.86c.72,.1,1.41,.2,2.07,.31,2.91,.48,5.22,1.03,7.04,1.66,4.84,1.65,6.32,3.9,6.77,6.37h0c-.21,1.12-.63,2.19-1.53,3.16-.02-.03-.05-.06-.08-.1-.86-.91-2.14-1.75-4.02-2.51-3.91-1.57-10.45-2.76-21.38-3.42,1.26-1.95,0-5.41-2.06-6.62,1.01,.06,1.98,.11,2.92,.17,.22,.01,.44,.03,.66,.05,.85,.05,1.67,.12,2.46,.18,1.84,.14,3.53,.31,5.09,.49,.71,.08,1.4,.17,2.06,.26Z"/><path class="k" d="M210.33,302.81c-4.34,.8-10.15,1.4-17.96,1.76-1.42,.07-2.91,.13-4.46,.18-.65,.02-1.31,.04-1.98,.06v-.18l-.02-.02c-.47-.44-.95-.87-1.43-1.3-.56-.5-1.12-1-1.69-1.48-.94-.82-1.9-1.61-2.86-2.38-2.37-1.87-4.73-3.57-6.97-4.88-.4-.23-.79-.46-1.18-.67-1.7-.91-3.3-1.6-4.76-1.97-.2-.06-.39-.1-.58-.14,1.96-.02,3.99-.03,6.12-.03,5.55,0,10.48,.07,14.88,.2,2.66,.08,5.13,.19,7.41,.32h0c.31,.02,.62,.04,.92,.05,10.93,.66,17.47,1.85,21.38,3.42,1.88,.76,3.16,1.6,4.02,2.51,.03,.04,.06,.07,.08,.1-.02,.03-.05,.06-.08,.1-1.65,1.75-4.81,3.24-10.85,4.35Z"/><path class="k" d="M220.99,305.25l.04,.04c0,8.1,0,15.39-6.99,20.49-.9,.66-1.91,1.28-3.05,1.86-.03,.01-.06,.03-.09,.04l-.26,.2c-1.3-1.68-2.57-3.3-3.81-4.82,.36-.34,.71-.7,1.04-1.08,2.9-3.25,4-7.81,4.41-10.92-4.57,.82-10.99,1.31-17.83,1.48-8.85,.23-18.4-.1-25.48-1,1.17,.02,2.36,.02,3.59,.02,18.55,0,30.28-.79,37.69-2.14,5.87-1.08,9.04-2.51,10.74-4.17Z"/><path class="aa" d="M218.96,221.73c1.07,7.56-1.95,14.33-7.46,19.86-1.98-.68-3.95-1.3-5.9-1.85,1.68-2.03,3.09-4.1,4.15-6.14,.35-.68,.66-1.38,.94-2.11h0c.7-.59,1.08-1.28,.99-1.97-.03-.21-.09-.41-.21-.6,2.21-8.88-.09-20.3-2.79-30.56-6.43-1.09-14.46-1.64-23.07-1.82,1.05-.62,1.8-1.3,1.73-1.82-.1-.81-2.24-1.48-4.01-.94-1.47,.45-2.48,1.68-2.87,2.7-8.14-.04-16.61,.21-24.58,.61-.11-.77-.42-1.58-.96-2.23,17.93-3.06,36.42-5.69,53.06-7.49,5.33,9.09,8.49,19.8,10.27,29.89,.27,1.51,.5,3,.71,4.47Z"/><path class="aa" d="M210.64,327.88l.26-.2s.06-.03,.09-.04c1.14-.58,2.15-1.2,3.05-1.86,.01,2.3-.5,5.35-2.27,7.11-.84,.96-1.87,1.77-3.04,2.42-6.46,3.66-17,2.83-21.62-.14,11.8,1.54,22.66-3.02,16.76-15.58,.97,1.07,1.95,2.23,2.96,3.47,1.24,1.52,2.51,3.14,3.81,4.82Z"/><path class="y" d="M211.68,229.52c.09,.69-.29,1.38-.99,1.96,.31-.83,.57-1.68,.78-2.56,.12,.19,.18,.39,.21,.6Z"/><path class="k" d="M205.6,239.74c-5.23,6.35-12.92,12.24-19.57,15.09t-.02,.01c-1.47,.35-2.96,.66-4.47,.93-3.94,.69-7.98,1.05-11.97,1.05-1.27,0-2.54-.03-3.82-.09-21.2-.92-42.51-9.52-45.7-25.77-.22-1.1-.36-2.22-.4-3.39-.05-1.29,.01-2.63,.18-4.01,.11-.92,.24-1.84,.37-2.78,.94-6.58,2.35-13.56,4.56-20.27,3-.61,6.08-1.23,9.2-1.83,4.87-.47,10.57-.92,16.7-1.3,1.52,1.48,3.87,2.74,4.72,2.14,.46-.32,.67-1.33,.5-2.43,7.97-.4,16.44-.65,24.58-.61-.24,.58-.27,1.09-.07,1.34,.55,.69,3.35-.18,5.22-1.28,8.61,.18,16.64,.73,23.07,1.82,2.7,10.26,5,21.68,2.79,30.56-.68-1.26-3.01-1.98-5.65-1.66-3.05,.37-5.35,1.98-5.16,3.6,.2,1.61,2.83,2.62,5.87,2.25,1.74-.21,3.23-.83,4.16-1.62-.28,.73-.59,1.43-.94,2.11-1.06,2.04-2.47,4.11-4.15,6.14Zm-18.82-32.51c-3.26,4.59-5.35,11.18-4.31,14.59,.04,.15,.09,.29,.15,.43,1,2.38,5.69,3.13,10.47,2.43,4.81-.71,9.69-2.9,10.94-6.37,.93-2.59,.36-5.66-1.02-8.42-2.29-4.61-6.81-8.35-10.29-7.51-2.12,.51-4.2,2.39-5.94,4.85Zm-20.94,22.39c.24,.05,.48,.06,.72,.05,2.64-.17,4.34-1.82,3.75-3.28-.15-.38-.98-.53-2.05-.53-2.04-.01-4.92,.53-5.32,1.02-.57,.7,1.1,2.43,2.9,2.74Zm.67,6.11c-2.14,.07-4.24-.28-6.05-.33-1.91-.08-3.49,.16-4.44,1.52-1.7,2.43,1.04,4.47,4.97,5.57,2.62,.73,5.77,1.05,8.48,.78,2.92-.29,5.85-1.33,8.3-2.73,2.02-1.14,3.71-2.53,4.81-3.94,1.54-1.96,1.95-3.96,.53-5.42-2.38-2.45-4.86-1.11-7.74,.74-2.15,1.38-4.52,3.04-7.23,3.62-.53,.1-1.07,.17-1.63,.19Zm9.61-16.77c-.02-2.15-18.16-.05-18.35,2.04-.15,1.57,4.63,2.33,8.34,2.33,4.44,0,10.01-2.67,10.01-4.37Zm-23.77,3.95c1.15-3.34-1.4-10.15-5.1-14.71-1.89-2.35-4.1-4.11-6.25-4.48-3.37-.58-7.42,3.06-9.51,7.52-1.41,3.01-1.94,6.4-.76,9.11,1.46,3.38,6.47,5.24,11.32,5.65,4.81,.39,9.45-.65,10.3-3.09Zm-14.59,11.03c0-1.63-2.48-2.95-5.55-2.95s-5.55,1.32-5.55,2.95,2.49,2.94,5.55,2.94,5.55-1.32,5.55-2.94Z"/><path class="a`" d="M203.87,319.59c-3.42-3.82-6.56-6.39-9.4-6.39l-.02-.66c6.84-.17,13.26-.66,17.83-1.48-.41,3.11-1.51,7.67-4.41,10.92-.33,.38-.68,.74-1.04,1.08-1.01-1.24-1.99-2.4-2.96-3.47Z"/><path class="ac" d="M211.47,228.92c-.21,.88-.47,1.73-.78,2.56h0c-.93,.8-2.42,1.42-4.16,1.63-3.04,.37-5.67-.64-5.87-2.25-.19-1.62,2.11-3.23,5.16-3.6,2.64-.32,4.97,.4,5.65,1.66Z"/><path class="a`" d="M168.97,311.54c-6.49-.03-12.08-.17-16.89-.41-17.81-.87-25.03-3.02-27.95-5.89-2-1.95-2-4.25-2-6.7v-.68c0-.35,.01-.7,.02-1.04,.02-.54,.06-1.06,.14-1.58h.03c.21,1.11,.65,2.15,1.53,3.13,.03,.03,.05,.06,.08,.09,2.04,2.17,6.41,3.94,15.68,5.07,2.83,.35,6.13,.65,9.96,.87h0c.94,.07,1.91,.12,2.91,.16,3.17,.15,6.66,.26,10.53,.33,.79,.01,1.6,.03,2.43,.03,2.25,.03,4.62,.05,7.12,.05,2.16,0,4.22-.01,6.2-.03,1.16-.02,2.3-.03,3.4-.05,1.3-.03,2.55-.05,3.77-.08,.67-.02,1.33-.04,1.98-.06,1.55-.05,3.04-.11,4.46-.18,7.81-.36,13.62-.96,17.96-1.76,1.32,1.47,1.57,5.42-.08,6.6h0c-7.41,1.36-19.14,2.15-37.69,2.15-1.23,0-2.42,0-3.59-.02Z"/><path class="k" d="M185.33,163.01c3.56,2,6.17,3.55,8.7,5.04,.64,.68,1.46,1.17,2.47,1.44h.01c2.16,1.25,4.46,2.54,7.41,4.09,.01-.02,.03-.03,.04-.04,2.07,1.98,3.95,4.19,5.6,6.62l.06,.85c-1.9,.12-3.82,.27-5.76,.44h0c-4.9-8.78-24.04-19.94-38.88-19.94,6.91-.88,13.87-.35,20.35,1.5Z"/><path class="w" d="M180.26,333.21c.39-.06,2.15-.2,4.66-.61,.05,.21,.13,.41,.24,.61,.38,.72,1.05,1.38,1.95,1.96,4.62,2.97,15.16,3.8,21.62,.14,.66,3.93-.05,10.31-.48,14.44-1.68,15.98-3.73,34.15-6.32,44.95-1.98,.61-3.61,1.08-5.06,1.41,1.41-4.55,2.51-10.3,3.36-16.49,.18-.28,.28-.58,.28-.89,0-.17-.03-.35-.1-.51,1.66-12.6,2.31-26.81,2.46-36.61h0c-16.17-.01-15.27-2.77-18.32-4.12-2.84-1.25-17.69-2.05-24-2.61,.47-.49,.79-1.02,.94-1.58,.01-.01,.01-.02,.01-.03,.01-.02,.01-.05,.02-.07,3.37,.22,7.03,.16,11.04,.16,2.01,0,3.93-.03,5.78-.08,.67-.02,1.31-.04,1.92-.07Z"/><path class="aa" d="M208.98,287.17c-.66-.11-1.35-.21-2.07-.31-1.49-4.18-5.47-13.67-7.59-17.74,3.97,4.97,9.07,15.69,9.66,18.05Z"/><path class="aa" d="M205.6,239.74c1.95,.55,3.92,1.17,5.9,1.85-6.12,6.16-15.34,10.78-25.47,13.24,6.65-2.85,14.34-8.74,19.57-15.09Z"/><path class="k" d="M196.48,283.26c-2.05,.96-5.34-2.24-6.03-4.69,.71-.33,1.2-1.05,1.2-1.89,0-.38-.1-.73-.28-1.04h0c-.25-2.28,.26-8.49,.76-10.33l.02-.08c2.03,.39,3.96,.93,5.28,1.93,.58,.44,1.22,1.12,1.89,1.96,2.12,4.07,6.1,13.56,7.59,17.74-.66-.09-1.35-.18-2.06-.26-1.56-.18-3.25-.35-5.09-.49-.79-.06-1.61-.13-2.46-.18-.3-.89-.56-1.78-.82-2.67Z"/><path class="x" d="M203.87,319.59c5.9,12.56-4.96,17.12-16.76,15.58-.9-.58-1.57-1.24-1.95-1.96-.11-.2-.19-.4-.24-.61-.02-.04-.03-.08-.04-.12-2.21-5.07,2.92-18.27,8.87-19.22,.24-.04,.48-.06,.72-.06,2.84,0,5.98,2.57,9.4,6.39Z"/><path class="h" d="M203.01,209.89c1.38,2.76,1.95,5.83,1.02,8.42-1.25,3.47-6.13,5.66-10.94,6.37h0c7.8-2.21,5.46-10.73,1.2-15.3,3.06-.75,6.19-.58,8.72,.51Z"/><path class="a`" d="M142.43,171.62c.74-.47,1.43-.93,2.12-1.39,2.36-1.57,4.69-3.17,8.65-5.8h.01c3.84-1.45,7.8-2.42,11.77-2.92,14.84,0,33.98,11.16,38.88,19.93h0c-26.24,2.21-56.1,7.58-81.06,13.95l-.11-.44c3.22-7.83,7.65-14.23,12.85-19.28l.18,.18c2.89-1.78,4.93-3.07,6.71-4.23Z"/><path class="m" d="M202.87,341.6h0c-.15,9.81-.8,24.02-2.46,36.62-.5-1.39-2.99-2.44-6-2.44-3.37,0-6.09,1.32-6.09,2.95s2.72,2.94,6.09,2.94c2.72,0,5.03-.86,5.82-2.05-.85,6.19-1.95,11.94-3.36,16.49-4.65,1.09-7.42,.91-13.67,.25-.81-10.89-.51-29.01-3.21-30.41-.91-.47-1.96-.76-3.06-.9h-.01c-3.05-.44-6.45,.13-8.15,.64-1.53,.06-6.2,0-6.2,1.33,.04,6.54,.69,20.22-.74,29.65-4.82,.36-7.66,.03-14.13-1.97-1.73-7.48-4.25-20.57-9.19-43.88-.82-3.88-1.28-10.1-.61-14.65,.68,.37,1.4,.68,2.15,.95,7.21,2.63,17.28,1.13,20.5-2.24,6.31,.56,21.16,1.36,24,2.61,3.05,1.35,2.15,4.11,18.32,4.11Zm-41.57,38.25c0-1.63-2.62-2.95-5.86-2.95s-5.86,1.32-5.86,2.95,2.62,2.95,5.86,2.95,5.86-1.32,5.86-2.95Z"/><path class="w" d="M200.41,378.22c.07,.16,.1,.34,.1,.51,0,.31-.1,.61-.28,.89,.06-.46,.13-.93,.18-1.4Z"/><path class="w" d="M200.41,378.22c-.05,.47-.12,.94-.18,1.4-.79,1.19-3.1,2.05-5.82,2.05-3.37,0-6.09-1.32-6.09-2.94s2.72-2.95,6.09-2.95c3.01,0,5.5,1.05,6,2.44Z"/><path class="f" d="M203.01,209.89c-2.53-1.09-5.66-1.26-8.72-.51-2.38-2.56-5.37-3.88-7.51-2.15,1.74-2.46,3.82-4.34,5.94-4.85,3.48-.84,8,2.9,10.29,7.51Z"/><path class="aa" d="M201.93,394.7c-1.27,5.25-2.66,8.76-4.2,9.43-2.75,1.21-5.04,2.01-7.37,1.95,2.68-.74,4.82-4.49,6.51-9.97,1.45-.33,3.08-.8,5.06-1.41Z"/><path class="m" d="M197.3,285.93c-.22-.02-.44-.04-.66-.05-.94-.06-1.91-.11-2.92-.17h-.01c-1.05-.05-2.14-.1-3.27-.15h-.01c-.41-.01-.82-.03-1.25-.05-4.82-.17-10.33-.26-16.62-.26-4.48,0-8.55,.05-12.27,.14-2.07,.05-4.02,.11-5.87,.18-.04-.56-.11-1.21-.19-1.91,2.03-.75,4.31-2.87,4.79-4.61,.29,.15,.61,.23,.95,.23,1.15,0,2.08-.93,2.08-2.08,7.18-.46,17.87-.77,25.44-.26h.02c.13,1.03,1,1.83,2.06,1.83,.32,0,.62-.07,.88-.2,.69,2.45,3.98,5.65,6.03,4.69,.26,.89,.52,1.78,.82,2.67Z"/><path class="a`" d="M193.72,285.71c2.05,1.21,3.32,4.67,2.06,6.62-.3-.01-.61-.03-.92-.05h0c-2.28-.13-4.75-.24-7.41-.32-4.4-.13-9.33-.2-14.88-.2-2.13,0-4.16,.01-6.12,.03h-.01c-.07-.02-.15-.03-.22-.04-.28-.05-.55-.09-.82-.12h-.09c-.46-.05-.89-.05-1.31-.01-.04,.01-.1,.02-.14,.03h-.02c-.11,0-.21,.02-.32,.04-.28,.04-.55,.09-.82,.15-.01,0-.02,.01-.04,.01-.62,0-1.25,.01-1.85,.03-.36,.01-.71,.02-1.06,.03-1.14,.03-2.25,.06-3.33,.09-.03-.06-.07-.11-.11-.17-1.9-2.79-4.59-5.11-5.62-5.11l-.06-.97c.13,0,.27-.01,.41-.02,.16-.01,.32-.02,.48-.02,.94-.05,1.91-.1,2.91-.14,1.85-.07,3.8-.13,5.87-.18,3.72-.09,7.79-.14,12.27-.14,6.29,0,11.8,.09,16.62,.26,.43,.02,.84,.04,1.25,.05h.01c1.13,.05,2.22,.1,3.27,.15h.01Z"/><path class="aa" d="M195.62,137.35l.16,.05c-2.31,9.1-6.83,25.42-1.75,30.65-2.53-1.49-5.14-3.04-8.7-5.04,3.38-6.36,7.02-15.21,10.29-25.66Z"/><path class="a`" d="M194.45,312.54l.02,.66c-.24,0-.48,.02-.72,.06-5.95,.95-11.08,14.15-8.87,19.22,.01,.04,.02,.08,.04,.12-2.51,.41-4.27,.55-4.66,.61-.61,.03-1.25,.05-1.92,.07-1.85,.05-3.77,.08-5.78,.08-4.01,0-7.67,.06-11.04-.16,1.63-3.74-.74-11.92-4.5-16.33-.64-.76-1.33-1.4-2.04-1.89-.75-.52-1.53-.87-2.33-1-.23-.04-.47-.05-.71-.05l.14-2.8c4.81,.24,10.4,.38,16.89,.41,7.08,.9,16.63,1.23,25.48,1Z"/><path class="n" d="M194.29,209.38c4.26,4.57,6.6,13.09-1.2,15.29h0c-4.78,.71-9.47-.04-10.47-2.42-.06-.14-.11-.28-.15-.43l.05-.02c.9-5.27,4.11-8.95,7.99-10.99,.15,.26,.44,.44,.78,.44,.51,0,.92-.42,.92-.93,0-.09-.01-.18-.04-.27,.7-.28,1.41-.5,2.12-.67Z"/><path class="i" d="M194.29,209.38c-.71,.17-1.42,.39-2.12,.67-.11-.38-.46-.65-.88-.65-.52,0-.93,.41-.93,.92,0,.18,.05,.35,.15,.49-3.88,2.04-7.09,5.72-7.99,10.99l-.05,.02c-1.04-3.41,1.05-10,4.31-14.59,2.14-1.73,5.13-.41,7.51,2.15Z"/><path class="h" d="M192.17,210.05c.03,.09,.04,.18,.04,.27,0,.51-.41,.93-.92,.93-.34,0-.63-.18-.78-.44,.54-.29,1.1-.54,1.66-.76Z"/><path class="m" d="M192.15,265.23l-.02,.08c-.5,1.84-1.01,8.05-.76,10.32-.36-.61-1.03-1.03-1.8-1.03-.58,0-1.1,.24-1.48,.62-.23-1.99,.08-8.37,.66-10.45l.02-.12c1.09,.18,2.25,.36,3.38,.58Z"/><path class="h" d="M191.29,209.4c.42,0,.77,.27,.88,.65-.56,.22-1.12,.47-1.66,.76-.1-.14-.15-.31-.15-.49,0-.51,.41-.92,.93-.92Z"/><path class="q" d="M190.45,278.57c-.26,.13-.56,.2-.88,.2-1.06,0-1.93-.8-2.06-1.83-.01-.08-.02-.17-.02-.26,0-.58,.23-1.09,.6-1.46s.9-.62,1.48-.62c.77,0,1.44,.42,1.8,1.03h0c.18,.32,.28,.67,.28,1.05,0,.84-.49,1.56-1.2,1.89Z"/><path class="x" d="M183.2,396.36c6.25,.66,9.02,.84,13.67-.25-1.69,5.48-3.83,9.23-6.51,9.97h0c-1.7-.03-3.44-.53-5.41-1.65-.93-.53-1.42-3.73-1.74-8.07Z"/><path class="k" d="M188.77,264.65l-.02,.12c-.58,2.08-.89,8.46-.66,10.45-.37,.37-.6,.88-.6,1.46,0,.09,.01,.18,.02,.26h-.02c-7.57-.51-18.26-.2-25.44,.26,0-.58-.23-1.09-.6-1.46,.22-2-.09-8.38-.67-10.46,2.18-.39,3.96-.9,4.57-2.01,.62-1.13,.82-2.45,.77-3.8h.01c6.81,.61,9.29,.48,15.77-.77,.25,1.05,.63,2.15,1.12,3.4,.6,1.53,2.99,2.08,5.75,2.55Z"/><path class="ab" d="M187.34,194.72c.07,.52-.68,1.2-1.73,1.82-1.69-.04-3.42-.06-5.15-.06,.39-1.02,1.4-2.25,2.87-2.7,1.77-.54,3.91,.13,4.01,.94Z"/><path class="j" d="M185.93,304.63v.18c-1.22,.03-2.47,.05-3.77,.08-1.1,.02-2.24,.03-3.4,.05v-.2c.05-.09,.08-.17,.11-.26,.72-2.44-3.33-6.35-8.22-9.17,.32-.39,.66-.78,1-1.17l.13-.24c.39,.21,.78,.44,1.18,.67,2.24,1.31,4.6,3.01,6.97,4.88,.96,.77,1.92,1.56,2.86,2.38,.57,.48,1.13,.98,1.69,1.48,.48,.43,.96,.86,1.43,1.3l.02,.02Z"/><path class="f" d="M182.58,236.6c-1.1,1.41-2.79,2.8-4.81,3.94,.28-1.15-1.42-6.94-2.4-8.62,2.88-1.85,5.36-3.19,7.74-.74,1.42,1.46,1.01,3.46-.53,5.42Z"/><path class="aa" d="M181.54,255.79c0,1,.12,1.94,.36,2.91-6.48,1.25-8.96,1.38-15.77,.77h-.01c-.03-.92-.18-1.85-.37-2.74,1.28,.06,2.55,.09,3.82,.09,3.99,0,8.03-.36,11.97-1.05v.02Z"/><path class="l" d="M185.61,196.54c-1.87,1.1-4.67,1.97-5.22,1.28-.2-.25-.17-.76,.07-1.34,1.73,0,3.46,.02,5.15,.06Z"/><path class="u" d="M170.65,295.31c4.89,2.82,8.94,6.73,8.22,9.17-.03,.09-.06,.17-.11,.26v.2c-1.98,.02-4.04,.03-6.2,.03-2.5,0-4.87-.02-7.12-.05v-.26c.74-3.27,2.65-6.29,5.21-9.35Z"/><path class="f" d="M175.37,231.92c.98,1.68,2.68,7.47,2.4,8.62-2.45,1.4-5.38,2.44-8.3,2.73,.28-1.15-.35-6.06-1.33-7.73,2.71-.58,5.08-2.24,7.23-3.62Z"/><path class="aa" d="M157.77,221c.19-2.09,18.33-4.19,18.35-2.04,0,1.7-5.57,4.37-10.01,4.37-3.71,0-8.49-.76-8.34-2.33Z"/><path class="j" d="M171.78,293.9l-.13,.24c-.34,.39-.68,.78-1,1.17-2.83-1.64-5.95-2.9-8.59-3.3,.19-.06,.39-.11,.59-.16,.02,0,.03-.01,.04-.01,.27-.06,.54-.11,.82-.15,.11-.02,.21-.03,.32-.04h.02s.1-.02,.14-.03c.42-.04,.85-.04,1.31,.01h.09c.27,.03,.54,.07,.82,.12,.07,.01,.15,.02,.22,.04h.01c.19,.04,.38,.08,.58,.14,1.46,.37,3.06,1.06,4.76,1.97Z"/><path class="v" d="M170.31,226.39c.59,1.46-1.11,3.11-3.75,3.28-.24,.01-.48,0-.72-.05,2.46-.15,2.86-2.73,2.42-3.57v-.19c1.07,0,1.9,.15,2.05,.53Z"/><path class="h" d="M168.14,235.54c.98,1.67,1.61,6.58,1.33,7.73-2.71,.27-5.86-.05-8.48-.78,.28-1.15,.45-5.4-.53-7.09,1.81,.05,3.91,.4,6.05,.33,.56-.02,1.1-.09,1.63-.19Z"/><path class="g" d="M168.26,226.05c.44,.84,.04,3.42-2.42,3.57-1.8-.31-3.47-2.04-2.9-2.74,.4-.49,3.28-1.03,5.32-1.02v.19Z"/><path class="u" d="M156.9,295.27c.27-.29,.55-.56,.84-.82,1.11-.98,2.37-1.75,3.76-2.25t.02-.01c.12-.05,.24-.09,.36-.13,.01,0,.02-.01,.03-.01,.05-.02,.1-.03,.15-.04,2.64,.4,5.76,1.66,8.59,3.3-2.56,3.06-4.47,6.08-5.21,9.35v.26c-.83,0-1.64-.02-2.43-.03-3.87-.07-7.36-.18-10.53-.33v-.18c.56-3.35,2.11-6.68,4.42-9.11Z"/><path class="w" d="M168.77,365.69c-.79,.23-1.32,1.4-1.68,3.2-1.18,5.89-.44,18.58-.58,27.33-1.8,.19-3.32,.35-4.68,.45,1.43-9.43,.78-23.11,.74-29.65,0-1.33,4.67-1.27,6.2-1.33Z"/><path class="aa" d="M166.51,396.22c-.07,4.88-.42,8.53-1.52,9.12-2.77,1.5-5.63,1.65-8.17,1.21,2.69-.47,4.19-4.47,5.01-9.88,1.36-.1,2.88-.26,4.68-.45Z"/><path class="k" d="M162.06,292.01s-.1,.02-.15,.04c-.01,0-.02,.01-.03,.01-.12,.04-.24,.08-.36,.13t-.02,.01c-1.39,.5-2.65,1.27-3.76,2.25-.34-.82-.8-1.65-1.33-2.45,1.08-.03,2.19-.06,3.33-.09,.35,0,.7-.02,1.06-.03,.6-.02,1.23-.03,1.85-.03-.2,.05-.4,.1-.59,.16Z"/><path class="aa" d="M157.02,316.87c3.76,4.41,6.13,12.59,4.5,16.33-.01,.02-.01,.05-.02,.07,0,.01,0,.02-.01,.03-.15,.56-.47,1.09-.94,1.58-3.22,3.37-13.29,4.87-20.5,2.24,10.18,.4,16.71-2.26,17.07-10.66,1.35-2.53,.67-6.2-.24-9.47l.14-.12Z"/><path class="q" d="M158.17,276.13c.37-.6,1.04-1.01,1.8-1.01,.58,0,1.1,.24,1.48,.62s.6,.88,.6,1.46c0,1.15-.93,2.08-2.08,2.08-.34,0-.66-.08-.95-.23-.67-.34-1.14-1.04-1.14-1.85,0-.39,.11-.76,.29-1.07Z"/><path class="m" d="M160.78,265.28c.58,2.08,.89,8.46,.67,10.46-.38-.38-.9-.62-1.48-.62-.76,0-1.43,.41-1.8,1.01,.25-2.27-.27-8.47-.76-10.31,1.16-.19,2.31-.35,3.37-.54Z"/><path class="h" d="M160.46,235.4c.98,1.69,.81,5.94,.53,7.09-3.93-1.1-6.67-3.14-4.97-5.57,.95-1.36,2.53-1.6,4.44-1.52Z"/><ellipse class="w" cx="155.44" cy="379.85" rx="5.86" ry="2.95"/><path class="x" d="M147.7,394.7c6.47,2,9.31,2.33,14.13,1.97-.82,5.41-2.32,9.41-5.01,9.88-1.61-.27-3.1-.78-4.35-1.34-2-.89-2.94-2.54-4.77-10.51Z"/><path class="k" d="M157.88,277.2c0,.81,.47,1.51,1.14,1.85-.48,1.74-2.76,3.86-4.79,4.61-.24-2.13-.59-4.69-.73-6.39-.23,1.75-.87,4.16-1.49,6.51-.17,.65-.34,1.3-.5,1.93-.16,0-.32,.01-.48,.02-.14,0-.28,.02-.41,.02-5.26,.29-9.55,.7-13.04,1.2,1.15-2.7,9.37-16.14,12.99-18.88,1.69-1.28,4.28-1.83,6.84-2.25,.49,1.84,1.01,8.04,.76,10.31-.18,.31-.29,.68-.29,1.07Z"/><path class="p" d="M157.74,294.45c-.29,.26-.57,.53-.84,.82-.97-2.85-3.27-5.6-4.38-5.16-1.25,.48-.31,2.79-1.3,4.09-1.32,1.73-8.79-2.53-21.32-5.78-1.36-.35-2.78-.69-4.26-1.01,1.26-.03,3.1,.27,5.22,.74,.1,.02,.2,.04,.3,.07h.01c.41,.09,.83,.19,1.26,.29,1.8,.42,3.72,.93,5.62,1.42,2.92,.77,5.78,1.52,7.98,1.94h.01c.94,.18,1.75,.31,2.41,.35,.59,.04,1.05,.02,1.36-.09,.05-.01,.09-.03,.13-.05,2.21-1.09-1.31-4.57,.55-5.33,.05-.02,.12-.03,.19-.03,1.03,0,3.72,2.32,5.62,5.11,.04,.06,.08,.11,.11,.17,.53,.8,.99,1.63,1.33,2.45Z"/><path class="aa" d="M156.88,316.99c.91,3.27,1.59,6.94,.24,9.47,.13-3.04-.54-6.82-2.14-11.48,.71,.49,1.4,1.13,2.04,1.89l-.14,.12Z"/><path class="x" d="M135.82,328.51c4.54-5.83,8.68-11.03,12.39-13.33h0c1.3-.81,2.54-1.25,3.73-1.25,.24,0,.48,.01,.71,.05,.8,.13,1.58,.48,2.33,1,1.6,4.66,2.27,8.44,2.14,11.48-.36,8.4-6.89,11.06-17.07,10.66-.75-.27-1.47-.58-2.15-.95-1.26-.69-2.38-1.53-3.28-2.56-1.74-1.73-2.25-4.68-2.26-6.96,.93,.58,1.97,1.13,3.13,1.63,.03,.02,.06,.04,.09,.04l.24,.19Z"/><path class="l" d="M155.88,197.09c.17,1.1-.04,2.11-.5,2.43-.85,.6-3.2-.66-4.72-2.14,1.71-.1,3.45-.19,5.22-.29Z"/><path class="ab" d="M154.92,194.86c.54,.65,.85,1.46,.96,2.23-1.77,.1-3.51,.19-5.22,.29-.54-.52-.97-1.07-1.19-1.57,1.81-.32,3.63-.64,5.45-.95Z"/><path class="r" d="M139.54,299.49l-.07,.11c-1.64-1-4-2.23-6.39-3.54-.75-.41-1.5-.83-2.23-1.26-.06-.03-.12-.07-.18-.1-1.18-.68-2.3-1.37-3.29-2.04-.93-.64-1.74-1.25-2.35-1.85l-.04-.04c-1.07-1.05-1.54-2.02-1.01-2.83,.24-.35,.81-.51,1.66-.53,1.48,.32,2.9,.66,4.26,1.01,12.53,3.25,20,7.51,21.32,5.78,.99-1.3,.05-3.61,1.3-4.09,1.11-.44,3.41,2.31,4.38,5.16-2.31,2.43-3.86,5.76-4.41,9.11v.18c-1.01-.04-1.98-.09-2.92-.15h0c-3.83-.23-7.13-.53-9.96-.88l.02-.19c.56-.27,1.17-.46,1.59-.75,1.06-.35,2.93-.27,2.97-.88,.04-.72-3.47-1.49-4.65-2.22Zm12.46,1.82c1.26,.04,2.43-1.98,1.98-2.79-.54-.98-8.32-1.2-8.59,.26-.21,1.13,5.4,2.49,6.61,2.53Z"/><path class="w" d="M154.23,283.66c.08,.7,.15,1.35,.19,1.91-1,.04-1.97,.09-2.91,.14,.16-.63,.33-1.28,.5-1.93,.6,.28,1.39,.2,2.22-.12Z"/><path class="p" d="M153.98,298.52c.45,.81-.72,2.83-1.98,2.79-1.21-.04-6.82-1.4-6.61-2.53,.27-1.46,8.05-1.24,8.59-.26Z"/><path class="aa" d="M153.5,277.27c.14,1.7,.49,4.26,.73,6.39-.83,.32-1.62,.4-2.22,.12,.62-2.35,1.26-4.76,1.49-6.51Z"/><path class="aa" d="M153.2,164.43c-3.96,2.63-6.29,4.23-8.65,5.8l-.07-.1c3.58-1.75-2.55-18.03-3.9-48.62-.3-6.81-1.71-21.59-6.12-31.89,3.6,7.24,6.66,16.94,8.05,28.61,2.41,20.23,6.29,35.98,10.69,46.2Z"/><path class="i" d="M147.25,208.2c3.7,4.56,6.25,11.37,5.1,14.71-.92-5.43-4.35-9.1-8.42-11.02-.03-.48-.42-.86-.91-.86-.24,0-.45,.09-.61,.23-.78-.27-1.57-.49-2.37-.64,2.2-2.6,5.02-3.99,7.21-2.42Z"/><path class="a`" d="M152.08,311.13l-.14,2.8c-1.19,0-2.43,.44-3.73,1.24h0c-3.71,2.31-7.85,7.51-12.39,13.34l-.24-.19s-.06-.02-.09-.04c-1.16-.5-2.2-1.05-3.13-1.63-8.28-5.13-8.28-12.79-8.28-21.36l.05-.05c2.92,2.87,10.14,5.02,27.95,5.89Z"/><path class="a`" d="M150.62,285.75l.06,.97c-.07,0-.14,.01-.19,.03-1.86,.76,1.66,4.24-.55,5.33-.04,.02-.08,.04-.13,.05-.31,.11-.77,.13-1.36,.09-.66-.04-1.47-.17-2.41-.35h-.01c-2.2-.42-5.06-1.17-7.98-1.94-1.9-.49-3.82-1-5.62-1.42-.43-.1-.85-.2-1.26-.29,.59-.16,1.22-.31,1.89-.46,1.33-.29,2.83-.56,4.52-.81,3.49-.5,7.78-.91,13.04-1.2Z"/><path class="aa" d="M149.47,195.81c.22,.5,.65,1.05,1.19,1.57-6.13,.38-11.83,.83-16.7,1.3,5.06-.99,10.25-1.95,15.51-2.87Z"/><path class="f" d="M147.25,208.2c-2.19-1.57-5.01-.18-7.21,2.42-2.96-.59-5.95-.36-8.37,.7l-.18-.08c2.09-4.46,6.14-8.1,9.51-7.52,2.15,.37,4.36,2.13,6.25,4.48Z"/><path class="n" d="M152.35,222.91c-.85,2.44-5.49,3.48-10.3,3.09h0c-8.03-1.73-6.08-10.6-2.01-15.38,.8,.15,1.59,.37,2.37,.64-.2,.17-.32,.42-.32,.7,0,.51,.41,.92,.93,.92s.92-.41,.92-.92c0-.02,0-.05-.01-.07,4.07,1.92,7.5,5.59,8.42,11.02Z"/><path class="x" d="M133.92,113.37c-.4-5.29-1.04-10.36-1.92-15.4h-.01c-.5-5.1-6.43-20.58-14.38-22.35,.79-.42,1.56-.66,2.3-.69,4.05-.18,9.76,5.08,14.53,14.65,0,.01,0,.02,.02,.04,4.41,10.3,5.82,25.08,6.12,31.89,1.35,30.59,7.48,46.87,3.9,48.62l.07,.1c-.69,.46-1.38,.92-2.12,1.39-3.92-6.39-9.31-17.56-8.41-33.17,.54-9.19,.49-17.33-.1-25.02v-.06Z"/><path class="p" d="M139.54,299.49c1.18,.73,4.69,1.5,4.65,2.22-.04,.61-1.91,.53-2.97,.88,.38-.27,.6-.6,.48-1.13-.1-.44-.95-1.07-2.23-1.86l.07-.11Z"/><path class="h" d="M143.93,211.89s.01,.05,.01,.07c0,.51-.41,.92-.92,.92s-.93-.41-.93-.92c0-.28,.12-.53,.32-.7,.51,.19,1.02,.4,1.52,.63Z"/><path class="h" d="M143.02,211.03c.49,0,.88,.38,.91,.86-.5-.23-1.01-.44-1.52-.63,.16-.14,.37-.23,.61-.23Z"/><path class="h" d="M142.05,225.99h0c-4.85-.4-9.86-2.26-11.32-5.64-1.18-2.71-.65-6.1,.76-9.11l.18,.08c2.42-1.06,5.41-1.29,8.37-.7-4.07,4.78-6.02,13.65,2.01,15.37Z"/><path class="k" d="M141.22,302.59c-.42,.29-1.03,.48-1.59,.75l-.02,.19c-9.27-1.13-13.64-2.9-15.68-5.07-.03-.03-.05-.06-.08-.09,.03-.03,.05-.07,.08-.1,1.04-1.09,2.66-2.09,5.21-2.95,.53-.18,1.1-.35,1.71-.52,.73,.43,1.48,.85,2.23,1.26,2.39,1.31,4.75,2.54,6.39,3.54,1.28,.79,2.13,1.42,2.23,1.86,.12,.53-.1,.86-.48,1.13Z"/><path class="ac" d="M132.21,230.99c3.07,0,5.55,1.32,5.55,2.95s-2.48,2.94-5.55,2.94-5.55-1.32-5.55-2.94,2.49-2.95,5.55-2.95Z"/><path class="v" d="M142.43,171.62c-1.78,1.16-3.82,2.45-6.71,4.23l-.18-.18c1.32-2.62-2.01-13.68-2.92-16.9-3.08-10.81,1.95-31.96,1.3-45.34,.59,7.69,.64,15.83,.1,25.02-.9,15.61,4.49,26.78,8.41,33.17Z"/><path class="g" d="M132.62,158.77c.91,3.22,4.24,14.28,2.92,16.9-7.22-7.67-21.58-19.55-28.95-38.07-10.3-25.91,1.61-56.99,11.02-61.98,7.95,1.77,13.88,17.25,14.38,22.35h.01c.88,5.04,1.52,10.11,1.92,15.4v.06c.65,13.38-4.38,34.53-1.3,45.34Z"/><path class="a`" d="M122.32,295.24h-.03c.14-.93,.44-1.83,1.01-2.68,.41-.61,.97-1.2,1.73-1.75,.61,.6,1.42,1.21,2.35,1.85,.99,.67,2.11,1.36,3.29,2.04,.06,.03,.12,.07,.18,.1-.61,.17-1.18,.34-1.71,.52-2.55,.86-4.17,1.86-5.21,2.95-.03,.03-.05,.07-.08,.1-.88-.98-1.32-2.02-1.53-3.13Z"/><path class="k" d="M120.2,220.78c-.13,.94-.26,1.86-.37,2.78-.17,1.38-.23,2.72-.18,4.01h-.02c-26.64-.8-50.54-3.75-50.93-8.41-.03-.38,.09-.78,.37-1.2,3.18-4.77,26.31-11.39,55.69-17.45-2.21,6.71-3.62,13.69-4.56,20.27Z"/></g></g><g id="d"><g id="e"/><path class="t" d="M208.71,335.16c.65,3.93-.03,10.45-.46,14.58-2.5,23.74-5.8,52.31-10.52,54.38-4.77,2.1-8.13,2.95-12.79,.3-3.26-1.87-1.17-36.52-4.95-38.48-.91-.47-1.96-.76-3.06-.9h0c-3.05-.44-6.45,.13-8.15,.64-.79,.23-1.32,1.4-1.68,3.2-1.83,9.17,.98,34.79-2.1,36.45-4.53,2.45-9.3,1.31-12.52-.13-3.88-1.73-3.77-6.29-13.96-54.39-.82-3.88-1.28-10.22-.61-14.77"/><path class="t" d="M161.49,333.03c3.37,.22,7.06,.33,11.07,.33,2.01,0,3.93-.03,5.78-.08,2.41-.07,4.68-.18,6.82-.34"/><path class="t" d="M222.99,298.54c0,7.19,0,13.02-50.43,13.02s-50.43-5.83-50.43-13.02"/><path class="t" d="M124.76,200.51c-2.53,7.67-4,15.68-4.93,23.05-2.79,22.15,24.35,33.26,49.74,33.26s52.27-14.66,49.39-35.09c-.21-1.47-.44-2.96-.71-4.47-1.78-10.09-4.94-20.8-10.27-29.89"/><path class="t" d="M185.33,163.02h0c5.39-10.17,11.46-26.68,15.63-45.9,5.8-26.71,19.55-41.95,26.61-40.96,9.47,1.34,21.09,36.75,7.3,63.66-8.47,16.53-22.59,26.78-30.91,33.72-.01,.01-.03,.02-.04,.04"/><path class="t" d="M196.51,169.49c.26-.36,.53-.75,.8-1.14,4.37-6.46,9.67-16.74,10.17-30.29,.58-15.55,2.54-27.98,5.87-40.11"/><path class="t" d="M153.2,164.43c-4.4-10.22-8.28-25.97-10.69-46.2-3.24-27.13-15.48-43.62-22.6-43.3-9.55,.43-24.49,34.58-13.32,62.67,7.37,18.52,21.73,30.4,28.95,38.07,.07,.07,.13,.13,.18,.19"/><path class="t" d="M132,97.97c2.15,12.39,2.93,24.95,2.02,40.48-.9,15.62,4.5,26.79,8.42,33.18"/><path class="t" d="M182.62,222.25c-2.07-4.93,3.85-18.37,10.1-19.87,5.57-1.34,13.79,9.03,11.31,15.93-2.48,6.9-19.41,8.72-21.41,3.94Z"/><path class="t" d="M186.76,207.24c5.96-4.86,18.5,13.98,6.33,17.43"/><path class="t" d="M152.35,222.91c1.75-5.06-5.02-18.09-11.35-19.19-5.64-.98-13.18,9.89-10.27,16.62,2.91,6.73,19.93,7.46,21.62,2.56Z"/><path class="t" d="M147.25,208.2c-6.26-4.47-17.57,15.14-5.2,17.8"/><path class="t" d="M154.92,194.86c1.32,1.57,1.24,4.11,.46,4.66-1.15,.81-5.06-1.79-5.91-3.71"/><path class="t" d="M180.39,197.82c-.54-.68,.62-3.33,2.95-4.04,1.77-.54,3.91,.14,4.01,.95,.19,1.46-6.09,4.18-6.96,3.09Z"/><path class="t" d="M166.56,229.66c2.64-.16,4.33-1.82,3.75-3.28-.44-1.11-6.77-.25-7.37,.49-.65,.79,1.58,2.92,3.62,2.79Z"/><path class="t" d="M166.51,235.73c.3-2.22,.34-5.24,.11-6.06"/><path class="t" d="M120.21,220.78c-12.56-5.07-29.11-5.88-40.49-3.07"/><path class="t" d="M87.99,236.05c11.2-3.95,22.55-5.88,32.06-5.1"/><path class="t" d="M219.09,219.58c12.56-5.07,28.56-5.84,39.93-3.03"/><path class="t" d="M250.76,234.9c-11.2-3.95-22.55-5.88-32.06-5.1"/><path class="t" d="M165.75,256.73c.49,2.21,.64,4.65-.4,6.54-1.56,2.84-10.75,1.75-14.78,4.8-3.62,2.74-11.84,16.17-12.99,18.88"/><line class="t" x1="176.93" y1="365.05" x2="176.92" y2="365.05"/><path class="t" d="M181.54,255.79c-.01,2.07,.53,3.9,1.48,6.31,1.27,3.23,10.53,2.1,14.41,5.06,4.01,3.07,10.86,17.25,11.55,20.02"/><path class="t" d="M134.64,330.02c.32-.4,.63-.81,.94-1.2,4.63-5.95,8.85-11.3,12.63-13.64h0c1.56-.97,3.04-1.43,4.44-1.2,5.95,.95,11.08,14.15,8.87,19.22,0,.02,0,.05-.02,.07,0,0,0,.02-.01,.03-1.29,4.83-15.46,7.25-23.59,2.87-1.26-.68-2.38-1.53-3.28-2.56"/><path class="t" d="M134.64,329.58s-.01,.02-.02,.03"/><path class="t" d="M156.88,316.99c1.1,3.94,1.85,8.45-.84,10.85"/><path class="t" d="M148.21,315.52h0c.54,5.01,.12,8.14-1.68,11.28"/><path class="t" d="M124.08,305.29c0,8.57,0,16.23,8.28,21.36,.93,.58,1.97,1.13,3.13,1.63,.03,.02,.06,.04,.09,.04"/><path class="t" d="M210.9,327.68s.06-.03,.09-.04c1.14-.58,2.15-1.2,3.05-1.86,6.99-5.1,6.99-12.39,6.99-20.49"/><path class="t" d="M122.32,295.22h0c.21,1.12,.65,2.17,1.53,3.14,.02,.03,.05,.06,.08,.09,2.67,2.82,9.28,4.97,25.64,5.94h0c3.9,.24,8.35,.39,13.43,.48,2.96,.05,6.14,.08,9.55,.08s6.62-.03,9.6-.08c2.01-.03,3.92-.08,5.74-.14,1.56-.05,3.04-.11,4.47-.17,18.7-.86,25.98-3.11,28.81-6.12,.03-.03,.06-.06,.08-.09,.9-.97,1.32-2.04,1.53-3.15h0"/><path class="t" d="M122.13,298.27v-.41c0-.35,.01-.7,.02-1.04,.05-1.51,.26-2.95,1.15-4.26,.4-.6,.94-1.17,1.67-1.71"/><path class="t" d="M131.1,288.23h.01c.61-.17,1.26-.32,1.95-.47,1.33-.29,2.83-.56,4.52-.81,3.58-.51,8-.93,13.45-1.22,.16-.01,.32-.02,.48-.02,2.67-.14,5.59-.24,8.78-.32,3.72-.09,7.79-.14,12.27-.14,6.29,0,11.8,.09,16.62,.26,.43,.02,.84,.04,1.25,.05h0c2.21,.09,4.28,.2,6.2,.32,.22,.01,.44,.03,.66,.05,.85,.05,1.67,.12,2.46,.18,1.84,.14,3.53,.31,5.09,.49,4.96,.58,8.56,1.33,11.17,2.23,6.97,2.37,6.97,5.72,6.97,9.44"/><path class="t" d="M166.33,291.79c1.99-.02,4.06-.03,6.23-.03,5.55,0,10.48,.07,14.88,.2,2.66,.08,5.13,.19,7.41,.32h.01c11.48,.64,18.28,1.86,22.3,3.47,1.88,.76,3.16,1.6,4.02,2.51,.03,.04,.06,.07,.08,.1"/><path class="t" d="M123.85,298.37s.05-.07,.08-.1c1.04-1.09,2.66-2.09,5.21-2.95,.51-.17,1.05-.34,1.63-.5"/><path class="t" d="M156.3,292.01h.01c1.11-.04,2.25-.07,3.43-.1,.35-.01,.7-.02,1.06-.03,.58-.02,1.16-.03,1.75-.03h.01"/><path class="t" d="M132.36,326.65c.01,2.28,.52,4.98,2.26,6.71"/><path class="t" d="M211.65,328.68s.06,.09,.1,.14"/><path class="t" d="M211.77,329.32s0,0-.02-.03c-.29-.36-.57-.72-.85-1.08-6.58-8.45-12.31-15.72-17.15-14.95-5.95,.95-11.08,14.15-8.87,19.22,.06,.26,.15,.49,.28,.73,2.68,5.11,20.19,7.02,26.61-.32"/><path class="t" d="M189.52,316.32c-1.1,3.94-1.85,8.45,.84,10.85"/><path class="t" d="M198.19,314.85c-.54,5.01-.12,8.13,1.68,11.27"/><path class="t" d="M214.04,325.78c.01,2.3-.5,5.06-2.27,6.82"/><path class="t" d="M151.51,285.71c.73-2.89,1.69-6.21,1.99-8.44"/><path class="t" d="M197.3,285.93c-.9-2.69-1.52-5.38-2.61-8.07"/><path class="t" d="M183.11,231.18c-4.51-4.64-9.39,4.34-16.59,4.56-4.39,.14-8.64-1.47-10.49,1.19-2.83,4.05,6.67,7.02,13.45,6.35,8.63-.85,17.33-8.28,13.63-12.09Z"/><path class="t" d="M168.14,235.54c.98,1.68,1.61,6.58,1.34,7.73"/><path class="t" d="M175.37,231.92c.98,1.68,2.67,7.48,2.4,8.63"/><path class="t" d="M160.46,235.39c.98,1.68,.81,5.95,.54,7.1"/><path class="t" d="M182.57,236.6c14.81-.98,38.49,6.46,55.41,18.11"/><path class="t" d="M219.75,244.9c-.79,2.96,.46,6.65,.88,6.68,.75,.06,1.43-3.35,2.22-3.26,.82,.09,.65,3.79,1.83,4.04,.93,.2,1.7-1.98,2.61-1.83,1.55,.26,1.41,7,2.22,7.04,.66,.04,1-4.47,2.09-4.57,1.53-.13,2.96,8.71,4.7,8.61,1.19-.07,.1-4.33,1.4-4.47,1.93-.21,4.41,8.72,6.82,8.27,1.59-.29-3.83-7.64-2.75-9.93,.52-1.1,6.26-1.79,6.26-2.35,0-.86-10.8-1.27-10.83-2.22-.02-.73,6.95-1.08,6.39-1.83-.96-1.29-12.23,.07-12.39-1.17-.12-.9,6.78-1.88,6-2.87-1.69-2.15-11.71,1.39-12.13-.13-.18-.65,1.98-1.22,1.57-2.09-.24-.5-6.21-.33-7.84,1.68"/><circle class="t" cx="159.97" cy="277.2" r="2.08"/><path class="t" d="M157.41,265.82c.5,1.84,1.01,8.07,.76,10.33"/><path class="t" d="M160.79,265.28c.58,2.08,.89,8.46,.66,10.46"/><circle class="t" cx="189.57" cy="276.68" r="2.08"/><path class="t" d="M192.13,265.31c-.5,1.84-1.01,8.07-.76,10.33"/><path class="t" d="M188.75,264.77c-.58,2.08-.89,8.46-.66,10.46"/><path class="t" d="M162.05,277.2c7.18-.46,17.87-.77,25.44-.26"/><path class="t" d="M190.45,278.56c.68,2.44,3.98,5.65,6.02,4.7"/><path class="t" d="M159.02,279.05c-.68,2.44-4.97,5.68-7.01,4.73"/><path class="t" d="M147.7,394.7c8.3,2.57,10.63,2.38,18.82,1.52"/><path class="t" d="M201.93,394.7c-8.3,2.57-10.53,2.52-18.73,1.66"/><path class="t" d="M119.64,227.57c-26.64-.8-50.55-3.75-50.94-8.41-1.14-13.6,195.72-46.31,197.6-29.74,.99,8.68-26.72,21.73-48.04,27.84"/><path class="t" d="M69.07,217.96c8.42-18.87,169.99-53.1,196.7-29.72"/><path class="t" d="M209.56,180.16c-1.65-2.43-3.53-4.64-5.6-6.62"/><path class="t" d="M185.33,163.01c-10.21-2.92-21.61-2.55-32.13,1.42-.02,.01-.03,.02-.05,.03"/><path class="t" d="M122.69,194.95c3.22-7.83,7.65-14.23,12.85-19.28"/><path class="t" d="M135.72,175.85c8.17-5.02,9.56-6.17,17.49-11.42"/><path class="t" d="M185.33,163.01c7.71,4.34,10.99,6.55,18.59,10.56"/><path class="t" d="M154.86,314.85h-.01m-2.47-10.48c.62-3.74,2.47-7.46,5.25-9.93,1.11-.98,2.37-1.75,3.76-2.25t.02-.01c.12-.05,.24-.09,.36-.13,.01,0,.02-.01,.03-.01,.51-.16,1.05-.28,1.6-.36,.11-.02,.21-.03,.32-.04h.02s.1-.02,.14-.03c.42-.04,.85-.04,1.31,.01h.09c.27,.03,.54,.07,.82,.12,.27,.04,.53,.1,.81,.18,1.79,.46,3.81,1.39,5.94,2.64,2.24,1.31,4.6,3.01,6.97,4.88,.96,.77,1.92,1.56,2.86,2.38,.57,.48,1.13,.98,1.69,1.48,.48,.43,.96,.86,1.43,1.3l.02,.02"/><path class="t" d="M157.63,294.44c-.36-.88-.87-1.77-1.44-2.62-2.03-2.98-4.96-5.43-5.81-5.08-1.86,.76,1.66,4.24-.55,5.33-.04,.02-.08,.04-.13,.05-.31,.11-.77,.13-1.36,.09-.66-.04-1.47-.17-2.41-.35h-.01c-2.2-.42-5.06-1.17-7.98-1.94-1.9-.49-3.82-1-5.62-1.42-.54-.13-1.06-.25-1.57-.36-3.54-.78-6.3-1.09-6.88-.21-.53,.81-.06,1.78,1.01,2.83,.62,.61,1.44,1.24,2.39,1.89,.99,.67,2.11,1.36,3.29,2.04,.79,.46,1.6,.92,2.41,1.36,4.25,2.33,8.39,4.41,8.62,5.4,.25,1.11-1.01,1.38-2.07,1.88"/><path class="t" d="M165.24,304.73c.83-3.69,3.16-7.06,6.21-10.52"/></g></svg>