<?xml version="1.0" encoding="UTF-8"?><svg xmlns="http://www.w3.org/2000/svg" viewBox="0 0 336.39 517.73"><defs><style>.f{fill:#ead0d0;}.g{fill:#487899;}.h{fill:#fcb9b9;}.i{fill:#fff;}.j{fill:#6b3d34;}.k{fill:#bf7e67;}.l{fill:#eab5a7;}.m{fill:#507096;}.n{fill:#7f4d40;}.o{fill:#bc7171;}.p{fill:#fc9;}.q{stroke-width:2px;}.q,.r{fill:none;stroke:#3f2a25;stroke-linecap:round;stroke-linejoin:round;}.s{fill:#eaa0a0;}.t{fill:#3d587f;}.u{fill:#b27967;}.v{fill:#d17e75;}.w{fill:#dba77f;}.x{fill:#935d51;}.y{fill:#cc8e87;}.a`{fill:#e08f82;}</style></defs><g id="a"><path class="q" d="M196.71,342.72c.65,3.93-.03,10.45-.46,14.58-2.5,23.74-5.8,52.31-10.52,54.38-4.77,2.1-8.13,2.95-12.79,.3-3.26-1.87-1.17-36.52-4.95-38.48-.91-.47-1.96-.76-3.06-.9h-.01c-3.05-.44-6.45,.13-8.15,.64-.79,.23-1.32,1.4-1.68,3.2-1.83,9.17,.98,34.79-2.1,36.45-4.53,2.45-9.3,1.31-12.52-.13-3.88-1.73-3.77-6.29-13.96-54.39-.82-3.88-1.28-10.22-.61-14.77"/><path class="q" d="M112.08,312.74c-1.95-1.95-1.95-4.22-1.95-6.65"/><path class="q" d="M210.99,306.09c0,2.4,0,4.65-1.88,6.58"/><path class="q" d="M169.55,263.32c11.85-2.08,22.92-7.11,29.95-14.17,5.51-5.53,8.53-12.3,7.46-19.87-.21-1.47-.44-2.96-.71-4.47v-.03"/><path class="q" d="M107.65,235.12c.05,1.16,.19,2.3,.4,3.39,3.19,16.25,24.5,24.85,45.7,25.77"/><path class="q" d="M173.34,170.57h0c5.39-10.17,11.46-26.68,15.63-45.9,5.8-26.71,19.55-41.95,26.61-40.96,9.47,1.34,21.09,36.75,7.3,63.66-8.47,16.53-22.59,26.78-30.91,33.72,0,.01-.03,.02-.04,.04"/><path class="q" d="M123.54,183.22c-7.22-7.67-21.58-19.55-28.95-38.07-11.17-28.09,3.77-62.24,13.32-62.67,7.12-.32,19.36,16.17,22.6,43.3,2.41,20.23,6.29,35.98,10.69,46.2"/><path class="q" d="M75.99,243.61c11.2-3.95,22.55-5.88,32.06-5.1"/><path class="q" d="M207.09,227.14c12.56-5.07,28.56-5.84,39.93-3.03"/><path class="q" d="M238.76,242.45c-11.2-3.95-22.55-5.88-32.06-5.1"/><path class="q" d="M153.76,264.28c.49,2.21,.64,4.65-.4,6.54-1.56,2.84-10.75,1.75-14.78,4.8-3.62,2.74-11.84,16.17-12.99,18.88"/><line class="q" x1="164.94" y1="372.6" x2="164.93" y2="372.6"/><path class="q" d="M169.55,263.32c.03,1.98,.57,4.03,1.47,6.33,1.27,3.23,10.53,2.1,14.41,5.06,4.01,3.07,10.86,17.25,11.55,20.02"/><path class="q" d="M125.9,343.72c-1.26-.68-2.38-1.53-3.28-2.55"/><path class="q" d="M112.08,312.48c0,8.57,0,16.59,8.28,21.72"/><path class="q" d="M202.04,333.33c6.99-5.1,7.07-12.63,7.07-20.73"/><path class="q" d="M110.13,305.82v-.41c0-.35,.01-.7,.02-1.04,.05-1.51,.26-2.95,1.15-4.26,.88-1.29,2.41-2.46,5.08-3.47,1.28-.48,2.82-.93,4.68-1.33,1.33-.29,2.83-.55,4.52-.8"/><path class="q" d="M196.98,294.73c2.91,.48,5.22,1.03,7.04,1.65,6.97,2.38,6.97,5.73,6.97,9.44"/><path class="q" d="M120.37,334.2c0,2.28,.52,4.98,2.26,6.71"/><path class="q" d="M199.77,340.44c-.84,.96-1.87,1.77-3.04,2.42"/><path class="q" d="M202.05,333.33c0,2.3-.5,5.06-2.27,6.82"/><path class="q" d="M206.89,251.98c-2.45-1.04-4.92-1.98-7.39-2.83"/><path class="q" d="M207.75,252.45c-.79,2.96,.46,6.65,.88,6.68,.75,.06,1.43-3.35,2.22-3.26,.82,.09,.65,3.79,1.83,4.04,.93,.2,1.7-1.98,2.61-1.83,1.55,.26,1.41,7,2.22,7.04,.66,.04,1-4.47,2.09-4.57,1.53-.13,2.96,8.71,4.7,8.61,1.19-.07,.1-4.33,1.4-4.47,1.93-.21,4.41,8.72,6.82,8.27,1.59-.29-3.83-7.64-2.75-9.93,.52-1.1,6.26-1.79,6.26-2.35,0-.86-10.8-1.27-10.83-2.22-.02-.73,6.95-1.08,6.39-1.83-.96-1.29-12.23,.07-12.39-1.17-.12-.9,6.78-1.88,6-2.87-1.69-2.15-11.71,1.39-12.13-.13-.18-.65,1.98-1.22,1.57-2.09-.24-.5-6.21-.33-7.84,1.68"/><path class="q" d="M206.12,224.82s.09-.02,.13-.04c21.3-6.12,49.04-19.15,48.05-27.81-.05-.42-.22-.81-.53-1.17-.32-.4-.79-.76-1.41-1.09-.02-.02-.03-.03-.05-.03"/><path class="q" d="M57.07,225.52c-.28,.41-.4,.81-.37,1.19,.39,4.66,24.41,7.6,50.95,8.41"/><path class="q" d="M253.77,195.8c-.43-.38-.9-.74-1.4-1.08-.02-.02-.04-.04-.06-.04-9.18-6.34-29.66-7.77-54.05-6.16"/><path class="q" d="M110.32,203.06c-28.35,7.27-50.29,15.82-53.25,22.46"/><path class="q" d="M191.96,181.09c2.04,1.96,4.66,5.01,6.3,7.43h.01"/><path class="q" d="M173.34,170.56c-10.21-2.92-21.61-2.55-32.13,1.42-.02,.01-.03,.02-.05,.03"/><path class="q" d="M110.32,203.06c3.22-7.83,8.02-14.79,13.22-19.84"/><line class="q" x1="141.21" y1="171.98" x2="141.2" y2="171.98"/></g><g id="b"><g><path class="o" d="M181.92,175.49c.83,.49,1.65,.97,2.49,1.46-1.02-.27-1.84-.77-2.49-1.46Z"/><path class="o" d="M254.21,196.88c.98,8.68-26.73,21.73-48.05,27.84-1.78-10.09-4.94-20.8-10.27-29.89h0c27.57-2.99,50.05-3.67,56.48-.15,.01,0,.02,.01,.02,.01,.46,.32,.89,.66,1.29,1.01,.3,.36,.48,.75,.53,1.18Z"/><path class="o" d="M191.77,188.9c1.94-.17,3.86-.32,5.76-.44,24.81-1.68,45.66-.26,54.84,6.22-6.43-3.52-28.91-2.84-56.48,.14-16.64,1.8-35.13,4.44-53.06,7.5-1.82,.3-3.64,.62-5.45,.94-5.3,.93-10.53,1.9-15.61,2.89h-.02c-3.08,.6-6.11,1.21-9.08,1.82-29.36,6.06-52.49,12.67-55.68,17.44,3-6.68,25.15-15.28,53.72-22.57,24.96-6.37,54.82-11.74,81.05-13.94,.01-.01,.01,0,.01,0Z"/><path class="o" d="M212.17,254.28l.86-1.79c.84,1.26,10.43-2.07,12.08,.03,.78,.99-6.12,1.97-6,2.87,.16,1.24,11.42-.12,12.39,1.17,.55,.74-6.41,1.1-6.39,1.83,.02,.94,10.82,1.36,10.82,2.22,0,.55-5.74,1.24-6.26,2.34-1.08,2.3,4.34,9.64,2.75,9.93-2.42,.45-4.9-8.48-6.82-8.27-1.3,.14-.21,4.4-1.41,4.47-1.73,.11-3.16-8.73-4.69-8.61-1.09,.1-1.43,4.61-2.09,4.57-.8-.05-.67-6.78-2.22-7.04-.9-.16-1.67,2.03-2.6,1.82-1.18-.25-1.01-3.95-1.83-4.04h-.03l.6-1.9c.28,.14,.56,.27,.84,.4Z"/><path class="o" d="M225.4,96.71c4.65,13.05,6.12,33.51-2.62,50.57-8.47,16.53-22.59,26.78-30.91,33.72,0,.01-.03,.02-.04,.04-2.95-1.56-5.25-2.84-7.41-4.09,.26-.36,.53-.75,.8-1.14,.3-.44,.6-.89,.89-1.36,6.71,1.52,9.02,.78,21.09-11.61,9.66-9.93,22.75-34.63,18.18-66.12h.02Z"/><path class="o" d="M225.38,96.72c4.57,31.49-8.52,56.19-18.18,66.12-12.07,12.39-14.38,13.13-21.09,11.61,4.17-6.5,8.81-16.29,9.28-28.93,.58-15.55,2.54-27.98,5.87-40.11h-.01c2.04-5.51,11.26-21.7,18.58-18.98,2.04,2.29,3.99,5.86,5.56,10.28h-.01Z"/><path class="o" d="M219.83,86.43c-7.32-2.72-16.54,13.47-18.58,18.97h.01c-3.33,12.14-5.29,24.57-5.87,40.12-.47,12.64-5.11,22.43-9.28,28.93-.29,.47-.59,.92-.89,1.36-.27,.39-.54,.78-.8,1.14h-.01c-.84-.49-1.66-.97-2.49-1.46-5.05-5.26-.54-21.54,1.77-30.63l-.16-.05c1.96-6.24,3.78-13.05,5.34-20.23,5.8-26.71,19.55-41.95,26.61-40.96,1.43,.2,2.92,1.19,4.35,2.81Z"/><path class="o" d="M214.54,250.3c.42,.87-1.74,1.44-1.56,2.09,.01,.04,.03,.07,.05,.1l-.86,1.79c-.28-.13-.56-.26-.84-.4-1.2-.56-2.41-1.11-3.63-1.62-.3-.14-.6-.26-.9-.39,1.76-1.91,7.5-2.06,7.74-1.57Z"/><path class="o" d="M211.33,253.88l-.6,1.9c-.78,0-1.45,3.32-2.19,3.26-.42-.03-1.68-3.72-.88-6.68l.04-.1c1.22,.51,2.43,1.06,3.63,1.62Z"/><path class="o" d="M210.7,302.67c.19,1.08,.19,2.2,.19,3.33,0,2.45,0,4.74-2,6.7-1.7,1.67-4.87,3.1-10.74,4.17,1.66-1.19,1.4-5.15,.08-6.61,6.04-1.1,9.2-2.6,10.85-4.35l.09-.09c.9-.97,1.32-2.03,1.53-3.15Z"/><path class="o" d="M210.7,302.66h0c-.21,1.13-.63,2.19-1.53,3.16-.03-.03-.06-.07-.09-.1-.86-.91-2.13-1.75-4.01-2.51-2.02-.8-4.72-1.51-8.36-2.1-3.44-.55-7.71-1-13.03-1.32,1.27-1.95-.01-5.41-2.05-6.62,1.01,.06,1.98,.11,2.91,.17,.23,.01,.45,.03,.67,.05,.85,.05,1.66,.11,2.45,.17,1.84,.15,3.54,.31,5.09,.5,.72,.08,1.41,.17,2.07,.26,.72,.1,1.41,.2,2.07,.31,2.91,.48,5.21,1.03,7.04,1.66,4.84,1.65,6.31,3.9,6.77,6.37Z"/><path class="o" d="M198.23,310.26c-4.33,.81-10.14,1.4-17.95,1.77-1.42,.06-2.91,.13-4.47,.17-1.82,.06-3.73,.11-5.74,.14-2.98,.06-6.18,.08-9.61,.08s-6.59-.02-9.55-.08c-5.08-.09-9.53-.25-13.43-.48-16.36-.96-22.97-3.12-25.64-5.94-.03-.03-.06-.06-.08-.09,.02-.03,.05-.07,.08-.1,1.03-1.1,2.66-2.09,5.2-2.95,4.61-1.56,12.22-2.69,24.84-3.23,1.82-.07,3.73-.13,5.76-.19,.35,0,.7,0,1.06-.02,1.06-.03,2.15-.05,3.27-.06,.08-.01,.15-.01,.23-.01,2.59-.04,5.35-.06,8.27-.06,5.54,0,10.48,.07,14.87,.21,2.67,.08,5.13,.19,7.42,.32,.31,.02,.62,.03,.92,.05,5.32,.32,9.59,.77,13.03,1.32,3.64,.59,6.34,1.3,8.36,2.1,1.88,.76,3.15,1.6,4.01,2.51,.03,.03,.06,.07,.09,.1l-.09,.09c-1.65,1.75-4.81,3.25-10.85,4.35Z"/><path class="o" d="M208.89,312.7l.05,.05c0,8.1,0,15.39-6.99,20.49-.9,.66-1.91,1.28-3.05,1.86-.03,0-.06,.03-.09,.04l-.26,.2c-1.3-1.68-2.57-3.3-3.81-4.82,.36-.34,.71-.7,1.04-1.08,2.9-3.25,4-7.81,4.41-10.92-4.57,.82-10.99,1.31-17.83,1.49-8.86,.21-18.41-.12-25.48-1.02,1.17,.02,2.36,.02,3.59,.02,18.54,0,30.27-.79,37.68-2.14,5.87-1.07,9.04-2.5,10.74-4.17Z"/><path class="o" d="M206.87,229.19c1.07,7.56-1.95,14.33-7.46,19.86-1.98-.68-3.95-1.3-5.9-1.84,1.68-2.03,3.1-4.11,4.15-6.15,.35-.68,.66-1.38,.94-2.11h0c.7-.59,1.07-1.28,.99-1.97-.03-.21-.09-.41-.21-.6,2.21-8.87-.09-20.3-2.8-30.56-6.42-1.09-14.45-1.64-23.07-1.82,1.05-.61,1.81-1.3,1.74-1.82-.11-.81-2.25-1.48-4.01-.94-1.48,.45-2.49,1.69-2.88,2.7-8.14-.04-16.6,.21-24.57,.61-.11-.77-.42-1.58-.96-2.23,17.93-3.06,36.42-5.7,53.06-7.5h0c5.33,9.1,8.49,19.81,10.27,29.9,.27,1.51,.5,3,.71,4.47Z"/><path class="o" d="M198.55,335.34l.26-.2s.06-.03,.09-.04c1.14-.58,2.15-1.2,3.05-1.86,.01,2.3-.5,5.35-2.27,7.11-.84,.96-1.87,1.77-3.04,2.42-6.46,3.66-17,2.83-21.62-.14h0c11.8,1.54,22.66-3.03,16.74-15.6,.98,1.07,1.97,2.25,2.98,3.49,1.24,1.52,2.51,3.14,3.81,4.82Z"/><path class="o" d="M199.59,236.98c.08,.69-.29,1.38-.99,1.96,.31-.82,.57-1.68,.78-2.56,.12,.19,.18,.39,.21,.6Z"/><path class="o" d="M190.92,217.35c-2.29-4.61-6.81-8.35-10.29-7.51-2.12,.51-4.2,2.39-5.95,4.85h-.01c-3.25,4.6-5.34,11.18-4.3,14.59,.04,.15,.09,.29,.15,.43,1,2.38,5.7,3.13,10.48,2.43,4.81-.72,9.7-2.9,10.94-6.37,.93-2.59,.35-5.66-1.02-8.42Zm2.59,29.86c-5.23,6.35-12.93,12.23-19.57,15.08t-.02,.01c-1.47,.35-2.96,.66-4.47,.93-3.94,.69-7.98,1.05-11.97,1.05-1.27,0-2.54-.03-3.82-.09-22.62-.98-45.37-10.71-46.1-29.16-.05-1.29,.01-2.63,.18-4.01,.93-7.37,2.4-15.38,4.93-23.05,2.97-.61,6-1.22,9.08-1.82h.02c4.9-.47,10.63-.93,16.8-1.31,1.52,1.48,3.87,2.74,4.72,2.14,.46-.32,.67-1.33,.5-2.43,7.97-.4,16.43-.65,24.57-.61-.24,.58-.27,1.09-.07,1.33,.56,.7,3.35-.17,5.22-1.27,8.62,.18,16.65,.73,23.07,1.82,2.71,10.26,5.01,21.69,2.8,30.56-.69-1.26-3.02-1.98-5.66-1.66-3.04,.37-5.35,1.98-5.15,3.6,.19,1.61,2.82,2.62,5.86,2.25,1.75-.21,3.25-.83,4.17-1.62-.28,.73-.59,1.43-.94,2.11-1.05,2.04-2.47,4.12-4.15,6.15Zm-45.15-4.35c-1.9-.08-3.48,.16-4.43,1.52-1.7,2.43,1.04,4.47,4.97,5.57,2.62,.73,5.77,1.05,8.48,.78,2.92-.29,5.84-1.33,8.29-2.72,2.01-1.15,3.7-2.54,4.81-3.95,1.54-1.96,1.95-3.96,.53-5.42-2.38-2.45-4.86-1.11-7.73,.74-2.16,1.38-4.53,3.05-7.24,3.62-.53,.11-1.07,.17-1.62,.19-2.14,.07-4.25-.28-6.06-.33Zm5.66-12.07c4.44,0,10.02-2.67,10-4.37-.01-2.16-18.16-.05-18.35,2.04-.14,1.57,4.63,2.33,8.35,2.33Zm.45,6.33c2.64-.16,4.33-1.82,3.75-3.28-.16-.38-.99-.53-2.05-.53-2.04,0-4.93,.53-5.33,1.02-.57,.7,1.07,2.41,2.86,2.74,.26,.05,.51,.07,.77,.05Zm-14.22-6.75c1.15-3.34-1.4-10.15-5.09-14.71h-.01c-1.89-2.35-4.09-4.11-6.25-4.48-3.36-.58-7.4,3.05-9.5,7.51-1.42,3.01-1.94,6.4-.77,9.12,1.47,3.37,6.47,5.23,11.31,5.63t.02,.01c4.81,.4,9.45-.65,10.29-3.08Zm-14.58,11.03c0-1.63-2.49-2.95-5.55-2.95s-5.55,1.32-5.55,2.95,2.48,2.94,5.55,2.94,5.55-1.32,5.55-2.94Z"/><path class="o" d="M200.19,318.52c-.41,3.11-1.51,7.67-4.41,10.92-.33,.38-.68,.74-1.04,1.08-1.01-1.24-2-2.42-2.98-3.49h0c-3.41-3.81-6.55-6.37-9.38-6.37l-.02-.65c6.84-.18,13.26-.67,17.83-1.49Z"/><path class="o" d="M199.38,236.38c-.21,.88-.47,1.74-.78,2.56h0c-.92,.8-2.42,1.42-4.17,1.63-3.04,.37-5.67-.64-5.86-2.25-.2-1.62,2.11-3.23,5.15-3.6,2.64-.32,4.97,.4,5.66,1.66Z"/><path class="o" d="M156.88,318.99c-6.49-.03-12.08-.17-16.9-.41-17.8-.87-25.02-3.01-27.94-5.88-2-1.96-2-4.25-2-6.7v-.68c0-.36,0-.7,.02-1.04,.01-.54,.05-1.07,.14-1.58h.02c.22,1.11,.65,2.15,1.54,3.13,.02,.03,.05,.06,.08,.09,2.67,2.82,9.28,4.98,25.64,5.94,3.9,.23,8.35,.39,13.43,.48,2.96,.06,6.14,.08,9.55,.08s6.63-.02,9.61-.08c2.01-.03,3.92-.08,5.74-.14,1.56-.04,3.05-.11,4.47-.17,7.81-.37,13.62-.96,17.95-1.77,1.32,1.46,1.58,5.42-.08,6.61-7.41,1.35-19.14,2.14-37.68,2.14-1.23,0-2.42,0-3.59-.02Z"/><path class="o" d="M173.24,170.47c3.54,2,6.15,3.54,8.68,5.02,.65,.69,1.47,1.19,2.49,1.46h.01c2.16,1.25,4.46,2.53,7.41,4.09,.01-.02,.03-.03,.04-.04,2.07,1.98,3.95,4.19,5.6,6.62l.06,.84c-1.9,.12-3.82,.27-5.76,.44-.02-.03-.04-.05-.05-.08-4.97-8.74-23.98-19.83-38.77-19.86,6.89-.87,13.83-.34,20.29,1.51Z"/><path class="o" d="M168.17,340.67s.05-.01,.07-.01c.51-.07,2.21-.21,4.59-.6,.05,.21,.13,.41,.24,.61,.38,.72,1.05,1.38,1.95,1.96,4.62,2.97,15.16,3.8,21.62,.14,.65,3.93-.05,10.31-.48,14.44-1.68,15.98-3.73,34.15-6.33,44.95-1.97,.61-3.6,1.08-5.05,1.41,1.41-4.56,2.51-10.31,3.36-16.51,.17-.27,.27-.57,.27-.87,0-.17-.03-.33-.09-.49,1.66-12.61,2.32-26.83,2.46-36.63h0c-16.17-.01-15.28-2.78-18.33-4.12-2.84-1.25-17.67-2.05-23.99-2.62,.47-.49,.79-1.01,.94-1.57,.01-.01,.01-.02,.01-.03,.01-.02,.01-.05,.02-.07,3.37,.22,7.03,.16,11.04,.16,2.01,0,3.93-.03,5.78-.08,.67-.02,1.31-.04,1.92-.07Z"/><path class="o" d="M196.89,294.63c-.66-.11-1.35-.21-2.07-.31-1.48-4.17-5.47-13.67-7.6-17.74h.01c3.96,4.95,9.06,15.69,9.66,18.05Z"/><path class="o" d="M193.51,247.21c1.95,.54,3.92,1.16,5.9,1.84-6.12,6.16-15.34,10.78-25.47,13.24,6.64-2.85,14.34-8.73,19.57-15.08Z"/><path class="o" d="M184.39,290.72h-.01c-2.04,.96-5.35-2.26-6.02-4.7,.7-.33,1.2-1.05,1.2-1.88,0-.39-.11-.75-.29-1.06-.25-2.27,.26-8.48,.76-10.31l.02-.08c2.03,.39,3.97,.92,5.29,1.93,.58,.44,1.22,1.11,1.89,1.95h-.01c2.13,4.08,6.12,13.58,7.6,17.75-.66-.09-1.35-.18-2.07-.26-1.55-.19-3.25-.35-5.09-.5-.79-.06-1.6-.12-2.45-.17-.3-.89-.56-1.78-.82-2.67Z"/><path class="o" d="M191.76,327.03c5.92,12.57-4.94,17.14-16.74,15.59h0c-.9-.57-1.57-1.23-1.95-1.95-.11-.2-.19-.4-.24-.61-.02-.04-.03-.08-.04-.12-2.21-5.07,2.92-18.27,8.87-19.22,.24-.04,.48-.06,.72-.06,2.83,0,5.97,2.56,9.38,6.36h0Z"/><path class="o" d="M190.92,217.35c1.37,2.76,1.95,5.83,1.02,8.42-1.24,3.47-6.13,5.65-10.94,6.37h0c7.79-2.21,5.46-10.73,1.2-15.3,3.05-.75,6.18-.58,8.72,.51Z"/><path class="o" d="M130.34,179.08c.73-.48,1.42-.93,2.11-1.39,2.35-1.56,4.68-3.16,8.61-5.77,.02-.01,.03-.02,.05-.03,3.86-1.45,7.84-2.43,11.84-2.93,14.79,.03,33.8,11.12,38.77,19.86,.01,.03,.03,.05,.04,.08-26.23,2.2-56.09,7.57-81.05,13.94l-.11-.43c3.22-7.83,7.65-14.23,12.85-19.28,.07,.07,.12,.12,.17,.18,2.9-1.78,4.94-3.07,6.72-4.23Z"/><path class="o" d="M190.78,349.06h0c-.14,9.81-.8,24.03-2.46,36.64-.47-1.4-2.98-2.46-6-2.46-3.37,0-6.1,1.32-6.1,2.95s2.73,2.94,6.1,2.94c2.73,0,5.04-.87,5.82-2.07-.85,6.2-1.95,11.95-3.36,16.51-4.65,1.09-7.43,.91-13.67,.25-.81-10.89-.51-29.01-3.21-30.41-.91-.47-1.96-.76-3.06-.9h-.01c-3.05-.44-6.45,.13-8.15,.64-1.53,.06-6.21,0-6.21,1.32,.05,6.54,.7,20.22-.73,29.66-4.82,.36-7.66,.03-14.14-1.97-1.73-7.49-4.25-20.57-9.18-43.88-.82-3.88-1.28-10.1-.61-14.65,.68,.37,1.4,.68,2.15,.95,7.21,2.63,17.28,1.12,20.49-2.25h.01c6.32,.57,21.15,1.37,23.99,2.62,3.05,1.34,2.16,4.11,18.33,4.11Zm-41.58,38.25c0-1.63-2.62-2.95-5.85-2.95s-5.86,1.32-5.86,2.95,2.62,2.94,5.86,2.94,5.85-1.32,5.85-2.94Z"/><path class="o" d="M188.32,385.7c.06,.16,.09,.32,.09,.49,0,.3-.1,.6-.27,.87,.07-.45,.13-.91,.18-1.36Z"/><path class="o" d="M188.32,385.7c-.05,.45-.11,.91-.18,1.36-.78,1.2-3.09,2.07-5.82,2.07-3.37,0-6.1-1.32-6.1-2.94s2.73-2.95,6.1-2.95c3.02,0,5.53,1.06,6,2.46Z"/><path class="o" d="M190.92,217.35c-2.54-1.09-5.67-1.26-8.72-.51-2.38-2.56-5.38-3.89-7.52-2.15,1.75-2.46,3.83-4.34,5.95-4.85,3.48-.84,8,2.9,10.29,7.51Z"/><path class="o" d="M189.83,402.16c-1.25,5.24-2.65,8.75-4.19,9.43-2.75,1.21-5.04,2.01-7.37,1.95,2.68-.75,4.82-4.5,6.51-9.97,1.45-.33,3.08-.8,5.05-1.41Z"/><path class="o" d="M185.21,293.39c-.22-.02-.44-.04-.67-.05-.93-.06-1.9-.11-2.91-.17h-.01c-1.05-.05-2.14-.1-3.28-.15-.41-.02-.83-.03-1.25-.05-4.82-.17-10.33-.26-16.62-.26-4.48,0-8.56,.05-12.28,.13-2.07,.05-4.02,.11-5.87,.19-.04-.56-.11-1.21-.19-1.91,2.02-.75,4.31-2.87,4.8-4.6,.28,.14,.6,.22,.94,.22,1.15,0,2.08-.94,2.08-2.09,7.18-.45,17.87-.76,25.44-.25h.02c.13,1.03,1,1.82,2.06,1.82,.32,0,.62-.07,.89-.2,.67,2.44,3.98,5.66,6.02,4.7h.01c.26,.89,.52,1.78,.82,2.67Z"/><path class="o" d="M110.22,302.7h-.02c.14-.94,.44-1.84,1.01-2.69,.87-1.29,2.4-2.46,5.07-3.47,1.28-.48,2.82-.92,4.68-1.33,1.34-.29,2.84-.56,4.53-.8,3.58-.51,8-.93,13.44-1.22,.16-.01,.32-.02,.49-.02,.93-.05,1.9-.1,2.9-.14,1.85-.08,3.8-.14,5.87-.19,3.72-.08,7.8-.13,12.28-.13,6.29,0,11.8,.09,16.62,.26,.42,.02,.84,.03,1.25,.05,1.14,.05,2.23,.1,3.28,.15h.01c2.04,1.21,3.32,4.67,2.05,6.62-.3-.02-.61-.03-.92-.05-2.29-.13-4.75-.24-7.42-.32-4.39-.14-9.33-.21-14.87-.21-2.92,0-5.68,.02-8.27,.06-.08,0-.15,0-.23,.01-1.12,.01-2.21,.03-3.27,.06-.36,.01-.71,.02-1.06,.02-2.03,.06-3.94,.12-5.76,.19-12.62,.54-20.23,1.67-24.84,3.23-2.54,.86-4.17,1.85-5.2,2.95-.03,.03-.06,.07-.08,.1-.89-.98-1.32-2.02-1.54-3.13Z"/><path class="o" d="M183.53,144.81l.16,.05c-2.31,9.09-6.82,25.37-1.77,30.63-2.53-1.48-5.14-3.02-8.68-5.02,3.38-6.36,7.02-15.21,10.29-25.66Z"/><path class="o" d="M182.36,320.01l.02,.65c-.24,0-.48,.02-.72,.06-5.95,.95-11.08,14.15-8.87,19.22,.01,.04,.02,.08,.04,.12-2.38,.39-4.08,.53-4.59,.6-.02,0-.05,.01-.07,.01-.61,.03-1.25,.05-1.92,.07-1.85,.05-3.77,.08-5.78,.08-4.01,0-7.67,.06-11.04-.16,1.63-3.75-.74-11.93-4.5-16.33-.64-.76-1.33-1.4-2.04-1.89-.75-.52-1.53-.87-2.33-1-.24-.04-.48-.06-.72-.06l.14-2.8c4.82,.24,10.41,.38,16.9,.41,7.07,.9,16.62,1.23,25.48,1.02Z"/><path class="o" d="M182.2,216.84c4.26,4.57,6.59,13.09-1.2,15.29h0c-4.78,.71-9.48-.04-10.48-2.42-.06-.14-.11-.28-.15-.43l.06-.02c.9-5.27,4.11-8.95,7.98-10.99,.16,.26,.45,.44,.78,.44,.51,0,.93-.42,.93-.93,0-.09,0-.18-.04-.27,.7-.28,1.4-.5,2.12-.67Z"/><path class="o" d="M182.2,216.84c-.72,.17-1.42,.39-2.12,.67-.12-.38-.47-.66-.89-.66-.51,0-.92,.42-.92,.93,0,.18,.05,.35,.14,.49-3.87,2.04-7.08,5.72-7.98,10.99l-.06,.02c-1.04-3.41,1.05-9.99,4.3-14.58h.01c2.14-1.75,5.14-.42,7.52,2.14Z"/><path class="o" d="M180.08,217.51c.03,.09,.04,.18,.04,.27,0,.51-.42,.93-.93,.93-.33,0-.62-.18-.78-.44,.54-.29,1.1-.54,1.67-.76Z"/><path class="o" d="M180.05,272.69l-.02,.08c-.5,1.83-1.01,8.04-.76,10.31-.37-.61-1.04-1.02-1.8-1.02-.58,0-1.1,.24-1.48,.62-.22-1.99,.09-8.37,.67-10.46l.02-.11c1.1,.18,2.25,.36,3.37,.58Z"/><path class="o" d="M179.19,216.85c.42,0,.77,.28,.89,.66-.57,.22-1.13,.47-1.67,.76-.09-.14-.14-.31-.14-.49,0-.51,.41-.93,.92-.93Z"/><path class="o" d="M179.27,283.08c.18,.31,.29,.67,.29,1.06,0,.83-.5,1.55-1.2,1.88-.27,.13-.57,.2-.89,.2-1.06,0-1.93-.79-2.06-1.82-.01-.08-.02-.17-.02-.26,0-.57,.23-1.08,.6-1.46,.38-.38,.9-.62,1.48-.62,.76,0,1.43,.41,1.8,1.02Z"/><path class="o" d="M171.11,403.82c6.24,.66,9.02,.84,13.67-.25-1.69,5.47-3.83,9.22-6.51,9.97h-.01c-1.7-.03-3.44-.53-5.41-1.65-.93-.54-1.42-3.73-1.74-8.07Z"/><path class="o" d="M176.68,272.11l-.02,.11c-.58,2.09-.89,8.47-.67,10.46-.37,.38-.6,.89-.6,1.46,0,.09,.01,.18,.02,.26h-.02c-7.57-.51-18.26-.2-25.44,.25,0-.56-.22-1.07-.6-1.45h0c.23-2.02-.08-8.38-.66-10.46,2.18-.39,3.96-.9,4.57-2.01,.62-1.13,.82-2.46,.77-3.81h.01c6.81,.62,9.28,.49,15.76-.76h.01c.25,1.05,.63,2.15,1.12,3.4,.61,1.52,2.99,2.08,5.75,2.55Z"/><path class="o" d="M175.25,202.18c.07,.52-.69,1.21-1.74,1.82-1.69-.04-3.42-.06-5.15-.06,.39-1.01,1.4-2.25,2.88-2.7,1.76-.54,3.9,.13,4.01,.94Z"/><path class="o" d="M171.01,238.64c1.42,1.46,1.01,3.46-.53,5.42-1.11,1.41-2.8,2.8-4.81,3.95h0c.28-1.16-1.42-6.96-2.39-8.63,2.87-1.85,5.35-3.19,7.73-.74Z"/><path class="o" d="M169.81,266.16h-.01c-6.48,1.25-8.95,1.38-15.76,.76h-.01c-.03-.92-.18-1.84-.37-2.73,1.28,.06,2.55,.09,3.82,.09,3.99,0,8.03-.36,11.97-1.05v.02c0,1,.12,1.94,.36,2.91Z"/><path class="o" d="M173.51,204c-1.87,1.1-4.66,1.97-5.22,1.27-.2-.24-.17-.75,.07-1.33,1.73,0,3.46,.02,5.15,.06Z"/><path class="o" d="M163.28,239.38c.97,1.67,2.67,7.47,2.39,8.62h0c-2.45,1.4-5.37,2.44-8.29,2.73,.28-1.15-.36-6.06-1.34-7.73,2.71-.57,5.08-2.24,7.24-3.62Z"/><path class="o" d="M164.02,226.42c.02,1.7-5.56,4.37-10,4.37-3.72,0-8.49-.76-8.35-2.33,.19-2.09,18.34-4.2,18.35-2.04Z"/><path class="o" d="M158.22,233.84c.58,1.46-1.11,3.12-3.75,3.28-.26,.02-.51,0-.77-.05,2.49-.11,2.9-2.72,2.46-3.56v-.2c1.07,0,1.9,.15,2.06,.53Z"/><path class="o" d="M156.04,243c.98,1.67,1.62,6.58,1.34,7.73-2.71,.27-5.86-.05-8.48-.78,.28-1.15,.44-5.4-.54-7.09,1.81,.05,3.92,.4,6.06,.33,.55-.02,1.09-.08,1.62-.19Z"/><path class="o" d="M156.16,233.51c.44,.84,.03,3.45-2.46,3.56-1.79-.33-3.43-2.04-2.86-2.74,.4-.49,3.29-1.02,5.33-1.02v.2Z"/><path class="o" d="M156.68,373.15c-.79,.23-1.32,1.4-1.68,3.2-1.18,5.89-.44,18.58-.58,27.33-1.8,.19-3.32,.35-4.68,.45,1.43-9.44,.78-23.12,.73-29.66,0-1.32,4.68-1.26,6.21-1.32Z"/><path class="o" d="M154.42,403.68c-.07,4.88-.42,8.53-1.52,9.12-2.77,1.5-5.63,1.65-8.17,1.21,2.69-.47,4.19-4.47,5.01-9.88,1.36-.1,2.88-.26,4.68-.45Z"/><path class="o" d="M144.93,324.33c3.76,4.4,6.13,12.58,4.5,16.33-.01,.02-.01,.05-.02,.07,0,.01,0,.02-.01,.03-.15,.56-.47,1.08-.94,1.57h-.01c-3.21,3.37-13.28,4.88-20.49,2.25,10.16,.39,16.69-2.27,17.06-10.64h0c1.36-2.53,.69-6.22-.23-9.49l.14-.12Z"/><path class="o" d="M146.93,286.52c-.67-.35-1.14-1.06-1.14-1.87,0-.38,.1-.73,.28-1.04,.36-.62,1.03-1.04,1.8-1.04,.58,0,1.1,.24,1.48,.62h0c.38,.39,.6,.9,.6,1.46,0,1.15-.93,2.09-2.08,2.09-.34,0-.66-.08-.94-.22Z"/><path class="o" d="M148.69,272.74c.58,2.08,.89,8.44,.66,10.45-.38-.38-.9-.62-1.48-.62-.77,0-1.44,.42-1.8,1.04,.25-2.26-.26-8.46-.76-10.32h0c1.16-.2,2.32-.36,3.38-.55Z"/><path class="o" d="M148.36,242.86c.98,1.69,.82,5.94,.54,7.09-3.93-1.1-6.67-3.14-4.97-5.57,.95-1.36,2.53-1.6,4.43-1.52Z"/><path class="o" d="M143.35,384.36c3.23,0,5.85,1.32,5.85,2.95s-2.62,2.94-5.85,2.94-5.86-1.32-5.86-2.94,2.62-2.95,5.86-2.95Z"/><path class="o" d="M135.6,402.16c6.48,2,9.32,2.33,14.14,1.97-.82,5.41-2.32,9.41-5.01,9.88-1.61-.27-3.1-.78-4.35-1.34-2-.89-2.94-2.54-4.78-10.51Z"/><path class="o" d="M145.79,284.65c0,.81,.47,1.52,1.14,1.87-.49,1.73-2.78,3.85-4.8,4.6-.24-2.13-.59-4.69-.72-6.39-.23,1.74-.87,4.16-1.49,6.51-.17,.65-.34,1.3-.5,1.93-.17,0-.33,0-.49,.02-5.44,.29-9.86,.71-13.44,1.22,1.15-2.71,9.37-16.14,12.99-18.88,1.68-1.27,4.27-1.83,6.83-2.24,.5,1.86,1.01,8.06,.76,10.32-.18,.31-.28,.66-.28,1.04Z"/><path class="o" d="M144.79,324.45c.92,3.27,1.59,6.96,.23,9.48,.14-3.04-.53-6.83-2.13-11.49,.71,.49,1.4,1.13,2.04,1.89l-.14,.12Z"/><path class="o" d="M145.02,333.94c-.37,8.37-6.9,11.03-17.06,10.64-.75-.27-1.47-.58-2.15-.95-1.26-.69-2.38-1.53-3.28-2.56-1.74-1.73-2.25-4.68-2.26-6.96,.93,.58,1.97,1.13,3.13,1.63,.03,.02,.06,.04,.09,.04l.24,.19c4.54-5.83,8.68-11.03,12.39-13.33h0c1.29-.81,2.53-1.26,3.72-1.26,.24,0,.48,.02,.72,.06,.8,.13,1.58,.48,2.33,1,1.6,4.66,2.27,8.45,2.13,11.49h0Z"/><path class="o" d="M143.79,204.55c.17,1.1-.04,2.11-.5,2.43-.85,.6-3.2-.66-4.72-2.14,1.71-.1,3.45-.19,5.22-.29Z"/><path class="o" d="M142.83,202.32c.54,.65,.85,1.46,.96,2.23-1.77,.1-3.51,.19-5.22,.29-.54-.52-.97-1.07-1.19-1.57h0c1.81-.33,3.63-.65,5.45-.95Z"/><path class="o" d="M142.13,291.12c.08,.7,.15,1.35,.19,1.91-1,.04-1.97,.09-2.9,.14,.16-.63,.33-1.28,.5-1.93,.59,.28,1.38,.2,2.21-.12Z"/><path class="o" d="M141.41,284.73c.13,1.7,.48,4.26,.72,6.39-.83,.32-1.62,.4-2.21,.12,.62-2.35,1.26-4.77,1.49-6.51Z"/><path class="o" d="M141.11,171.89s-.03,.02-.05,.03c-3.93,2.61-6.26,4.21-8.61,5.77l-.06-.1c3.57-1.76-2.56-18.03-3.91-48.62-.3-6.81-1.7-21.59-6.11-31.89,3.6,7.24,6.66,16.94,8.05,28.61,2.41,20.23,6.29,35.98,10.69,46.2Z"/><path class="o" d="M135.16,215.66c3.69,4.56,6.24,11.37,5.09,14.71-.91-5.43-4.34-9.1-8.41-11.01-.02-.49-.43-.87-.92-.87-.23,0-.44,.08-.6,.23-.78-.28-1.58-.5-2.37-.65,2.19-2.58,5-3.98,7.2-2.41h.01Z"/><path class="o" d="M139.98,318.58l-.14,2.8c-1.19,0-2.43,.45-3.72,1.25h0c-3.71,2.31-7.85,7.51-12.39,13.34l-.24-.19s-.06-.02-.09-.04c-1.16-.5-2.2-1.05-3.13-1.63-8.28-5.13-8.28-12.79-8.28-21.36l.05-.05c2.92,2.87,10.14,5.01,27.94,5.88Z"/><path class="o" d="M137.38,203.27c.22,.5,.65,1.05,1.19,1.57-6.17,.38-11.9,.84-16.8,1.31,5.08-.99,10.31-1.96,15.61-2.89h0Z"/><path class="o" d="M135.15,215.66c-2.2-1.57-5.01-.17-7.2,2.41-2.96-.59-5.96-.35-8.38,.7l-.17-.08c2.1-4.46,6.14-8.09,9.5-7.51,2.16,.37,4.36,2.13,6.25,4.48Z"/><path class="o" d="M140.25,230.37c-.84,2.43-5.48,3.48-10.29,3.08t-.02-.01c-8.01-1.73-6.06-10.59-1.99-15.37,.79,.15,1.59,.37,2.37,.65-.2,.16-.33,.41-.33,.7,0,.51,.42,.92,.93,.92s.93-.41,.93-.92c0-.02,0-.04-.01-.06,4.07,1.91,7.5,5.58,8.41,11.01Z"/><path class="o" d="M132.39,177.59l.06,.1c-.69,.46-1.38,.91-2.11,1.39-3.92-6.39-9.31-17.56-8.41-33.17,.54-9.18,.49-17.33-.09-25.01,0-.02-.01-.05-.01-.07-.04-.9-.11-1.76-.21-2.58-.4-4.37-.98-8.6-1.71-12.82h-.01c-.51-5.1-6.43-20.59-14.38-22.35,.79-.42,1.56-.66,2.3-.69,4.05-.18,9.76,5.08,14.53,14.65,0,.01,.01,.02,.02,.04,4.41,10.3,5.81,25.08,6.11,31.89,1.35,30.59,7.48,46.86,3.91,48.62Z"/><path class="o" d="M131.84,219.36s.01,.04,.01,.06c0,.51-.42,.92-.93,.92s-.93-.41-.93-.92c0-.29,.13-.54,.33-.7,.51,.18,1.02,.39,1.52,.64Z"/><path class="o" d="M130.92,218.49c.49,0,.9,.38,.92,.87-.5-.25-1.01-.46-1.52-.64,.16-.15,.37-.23,.6-.23Z"/><path class="o" d="M119.57,218.77c2.42-1.05,5.42-1.29,8.38-.7-4.07,4.78-6.02,13.64,1.99,15.37-4.84-.4-9.84-2.26-11.31-5.63-1.17-2.72-.65-6.11,.77-9.12l.17,.08Z"/><path class="o" d="M120.12,238.45c3.06,0,5.55,1.32,5.55,2.95s-2.49,2.94-5.55,2.94-5.55-1.32-5.55-2.94,2.48-2.95,5.55-2.95Z"/><path class="o" d="M130.34,179.08c-1.78,1.16-3.82,2.45-6.72,4.23-.05-.06-.1-.11-.17-.18,1.31-2.62-2.01-13.68-2.93-16.9-3.08-10.81,1.95-31.96,1.32-45.33,.58,7.68,.63,15.83,.09,25.01-.9,15.61,4.49,26.78,8.41,33.17Z"/><path class="o" d="M120.52,166.23c.92,3.22,4.24,14.28,2.93,16.9-7.22-7.67-21.58-19.55-28.95-38.07-10.3-25.91,1.61-56.99,11.02-61.98,7.95,1.76,13.87,17.25,14.38,22.35h.01c.73,4.22,1.31,8.45,1.71,12.82,.08,.86,.15,1.72,.21,2.58,0,.02,.01,.05,.01,.07,.63,13.37-4.4,34.52-1.32,45.33Z"/><path class="o" d="M112.67,207.97c-2.53,7.67-4,15.68-4.93,23.05-.17,1.38-.23,2.72-.18,4.01h-.02c-26.64-.8-50.55-3.75-50.94-8.41-.03-.38,.09-.78,.38-1.2h.01c3.19-4.78,26.32-11.39,55.68-17.45Z"/></g></g><g id="c"><g><path class="k" d="M254.2,196.87c.99,8.68-26.72,21.74-48.05,27.85h0c-1.78-10.1-4.94-20.81-10.27-29.9h0c27.35-2.96,49.7-3.66,56.33-.24,.02,0,.03,.01,.05,.03,.5,.34,.98,.71,1.41,1.09,.31,.36,.48,.75,.53,1.17Z"/><path class="w" d="M252.21,194.58c-6.63-3.42-28.98-2.72-56.33,.23-16.64,1.8-35.13,4.44-53.06,7.5-1.82,.31-3.64,.62-5.45,.94-5.31,.94-10.54,1.91-15.63,2.89-3.08,.6-6.11,1.21-9.08,1.82-29.32,6.05-52.42,12.65-55.67,17.42,3.05-6.67,25.18-15.26,53.71-22.54,24.96-6.37,54.81-11.74,81.06-13.94,1.94-.17,3.86-.32,5.76-.44,24.67-1.67,45.43-.27,54.69,6.12Z"/><path class="k" d="M216.21,256.33c-1.33-.71-2.68-1.39-4.05-2.05l.86-1.79c.84,1.26,10.43-2.07,12.08,.03,.78,.99-6.12,1.97-6,2.87,.17,1.24,11.43-.12,12.39,1.17,.56,.74-6.41,1.09-6.39,1.83,.03,.94,10.83,1.35,10.83,2.21,0,.56-5.74,1.25-6.26,2.35-1.09,2.29,4.33,9.64,2.74,9.93-2.41,.45-4.89-8.48-6.82-8.27-1.3,.14-.21,4.4-1.4,4.47-1.74,.1-3.17-8.74-4.7-8.61-1.08,.09-1.43,4.6-2.08,4.57-.78-.05-.68-6.38-2.08-7.01l.88-1.7Z"/><path class="s" d="M225.39,96.72c4.65,13.05,6.12,33.5-2.62,50.55-8.47,16.53-22.59,26.78-30.91,33.72-.01,.01-.03,.02-.04,.04-2.95-1.56-5.25-2.84-7.41-4.09,.26-.36,.53-.75,.8-1.14,.29-.44,.59-.89,.89-1.36h.01c6.7,1.53,9.01,.79,21.08-11.61,9.67-9.92,22.75-34.63,18.19-66.11h.01Z"/><path class="h" d="M225.38,96.72c4.56,31.48-8.52,56.19-18.19,66.11-12.07,12.4-14.38,13.14-21.08,11.62h-.01c4.17-6.51,8.81-16.3,9.28-28.94,.58-15.55,2.54-27.98,5.87-40.11,2.03-5.51,11.25-21.69,18.58-18.97,2.04,2.3,3.99,5.87,5.56,10.29h-.01Z"/><path class="u" d="M219.83,86.43c-7.33-2.72-16.55,13.46-18.58,18.97-3.33,12.13-5.29,24.56-5.87,40.11-.47,12.64-5.11,22.43-9.28,28.93-.3,.47-.6,.92-.89,1.36-.27,.39-.54,.78-.8,1.14h-.01c-.84-.48-1.65-.96-2.47-1.44-5.07-5.23-.56-21.54,1.75-30.65l-.16-.05c1.95-6.24,3.78-13.05,5.34-20.23,5.8-26.71,19.55-41.95,26.61-40.96,1.44,.2,2.93,1.19,4.36,2.82Z"/><path class="w" d="M216.21,256.33l-.88,1.7s-.09-.03-.14-.04c-.91-.15-1.68,2.03-2.61,1.83-1.17-.26-1.01-3.95-1.83-4.04h-.03l.6-1.9c.28,.14,.56,.27,.84,.4,1.37,.66,2.72,1.34,4.05,2.05Z"/><path class="w" d="M214.54,250.3c.41,.86-1.75,1.43-1.57,2.09,.01,.04,.03,.07,.05,.1l-.86,1.79c-.28-.13-.56-.26-.84-.4-1.2-.56-2.41-1.11-3.63-1.62-.3-.14-.6-.26-.9-.38,1.73-1.93,7.5-2.08,7.75-1.58Z"/><path class="w" d="M211.32,253.88l-.6,1.9c-.78,0-1.45,3.31-2.18,3.26-.43-.03-1.68-3.72-.89-6.68l.04-.1c1.22,.51,2.43,1.06,3.63,1.62Z"/><path class="k" d="M210.69,302.66c.2,1.08,.2,2.2,.2,3.33,0,2.45,0,4.74-2,6.71-1.7,1.66-4.87,3.09-10.74,4.17,1.65-1.19,1.4-5.15,.08-6.61,6.04-1.11,9.2-2.6,10.85-4.35,.03-.03,.06-.06,.08-.09,.9-.98,1.32-2.04,1.53-3.16Z"/><path class="k" d="M203.92,296.28c4.85,1.66,6.32,3.91,6.77,6.38-.21,1.12-.63,2.18-1.53,3.16-.02-.04-.05-.07-.08-.1-.86-.91-2.14-1.76-4.02-2.51-3.91-1.58-10.45-2.76-21.38-3.43,1.26-1.95-.01-5.41-2.07-6.61h0c1.01,.05,1.98,.11,2.93,.17,.22,.01,.44,.03,.66,.05,.85,.05,1.67,.11,2.46,.17,1.83,.15,3.53,.31,5.09,.5,.71,.08,1.4,.17,2.06,.26,.72,.1,1.41,.2,2.07,.31,2.91,.48,5.22,1.03,7.04,1.65Z"/><path class="k" d="M183.68,299.78c10.93,.67,17.47,1.85,21.38,3.43,1.88,.75,3.16,1.6,4.02,2.51,.03,.03,.06,.06,.08,.1-.02,.03-.05,.06-.08,.09-1.65,1.75-4.81,3.24-10.85,4.35-4.34,.81-10.15,1.41-17.96,1.77-1.42,.06-2.91,.12-4.47,.17-1.81,.06-3.73,.11-5.74,.14-2.98,.05-6.17,.08-9.6,.08s-6.59-.03-9.55-.08c-5.09-.09-9.54-.25-13.44-.48-16.35-.97-22.97-3.12-25.64-5.94-.03-.03-.06-.06-.08-.09,.02-.04,.05-.07,.08-.1,1.04-1.1,2.66-2.1,5.21-2.96,4.6-1.56,12.22-2.68,24.84-3.22,1.81-.08,3.73-.14,5.75-.19,.36-.01,.71-.02,1.07-.03,1.06-.02,2.15-.04,3.26-.06h.24c2.59-.04,5.34-.06,8.26-.06,5.54,0,10.48,.07,14.88,.21,2.66,.08,5.13,.19,7.41,.31h.01c.31,.02,.62,.04,.92,.05Z"/><path class="k" d="M208.89,312.7l.04,.04c0,8.1,0,15.39-6.99,20.49-.9,.66-1.91,1.28-3.05,1.86-.03,.01-.06,.03-.09,.04l-.26,.2c-1.31-1.67-2.58-3.29-3.81-4.81,.36-.34,.71-.7,1.04-1.08,2.9-3.25,4-7.81,4.41-10.92-4.56,.82-10.99,1.32-17.83,1.49-8.86,.21-18.4-.12-25.48-1.02,1.17,.02,2.36,.02,3.59,.02,18.55,0,30.28-.79,37.69-2.14,5.87-1.08,9.04-2.51,10.74-4.17Z"/><path class="x" d="M206.86,229.18c1.07,7.57-1.95,14.34-7.46,19.87-1.98-.68-3.96-1.3-5.91-1.85,1.68-2.03,3.1-4.11,4.16-6.15,.35-.67,.66-1.37,.93-2.09,.71-.59,1.09-1.29,1-1.99-.03-.21-.09-.41-.21-.6,2.21-8.88-.09-20.3-2.79-30.56-6.42-1.09-14.45-1.64-23.06-1.82,1.04-.61,1.79-1.29,1.72-1.81-.1-.81-2.24-1.49-4.01-.95-1.48,.45-2.48,1.69-2.88,2.7-8.14-.04-16.6,.21-24.57,.62-.11-.77-.41-1.59-.96-2.24,17.93-3.06,36.42-5.7,53.06-7.5h0c5.33,9.1,8.49,19.81,10.27,29.9h0c.27,1.52,.5,3,.71,4.47Z"/><path class="x" d="M198.54,335.33l.26-.2s.06-.03,.09-.04c1.14-.58,2.15-1.2,3.05-1.86,.01,2.3-.5,5.35-2.27,7.11-.84,.96-1.87,1.77-3.04,2.43-6.46,3.65-17,2.83-21.62-.15,11.8,1.55,22.66-3.01,16.76-15.57,.97,1.07,1.95,2.23,2.96,3.47,1.23,1.52,2.5,3.14,3.81,4.81Z"/><path class="v" d="M199.58,236.97c.09,.7-.29,1.4-1,1.99,.31-.84,.58-1.7,.79-2.59,.12,.19,.18,.39,.21,.6Z"/><path class="u" d="M190.91,217.35c-2.29-4.61-6.81-8.35-10.29-7.51-2.12,.5-4.2,2.39-5.95,4.85h-.01c-3.25,4.59-5.32,11.17-4.29,14.58,.04,.15,.09,.3,.15,.44,1,2.38,5.69,3.12,10.47,2.42t.02-.01c4.8-.71,9.68-2.89,10.92-6.35,.93-2.59,.36-5.66-1.02-8.42Zm2.58,29.85c-5.22,6.35-12.92,12.23-19.56,15.08t-.02,.01c-1.47,.35-2.96,.66-4.47,.93-3.94,.69-7.98,1.05-11.97,1.05-1.27,0-2.54-.03-3.82-.09-21.2-.92-42.51-9.52-45.7-25.77-.22-1.09-.36-2.22-.4-3.38-.05-1.29,.01-2.63,.18-4.02,.11-.92,.24-1.84,.37-2.77,.94-6.58,2.34-13.56,4.56-20.28,2.97-.61,6-1.22,9.08-1.82h0c4.9-.46,10.65-.92,16.83-1.3,1.52,1.47,3.86,2.73,4.71,2.13,.46-.32,.67-1.33,.5-2.42,7.97-.41,16.43-.66,24.57-.62-.23,.59-.26,1.1-.07,1.34,.56,.7,3.37-.18,5.24-1.28,8.61,.18,16.64,.73,23.06,1.82,2.7,10.26,5,21.68,2.79,30.56-.68-1.25-3.01-1.97-5.65-1.65-3.05,.37-5.35,1.98-5.16,3.59,.2,1.62,2.82,2.63,5.87,2.26,1.73-.21,3.22-.82,4.15-1.61-.27,.72-.58,1.42-.93,2.09-1.06,2.04-2.48,4.12-4.16,6.15Zm-30.22-7.82c-2.15,1.38-4.52,3.04-7.23,3.61h0c-.53,.11-1.07,.18-1.63,.2-2.14,.07-4.24-.28-6.05-.34-1.91-.08-3.49,.17-4.44,1.53-1.7,2.43,1.04,4.47,4.97,5.56,2.62,.73,5.77,1.05,8.48,.78,2.92-.29,5.85-1.33,8.3-2.72h0c2.01-1.15,3.69-2.54,4.8-3.94,1.54-1.96,1.95-3.96,.53-5.43-2.38-2.45-4.86-1.1-7.73,.75Zm.75-12.96c-.02-2.16-18.16-.06-18.35,2.04-.15,1.57,4.62,2.32,8.34,2.32,4.44,.01,10.02-2.67,10.01-4.36Zm-9.56,10.7c2.64-.16,4.34-1.82,3.75-3.28-.16-.38-.99-.53-2.04-.53-2.05-.01-4.93,.53-5.33,1.02-.57,.69,1.06,2.41,2.85,2.74,.25,.05,.51,.07,.77,.05Zm-14.21-6.76c1.16-3.33-1.4-10.15-5.1-14.71h-.01c-1.89-2.35-4.09-4.1-6.24-4.47-3.36-.58-7.4,3.03-9.49,7.48-1.43,3.01-1.96,6.42-.78,9.14,1.46,3.38,6.46,5.24,11.3,5.64t.02,.01c4.81,.4,9.45-.65,10.3-3.09Zm-14.59,11.03c0-1.62-2.48-2.94-5.55-2.94s-5.55,1.32-5.55,2.94,2.49,2.95,5.55,2.95,5.55-1.32,5.55-2.95Z"/><path class="w" d="M191.77,327.05c-3.42-3.82-6.56-6.39-9.4-6.39l-.02-.65c6.84-.17,13.27-.67,17.83-1.49-.41,3.11-1.51,7.67-4.41,10.92-.33,.38-.68,.74-1.04,1.08-1.01-1.24-1.99-2.4-2.96-3.47Z"/><path class="a`" d="M199.37,236.37c-.21,.89-.48,1.75-.79,2.59-.93,.79-2.42,1.4-4.15,1.61-3.05,.37-5.67-.64-5.87-2.26-.19-1.61,2.11-3.22,5.16-3.59,2.64-.32,4.97,.4,5.65,1.65Z"/><path class="w" d="M156.87,318.99c-6.49-.03-12.08-.17-16.9-.41-17.8-.87-25.02-3.02-27.94-5.89-2-1.96-2-4.25-2-6.7v-.68c0-.35,0-.7,.02-1.04,.02-.54,.06-1.06,.14-1.58h.03c.21,1.11,.64,2.16,1.53,3.14,.02,.03,.05,.06,.08,.09,2.67,2.82,9.29,4.97,25.64,5.94,3.9,.23,8.35,.39,13.44,.48,2.96,.05,6.14,.08,9.55,.08s6.62-.03,9.6-.08c2.01-.03,3.93-.08,5.74-.14,1.56-.05,3.05-.11,4.47-.17,7.81-.36,13.62-.96,17.96-1.77,1.32,1.46,1.57,5.42-.08,6.61-7.41,1.35-19.14,2.14-37.69,2.14-1.23,0-2.42,0-3.59-.02Z"/><path class="k" d="M197.46,187.61l.06,.85c-1.9,.12-3.82,.27-5.76,.44h0c-4.9-8.78-24.04-19.94-38.88-19.94,6.91-.88,13.87-.35,20.35,1.5h0c3.56,2.01,6.17,3.56,8.7,5.04,.64,.68,1.46,1.17,2.47,1.44h.01c2.16,1.25,4.46,2.53,7.41,4.09,.01-.02,.03-.03,.04-.04,2.07,1.98,3.95,4.19,5.6,6.62Z"/><path class="t" d="M168.23,340.66c.51-.07,2.21-.21,4.59-.6,.05,.21,.13,.41,.24,.61,.38,.72,1.05,1.38,1.95,1.95,4.62,2.98,15.16,3.8,21.62,.15,.66,3.93-.05,10.3-.48,14.43-1.68,15.99-3.73,34.16-6.33,44.96-1.97,.61-3.6,1.07-5.05,1.41,1.4-4.55,2.51-10.29,3.35-16.49,.19-.28,.29-.58,.29-.9,0-.17-.03-.34-.09-.51,1.65-12.6,2.3-26.81,2.45-36.61-16.17,0-15.27-2.77-18.32-4.11-2.84-1.25-17.68-2.05-24-2.62,.47-.49,.79-1.02,.94-1.58,.01-.01,.01-.02,.01-.03,.01-.02,.01-.04,.02-.06,3.37,.22,7.03,.15,11.04,.15,2.01,0,3.93-.03,5.78-.08,.7-.02,1.36-.04,1.99-.07Z"/><path class="x" d="M196.88,294.63c-.66-.11-1.35-.21-2.07-.31-1.48-4.16-5.46-13.65-7.58-17.73,3.98,4.98,9.06,15.67,9.65,18.04Z"/><path class="x" d="M193.49,247.2c1.95,.55,3.93,1.17,5.91,1.85-6.13,6.16-15.35,10.77-25.47,13.23,6.64-2.85,14.34-8.73,19.56-15.08Z"/><path class="u" d="M184.38,290.71h-.01c-2.04,.96-5.33-2.24-6.02-4.68h0c.71-.33,1.2-1.05,1.2-1.89,0-.39-.11-.76-.29-1.07-.25-2.27,.27-8.47,.77-10.3l.02-.09c2.03,.39,3.96,.93,5.28,1.93,.58,.44,1.22,1.12,1.89,1.96,0,.01,.01,.01,.01,.02,2.12,4.08,6.1,13.57,7.58,17.73-.66-.09-1.35-.18-2.06-.26-1.56-.19-3.26-.35-5.09-.5-.79-.06-1.61-.12-2.46-.17h0c-.3-.9-.56-1.79-.82-2.68Z"/><path class="u" d="M191.77,327.05c5.9,12.56-4.96,17.12-16.76,15.57-.9-.57-1.57-1.23-1.95-1.95-.11-.2-.19-.4-.24-.61-.02-.04-.03-.09-.04-.13-2.21-5.06,2.92-18.26,8.87-19.21,.24-.04,.48-.06,.72-.06,2.84,0,5.98,2.57,9.4,6.39Z"/><path class="i" d="M190.91,217.35c1.38,2.76,1.95,5.83,1.02,8.42-1.24,3.46-6.12,5.64-10.92,6.35,7.77-2.21,5.44-10.72,1.18-15.28,3.05-.75,6.18-.58,8.72,.51Z"/><path class="w" d="M191.76,188.89h0c-26.25,2.21-56.1,7.58-81.06,13.95l-.11-.44c3.22-7.83,7.65-14.23,12.85-19.28,.07,.07,.13,.13,.18,.19,2.9-1.78,4.94-3.07,6.72-4.23,.82-.54,1.59-1.05,2.36-1.57,2.27-1.51,4.55-3.08,8.35-5.6,.02,0,.03-.02,.05-.03,3.84-1.45,7.8-2.42,11.78-2.92,14.84,0,33.98,11.16,38.88,19.93Z"/><path class="t" d="M188.32,385.67c.06,.17,.09,.34,.09,.51,0,.32-.1,.62-.29,.9,.07-.47,.14-.94,.2-1.41Z"/><path class="m" d="M190.77,349.06c-.15,9.8-.8,24.01-2.45,36.61-.5-1.38-3-2.43-6.01-2.43-3.37,0-6.1,1.31-6.1,2.94s2.73,2.95,6.1,2.95c2.72,0,5.03-.86,5.81-2.05-.84,6.2-1.95,11.94-3.35,16.49-4.65,1.09-7.42,.9-13.67,.24-.81-10.89-.51-29.01-3.21-30.41-.91-.47-1.96-.76-3.06-.9h-.01c-3.05-.44-6.45,.13-8.15,.64-1.53,.07-6.21,0-6.21,1.33,.05,6.54,.7,20.22-.73,29.66-4.82,.36-7.66,.03-14.13-1.97-1.73-7.49-4.24-20.57-9.19-43.89-.82-3.88-1.28-10.1-.61-14.65,.68,.37,1.4,.68,2.15,.96h.02c7.21,2.62,17.26,1.12,20.47-2.25h.01c6.32,.57,21.16,1.37,24,2.62,3.05,1.34,2.15,4.11,18.32,4.11Zm-41.57,38.24c0-1.62-2.62-2.94-5.86-2.94s-5.86,1.32-5.86,2.94,2.62,2.95,5.86,2.95,5.86-1.32,5.86-2.95Z"/><path class="t" d="M188.32,385.67c-.06,.47-.13,.94-.2,1.41-.78,1.19-3.09,2.05-5.81,2.05-3.37,0-6.1-1.32-6.1-2.95s2.73-2.94,6.1-2.94c3.01,0,5.51,1.05,6.01,2.43Z"/><path class="f" d="M190.91,217.35c-2.54-1.09-5.67-1.26-8.72-.51-2.38-2.56-5.38-3.89-7.52-2.15,1.75-2.46,3.83-4.35,5.95-4.85,3.48-.84,8,2.9,10.29,7.51Z"/><path class="x" d="M189.82,402.16c-1.26,5.24-2.65,8.74-4.19,9.42-2.75,1.21-5.04,2.01-7.37,1.95,2.68-.75,4.81-4.49,6.51-9.96,1.45-.34,3.08-.8,5.05-1.41Z"/><path class="m" d="M185.2,293.38h0c-.22-.01-.44-.03-.66-.04-.95-.06-1.92-.12-2.93-.18-1.06-.05-2.14-.1-3.27-.14h-.01c-.41-.02-.82-.04-1.25-.05-4.82-.18-10.33-.26-16.62-.26-4.48,0-8.56,.04-12.27,.13-2.07,.05-4.02,.11-5.87,.18-.05-.56-.11-1.21-.19-1.91,2.03-.75,4.31-2.87,4.79-4.6,.29,.14,.61,.22,.95,.22,1.14,0,2.08-.93,2.08-2.08,7.18-.46,17.87-.77,25.44-.26h.02c.12,1.03,1,1.83,2.06,1.83,.32,0,.62-.07,.88-.19,.69,2.44,3.98,5.64,6.02,4.68h.01c.26,.89,.52,1.78,.82,2.67Z"/><path class="w" d="M110.22,302.69h-.03c.14-.93,.44-1.83,1.01-2.68,.88-1.29,2.41-2.46,5.08-3.47,1.27-.48,2.82-.93,4.68-1.33,1.33-.29,2.83-.55,4.52-.8,3.58-.52,8-.94,13.45-1.23,.16-.01,.32-.02,.48-.02,.94-.05,1.91-.1,2.91-.14,1.85-.07,3.8-.13,5.87-.18,3.71-.09,7.79-.13,12.27-.13,6.29,0,11.8,.08,16.62,.26,.43,.01,.84,.03,1.25,.05h.01c1.13,.04,2.21,.09,3.27,.14h0c2.06,1.21,3.33,4.67,2.07,6.62-.3-.01-.61-.03-.92-.05h-.01c-2.28-.12-4.75-.23-7.41-.31-4.4-.14-9.34-.21-14.88-.21-2.92,0-5.67,.02-8.26,.06h-.24c-1.11,.02-2.2,.04-3.26,.06-.36,.01-.71,.02-1.07,.03-2.02,.05-3.94,.11-5.75,.19-12.62,.54-20.24,1.66-24.84,3.22-2.55,.86-4.17,1.86-5.21,2.96-.03,.03-.06,.06-.08,.1-.89-.98-1.32-2.03-1.53-3.14Z"/><path class="x" d="M183.52,144.8l.16,.05c-2.31,9.11-6.82,25.42-1.75,30.65-2.53-1.48-5.14-3.03-8.7-5.03h0c3.38-6.37,7.02-15.22,10.29-25.67Z"/><path class="w" d="M182.35,320.01l.02,.65c-.24,0-.48,.02-.72,.06-5.95,.95-11.08,14.15-8.87,19.21,0,.04,.02,.09,.04,.13-2.38,.39-4.08,.53-4.59,.6-.63,.03-1.29,.05-1.99,.07-1.85,.05-3.77,.08-5.78,.08-4.01,0-7.67,.07-11.04-.15,1.63-3.75-.74-11.93-4.5-16.33-.64-.76-1.33-1.4-2.04-1.89h0c-.75-.52-1.53-.87-2.33-1-.24-.04-.48-.06-.72-.06l.14-2.8c4.82,.24,10.41,.38,16.9,.41,7.08,.9,16.62,1.23,25.48,1.02Z"/><path class="n" d="M182.19,216.84c4.26,4.56,6.59,13.07-1.18,15.28t-.02,.01c-4.78,.7-9.47-.04-10.47-2.42-.06-.14-.11-.29-.15-.44l.05-.02c.9-5.26,4.11-8.94,7.98-10.98,.16,.26,.45,.43,.79,.43,.51,0,.92-.41,.92-.92,0-.09-.01-.18-.04-.27,.7-.28,1.4-.5,2.12-.67Z"/><path class="j" d="M182.19,216.84c-.72,.17-1.42,.39-2.12,.67-.11-.38-.46-.66-.88-.66-.52,0-.93,.42-.93,.93,0,.18,.05,.35,.14,.49-3.87,2.04-7.08,5.72-7.98,10.98l-.05,.02c-1.03-3.41,1.04-9.99,4.29-14.57h.01c2.14-1.75,5.14-.42,7.52,2.14Z"/><path class="i" d="M180.07,217.51c.03,.09,.04,.18,.04,.27,0,.51-.41,.92-.92,.92-.34,0-.63-.17-.79-.43,.54-.29,1.1-.54,1.67-.76Z"/><path class="m" d="M180.05,272.68l-.02,.09c-.5,1.83-1.02,8.03-.77,10.3-.36-.6-1.03-1.01-1.79-1.01-.58,0-1.11,.24-1.48,.63h-.01c-.22-2.01,.09-8.38,.67-10.47l.02-.12c1.09,.19,2.25,.36,3.38,.58Z"/><path class="i" d="M179.19,216.85c.42,0,.77,.28,.88,.66-.57,.22-1.13,.47-1.67,.76-.09-.14-.14-.31-.14-.49,0-.51,.41-.93,.93-.93Z"/><path class="p" d="M179.26,283.07c.18,.31,.29,.68,.29,1.07,0,.84-.49,1.56-1.2,1.88h0c-.26,.13-.56,.2-.88,.2-1.06,0-1.94-.8-2.06-1.83-.01-.08-.02-.16-.02-.25,0-.57,.22-1.08,.6-1.45,.37-.39,.9-.63,1.48-.63,.76,0,1.43,.41,1.79,1.01Z"/><path class="u" d="M171.1,403.81c6.25,.66,9.02,.85,13.67-.24-1.7,5.47-3.83,9.21-6.51,9.96h-.01c-1.7-.03-3.44-.53-5.41-1.65-.93-.54-1.42-3.73-1.74-8.07Z"/><path class="u" d="M176.67,272.1l-.02,.12c-.58,2.09-.89,8.46-.67,10.46h.01c-.38,.38-.6,.89-.6,1.46,0,.09,.01,.17,.02,.25h-.02c-7.57-.51-18.26-.2-25.44,.26,0-.57-.24-1.08-.6-1.46,.22-1.99-.09-8.37-.67-10.46,2.18-.39,3.96-.9,4.57-2.01,.62-1.13,.82-2.45,.77-3.8h.01c6.81,.61,9.29,.48,15.77-.76,.25,1.05,.63,2.14,1.12,3.39,.6,1.52,2.99,2.08,5.75,2.55Z"/><path class="y" d="M175.24,202.18c.07,.52-.68,1.2-1.72,1.81-1.7-.04-3.43-.06-5.17-.06,.4-1.01,1.4-2.25,2.88-2.7,1.77-.54,3.91,.14,4.01,.95Z"/><path class="f" d="M171,238.63c1.42,1.47,1.01,3.47-.53,5.43-1.11,1.4-2.79,2.79-4.8,3.93,.27-1.17-1.42-6.92-2.4-8.61,2.87-1.85,5.35-3.2,7.73-.75Z"/><path class="x" d="M169.44,263.24c0,1,.12,1.94,.36,2.92-6.48,1.24-8.96,1.37-15.77,.76h-.01c-.03-.92-.18-1.85-.37-2.74,1.28,.06,2.55,.09,3.82,.09,3.99,0,8.03-.36,11.97-1.05v.02Z"/><path class="l" d="M173.52,203.99c-1.87,1.1-4.68,1.98-5.24,1.28-.19-.24-.16-.75,.07-1.34,1.74,0,3.47,.02,5.17,.06Z"/><path class="f" d="M163.27,239.38c.98,1.69,2.67,7.44,2.4,8.61h0c-2.45,1.4-5.38,2.44-8.3,2.73,.28-1.15-.35-6.03-1.33-7.72h0c2.71-.58,5.08-2.24,7.23-3.62Z"/><path class="x" d="M145.67,228.46c.19-2.1,18.33-4.2,18.35-2.04,.01,1.69-5.57,4.37-10.01,4.36-3.72,0-8.49-.75-8.34-2.32Z"/><path class="s" d="M158.21,233.84c.59,1.46-1.11,3.12-3.75,3.28-.26,.02-.52,0-.77-.05,2.5-.11,2.91-2.72,2.47-3.56v-.2c1.06,0,1.89,.15,2.05,.53Z"/><path class="i" d="M156.04,243c.98,1.69,1.61,6.57,1.33,7.72-2.71,.27-5.86-.05-8.48-.78,.28-1.15,.45-5.42-.53-7.09,1.81,.06,3.91,.41,6.05,.34,.56-.02,1.1-.09,1.63-.19Z"/><path class="h" d="M156.16,233.51c.44,.84,.03,3.45-2.47,3.56-1.79-.33-3.42-2.05-2.85-2.74,.4-.49,3.28-1.03,5.33-1.02v.2Z"/><path class="g" d="M156.67,373.14c-.79,.23-1.32,1.4-1.68,3.2-1.18,5.9-.44,18.59-.58,27.34-1.8,.19-3.32,.35-4.68,.45,1.43-9.44,.78-23.12,.73-29.66,0-1.33,4.68-1.26,6.21-1.33Z"/><path class="x" d="M154.41,403.68c-.08,4.87-.42,8.52-1.52,9.11-2.76,1.49-5.61,1.65-8.14,1.22,2.67-.5,4.16-4.5,4.98-9.88,1.36-.1,2.88-.26,4.68-.45Z"/><path class="x" d="M144.92,324.33c3.76,4.4,6.13,12.58,4.5,16.33-.01,.02-.01,.04-.02,.06,0,.01,0,.02-.01,.03-.15,.56-.47,1.09-.94,1.58h-.01c-3.21,3.37-13.26,4.87-20.47,2.25,10.17,.39,16.69-2.28,17.05-10.67,1.35-2.52,.67-6.19-.24-9.46l.14-.12Z"/><path class="p" d="M146.07,283.59c.37-.61,1.04-1.02,1.8-1.02,.57,0,1.1,.24,1.48,.62,.36,.38,.6,.89,.6,1.46,0,1.15-.94,2.08-2.08,2.08-.34,0-.66-.08-.95-.22-.67-.35-1.14-1.05-1.14-1.86,0-.39,.11-.75,.29-1.06Z"/><path class="m" d="M148.68,272.73c.58,2.09,.89,8.47,.67,10.46-.38-.38-.91-.62-1.48-.62-.76,0-1.43,.41-1.8,1.02,.25-2.27-.27-8.47-.76-10.31h0c1.16-.19,2.31-.36,3.37-.55Z"/><path class="i" d="M148.36,242.85c.98,1.67,.81,5.94,.53,7.09-3.93-1.09-6.67-3.13-4.97-5.56,.95-1.36,2.53-1.61,4.44-1.53Z"/><path class="t" d="M143.34,384.36c3.24,0,5.86,1.32,5.86,2.94s-2.62,2.95-5.86,2.95-5.86-1.32-5.86-2.95,2.62-2.94,5.86-2.94Z"/><path class="u" d="M135.6,402.16c6.47,2,9.31,2.33,14.13,1.97-.82,5.38-2.31,9.38-4.98,9.88-1.62-.27-3.12-.79-4.38-1.35-2-.89-2.94-2.53-4.77-10.5Z"/><path class="u" d="M145.78,284.65c0,.81,.47,1.51,1.14,1.86-.48,1.73-2.76,3.85-4.79,4.6-.25-2.13-.59-4.69-.73-6.39-.23,1.74-.87,4.16-1.49,6.51-.17,.65-.34,1.3-.5,1.93-.16,0-.32,.01-.48,.02-5.45,.29-9.87,.71-13.45,1.23,1.15-2.71,9.37-16.14,12.99-18.88,1.69-1.28,4.28-1.83,6.84-2.26h0c.49,1.85,1.01,8.05,.76,10.32-.18,.31-.29,.67-.29,1.06Z"/><path class="x" d="M144.78,324.45c.91,3.27,1.59,6.94,.24,9.46,.13-3.04-.54-6.82-2.14-11.47,.71,.49,1.4,1.13,2.04,1.89l-.14,.12Z"/><path class="u" d="M145.02,333.91c-.36,8.39-6.88,11.06-17.05,10.67h-.02c-.75-.28-1.47-.59-2.15-.96-1.26-.68-2.38-1.53-3.28-2.55-1.74-1.73-2.25-4.69-2.26-6.97,.93,.58,1.97,1.13,3.13,1.63,.03,.02,.06,.04,.09,.04l.25,.19c4.53-5.82,8.67-11.03,12.38-13.32h0c1.29-.81,2.53-1.26,3.72-1.26,.24,0,.48,.02,.72,.06,.8,.13,1.58,.48,2.33,.99h0c1.6,4.66,2.27,8.44,2.14,11.48Z"/><path class="l" d="M143.78,204.55c.17,1.09-.04,2.1-.5,2.42-.85,.6-3.19-.66-4.71-2.13,1.7-.1,3.44-.2,5.21-.29Z"/><path class="y" d="M142.82,202.31c.55,.65,.85,1.47,.96,2.24-1.77,.09-3.51,.19-5.21,.29-.54-.52-.98-1.08-1.2-1.58h0c1.81-.33,3.63-.64,5.45-.95Z"/><path class="t" d="M142.13,291.11c.08,.7,.14,1.35,.19,1.91-1,.04-1.97,.09-2.91,.14,.16-.63,.33-1.28,.5-1.93,.6,.28,1.39,.2,2.22-.12Z"/><path class="x" d="M141.4,284.72c.14,1.7,.48,4.26,.73,6.39-.83,.32-1.62,.4-2.22,.12,.62-2.35,1.26-4.77,1.49-6.51Z"/><path class="x" d="M141.1,171.88s-.03,.02-.05,.03c-3.8,2.52-6.08,4.09-8.35,5.6l-.06-.09c3-2.44-2.85-18.66-4.16-48.46-.3-6.81-1.71-21.58-6.12-31.89,3.6,7.24,6.66,16.94,8.05,28.61,2.41,20.23,6.29,35.98,10.69,46.2Z"/><path class="j" d="M135.15,215.65c3.7,4.56,6.26,11.38,5.1,14.71-.92-5.43-4.35-9.09-8.42-11.01-.02-.48-.42-.86-.92-.86-.23,0-.44,.08-.6,.23-.78-.28-1.57-.5-2.36-.65,2.19-2.59,5-3.98,7.19-2.42h.01Z"/><path class="w" d="M139.97,318.58l-.14,2.8c-1.19,0-2.43,.45-3.72,1.25h0c-3.71,2.3-7.85,7.51-12.38,13.33l-.25-.19s-.06-.02-.09-.04c-1.16-.5-2.2-1.05-3.13-1.63-8.28-5.13-8.28-12.79-8.28-21.36l.05-.05c2.92,2.87,10.14,5.02,27.94,5.89Z"/><path class="x" d="M137.37,203.26c.22,.5,.66,1.06,1.2,1.58-6.18,.38-11.93,.84-16.83,1.31h0c5.09-.99,10.32-1.96,15.63-2.9h0Z"/><path class="f" d="M135.14,215.65c-2.19-1.56-5-.17-7.19,2.42-2.96-.59-5.96-.35-8.39,.7l-.15-.11c2.09-4.45,6.13-8.06,9.49-7.48,2.15,.37,4.35,2.12,6.24,4.47Z"/><path class="u" d="M132.64,177.42l.06,.09c-.77,.52-1.54,1.03-2.36,1.57-3.92-6.39-9.32-17.56-8.42-33.18,.54-9.19,.49-17.33-.1-25.02v-.06c-.04-.9-.11-1.76-.21-2.58-.4-4.37-.98-8.6-1.71-12.82h-.01c-.5-5.1-6.43-20.58-14.38-22.35,.79-.42,1.56-.66,2.3-.69,4.05-.18,9.76,5.08,14.53,14.65,0,.01,.01,.02,.02,.04,4.41,10.31,5.82,25.08,6.12,31.89,1.31,29.8,7.16,46.02,4.16,48.46Z"/><path class="n" d="M140.25,230.36c-.85,2.44-5.49,3.49-10.3,3.09t-.02-.01c-8.01-1.73-6.05-10.59-1.98-15.37,.79,.15,1.58,.37,2.36,.65-.2,.16-.32,.41-.32,.69,0,.51,.41,.93,.92,.93s.93-.42,.93-.93c0-.02,0-.04-.01-.06,4.07,1.92,7.5,5.58,8.42,11.01Z"/><path class="i" d="M131.83,219.35s.01,.04,.01,.06c0,.51-.41,.93-.93,.93s-.92-.42-.92-.93c0-.28,.12-.53,.32-.69,.51,.18,1.02,.39,1.52,.63Z"/><path class="i" d="M130.91,218.49c.5,0,.9,.38,.92,.86-.5-.24-1.01-.45-1.52-.63,.16-.15,.37-.23,.6-.23Z"/><path class="i" d="M119.56,218.77c2.43-1.05,5.43-1.29,8.39-.7-4.07,4.78-6.03,13.64,1.98,15.37-4.84-.4-9.84-2.26-11.3-5.64-1.18-2.72-.65-6.13,.78-9.14l.15,.11Z"/><path class="a`" d="M120.11,238.45c3.07,0,5.55,1.32,5.55,2.94s-2.48,2.95-5.55,2.95-5.55-1.32-5.55-2.95,2.49-2.94,5.55-2.94Z"/><path class="s" d="M130.34,179.08c-1.78,1.16-3.82,2.45-6.72,4.23-.05-.06-.11-.12-.18-.19,1.32-2.62-2.01-13.68-2.92-16.89-3.08-10.81,1.95-31.97,1.3-45.35,.59,7.69,.64,15.83,.1,25.02-.9,15.62,4.5,26.79,8.42,33.18Z"/><path class="h" d="M120.52,166.23c.91,3.21,4.24,14.27,2.92,16.89-7.22-7.67-21.58-19.55-28.95-38.07-10.3-25.91,1.61-56.99,11.02-61.98,7.95,1.77,13.88,17.25,14.38,22.35h.01c.73,4.22,1.31,8.45,1.71,12.82,.08,.86,.15,1.72,.21,2.58v.06c.65,13.38-4.38,34.54-1.3,45.35Z"/><path class="k" d="M56.99,225.38c3.25-4.77,26.35-11.37,55.67-17.42-2.22,6.72-3.62,13.7-4.56,20.28-.13,.93-.26,1.85-.37,2.77-.17,1.39-.23,2.73-.18,4.02h-.02c-26.64-.8-50.54-3.75-50.94-8.42-.03-.39,.1-.8,.4-1.23Z"/></g></g><g id="d"><path class="r" d="M196.71,342.72c.65,3.93-.03,10.45-.46,14.58-2.5,23.74-5.8,52.31-10.52,54.38-4.77,2.1-8.13,2.95-12.79,.3-3.26-1.87-1.17-36.52-4.95-38.48-.91-.47-1.96-.76-3.06-.9h-.01c-3.05-.44-6.45,.13-8.15,.64-.79,.23-1.32,1.4-1.68,3.2-1.83,9.17,.98,34.79-2.1,36.45-4.53,2.45-9.3,1.31-12.52-.13-3.88-1.73-3.77-6.29-13.96-54.39-.82-3.88-1.28-10.22-.61-14.77"/><path class="r" d="M149.5,340.58c3.37,.22,7.06,.33,11.07,.33,2.01,0,3.93-.03,5.78-.08,2.41-.07,4.68-.18,6.82-.34"/><path class="r" d="M210.99,306.09c0,7.19,0,13.02-50.43,13.02s-50.43-5.83-50.43-13.02"/><path class="r" d="M112.77,208.06c-2.53,7.67-4,15.68-4.93,23.05-2.79,22.15,24.35,33.26,49.74,33.26s52.27-14.66,49.39-35.09c-.21-1.47-.44-2.96-.71-4.47-1.78-10.09-4.94-20.8-10.27-29.89"/><path class="r" d="M173.34,170.57h0c5.39-10.17,11.46-26.68,15.63-45.9,5.8-26.71,19.55-41.95,26.61-40.96,9.47,1.34,21.09,36.75,7.3,63.66-8.47,16.53-22.59,26.78-30.91,33.72,0,.01-.03,.02-.04,.04"/><path class="r" d="M184.52,177.04c.26-.36,.53-.75,.8-1.14,4.37-6.46,9.67-16.74,10.17-30.29,.58-15.55,2.54-27.98,5.87-40.11"/><path class="r" d="M141.21,171.98c-4.4-10.22-8.28-25.97-10.69-46.2-3.24-27.13-15.48-43.62-22.6-43.3-9.55,.43-24.49,34.58-13.32,62.67,7.37,18.52,21.73,30.4,28.95,38.07,.07,.07,.13,.13,.18,.19"/><path class="r" d="M120.01,105.52c2.15,12.39,2.93,24.95,2.02,40.48-.9,15.62,4.5,26.79,8.42,33.18"/><path class="r" d="M170.62,229.8c-2.07-4.93,3.85-18.37,10.1-19.87,5.57-1.34,13.79,9.03,11.31,15.93-2.48,6.9-19.41,8.72-21.41,3.94Z"/><path class="r" d="M174.77,214.8c5.96-4.86,18.5,13.98,6.33,17.43"/><path class="r" d="M140.35,230.46c1.75-5.06-5.02-18.09-11.35-19.19-5.64-.98-13.18,9.89-10.27,16.62,2.91,6.73,19.93,7.46,21.62,2.56Z"/><path class="r" d="M135.26,215.75c-6.26-4.47-17.57,15.14-5.2,17.8"/><path class="r" d="M142.93,202.41c1.32,1.57,1.24,4.11,.46,4.66-1.15,.81-5.06-1.79-5.91-3.71"/><path class="r" d="M168.39,205.37c-.54-.68,.62-3.33,2.95-4.04,1.77-.54,3.91,.14,4.01,.95,.19,1.46-6.09,4.18-6.96,3.09Z"/><path class="r" d="M154.56,237.22c2.64-.16,4.33-1.82,3.75-3.28-.44-1.11-6.77-.25-7.37,.49-.65,.79,1.58,2.92,3.62,2.79Z"/><path class="r" d="M154.51,243.29c.3-2.22,.34-5.24,.11-6.06"/><path class="r" d="M108.21,228.34c-12.56-5.07-29.11-5.88-40.49-3.07"/><path class="r" d="M75.99,243.61c11.2-3.95,22.55-5.88,32.06-5.1"/><path class="r" d="M207.09,227.14c12.56-5.07,28.56-5.84,39.93-3.03"/><path class="r" d="M238.76,242.45c-11.2-3.95-22.55-5.88-32.06-5.1"/><path class="r" d="M153.76,264.28c.49,2.21,.64,4.65-.4,6.54-1.56,2.84-10.75,1.75-14.78,4.8-3.62,2.74-11.84,16.17-12.99,18.88"/><line class="r" x1="164.94" y1="372.6" x2="164.93" y2="372.6"/><path class="r" d="M169.55,263.34c-.01,2.07,.53,3.9,1.48,6.31,1.27,3.23,10.53,2.1,14.41,5.06,4.01,3.07,10.86,17.25,11.55,20.02"/><path class="r" d="M122.65,337.57c.32-.4,.63-.81,.94-1.2,4.63-5.95,8.85-11.3,12.63-13.64h0c1.56-.97,3.04-1.43,4.44-1.2,5.95,.95,11.08,14.15,8.87,19.22-.01,.02-.01,.05-.02,.07,0,0,0,.02-.01,.03-1.29,4.83-15.46,7.25-23.59,2.87-1.26-.68-2.38-1.53-3.28-2.56"/><path class="r" d="M122.65,337.13s-.01,.02-.02,.03"/><path class="r" d="M144.88,324.54c1.1,3.94,1.85,8.45-.84,10.85"/><path class="r" d="M136.22,323.08h0c.54,5.01,.12,8.14-1.68,11.28"/><path class="r" d="M112.09,312.84c0,8.57,0,16.23,8.28,21.36,.93,.58,1.97,1.13,3.13,1.63,.03,.02,.06,.04,.09,.04"/><path class="r" d="M198.91,335.23s.06-.03,.09-.04c1.14-.58,2.15-1.2,3.05-1.86,6.99-5.1,6.99-12.39,6.99-20.49"/><path class="r" d="M110.32,302.78h0c.21,1.12,.65,2.17,1.53,3.14,.02,.03,.05,.06,.08,.09,2.67,2.82,9.28,4.97,25.64,5.94h0c3.9,.24,8.35,.39,13.43,.48,2.96,.05,6.14,.08,9.55,.08s6.62-.03,9.6-.08c2.01-.03,3.92-.08,5.74-.14,1.56-.05,3.04-.11,4.47-.17,18.7-.86,25.98-3.11,28.81-6.12,.03-.03,.06-.06,.08-.09,.9-.97,1.32-2.04,1.53-3.15h0"/><path class="r" d="M210.99,305.82c0-3.71,0-7.07-6.96-9.44-2.62-.89-6.21-1.65-11.17-2.22-1.56-.19-3.25-.35-5.09-.5-.99-.08-2.03-.16-3.12-.23-1.92-.12-3.98-.23-6.2-.32h0c-.41-.01-.83-.03-1.25-.05-4.82-.17-10.33-.26-16.62-.26-4.48,0-8.56,.05-12.27,.14-3.38,.08-6.46,.19-9.26,.34-8,.43-13.79,1.12-17.97,2.03-1.86,.4-3.4,.85-4.68,1.33-2.67,1.01-4.2,2.18-5.07,3.47-.89,1.31-1.11,2.75-1.15,4.26-.01,.34-.02,.69-.02,1.04v.41"/><path class="r" d="M111.85,305.92s.05-.07,.08-.1c1.03-1.1,2.66-2.09,5.2-2.95,4.6-1.56,12.22-2.69,24.84-3.22,1.81-.08,3.73-.14,5.76-.19,.35,0,.7-.02,1.06-.03,1.06-.02,2.15-.04,3.26-.06,.08,0,.15,0,.23,0,2.59-.04,5.35-.06,8.27-.06,5.54,0,10.48,.07,14.87,.21,2.66,.08,5.13,.19,7.42,.31h0c11.48,.64,18.28,1.86,22.31,3.47,1.88,.76,3.15,1.6,4.01,2.51,.03,.03,.06,.07,.08,.1"/><path class="r" d="M120.37,334.2c0,2.28,.52,4.98,2.26,6.71"/><path class="r" d="M199.66,336.23s.06,.09,.1,.14"/><path class="r" d="M199.78,336.88s-.01,0-.02-.03c-.29-.36-.57-.72-.85-1.08-6.58-8.45-12.31-15.72-17.15-14.95-5.95,.95-11.08,14.15-8.87,19.22,.06,.26,.15,.49,.28,.73,2.68,5.11,20.19,7.02,26.61-.32"/><path class="r" d="M177.52,323.87c-1.1,3.94-1.85,8.45,.84,10.85"/><path class="r" d="M186.19,322.41c-.54,5.01-.12,8.13,1.68,11.27"/><path class="r" d="M202.05,333.33c0,2.3-.5,5.06-2.27,6.82"/><path class="r" d="M139.52,293.26c.73-2.89,1.69-6.21,1.99-8.44"/><path class="r" d="M185.31,293.48c-.9-2.69-1.52-5.38-2.61-8.07"/><path class="r" d="M171.11,238.73c-4.51-4.64-9.39,4.34-16.59,4.56-4.39,.14-8.64-1.47-10.49,1.19-2.83,4.05,6.67,7.02,13.45,6.35,8.63-.85,17.33-8.28,13.63-12.09Z"/><path class="r" d="M156.14,243.09c.98,1.68,1.61,6.58,1.34,7.73"/><path class="r" d="M163.37,239.47c.98,1.68,2.67,7.48,2.4,8.63"/><path class="r" d="M148.46,242.94c.98,1.68,.81,5.95,.54,7.1"/><path class="r" d="M170.57,244.16c14.81-.98,38.49,6.46,55.41,18.11"/><path class="r" d="M207.75,252.45c-.79,2.96,.46,6.65,.88,6.68,.75,.06,1.43-3.35,2.22-3.26,.82,.09,.65,3.79,1.83,4.04,.93,.2,1.7-1.98,2.61-1.83,1.55,.26,1.41,7,2.22,7.04,.66,.04,1-4.47,2.09-4.57,1.53-.13,2.96,8.71,4.7,8.61,1.19-.07,.1-4.33,1.4-4.47,1.93-.21,4.41,8.72,6.82,8.27,1.59-.29-3.83-7.64-2.75-9.93,.52-1.1,6.26-1.79,6.26-2.35,0-.86-10.8-1.27-10.83-2.22-.02-.73,6.95-1.08,6.39-1.83-.96-1.29-12.23,.07-12.39-1.17-.12-.9,6.78-1.88,6-2.87-1.69-2.15-11.71,1.39-12.13-.13-.18-.65,1.98-1.22,1.57-2.09-.24-.5-6.21-.33-7.84,1.68"/><circle class="r" cx="147.97" cy="284.75" r="2.08"/><path class="r" d="M145.41,273.38c.5,1.84,1.01,8.07,.76,10.33"/><path class="r" d="M148.79,272.83c.58,2.08,.89,8.46,.66,10.46"/><circle class="r" cx="177.57" cy="284.24" r="2.08"/><path class="r" d="M180.13,272.86c-.5,1.84-1.01,8.07-.76,10.33"/><path class="r" d="M176.75,272.32c-.58,2.08-.89,8.46-.66,10.46"/><path class="r" d="M150.05,284.75c7.18-.46,17.87-.77,25.44-.26"/><path class="r" d="M178.45,286.12c.68,2.44,3.98,5.65,6.02,4.7"/><path class="r" d="M147.03,286.61c-.68,2.44-4.97,5.68-7.01,4.73"/><path class="r" d="M135.7,402.25c8.3,2.57,10.63,2.38,18.82,1.52"/><path class="r" d="M189.93,402.25c-8.3,2.57-10.53,2.52-18.73,1.66"/><g id="e"><path class="r" d="M107.64,235.13c-26.64-.8-50.55-3.75-50.94-8.41-1.14-13.6,195.72-46.31,197.6-29.74,.99,8.68-26.72,21.73-48.04,27.84"/><path class="r" d="M57.07,225.51c8.42-18.87,169.99-53.1,196.7-29.72"/><path class="r" d="M197.57,187.71c-1.65-2.43-3.53-4.64-5.6-6.62"/><path class="r" d="M173.34,170.56c-10.21-2.92-21.61-2.55-32.13,1.42-.02,.01-.03,.02-.05,.03"/><path class="r" d="M110.7,202.5c3.22-7.83,7.65-14.23,12.85-19.28"/><path class="r" d="M123.72,183.41c8.17-5.02,9.56-6.17,17.49-11.42"/><path class="r" d="M173.33,170.57c7.71,4.34,10.99,6.55,18.59,10.56"/></g></g></svg>