<svg xmlns="http://www.w3.org/2000/svg" xmlns:xlink="http://www.w3.org/1999/xlink" width="333" height="555" fill="none" xmlns:v="https://vecta.io/nano"><style><![CDATA[.B{stroke-linejoin:round}.C{fill:#bf7e67}.D{fill:#6a964d}.E{fill:#935d51}.F{stroke-linecap:round}.G{fill:#dba77f}.H{fill:#fff}.I{fill:#3d587f}.J{fill:#507096}.K{fill:#e09f57}.L{fill:#c47b49}.M{fill:#ead0d0}.N{fill:#eaa0a0}.O{fill:#fcb9b9}.P{fill:#77b566}]]></style><g stroke="#3f2a25" stroke-width="2" class="B"><path d="M234.293 434.391c1.077 6.511-.05 17.313-.762 24.155-4.142 39.33-9.609 86.663-17.429 90.092-7.902 3.479-13.469 4.888-21.189.497-5.401-3.098-1.939-60.503-8.201-63.75-1.508-.779-3.247-1.259-5.07-1.491h-.016c-5.053-.729-10.686.215-13.502 1.06-1.309.381-2.187 2.32-2.784 5.302-3.032 15.192 1.624 57.637-3.479 60.387-7.505 4.059-15.407 2.17-20.742-.216-6.428-2.866-6.246-10.42-23.128-90.108-1.358-6.428-2.12-16.932-1.01-24.47m39.098-5.003c5.583.364 11.697.546 18.34.546l9.576-.132c3.993-.116 7.753-.298 11.299-.563m62.657-56.991c0 11.911 0 21.57-83.549 21.57s-83.548-9.659-83.548-21.57M233.1 189.545c8.83 15.059 14.065 32.803 17.014 49.519.448 2.502.829 4.97 1.177 7.406 1.772 12.524-3.231 23.74-12.359 32.902-15.424 15.507-42.677 25.132-69.052 25.232m-13.171-.563c-37.873-3.33-73.807-21.538-69.649-54.539 1.541-12.21 3.976-25.481 8.168-38.188m100.347-62.127c8.93-16.848 18.986-44.201 25.895-76.043 9.609-44.251 32.389-69.499 44.085-67.859 15.689 2.22 34.94 60.884 12.094 105.467-14.032 27.385-37.425 44.366-51.209 55.864-.017.017-.05.033-.066.066m-12.277-6.776l1.326-1.888c7.24-10.703 16.02-27.734 16.849-50.182.96-25.762 4.208-46.355 9.725-66.451m-99.652 110.138c-7.289-16.931-13.718-43.025-17.71-76.54-5.368-44.947-25.646-72.266-37.442-71.736-15.822.712-40.573 57.289-22.067 103.827 12.21 30.682 36.001 50.364 47.962 63.071.116.116.216.215.299.314m-6.164-129.041c3.562 20.527 4.854 41.335 3.346 67.064-1.491 25.878 7.455 44.383 13.95 54.969" class="F"/><path d="M191.069 247.315c-3.429-8.168 6.378-30.434 16.733-32.919 9.228-2.22 22.846 14.96 18.737 26.391s-32.156 14.447-35.47 6.528z"/><path d="M197.944 222.464c9.874-8.052 30.65 23.161 10.487 28.876" class="F"/><path d="M140.92 248.408c2.9-8.383-8.316-29.97-18.803-31.792-9.344-1.624-21.836 16.385-17.015 27.534s33.018 12.359 35.818 4.241v.017z"/><path d="M132.487 224.038c-10.371-7.406-29.108 25.082-8.614 29.489m21.322-51.59c2.186 2.601 2.054 6.809.762 7.72-1.905 1.342-8.383-2.965-9.791-6.146" class="F"/><path d="M187.375 206.841c-.895-1.127 1.027-5.517 4.887-6.693 2.932-.895 6.478.232 6.643 1.574.315 2.419-10.089 6.925-11.53 5.119zm-22.913 52.766c4.374-.265 7.174-3.015 6.213-5.434-.729-1.839-11.216-.414-12.21.812-1.077 1.309 2.618 4.838 5.997 4.622z"/><g class="F"><path d="M164.379 269.664c.497-3.678.564-8.681.183-10.04m-76.889-14.728c-20.808-8.4-48.227-9.742-67.08-5.086m13.701 30.384c18.555-6.544 37.359-9.742 53.114-8.449m164.082-18.837c20.808-8.4 47.315-9.676 66.152-5.02m-13.684 30.384c-18.556-6.544-37.359-9.741-53.115-8.449m-134.376 94.698c1.905-4.49 15.507-26.74 21.504-31.279 2.8-2.104 7.108-3.032 11.332-3.728l5.6-.894c1.574-.282 2.999-.597 4.208-1.027m22.548 166.301h-.017m7.654-180.997c-.016 3.43.878 6.462 2.452 10.454 2.104 5.352 17.429 3.463 23.857 8.383 5.103 3.894 12.989 18.672 16.882 27.386m-120.891 76.739l1.558-1.988c7.67-9.858 14.662-18.721 20.924-22.598 2.584-1.607 5.036-2.369 7.356-1.988 9.857 1.574 18.356 23.443 14.695 31.842-.017.033-.017.083-.033.116 0 0 0 .033-.017.05-2.137 8.002-25.613 12.011-39.082 4.755-2.087-1.127-3.943-2.535-5.434-4.241m.033-6.677s-.016.033-.033.049"/><path d="M148.425 404.272c1.823 6.527 3.065 13.999-1.391 17.975m-12.956-20.394c.895 8.3.199 13.486-2.783 18.688m-37.194-35.653c0 14.198 0 26.889 13.718 35.388 1.541.961 3.264 1.872 5.186 2.7.049.033.099.066.149.066m124.784-1.06s.099-.05.149-.066c1.888-.961 3.562-1.988 5.053-3.082 11.58-8.449 11.58-20.526 11.58-33.946m-97.63-33.035l-3.015.067-14.53.546-.812.033c-9.012.481-16.335 1.16-22.266 2.022-2.8.397-5.285.845-7.505 1.325a68.85 68.85 0 0 0-4.241 1.06m-13.85 16.352v-.662-1.723c.083-2.519.431-4.904 1.922-7.075.613-.894 1.425-1.756 2.469-2.584m130.432-7.538l-5.881-.53m25.199 4.009l1.408.464c11.531 3.943 11.531 9.493 11.531 15.639m-54.324-21.057l.398.017 9.874.513m-2.452 10.62h-.116l-1.127-.066h-.033m37.823 5.699c.116.033.215.083.315.116 3.114 1.259 5.218 2.651 6.643 4.158a1.14 1.14 0 0 1 .133.166m-95.974-10.835h-.017l-2.07.05-2.105.049-1.756.033-6.03.183M93.704 373.44l.149-.165c1.706-1.823 4.407-3.463 8.615-4.888l2.12-.662h.017m28.529-4.109h.016l3.811-.249"/><path d="M107.819 420.276c.017 3.777.862 8.25 3.744 11.116m127.617-7.753l.166.232m.033.845s-.017 0-.033-.05l-1.408-1.789c-10.902-14-20.395-26.044-28.413-24.768-9.858 1.574-18.356 23.442-14.695 31.842.099.431.248.812.464 1.209 4.44 8.466 33.449 11.63 44.085-.53"/><path d="M202.5 403.162c-1.822 6.527-3.064 13.999 1.392 17.975m12.972-20.394c-.895 8.3-.199 13.469 2.783 18.671m23.493-.58c.016 3.811-.829 8.383-3.761 11.299m-99.834-77.683c1.21-4.788 2.8-10.288 3.297-13.983m71.935 12.409c-1.177-3.81-2.154-7.604-3.695-11.415"/></g><path d="M191.881 262.109c-7.472-7.687-15.557 7.19-27.485 7.555-7.273.232-14.314-2.436-17.379 1.971-4.689 6.71 11.05 11.63 22.283 10.52 14.297-1.408 28.711-13.717 22.581-20.029v-.017z"/><g class="F"><path d="M167.08 269.332c1.623 2.784 2.667 10.901 2.22 12.807m9.758-18.804c1.623 2.783 4.423 12.392 3.976 14.297m-28.678-8.548c1.624 2.783 1.342 9.857.895 11.762m35.735-9.741c24.536-1.624 63.767 10.702 91.799 30.003"/><path d="M252.583 284.839c-1.309 4.904.762 11.017 1.458 11.067 1.242.1 2.369-5.55 3.678-5.401 1.358.149 1.077 6.279 3.032 6.693 1.54.332 2.816-3.28 4.324-3.031 2.567.43 2.336 11.597 3.677 11.663 1.094.066 1.657-7.406 3.463-7.571 2.535-.216 4.904 14.43 7.787 14.264 1.971-.116.165-7.174 2.319-7.405 3.197-.348 7.306 14.446 11.299 13.701 2.634-.481-6.345-12.658-4.556-16.452.861-1.822 10.371-2.965 10.371-3.893 0-1.425-17.893-2.104-17.942-3.678-.034-1.209 11.514-1.789 10.586-3.032-1.59-2.137-20.262.116-20.527-1.938-.198-1.491 11.233-3.115 9.941-4.755-2.8-3.562-19.401 2.303-20.096-.215-.299-1.077 3.28-2.021 2.601-3.463-.398-.828-10.289-.546-12.989 2.784m-97.233 50.745l-.232-.017c-1.275 0-2.385.696-2.982 1.707-.298.53-.463 1.11-.463 1.739 0 1.342.778 2.518 1.888 3.098.464.232.994.365 1.557.365 1.69 0 3.082-1.21 3.397-2.833m-7.638-19.467c.829 3.049 1.674 13.37 1.259 17.114"/><path d="M156.046 329.09c-.182-4.009-.596-8.449-1.143-10.47"/></g><use xlink:href="#B"/><g class="F"><path d="M206.824 318.653c-.828 3.048-1.673 13.37-1.259 17.114m-4.34-18.009c-.961 3.446-1.475 14.016-1.094 17.329m-.994 2.85l-4.307-.232m9.211 2.916c1.127 4.042 6.594 9.36 9.974 7.786m-62.028-6.974c-1.126 4.042-8.234 9.41-11.613 7.836m-7.157 183.746c13.75 4.258 17.61 3.943 31.179 2.519m58.664-2.519c-13.751 4.258-17.445 4.175-31.03 2.751M86.729 256.145c-44.135-1.326-83.747-6.213-84.393-13.933-1.889-22.532 324.252-76.723 327.367-49.271 1.64 14.38-44.267 36.001-79.589 46.123"/><path d="M2.949 240.207c13.95-31.262 281.625-87.971 325.876-49.237m-93.107-13.387a68.17 68.17 0 0 0-9.278-10.967m-30.865-17.445c-16.915-4.838-35.801-4.225-53.23 2.352-.033.017-.05.033-.083.05"/><path d="M91.799 202.086c5.335-12.972 12.673-23.575 21.288-31.941m.282.314c13.535-8.316 15.838-10.221 28.976-18.919m53.214-2.353c12.773 7.19 18.207 10.852 30.798 17.495M91.186 368.421c.348 1.855 1.077 3.595 2.535 5.202.033.049.083.099.133.149 4.423 4.672 15.374 8.234 42.478 9.841 6.461.397 13.834.646 22.25.795l15.822.132 15.904-.132 9.51-.232 7.405-.282c30.981-1.424 43.042-5.152 47.73-10.139.05-.049.099-.099.133-.149 1.491-1.607 2.186-3.38 2.534-5.219"/><path d="M228.66 382.221l-.547-1.673c-1.159-3.165-2.998-6.23-5.318-8.897a23.19 23.19 0 0 0-1.209-1.325c-2.485-2.568-5.401-4.656-8.549-6.047-.53-.216-1.06-.431-1.59-.613l-.464-.149c-1.442-.464-2.899-.796-4.39-.912"/><path d="M211.447 363.649v-.116c.016-3.479 1.077-7.488 2.385-10.636.216-.514.431-.994.646-1.458.083-.182.166-.331.266-.497 1.11-2.187 2.253-3.628 3.015-3.628.944 0 1.358.613 1.557 1.491.215.878.199 2.021.298 3.098.05.514.116.994.249 1.441h.016c.265.978.829 1.707 2.038 1.79.746.066 1.938-.415 3.463-1.276h.016l1.723-1.044a20.89 20.89 0 0 0 .795-.513c1.375-.895 2.9-1.972 4.523-3.132 10.139-7.339 23.824-18.604 26.74-16.583 4.407 3.065-7.34 16.086-14.215 24.635-.033.033-.05.066-.083.099-2.684 3.38-4.622 6.048-4.456 7.075.546 3.313 6.892-.464 7.604 4.042.033.215 0 .464-.083.729-.166.53-.58 1.16-1.193 1.839-2.833 3.247-10.106 7.836-18.638 9.543m-22.73 3.429c-3.744-4.987-9.526-8.466-16.451-11.613m-43.87 28.876h-.017m-4.092-17.362c1.028-6.196 4.092-12.359 8.698-16.452 1.839-1.623 3.927-2.899 6.229-3.727 0 0 .011-.006.034-.017.198-.083.397-.149.596-.215.017 0 .033-.017.05-.017.845-.265 1.739-.464 2.65-.596a5.66 5.66 0 0 1 .531-.066h.033l.232-.05c.695-.066 1.408-.066 2.17.017h.149c.447.049.895.115 1.359.198.447.067.878.166 1.341.299 2.966.762 6.313 2.302 9.841 4.373 3.711 2.171 7.621 4.987 11.548 8.085 1.59 1.276 3.181 2.585 4.738 3.943.944.795 1.872 1.624 2.8 2.452l2.369 2.154.033.033"/><path d="M149.651 367.427c-.596-1.458-1.441-2.933-2.386-4.341-3.363-4.937-8.217-8.996-9.625-8.416-3.082 1.259 2.75 7.024-.911 8.83-.067.033-.133.066-.216.083-.513.182-1.275.215-2.253.149-1.093-.066-2.435-.282-3.992-.58-3.645-.696-8.383-1.938-13.221-3.214l-9.311-2.352-2.601-.597c-5.865-1.292-10.437-1.806-11.398-.348-.878 1.342-.099 2.949 1.673 4.689 1.027 1.01 2.386 2.054 3.96 3.131 1.64 1.11 3.495 2.253 5.45 3.38l3.993 2.253c7.041 3.86 13.9 7.306 14.281 8.946.414 1.839-1.673 2.286-3.429 3.115m76.689 2.137l-.033-.033-2.369-2.154-2.8-2.452-4.738-3.943 1.888-2.551.63-.795 2.468-2.916c2.618-2.85 5.236-4.937 7.737-5.915"/><path d="M199.17 363.517h.017l.895-.299.579-.149c1.988-.53 3.977-.646 5.931-.464-.795-3.611-1.756-7.057-2.899-10.222l-.613-1.656a43.65 43.65 0 0 0-1.176-2.833v-.033c-1.342-2.983-2.883-5.584-4.606-7.671-.712-.862-1.441-1.624-2.22-2.286-.878-.746-1.806-1.375-2.766-1.856-2.154-1.077-4.623-1.739-7.207-2.021-7.803-.812-16.849 1.889-22.531 7.455-2.519 2.469-4.374 5.484-5.219 8.98l-.199 1.027c-.033.182-.066.364-.083.563-.099.762-.099 1.591-.05 2.452.15 1.988.68 4.192 1.525 6.561.198.563.414 1.126.646 1.723h.016s0 .049.017.066m25.878-28.827c2.965-11.067.48-22.432-2.021-23.211-4.358-1.358-3.778 6.014-6.992 5.02-1.309-.414-3.529-5.268-6.13-11.05-4.406-9.775-9.923-22.15-14.048-19.864-2.154 1.193-.862 9.94.828 19.301l2.402 13.552c.828 5.152 1.226 9.228.447 10.553-.828 1.392-2.153 1.242-3.562.762-2.12-.762-4.406-2.303-5.301-.514-.48.961 5.384 12.045 10.984 13.801m1.972 20.576c6.328-4.688 12.558-7.703 19.516-7.405m-27.287 8.134l-.033.033m6.379 20.759c1.375-6.113 5.235-11.696 10.288-17.429"/></g></g><g fill="#bc7171"><path d="M209.922 157.703l4.093 2.385c-1.674-.447-3.032-1.259-4.093-2.385zm15.474 196.138s-.033.017-.049.034h-.017l-.779.414-.331.182c-1.011.48-1.806.729-2.353.679-1.209-.083-1.772-.811-2.037-1.789h-.017v-.033l5.583.513zm104.257-160.734c1.641 14.38-44.267 36-79.588 46.123h-.017c-2.949-16.717-8.184-34.46-17.014-49.52 45.675-4.953 82.935-6.096 93.571-.248.017 0 .033.016.033.016a24.52 24.52 0 0 1 2.137 1.674c.497.596.796 1.242.878 1.955z"/><path d="M226.208 179.886l9.543-.729c41.103-2.783 75.645-.43 90.854 10.305-10.636-5.848-47.896-4.705-93.571.232-27.568 2.982-58.201 7.356-87.906 12.425l-9.029 1.558-25.844 4.788h-.034l-15.059 3.015c-48.674 10.056-86.994 21.007-92.263 28.91 4.937-11.067 41.65-25.315 89.015-37.393 41.351-10.569 90.821-19.466 134.293-23.111zm40.523 111.713l-6.726-3.397 1.425-2.965c1.392 2.087 17.279-3.43 20.013.05 1.309 1.64-10.139 3.263-9.94 4.754.281 2.055 18.936-.199 20.526 1.939.928 1.226-10.619 1.822-10.586 3.031.05 1.558 17.942 2.254 17.942 3.678 0 .912-9.509 2.055-10.371 3.877-1.806 3.811 7.174 15.971 4.556 16.451-4.009.746-8.118-14.049-11.315-13.701-2.154.232-.348 7.29-2.32 7.406-2.866.182-5.235-14.463-7.786-14.265-1.789.166-2.353 7.638-3.446 7.572-1.292-.083-1.127-10.554-3.446-11.597l1.474-2.833zM281.923 27.17c7.704 21.62 10.14 55.517-4.34 83.764-14.032 27.385-37.425 44.366-51.209 55.864-.017 0-.05.033-.066.066-4.888-2.584-8.698-4.705-12.277-6.776l1.326-1.888 1.491-2.254c11.1 2.519 14.943 1.293 34.923-19.234 16.021-16.451 37.691-57.372 30.136-109.542h.016z"/><path d="M281.907 27.17c7.555 52.17-14.115 93.091-30.136 109.542-19.98 20.527-23.823 21.753-34.923 19.235 6.892-10.769 14.579-26.988 15.357-47.929.961-25.762 4.208-46.355 9.725-66.451 3.363-9.129 18.622-35.934 30.766-31.444h.016c3.38 3.794 6.594 9.725 9.211 17.048h-.016z"/><path d="M272.696 10.123c-12.144-4.49-27.403 22.316-30.766 31.428-5.517 20.112-8.764 40.705-9.725 66.468-.778 20.941-8.465 37.16-15.357 47.929l-1.491 2.253-1.326 1.888h-.016l-4.092-2.385c-8.417-8.665-.928-35.702 2.899-50.779l-.265-.082c3.23-10.338 6.262-21.621 8.847-33.516 9.609-44.251 32.388-69.499 44.085-67.859 2.369.331 4.837 1.971 7.207 4.655zm-5.965 281.476l-1.474 2.832-.232-.066c-1.508-.265-2.783 3.363-4.324 3.015-1.938-.414-1.673-6.544-3.032-6.693h-.05l.994-3.147 1.392.662 6.726 3.397z"/><path d="M263.948 281.609c.679 1.441-2.899 2.385-2.601 3.462a.54.54 0 0 0 .083.166l-1.425 2.965-1.392-.662-6.014-2.684-1.474-.646c2.916-3.165 12.425-3.413 12.823-2.601zm-52.551 81.908c.017-3.479 1.077-7.472 2.386-10.603 0-.017.016-.017.016-.033l.63-1.425c.083-.182.165-.315.265-.481v-.033c1.11-2.17 2.253-3.611 3.015-3.611.944 0 1.359.612 1.557 1.491.216.878.199 2.021.299 3.098.016.116.016.232.049.331-.016.017 0 .017 0 .017-.016 1.789-1.623 4.241-.662 4.821.994.613 3.379-1.541 5.268-2.618.099-.066.215-.116.331-.182.249-.116.514-.265.779-.414h.017s.033 0 .049-.034c.514-.298 1.077-.646 1.674-1.01l.795-.514 2.054-1.375 2.469-1.756c10.139-7.339 23.823-18.605 26.739-16.584 1.226.845 1.209 2.469.381 4.556l-.53-.182c-16.385 21.405-24.983 23.211-23.294 26.855 1.144 2.469 4.739 3.347 4.639 5.567-.132 2.916-7.803 6.826-13.403 8.168l-.149.066c-1.06-2.121-2.435-4.125-4.025-5.964-.067-.067-.133-.149-.199-.216a16.77 16.77 0 0 0-1.011-1.11c-2.485-2.568-5.401-4.655-8.549-6.047-.53-.215-1.06-.43-1.59-.613l-.464-.149h-.016l-.15-.05c.183.017.348.017.514.034h.116zm16.286 1.424c1.772-2.319 3.048-4.738 2.319-5.599-1.044-1.226-6.726 2.75-9.211 4.887h-.017c-.431.381-.762.696-.961.911-1.375 1.574.514 4.622 2.038 4.904a.5.5 0 0 0 .182.017c.05 0 .1-.017.149-.033v.049c.033 1.044.696 2.088 1.508 1.872 2.7-.994 4.837-2.17 4.655-2.916-.132-.579-1.507-.911-3.379-.878h-.183l.033-.033c.945-.894 1.988-2.037 2.867-3.197v.016z"/><path d="M258.978 336.976l.53.182c-2.137 5.401-9.642 13.9-14.596 20.08-.033.033-.049.049-.066.083h-.016c-2.684 3.396-4.623 6.063-4.457 7.09.547 3.314 6.892-.464 7.604 4.043.033.198 0 .43-.066.679 0 .017-.017.033-.017.05-.165.53-.579 1.159-1.192 1.839-2.833 3.247-10.106 7.836-18.638 9.542a25.55 25.55 0 0 0-1.293-2.932l.149-.066c5.6-1.342 13.271-5.252 13.403-8.168.1-2.22-3.495-3.098-4.639-5.567-1.689-3.644 6.909-5.45 23.294-26.855zm-.365-49.436l-.994 3.147c-1.292 0-2.402 5.501-3.611 5.401-.713-.049-2.784-6.163-1.475-11.067l.067-.165c2.021.845 4.025 1.756 6.013 2.684zm-1.043 80.831c.331 1.789.331 3.645.331 5.517 0 4.059 0 7.853-3.313 11.116-2.817 2.75-8.069 5.12-17.794 6.892 2.734-1.971 2.32-8.499.133-10.934 10.007-1.839 15.242-4.308 17.975-7.207.05-.066.083-.099.133-.166 1.491-1.607 2.187-3.379 2.535-5.218z"/><path d="M257.57 368.354c-.348 1.856-1.044 3.629-2.535 5.236-.05-.05-.083-.1-.133-.166-1.441-1.508-3.545-2.899-6.66-4.158-.099-.05-.215-.083-.331-.133.066-.249.099-.48.066-.679-.712-4.507-7.057-.729-7.604-4.043-.166-1.027 1.773-3.694 4.457-7.074h.016a18.06 18.06 0 0 1 1.508.464c8.018 2.734 10.47 6.461 11.216 10.553z"/><path d="M236.927 380.962l-8.333 1.242-.53-1.64c8.532-1.706 15.805-6.295 18.638-9.543.613-.679 1.027-1.308 1.192-1.838 0-.017.017-.034.017-.05.116.05.232.083.331.132 3.115 1.259 5.219 2.651 6.66 4.159.05.066.083.116.133.165-.05.067-.083.1-.133.166-2.733 2.899-7.968 5.368-17.975 7.207zm17.661 4.042l.066.066c0 13.42 0 25.497-11.581 33.947-1.491 1.093-3.164 2.12-5.053 3.081-.049.017-.099.05-.149.066l-.43.332-6.329-7.986c.596-.563 1.176-1.159 1.723-1.789 4.821-5.384 6.643-12.922 7.323-18.091-7.555 1.358-18.208 2.187-29.54 2.468-14.678.348-30.483-.199-42.213-1.69l5.948.033c30.732 0 50.165-1.308 62.441-3.545 9.725-1.773 14.977-4.142 17.794-6.892zm-3.363-138.369c1.772 12.525-3.231 23.741-12.343 32.903-3.28-1.127-6.544-2.154-9.791-3.065 2.783-3.363 5.119-6.793 6.875-10.173a34.72 34.72 0 0 0 1.557-3.495c1.16-.978 1.79-2.121 1.641-3.264a2.42 2.42 0 0 0-.332-1.011c3.645-14.711-.165-33.614-4.639-50.612-10.652-1.806-23.972-2.717-38.237-3.016 1.74-1.01 3.016-2.153 2.9-3.015-.183-1.342-3.728-2.452-6.66-1.557-2.452.745-4.109 2.783-4.755 4.473-13.502-.066-27.518.348-40.722 1.011-.182-1.276-.696-2.618-1.591-3.695 29.705-5.069 60.338-9.443 87.906-12.425 8.83 15.076 14.065 32.819 17.014 49.536.448 2.501.829 4.97 1.177 7.405z"/><path d="M237.441 422.496l.43-.332.149-.066c1.889-.961 3.562-1.988 5.053-3.081.017 3.81-.828 8.863-3.76 11.779-1.392 1.59-3.098 2.932-5.037 4.009-10.702 6.064-28.164 4.689-35.818-.232 19.549 2.551 37.541-5.003 27.767-25.812a131.83 131.83 0 0 1 4.887 5.749c2.071 2.518 4.175 5.202 6.329 7.986zm1.723-162.955c.149 1.143-.481 2.286-1.641 3.247a39.51 39.51 0 0 0 1.309-4.257 2.44 2.44 0 0 1 .332 1.01z"/><path d="M197.911 222.613c-5.4 7.588-8.863 18.522-7.14 24.171.066.249.149.481.248.713 1.657 3.943 9.427 5.185 17.346 4.026 7.969-1.177 16.054-4.805 18.125-10.554 1.541-4.291.596-9.377-1.69-13.949-3.794-7.638-11.282-13.834-17.048-12.442-3.512.845-6.958 3.959-9.841 8.035zm-33.581 47.216c-3.546.116-7.025-.464-10.023-.547-3.165-.132-5.782.266-7.356 2.519-2.817 4.026 1.739 7.405 8.25 9.228a46.55 46.55 0 0 0 2.883.679l-.911 2.932s.016.017.016.033a2.17 2.17 0 0 0-1.309.265c-2.153 1.193-.861 9.924.829 19.268-32.886-2.866-64.347-16.998-69.334-42.279a34.47 34.47 0 0 1-.663-5.617 39.39 39.39 0 0 1 .298-6.643l.613-4.606c1.557-10.917 3.893-22.465 7.555-33.581l15.06-3.016h.033c8.101-.778 17.611-1.54 27.816-2.17 2.519 2.452 6.412 4.54 7.82 3.546.762-.531 1.11-2.204.828-4.026 13.204-.663 27.22-1.077 40.723-1.011-.398.961-.448 1.806-.116 2.204.911 1.159 5.533-.282 8.631-2.105 14.264.299 27.584 1.21 38.237 3.016 4.473 16.998 8.284 35.901 4.639 50.612-1.16-2.07-5.02-3.263-9.377-2.733-5.053.613-8.864 3.28-8.549 5.964.332 2.667 4.689 4.341 9.725 3.728 2.883-.348 5.351-1.375 6.892-2.684-.464 1.209-.977 2.369-1.557 3.495-1.756 3.38-4.092 6.81-6.876 10.173-14.065-3.976-27.485-5.898-38.137-5.202 2.551-3.248 3.23-6.561.878-8.98-3.943-4.075-8.068-1.839-12.823 1.226-3.562 2.286-7.489 5.053-11.978 5.997a17.9 17.9 0 0 1-2.701.315h-.016zm15.921-27.783c-.017-3.578-30.086-.083-30.401 3.38-.248 2.601 7.671 3.86 13.817 3.86 7.356 0 16.584-4.424 16.584-7.24zm-15.838 17.727c4.373-.265 7.19-3.015 6.212-5.434-.265-.646-1.739-.878-3.595-.878-3.363.033-7.985.911-8.615 1.69-.944 1.159 1.756 3.992 4.722 4.539.414.083.845.116 1.276.083zm-23.542-11.183c1.905-5.533-2.32-16.816-8.45-24.37-3.131-3.893-6.792-6.809-10.354-7.422-5.583-.961-12.276 5.053-15.739 12.442-2.352 4.986-3.214 10.603-1.276 15.109 2.419 5.583 10.686 8.665 18.705 9.327.016.017.033.017.049.017 7.969.662 15.673-1.061 17.065-5.103zm-24.172 18.274c0-2.701-4.109-4.888-9.195-4.888s-9.194 2.187-9.194 4.888 4.125 4.87 9.194 4.87 9.195-2.186 9.195-4.87zm109.526 141.898c-5.666-6.329-10.868-10.587-15.573-10.587l-.034-1.077c11.332-.281 21.985-1.11 29.54-2.468-.68 5.169-2.502 12.707-7.323 18.091-.547.63-1.127 1.226-1.723 1.789-1.657-2.054-3.28-3.976-4.887-5.748z"/><path d="M238.832 258.531a39.44 39.44 0 0 1-1.309 4.257c-1.54 1.326-4.009 2.353-6.891 2.701-5.037.613-9.394-1.061-9.725-3.728-.315-2.684 3.495-5.351 8.548-5.964 4.357-.53 8.218.663 9.377 2.734zm-97.928 125.33c5.285.249 11.149.431 17.611.547l3.694.049h.017l12.11.083 9.891-.049 6.03-.083 6.014-.133 3.496-.099 5.55-.216c.331 0 .646 0 .961-.049.298 0 .596 0 .894-.033 8.483-.398 15.54-.961 21.422-1.674 3.098-.364 5.864-.778 8.333-1.242 2.187 2.435 2.601 8.963-.133 10.934-12.276 2.237-31.709 3.545-62.441 3.545-2.038 0-4.009 0-5.948-.033-10.752-.049-20.013-.281-27.998-.679-29.49-1.441-41.451-4.987-46.289-9.741-3.313-3.248-3.313-7.041-3.313-11.1v-1.127c0-.58.017-1.16.033-1.723 0-.895.083-1.756.232-2.618h.033c.364 1.839 1.077 3.562 2.551 5.186.033.05.083.099.133.166 3.38 3.578 10.57 6.494 25.878 8.366h.016c4.722.596 10.189 1.077 16.584 1.458l4.639.265zm54.605-234.508l14.414 8.35c1.06 1.126 2.418 1.938 4.092 2.386h.016c3.579 2.07 7.389 4.191 12.276 6.775.017-.033.05-.049.067-.066a68.08 68.08 0 0 1 9.277 10.968l.1 1.391-9.543.729c-8.101-14.513-39.745-32.985-64.314-33.035 11.415-1.441 22.913-.563 33.615 2.502zm-8.283 281.973l7.604-.994a4.17 4.17 0 0 0 .397.994c.63 1.193 1.74 2.286 3.231 3.247 7.654 4.921 25.116 6.296 35.818.232 1.094 6.511-.083 17.081-.795 23.923-2.783 26.475-6.179 56.577-10.47 74.47-3.281 1.01-5.981 1.789-8.383 2.336 2.336-7.539 4.158-17.048 5.566-27.32.298-.464.464-.961.464-1.474a2.53 2.53 0 0 0-.149-.845c2.734-20.875 3.81-44.417 4.059-60.653-26.789-.016-25.298-4.605-30.351-6.825-4.705-2.071-29.307-3.396-39.761-4.341.778-.812 1.308-1.673 1.557-2.601v-.05c.017-.033.017-.082.033-.116 5.583.365 11.647.266 18.29.266l9.576-.133 3.297-.116h.017zm45.162-82.14l-2.469 1.756c-2.999-7.787-8.234-20.046-11.232-25.795 4.771 5.964 10.52 16.965 13.701 24.039zm-2.386 10.156c.729.861-.547 3.28-2.319 5.599-.879 1.16-1.922 2.303-2.867 3.198l-.033.033-1.11.066c-1.143.033-1.54.895-1.491 1.79-.049.016-.099.033-.149.033-.083 0-.149 0-.182-.017-1.524-.282-3.413-3.33-2.038-4.904.199-.215.53-.53.961-.911h.017c2.485-2.137 8.167-6.113 9.211-4.887zm-.911-82.869c3.247.911 6.511 1.938 9.791 3.065-10.156 10.205-25.431 17.859-42.213 21.935 11.017-4.722 23.757-14.48 32.422-25z"/><path d="M213.965 348.573c-3.396 1.574-8.83-3.744-9.974-7.77a3.44 3.44 0 0 0 1.989-3.131c0-.63-.166-1.21-.464-1.723-.415-3.744.43-14.066 1.259-17.114l.033-.133c3.363.647 6.56 1.525 8.747 3.198.961.729 2.022 1.855 3.132 3.247 2.998 5.749 8.233 18.009 11.232 25.795l-2.054 1.375c-.265.182-.53.348-.795.514l-1.674 1.01-5.583-.513c-.099-.332-.166-.679-.199-1.061-.033-.116-.033-.231-.049-.347-.1-1.077-.083-2.22-.299-3.099-.198-.878-.613-1.491-1.557-1.491-.762 0-1.905 1.442-3.015 3.612l-.729-2.369zm14.38 20.46c.182.746-1.955 1.922-4.655 2.916-.812.216-1.475-.828-1.508-1.872v-.05c.613-.149 1.558-.861 2.601-1.855h.183c1.872-.033 3.247.298 3.379.878v-.017z"/><path d="M228.064 380.564l.53 1.64c-5.882.713-12.939 1.276-21.422 1.674-.298.016-.596.033-.894.033 9.609-3.314 18.356-7.522 16.269-12.459.066.066.132.149.198.216 1.591 1.838 2.966 3.843 4.026 5.964a25.55 25.55 0 0 1 1.293 2.932zm-1.839 28.197c9.774 20.809-8.218 28.363-27.767 25.796-1.491-.945-2.601-2.038-3.231-3.231a4.17 4.17 0 0 1-.397-.994c-.033-.066-.05-.149-.066-.215-3.662-8.4 4.837-30.269 14.695-31.843.397-.066.795-.099 1.192-.099 4.706 0 9.908 4.258 15.574 10.586zM224.8 227.02c2.286 4.572 3.23 9.658 1.69 13.949-2.071 5.749-10.156 9.377-18.125 10.554 12.923-3.662 9.046-17.777 1.988-25.348 5.07-1.243 10.255-.961 14.447.845zm-111.481-56.395l11.117-7.008 3.512-2.303 14.331-9.608h.016c6.395-2.419 12.989-4.026 19.599-4.855 24.569.05 56.213 18.522 64.314 33.035-43.472 3.645-92.942 12.542-134.293 23.111l-.182-.729c5.335-12.972 12.674-23.575 21.289-31.941l.298.298zm110.354 197.613l1.11-.066c-1.044.994-1.988 1.706-2.601 1.855-.05-.894.348-1.756 1.491-1.789zm.895 76.988c-.249 16.252-1.325 39.794-4.059 60.669-.828-2.303-4.97-4.043-9.957-4.043-5.566 0-10.089 2.187-10.089 4.888s4.523 4.87 10.089 4.87c4.506 0 8.333-1.424 9.642-3.396-1.408 10.272-3.23 19.781-5.566 27.319-7.704 1.806-12.293 1.508-22.648.415-1.342-18.042-.845-48.062-5.318-50.381-1.507-.779-3.247-1.259-5.069-1.491h-.017c-5.053-.729-10.686.215-13.502 1.06-2.535.1-10.272 0-10.272 2.187.067 10.835 1.143 33.499-1.226 49.138-7.985.597-12.69.05-23.409-3.264-2.866-12.408-7.041-34.078-15.225-72.696-1.359-6.428-2.121-16.733-1.011-24.271 1.127.613 2.319 1.126 3.562 1.574 11.945 4.357 28.628 1.855 33.963-3.728 10.454.945 35.056 2.27 39.761 4.341 5.053 2.22 3.562 6.809 30.351 6.809zm-68.87 63.369c0-2.7-4.34-4.887-9.708-4.887s-9.709 2.187-9.709 4.887 4.341 4.871 9.709 4.871 9.708-2.187 9.708-4.871z"/><path d="M222.547 371.452c2.087 4.937-6.66 9.145-16.269 12.459-.315.033-.63.033-.961.049-3.761-4.97-9.526-8.432-16.435-11.58.795-1.027 1.64-2.021 2.469-2.916h.016c2.618-2.849 5.235-4.937 7.737-5.914h.05a6.36 6.36 0 0 1 .894-.315c.199-.05.382-.116.58-.149l.398-.1c1.855-.447 3.694-.53 5.517-.364a18.01 18.01 0 0 1 4.175.861h.033l.149.05h.017l.463.149c.531.182 1.061.398 1.591.613 3.148 1.392 6.063 3.479 8.549 6.047a21.65 21.65 0 0 1 1.01 1.094l.017.016zm-.68-16.302c.547.05 1.342-.199 2.353-.679-1.889 1.077-4.274 3.231-5.268 2.618-.961-.58.646-3.032.662-4.821.033.381.1.729.199 1.06v.033h.017c.265.977.828 1.706 2.037 1.789zm-1.358 150.745a2.53 2.53 0 0 1 .149.845c0 .513-.166 1.01-.464 1.474l.315-2.319zm8.582-229.422c-8.665 10.52-21.405 20.278-32.422 25h-.033a120.44 120.44 0 0 1-7.406 1.524c-6.362 1.126-12.873 1.723-19.317 1.756-3.943-8.781-8.797-19.632-12.724-20.096 0-.017-.016-.017-.016-.033l.911-2.933c3.645.713 7.637.961 11.166.613 4.838-.48 9.675-2.203 13.734-4.506 3.33-1.905 6.13-4.208 7.952-6.544h.017c10.653-.696 24.072 1.226 38.138 5.202v.017z"/><path d="M220.509 505.895l-.315 2.319c-1.309 1.972-5.136 3.397-9.642 3.397-5.567 0-10.089-2.187-10.089-4.871s4.522-4.887 10.089-4.887c4.987 0 9.129 1.739 9.957 4.042zM224.8 227.02c-4.192-1.806-9.377-2.088-14.447-.845-3.943-4.241-8.896-6.428-12.442-3.562 2.883-4.076 6.329-7.19 9.841-8.035 5.766-1.392 13.254 4.804 17.048 12.442zm-1.789 306.178c-2.104 8.681-4.407 14.496-6.959 15.622-4.556 2.005-8.349 3.33-12.21 3.231 4.44-1.243 7.986-7.455 10.786-16.518 2.402-.546 5.102-1.325 8.383-2.335zm-8.317-182.239l-.265.497-.63 1.424-4.39-.248h-.017l-5.417-.249h-.017c-.116 0-.198 0-.314-.016l-.597-1.624-1.176-2.833v-.033c-1.342-2.982-2.883-5.583-4.606-7.67-.712-.862-1.441-1.624-2.22-2.287l-.033-.033 4.059.216h.05c.215 1.706 1.656 3.015 3.413 3.015.53 0 1.027-.116 1.457-.315 1.144 4.026 6.578 9.344 9.974 7.77l.729 2.369v.017z"/><path d="M213.799 352.881s-.016 0-.016.033c-1.309 3.131-2.369 7.124-2.386 10.603h-.116c-.166-.017-.331-.017-.514-.034h-.033a18 18 0 0 0-4.175-.861c-.795-3.612-1.756-7.058-2.899-10.222v-.033c.116.017.199.017.315.017h.017l5.417.248h.017l4.39.249h-.017zm-1.242-246.039l.265.082c-3.827 15.076-11.316 42.114-2.9 50.779l-14.413-8.35c5.6-10.537 11.63-25.199 17.048-42.511zm-1.939 290.256l.034 1.077a7.16 7.16 0 0 0-1.193.1c-9.858 1.573-18.357 23.442-14.695 31.842.016.066.033.149.066.215-3.943.646-6.76.878-7.604.994l-3.297.116-9.576.133c-6.644 0-12.707.099-18.29-.265 2.7-6.213-1.226-19.765-7.456-27.055-1.06-1.259-2.203-2.319-3.379-3.131-1.243-.861-2.535-1.441-3.86-1.657-.398-.066-.796-.099-1.193-.099l.232-4.639c7.985.398 17.246.63 27.998.68 11.73 1.491 27.535 2.037 42.213 1.689zm-.265-170.923c7.058 7.571 10.935 21.686-1.988 25.331-7.919 1.176-15.689-.066-17.346-4.009-.099-.232-.182-.464-.248-.713l.083-.033c1.491-8.731 6.809-14.827 13.237-18.207.265.431.745.729 1.292.729.845 0 1.524-.696 1.524-1.541 0-.149-.016-.298-.066-.447a25.25 25.25 0 0 1 3.512-1.11z"/><path d="M210.353 226.175a25.25 25.25 0 0 0-3.512 1.11c-.182-.63-.762-1.094-1.458-1.094a1.55 1.55 0 0 0-1.541 1.541c0 .298.083.58.249.812-6.428 3.38-11.746 9.476-13.237 18.207l-.083.033c-1.723-5.649 1.739-16.583 7.14-24.171 3.546-2.866 8.499-.679 12.442 3.562z"/><path d="M206.841 227.285c.05.149.066.298.066.447 0 .845-.679 1.541-1.524 1.541-.547 0-1.027-.298-1.292-.729.894-.48 1.822-.895 2.75-1.259zm-.033 91.417l-.033.133c-.829 3.048-1.674 13.37-1.259 17.114-.597-1.027-1.707-1.723-2.982-1.723-.961 0-1.823.397-2.452 1.027-.381-3.297.149-13.867 1.093-17.329l.033-.183 5.6.961zm-3.164 33.665v.033c1.143 3.164 2.104 6.61 2.899 10.222-1.823-.166-3.661-.083-5.517.365l-.05-.232c-.696-2.121-2.286-11.399-9.012-20.974-3.446-4.888-10.918-6.346-17.015-6.843l-.033-.099c2.75-.696 5.583-1.011 8.317-.928.613.017 1.226.066 1.839.133 2.584.281 5.053.944 7.207 2.021.944.464 1.855 1.093 2.717 1.822h.016l.033.033c.779.663 1.508 1.425 2.22 2.287 1.723 2.087 3.264 4.688 4.606 7.67v.033a44.12 44.12 0 0 1 1.176 2.833 27.35 27.35 0 0 1 .597 1.624z"/><path d="M205.383 226.191c.696 0 1.276.464 1.458 1.094-.928.364-1.855.778-2.75 1.259-.166-.232-.249-.514-.249-.812a1.55 1.55 0 0 1 1.541-1.541zm.133 109.758c.298.513.464 1.093.464 1.723a3.4 3.4 0 0 1-1.988 3.114c-.431.216-.928.332-1.458.332-1.756 0-3.198-1.309-3.413-3.015a3.43 3.43 0 0 1-.033-.431 3.45 3.45 0 0 1 .994-2.419c.629-.63 1.491-1.027 2.452-1.027 1.275 0 2.385.696 2.982 1.723zM191.98 535.948c10.355 1.093 14.944 1.391 22.648-.415-2.8 9.063-6.346 15.275-10.786 16.518h-.016c-2.817-.05-5.699-.878-8.963-2.734-1.541-.894-2.353-6.179-2.883-13.369zm13.337-151.987l-5.55.215-3.496.099-2.369-2.153-2.8-2.452-4.738-3.943 1.889-2.552.629-.795c6.909 3.148 12.674 6.61 16.435 11.581z"/><path d="M201.208 317.742l-.033.182c-.944 3.462-1.474 14.032-1.093 17.329a3.45 3.45 0 0 0-.994 2.419 1.83 1.83 0 0 0 .033.431h-.05l-4.059-.216h-.016c-.862-.729-1.773-1.358-2.717-1.822-2.154-1.077-4.623-1.74-7.207-2.021 2.965-11.067.48-22.432-2.021-23.211a3.3 3.3 0 0 0-1.011-.166l-.182-1.441c2.319-.298 4.854-.729 7.952-1.325h.017c.414 1.739 1.043 3.545 1.855 5.616.994 2.518 4.954 3.446 9.526 4.225zm-2.071 45.808h-.033c-2.501.977-5.119 3.065-7.737 5.914h-.016l-2.469 2.916-.629.795-1.889 2.552c-3.926-3.098-7.836-5.915-11.547-8.085a49.33 49.33 0 0 0-2.005-1.127c-2.783-1.507-5.434-2.634-7.836-3.247-.464-.132-.895-.232-1.342-.298-.464-.083-.911-.149-1.359-.199h-.149l-.513-.05h-.083c-.547-.033-1.06 0-1.574.034h-.017l-.215.049h-.033c-.182.017-.331.033-.514.067-.016-.017-.016-.05-.016-.067h-.017s-.016-.016-.016-.033l-.63-1.69c-.845-2.369-1.375-4.572-1.524-6.56-.05-.862-.05-1.69.05-2.452v-.033c.016-.183.049-.365.082-.531l.199-1.027c.746-3.081 2.287-5.798 4.357-8.084.282-.299.564-.597.862-.879h.016c1.359-1.341 2.9-2.501 4.573-3.495a28.55 28.55 0 0 1 5.55-2.535 27 27 0 0 1 2.253-.646l.033.099c6.097.497 13.569 1.955 17.015 6.843 6.726 9.575 8.316 18.853 9.012 20.974l.05.232-.398.099c-.198.033-.381.099-.579.149-.299.083-.597.182-.895.315h-.017zm-.281-161.663c.116.862-1.16 2.005-2.9 3.016l-8.515-.1c.646-1.69 2.303-3.727 4.755-4.473 2.932-.894 6.477.216 6.66 1.557z"/><path d="M193.902 382.122l2.369 2.153-6.014.133-6.03.083c.083-.133.116-.249.166-.381 1.192-4.026-5.468-10.471-13.519-15.143l1.64-1.905.298-.547a49.33 49.33 0 0 1 2.005 1.127c3.711 2.17 7.621 4.987 11.547 8.085 1.591 1.275 3.181 2.584 4.738 3.943.945.795 1.872 1.623 2.8 2.452zm-2.071-119.831c2.353 2.419 1.673 5.733-.878 8.98h-.016c-1.823 2.336-4.623 4.639-7.953 6.544.464-1.922-2.352-11.531-3.976-14.298 4.755-3.065 8.88-5.301 12.823-1.226zm-2.004 45.61h-.017l-7.952 1.325c-3.363.447-6.263.58-9.692.48l-2.237-4.904s-.016 0-.016-.033c6.444-.033 12.955-.629 19.317-1.756v.05c0 1.657.199 3.214.597 4.838zm6.129-102.998c-3.098 1.822-7.72 3.263-8.631 2.104-.331-.398-.282-1.243.116-2.204l8.515.1z"/><path d="M172.166 309.706c1.623 3.413 2.982 5.865 3.893 6.147 2.949.911 2.701-5.186 5.981-5.186a3.3 3.3 0 0 1 1.011.166c2.501.779 4.986 12.144 2.021 23.21a22.73 22.73 0 0 0-1.839-.132v-.381c1.044-5.666.812-15.507-1.823-16.799-1.971-.978-4.224 1.955-6.941 2.004-4.026.083-4.291-10.487-17.28-34.062 3.927.464 8.781 11.316 12.724 20.096 0 .017.016.017.016.033l2.237 4.904zm-1.292 59.261c8.051 4.672 14.711 11.117 13.519 15.143-.05.132-.083.248-.166.381l-9.891.049c-4.241 0-8.267-.033-12.11-.082 1.242-5.418 4.423-10.421 8.648-15.491z"/><path d="M181.41 316.731c2.635 1.292 2.867 11.133 1.839 16.799v.381c-2.75-.083-5.583.232-8.333.928a26.89 26.89 0 0 0-2.253.646l-.149-.447c.712-.199 1.276-.53 1.491-.994.083-.183.083-.448.016-.796.912.083 1.823-.281 1.823-1.027-.249-2.866-.829-5.235-1.591-5.252-.596-.016-1.259 1.193-1.723 2.983-2.087-3.579-5.682-7.936-7.14-7.257-.414.199-.53.845-.431 1.773l-4.904.795h-.099c-.05-1.938-.381-4.523-.845-7.472 0-.016 0-.033-.017-.049-.629-4.092-1.557-8.88-2.385-13.503v-.033c-1.69-9.344-2.982-18.075-.829-19.267.415-.232.862-.315 1.309-.265 12.989 23.575 13.254 34.144 17.28 34.062 2.717-.05 4.97-2.982 6.941-2.005zm-2.402-53.214c1.624 2.767 4.44 12.376 3.976 14.281-4.059 2.319-8.896 4.042-13.734 4.523.447-1.905-.596-10.04-2.22-12.807 4.49-.944 8.416-3.711 11.978-5.997zm2.85 45.709l.182 1.441c-3.28 0-3.032 6.097-5.981 5.186-.911-.282-2.269-2.734-3.893-6.146 3.429.099 6.329-.034 9.692-.481z"/><path d="M174.253 326.969c.762.017 1.342 2.386 1.591 5.252 0 .746-.911 1.11-1.823 1.027-.182-.795-.729-1.988-1.491-3.296.464-1.79 1.127-2.999 1.723-2.983zm-24.403-81.543c.315-3.463 30.384-6.958 30.401-3.38 0 2.817-9.228 7.24-16.584 7.24-6.146 0-14.066-1.259-13.817-3.86z"/><path d="M174.021 333.248c.067.348.067.613-.016.796-.215.464-.779.795-1.491.994-1.425.397-3.413.165-4.192-.994-.845-1.276-3.098-6.693-3.363-9.576-.099-.928.017-1.574.431-1.773 1.458-.679 5.053 3.678 7.14 7.257a20.06 20.06 0 0 0-.281 1.308c-.282 1.293.729 1.922 1.772 1.988zm-1.209 33.267l-.298.547-1.64 1.905-.1-.05c-4.688-2.717-9.841-4.804-14.214-5.467.828-.248 1.706-.447 2.601-.58h.016a5.69 5.69 0 0 1 .514-.066h.033l.215-.05h.017c.514-.049 1.027-.066 1.574-.033h.083l.513.05h.149c.448.05.895.116 1.359.199.447.066.878.166 1.342.298 2.402.613 5.053 1.74 7.836 3.247z"/><path d="M167.113 338.02c-1.673.994-3.214 2.153-4.573 3.479h-.016l-.862.894c-1.623-.513-3.263-1.805-4.771-3.396-1.11-1.193-2.154-2.551-3.048-3.893-2.071-3.082-3.38-6.031-3.148-6.511.895-1.773 3.164-.265 5.268.497h.033c.1.05.216.083.315.116 1.558.895 3.43 2.551 4.241 1.988 1.011-.712-.364-3.761-.497-5.931l4.904-.795c.265 2.882 2.519 8.3 3.363 9.576.779 1.159 2.767 1.391 4.192.994l.149.447a28.55 28.55 0 0 0-5.55 2.535zm5.417-8.068c.762 1.308 1.309 2.501 1.491 3.297-1.043-.067-2.054-.696-1.772-1.989l.281-1.308zm-1.756 38.965l.1.05c-4.225 5.07-7.406 10.073-8.648 15.49h-.017l-3.694-.049-17.611-.547c.927-5.451 3.396-10.885 7.14-14.894.497-.53 1.011-1.044 1.557-1.524h.017c1.839-1.624 3.91-2.899 6.213-3.728 0 0 .011-.005.033-.016.199-.083.397-.149.596-.216h.05c.017 0 .033-.016.05-.016 4.373.662 9.526 2.75 14.214 5.467v-.017zm-.149-114.578c.978 2.419-1.839 5.169-6.212 5.434-.431.033-.862 0-1.276-.083 4.142-.182 4.622-4.821 3.893-6.229 1.856 0 3.33.232 3.595.878zm-3.595 15.175c1.624 2.767 2.667 10.902 2.22 12.807-3.529.348-7.521.099-11.166-.613a46.55 46.55 0 0 1-2.883-.679c.447-1.906.729-8.947-.894-11.747 2.998.083 6.477.663 10.023.547a17.9 17.9 0 0 0 2.7-.315z"/><path d="M167.03 253.461c.729 1.408.249 6.047-3.893 6.229-2.966-.547-5.666-3.38-4.722-4.539.63-.779 5.252-1.657 8.615-1.69zm1.044 231.675c-1.309.381-2.187 2.32-2.783 5.302-1.955 9.758-.729 30.782-.961 45.278l-7.754.745c2.369-15.639 1.293-38.303 1.226-49.138 0-2.187 7.737-2.087 10.272-2.187z"/><path d="M164.33 535.716c-.116 8.085-.696 14.132-2.519 15.109-4.589 2.485-9.327 2.734-13.535 2.021 4.457-.778 6.942-7.422 8.3-16.385 2.253-.165 4.772-.43 7.754-.745zm-4.275-210.453c.133 2.17 1.508 5.219.497 5.931-.811.563-2.684-1.093-4.241-1.988 1.292.398 2.485.431 3.247-.862.332-.563.448-1.64.398-3.081h.099z"/><path d="M159.956 325.263c.05 1.441-.066 2.518-.398 3.081-.762 1.293-1.955 1.26-3.247.862l-.348-.199c-.165-3.926-.58-8.234-1.126-10.222 1.59-.281 3.048-.596 4.257-1.044.017.017.017.034.017.05.464 2.949.795 5.534.845 7.472zm-3.396 38.187s-.033.017-.05.017h-.05l-.596.215-.033.017c-2.303.828-4.374 2.104-6.213 3.711-.596-1.458-1.441-2.916-2.386-4.324 0-.017-.016-.017-.016-.033l5.881-.166 1.773-.05 4.241-.083h.017s.016 0 .016.034h.017s0 .049.016.066h-.016c-.895.132-1.773.331-2.601.58v.016z"/><path d="M159.128 362.771h-.017l-4.241.083-1.773.05-5.881.165h-.017c-3.131-4.605-7.571-8.432-9.277-8.432l-.1-1.922c.282 0 .564-.033.862-.05.265-.016.53-.033.795-.033l4.788-.215 9.741-.315 2.999-.066h.017v.033c-.1.762-.1 1.59-.05 2.452.149 1.988.679 4.191 1.524 6.56l.63 1.69z"/><path d="M161.662 342.393c-2.071 2.287-3.611 5.004-4.357 8.085l-.199 1.027-.082.53h-.017l-2.999.067-9.741.314v-.132l-.298-3.032c3.346-1.242 7.14-4.771 7.952-7.637.464.232.994.364 1.557.364 1.74 0 3.181-1.292 3.413-2.982 1.508 1.591 3.148 2.883 4.771 3.396zm-13.055 61.862c6.23 7.29 10.156 20.842 7.456 27.055-.017.033-.017.082-.033.116v.049c-.249.928-.779 1.789-1.558 2.601-5.334 5.583-22.018 8.085-33.962 3.728 16.865.646 27.683-3.761 28.28-17.677 2.236-4.175 1.11-10.255-.398-15.673l.232-.199h-.017zm7.356-75.165l.017.016h-.017v-.016z"/><path d="M155.963 329.007v.083c-2.104-.762-4.373-2.27-5.268-.497-.232.48 1.077 3.429 3.148 6.511h-.017c-.116-.017-.232-.017-.348-.017-1.259 0-2.369.679-2.965 1.673.414-3.76-.431-13.999-1.259-17.064l5.583-.911c.546 1.988.961 6.296 1.126 10.222zm-1.656-59.725c1.623 2.8 1.342 9.841.894 11.747-6.511-1.823-11.067-5.202-8.25-9.228 1.574-2.253 4.191-2.651 7.356-2.519z"/><path d="M151.921 341.615a3.47 3.47 0 0 1-1.889-3.082c0-.646.182-1.259.481-1.772.596-.994 1.706-1.674 2.965-1.674l.348.017h.017c.894 1.342 1.938 2.7 3.048 3.893-.232 1.69-1.673 2.982-3.413 2.982-.563 0-1.093-.132-1.557-.364zm-5.931 162.093c5.368 0 9.708 2.187 9.708 4.887s-4.34 4.871-9.708 4.871-9.709-2.187-9.709-4.871 4.341-4.887 9.709-4.887zm-12.823 29.49c10.719 3.313 15.424 3.86 23.409 3.263-1.358 8.963-3.843 15.607-8.3 16.385-2.667-.464-5.136-1.309-7.207-2.236-3.313-1.475-4.87-4.208-7.902-17.412z"/><path d="M149.254 319.697c.828 3.064 1.673 13.303 1.259 17.064-.299.513-.481 1.126-.481 1.772a3.47 3.47 0 0 0 1.889 3.082c-.812 2.866-4.606 6.395-7.952 7.637l-1.193-10.603c-.381 2.883-1.442 6.892-2.469 10.786l-.828 3.197c-.265 0-.53.017-.795.033l-.862.05c-8.631.48-15.689 1.16-21.421 1.971 1.905-4.473 15.523-26.739 21.521-31.278 2.783-2.121 7.074-3.032 11.315-3.711h.017zm.364 47.73h-.017l-1.557 1.54h-.016s-.017-.066-.034-.099c-1.59-4.722-5.417-9.294-7.256-8.565-2.071.795-.514 4.622-2.154 6.776-2.187 2.866-14.562-4.192-35.321-9.576a166.18 166.18 0 0 0-7.207-1.707c2.071-.116 5.236.381 8.914 1.193h.033s.049.017.082.017l2.602.596c2.982.696 6.163 1.541 9.31 2.353 4.838 1.275 9.576 2.518 13.221 3.214h.016c1.442.281 2.684.48 3.728.563h.099s.116.017.166.017c.978.066 1.74.033 2.253-.149.083-.017.149-.05.216-.083 3.661-1.806-2.171-7.571.911-8.831.083-.033.199-.049.315-.049 1.706 0 6.146 3.827 9.277 8.432h.017s.016.017.016.034c.945 1.408 1.79 2.866 2.386 4.324zm-1.242 37.027c1.507 5.418 2.634 11.498.397 15.673.216-5.02-.894-11.283-3.545-19.003 1.176.812 2.319 1.872 3.379 3.131l-.231.199z"/><path d="M148.773 420.127c-.596 13.916-11.415 18.323-28.28 17.677-1.243-.448-2.435-.961-3.562-1.574-2.087-1.143-3.943-2.535-5.434-4.241-2.883-2.866-3.728-7.754-3.744-11.531 1.541.961 3.264 1.872 5.185 2.7.05.034.1.067.149.067l.398.314c7.522-9.658 14.38-18.273 20.527-22.084 2.137-1.342 4.191-2.087 6.163-2.087.397 0 .795.033 1.193.099 1.325.216 2.617.796 3.86 1.657 2.65 7.72 3.76 13.983 3.545 19.003zm-.745-51.176h.016c-3.744 4.026-6.213 9.46-7.14 14.91l-4.639-.248c-6.395-.398-11.862-.878-16.584-1.475.928-.431 1.922-.762 2.601-1.242 1.806-.481 4.606-.415 4.656-1.375.082-1.226-6.097-2.552-7.87-3.794l-.033.049c-2.7-1.607-6.461-3.578-10.272-5.666-1.342-.729-2.683-1.491-3.992-2.253-.017-.016-.033-.016-.05-.016a98.33 98.33 0 0 1-5.401-3.363c-1.574-1.077-2.932-2.121-3.959-3.132-.017-.016-.05-.049-.05-.066-1.74-1.706-2.485-3.297-1.624-4.622.348-.53 1.176-.795 2.369-.862a166.06 166.06 0 0 1 7.207 1.707c20.759 5.384 33.134 12.442 35.321 9.576 1.64-2.154.083-5.981 2.154-6.776 1.839-.729 5.666 3.843 7.256 8.565a.09.09 0 0 0 .034.083zm-8.151 9.907c2.087.066 4.025-3.28 3.28-4.622-.895-1.624-13.784-1.988-14.231.43-.348 1.872 8.946 4.126 10.951 4.192zm6.842-173.044c.281 1.822-.067 3.495-.829 4.026-1.408.994-5.301-1.094-7.819-3.546l8.648-.48z"/><path d="M145.128 202.119c.895 1.077 1.409 2.419 1.591 3.695l-8.648.48c-.895-.861-1.607-1.772-1.972-2.601l9.029-1.574zm-.861 150.165v.133l-4.788.215.828-3.198c.994.464 2.287.332 3.662-.182l.298 3.032z"/><path d="M142.776 338.649c.232 2.85.812 7.091 1.193 10.603-1.375.514-2.668.647-3.662.183 1.028-3.894 2.088-7.903 2.469-10.786zm.381 35.587c.745 1.342-1.193 4.688-3.28 4.622-2.005-.066-11.299-2.319-10.951-4.192.447-2.418 13.336-2.054 14.231-.43zm-.878-222.531l-14.331 9.609-.116-.165c5.931-2.916-4.224-29.871-6.461-80.55-.497-11.282-2.833-35.768-10.139-52.833 5.964 11.995 11.034 28.065 13.337 47.399 3.992 33.515 10.42 59.609 17.71 76.54zm-9.858 72.515c6.13 7.554 10.355 18.837 8.45 24.37-1.525-8.996-7.207-15.076-13.95-18.24a1.5 1.5 0 0 0-1.508-1.442c-.381 0-.745.149-1.01.381a25.47 25.47 0 0 0-3.927-1.076c3.645-4.291 8.317-6.594 11.945-3.993zm7.986 170.509l-.232 4.639c-1.972 0-4.026.746-6.163 2.071-6.147 3.827-13.006 12.442-20.527 22.101l-.398-.315s-.099-.033-.149-.066a38.88 38.88 0 0 1-5.185-2.701c-13.718-8.499-13.718-21.189-13.718-35.387l.083-.083c4.838 4.755 16.799 8.3 46.289 9.741zm-6.346-30.997h-.099c-1.044-.083-2.286-.282-3.728-.563h-.016c-3.645-.696-8.383-1.939-13.221-3.214l-9.31-2.353-2.601-.596c-.034 0-.05-.017-.083-.017 1.209-.331 2.468-.663 3.893-.961 2.22-.48 4.705-.927 7.505-1.342 5.732-.811 12.79-1.491 21.421-1.971l.1 1.922c-.116 0-.232.016-.315.049-3.082 1.259 2.75 7.025-.911 8.831-.067.033-.133.066-.216.082-.513.183-1.275.216-2.253.15-.05 0-.099 0-.166-.017zm2.038-160.039c.365.828 1.077 1.74 1.972 2.601-10.206.63-19.715 1.392-27.816 2.17l25.844-4.787v.016z"/><path d="M132.421 224.22c-3.628-2.601-8.3-.298-11.945 3.993-4.904-.978-9.857-.58-13.866 1.159l-.282-.132c3.463-7.389 10.156-13.403 15.739-12.442 3.562.613 7.223 3.529 10.354 7.422z"/><path d="M140.871 248.59c-1.392 4.043-9.096 5.766-17.065 5.103-.016 0-.033 0-.049-.017-13.237-2.882-10.007-17.544-3.281-25.463 1.326.248 2.635.613 3.927 1.077-.332.281-.53.695-.53 1.159 0 .845.695 1.524 1.54 1.524a1.52 1.52 0 0 0 1.525-1.524c0-.033 0-.066-.017-.099 6.743 3.164 12.425 9.244 13.95 18.24zm-13.039-87.441l.116.165-3.512 2.303c-6.494-10.586-15.424-29.092-13.933-54.953.895-15.225.812-28.711-.166-41.451v-.099a55.51 55.51 0 0 0-.348-4.274c-.662-7.24-1.623-14.248-2.833-21.239-.828-8.449-10.652-34.112-23.823-37.028 1.309-.696 2.585-1.093 3.81-1.143 6.71-.298 16.17 8.416 24.072 24.271l.034.066c7.306 17.064 9.642 41.55 10.139 52.833 2.236 50.679 12.392 77.634 6.461 80.55h-.017zm-8.764 214.578c1.773 1.242 7.952 2.567 7.87 3.793-.05.961-2.85.895-4.656 1.376.613-.431.961-.978.762-1.839-.182-.746-1.723-1.873-4.009-3.281l.033-.049z"/><path d="M126.921 230.35a.57.57 0 0 0 .017.099 1.52 1.52 0 0 1-1.525 1.524c-.845 0-1.54-.679-1.54-1.524 0-.464.198-.878.53-1.159.861.298 1.69.646 2.518 1.06z"/><path d="M125.413 228.908a1.5 1.5 0 0 1 1.508 1.442 20.97 20.97 0 0 0-2.518-1.061 1.56 1.56 0 0 1 1.01-.381zm-3.131 151.988c-.679.48-1.673.811-2.601 1.242h-.016c-15.308-1.872-22.499-4.788-25.878-8.366-.05-.067-.099-.116-.132-.166.033-.05.083-.099.132-.166 1.723-1.806 4.407-3.462 8.615-4.887a43.27 43.27 0 0 1 2.319-.712c.017 0 .033 0 .05.016l3.992 2.253 10.272 5.666c2.286 1.408 3.827 2.535 4.009 3.281.199.861-.149 1.408-.762 1.839zM106.61 229.372c4.009-1.739 8.963-2.137 13.866-1.159-6.726 7.919-9.956 22.581 3.281 25.463-8.019-.662-16.286-3.744-18.705-9.327-1.938-4.506-1.076-10.123 1.276-15.109l.282.132zm.894 32.605c5.086 0 9.195 2.186 9.195 4.887s-4.109 4.871-9.195 4.871-9.194-2.187-9.194-4.871 4.125-4.887 9.194-4.887zm16.932-98.36c-2.949 1.922-6.329 4.059-11.117 7.008l-.298-.298c2.187-4.341-3.33-22.664-4.837-27.999-5.103-17.909 3.23-52.965 2.153-75.115.978 12.74 1.061 26.226.166 41.451-1.491 25.861 7.439 44.367 13.933 54.953z"/><path d="M108.184 142.328c1.507 5.335 7.024 23.658 4.837 27.999-11.961-12.707-35.752-32.389-47.962-63.071C47.995 64.33 67.727 12.84 83.316 4.573 96.487 7.488 106.312 33.151 107.14 41.6c1.209 6.991 2.17 13.999 2.833 21.239l.348 4.274v.099c1.077 22.15-7.257 57.206-2.154 75.115h.017zm1.805-79.489l.348 4.274-.348-4.274zM91.103 368.421h-.033c.232-1.541.729-3.032 1.673-4.44.63-.928 1.458-1.823 2.551-2.684h.017l.05.049c1.027 1.011 2.386 2.055 3.959 3.132l5.401 3.363-2.319.712c-4.208 1.425-6.892 3.082-8.615 4.887l-.132.166c-1.475-1.624-2.187-3.347-2.551-5.185zm-3.496-123.376l-.613 4.622c-.282 2.286-.381 4.49-.298 6.644h-.017c-44.151-1.326-83.747-6.213-84.393-13.933-.05-.63.149-1.293.613-1.989 5.268-7.902 43.588-18.853 92.263-28.909-3.661 11.116-5.997 22.664-7.555 33.565z"/></g><path d="M329.736 193.074c1.624 14.38-44.284 36-79.605 46.123-2.949-16.717-8.184-34.46-17.014-49.52 45.311-4.92 82.338-6.063 93.322-.397.034 0 .05.016.083.049a23.65 23.65 0 0 1 2.336 1.806c.514.597.795 1.243.878 1.939z" class="C"/><path d="M110.486 208.415l-15.241 3.032c-48.641 10.039-86.961 20.99-92.246 28.893 4.97-11.067 41.666-25.315 88.999-37.376 41.351-10.553 90.821-19.45 134.294-23.094l9.543-.729c40.871-2.767 75.248-.448 90.605 10.139-10.984-5.666-48.011-4.523-93.322.397-27.568 2.966-58.201 7.34-87.906 12.409l-9.029 1.574-25.696 4.755z" class="G"/><path d="M266.814 291.565l-6.726-3.379 1.425-2.982c1.391 2.087 17.279-3.43 20.013.049 1.292 1.657-10.139 3.264-9.941 4.755.266 2.054 18.937-.182 20.527 1.955.911 1.226-10.619 1.806-10.586 3.015.033 1.574 17.925 2.253 17.925 3.678 0 .911-9.493 2.071-10.371 3.893-1.789 3.794 7.191 15.955 4.556 16.452-4.009.729-8.118-14.049-11.298-13.701-2.154.232-.348 7.289-2.32 7.405-2.883.166-5.252-14.48-7.786-14.264-1.79.149-2.369 7.621-3.463 7.554-1.292-.066-1.126-10.553-3.429-11.597l1.474-2.833z" class="C"/><path d="M282.006 27.12c7.704 21.62 10.139 55.516-4.34 83.781-14.033 27.385-37.426 44.366-51.209 55.864-.017.017-.05.033-.067.066a330.95 330.95 0 0 1-12.276-6.776l1.325-1.888c.497-.729.994-1.475 1.475-2.254 11.116 2.519 14.943 1.293 34.94-19.234 16.004-16.451 37.69-57.372 30.119-109.542h.033v-.017z" class="N"/><path d="M281.973 27.137c7.571 52.17-14.115 93.091-30.119 109.542-19.997 20.527-23.824 21.753-34.94 19.234 6.908-10.768 14.596-26.987 15.374-47.928.961-25.762 4.208-46.355 9.725-66.451 3.363-9.129 18.638-35.951 30.765-31.428h.017c3.363 3.777 6.594 9.692 9.195 17.015l-.017.017z" class="O"/><path d="M272.795 10.089h-.017c-12.127-4.506-27.402 22.316-30.765 31.444-5.517 20.096-8.764 40.689-9.725 66.451-.778 20.941-8.466 37.16-15.374 47.928-.481.779-.978 1.525-1.475 2.254l-1.325 1.888h-.017l-4.092-2.385c-8.416-8.665-.927-35.686 2.9-50.779l-.265-.083c3.247-10.338 6.262-21.62 8.846-33.515 9.609-44.251 32.389-69.499 44.086-67.859 2.369.331 4.837 1.971 7.223 4.655z" class="C"/><g class="G"><path d="M266.814 291.565l-1.474 2.833-.232-.066c-1.508-.248-2.783 3.363-4.324 3.032-1.955-.431-1.674-6.561-3.032-6.71h-.05l1.011-3.131 1.375.663 6.726 3.379z"/><path d="M264.014 281.575c.696 1.442-2.882 2.386-2.584 3.463.016.066.05.116.083.166l-1.425 2.982-1.375-.663-6.014-2.717-1.508-.63c2.916-3.164 12.426-3.412 12.823-2.601z"/></g><path d="M211.48 363.483c.016-3.479 1.077-7.471 2.385-10.603 0-.016.017-.016.017-.033.215-.497.414-.977.63-1.424.082-.183.165-.315.265-.481v-.033c1.11-2.17 2.253-3.612 3.015-3.612.944 0 1.358.613 1.557 1.491.216.878.199 2.022.298 3.098.017.116.017.232.05.332h-.016c0 1.806-1.607 4.258-.647 4.837 1.011.63 3.463-1.64 5.368-2.667.066-.033.133-.083.216-.116l.795-.431h.016s.034-.016.05-.033c.514-.298 1.077-.646 1.673-1.01l.796-.514 2.054-1.375 2.468-1.756c10.14-7.339 23.824-18.605 26.74-16.584 1.226.862 1.209 2.485.364 4.589l-.53-.199c-16.368 21.389-24.983 23.194-23.293 26.839 1.143 2.485 4.754 3.347 4.655 5.567-.132 2.932-7.803 6.825-13.403 8.167l-.149.067c-1.06-2.121-2.435-4.126-4.026-5.964-.066-.067-.132-.15-.198-.216a16.77 16.77 0 0 0-1.011-1.11c-2.485-2.568-5.401-4.655-8.549-6.047-.53-.215-1.06-.431-1.59-.613l-.464-.149-.149-.05c.182.017.348.017.513.033h.116-.016zm16.285 1.425c1.773-2.319 3.049-4.738 2.32-5.599-1.044-1.226-6.727 2.75-9.212 4.887h-.016c-.431.381-.762.696-.961.911-1.375 1.574.514 4.622 2.021 4.904.05.016.116.016.199.016a.47.47 0 0 0 .149-.033v.05c.033 1.044.696 2.088 1.508 1.872 2.7-.994 4.837-2.17 4.655-2.916-.133-.58-1.508-.911-3.38-.878-.066 0-.116 0-.182.017l.033-.033a27.05 27.05 0 0 0 2.85-3.198h.016z" class="P"/><path d="M259.044 336.959l.53.199c-2.153 5.401-9.625 13.884-14.579 20.046-.033.034-.05.05-.066.083h-.017c-2.684 3.397-4.622 6.064-4.456 7.091.546 3.314 6.892-.464 7.604 4.042.033.199 0 .431-.066.68 0 .016-.017.033-.017.049-.165.531-.58 1.16-1.193 1.839-2.833 3.248-10.106 7.837-18.638 9.543a25.37 25.37 0 0 0-1.292-2.932l.149-.067c5.6-1.342 13.271-5.235 13.403-8.167.099-2.22-3.512-3.082-4.655-5.567-1.69-3.645 6.925-5.45 23.293-26.839z" class="D"/><path d="M258.713 287.523l-1.011 3.131c-1.292 0-2.402 5.5-3.628 5.401-.696-.05-2.783-6.146-1.458-11.067l.083-.182 6.014 2.717z" class="G"/><g class="C"><path d="M257.653 368.321c.331 1.789.331 3.661.331 5.533 0 4.059 0 7.87-3.314 11.117-2.816 2.767-8.068 5.119-17.809 6.909 2.75-1.972 2.319-8.516.149-10.951 10.006-1.839 15.242-4.308 17.975-7.207.05-.066.083-.099.133-.166 1.491-1.607 2.187-3.379 2.535-5.218v-.017z"/><path d="M257.653 368.321c-.348 1.856-1.044 3.628-2.535 5.235-.05-.049-.083-.099-.133-.165-1.441-1.508-3.545-2.9-6.66-4.159-.099-.049-.215-.083-.331-.132.066-.249.099-.481.066-.679-.712-4.507-7.057-.729-7.604-4.043-.166-1.027 1.772-3.694 4.456-7.074h.017c.53.132 1.027.298 1.508.464 8.018 2.733 10.47 6.461 11.216 10.553z"/><path d="M236.993 380.929l-8.316 1.242-.531-1.64c8.533-1.706 15.806-6.296 18.639-9.543.613-.679 1.027-1.309 1.192-1.839 0 0 .017-.033.017-.049.116.049.232.082.331.132 3.115 1.259 5.219 2.651 6.66 4.158.05.067.083.116.133.166-.05.066-.083.1-.133.166-2.733 2.899-7.969 5.368-17.975 7.207h-.017zm17.677 4.042l.067.066c0 13.42 0 25.497-11.581 33.946-1.491 1.094-3.164 2.121-5.053 3.082-.049.016-.099.05-.149.066l-.431.331-6.328-7.985a25.38 25.38 0 0 0 1.723-1.789c4.821-5.384 6.643-12.923 7.322-18.092-7.554 1.359-18.207 2.171-29.539 2.452-14.678.381-30.5-.165-42.213-1.656l5.948.033c30.715 0 50.148-1.309 62.425-3.546 9.741-1.789 14.993-4.141 17.809-6.908z"/></g><path d="M251.307 246.602c1.773 12.525-3.23 23.741-12.342 32.902-3.281-1.126-6.561-2.153-9.791-3.048 2.783-3.363 5.135-6.809 6.875-10.189.58-1.126 1.093-2.286 1.557-3.495 1.16-.978 1.773-2.121 1.64-3.264-.049-.348-.149-.679-.348-.994 3.662-14.712-.149-33.632-4.622-50.629-10.652-1.806-23.939-2.717-38.204-3.016 1.723-1.027 2.966-2.153 2.85-3.015-.182-1.342-3.728-2.452-6.644-1.557-2.451.745-4.125 2.783-4.771 4.473-13.486-.066-27.501.348-40.705 1.011-.183-1.276-.696-2.618-1.591-3.695 29.705-5.07 60.338-9.443 87.906-12.409 8.83 15.06 14.065 32.803 17.014 49.519.447 2.502.828 4.971 1.176 7.406zm-13.784 175.861l.431-.332.149-.066c1.889-.961 3.562-1.988 5.053-3.081.017 3.81-.828 8.863-3.76 11.779-1.392 1.59-3.099 2.932-5.037 4.009-10.702 6.064-28.164 4.705-35.818-.232 19.549 2.551 37.541-5.003 27.733-25.845 1.624 1.773 3.264 3.728 4.921 5.782 2.071 2.518 4.175 5.202 6.328 7.986z" class="E"/><path d="M239.246 259.508c.133 1.143-.48 2.286-1.64 3.247.514-1.375.945-2.783 1.292-4.241.199.315.299.646.348.994z" fill="#d17e75"/><path d="M224.883 226.986c-3.794-7.62-11.283-13.817-17.048-12.442-3.529.845-6.975 3.977-9.874 8.069-5.384 7.604-8.83 18.505-7.107 24.138.049.249.132.48.232.712 1.656 3.943 9.443 5.186 17.362 4.026 7.969-1.176 16.054-4.804 18.124-10.536 1.541-4.291.58-9.394-1.689-13.967zm-70.494 42.263c-3.164-.132-5.782.265-7.355 2.518-2.817 4.026 1.722 7.406 8.233 9.228a36.85 36.85 0 0 0 2.883.68l-.895 2.932s.017.033.017.05c-.464-.067-.895.016-1.325.248-2.154 1.193-.862 9.924.828 19.268-32.886-2.866-64.347-16.998-69.334-42.28-.365-1.805-.596-3.677-.663-5.599-.083-2.154.017-4.374.298-6.66 1.541-12.21 3.976-25.481 8.168-38.188l15.242-3.031c8.069-.779 17.512-1.525 27.668-2.154 2.518 2.452 6.411 4.539 7.819 3.545.762-.53 1.11-2.203.829-4.026 13.204-.662 27.219-1.076 40.705-1.01-.398.961-.447 1.806-.116 2.22.928 1.16 5.583-.298 8.681-2.121 14.265.298 27.552 1.21 38.204 3.015 4.473 16.998 8.284 35.918 4.622 50.63-1.126-2.088-4.986-3.264-9.377-2.734-5.036.613-8.863 3.28-8.532 5.948s4.672 4.34 9.709 3.727c2.899-.348 5.384-1.375 6.908-2.683-.464 1.209-.977 2.369-1.557 3.495-1.74 3.38-4.092 6.826-6.875 10.189-14.083-3.993-27.502-5.915-38.155-5.202 2.552-3.247 3.231-6.561.878-8.996-3.943-4.059-8.051-1.839-12.806 1.226-3.562 2.286-7.488 5.053-11.978 5.997-.878.182-1.773.298-2.701.332-3.545.099-7.024-.464-10.023-.564zm25.945-27.22c-.034-3.578-30.103-.099-30.418 3.38-.232 2.601 7.671 3.844 13.834 3.844 7.356 0 16.584-4.424 16.584-7.224zm-15.839 17.727c4.374-.281 7.174-3.015 6.213-5.434-.265-.646-1.756-.894-3.595-.878-3.38.033-7.985.911-8.632 1.69-.927 1.143 1.773 3.993 4.739 4.539.43.083.845.116 1.275.083zm-23.542-11.199c1.906-5.534-2.336-16.816-8.449-24.37-3.148-3.894-6.809-6.793-10.371-7.406-5.583-.961-12.276 5.053-15.739 12.442-2.352 4.987-3.214 10.603-1.275 15.093 2.435 5.583 10.702 8.681 18.72 9.344.017.016.034.016.05.016 7.969.646 15.656-1.077 17.064-5.119zm-24.171 18.273c0-2.7-4.125-4.887-9.195-4.887s-9.195 2.187-9.195 4.887 4.109 4.871 9.195 4.871 9.195-2.17 9.195-4.871z" class="C"/><path d="M240.24 394.596c-.679 5.169-2.501 12.707-7.322 18.092a25.38 25.38 0 0 1-1.723 1.789c-1.657-2.054-3.297-4.009-4.921-5.782-5.649-6.312-10.851-10.553-15.54-10.553l-.033-1.094c11.332-.281 21.985-1.093 29.539-2.452z" class="G"/><path d="M238.898 258.514c-.347 1.458-.778 2.866-1.292 4.241-1.524 1.325-4.009 2.353-6.908 2.7-5.037.613-9.377-1.06-9.709-3.727s3.496-5.335 8.532-5.948c4.391-.53 8.251.646 9.377 2.734z" fill="#e08f82"/><path d="M140.987 383.828c5.284.248 11.149.431 17.61.547l3.695.049 12.127.083 9.891-.05 6.03-.082 6.014-.133 3.496-.099 5.55-.216c.331 0 .646 0 .961-.049.298 0 .596-.017.894-.034 8.483-.397 15.54-.961 21.422-1.673 3.098-.364 5.848-.779 8.316-1.242h.017c2.17 2.435 2.601 8.979-.149 10.95-12.277 2.237-31.71 3.546-62.425 3.546-2.038 0-4.01 0-5.948-.033-10.504-.05-19.566-.265-27.419-.646-29.903-1.425-41.997-5.004-46.868-9.792-3.313-3.23-3.313-7.041-3.313-11.1v-1.126c0-.58 0-1.16.033-1.723.017-.895.083-1.756.232-2.618h.033c.364 1.839 1.077 3.562 2.551 5.186.033.049.083.099.133.165 3.38 3.579 10.569 6.495 25.877 8.367 4.722.596 10.206 1.077 16.601 1.458l4.639.265z" class="G"/><path d="M235.734 177.732l.1 1.408-9.543.729s-.066-.099-.083-.149c-8.25-14.513-39.827-32.886-64.347-32.886 11.448-1.457 22.995-.579 33.731 2.486l14.413 8.349c1.061 1.127 2.419 1.939 4.092 2.386h.017a330.95 330.95 0 0 0 12.276 6.776c.017-.033.05-.05.067-.066 3.429 3.28 6.544 6.941 9.277 10.967z" class="C"/><path d="M187.308 431.293l7.605-.994c.082.348.215.679.397.994.63 1.193 1.74 2.286 3.231 3.247 7.654 4.937 25.116 6.296 35.818.232 1.077 6.511-.083 17.081-.795 23.923-2.783 26.474-6.18 56.577-10.487 74.469-3.264 1.011-5.964 1.79-8.367 2.336 2.336-7.554 4.159-17.08 5.567-27.352.282-.447.447-.944.447-1.441a2.26 2.26 0 0 0-.149-.812c2.75-20.891 3.844-44.45 4.076-60.686-26.789-.016-25.298-4.589-30.351-6.825-4.705-2.071-29.291-3.397-39.762-4.324.779-.812 1.309-1.69 1.558-2.618.016-.017.016-.033.016-.05.017-.033.017-.083.033-.116 5.584.365 11.647.265 18.291.265l9.575-.132 3.297-.116z" class="I"/><path d="M232.47 349.153l-2.468 1.756c-2.999-7.787-8.234-20.046-11.233-25.795 4.772 5.964 10.521 16.965 13.701 24.039z" class="E"/><path d="M230.085 359.308c.729.862-.547 3.281-2.32 5.6h-.016a27.05 27.05 0 0 1-2.85 3.198l-.033.033-1.11.066c-1.143.033-1.541.895-1.491 1.789a.47.47 0 0 1-.149.033c-.083 0-.149 0-.199-.016-1.507-.282-3.396-3.33-2.021-4.904.199-.215.53-.53.961-.911h.016c2.486-2.137 8.168-6.113 9.212-4.888z" class="D"/><path d="M229.174 276.456c3.23.895 6.51 1.922 9.791 3.048-10.156 10.206-25.431 17.86-42.213 21.935 11-4.721 23.757-14.463 32.422-24.983z" class="E"/><path d="M214.048 348.54c-3.38 1.59-8.847-3.728-9.974-7.77 1.16-.547 1.988-1.74 1.988-3.115 0-.646-.182-1.242-.48-1.773-.414-3.76.447-14.032 1.259-17.08l.033-.133c3.38.646 6.577 1.541 8.764 3.198.961.729 2.021 1.855 3.131 3.247 2.999 5.749 8.234 18.008 11.233 25.795l-2.054 1.375c-.265.182-.531.348-.796.514l-1.673 1.01-5.583-.513a5.43 5.43 0 0 1-.199-1.077c-.033-.1-.033-.216-.05-.332-.099-1.077-.082-2.22-.298-3.098-.199-.878-.613-1.491-1.557-1.491-.762 0-1.905 1.442-3.015 3.612l-.729-2.369z" class="C"/><path d="M228.428 369c.182.746-1.955 1.922-4.655 2.916-.812.215-1.475-.828-1.508-1.872v-.05c.596-.149 1.557-.861 2.601-1.855.066-.017.116-.017.182-.017 1.872-.033 3.247.298 3.38.878z" class="D"/><path d="M228.146 380.531l.531 1.64c-5.882.712-12.939 1.276-21.422 1.673-.298.017-.596.033-.894.033 9.609-3.313 18.356-7.521 16.269-12.458.066.066.132.149.198.215 1.591 1.839 2.966 3.844 4.026 5.965.497.96.928 1.938 1.292 2.932z" class="L"/><path d="M226.274 408.695c9.808 20.842-8.184 28.396-27.733 25.845-1.491-.961-2.601-2.054-3.231-3.247-.182-.315-.314-.646-.397-.994-.033-.067-.05-.149-.067-.216-3.661-8.383 4.838-30.268 14.696-31.842.397-.066.795-.099 1.192-.099 4.689 0 9.891 4.241 15.54 10.537v.016z" class="C"/><path d="M224.883 226.986c2.269 4.573 3.23 9.676 1.689 13.967-2.07 5.732-10.155 9.36-18.124 10.536 12.906-3.661 9.029-17.776 1.988-25.347 5.07-1.243 10.255-.961 14.447.844z" class="H"/><path d="M113.402 170.608l11.133-7.008 3.927-2.601 13.817-9.277c.033-.017.049-.033.083-.05 6.361-2.402 12.922-4.009 19.499-4.838 24.52 0 56.097 18.373 64.347 32.886.017.05.05.083.083.133-43.472 3.661-92.942 12.558-134.294 23.111l-.182-.729c5.335-12.972 12.674-23.575 21.289-31.941a5.09 5.09 0 0 1 .298.314z" class="G"/><path d="M223.756 368.205l1.11-.066c-1.044.994-2.005 1.706-2.601 1.855-.05-.894.348-1.756 1.491-1.789z" class="D"/><path d="M224.651 445.193c-.232 16.252-1.326 39.811-4.076 60.702-.795-2.32-4.953-4.076-9.94-4.076-5.583 0-10.106 2.187-10.106 4.888s4.523 4.887 10.106 4.887c4.523 0 8.35-1.441 9.642-3.446-1.408 10.272-3.231 19.798-5.567 27.352-7.703 1.823-12.309 1.508-22.647.415-1.342-18.042-.845-48.062-5.318-50.381-1.508-.779-3.247-1.259-5.07-1.491h-.016c-5.053-.729-10.686.215-13.502 1.06-2.535.099-10.289 0-10.289 2.203.083 10.835 1.16 33.499-1.209 49.122-7.985.597-12.69.066-23.426-3.264-2.866-12.392-7.041-34.078-15.209-72.696-1.358-6.428-2.12-16.733-1.01-24.271 1.126.613 2.319 1.126 3.562 1.574 11.945 4.357 28.628 1.872 33.946-3.711h.016c10.471.927 35.057 2.253 39.762 4.324 5.053 2.236 3.562 6.809 30.351 6.809zm-68.87 63.369c0-2.7-4.357-4.887-9.708-4.887s-9.709 2.187-9.709 4.887 4.341 4.887 9.709 4.887 9.708-2.186 9.708-4.887z" class="J"/><path d="M222.63 371.419c2.087 4.937-6.66 9.145-16.269 12.459-.315.033-.63.033-.961.049-3.761-4.97-9.526-8.432-16.435-11.58.795-1.027 1.64-2.021 2.469-2.916h.016c2.618-2.85 5.235-4.937 7.737-5.914h.033a6.37 6.37 0 0 1 .895-.315c.199-.05.381-.116.58-.149l.397-.1c1.856-.447 3.711-.53 5.534-.364 1.424.116 2.833.414 4.191.861h.033l.149.05.464.149c.53.182 1.061.398 1.591.613 3.148 1.392 6.063 3.479 8.548 6.047.348.348.68.712 1.011 1.093l.017.017z" class="K"/><path d="M221.95 355.117c.564.05 1.408-.215 2.452-.729-1.905 1.027-4.357 3.297-5.368 2.667-.96-.579.647-3.031.647-4.837h.016a5.43 5.43 0 0 0 .199 1.077v.033h.016c.266.977.829 1.706 2.038 1.789z" class="D"/><path d="M220.575 505.895a2.26 2.26 0 0 1 .149.812c0 .497-.165.994-.447 1.441l.298-2.253z" class="I"/><path d="M229.174 276.456c-8.665 10.52-21.422 20.262-32.422 24.983 0 0-.011.006-.034.017-2.435.58-4.903 1.093-7.405 1.524-6.378 1.127-12.873 1.723-19.334 1.756-3.943-8.764-8.781-19.599-12.707-20.079 0 0 0-.033-.017-.05l.895-2.932c3.645.712 7.638.961 11.166.613 4.838-.481 9.676-2.204 13.735-4.506 3.33-1.906 6.129-4.192 7.968-6.528 10.653-.712 24.072 1.209 38.155 5.202z" class="C"/><path d="M220.575 505.895l-.298 2.253c-1.292 2.004-5.119 3.446-9.642 3.446-5.583 0-10.106-2.187-10.106-4.888s4.523-4.887 10.106-4.887c4.987 0 9.145 1.756 9.94 4.076z" class="I"/><path d="M224.883 226.986c-4.192-1.805-9.377-2.087-14.447-.845h-.016c-3.943-4.241-8.914-6.428-12.459-3.528 2.899-4.092 6.345-7.224 9.874-8.069 5.765-1.375 13.254 4.822 17.048 12.442z" class="M"/><path d="M223.077 533.164c-2.071 8.698-4.39 14.513-6.942 15.623-4.556 2.005-8.35 3.33-12.21 3.231 4.44-1.226 7.986-7.439 10.785-16.518 2.403-.546 5.103-1.325 8.367-2.336z" class="E"/><path d="M214.777 350.926l-.265.497-.63 1.424-4.39-.248h-.017l-5.417-.249h-.017c-.116 0-.215 0-.331-.016l-.597-1.624-1.176-2.833v-.033c-1.342-2.982-2.883-5.583-4.605-7.671-.713-.861-1.442-1.623-2.22-2.286l-.034-.033 4.076.215h.033c.199 1.69 1.673 3.032 3.429 3.032a3.36 3.36 0 0 0 1.458-.331c1.127 4.042 6.594 9.36 9.974 7.77l.729 2.369v.017z" class="J"/><path d="M213.882 352.847s-.017 0-.017.033c-1.308 3.132-2.369 7.124-2.385 10.603h-.116c-.166-.016-.331-.016-.514-.033h-.033c-1.358-.447-2.767-.745-4.191-.861-.796-3.612-1.756-7.058-2.9-10.222 0 0-.005-.011-.016-.033.116.016.215.016.331.016h.017l5.417.249h.017l4.39.248z" class="C"/><path d="M212.64 106.808l.265.083c-3.827 15.093-11.316 42.114-2.9 50.779l-14.413-8.334c5.6-10.553 11.63-25.215 17.048-42.528z" class="E"/><path d="M210.701 397.048l.033 1.094c-.397 0-.795.033-1.193.099-9.857 1.574-18.356 23.459-14.695 31.842 0 .067.033.15.067.216-3.943.646-6.76.878-7.605.994l-3.297.116-9.575.132c-6.644 0-12.707.1-18.291-.265 2.701-6.196-1.225-19.764-7.471-27.054-1.061-1.243-2.187-2.319-3.363-3.115-1.243-.861-2.535-1.441-3.861-1.656-.198-.033-.397-.05-.613-.083l.232-4.622c7.853.381 16.915.596 27.419.646 11.713 1.491 27.535 2.038 42.213 1.656z" class="G"/><path d="M210.436 226.142c7.041 7.571 10.918 21.686-1.988 25.331-7.919 1.176-15.706-.066-17.362-4.009-.1-.232-.183-.464-.232-.713l.083-.033c1.491-8.731 6.809-14.828 13.237-18.207.248.447.729.729 1.275.729a1.54 1.54 0 0 0 1.541-1.541c0-.149-.016-.298-.066-.447a25.01 25.01 0 0 1 3.496-1.11h.016z" fill="#7f4d40"/><path d="M210.42 226.142a25.01 25.01 0 0 0-3.496 1.11c-.199-.63-.779-1.077-1.475-1.077a1.52 1.52 0 0 0-1.524 1.524c0 .298.083.58.249.812-6.428 3.379-11.746 9.476-13.237 18.207l-.083.033c-1.723-5.633 1.723-16.534 7.107-24.138 3.545-2.899 8.516-.713 12.459 3.529z" fill="#6b3d34"/><path d="M206.924 227.251c.05.15.066.299.066.448a1.54 1.54 0 0 1-1.541 1.541c-.546 0-1.027-.282-1.275-.729a25.52 25.52 0 0 1 2.75-1.26z" class="H"/><path d="M206.874 318.669l-.033.133c-.812 3.048-1.673 13.32-1.259 17.08-.613-1.01-1.723-1.689-2.966-1.689-.96 0-1.839.397-2.468 1.027-.365-3.33.149-13.867 1.11-17.313l.033-.199 5.583.961z" class="J"/><path d="M206.626 362.589c-1.823-.166-3.678-.083-5.534.364l-.05-.215c-.695-2.137-2.269-11.415-9.012-20.991-3.429-4.887-10.901-6.345-16.998-6.842l-.033-.099c2.75-.696 5.583-1.011 8.3-.928.613.017 1.226.066 1.839.132 2.584.282 5.053.945 7.207 2.022.944.464 1.855 1.093 2.717 1.822h.016l.033.033c.779.663 1.508 1.425 2.22 2.286 1.723 2.088 3.264 4.689 4.606 7.671v.033c.414.911.812 1.856 1.176 2.833.216.53.415 1.077.597 1.624 0 0 .005.011.016.033 1.143 3.164 2.104 6.61 2.9 10.222z" class="L"/><path d="M205.449 226.175c.696 0 1.276.447 1.475 1.077a25.32 25.32 0 0 0-2.75 1.259c-.166-.232-.249-.514-.249-.812a1.52 1.52 0 0 1 1.524-1.524z" class="H"/><path d="M205.582 335.882c.298.531.48 1.127.48 1.773 0 1.375-.828 2.568-1.988 3.115a3.36 3.36 0 0 1-1.458.331c-1.756 0-3.23-1.342-3.429-3.032l-.033-.414c0-.928.381-1.789.994-2.419a3.44 3.44 0 0 1 2.468-1.043c1.243 0 2.353.679 2.966 1.689z" fill="#fc9"/><path d="M192.063 535.914c10.338 1.094 14.944 1.409 22.647-.414-2.799 9.079-6.345 15.292-10.785 16.518h-.016c-2.817-.05-5.699-.878-8.963-2.734-1.541-.878-2.353-6.179-2.883-13.37z" class="C"/><path d="M205.4 383.927l-5.55.216-3.496.099-2.369-2.154-2.8-2.452-4.738-3.943 1.888-2.551.63-.795c6.909 3.148 12.674 6.61 16.435 11.58z" class="K"/><path d="M201.291 317.708l-.033.199c-.961 3.446-1.475 13.983-1.11 17.313-.613.646-.994 1.507-.994 2.435a3.38 3.38 0 0 0 .033.414h-.033l-4.076-.215h-.016c-.862-.729-1.773-1.359-2.717-1.822-2.154-1.077-4.622-1.74-7.207-2.022 2.966-11.066.481-22.431-2.021-23.21a3.3 3.3 0 0 0-1.011-.166l-.182-1.441c2.319-.282 4.871-.729 7.969-1.326h.016c.415 1.74 1.044 3.546 1.856 5.617 1.011 2.535 4.954 3.446 9.526 4.224z" class="C"/><path d="M161.729 342.377l.861-.895h.017c1.358-1.342 2.899-2.501 4.572-3.495h.017c2.385-1.442 5.053-2.502 7.803-3.181l.033.099c6.097.497 13.569 1.955 16.998 6.842 6.743 9.576 8.317 18.854 9.013 20.991l.049.215-.397.1c-.199.033-.381.099-.58.149a6.37 6.37 0 0 0-.895.315h-.033c-2.502.977-5.119 3.064-7.737 5.914h-.016c-.829.895-1.674 1.889-2.469 2.916l-.63.795c-.629.812-1.259 1.657-1.888 2.551-3.927-3.098-7.836-5.914-11.547-8.084a50.46 50.46 0 0 0-2.022-1.127c-2.783-1.508-5.434-2.634-7.819-3.247-.464-.133-.895-.232-1.342-.298-.464-.083-.912-.149-1.359-.199h-.149l-.513-.05h-.083c-.547-.033-1.061-.016-1.574.033h-.017l-.215.05h-.033c-.183.017-.348.033-.53.066v-.066h-.017s-.017-.017-.017-.033l-.629-1.69c-.845-2.369-1.375-4.572-1.524-6.561-.05-.861-.05-1.689.049-2.451v-.034a5.25 5.25 0 0 1 .083-.53l.199-1.027c.746-3.081 2.27-5.782 4.357-8.068h-.016z" class="K"/><path d="M198.922 201.854c.116.862-1.127 1.988-2.85 3.015l-8.565-.099c.646-1.69 2.319-3.728 4.771-4.473 2.916-.895 6.462.215 6.644 1.557z" fill="#cc8e87"/><path d="M193.985 382.088l2.369 2.154-6.014.133-6.03.082c.082-.132.116-.248.165-.381 1.193-4.026-5.467-10.47-13.535-15.142l1.64-1.905.298-.547a50.46 50.46 0 0 1 2.022 1.127c3.711 2.17 7.62 4.986 11.547 8.084 1.59 1.276 3.181 2.585 4.738 3.943.944.795 1.872 1.624 2.8 2.452z" class="L"/><path d="M191.897 262.258c2.353 2.435 1.674 5.749-.878 8.996-1.839 2.336-4.638 4.622-7.968 6.527.463-1.921-2.336-11.514-3.96-14.297 4.755-3.065 8.863-5.285 12.806-1.226z" class="M"/><path d="M189.909 307.867h-.016l-7.969 1.326c-3.363.447-6.262.596-9.692.48l-2.236-4.904c0-.016-.017-.016-.017-.033 6.461-.033 12.956-.629 19.334-1.756v.05c0 1.656.199 3.214.596 4.837z" class="E"/><path d="M196.072 204.869c-3.098 1.823-7.753 3.281-8.681 2.121-.331-.414-.282-1.259.116-2.22l8.565.099z" fill="#eab5a7"/><path d="M183.117 310.8c2.502.778 4.987 12.143 2.021 23.21a22.73 22.73 0 0 0-1.839-.132v-.381c1.06-5.666.812-15.491-1.806-16.799-1.988-.978-4.241 1.971-6.958 2.021-4.026.083-4.291-10.487-17.263-34.062 3.927.48 8.764 11.315 12.707 20.079 0 .017.017.017.017.033l2.236 4.904c1.624 3.413 2.982 5.865 3.894 6.147 2.948.911 2.7-5.186 5.98-5.186a3.3 3.3 0 0 1 1.011.166z" class="D"/><path d="M170.94 368.934c8.068 4.672 14.728 11.117 13.535 15.142-.049.133-.082.249-.165.382l-9.891.049a929.41 929.41 0 0 1-12.127-.083c1.243-5.417 4.423-10.42 8.648-15.49z" class="K"/><path d="M181.493 316.698c2.618 1.309 2.866 11.133 1.823 16.799v.381c-2.734-.083-5.567.232-8.317.928-2.75.679-5.418 1.739-7.803 3.181h-.017c-1.673.994-3.214 2.153-4.572 3.479h-.017l-.861.911c-1.624-.53-3.248-1.806-4.755-3.413-1.11-1.193-2.154-2.551-3.049-3.893h-.016c-2.071-3.082-3.38-6.031-3.148-6.511.895-1.789 3.164-.249 5.285.513h.017c.116.034.232.083.348.1 1.557.911 3.412 2.551 4.224 1.988 1.011-.696-.381-3.744-.497-5.915h-.116c-.033-1.938-.381-4.539-.845-7.488v-.05c-.646-4.092-1.574-8.88-2.402-13.502v-.033c-1.69-9.344-2.982-18.075-.828-19.268a2.08 2.08 0 0 1 1.325-.248c12.972 23.575 13.237 34.145 17.263 34.062 2.717-.05 4.97-2.999 6.958-2.021zm-5.566 15.507c-.249-2.883-.829-5.252-1.591-5.269-.596-.016-1.259 1.193-1.723 2.982-2.087-3.562-5.666-7.935-7.14-7.256-1.723.795 1.822 9.675 2.932 11.348 1.143 1.74 5.003 1.375 5.666 0 .083-.165.083-.43.017-.778.927.066 1.839-.298 1.839-1.027z" class="P"/><path d="M179.091 263.484c1.624 2.783 4.423 12.376 3.96 14.297-4.059 2.303-8.897 4.026-13.735 4.507.464-1.906-.596-10.023-2.203-12.807 4.49-.944 8.416-3.711 11.978-5.997z" class="M"/><path d="M181.924 309.193l.182 1.441c-3.28 0-3.032 6.097-5.981 5.186-.911-.282-2.269-2.734-3.893-6.147 3.43.116 6.329-.033 9.692-.48z" class="C"/><path d="M174.336 326.936c.762.017 1.342 2.386 1.591 5.269 0 .729-.911 1.093-1.839 1.027-.166-.779-.713-1.988-1.475-3.297.464-1.806 1.127-3.015 1.723-2.999z" class="D"/><path d="M149.916 245.409c.315-3.479 30.384-6.958 30.418-3.38 0 2.8-9.228 7.224-16.584 7.224-6.163 0-14.066-1.243-13.834-3.844z" class="E"/><path d="M174.088 333.232c.066.348.066.613-.017.778-.663 1.375-4.523 1.74-5.666 0-1.11-1.673-4.655-10.553-2.932-11.348 1.474-.679 5.053 3.694 7.14 7.256-.116.431-.199.862-.281 1.326-.299 1.275.729 1.905 1.756 1.988z" class="D"/><path d="M172.878 366.482l-.298.547-1.64 1.905c-.033-.017-.05-.033-.083-.05-4.688-2.717-9.841-4.804-14.198-5.467.828-.265 1.69-.447 2.585-.58.182-.033.347-.049.53-.066h.033l.215-.05h.017c.513-.049 1.027-.066 1.574-.033h.082l.514.05h.149c.447.05.895.116 1.359.199.447.066.878.165 1.342.298 2.385.613 5.036 1.739 7.819 3.247z" class="L"/><path d="M172.613 329.935c.762 1.309 1.309 2.518 1.475 3.297-1.027-.083-2.055-.713-1.756-1.988l.281-1.309z" class="D"/><path d="M170.857 368.884l.083.05c-4.225 5.069-7.406 10.073-8.648 15.49l-3.695-.05-17.61-.546c.927-5.451 3.396-10.885 7.14-14.894.497-.53 1.011-1.044 1.557-1.524 1.839-1.624 3.927-2.9 6.23-3.728 0 0 .011-.005.033-.016.199-.083.397-.15.596-.216.017 0 .033-.016.05-.016s.05-.017.066-.017c4.357.663 9.51 2.75 14.198 5.467z" class="K"/><path d="M170.708 254.322c.961 2.419-1.839 5.153-6.213 5.434-.43.034-.845 0-1.275-.082 4.125-.183 4.622-4.838 3.893-6.23 1.839-.016 3.33.232 3.595.878z" class="N"/><path d="M167.113 269.481c1.607 2.783 2.667 10.901 2.203 12.807-3.528.348-7.521.099-11.166-.613a36.85 36.85 0 0 1-2.883-.68c.464-1.905.729-8.946-.878-11.746 2.999.1 6.478.663 10.024.564.927-.034 1.822-.15 2.7-.332z" class="H"/><path d="M167.113 253.444c.729 1.392.232 6.047-3.893 6.23-2.966-.547-5.666-3.397-4.739-4.54.647-.778 5.252-1.657 8.632-1.69z" class="O"/><path d="M168.157 485.103c-1.309.381-2.187 2.319-2.784 5.302-1.955 9.758-.729 30.781-.96 45.278l-7.754.745c2.369-15.623 1.292-38.287 1.209-49.122 0-2.203 7.754-2.104 10.289-2.203z" class="I"/><path d="M164.412 535.683c-.115 8.084-.695 14.131-2.518 15.109-4.589 2.485-9.327 2.733-13.535 2.005 4.456-.779 6.942-7.423 8.3-16.369 2.253-.166 4.771-.431 7.753-.745z" class="E"/><path d="M160.138 325.246c.116 2.171 1.508 5.219.497 5.915-.812.563-2.667-1.077-4.224-1.988 1.275.397 2.452.414 3.214-.862.331-.563.447-1.623.397-3.065h.116z" class="D"/><path d="M160.022 325.246c.05 1.442-.066 2.502-.397 3.065-.762 1.276-1.939 1.259-3.214.862l-.365-.199c-.166-3.926-.58-8.234-1.126-10.222 1.59-.282 3.048-.596 4.257-1.044v.05c.464 2.949.812 5.55.845 7.488zm-3.363 38.171s-.05.017-.066.017-.033.016-.05.016l-.596.216-.033.016c-2.303.828-4.391 2.104-6.23 3.728-.596-1.458-1.441-2.933-2.385-4.341 0-.016-.017-.016-.017-.033l5.898-.166 1.773-.049 4.241-.083c0 .016.016.016.016.033h.017v.066a16.32 16.32 0 0 0-2.584.58h.016z" class="C"/><path d="M158.564 361.048l.63 1.69-4.241.083-1.773.049-5.898.166c-3.148-4.605-7.588-8.433-9.294-8.433l-.116-1.921.895-.05c.265-.017.53-.033.795-.033l4.788-.215 9.741-.315 2.999-.067v.034c-.1.762-.1 1.59-.05 2.452.149 1.988.679 4.191 1.524 6.56z" class="G"/><path d="M161.729 342.377c-2.088 2.286-3.612 4.986-4.357 8.068l-.199 1.027-.083.53-2.999.067-9.741.314v-.132l-.298-3.032c3.346-1.243 7.14-4.755 7.952-7.638.464.232.994.365 1.557.365 1.74 0 3.181-1.292 3.413-2.982 1.508 1.607 3.131 2.883 4.755 3.413z" class="J"/><path d="M148.674 404.222c6.246 7.289 10.172 20.858 7.472 27.054-.017.033-.017.083-.034.116 0 .017 0 .033-.016.05-.249.928-.779 1.806-1.558 2.617h-.016c-5.318 5.584-22.001 8.069-33.946 3.711 16.832.663 27.65-3.744 28.263-17.627 2.254-4.191 1.144-10.288-.381-15.722l.216-.199z" class="E"/><path d="M156.046 328.974v.099c-2.121-.762-4.39-2.303-5.285-.513-.232.48 1.077 3.429 3.148 6.511-.116-.017-.232-.017-.348-.017a3.47 3.47 0 0 0-2.966 1.673c.415-3.76-.447-14.032-1.275-17.064l5.6-.911c.546 1.988.96 6.295 1.126 10.222z" class="J"/><path d="M154.389 269.249c1.607 2.8 1.342 9.841.878 11.746-6.51-1.822-11.05-5.202-8.233-9.228 1.573-2.253 4.191-2.65 7.355-2.518z" class="H"/><path d="M152.004 341.582c-1.11-.564-1.889-1.74-1.889-3.082a3.55 3.55 0 0 1 .48-1.773 3.47 3.47 0 0 1 2.966-1.673l.348.017h.016c.895 1.342 1.939 2.7 3.049 3.893-.232 1.69-1.673 2.982-3.413 2.982-.563 0-1.093-.132-1.557-.364z" fill="#fc9"/><path d="M146.073 513.449c5.361 0 9.708-2.188 9.708-4.887s-4.347-4.887-9.708-4.887-9.709 2.188-9.709 4.887 4.347 4.887 9.709 4.887z" class="I"/><path d="M133.233 533.164c10.736 3.33 15.441 3.86 23.426 3.264-1.358 8.946-3.843 15.59-8.3 16.368-2.667-.447-5.136-1.292-7.207-2.22-3.313-1.474-4.87-4.208-7.919-17.412zm16.087-213.501c.828 3.032 1.69 13.304 1.275 17.064a3.55 3.55 0 0 0-.48 1.773c0 1.342.779 2.518 1.889 3.082-.812 2.882-4.606 6.395-7.953 7.637l-1.192-10.603c-.381 2.899-1.442 6.892-2.469 10.785l-.828 3.198a12.49 12.49 0 0 0-.796.033l-.894.05c-8.615.48-15.656 1.159-21.388 1.971 1.905-4.473 15.523-26.739 21.52-31.279 2.784-2.12 7.075-3.031 11.316-3.711z" class="C"/><path d="M148.458 404.421c1.524 5.434 2.634 11.531.381 15.722.232-5.036-.878-11.315-3.528-19.036 1.176.796 2.302 1.873 3.363 3.115l-.216.199z" class="E"/><path d="M113.568 423.506c7.521-9.658 14.38-18.273 20.527-22.084 2.369-1.474 4.605-2.22 6.742-2.054.216.033.415.05.613.083 1.326.215 2.618.795 3.861 1.64 2.65 7.737 3.76 14.016 3.528 19.052-.613 13.883-11.431 18.29-28.263 17.628-1.243-.448-2.436-.961-3.562-1.574-2.088-1.143-3.943-2.535-5.434-4.241-2.883-2.867-3.728-7.754-3.744-11.531a38.7 38.7 0 0 0 5.185 2.7c.05.033.1.067.149.067l.398.314z" class="C"/><path d="M149.684 367.41c-.546.48-1.06.994-1.557 1.524h-.017s-.016-.066-.033-.099c-1.59-4.722-5.417-9.294-7.256-8.566-2.071.796-.514 4.623-2.154 6.776-2.187 2.867-14.562-4.191-35.321-9.575-2.303-.597-4.705-1.177-7.223-1.707 2.071-.116 5.235.381 8.929 1.193h.017s.05.017.083.017l2.601.596c2.982.696 6.163 1.541 9.311 2.353 4.837 1.275 9.575 2.518 13.22 3.214h.017c1.441.281 2.7.48 3.744.563h.066a2.49 2.49 0 0 0 .182.016c.978.067 1.74.034 2.254-.149.049-.016.082-.016.116-.049.033 0 .066-.017.099-.034 3.661-1.805-2.17-7.571.911-8.83.083-.033.199-.049.315-.049 1.706 0 6.146 3.827 9.294 8.432 0 .017.017.017.017.033.944 1.409 1.789 2.883 2.385 4.341z" class="D"/><path d="M148.11 368.918h.017c-3.744 4.025-6.213 9.459-7.14 14.91l-4.639-.249c-6.395-.397-11.879-.878-16.601-1.474.912-.431 1.889-.746 2.568-1.209 1.79-.514 4.656-.431 4.705-1.392.083-1.243-6.096-2.551-7.869-3.811l-.033.067c-2.701-1.624-6.461-3.595-10.288-5.683a155.86 155.86 0 0 1-3.993-2.253c-.017 0-.017-.016-.033-.016-1.938-1.127-3.794-2.254-5.418-3.364-1.574-1.076-2.932-2.12-3.959-3.131l-.05-.05c-1.74-1.722-2.485-3.313-1.624-4.638.348-.53 1.176-.796 2.369-.862 2.518.53 4.92 1.11 7.223 1.707 20.759 5.384 33.134 12.442 35.321 9.575 1.64-2.153.083-5.98 2.154-6.776 1.839-.729 5.666 3.844 7.256 8.566.017.033.017.049.033.083zm-8.151 9.907c2.088.066 4.026-3.281 3.281-4.623-.895-1.623-13.784-1.988-14.231.431-.348 1.872 8.946 4.125 10.95 4.192z" class="P"/><path d="M146.802 205.781c.281 1.822-.067 3.495-.829 4.025-1.408.994-5.301-1.093-7.819-3.545l8.648-.48z" fill="#eab5a7"/><path d="M145.211 202.086c.895 1.077 1.408 2.419 1.591 3.694l-8.648.481c-.895-.862-1.607-1.773-1.972-2.601l9.029-1.574z" fill="#cc8e87"/><path d="M144.35 352.251v.132l-4.788.216.828-3.198c.978.464 2.286.332 3.661-.182l.299 3.032z" class="I"/><path d="M142.859 338.616c.215 2.85.795 7.091 1.192 10.603-1.375.514-2.683.646-3.661.182 1.027-3.893 2.088-7.886 2.469-10.785z" class="E"/><path d="M143.24 374.202c.745 1.342-1.193 4.689-3.281 4.622-2.004-.066-11.298-2.319-10.95-4.191.447-2.419 13.336-2.054 14.231-.431z" class="D"/><path d="M142.362 151.672l-.083.05-13.817 9.277-.116-.165c4.953-4.026-4.722-30.898-6.909-80.268-.497-11.282-2.816-35.768-10.122-52.833 5.964 11.995 11.033 28.065 13.336 47.399 3.993 33.515 10.421 59.608 17.711 76.54z" class="E"/><path d="M132.504 224.187c6.113 7.554 10.355 18.837 8.449 24.37-1.524-8.996-7.206-15.076-13.949-18.257-.05-.795-.713-1.425-1.524-1.425a1.51 1.51 0 0 0-.994.381c-1.293-.447-2.618-.812-3.927-1.06 3.628-4.291 8.3-6.61 11.945-4.009z" fill="#6b3d34"/><path d="M141.069 394.746l-.232 4.622c-2.137-.166-4.373.58-6.742 2.038-6.147 3.827-13.006 12.442-20.527 22.1l-.398-.315s-.099-.033-.149-.066a38.7 38.7 0 0 1-5.185-2.7c-13.718-8.499-13.718-21.19-13.718-35.388l.083-.083c4.871 4.788 16.965 8.367 46.868 9.792zm-3.197-42.064l.116 1.921a.9.9 0 0 0-.315.05c-3.081 1.259 2.75 7.025-.911 8.83-.033 0-.066.034-.099.034l-2.552.182h-.066c-1.044-.083-2.303-.282-3.744-.563h-.017c-3.645-.696-8.383-1.939-13.22-3.215l-9.311-2.352-2.601-.596c-.033 0-.05-.017-.083-.017 1.209-.331 2.485-.663 3.91-.961 2.22-.48 4.705-.928 7.505-1.342 5.732-.812 12.773-1.491 21.388-1.971z" class="G"/><path d="M136.182 203.66c.365.828 1.077 1.739 1.972 2.601-10.156.63-19.599 1.375-27.668 2.154l25.696-4.755z" class="E"/><path d="M132.504 224.187c-3.645-2.601-8.317-.282-11.945 4.009-4.904-.978-9.874-.597-13.883 1.16l-.282-.133c3.463-7.389 10.156-13.403 15.739-12.442 3.562.613 7.223 3.512 10.371 7.406z" class="M"/><path d="M128.346 160.834l.116.165-3.927 2.602c-6.494-10.587-15.44-29.092-13.949-54.97.894-15.209.812-28.711-.149-41.435 0-.033-.017-.083-.017-.116-.663-8.764-1.723-17.164-3.181-25.513h-.016c-.845-8.449-10.653-34.095-23.824-37.028 1.309-.696 2.585-1.093 3.811-1.143 6.71-.298 16.17 8.416 24.072 24.271 0 .016.016.033.033.066 7.306 17.064 9.625 41.551 10.122 52.833 2.187 49.37 11.862 76.242 6.909 80.268z" class="C"/><path d="M140.953 248.557c-1.408 4.042-9.095 5.765-17.064 5.119-.016 0-.033 0-.049-.016-13.238-2.883-10.024-17.545-3.281-25.464a28.27 28.27 0 0 1 3.927 1.06c-.332.282-.53.696-.53 1.16 0 .845.679 1.541 1.524 1.541a1.55 1.55 0 0 0 1.54-1.541c0-.033 0-.083-.016-.116 6.743 3.181 12.425 9.261 13.949 18.257z" fill="#7f4d40"/><path d="M119.151 375.693c1.773 1.259 7.952 2.568 7.869 3.811-.049.961-2.915.878-4.705 1.391.63-.447.994-.994.796-1.872-.183-.762-1.707-1.872-3.993-3.263l.033-.067z" class="D"/><g class="H"><path d="M127.004 230.3a.97.97 0 0 0 .016.116 1.55 1.55 0 0 1-1.54 1.541c-.845 0-1.524-.696-1.524-1.541 0-.464.198-.878.53-1.16l2.518 1.044z"/><path d="M125.48 228.875c.811 0 1.474.63 1.524 1.425l-2.518-1.044a1.51 1.51 0 0 1 .994-.381z"/></g><path d="M122.315 380.895c-.679.464-1.656.779-2.567 1.21-15.309-1.872-22.499-4.788-25.878-8.367-.05-.066-.099-.116-.133-.165.033-.05.083-.1.133-.166 1.723-1.806 4.407-3.462 8.615-4.887.728-.249 1.491-.481 2.319-.713.016 0 .016.017.033.017l3.993 2.253 10.288 5.683c2.286 1.391 3.81 2.501 3.993 3.263.198.878-.166 1.425-.796 1.872z" class="C"/><path d="M106.676 229.356c4.009-1.757 8.979-2.138 13.883-1.16-6.743 7.919-9.957 22.581 3.281 25.464-8.019-.663-16.286-3.761-18.721-9.344-1.939-4.49-1.077-10.106 1.275-15.093l.282.133z" class="H"/><path d="M107.587 261.943c5.07 0 9.195 2.187 9.195 4.888s-4.125 4.87-9.195 4.87-9.195-2.17-9.195-4.87 4.109-4.888 9.195-4.888z" fill="#e08f82"/><path d="M124.535 163.601c-2.949 1.921-6.345 4.059-11.133 7.008-.083-.1-.182-.199-.298-.315 2.17-4.341-3.33-22.664-4.854-27.999-5.086-17.909 3.23-52.932 2.187-75.099.961 12.724 1.043 26.226.149 41.435-1.491 25.878 7.455 44.383 13.949 54.97z" class="N"/><path d="M108.25 142.295c1.524 5.335 7.024 23.658 4.854 27.999-11.962-12.707-35.752-32.389-47.962-63.071C48.078 64.297 67.809 12.806 83.399 4.539c13.171 2.932 22.979 28.578 23.824 37.028h.016c1.458 8.35 2.518 16.749 3.181 25.514 0 .033.017.083.017.116 1.043 22.167-7.273 57.19-2.187 75.099z" class="O"/><path d="M91.186 368.387h-.033c.232-1.54.729-3.031 1.673-4.44.629-.927 1.458-1.822 2.551-2.684l.05.05c1.027 1.011 2.386 2.054 3.96 3.131l5.418 3.363-2.32.713c-4.208 1.425-6.891 3.081-8.614 4.887l-.133.166c-1.474-1.624-2.187-3.347-2.551-5.186z" class="G"/><path d="M95.245 211.447c-4.192 12.707-6.627 25.977-8.168 38.187a41.4 41.4 0 0 0-.298 6.66h-.033c-44.135-1.342-83.747-6.229-84.393-13.95-.05-.629.149-1.292.63-1.988h.017c5.285-7.919 43.605-18.87 92.246-28.909z" class="C"/><g stroke="#3f2a25" class="B"><path d="M234.309 434.407c1.077 6.511-.049 17.313-.762 24.155-4.141 39.331-9.609 86.663-17.428 90.093-7.903 3.479-13.469 4.887-21.19.497-5.401-3.098-1.938-60.504-8.2-63.751-1.508-.778-3.248-1.259-5.07-1.491h-.017c-5.053-.729-10.685.216-13.502 1.06-1.309.382-2.187 2.32-2.783 5.302-3.032 15.192 1.623 57.637-3.479 60.387-7.505 4.059-15.408 2.171-20.742-.215-6.428-2.866-6.246-10.421-23.128-90.109-1.359-6.428-2.121-16.932-1.011-24.47m39.082-5.003c5.583.365 11.697.547 18.34.547l9.576-.133c3.993-.116 7.753-.298 11.299-.563m62.673-56.974c0 11.911 0 21.57-83.548 21.57s-83.548-9.659-83.548-21.57m142.246-184.177c8.83 15.059 14.065 32.803 17.014 49.519.447 2.501.828 4.97 1.176 7.405 1.773 12.525-3.23 23.741-12.359 32.903-15.424 15.507-42.677 25.132-69.052 25.231m-13.171-.563c-37.872-3.33-73.806-21.537-69.648-54.539 1.541-12.21 3.976-25.48 8.168-38.187m100.33-62.127c8.93-16.849 18.986-44.201 25.895-76.044 9.609-44.251 32.389-69.499 44.085-67.859 15.689 2.22 34.94 60.884 12.094 105.467-14.032 27.385-37.425 44.367-51.209 55.864 0 .017-.05.034-.066.067m-12.277-6.776l1.326-1.889c7.24-10.702 16.02-27.733 16.849-50.182.96-25.762 4.208-46.355 9.725-66.451M142.345 151.54c-7.289-16.932-13.718-43.025-17.71-76.54-5.368-44.947-25.646-72.266-37.442-71.736-15.822.712-40.573 57.289-22.067 103.826 12.21 30.682 36.001 50.364 47.962 63.071.116.116.216.216.299.315m-6.164-129.042c3.562 20.527 4.854 41.335 3.346 67.064-1.491 25.878 7.455 44.384 13.95 54.97" class="F"/><path d="M191.086 247.348c-3.43-8.168 6.378-30.434 16.733-32.919 9.227-2.22 22.846 14.96 18.737 26.391s-32.157 14.447-35.47 6.528z"/><path d="M197.944 222.48c9.874-8.051 30.65 23.161 10.487 28.877" class="F"/><path d="M140.937 248.441c2.899-8.383-8.317-29.97-18.804-31.792-9.344-1.624-21.835 16.385-17.014 27.534s33.018 12.36 35.818 4.242v.016z"/><path d="M132.488 224.054c-10.371-7.405-29.109 25.083-8.615 29.49m21.322-51.59c2.186 2.601 2.054 6.809.762 7.72-1.905 1.342-8.383-2.966-9.791-6.146" class="F"/><path d="M187.391 206.858c-.894-1.127 1.027-5.517 4.888-6.694 2.932-.894 6.477.232 6.643 1.574.315 2.419-10.089 6.925-11.531 5.12zm-22.912 52.766c4.374-.265 7.173-3.015 6.212-5.434-.728-1.839-11.215-.414-12.21.812-1.076 1.309 2.618 4.837 5.998 4.622z"/><g class="F"><path d="M164.396 269.68c.497-3.678.563-8.681.182-10.039M87.69 244.912c-20.808-8.399-48.227-9.741-67.08-5.086m13.701 30.384c18.555-6.544 37.359-9.741 53.114-8.449m164.081-18.837c20.808-8.399 47.316-9.675 66.153-5.02m-13.685 30.385c-18.555-6.544-37.359-9.742-53.114-8.45m-134.376 94.698c1.905-4.489 15.507-26.739 21.504-31.278 2.8-2.104 7.107-3.032 11.332-3.728l5.6-.895c1.573-.281 2.998-.596 4.208-1.027m22.531 166.301h-.017m7.671-180.996c0 3.429.878 6.461 2.452 10.454 2.104 5.351 17.429 3.462 23.857 8.383 5.102 3.893 12.988 18.671 16.882 27.385m-120.908 76.74l1.558-1.989c7.67-9.857 14.662-18.72 20.924-22.597 2.584-1.607 5.036-2.369 7.356-1.988 9.857 1.574 18.356 23.442 14.695 31.842-.017.033-.017.083-.033.116 0 0 0 .033-.017.05-2.137 8.001-25.613 12.011-39.082 4.754-2.087-1.126-3.943-2.534-5.434-4.241m.033-6.677s-.016.033-.033.05"/><path d="M148.442 404.305c1.822 6.528 3.065 13.999-1.392 17.976m-12.972-20.411c.895 8.3.199 13.485-2.783 18.687m-37.194-35.652c0 14.198 0 26.888 13.718 35.387 1.541.961 3.264 1.872 5.186 2.701.049.033.099.066.149.066m124.784-1.06l.149-.067c1.888-.96 3.562-1.988 5.053-3.081 11.58-8.449 11.58-20.527 11.58-33.946m-97.614-33.035l-3.015.066-14.529.547-.812.033c-9.013.48-16.335 1.16-22.266 2.021-2.8.398-5.285.845-7.505 1.326-1.541.331-2.949.695-4.241 1.06m-13.85 16.352v-.663l.016-1.723c.083-2.518.431-4.904 1.922-7.074.613-.895 1.425-1.756 2.469-2.585m130.416-7.538l-5.881-.53m25.198 4.009l1.409.464c11.53 3.943 11.53 9.493 11.53 15.64m-54.323-21.057l.397.016 9.874.514m-2.452 10.62h-.116l-1.126-.067h-.033M248.01 369c.116.034.216.083.315.116 3.115 1.26 5.219 2.651 6.644 4.159a1.19 1.19 0 0 1 .132.165m-95.973-10.835h-.017l-2.071.05-2.104.05-1.756.033-6.03.182m-53.429 10.537l.149-.166c1.706-1.822 4.407-3.462 8.614-4.887l2.121-.663h.017m28.528-4.108l3.827-.249"/><path d="M107.819 420.292c0 3.778.862 8.251 3.744 11.117m127.617-7.753c.05.082.1.149.166.231m.033.845s-.017 0-.033-.049l-1.408-1.79c-10.902-13.999-20.395-26.043-28.413-24.768-9.858 1.574-18.356 23.443-14.695 31.842.099.431.248.812.464 1.21 4.44 8.466 33.449 11.63 44.085-.53"/><path d="M202.517 403.178c-1.822 6.528-3.065 14 1.392 17.976m12.972-20.394c-.895 8.3-.199 13.469 2.783 18.671m23.476-.58c0 3.811-.829 8.383-3.761 11.299m-99.834-77.684c1.21-4.788 2.8-10.288 3.297-13.982m71.951 12.409c-1.176-3.811-2.153-7.605-3.694-11.415"/></g><path d="M191.897 262.126c-7.471-7.688-15.556 7.19-27.484 7.554-7.273.232-14.314-2.435-17.379 1.972-4.689 6.709 11.05 11.63 22.282 10.52 14.298-1.408 28.711-13.718 22.581-20.03v-.016z"/><g class="F"><path d="M167.096 269.349c1.624 2.783 2.668 10.901 2.22 12.806m9.758-18.803c1.624 2.783 4.424 12.392 3.977 14.297m-28.678-8.532c1.623 2.783 1.342 9.857.894 11.763m35.736-9.758c24.536-1.624 63.767 10.702 91.798 30.003"/><path d="M252.6 284.872c-1.309 4.904.762 11.017 1.457 11.067 1.243.1 2.37-5.55 3.678-5.401 1.359.149 1.077 6.279 3.032 6.693 1.541.332 2.817-3.28 4.324-3.031 2.568.43 2.336 11.597 3.678 11.663 1.093.066 1.657-7.406 3.463-7.571 2.534-.216 4.903 14.43 7.786 14.264 1.972-.116.166-7.174 2.32-7.406 3.197-.347 7.306 14.447 11.298 13.701 2.635-.48-6.345-12.657-4.556-16.451.862-1.822 10.371-2.965 10.371-3.893 0-1.425-17.892-2.104-17.942-3.678-.033-1.209 11.514-1.789 10.587-3.032-1.591-2.137-20.262.116-20.527-1.938-.199-1.491 11.232-3.115 9.94-4.755-2.8-3.562-19.4 2.303-20.096-.215-.298-1.077 3.281-2.021 2.601-3.463-.397-.828-10.288-.546-12.988 2.784m-97.233 50.728l-.232-.016c-1.276 0-2.386.696-2.982 1.706-.298.53-.464 1.11-.464 1.74 0 1.342.779 2.518 1.889 3.098.464.232.994.364 1.557.364 1.69 0 3.082-1.209 3.396-2.833m-7.637-19.466c.828 3.048 1.673 13.369 1.259 17.114"/><path d="M156.063 329.107c-.183-4.01-.597-8.45-1.143-10.471"/></g><use xlink:href="#B" x="0.017" y="0.017"/><g class="F"><path d="M206.841 318.686c-.828 3.048-1.673 13.37-1.259 17.114m-4.341-18.025c-.961 3.446-1.474 14.015-1.093 17.329m-32.654 2.733s-.017-.016-.017 0m31.677.117l-4.308-.232m9.212 2.915c1.126 4.043 6.593 9.361 9.973 7.787m-62.027-6.975c-1.127 4.043-8.234 9.41-11.614 7.836m-7.157 183.763c13.751 4.258 17.611 3.943 31.18 2.519m58.664-2.519c-13.751 4.258-17.445 4.175-31.03 2.75M86.746 256.161c-44.135-1.325-83.747-6.212-84.393-13.933-1.889-22.531 324.252-76.722 327.367-49.27 1.64 14.38-44.268 36-79.589 46.123"/><path d="M2.966 240.24c13.95-31.262 281.625-87.971 325.876-49.237M235.718 177.6a68.13 68.13 0 0 0-9.278-10.967m-30.865-17.446c-16.915-4.837-35.801-4.224-53.23 2.353-.033.016-.05.033-.083.05"/><path d="M91.799 202.103c5.335-12.972 12.674-23.575 21.288-31.942m.299.315c13.535-8.317 15.838-10.222 28.976-18.92m53.213-2.352c12.774 7.19 18.208 10.851 30.799 17.495M91.202 368.437c.348 1.856 1.077 3.595 2.535 5.202a1.02 1.02 0 0 0 .133.149c4.423 4.672 15.374 8.234 42.478 9.841 6.461.398 13.833.646 22.249.796l15.822.132 15.905-.132 9.509-.232 7.406-.282c30.98-1.425 43.041-5.152 47.73-10.139.049-.05.099-.1.132-.149 1.491-1.607 2.187-3.38 2.535-5.219"/><path d="M228.677 382.238l-.547-1.674c-1.16-3.164-2.999-6.229-5.318-8.896-.398-.464-.795-.911-1.21-1.326-2.485-2.568-5.4-4.655-8.548-6.047-.53-.215-1.061-.43-1.591-.613l-.464-.149c-1.441-.464-2.899-.795-4.39-.911"/><path d="M211.463 363.666v-.116c.017-3.479 1.077-7.489 2.386-10.636.215-.514.431-.994.646-1.458.083-.182.166-.332.265-.497 1.11-2.187 2.253-3.628 3.015-3.628.945 0 1.359.612 1.558 1.491.215.878.198 2.021.298 3.098.05.513.116.994.248 1.441h.017c.265.977.828 1.706 2.038 1.789.745.066 1.938-.414 3.462-1.275h.017l1.723-1.044.795-.514c1.375-.894 2.899-1.971 4.523-3.131 10.139-7.339 23.823-18.605 26.739-16.584 4.407 3.065-7.339 16.087-14.214 24.636-.034.033-.05.066-.083.099-2.684 3.38-4.622 6.047-4.457 7.074.547 3.314 6.892-.464 7.605 4.043.033.215 0 .464-.083.729-.166.53-.58 1.159-1.193 1.839-2.833 3.247-10.106 7.836-18.638 9.542m-22.73 3.43c-3.745-4.987-9.526-8.466-16.452-11.614m-43.869 28.877h-.017m-4.092-17.363c1.027-6.196 4.092-12.359 8.698-16.451 1.839-1.623 3.926-2.899 6.229-3.727 0 0 .011-.006.033-.017.199-.083.398-.149.597-.215.016 0 .033-.017.049-.017.845-.265 1.74-.464 2.651-.596.182-.034.348-.05.53-.067h.033l.232-.049a10.53 10.53 0 0 1 2.171.016h.149c.447.05.894.116 1.358.199.447.066.878.166 1.342.298 2.966.762 6.312 2.303 9.841 4.374 3.711 2.17 7.621 4.987 11.547 8.085 1.591 1.275 3.181 2.584 4.738 3.943.945.795 1.873 1.623 2.8 2.452l2.403 2.186"/><path d="M149.668 367.443c-.597-1.458-1.442-2.932-2.386-4.34-3.363-4.937-8.217-8.996-9.625-8.417-3.082 1.26 2.75 7.025-.912 8.831-.066.033-.132.066-.215.083-.514.182-1.276.215-2.253.149-1.094-.067-2.436-.282-3.993-.58h-.016c-3.645-.696-8.383-1.939-13.221-3.214l-9.311-2.353-2.601-.596c-5.865-1.292-10.437-1.806-11.398-.348-.878 1.342-.099 2.949 1.673 4.688 1.027 1.011 2.386 2.055 3.96 3.132 1.64 1.11 3.495 2.253 5.45 3.379l3.993 2.253c7.041 3.861 13.9 7.307 14.281 8.947.414 1.839-1.673 2.286-3.429 3.114m76.706 2.137l-.034-.033-2.369-2.153-2.799-2.452-4.739-3.943 1.889-2.552.63-.795 2.468-2.916c2.618-2.849 5.235-4.937 7.737-5.914m.033-.017h.017l.894-.298.58-.149c1.988-.53 3.976-.646 5.931-.464-.795-3.612-1.756-7.058-2.899-10.222l-.613-1.657c-.365-.977-.762-1.922-1.176-2.833v-.033c-1.342-2.982-2.883-5.583-4.606-7.67-.712-.862-1.441-1.624-2.22-2.287-.878-.745-1.806-1.375-2.767-1.855-2.153-1.077-4.622-1.74-7.206-2.021-7.804-.812-16.849 1.888-22.532 7.455h-.016c-2.519 2.468-4.374 5.484-5.219 8.979l-.199 1.027c-.033.183-.066.365-.083.564-.099.762-.099 1.59-.049 2.452.149 1.988.679 4.191 1.524 6.56.199.563.414 1.127.646 1.723h.016s0 .05.017.066"/><path d="M185.121 334.044c2.966-11.067.481-22.432-2.021-23.211-4.357-1.359-3.777 6.014-6.991 5.02-1.309-.414-3.529-5.268-6.13-11.05-4.407-9.775-9.924-22.151-14.049-19.864-2.154 1.192-.861 9.94.828 19.3l2.403 13.552c.828 5.153 1.226 9.228.447 10.553-.828 1.392-2.154 1.243-3.562.763-2.121-.763-4.407-2.303-5.301-.514-.481.961 5.384 12.044 10.984 13.8m1.971 20.577c6.329-4.689 12.558-7.704 19.516-7.406m-27.286 8.135l-.033.033m6.378 20.759c1.375-6.114 5.236-11.697 10.289-17.429"/></g></g><defs ><path id="B" d="M202.583 340.952c1.903 0 3.446-1.543 3.446-3.446s-1.543-3.446-3.446-3.446-3.446 1.543-3.446 3.446 1.543 3.446 3.446 3.446z"/></defs></svg>