<?xml version="1.0" encoding="UTF-8"?><svg xmlns="http://www.w3.org/2000/svg" viewBox="0 0 419.48 274.39"><defs><style>.e{fill:#ad7766;}.f{fill:#c47b49;}.g{fill:#c6977b;}.h{fill:#bc7171;}.i{fill:#6a964d;}.j{fill:#77b566;}.k{stroke-width:2px;}.k,.l{fill:none;stroke:#3f2a25;stroke-linecap:round;stroke-linejoin:round;}.m{fill:#e09f57;}</style></defs><g id="a"><path class="k" d="M260.38,108.32c10.72-7,29.78-23.54,33.39-21.05,4.66,3.22-7.57,16.88-14.95,26.01"/><path class="k" d="M124.22,147.92c0,32.86,0,59.86,81.52,59.86s81.51-27.42,81.52-59.87"/><path class="k" d="M124.22,147.92c-3.28-4.14-3.28-8.98-3.28-14.15"/><path class="k" d="M290.53,133.77c0,5.16,0,10-3.27,14.14"/><path class="k" d="M120.93,133.76c0-.85,0-1.7,.02-2.53,0-.32,.01-.64,.02-.95,.04-1.14,.12-2.26,.28-3.36v-.03"/><path class="k" d="M260.38,108.33c3.34-17.14,3.57-32.99-.03-36.16-1.62-1.42-10.01,3.79-20.01,11.99-4.06,3.32-8.41,7.15-12.66,11.23"/><path class="k" d="M122.92,121.21c-4.49-3.09-7.32-6.03-5.87-8.25,1.14-1.75,7.1-.84,14.4,.87"/><path class="k" d="M190.58,96.77h-.01c-2.58,2.54-4.53,5.62-5.47,9.19"/><path class="k" d="M214.65,88.8h.01c2.76,.3,5.38,1.01,7.68,2.15,1.96,.98,3.73,2.49,5.34,4.44"/><path class="k" d="M190.58,96.77c-6.78-3.36-13.58-11.92-12.65-13.8,1.57-3.18,7.26,3.49,9.47-.26,2.83-4.82-8.81-43.65-3.93-46.36,7.01-3.88,17.76,31.85,21.56,33.02,3.43,1.06,2.81-6.81,7.46-5.36,2.66,.83,5.32,12.96,2.16,24.8"/><path class="k" d="M131.45,113.83c8.69-4.15,24.59-7,53.65-7.87"/><path class="k" d="M278.82,113.28c11.72,5.04,11.72,12.18,11.72,20.08"/><path class="k" d="M122.92,121.21c-1.5,2.79-1.86,5.85-1.94,9.07-.02,.72-.03,1.46-.03,2.21v.87"/></g><g id="b"><g/><g><path class="h" d="M287.48,133.75c-1.45-1.94-3.6-3.73-6.76-5.34,.82-.99,1.22-1.84,1.12-2.45-.76-4.82-7.55-.78-8.12-4.32-.18-1.12,1.92-4.01,4.84-7.66l.24-.3c8.22,3.54,10.67,8.31,11.4,13.57h-.01c-.35,2.37-1.07,4.64-2.57,6.71-.04-.07-.09-.14-.14-.21Z"/><path class="h" d="M261.97,144.83c-.19-1.97-.68-3.97-1.4-5.94,9.11-1.83,16.88-6.73,19.91-10.18,.09-.1,.17-.2,.24-.3,3.16,1.61,5.31,3.4,6.76,5.34,.05,.07,.1,.14,.14,.21-.04,.07-.09,.13-.14,.2-3.37,4.53-10.49,8.24-25.51,10.69v-.02Z"/><path class="h" d="M260.57,138.89c-1.25-3.38-3.21-6.64-5.69-9.5-.42-.49-.84-.97-1.29-1.42-2.65-2.73-5.77-4.98-9.13-6.45-.42-.18-.84-.34-1.26-.5-.14-.06-.29-.11-.44-.16v-.02c0-2.76,.62-5.82,1.51-8.61,.52-1.61,1.12-3.13,1.74-4.44,1.27-2.61,2.61-4.39,3.5-4.39,2.01,0,1.77,2.6,1.97,4.9h.02c.15,1.75,.58,3.32,2.44,3.45,1.08,.08,3.05-.88,5.56-2.47,.28-.18,.57-.36,.85-.56,10.73-7,29.79-23.54,33.4-21.05,4.66,3.22-7.57,16.88-14.95,26.01l-.24,.3c-2.92,3.65-5.02,6.54-4.84,7.66,.57,3.54,7.36-.5,8.12,4.32,.1,.61-.3,1.46-1.12,2.45-.07,.1-.15,.2-.24,.3-3.03,3.45-10.8,8.35-19.91,10.18Z"/><path class="h" d="M249.51,103.4c-.89,0-2.23,1.78-3.5,4.39-.62,1.31-1.22,2.83-1.74,4.44l-.48-.15c-3.18-1.97-5.75-3.62-8-5.35h-.01c-1.13-.87-2.19-1.76-3.19-2.72,0,0,0-.01-.01,0,0-.01-.01-.01-.01-.03-1.43-3.18-3.08-5.96-4.92-8.19h.01c4.25-4.08,8.59-7.91,12.65-11.23,10-8.21,18.39-13.42,20.01-11.99,3.6,3.16,3.37,19.02,.03,36.15-.28,.2-.57,.38-.85,.56-2.51,1.59-4.48,2.55-5.56,2.47-1.86-.13-2.29-1.7-2.44-3.45h-.02c-.2-2.3,.04-4.9-1.97-4.9Z"/><path class="h" d="M242.76,120.86c-1.67-.59-3.4-1-5.17-1.13-1.02-4.54-2.26-8.84-3.76-12.69-.39-1.04-.81-2.05-1.25-3.03,.01-.01,.01,0,.01,0,1,.96,2.06,1.85,3.19,2.72h.01c2.25,1.73,4.82,3.38,8,5.35l.48,.15c-.89,2.79-1.51,5.85-1.51,8.61v.02Z"/><path class="h" d="M239.04,147.18c-2.39,.14-4.89,.26-7.51,.37-1.24-1.23-2.51-2.45-3.79-3.66-.23-.21-.48-.43-.71-.65-.14-.14-.29-.27-.42-.38-.83-.79-1.68-1.55-2.53-2.3-.98-.9-1.99-1.77-2.98-2.63-1.68-1.45-3.38-2.84-5.07-4.2,.67-.95,1.34-1.87,2.02-2.74,.22-.28,.43-.55,.66-.84,9.38,4.25,16.8,9.09,20.33,17.03Z"/><path class="h" d="M229.67,120.72c.31-.14,.64-.25,.95-.34,2.34-.68,4.67-.87,6.97-.65,1.77,.13,3.5,.54,5.17,1.13,.15,.05,.3,.1,.44,.16,.42,.16,.84,.32,1.26,.5,3.36,1.47,6.48,3.72,9.13,6.45,.45,.45,.87,.93,1.29,1.42,2.48,2.86,4.44,6.12,5.69,9.5,.72,1.97,1.21,3.97,1.4,5.94v.02c-6.2,1-13.75,1.79-22.93,2.33-3.53-7.94-10.95-12.78-20.33-17.03,.86-1.1,1.76-2.16,2.64-3.12h.02c2.8-3.03,5.59-5.26,8.27-6.31h.01s0-.01,.01,0h.01Z"/><path class="h" d="M229.64,120.72s0-.01,.01,0h-.01Z"/><path class="h" d="M227.74,143.89c1.28,1.21,2.55,2.43,3.79,3.66-3.06,.13-6.28,.23-9.67,.3,1.41-1.51,3.09-2.99,5.17-4.61,.23,.22,.48,.44,.71,.65Z"/><path class="h" d="M224.08,140.56c.85,.75,1.7,1.51,2.53,2.3-.83-.78-1.68-1.55-2.53-2.3Z"/><path class="h" d="M214.63,89.2c-8.34-.87-17.99,2.02-24.07,7.96h0c-6.78-3.35-13.58-11.91-12.65-13.78,1.58-3.19,7.26,3.49,9.47-.27,2.83-4.82-8.81-43.65-3.93-46.36,7.02-3.88,17.76,31.85,21.56,33.02,3.43,1.06,2.81-6.81,7.46-5.35,2.67,.83,5.33,12.95,2.16,24.78Z"/><path class="h" d="M226.61,142.86c.13,.11,.28,.24,.42,.38-2.08,1.62-3.76,3.1-5.17,4.61-5.01,.11-10.38,.17-16.15,.17s-11.08-.06-16.06-.17c.15-8.49,4.89-15.81,11.57-23.37l.32-.59c.71,.37,1.42,.77,2.15,1.2,3.96,2.32,8.14,5.32,12.34,8.64,1.69,1.36,3.39,2.75,5.07,4.2,.99,.86,2,1.73,2.98,2.63,.85,.75,1.7,1.52,2.53,2.3Z"/><path class="h" d="M187.83,119.88c1.1-.12,2.32-.06,3.61,.16h.01c.09,.01,.19,.03,.29,.05h.02c.47,.09,.95,.19,1.43,.33,2.56,.66,5.37,1.86,8.35,3.47l-.32,.59c-6.68,7.56-11.42,14.88-11.57,23.37-8.55-.19-16.04-.53-22.59-1.03,.15-7.99,3.69-16.62,9.7-21.94,1.96-1.74,4.19-3.1,6.66-3.98,.01-.02,.02-.03,.04-.03,.2-.08,.42-.15,.64-.22,0,0,.02,0,.04,0,.59-.19,1.19-.35,1.81-.47h.01c.33-.08,.67-.14,1.01-.19,.28-.04,.57-.06,.86-.1Z"/><path class="h" d="M230.62,120.38c-.31,.09-.64,.2-.95,.34h-.01s-.01,0-.01,0t-.01,0c-2.68,1.05-5.47,3.28-8.27,6.31h-.02c-.88,.96-1.78,2.02-2.64,3.12-.23,.29-.44,.56-.66,.84-.68,.87-1.35,1.79-2.02,2.74-4.2-3.32-8.38-6.32-12.34-8.64-.73-.43-1.44-.83-2.15-1.2-2.98-1.61-5.79-2.81-8.35-3.47-.48-.14-.96-.24-1.43-.33h-.02c-.1-.02-.2-.04-.29-.05h-.01c-1.29-.22-2.51-.28-3.61-.16-.29,.04-.58,.06-.86,.1-.26-.63-.51-1.27-.72-1.9-.9-2.53-1.47-4.89-1.62-7.01-.08-1.14-.04-2.23,.13-3.22,.07-.37,.14-.74,.22-1.09,.03-.13,.07-.27,.1-.4,.94-3.57,2.89-6.65,5.47-9.18h.01v-.02c6.08-5.94,15.73-8.83,24.07-7.96,2.76,.3,5.39,1.01,7.69,2.15,1.96,.98,3.73,2.49,5.33,4.44,1.84,2.23,3.49,5.01,4.92,8.19,0,.02,.01,.02,.01,.03,.44,.98,.86,1.99,1.25,3.03,1.5,3.85,2.74,8.15,3.76,12.69-2.3-.22-4.63-.03-6.97,.65Z"/><path class="h" d="M184.1,120.65c-.22,.07-.44,.14-.64,.22-.02,0-.03,.01-.04,.03-2.47,.88-4.7,2.24-6.66,3.98-.58-1.43-1.38-2.87-2.29-4.25h.01c3.58-.19,7.39-.34,11.47-.46-.62,.12-1.22,.28-1.81,.47-.02,0-.03,0-.04,0Z"/><path class="h" d="M287.24,148.69c0,32.86,0,59.93-81.52,59.93s-81.52-27.07-81.52-59.93l.16-.16c6.58,7.99,25.71,13.33,81.35,13.33s74.78-5.34,81.36-13.33l.17,.16Z"/><path class="h" d="M184.76,107.85c-.17,.99-.21,2.08-.13,3.22,.15,2.12,.72,4.48,1.62,7.01,.21,.63,.46,1.27,.72,1.9-.34,.05-.68,.11-1.01,.19h-.01c-4.08,.12-7.89,.27-11.47,.46h-.01c-3.58-5.44-9-10.01-10.54-9.38-3.29,1.35,2.94,7.5-.97,9.43-1.06,.52-3.56,.28-6.91-.37-3.9-.75-8.95-2.07-14.12-3.43-3.36-.87-6.77-1.77-9.95-2.52-.18-.04-.37-.09-.55-.13,8.69-4.15,24.59-7,53.65-7.87-.03,.13-.07,.27-.1,.4-.08,.35-.15,.72-.22,1.09Z"/><path class="h" d="M156.05,120.31c3.35,.65,5.85,.89,6.91,.37,3.91-1.93-2.32-8.08,.97-9.43,1.54-.63,6.96,3.94,10.54,9.38,.91,1.38,1.71,2.82,2.29,4.25-6.01,5.32-9.55,13.95-9.7,21.94-10.39-.77-18.45-1.91-24.68-3.35h0c0-3.75,6.74-2.92,6-6.19-.41-1.76-7.73-5.43-15.24-9.55h-.02c-.14-.08-.28-.15-.42-.23-3.42-1.89-6.85-3.88-9.66-5.79-.05-.03-.1-.07-.14-.1-4.49-3.09-7.33-6.03-5.88-8.25,1.14-1.74,7.11-.84,14.41,.87,.18,.04,.37,.09,.55,.13,3.18,.75,6.59,1.65,9.95,2.52,5.17,1.36,10.22,2.68,14.12,3.43Z"/><path class="h" d="M142.38,143.47c-10.27-2.37-15.63-5.55-18.42-9.29-.05-.07-.1-.13-.14-.2,.04-.07,.09-.14,.14-.21,1.74-2.33,4.47-4.45,8.74-6.27,.14,.08,.28,.15,.42,.23h.02c7.51,4.12,14.83,7.79,15.24,9.55,.74,3.27-6,2.44-6,6.18h0Z"/><path class="h" d="M123.82,133.98c-1.5-2.08-2.22-4.31-2.58-6.66h-.01c-.12,.83-.2,1.66-.24,2.51,.12-2.91,.54-5.68,1.91-8.22,.04,.03,.09,.07,.14,.1,2.81,1.91,6.24,3.9,9.66,5.79-4.27,1.82-7,3.94-8.74,6.27-.05,.07-.1,.14-.14,.21Z"/><path class="h" d="M287.07,148.53c-6.58,7.99-25.71,13.33-81.36,13.33s-74.77-5.34-81.35-13.33c-3.44-4.19-3.44-9.11-3.44-14.36h-.01c0-.86,0-1.71,.02-2.54,0-.32,0-.64,.02-.95,.01-.24,.02-.49,.03-.73,.01-.04,.01-.08,.01-.12,.04-.85,.12-1.68,.24-2.51h.01c.36,2.35,1.08,4.58,2.58,6.66,.04,.07,.09,.13,.14,.2,2.79,3.74,8.15,6.92,18.42,9.29,6.23,1.44,14.29,2.58,24.68,3.35,6.55,.5,14.04,.84,22.59,1.03,4.98,.11,10.33,.17,16.06,.17s11.14-.06,16.15-.17c3.39-.07,6.61-.17,9.67-.3,2.62-.11,5.12-.23,7.51-.37,9.18-.54,16.73-1.33,22.93-2.33,15.02-2.45,22.14-6.16,25.51-10.69,.05-.07,.1-.13,.14-.2,1.5-2.07,2.22-4.34,2.57-6.71h.01c.31,2.24,.31,4.56,.31,6.92,0,5.25,0,10.17-3.44,14.36Z"/></g></g><g id="c"><g><path class="e" d="M290.52,134v.11c0,5.26,0,10.17-3.44,14.36-2.68,3.26-7.44,6.07-15.91,8.26,2.8-2.59,2.36-10.53,.08-13.64l-.05-.2c8.77-2.27,13.56-5.22,16.18-8.63,.04-.05,.07-.1,.11-.15,1.59-2.14,2.35-4.46,2.71-6.91h.01c.31,2.18,.31,4.45,.31,6.8Z"/><path class="f" d="M280.73,129.05c3.09,1.57,5.2,3.32,6.65,5.21-2.62,3.41-7.41,6.36-16.18,8.63-2.68,.7-5.73,1.33-9.21,1.89-.19-1.98-.68-3.98-1.41-5.95,8.95-1.79,16.6-6.54,19.73-9.99,.15,.07,.28,.14,.42,.21Z"/><path class="e" d="M290.2,127.2c-.36,2.45-1.12,4.77-2.71,6.91-.04,.05-.07,.1-.11,.15-1.45-1.89-3.56-3.64-6.65-5.21-.14-.07-.27-.14-.42-.21,.07-.07,.13-.13,.18-.19,.98-1.11,1.47-2.08,1.36-2.75-.76-4.81-7.55-.77-8.12-4.31-.18-1.13,1.92-4.01,4.84-7.66,.02-.03,.04-.05,.07-.08,.06,.02,.11,.05,.17,.07,8.23,3.55,10.68,8.13,11.4,13.28h-.01Z"/><path class="i" d="M260.58,138.83c-.29-.77-.61-1.53-.97-2.28h.01c5.99-1.44,14.18-5.61,14.33-8.74,.03-.61-.21-1.12-.6-1.59-1.1-1.36-3.46-2.38-4.37-4.35-1.03-2.22,1.52-3.81,7.15-9,4.24-3.91,10.22-9.87,17.74-19.7-2.59,5.76-10.14,14.36-15.23,20.68-.03,.03-.05,.05-.07,.08-2.92,3.65-5.02,6.53-4.84,7.66,.57,3.54,7.36-.5,8.12,4.31,.11,.67-.38,1.64-1.36,2.75-.05,.06-.11,.12-.18,.19-3.13,3.45-10.78,8.2-19.73,9.99Z"/><path class="g" d="M274.59,160.96c-.69,6.71-2.55,16.53-7.45,23.54-14.9,21.31-44.21,22.82-46.59,23.3h-.02c-4.61,.22-9.53,.33-14.8,.33-81.52,0-81.52-26.64-81.52-59.49l.17-.15c5.03,6.08,17.34,10.62,47.49,12.44h.01c8.26,.5,17.86,.79,29.01,.86v.11c21.12,3.53,55.84,3.14,73.7-.94Z"/><path class="i" d="M261.08,127.74c.19,.79-2.07,2.04-4.96,3.1-.39-.52-.8-1.02-1.22-1.51-.15-.17-.29-.33-.43-.49,.64-.06,1.75-.87,2.97-2.03,2.02-.05,3.48,.3,3.64,.93Z"/><path class="i" d="M256.08,126.88c.48-.05,.93-.07,1.36-.07-1.22,1.16-2.33,1.97-2.97,2.03h0c-.05-.97,.38-1.91,1.61-1.96Z"/><path class="f" d="M236.58,142.85c9.89-3.37,19.15-7.61,18.33-12.6,.29,.46,.71,.73,1.18,.6,.01,0,.02-.01,.03-.01,1.38,1.79,2.56,3.72,3.49,5.71,.36,.75,.68,1.51,.97,2.28,.73,1.97,1.22,3.97,1.41,5.95-6.2,1.01-13.75,1.8-22.94,2.34-.68-1.53-1.51-2.95-2.47-4.27Z"/><path class="g" d="M254.47,128.84c.14,.16,.28,.32,.43,.49,.42,.49,.83,.99,1.22,1.51-.01,0-.02,.01-.03,.01-.47,.13-.89-.14-1.18-.6-.25-.38-.42-.9-.44-1.41Z"/><path class="i" d="M254.47,128.83c-.3-.32-.57-.61-.87-.91-.56-.58-1.15-1.15-1.76-1.68-.34-.93-.34-1.93,.28-2.64,.22-.25,.61-.61,1.11-1.04,2.69-2.3,8.68-6.47,9.78-5.16,.79,.94-.64,3.58-2.59,6.08-.93,1.21-1.99,2.39-2.98,3.33-.43,0-.88,.02-1.36,.07-1.23,.05-1.66,.99-1.61,1.95Z"/><path class="g" d="M253.6,127.92c.3,.3,.57,.59,.87,.91h0c-.07,.02-.14,.02-.2,.01-.92-.18-1.98-1.33-2.43-2.6,.61,.53,1.2,1.1,1.76,1.68Z"/><path class="i" d="M250.78,113.52c-1.02-.63,.63-3.25,.63-5.17h.11c.16,1.71,.61,3.21,2.44,3.35,.62,.05,1.55-.26,2.7-.84h0c-2.06,1.08-4.77,3.34-5.88,2.66Z"/><path class="j" d="M256.66,110.87h0c.84-.42,1.8-.98,2.85-1.65,.05-.03,.09-.06,.14-.09,.24-.15,.48-.29,.72-.47,10.72-6.99,29.78-23.54,33.39-21.05,1.44,1,1.27,3,.11,5.56-7.52,9.83-13.5,15.79-17.74,19.7-5.63,5.19-8.18,6.78-7.15,9,.91,1.97,3.27,2.99,4.37,4.35,.39,.47,.63,.98,.6,1.59-.15,3.13-8.34,7.3-14.33,8.73h-.01c-.93-1.98-2.11-3.91-3.49-5.7,2.89-1.06,5.15-2.31,4.96-3.1-.16-.63-1.62-.98-3.64-.93,.99-.94,2.05-2.12,2.98-3.33,1.95-2.5,3.38-5.14,2.59-6.08-1.1-1.31-7.09,2.86-9.78,5.16-.5,.43-.89,.79-1.11,1.04-.62,.71-.62,1.71-.28,2.64-2.03-1.8-4.28-3.32-6.66-4.44-.23-.12-.47-.23-.71-.33-.55-.25-1.13-.47-1.7-.67h0c0-2.77,.62-5.85,1.52-8.63,.51-1.61,1.11-3.13,1.73-4.43,1.27-2.62,2.62-4.4,3.5-4.4,1.99,0,1.78,2.52,1.96,4.79,0,.04,0,.07,0,.11h.02s.01,.07,.01,.1h-.11c0,1.93-1.65,4.55-.63,5.18,1.11,.68,3.82-1.58,5.88-2.65Z"/><path class="m" d="M249.96,96.35c-3.09,5.52-6.42,10.64-9.27,13.71-1.65-1.06-3.12-2.05-4.47-3.07h-.01c-1.3-.97-2.48-1.96-3.61-3.03h-.01s-.01-.02-.01-.03h0c-1.43-3.2-3.08-5.96-4.91-8.19,4.25-4.08,8.58-7.91,12.65-11.23,1.86,5.25,5.1,8.9,9.64,11.84Z"/><path class="f" d="M240.69,110.06c2.85-3.07,6.18-8.19,9.27-13.71,5.68-10.15,10.55-21.61,10.03-24.02,.14,.04,.26,.1,.35,.18,3.6,3.17,3.37,19.01,.03,36.15-.24,.18-.48,.32-.72,.47-.05,.03-.09,.06-.14,.09-1.05,.67-2.01,1.23-2.85,1.64-1.15,.58-2.08,.89-2.7,.84-1.83-.14-2.28-1.64-2.44-3.36,0-.03-.01-.07-.01-.1h-.02s0-.07,0-.11c-.18-2.27,.03-4.79-1.96-4.79-.88,0-2.23,1.78-3.5,4.4-.62,1.3-1.22,2.82-1.73,4.43l-.49-.15c-1.11-.69-2.14-1.33-3.11-1.96Z"/><path class="f" d="M240.69,110.06c.97,.63,2,1.27,3.11,1.96l.49,.15c-.9,2.78-1.52,5.86-1.52,8.62h0c-1.67-.57-3.4-.98-5.17-1.12-.52-2.3-1.09-4.54-1.73-6.69,1.25,.27,2.93-.87,4.82-2.92Z"/><path class="m" d="M240.33,84.5c9.41-7.73,17.4-12.8,19.66-12.17,.52,2.41-4.35,13.87-10.03,24.02-4.54-2.94-7.78-6.59-9.64-11.84h.01Z"/><path class="f" d="M236.58,142.85c.96,1.32,1.79,2.74,2.47,4.27-2.39,.14-4.89,.27-7.51,.37-.77-.77-1.56-1.53-2.35-2.29,2.4-.73,4.92-1.51,7.39-2.35Z"/><path class="m" d="M232.6,103.96c1.13,1.07,2.31,2.06,3.61,3.03h.01c1.35,1.02,2.82,2.01,4.47,3.07-1.89,2.05-3.57,3.19-4.82,2.92-.61-2.09-1.29-4.09-2.02-5.99-.01-.04-.03-.07-.04-.11h-.01c-.38-1.01-.78-1.98-1.2-2.92Z"/><path class="m" d="M218.73,130.09c7.56,3.43,13.85,7.25,17.85,12.76-2.47,.84-4.99,1.62-7.39,2.35-.48-.45-.96-.91-1.44-1.36-.23-.22-.48-.44-.71-.65-.13-.14-.28-.28-.42-.39-.83-.79-1.67-1.55-2.53-2.3-.98-.89-1.99-1.76-2.98-2.62-1.67-1.46-3.38-2.85-5.06-4.21,.66-.95,1.33-1.86,2.01-2.73,.22-.29,.44-.56,.67-.85Z"/><path class="m" d="M229.03,120.93c.21-.1,.41-.19,.62-.27,0,0,0,0,0,0h.02c.31-.13,.64-.24,.95-.34,.43-.12,.86-.23,1.29-.33,1.9-.41,3.8-.5,5.68-.32,1.77,.14,3.5,.55,5.17,1.13,.57,.2,1.15,.42,1.7,.67,.24,.1,.48,.21,.71,.33,2.38,1.12,4.63,2.64,6.66,4.44,.45,1.27,1.51,2.42,2.43,2.6,.06,.01,.13,.01,.2,0,.02,.51,.19,1.03,.44,1.41,.82,4.99-8.44,9.23-18.33,12.6-4-5.51-10.29-9.33-17.85-12.76,.85-1.1,1.75-2.16,2.64-3.11h.01c2.58-2.8,5.15-4.92,7.64-6.05h.01Z"/><path class="f" d="M227.04,143.19c.23,.21,.48,.43,.71,.65,.48,.45,.96,.91,1.44,1.36,.79,.76,1.58,1.52,2.35,2.29-3.06,.13-6.28,.23-9.66,.3,1.42-1.51,3.08-2.99,5.16-4.6Z"/><path class="g" d="M224.09,140.5c.86,.75,1.7,1.51,2.53,2.3-.83-.77-1.67-1.55-2.53-2.3Z"/><path class="f" d="M235.87,112.98c.64,2.15,1.21,4.39,1.73,6.69-1.88-.18-3.78-.09-5.68,.32l-.08-.33c-.74-2.28-2.43-12.18-9.63-22.42-3.68-5.21-11.64-6.79-18.15-7.31,2.83-.69,5.74-1.01,8.55-.9,.68,0,1.35,.05,2.01,.12h.03c2.76,.3,5.38,1.01,7.68,2.15,1.96,.98,3.73,2.49,5.34,4.44,1.83,2.23,3.48,4.99,4.91,8.18h0s.01,.02,.01,.03h.01c.42,.95,.82,1.92,1.2,2.93h.01s.03,.07,.04,.11c.73,1.9,1.41,3.9,2.02,5.99Z"/><path class="i" d="M204.55,88.49c-.18-.85-.77-2.13-1.58-3.52,.49-1.92,1.2-3.22,1.84-3.2,.81,.01,1.43,2.55,1.7,5.62,0,.78-.98,1.18-1.96,1.1Z"/><path class="e" d="M274.59,160.96c-17.86,4.08-52.58,4.47-73.7,.94v-.11c1.58,.01,3.19,.01,4.84,.01,32.98,0,53.13-1.88,65.44-5.07,8.47-2.19,13.23-5,15.91-8.26l.17,.17c0,30.72,0,56.02-66.7,59.16,2.38-.48,31.69-1.99,46.59-23.3,4.9-7.01,6.76-16.83,7.45-23.54Z"/><path class="i" d="M204.92,70.01c3.43,1.06,2.81-6.81,7.47-5.36,2.64,.83,5.28,12.76,2.23,24.5-.66-.07-1.33-.12-2.01-.12v-.25c1.11-6.05,.86-16.56-1.94-17.95-2.12-1.05-4.53,2.1-7.44,2.15-4.29,.09-4.58-11.16-18.36-36.24,6.97,1.17,16.52,32.18,20.05,33.27Z"/><path class="i" d="M204.55,88.49c-1.1-.08-2.2-.75-1.88-2.12,.09-.5,.19-.97,.3-1.4,.81,1.39,1.4,2.67,1.58,3.52Z"/><path class="j" d="M198.47,89.33c.63,.95,2.02,1.31,3.32,1.24-4.23,1.35-8.17,3.56-11.22,6.54h0c-.07,.08-.15,.15-.22,.23-6.74-3.4-13.44-11.86-12.52-13.73,1.02-2.06,3.76,.01,6.17,.7,.01,0,.01,.01,.01,.01,1.61,.98,3.44,2.54,4.26,1.97,1.09-.76-.39-4.01-.52-6.33h-.02c-.31-10.8-8.61-40.61-4.36-42.97,.49-.27,.99-.35,1.51-.25,13.78,25.08,14.07,36.33,18.36,36.24,2.91-.05,5.32-3.2,7.44-2.15,2.8,1.39,3.05,11.9,1.95,17.95v.25c-2.82-.11-5.73,.21-8.56,.9h-.02l-.09,.03c.27-.18,.48-.39,.59-.63,.09-.18,.09-.47,.01-.84,.98,.08,1.96-.32,1.96-1.1-.27-3.07-.89-5.61-1.7-5.62-.64-.02-1.35,1.28-1.84,3.2-2.21-3.81-6.06-8.5-7.63-7.77-1.84,.85,1.95,10.34,3.13,12.13Z"/><path class="i" d="M202.67,86.37c-.32,1.37,.78,2.04,1.88,2.12,.08,.37,.08,.66-.01,.84-.11,.24-.32,.45-.59,.63,0,0-.01,0-.02,.01-.72,.17-1.43,.37-2.13,.6h-.01c-1.3,.07-2.69-.29-3.32-1.24-1.18-1.79-4.97-11.28-3.13-12.13,1.57-.73,5.42,3.96,7.63,7.77-.11,.43-.21,.9-.3,1.4Z"/><path class="g" d="M201.8,90.57c.7-.23,1.41-.43,2.13-.6-.53,.34-1.31,.56-2.13,.6Z"/><path class="m" d="M215.64,142.24c-1.14,3.88-12.85,5.37-20.08,5.66-.02,0-.03,0-.05,0-2.01-.03-3.96-.06-5.85-.11,.15-8.07,4.44-15.08,10.6-22.25,9.02,5.01,16.7,12.24,15.38,16.7Z"/><path class="f" d="M194.13,120.63c2.93,.87,6.17,2.41,9.57,4.4,3.96,2.33,8.14,5.32,12.35,8.64,1.68,1.36,3.39,2.75,5.06,4.21,.99,.86,2,1.73,2.98,2.62,.86,.75,1.7,1.53,2.53,2.3,.14,.11,.29,.25,.42,.39-2.08,1.61-3.74,3.09-5.16,4.6-5.01,.11-10.39,.17-16.16,.17-3.53,0-6.92-.02-10.16-.06,7.23-.29,18.94-1.78,20.08-5.66,1.32-4.46-6.36-11.69-15.38-16.7-3.81-2.12-7.86-3.84-11.58-4.8h-.02c-.98-.25-1.93-.45-2.85-.59,.39-.09,.78-.16,1.17-.22,.29-.04,.57-.07,.86-.11,1.2-.12,2.52-.04,3.92,.22,.47,.08,.95,.19,1.44,.33,.31,.08,.62,.16,.93,.26Z"/><path class="m" d="M229.67,120.66h-.01s0,0,0,0c-.21,.08-.41,.17-.62,.27h-.01c-2.49,1.13-5.06,3.25-7.64,6.05h-.01c-.89,.95-1.79,2.01-2.64,3.11-.23,.29-.45,.56-.67,.85-.68,.87-1.35,1.78-2.01,2.73-4.21-3.32-8.39-6.31-12.35-8.64-3.4-1.99-6.64-3.53-9.57-4.4-.31-.1-.62-.18-.93-.26-.49-.14-.97-.25-1.44-.33-1.4-.26-2.72-.34-3.92-.22-.29,.04-.57,.07-.86,.11-.26-.64-.5-1.28-.72-1.91-.9-2.53-1.47-4.88-1.62-7-.08-1.15-.04-2.24,.14-3.23,.06-.37,.13-.73,.21-1.09,.01-.03,.02-.07,.03-.1,.88-3.59,2.77-6.7,5.32-9.26,.07-.08,.15-.15,.22-.22h0c3.05-2.99,6.99-5.2,11.22-6.55h.01c.82-.04,1.6-.26,2.13-.6,.01-.01,.02-.01,.02-.01l.09-.03h.02c6.51,.52,14.47,2.1,18.15,7.31,7.2,10.24,8.89,20.14,9.63,22.42l.08,.33c-.43,.1-.86,.21-1.29,.33-.31,.1-.64,.21-.95,.34h-.01Z"/><path class="i" d="M187.29,83.35c.36-.62,.49-1.8,.43-3.39h.02c.13,2.32,1.61,5.57,.52,6.33-.82,.57-2.65-.99-4.26-1.97,1.31,.38,2.51,.35,3.29-.97Z"/><path class="g" d="M184.78,107.79c-.18,.99-.22,2.08-.14,3.23,.15,2.12,.72,4.47,1.62,7-.89,1-1.81,1.93-2.78,2.79h-.01s-.03,.02-.04,.03l-.15,.06h-.01c-2.93,.1-5.71,.21-8.36,.35-3.56-5.73-9.36-10.72-10.97-10.06-3.29,1.35,2.94,7.5-.96,9.43-1.06,.52-3.57,.29-6.92-.36-3.9-.75-8.95-2.07-14.12-3.43-3.36-.87-6.76-1.77-9.95-2.52-.05-.01-.09-.02-.14-.03,2.07-.96,4.52-1.84,7.45-2.64,7.03-1.93,16.76-3.4,30.22-4.31,4.69-.32,9.85-.56,15.5-.73-.01,.03-.02,.07-.03,.1-.08,.36-.15,.72-.21,1.09Z"/><path class="g" d="M184.15,120.58s-.03,.02-.04,.02c-.22,.06-.43,.13-.63,.21,.97-.86,1.89-1.79,2.78-2.79,.22,.63,.46,1.27,.72,1.91-.39,.06-.78,.13-1.17,.22h-.02c-.56,.12-1.11,.26-1.64,.43Z"/><path class="m" d="M183.27,120.9h.01l.15-.06s.03-.03,.04-.03h.01c.2-.08,.41-.15,.63-.21,.01,0,.03-.02,.04-.02,.53-.17,1.08-.31,1.64-.43h.02c.92,.14,1.87,.34,2.85,.59h.02c3.72,.96,7.77,2.68,11.58,4.8-6.16,7.17-10.45,14.18-10.6,22.25-8.55-.19-16.04-.53-22.59-1.03,.07-3.72,.89-7.6,2.34-11.2t.01-.02c.5-.67,.84-1.44,.93-2.11,.01-.01,.01-.02,.01-.02,1.23-2.48,2.76-4.8,4.59-6.78,.57-.63,1.18-1.24,1.82-1.8,1.92-1.7,4.1-3.04,6.5-3.93Z"/><path class="f" d="M174.91,121.25c2.65-.14,5.43-.25,8.36-.35-2.4,.89-4.58,2.23-6.5,3.93-.49-1.2-1.12-2.41-1.86-3.58Z"/><path class="j" d="M170.22,132.28c-.96-1.74-14.73-2.12-15.21,.46-.37,2,9.55,4.41,11.7,4.48,1.02,.03,2.01-.71,2.7-1.66-1.45,3.6-2.27,7.48-2.34,11.2-10.39-.78-18.44-1.91-24.68-3.36,0-2.31,2.57-2.87,4.36-3.74,.01-.02,.03-.02,.04-.02,1.79-.79,5.6-.54,5.67-1.7,.07-1.07-4.29-2.21-6.93-3.32-.01,0-.02-.01-.02-.01-2.84-1.84-7.4-4.22-12.08-6.78-.09-.06-.19-.11-.28-.16h0c-3.57-1.96-7.16-4.03-10.09-6.01-.01,0-.02,0-.03-.02,1.32-2.37,3.47-4.54,7-6.45,20.44,5.61,32.6,12.37,34.83,9.44,1.77-2.31,.09-6.4,2.3-7.25,1.99-.76,6.12,4.17,7.8,9.25-1.83,1.98-3.36,4.3-4.59,6.78,.07-.44,.03-.83-.14-1.13Z"/><path class="g" d="M169.42,135.54c.28-.72,.59-1.42,.93-2.11-.09,.67-.43,1.44-.93,2.11Z"/><path class="i" d="M155.01,132.74c.48-2.58,14.25-2.2,15.21-.46,.17,.3,.21,.69,.14,1.13,0,0,0,.01-.01,.02-.34,.69-.65,1.39-.93,2.11t-.01,.02c-.69,.95-1.68,1.69-2.7,1.66-2.15-.07-12.07-2.48-11.7-4.48Z"/><path class="i" d="M145.53,134.62c2.64,1.11,7,2.25,6.93,3.32-.07,1.16-3.88,.91-5.67,1.7,1.09-.53,1.88-1.18,1.6-2.41-.15-.64-1.21-1.53-2.86-2.61Z"/><path class="f" d="M145.51,134.61s.01,.01,.02,.01c1.65,1.08,2.71,1.97,2.86,2.61,.28,1.23-.51,1.88-1.6,2.41-.01,0-.03,0-.04,.02-1.79,.87-4.36,1.43-4.36,3.74-10.14-2.33-15.49-5.46-18.31-9.14,1.74-2.27,4.44-4.34,8.63-6.13l.72-.3c4.68,2.56,9.24,4.94,12.08,6.78Z"/><path class="i" d="M167.15,117.38c-2.21,.85-.53,4.94-2.3,7.25-2.23,2.93-14.39-3.83-34.83-9.44,.45-.25,.92-.48,1.41-.72,.14-.07,.28-.13,.42-.19,.05,.01,.09,.02,.14,.03,3.19,.75,6.59,1.65,9.95,2.52,5.17,1.36,10.22,2.68,14.12,3.43,3.35,.65,5.86,.88,6.92,.36,3.9-1.93-2.33-8.08,.96-9.43,1.61-.66,7.41,4.33,10.97,10.06,.74,1.17,1.37,2.38,1.86,3.58-.64,.56-1.25,1.17-1.82,1.8-1.68-5.08-5.81-10.01-7.8-9.25Z"/><path class="j" d="M130.02,115.19c-3.53,1.91-5.68,4.08-7,6.45-4.55-3.12-7.45-6.1-5.98-8.34,.32-.49,1.04-.78,2.06-.89v.11c3.87,.82,7.51,1.73,10.92,2.67Z"/><path class="g" d="M221.88,147.79c3.38-.07,6.6-.17,9.66-.3,2.62-.1,5.12-.23,7.51-.37,9.19-.54,16.74-1.33,22.94-2.34,3.48-.56,6.53-1.19,9.21-1.89l.05,.2c2.28,3.11,2.72,11.05-.08,13.64-12.31,3.19-32.46,5.07-65.44,5.07-1.65,0-3.26,0-4.84-.01-11.15-.07-20.75-.36-29.01-.86h-.01c-30.15-1.82-42.46-6.36-47.49-12.44-3.45-4.19-3.45-9.11-3.45-14.38v-.98c0-.75,.01-1.49,.03-2.21,.03-1.25,.1-2.47,.27-3.67h.02c.37,2.44,1.13,4.74,2.72,6.87,.03,.05,.07,.09,.11,.14,2.82,3.68,8.17,6.81,18.31,9.14,6.24,1.45,14.29,2.58,24.68,3.36,6.55,.5,14.04,.84,22.59,1.03,1.89,.05,3.84,.08,5.85,.11,.02,0,.03,0,.05,0,3.24,.04,6.63,.06,10.16,.06,5.77,0,11.15-.06,16.16-.17Z"/><path class="g" d="M121.23,127.25c.26-1.88,.75-3.69,1.67-5.4l.12-.21s.02,.01,.03,.02c2.93,1.98,6.52,4.05,10.09,6.01h0c.09,.05,.19,.1,.28,.16l-.72,.3c-4.19,1.79-6.89,3.86-8.63,6.13-.04-.05-.08-.09-.11-.14-1.59-2.13-2.35-4.43-2.72-6.87h-.02Z"/><path class="i" d="M119.1,112.41c2.64-.28,7.35,.58,12.75,1.87-.14,.06-.28,.12-.42,.19-.49,.24-.96,.47-1.41,.72-3.41-.94-7.05-1.85-10.91-2.67v-.11Z"/></g></g><g id="d"><path class="l" d="M237.59,119.48c1.77,.14,3.5,.54,5.17,1.13,.57,.2,1.14,.42,1.7,.67,3.36,1.47,6.48,3.71,9.13,6.45,.45,.45,.87,.93,1.29,1.42,2.48,2.86,4.44,6.12,5.69,9.5,.72,1.97,1.21,3.97,1.4,5.95"/><path class="l" d="M216.03,133.48c1.69,1.36,3.39,2.75,5.06,4.2,.99,.86,2,1.73,2.98,2.63,.86,.75,1.7,1.51,2.53,2.3,.14,.11,.29,.24,.42,.38,.23,.22,.48,.44,.71,.65,1.28,1.21,2.56,2.42,3.8,3.66"/><path class="l" d="M260.57,138.64c9.1-1.82,16.87-6.72,19.91-10.18,.98-1.12,1.47-2.08,1.36-2.75-.76-4.82-7.55-.78-8.12-4.31-.18-1.13,1.92-4.01,4.84-7.66,7.35-9.13,19.89-23.05,15.19-26.32-3.61-2.49-22.67,14.06-33.39,21.05-.29,.2-.57,.38-.86,.56-2.5,1.59-4.48,2.56-5.55,2.48-1.86-.14-2.3-1.7-2.45-3.46h-.01c-.2-2.3,.04-4.9-1.97-4.9-.88,0-2.23,1.78-3.5,4.4-1.7,3.57-3.25,8.7-3.25,13.05"/><path class="l" d="M218.71,129.9c9.41,4.26,16.85,9.12,20.37,17.1"/><path class="l" d="M287.24,148.44c0,32.85,0,59.49-81.52,59.49s-81.52-26.63-81.52-59.49"/><path class="l" d="M290.51,133.92c0,15.29,0,27.69-84.8,27.69s-84.8-12.4-84.8-27.69"/><path class="l" d="M290.19,126.99h0c-.36,2.46-1.11,4.79-2.71,6.93-6.17,8.29-24.91,13.85-81.77,13.85s-75.57-5.57-81.75-13.84c-1.59-2.14-2.35-4.44-2.72-6.87h0"/><line class="l" x1="251.5" y1="108.05" x2="251.48" y2="108.05"/><path class="l" d="M120.91,133.91c0-.85,0-1.7,.02-2.53,0-.32,.01-.64,.02-.95,.04-1.14,.12-2.26,.28-3.36v-.03"/><path class="l" d="M229.67,120.47h-.01s-.01,0-.01,0"/><path class="l" d="M133.13,127.47h0"/><path class="l" d="M260.36,108.47c3.34-17.14,3.57-32.99-.03-36.16-1.62-1.42-10.01,3.79-20.01,11.99-4.06,3.32-8.41,7.15-12.66,11.23"/><path class="l" d="M232.57,103.73s.02,.02,.02,.03c3,2.86,6.41,5.1,11.2,8.07"/><path class="l" d="M240.31,84.3c2.22,6.29,6.42,10.27,12.45,13.52"/><path class="l" d="M231.53,147.3c-1.24-1.24-2.52-2.45-3.8-3.66-.23-.22-.48-.44-.71-.65-.14-.14-.29-.27-.42-.38-.83-.78-1.67-1.55-2.53-2.3-.98-.9-1.99-1.77-2.98-2.63-1.67-1.46-3.37-2.84-5.06-4.2-4.2-3.32-8.38-6.31-12.34-8.64-3.77-2.2-7.33-3.85-10.51-4.67-.49-.14-.97-.24-1.44-.33-1.4-.26-2.72-.34-3.92-.22-.29,.04-.57,.07-.86,.11-.97,.15-1.92,.37-2.83,.65-.01,0-.03,.01-.04,.01-.22,.07-.44,.14-.64,.22-.01,0-.03,.01-.04,.03-2.46,.88-4.69,2.25-6.65,3.99-6.01,5.32-9.55,13.95-9.7,21.94m4.8,14.17h-.01"/><path class="l" d="M142.38,143.21c0-3.74,6.75-2.91,6-6.18-.41-1.76-7.73-5.43-15.24-9.55h-.01c-3.57-1.96-7.16-4.03-10.08-6.01-4.57-3.13-7.48-6.11-6.01-8.36,1.17-1.78,7.4-.79,14.95,1.01,3.18,.75,6.59,1.65,9.95,2.52,5.17,1.36,10.22,2.68,14.12,3.43,3.35,.65,5.85,.88,6.91,.37,3.91-1.93-2.33-8.08,.97-9.43,1.93-.79,9.97,6.61,12.83,13.63"/><path class="l" d="M231.53,147.3c-1.24-1.24-2.52-2.45-3.8-3.66-.23-.22-.48-.44-.71-.65-.14-.14-.29-.27-.42-.38-.83-.79-1.67-1.55-2.53-2.3-.98-.9-1.99-1.77-2.98-2.63-1.67-1.46-3.37-2.84-5.06-4.2,.67-.95,1.33-1.86,2.01-2.74,.22-.29,.44-.56,.67-.84,.86-1.1,1.76-2.16,2.64-3.12h.01c2.8-3.03,5.59-5.27,8.27-6.31t.01,0"/><path class="l" d="M186.97,119.73c-.26-.64-.5-1.28-.72-1.91-.9-2.53-1.47-4.89-1.62-7.01-.08-1.14-.04-2.23,.14-3.23,.07-.37,.14-.73,.22-1.09,.9-3.74,2.88-6.95,5.57-9.58h.01c6.08-5.96,15.73-8.84,24.07-7.97,2.76,.3,5.39,1.01,7.69,2.15,1.96,.98,3.73,2.49,5.33,4.44,1.84,2.23,3.48,5.01,4.91,8.19,0,.01,.01,.01,.01,.03,.44,.98,.86,1.99,1.25,3.03,1.5,3.85,2.74,8.15,3.76,12.68-2.3-.22-4.63-.03-6.97,.65-.31,.1-.64,.2-.95,.34h-.01"/><path class="l" d="M190.56,96.92c-6.78-3.36-13.58-11.92-12.65-13.8,1.57-3.18,7.26,3.49,9.47-.26,2.83-4.82-8.81-43.65-3.93-46.36,7.01-3.88,17.76,31.85,21.56,33.02,3.43,1.06,2.81-6.81,7.46-5.36,2.66,.83,5.32,12.96,2.16,24.8"/><path class="l" d="M191.75,119.85c6.75-5.01,13.41-8.24,20.84-7.91"/><path class="l" d="M220.97,127.02c.14-.08,.26-.17,.39-.23h.02"/><path class="l" d="M201.22,124.23c-6.68,7.57-11.42,14.89-11.57,23.38"/><path class="l" d="M227.03,142.99c-2.08,1.62-3.76,3.1-5.17,4.61"/><path class="l" d="M131.43,113.98c8.69-4.15,24.59-7,53.65-7.87"/><path class="l" d="M278.8,113.43c11.72,5.04,11.72,12.18,11.72,20.08"/><line class="l" x1="235.79" y1="106.48" x2="235.78" y2="106.48"/><path class="l" d="M122.9,121.36c-1.5,2.79-1.86,5.85-1.94,9.07-.02,.72-.03,1.46-.03,2.21v.87"/><path class="l" d="M174.47,120.38h.01c3.58-.19,7.39-.34,11.47-.46h.01"/><path class="l" d="M243.22,120.77h-.02"/><path class="l" d="M280.72,128.16c3.16,1.61,5.31,3.4,6.76,5.34,.05,.07,.1,.14,.14,.21"/><path class="l" d="M191.83,119.78c-.13,0-.25,0-.38,.01h-.01"/><path class="l" d="M123.82,133.73c.04-.07,.09-.14,.14-.21,1.74-2.33,4.47-4.45,8.74-6.27"/></g></svg>