<?xml version="1.0" encoding="UTF-8"?><svg xmlns="http://www.w3.org/2000/svg" viewBox="0 0 337.3 506.82"><defs><style>.f{fill:#ead0d0;}.g{fill:#fcb9b9;}.h{fill:#fff;}.i{fill:#6b3d34;}.j{fill:#c47b49;}.k{fill:#bf7e67;}.l{fill:#eab5a7;}.m{fill:#507096;}.n{fill:#7f4d40;}.o{fill:#bc7171;}.p{fill:#6a964d;}.q{fill:#fc9;}.r{fill:#77b566;}.s{stroke-width:2px;}.s,.t{fill:none;stroke:#3f2a25;stroke-linecap:round;stroke-linejoin:round;}.u{fill:#e09f57;}.v{fill:#eaa0a0;}.w{fill:#3d587f;}.x{fill:#d17e75;}.y{fill:#dba77f;}.a`{fill:#935d51;}.aa{fill:#cc8e87;}.ab{fill:#e08f82;}</style></defs><g id="a"><path class="s" d="M225.02,330.02c.65,3.93-.03,10.45-.46,14.58-2.5,23.74-5.8,52.31-10.52,54.38-4.77,2.1-8.13,2.95-12.79,.3-3.26-1.87-1.17-36.52-4.95-38.48-.91-.47-1.96-.76-3.06-.9h-.01c-3.05-.44-6.45,.13-8.15,.64-.79,.23-1.32,1.4-1.68,3.2-1.83,9.17,.98,34.79-2.1,36.45-4.53,2.45-9.3,1.31-12.52-.13-3.88-1.73-3.77-6.29-13.96-54.39-.82-3.88-1.28-10.22-.61-14.77"/><path class="s" d="M177.8,327.88c3.37,.22,7.06,.33,11.07,.33,2.01,0,3.93-.03,5.78-.08,2.41-.07,4.68-.18,6.82-.34"/><path class="s" d="M239.3,293.39c0,7.19,0,13.02-50.43,13.02s-50.43-5.83-50.43-13.02"/><path class="s" d="M224.29,182.22c5.33,9.09,8.49,19.8,10.27,29.89,.27,1.51,.5,3,.71,4.47,1.07,7.56-1.95,14.33-7.45,19.86-9.32,9.37-25.8,15.18-41.72,15.23"/><path class="s" d="M178.13,251.33c-22.84-2.03-44.5-13.02-41.99-32.92,.93-7.37,2.4-15.38,4.93-23.05"/><path class="s" d="M201.64,157.87h0c5.39-10.17,11.46-26.68,15.63-45.9,5.8-26.71,19.55-41.95,26.61-40.96,9.47,1.34,21.09,36.75,7.3,63.66-8.47,16.53-22.59,26.78-30.91,33.72-.01,.01-.03,.02-.04,.04"/><path class="s" d="M212.82,164.34c.26-.36,.53-.75,.8-1.14,4.37-6.46,9.67-16.74,10.17-30.29,.58-15.55,2.54-27.98,5.87-40.11"/><path class="s" d="M169.51,159.28c-4.4-10.22-8.28-25.97-10.69-46.2-3.24-27.13-15.48-43.62-22.6-43.3-9.55,.43-24.49,34.58-13.32,62.67,7.37,18.52,21.73,30.4,28.95,38.07,.07,.07,.13,.13,.18,.19"/><path class="s" d="M148.31,92.82c2.15,12.39,2.93,24.95,2.02,40.48-.9,15.62,4.5,26.79,8.42,33.18"/><path class="s" d="M198.93,217.1c-2.07-4.93,3.85-18.37,10.1-19.87,5.57-1.34,13.79,9.03,11.31,15.93-2.48,6.9-19.41,8.72-21.41,3.94Z"/><path class="s" d="M203.07,202.1c5.96-4.86,18.5,13.98,6.33,17.43"/><path class="s" d="M168.66,217.76c1.75-5.06-5.02-18.09-11.35-19.19-5.64-.98-13.18,9.89-10.27,16.62,2.91,6.73,19.93,7.46,21.62,2.56Z"/><path class="s" d="M163.56,203.05c-6.26-4.47-17.57,15.14-5.2,17.8"/><path class="s" d="M171.23,189.71c1.32,1.57,1.24,4.11,.46,4.66-1.15,.81-5.06-1.79-5.91-3.71"/><path class="s" d="M196.69,192.67c-.54-.68,.62-3.33,2.95-4.04,1.77-.54,3.91,.14,4.01,.95,.19,1.46-6.09,4.18-6.96,3.09Z"/><path class="s" d="M182.87,224.52c2.64-.16,4.33-1.82,3.75-3.28-.44-1.11-6.77-.25-7.37,.49-.65,.79,1.58,2.92,3.62,2.79Z"/><path class="s" d="M182.82,230.59c.3-2.22,.34-5.24,.11-6.06"/><path class="s" d="M136.51,215.63c-12.56-5.07-29.11-5.88-40.49-3.07"/><path class="s" d="M104.3,230.91c11.2-3.95,22.55-5.88,32.06-5.1"/><path class="s" d="M235.4,214.44c12.56-5.07,28.56-5.84,39.93-3.03"/><path class="s" d="M267.06,229.75c-11.2-3.95-22.55-5.88-32.06-5.1"/><path class="s" d="M153.89,281.8c1.15-2.7,9.37-16.14,12.99-18.88,1.69-1.28,4.28-1.83,6.83-2.24h0c1.16-.2,2.32-.36,3.38-.55,.92-.16,1.77-.35,2.49-.6"/><line class="s" x1="193.24" y1="359.9" x2="193.23" y2="359.9"/><path class="s" d="M223.88,278.44c-.52-1.15-1.15-2.48-1.85-3.88"/><path class="s" d="M197.85,250.64c-.01,2.07,.53,3.9,1.48,6.31,1.27,3.23,10.52,2.09,14.4,5.06,.31,.24,.64,.55,.98,.91"/><path class="s" d="M150.95,324.87c.32-.4,.63-.81,.94-1.2,4.63-5.95,8.85-11.3,12.63-13.64h0c1.56-.97,3.04-1.43,4.44-1.2,5.95,.95,11.08,14.15,8.87,19.22-.01,.02-.01,.05-.02,.07,0,0,0,.02-.01,.03-1.29,4.83-15.46,7.25-23.59,2.87-1.26-.68-2.38-1.53-3.28-2.56"/><path class="s" d="M150.95,324.43s-.01,.02-.02,.03"/><path class="s" d="M173.19,311.84c1.1,3.94,1.85,8.45-.84,10.85"/><path class="s" d="M164.52,310.38h0c.54,5.01,.12,8.14-1.68,11.28"/><path class="s" d="M140.39,300.14c0,8.57,0,16.23,8.28,21.36,.93,.58,1.97,1.13,3.13,1.63,.03,.02,.06,.04,.09,.04"/><path class="s" d="M227.21,322.53s.06-.03,.09-.04c1.14-.58,2.15-1.2,3.05-1.86,6.99-5.1,6.99-12.39,6.99-20.49"/><path class="s" d="M138.63,290.08h0c.21,1.12,.65,2.17,1.53,3.14,.02,.03,.05,.06,.08,.09,2.67,2.82,9.28,4.97,25.64,5.94h0c3.9,.24,8.35,.39,13.43,.48,2.96,.05,6.14,.08,9.55,.08s6.62-.03,9.6-.08c2.01-.03,3.92-.08,5.74-.14,1.56-.05,3.04-.11,4.47-.17,18.7-.86,25.98-3.11,28.81-6.12,.03-.03,.06-.06,.08-.09,.9-.97,1.32-2.04,1.53-3.15h0"/><path class="s" d="M138.44,293.12v-.41c0-.35,0-.7,.02-1.04,.04-1.51,.26-2.95,1.15-4.26,.36-.55,.85-1.08,1.5-1.58"/><path class="s" d="M219.62,281.28h-.01"/><path class="s" d="M231.36,283.37c.34,.1,.66,.2,.97,.31,6.96,2.37,6.96,5.72,6.96,9.44"/><path class="s" d="M146.96,283.2h.01c.73-.21,1.53-.4,2.39-.59,1.34-.29,2.84-.56,4.53-.81,3.58-.51,8-.93,13.44-1.22,.16-.01,.32-.02,.49-.02,2.67-.14,5.59-.24,8.77-.32,.57-.01,1.14-.03,1.73-.04"/><path class="s" d="M164.44,287.26h.01c.5-.03,1-.07,1.52-.1"/><path class="s" d="M181.11,286.65h-.06"/><path class="s" d="M172.4,286.86c1.17-.03,2.38-.07,3.64-.1,.35-.01,.7-.02,1.06-.03s.72-.01,1.09-.02c.46-.01,.92-.02,1.4-.03"/><path class="s" d="M180.1,286.67s-.02,0-.03,0"/><line class="s" x1="204.74" y1="286.85" x2="204.73" y2="286.85"/><path class="s" d="M233.19,290.49c.09,.04,.19,.07,.28,.11,1.88,.76,3.15,1.6,4.01,2.51,.03,.04,.06,.07,.09,.1"/><path class="s" d="M211.15,287.13c-.13-.01-.26-.02-.39-.02h-.01"/><path class="s" d="M140.16,293.22s.05-.06,.08-.1c1.03-1.09,2.66-2.09,5.2-2.95,.42-.14,.86-.28,1.34-.42"/><path class="s" d="M148.67,321.5c.01,2.28,.52,4.98,2.26,6.71"/><path class="s" d="M227.96,323.53c.03,.05,.06,.09,.1,.14"/><path class="s" d="M228.08,324.18s-.01,0-.02-.03c-.29-.36-.57-.72-.85-1.08-6.58-8.45-12.31-15.72-17.15-14.95-5.95,.95-11.08,14.15-8.87,19.22,.06,.26,.15,.49,.28,.73,2.68,5.11,20.19,7.02,26.61-.32"/><path class="s" d="M205.83,311.17c-1.1,3.94-1.85,8.45,.84,10.85"/><path class="s" d="M214.5,309.71c-.54,5.01-.12,8.13,1.68,11.27"/><path class="s" d="M230.35,320.63c.01,2.3-.5,5.06-2.27,6.82"/><path class="s" d="M167.82,280.56c.73-2.89,1.69-6.21,1.99-8.44"/><path class="s" d="M199.41,226.03c-4.51-4.64-9.39,4.34-16.59,4.56-4.39,.14-8.64-1.47-10.49,1.19-2.83,4.05,6.67,7.02,13.45,6.35,8.63-.85,17.33-8.28,13.63-12.09Z"/><path class="s" d="M184.45,230.39c.98,1.68,1.61,6.58,1.34,7.73"/><path class="s" d="M191.68,226.77c.98,1.68,2.67,7.48,2.4,8.63"/><path class="s" d="M176.77,230.24c.98,1.68,.81,5.95,.54,7.1"/><path class="s" d="M198.88,231.46c14.81-.98,38.49,6.46,55.41,18.11"/><path class="s" d="M236.06,239.75c-.79,2.96,.46,6.65,.88,6.68,.75,.06,1.43-3.35,2.22-3.26,.82,.09,.65,3.79,1.83,4.04,.93,.2,1.7-1.98,2.61-1.83,1.55,.26,1.41,7,2.22,7.04,.66,.04,1-4.47,2.09-4.57,1.53-.13,2.96,8.71,4.7,8.61,1.19-.07,.1-4.33,1.4-4.47,1.93-.21,4.41,8.72,6.82,8.27,1.59-.29-3.83-7.64-2.75-9.93,.52-1.1,6.26-1.79,6.26-2.35,0-.86-10.8-1.27-10.83-2.22-.02-.73,6.95-1.08,6.39-1.83-.96-1.29-12.23,.07-12.39-1.17-.12-.9,6.78-1.88,6-2.87-1.69-2.15-11.71,1.39-12.13-.13-.18-.65,1.98-1.22,1.57-2.09-.24-.5-6.21-.33-7.84,1.68"/><path class="s" d="M178.29,272.53c-.21,.92-1.04,1.6-2.02,1.6-.34,0-.66-.08-.94-.23-.68-.34-1.14-1.04-1.14-1.85,0-.38,.1-.74,.28-1.05,.36-.61,1.03-1.03,1.8-1.03"/><path class="s" d="M173.72,260.68c.5,1.84,1.01,8.07,.76,10.33"/><path class="s" d="M177.78,266.38c-.11-2.4-.36-5.04-.69-6.25"/><path class="s" d="M203.82,271.91c-.02-.12-.03-.25-.03-.38,0-.56,.22-1.07,.6-1.45h0c.38-.39,.9-.63,1.48-.63,.2,0,.39,.03,.58,.09"/><path class="s" d="M208.43,260.16c-.39,1.44-.79,5.55-.82,8.36"/><path class="s" d="M205.06,259.62c-.58,2.08-.89,8.46-.66,10.46"/><path class="s" d="M184.42,271.74h-.01"/><path class="s" d="M203.79,271.79c-.82-.06-1.67-.1-2.56-.14"/><path class="s" d="M175.33,273.91c-.68,2.44-4.97,5.68-7.01,4.73"/><path class="s" d="M164.01,389.55c8.3,2.57,10.63,2.38,18.82,1.52"/><path class="s" d="M218.24,389.55c-8.3,2.57-10.53,2.52-18.73,1.66"/><path class="s" d="M135.94,222.43c-26.64-.8-50.55-3.75-50.94-8.41-1.14-13.6,195.72-46.31,197.6-29.74,.99,8.68-26.72,21.73-48.04,27.84"/><path class="s" d="M85.38,212.81c8.42-18.87,169.99-53.1,196.7-29.72"/><path class="s" d="M225.87,175.01c-1.65-2.43-3.53-4.64-5.6-6.62"/><path class="s" d="M201.64,157.86c-10.21-2.92-21.61-2.55-32.13,1.42-.02,.01-.03,.02-.05,.03"/><path class="s" d="M139,189.8c3.22-7.83,7.65-14.23,12.85-19.28"/><path class="s" d="M152.02,170.71c8.17-5.02,9.56-6.17,17.49-11.42"/><path class="s" d="M201.64,157.87c7.71,4.34,10.99,6.55,18.59,10.56"/><path class="s" d="M221.54,298.43c-.1-.34-.21-.68-.33-1.01-.7-1.91-1.81-3.76-3.21-5.37-.24-.28-.48-.55-.73-.8-1.5-1.55-3.26-2.81-5.16-3.65-.32-.13-.64-.26-.96-.37-.09-.03-.19-.06-.28-.09,0,0,0-.01-.01,0-.86-.28-1.74-.48-2.64-.55"/><path class="s" d="M221.21,297.42c5.15-1.03,9.54-3.8,11.25-5.76,.37-.41,.62-.79,.72-1.11,.01-.02,.01-.04,.01-.06,.04-.14,.06-.27,.04-.38-.43-2.72-4.26-.44-4.59-2.44-.1-.62,1.07-2.23,2.69-4.27l.03-.03s.01-.02,.02-.03c4.15-5.16,11.24-13.02,8.58-14.87-1.75-1.22-9.97,5.54-16.08,9.97-.02,.01-.04,.03-.06,.04-.98,.7-1.9,1.35-2.73,1.89-.16,.11-.32,.21-.48,.31-.35,.22-.68,.42-.99,.6h-.01s-.03,.02-.04,.03h0c-.92,.52-1.64,.81-2.09,.77-.73-.05-1.07-.49-1.23-1.08h-.01c-.08-.27-.12-.56-.15-.87-.06-.65-.05-1.34-.18-1.87-.12-.53-.37-.9-.94-.9-.45,0-1.12,.83-1.77,2.09-.02,.03-.03,.06-.05,.09h0c-.06,.11-.11,.2-.16,.31-.13,.27-.25,.56-.38,.86,0,.01-.01,.01-.01,.02-.79,1.89-1.43,4.3-1.44,6.4v.09"/><path class="s" d="M207.49,299.49c-2.26-3.01-5.75-5.11-9.93-7.01h-.01"/><path class="s" d="M202.61,273.06c.39-.37,.77-.74,1.16-1.1,.88-.82,1.76-1.62,2.64-2.39,.38-.34,.76-.67,1.14-1,.75-.65,1.49-1.27,2.21-1.86,1.75-1.44,3.41-2.71,4.9-3.75,3.32-2.35,5.78-3.58,6.41-3.02,1.63,1.43,1.87,7.44,.94,14.74-.23,1.83-.54,3.75-.92,5.69"/><path class="s" d="M211.73,282.27c-1-.62-1.89-1.18-2.7-1.73h-.01c-1.39-.93-2.55-1.81-3.62-2.83,0-.01-.01-.01-.01-.02"/><path class="s" d="M209.76,266.72c1.25,3.55,3.63,5.8,7.03,7.64"/><path class="s" d="M202.04,299.68l-.02-.02c-.47-.44-.95-.87-1.43-1.3-.56-.5-1.12-1-1.69-1.48-.94-.82-1.9-1.61-2.86-2.38-2.37-1.87-4.73-3.57-6.97-4.88-2.13-1.25-4.15-2.18-5.94-2.64-.28-.08-.54-.14-.81-.18-.28-.05-.55-.09-.82-.12h-.09l-.3-.03h-.06c-.33-.02-.64-.01-.95,.02-.01,0-.02,0-.03,0-.03,0-.08,.01-.11,.02h-.02c-.11,.01-.21,.02-.32,.04-.55,.08-1.09,.2-1.6,.36-.01,0-.02,.01-.03,.01-.12,.04-.24,.08-.36,.13t-.02,0c-1.39,.5-2.65,1.27-3.76,2.25-2.77,2.46-4.62,6.17-5.25,9.9v.03"/><path class="s" d="M173.85,289.5c-.36-.88-.87-1.77-1.44-2.62-2.03-2.98-4.96-5.43-5.81-5.08-1.86,.76,1.66,4.24-.55,5.33-.04,.02-.08,.04-.13,.05-.31,.11-.77,.13-1.36,.09-.66-.04-1.47-.17-2.41-.35h-.01c-2.2-.42-5.06-1.17-7.98-1.94-1.9-.49-3.82-1-5.62-1.42-.54-.13-1.06-.25-1.57-.36-3.54-.78-6.3-1.09-6.88-.21-.53,.81-.06,1.78,1.01,2.83,.62,.61,1.44,1.24,2.39,1.89,.99,.67,2.11,1.36,3.29,2.04,.79,.46,1.6,.92,2.41,1.36,4.25,2.33,8.39,4.41,8.62,5.4,.25,1.11-1.01,1.38-2.07,1.88"/><path class="s" d="M202.04,299.68l-.02-.02c-.47-.44-.95-.87-1.43-1.3-.56-.5-1.12-1-1.69-1.48-.94-.82-1.9-1.61-2.86-2.38,.38-.54,.76-1.05,1.14-1.54,.12-.16,.25-.32,.38-.48,.48-.62,.99-1.22,1.49-1.76h.01c1.58-1.72,3.16-2.98,4.67-3.57h0"/><path class="s" d="M203.74,287.14h.01c.18-.07,.36-.13,.54-.18,.12-.03,.23-.07,.35-.09,1.2-.32,2.4-.39,3.58-.28-.48-2.18-1.06-4.26-1.75-6.17-.12-.34-.24-.67-.37-1-.22-.59-.46-1.16-.71-1.71v-.02c-.81-1.8-1.74-3.37-2.78-4.63-.43-.52-.87-.98-1.34-1.38-.53-.45-1.09-.83-1.67-1.12-1.3-.65-2.79-1.05-4.35-1.22-4.71-.49-10.17,1.14-13.6,4.5h-.01c-1.52,1.49-2.64,3.31-3.15,5.42-.04,.2-.08,.41-.12,.62-.02,.11-.04,.22-.05,.34-.06,.46-.06,.96-.03,1.48,.09,1.2,.41,2.53,.92,3.96,.12,.34,.25,.68,.39,1.04h0s0,.03,.01,.04"/><path class="s" d="M195.25,269.34c1.79-6.68,.29-13.54-1.22-14.01-2.63-.82-2.28,3.63-4.22,3.03-.79-.25-2.13-3.18-3.7-6.67-2.66-5.9-5.99-13.37-8.48-11.99-1.3,.72-.52,6,.5,11.65,.5,2.8,1.06,5.7,1.45,8.18,.5,3.11,.74,5.57,.27,6.37-.5,.84-1.3,.75-2.15,.46-1.28-.46-2.66-1.39-3.2-.31-.29,.58,2.94,7.36,6.65,8.3"/><path class="s" d="M182.32,286.8c3.82-2.83,7.58-4.65,11.78-4.47"/><path class="s" d="M177.63,287.24l-.02,.02"/><path class="s" d="M181.46,299.79c.83-3.69,3.16-7.06,6.21-10.52"/></g><g id="b"><g><path class="o" d="M210.3,162.76c.83,.49,1.65,.97,2.49,1.46-1.02-.27-1.84-.77-2.49-1.46Z"/><path class="o" d="M282.58,184.15c.99,8.68-26.72,21.73-48.04,27.84-1.78-10.09-4.94-20.8-10.27-29.89h0c27.61-2.99,50.12-3.68,56.5-.14,.01,.01,.02,.01,.03,.02,.44,.31,.84,.63,1.22,.96,.32,.37,.51,.77,.56,1.21Z"/><path class="o" d="M220.15,176.17c1.94-.17,3.86-.32,5.76-.44,24.83-1.68,45.68-.26,54.86,6.23-6.38-3.54-28.89-2.85-56.5,.13-16.64,1.8-35.13,4.44-53.06,7.5-1.82,.3-3.64,.62-5.45,.94-5.3,.93-10.53,1.9-15.61,2.89h-.02c-3.08,.6-6.11,1.21-9.08,1.82-29.36,6.06-52.49,12.67-55.68,17.44,3-6.68,25.15-15.28,53.72-22.57,24.96-6.37,54.82-11.74,81.05-13.94,.01-.01,.01,0,.01,0Z"/><path class="o" d="M244.6,243.6c-1.33-.71-2.68-1.39-4.05-2.05l.86-1.79c.84,1.26,10.43-2.07,12.08,.03,.78,.99-6.12,1.97-6,2.87,.16,1.24,11.42-.12,12.39,1.17,.55,.74-6.41,1.1-6.39,1.83,.02,.95,10.82,1.36,10.82,2.22,0,.55-5.74,1.24-6.26,2.34-1.09,2.3,4.34,9.64,2.75,9.93-2.42,.45-4.9-8.48-6.82-8.27-1.3,.14-.22,4.4-1.41,4.47-1.73,.11-3.16-8.73-4.69-8.6-1.09,.09-1.43,4.6-2.09,4.56-.78-.04-.68-6.37-2.08-7l.89-1.71Z"/><path class="o" d="M253.78,83.98c4.65,13.05,6.12,33.51-2.62,50.57-8.47,16.53-22.59,26.78-30.91,33.72-.01,.01-.03,.02-.04,.04-2.95-1.56-5.25-2.84-7.41-4.09,.26-.36,.53-.75,.8-1.14,.3-.44,.6-.89,.89-1.36,6.71,1.52,9.02,.78,21.09-11.61,9.66-9.93,22.75-34.63,18.18-66.12h.02Z"/><path class="o" d="M253.76,83.99c4.57,31.49-8.52,56.19-18.18,66.12-12.07,12.39-14.38,13.13-21.09,11.61,4.17-6.5,8.81-16.29,9.28-28.93,.58-15.55,2.54-27.98,5.87-40.11h-.01c2.03-5.51,11.26-21.7,18.58-18.97h0c2.03,2.28,3.98,5.85,5.55,10.27h-.01Z"/><path class="o" d="M248.22,73.7h0c-7.32-2.72-16.55,13.47-18.58,18.98h.01c-3.33,12.13-5.29,24.56-5.87,40.11-.47,12.64-5.11,22.43-9.28,28.93-.29,.47-.59,.92-.89,1.36-.27,.39-.54,.78-.8,1.14h-.01c-.84-.49-1.66-.97-2.49-1.46-5.05-5.26-.54-21.54,1.77-30.63l-.16-.05c1.96-6.24,3.78-13.05,5.34-20.23,5.8-26.71,19.55-41.95,26.61-40.96,1.43,.2,2.92,1.19,4.36,2.81Z"/><path class="o" d="M244.6,243.6l-.89,1.71s-.09-.03-.14-.04c-.9-.16-1.67,2.03-2.61,1.82-1.17-.25-1.01-3.95-1.82-4.04h-.03l.6-1.9c.28,.14,.56,.27,.84,.4,1.37,.66,2.72,1.34,4.05,2.05Z"/><path class="o" d="M242.92,237.57c.42,.87-1.75,1.44-1.56,2.09,.01,.04,.03,.07,.05,.1l-.86,1.79c-.28-.13-.56-.26-.84-.4-1.2-.56-2.41-1.11-3.63-1.62-.3-.14-.6-.26-.9-.39,1.76-1.91,7.5-2.06,7.74-1.57Z"/><path class="o" d="M218.01,291.67c-.22-.25-.43-.48-.65-.7-1.5-1.55-3.26-2.81-5.16-3.65-.32-.13-.64-.26-.96-.37h0v-.1c.01-1.54,.35-3.24,.84-4.78,.19-.57,.39-1.11,.6-1.62,0-.01,.01-.01,.01-.02,.13-.3,.25-.59,.38-.86,.05-.11,.1-.2,.16-.3h0s.03-.07,.05-.1c.65-1.26,1.32-2.09,1.77-2.09,.57,0,.82,.37,.94,.9,.13,.53,.12,1.22,.18,1.87,.01,.08,.02,.16,.03,.23h-.01c0,1.09-.93,2.57-.35,2.92,.59,.37,2.22-1.08,3.39-1.74,.06-.03,.13-.07,.2-.11h.01l.21-.12h.01s.03-.02,.04-.03h.01c.31-.18,.64-.38,.99-.6,.16-.1,.32-.2,.48-.31,.37-.24,.75-.5,1.16-.79,.47-.32,.97-.67,1.49-1.04,.03-.02,.05-.04,.08-.06,.02-.01,.04-.03,.06-.04,6.11-4.43,14.33-11.19,16.08-9.97,.75,.52,.73,1.51,.22,2.78l-.28-.1c-9.88,12.91-15.07,14-14.05,16.2,.69,1.5,2.86,2.02,2.8,3.36-.08,1.77-4.71,4.12-8.09,4.93l-.11,.05c-.65-1.29-1.48-2.52-2.45-3.64-.02-.03-.05-.05-.07-.08,0-.01-.01-.01-.01-.02Zm3.1-3.93c1.07-1.4,1.84-2.86,1.4-3.38-.63-.74-4.06,1.66-5.56,2.95h-.01c-.26,.23-.46,.42-.58,.55-.83,.95,.31,2.79,1.22,2.96,.03,.01,.07,.01,.12,.01,.03,0,.06-.01,.09-.02v.03c.02,.63,.42,1.26,.91,1.13,1.63-.6,2.92-1.31,2.81-1.76-.08-.35-.91-.55-2.04-.53-.04,0-.07,0-.11,.01l.02-.02c.57-.54,1.19-1.23,1.72-1.93h.01Z"/><path class="o" d="M239.99,270.87l.28,.1c-1.3,3.27-5.81,8.38-8.8,12.09,0,0-.02,.02-.02,.03l-.03,.03s-.06,.08-.1,.12c-1.57,1.98-2.69,3.54-2.59,4.15,.33,2,4.16-.28,4.59,2.44,.02,.11,0,.24-.04,.38,0,.02,0,.04-.01,.06-.01,.04-.03,.08-.05,.12-.11,.29-.34,.63-.67,.99-1.71,1.96-6.1,4.73-11.25,5.76-.21-.58-.47-1.16-.76-1.73l.11-.05c3.38-.81,8.01-3.16,8.09-4.93,.06-1.34-2.11-1.86-2.8-3.36-1.02-2.2,4.17-3.29,14.05-16.2Z"/><path class="o" d="M239.71,241.15l-.6,1.9c-.78,0-1.45,3.32-2.19,3.26-.42-.03-1.68-3.72-.88-6.68l.04-.1c1.22,.51,2.43,1.06,3.63,1.62Z"/><path class="o" d="M239.07,289.93c.2,1.08,.2,2.21,.2,3.34,0,2.45,0,4.74-2,6.7-1.7,1.67-4.87,3.1-10.74,4.18h0c1.65-1.19,1.4-5.14,.09-6.61,6.04-1.11,9.19-2.61,10.84-4.36l.09-.09c.89-.97,1.32-2.04,1.52-3.15h0Z"/><path class="o" d="M239.07,289.93h0c-.2,1.12-.63,2.19-1.52,3.16-.03-.03-.06-.07-.09-.1-.86-.91-2.13-1.75-4.01-2.51-.07-.03-.15-.06-.23-.09,.02-.04,.04-.08,.05-.12,.01-.02,.01-.04,.01-.06,.04-.14,.06-.27,.04-.38-.43-2.72-4.26-.44-4.59-2.44-.1-.61,1.02-2.17,2.59-4.15,.35,.11,.67,.21,.99,.32,4.84,1.65,6.31,3.9,6.76,6.37Z"/><path class="o" d="M226.62,297.54c-1.48,.27-3.12,.52-4.97,.75l-.02-.14c-.1-.34-.21-.68-.33-1.01,5.15-1.03,9.54-3.8,11.25-5.76,.33-.36,.56-.7,.67-.99,.08,.03,.16,.06,.23,.09,1.88,.76,3.15,1.6,4.01,2.51,.03,.03,.06,.07,.09,.1l-.09,.09c-1.65,1.75-4.8,3.25-10.84,4.36Z"/><path class="o" d="M228.56,305.79c-4.65,.83-11.21,1.33-18.18,1.5-8.75,.2-18.12-.13-25.1-1.02,1.16,.02,2.34,.02,3.56,.02,18.55,0,30.28-.79,37.69-2.14,5.87-1.08,9.04-2.51,10.74-4.18l.05,.05c0,8.1,0,15.39-6.99,20.49-.9,.66-1.91,1.28-3.05,1.86-.03,.01-.06,.03-.09,.04l-.26,.2c-1.3-1.68-2.57-3.3-3.82-4.82,.36-.34,.71-.71,1.04-1.08,2.9-3.25,4.01-7.81,4.41-10.92Z"/><path class="o" d="M235.25,216.46c1.07,7.56-1.95,14.33-7.46,19.86-1.98-.68-3.95-1.3-5.9-1.84,1.68-2.03,3.1-4.11,4.15-6.15,.35-.68,.66-1.39,.94-2.12,.7-.58,1.07-1.27,.99-1.96-.03-.21-.09-.41-.21-.6,2.21-8.87-.09-20.3-2.8-30.56-6.43-1.09-14.46-1.64-23.08-1.82,1.05-.61,1.82-1.3,1.75-1.82-.11-.81-2.25-1.48-4.01-.94-1.48,.45-2.49,1.68-2.88,2.7-8.14-.04-16.6,.21-24.57,.61-.11-.77-.42-1.58-.96-2.23,17.93-3.06,36.42-5.7,53.06-7.5h0c5.33,9.1,8.49,19.81,10.27,29.9,.27,1.51,.5,3,.71,4.47Z"/><path class="o" d="M226.93,322.61l.26-.2s.06-.03,.09-.04c1.14-.58,2.15-1.2,3.05-1.86,.01,2.3-.5,5.35-2.27,7.11-.84,.96-1.87,1.77-3.04,2.42-6.46,3.66-17,2.83-21.62-.14h0c11.8,1.54,22.66-3.03,16.74-15.6,.98,1.07,1.97,2.25,2.97,3.49,1.25,1.52,2.52,3.14,3.82,4.82Z"/><path class="o" d="M227.97,224.25c.08,.69-.29,1.38-.99,1.96,.31-.82,.57-1.68,.78-2.56,.12,.19,.18,.39,.21,.6Z"/><path class="o" d="M219.3,204.62c-2.29-4.61-6.81-8.35-10.29-7.51-2.12,.51-4.2,2.39-5.95,4.85h0c-3.25,4.6-5.34,11.19-4.3,14.59,.04,.15,.09,.29,.15,.43,1,2.38,5.7,3.13,10.48,2.43,4.81-.72,9.7-2.9,10.94-6.37,.93-2.59,.35-5.66-1.02-8.42Zm-36.5,25.84c-2.14,.07-4.25-.28-6.06-.33-1.91-.08-3.49,.16-4.44,1.52-1.7,2.43,1.05,4.47,4.98,5.57,.53,.15,1.09,.28,1.66,.39l-.36,1.66h-.03c-.29-.04-.56,0-.83,.15-1.3,.72-.52,6,.5,11.65l.03,.15c-21.31-1.85-41.63-11.51-42.31-28.92-.05-1.3,.01-2.63,.18-4.01,.93-7.37,2.4-15.38,4.93-23.05,2.97-.61,6-1.22,9.08-1.82h.02c4.9-.47,10.63-.93,16.8-1.31,1.52,1.48,3.87,2.74,4.72,2.14,.46-.32,.67-1.33,.5-2.43,7.97-.4,16.43-.65,24.57-.61-.24,.58-.27,1.09-.07,1.34,.56,.69,3.34-.18,5.21-1.28,8.62,.18,16.65,.73,23.08,1.82,2.71,10.26,5.01,21.69,2.8,30.56-.69-1.26-3.02-1.98-5.66-1.66-3.04,.37-5.35,1.98-5.15,3.6,.19,1.61,2.82,2.62,5.86,2.25,1.74-.21,3.24-.83,4.17-1.63-.28,.73-.59,1.44-.94,2.12-1.05,2.04-2.47,4.12-4.15,6.15-8.49-2.41-16.6-3.58-23.03-3.15,1.54-1.96,1.95-3.96,.53-5.42-2.38-2.45-4.86-1.11-7.73,.74-2.16,1.38-4.53,3.05-7.24,3.62-.53,.11-1.07,.17-1.62,.19Zm9.6-16.77c-.01-2.16-18.16-.05-18.35,2.04-.14,1.57,4.63,2.33,8.35,2.33,4.44,0,10-2.67,10-4.37Zm-9.55,10.7c2.64-.16,4.33-1.82,3.74-3.28-.16-.39-1.04-.53-2.16-.53-2.03,.01-4.82,.55-5.21,1.02-.57,.7,1.07,2.41,2.86,2.74,.26,.05,.51,.07,.77,.05Zm-14.22-6.75c1.15-3.34-1.4-10.15-5.09-14.71h0c-1.89-2.35-4.09-4.11-6.25-4.48-3.36-.58-7.4,3.05-9.5,7.51-1.42,3.01-1.94,6.4-.77,9.12,1.47,3.37,6.48,5.24,11.32,5.64,4.81,.41,9.46-.64,10.3-3.08Zm-14.58,11.03c0-1.63-2.49-2.95-5.55-2.95s-5.55,1.32-5.55,2.95,2.48,2.94,5.55,2.94,5.55-1.32,5.55-2.94Z"/><path class="o" d="M228.56,305.79c-.4,3.11-1.51,7.67-4.41,10.92-.33,.37-.68,.74-1.04,1.08-1-1.24-1.99-2.42-2.97-3.49h0c-3.56-3.97-6.81-6.58-9.74-6.36l-.02-.65c6.97-.17,13.53-.67,18.18-1.5Z"/><path class="o" d="M227.76,223.65c-.21,.88-.47,1.74-.78,2.56-.93,.8-2.43,1.42-4.17,1.63-3.04,.37-5.67-.64-5.86-2.25-.2-1.62,2.11-3.23,5.15-3.6,2.64-.32,4.97,.4,5.66,1.66Z"/><path class="o" d="M185.28,306.27c-6.5-.03-12.1-.17-16.92-.41-17.8-.87-25.02-3.02-27.94-5.89-2-1.96-2-4.25-2-6.7v-.68c0-.35,0-.7,.01-1.04,.02-.54,.06-1.06,.14-1.58h.03c.22,1.11,.65,2.15,1.54,3.13,.02,.03,.05,.06,.08,.09,2.04,2.15,6.37,3.92,15.59,5.06,2.86,.36,6.18,.65,10.05,.88h0c.91,.06,1.85,.11,2.82,.16,3.19,.15,6.71,.26,10.61,.33,.74,.01,1.49,.02,2.26,.03,2.3,.03,4.73,.04,7.29,.04,2.1,0,4.1-.01,6.03-.03,1.23,0,2.42-.02,3.58-.04,1.27-.03,2.49-.05,3.68-.08,.7-.02,1.39-.04,2.06-.07,1.17-.03,2.3-.07,3.39-.12,.17-.01,.34-.01,.51-.02l.57-.03c5.15-.24,9.43-.58,12.99-1.01,1.85-.23,3.49-.48,4.97-.75,1.31,1.47,1.56,5.42-.09,6.6h0c-7.41,1.36-19.14,2.15-37.69,2.15-1.22,0-2.4,0-3.56-.02Z"/><path class="o" d="M201.62,157.74c3.54,2,6.15,3.55,8.68,5.02,.65,.69,1.47,1.19,2.49,1.46h.01c2.16,1.25,4.46,2.53,7.41,4.09,0-.02,.03-.03,.04-.04,2.07,1.98,3.95,4.19,5.6,6.62l.06,.84c-1.9,.12-3.82,.27-5.76,.44-.02-.03-.04-.05-.05-.08-4.97-8.74-23.98-19.83-38.77-19.86,6.89-.87,13.83-.34,20.29,1.51Z"/><path class="o" d="M196.54,327.94c.39-.06,2.15-.2,4.67-.61,.05,.21,.13,.41,.24,.61,.38,.72,1.05,1.38,1.95,1.96,4.62,2.97,15.16,3.8,21.62,.14,.65,3.93-.05,10.31-.48,14.44-1.68,15.98-3.73,34.15-6.33,44.95-1.97,.61-3.6,1.08-5.05,1.41,1.41-4.56,2.51-10.31,3.36-16.51,.17-.27,.27-.57,.27-.87,0-.17-.03-.33-.09-.49,1.66-12.61,2.32-26.83,2.46-36.63h0c-16.17-.01-15.28-2.78-18.33-4.12-2.84-1.25-17.68-2.05-24-2.61,.47-.49,.8-1.02,.95-1.58,0-.01,0-.02,0-.03,.01-.02,.01-.05,.02-.07,3.37,.22,7.03,.16,11.04,.16,2.01,0,3.93-.03,5.78-.08,.67-.02,1.3-.04,1.91-.07Z"/><path class="o" d="M222.51,284.36c.44,.52-.33,1.98-1.4,3.38h-.01c-.53,.7-1.15,1.39-1.72,1.93l-.02,.02c-.21,.01-.44,.02-.67,.04-.69,.02-.93,.54-.9,1.08-.03,0-.06,.02-.09,.02-.05,0-.09,0-.12-.01-.91-.17-2.05-2.01-1.22-2.96,.12-.13,.32-.32,.58-.55h.01c1.5-1.29,4.93-3.69,5.56-2.95Z"/><path class="o" d="M222.07,274.6c.67,1.32,1.27,2.56,1.76,3.66-.52,.37-1.02,.72-1.49,1.04-.21-.56-.45-1.15-.7-1.77,.17-.99,.31-1.97,.43-2.93Z"/><path class="o" d="M221.89,234.48c1.95,.54,3.92,1.16,5.9,1.84-6.12,6.16-15.34,10.78-25.47,13.24,6.64-2.85,14.34-8.73,19.57-15.08Z"/><path class="o" d="M215.51,273.26s.01-.01,.01-.02c.85-1.53,1.68-3.1,2.42-4.62h0c.14-.31,.28-.6,.42-.89h0c1.76-3.72,2.97-6.95,2.86-8,1.58,1.55,1.8,7.48,.88,14.67-.01,.06-.02,.13-.03,.19,0,0,.01,0,0,.01-.12,.96-.26,1.94-.43,2.93-.14,.85-.29,1.7-.46,2.56-.16,.11-.32,.21-.48,.31-.35,.22-.68,.42-.99,.6h-.01s-.03,.02-.04,.03h-.01l-.21,.12h-.01c-.07,.04-.14,.08-.2,.11-.72,.37-1.29,.57-1.67,.54-.73-.05-1.07-.49-1.23-1.08h-.01c-.06-.2-.1-.41-.12-.64-.01-.07-.02-.15-.03-.23-.06-.65-.05-1.34-.18-1.87-.12-.53-.37-.9-.94-.9-.45,0-1.12,.83-1.77,2.09-.02,.03-.03,.06-.05,.09h0c-.06,.11-.11,.2-.16,.31-.13,.27-.25,.56-.38,.86,0,.01-.01,.01-.01,.02-.21,.51-.41,1.05-.6,1.62l-.26-.08c-.15-.09-.3-.19-.44-.27-.36-.23-.7-.44-1.04-.65l.43-.69c.58-.69,1.23-1.51,1.85-2.42,.05-.07,.09-.13,.14-.2,.92-1.35,1.84-2.9,2.75-4.5Z"/><path class="o" d="M221.64,277.53c.25,.62,.49,1.21,.7,1.77-.41,.29-.79,.55-1.16,.79,.17-.86,.32-1.71,.46-2.56Z"/><path class="o" d="M221.63,298.15l.02,.14c-3.56,.43-7.84,.77-12.99,1.01l-.57,.03v-.1c5.83-2.01,11.17-4.55,9.93-7.54,.02,.03,.05,.05,.07,.08,.97,1.12,1.8,2.35,2.45,3.64,.29,.57,.55,1.15,.76,1.73,.12,.33,.23,.67,.33,1.01Z"/><path class="o" d="M221.51,290.21c.11,.45-1.18,1.16-2.81,1.76-.49,.13-.89-.5-.91-1.13v-.03c.36-.09,.94-.52,1.57-1.12,.04-.01,.07-.01,.11-.01,1.13-.02,1.96,.18,2.04,.53Z"/><path class="o" d="M221.22,259.73c.11,1.05-1.1,4.28-2.86,7.99h0c-.14,.3-.28,.59-.42,.89h0c-.74,1.53-1.57,3.1-2.42,4.63,0,0-.01,0-.01,.02-2.68-1.69-4.58-3.78-5.66-6.83,1.71-1.41,3.33-2.65,4.79-3.68,.04-.02,.07-.04,.11-.07,3.32-2.35,5.78-3.58,6.41-3.02,.03,.02,.05,.05,.06,.07Z"/><path class="o" d="M220.14,314.3c5.92,12.57-4.94,17.14-16.74,15.59h0c-.9-.57-1.57-1.23-1.95-1.95-.11-.2-.19-.4-.24-.61-.02-.04-.03-.08-.04-.12-2.21-5.07,2.92-18.27,8.87-19.22,.12-.02,.24-.03,.36-.05,2.93-.22,6.18,2.39,9.74,6.35h0Z"/><path class="o" d="M219.3,204.62c1.37,2.76,1.95,5.83,1.02,8.42-1.24,3.47-6.13,5.65-10.94,6.37h0c7.79-2.21,5.46-10.73,1.2-15.3,3.05-.75,6.18-.58,8.72,.51Z"/><path class="o" d="M220.1,176.09s.03,.05,.05,.08c0,0,0-.01-.01,0-.01-.03-.03-.05-.04-.08Z"/><path class="o" d="M220.1,176.09s.03,.05,.04,.08c-26.23,2.2-56.09,7.57-81.05,13.94l-.11-.43c3.22-7.83,7.65-14.23,12.85-19.28,.07,.07,.12,.12,.17,.18,2.9-1.77,4.94-3.06,6.72-4.23,.73-.47,1.42-.93,2.11-1.39,2.35-1.56,4.68-3.16,8.61-5.77,.02-.01,.03-.02,.05-.03,3.86-1.45,7.84-2.43,11.84-2.93,14.79,.03,33.8,11.12,38.77,19.86Z"/><path class="o" d="M218.69,289.73c.23-.02,.46-.03,.67-.04-.63,.6-1.21,1.03-1.57,1.12-.03-.54,.21-1.06,.9-1.08Z"/><path class="o" d="M219.16,336.33h0c-.14,9.81-.8,24.03-2.46,36.64-.47-1.4-2.98-2.46-6-2.46-3.37,0-6.1,1.32-6.1,2.95s2.73,2.94,6.1,2.94c2.73,0,5.04-.87,5.82-2.07-.85,6.2-1.95,11.95-3.36,16.51-4.65,1.09-7.43,.91-13.67,.25-.81-10.89-.51-29.01-3.21-30.41-.91-.47-1.96-.76-3.06-.9h0c-3.05-.44-6.45,.13-8.15,.64-1.53,.06-6.21,0-6.21,1.32,.05,6.54,.7,20.23-.73,29.66-4.82,.36-7.67,.03-14.14-1.97-1.73-7.49-4.25-20.57-9.18-43.88-.82-3.88-1.28-10.1-.61-14.65,.68,.37,1.4,.68,2.15,.95,7.2,2.63,17.26,1.12,20.49-2.24,6.32,.56,21.16,1.36,24,2.61,3.05,1.34,2.16,4.11,18.33,4.11Zm-41.58,38.25c0-1.63-2.62-2.95-5.86-2.95s-5.86,1.32-5.86,2.95,2.63,2.94,5.86,2.94,5.86-1.32,5.86-2.94Z"/><path class="o" d="M208.09,299.23v.1c-.17,.01-.34,.01-.51,.02v-.14c-2.26-3.01-5.75-5.11-9.93-7.01,.48-.62,.99-1.22,1.49-1.76h.01c1.58-1.72,3.16-2.98,4.67-3.57h.02c.15-.07,.29-.12,.44-.16,.03-.01,.07-.02,.1-.03,.12-.03,.23-.07,.35-.09,.09-.03,.19-.05,.28-.07,1.11-.26,2.21-.31,3.3-.21,.9,.07,1.78,.27,2.64,.55h.01c.09,.03,.19,.06,.28,.09,.32,.11,.64,.24,.96,.37,1.9,.84,3.66,2.1,5.16,3.65,.22,.22,.43,.45,.65,.7,0,.01,.01,.01,.01,.02,1.24,2.99-4.1,5.53-9.93,7.54Z"/><path class="o" d="M217.56,281.8c.38,.03,.95-.17,1.67-.54-1.17,.66-2.8,2.11-3.39,1.74-.58-.35,.35-1.83,.35-2.92h.01c.02,.23,.06,.44,.12,.64h.01c.16,.59,.5,1.03,1.23,1.08Z"/><path class="o" d="M216.7,372.97c.06,.16,.09,.32,.09,.49,0,.3-.1,.6-.27,.87,.07-.45,.13-.91,.18-1.36Z"/><path class="o" d="M221.89,234.48c-5.23,6.35-12.93,12.23-19.57,15.08t-.02,0c-1.47,.36-2.96,.67-4.47,.93-3.81,.67-7.7,1.03-11.57,1.05-.02-.05-.04-.09-.06-.14-2.36-5.25-5.26-11.74-7.62-12.14l.36-1.66c2.22,.45,4.66,.6,6.82,.39,2.92-.29,5.84-1.33,8.29-2.72,2.02-1.15,3.71-2.54,4.81-3.95,6.43-.43,14.54,.74,23.03,3.15Z"/><path class="o" d="M216.7,372.97c-.05,.45-.11,.91-.18,1.36-.78,1.2-3.09,2.07-5.82,2.07-3.37,0-6.1-1.32-6.1-2.94s2.73-2.95,6.1-2.95c3.02,0,5.53,1.06,6,2.46Z"/><path class="o" d="M219.3,204.62c-2.54-1.09-5.67-1.26-8.72-.51-2.38-2.56-5.38-3.89-7.52-2.15,1.75-2.46,3.83-4.34,5.95-4.85,3.48-.84,8,2.9,10.29,7.51Z"/><path class="o" d="M218.21,389.43c-1.25,5.24-2.65,8.75-4.19,9.43-2.75,1.21-5.04,2.01-7.37,1.95,2.68-.75,4.82-4.5,6.51-9.97,1.45-.33,3.08-.8,5.05-1.41Z"/><path class="o" d="M213.71,261.89c.3,.23,.61,.52,.93,.86-1.46,1.03-3.08,2.27-4.79,3.68-.72,.59-1.46,1.21-2.21,1.86-.02,.01-.03,.03-.05,.04,.03-2.81,.43-6.86,.82-8.29l.02-.08c2.03,.39,3.96,.92,5.28,1.93Z"/><path class="o" d="M215.51,273.26c-.91,1.6-1.83,3.15-2.75,4.5-.05,.07-.09,.13-.14,.2-.62,.91-1.27,1.73-1.85,2.42l-.43,.69c-.35-.23-.68-.44-1-.66-.08-.05-.15-.1-.22-.15h-.01c-1.39-.93-2.55-1.81-3.62-2.83,0-.01-.01-.01-.01-.02-.81-1.8-1.74-3.37-2.78-4.63,.37-.35,.73-.7,1.1-1.04l.06-.06c.84-.78,1.68-1.55,2.52-2.28,.04-.04,.08-.08,.12-.11,.36-.33,.73-.64,1.09-.95h0s.03-.04,.05-.05c.75-.65,1.49-1.27,2.21-1.86,1.08,3.05,2.98,5.14,5.66,6.83Z"/><path class="o" d="M211.82,281.99l.26,.08c-.49,1.54-.83,3.24-.84,4.78v.09h0c-.09-.02-.19-.05-.28-.08h-.01c-.86-.28-1.74-.48-2.64-.55-.47-2.12-1.03-4.15-1.7-6.02-.01-.05-.03-.1-.05-.15-.12-.34-.24-.67-.37-1-.22-.59-.46-1.16-.71-1.71v-.02s.01,.01,.01,.02c1.07,1.02,2.23,1.9,3.62,2.83h.01c.07,.05,.14,.1,.22,.15,.32,.22,.65,.43,1,.66,.34,.21,.68,.42,1.04,.65,.14,.08,.29,.18,.44,.27Z"/><path class="o" d="M211.91,132.08l.16,.05c-2.31,9.09-6.82,25.37-1.77,30.63-2.53-1.47-5.14-3.02-8.68-5.02,3.38-6.36,7.02-15.21,10.29-25.66Z"/><path class="o" d="M210.58,204.11c4.26,4.57,6.59,13.09-1.2,15.29h0c-4.78,.71-9.48-.04-10.48-2.42-.06-.14-.11-.28-.15-.43l.06-.02c.9-5.27,4.11-8.95,7.98-10.98,.16,.26,.45,.43,.78,.43,.51,0,.93-.42,.93-.93,0-.09-.01-.18-.04-.27,.7-.28,1.4-.5,2.12-.67Z"/><path class="o" d="M210.38,307.29l.02,.65c-.12,.02-.24,.03-.36,.05-5.95,.95-11.08,14.15-8.87,19.22,.01,.04,.02,.08,.04,.12-2.52,.41-4.28,.55-4.67,.61-.61,.03-1.24,.05-1.91,.07-1.85,.05-3.77,.08-5.78,.08-4.01,0-7.67,.06-11.04-.16,1.63-3.74-.74-11.92-4.5-16.33-.64-.76-1.33-1.4-2.04-1.89-.75-.52-1.53-.87-2.33-1-.24-.04-.48-.06-.72-.06l.14-2.79c4.82,.24,10.42,.38,16.92,.41,6.98,.89,16.35,1.22,25.1,1.02Z"/><path class="o" d="M210.58,204.11c-.72,.17-1.42,.39-2.12,.67-.12-.38-.47-.65-.89-.65-.51,0-.93,.41-.93,.92,0,.18,.05,.35,.15,.5-3.87,2.03-7.08,5.71-7.98,10.98l-.06,.02c-1.04-3.4,1.05-9.99,4.3-14.58h0c2.14-1.75,5.14-.42,7.52,2.14Z"/><path class="o" d="M208.46,204.78c.03,.09,.04,.18,.04,.27,0,.51-.42,.93-.93,.93-.33,0-.62-.17-.78-.43,.54-.3,1.1-.55,1.67-.77Z"/><path class="o" d="M208.43,259.96l-.02,.08c-.39,1.43-.79,5.48-.82,8.29h0c-.36,.32-.73,.63-1.09,.96-.04,.03-.08,.07-.12,.11-.17-.05-.35-.07-.53-.07-.58,0-1.1,.24-1.48,.62-.22-1.99,.09-8.37,.66-10.45l.02-.12c1.1,.18,2.25,.36,3.38,.58Z"/><path class="o" d="M208.31,286.31c-1.09-.1-2.19-.05-3.3,.21l-.02-.09c-.42-1.29-1.38-6.89-5.45-12.67-2.07-2.95-6.58-3.83-10.26-4.13l-.03-.1c1.67-.42,3.39-.61,5.04-.55,.35,.02,.7,.04,1.05,.08,1.56,.17,3.05,.57,4.35,1.22,.58,.29,1.14,.67,1.67,1.12,.05,.05,.11,.09,.16,.15h.01c.41,.36,.79,.77,1.17,1.23,1.04,1.26,1.97,2.83,2.78,4.63v.02c.25,.55,.49,1.12,.71,1.71,.13,.33,.25,.66,.37,1,.02,.05,.04,.1,.05,.15,.67,1.87,1.23,3.9,1.7,6.02Z"/><path class="o" d="M207.57,204.13c.42,0,.77,.27,.89,.65-.57,.22-1.13,.47-1.67,.77-.1-.15-.15-.32-.15-.5,0-.51,.42-.92,.93-.92Z"/><path class="o" d="M207.58,299.21v.14c-1.09,.05-2.22,.09-3.39,.12-.67,.03-1.36,.05-2.06,.07v-.14l-.02-.02c-.47-.44-.95-.87-1.43-1.3-.56-.5-1.12-1-1.69-1.48-.94-.82-1.9-1.61-2.86-2.38,.38-.54,.76-1.05,1.14-1.54,.12-.16,.25-.32,.38-.48,4.18,1.9,7.67,4,9.93,7.01Z"/><path class="o" d="M199.49,391.09c6.24,.66,9.02,.84,13.67-.25-1.69,5.47-3.83,9.22-6.51,9.97h-.01c-1.7-.03-3.44-.53-5.41-1.65-.93-.54-1.42-3.73-1.74-8.07Z"/><path class="o" d="M205.85,269.33c.18,0,.36,.02,.53,.07-.84,.73-1.68,1.5-2.52,2.28l-.06,.06s-.01-.05-.01-.07c0-.09-.02-.17-.02-.26,0-.57,.23-1.08,.6-1.46,.38-.38,.9-.62,1.48-.62Z"/><path class="o" d="M205.05,259.38l-.02,.12c-.57,2.08-.88,8.46-.66,10.45-.37,.38-.6,.89-.6,1.46,0,.09,.01,.17,.02,.26h-.02c-.72-.05-1.46-.09-2.24-.12h-.01c-.05-.06-.11-.1-.16-.15-.53-.45-1.09-.83-1.67-1.12-1.3-.65-2.79-1.05-4.35-1.22,1.79-6.68,.29-13.54-1.22-14.01-.22-.07-.42-.1-.61-.1l-.09-.71c1.39-.19,2.91-.45,4.76-.81h.01c.25,1.05,.63,2.15,1.12,3.4,.61,1.52,2.98,2.08,5.74,2.55Z"/><path class="o" d="M182.42,286.52h-.01c-.28-.05-.55-.09-.82-.12h-.09l-.3-.03h-.06c-.33-.02-.64-.01-.95,.02-.01,0-.02,0-.03,.01-.03,0-.08,0-.11,.02h-.02c-.11,.01-.21,.02-.32,.04-.01-.01-.01-.03-.01-.04h-.01c-.14-.36-.27-.7-.39-1.04-.51-1.43-.83-2.76-.92-3.96-.03-.47-.03-.92,.02-1.34,0-.05,0-.09,.01-.14,.01-.12,.03-.23,.05-.34,.04-.21,.08-.42,.12-.62,.45-1.88,1.39-3.53,2.66-4.91,.16-.17,.32-.34,.49-.5h.01c2-1.97,4.68-3.34,7.51-4.04l.03,.1c3.68,.3,8.19,1.18,10.26,4.13,4.07,5.78,5.03,11.38,5.45,12.67l.02,.09c-.09,.02-.19,.04-.28,.07-.12,.02-.23,.06-.35,.09-.03,.01-.07,.02-.1,.03-.15,.04-.29,.09-.44,.16h-.02c-1.51,.59-3.09,1.85-4.67,3.57h-.01c-.5,.54-1.01,1.14-1.49,1.76-.13,.16-.26,.32-.38,.48-.38,.49-.76,1-1.14,1.54-2.37-1.87-4.73-3.57-6.97-4.88-.41-.24-.82-.47-1.22-.68-1.68-.91-3.28-1.59-4.72-1.96-.28-.08-.53-.14-.8-.18Z"/><path class="o" d="M203.79,271.67s.01,.05,.01,.07c-.37,.34-.73,.69-1.1,1.04-.38-.46-.76-.87-1.17-1.23,.78,.03,1.52,.07,2.24,.12h.02Z"/><path class="o" d="M203.63,189.45c.07,.52-.7,1.21-1.75,1.82-1.69-.04-3.41-.06-5.14-.06,.39-1.02,1.4-2.25,2.88-2.7,1.76-.54,3.9,.13,4.01,.94Z"/><path class="o" d="M202.13,299.4v.14c-1.19,.03-2.41,.05-3.68,.08-1.16,.02-2.35,.03-3.58,.04v-.09c.05-.09,.08-.17,.11-.26,.72-2.44-3.32-6.34-8.21-9.17,.32-.38,.65-.76,.99-1.15l.18-.33c.4,.21,.81,.44,1.22,.68,2.24,1.31,4.6,3.01,6.97,4.88,.96,.77,1.92,1.56,2.86,2.38,.57,.48,1.13,.98,1.69,1.48,.48,.43,.96,.86,1.43,1.3l.02,.02Z"/><path class="o" d="M199.39,225.91c1.42,1.46,1.01,3.46-.53,5.42-1.1,1.41-2.79,2.8-4.81,3.95h0c.28-1.16-1.42-6.96-2.39-8.63,2.87-1.85,5.35-3.19,7.73-.74Z"/><path class="o" d="M198.19,253.43h-.01c-1.85,.36-3.37,.62-4.76,.81-2.01,.26-3.75,.35-5.79,.29-.43-.89-.88-1.91-1.37-2.98,3.87-.02,7.76-.38,11.57-1.05v.02c0,1,.12,1.94,.36,2.91Z"/><path class="o" d="M201.88,191.27c-1.87,1.1-4.65,1.97-5.21,1.28-.2-.25-.17-.76,.07-1.34,1.73,0,3.45,.02,5.14,.06Z"/><path class="o" d="M194.12,255.05c1.51,.47,3.01,7.33,1.22,14.01-.35-.04-.7-.06-1.05-.08v-.2c.62-3.42,.48-9.35-1.11-10.14-1.2-.59-2.55,1.19-4.2,1.22-2.42,.05-2.59-6.34-10.43-20.59h.03c2.36,.4,5.26,6.89,7.62,12.14,.02,.05,.04,.09,.06,.14,.49,1.07,.94,2.09,1.37,2.98,.94,1.98,1.73,3.38,2.27,3.55,1.78,.55,1.63-3.13,3.61-3.13,.19,0,.39,.03,.61,.1Z"/><path class="o" d="M186.77,290.14c4.89,2.83,8.93,6.73,8.21,9.17-.03,.09-.06,.17-.11,.26v.09c-1.93,.02-3.93,.03-6.03,.03-2.56,0-4.99-.01-7.29-.04v-.14c.74-3.28,2.66-6.31,5.22-9.37Z"/><path class="o" d="M193.18,258.64c1.59,.79,1.73,6.72,1.11,10.14v.2c-1.65-.06-3.37,.13-5.04,.55-2.83,.7-5.51,2.07-7.51,4.03h-.01c-.17,.17-.33,.34-.49,.51-1.03-.26-2.03-.98-2.92-1.89-.69-.7-1.32-1.51-1.85-2.32h0c-1.26-1.91-2.02-3.8-1.87-4.09,.53-1.07,1.89-.17,3.16,.29,.01,0,.03,.02,.04,.02,.06,.02,.13,.04,.19,.06,0,.01,.01,.01,.02,.01,.94,.54,2.09,1.57,2.59,1.22,.61-.42-.23-2.26-.3-3.57h-.11c-.02-1.14-.21-2.68-.49-4.43-.01-.04-.01-.08-.02-.12-.38-2.44-.93-5.28-1.42-8.03l-.03-.15c-1.02-5.65-1.8-10.93-.5-11.65,.27-.15,.54-.19,.83-.15,7.84,14.25,8.01,20.64,10.43,20.59,1.65-.03,3-1.81,4.2-1.22Zm-3.36,9.36c-.15-1.74-.5-3.17-.96-3.18-.36,0-.76,.72-1.04,1.8-1.26-2.15-3.42-4.79-4.31-4.38-1.04,.48,1.1,5.84,1.77,6.85,.69,1.05,3.02,.83,3.42,0,.05-.1,.05-.26,.01-.47,.56,.04,1.11-.18,1.11-.62Z"/><path class="o" d="M191.66,226.65c.97,1.67,2.67,7.47,2.39,8.62h0c-2.45,1.4-5.37,2.44-8.29,2.73,.28-1.15-.36-6.06-1.34-7.73,2.71-.57,5.08-2.24,7.24-3.62Z"/><path class="o" d="M193.42,254.24l.09,.71c-1.98,0-1.83,3.68-3.61,3.13-.54-.17-1.33-1.57-2.27-3.55,2.04,.06,3.78-.03,5.79-.29Z"/><path class="o" d="M188.86,264.82c.46,.01,.81,1.44,.96,3.18,0,.44-.55,.66-1.11,.62-.1-.47-.43-1.2-.89-1.99h0c.28-1.09,.68-1.82,1.04-1.81Z"/><path class="o" d="M174.05,215.73c.19-2.09,18.34-4.2,18.35-2.04,0,1.7-5.56,4.37-10,4.37-3.72,0-8.49-.76-8.35-2.33Z"/><path class="o" d="M188.71,268.62c.04,.21,.04,.37-.01,.47-.4,.83-2.73,1.05-3.42,0-.67-1.01-2.81-6.37-1.77-6.85,.89-.41,3.05,2.23,4.31,4.38h0c-.07,.26-.12,.52-.17,.8-.18,.77,.44,1.15,1.06,1.2Z"/><path class="o" d="M187.94,288.66l-.18,.33c-.34,.39-.67,.77-.99,1.15h-.01c-2.85-1.65-5.99-2.92-8.64-3.31h0c.32-.11,.64-.19,.97-.26h.02c.2-.05,.4-.08,.6-.11,.11-.02,.21-.03,.32-.04h.02s.08-.02,.11-.02c.01-.01,.02-.01,.03-.01,.31-.03,.62-.04,.95-.02h.06l.3,.03h.09c.27,.03,.54,.07,.82,.12h.01c.27,.04,.52,.1,.8,.18,1.44,.37,3.04,1.05,4.72,1.96Z"/><path class="o" d="M187.82,266.63c.46,.79,.79,1.52,.89,1.99-.62-.05-1.24-.43-1.06-1.2,.05-.28,.1-.54,.17-.79Z"/><path class="o" d="M173.02,290.12c.29-.32,.6-.62,.92-.9,1.11-.98,2.37-1.75,3.76-2.25t.02-.01c.12-.05,.24-.09,.36-.13,.01,0,.02-.01,.03-.01h.01c2.65,.4,5.79,1.67,8.64,3.32h.01c-2.56,3.06-4.48,6.09-5.22,9.37v.14c-.77-.01-1.52-.02-2.26-.03-3.9-.07-7.42-.18-10.61-.33v-.17c.57-3.3,2.08-6.59,4.34-9Z"/><path class="o" d="M186.59,221.11c.59,1.46-1.1,3.12-3.74,3.28-.26,.02-.51,0-.77-.05,2.49-.1,2.8-2.86,2.35-3.7v-.06c1.12,0,2,.14,2.16,.53Z"/><path class="o" d="M184.42,230.27c.98,1.67,1.62,6.58,1.34,7.73-2.16,.21-4.6,.06-6.82-.39-.57-.11-1.13-.24-1.66-.39,.28-1.15,.44-5.4-.54-7.09,1.81,.05,3.92,.4,6.06,.33,.55-.02,1.09-.08,1.62-.19Z"/><path class="o" d="M184.43,220.64c.45,.84,.14,3.6-2.35,3.7-1.79-.33-3.43-2.04-2.86-2.74,.39-.47,3.18-1.01,5.21-1.02v.06Z"/><path class="o" d="M185.06,360.42c-.79,.23-1.32,1.4-1.68,3.2-1.18,5.89-.44,18.58-.58,27.33-1.8,.19-3.32,.35-4.68,.45,1.43-9.43,.78-23.12,.73-29.66,0-1.32,4.68-1.26,6.21-1.32Z"/><path class="o" d="M182.8,390.95c-.07,4.88-.42,8.53-1.52,9.12-2.77,1.5-5.63,1.65-8.17,1.21,2.69-.47,4.19-4.47,5.01-9.88,1.36-.1,2.88-.26,4.68-.45Z"/><path class="o" d="M180.29,263.8c.07,1.31,.91,3.15,.3,3.57-.5,.35-1.65-.68-2.59-1.22,.77,.23,1.48,.24,1.94-.53,.2-.34,.27-.97,.24-1.82h.11Z"/><path class="o" d="M180.18,263.8c.03,.85-.04,1.48-.24,1.82-.46,.77-1.17,.76-1.94,.53-.01,0-.02,0-.02-.01-.08-.04-.16-.08-.23-.12-.12-2.33-.36-4.85-.68-6.01,.98-.17,1.87-.37,2.62-.64,.28,1.75,.47,3.29,.49,4.43Z"/><path class="o" d="M179.7,286.42s0,.03,.01,.04c-.2,.03-.4,.06-.6,.11h-.02c-.68,.01-1.35,.02-2.01,.04-.36,.01-.71,.02-1.06,.03-1.18,.03-2.33,.06-3.43,.1-.03-.05-.06-.09-.09-.14-1.9-2.79-4.59-5.11-5.62-5.11l-.06-1c.16-.01,.33-.02,.49-.03s.32-.02,.49-.02c.97-.05,1.98-.1,3.02-.14,1.81-.07,3.73-.13,5.75-.18,.6-.01,1.21-.03,1.83-.04-.05,.42-.05,.87-.02,1.34,.09,1.2,.41,2.53,.92,3.96,.12,.34,.25,.68,.39,1.04h.01Z"/><path class="o" d="M177.08,286.61c.66-.02,1.33-.03,2.01-.04-.33,.07-.65,.15-.97,.25h-.01s-.02,.01-.03,.01c-.12,.04-.24,.08-.36,.13t-.02,.01c-1.39,.5-2.65,1.27-3.76,2.25-.34-.83-.81-1.67-1.35-2.48,1.1-.04,2.25-.07,3.43-.1,.35-.01,.7-.02,1.06-.03Z"/><path class="o" d="M181.24,274.07c-1.27,1.38-2.21,3.03-2.66,4.91-.04,.2-.08,.41-.12,.62-.02,.11-.04,.22-.05,.34-.01,.05-.01,.09-.01,.14-.62,.01-1.23,.03-1.83,.04-2.02,.05-3.94,.11-5.75,.18-.05-.57-.12-1.23-.21-1.94,2-.79,4.21-2.87,4.7-4.57,.28,.14,.6,.22,.94,.22,1.06,0,1.94-.8,2.07-1.83,.89,.91,1.89,1.63,2.92,1.89Z"/><path class="o" d="M173.31,311.6c3.76,4.41,6.13,12.59,4.5,16.33,0,.02,0,.05-.02,.07,0,.01,0,.02,0,.03-.15,.56-.48,1.09-.95,1.58-3.23,3.36-13.29,4.87-20.49,2.24,10.16,.39,16.69-2.26,17.06-10.64h0c1.36-2.53,.69-6.22-.23-9.49l.14-.12Z"/><path class="o" d="M177.75,266.02v.04c-1.27-.46-2.63-1.36-3.16-.29-.15,.29,.61,2.18,1.87,4.09-.07-.01-.14-.01-.21-.01-.77,0-1.43,.41-1.8,1.03,.25-2.26-.26-8.46-.76-10.32h0c1.16-.2,2.32-.36,3.38-.55,.32,1.16,.56,3.68,.68,6.01Z"/><path class="o" d="M176.74,230.13c.98,1.69,.82,5.94,.54,7.09-3.93-1.1-6.68-3.14-4.98-5.57,.95-1.36,2.53-1.6,4.44-1.52Z"/><path class="o" d="M175.31,273.79c-.67-.34-1.14-1.05-1.14-1.86,0-.38,.1-.74,.28-1.05,.37-.62,1.03-1.03,1.8-1.03,.07,0,.14,0,.21,.01h0c.53,.81,1.16,1.62,1.85,2.32-.13,1.03-1.01,1.83-2.07,1.83-.34,0-.66-.08-.94-.22Z"/><path class="o" d="M171.72,371.63c3.24,0,5.86,1.32,5.86,2.95s-2.62,2.94-5.86,2.94-5.86-1.32-5.86-2.94,2.63-2.95,5.86-2.95Z"/><path class="o" d="M163.98,389.43c6.47,2,9.32,2.33,14.14,1.97-.82,5.41-2.32,9.41-5.01,9.88-1.61-.27-3.1-.78-4.35-1.34-2-.89-2.94-2.54-4.78-10.51Z"/><path class="o" d="M173.69,260.56c.5,1.86,1.01,8.06,.76,10.32-.18,.31-.28,.67-.28,1.05,0,.81,.47,1.52,1.14,1.86-.49,1.7-2.7,3.78-4.7,4.57-.27-2.12-.69-4.67-.82-6.36-.23,1.74-.87,4.16-1.49,6.51-.17,.65-.34,1.3-.5,1.93-.17,0-.33,.01-.49,.02s-.33,.02-.49,.03c-5.22,.29-9.48,.69-12.95,1.2h0c1.15-2.71,9.37-16.15,12.99-18.89,1.68-1.27,4.27-1.83,6.83-2.24Z"/><path class="o" d="M173.17,311.72c.92,3.27,1.59,6.96,.23,9.48,.14-3.04-.53-6.83-2.13-11.49,.71,.49,1.4,1.13,2.04,1.89l-.14,.12Z"/><path class="o" d="M173.94,289.22c-.32,.28-.63,.58-.92,.9h-.01c-.96-2.86-3.27-5.62-4.38-5.18-1.25,.48-.31,2.79-1.3,4.09-1.32,1.73-8.79-2.53-21.32-5.78-1.43-.37-2.91-.72-4.47-1.05,1.26-.09,3.23,.21,5.52,.72,.09,.02,.17,.04,.26,.06h.01c.42,.09,.85,.19,1.3,.3,1.8,.42,3.72,.93,5.62,1.42,2.92,.77,5.78,1.52,7.98,1.94h.01c.94,.18,1.75,.31,2.41,.35,.59,.04,1.05,.02,1.36-.09,.05-.01,.09-.03,.13-.05,2.21-1.09-1.31-4.57,.55-5.33,.05-.02,.12-.03,.19-.03,1.03,0,3.72,2.32,5.62,5.11,.03,.05,.06,.09,.09,.14,.54,.81,1.01,1.65,1.35,2.48Z"/><path class="o" d="M152.11,323.24c4.54-5.83,8.68-11.03,12.39-13.33h0c1.29-.81,2.53-1.26,3.72-1.26,.24,0,.48,.02,.72,.06,.8,.13,1.58,.48,2.33,1,1.6,4.66,2.27,8.45,2.13,11.49h0c-.37,8.39-6.9,11.04-17.06,10.65-.75-.27-1.47-.58-2.15-.95-1.26-.69-2.38-1.53-3.28-2.56-1.74-1.73-2.25-4.68-2.26-6.96,.93,.58,1.97,1.13,3.13,1.63,.03,.02,.06,.04,.09,.04l.24,.19Z"/><path class="o" d="M173.01,290.11h.01c-2.26,2.42-3.77,5.71-4.33,9.01v.17c-.98-.05-1.92-.1-2.83-.15h0c-3.87-.24-7.19-.53-10.05-.89l.02-.14c.51-.24,1.06-.43,1.47-.67,1.06-.37,2.96-.28,3-.89,.05-.75-3.68-1.54-4.75-2.3l-.02,.03c-1.63-.98-3.93-2.18-6.25-3.45-.76-.41-1.51-.84-2.25-1.27-.05-.03-.11-.06-.16-.09-1.18-.68-2.3-1.37-3.29-2.04-.93-.63-1.73-1.25-2.34-1.84l-.05-.05c-1.07-1.05-1.54-2.02-1.01-2.83,.21-.31,.68-.47,1.36-.51,1.56,.33,3.04,.68,4.47,1.05,12.53,3.25,20,7.51,21.32,5.78,.99-1.3,.05-3.61,1.3-4.09,1.11-.44,3.42,2.32,4.38,5.17Zm-4.9,6.03c1.26,.04,2.43-1.98,1.98-2.79-.54-.98-8.32-1.2-8.59,.26-.21,1.13,5.4,2.49,6.61,2.53Z"/><path class="o" d="M172.17,191.82c.17,1.1-.04,2.11-.5,2.43-.85,.6-3.2-.66-4.72-2.14,1.71-.1,3.45-.19,5.22-.29Z"/><path class="o" d="M171.21,189.59c.54,.65,.85,1.46,.96,2.23-1.77,.1-3.51,.19-5.22,.29-.54-.52-.97-1.07-1.19-1.57h0c1.81-.33,3.63-.65,5.45-.95Z"/><path class="o" d="M170.61,278.36c.09,.71,.16,1.37,.21,1.94-1.04,.04-2.05,.09-3.02,.14,.16-.63,.33-1.28,.5-1.93,.62,.29,1.45,.19,2.31-.15Z"/><path class="o" d="M169.79,272c.13,1.69,.55,4.24,.82,6.36-.86,.34-1.69,.44-2.31,.15,.62-2.35,1.26-4.77,1.49-6.51Z"/><path class="o" d="M170.09,293.35c.45,.81-.72,2.83-1.98,2.79-1.21-.04-6.82-1.4-6.61-2.53,.27-1.46,8.05-1.24,8.59-.26Z"/><path class="o" d="M169.49,159.16s-.03,.02-.05,.03c-3.93,2.61-6.26,4.21-8.61,5.77l-.06-.1c3.57-1.76-2.56-18.03-3.91-48.62-.3-6.81-1.7-21.59-6.11-31.89,3.6,7.24,6.66,16.94,8.05,28.61,2.41,20.23,6.29,35.98,10.69,46.2Z"/><path class="o" d="M163.54,202.93c3.69,4.56,6.24,11.37,5.09,14.71-.92-5.43-4.34-9.1-8.41-11.01-.02-.48-.43-.87-.92-.87-.23,0-.44,.08-.6,.23-.78-.28-1.58-.5-2.37-.65,2.19-2.58,5-3.98,7.2-2.41h0Z"/><path class="o" d="M168.36,305.86l-.14,2.79c-1.19,0-2.43,.45-3.72,1.25h0c-3.71,2.31-7.85,7.51-12.39,13.34l-.24-.19s-.06-.02-.09-.04c-1.16-.5-2.2-1.05-3.13-1.63-8.28-5.13-8.28-12.79-8.28-21.36l.05-.05c2.92,2.87,10.14,5.02,27.94,5.89Z"/><path class="o" d="M166.82,280.49l.06,1c-.07,0-.14,0-.19,.03-1.86,.76,1.66,4.24-.55,5.33-.04,.02-.08,.04-.13,.05-.31,.11-.77,.13-1.36,.09-.66-.04-1.47-.17-2.41-.35h-.01c-2.2-.42-5.06-1.17-7.98-1.94-1.9-.49-3.82-1-5.62-1.42-.45-.11-.88-.21-1.3-.3,.63-.17,1.29-.34,2.01-.49,1.34-.29,2.84-.56,4.53-.8,3.47-.51,7.73-.91,12.95-1.2Z"/><path class="o" d="M165.76,190.54c.22,.5,.65,1.05,1.19,1.57-6.17,.38-11.9,.84-16.8,1.31,5.08-.99,10.31-1.96,15.61-2.89h0Z"/><path class="o" d="M163.53,202.93c-2.2-1.57-5.01-.17-7.2,2.41-2.96-.59-5.96-.35-8.38,.7l-.17-.08c2.1-4.46,6.14-8.09,9.5-7.51,2.16,.37,4.36,2.13,6.25,4.48Z"/><path class="o" d="M168.63,217.64c-.84,2.44-5.49,3.49-10.3,3.08-8.02-1.73-6.07-10.59-2-15.38,.79,.15,1.59,.37,2.37,.65-.2,.16-.33,.42-.33,.7,0,.51,.42,.92,.93,.92s.93-.41,.93-.92c0-.02,0-.04-.01-.06,4.07,1.91,7.49,5.58,8.41,11.01Z"/><path class="o" d="M160.77,164.86l.06,.1c-.69,.46-1.38,.92-2.11,1.39-3.92-6.39-9.31-17.56-8.41-33.17,.54-9.18,.49-17.33-.09-25.01,0-.02,0-.05,0-.07-.04-.9-.11-1.76-.21-2.58-.4-4.37-.98-8.6-1.71-12.82h0c-.51-5.1-6.44-20.58-14.38-22.35,.79-.42,1.56-.66,2.3-.69,4.05-.18,9.76,5.08,14.53,14.65,0,0,.01,.02,.02,.04,4.41,10.3,5.81,25.08,6.11,31.89,1.35,30.59,7.48,46.86,3.91,48.62Z"/><path class="o" d="M155.55,294.25c1.07,.76,4.8,1.55,4.75,2.3-.04,.61-1.94,.52-3,.89,.45-.28,.73-.63,.6-1.21-.1-.44-1.01-1.12-2.37-1.95l.02-.03Z"/><path class="o" d="M160.22,206.63s.01,.04,.01,.06c0,.51-.42,.92-.93,.92s-.93-.41-.93-.92c0-.28,.13-.54,.33-.7,.51,.18,1.02,.39,1.52,.64Z"/><path class="o" d="M159.3,205.76c.49,0,.9,.39,.92,.87-.5-.25-1.01-.46-1.52-.64,.16-.15,.37-.23,.6-.23Z"/><path class="o" d="M157.3,297.44c-.41,.24-.96,.43-1.47,.67l-.02,.14c-9.22-1.14-13.55-2.91-15.59-5.06-.03-.03-.06-.06-.08-.09,.02-.03,.05-.07,.08-.1,1.03-1.09,2.66-2.09,5.2-2.95,.5-.17,1.03-.33,1.61-.49,.74,.43,1.49,.86,2.25,1.27,2.32,1.27,4.62,2.47,6.25,3.45,1.36,.83,2.27,1.51,2.37,1.95,.13,.58-.15,.93-.6,1.21Z"/><path class="o" d="M147.95,206.04c2.42-1.05,5.42-1.29,8.38-.7-4.07,4.79-6.02,13.65,2,15.38-4.84-.4-9.85-2.27-11.32-5.64-1.17-2.72-.65-6.11,.77-9.12l.17,.08Z"/><path class="o" d="M148.5,225.72c3.06,0,5.55,1.32,5.55,2.95s-2.49,2.94-5.55,2.94-5.55-1.32-5.55-2.94,2.48-2.95,5.55-2.95Z"/><path class="o" d="M158.72,166.35c-1.78,1.17-3.82,2.46-6.72,4.23-.05-.06-.1-.11-.17-.18,1.31-2.62-2.01-13.68-2.93-16.9-3.08-10.81,1.95-31.96,1.32-45.33,.58,7.68,.63,15.83,.09,25.01-.9,15.61,4.49,26.78,8.41,33.17Z"/><path class="o" d="M148.9,153.5c.92,3.22,4.24,14.28,2.93,16.9-7.22-7.67-21.58-19.55-28.95-38.07-10.3-25.91,1.61-56.99,11.02-61.98,7.94,1.77,13.87,17.25,14.38,22.35h0c.73,4.22,1.31,8.45,1.71,12.82,.08,.86,.15,1.72,.21,2.58,0,.02,0,.05,0,.07,.63,13.37-4.4,34.52-1.32,45.33Z"/><path class="o" d="M138.6,289.97h-.03c.15-.93,.45-1.83,1.02-2.68,.4-.59,.94-1.16,1.65-1.7,.61,.59,1.41,1.21,2.34,1.84,.99,.67,2.11,1.36,3.29,2.04,.05,.03,.11,.06,.16,.09-.58,.16-1.11,.32-1.61,.49-2.54,.86-4.17,1.86-5.2,2.95-.03,.03-.06,.07-.08,.1-.89-.98-1.32-2.02-1.54-3.13Z"/><path class="o" d="M141.05,195.24c-2.53,7.67-4,15.68-4.93,23.05-.17,1.38-.23,2.71-.18,4.01h-.02c-26.64-.8-50.55-3.75-50.94-8.41-.03-.38,.09-.78,.38-1.2h.01c3.19-4.78,26.32-11.39,55.68-17.45Z"/></g></g><g id="c"><g><path class="k" d="M282.54,184.25c.99,8.68-26.72,21.73-48.04,27.84-1.78-10.09-4.94-20.8-10.27-29.89h0c27.52-2.98,49.98-3.67,56.44-.17,.02,.01,.04,.03,.06,.04,.46,.32,.88,.66,1.28,1h.01c.3,.37,.47,.76,.52,1.18Z"/><path class="y" d="M280.67,182.03c-6.46-3.5-28.92-2.81-56.44,.16-16.64,1.8-35.13,4.44-53.06,7.5-1.82,.3-3.64,.62-5.45,.94-5.3,.93-10.53,1.9-15.61,2.89h-.02c-3.08,.6-6.11,1.21-9.08,1.82-29.36,6.06-52.49,12.67-55.68,17.44,3-6.68,25.15-15.28,53.72-22.57,24.96-6.36,54.82-11.73,81.06-13.93,1.94-.17,3.86-.32,5.76-.44,24.77-1.68,45.6-.26,54.8,6.19Z"/><path class="k" d="M244.56,243.7c-1.33-.71-2.68-1.39-4.05-2.05l.86-1.79c.84,1.26,10.43-2.07,12.08,.03,.78,.99-6.12,1.97-6,2.87,.16,1.24,11.42-.12,12.39,1.17,.55,.75-6.41,1.1-6.39,1.83,.02,.95,10.82,1.36,10.82,2.22,0,.55-5.74,1.24-6.26,2.34-1.09,2.3,4.34,9.64,2.75,9.93-2.42,.45-4.9-8.48-6.83-8.27-1.3,.15-.21,4.4-1.4,4.48-1.73,.1-3.16-8.74-4.69-8.61-1.09,.09-1.43,4.6-2.09,4.56-.78-.04-.68-6.37-2.08-7l.89-1.71Z"/><path class="v" d="M253.74,84.08c4.65,13.05,6.12,33.51-2.62,50.57-8.47,16.53-22.59,26.78-30.91,33.72-.01,.01-.03,.02-.04,.04-2.95-1.56-5.25-2.84-7.41-4.09,.26-.36,.53-.75,.8-1.14,.3-.44,.6-.89,.89-1.36,6.7,1.52,9.02,.78,21.09-11.61,9.66-9.93,22.75-34.63,18.18-66.12h.02Z"/><path class="g" d="M253.72,84.09c4.57,31.49-8.52,56.19-18.18,66.12-12.07,12.39-14.39,13.13-21.09,11.61,4.17-6.5,8.81-16.29,9.28-28.93,.58-15.55,2.54-27.98,5.87-40.11h-.01c2.03-5.51,11.26-21.7,18.58-18.97h.01c2.03,2.28,3.98,5.85,5.55,10.27h-.01Z"/><path class="k" d="M248.18,73.8h-.01c-7.32-2.72-16.55,13.47-18.58,18.98h.01c-3.33,12.13-5.29,24.56-5.87,40.11-.47,12.64-5.11,22.43-9.28,28.93-.29,.47-.59,.92-.89,1.36-.27,.39-.54,.78-.8,1.14h-.01c-.84-.49-1.66-.97-2.49-1.46-5.05-5.26-.54-21.54,1.77-30.63l-.16-.05c1.96-6.24,3.78-13.05,5.34-20.23,5.8-26.71,19.55-41.95,26.61-40.96,1.43,.2,2.92,1.19,4.36,2.81Z"/><path class="y" d="M244.56,243.7l-.89,1.71s-.09-.03-.14-.04c-.9-.15-1.68,2.03-2.61,1.82-1.17-.25-1.01-3.95-1.82-4.04h-.03l.6-1.9c.28,.14,.56,.27,.84,.4,1.37,.66,2.72,1.34,4.05,2.05Z"/><path class="y" d="M242.88,237.67c.42,.87-1.75,1.44-1.56,2.09,.01,.04,.03,.07,.05,.1l-.86,1.79c-.28-.13-.56-.26-.84-.4-1.2-.56-2.41-1.11-3.63-1.62-.3-.14-.6-.26-.9-.39,1.76-1.91,7.5-2.06,7.74-1.57Z"/><path class="r" d="M217.97,291.77c-.22-.25-.43-.48-.65-.7-1.5-1.55-3.26-2.81-5.16-3.65-.32-.13-.64-.26-.96-.37h0v-.1c.01-1.54,.35-3.24,.84-4.78,.19-.57,.39-1.11,.6-1.62,0-.01,.01-.01,.01-.02,.13-.3,.25-.59,.38-.86,.05-.11,.1-.2,.16-.3h0s.03-.07,.05-.1c.65-1.26,1.32-2.09,1.77-2.09,.57,0,.82,.37,.94,.9,.13,.53,.12,1.22,.18,1.87,0,.08,.02,.16,.03,.23h-.01c0,1.09-.93,2.57-.35,2.92,.59,.37,2.22-1.08,3.39-1.74,.06-.03,.13-.07,.2-.11h.01l.21-.12h.01s.03-.02,.04-.03h.01c.31-.18,.64-.38,.99-.6,.16-.1,.32-.2,.48-.31,.37-.24,.75-.5,1.16-.79,.47-.32,.97-.67,1.49-1.04,.03-.02,.05-.04,.08-.06,.02-.01,.04-.03,.06-.04,6.11-4.43,14.33-11.19,16.08-9.97,.75,.52,.73,1.51,.22,2.78l-.28-.1c-9.88,12.91-15.07,14-14.05,16.2,.69,1.5,2.86,2.02,2.8,3.36-.08,1.77-4.71,4.13-8.09,4.93l-.11,.05c-.65-1.29-1.48-2.52-2.45-3.64-.02-.03-.05-.05-.07-.08,0-.01-.01-.01-.01-.02Zm3.1-3.93c1.07-1.4,1.84-2.86,1.4-3.38-.63-.74-4.06,1.66-5.56,2.95h-.01c-.26,.23-.46,.42-.58,.55-.83,.95,.31,2.79,1.22,2.96,.03,.01,.07,.01,.12,.01,.03,0,.06-.01,.09-.02v.03c.02,.63,.42,1.26,.91,1.13,1.63-.6,2.92-1.31,2.81-1.76-.08-.35-.91-.55-2.04-.53-.04,0-.07,0-.11,.01l.02-.02c.57-.54,1.19-1.23,1.72-1.93h.01Z"/><path class="p" d="M239.95,270.97l.28,.1c-1.3,3.27-5.81,8.38-8.8,12.09-.01,.01-.02,.02-.02,.03l-.03,.03s-.06,.08-.1,.12c-1.57,1.98-2.69,3.54-2.59,4.15,.33,2,4.16-.28,4.59,2.44,.02,.11,0,.24-.04,.38,0,.02,0,.04-.01,.06-.01,.04-.03,.08-.05,.12-.11,.29-.34,.63-.67,.99-1.71,1.96-6.1,4.73-11.25,5.76-.21-.58-.47-1.16-.76-1.73l.11-.05c3.38-.8,8.01-3.16,8.09-4.93,.06-1.34-2.11-1.86-2.8-3.36-1.02-2.2,4.17-3.29,14.05-16.2Z"/><path class="y" d="M239.67,241.25l-.6,1.9c-.78,0-1.45,3.32-2.19,3.26-.42-.03-1.68-3.72-.88-6.68l.04-.1c1.22,.51,2.43,1.06,3.63,1.62Z"/><path class="k" d="M239.03,290.03c.2,1.08,.2,2.21,.2,3.34,0,2.45,0,4.74-2,6.7-1.7,1.67-4.87,3.1-10.74,4.18h0c1.65-1.19,1.4-5.14,.09-6.61,6.04-1.11,9.19-2.61,10.84-4.36l.09-.09c.89-.97,1.32-2.04,1.52-3.15h0Z"/><path class="k" d="M239.03,290.03h0c-.2,1.12-.63,2.19-1.52,3.16-.03-.03-.06-.07-.09-.1-.86-.91-2.13-1.75-4.01-2.51-.07-.03-.15-.06-.23-.09,.02-.04,.04-.08,.05-.12,.01-.02,.01-.04,.01-.06,.04-.14,.06-.27,.04-.38-.43-2.72-4.26-.44-4.59-2.44-.1-.61,1.02-2.17,2.59-4.15,.35,.11,.67,.21,.99,.32,4.84,1.65,6.31,3.9,6.76,6.37Z"/><path class="k" d="M226.58,297.64c-1.48,.27-3.12,.52-4.97,.75l-.02-.14c-.1-.34-.21-.68-.33-1.01,5.15-1.03,9.54-3.8,11.25-5.76,.33-.36,.56-.7,.67-.99,.08,.03,.16,.06,.23,.09,1.88,.76,3.15,1.6,4.01,2.51,.03,.03,.06,.07,.09,.1l-.09,.09c-1.65,1.75-4.8,3.25-10.84,4.36Z"/><path class="k" d="M237.23,300.07l.05,.05c0,8.1,0,15.39-6.99,20.49-.9,.66-1.91,1.28-3.05,1.86-.03,.01-.06,.03-.09,.04l-.26,.2c-1.3-1.68-2.57-3.3-3.82-4.82,.36-.34,.71-.71,1.04-1.08,2.9-3.25,4.01-7.81,4.41-10.92-4.64,.83-11.21,1.33-18.18,1.5-8.75,.2-18.12-.13-25.1-1.02,1.16,.02,2.34,.02,3.56,.02,18.55,0,30.28-.79,37.69-2.14,5.87-1.08,9.04-2.51,10.74-4.18Z"/><path class="a`" d="M235.21,216.56c1.07,7.56-1.95,14.33-7.46,19.86-1.98-.68-3.95-1.3-5.9-1.84,1.68-2.03,3.1-4.11,4.15-6.15,.35-.68,.66-1.39,.94-2.12,.7-.58,1.07-1.27,.99-1.96-.03-.21-.09-.41-.21-.6,2.21-8.87-.09-20.3-2.8-30.56-6.43-1.09-14.46-1.64-23.08-1.82,1.05-.61,1.82-1.3,1.75-1.82-.11-.81-2.25-1.48-4.01-.94-1.48,.45-2.49,1.68-2.88,2.7-8.14-.04-16.6,.21-24.57,.61-.11-.77-.42-1.58-.96-2.23,17.93-3.06,36.42-5.7,53.06-7.5h0c5.33,9.1,8.49,19.81,10.27,29.9,.27,1.51,.5,3,.71,4.47Z"/><path class="a`" d="M226.89,322.71l.26-.2s.06-.03,.09-.04c1.14-.58,2.15-1.2,3.05-1.86,.01,2.3-.5,5.35-2.27,7.11-.84,.96-1.87,1.77-3.04,2.42-6.46,3.66-17,2.83-21.62-.14,11.8,1.54,22.66-3.03,16.74-15.6,.98,1.07,1.97,2.25,2.97,3.49,1.25,1.52,2.52,3.14,3.82,4.82Z"/><path class="x" d="M227.93,224.35c.08,.69-.29,1.38-.99,1.96,.31-.82,.57-1.68,.78-2.56,.12,.19,.18,.39,.21,.6Z"/><path class="k" d="M219.26,204.72c-2.3-4.61-6.81-8.35-10.29-7.51-2.13,.51-4.21,2.4-5.96,4.86-3.26,4.59-5.34,11.18-4.3,14.58,.04,.15,.09,.29,.15,.43,1,2.38,5.7,3.13,10.48,2.43,4.81-.72,9.7-2.9,10.94-6.37,.93-2.59,.35-5.66-1.02-8.42Zm-42.56,25.51c-1.91-.08-3.49,.16-4.44,1.52-1.7,2.43,1.05,4.47,4.98,5.57,.53,.15,1.09,.28,1.66,.39l-.36,1.66h-.03c-.29-.04-.56,0-.83,.15-1.3,.72-.52,6,.5,11.65l.03,.15c-21.31-1.85-41.63-11.51-42.31-28.92-.05-1.3,.01-2.63,.18-4.01,.93-7.37,2.4-15.38,4.93-23.05,2.97-.61,6-1.22,9.08-1.82h.02c4.9-.47,10.63-.93,16.8-1.31,1.52,1.48,3.87,2.74,4.72,2.14,.46-.32,.67-1.33,.5-2.43,7.97-.4,16.43-.65,24.57-.61-.24,.58-.27,1.09-.07,1.34,.56,.69,3.34-.18,5.21-1.28,8.62,.18,16.65,.73,23.08,1.82,2.71,10.26,5.01,21.69,2.8,30.56-.69-1.26-3.02-1.98-5.66-1.66-3.04,.37-5.35,1.98-5.15,3.6,.19,1.61,2.82,2.62,5.86,2.25,1.74-.21,3.24-.83,4.17-1.63-.28,.73-.59,1.44-.94,2.12-1.05,2.04-2.47,4.12-4.15,6.15-8.49-2.41-16.6-3.58-23.03-3.15,1.54-1.96,1.95-3.96,.53-5.42-2.38-2.45-4.86-1.11-7.73,.74-2.16,1.38-4.53,3.05-7.24,3.62-.53,.11-1.07,.17-1.62,.19-2.14,.07-4.25-.28-6.06-.33Zm15.66-16.44c-.01-2.15-18.16-.05-18.35,2.04-.14,1.57,4.63,2.33,8.35,2.33,4.43,0,10-2.67,10-4.37Zm-9.55,10.71c2.64-.17,4.33-1.83,3.74-3.29-.16-.39-1.04-.53-2.16-.52-2.03,.02-4.82,.54-5.21,1.01-.57,.7,1.07,2.41,2.86,2.74,.26,.06,.52,.07,.77,.06Zm-14.22-6.76c1.15-3.34-1.4-10.15-5.09-14.71,0,0-.01,0-.01-.01-1.9-2.35-4.1-4.1-6.25-4.47-3.37-.58-7.41,3.06-9.5,7.52-1.42,3.01-1.94,6.4-.77,9.11,1.46,3.38,6.47,5.24,11.32,5.65,4.81,.39,9.46-.65,10.3-3.09Zm-14.58,11.03c0-1.63-2.49-2.95-5.55-2.95s-5.55,1.32-5.55,2.95,2.48,2.94,5.55,2.94,5.55-1.32,5.55-2.94Z"/><path class="y" d="M228.52,305.89c-.4,3.11-1.51,7.67-4.41,10.92-.33,.37-.68,.74-1.04,1.08-1-1.24-1.99-2.42-2.97-3.49h0c-3.56-3.97-6.81-6.58-9.74-6.36l-.02-.65c6.97-.17,13.54-.67,18.18-1.5Z"/><path class="ab" d="M227.72,223.75c-.21,.88-.47,1.74-.78,2.56-.93,.8-2.43,1.42-4.17,1.63-3.04,.37-5.67-.64-5.86-2.25-.2-1.62,2.11-3.23,5.15-3.6,2.64-.32,4.97,.4,5.66,1.66Z"/><path class="y" d="M185.24,306.37c-6.5-.03-12.09-.17-16.91-.41-17.81-.87-25.03-3.02-27.95-5.89-2-1.96-2-4.25-2-6.7v-.68c0-.35,0-.7,0-1.04,.02-.54,.06-1.06,.14-1.58h.03c.22,1.11,.65,2.15,1.54,3.13,.02,.03,.05,.06,.08,.09,2.04,2.15,6.37,3.92,15.59,5.06,2.86,.36,6.18,.65,10.05,.88h0c.91,.06,1.85,.11,2.82,.16,3.19,.15,6.71,.26,10.61,.33,.74,.01,1.49,.02,2.26,.03,2.3,.03,4.73,.05,7.29,.05,2.1,0,4.11-.01,6.03-.03,1.23-.01,2.42-.03,3.57-.05,1.27-.03,2.5-.05,3.69-.08,.7-.02,1.39-.04,2.06-.07,1.17-.03,2.3-.07,3.39-.12,.17-.01,.34-.01,.51-.02l.57-.03c5.15-.24,9.43-.58,12.99-1.01,1.85-.23,3.49-.48,4.97-.75,1.31,1.47,1.56,5.42-.09,6.6h0c-7.41,1.36-19.14,2.15-37.69,2.15-1.22,0-2.4,0-3.56-.02Z"/><path class="k" d="M201.58,157.84c3.54,2,6.15,3.55,8.68,5.02,.65,.69,1.47,1.19,2.49,1.46h.01c2.16,1.25,4.46,2.53,7.41,4.09,.01-.02,.03-.03,.04-.04,2.07,1.98,3.95,4.19,5.6,6.62l.06,.85c-1.9,.12-3.82,.27-5.76,.44h0s-.04-.06-.05-.09c-4.98-8.76-24.05-19.85-38.84-19.85,6.91-.88,13.88-.35,20.36,1.5Z"/><path class="w" d="M196.5,328.04c.39-.06,2.15-.2,4.67-.61,.05,.21,.13,.41,.24,.61,.38,.72,1.05,1.38,1.95,1.96,4.62,2.97,15.16,3.8,21.62,.14,.65,3.93-.05,10.31-.48,14.44-1.68,15.98-3.73,34.15-6.33,44.95-1.97,.61-3.6,1.08-5.05,1.41,1.41-4.56,2.51-10.31,3.36-16.51,.17-.27,.27-.57,.27-.87,0-.17-.03-.33-.09-.49,1.66-12.61,2.32-26.83,2.46-36.63h0c-16.17-.01-15.28-2.77-18.33-4.12-2.84-1.25-17.68-2.05-23.99-2.61,.47-.49,.79-1.02,.94-1.58,.01-.01,.01-.02,.01-.03,.01-.02,.01-.05,.02-.07,3.37,.22,7.03,.16,11.04,.16,2.01,0,3.93-.03,5.78-.08,.67-.02,1.3-.04,1.91-.07Z"/><path class="p" d="M222.47,284.46c.44,.52-.33,1.98-1.4,3.38h-.01c-.53,.7-1.15,1.39-1.72,1.93l-.02,.02c-.21,.01-.44,.02-.67,.04-.69,.02-.93,.54-.9,1.08-.03,.01-.06,.02-.09,.02-.05,0-.09,0-.12-.01-.91-.17-2.05-2.01-1.22-2.96,.12-.13,.32-.32,.58-.55h.01c1.5-1.29,4.93-3.69,5.56-2.95Z"/><path class="a`" d="M222.03,274.7c.67,1.32,1.27,2.56,1.76,3.66-.52,.37-1.02,.72-1.49,1.04-.21-.56-.45-1.15-.7-1.77,.17-.99,.31-1.97,.43-2.93Z"/><path class="a`" d="M221.85,234.58c1.95,.54,3.92,1.16,5.9,1.84-6.12,6.16-15.34,10.78-25.47,13.24,6.64-2.85,14.34-8.73,19.57-15.08Z"/><path class="j" d="M215.47,273.36s.01-.01,.01-.02c.85-1.53,1.68-3.1,2.42-4.62h0c.14-.31,.28-.6,.42-.89h0c1.76-3.72,2.97-6.95,2.86-8,1.58,1.55,1.8,7.48,.88,14.67,0,.06-.02,.13-.03,.19,0,0,.01,0,0,.01-.12,.96-.26,1.94-.43,2.93-.14,.85-.29,1.7-.46,2.56-.16,.11-.32,.21-.48,.31-.35,.22-.68,.42-.99,.6h-.01s-.03,.02-.04,.03h-.01l-.21,.12h-.01c-.07,.04-.14,.08-.2,.11-.72,.37-1.29,.57-1.67,.54-.73-.05-1.07-.49-1.23-1.08h-.01c-.06-.2-.1-.41-.12-.64-.01-.07-.02-.15-.03-.23-.06-.65-.05-1.34-.18-1.87-.12-.53-.37-.9-.94-.9-.45,0-1.12,.83-1.77,2.09-.02,.03-.03,.06-.05,.09h0c-.06,.11-.11,.2-.16,.31-.13,.27-.25,.56-.38,.86,0,.01-.01,.01-.01,.02-.21,.51-.41,1.05-.6,1.62l-.26-.08c-.15-.09-.3-.19-.44-.27-.36-.23-.7-.44-1.04-.65l.43-.69c.58-.69,1.23-1.51,1.85-2.42,.05-.07,.09-.13,.14-.2,.92-1.35,1.84-2.9,2.75-4.5Z"/><path class="a`" d="M221.6,277.63c.25,.62,.49,1.21,.7,1.77-.41,.29-.79,.55-1.16,.79,.17-.86,.32-1.71,.46-2.56Z"/><path class="j" d="M221.59,298.25l.02,.14c-3.56,.43-7.84,.77-12.99,1.01l-.57,.03v-.1c5.83-2.01,11.17-4.55,9.93-7.54,.02,.03,.05,.05,.07,.08,.97,1.12,1.8,2.35,2.45,3.64,.29,.57,.55,1.15,.76,1.73,.12,.33,.23,.67,.33,1.01Z"/><path class="p" d="M221.47,290.31c.11,.45-1.18,1.16-2.81,1.76-.49,.13-.89-.5-.91-1.13v-.03c.36-.09,.94-.52,1.57-1.12,.04-.01,.07-.01,.11-.01,1.13-.02,1.96,.18,2.04,.53Z"/><path class="u" d="M221.18,259.83c.11,1.05-1.1,4.28-2.86,7.99h0c-.14,.3-.28,.59-.42,.89h0c-.74,1.53-1.57,3.1-2.42,4.63,0,.01-.01,.01-.01,.02-2.68-1.68-4.59-3.78-5.66-6.83,1.71-1.41,3.33-2.65,4.79-3.68,.04-.02,.07-.04,.11-.07,3.32-2.35,5.78-3.58,6.41-3.02,.03,.02,.05,.05,.06,.07Z"/><path class="k" d="M220.1,314.4c5.92,12.57-4.94,17.14-16.74,15.6-.9-.58-1.57-1.24-1.95-1.96-.11-.2-.19-.4-.24-.61-.02-.04-.03-.08-.04-.12-2.21-5.07,2.92-18.27,8.87-19.22,.12-.02,.24-.03,.36-.05,2.93-.22,6.18,2.39,9.74,6.35h0Z"/><path class="h" d="M219.26,204.72c1.37,2.76,1.95,5.83,1.02,8.42-1.24,3.47-6.13,5.65-10.94,6.37h0c7.79-2.21,5.46-10.73,1.2-15.3,3.05-.75,6.18-.58,8.72,.51Z"/><path class="y" d="M151.96,170.68c2.9-1.77,4.94-3.06,6.72-4.23,.73-.47,1.42-.93,2.11-1.39,2.35-1.56,4.68-3.16,8.61-5.77,.02-.01,.03-.02,.05-.03,3.84-1.45,7.8-2.42,11.77-2.92,14.79,0,33.86,11.09,38.84,19.85,.01,.03,.03,.05,.05,.08h0c-26.24,2.21-56.1,7.58-81.06,13.94l-.11-.43c3.22-7.83,7.65-14.23,12.85-19.28,.07,.07,.12,.12,.17,.18Z"/><path class="p" d="M218.65,289.83c.23-.02,.46-.03,.67-.04-.63,.6-1.21,1.03-1.57,1.12-.03-.54,.21-1.06,.9-1.08Z"/><path class="m" d="M219.12,336.43h0c-.14,9.81-.8,24.03-2.46,36.64-.47-1.4-2.98-2.46-6-2.46-3.37,0-6.1,1.32-6.1,2.95s2.73,2.94,6.1,2.94c2.73,0,5.04-.87,5.82-2.07-.85,6.2-1.95,11.95-3.36,16.51-4.65,1.09-7.43,.91-13.67,.25-.81-10.89-.51-29.01-3.21-30.41-.91-.47-1.96-.76-3.06-.9h-.01c-3.05-.44-6.45,.13-8.15,.64-1.54,.06-6.21,0-6.21,1.33,.05,6.54,.7,20.22-.73,29.65-4.82,.36-7.67,.03-14.14-1.97-1.73-7.49-4.25-20.57-9.18-43.88-.82-3.88-1.28-10.1-.61-14.65,.68,.36,1.39,.68,2.14,.95,7.21,2.63,17.29,1.13,20.5-2.24h.01c6.31,.56,21.15,1.36,23.99,2.61,3.05,1.35,2.16,4.11,18.33,4.11Zm-41.58,38.25c0-1.63-2.62-2.95-5.86-2.95s-5.86,1.32-5.86,2.95,2.63,2.95,5.86,2.95,5.86-1.32,5.86-2.95Z"/><path class="u" d="M208.05,299.33v.1c-.17,.01-.34,.01-.51,.02v-.14c-2.26-3.01-5.75-5.11-9.93-7.01,.48-.62,.99-1.22,1.49-1.76h.01c1.58-1.72,3.16-2.98,4.67-3.57h.02c.15-.07,.29-.12,.44-.16,.03-.01,.07-.02,.1-.03,.12-.03,.23-.07,.35-.09,.09-.02,.18-.05,.27-.06,1.11-.27,2.22-.32,3.31-.22,.9,.07,1.78,.27,2.64,.55h.01c.09,.03,.19,.06,.28,.09,.32,.11,.64,.24,.96,.37,1.9,.84,3.66,2.1,5.16,3.65,.22,.22,.43,.45,.65,.7,0,.01,.01,.01,.01,.02,1.24,2.99-4.1,5.53-9.93,7.54Z"/><path class="p" d="M217.52,281.9c.38,.03,.95-.17,1.67-.54-1.17,.66-2.8,2.11-3.39,1.74-.58-.35,.35-1.83,.35-2.92h.01c.02,.23,.06,.44,.12,.64h.01c.16,.59,.5,1.03,1.23,1.08Z"/><path class="w" d="M216.66,373.07c.06,.16,.09,.32,.09,.49,0,.3-.1,.6-.27,.87,.07-.45,.13-.91,.18-1.36Z"/><path class="k" d="M221.85,234.58c-5.23,6.35-12.93,12.23-19.57,15.08t-.02,.01c-1.47,.36-2.96,.67-4.47,.93-3.81,.67-7.7,1.03-11.57,1.05-.02-.05-.04-.09-.06-.14-2.36-5.25-5.26-11.74-7.62-12.14l.36-1.66c2.22,.45,4.66,.6,6.82,.39,2.92-.29,5.84-1.33,8.29-2.72,2.02-1.15,3.71-2.54,4.81-3.95,6.43-.43,14.54,.74,23.03,3.15Z"/><path class="w" d="M216.66,373.07c-.05,.45-.11,.91-.18,1.36-.78,1.2-3.09,2.07-5.82,2.07-3.37,0-6.1-1.32-6.1-2.94s2.73-2.95,6.1-2.95c3.02,0,5.53,1.06,6,2.46Z"/><path class="f" d="M219.26,204.72c-2.54-1.09-5.67-1.26-8.72-.51-2.39-2.57-5.39-3.89-7.53-2.14,1.75-2.46,3.83-4.35,5.96-4.86,3.48-.84,7.99,2.9,10.29,7.51Z"/><path class="a`" d="M218.17,389.53c-1.25,5.24-2.65,8.75-4.19,9.43-2.75,1.21-5.04,2.01-7.37,1.95,2.68-.75,4.82-4.5,6.51-9.97,1.45-.33,3.08-.8,5.05-1.41Z"/><path class="k" d="M213.67,261.99c.3,.23,.61,.52,.93,.86-1.46,1.03-3.08,2.27-4.79,3.68-.72,.59-1.46,1.21-2.21,1.86-.02,.01-.03,.03-.05,.04,.03-2.81,.43-6.86,.82-8.29l.02-.08c2.03,.39,3.96,.92,5.28,1.93Z"/><path class="u" d="M215.47,273.36c-.91,1.6-1.83,3.15-2.75,4.5-.05,.07-.09,.13-.14,.2-.62,.91-1.27,1.73-1.85,2.42l-.43,.69c-.35-.23-.68-.44-1-.66-.08-.05-.15-.1-.22-.15h-.01c-1.39-.93-2.55-1.81-3.62-2.83,0-.01-.01-.01-.01-.02-.81-1.8-1.74-3.37-2.78-4.63,.37-.35,.73-.7,1.1-1.04l.06-.06c.84-.78,1.68-1.55,2.52-2.28,.04-.04,.08-.08,.12-.11,.36-.33,.73-.64,1.09-.95h0s.03-.04,.05-.05c.75-.65,1.49-1.27,2.21-1.86,1.07,3.05,2.98,5.15,5.66,6.83Z"/><path class="j" d="M211.78,282.09l.26,.08c-.49,1.54-.83,3.24-.84,4.78v.09h0c-.09-.02-.19-.05-.28-.08h-.01c-.86-.28-1.74-.48-2.64-.55-.47-2.12-1.03-4.15-1.7-6.02-.01-.05-.03-.1-.05-.15-.12-.34-.24-.67-.37-1-.22-.59-.46-1.16-.71-1.71v-.02s.01,.01,.01,.02c1.07,1.02,2.23,1.9,3.62,2.83h.01c.07,.05,.14,.1,.22,.15,.32,.22,.65,.43,1,.66,.34,.21,.68,.42,1.04,.65,.14,.08,.29,.18,.44,.27Z"/><path class="a`" d="M211.87,132.18l.16,.05c-2.31,9.09-6.82,25.37-1.77,30.63-2.53-1.47-5.14-3.02-8.68-5.02,3.38-6.36,7.02-15.21,10.29-25.66Z"/><path class="n" d="M210.54,204.21c4.26,4.57,6.59,13.09-1.2,15.29h0c-4.78,.71-9.48-.04-10.48-2.42-.06-.14-.11-.28-.15-.43l.06-.02c.9-5.27,4.11-8.95,7.98-10.98,.16,.26,.45,.43,.78,.43,.51,0,.93-.42,.93-.93,0-.09-.01-.18-.04-.27,.7-.28,1.4-.5,2.12-.67Z"/><path class="y" d="M210.34,307.39l.02,.65c-.12,.02-.24,.03-.36,.05-5.95,.95-11.08,14.15-8.87,19.22,0,.04,.02,.08,.04,.12-2.52,.41-4.28,.55-4.67,.61-.61,.03-1.24,.05-1.91,.07-1.85,.05-3.77,.08-5.78,.08-4.01,0-7.67,.06-11.04-.16,1.63-3.74-.74-11.92-4.5-16.33-.64-.76-1.33-1.4-2.04-1.89-.75-.52-1.53-.87-2.33-1-.23-.04-.47-.05-.71-.05l.14-2.8c4.82,.24,10.41,.38,16.91,.41,6.98,.89,16.35,1.22,25.1,1.02Z"/><path class="i" d="M210.54,204.21c-.72,.17-1.42,.39-2.12,.67-.12-.38-.47-.65-.89-.65-.51,0-.93,.41-.93,.92,0,.18,.05,.35,.15,.5-3.87,2.03-7.08,5.71-7.98,10.98l-.06,.02c-1.04-3.4,1.04-9.99,4.3-14.58,2.14-1.75,5.14-.43,7.53,2.14Z"/><path class="h" d="M208.42,204.88c.03,.09,.04,.18,.04,.27,0,.51-.42,.93-.93,.93-.33,0-.62-.17-.78-.43,.54-.3,1.1-.55,1.67-.77Z"/><path class="m" d="M208.39,260.06l-.02,.08c-.39,1.43-.79,5.48-.82,8.29h0c-.36,.32-.73,.63-1.09,.96-.04,.03-.08,.07-.12,.11-.17-.05-.35-.07-.53-.07-.58,0-1.1,.24-1.48,.62-.22-1.99,.09-8.37,.66-10.45l.02-.12c1.1,.18,2.25,.36,3.38,.58Z"/><path class="j" d="M208.27,286.41c-1.09-.1-2.2-.05-3.31,.22l-.02-.1c-.41-1.29-1.37-6.89-5.44-12.67-2.07-2.95-6.58-3.83-10.26-4.13l-.03-.1c1.67-.42,3.39-.61,5.04-.55,.35,.02,.7,.04,1.05,.08,1.56,.17,3.05,.57,4.35,1.22,.58,.29,1.14,.67,1.67,1.12,.05,.05,.11,.09,.16,.15h.01c.41,.36,.79,.77,1.17,1.23,1.04,1.26,1.97,2.83,2.78,4.63v.02c.25,.55,.49,1.12,.71,1.71,.13,.33,.25,.66,.37,1,.02,.05,.04,.1,.05,.15,.67,1.87,1.23,3.9,1.7,6.02Z"/><path class="h" d="M207.53,204.23c.42,0,.77,.27,.89,.65-.57,.22-1.13,.47-1.67,.77-.1-.15-.15-.32-.15-.5,0-.51,.42-.92,.93-.92Z"/><path class="u" d="M207.54,299.31v.14c-1.09,.05-2.22,.09-3.39,.12-.67,.03-1.36,.05-2.06,.07v-.14l-.02-.02c-.47-.44-.95-.87-1.43-1.3-.56-.5-1.12-1-1.69-1.48-.94-.82-1.9-1.61-2.86-2.38,.38-.54,.76-1.05,1.14-1.54,.12-.16,.25-.32,.38-.48,4.18,1.9,7.67,4,9.93,7.01Z"/><path class="k" d="M199.45,391.19c6.24,.66,9.02,.84,13.67-.25-1.69,5.47-3.83,9.22-6.51,9.97h-.01c-1.7-.03-3.44-.53-5.41-1.65-.93-.54-1.42-3.73-1.74-8.07Z"/><path class="q" d="M205.81,269.43c.18,0,.36,.02,.53,.07-.84,.73-1.68,1.5-2.52,2.28l-.06,.06s-.01-.05-.01-.07c-.01-.09-.02-.17-.02-.26,0-.57,.23-1.08,.6-1.46,.38-.38,.9-.62,1.48-.62Z"/><path class="k" d="M205.01,259.48l-.02,.12c-.57,2.08-.88,8.46-.66,10.45-.37,.38-.6,.89-.6,1.46,0,.09,.01,.17,.02,.26h-.02c-.72-.05-1.46-.09-2.24-.12h-.01c-.05-.06-.11-.1-.16-.15-.53-.45-1.09-.83-1.67-1.12-1.3-.65-2.79-1.05-4.35-1.22,1.79-6.68,.29-13.54-1.22-14.01-.22-.07-.42-.1-.61-.1l-.09-.71c1.39-.19,2.91-.45,4.76-.81h.01c.25,1.05,.63,2.15,1.12,3.4,.61,1.52,2.98,2.08,5.74,2.55Z"/><path class="u" d="M182.38,286.62h-.01c-.28-.05-.55-.09-.82-.12h-.09l-.3-.03h-.06c-.33-.02-.64-.01-.95,.02-.01,0-.02,0-.03,.01-.03,0-.08,.01-.11,.02h-.02c-.11,.01-.21,.02-.32,.04-.01-.01-.01-.03-.01-.04h-.01c-.14-.36-.27-.7-.39-1.04-.51-1.43-.83-2.76-.92-3.96-.03-.47-.03-.92,.02-1.34,0-.05,0-.09,.01-.14,.01-.12,.03-.23,.05-.34,.04-.21,.08-.42,.12-.62,.45-1.88,1.39-3.53,2.66-4.91,.16-.17,.32-.34,.49-.5h.01c2-1.97,4.68-3.34,7.51-4.04l.03,.1c3.68,.3,8.19,1.18,10.26,4.13,4.07,5.78,5.03,11.38,5.44,12.67l.02,.1c-.09,.01-.18,.04-.27,.06-.12,.02-.23,.06-.35,.09-.03,.01-.07,.02-.1,.03-.15,.04-.29,.09-.44,.16h-.02c-1.51,.59-3.09,1.85-4.67,3.57h-.01c-.5,.54-1.01,1.14-1.49,1.76-.13,.16-.26,.32-.38,.48-.38,.49-.76,1-1.14,1.54-2.37-1.87-4.73-3.57-6.97-4.88-.41-.24-.82-.47-1.22-.68-1.68-.91-3.28-1.59-4.72-1.96-.28-.08-.53-.14-.8-.18Z"/><path class="m" d="M203.75,271.77s.01,.05,.01,.07c-.37,.34-.73,.69-1.1,1.04-.38-.46-.76-.87-1.17-1.23,.78,.03,1.52,.07,2.24,.12h.02Z"/><path class="aa" d="M203.59,189.55c.07,.52-.7,1.21-1.75,1.82-1.69-.04-3.41-.06-5.14-.06,.39-1.02,1.4-2.25,2.88-2.7,1.76-.54,3.9,.13,4.01,.94Z"/><path class="j" d="M202.09,299.5v.14c-1.19,.03-2.42,.05-3.69,.08-1.15,.02-2.34,.04-3.57,.05v-.1c.05-.09,.08-.17,.11-.26,.72-2.44-3.32-6.34-8.21-9.17,.32-.38,.65-.76,.99-1.15l.18-.33c.4,.21,.81,.44,1.22,.68,2.24,1.31,4.6,3.01,6.97,4.88,.96,.77,1.92,1.56,2.86,2.38,.57,.48,1.13,.98,1.69,1.48,.48,.43,.96,.86,1.43,1.3l.02,.02Z"/><path class="f" d="M199.35,226.01c1.42,1.46,1.01,3.46-.53,5.42-1.1,1.41-2.79,2.8-4.81,3.95h0c.28-1.16-1.42-6.95-2.39-8.63,2.87-1.85,5.35-3.19,7.73-.74Z"/><path class="a`" d="M198.15,253.53h-.01c-1.85,.36-3.37,.62-4.76,.81-2.01,.26-3.75,.35-5.79,.29-.43-.89-.88-1.91-1.37-2.98,3.87-.02,7.76-.38,11.57-1.05v.02c0,1,.12,1.94,.36,2.91Z"/><path class="l" d="M201.84,191.37c-1.87,1.1-4.65,1.97-5.21,1.28-.2-.25-.17-.76,.07-1.34,1.73,0,3.45,.02,5.14,.06Z"/><path class="p" d="M194.08,255.15c1.51,.47,3.01,7.33,1.22,14.01-.35-.04-.7-.06-1.05-.08v-.2c.62-3.42,.48-9.35-1.11-10.14-1.2-.59-2.56,1.19-4.2,1.22-2.43,.05-2.59-6.34-10.43-20.59h.03c2.36,.4,5.26,6.89,7.62,12.14,.02,.05,.04,.09,.06,.14,.49,1.07,.94,2.09,1.37,2.98,.94,1.98,1.73,3.38,2.27,3.55,1.78,.55,1.63-3.13,3.61-3.13,.19,0,.39,.03,.61,.1Z"/><path class="u" d="M186.73,290.24c4.89,2.83,8.93,6.73,8.21,9.17-.03,.09-.06,.17-.11,.26v.1c-1.92,.02-3.93,.03-6.03,.03-2.56,0-4.99-.02-7.29-.05v-.14c.74-3.28,2.66-6.31,5.22-9.37Z"/><path class="r" d="M193.14,258.74c1.59,.79,1.73,6.72,1.11,10.14v.2c-1.65-.06-3.37,.13-5.04,.55-2.83,.7-5.51,2.07-7.51,4.03h-.01c-.17,.17-.33,.34-.49,.51-1.03-.26-2.03-.98-2.92-1.89-.69-.7-1.32-1.51-1.85-2.32h-.01c-1.26-1.91-2.02-3.8-1.87-4.09,.53-1.07,1.89-.17,3.16,.29,0,.01,.03,.02,.04,.02,.06,.02,.13,.04,.19,.06,0,.01,.01,.01,.02,.01,.94,.54,2.09,1.57,2.59,1.22,.61-.42-.23-2.26-.3-3.57h-.11c-.02-1.14-.21-2.68-.49-4.43-.01-.04-.01-.08-.02-.12-.38-2.44-.93-5.28-1.42-8.03l-.03-.15c-1.02-5.65-1.8-10.93-.5-11.65,.27-.15,.54-.19,.83-.15,7.84,14.25,8,20.64,10.43,20.59,1.64-.03,3-1.81,4.2-1.22Zm-3.36,9.36c-.15-1.74-.5-3.17-.96-3.18-.36-.01-.76,.72-1.04,1.8-1.26-2.15-3.42-4.79-4.31-4.38-1.04,.48,1.1,5.84,1.77,6.85,.69,1.05,3.02,.83,3.42,0,.05-.1,.05-.26,.01-.47,.56,.04,1.11-.18,1.11-.62Z"/><path class="f" d="M191.62,226.75c.97,1.68,2.67,7.47,2.39,8.62h0c-2.45,1.4-5.37,2.44-8.29,2.73,.28-1.15-.36-6.06-1.34-7.73,2.71-.57,5.08-2.24,7.24-3.62Z"/><path class="k" d="M193.38,254.34l.09,.71c-1.98,0-1.83,3.68-3.61,3.13-.54-.17-1.33-1.57-2.27-3.55,2.04,.06,3.78-.03,5.79-.29Z"/><path class="p" d="M188.82,264.92c.46,.01,.81,1.44,.96,3.18,0,.44-.55,.66-1.11,.62-.1-.47-.43-1.2-.89-1.99h0c.28-1.09,.68-1.82,1.04-1.81Z"/><path class="a`" d="M174.01,215.83c.19-2.09,18.34-4.19,18.35-2.04,0,1.7-5.57,4.37-10,4.37-3.72,0-8.49-.76-8.35-2.33Z"/><path class="p" d="M188.67,268.72c.04,.21,.04,.37-.01,.47-.4,.83-2.73,1.05-3.42,0-.67-1.01-2.81-6.37-1.77-6.85,.89-.41,3.05,2.23,4.31,4.38h0c-.07,.26-.12,.52-.17,.8-.18,.77,.44,1.15,1.06,1.2Z"/><path class="j" d="M187.9,288.76l-.18,.33c-.34,.39-.67,.77-.99,1.15h-.01c-2.85-1.65-5.99-2.92-8.64-3.31h0c.32-.11,.64-.19,.97-.26h.02c.2-.05,.4-.08,.6-.11,.11-.02,.21-.03,.32-.04h.02s.08-.02,.11-.02c.01-.01,.02-.01,.03-.01,.31-.03,.62-.04,.95-.02h.06l.3,.03h.09c.27,.03,.54,.07,.82,.12h.01c.27,.04,.52,.1,.8,.18,1.44,.37,3.04,1.05,4.72,1.96Z"/><path class="p" d="M187.78,266.73c.46,.79,.79,1.52,.89,1.99-.62-.05-1.24-.43-1.06-1.2,.05-.28,.1-.54,.17-.79Z"/><path class="u" d="M172.98,290.22c.29-.32,.6-.62,.92-.9,1.11-.98,2.37-1.75,3.76-2.25t.02,0c.12-.05,.24-.09,.36-.13,.01,0,.02-.01,.03-.01h.01c2.65,.4,5.79,1.67,8.64,3.32h.01c-2.56,3.06-4.48,6.09-5.22,9.37v.14c-.77-.01-1.52-.02-2.26-.03-3.9-.07-7.42-.18-10.61-.33v-.17c.57-3.3,2.08-6.59,4.34-9Z"/><path class="v" d="M186.55,221.21c.59,1.46-1.1,3.12-3.74,3.29-.25,.01-.51,0-.77-.06,2.49-.1,2.8-2.86,2.35-3.7v-.05c1.12-.01,2,.13,2.16,.52Z"/><path class="h" d="M184.38,230.37c.98,1.67,1.62,6.58,1.34,7.73-2.16,.21-4.6,.06-6.82-.39-.57-.11-1.13-.24-1.66-.39,.28-1.15,.44-5.4-.54-7.09,1.81,.05,3.92,.4,6.06,.33,.55-.02,1.09-.08,1.62-.19Z"/><path class="g" d="M184.39,220.74c.45,.84,.14,3.6-2.35,3.7-1.79-.33-3.43-2.04-2.86-2.74,.39-.47,3.18-.99,5.21-1.01v.05Z"/><path class="w" d="M185.02,360.52c-.79,.23-1.32,1.4-1.68,3.2-1.18,5.89-.44,18.58-.58,27.33-1.8,.19-3.32,.35-4.68,.45,1.43-9.43,.78-23.11,.73-29.65,0-1.33,4.67-1.27,6.21-1.33Z"/><path class="a`" d="M182.76,391.05c-.07,4.88-.42,8.53-1.52,9.12-2.77,1.5-5.63,1.65-8.17,1.21,2.69-.47,4.19-4.47,5.01-9.88,1.36-.1,2.88-.26,4.68-.45Z"/><path class="p" d="M180.25,263.9c.07,1.31,.91,3.15,.3,3.57-.5,.35-1.65-.68-2.59-1.22,.77,.23,1.48,.24,1.94-.53,.2-.34,.27-.97,.24-1.82h.11Z"/><path class="k" d="M180.14,263.9c.03,.85-.04,1.48-.24,1.82-.46,.77-1.17,.76-1.94,.53-.01,0-.02,0-.02-.01-.08-.04-.16-.08-.23-.12-.12-2.33-.36-4.85-.68-6.01,.98-.17,1.87-.37,2.62-.64,.28,1.75,.47,3.29,.49,4.43Z"/><path class="y" d="M179.66,286.52s0,.03,.01,.04c-.2,.03-.4,.06-.6,.11h-.02c-.68,.01-1.35,.02-2.01,.04-.36,.01-.71,.02-1.06,.03-1.18,.03-2.33,.06-3.43,.1-.03-.05-.06-.09-.09-.14-1.9-2.79-4.59-5.11-5.62-5.11l-.06-1c.16-.01,.33-.02,.49-.03s.32-.02,.49-.02c.97-.05,1.98-.1,3.02-.14,1.81-.07,3.73-.13,5.75-.18,.6-.01,1.21-.03,1.83-.04-.05,.42-.05,.87-.02,1.34,.09,1.2,.41,2.53,.92,3.96,.12,.34,.25,.68,.39,1.04h.01Z"/><path class="k" d="M177.04,286.71c.66-.02,1.33-.03,2.01-.04-.33,.07-.65,.15-.97,.25h-.01s-.02,.01-.03,.01c-.12,.04-.24,.08-.36,.13t-.02,0c-1.39,.5-2.65,1.27-3.76,2.25-.34-.83-.81-1.67-1.35-2.48,1.1-.04,2.25-.07,3.43-.1,.35,0,.7-.02,1.06-.03Z"/><path class="m" d="M181.2,274.17c-1.27,1.38-2.21,3.03-2.66,4.91-.04,.2-.08,.41-.12,.62-.02,.11-.04,.22-.05,.34-.01,.05-.01,.09-.01,.14-.62,.01-1.23,.03-1.83,.04-2.02,.05-3.94,.11-5.75,.18-.05-.57-.12-1.23-.21-1.94,2-.79,4.21-2.87,4.7-4.57,.28,.14,.6,.22,.94,.22,1.06,0,1.94-.8,2.07-1.83,.89,.91,1.89,1.63,2.92,1.89Z"/><path class="a`" d="M173.27,311.7c3.76,4.41,6.13,12.59,4.5,16.33-.01,.02-.01,.05-.02,.07,0,.01,0,.02-.01,.03-.15,.56-.47,1.09-.94,1.58h-.01c-3.21,3.37-13.29,4.87-20.5,2.24,10.17,.4,16.7-2.26,17.07-10.64h0c1.36-2.53,.69-6.21-.23-9.49l.14-.12Z"/><path class="m" d="M177.71,266.12v.04c-1.27-.46-2.63-1.36-3.16-.29-.15,.29,.61,2.18,1.87,4.09-.07-.01-.14-.01-.21-.01-.77,0-1.43,.41-1.8,1.03,.25-2.26-.26-8.46-.76-10.32h0c1.16-.2,2.32-.36,3.38-.55,.32,1.16,.56,3.68,.68,6.01Z"/><path class="h" d="M176.7,230.23c.98,1.69,.82,5.94,.54,7.09-3.93-1.1-6.68-3.14-4.98-5.57,.95-1.36,2.53-1.6,4.44-1.52Z"/><path class="q" d="M175.27,273.89c-.67-.34-1.14-1.05-1.14-1.86,0-.38,.1-.74,.28-1.05,.37-.62,1.03-1.03,1.8-1.03,.07,0,.14,0,.21,.01h.01c.53,.81,1.16,1.62,1.85,2.32-.13,1.03-1.01,1.83-2.07,1.83-.34,0-.66-.08-.94-.22Z"/><ellipse class="w" cx="171.68" cy="374.68" rx="5.86" ry="2.95"/><path class="k" d="M163.94,389.53c6.47,2,9.32,2.33,14.14,1.97-.82,5.41-2.32,9.41-5.01,9.88-1.61-.27-3.1-.78-4.35-1.34-2-.89-2.94-2.54-4.78-10.51Z"/><path class="k" d="M173.65,260.66c.5,1.86,1.01,8.06,.76,10.32-.18,.31-.28,.67-.28,1.05,0,.81,.47,1.52,1.14,1.86-.49,1.7-2.7,3.78-4.7,4.57-.27-2.12-.69-4.67-.82-6.36-.23,1.74-.87,4.16-1.49,6.51-.17,.65-.34,1.3-.5,1.93-.17,0-.33,.01-.49,.02s-.33,.02-.49,.03c-5.22,.29-9.48,.69-12.95,1.2h0c1.15-2.71,9.37-16.15,12.99-18.89,1.68-1.27,4.27-1.83,6.83-2.24Z"/><path class="a`" d="M173.13,311.82c.92,3.28,1.59,6.96,.23,9.48,.14-3.04-.53-6.83-2.13-11.49,.71,.49,1.4,1.13,2.04,1.89l-.14,.12Z"/><path class="p" d="M173.9,289.32c-.32,.28-.63,.58-.92,.9h-.01c-.96-2.86-3.27-5.62-4.38-5.18-1.25,.48-.31,2.79-1.3,4.09-1.32,1.73-8.79-2.53-21.32-5.78-1.43-.37-2.91-.72-4.47-1.05,1.26-.09,3.23,.21,5.52,.72,.09,.02,.17,.04,.26,.06h.01c.42,.09,.85,.19,1.3,.3,1.8,.42,3.72,.93,5.62,1.42,2.92,.77,5.78,1.52,7.98,1.94h.01c.94,.18,1.75,.31,2.41,.35,.59,.04,1.05,.02,1.36-.09,.05-.01,.09-.03,.13-.05,2.21-1.09-1.31-4.57,.55-5.33,.05-.02,.12-.03,.19-.03,1.03,0,3.72,2.32,5.62,5.11,.03,.05,.06,.09,.09,.14,.54,.81,1.01,1.65,1.35,2.48Z"/><path class="k" d="M152.07,323.34c4.54-5.83,8.68-11.03,12.39-13.33h0c1.3-.81,2.54-1.25,3.73-1.25,.24,0,.48,.01,.71,.05,.8,.13,1.58,.48,2.33,1,1.6,4.66,2.27,8.45,2.13,11.49h0c-.37,8.39-6.9,11.05-17.07,10.65-.75-.27-1.46-.59-2.14-.95-1.26-.69-2.38-1.53-3.28-2.56-1.74-1.73-2.25-4.68-2.26-6.96,.93,.58,1.97,1.13,3.13,1.63,.03,.02,.06,.04,.09,.04l.24,.19Z"/><path class="r" d="M172.97,290.21h.01c-2.26,2.42-3.77,5.71-4.33,9.01v.17c-.98-.05-1.92-.1-2.83-.15h0c-3.87-.24-7.19-.53-10.05-.89l.02-.14c.51-.24,1.06-.43,1.47-.67,1.06-.36,2.96-.27,3-.89,.05-.75-3.68-1.54-4.75-2.3l-.02,.03c-1.63-.98-3.93-2.18-6.25-3.45-.76-.41-1.51-.84-2.25-1.27-.05-.03-.11-.06-.16-.09-1.18-.68-2.3-1.37-3.29-2.04-.93-.63-1.73-1.25-2.34-1.84l-.05-.05c-1.07-1.05-1.54-2.02-1.01-2.83,.21-.31,.68-.47,1.36-.51,1.56,.33,3.04,.68,4.47,1.05,12.53,3.25,20,7.51,21.32,5.78,.99-1.3,.05-3.61,1.3-4.09,1.11-.44,3.42,2.32,4.38,5.17Zm-4.9,6.03c1.26,.04,2.43-1.98,1.98-2.79-.54-.98-8.32-1.2-8.59,.26-.21,1.13,5.4,2.49,6.61,2.53Z"/><path class="l" d="M172.13,191.92c.17,1.1-.04,2.11-.5,2.43-.85,.6-3.2-.66-4.72-2.14,1.71-.1,3.45-.19,5.22-.29Z"/><path class="aa" d="M171.17,189.69c.54,.65,.85,1.46,.96,2.23-1.77,.1-3.51,.19-5.22,.29-.54-.52-.97-1.07-1.19-1.57h0c1.81-.33,3.63-.65,5.45-.95Z"/><path class="w" d="M170.57,278.46c.09,.71,.16,1.37,.21,1.94-1.04,.04-2.05,.09-3.02,.14,.16-.63,.33-1.28,.5-1.93,.62,.29,1.45,.19,2.31-.15Z"/><path class="a`" d="M169.75,272.1c.13,1.69,.55,4.24,.82,6.36-.86,.34-1.69,.44-2.31,.15,.62-2.35,1.26-4.77,1.49-6.51Z"/><path class="p" d="M170.05,293.45c.45,.81-.72,2.83-1.98,2.79-1.21-.04-6.82-1.4-6.61-2.53,.27-1.46,8.05-1.24,8.59-.26Z"/><path class="a`" d="M169.45,159.26s-.03,.02-.05,.03c-3.93,2.61-6.26,4.21-8.61,5.77l-.07-.1c3.58-1.76-2.55-18.03-3.9-48.62-.3-6.81-1.7-21.59-6.11-31.89,3.6,7.24,6.66,16.94,8.05,28.61,2.41,20.23,6.29,35.98,10.69,46.2Z"/><path class="i" d="M163.5,203.03c3.69,4.56,6.24,11.37,5.09,14.71-.92-5.43-4.34-9.09-8.41-11.01-.02-.48-.43-.87-.92-.87-.23,0-.45,.09-.61,.23-.78-.27-1.57-.49-2.36-.64,2.19-2.59,5-3.99,7.2-2.43,0,.01,.01,.01,.01,.01Z"/><path class="y" d="M168.33,305.96l-.14,2.8c-1.19,0-2.43,.44-3.73,1.24h0c-3.71,2.31-7.85,7.51-12.39,13.34l-.24-.19s-.06-.02-.09-.04c-1.16-.5-2.2-1.05-3.13-1.63-8.28-5.13-8.28-12.79-8.28-21.36l.05-.05c2.92,2.87,10.14,5.02,27.95,5.89Z"/><path class="y" d="M166.78,280.59l.06,1c-.07,0-.14,.01-.19,.03-1.86,.76,1.66,4.24-.55,5.33-.04,.02-.08,.04-.13,.05-.31,.11-.77,.13-1.36,.09-.66-.04-1.47-.17-2.41-.35h-.01c-2.2-.42-5.06-1.17-7.98-1.94-1.9-.49-3.82-1-5.62-1.42-.45-.11-.88-.21-1.3-.3,.63-.17,1.29-.34,2.01-.49,1.34-.29,2.84-.56,4.53-.8,3.47-.51,7.73-.91,12.95-1.2Z"/><path class="a`" d="M165.72,190.64c.22,.5,.65,1.05,1.19,1.57-6.17,.38-11.9,.84-16.8,1.31,5.08-.99,10.31-1.96,15.61-2.89h0Z"/><path class="f" d="M163.49,203.02c-2.2-1.56-5.01-.16-7.2,2.43-2.96-.59-5.95-.36-8.38,.7l-.17-.08c2.09-4.46,6.13-8.1,9.5-7.52,2.15,.37,4.35,2.12,6.25,4.47Z"/><path class="n" d="M168.59,217.74c-.84,2.44-5.49,3.48-10.3,3.09h0c-8.03-1.73-6.08-10.6-2-15.38,.79,.15,1.58,.37,2.36,.64-.2,.17-.32,.42-.32,.7,0,.51,.42,.92,.93,.92s.93-.41,.93-.92c0-.02,0-.04-.01-.06,4.07,1.92,7.49,5.58,8.41,11.01Z"/><path class="k" d="M160.72,164.96l.07,.1c-.69,.46-1.38,.92-2.11,1.39-3.92-6.39-9.31-17.56-8.41-33.17,.54-9.18,.49-17.33-.09-25.01,0-.02-.01-.05-.01-.07-.04-.9-.11-1.76-.21-2.58-.4-4.37-.98-8.6-1.71-12.82h-.01c-.51-5.1-6.44-20.58-14.38-22.35,.79-.42,1.56-.66,2.3-.69,4.05-.18,9.76,5.08,14.53,14.65,0,.01,.01,.02,.02,.04,4.41,10.3,5.81,25.08,6.11,31.89,1.35,30.59,7.48,46.86,3.9,48.62Z"/><path class="p" d="M155.51,294.35c1.07,.76,4.8,1.55,4.75,2.3-.04,.62-1.94,.53-3,.89,.45-.28,.73-.63,.6-1.21-.1-.44-1.01-1.12-2.37-1.95l.02-.03Z"/><path class="h" d="M160.18,206.73s.01,.04,.01,.06c0,.51-.42,.92-.93,.92s-.93-.41-.93-.92c0-.28,.12-.53,.32-.7,.52,.19,1.03,.4,1.53,.64Z"/><path class="h" d="M159.26,205.86c.49,0,.9,.39,.92,.87-.5-.24-1.01-.45-1.53-.64,.16-.14,.38-.23,.61-.23Z"/><path class="h" d="M158.29,220.82h0c-4.85-.4-9.86-2.26-11.32-5.64-1.17-2.71-.65-6.1,.77-9.11l.17,.08c2.43-1.06,5.42-1.29,8.38-.7-4.08,4.78-6.03,13.65,2,15.37Z"/><path class="k" d="M157.26,297.54c-.41,.24-.96,.43-1.47,.67l-.02,.14c-9.22-1.14-13.55-2.91-15.59-5.06-.03-.03-.06-.06-.08-.09,.02-.03,.05-.07,.08-.1,1.03-1.09,2.66-2.09,5.2-2.95,.5-.17,1.03-.33,1.61-.49,.74,.43,1.49,.86,2.25,1.27,2.32,1.27,4.62,2.47,6.25,3.45,1.36,.83,2.27,1.51,2.37,1.95,.13,.58-.15,.93-.6,1.21Z"/><path class="ab" d="M148.46,225.82c3.06,0,5.55,1.32,5.55,2.95s-2.49,2.94-5.55,2.94-5.55-1.32-5.55-2.94,2.48-2.95,5.55-2.95Z"/><path class="v" d="M158.68,166.45c-1.78,1.17-3.82,2.46-6.72,4.23-.05-.06-.1-.11-.17-.18,1.31-2.62-2.01-13.68-2.93-16.9-3.08-10.81,1.95-31.95,1.32-45.33,.58,7.68,.63,15.83,.09,25.01-.9,15.61,4.49,26.78,8.41,33.17Z"/><path class="g" d="M148.86,153.6c.92,3.22,4.24,14.28,2.93,16.9-7.22-7.67-21.58-19.55-28.95-38.07-10.3-25.91,1.61-56.99,11.02-61.98,7.94,1.77,13.87,17.25,14.38,22.35h.01c.73,4.22,1.31,8.45,1.71,12.82,.08,.86,.15,1.72,.21,2.58,0,.02,.01,.05,.01,.07,.63,13.38-4.4,34.52-1.32,45.33Z"/><path class="y" d="M138.56,290.07h-.03c.15-.93,.45-1.83,1.02-2.68,.4-.59,.94-1.16,1.65-1.7,.61,.59,1.41,1.21,2.34,1.84,.99,.67,2.11,1.36,3.29,2.04,.05,.03,.11,.06,.16,.09-.58,.16-1.11,.32-1.61,.49-2.54,.86-4.17,1.86-5.2,2.95-.03,.03-.06,.07-.08,.1-.89-.98-1.32-2.02-1.54-3.13Z"/><path class="k" d="M141.01,195.34c-2.53,7.67-4,15.68-4.93,23.05-.17,1.38-.23,2.71-.18,4.01h-.02c-26.64-.8-50.55-3.75-50.94-8.41-.03-.38,.09-.78,.38-1.2h.01c3.19-4.78,26.32-11.39,55.68-17.45Z"/></g></g><g id="d"><g id="e"/><path class="t" d="M224.97,330.05c.65,3.93-.03,10.45-.46,14.58-2.5,23.74-5.8,52.31-10.52,54.38-4.77,2.1-8.13,2.95-12.79,.3-3.26-1.87-1.17-36.52-4.95-38.48-.91-.47-1.96-.76-3.06-.9h-.01c-3.05-.44-6.45,.13-8.15,.64-.79,.23-1.32,1.4-1.68,3.2-1.83,9.17,.98,34.79-2.1,36.45-4.53,2.45-9.3,1.31-12.52-.13-3.88-1.73-3.77-6.29-13.96-54.39-.82-3.88-1.28-10.22-.61-14.77"/><path class="t" d="M177.75,327.91c3.37,.22,7.06,.33,11.07,.33,2.01,0,3.93-.03,5.78-.08,2.41-.07,4.68-.18,6.82-.34"/><path class="t" d="M239.25,293.42c0,7.19,0,13.02-50.43,13.02s-50.43-5.83-50.43-13.02"/><path class="t" d="M224.24,182.25c5.33,9.09,8.49,19.8,10.27,29.89,.27,1.51,.5,3,.71,4.47,1.07,7.56-1.95,14.33-7.45,19.86-9.32,9.37-25.8,15.18-41.72,15.23"/><path class="t" d="M178.08,251.36c-22.84-2.03-44.5-13.02-41.99-32.92,.93-7.37,2.4-15.38,4.93-23.05"/><path class="t" d="M201.59,157.9h0c5.39-10.17,11.46-26.68,15.63-45.9,5.8-26.71,19.55-41.95,26.61-40.96,9.47,1.34,21.09,36.75,7.3,63.66-8.47,16.53-22.59,26.78-30.91,33.72-.01,.01-.03,.02-.04,.04"/><path class="t" d="M212.77,164.37c.26-.36,.53-.75,.8-1.14,4.37-6.46,9.67-16.74,10.17-30.29,.58-15.55,2.54-27.98,5.87-40.11"/><path class="t" d="M169.46,159.31c-4.4-10.22-8.28-25.97-10.69-46.2-3.24-27.13-15.48-43.62-22.6-43.3-9.55,.43-24.49,34.58-13.32,62.67,7.37,18.52,21.73,30.4,28.95,38.07,.07,.07,.13,.13,.18,.19"/><path class="t" d="M148.26,92.85c2.15,12.39,2.93,24.95,2.02,40.48-.9,15.62,4.5,26.79,8.42,33.18"/><path class="t" d="M198.88,217.13c-2.07-4.93,3.85-18.37,10.1-19.87,5.57-1.34,13.79,9.03,11.31,15.93-2.48,6.9-19.41,8.72-21.41,3.94Z"/><path class="t" d="M203.02,202.12c5.96-4.86,18.5,13.98,6.33,17.43"/><path class="t" d="M168.61,217.79c1.75-5.06-5.02-18.09-11.35-19.19-5.64-.98-13.18,9.89-10.27,16.62,2.91,6.73,19.93,7.46,21.62,2.56Z"/><path class="t" d="M163.51,203.08c-6.26-4.47-17.57,15.14-5.2,17.8"/><path class="t" d="M171.18,189.74c1.32,1.57,1.24,4.11,.46,4.66-1.15,.81-5.06-1.79-5.91-3.71"/><path class="t" d="M196.64,192.7c-.54-.68,.62-3.33,2.95-4.04,1.77-.54,3.91,.14,4.01,.95,.19,1.46-6.09,4.18-6.96,3.09Z"/><path class="t" d="M182.82,224.55c2.64-.16,4.33-1.82,3.75-3.28-.44-1.11-6.77-.25-7.37,.49-.65,.79,1.58,2.92,3.62,2.79Z"/><path class="t" d="M182.77,230.61c.3-2.22,.34-5.24,.11-6.06"/><path class="t" d="M136.46,215.66c-12.56-5.07-29.11-5.88-40.49-3.07"/><path class="t" d="M104.25,230.93c11.2-3.95,22.55-5.88,32.06-5.1"/><path class="t" d="M235.35,214.46c12.56-5.07,28.56-5.84,39.93-3.03"/><path class="t" d="M267.01,229.78c-11.2-3.95-22.55-5.88-32.06-5.1"/><path class="t" d="M153.84,281.83c1.15-2.7,9.37-16.14,12.99-18.88,1.69-1.28,4.28-1.83,6.83-2.24h0c1.16-.2,2.32-.36,3.38-.55,.92-.16,1.77-.35,2.49-.6"/><line class="t" x1="193.19" y1="359.93" x2="193.18" y2="359.93"/><path class="t" d="M223.83,278.47c-.52-1.15-1.15-2.48-1.85-3.88"/><path class="t" d="M197.8,250.67c0,2.07,.53,3.9,1.48,6.31,1.27,3.23,10.52,2.09,14.4,5.06,.31,.24,.64,.55,.98,.91"/><path class="t" d="M150.9,324.9c.32-.4,.63-.81,.94-1.2,4.63-5.95,8.85-11.3,12.63-13.64h0c1.56-.97,3.04-1.43,4.44-1.2,5.95,.95,11.08,14.15,8.87,19.22-.01,.02-.01,.05-.02,.07,0,0,0,.02-.01,.03-1.29,4.83-15.46,7.25-23.59,2.87-1.26-.68-2.38-1.53-3.28-2.56"/><path class="t" d="M150.9,324.46s0,.02-.02,.03"/><path class="t" d="M173.14,311.87c1.1,3.94,1.85,8.45-.84,10.85"/><path class="t" d="M164.47,310.4h0c.54,5.01,.12,8.14-1.68,11.28"/><path class="t" d="M140.34,300.17c0,8.57,0,16.23,8.28,21.36,.93,.58,1.97,1.13,3.13,1.63,.03,.02,.06,.04,.09,.04"/><path class="t" d="M227.16,322.56s.06-.03,.09-.04c1.14-.58,2.15-1.2,3.05-1.86,6.99-5.1,6.99-12.39,6.99-20.49"/><path class="t" d="M138.58,290.11h0c.21,1.12,.65,2.17,1.53,3.14,.02,.03,.05,.06,.08,.09,2.67,2.82,9.28,4.97,25.64,5.94h0c3.9,.24,8.35,.39,13.43,.48,2.96,.05,6.14,.08,9.55,.08s6.62-.03,9.6-.08c2.01-.03,3.92-.08,5.74-.14,1.56-.05,3.04-.11,4.47-.17,18.7-.86,25.98-3.11,28.81-6.12,.03-.03,.06-.06,.08-.09,.9-.97,1.32-2.04,1.53-3.15h0"/><path class="t" d="M138.39,293.15v-.41c0-.35,0-.7,.02-1.04,.04-1.51,.26-2.95,1.15-4.26,.36-.55,.85-1.08,1.5-1.58"/><path class="t" d="M219.57,281.31h-.01"/><path class="t" d="M231.31,283.4c.34,.1,.66,.2,.97,.31,6.96,2.37,6.96,5.72,6.96,9.44"/><path class="t" d="M146.91,283.23h.01c.73-.21,1.53-.4,2.39-.59,1.34-.29,2.84-.56,4.53-.81,3.58-.51,8-.93,13.44-1.22,.16-.01,.32-.02,.49-.02,2.67-.14,5.59-.24,8.77-.32,.57-.01,1.14-.03,1.73-.04"/><path class="t" d="M164.39,287.29h.01c.5-.03,1-.07,1.52-.1"/><path class="t" d="M181.06,286.68h-.06"/><path class="t" d="M172.35,286.89c1.17-.03,2.38-.07,3.64-.1,.35-.01,.7-.02,1.06-.03s.72-.01,1.09-.02c.46,0,.92-.02,1.4-.03"/><path class="t" d="M180.05,286.7s-.02,0-.03,.01"/><line class="t" x1="204.69" y1="286.88" x2="204.68" y2="286.88"/><path class="t" d="M233.14,290.52c.09,.04,.19,.07,.28,.11,1.88,.76,3.15,1.6,4.01,2.51,.03,.04,.06,.07,.09,.1"/><path class="t" d="M211.1,287.16c-.13-.01-.26-.02-.39-.02h0"/><path class="t" d="M140.11,293.25s.05-.06,.08-.1c1.03-1.09,2.66-2.09,5.2-2.95,.42-.14,.86-.28,1.34-.42"/><path class="t" d="M148.62,321.53c.01,2.28,.52,4.98,2.26,6.71"/><path class="t" d="M227.91,323.56s.06,.09,.1,.14"/><path class="t" d="M228.03,324.2s-.01,0-.02-.03c-.29-.36-.57-.72-.85-1.08-6.58-8.45-12.31-15.72-17.15-14.95-5.95,.95-11.08,14.15-8.87,19.22,.06,.26,.15,.49,.28,.73,2.68,5.11,20.19,7.02,26.61-.32"/><path class="t" d="M205.78,311.2c-1.1,3.94-1.85,8.45,.84,10.85"/><path class="t" d="M214.45,309.74c-.54,5.01-.12,8.13,1.68,11.27"/><path class="t" d="M230.3,320.66c0,2.3-.5,5.06-2.27,6.82"/><path class="t" d="M167.77,280.59c.73-2.89,1.69-6.21,1.99-8.44"/><path class="t" d="M199.36,226.06c-4.51-4.64-9.39,4.34-16.59,4.56-4.39,.14-8.64-1.47-10.49,1.19-2.83,4.05,6.67,7.02,13.45,6.35,8.63-.85,17.33-8.28,13.63-12.09Z"/><path class="t" d="M184.4,230.42c.98,1.68,1.61,6.58,1.34,7.73"/><path class="t" d="M191.63,226.8c.98,1.68,2.67,7.48,2.4,8.63"/><path class="t" d="M176.72,230.27c.98,1.68,.81,5.95,.54,7.1"/><path class="t" d="M198.83,231.48c14.81-.98,38.49,6.46,55.41,18.11"/><path class="t" d="M236.01,239.78c-.79,2.96,.46,6.65,.88,6.68,.75,.06,1.43-3.35,2.22-3.26,.82,.09,.65,3.79,1.83,4.04,.93,.2,1.7-1.98,2.61-1.83,1.55,.26,1.41,7,2.22,7.04,.66,.04,1-4.47,2.09-4.57,1.53-.13,2.96,8.71,4.7,8.61,1.19-.07,.1-4.33,1.4-4.47,1.93-.21,4.41,8.72,6.82,8.27,1.59-.29-3.83-7.64-2.75-9.93,.52-1.1,6.26-1.79,6.26-2.35,0-.86-10.8-1.27-10.83-2.22-.02-.73,6.95-1.08,6.39-1.83-.96-1.29-12.23,.07-12.39-1.17-.12-.9,6.78-1.88,6-2.87-1.69-2.15-11.71,1.39-12.13-.13-.18-.65,1.98-1.22,1.57-2.09-.24-.5-6.21-.33-7.84,1.68"/><path class="t" d="M178.24,272.56c-.21,.92-1.04,1.6-2.02,1.6-.34,0-.66-.08-.94-.23-.68-.34-1.14-1.04-1.14-1.85,0-.38,.1-.74,.28-1.05,.36-.61,1.03-1.03,1.8-1.03"/><path class="t" d="M173.67,260.7c.5,1.84,1.01,8.07,.76,10.33"/><path class="t" d="M177.73,266.41c-.11-2.4-.36-5.04-.69-6.25"/><path class="t" d="M203.77,271.94c-.02-.12-.03-.25-.03-.38,0-.56,.22-1.07,.6-1.45h0c.38-.39,.9-.63,1.48-.63,.2,0,.39,.03,.58,.09"/><path class="t" d="M208.38,260.19c-.39,1.44-.79,5.55-.82,8.36"/><path class="t" d="M205.01,259.65c-.58,2.08-.89,8.46-.66,10.46"/><path class="t" d="M184.37,271.77h0"/><path class="t" d="M203.74,271.82c-.82-.06-1.67-.1-2.56-.14"/><path class="t" d="M175.28,273.93c-.68,2.44-4.97,5.68-7.01,4.73"/><path class="t" d="M163.96,389.58c8.3,2.57,10.63,2.38,18.82,1.52"/><path class="t" d="M218.19,389.58c-8.3,2.57-10.53,2.52-18.73,1.66"/><path class="t" d="M135.89,222.45c-26.64-.8-50.55-3.75-50.94-8.41-1.14-13.6,195.72-46.31,197.6-29.74,.99,8.68-26.72,21.73-48.04,27.84"/><path class="t" d="M85.33,212.84c8.42-18.87,169.99-53.1,196.7-29.72"/><path class="t" d="M225.82,175.04c-1.65-2.43-3.53-4.64-5.6-6.62"/><path class="t" d="M201.59,157.89c-10.21-2.92-21.61-2.55-32.13,1.42-.02,.01-.03,.02-.05,.03"/><path class="t" d="M138.95,189.83c3.22-7.83,7.65-14.23,12.85-19.28"/><path class="t" d="M151.97,170.73c8.17-5.02,9.56-6.17,17.49-11.42"/><path class="t" d="M201.59,157.89c7.71,4.34,10.99,6.55,18.59,10.56"/><path class="t" d="M221.49,298.46c-.1-.34-.21-.68-.33-1.01-.7-1.91-1.81-3.76-3.21-5.37-.24-.28-.48-.55-.73-.8-1.5-1.55-3.26-2.81-5.16-3.65-.32-.13-.64-.26-.96-.37-.09-.03-.19-.06-.28-.09,0,0,0-.01,0,0-.86-.28-1.74-.48-2.64-.55"/><path class="t" d="M221.16,297.45c5.15-1.03,9.54-3.8,11.25-5.76,.37-.41,.62-.79,.72-1.11,0-.02,0-.04,0-.06,.04-.14,.06-.27,.04-.38-.43-2.72-4.26-.44-4.59-2.44-.1-.62,1.07-2.23,2.69-4.27l.03-.03s.01-.02,.02-.03c4.15-5.16,11.24-13.02,8.58-14.87-1.75-1.22-9.97,5.54-16.08,9.97-.02,.01-.04,.03-.06,.04-.98,.7-1.9,1.35-2.73,1.89-.16,.11-.32,.21-.48,.31-.35,.22-.68,.42-.99,.6h-.01s-.03,.02-.04,.03h-.01c-.92,.52-1.64,.81-2.09,.77-.73-.05-1.07-.49-1.23-1.08h-.01c-.08-.27-.12-.56-.15-.87-.06-.65-.05-1.34-.18-1.87-.12-.53-.37-.9-.94-.9-.45,0-1.12,.83-1.77,2.09-.02,.03-.03,.06-.05,.09h0c-.06,.11-.11,.2-.16,.31-.13,.27-.25,.56-.38,.86,0,.01,0,.01,0,.02-.79,1.89-1.43,4.3-1.44,6.4v.09"/><path class="t" d="M207.44,299.52c-2.26-3.01-5.75-5.11-9.93-7.01h-.01"/><path class="t" d="M202.56,273.09c.39-.37,.77-.74,1.16-1.1,.88-.82,1.76-1.62,2.64-2.39,.38-.34,.76-.67,1.14-1,.75-.65,1.49-1.27,2.21-1.86,1.75-1.44,3.41-2.71,4.9-3.75,3.32-2.35,5.78-3.58,6.41-3.02,1.63,1.43,1.87,7.44,.94,14.74-.23,1.83-.54,3.75-.92,5.69"/><path class="t" d="M211.68,282.3c-1-.62-1.89-1.18-2.7-1.73h-.01c-1.39-.93-2.55-1.81-3.62-2.83,0-.01-.01-.01-.01-.02"/><path class="t" d="M209.71,266.74c1.25,3.55,3.63,5.8,7.03,7.64"/><path class="t" d="M201.99,299.71l-.02-.02c-.47-.44-.95-.87-1.43-1.3-.56-.5-1.12-1-1.69-1.48-.94-.82-1.9-1.61-2.86-2.38-2.37-1.87-4.73-3.57-6.97-4.88-2.13-1.25-4.15-2.18-5.94-2.64-.28-.08-.54-.14-.81-.18-.28-.05-.55-.09-.82-.12h-.09l-.3-.03h-.06c-.33-.02-.64-.01-.95,.02,0,0-.02,0-.03,.01-.03,0-.08,.01-.11,.02h-.02c-.11,0-.21,.02-.32,.04-.55,.08-1.09,.2-1.6,.36-.01,0-.02,.01-.03,.01-.12,.04-.24,.08-.36,.13t-.02,.01c-1.39,.5-2.65,1.27-3.76,2.25-2.77,2.46-4.62,6.17-5.25,9.9v.03"/><path class="t" d="M173.8,289.53c-.36-.88-.87-1.77-1.44-2.62-2.03-2.98-4.96-5.43-5.81-5.08-1.86,.76,1.66,4.24-.55,5.33-.04,.02-.08,.04-.13,.05-.31,.11-.77,.13-1.36,.09-.66-.04-1.47-.17-2.41-.35h-.01c-2.2-.42-5.06-1.17-7.98-1.94-1.9-.49-3.82-1-5.62-1.42-.54-.13-1.06-.25-1.57-.36-3.54-.78-6.3-1.09-6.88-.21-.53,.81-.06,1.78,1.01,2.83,.62,.61,1.44,1.24,2.39,1.89,.99,.67,2.11,1.36,3.29,2.04,.79,.46,1.6,.92,2.41,1.36,4.25,2.33,8.39,4.41,8.62,5.4,.25,1.11-1.01,1.38-2.07,1.88"/><path class="t" d="M201.99,299.71l-.02-.02c-.47-.44-.95-.87-1.43-1.3-.56-.5-1.12-1-1.69-1.48-.94-.82-1.9-1.61-2.86-2.38,.38-.54,.76-1.05,1.14-1.54,.12-.16,.25-.32,.38-.48,.48-.62,.99-1.22,1.49-1.76h.01c1.58-1.72,3.16-2.98,4.67-3.57h0"/><path class="t" d="M203.69,287.17h.01c.18-.07,.36-.13,.54-.18,.12-.03,.23-.07,.35-.09,1.2-.32,2.4-.39,3.58-.28-.48-2.18-1.06-4.26-1.75-6.17-.12-.34-.24-.67-.37-1-.22-.59-.46-1.16-.71-1.71v-.02c-.81-1.8-1.74-3.37-2.78-4.63-.43-.52-.87-.98-1.34-1.38-.53-.45-1.09-.83-1.67-1.12-1.3-.65-2.79-1.05-4.35-1.22-4.71-.49-10.17,1.14-13.6,4.5h-.01c-1.52,1.49-2.64,3.31-3.15,5.42-.04,.2-.08,.41-.12,.62-.02,.11-.04,.22-.05,.34-.06,.46-.06,.96-.03,1.48,.09,1.2,.41,2.53,.92,3.96,.12,.34,.25,.68,.39,1.04h.01s0,.03,0,.04"/><path class="t" d="M195.2,269.37c1.79-6.68,.29-13.54-1.22-14.01-2.63-.82-2.28,3.63-4.22,3.03-.79-.25-2.13-3.18-3.7-6.67-2.66-5.9-5.99-13.37-8.48-11.99-1.3,.72-.52,6,.5,11.65,.5,2.8,1.06,5.7,1.45,8.18,.5,3.11,.74,5.57,.27,6.37-.5,.84-1.3,.75-2.15,.46-1.28-.46-2.66-1.39-3.2-.31-.29,.58,2.94,7.36,6.65,8.3"/><path class="t" d="M182.27,286.83c3.82-2.83,7.58-4.65,11.78-4.47"/><path class="t" d="M177.58,287.27l-.02,.02"/><path class="t" d="M181.41,299.82c.83-3.69,3.16-7.06,6.21-10.52"/></g></svg>