<svg width="293" height="174" viewBox="0 0 293 174" fill="none" xmlns="http://www.w3.org/2000/svg">
<path d="M240.574 6.82764H240.558" stroke="#3F2A25" stroke-width="2" stroke-linecap="round" stroke-linejoin="round"/>
<path d="M15.7592 72.0859C15.7592 126.192 16.4213 171.266 150.688 171.266C284.955 171.266 285.634 126.175 285.634 72.0693" stroke="#3F2A25" stroke-width="2" stroke-linecap="round" stroke-linejoin="round"/>
<path d="M15.7591 72.0858C10.313 65.2252 10.313 57.188 10.313 48.6206" stroke="#3F2A25" stroke-width="2" stroke-linecap="round" stroke-linejoin="round"/>
<path d="M291.063 48.6206C291.063 57.188 291.063 65.2086 285.634 72.0692" stroke="#3F2A25" stroke-width="2" stroke-linecap="round" stroke-linejoin="round"/>
<path d="M10.313 48.6206C10.313 47.2121 10.313 45.8035 10.3461 44.4281C10.3461 43.8978 10.3627 43.3675 10.3792 42.8538C10.4454 40.9647 10.5778 39.1087 10.8427 37.2858V37.2361" stroke="#3F2A25" stroke-width="2" stroke-linecap="round" stroke-linejoin="round"/>
<path d="M200.465 3.16528H200.448" stroke="#3F2A25" stroke-width="2" stroke-linecap="round" stroke-linejoin="round"/>
<path d="M13.5906 27.8071C6.15802 22.6865 1.47333 17.7979 3.87361 14.1357C5.76073 11.2357 15.6102 12.7437 27.7109 15.5774" stroke="#3F2A25" stroke-width="2" stroke-linecap="round" stroke-linejoin="round"/>
<path d="M291.063 47.9578C291.063 34.8664 291.063 23.051 271.679 14.6824C264.395 11.5338 254.364 8.88239 240.575 6.82754H240.558C236.221 6.18125 231.52 5.60125 226.405 5.08753C223.64 4.80582 220.743 4.54067 217.714 4.2921C212.367 3.86124 206.623 3.48011 200.465 3.16525H200.448C199.306 3.11554 198.148 3.04924 196.972 2.99953C183.547 2.38639 168.218 2.07153 150.705 2.07153C138.24 2.07153 126.884 2.23725 116.538 2.55211C107.135 2.83382 98.5606 3.23153 90.7638 3.76181C68.4826 5.26981 52.3759 7.70582 40.7387 10.9041C35.5574 12.3293 31.2699 13.887 27.7109 15.5938" stroke="#3F2A25" stroke-width="2" stroke-linecap="round" stroke-linejoin="round"/>
<path d="M13.5906 27.8235C11.1076 32.4469 10.5116 37.5178 10.3792 42.8538C10.3461 44.0469 10.3296 45.2732 10.3296 46.5161V47.9578" stroke="#3F2A25" stroke-width="2" stroke-linecap="round" stroke-linejoin="round"/>
<path d="M197.038 2.94972C198.214 2.99944 199.373 3.06572 200.515 3.11544H200.531C206.689 3.43029 212.433 3.81144 217.78 4.24229C220.81 4.49087 223.706 4.75601 226.471 5.03773C231.586 5.55144 236.287 6.13143 240.624 6.77772H240.641C254.43 8.83258 264.462 11.484 271.745 14.6326C285.336 20.4989 289.391 28.3869 290.6 37.0869H290.583V37.12C290.004 41.0474 288.829 44.7926 286.329 48.2394C286.263 48.1234 286.18 48.0074 286.097 47.8914C283.697 44.6766 280.154 41.7103 274.924 39.0423C263.717 33.3583 244.796 29.0663 212.831 26.796H212.814C206.458 26.3486 199.588 25.9674 192.172 25.6857C179.939 25.2052 166.199 24.9566 150.771 24.9566C142.643 24.9566 134.979 25.0229 127.761 25.1554C127.546 25.1554 127.348 25.1554 127.132 25.172H127.116C124.98 24.8074 122.977 24.708 121.14 24.8903C120.676 24.9566 120.196 25.0063 119.716 25.0726C119.17 25.1554 118.607 25.2549 118.061 25.3875H118.028C117.018 25.4206 116.025 25.4537 115.048 25.4869C109.403 25.6692 104.073 25.8846 99.0408 26.1497C93.1145 17.1514 84.1424 9.56173 81.5932 10.5892C76.1305 12.8263 86.46 23.0177 79.9875 26.216C78.2328 27.0777 74.0944 26.6966 68.5489 25.6195C62.0764 24.3766 53.7168 22.1892 45.1585 19.9354C39.5965 18.4937 33.9683 17.0023 28.7042 15.7594C28.3897 15.6931 28.0917 15.6103 27.7772 15.544C31.3362 13.8372 35.6236 12.2794 40.8049 10.8543C52.4422 7.65602 68.5489 5.22001 90.8301 3.71201C98.6269 3.18172 107.202 2.78402 116.604 2.5023C126.95 2.18744 138.306 2.02173 150.771 2.02173C168.285 2.02173 183.613 2.33658 197.038 2.94972Z" fill="#BC7171"/>
<path d="M10.909 37.2361C11.5049 41.1469 12.7133 44.8258 15.1798 48.256C15.2626 48.3886 15.3288 48.4715 15.4116 48.5875C20.0301 54.7852 28.9028 60.0549 45.9035 63.9823C56.2329 66.3686 69.5586 68.2412 86.7745 69.5338C97.6337 70.3623 110.016 70.9258 124.169 71.2406C132.413 71.4229 141.269 71.5223 150.754 71.5223C160.24 71.5223 169.195 71.4229 177.489 71.2406C183.084 71.1246 188.414 70.9589 193.479 70.7435C197.817 70.5778 201.955 70.3623 205.911 70.1303C257.956 67.0812 278.218 59.16 286.097 48.5709C286.18 48.4549 286.263 48.3555 286.329 48.2395C288.829 44.7926 290.004 41.0475 290.583 37.12V37.0869H290.6C291.13 40.7989 291.13 44.66 291.13 48.5709C291.13 57.2875 291.13 65.4572 285.419 72.4006C274.493 85.6246 242.793 94.4572 150.754 94.4572C128.821 94.4572 110.33 93.9601 94.7202 93.0155H94.7037C44.7944 89.9995 24.4168 82.4761 16.1068 72.4006C10.3793 65.4572 10.3793 57.2875 10.3793 48.5709C10.3793 48.024 10.3793 47.4938 10.3958 46.9635V46.4663C10.3958 45.2235 10.4124 43.9972 10.4455 42.8041V42.7543C10.5117 40.8818 10.6441 39.0423 10.909 37.2361Z" fill="#BC7171"/>
<path d="M186.03 63.6011C185.799 63.3691 185.567 63.1537 185.335 62.988C183.961 61.6788 182.571 60.4028 181.147 59.1766C179.525 57.6851 177.869 56.2434 176.214 54.8183C173.45 52.3988 170.635 50.112 167.838 47.8417C160.885 42.34 153.966 37.3851 147.411 33.524C146.202 32.8114 145.01 32.1486 143.835 31.5188C138.902 28.8674 134.25 26.8788 130.013 25.8017C129.202 25.5697 128.424 25.3874 127.629 25.2548C127.679 25.2217 127.712 25.1885 127.761 25.1554C134.979 25.0228 142.643 24.9565 150.771 24.9565C166.199 24.9565 179.939 25.2051 192.172 25.6857C199.588 25.9674 206.458 26.3485 212.814 26.796H212.831C244.796 29.0663 263.717 33.3583 274.924 39.0423C280.154 41.7103 283.697 44.6765 286.097 47.8914C286.18 48.0074 286.263 48.1234 286.329 48.2394C286.263 48.3554 286.18 48.4548 286.097 48.5708C278.218 59.16 257.956 67.0811 205.911 70.1303C201.955 70.3623 197.817 70.5777 193.479 70.7434C191.427 68.6886 189.324 66.7 187.206 64.6948C186.825 64.3303 186.428 63.9657 186.047 63.6177H186.03V63.6011Z" fill="#BC7171"/>
<path d="M285.419 72.4006L285.7 72.6492C285.7 127.086 285.7 171.216 150.771 171.216C15.842 171.216 15.8254 127.086 15.8254 72.6492L16.1069 72.4006C24.4168 82.4761 44.7944 89.9995 94.7037 93.0155H94.7202C110.33 93.9601 128.821 94.4572 150.754 94.4572C242.793 94.4572 274.493 85.6246 285.419 72.4006Z" fill="#BC7171"/>
<path d="M187.206 64.6948C189.324 66.6999 191.427 68.6885 193.479 70.7434C188.414 70.9588 183.084 71.1245 177.489 71.2405C179.823 68.7382 182.587 66.2856 186.03 63.6011H186.047C186.428 63.9656 186.825 64.3302 187.206 64.6948Z" fill="#BC7171"/>
<path d="M185.335 62.9879C185.567 63.1536 185.799 63.3691 186.03 63.6011C182.587 66.2857 179.823 68.7382 177.489 71.2405C169.195 71.4228 160.306 71.5222 150.754 71.5222C141.203 71.5222 132.413 71.4228 124.169 71.2405C124.417 57.1714 132.247 45.0411 143.305 32.5131L143.835 31.5188C145.01 32.1485 146.202 32.8114 147.411 33.5239C153.966 37.3851 160.885 42.3399 167.838 47.8416C170.635 50.1119 173.449 52.3988 176.214 54.8182C177.869 56.2434 179.525 57.6851 181.147 59.1765C182.571 60.4028 183.961 61.6954 185.335 62.9879Z" fill="#BC7171"/>
<path d="M181.147 59.1765C182.571 60.4028 183.961 61.6788 185.335 62.9879C183.961 61.6954 182.571 60.4028 181.147 59.1765Z" fill="#BC7171"/>
<path d="M113.873 26.564C113.873 26.564 113.889 26.5474 113.906 26.5474C114.254 26.3983 114.618 26.2989 114.965 26.1829C114.998 26.1829 115.015 26.1497 115.032 26.1497C116.008 25.8514 117.018 25.5863 118.028 25.3874H118.061C118.607 25.2549 119.17 25.1554 119.716 25.0726C120.196 25.0063 120.676 24.9566 121.14 24.8903C122.977 24.708 124.98 24.8074 127.116 25.172H127.132C127.298 25.1886 127.463 25.2217 127.629 25.2549C128.424 25.3874 129.202 25.5697 130.013 25.8017C134.25 26.8789 138.902 28.8674 143.835 31.5189L143.305 32.5131C132.247 45.0411 124.418 57.1714 124.169 71.2406C110.016 70.9257 97.6337 70.3623 86.7745 69.5503C87.0228 56.2932 92.8662 42.0086 102.832 33.1926C106.076 30.3091 109.768 28.0554 113.84 26.5806C113.856 26.564 113.873 26.564 113.873 26.564Z" fill="#BC7171"/>
<path d="M127.761 25.1555C127.761 25.1555 127.679 25.2218 127.629 25.255C127.463 25.2218 127.298 25.1887 127.132 25.1721C127.348 25.1555 127.546 25.1555 127.761 25.1555Z" fill="#BC7171"/>
<path d="M115.048 25.4869C116.025 25.4537 117.018 25.4206 118.028 25.3875C117.018 25.5863 116.008 25.8514 115.032 26.1497C115.015 26.1497 114.999 26.1829 114.965 26.1829C114.618 26.2989 114.254 26.3983 113.906 26.5474C113.889 26.5474 113.889 26.564 113.873 26.564C113.873 26.564 113.856 26.564 113.84 26.5806C109.768 28.0554 106.076 30.3092 102.832 33.1926C101.871 30.8394 100.564 28.4532 99.0408 26.1497C104.073 25.8846 109.403 25.6692 115.048 25.4869Z" fill="#BC7171"/>
<path d="M99.0407 26.1496C100.564 28.4531 101.871 30.8394 102.832 33.1925C92.8662 42.0085 87.0228 56.2931 86.7745 69.5337C69.5586 68.2411 56.2329 66.3685 45.9035 63.9822C45.9035 57.7679 57.0772 59.1433 55.8357 53.7411C55.1735 50.8245 43.0397 44.7428 30.6079 37.8988H30.5913C30.3596 37.7662 30.1278 37.6502 29.896 37.5176C24.2181 34.3856 18.5568 31.1045 13.9052 27.9394C13.8224 27.8896 13.7397 27.8233 13.6569 27.7736C6.2243 22.6365 1.53961 17.7645 3.9399 14.0856C5.82702 11.2022 15.6764 12.6936 27.7772 15.5439C28.0917 15.6102 28.3897 15.6931 28.7042 15.7593C33.9682 17.0022 39.5965 18.4936 45.1585 19.9354C53.7168 22.1891 62.0764 24.3765 68.5489 25.6194C74.0944 26.6965 78.2328 27.0777 79.9875 26.2159C86.4599 23.0177 76.1305 12.8262 81.5932 10.5891C84.1424 9.56164 93.1145 17.1514 99.0407 26.1496Z" fill="#BC7171"/>
<path d="M55.8357 53.7412C57.0772 59.1435 45.9035 57.7681 45.9035 63.9658C28.9028 60.055 20.0301 54.7853 15.4116 48.5875C15.3288 48.4715 15.2626 48.3887 15.1798 48.2727C15.2461 48.1401 15.3288 48.0407 15.4116 47.9247C18.2919 44.0635 22.8111 40.5504 29.8961 37.5178C30.1278 37.6504 30.3596 37.7664 30.5913 37.899H30.6079C43.0397 44.743 55.1735 50.8247 55.8357 53.7412Z" fill="#BC7171"/>
<path d="M10.909 37.236C10.6441 39.0423 10.5117 40.8817 10.4455 42.7543C10.5779 37.4348 11.1739 32.3805 13.6569 27.7737C13.7397 27.8234 13.8224 27.8897 13.9052 27.9394C18.5568 31.1045 24.2181 34.3857 29.8961 37.5177C22.8111 40.5503 18.2919 44.0634 15.4116 47.9245C15.3288 48.0405 15.2461 48.14 15.1798 48.256C12.7133 44.8257 11.5049 41.1468 10.909 37.236Z" fill="#BC7171"/>
<path d="M290.583 36.9543C291.063 40.5338 291.063 44.2789 291.063 48.1069V48.4383C291.063 57.1549 291.063 65.2915 285.369 72.2349C280.932 77.6206 273.036 82.2938 259.015 85.9229C263.667 81.6475 262.922 68.4566 259.148 63.3029L259.065 62.9715C273.798 59.1601 281.743 54.1721 286.031 48.4218C286.114 48.3058 286.196 48.2063 286.263 48.0903C288.762 44.6435 289.938 40.8983 290.517 36.9709H290.583V36.9543Z" fill="#AD7766"/>
<path d="M271.745 14.6825C285.451 20.5819 289.441 28.3042 290.583 36.9545H290.517C289.937 40.8985 288.762 44.6436 286.263 48.0905C283.846 44.8756 280.138 41.7602 274.923 39.0756C266.051 34.5848 252.361 30.9556 231.205 28.5196C234.731 21.5596 232.215 9.36304 226.471 5.07104C231.586 5.58476 236.287 6.16477 240.624 6.82762H240.641C254.43 8.88248 264.461 11.5173 271.745 14.6825Z" fill="#AD7766"/>
<path d="M286.263 48.0903C286.196 48.2063 286.114 48.3057 286.031 48.4217C281.743 54.172 273.798 59.16 259.065 62.9715C244.647 66.7166 223.739 69.368 193.413 70.5943C191.36 68.5395 189.258 66.5509 187.139 64.5457C186.758 64.1812 186.361 63.8332 185.964 63.4686C185.749 63.2366 185.5 63.0212 185.269 62.8389C183.895 61.5463 182.504 60.2703 181.081 59.0274C179.458 57.536 177.786 56.0943 176.148 54.6692C173.383 52.2498 170.569 49.9629 167.771 47.7092C160.802 42.2074 153.899 37.236 147.344 33.3749C141.103 29.7292 135.194 26.9949 129.946 25.6526C129.284 25.4537 128.622 25.3046 127.976 25.1886C135.128 25.056 142.726 24.9897 150.771 24.9897C166.199 24.9897 179.938 25.2549 192.172 25.7355C199.588 26.0172 206.457 26.3817 212.814 26.8457C219.485 27.3097 225.593 27.8732 231.189 28.5195C252.344 30.9555 266.034 34.5846 274.907 39.0755C280.121 41.76 283.829 44.8755 286.246 48.0903H286.263Z" fill="#AD7766"/>
<path d="M264.693 92.9326C263.551 104.052 260.472 120.309 252.361 131.925C227.696 167.239 179.177 169.741 175.237 170.537H175.204C167.573 170.901 159.412 171.084 150.688 171.084C15.759 171.084 15.759 126.954 15.759 72.5001L16.0239 72.2681C26.6348 85.0944 56.779 93.7944 142.676 94.3081V94.4738C177.654 100.323 235.145 99.6772 264.693 92.9326Z" fill="#C6977B"/>
<path d="M124.103 71.0915C127.248 71.1744 130.459 71.2241 133.787 71.2738C133.803 71.2904 133.836 71.2904 133.853 71.2738C139.216 71.3401 144.828 71.3732 150.688 71.3732C160.239 71.3732 169.129 71.2738 177.422 71.0915C183.017 70.9755 188.348 70.8098 193.413 70.5944C223.739 69.3681 244.647 66.7167 259.065 62.9715L259.148 63.3029C262.922 68.4567 263.667 81.6475 259.015 85.923C238.638 91.2258 205.265 94.3247 150.688 94.3247C147.957 94.3247 145.292 94.3247 142.676 94.3247C56.779 93.8109 26.6348 85.1109 16.0239 72.2847C10.3129 65.3412 10.3129 57.1881 10.3129 48.455C10.3129 44.5441 10.3129 40.7327 10.826 37.1035H10.8426C11.4551 41.1304 12.7131 44.9418 15.3452 48.455C19.9637 54.6527 28.8364 59.9224 45.8371 63.8664C56.1665 66.2361 69.5088 68.1252 86.7081 69.4012C97.5673 70.2298 109.949 70.7932 124.103 71.1081V71.0915Z" fill="#C6977B"/>
<path d="M117.73 25.2881C117.481 25.3378 117.25 25.3875 117.018 25.4538C116.356 25.4869 115.694 25.5035 115.048 25.5201C109.42 25.7189 104.106 25.9178 99.0902 26.1829C93.164 17.0852 84.0926 9.41265 81.5268 10.4566C76.064 12.6772 86.377 22.8687 79.921 26.0835C78.1664 26.9287 74.0114 26.5475 68.4825 25.4704C62.01 24.2275 53.6504 22.0401 45.0921 19.7864C39.5301 18.3447 33.9018 16.8532 28.6212 15.6104C28.4226 15.5606 28.2074 15.5109 28.0087 15.4612C31.5181 13.8041 35.7393 12.2961 40.8047 10.9041C52.442 7.68922 68.5487 5.2698 90.8299 3.74522C98.6267 3.23151 107.201 2.81722 116.604 2.5355C126.95 2.22065 138.306 2.05493 150.771 2.05493C168.285 2.05493 183.613 2.38637 197.038 2.98294C198.214 3.04923 199.372 3.09894 200.515 3.14865H200.531C206.689 3.48008 212.433 3.84465 217.78 4.27551C220.809 4.54065 223.706 4.80579 226.471 5.07093C232.215 9.36293 234.731 21.5595 231.205 28.5195C225.61 27.8732 219.502 27.3098 212.83 26.8458C206.474 26.3818 199.604 26.0172 192.188 25.7355C179.955 25.2549 166.215 24.9898 150.787 24.9898C142.742 24.9898 135.144 25.0561 127.993 25.1886C127.86 25.1555 127.712 25.1224 127.579 25.1058C125.262 24.6749 123.076 24.5424 121.09 24.7412C120.61 24.8075 120.146 24.8572 119.666 24.9235C119.021 25.0229 118.375 25.1389 117.746 25.2881H117.73Z" fill="#C6977B"/>
<path d="M187.139 64.5459C189.258 66.551 191.36 68.5396 193.413 70.5945C188.348 70.8099 183.017 70.9756 177.422 71.0916C179.773 68.5893 182.521 66.1533 185.964 63.4688C186.361 63.8333 186.758 64.1813 187.139 64.5459Z" fill="#C47B49"/>
<path d="M141.633 34.22C156.565 42.5223 169.278 54.52 167.093 61.9108C165.206 68.324 145.805 70.7931 133.853 71.2737C133.836 71.2903 133.803 71.2903 133.787 71.2737C130.459 71.224 127.248 71.1743 124.103 71.0914C124.351 57.7183 131.436 46.1017 141.633 34.22Z" fill="#E09F57"/>
<path d="M264.693 92.9325C235.145 99.6771 177.654 100.323 142.676 94.4737V94.308C145.292 94.308 147.957 94.308 150.688 94.308C205.265 94.308 238.638 91.2091 259.015 85.9063C273.036 82.2771 280.932 77.604 285.369 72.2183L285.634 72.4834C285.634 123.407 285.634 165.3 175.237 170.52C179.177 169.725 227.696 167.222 252.361 131.909C260.472 120.292 263.551 104.035 264.693 92.916V92.9325Z" fill="#AD7766"/>
<path d="M181.081 59.0276C182.504 60.2704 183.895 61.5464 185.269 62.839C185.5 63.0213 185.749 63.2367 185.964 63.4687C182.521 66.1533 179.773 68.5893 177.422 71.0916C169.129 71.2739 160.239 71.3733 150.688 71.3733C144.828 71.3733 139.216 71.3401 133.853 71.2739C145.805 70.7933 165.206 68.3241 167.093 61.911C169.278 54.5201 156.565 42.5224 141.633 34.2201C133.654 29.779 125.046 26.3819 117.73 25.2881C118.359 25.139 119.004 25.023 119.65 24.9236C120.13 24.8573 120.593 24.8076 121.073 24.7413C123.06 24.5424 125.245 24.675 127.562 25.1059C127.695 25.1224 127.844 25.1556 127.976 25.1887C128.622 25.3047 129.284 25.4539 129.946 25.6527C135.194 26.995 141.103 29.7293 147.344 33.375C153.899 37.2361 160.802 42.2076 167.771 47.7093C170.569 49.963 173.383 52.2499 176.148 54.6693C177.786 56.0944 179.458 57.5361 181.081 59.0276Z" fill="#C47B49"/>
<path d="M117.73 25.2881C125.046 26.3818 133.654 29.7789 141.633 34.2201C131.436 46.1018 124.351 57.7184 124.103 71.0915C109.949 70.7767 97.5673 70.2132 86.7081 69.4012C86.8239 63.2201 88.1482 56.8401 90.5651 50.8744C91.3928 49.7475 91.9721 48.4384 92.1377 47.2949C94.1572 43.1687 96.6899 39.3407 99.7524 36.043C100.679 34.9824 101.706 33.9881 102.765 33.0435C106.01 30.1601 109.701 27.9064 113.773 26.4315C113.806 26.4149 113.823 26.3984 113.84 26.3984C114.187 26.2492 114.535 26.1498 114.899 26.0338C114.932 26.0338 114.949 26.0172 114.965 26.0172C115.627 25.8018 116.323 25.6195 117.018 25.4538C117.25 25.3875 117.481 25.3378 117.73 25.2881Z" fill="#E09F57"/>
<path d="M115.048 25.5201C115.694 25.5036 116.356 25.487 117.018 25.4539C116.323 25.6196 115.627 25.8019 114.965 26.0173C114.949 26.0173 114.932 26.0339 114.899 26.0339C114.535 26.1499 114.187 26.2493 113.84 26.3984C113.823 26.3984 113.806 26.415 113.773 26.4316C109.701 27.9064 106.01 30.1601 102.765 33.0436C101.822 30.7401 100.563 28.4201 99.0902 26.183C104.106 25.9179 109.42 25.719 115.048 25.5201Z" fill="#C6977B"/>
<path d="M91.9059 45.3891C90.3333 42.5057 67.5224 41.876 66.7278 46.168C66.1153 49.4657 82.5531 53.4594 86.0956 53.5754C87.7841 53.6417 89.4063 52.432 90.5651 50.8743C88.1482 56.84 86.8239 63.22 86.7081 69.3846C69.5088 68.1086 56.1665 66.2194 45.837 63.8497C45.837 60.088 49.8927 59.1103 52.8392 57.7348C52.922 57.6851 53.0213 57.6354 53.1207 57.6023C56.0672 56.2766 62.3907 56.6909 62.5066 54.7686C62.6225 52.9954 55.4216 51.1063 51.0349 49.2668C51.0183 49.2668 51.0018 49.2503 51.0018 49.2503C46.2178 46.1348 38.4375 42.0914 30.5414 37.7497H30.5249C30.5249 37.7497 30.4421 37.7 30.409 37.6834C24.5325 34.4686 18.6394 31.0714 13.8222 27.7903C13.8057 27.7903 13.8057 27.7737 13.7891 27.7737C6.24066 22.5868 1.4401 17.6651 3.87349 13.9366C4.4032 13.108 5.59507 12.6606 7.3001 12.4783V12.644C52.0116 22.1891 78.7126 38.3794 83.0166 32.7286C85.9466 28.884 83.1656 22.1063 86.8239 20.6977C90.1181 19.4383 96.9548 27.6246 99.7358 36.0263H99.7524C96.6899 39.3406 94.1572 43.1685 92.1377 47.2948C92.2536 46.5657 92.1873 45.8863 91.9059 45.3891Z" fill="#77B566"/>
<path d="M90.5651 50.8744C91.0286 49.6646 91.5583 48.4715 92.1377 47.2949C91.9721 48.4384 91.3927 49.7475 90.5651 50.8744Z" fill="#C6977B"/>
<path d="M66.7278 46.1682C67.5224 41.8762 90.3333 42.5059 91.9059 45.3893C92.1873 45.8864 92.2536 46.5659 92.1377 47.295C91.5583 48.4716 91.0286 49.6647 90.5651 50.8744C89.4063 52.4321 87.7841 53.6419 86.0956 53.5756C82.5531 53.4596 66.1153 49.4659 66.7278 46.1682Z" fill="#6A964D"/>
<path d="M51.0349 49.2668C55.4216 51.1063 62.6225 52.9954 62.5066 54.7686C62.3907 56.6909 56.0672 56.2766 53.1207 57.6023C54.925 56.7074 56.2328 55.6303 55.7693 53.592C55.521 52.5314 53.7663 51.0566 51.0349 49.2668Z" fill="#6A964D"/>
<path d="M51.0018 49.2504C51.0018 49.2504 51.0018 49.267 51.0349 49.267C53.7663 51.0567 55.521 52.5316 55.7693 53.5921C56.2328 55.6304 54.925 56.7076 53.1207 57.6024C53.0213 57.6356 52.922 57.6853 52.8393 57.735C49.8927 59.1104 45.8371 60.0882 45.8371 63.8333C28.8364 59.9059 19.9637 54.6361 15.3452 48.4384C18.3083 44.4779 22.8771 40.8653 30.3759 37.7499L30.409 37.6836C30.409 37.6836 30.4918 37.7333 30.5249 37.7499H30.5415C38.4376 42.0916 46.2178 46.135 51.0018 49.2504Z" fill="#AD7766"/>
<path d="M10.826 37.0868V37.0371C11.3061 33.8057 12.0179 30.9057 13.6567 27.9726L13.7891 27.7737C13.7891 27.7737 13.8057 27.7903 13.8222 27.7903C18.6393 31.0714 24.5325 34.4686 30.409 37.6834L30.3759 37.7497C22.8771 40.8651 18.3083 44.4777 15.3452 48.4383C12.7131 44.9251 11.4551 41.1137 10.8426 37.0868H10.826Z" fill="#C6977B"/>
<path d="M45.0921 19.7865C53.6504 22.0402 62.01 24.2276 68.4825 25.4704C74.0114 26.5476 78.1664 26.9287 79.9211 26.0836C86.377 22.8687 76.0641 12.6773 81.5268 10.4567C84.0926 9.41274 93.164 17.0853 99.0902 26.183C100.563 28.4202 101.822 30.7402 102.765 33.0436C101.706 33.9882 100.679 34.9825 99.7524 36.043H99.7358C96.9548 27.6247 90.1181 19.4385 86.8239 20.6979C83.1656 22.1065 85.9466 28.8842 83.0166 32.7287C78.7126 38.3796 52.0116 22.1893 7.31665 12.6442V12.4785C11.6206 12.0145 19.2518 13.4065 28.0087 15.4613C28.2074 15.511 28.4226 15.5607 28.6212 15.6105C33.9019 16.8533 39.5301 18.3447 45.0921 19.7865Z" fill="#6A964D"/>
<path d="M212.831 26.7795H212.814" stroke="#3F2A25" stroke-linecap="round" stroke-linejoin="round"/>
<path d="M167.838 47.8252C170.635 50.0955 173.45 52.3823 176.214 54.8018C177.869 56.2269 179.525 57.6686 181.147 59.16C182.571 60.3863 183.961 61.6623 185.335 62.9715C185.567 63.1372 185.815 63.3692 186.047 63.6012C186.428 63.9492 186.825 64.3138 187.206 64.6783C189.324 66.6835 191.427 68.672 193.479 70.7269H193.496" stroke="#3F2A25" stroke-linecap="round" stroke-linejoin="round"/>
<path d="M240.641 6.76123H240.624" stroke="#3F2A25" stroke-linecap="round" stroke-linejoin="round"/>
<path d="M205.977 70.2456C205.977 70.2456 205.944 70.1632 205.911 70.1138" stroke="#3F2A25" stroke-linecap="round" stroke-linejoin="round"/>
<path d="M285.717 72.6326C285.717 127.07 285.717 171.216 150.771 171.216C15.8255 171.216 15.8254 127.086 15.8254 72.6326" stroke="#3F2A25" stroke-linecap="round" stroke-linejoin="round"/>
<path d="M291.13 48.5708C291.13 73.9085 291.13 94.4571 150.754 94.4571C10.3793 94.4571 10.3793 73.9085 10.3793 48.5708" stroke="#3F2A25" stroke-linecap="round" stroke-linejoin="round"/>
<path d="M290.583 37.0703V37.1035C290.004 41.0309 288.829 44.776 286.329 48.2229C286.263 48.3389 286.18 48.4383 286.097 48.5543C278.218 59.1435 257.956 67.0646 205.911 70.1137C201.955 70.3457 197.817 70.5612 193.479 70.7269C188.414 70.9423 183.084 71.108 177.489 71.224C169.195 71.4063 160.306 71.5057 150.754 71.5057C141.203 71.5057 132.413 71.4063 124.169 71.224C110.016 70.9092 97.6337 70.3458 86.7745 69.5338C41.2519 66.12 22.8442 58.5303 15.4116 48.5709C15.3288 48.4549 15.2626 48.372 15.1798 48.256C12.7133 44.8092 11.5049 41.1303 10.909 37.2195V37.1697" stroke="#3F2A25" stroke-linecap="round" stroke-linejoin="round"/>
<path d="M10.3793 48.5543C10.3793 47.1457 10.3793 45.7371 10.4124 44.3617C10.4124 43.8314 10.429 43.3011 10.4455 42.7874C10.5117 40.8983 10.6442 39.0423 10.909 37.2194V37.1697" stroke="#3F2A25" stroke-linecap="round" stroke-linejoin="round"/>
<path d="M200.531 3.09888H200.515" stroke="#3F2A25" stroke-linecap="round" stroke-linejoin="round"/>
<path d="M94.7202 92.9988H94.7037M86.7745 69.5337C87.0228 56.2766 92.8662 41.992 102.832 33.176C106.076 30.2926 109.768 28.0389 113.84 26.564C113.856 26.5474 113.873 26.5474 113.873 26.5474C113.889 26.5474 113.889 26.5308 113.906 26.5308C114.254 26.3817 114.618 26.2823 114.965 26.1663C114.998 26.1663 115.015 26.1331 115.032 26.1331C116.008 25.8349 117.018 25.5697 118.028 25.3708H118.061C118.607 25.2383 119.17 25.1388 119.716 25.056C120.196 24.9897 120.676 24.94 121.14 24.8737C122.977 24.6914 124.98 24.7908 127.116 25.1554H127.132C127.298 25.172 127.463 25.2051 127.629 25.2383C128.424 25.3708 129.202 25.5531 130.013 25.7851C135.26 27.1274 141.17 29.8617 147.411 33.5074C153.966 37.3686 160.885 42.3234 167.838 47.8251C170.635 50.0954 173.45 52.3823 176.214 54.8017C177.869 56.2269 179.525 57.6686 181.147 59.16C182.571 60.3863 183.961 61.6788 185.335 62.9714C185.567 63.1371 185.815 63.3691 186.047 63.6011C186.428 63.9491 186.825 64.3137 187.206 64.6783C189.324 66.6834 191.427 68.672 193.479 70.7268H193.496" stroke="#3F2A25" stroke-linecap="round" stroke-linejoin="round"/>
<path d="M45.9035 63.949C45.9035 57.7513 57.0772 59.1267 55.8357 53.7245C55.1735 50.8079 43.0397 44.7262 30.6079 37.8822C30.3761 37.7496 30.1444 37.6336 29.9126 37.501C24.2347 34.369 18.5734 31.0879 13.9218 27.9228C13.839 27.873 13.7562 27.8067 13.6735 27.757C6.24088 22.6199 1.55618 17.7479 3.95647 14.069C5.84359 11.1856 15.693 12.677 27.7938 15.5273C28.1083 15.5936 28.4062 15.6765 28.7208 15.7427C33.9848 16.9856 39.6131 18.477 45.1751 19.9188C53.7334 22.1725 62.093 24.3599 68.5654 25.6027C74.1109 26.6799 78.2494 27.061 80.004 26.1993C86.4765 23.001 76.147 12.8096 81.6098 10.5725C84.159 9.54504 93.1311 17.1348 99.0573 26.133C100.58 28.4365 101.888 30.8228 102.848 33.1759" stroke="#3F2A25" stroke-linecap="round" stroke-linejoin="round"/>
<path d="M167.838 47.8252C170.635 50.0955 173.45 52.3823 176.214 54.8018C177.869 56.2269 179.525 57.6686 181.147 59.16C182.571 60.3863 183.961 61.6623 185.335 62.9715C185.567 63.1372 185.815 63.3692 186.047 63.6012C186.428 63.9492 186.825 64.3138 187.206 64.6783C189.324 66.6835 191.427 68.672 193.479 70.7269H193.496" stroke="#3F2A25" stroke-linecap="round" stroke-linejoin="round"/>
<path d="M127.76 25.1389C127.76 25.1389 127.678 25.2048 127.629 25.2378" stroke="#3F2A25" stroke-linecap="round" stroke-linejoin="round"/>
<path d="M113.905 26.5308C113.905 26.5308 113.889 26.5473 113.873 26.5473L113.84 26.5802" stroke="#3F2A25" stroke-linecap="round" stroke-linejoin="round"/>
<path d="M143.322 32.5132C132.264 45.0578 124.418 57.188 124.169 71.2572" stroke="#3F2A25" stroke-linecap="round" stroke-linejoin="round"/>
<path d="M186.047 63.6011C182.604 66.2856 179.823 68.7382 177.489 71.2405" stroke="#3F2A25" stroke-linecap="round" stroke-linejoin="round"/>
<path d="M291.13 47.8914C291.13 34.8 291.13 22.9846 271.745 14.616C264.462 11.4674 254.43 8.81599 240.641 6.76113H240.624C236.287 6.11485 231.586 5.53484 226.471 5.02113C223.706 4.73941 220.81 4.47428 217.78 4.2257C212.433 3.79485 206.689 3.4137 200.531 3.09885H200.515C199.373 3.04913 198.214 2.98284 197.038 2.93312C183.613 2.31998 168.285 2.00513 150.771 2.00513C138.306 2.00513 126.95 2.17084 116.604 2.4857C107.202 2.76741 98.6269 3.16513 90.8301 3.69542C68.5489 5.20342 52.4422 7.6394 40.8049 10.8377C35.6236 12.2628 31.3362 13.8205 27.7772 15.5274" stroke="#3F2A25" stroke-linecap="round" stroke-linejoin="round"/>
<path d="M13.6569 27.7571C11.1739 32.3805 10.5779 37.4514 10.4455 42.7874C10.4124 43.9805 10.3958 45.2068 10.3958 46.4496V47.8914" stroke="#3F2A25" stroke-linecap="round" stroke-linejoin="round"/>
<path d="M99.0408 26.1331C104.073 25.868 109.403 25.6526 115.048 25.4703C116.025 25.4371 117.018 25.404 118.028 25.3708H118.061" stroke="#3F2A25" stroke-linecap="round" stroke-linejoin="round"/>
<path d="M127.116 25.1554H127.132C127.348 25.1388 127.546 25.1388 127.761 25.1388C134.979 25.0062 142.643 24.9399 150.771 24.9399C166.199 24.9399 179.939 25.1885 192.172 25.6691C199.588 25.9508 206.458 26.3319 212.814 26.7794C244.779 29.0497 263.7 33.3417 274.907 39.0257C280.138 41.6937 283.68 44.6599 286.081 47.8748C286.163 47.9908 286.246 48.1068 286.312 48.2228" stroke="#3F2A25" stroke-linecap="round" stroke-linejoin="round"/>
<path d="M29.8961 37.5012C22.8111 40.5338 18.292 44.0469 15.4116 47.9081C15.3289 48.0241 15.2461 48.1235 15.1799 48.2395" stroke="#3F2A25" stroke-linecap="round" stroke-linejoin="round"/>
</svg>
