<?xml version="1.0" encoding="UTF-8"?><svg xmlns="http://www.w3.org/2000/svg" viewBox="0 0 299.74 265.3"><defs><style>.e{fill:#ad7766;}.f{fill:#c47b49;}.g{fill:#c6977b;}.h{fill:#bc7171;}.i{fill:#6a964d;}.j{fill:#77b566;}.k{stroke-width:2px;}.k,.l{fill:none;stroke:#3f2a25;stroke-linecap:round;stroke-linejoin:round;}.m{fill:#e09f57;}</style></defs><g id="a"><line class="k" x1="201.33" y1="127.12" x2="201.32" y2="127.12"/><path class="k" d="M65.52,166.5c0,32.65,.4,59.85,81.51,59.85s81.52-27.21,81.52-59.86"/><path class="k" d="M65.52,166.5c-3.29-4.14-3.29-8.99-3.29-14.16"/><path class="k" d="M231.83,152.34c0,5.17,0,10.01-3.28,14.15"/><path class="k" d="M62.23,152.34c0-.85,0-1.7,.02-2.53,0-.32,.01-.64,.02-.95,.04-1.14,.12-2.26,.28-3.36v-.03"/><line class="k" x1="177.1" y1="124.91" x2="177.09" y2="124.91"/><path class="k" d="M64.21,139.78c-4.49-3.09-7.32-6.04-5.87-8.25,1.14-1.75,7.09-.84,14.4,.87"/><path class="k" d="M231.83,151.94c0-7.9,0-15.03-11.71-20.08-4.4-1.9-10.46-3.5-18.79-4.74h-.01c-2.62-.39-5.46-.74-8.55-1.05-1.67-.17-3.42-.33-5.25-.48-3.23-.26-6.7-.49-10.42-.68h-.01c-.69-.03-1.39-.07-2.1-.1-8.11-.37-17.37-.56-27.95-.56-7.53,0-14.39,.1-20.64,.29-5.68,.17-10.86,.41-15.57,.73-13.46,.91-23.19,2.38-30.22,4.31-3.13,.86-5.72,1.8-7.87,2.83"/><path class="k" d="M64.21,139.79c-1.5,2.79-1.86,5.85-1.94,9.07-.02,.72-.03,1.46-.03,2.21v.87"/></g><g id="b"><g><path class="h" d="M175.03,124.78c.71,.03,1.41,.07,2.1,.1h.01c3.72,.19,7.19,.42,10.42,.68,1.83,.15,3.58,.31,5.25,.48,3.09,.31,5.93,.66,8.55,1.05h.01c8.33,1.24,14.39,2.84,18.79,4.74,8.21,3.54,10.66,8.3,11.39,13.55h-.01v.02c-.35,2.37-1.06,4.63-2.57,6.71-.04-.07-.09-.14-.14-.21-1.45-1.94-3.59-3.73-6.75-5.34-6.77-3.43-18.2-6.02-37.51-7.39h-.01c-3.84-.27-7.99-.5-12.47-.67-7.39-.29-15.69-.44-25.01-.44-4.91,0-9.54,.04-13.9,.12-.13,0-.25,0-.38,.01h-.01c-1.29-.22-2.5-.28-3.61-.17-.28,.04-.57,.07-.86,.11-.33,.05-.67,.11-1,.19h-.02c-.61,.02-1.21,.04-1.8,.06-3.41,.11-6.63,.24-9.67,.4-3.58-5.43-9-10.01-10.54-9.39-3.3,1.35,2.94,7.5-.97,9.43-1.06,.52-3.56,.29-6.91-.36-3.91-.75-8.96-2.07-14.13-3.43-3.36-.87-6.76-1.77-9.94-2.52-.19-.04-.37-.09-.56-.13,2.15-1.03,4.74-1.97,7.87-2.83,7.03-1.93,16.76-3.4,30.22-4.31,4.71-.32,9.89-.56,15.57-.73,6.25-.19,13.11-.29,20.64-.29,10.58,0,19.84,.19,27.95,.56Z"/><path class="h" d="M62.59,145.47c.36,2.36,1.09,4.58,2.58,6.65h0c.05,.08,.09,.13,.14,.2,2.79,3.74,8.15,6.92,18.42,9.29,6.24,1.44,14.29,2.57,24.69,3.35h0c6.56,.5,14.04,.84,22.59,1.03,4.98,.11,10.33,.17,16.06,.17s11.14-.06,16.15-.17c3.38-.07,6.6-.17,9.66-.3,2.62-.1,5.12-.23,7.51-.37,31.44-1.84,43.68-6.62,48.44-13.01,.05-.07,.1-.13,.14-.2,1.51-2.08,2.22-4.34,2.57-6.71v-.02h.01c.32,2.24,.32,4.57,.32,6.93,0,5.26,0,10.19-3.45,14.38-6.6,7.98-25.75,13.31-81.35,13.31-13.25,0-24.42-.3-33.85-.87h-.01c-30.15-1.82-42.46-6.36-47.48-12.44-3.46-4.19-3.46-9.12-3.46-14.38h0c0-.33,0-.65,.01-.97v-.3c0-.75,.01-1.49,.03-2.21v-.03c.04-1.13,.12-2.24,.28-3.33Z"/><path class="h" d="M168.38,161.38c-.14-.14-.28-.27-.42-.37-.83-.79-1.67-1.56-2.53-2.3-.98-.9-1.98-1.77-2.98-2.63-1.67-1.46-3.37-2.84-5.06-4.21-4.2-3.32-8.38-6.31-12.34-8.64-.73-.43-1.45-.83-2.16-1.21-2.98-1.6-5.79-2.8-8.35-3.45-.49-.14-.96-.25-1.44-.33,.03-.02,.05-.04,.08-.06,4.36-.08,8.99-.12,13.9-.12,9.32,0,17.62,.15,25.01,.44,4.48,.17,8.63,.4,12.47,.67h.01c19.31,1.37,30.74,3.96,37.51,7.39,3.16,1.61,5.3,3.4,6.75,5.34,.05,.07,.1,.14,.14,.21-.04,.07-.09,.13-.14,.2-4.76,6.39-17,11.17-48.44,13.01-2.39,.14-4.89,.27-7.51,.37-1.24-1.24-2.51-2.44-3.79-3.65-.23-.22-.47-.44-.7-.65h-.01Z"/><path class="h" d="M228.42,166.69l.17,.15c0,32.85,0,59.48-81.51,59.48s-81.52-26.63-81.52-59.48l.17-.15c5.02,6.08,17.33,10.62,47.48,12.44h.01c9.43,.57,20.6,.87,33.85,.87,55.6,0,74.75-5.33,81.35-13.31Z"/><path class="h" d="M169.09,162.04c1.28,1.21,2.55,2.41,3.79,3.65-3.06,.13-6.28,.23-9.66,.3,1.41-1.51,3.08-2.99,5.16-4.61h.01c.23,.22,.47,.44,.7,.66Z"/><path class="h" d="M167.96,161.01c.14,.1,.28,.23,.42,.37-2.08,1.62-3.75,3.1-5.16,4.61-5.01,.11-10.38,.17-16.15,.17s-11.08-.06-16.06-.17c.15-8.49,4.88-15.81,11.56-23.37l.32-.6c.71,.38,1.43,.78,2.16,1.21,3.96,2.33,8.14,5.32,12.34,8.64,1.69,1.37,3.39,2.75,5.06,4.21,1,.86,2,1.73,2.98,2.63,.86,.74,1.7,1.52,2.53,2.3Z"/><path class="h" d="M165.43,158.71c.86,.74,1.7,1.51,2.53,2.3-.83-.78-1.67-1.56-2.53-2.3Z"/><path class="h" d="M124.79,139.03s.01-.01,.02-.01c.21-.09,.43-.15,.64-.22,.02,0,.03-.02,.04-.02,.59-.18,1.2-.34,1.81-.46h.02c.33-.08,.67-.14,1-.19,.29-.04,.58-.07,.86-.11,1.11-.11,2.32-.05,3.61,.17h.01c.1,.01,.2,.03,.3,.05,.48,.08,.95,.19,1.44,.33,2.56,.65,5.37,1.85,8.35,3.45l-.32,.6c-6.68,7.56-11.41,14.88-11.56,23.37-8.55-.19-16.03-.53-22.59-1.02h0c.15-8,3.68-16.62,9.7-21.94,1.96-1.74,4.19-3.1,6.65-3.99,.01-.01,.02-.01,.02-.01Z"/><path class="h" d="M133.18,138.18s-.05,.04-.08,.06c-.1-.02-.2-.04-.3-.05,.13-.01,.25-.01,.38-.01Z"/><path class="h" d="M125.5,138.38c.59-.02,1.19-.04,1.8-.06-.61,.12-1.22,.28-1.81,.46-.01,0-.02,.02-.04,.02-.21,.07-.43,.13-.64,.22-.01,0-.01,.01-.02,.01,0,0-.01,0-.02,.01-2.46,.89-4.69,2.25-6.65,3.99-.58-1.42-1.37-2.86-2.29-4.25,3.04-.16,6.26-.29,9.67-.4Z"/><path class="h" d="M115.83,138.78c.92,1.39,1.71,2.83,2.29,4.25-6.02,5.32-9.55,13.94-9.7,21.93-10.4-.78-18.45-1.91-24.69-3.35h0c0-3.75,6.75-2.92,6-6.18-.4-1.76-7.73-5.43-15.24-9.56h-.01c-.14-.08-.28-.15-.42-.23-3.43-1.89-6.85-3.87-9.66-5.78-.05-.03-.1-.07-.15-.1-4.49-3.1-7.32-6.04-5.87-8.26,1.14-1.74,7.09-.84,14.4,.88,.19,.04,.37,.09,.56,.13,3.18,.75,6.58,1.65,9.94,2.52,5.17,1.36,10.22,2.68,14.13,3.43,3.35,.65,5.85,.88,6.91,.36,3.91-1.93-2.33-8.08,.97-9.43,1.54-.62,6.96,3.96,10.54,9.39Z"/><path class="h" d="M89.73,155.43c.75,3.26-6,2.43-6,6.17h0c-10.27-2.36-15.63-5.54-18.42-9.28-.05-.07-.09-.12-.14-.19h0c.04-.08,.09-.14,.14-.21,1.74-2.33,4.47-4.45,8.75-6.28,.14,.08,.28,.15,.42,.23h.01c7.51,4.13,14.84,7.8,15.24,9.56Z"/><path class="h" d="M62.59,145.47c-.16,1.09-.24,2.2-.28,3.33,.08-3.21,.44-6.26,1.94-9.04,.05,.03,.1,.07,.15,.1,2.81,1.91,6.23,3.89,9.66,5.78-4.28,1.83-7.01,3.95-8.75,6.28-.05,.07-.1,.13-.14,.2-1.49-2.07-2.22-4.29-2.58-6.65Z"/></g></g><g id="c"><g><path class="e" d="M231.54,145.3c.29,2.16,.29,4.42,.29,6.73v.2c0,5.26,0,10.17-3.44,14.36-2.68,3.25-7.45,6.07-15.92,8.26,2.81-2.58,2.36-10.54,.08-13.65l-.05-.2c8.9-2.3,13.7-5.31,16.29-8.78,.05-.07,.1-.13,.14-.2,1.51-2.08,2.22-4.34,2.57-6.71h.04Z"/><path class="e" d="M220.16,131.86c8.28,3.56,10.69,8.22,11.38,13.44h-.04c-.35,2.38-1.06,4.64-2.57,6.72-1.46-1.94-3.7-3.82-6.85-5.44-5.36-2.71-13.63-4.9-26.41-6.37,2.13-4.2,.61-11.56-2.86-14.15,3.09,.31,5.93,.66,8.55,1.06h.01c8.33,1.24,14.39,2.83,18.79,4.74Z"/><path class="e" d="M228.93,152.02c-.04,.07-.09,.13-.14,.2-2.59,3.47-7.39,6.48-16.29,8.78-8.71,2.26-21.34,3.86-39.66,4.6-1.24-1.24-2.51-2.44-3.79-3.65-.23-.22-.47-.43-.71-.65-.13-.14-.28-.27-.42-.38-.83-.78-1.67-1.55-2.53-2.3-.98-.9-1.99-1.77-2.98-2.63-1.67-1.46-3.37-2.84-5.06-4.2-4.21-3.32-8.38-6.32-12.34-8.65-3.77-2.2-7.34-3.85-10.51-4.66-.4-.12-.8-.21-1.19-.28,4.32-.08,8.91-.12,13.77-.12,9.32,0,17.62,.16,25.01,.45,4.48,.17,8.63,.39,12.47,.67h0c4.03,.28,7.72,.62,11.1,1.01,12.78,1.47,21.05,3.66,26.41,6.37,3.15,1.62,5.39,3.5,6.85,5.44Z"/><path class="g" d="M215.9,179.08c-.69,6.71-2.55,16.52-7.45,23.53-14.9,21.31-44.21,22.82-46.59,23.3h-.02c-4.61,.22-9.54,.33-14.81,.33-81.51,0-81.51-26.63-81.51-59.49l.16-.14c6.41,7.74,24.62,12.99,76.51,13.3v.1c21.13,3.53,55.86,3.14,73.71-.93Z"/><path class="g" d="M130.97,165.9c1.9,.05,3.84,.08,5.85,.11,.01,.01,.03,.01,.04,0,3.24,.04,6.63,.06,10.17,.06,5.77,0,11.14-.06,16.15-.17,3.38-.07,6.6-.17,9.66-.3,18.32-.74,30.95-2.34,39.66-4.6l.05,.2c2.28,3.11,2.73,11.07-.08,13.65-12.31,3.2-32.47,5.07-65.44,5.07-1.65,0-3.26,0-4.84,0-51.89-.31-70.1-5.56-76.51-13.3-3.45-4.19-3.45-9.11-3.45-14.38h0c0-2.36,0-4.66,.31-6.85h.01c.37,2.43,1.13,4.73,2.72,6.85,2.79,3.74,8.15,6.92,18.42,9.3,6.24,1.43,14.3,2.57,24.69,3.34h0c6.56,.5,14.04,.84,22.59,1.03Z"/><path class="g" d="M127.12,138.26c-.15,.03-.29,.06-.43,.1-.4,.02-.8,.03-1.19,.04-3.4,.12-6.61,.24-9.64,.4-3.58-5.49-9.06-10.12-10.61-9.49-3.3,1.34,2.93,7.49-.97,9.43-1.06,.51-3.57,.28-6.91-.37-3.91-.75-8.96-2.07-14.13-3.43-3.36-.87-6.76-1.77-9.95-2.52-.12-.03-.25-.06-.37-.09,2.12-1,4.67-1.91,7.73-2.75,7.03-1.94,16.76-3.4,30.22-4.32,4.71-.31,9.89-.56,15.57-.73,6.25-.19,13.11-.29,20.64-.29,10.58,0,19.84,.2,27.95,.56,.71,.04,1.41,.07,2.1,.1h.01c3.72,.2,7.19,.42,10.42,.68,1.83,.16,3.58,.32,5.25,.48,3.47,2.59,4.99,9.95,2.86,14.15-3.38-.39-7.07-.73-11.1-1.01h0c-3.84-.28-7.99-.5-12.47-.67-7.39-.29-15.69-.45-25.01-.45-4.86,0-9.45,.04-13.77,.12-.08-.02-.17-.04-.25-.05-1.4-.26-2.72-.34-3.92-.22-.29,.04-.57,.07-.86,.11-.39,.06-.78,.13-1.16,.22Z"/><path class="f" d="M169.05,161.95c1.28,1.21,2.55,2.41,3.79,3.65-3.06,.13-6.28,.23-9.66,.3,1.42-1.51,3.08-2.98,5.16-4.6,.24,.22,.48,.43,.71,.65Z"/><path class="m" d="M141.56,143.65c9.02,5.01,16.7,12.25,15.38,16.71-1.14,3.87-12.86,5.36-20.08,5.65-.01,.01-.03,.01-.04,0-2.01-.03-3.95-.06-5.85-.11,.15-8.07,4.43-15.08,10.59-22.25Z"/><path class="e" d="M215.9,179.08c-17.85,4.07-52.58,4.46-73.71,.93v-.1c1.58,0,3.19,0,4.84,0,32.97,0,53.13-1.87,65.44-5.07,8.47-2.19,13.24-5.01,15.92-8.26l.16,.16c0,30.73,0,56.01-66.69,59.16,2.38-.48,31.69-1.99,46.59-23.3,4.9-7.01,6.76-16.82,7.45-23.53Z"/><path class="f" d="M165.39,158.62c.86,.75,1.7,1.52,2.53,2.3,.14,.11,.29,.24,.42,.38-2.08,1.62-3.74,3.09-5.16,4.6-5.01,.11-10.38,.17-16.15,.17-3.54,0-6.93-.02-10.17-.06,7.22-.29,18.94-1.78,20.08-5.65,1.32-4.46-6.36-11.7-15.38-16.71-4.82-2.68-10.02-4.73-14.44-5.39,.38-.09,.77-.16,1.16-.22,.29-.04,.57-.07,.86-.11,1.2-.12,2.52-.04,3.92,.22,.08,.01,.17,.03,.25,.05,.39,.07,.79,.16,1.19,.28,3.17,.81,6.74,2.46,10.51,4.66,3.96,2.33,8.13,5.33,12.34,8.65,1.69,1.36,3.39,2.74,5.06,4.2,.99,.86,2,1.73,2.98,2.63Z"/><path class="m" d="M127.12,138.26c4.42,.66,9.62,2.71,14.44,5.39-6.16,7.17-10.44,14.18-10.59,22.25-8.55-.19-16.03-.53-22.59-1.02h0c.07-3.73,.87-7.58,2.33-11.18,.5-.68,.85-1.47,.95-2.16,1.22-2.49,2.75-4.8,4.6-6.79,.56-.64,1.18-1.24,1.82-1.81,1.96-1.74,4.19-3.1,6.65-3.99,.02-.01,.03-.02,.04-.02,.21-.09,.42-.15,.64-.22,.02,0,.03-.01,.04-.01,.4-.13,.82-.24,1.24-.34,.14-.04,.28-.07,.43-.1Z"/><path class="g" d="M125.5,138.4c.39-.01,.79-.02,1.19-.04-.42,.1-.84,.21-1.24,.34-.01,0-.02,.01-.04,.01-.22,.07-.43,.13-.64,.22-.01,0-.02,.01-.04,.02-2.46,.89-4.69,2.25-6.65,3.99-.57-1.39-1.33-2.79-2.22-4.14,3.03-.16,6.24-.28,9.64-.4Z"/><path class="j" d="M111.52,150.39c-.95-1.74-14.73-2.12-15.21,.47-.37,1.99,9.56,4.4,11.7,4.47,1.02,.04,2-.69,2.7-1.63-1.46,3.6-2.26,7.45-2.33,11.17-10.39-.77-18.45-1.91-24.69-3.34h0c0-2.27,2.45-2.86,4.23-3.69,.05-.03,.11-.06,.17-.08,1.78-.8,5.6-.55,5.67-1.71,.07-1.07-4.28-2.21-6.93-3.32-.01,0-.02-.01-.02-.01-2.89-1.88-7.59-4.32-12.36-6.94h-.01s-.05-.03-.07-.04c-3.55-1.94-7.11-3.99-10.02-5.97-.01,0-.01-.01-.02-.01-4.56-3.13-7.46-6.1-5.99-8.35,.32-.5,1.04-.77,2.07-.88v.1c27.01,5.76,43.14,15.53,45.74,12.12,1.77-2.32,.09-6.41,2.3-7.26,1.99-.76,6.12,4.18,7.8,9.25h.01c-1.85,2-3.38,4.31-4.6,6.8,.07-.44,.03-.85-.14-1.15Z"/><path class="g" d="M110.71,153.7c.28-.73,.6-1.45,.95-2.16-.1,.69-.45,1.48-.95,2.16Z"/><path class="i" d="M96.31,150.86c.48-2.59,14.26-2.21,15.21-.47,.17,.3,.21,.71,.14,1.15-.35,.71-.67,1.43-.95,2.16-.7,.94-1.68,1.67-2.7,1.63-2.14-.07-12.07-2.48-11.7-4.47Z"/><path class="i" d="M86.83,152.73c2.65,1.11,7,2.25,6.93,3.32-.07,1.16-3.89,.91-5.67,1.71,1.09-.54,1.88-1.19,1.6-2.42-.15-.64-1.21-1.53-2.86-2.61Z"/><path class="e" d="M86.81,152.72s0,.01,.02,.01c1.65,1.08,2.71,1.97,2.86,2.61,.28,1.23-.51,1.88-1.6,2.42-.06,.02-.12,.05-.17,.08-1.78,.83-4.23,1.42-4.23,3.68h0c-10.27-2.37-15.63-5.55-18.42-9.29,1.79-2.39,4.55-4.57,9.08-6.45l.02-.04s.05,.03,.07,.04h.01c4.77,2.62,9.47,5.06,12.36,6.94Z"/><path class="g" d="M62.54,145.38v-.03c.29-1.95,.72-3.7,1.71-5.47l.08-.12s.01,.01,.02,.01c2.91,1.98,6.47,4.03,10.02,5.97l-.02,.04c-4.53,1.88-7.29,4.06-9.08,6.45-1.59-2.12-2.35-4.42-2.72-6.85h-.01Z"/><path class="i" d="M83.24,134.94c5.17,1.36,10.22,2.68,14.13,3.43,3.34,.65,5.85,.88,6.91,.37,3.9-1.94-2.33-8.09,.97-9.43,1.55-.63,7.03,4,10.61,9.49,.89,1.35,1.65,2.75,2.22,4.14-.64,.57-1.26,1.17-1.82,1.81h-.01c-1.68-5.08-5.81-10.02-7.8-9.26-2.21,.85-.53,4.94-2.3,7.26-2.6,3.41-18.73-6.36-45.73-12.12v-.1c2.6-.28,7.21,.56,12.5,1.8,.12,.03,.25,.06,.37,.09,3.19,.75,6.59,1.65,9.95,2.52Z"/></g></g><g id="d"><line class="l" x1="184.57" y1="139.16" x2="184.56" y2="139.16"/><path class="l" d="M157.39,151.86c1.69,1.37,3.39,2.75,5.06,4.21,1,.86,2,1.73,2.98,2.63,.86,.74,1.7,1.51,2.53,2.3,.14,.1,.29,.24,.43,.38,.23,.21,.47,.43,.7,.65,1.28,1.21,2.55,2.41,3.79,3.65h.01"/><line class="l" x1="201.37" y1="127.08" x2="201.36" y2="127.08"/><path class="l" d="M180.43,165.39s-.02-.05-.04-.08"/><path class="l" d="M228.6,166.83c0,32.85,0,59.49-81.52,59.49s-81.52-26.63-81.52-59.49"/><path class="l" d="M231.87,152.31c0,15.29,0,27.69-84.8,27.69s-84.8-12.4-84.8-27.69"/><path class="l" d="M231.54,145.37v.02c-.35,2.37-1.06,4.63-2.57,6.71-.04,.07-.09,.13-.14,.2-4.76,6.39-17,11.17-48.44,13.01-2.39,.14-4.89,.27-7.51,.37-3.06,.13-6.28,.23-9.66,.3-5.01,.11-10.38,.17-16.15,.17s-11.08-.06-16.06-.17c-8.55-.19-16.03-.53-22.59-1.02h0c-27.5-2.06-38.62-6.64-43.11-12.65-.05-.07-.09-.12-.14-.19h0c-1.49-2.08-2.22-4.3-2.58-6.66v-.03"/><path class="l" d="M62.27,152.3c0-.85,0-1.7,.02-2.53,0-.32,.01-.64,.02-.95,.04-1.14,.12-2.26,.28-3.36v-.03"/><path class="l" d="M74.49,145.86h0"/><line class="l" x1="177.14" y1="124.87" x2="177.13" y2="124.87"/><path class="l" d="M113.22,179.12h-.01m-4.79-14.16h0c.15-8,3.68-16.62,9.7-21.94,1.96-1.74,4.19-3.1,6.65-3.99,.01-.01,.02-.01,.02-.01,.01,0,.01-.01,.02-.01,.21-.09,.43-.15,.64-.22,.02,0,.03-.02,.04-.02,.59-.18,1.2-.34,1.81-.46h.02c.33-.08,.67-.14,1-.19,.29-.04,.58-.07,.86-.11,1.11-.11,2.32-.05,3.61,.17h.01c.1,.01,.2,.03,.3,.05,.48,.08,.95,.19,1.44,.33,3.17,.81,6.74,2.46,10.51,4.66,3.96,2.33,8.14,5.32,12.34,8.64,1.69,1.37,3.39,2.75,5.06,4.21,1,.86,2,1.73,2.98,2.63,.86,.74,1.7,1.52,2.53,2.3,.14,.1,.29,.24,.43,.38,.23,.21,.47,.43,.7,.65,1.28,1.21,2.55,2.41,3.79,3.65h.01"/><path class="l" d="M83.73,161.59c0-3.74,6.75-2.91,6-6.17-.4-1.76-7.73-5.43-15.24-9.56h0c-.14-.08-.28-.15-.42-.23-3.43-1.89-6.85-3.87-9.66-5.78-.05-.03-.1-.07-.15-.1-4.49-3.1-7.32-6.04-5.87-8.26,1.14-1.74,7.09-.84,14.4,.88,.19,.04,.37,.09,.56,.13,3.18,.75,6.58,1.65,9.94,2.52,5.17,1.36,10.22,2.68,14.13,3.43,3.35,.65,5.85,.88,6.91,.36,3.91-1.93-2.33-8.08,.97-9.43,1.54-.62,6.96,3.96,10.54,9.39,.92,1.39,1.71,2.83,2.29,4.25"/><path class="l" d="M157.39,151.86c1.69,1.37,3.39,2.75,5.06,4.21,1,.86,2,1.73,2.98,2.63,.86,.74,1.7,1.51,2.53,2.3,.14,.1,.29,.24,.43,.38,.23,.21,.47,.43,.7,.65,1.28,1.21,2.55,2.41,3.79,3.65h.01"/><path class="l" d="M133.18,138.17s-.05,.04-.08,.06"/><path class="l" d="M124.81,139.01s-.01,.01-.02,.01l-.02,.02"/><path class="l" d="M142.58,142.62c-6.68,7.57-11.42,14.89-11.57,23.38"/><path class="l" d="M168.39,161.38c-2.08,1.62-3.76,3.1-5.17,4.61"/><path class="l" d="M231.87,151.9c0-7.9,0-15.03-11.71-20.08-4.4-1.9-10.46-3.5-18.79-4.74h-.01c-2.62-.39-5.46-.74-8.55-1.05-1.67-.17-3.42-.33-5.25-.48-3.23-.26-6.7-.49-10.42-.68h-.01c-.69-.03-1.39-.07-2.1-.1-8.11-.37-17.37-.56-27.95-.56-7.53,0-14.39,.1-20.64,.29-5.68,.17-10.86,.41-15.57,.73-13.46,.91-23.19,2.38-30.22,4.31-3.13,.86-5.72,1.8-7.87,2.83"/><path class="l" d="M64.25,139.75c-1.5,2.79-1.86,5.85-1.94,9.07-.02,.72-.03,1.46-.03,2.21v.87"/><path class="l" d="M115.83,138.77c3.04-.16,6.26-.29,9.67-.4,.59-.02,1.19-.04,1.8-.06h.02"/><path class="l" d="M132.79,138.18h.01c.13-.01,.25-.01,.38-.01,4.36-.08,8.99-.12,13.9-.12,9.32,0,17.62,.15,25.01,.44,4.48,.17,8.63,.4,12.47,.67h0c19.31,1.37,30.74,3.96,37.51,7.39,3.16,1.61,5.3,3.4,6.75,5.34,.05,.07,.1,.14,.14,.21"/><path class="l" d="M74.06,145.63c-4.28,1.83-7.01,3.95-8.75,6.28-.05,.07-.1,.13-.14,.2h0"/></g></svg>