<svg xmlns="http://www.w3.org/2000/svg" width="299" height="206" fill="none" xmlns:v="https://vecta.io/nano"><style><![CDATA[.B{fill:#c6977b}.C{fill:#6a964d}.D{fill:#ad7766}.E{fill:#c47b49}.F{fill:#e09f57}.G{stroke-linecap:round}.H{stroke-linejoin:round}]]></style><g stroke="#3f2a25" stroke-width="2" class="G H"><path d="M238.688 38.542l.561-.382c17.709-11.629 49.212-39.107 55.158-34.97 7.699 5.349-12.488 28.043-24.679 43.21m-45.115-8.938h-.016l-.05-.681c-.264-3.638-.082-7.459-3.221-7.459-1.388 0-3.469 2.675-5.451 6.662M14.339 103.448v.499c0 54.357.413 99.445 134.665 99.445S283.67 158.288 283.67 103.93v-.482"/><path d="M283.67 103.93c5.402-6.877 5.402-14.918 5.402-23.49m-280.152 0c0 8.589 0 16.629 5.418 23.507m210.275-66.485h-.016M8.904 80.423l.033-4.203.033-1.578.463-5.582v-.05m2.742-9.436C4.774 54.424.082 49.54 2.478 45.868c1.883-2.907 11.729-1.395 23.788 1.445"/><path d="M8.92 79.758v-1.445l.05-3.672c.132-5.349.727-10.433 3.205-15.068M269.728 46.4c19.344 8.389 19.344 20.235 19.344 33.359M26.266 47.313c3.552-1.711 7.83-3.273 13.001-4.701 11.613-3.206 27.686-5.648 49.921-7.16 7.781-.532 16.337-.93 25.72-1.213 10.325-.316 21.657-.482 34.096-.482 17.478 0 32.775.316 46.172.93l3.485.166c6.146.316 11.878.698 17.214 1.13m22.813 2.559c-4.328-.665-9.036-1.246-14.141-1.761"/></g><g fill="#bc7171"><path d="M8.904 77.964l.05-3.671.463-5.582c.611 3.921 1.801 7.609 4.262 11.048.066.116.149.216.231.332 4.609 6.213 13.463 11.496 30.429 15.45 10.308 2.376 23.623 4.27 40.786 5.549 10.837.83 23.193 1.395 37.317 1.711l26.53.282 26.695-.282 15.942-.499 12.406-.614c15.181-.897 27.637-2.21 37.895-3.871 24.796-4.053 36.557-10.217 42.124-17.743.083-.116.166-.216.232-.332 2.494-3.456 3.667-7.21 4.245-11.147v-.033h.017c.528 3.721.528 7.592.528 11.513 0 8.738 0 16.912-5.682 23.873-10.87 13.274-42.472 22.145-134.402 22.145s-123.515-8.871-134.385-22.145c-5.683-6.961-5.683-15.134-5.683-23.873h-.017l.017-2.11z"/><path d="M288.527 68.562h-.017v.033c-.578 3.937-1.751 7.692-4.245 11.147-.066-.116-.149-.233-.232-.349-2.395-3.223-5.93-6.197-11.15-8.855 1.354-1.661 2.015-3.09 1.85-4.087-1.272-8.007-12.489-1.296-13.43-7.177-.281-1.877 3.171-6.662 8.012-12.725l.396-.498c13.562 5.881 17.61 13.789 18.816 22.511zm-5.154 35.385l.264.266c0 54.573 0 98.83-134.649 98.83s-134.666-44.257-134.666-98.83l.264-.266c10.87 13.274 42.471 22.145 134.385 22.145s123.532-8.871 134.402-22.145z"/><path d="M272.486 71.02l.397-.482c5.22 2.658 8.755 5.632 11.15 8.855.083.116.165.233.232.349-.067.116-.149.216-.232.332-5.567 7.526-17.328 13.689-42.124 17.743-.314-3.289-1.123-6.612-2.313-9.901 15.033-3.024 27.868-11.164 32.89-16.895zm-47.889-33.923h-.017c0-.216-.033-.449-.049-.664 5.104.515 9.812 1.096 14.14 1.761-.281.183-.561.365-.859.532-4.13 2.658-7.384 4.253-9.168 4.12-3.073-.233-3.799-2.824-4.047-5.748z"/><path d="M224.531 36.432l.049.665h.017c.248 2.924.974 5.515 4.047 5.748 1.784.133 5.038-1.462 9.168-4.12.298-.166.578-.349.859-.532a10.95 10.95 0 0 0 .562-.382c17.709-11.629 49.211-39.107 55.158-34.97 7.698 5.349-12.489 28.043-24.68 43.21l-.396.498c-4.841 6.064-8.293 10.848-8.012 12.725.941 5.881 12.158-.831 13.43 7.177.165.997-.496 2.425-1.85 4.087-.116.166-.264.316-.397.482-5.022 5.731-17.857 13.872-32.89 16.895-2.065-5.599-5.302-11.031-9.399-15.782-.694-.814-1.388-1.595-2.131-2.342-4.378-4.552-9.532-8.273-15.082-10.715-.678-.299-1.371-.581-2.065-.831h-.017c-.231-.1-.479-.199-.727-.282 0-7.243 2.561-15.766 5.369-21.696.099-.216.198-.432.314-.631 1.982-3.987 4.064-6.662 5.451-6.662 3.139 0 2.957 3.821 3.222 7.459zm-20.517 65.256l-12.406.614-6.261-6.063-1.157-1.08h-.016a2.14 2.14 0 0 0-.347-.332c-.116-.133-.231-.216-.33-.299h-.017a100.31 100.31 0 0 0-4.179-3.821l-4.923-4.369-2.081-1.794-6.278-5.2 3.337-4.535 1.09-1.395c15.495 7.044 27.736 15.101 33.568 28.275z"/><path d="M174.841 68.229c4.625-5.034 9.234-8.755 13.661-10.483h.033a11.92 11.92 0 0 1 1.569-.565c.067-.017.116-.033.182-.05 3.8-1.096 7.583-1.395 11.316-1.047h.016c2.924.233 5.766.914 8.541 1.877a9.42 9.42 0 0 1 .727.282h.016a31.33 31.33 0 0 1 2.065.831c5.551 2.442 10.705 6.163 15.082 10.715.744.748 1.438 1.528 2.131 2.342 4.097 4.751 7.335 10.184 9.4 15.782 1.189 3.289 1.999 6.612 2.313 9.885-10.259 1.678-22.715 2.991-37.896 3.888-5.831-13.174-18.072-21.231-33.567-28.275a77.89 77.89 0 0 1 4.361-5.183h.033.017zm.826 34.572c2.329-2.492 5.071-4.951 8.507-7.642h.016l1.157 1.08 6.261 6.063-15.941.499z"/><path d="M183.497 94.528c.099.083.214.166.33.299-.099-.1-.215-.199-.33-.299zm-4.196-3.821l4.179 3.821-4.179-3.821z"/><path d="M183.497 94.528l.33.299c.116.083.231.199.347.332-3.436 2.691-6.178 5.15-8.508 7.642l-26.695.282c-9.531 0-18.303-.099-26.53-.282.248-14.105 8.062-26.249 19.097-38.824l.528-.98a99.62 99.62 0 0 1 3.568 2.01c6.542 3.854 13.447 8.838 20.385 14.354l6.278 5.183 2.081 1.794 4.923 4.369c1.42 1.246 2.808 2.508 4.179 3.821h.017z"/><path d="M142.066 62.996l-.528.98c-11.035 12.576-18.849 24.72-19.097 38.825-14.124-.316-26.48-.881-37.317-1.695.248-13.29 6.079-27.61 16.024-36.448 3.238-2.891 6.921-5.15 10.985-6.612.017-.017.05-.033.066-.05.347-.133.694-.249 1.057-.365.033 0 .05-.017.067-.017.974-.316 1.965-.565 2.973-.781h.017c.561-.116 1.123-.233 1.684-.316.48-.067.959-.1 1.421-.183 1.834-.183 3.816-.083 5.947.282h.017c.165 0 .347.05.512.083.793.133 1.569.316 2.379.548 4.228 1.096 8.87 3.09 13.793 5.748z"/><path d="M128.273 57.248a21.3 21.3 0 0 0-2.379-.548c.049-.033.082-.066.132-.1l22.962-.199c15.396 0 29.107.249 41.315.731-.066.017-.116.033-.182.05-.529.15-1.041.332-1.569.565h-.033c-4.428 1.728-9.036 5.449-13.662 10.483h-.033a77.89 77.89 0 0 0-4.361 5.183c-.38.465-.743.914-1.09 1.396-1.124 1.445-2.23 2.957-3.337 4.535l6.277 5.2-6.277-5.183c-6.938-5.516-13.843-10.499-20.385-14.353-1.206-.714-2.395-1.379-3.568-2.01-4.923-2.658-9.565-4.652-13.794-5.748h-.016z"/><path d="M126.026 56.6l-.132.1-.512-.083c.214-.017.429-.017.644-.017z"/><path d="M126.026 56.6l-.644.017h-.017c-2.131-.366-4.113-.465-5.947-.282l-1.421.183-1.684.316h-.017l-2.94.1-15.991.664c-5.914-9.021-14.867-16.629-17.411-15.599-5.435 2.243 4.857 12.46-1.602 15.666-1.751.864-5.881.482-11.415-.598-6.459-1.246-14.785-3.439-23.342-5.698l-16.42-4.186c-.314-.066-.611-.149-.925-.216 3.552-1.711 7.83-3.273 13.001-4.701 11.613-3.206 27.686-5.648 49.921-7.16 7.781-.532 16.338-.93 25.721-1.213 10.324-.316 21.657-.482 34.096-.482 17.477 0 32.774.316 46.171.93l3.486.166a586.47 586.47 0 0 1 17.213 1.13c-.116.199-.215.415-.314.631-2.808 5.931-5.369 14.453-5.369 21.68-2.775-.947-5.616-1.628-8.54-1.861h-.017c-3.733-.349-7.516-.05-11.315 1.047-12.208-.482-25.919-.731-41.315-.731l-22.962.199z"/><path d="M112.199 57.996l1.157-1.063 2.94-.1-2.973.781c-.017 0-.034.017-.067.017l-1.057.365z"/><path d="M112.199 57.996s-.049.033-.066.05c-4.064 1.462-7.747 3.721-10.985 6.612-.958-2.359-2.263-4.751-3.783-7.061l15.991-.664c-.38.365-.76.714-1.157 1.063z"/><path d="M97.365 57.597c1.52 2.309 2.825 4.701 3.783 7.06-9.945 8.838-15.776 23.158-16.024 36.433-17.164-1.28-30.478-3.174-40.786-5.549v-.033c0-6.213 11.151-4.834 9.912-10.25-.661-2.924-12.753-9.021-25.176-15.882h-.016c-.231-.133-.479-.266-.71-.382-5.65-3.156-11.316-6.429-15.941-9.602-.083-.05-.165-.116-.248-.166C4.741 54.075.066 49.191 2.461 45.503c1.883-2.891 11.712-1.395 23.788 1.462.314.066.611.15.925.216 5.253 1.246 10.87 2.741 16.42 4.186 8.557 2.259 16.883 4.452 23.342 5.698 5.534 1.08 9.664 1.462 11.415.598 6.459-3.206-3.832-13.423 1.602-15.666 2.544-1.03 11.498 6.579 17.411 15.599z"/><path d="M28.347 68.994l.71.382h.017c12.422 6.861 24.515 12.958 25.175 15.882 1.239 5.416-9.912 4.037-9.912 10.25v.033c-16.965-3.954-25.82-9.237-30.429-15.45-.083-.116-.165-.216-.231-.332.066-.116.149-.216.231-.332 2.874-3.871 7.384-7.393 14.438-10.433z"/><path d="M9.416 68.711c-.264 1.827-.396 3.688-.463 5.582.132-5.349.727-10.433 3.205-15.068.083.05.165.116.248.166 4.625 3.173 10.292 6.446 15.941 9.602-7.054 3.04-11.564 6.562-14.438 10.433-.083.116-.165.216-.231.332-2.461-3.439-3.651-7.127-4.262-11.047z"/></g><path d="M294.391 2.741c2.396 1.661 2.098 5 .166 9.27 0 .017-.017.017-.017.033-12.406 16.281-22.285 26.165-29.272 32.644-9.301 8.622-13.497 11.264-11.795 14.952 1.288 2.808 4.361 4.452 6.343 6.296 1.14 1.047 1.917 2.16 1.851 3.572-.248 5.2-13.778 12.144-23.673 14.52-1.536-3.306-3.485-6.496-5.765-9.469 4.758-1.778 8.508-3.854 8.177-5.167-.264-1.03-2.659-1.611-5.996-1.545 1.8-1.728 3.733-3.921 5.368-6.13 2.99-3.971 5.055-8.007 3.816-9.486-1.734-2.077-10.704 4.053-15.429 7.957-1.173.98-2.098 1.811-2.56 2.343-1.041 1.18-1.024 2.841-.463 4.386-3.684-3.306-7.797-6.014-12.158-7.941-.182-.083-.363-.166-.562-.233h-.016c-.727-.316-1.487-.598-2.23-.881 0-7.243 2.56-15.766 5.369-21.696.033-.05.049-.116.082-.166 2.065-4.253 4.246-7.127 5.683-7.127 3.287 0 2.94 4.17 3.254 7.941 0 .066.017.116.017.183h.016s.017.116.017.166h-.182c0 3.206-2.726 7.575-1.041 8.605 1.834 1.13 6.311-2.625 9.714-4.402.066-.033.115-.05.165-.083 1.354-.681 2.874-1.578 4.543-2.658.082-.05.148-.1.231-.15h.016a15.46 15.46 0 0 0 1.173-.764c17.709-11.629 49.211-39.107 55.158-34.97z" fill="#77b566"/><g class="D"><path d="M284.1 79.875c2.593-3.505 3.816-7.343 4.41-11.38.529 3.688.529 7.526.529 11.48h.017c0 8.755 0 16.912-5.683 23.873-4.427 5.399-12.307 10.084-26.299 13.722 4.642-4.286 3.899-17.51.132-22.66l-.082-.332c14.702-3.838 22.631-8.838 26.91-14.603.016-.033.049-.067.066-.1z"/><path d="M288.51 68.478c-.594 4.054-1.817 7.891-4.41 11.397-.017-.033-.05-.066-.066-.1-2.396-3.223-5.931-6.197-11.151-8.871-.099-.05-.182-.1-.281-.133 1.553-1.794 2.313-3.356 2.131-4.419-1.272-8.008-12.488-1.296-13.43-7.177-.281-1.877 3.172-6.662 8.012-12.725 13.794 5.881 17.956 13.473 19.195 22.029z"/></g><path d="M294.54 12.044c-4.312 9.569-16.718 23.79-25.109 34.272-.05.05-.083.083-.116.133-4.84 6.064-8.293 10.848-8.012 12.725.942 5.881 12.158-.831 13.43 7.177.182 1.063-.578 2.625-2.131 4.419a.94.94 0 0 1-.115.149c-5.022 5.731-17.858 13.872-32.89 16.895a41.95 41.95 0 0 0-1.603-3.788c9.895-2.376 23.425-9.32 23.672-14.52.067-1.412-.71-2.525-1.85-3.572-1.982-1.844-5.055-3.489-6.343-6.296-1.702-3.688 2.494-6.33 11.795-14.952 6.987-6.479 16.866-16.364 29.272-32.644z" class="C"/><path d="M284.034 79.775s.049.066.066.1c-.017.033-.05.066-.066.1-2.445-3.289-6.112-6.346-11.547-9.054.049-.05.082-.1.115-.15.099.033.182.083.281.133 5.22 2.675 8.755 5.648 11.151 8.871z" class="B"/><path d="M283.373 103.847l.264.266c0 51.051 0 93.065-110.167 98.282 3.931-.797 52.35-3.289 76.963-38.692 8.095-11.645 11.167-27.959 12.307-39.106-29.487 6.761-86.858 7.426-121.764 1.545v-.166h7.996c54.464 0 87.767-3.107 108.102-8.423 13.992-3.638 21.872-8.323 26.299-13.722v.016zM272.487 70.92c5.435 2.708 9.102 5.765 11.547 9.054-4.279 5.765-12.208 10.765-26.91 14.603-4.444 1.146-9.482 2.209-15.215 3.156V97.7c-.313-3.273-1.123-6.595-2.312-9.885 15.032-3.024 27.868-11.164 32.89-16.895z" class="D"/><g class="B"><path d="M262.74 124.597c-1.14 11.147-4.212 27.461-12.307 39.106-24.613 35.403-73.032 37.894-76.963 38.692h-.033c-7.616.365-15.743.548-24.449.548-134.665 0-134.666-44.24-134.666-98.83l.264-.233c10.589 12.859 40.671 21.581 126.389 22.096v.166c34.906 5.881 92.277 5.216 121.764-1.545z"/><path d="M8.904 78.347l.05-3.672.033-1.346c.017-.1.017-.199.017-.299l.05-.681c0-.548.066-1.096.116-1.628l.099-1.013.149-1.097c.611 4.004 1.85 7.775 4.427 11.297.017.033.05.066.066.1 4.609 6.213 13.463 11.496 30.429 15.433 10.308 2.392 23.623 4.286 40.786 5.565 10.837.831 23.194 1.396 37.318 1.712l9.416.182 17.114.1 26.662-.282 15.991-.499 12.406-.614c15.164-.898 27.636-2.21 37.878-3.871 5.733-.947 10.771-2.01 15.215-3.156l.082.332c3.767 5.15 4.51 18.373-.132 22.66-20.335 5.316-53.638 8.422-108.102 8.422h-7.996c-85.719-.515-115.8-9.236-126.389-22.095-5.699-6.961-5.699-15.134-5.699-23.889l.017-1.645v-.017z"/></g><path d="M243.594 52.231c1.239 1.479-.826 5.515-3.816 9.486a50.18 50.18 0 0 1-5.368 6.13c-.711 0-1.471.05-2.264.116-2.031.083-2.742 1.645-2.659 3.24-.479-.532-.925-1.013-1.421-1.512-.941-.964-1.916-1.91-2.924-2.774-.561-1.545-.578-3.206.463-4.386.462-.532 1.387-1.362 2.56-2.342 4.725-3.904 13.695-10.034 15.429-7.958z" class="C"/><path d="M241.909 97.701v.033c-10.242 1.661-22.714 2.973-37.879 3.871-1.123-2.559-2.494-4.918-4.08-7.111 16.288-5.582 31.569-12.609 30.28-20.882.496.731 1.189 1.163 1.949.964.017 0 .033-.017.05-.017 2.28 2.974 4.229 6.163 5.765 9.469a41.95 41.95 0 0 1 1.603 3.788c1.189 3.289 1.998 6.612 2.312 9.885z" class="E"/><path d="M240.406 69.392c.33 1.312-3.419 3.389-8.177 5.167l-2.032-2.509-.71-.831c1.074-.1 2.907-1.445 4.923-3.372 3.336-.067 5.732.515 5.996 1.545z" class="C"/><path d="M238.044 38.476l-.231.15-4.543 2.658c-.05.033-.099.05-.165.083-1.9.947-3.42 1.462-4.461 1.379-3.006-.233-3.766-2.724-4.03-5.582 0-.05-.017-.116-.017-.166h-.016s-.017-.116-.017-.183c4.84.498 9.334 1.047 13.48 1.661z" class="B"/><path d="M232.146 67.964l2.264-.116c-2.016 1.927-3.849 3.273-4.923 3.372-.083-1.612.628-3.173 2.659-3.256z" class="C"/><path d="M230.23 73.612c-.429-.648-.71-1.512-.743-2.392l.71.831 2.032 2.509c-.017 0-.033.017-.05.017-.759.199-1.453-.233-1.949-.964z" class="B"/><path d="M174.824 68.129c4.642-5.034 9.251-8.738 13.678-10.483h.033c.149-.067.298-.133.446-.183.38-.15.76-.282 1.14-.382 3.866-1.13 7.698-1.445 11.498-1.096 2.924.233 5.781.914 8.557 1.877.743.282 1.503.565 2.23.88h.016c.199.067.38.15.562.233 4.361 1.927 8.474 4.635 12.158 7.941.744 2.093 2.495 4.02 4.014 4.303.1.017.215.017.331 0 .033.881.314 1.744.743 2.392 1.289 8.273-13.992 15.3-30.28 20.882-6.608-9.154-16.998-15.483-29.503-21.181 1.42-1.827 2.907-3.605 4.361-5.183h.016z" class="F"/><path d="M229.487 71.203c-.116.033-.231.033-.331.017-1.519-.282-3.27-2.209-4.014-4.303 1.008.864 1.983 1.811 2.924 2.774l1.421 1.512z" class="B"/><path d="M228.644 42.745c1.041.083 2.561-.432 4.461-1.379-3.403 1.778-7.88 5.532-9.714 4.402-1.685-1.03 1.041-5.399 1.041-8.589h.182c.264 2.841 1.024 5.333 4.03 5.565z" class="C"/><path d="M116.065 56.783c-.661.133-1.288.299-1.933.498h-.033l-.743.033-.545.017-15.149.631c-3.287-5.133-7.582-9.835-11.2-12.825v-.033c-2.907-2.376-5.369-3.655-6.509-3.19-5.451 2.226 4.857 12.46-1.602 15.666-1.751.847-5.897.465-11.415-.615-6.459-1.246-14.801-3.439-23.342-5.698l-16.42-4.186c3.436-1.562 7.5-3.007 12.357-4.336-.033-.05-.05-.1-.083-.15 10.936-3.007 25.787-5.333 45.99-6.844l3.667-.266h.066c7.748-.532 16.271-.93 25.605-1.213h.115c10.325-.316 21.657-.482 34.096-.482 13.216 0 25.176.183 36.012.532l10.16.399a.67.67 0 0 1 .181.017h.017c1.107.033 2.197.1 3.271.15h.016c.215.017.446.017.661.033l11.084.681 5.237.399c-.033.05-.049.116-.082.166-2.809 5.931-5.369 14.453-5.369 21.68-2.776-.947-5.633-1.628-8.557-1.861-3.8-.349-7.632-.033-11.498 1.096-.38.1-.76.233-1.14.382-11.877-.449-25.159-.681-39.993-.681l-21.442.166h-.017c-.545-.15-1.09-.266-1.635-.349-2.313-.432-4.493-.565-6.476-.365-.462.083-.941.116-1.42.183a24.35 24.35 0 0 0-1.916.366h-.017z" class="B"/><path d="M199.95 94.494c1.586 2.193 2.957 4.552 4.081 7.11l-12.406.615-3.09-3.023a35.28 35.28 0 0 0-.809-.781l12.224-3.921z" class="E"/><path d="M170.447 73.313c12.505 5.698 22.896 12.028 29.503 21.182-4.097 1.395-8.243 2.708-12.224 3.921l-2.379-2.276c-.38-.366-.776-.714-1.173-1.08a6 6 0 0 0-.694-.631c-1.371-1.312-2.758-2.575-4.179-3.821-1.619-1.495-3.271-2.94-4.923-4.369-2.758-2.409-5.567-4.718-8.358-6.977 1.106-1.595 2.197-3.107 3.32-4.552l1.107-1.395z" class="F"/><path d="M187.726 98.415l.809.781 3.089 3.023-15.99.499c2.346-2.509 5.104-4.968 8.54-7.659l1.173 1.08 2.379 2.276z" class="E"/><path d="M191.625 102.219l-3.09-3.023 3.09 3.023z" class="B"/><path d="M188.519 57.63s-.017-.017-.017.017c-4.427 1.744-9.036 5.449-13.678 10.483h-.016c-1.454 1.578-2.941 3.356-4.361 5.183l-1.107 1.395a103.9 103.9 0 0 0-3.32 4.552c-6.939-5.515-13.844-10.499-20.385-14.353-1.14-.665-2.263-1.312-3.37-1.894-4.989-2.724-9.714-4.751-13.992-5.864l-.727-.199 21.442-.166c14.834 0 28.116.233 39.993.681-.148.05-.297.116-.446.183h-.016v-.017z" class="D"/><path d="M188.519 57.63l-.017.016.017-.016z" class="B"/><path d="M183.48 94.428c.232.183.48.399.694.631-3.436 2.691-6.194 5.15-8.54 7.659l-26.662.282c-5.947 0-11.663-.033-17.114-.1 11.893-.448 31.585-2.924 33.501-9.403 2.164-7.409-10.523-19.437-25.424-27.76l2.33-2.724c1.107.581 2.23 1.229 3.37 1.894 6.541 3.854 13.446 8.838 20.385 14.353l8.358 6.978 4.923 4.369c1.421 1.246 2.808 2.509 4.179 3.821z" class="E"/><path d="M139.936 65.737c14.9 8.323 27.587 20.351 25.423 27.76-1.916 6.479-21.608 8.954-33.501 9.403l-9.416-.182c.231-13.041 7.648-25.285 17.494-36.981z" class="F"/><path d="M142.265 63.013l-2.33 2.725c-7.962-4.452-16.535-7.858-23.853-8.954a24.35 24.35 0 0 1 1.916-.365c.479-.066.958-.1 1.42-.183 1.983-.199 4.163-.066 6.476.366.545.083 1.09.199 1.635.349h.017l.727.199c4.278 1.113 9.003 3.14 13.992 5.864z" class="E"/><path d="M139.936 65.737c-9.846 11.695-17.263 23.939-17.494 36.981-14.124-.316-26.481-.881-37.318-1.711.116-6.214 1.454-12.626 3.882-18.624h.017c.793-1.13 1.355-2.409 1.52-3.522 2.015-4.153 4.559-8.007 7.582-11.313a36.77 36.77 0 0 1 3.023-2.99c3.238-2.891 6.922-5.15 10.986-6.612.016-.017.049-.033.066-.05a19.33 19.33 0 0 1 1.057-.365c.033 0 .049-.017.066-.017.248-.083.512-.166.776-.233h.033c.645-.199 1.272-.365 1.933-.498h.017c7.318 1.096 15.891 4.502 23.854 8.954z" class="F"/><path d="M114.099 57.281l-.776.233c-.017 0-.033.017-.066.017l-1.058.365c-.016.017-.049.033-.066.05-4.063 1.462-7.747 3.721-10.985 6.612-.892-2.209-2.098-4.436-3.486-6.595l15.149-.631c.181 0 .363-.017.545-.017.248 0 .495 0 .743-.033z" class="D"/><path d="M101.148 64.558a36.77 36.77 0 0 0-3.023 2.99c-2.775-8.423-9.598-16.63-12.885-15.35-3.651 1.412-.876 8.19-3.799 12.044C77.146 69.924 50.5 53.676 5.898 44.107v-.166c4.345-.465 12.125.98 21.046 3.09l.231.05c5.253 1.246 10.87 2.741 16.42 4.186 8.54 2.259 16.883 4.452 23.342 5.698 5.517 1.08 9.664 1.462 11.415.615 6.459-3.206-3.849-13.44 1.602-15.666 1.14-.465 3.601.814 6.492 3.19h.017v.033c3.618 2.99 7.913 7.692 11.2 12.825 1.388 2.16 2.594 4.386 3.486 6.595z" class="C"/><path d="M98.125 67.548c-3.023 3.306-5.567 7.16-7.582 11.297.116-.731.05-1.412-.231-1.91-1.569-2.891-24.333-3.522-25.126.781-.611 3.306 15.792 7.31 19.328 7.426 1.702.066 3.337-1.18 4.493-2.758-2.428 5.997-3.766 12.41-3.882 18.623-17.164-1.279-30.478-3.173-40.786-5.565 0-3.771 4.047-4.751 6.988-6.13a1.46 1.46 0 0 1 .281-.133c2.94-1.329 9.251-.914 9.367-2.841.116-1.778-7.054-3.671-11.431-5.482-4.774-3.14-12.555-7.21-20.451-11.562h-.016l-.215-.116c-5.831-3.223-11.679-6.612-16.453-9.885-.017 0-.017-.017-.033-.017C4.84 54.075.05 49.141 2.478 45.42c.529-.831 1.718-1.296 3.42-1.478v.166c44.619 9.569 71.264 25.816 75.559 20.135 2.924-3.854.149-10.632 3.8-12.044 3.287-1.279 10.11 6.928 12.885 15.35h-.017z" fill="#77b566"/><path d="M90.311 76.934c.281.498.347 1.18.231 1.91l-1.52 3.522h-.017c-1.156 1.595-2.792 2.841-4.493 2.774-3.535-.116-19.939-4.12-19.328-7.426.793-4.303 23.557-3.671 25.126-.781z" class="C"/><path d="M89.023 82.367c.43-1.18.958-2.359 1.52-3.505-.165 1.113-.727 2.392-1.52 3.505z" class="B"/><path d="M49.542 80.855c4.378 1.811 11.547 3.705 11.431 5.482-.116 1.927-6.426 1.512-9.367 2.841 1.801-.897 3.106-1.977 2.643-4.02-.248-1.063-1.999-2.542-4.708-4.303z" class="C"/><path d="M13.91 80.008s-.05-.066-.066-.1c.016-.033.049-.067.066-.1 2.874-3.871 7.384-7.393 14.454-10.433.149-.067.314-.133.479-.199.066.033.149.083.215.116h.017c7.896 4.353 15.677 8.423 20.451 11.546 2.709 1.778 4.46 3.256 4.708 4.319.463 2.043-.842 3.123-2.643 4.02a1.46 1.46 0 0 0-.281.133c-2.94 1.379-6.988 2.359-6.988 6.114-16.965-3.921-25.82-9.204-30.429-15.417h.017z" class="D"/><g class="B"><path d="M39.448 42.596l.083.149c-4.857 1.329-8.92 2.774-12.356 4.336-.083 0-.149-.033-.231-.05 3.419-1.595 7.467-3.057 12.307-4.386l.198-.05zm-10.605 26.58l-.479.199c-7.07 3.04-11.58 6.562-14.454 10.433-.017.033-.05.066-.066.1-2.577-3.522-3.816-7.293-4.427-11.297v-.05l.165-1.146.149-.814c0-.05.033-.116.033-.166.033-.183.083-.332.116-.498.066-.316.132-.631.215-.93.479-1.861 1.14-3.655 2.065-5.399.016-.05.05-.083.066-.133.049-.066.083-.133.132-.199 0 0 0 .017.033.017 4.774 3.273 10.622 6.662 16.453 9.885z"/><path d="M12.158 59.607c-.925 1.744-1.586 3.538-2.065 5.399.446-1.844 1.09-3.622 2.065-5.399zm-2.279 6.33l-.116.498.116-.498zm-.298 1.478l-.165 1.146v.05l-.149 1.096.314-2.293zm-.528 4.934c0-.548.066-1.096.116-1.628l-.116 1.628zm-.066.98l-.033 1.346-.05 3.671.083-5.017z"/></g><g stroke="#3f2a25" class="G H"><path d="M201.618 56.002c2.924.233 5.782.897 8.541 1.877l2.808 1.113c5.551 2.442 10.705 6.163 15.082 10.715.744.748 1.438 1.545 2.131 2.359 4.097 4.751 7.335 10.167 9.4 15.782 1.189 3.273 1.999 6.595 2.313 9.885M166.019 79.26c2.792 2.259 5.6 4.569 8.359 6.977l4.923 4.369a130.72 130.72 0 0 1 4.179 3.821c.232.183.479.399.694.631.38.365.793.731 1.173 1.08l6.277 6.08m18.552-44.372c0-7.227 2.56-15.749 5.368-21.68.099-.216.199-.432.314-.631 1.983-3.987 4.064-6.662 5.452-6.662 3.138 0 2.957 3.821 3.221 7.459l.049.664h.017c.248 2.924.975 5.516 4.047 5.748 1.784.133 5.039-1.462 9.168-4.12.298-.166.579-.349.859-.532a10.95 10.95 0 0 0 .562-.382c17.709-11.629 49.211-39.107 55.158-34.97 7.698 5.349-12.489 28.043-24.68 43.21l-.396.498c-4.84 6.064-8.293 10.848-8.012 12.725.941 5.881 12.158-.831 13.43 7.177.165.997-.495 2.425-1.85 4.087-.116.166-.264.316-.397.482-5.021 5.731-17.857 13.872-32.89 16.895M170.43 73.313c15.545 7.077 27.835 15.151 33.65 28.408m79.557 2.392c0 54.573 0 98.83-134.666 98.83s-134.665-44.24-134.665-98.83m274.749-24.122c0 25.401 0 46.001-140.084 46.001S8.887 105.392 8.887 79.991"/><path d="M288.51 68.478c-.595 4.087-1.833 7.957-4.477 11.513C273.841 93.763 242.884 103 148.955 103S24.118 93.747 13.909 80.008c-2.627-3.555-3.882-7.376-4.493-11.413m215.181-31.582h-.017"/><path d="M8.887 79.975l.033-4.203.033-1.578.463-5.582v-.05m179.119-10.915h-.033M93.053 124.53h-.016m-7.913-23.523c.248-13.274 6.079-27.611 16.024-36.449 3.238-2.891 6.921-5.15 10.985-6.612.017-.017.05-.033.066-.05a19.58 19.58 0 0 1 1.057-.365c.033 0 .05-.017.067-.017.974-.316 1.982-.565 2.99-.781.561-.116 1.123-.233 1.684-.316.48-.066.959-.1 1.421-.183 1.834-.183 3.833-.083 5.964.282a5.68 5.68 0 0 1 .512.083c.793.133 1.569.316 2.379.548 5.236 1.362 11.134 4.087 17.361 7.758 6.542 3.854 13.447 8.838 20.385 14.353 2.792 2.259 5.6 4.569 8.359 6.978l4.923 4.369a130.72 130.72 0 0 1 4.179 3.821 6.17 6.17 0 0 1 .694.631l1.173 1.08 6.277 6.08M44.338 95.425c0-6.213 11.151-4.834 9.912-10.267-.677-2.924-12.769-9.021-25.175-15.865h-.017c-5.897-3.256-11.828-6.695-16.651-9.984C4.857 54.108.049 49.158 2.478 45.42c1.933-2.957 12.224-1.312 24.696 1.678 5.253 1.246 10.886 2.741 16.437 4.186 8.541 2.259 16.883 4.452 23.325 5.698 5.534 1.08 9.664 1.462 11.415.615 6.459-3.206-3.849-13.423 1.602-15.666 3.188-1.312 16.47 10.981 21.194 22.643"/><path d="M191.624 102.236l-6.277-6.081-1.173-1.08-.694-.631-4.179-3.821-4.923-4.369c-2.759-2.425-5.567-4.718-8.359-6.977 1.107-1.578 2.197-3.09 3.321-4.552a45.74 45.74 0 0 1 1.106-1.395 87.41 87.41 0 0 1 4.362-5.183h.016c4.626-5.034 9.234-8.755 13.662-10.483m13.132-1.678c-3.733-.349-7.516-.05-11.315 1.047-.066 0-.116.033-.182.05a12.08 12.08 0 0 0-1.586.565h-.016v-.033m-62.493-1.114l-.132.1"/><path d="M174.163 68.528l.645-.382h.033m-62.708-10.2s.05-.033.066-.05l1.157-1.063m28.182 7.06c-11.035 12.576-18.866 24.737-19.113 38.841m61.749-7.675c-3.436 2.691-6.211 5.15-8.54 7.659M8.904 79.31v-1.445l.05-3.671c.132-5.349.727-10.433 3.205-15.068m257.552-13.175c19.344 8.389 19.344 20.234 19.344 33.359M26.249 46.865c3.552-1.711 7.83-3.273 13.001-4.702 11.613-3.206 27.686-5.648 49.921-7.16 7.781-.532 16.338-.93 25.721-1.213 10.325-.316 21.657-.482 34.096-.482 17.477 0 32.774.316 46.171.93l3.486.166c6.145.316 11.877.698 17.213 1.13m22.813 2.56c-4.328-.664-9.036-1.246-14.14-1.761M97.365 57.497l15.991-.664 2.957-.1m94.606 1.412h-.017m61.981 12.294c5.22 2.658 8.755 5.632 11.15 8.855.083.116.166.233.232.349m-93.962-22.611c-12.208-.482-25.919-.731-41.315-.731l-22.962.199c-.215 0-.43 0-.644.017M13.678 79.676a4.25 4.25 0 0 1 .231-.349c2.874-3.871 7.384-7.393 14.438-10.433"/></g></svg>