<svg xmlns="http://www.w3.org/2000/svg" xmlns:xlink="http://www.w3.org/1999/xlink" width="293" height="174" fill="none" xmlns:v="https://vecta.io/nano"><g stroke="#3f2a25" stroke-width="2" stroke-linecap="round" stroke-linejoin="round"><path d="M240.574 6.828h-.016M15.759 72.086c0 54.106.662 99.18 134.929 99.18s134.946-45.091 134.946-99.197m-269.875.017c-5.446-6.861-5.446-14.898-5.446-23.465m280.75 0c0 8.567 0 16.588-5.429 23.449"/><path d="M10.313 48.621l.033-4.193.033-1.574.463-5.618M200.465 3.165h-.017M13.591 27.807c-7.433-5.12-12.118-10.009-9.717-13.671 1.887-2.9 11.737-1.392 23.837 1.442m263.352 32.38c0-13.091 0-24.907-19.384-33.275-7.284-3.149-17.315-5.8-31.104-7.855h-.017c-4.337-.646-9.038-1.226-14.153-1.74l-8.691-.795a589.96 589.96 0 0 0-17.249-1.127h-.017L196.972 3c-13.425-.613-28.754-.928-46.267-.928l-34.167.481c-9.403.282-17.977.679-25.774 1.21-22.281 1.508-38.388 3.944-50.025 7.142-5.181 1.425-9.469 2.983-13.028 4.69"/><path d="M13.591 27.824c-2.483 4.623-3.079 9.694-3.211 15.03l-.05 3.662v1.442"/></g><g fill="#bc7171"><path d="M197.038 2.95l3.477.166h.016l17.249 1.127 8.691.795c5.115.514 9.816 1.094 14.153 1.74h.017c13.789 2.055 23.821 4.706 31.104 7.855 13.591 5.866 17.646 13.754 18.855 22.454h-.017v.033c-.579 3.927-1.754 7.673-4.254 11.119-.066-.116-.149-.232-.232-.348-2.4-3.215-5.943-6.181-11.173-8.849-11.207-5.684-30.128-9.976-62.093-12.246h-.017c-6.356-.447-13.226-.829-20.642-1.11-12.233-.48-25.973-.729-41.401-.729l-23.01.199c-.215 0-.413 0-.629.017h-.016c-2.136-.365-4.139-.464-5.976-.282l-1.424.182c-.546.083-1.109.182-1.655.315h-.033l-2.98.099-16.007.663c-5.926-8.998-14.898-16.588-17.448-15.56-5.463 2.237 4.867 12.429-1.606 15.627-1.755.862-5.893.481-11.439-.597-6.473-1.243-14.832-3.43-23.39-5.684l-16.454-4.176c-.314-.066-.613-.149-.927-.215 3.559-1.707 7.846-3.265 13.028-4.69C52.442 7.656 68.549 5.22 90.83 3.712c7.797-.53 16.372-.928 25.774-1.21 10.346-.315 21.702-.481 34.167-.481 17.514 0 32.842.315 46.267.928z"/><path d="M10.909 37.236c.596 3.911 1.804 7.59 4.271 11.02.083.133.149.215.232.331 4.619 6.198 13.491 11.467 30.492 15.395 10.329 2.386 23.655 4.259 40.871 5.551 10.859.829 23.242 1.392 37.394 1.707l26.585.282 26.735-.282 15.99-.497 12.432-.613c52.045-3.049 72.307-10.97 80.186-21.559.083-.116.166-.215.232-.331 2.5-3.447 3.675-7.192 4.254-11.12v-.033h.017c.53 3.712.53 7.573.53 11.484 0 8.717 0 16.886-5.711 23.83-10.926 13.224-42.626 22.057-134.665 22.057-21.933 0-40.424-.497-56.034-1.442h-.017C44.794 90 24.417 82.476 16.107 72.401c-5.727-6.943-5.727-15.113-5.727-23.83l.016-1.607v-.497l.05-3.662v-.05c.066-1.873.199-3.712.464-5.518z"/><path d="M186.03 63.601a5.71 5.71 0 0 0-.695-.613l-4.188-3.811-4.933-4.358c-2.764-2.419-5.579-4.706-8.376-6.977-6.953-5.502-13.872-10.457-20.427-14.318a100.78 100.78 0 0 0-3.576-2.005c-4.933-2.651-9.585-4.64-13.822-5.717-.811-.232-1.589-.414-2.384-.547.05-.033.083-.066.132-.099l23.01-.199c15.428 0 29.168.249 41.401.729 7.416.282 14.286.663 20.642 1.11h.017c31.965 2.27 50.886 6.562 62.093 12.246 5.23 2.668 8.773 5.634 11.173 8.849.083.116.166.232.232.348-.066.116-.149.215-.232.331-7.879 10.589-28.141 18.51-80.186 21.56l-12.432.613c-2.052-2.055-4.155-4.043-6.273-6.049l-1.159-1.077h-.017V63.6zm99.389 8.8l.281.249c0 54.437 0 98.567-134.929 98.567S15.825 127.086 15.825 72.649l.281-.249C24.417 82.476 44.794 90 94.704 93.016h.017c15.61.945 34.101 1.442 56.034 1.442 92.039 0 123.739-8.833 134.665-22.057z"/><path d="M187.206 64.695l6.273 6.049-15.99.497c2.334-2.502 5.098-4.955 8.541-7.639h.017l1.159 1.094z"/><path d="M185.335 62.988c.232.166.464.381.695.613-3.443 2.685-6.207 5.137-8.541 7.639l-26.735.282c-9.551 0-18.341-.099-26.585-.282.248-14.069 8.078-26.199 19.136-38.727l.53-.994c1.175.63 2.367 1.293 3.576 2.005 6.555 3.861 13.474 8.816 20.427 14.318l8.376 6.977 4.933 4.358c1.424 1.226 2.814 2.519 4.188 3.811z"/><path d="M181.147 59.177l4.188 3.811-4.188-3.811zm-67.274-32.613s.016-.017.033-.017c.348-.149.712-.248 1.059-.364.033 0 .05-.033.067-.033l2.996-.762h.033l1.655-.315 1.424-.182c1.837-.182 3.84-.083 5.976.282h.016c.166.017.331.05.497.083.795.133 1.573.315 2.384.547 4.237 1.077 8.889 3.066 13.822 5.717l-.53.994c-11.058 12.528-18.887 24.658-19.136 38.728-14.153-.315-26.535-.878-37.394-1.69.248-13.257 6.092-27.542 16.057-36.358 3.244-2.883 6.936-5.137 11.008-6.612.016-.017.033-.017.033-.017z"/><path d="M127.761 25.156l-.132.099-.497-.083c.216-.017.414-.017.629-.017zm-12.713.331l2.98-.099c-1.01.199-2.02.464-2.996.762-.017 0-.033.033-.067.033l-1.059.364c-.017 0-.017.017-.033.017 0 0-.017 0-.033.017-4.072 1.475-7.764 3.729-11.008 6.612-.961-2.353-2.268-4.739-3.791-7.043l16.007-.663z"/><path d="M99.041 26.15c1.523 2.303 2.83 4.69 3.791 7.043-9.966 8.816-15.809 23.101-16.057 36.341-17.216-1.293-30.542-3.165-40.871-5.551 0-6.214 11.174-4.839 9.932-10.241-.662-2.917-12.796-8.998-25.228-15.842h-.017c-.232-.133-.463-.249-.695-.381-5.678-3.132-11.339-6.413-15.991-9.578-.083-.05-.166-.116-.248-.166C6.224 22.637 1.54 17.765 3.94 14.086c1.887-2.883 11.737-1.392 23.837 1.458.314.066.613.149.927.215 5.264 1.243 10.892 2.734 16.454 4.176 8.558 2.254 16.918 4.441 23.39 5.684 5.545 1.077 9.684 1.458 11.439.597 6.472-3.198-3.857-13.39 1.606-15.627 2.549-1.027 11.521 6.562 17.448 15.561z"/><path d="M55.836 53.741c1.241 5.402-9.932 4.027-9.932 10.225-17.001-3.911-25.873-9.181-30.492-15.378l-.232-.315c.066-.133.149-.232.232-.348 2.88-3.861 7.4-7.374 14.485-10.407.232.133.463.249.695.381h.017c12.432 6.844 24.566 12.926 25.228 15.842z"/><path d="M10.909 37.236c-.265 1.806-.397 3.646-.464 5.518.132-5.319.728-10.374 3.211-14.981.083.05.165.116.248.166 4.652 3.165 10.313 6.446 15.991 9.578-7.085 3.033-11.604 6.546-14.484 10.407-.083.116-.165.215-.232.331-2.466-3.43-3.675-7.109-4.271-11.02z"/></g><g fill="#ad7766"><path d="M290.583 36.954c.48 3.579.48 7.325.48 11.153v.331c0 8.717 0 16.853-5.694 23.797-4.437 5.386-12.333 10.059-26.354 13.688 4.652-4.275 3.907-17.466.133-22.62l-.083-.331c14.733-3.811 22.678-8.799 26.966-14.55.083-.116.165-.215.232-.331 2.499-3.447 3.675-7.192 4.254-11.119h.066v-.017z"/><path d="M271.745 14.683c13.706 5.899 17.696 13.622 18.838 22.272h-.066c-.58 3.944-1.755 7.689-4.254 11.136-2.417-3.215-6.125-6.33-11.34-9.015-8.872-4.491-22.562-8.12-43.718-10.556 3.526-6.96 1.01-19.157-4.734-23.449 5.115.514 9.816 1.094 14.153 1.757h.017c13.789 2.055 23.82 4.69 31.104 7.855z"/><path d="M286.263 48.09c-.067.116-.149.215-.232.331-4.288 5.75-12.233 10.738-26.966 14.55-14.418 3.745-35.326 6.396-65.652 7.623-2.053-2.055-4.155-4.043-6.274-6.049-.381-.364-.778-.712-1.175-1.077a6.17 6.17 0 0 0-.695-.63c-1.374-1.293-2.765-2.569-4.188-3.812-1.623-1.491-3.295-2.933-4.933-4.358-2.765-2.419-5.579-4.706-8.377-6.96-6.969-5.502-13.872-10.473-20.427-14.334-6.241-3.646-12.15-6.38-17.398-7.722a17.74 17.74 0 0 0-1.97-.464l22.795-.199c15.428 0 29.167.265 41.401.746 7.416.282 14.285.646 20.642 1.11 6.671.464 12.779 1.027 18.375 1.674 21.155 2.436 34.845 6.065 43.718 10.556 5.214 2.685 8.922 5.8 11.339 9.015h.017z"/></g><g fill="#c6977b"><path d="M264.693 92.933c-1.142 11.119-4.221 27.376-12.332 38.992-24.665 35.314-73.184 37.816-77.124 38.612h-.033c-7.631.364-15.792.547-24.516.547-134.929 0-134.929-44.13-134.929-98.584l.265-.232c10.611 12.826 40.755 21.526 126.652 22.04v.166c34.978 5.849 92.469 5.203 122.017-1.541z"/><path d="M124.103 71.092l9.684.182c.016.017.049.017.066 0l16.835.099 26.734-.282 15.991-.497c30.326-1.226 51.234-3.878 65.652-7.623l.083.331c3.774 5.154 4.519 18.345-.133 22.62-20.377 5.303-53.75 8.402-108.327 8.402h-8.012C56.779 93.81 26.635 85.11 16.024 72.284c-5.711-6.943-5.711-15.097-5.711-23.83 0-3.911 0-7.722.513-11.352h.017c.613 4.027 1.871 7.838 4.503 11.352 4.618 6.198 13.491 11.467 30.492 15.411 10.329 2.37 23.672 4.259 40.871 5.535 10.859.829 23.241 1.392 37.395 1.707v-.017zm-6.373-45.804l-.712.166-1.97.066-15.958.663c-5.926-9.098-14.998-16.77-17.563-15.726-5.463 2.221 4.85 12.412-1.606 15.627-1.755.845-5.91.464-11.439-.613-6.473-1.243-14.832-3.43-23.39-5.684L28.621 15.61l-.613-.149c3.509-1.657 7.731-3.165 12.796-4.557C52.442 7.689 68.549 5.27 90.83 3.745c7.797-.514 16.371-.928 25.774-1.21 10.346-.315 21.702-.481 34.167-.481 17.514 0 32.842.331 46.267.928l3.477.166h.016l17.249 1.127 8.691.795c5.744 4.292 8.26 16.489 4.734 23.449-5.595-.646-11.703-1.21-18.375-1.674-6.356-.464-13.226-.829-20.642-1.11-12.233-.481-25.973-.746-41.401-.746l-22.794.199a3.79 3.79 0 0 0-.414-.083c-2.317-.431-4.503-.563-6.489-.365l-1.424.182c-.645.099-1.291.215-1.92.365h-.016z"/></g><path d="M187.139 64.546l6.274 6.049-15.991.497c2.351-2.502 5.099-4.938 8.542-7.623l1.175 1.077z" fill="#c47b49"/><path d="M141.633 34.22c14.932 8.302 27.645 20.3 25.46 27.691-1.887 6.413-21.288 8.882-33.24 9.363-.017.017-.05.017-.066 0l-9.684-.182c.248-13.373 7.333-24.99 17.53-36.871z" fill="#e09f57"/><path d="M264.693 92.933c-29.548 6.745-87.039 7.39-122.017 1.541v-.166h8.012c54.577 0 87.95-3.099 108.327-8.402 14.021-3.629 21.917-8.302 26.354-13.688l.265.265c0 50.924 0 92.817-110.397 98.037 3.94-.795 52.459-3.298 77.124-38.611 8.111-11.617 11.19-27.874 12.332-38.993v.017z" fill="#ad7766"/><path d="M181.081 59.028l4.188 3.811a6.17 6.17 0 0 1 .695.63c-3.443 2.685-6.191 5.121-8.542 7.623l-26.734.282c-5.86 0-11.472-.033-16.835-.099 11.952-.481 31.353-2.95 33.24-9.363 2.185-7.391-10.528-19.389-25.46-27.691-7.979-4.441-16.587-7.838-23.903-8.932.629-.149 1.274-.265 1.92-.364l1.423-.182c1.987-.199 4.172-.066 6.489.365a3.61 3.61 0 0 1 .414.083 17.76 17.76 0 0 1 1.97.464c5.248 1.342 11.157 4.077 17.398 7.722 6.555 3.861 13.458 8.833 20.427 14.334l8.377 6.96 4.933 4.358z" fill="#c47b49"/><path d="M117.73 25.288c7.316 1.094 15.924 4.491 23.903 8.932-10.197 11.882-17.282 23.498-17.53 36.871-14.154-.315-26.536-.878-37.395-1.69.116-6.181 1.44-12.561 3.857-18.527.828-1.127 1.407-2.436 1.573-3.58 2.02-4.126 4.552-7.954 7.615-11.252.927-1.061 1.954-2.055 3.013-2.999 3.245-2.883 6.936-5.137 11.008-6.612.033-.017.05-.033.067-.033.347-.149.695-.249 1.059-.365.033 0 .05-.017.066-.017.662-.215 1.358-.398 2.053-.563a8.9 8.9 0 0 1 .712-.166z" fill="#e09f57"/><path d="M115.048 25.52l1.97-.066-2.053.563c-.016 0-.033.017-.066.017l-1.059.364c-.017 0-.034.017-.067.033-4.072 1.475-7.763 3.729-11.008 6.612-.943-2.303-2.202-4.623-3.675-6.861l15.958-.663z" fill="#c6977b"/><path d="M91.906 45.389c-1.573-2.883-24.383-3.513-25.178.779-.612 3.298 15.825 7.291 19.368 7.407 1.688.066 3.311-1.143 4.469-2.701-2.417 5.966-3.741 12.346-3.857 18.51-17.199-1.276-30.542-3.165-40.871-5.535 0-3.762 4.056-4.739 7.002-6.115.083-.05.182-.099.282-.133 2.947-1.326 9.27-.911 9.386-2.834.116-1.773-7.085-3.662-11.472-5.502-.017 0-.033-.017-.033-.017-4.784-3.116-12.564-7.159-20.46-11.501h-.017s-.083-.05-.116-.066c-5.876-3.215-11.77-6.612-16.587-9.893-.017 0-.017-.017-.033-.017C6.241 22.587 1.44 17.665 3.873 13.937c.53-.829 1.722-1.276 3.427-1.458v.166c44.712 9.545 71.413 25.735 75.717 20.085 2.93-3.845.149-10.622 3.807-12.031 3.294-1.259 10.131 6.927 12.912 15.329h.017c-3.062 3.314-5.595 7.142-7.615 11.269.116-.729.05-1.409-.232-1.906z" fill="#77b566"/><path d="M90.565 50.874l1.573-3.58c-.166 1.144-.745 2.453-1.573 3.58z" fill="#c6977b"/><path d="M66.728 46.168c.795-4.292 23.605-3.662 25.178-.779.281.497.348 1.177.232 1.906a43.14 43.14 0 0 0-1.573 3.579c-1.159 1.558-2.781 2.767-4.469 2.701-3.543-.116-19.98-4.11-19.368-7.407zm-15.693 3.099c4.387 1.839 11.588 3.729 11.472 5.502-.116 1.922-6.439 1.508-9.386 2.834 1.804-.895 3.112-1.972 2.649-4.01-.248-1.061-2.003-2.535-4.734-4.325z" fill="#6a964d"/><path d="M51.002 49.25s0 .017.033.017c2.731 1.79 4.486 3.265 4.734 4.325.463 2.038-.844 3.115-2.649 4.01-.099.033-.199.083-.281.133-2.947 1.375-7.002 2.353-7.002 6.098-17.001-3.927-25.873-9.197-30.492-15.395 2.963-3.961 7.532-7.573 15.031-10.689l.033-.066s.083.05.116.066h.017c7.896 4.342 15.676 8.385 20.46 11.501z" fill="#ad7766"/><path d="M10.826 37.087v-.05c.48-3.231 1.192-6.131 2.831-9.065l.132-.199s.017.017.033.017c4.817 3.281 10.71 6.678 16.587 9.893l-.033.066c-7.499 3.115-12.068 6.728-15.031 10.689-2.632-3.513-3.89-7.325-4.503-11.352h-.017z" fill="#c6977b"/><path d="M45.092 19.787c8.558 2.254 16.918 4.441 23.39 5.684 5.529 1.077 9.684 1.458 11.439.613 6.456-3.215-3.857-13.406 1.606-15.627 2.566-1.044 11.637 6.629 17.563 15.726 1.473 2.237 2.732 4.557 3.675 6.861-1.059.945-2.086 1.939-3.013 2.999h-.017c-2.781-8.418-9.618-16.604-12.912-15.345-3.658 1.409-.877 8.186-3.807 12.031-4.304 5.651-31.005-10.539-75.7-20.085v-.166c4.304-.464 11.935.928 20.692 2.983l.613.149c5.281 1.243 10.909 2.734 16.471 4.176z" fill="#6a964d"/><g stroke="#3f2a25" stroke-linecap="round" stroke-linejoin="round"><path d="M212.831 26.78h-.017"/><use xlink:href="#B"/><path d="M240.641 6.761h-.017m-34.647 63.485s-.033-.082-.066-.132m79.806 2.519c0 54.437 0 98.583-134.946 98.583S15.825 127.086 15.825 72.633M291.13 48.571c0 25.338 0 45.886-140.376 45.886S10.379 73.909 10.379 48.571M290.583 37.07v.033c-.579 3.927-1.754 7.673-4.254 11.119-.066.116-.149.215-.232.331-7.879 10.589-28.141 18.51-80.186 21.559l-12.432.613-15.99.497-26.735.282c-9.551 0-18.341-.099-26.585-.282-14.153-.315-26.535-.878-37.394-1.69-45.523-3.414-63.93-11.004-71.363-20.963l-.232-.315c-2.466-3.447-3.675-7.126-4.271-11.037v-.05"/><path d="M10.379 48.554l.033-4.193.033-1.574.464-5.618m189.622-34.07h-.016M94.72 92.999h-.017m-7.929-23.465c.248-13.257 6.092-27.542 16.057-36.358 3.244-2.883 6.936-5.137 11.008-6.612.016-.017.033-.017.033-.017.016 0 .016-.017.033-.017.348-.149.712-.248 1.059-.364.033 0 .05-.033.067-.033a30.47 30.47 0 0 1 2.996-.762h.033a19.27 19.27 0 0 1 1.655-.315l1.424-.182c1.837-.182 3.84-.083 5.976.282h.016c.166.017.331.05.497.083.795.133 1.573.315 2.384.547 5.247 1.342 11.157 4.077 17.398 7.722 6.555 3.861 13.474 8.816 20.427 14.318l8.376 6.977 4.933 4.358c1.424 1.226 2.814 2.519 4.188 3.811.232.166.48.398.712.63l1.159 1.077 6.273 6.049h.017"/><path d="M45.904 63.949c0-6.198 11.174-4.822 9.932-10.224-.662-2.917-12.796-8.998-25.228-15.842-.232-.133-.463-.249-.695-.381-5.678-3.132-11.339-6.413-15.991-9.578-.083-.05-.166-.116-.248-.166C6.241 22.62 1.556 17.748 3.956 14.069c1.887-2.883 11.737-1.392 23.837 1.458.314.066.612.149.927.215 5.264 1.243 10.892 2.734 16.454 4.176 8.558 2.254 16.918 4.441 23.39 5.684 5.546 1.077 9.684 1.458 11.439.597 6.472-3.198-3.857-13.39 1.606-15.627 2.549-1.027 11.521 6.562 17.447 15.561 1.523 2.303 2.831 4.69 3.791 7.043"/><use xlink:href="#B"/><path d="M127.76 25.139l-.131.099m-13.724 1.293s-.016.017-.032.017l-.033.033m29.482 5.932c-11.058 12.545-18.904 24.675-19.153 38.744m61.878-7.656c-3.443 2.685-6.224 5.137-8.558 7.639M291.13 47.891c0-13.091 0-24.907-19.385-33.275-7.283-3.149-17.315-5.8-31.104-7.855h-.017c-4.337-.646-9.038-1.226-14.153-1.74l-8.691-.795a589.96 589.96 0 0 0-17.249-1.127h-.016l-3.477-.166c-13.425-.613-28.753-.928-46.267-.928l-34.167.481c-9.402.282-17.977.679-25.774 1.21-22.281 1.508-38.388 3.944-50.025 7.142-5.181 1.425-9.469 2.983-13.028 4.69m-14.12 12.229c-2.483 4.623-3.079 9.694-3.211 15.03l-.05 3.662v1.442m88.645-21.758l16.007-.663 3.013-.1m9.055-.215h.016c.216-.017.414-.017.629-.017l23.01-.199c15.428 0 29.168.249 41.401.729 7.416.282 14.286.663 20.642 1.11 31.965 2.27 50.886 6.562 62.093 12.246 5.231 2.668 8.773 5.634 11.174 8.849.082.116.165.232.231.348M29.896 37.501c-7.085 3.033-11.604 6.546-14.484 10.407-.083.116-.165.215-.232.331"/></g><defs ><path id="B" d="M167.838 47.825l8.376 6.977 4.933 4.358 4.188 3.812c.232.166.48.398.712.63l1.159 1.077 6.273 6.049h.017"/></defs></svg>