<svg xmlns="http://www.w3.org/2000/svg" xmlns:xlink="http://www.w3.org/1999/xlink" width="333" height="555" fill="none" xmlns:v="https://vecta.io/nano"><style><![CDATA[.B{stroke-linejoin:round}.C{fill:#935d51}.D{stroke-linecap:round}.E{fill:#dba77f}.F{fill:#b27967}.G{fill:#fff}.H{fill:#bf7e67}.I{fill:#3d587f}.J{fill:#507096}.K{fill:#ead0d0}.L{fill:#eaa0a0}.M{fill:#fcb9b9}]]></style><g stroke="#3f2a25" stroke-width="2" class="B D"><path d="M234.773 433.596c1.077 6.511-.049 17.312-.762 24.155-4.142 39.33-9.609 86.662-17.428 90.092-7.903 3.479-13.469 4.887-21.19.497-5.401-3.098-1.938-60.503-8.201-63.751-1.507-.778-3.247-1.259-5.069-1.491h-.017c-5.053-.729-10.685.216-13.502 1.061-1.309.381-2.187 2.319-2.783 5.301-3.032 15.192 1.623 57.637-3.479 60.388-7.505 4.058-15.408 2.17-20.742-.216-6.428-2.866-6.246-10.421-23.128-90.109-1.359-6.428-2.121-16.931-1.011-24.469m-22.896-51.127c-3.23-3.23-3.231-6.991-3.231-11.017m167.097 0c0 3.976 0 7.704-3.114 10.901m-65.54-81.758c19.632-3.446 37.972-11.78 49.619-23.476 9.128-9.162 14.131-20.378 12.359-32.919l-1.177-7.406v-.049m-163.352 17.13a38.56 38.56 0 0 0 .663 5.616c5.285 26.922 40.589 41.17 75.712 42.694m32.455-155.251c8.93-16.849 18.986-44.201 25.894-76.043 9.609-44.251 32.389-69.499 44.086-67.859 15.689 2.22 34.94 60.884 12.094 105.466-14.033 27.386-37.426 44.367-51.209 55.865 0 .016-.05.033-.067.066m-113.303 3.463C101.59 156.643 77.8 136.961 65.59 106.278 47.084 59.741 71.835 3.164 87.657 2.452c11.796-.53 32.074 26.789 37.442 71.736 3.992 33.515 10.42 59.608 17.71 76.54M34.775 269.399c18.555-6.544 37.359-9.742 53.114-8.45m164.081-18.837c20.808-8.399 47.316-9.675 66.153-5.019m-13.685 30.384c-18.555-6.544-37.359-9.742-53.114-8.449"/><use xlink:href="#B"/><path d="M182.139 483.098h-.016m7.654-181.046c.05 3.281.944 6.677 2.435 10.487 2.104 5.352 17.446 3.48 23.874 8.383 6.643 5.087 17.992 28.579 19.135 33.168m-117.76 81.162c-2.087-1.126-3.943-2.534-5.434-4.224m-17.462-47.531c0 14.198 0 27.485 13.718 35.983m135.321-1.441c11.58-8.449 11.713-20.924 11.713-34.343M91.335 372.463v-.679l.033-1.723c.083-2.502.431-4.888 1.905-7.058 1.458-2.137 3.993-4.075 8.416-5.749 2.121-.795 4.672-1.54 7.754-2.203 2.203-.481 4.688-.911 7.488-1.325m118.29.364c4.821.795 8.648 1.706 11.663 2.733 11.547 3.943 11.547 9.493 11.547 15.64M108.3 419.48c0 3.778.861 8.251 3.744 11.117m127.799-.779c-1.392 1.591-3.098 2.933-5.037 4.01m8.814-15.789c0 3.811-.828 8.383-3.761 11.299m11.78-146.073a187.29 187.29 0 0 0-12.243-4.688"/><path d="M253.063 284.044c-1.308 4.904.763 11.017 1.458 11.067 1.243.099 2.37-5.55 3.678-5.401 1.359.149 1.077 6.279 3.032 6.693 1.541.332 2.817-3.28 4.324-3.032 2.568.431 2.336 11.597 3.678 11.664 1.093.066 1.657-7.406 3.463-7.571 2.534-.216 4.903 14.43 7.786 14.264 1.972-.116.166-7.174 2.32-7.406 3.197-.348 7.306 14.447 11.298 13.701 2.635-.48-6.345-12.657-4.556-16.451.862-1.822 10.371-2.965 10.371-3.893 0-1.425-17.892-2.104-17.942-3.678-.033-1.209 11.514-1.789 10.587-3.032-1.591-2.137-20.262.116-20.527-1.938-.199-1.491 11.232-3.115 9.94-4.755-2.8-3.562-19.4 2.303-20.096-.215-.298-1.077 3.281-2.022 2.601-3.463-.397-.828-10.288-.547-12.988 2.783m-1.127-45.112s.149-.033.215-.066c35.288-10.139 81.246-31.726 79.606-46.074-.083-.695-.365-1.342-.878-1.938-.531-.663-1.309-1.259-2.336-1.806-.034-.033-.05-.05-.083-.05M3.429 239.429c-.464.679-.663 1.342-.613 1.971.646 7.721 40.44 12.591 84.41 13.933"/><path d="M329.306 190.191c-.713-.63-1.491-1.226-2.32-1.789-.033-.033-.066-.067-.099-.067-15.209-10.503-49.138-12.872-89.546-10.205M91.65 202.219c-46.968 12.044-83.316 26.209-88.22 37.21"/><path d="M226.904 165.821c3.38 3.247 7.72 8.3 10.437 12.309h.017m-41.302-29.755c-16.915-4.837-35.802-4.224-53.23 2.353-.034.016-.05.033-.083.05M91.65 202.219c5.335-12.972 13.286-24.503 21.901-32.869"/><path d="M142.825 150.728h-.016"/></g><g fill="#bc7171"><path d="M210.27 156.543l4.126 2.419c-1.69-.447-3.049-1.276-4.126-2.419zm119.764 35.437c1.624 14.381-44.284 36.001-79.605 46.123-2.949-16.716-8.184-34.459-17.014-49.519 45.675-4.954 82.918-6.08 93.571-.249.017 0 .033.017.033.017a24.32 24.32 0 0 1 2.137 1.673c.497.597.796 1.243.878 1.955z"/><path d="M226.589 178.76l9.543-.729c41.103-2.783 75.645-.431 90.854 10.305-10.653-5.832-47.896-4.705-93.571.232-27.568 2.982-58.201 7.355-87.906 12.425l-9.029 1.557-25.861 4.788h-.033l-15.043 3.015c-48.641 10.04-86.961 20.991-92.246 28.893 4.97-11.066 41.666-25.314 88.999-37.392 41.351-10.553 90.821-19.449 134.276-23.094.017-.017.017 0 .017 0zm33.797 108.316l1.425-2.966c1.391 2.088 17.279-3.429 20.013.05 1.292 1.64-10.139 3.264-9.94 4.755.265 2.054 18.919-.199 20.526 1.938.912 1.226-10.619 1.823-10.586 3.032.033 1.557 17.926 2.253 17.926 3.678 0 .911-9.51 2.054-10.371 3.877-1.79 3.81 7.19 15.97 4.556 16.451-4.01.745-8.118-14.049-11.299-13.701-2.154.232-.348 7.289-2.336 7.405-2.866.182-5.235-14.463-7.77-14.264-1.806.166-2.369 7.637-3.463 7.571-1.325-.083-1.11-11.232-3.678-11.663-1.491-.265-2.766 3.363-4.307 3.015-1.955-.414-1.673-6.544-3.032-6.693H258l.994-3.148c.464.232.928.447 1.392.663zm21.918-261.049c7.704 21.62 10.139 55.517-4.34 83.78-14.033 27.386-37.425 44.367-51.209 55.865 0 .016-.05.033-.067.066a356.26 356.26 0 0 1-12.276-6.776l1.326-1.889c.497-.729.994-1.474 1.474-2.253 11.117 2.518 14.944 1.292 34.94-19.234 16.004-16.451 37.69-57.372 30.119-109.542h.033v-.017z"/><path d="M282.271 26.044c7.571 52.17-14.115 93.09-30.119 109.543-19.996 20.526-23.823 21.752-34.94 19.234 6.908-10.769 14.596-26.988 15.374-47.929.961-25.762 4.208-46.355 9.725-66.451h-.016c3.379-9.128 18.654-35.951 30.781-31.444 3.38 3.794 6.611 9.708 9.212 17.031h-.017v.017z"/><path d="M273.076 8.996c-12.127-4.506-27.402 22.316-30.781 31.428h.016c-5.517 20.113-8.764 40.706-9.725 66.467-.778 20.941-8.465 37.161-15.374 47.929-.48.779-.977 1.524-1.474 2.253l-1.326 1.889h-.016l-4.126-2.419c-8.366-8.714-.894-35.685 2.933-50.745l-.265-.083c3.247-10.338 6.262-21.62 8.847-33.515 9.608-44.251 32.388-69.5 44.085-67.859 2.369.331 4.837 1.971 7.206 4.655zm-8.764 271.486c.696 1.442-2.882 2.386-2.584 3.463.017.066.05.116.083.165l-1.425 2.966-1.392-.663-6.014-2.684-1.491-.646c2.916-3.164 12.426-3.413 12.823-2.601z"/><path d="M258.994 286.413l-.994 3.148c-1.292 0-2.402 5.5-3.628 5.401-.696-.05-2.783-6.163-1.458-11.067l.067-.166c2.021.845 4.025 1.756 6.013 2.684zm-1.043 80.831c.314 1.79.314 3.645.314 5.517 0 4.059 0 7.853-3.313 11.1-2.816 2.767-8.068 5.136-17.793 6.909 2.75-1.972 2.319-8.532.132-10.951 10.007-1.823 15.242-4.308 17.976-7.207l.149-.149c1.491-1.607 2.187-3.363 2.535-5.219z"/><path d="M257.951 367.228c-.348 1.872-1.044 3.628-2.535 5.235-.05-.05-.1-.116-.149-.166-1.425-1.507-3.529-2.899-6.644-4.158-3.346-1.325-7.819-2.502-13.85-3.479-5.699-.911-12.773-1.657-21.587-2.187 2.104-3.231-.016-8.963-3.396-10.967l4.821.281c.381.017.745.05 1.11.083l4.059.282c3.048.248 5.865.513 8.433.828l3.429.431 3.429.513c4.821.796 8.632 1.707 11.664 2.751 8.018 2.733 10.454 6.461 11.216 10.553z"/><path d="M237.291 379.819c-7.173 1.342-16.799 2.319-29.738 2.932l-7.405.282-9.51.232-15.921.132c-5.682 0-10.918-.033-15.821-.132-8.417-.149-15.789-.415-22.25-.796-27.104-1.59-38.055-5.168-42.478-9.84a1.12 1.12 0 0 1-.133-.15 1.13 1.13 0 0 1 .133-.165c1.706-1.823 4.407-3.463 8.615-4.888 7.637-2.584 20.245-4.456 41.152-5.351l9.543-.315c.58 0 1.16 0 1.756-.033l5.418-.099c.132-.017.248-.017.381-.017l13.701-.099 24.635.348 12.293.53 1.524.083c8.814.53 15.888 1.276 21.587 2.187 6.031.977 10.504 2.153 13.85 3.479 3.115 1.259 5.219 2.651 6.644 4.158.049.05.099.116.149.166l-.149.149c-2.734 2.899-7.969 5.384-17.976 7.207zm17.661 4.042l.083.083c0 13.42 0 25.497-11.581 33.946-1.491 1.094-3.164 2.121-5.053 3.082-.049 0-.099.049-.149.066l-.43.331-6.313-7.985c.597-.563 1.177-1.16 1.723-1.789 4.805-5.385 6.627-12.939 7.307-18.092-7.572 1.359-18.208 2.171-29.54 2.469-14.678.348-30.5-.199-42.213-1.69l5.948.033c30.715 0 50.149-1.309 62.425-3.545 9.725-1.773 14.977-4.142 17.793-6.909zm-3.347-138.352c1.773 12.524-3.23 23.74-12.359 32.902-3.28-1.126-6.544-2.154-9.774-3.048 2.783-3.363 5.136-6.809 6.875-10.189.58-1.127 1.094-2.286 1.557-3.496 1.16-.977 1.773-2.12 1.641-3.263-.05-.348-.15-.68-.348-.994 3.661-14.696-.149-33.632-4.639-50.63-10.636-1.806-23.94-2.717-38.221-3.015 1.74-1.011 2.999-2.154 2.883-3.015-.182-1.342-3.728-2.452-6.643-1.558-2.452.746-4.126 2.8-4.772 4.474-13.485-.067-27.501.348-40.705 1.01-.182-1.275-.696-2.617-1.591-3.694 29.705-5.07 60.338-9.444 87.906-12.426 8.83 15.077 14.065 32.82 17.014 49.536a212.01 212.01 0 0 1 1.176 7.406z"/><path d="M237.822 421.369l.43-.331.149-.066c1.889-.961 3.562-1.988 5.053-3.082.017 3.811-.828 8.864-3.76 11.78-1.392 1.59-3.098 2.932-5.037 4.009-10.702 6.063-28.164 4.688-35.818-.232 19.549 2.551 37.541-5.02 27.733-25.845 1.624 1.773 3.264 3.728 4.937 5.782 2.055 2.518 4.159 5.202 6.313 7.985zm1.723-162.954c.132 1.143-.481 2.286-1.641 3.247a34.95 34.95 0 0 0 1.293-4.241c.198.314.298.646.348.994z"/><path d="M225.181 225.893c-3.794-7.637-11.282-13.833-17.048-12.442-3.512.845-6.958 3.96-9.857 8.035h-.017c-5.384 7.621-8.847 18.522-7.124 24.172a5.21 5.21 0 0 0 .249.712c1.657 3.943 9.443 5.186 17.362 4.026 7.969-1.193 16.07-4.804 18.125-10.553 1.54-4.291.579-9.377-1.69-13.95zm4.291 49.47c-8.665 10.52-21.422 20.261-32.422 24.983 0 0-.011.006-.033.017a133.71 133.71 0 0 1-7.406 1.54c-6.527 1.143-13.221 1.74-19.831 1.74a135.47 135.47 0 0 1-6.328-.149c-37.475-1.624-75.166-17.744-76.375-48.31-.083-2.137.017-4.357.298-6.644 1.541-12.21 3.976-25.48 8.168-38.187l15.043-3.015h.033c8.118-.779 17.611-1.541 27.833-2.17 2.518 2.452 6.411 4.539 7.819 3.545.762-.53 1.11-2.203.829-4.026 13.204-.662 27.22-1.077 40.705-1.01-.397.961-.447 1.805-.116 2.203.928 1.16 5.55-.282 8.648-2.104 14.281.298 27.585 1.209 38.221 3.015 4.49 16.998 8.3 35.934 4.639 50.629-1.144-2.087-5.004-3.28-9.377-2.75-5.037.613-8.864 3.281-8.532 5.965.314 2.667 4.671 4.34 9.708 3.727 2.899-.348 5.384-1.375 6.908-2.684-.463 1.21-.977 2.369-1.557 3.496-1.739 3.38-4.092 6.826-6.875 10.189zm-74.801-7.207c-3.148-.133-5.765.265-7.339 2.518-2.817 4.026 1.723 7.406 8.234 9.228 4.34 1.21 9.559 1.74 14.049 1.292 4.837-.48 9.675-2.203 13.734-4.506 3.33-1.905 6.13-4.208 7.969-6.544 2.551-3.247 3.23-6.561.878-8.979-3.943-4.059-8.052-1.839-12.807 1.226-3.578 2.286-7.505 5.053-11.994 5.997-.879.182-1.773.282-2.684.315-3.546.116-7.041-.464-10.04-.547zm9.377-19.997c7.356 0 16.6-4.423 16.567-7.239-.016-3.579-30.086-.083-30.401 3.379-.232 2.601 7.671 3.86 13.834 3.86zm.745 10.487c4.374-.265 7.174-3.015 6.213-5.434-.265-.629-1.64-.878-3.396-.878-3.38 0-8.168.878-8.83 1.69-.945 1.16 1.772 3.993 4.738 4.54.431.082.845.116 1.275.082zm-23.558-11.182c1.905-5.534-2.319-16.816-8.433-24.371h-.016c-3.131-3.893-6.776-6.809-10.355-7.422-5.566-.961-12.259 5.053-15.739 12.442-2.352 4.987-3.214 10.603-1.275 15.109 2.435 5.584 10.719 8.665 18.737 9.328 0 0 .011.005.033.016 7.969.663 15.656-1.077 17.048-5.102zm-24.155 18.273c0-2.7-4.125-4.887-9.195-4.887s-9.195 2.187-9.195 4.887 4.109 4.871 9.195 4.871 9.195-2.187 9.195-4.871zm123.459 127.766c-.68 5.153-2.502 12.707-7.307 18.092-.546.629-1.126 1.225-1.723 1.789-1.673-2.055-3.313-4.009-4.937-5.782-5.649-6.312-10.851-10.553-15.54-10.553l-.033-1.077c11.332-.298 21.968-1.11 29.54-2.469z"/><path d="M239.197 257.421a34.95 34.95 0 0 1-1.293 4.241c-1.524 1.325-4.009 2.352-6.908 2.7-5.037.613-9.394-1.06-9.708-3.727-.332-2.684 3.495-5.352 8.532-5.965 4.373-.53 8.233.663 9.377 2.751zm-70.411 136.861c-10.752-.05-20.013-.282-27.998-.679-29.49-1.442-41.451-4.987-46.289-9.742-3.313-3.247-3.313-7.041-3.313-11.1v-1.126c0-.597 0-1.16.033-1.723.017-.895.083-1.773.232-2.618h.033c.364 1.839 1.077 3.562 2.551 5.185a1.08 1.08 0 0 0 .133.15c4.423 4.672 15.374 8.25 42.478 9.84 6.461.381 13.833.647 22.25.796l15.821.132 15.921-.132 9.51-.232 7.405-.282c12.939-.613 22.565-1.59 29.738-2.932 2.187 2.419 2.618 8.979-.132 10.951-12.276 2.236-31.71 3.545-62.425 3.545-2.038 0-4.009 0-5.948-.033zm27.104-246.055l14.38 8.316c1.077 1.143 2.436 1.972 4.126 2.419h.016a356.26 356.26 0 0 0 12.276 6.776c.017-.033.05-.05.067-.066 3.429 3.28 6.544 6.941 9.277 10.967l.1 1.392-9.543.729c-.033-.05-.066-.083-.083-.133-8.234-14.479-39.728-32.852-64.231-32.902 11.415-1.441 22.913-.563 33.615 2.502zm-8.4 281.973s.083-.017.116-.017l7.605-.994a4.03 4.03 0 0 0 .397 1.011c.63 1.192 1.74 2.286 3.231 3.247 7.654 4.92 25.116 6.295 35.818.232 1.077 6.511-.083 17.08-.795 23.923-2.783 26.474-6.18 56.577-10.487 74.469-3.264 1.011-5.964 1.789-8.366 2.336 2.336-7.555 4.158-17.081 5.566-27.352.282-.448.447-.945.447-1.442 0-.281-.049-.546-.149-.811 2.75-20.892 3.844-44.45 4.076-60.686-26.789-.017-25.315-4.606-30.368-6.826-4.705-2.071-29.274-3.396-39.744-4.34.778-.812 1.308-1.674 1.557-2.601.016-.017.016-.033.016-.05.017-.033.017-.083.034-.116 5.583.364 11.646.265 18.29.265l9.576-.132 3.18-.116zm47.581-76.276l-3.429-.513c-2.452-6.909-9.062-22.648-12.591-29.39h.017c6.56 8.2 15.009 25.993 16.003 29.903zm-5.599-78.561c3.23.894 6.494 1.922 9.774 3.048-10.139 10.206-25.414 17.86-42.196 21.935 11-4.722 23.757-14.463 32.422-24.983z"/><path d="M214.362 347.447h-.016c-3.38 1.59-8.864-3.745-9.974-7.787 1.16-.547 1.988-1.74 1.988-3.115 0-.646-.182-1.242-.48-1.756-.414-3.761.431-14.049 1.259-17.081l.033-.132c3.363.646 6.577 1.524 8.764 3.197.961.729 2.022 1.839 3.132 3.231h-.017c3.529 6.759 10.139 22.498 12.591 29.407l-3.429-.431c-2.568-.315-5.385-.58-8.433-.828l-4.059-.282c-.497-1.474-.928-2.949-1.359-4.423zm12.21 60.155c9.808 20.825-8.184 28.396-27.733 25.828-1.491-.944-2.601-2.038-3.231-3.231a4.01 4.01 0 0 1-.397-1.01.91.91 0 0 1-.066-.199c-3.662-8.399 4.837-30.268 14.695-31.842.397-.066.795-.099 1.192-.099 4.689 0 9.891 4.241 15.54 10.536v.017zm-1.391-181.709c2.269 4.573 3.23 9.659 1.69 13.95-2.055 5.749-10.156 9.36-18.125 10.553 12.906-3.661 9.046-17.777 1.988-25.348 5.053-1.242 10.239-.961 14.447.845zm-100.364-63.402l3.496-2.303 14.264-9.559c.033-.017.05-.033.083-.05 6.395-2.402 12.988-4.026 19.615-4.854 24.503.05 55.997 18.423 64.231 32.902.017.05.05.083.066.133-43.455 3.645-92.925 12.541-134.276 23.094l-.182-.712c5.335-12.972 12.674-23.575 21.289-31.941.116.115.199.198.282.298l11.133-7.008zm100.132 281.608c-.232 16.253-1.325 39.811-4.076 60.703-.778-2.32-4.937-4.076-9.94-4.076-5.583 0-10.106 2.187-10.106 4.887s4.523 4.871 10.106 4.871c4.523 0 8.35-1.441 9.642-3.429-1.408 10.271-3.23 19.797-5.566 27.352-7.704 1.806-12.31 1.508-22.648.414-1.342-18.041-.845-48.061-5.318-50.381-1.507-.778-3.247-1.259-5.069-1.491h-.017c-5.053-.729-10.686.216-13.502 1.061-2.535.099-10.288 0-10.288 2.187.082 10.835 1.159 33.498-1.21 49.138-7.985.596-12.69.05-23.426-3.264-2.866-12.409-7.041-34.079-15.208-72.697-1.359-6.428-2.121-16.732-1.011-24.271 1.127.613 2.319 1.127 3.562 1.574 11.945 4.357 28.628 1.856 33.946-3.727h.017c10.47.944 35.039 2.269 39.744 4.34 5.053 2.22 3.579 6.809 30.368 6.809zm-68.886 63.37c0-2.701-4.341-4.888-9.692-4.888s-9.709 2.187-9.709 4.888 4.341 4.871 9.709 4.871 9.692-2.187 9.692-4.871z"/><path d="M220.873 504.802c.1.265.149.53.149.811 0 .497-.165.994-.447 1.442l.298-2.253z"/><path d="M220.873 504.801l-.298 2.253c-1.292 1.989-5.119 3.43-9.642 3.43-5.583 0-10.106-2.187-10.106-4.871s4.523-4.887 10.106-4.887c5.003 0 9.162 1.756 9.94 4.075zm4.308-278.908c-4.208-1.806-9.394-2.087-14.447-.845-3.943-4.241-8.913-6.444-12.458-3.562 2.899-4.075 6.345-7.19 9.857-8.035 5.766-1.391 13.254 4.805 17.048 12.442zm-1.806 306.178c-2.071 8.681-4.39 14.496-6.942 15.623-4.556 2.004-8.35 3.33-12.21 3.23 4.44-1.242 7.986-7.455 10.786-16.517 2.402-.547 5.102-1.325 8.366-2.336zm-7.654-180.201l-1.11-.083-4.821-.281h-.017l-5.434-.249-2.071-.083c-7.985-.281-17.113-.431-27.534-.431l-20.345.216-9.725.315c-.066-.928-.182-2.005-.314-3.165 3.346-1.242 7.14-4.755 7.952-7.621.464.232.994.365 1.557.365a3.46 3.46 0 0 0 3.446-3.463c11.895-.745 29.606-1.259 42.147-.414h.033c.216 1.707 1.657 3.015 3.413 3.015a3.38 3.38 0 0 0 1.474-.331c1.11 4.042 6.594 9.377 9.974 7.787h.016l1.359 4.423z"/><path d="M91.484 367.294h-.033c.232-1.557.729-3.048 1.673-4.457 1.441-2.137 3.976-4.075 8.399-5.748 2.121-.796 4.672-1.525 7.754-2.204 2.22-.48 4.705-.928 7.505-1.325 5.931-.845 13.254-1.541 22.266-2.021.265-.017.53-.033.812-.033l4.804-.232 9.725-.315 20.345-.216c10.421 0 19.549.15 27.534.431l2.071.083 5.434.249h.017c3.38 2.004 5.5 7.736 3.396 10.967l-1.524-.083-12.293-.53c-7.273-.232-15.457-.348-24.635-.348l-13.701.099c-.133 0-.249 0-.381.017l-5.418.099-1.756.034-9.543.314c-20.907.895-33.515 2.767-41.152 5.352-4.209 1.424-6.909 3.064-8.615 4.887a1.17 1.17 0 0 0-.133.166c-1.474-1.624-2.187-3.347-2.551-5.186zm121.454-261.579l.265.083c-3.827 15.059-11.299 42.031-2.933 50.745l-14.38-8.317c5.6-10.536 11.63-25.198 17.048-42.511zm-1.939 290.257l.033 1.077c-.397 0-.795.033-1.192.099-9.858 1.574-18.357 23.442-14.695 31.842a.91.91 0 0 0 .066.199c-3.943.646-6.76.878-7.605.994-.033 0-.082.016-.116.016l-3.18.116-9.576.133c-6.644 0-12.707.099-18.29-.265 2.7-6.213-1.226-19.765-7.456-27.054-1.06-1.259-2.203-2.32-3.379-3.132-1.243-.861-2.535-1.441-3.86-1.656-.398-.066-.796-.1-1.193-.1l.232-4.638c7.985.397 17.246.629 27.998.679 11.713 1.491 27.535 2.038 42.213 1.69zm-.265-170.924c7.058 7.572 10.918 21.687-1.988 25.332-7.919 1.176-15.706-.067-17.362-4.01a5.21 5.21 0 0 1-.249-.712l.1-.033c1.491-8.731 6.809-14.828 13.22-18.208.265.431.746.729 1.293.729a1.55 1.55 0 0 0 1.54-1.54c0-.149 0-.299-.066-.448a24.68 24.68 0 0 1 3.512-1.11z"/><path d="M210.734 225.048a24.68 24.68 0 0 0-3.512 1.11c-.199-.629-.779-1.093-1.474-1.093-.845 0-1.525.696-1.525 1.541 0 .298.083.58.232.811-6.411 3.38-11.729 9.477-13.22 18.208l-.1.033c-1.723-5.65 1.74-16.551 7.124-24.155h.017c3.545-2.899 8.515-.696 12.458 3.545z"/><path d="M207.222 226.158c.05.149.066.298.066.448a1.55 1.55 0 0 1-1.54 1.54c-.547 0-1.028-.298-1.293-.729.895-.48 1.823-.894 2.767-1.259zm-.05 91.418l-.033.132c-.828 3.032-1.673 13.32-1.259 17.081-.613-1.01-1.723-1.69-2.982-1.69-.961 0-1.822.398-2.452 1.027-.364-3.296.149-13.866 1.11-17.329l.033-.182 5.583.961z"/><path d="M205.748 225.065c.695 0 1.275.464 1.474 1.093-.944.365-1.872.779-2.767 1.259-.149-.231-.232-.513-.232-.811 0-.845.68-1.541 1.525-1.541zm.132 109.724c.298.514.48 1.11.48 1.756 0 1.375-.828 2.568-1.988 3.115a3.38 3.38 0 0 1-1.474.331c-1.756 0-3.198-1.309-3.413-3.015l-.033-.431c0-.944.381-1.789.994-2.418.63-.63 1.491-1.028 2.452-1.028 1.259 0 2.369.68 2.982 1.69zm-13.519 200.032c10.338 1.094 14.944 1.392 22.648-.414-2.8 9.062-6.346 15.275-10.786 16.517h-.016c-2.817-.049-5.699-.878-8.963-2.733-1.541-.895-2.353-6.18-2.883-13.37z"/><path d="M201.589 316.615l-.033.182c-.961 3.463-1.474 14.033-1.11 17.33-.613.629-.994 1.474-.994 2.418a3.61 3.61 0 0 0 .033.431h-.033c-12.541-.845-30.252-.331-42.147.414 0-.928-.364-1.772-.994-2.402.381-3.347-.132-13.883-1.093-17.329 3.611-.646 6.56-1.491 7.571-3.33 1.027-1.872 1.358-4.076 1.276-6.312h.016c11.282 1.027 15.374.811 26.11-1.259h.017c.414 1.739 1.043 3.561 1.855 5.632 1.011 2.519 4.954 3.446 9.526 4.225zm-2.369-115.854c.116.861-1.143 2.005-2.883 3.015l-8.532-.099c.646-1.673 2.32-3.728 4.772-4.473 2.915-.895 6.461.215 6.643 1.557zm-7.024 60.404c2.352 2.419 1.673 5.732-.879 8.979-1.838 2.336-4.638 4.639-7.968 6.544.464-1.922-2.353-11.531-3.96-14.297 4.755-3.065 8.864-5.285 12.807-1.226z"/><path d="M190.207 306.757h-.016c-10.736 2.071-14.828 2.287-26.11 1.26h-.016c-.05-1.525-.299-3.049-.613-4.523a135.47 135.47 0 0 0 6.328.149c6.61 0 13.304-.597 19.831-1.74v.033c0 1.657.199 3.214.596 4.821zm6.13-102.981c-3.098 1.823-7.72 3.264-8.648 2.104-.331-.397-.281-1.242.116-2.203l8.532.099zm-16.948 58.615c1.607 2.766 4.424 12.375 3.96 14.281-4.059 2.319-8.897 4.042-13.734 4.522.463-1.905-.597-10.039-2.22-12.806 4.489-.944 8.416-3.711 11.994-5.997zm1.226-21.471c.033 2.816-9.211 7.239-16.567 7.239-6.163 0-14.066-1.259-13.834-3.86.315-3.462 30.385-6.958 30.401-3.379zm-9.609 12.293c.961 2.418-1.839 5.168-6.213 5.434-.43.033-.844 0-1.275-.083 4.125-.182 4.804-4.507 4.075-5.898v-.332c1.773 0 3.148.249 3.413.879z"/><path d="M167.395 268.388c1.623 2.767 2.683 10.901 2.22 12.806-4.49.448-9.709-.082-14.049-1.292.463-1.905.729-8.946-.895-11.746 2.999.083 6.494.663 10.04.547.911-.033 1.805-.133 2.684-.315zm.198-15.722c.729 1.391.05 5.716-4.075 5.898-2.966-.547-5.683-3.38-4.738-4.54.662-.811 5.45-1.69 8.83-1.69v.332h-.017zm.862 231.344c-1.309.381-2.187 2.319-2.783 5.301-1.955 9.758-.729 30.782-.961 45.278l-7.754.746c2.369-15.64 1.292-38.303 1.21-49.138 0-2.187 7.753-2.088 10.288-2.187z"/><path d="M164.711 534.589c-.116 8.085-.696 14.132-2.519 15.11-4.589 2.485-9.327 2.733-13.535 2.004 4.457-.778 6.942-7.405 8.3-16.368 2.253-.166 4.772-.431 7.754-.746zm-15.723-131.46c6.23 7.289 10.156 20.841 7.456 27.054-.017.033-.017.083-.033.116 0 .016-.001.033-.017.05-.249.927-.779 1.789-1.557 2.601h-.017c-5.318 5.583-22.001 8.084-33.946 3.727 16.832.646 27.651-3.761 28.264-17.627 2.253-4.192 1.143-10.305-.382-15.722l.232-.199zm3.314-62.641c-1.11-.58-1.889-1.756-1.889-3.098a3.4 3.4 0 0 1 .464-1.723c.596-1.027 1.706-1.723 2.982-1.723.961 0 1.823.398 2.452 1.027.63.647.994 1.492.994 2.419 0 1.906-1.541 3.463-3.446 3.463-.563 0-1.093-.133-1.557-.365z"/><path d="M155.218 317.659c.961 3.446 1.474 13.982 1.093 17.312-.629-.629-1.491-1.027-2.452-1.027-1.276 0-2.386.696-2.982 1.723.414-3.744-.431-14.016-1.259-17.097l5.6-.911zm-.547-49.503c1.624 2.8 1.358 9.841.895 11.746-6.511-1.822-11.051-5.202-8.234-9.228 1.574-2.253 4.191-2.651 7.339-2.518zm-8.3 234.426c5.351 0 9.692 2.186 9.692 4.887s-4.341 4.871-9.692 4.871-9.709-2.187-9.709-4.871 4.341-4.887 9.709-4.887zm-12.84 29.489c10.736 3.313 15.441 3.86 23.426 3.264-1.358 8.963-3.843 15.589-8.3 16.368-2.667-.447-5.136-1.292-7.207-2.22-3.313-1.474-4.87-4.208-7.919-17.412z"/><path d="M150.413 337.39c0 1.342.779 2.519 1.889 3.098-.812 2.867-4.606 6.379-7.952 7.621l-1.193-10.586c-.381 2.883-1.442 6.892-2.469 10.785l-.828 3.198c-.282 0-.547 0-.812.033-9.012.48-16.335 1.176-22.266 2.021 1.905-4.49 15.523-26.74 21.521-31.279 2.783-2.104 7.074-3.032 11.315-3.711.828 3.082 1.673 13.353 1.259 17.097a3.4 3.4 0 0 0-.464 1.723zm-1.657 65.938c1.525 5.417 2.635 11.53.382 15.705.231-5.036-.879-11.315-3.529-19.035 1.176.811 2.319 1.872 3.379 3.131l-.232.199z"/><path d="M149.138 419.05c-.613 13.867-11.432 18.273-28.264 17.627-1.243-.447-2.435-.961-3.562-1.574-2.087-1.143-3.943-2.534-5.434-4.241-2.883-2.866-3.728-7.753-3.744-11.531 1.541.961 3.264 1.873 5.185 2.701.05.033.1.066.149.066l.398.315c7.522-9.659 14.38-18.274 20.527-22.084 2.137-1.342 4.191-2.088 6.163-2.088.397 0 .795.034 1.193.1 1.325.215 2.617.795 3.86 1.657 2.65 7.72 3.76 13.999 3.529 19.035v.017zM147.1 204.687c.281 1.823-.067 3.496-.829 4.026-1.408.994-5.301-1.093-7.819-3.545l8.648-.481z"/><path d="M145.509 200.993c.895 1.077 1.408 2.419 1.591 3.694l-8.648.481c-.895-.862-1.607-1.773-1.972-2.601l9.029-1.574zm-1.159 147.116l.314 3.164-4.804.232.828-3.197c.978.464 2.287.331 3.662-.199z"/><path d="M143.157 337.523c.215 2.816.795 7.058 1.193 10.586-1.375.53-2.684.663-3.662.199 1.027-3.893 2.088-7.902 2.469-10.785zm-.497-186.944l-.083.05-14.264 9.559-.1-.166c5.915-2.916-4.241-29.87-6.478-80.549-.497-11.282-2.816-35.768-10.122-52.833 5.964 11.995 11.034 28.065 13.336 47.399 3.993 33.515 10.421 59.608 17.711 76.54zm-9.858 72.514c6.114 7.555 10.338 18.837 8.433 24.371-1.508-8.996-7.19-15.077-13.933-18.241-.033-.812-.712-1.441-1.524-1.441a1.43 1.43 0 0 0-.994.381 26.13 26.13 0 0 0-3.927-1.077c3.629-4.274 8.284-6.594 11.929-3.993h.016zm7.986 170.51l-.232 4.639c-1.972 0-4.026.745-6.163 2.071-6.147 3.827-13.005 12.441-20.527 22.1l-.398-.315s-.099-.033-.149-.066a38.94 38.94 0 0 1-5.185-2.7c-13.718-8.499-13.718-21.19-13.718-35.388l.083-.083c4.838 4.755 16.799 8.3 46.289 9.742zm-4.308-191.036c.365.828 1.077 1.739 1.972 2.601-10.222.629-19.715 1.391-27.833 2.17l25.861-4.788v.017z"/><path d="M132.786 223.093c-3.645-2.601-8.3-.281-11.929 3.993-4.904-.977-9.874-.58-13.883 1.16l-.282-.133c3.48-7.389 10.173-13.403 15.739-12.442 3.579.613 7.224 3.529 10.355 7.422z"/><path d="M141.235 247.464c-1.392 4.026-9.079 5.765-17.048 5.102 0 0-.011-.005-.033-.016-13.27-2.866-10.039-17.545-3.297-25.464a26.13 26.13 0 0 1 3.927 1.077 1.47 1.47 0 0 0-.547 1.16c0 .845.696 1.524 1.541 1.524s1.541-.679 1.541-1.524c0-.033 0-.067-.017-.1 6.743 3.165 12.425 9.245 13.933 18.241zm-13.022-87.442l.1.166-3.496 2.303c-6.494-10.587-15.424-29.092-13.933-54.954.895-15.208.812-28.71-.149-41.434 0-.033-.017-.083-.017-.116a55.51 55.51 0 0 0-.348-4.274c-.662-7.24-1.623-14.248-2.833-21.239h-.016c-.845-8.449-10.653-34.112-23.824-37.028 1.309-.696 2.585-1.093 3.811-1.143 6.71-.298 16.169 8.416 24.072 24.271 0 .017.016.033.033.066 7.306 17.064 9.625 41.55 10.122 52.833 2.237 50.679 12.393 77.633 6.478 80.549z"/><path d="M127.302 229.223s.017.067.017.1c0 .845-.696 1.524-1.541 1.524s-1.541-.679-1.541-1.524a1.47 1.47 0 0 1 .547-1.16 21.94 21.94 0 0 1 2.518 1.06z"/><path d="M125.778 227.782c.812 0 1.491.63 1.524 1.441a21.94 21.94 0 0 0-2.518-1.06c.265-.248.613-.381.994-.381zm-18.804.464c4.009-1.74 8.979-2.137 13.883-1.16-6.742 7.919-9.973 22.598 3.297 25.464-8.018-.663-16.302-3.744-18.737-9.328-1.939-4.506-1.077-10.122 1.275-15.109l.282.133zm.911 32.604c5.07 0 9.195 2.187 9.195 4.887s-4.125 4.871-9.195 4.871-9.195-2.187-9.195-4.871 4.109-4.887 9.195-4.887zm16.932-98.359c-2.949 1.922-6.329 4.059-11.133 7.008-.083-.1-.166-.183-.282-.299 2.17-4.34-3.33-22.663-4.854-27.998-5.103-17.909 3.231-52.949 2.187-75.099.961 12.724 1.044 26.226.149 41.435-1.491 25.861 7.439 44.366 13.933 54.953z"/><path d="M108.548 141.202c1.524 5.335 7.024 23.658 4.854 27.999-11.961-12.707-35.752-32.389-47.962-63.072C48.376 63.204 68.108 11.713 83.697 3.446c13.171 2.916 22.979 28.578 23.824 37.028h.016c1.21 6.991 2.171 13.999 2.833 21.239l.348 4.274c0 .033.017.083.017.116 1.044 22.15-7.29 57.19-2.187 75.099zm-13.005 69.151c-4.191 12.707-6.627 25.978-8.168 38.188a41.23 41.23 0 0 0-.298 6.643h-.033c-44.135-1.325-83.747-6.213-84.393-13.933-.05-.63.149-1.292.63-1.988h.017c5.285-7.919 43.605-18.87 92.246-28.91z"/></g><path d="M330.018 191.964c1.64 14.38-44.268 36.017-79.605 46.139-2.949-16.733-8.185-34.476-17.015-49.536 45.311-4.903 82.339-6.063 93.323-.397.033 0 .05.016.083.049.828.564 1.623 1.177 2.336 1.806.513.597.795 1.243.878 1.939z" class="H"/><path d="M326.721 188.17c-10.984-5.666-48.012-4.506-93.323.381-27.568 2.982-58.2 7.356-87.905 12.425l-9.029 1.558-25.895 4.787-15.043 3.016c-48.575 10.023-86.845 20.957-92.229 28.86 5.053-11.051 41.716-25.282 88.982-37.343 41.352-10.553 90.805-19.45 134.293-23.094l9.543-.729c40.871-2.767 75.265-.448 90.606 10.139z" class="E"/><path d="M267.079 290.472l-6.71-3.396 1.425-2.966c1.392 2.088 17.28-3.429 20.013.05 1.293 1.64-10.139 3.264-9.94 4.755.282 2.054 18.936-.199 20.527 1.938.928 1.226-10.62 1.806-10.587 3.032.05 1.557 17.943 2.237 17.943 3.661 0 .928-9.51 2.071-10.371 3.894-1.806 3.793 7.173 15.97 4.539 16.451-3.993.745-8.101-14.049-11.299-13.701-2.154.232-.348 7.289-2.319 7.405-2.883.166-5.252-14.479-7.787-14.264-1.789.149-2.369 7.621-3.446 7.571-1.292-.083-1.126-10.57-3.446-11.613l1.458-2.817z" class="H"/><path d="M282.288 26.044c7.703 21.62 10.139 55.5-4.341 83.747-14.032 27.386-37.425 44.367-51.209 55.865-.017.017-.05.033-.066.066-4.888-2.584-8.698-4.705-12.276-6.776l1.325-1.888 1.474-2.254h.017c11.1 2.535 14.927 1.309 34.924-19.234 16.02-16.435 37.69-57.372 30.135-109.525h.017z" class="L"/><path d="M282.271 26.044c7.555 52.153-14.115 93.09-30.135 109.526-19.997 20.543-23.824 21.769-34.924 19.251h-.017c6.909-10.785 14.596-27.004 15.375-47.945.961-25.762 4.208-46.355 9.725-66.451 3.363-9.128 18.638-35.934 30.781-31.428 3.38 3.81 6.611 9.725 9.212 17.048h-.017z" class="M"/><path d="M273.076 8.996c-12.143-4.506-27.418 22.299-30.781 31.428-5.517 20.096-8.764 40.689-9.725 66.451-.779 20.941-8.466 37.16-15.375 47.929l-1.474 2.253-1.325 1.888h-.017l-4.092-2.385c-8.4-8.665-.928-35.686 2.899-50.779l-.265-.082c3.231-10.338 6.262-21.621 8.847-33.516 9.609-44.251 32.389-69.499 44.085-67.859 2.386.331 4.854 1.971 7.223 4.672z" class="F"/><g class="E"><path d="M267.079 290.472l-1.458 2.816-.232-.066c-1.507-.248-2.783 3.363-4.324 3.032-1.938-.431-1.673-6.544-3.032-6.693h-.049l.994-3.148 1.391.663 6.71 3.396z"/><path d="M264.312 280.482c.68 1.425-2.899 2.369-2.601 3.462.017.067.05.116.083.166l-1.425 2.966-1.391-.663-6.014-2.684-1.491-.629c2.866-3.198 12.425-3.446 12.839-2.618z"/><path d="M258.978 286.413l-.994 3.148c-1.292 0-2.403 5.484-3.612 5.401-.712-.05-2.783-6.163-1.474-11.067l.066-.166c2.021.845 4.026 1.756 6.014 2.684z"/></g><g class="H"><path d="M257.934 367.228c.331 1.789.331 3.645.331 5.517 0 4.059 0 7.852-3.313 11.116-2.816 2.75-8.068 5.119-17.793 6.909 2.733-1.972 2.319-8.532.132-10.951 10.007-1.839 15.242-4.308 17.976-7.207.049-.05.099-.099.132-.149 1.491-1.624 2.187-3.38 2.535-5.235z"/><path d="M246.718 356.658c8.035 2.75 10.471 6.478 11.216 10.57-.348 1.855-1.044 3.611-2.535 5.235-.033-.066-.083-.116-.132-.166-1.425-1.507-3.546-2.915-6.66-4.158-6.478-2.618-17.313-4.573-35.421-5.683 2.088-3.23-.016-8.962-3.429-10.95l4.854.281c.364.017.729.05 1.093.083l4.076.282c3.032.248 5.848.513 8.433.828l3.412.431 3.43.513c4.821.796 8.648 1.707 11.663 2.734z"/><path d="M213.186 362.456c18.108 1.11 28.943 3.065 35.421 5.683 3.114 1.242 5.235 2.651 6.66 4.158.049.05.099.1.132.166-.033.05-.083.099-.132.149-2.734 2.899-7.969 5.368-17.976 7.207-7.19 1.342-16.815 2.336-29.754 2.932l-7.406.282-9.509.232-15.905.132a941.6 941.6 0 0 1-15.821-.132c-8.433-.149-15.806-.415-22.267-.796-27.087-1.607-38.054-5.168-42.478-9.84-.05-.05-.099-.1-.132-.15.033-.066.083-.116.132-.165 1.723-1.823 4.407-3.479 8.632-4.904 7.62-2.585 20.245-4.44 41.152-5.335l9.526-.315 1.773-.049 5.401-.1h.398l13.684-.099 24.652.348 12.276.513h.017l1.524.083zm41.766 21.405l.066.066c0 13.42 0 25.497-11.58 33.946-1.491 1.094-3.165 2.121-5.053 3.082-.05.017-.1.05-.149.066l-.431.332-6.312-7.969c.596-.564 1.176-1.16 1.723-1.789 4.804-5.385 6.627-12.939 7.306-18.092-7.555 1.359-18.207 2.187-29.539 2.469-14.679.348-30.484-.199-42.213-1.69l5.947.033c30.732 0 50.166-1.309 62.442-3.545 9.725-1.79 14.977-4.159 17.793-6.909z"/></g><path d="M251.589 245.492c1.772 12.541-3.231 23.757-12.359 32.919a184.74 184.74 0 0 0-9.791-3.065c2.783-3.363 5.135-6.809 6.891-10.189a30.86 30.86 0 0 0 1.541-3.462c1.176-.978 1.806-2.137 1.657-3.297-.05-.348-.149-.679-.348-.994 3.661-14.712-.149-33.631-4.622-50.629-10.636-1.806-23.94-2.717-38.204-3.016 1.723-1.01 2.965-2.137 2.849-2.998-.165-1.342-3.711-2.469-6.643-1.574-2.452.745-4.109 2.8-4.771 4.473-13.486-.066-27.502.348-40.706 1.027-.182-1.275-.679-2.634-1.59-3.711 29.705-5.069 60.337-9.443 87.905-12.425 8.83 15.076 14.066 32.819 17.015 49.536.447 2.518.828 4.97 1.176 7.405zm-13.784 175.861l.431-.332.149-.066c1.888-.961 3.562-1.988 5.053-3.081.016 3.81-.829 8.863-3.761 11.779-1.392 1.59-3.098 2.932-5.036 4.026-10.703 6.047-28.165 4.688-35.819-.249 19.55 2.568 37.542-4.987 27.767-25.795 1.607 1.773 3.231 3.694 4.904 5.749l6.312 7.969z" class="C"/><path d="M239.528 258.398c.149 1.16-.481 2.32-1.657 3.297.514-1.392.961-2.816 1.309-4.291.199.315.298.646.348.994z" fill="#d17e75"/><path d="M225.164 225.893c-3.794-7.637-11.282-13.833-17.047-12.442-3.513.829-6.959 3.96-9.858 8.035h-.016c-5.385 7.605-8.814 18.506-7.108 24.155a5.26 5.26 0 0 0 .249.729c1.656 3.943 9.426 5.169 17.346 4.009 0 0 .011-.005.033-.016 7.952-1.176 16.037-4.788 18.091-10.52 1.541-4.291.596-9.377-1.69-13.95zm4.275 49.453c-8.649 10.52-21.405 20.262-32.406 24.983 0 0-.011.006-.033.017-2.435.58-4.904 1.093-7.406 1.541-6.527 1.143-13.22 1.739-19.83 1.739-2.104 0-4.208-.049-6.329-.149-35.122-1.524-70.427-15.772-75.712-42.693-.364-1.806-.596-3.678-.663-5.6-.083-2.137.017-4.357.298-6.66l.613-4.589c1.557-10.901 3.877-22.465 7.555-33.598l15.043-3.016c8.118-.762 17.644-1.524 27.883-2.153 2.518 2.435 6.395 4.522 7.803 3.528.762-.53 1.11-2.203.828-4.009 13.204-.679 27.22-1.093 40.706-1.027-.381.977-.431 1.822-.116 2.22.927 1.16 5.583-.298 8.681-2.121 14.264.299 27.568 1.21 38.204 3.016 4.473 16.998 8.283 35.917 4.622 50.629-1.127-2.071-4.987-3.264-9.36-2.734-5.053.613-8.864 3.281-8.549 5.948.331 2.684 4.672 4.357 9.725 3.744 2.866-.348 5.334-1.358 6.875-2.667a30.86 30.86 0 0 1-1.541 3.462c-1.756 3.38-4.108 6.826-6.891 10.189zm-50.066-12.955c-3.562 2.286-7.489 5.036-11.979 5.98-.878.183-1.772.299-2.7.332-3.545.116-7.024-.464-10.023-.564-3.164-.132-5.782.282-7.356 2.535-2.816 4.026 1.723 7.406 8.234 9.212 4.341 1.209 9.559 1.739 14.049 1.292 4.838-.481 9.692-2.204 13.751-4.506 3.33-1.906 6.113-4.209 7.952-6.528 2.551-3.247 3.23-6.561.878-8.996-3.943-4.059-8.052-1.822-12.806 1.243zm1.242-21.471c-.033-3.579-30.086-.1-30.401 3.379-.248 2.601 7.654 3.844 13.817 3.844 7.356.016 16.601-4.424 16.584-7.223zm-15.838 17.726c4.374-.265 7.19-3.015 6.213-5.434-.266-.629-1.641-.878-3.38-.878-3.396-.016-8.168.878-8.83 1.69-.945 1.143 1.756 3.993 4.721 4.54.414.082.845.116 1.276.082zm-23.542-11.199c1.922-5.517-2.319-16.816-8.449-24.37h-.017c-3.131-3.894-6.776-6.793-10.338-7.406-5.566-.961-12.26 5.02-15.722 12.392-2.369 4.987-3.247 10.637-1.292 15.143 2.419 5.6 10.702 8.681 18.721 9.344 0 0 .011.005.033.016 7.969.663 15.656-1.077 17.064-5.119zm-24.172 18.274c0-2.684-4.108-4.871-9.194-4.871s-9.195 2.187-9.195 4.871 4.125 4.887 9.195 4.887 9.194-2.187 9.194-4.887z" class="F"/><path d="M226.589 407.635c-5.666-6.329-10.868-10.586-15.573-10.586l-.033-1.077c11.332-.282 21.984-1.11 29.539-2.469-.679 5.153-2.502 12.707-7.306 18.092-.547.629-1.127 1.225-1.723 1.789-1.673-2.055-3.297-3.976-4.904-5.749z" class="E"/><path d="M239.18 257.404c-.348 1.474-.795 2.899-1.309 4.291-1.541 1.309-4.009 2.319-6.875 2.667-5.053.613-9.394-1.06-9.725-3.744-.315-2.667 3.496-5.335 8.549-5.948 4.373-.53 8.233.663 9.36 2.734z" fill="#e08f82"/><path d="M168.77 394.282c-10.753-.05-20.014-.282-27.999-.679-29.49-1.442-41.451-5.004-46.289-9.758-3.314-3.248-3.314-7.042-3.314-11.101v-1.126c0-.58 0-1.16.033-1.723.033-.895.099-1.756.232-2.618h.05c.348 1.839 1.06 3.579 2.535 5.202.033.05.083.1.132.15 4.424 4.671 15.391 8.233 42.478 9.84 6.461.381 13.834.647 22.267.796l15.821.132 15.905-.132 9.509-.232 7.406-.282c12.939-.596 22.564-1.59 29.754-2.932 2.187 2.419 2.601 8.979-.132 10.951-12.276 2.236-31.71 3.545-62.442 3.545-2.038 0-4.009 0-5.947-.033z" class="E"/><path d="M236.016 176.622l.099 1.409-9.543.729c-8.118-14.546-39.827-33.035-64.413-33.035 11.448-1.458 22.979-.58 33.714 2.485l14.414 8.35c1.06 1.126 2.419 1.938 4.092 2.385h.017c3.578 2.071 7.388 4.192 12.276 6.776.016-.033.049-.05.066-.066a68.17 68.17 0 0 1 9.278 10.967z" class="H"/><path d="M187.59 430.183l7.604-.994c.083.348.216.679.398 1.011.629 1.192 1.739 2.286 3.23 3.23 7.654 4.937 25.116 6.296 35.819.249 1.093 6.511-.083 17.064-.796 23.906-2.783 26.491-6.179 56.594-10.487 74.486-3.263 1.011-5.964 1.773-8.366 2.336 2.319-7.538 4.158-17.048 5.55-27.319.315-.464.48-.961.48-1.491 0-.282-.049-.564-.149-.845 2.734-20.875 3.811-44.417 4.059-60.653-26.789 0-25.298-4.589-30.351-6.809-4.705-2.071-29.291-3.396-39.761-4.34.779-.812 1.309-1.69 1.557-2.618.017-.016.017-.033.017-.05.016-.033.016-.066.033-.099 5.583.364 11.647.249 18.29.249l9.576-.133 3.297-.116z" class="I"/><path d="M235.055 353.924l-3.43-.513c-2.452-6.892-9.045-22.614-12.558-29.374 6.594 8.251 15.01 25.961 15.988 29.887zm-5.616-78.578a184.74 184.74 0 0 1 9.791 3.065c-10.156 10.205-25.431 17.843-42.197 21.918 11.001-4.721 23.757-14.463 32.406-24.983z" class="C"/><path d="M214.346 347.43h-.017c-3.379 1.59-8.83-3.711-9.973-7.753 1.176-.547 1.988-1.74 1.988-3.132 0-.646-.182-1.259-.481-1.772-.414-3.761.448-14.033 1.276-17.065l.033-.149c3.363.646 6.561 1.541 8.748 3.198.961.729 2.021 1.855 3.131 3.247 0 .017.016.017.016.033 3.513 6.759 10.106 22.482 12.558 29.374l-3.412-.431c-2.585-.315-5.401-.58-8.433-.828l-4.076-.282c-.497-1.491-.927-2.966-1.358-4.44zm12.243 60.205c9.775 20.808-8.217 28.363-27.767 25.795-1.491-.944-2.601-2.038-3.23-3.231-.182-.331-.315-.662-.398-1.01-.033-.066-.05-.149-.066-.216-3.661-8.382 4.838-30.251 14.695-31.825.398-.066.795-.099 1.193-.099 4.705 0 9.907 4.257 15.573 10.586z" class="F"/><path d="M225.164 225.893c2.286 4.573 3.231 9.659 1.69 13.95-2.054 5.732-10.139 9.344-18.091 10.52 12.872-3.661 9.012-17.76 1.955-25.315 5.053-1.242 10.238-.961 14.446.845z" class="G"/><path d="M226.572 178.743c-43.488 3.661-92.941 12.558-134.293 23.111l-.182-.729c5.335-12.972 12.674-23.575 21.289-31.941.115.116.215.215.298.314l11.133-7.007 3.91-2.601 13.833-9.278c.033 0 .05-.033.083-.05 6.362-2.402 12.923-4.009 19.516-4.837 24.586 0 56.295 18.489 64.413 33.018z" class="E"/><path d="M220.873 504.752c.1.281.149.563.149.845 0 .53-.165 1.027-.48 1.491l.331-2.336z" class="I"/><path d="M224.932 444.099c-.248 16.236-1.325 39.778-4.059 60.653-.828-2.286-4.97-4.026-9.957-4.026-5.583 0-10.106 2.17-10.106 4.871s4.523 4.887 10.106 4.887c4.507 0 8.334-1.425 9.626-3.396-1.392 10.271-3.231 19.781-5.55 27.319-7.704 1.806-12.293 1.491-22.647.398-1.342-18.042-.845-48.062-5.318-50.381-1.508-.779-3.248-1.259-5.07-1.491h-.017c-5.053-.729-10.685.215-13.502 1.06-2.535.116-10.288 0-10.288 2.204.083 10.835 1.16 33.498-1.209 49.138-7.986.596-12.691.05-23.41-3.264-2.866-12.409-7.024-34.079-15.225-72.713-1.359-6.428-2.121-16.733-1.011-24.271 1.127.613 2.32 1.126 3.562 1.59h.033c11.945 4.341 28.595 1.856 33.913-3.727h.017c10.47.944 35.056 2.269 39.761 4.34 5.053 2.22 3.562 6.809 30.351 6.809zm-68.869 63.353c0-2.684-4.341-4.871-9.709-4.871s-9.708 2.187-9.708 4.871 4.34 4.888 9.708 4.888 9.709-2.187 9.709-4.888z" class="J"/><path d="M220.873 504.752l-.331 2.336c-1.292 1.971-5.119 3.396-9.626 3.396-5.583 0-10.106-2.187-10.106-4.887s4.523-4.871 10.106-4.871c4.987 0 9.129 1.739 9.957 4.026z" class="I"/><path d="M225.164 225.893c-4.208-1.806-9.393-2.087-14.446-.845-3.943-4.241-8.914-6.444-12.459-3.562 2.899-4.075 6.345-7.206 9.858-8.035 5.765-1.391 13.253 4.805 17.047 12.442z" class="K"/><path d="M223.358 532.071c-2.087 8.681-4.39 14.48-6.941 15.606-4.556 2.005-8.35 3.33-12.21 3.231 4.44-1.243 7.969-7.439 10.785-16.501 2.402-.563 5.103-1.325 8.366-2.336z" class="C"/><path d="M215.704 351.854l-1.093-.067-4.854-.298-5.418-.232h-.016l-2.071-.083c-7.986-.298-17.114-.431-27.535-.431l-20.328.216-9.725.298-.314-3.164c3.363-1.243 7.14-4.755 7.935-7.621.481.232 1.011.364 1.574.364 1.889 0 3.446-1.54 3.446-3.446 11.895-.762 29.606-1.275 42.147-.43h.033a3.44 3.44 0 0 0 3.413 3.031c.53 0 1.027-.116 1.458-.314 1.143 4.042 6.594 9.344 9.973 7.753h.017l1.358 4.424z" class="J"/><path d="M91.484 367.277h-.05c.232-1.54.729-3.031 1.673-4.44 1.458-2.137 3.993-4.075 8.416-5.748 2.104-.796 4.672-1.541 7.754-2.204 2.203-.48 4.688-.911 7.488-1.325 5.931-.862 13.254-1.557 22.283-2.038.265-.017.53-.033.795-.033l4.821-.232 9.725-.298 20.328-.216c10.421 0 19.549.133 27.535.431.712.017 1.391.05 2.071.083h.016l5.418.232c3.413 2.005 5.517 7.737 3.429 10.967-.497-.016-1.01-.049-1.524-.082h-.017l-12.276-.514c-7.289-.232-15.474-.348-24.652-.348l-13.684.099h-.398l-5.401.1-1.773.05-9.526.314c-20.907.895-33.532 2.75-41.152 5.335-4.225 1.425-6.909 3.081-8.632 4.904-.05.05-.099.099-.132.166-1.475-1.624-2.187-3.364-2.535-5.203z" class="E"/><path d="M212.921 105.698l.265.083c-3.827 15.093-11.299 42.114-2.899 50.779l-14.414-8.334c5.6-10.553 11.631-25.215 17.048-42.528z" class="C"/><path d="M210.983 395.972l.033 1.077c-.398 0-.795.033-1.193.099-9.857 1.574-18.356 23.442-14.695 31.825a.54.54 0 0 0 .066.216c-3.943.646-6.759.878-7.604.994l-3.297.116-9.576.132c-6.643 0-12.707.116-18.29-.248 2.7-6.213-1.226-19.765-7.455-27.054-1.061-1.259-2.204-2.32-3.38-3.132-1.242-.861-2.535-1.441-3.86-1.656-.398-.066-.795-.1-1.193-.1l.232-4.638c7.985.397 17.246.629 27.999.679 11.729 1.491 27.534 2.038 42.213 1.69z" class="E"/><path d="M210.718 225.048c7.057 7.555 10.917 21.654-1.955 25.315 0 0-.011.006-.033.017-7.92 1.159-15.69-.067-17.346-4.01a5.26 5.26 0 0 1-.249-.729l.083-.033c1.491-8.714 6.809-14.811 13.221-18.191.265.431.745.713 1.308.713a1.52 1.52 0 0 0 1.525-1.524c0-.149-.017-.299-.067-.448a24.69 24.69 0 0 1 3.513-1.11z" fill="#7f4d40"/><path d="M210.718 225.048a24.69 24.69 0 0 0-3.513 1.11c-.182-.629-.762-1.093-1.458-1.093-.861 0-1.54.696-1.54 1.541 0 .298.083.58.232.811-6.412 3.38-11.73 9.477-13.221 18.191l-.083.033c-1.706-5.649 1.723-16.55 7.108-24.138h.016c3.545-2.899 8.516-.696 12.459 3.545z" fill="#6b3d34"/><path d="M207.205 226.158a1.39 1.39 0 0 1 .067.448 1.52 1.52 0 0 1-1.525 1.524c-.563 0-1.043-.282-1.308-.713.894-.48 1.822-.894 2.766-1.259z" class="G"/><path d="M207.172 317.559l-.033.149c-.828 3.032-1.69 13.304-1.276 17.065-.596-.994-1.706-1.674-2.965-1.674-.961 0-1.839.398-2.452 1.044h-.017c-.364-3.33.149-13.883 1.11-17.346l.034-.199 5.599.961z" class="J"/><path d="M205.747 225.065c.696 0 1.276.464 1.458 1.093-.944.365-1.872.779-2.766 1.259-.149-.231-.232-.513-.232-.811 0-.845.679-1.541 1.54-1.541z" class="G"/><path d="M205.863 334.773c.299.513.481 1.126.481 1.772a3.4 3.4 0 0 1-1.988 3.115 3.26 3.26 0 0 1-1.458.331 3.44 3.44 0 0 1-3.413-3.031l-.033-.415a3.31 3.31 0 0 1 .994-2.402c.613-.646 1.491-1.044 2.452-1.044 1.259 0 2.369.68 2.965 1.674z" fill="#fc9"/><path d="M192.345 534.805c10.354 1.093 14.943 1.408 22.647-.398-2.816 9.062-6.345 15.258-10.785 16.501h-.017c-2.816-.05-5.699-.878-8.963-2.734-1.54-.894-2.352-6.179-2.882-13.369zm9.228-218.207l-.034.199c-.96 3.463-1.474 14.016-1.11 17.33h.017c-.63.629-.994 1.474-.994 2.418 0 .149.017.282.033.415h-.033c-12.541-.845-30.252-.332-42.147.43 0-.944-.398-1.789-.994-2.419.365-3.296-.149-13.866-1.11-17.329 3.612-.646 6.561-1.491 7.571-3.33 1.027-1.872 1.359-4.059 1.276-6.295h.016c11.283 1.01 15.391.795 26.127-1.259.414 1.739 1.044 3.545 1.855 5.616.994 2.518 4.954 3.446 9.527 4.224z" class="F"/><path d="M199.203 200.761c.116.861-1.126 1.988-2.849 2.998l-8.565-.099c.662-1.673 2.319-3.728 4.771-4.473 2.932-.895 6.478.232 6.643 1.574z" fill="#cc8e87"/><path d="M192.179 261.148c2.352 2.436 1.673 5.749-.878 8.996-1.839 2.32-4.622 4.622-7.952 6.511.447-1.938-2.353-11.464-3.976-14.264 4.754-3.065 8.863-5.302 12.806-1.243z" class="K"/><path d="M189.594 301.92a19.91 19.91 0 0 0 .597 4.837c-10.736 2.055-14.844 2.27-26.127 1.26h-.016c-.05-1.525-.298-3.065-.613-4.54 2.121.1 4.225.149 6.329.149 6.61 0 13.303-.596 19.83-1.739v.033z" class="C"/><path d="M196.354 203.76c-3.098 1.822-7.754 3.28-8.681 2.12-.315-.397-.265-1.242.116-2.22l8.565.1z" fill="#eab5a7"/><path d="M179.373 262.391c1.623 2.799 4.423 12.326 3.976 14.264-4.059 2.319-8.913 4.042-13.751 4.523.464-1.905-.58-9.99-2.204-12.79 4.49-.961 8.417-3.711 11.979-5.997z" class="K"/><path d="M150.214 244.299c.315-3.479 30.368-6.958 30.401-3.379.017 2.8-9.228 7.24-16.584 7.223-6.163 0-14.065-1.242-13.817-3.844z" class="C"/><path d="M170.99 253.213c.977 2.418-1.839 5.168-6.213 5.434-.431.033-.862 0-1.276-.083 4.142-.182 4.821-4.507 4.092-5.898v-.332c1.756 0 3.131.249 3.397.879z" class="L"/><path d="M167.394 268.388c1.624 2.8 2.668 10.885 2.204 12.79-4.49.447-9.708-.083-14.049-1.292.464-1.905.745-8.98-.878-11.746 2.999.099 6.478.679 10.023.563.928-.033 1.822-.149 2.7-.315z" class="G"/><path d="M167.593 252.666c.729 1.391.05 5.715-4.092 5.898-2.965-.547-5.666-3.397-4.721-4.54.662-.811 5.434-1.706 8.83-1.69v.332h-.017z" class="M"/><path d="M168.438 483.993c-1.309.381-2.187 2.32-2.783 5.302-1.955 9.774-.729 30.798-.961 45.294l-7.753.746c2.369-15.64 1.292-38.304 1.209-49.138 0-2.204 7.753-2.088 10.288-2.204z" fill="#487899"/><path d="M164.694 534.589c-.133 8.069-.696 14.116-2.518 15.093-4.573 2.469-9.294 2.734-13.486 2.021 4.424-.828 6.892-7.455 8.251-16.368 2.253-.166 4.771-.431 7.753-.746zm-15.722-131.46c6.229 7.289 10.155 20.841 7.455 27.054-.017.033-.017.066-.033.099 0 .017 0 .033-.017.05-.248.928-.778 1.806-1.557 2.618h-.017c-5.318 5.583-21.968 8.068-33.913 3.727 16.849.646 27.651-3.777 28.247-17.677 2.237-4.175 1.11-10.255-.397-15.672l.232-.199z" class="C"/><path d="M150.877 335.634c.613-1.01 1.723-1.69 2.982-1.69a3.49 3.49 0 0 1 2.452 1.027c.596.63.994 1.475.994 2.419 0 1.906-1.557 3.446-3.446 3.446-.563 0-1.093-.132-1.574-.364-1.11-.58-1.888-1.74-1.888-3.082 0-.646.182-1.242.48-1.756z" fill="#fc9"/><path d="M155.201 317.642c.961 3.463 1.475 14.032 1.11 17.329-.629-.629-1.508-1.027-2.452-1.027-1.259 0-2.369.679-2.982 1.69.414-3.761-.447-14.032-1.259-17.081l5.583-.911z" class="J"/><path d="M154.671 268.14c1.623 2.766 1.342 9.841.878 11.746-6.511-1.806-11.05-5.186-8.234-9.212 1.574-2.253 4.192-2.667 7.356-2.534z" class="G"/><path d="M146.354 502.582c5.368 0 9.709 2.186 9.709 4.87s-4.341 4.888-9.709 4.888-9.708-2.187-9.708-4.888 4.34-4.87 9.708-4.87z" class="I"/><path d="M133.531 532.071c10.719 3.313 15.424 3.86 23.41 3.264-1.359 8.913-3.827 15.54-8.251 16.368-2.684-.447-5.169-1.309-7.256-2.236-3.314-1.475-4.871-4.192-7.903-17.396zm16.866-194.681c0 1.342.778 2.502 1.888 3.082-.795 2.866-4.572 6.378-7.935 7.621l-1.21-10.587c-.381 2.883-1.441 6.892-2.468 10.786l-.829 3.197c-.265 0-.53.017-.795.033-9.029.481-16.352 1.176-22.283 2.038 1.905-4.49 15.524-26.74 21.521-31.279 2.8-2.121 7.091-3.032 11.332-3.744.812 3.065 1.673 13.336 1.259 17.097-.298.514-.48 1.11-.48 1.756z" class="F"/><path d="M148.74 403.328c1.507 5.417 2.634 11.497.397 15.672.216-5.036-.894-11.299-3.545-19.002 1.176.811 2.319 1.872 3.38 3.131l-.232.199z" class="C"/><path d="M149.137 419c-.596 13.9-11.398 18.323-28.247 17.677h-.033c-1.242-.464-2.435-.977-3.562-1.59-2.087-1.127-3.943-2.535-5.434-4.225-2.882-2.866-3.727-7.77-3.744-11.547 1.541.961 3.264 1.872 5.186 2.7.049.033.099.067.149.067l.414.314c7.505-9.642 14.364-18.273 20.51-22.067 2.137-1.342 4.192-2.088 6.163-2.088.398 0 .795.034 1.193.1 1.325.215 2.618.795 3.86 1.64 2.651 7.72 3.761 13.983 3.545 19.019z" class="F"/><path d="M147.083 204.687c.282 1.806-.066 3.479-.828 4.01-1.408.994-5.285-1.094-7.803-3.529l8.631-.481z" fill="#eab5a7"/><path d="M145.493 200.976c.911 1.077 1.408 2.436 1.59 3.711l-8.631.481c-.895-.862-1.624-1.789-1.988-2.618l9.029-1.574z" fill="#cc8e87"/><path d="M144.35 348.093l.314 3.164-4.821.232.829-3.198c.994.464 2.302.332 3.678-.198z" class="I"/><path d="M143.14 337.506c.232 2.817.795 7.058 1.21 10.587-1.376.53-2.684.662-3.678.199 1.027-3.894 2.087-7.903 2.468-10.786zm-.497-186.944l-.083.05-13.833 9.278-.1-.15c4.97-4.042-4.721-30.914-6.892-80.284-.497-11.282-2.833-35.752-10.139-52.833 5.964 11.995 11.034 28.065 13.337 47.399 3.993 33.515 10.421 59.609 17.71 76.54z" class="C"/><path d="M132.786 223.077c6.13 7.554 10.371 18.853 8.449 24.37-1.524-8.996-7.207-15.059-13.95-18.24-.033-.795-.695-1.425-1.524-1.425a1.43 1.43 0 0 0-.994.381c-1.292-.464-2.601-.828-3.91-1.077 3.629-4.291 8.284-6.594 11.912-4.009h.017z" fill="#6b3d34"/><path d="M140.771 393.603l-.232 4.639c-1.971 0-4.026.745-6.163 2.07-6.146 3.811-13.005 12.442-20.51 22.085l-.414-.315s-.1-.033-.149-.067c-1.922-.828-3.645-1.739-5.186-2.7C94.4 410.816 94.4 398.126 94.4 383.928l.083-.083c4.838 4.755 16.799 8.316 46.289 9.758z" class="E"/><path d="M136.464 202.55c.364.828 1.093 1.756 1.988 2.618-10.239.629-19.765 1.391-27.883 2.17l25.895-4.805v.017z" class="C"/><path d="M132.769 223.077c-3.628-2.585-8.283-.282-11.912 4.009-4.904-.977-9.874-.58-13.9 1.16l-.248-.182c3.462-7.373 10.156-13.354 15.722-12.393 3.562.613 7.207 3.513 10.338 7.406z" class="K"/><path d="M128.627 159.741l.1.149-3.91 2.601c-6.494-10.587-15.441-29.092-13.95-54.97.895-15.225.812-28.711-.165-41.451v-.099a56.53 56.53 0 0 0-.348-4.274c-.663-7.24-1.624-14.248-2.833-21.239h-.017c-.828-8.449-10.653-34.095-23.823-37.028 1.309-.696 2.585-1.093 3.81-1.143 6.71-.298 16.17 8.416 24.072 24.271 0 .017.017.033.033.066 7.306 17.081 9.642 41.55 10.139 52.833 2.171 49.37 11.862 76.242 6.892 80.285z" class="F"/><path d="M141.235 247.447c-1.408 4.043-9.095 5.782-17.064 5.119 0 0-.011-.005-.033-.016-13.271-2.866-10.024-17.545-3.281-25.464 1.309.249 2.618.613 3.91 1.077-.331.265-.53.679-.53 1.143 0 .845.679 1.541 1.524 1.541a1.55 1.55 0 0 0 1.541-1.541c0-.033 0-.066-.017-.099 6.743 3.181 12.426 9.244 13.95 18.24z" fill="#7f4d40"/><g class="G"><path d="M127.285 229.207a.57.57 0 0 0 .017.099 1.54 1.54 0 0 1-1.541 1.541c-.861 0-1.524-.696-1.524-1.541 0-.464.199-.878.53-1.143.845.298 1.69.646 2.518 1.044z"/><path d="M125.761 227.782c.829 0 1.491.63 1.524 1.425-.828-.398-1.673-.746-2.518-1.044.265-.248.613-.381.994-.381zm-18.804.464c4.026-1.74 8.996-2.137 13.9-1.16-6.743 7.919-9.99 22.598 3.281 25.464-8.019-.663-16.302-3.744-18.721-9.344-1.955-4.506-1.077-10.156 1.292-15.142l.248.182z"/></g><path d="M107.869 260.85c5.086 0 9.194 2.187 9.194 4.871s-4.108 4.887-9.194 4.887-9.195-2.187-9.195-4.887 4.125-4.871 9.195-4.871z" fill="#e08f82"/><path d="M124.817 162.491c-2.949 1.922-6.329 4.059-11.133 7.008-.083-.1-.183-.199-.298-.315 2.186-4.341-3.33-22.664-4.838-27.982-5.103-17.909 3.231-52.965 2.154-75.132.977 12.74 1.06 26.226.165 41.451-1.491 25.878 7.456 44.383 13.95 54.97z" class="L"/><path d="M108.548 141.202c1.508 5.318 7.024 23.641 4.838 27.982-11.962-12.707-35.752-32.389-47.962-63.071C48.359 63.187 68.091 11.697 83.681 3.429c13.171 2.932 22.995 28.578 23.823 37.028h.017c1.209 6.991 2.17 13.999 2.833 21.239l.348 4.274v.099c1.077 22.167-7.257 57.223-2.154 75.132z" class="M"/><path d="M3.297 239.197c5.384-7.903 43.654-18.837 92.229-28.86-3.678 11.133-5.997 22.697-7.555 33.598l-.613 4.589c-.282 2.303-.381 4.523-.298 6.66h-.033c-44.135-1.325-83.73-6.213-84.393-13.95-.05-.646.166-1.325.663-2.037z" class="H"/><g stroke="#3f2a25" class="B"><path d="M234.773 433.596c1.077 6.511-.049 17.312-.762 24.155-4.142 39.33-9.609 86.662-17.428 90.092-7.903 3.479-13.47 4.887-21.19.497-5.401-3.098-1.938-60.503-8.201-63.751-1.507-.778-3.247-1.259-5.069-1.491h-.017c-5.053-.729-10.686.216-13.502 1.061-1.309.381-2.187 2.319-2.783 5.301-3.032 15.192 1.623 57.637-3.479 60.388-7.505 4.058-15.408 2.17-20.742-.216-6.429-2.866-6.246-10.421-23.128-90.109-1.359-6.428-2.121-16.931-1.011-24.469m39.099-5.004c5.583.365 11.696.547 18.34.547l9.575-.132c3.993-.116 7.754-.299 11.299-.564m62.657-56.991c0 11.912 0 21.571-83.548 21.571s-83.548-9.659-83.548-21.571m4.374-162.408c-4.192 12.707-6.627 25.978-8.168 38.188-4.622 36.696 40.341 55.102 82.405 55.102s86.597-24.287 81.825-58.134l-1.176-7.406c-2.949-16.716-8.184-34.459-17.015-49.519m-37.524-40.341c8.93-16.849 18.986-44.201 25.894-76.043 9.609-44.251 32.389-69.499 44.086-67.859 15.689 2.22 34.94 60.884 12.094 105.466-14.033 27.386-37.426 44.367-51.21 55.865 0 .016-.049.033-.066.066m-12.276-6.776l1.325-1.889c7.24-10.702 16.021-27.733 16.849-50.182.961-25.761 4.208-46.354 9.725-66.45m-99.651 110.138c-7.29-16.932-13.718-43.025-17.711-76.54-5.368-44.947-25.646-72.266-37.442-71.736-15.822.712-40.573 57.289-22.067 103.826 12.21 30.683 36 50.365 47.962 63.072a4.82 4.82 0 0 1 .298.314m-6.163-129.041c3.562 20.527 4.854 41.335 3.347 67.063-1.491 25.878 7.455 44.384 13.949 54.97" class="D"/><path d="M191.55 246.519c-3.43-8.167 6.378-30.434 16.732-32.919 9.228-2.22 22.847 14.96 18.738 26.392s-32.157 14.446-35.47 6.527z"/><path d="M198.425 221.669c9.874-8.052 30.649 23.161 10.487 28.876" class="D"/><path d="M141.401 247.613c2.899-8.383-8.317-29.97-18.804-31.793-9.344-1.623-21.835 16.385-17.014 27.535s33.018 12.359 35.818 4.241v.017z"/><path d="M132.968 223.242c-10.371-7.405-29.108 25.083-8.615 29.49m21.322-51.59c2.187 2.601 2.054 6.809.762 7.72-1.905 1.342-8.383-2.965-9.791-6.146" class="D"/><path d="M187.855 206.046c-.895-1.127 1.027-5.517 4.887-6.693 2.933-.895 6.478.232 6.644 1.574.315 2.418-10.09 6.925-11.531 5.119zm-22.912 52.766c4.373-.265 7.173-3.015 6.212-5.434-.729-1.839-11.216-.414-12.21.812-1.077 1.309 2.618 4.838 5.998 4.622z"/><g class="D"><path d="M164.86 268.869c.497-3.678.563-8.682.182-10.04m-76.888-14.728c-20.808-8.4-48.227-9.742-67.08-5.086m13.701 30.384c18.555-6.544 37.359-9.742 53.114-8.45m164.081-18.837c20.808-8.399 47.316-9.675 66.153-5.019m-13.685 30.384c-18.555-6.544-37.359-9.742-53.114-8.449"/><use xlink:href="#B"/><path d="M182.139 483.098h-.016m7.654-181.012c-.017 3.429.878 6.461 2.452 10.454 2.104 5.351 17.445 3.479 23.873 8.383 6.644 5.086 17.992 28.578 19.135 33.167m-123.16 70.974l1.557-1.988c7.671-9.858 14.662-18.721 20.925-22.598 2.584-1.607 5.036-2.369 7.355-1.988 9.858 1.574 18.357 23.443 14.695 31.842-.016.033-.016.083-.033.116 0 0 0 .033-.016.05-2.137 8.002-25.613 12.011-39.082 4.755-2.088-1.127-3.943-2.535-5.434-4.242m.033-6.676s-.017.033-.033.049"/><path d="M148.906 403.477c1.822 6.527 3.065 13.999-1.392 17.975m-12.955-20.394c.894 8.3.198 13.486-2.784 18.688m-37.193-35.653c0 14.198 0 26.889 13.718 35.388 1.54.96 3.263 1.872 5.185 2.7.05.033.099.066.149.066m124.784-1.06s.099-.05.149-.066c1.889-.961 3.562-1.988 5.053-3.082 11.581-8.449 11.581-20.527 11.581-33.946M91.65 367.426c.348 1.856 1.077 3.596 2.535 5.203.033.049.083.099.133.149 4.423 4.672 15.374 8.234 42.478 9.841 6.461.397 13.834.646 22.25.795l15.821.132 15.905-.132 9.509-.232 7.406-.282c30.981-1.425 43.041-5.152 47.73-10.139.05-.05.099-.099.133-.149 1.491-1.607 2.186-3.38 2.534-5.219m.347 5.07c0-6.146 0-11.713-11.531-15.639-4.34-1.475-10.288-2.734-18.505-3.678-2.585-.315-5.384-.58-8.433-.829l-5.169-.381-10.271-.53c-.68-.016-1.375-.05-2.071-.083-7.986-.281-17.114-.43-27.535-.43l-20.328.232-15.341.563c-13.254.712-22.846 1.855-29.771 3.363-3.082.663-5.633 1.408-7.754 2.203-4.423 1.674-6.958 3.612-8.399 5.749-1.474 2.17-1.839 4.556-1.905 7.058l-.033 1.723v.679"/><path d="M94.184 372.629s.083-.116.133-.166c1.706-1.822 4.407-3.463 8.615-4.887 7.621-2.585 20.245-4.457 41.153-5.335l9.542-.315c.58 0 1.16-.033 1.756-.049l5.401-.1h.381l13.701-.099 24.636.348 12.293.513c19.019 1.061 30.284 3.082 36.961 5.749 3.115 1.259 5.219 2.651 6.643 4.158a1.14 1.14 0 0 1 .133.166M108.3 419.48c0 3.778.861 8.251 3.744 11.117m127.617-7.753l.165.232m.033.844s-.016 0-.033-.049l-1.408-1.789c-10.901-14-20.394-26.044-28.413-24.768-9.857 1.574-18.356 23.442-14.695 31.842.1.43.249.811.464 1.209 4.44 8.466 33.449 11.63 44.085-.53"/><path d="M202.981 402.367c-1.822 6.527-3.065 13.999 1.392 17.975m12.972-20.394c-.895 8.3-.199 13.469 2.783 18.671m23.492-.58c0 3.811-.828 8.383-3.761 11.299m-99.833-77.683c1.209-4.788 2.8-10.289 3.297-13.983m72.564 14.347c-1.491-4.456-2.518-8.913-4.324-13.37"/></g><path d="M192.361 261.314c-7.471-7.687-15.556 7.19-27.485 7.554-7.273.232-14.314-2.435-17.379 1.972-4.688 6.71 11.051 11.63 22.283 10.52 14.298-1.408 28.711-13.718 22.581-20.03v-.016z"/><g class="D"><path d="M167.56 268.537c1.624 2.783 2.668 10.901 2.22 12.807m9.758-18.804c1.624 2.783 4.424 12.392 3.976 14.297m-28.677-8.548c1.623 2.783 1.342 9.857.894 11.762m35.736-9.741c24.536-1.624 63.767 10.702 91.798 30.003"/><path d="M253.063 284.044c-1.308 4.904.763 11.017 1.458 11.067 1.243.099 2.369-5.55 3.678-5.401 1.359.149 1.077 6.279 3.032 6.693 1.541.332 2.816-3.28 4.324-3.032 2.568.431 2.336 11.597 3.678 11.664 1.093.066 1.657-7.406 3.463-7.571 2.534-.216 4.903 14.43 7.786 14.264 1.972-.116.166-7.174 2.319-7.406 3.198-.348 7.307 14.447 11.299 13.701 2.634-.48-6.345-12.657-4.556-16.451.862-1.822 10.371-2.965 10.371-3.893 0-1.425-17.892-2.104-17.942-3.678-.033-1.209 11.514-1.789 10.587-3.032-1.591-2.137-20.262.116-20.527-1.938-.199-1.491 11.232-3.115 9.94-4.755-2.8-3.562-19.4 2.303-20.096-.215-.298-1.077 3.28-2.022 2.601-3.463-.397-.828-10.288-.547-12.988 2.783"/></g><use xlink:href="#C"/><path d="M149.784 318.719c.828 3.048 1.673 13.37 1.259 17.114m4.34-18.025c.961 3.446 1.475 14.016 1.094 17.329" class="D"/><use xlink:href="#C" x="49.039" y="-0.845"/><g class="D"><path d="M207.305 317.857c-.828 3.049-1.673 13.37-1.259 17.114m-4.341-18.008c-.961 3.446-1.474 14.016-1.093 17.329m-43.141 3.264c11.895-.762 29.605-1.276 42.147-.431m4.904 2.701c1.126 4.042 6.593 9.36 9.973 7.786m-62.027-6.975c-1.127 4.043-8.234 9.411-11.614 7.837m-7.157 183.746c13.751 4.258 17.611 3.943 31.179 2.518m58.665-2.518c-13.751 4.258-17.445 4.175-31.031 2.75M87.21 255.35c-44.135-1.326-83.747-6.213-84.393-13.933-1.889-22.532 324.253-76.723 327.368-49.271 1.64 14.38-44.268 36-79.589 46.123"/><path d="M3.429 239.412c13.95-31.262 281.626-87.972 325.877-49.238m-93.108-13.386a68.08 68.08 0 0 0-9.278-10.967m-30.864-17.446c-16.915-4.837-35.802-4.224-53.23 2.353-.034.016-.05.033-.083.05"/><path d="M92.279 201.291c5.335-12.972 12.674-23.575 21.289-31.942m.282.315c13.535-8.317 15.838-10.222 28.976-18.92m53.213-2.352c12.774 7.19 18.208 10.851 30.799 17.495"/></g></g><defs ><path id="B" d="M163.617 303.643c.812 3.661 1.061 7.704-.662 10.835-2.585 4.705-17.81 2.899-24.487 7.952-5.997 4.54-19.615 26.789-21.52 31.279"/><path id="C" d="M154.025 341.002c1.903 0 3.446-1.543 3.446-3.446s-1.543-3.446-3.446-3.446-3.446 1.543-3.446 3.446 1.543 3.446 3.446 3.446z"/></defs></svg>