<svg width="299" height="289" viewBox="0 0 299 289" fill="none" xmlns="http://www.w3.org/2000/svg">
<path d="M240.158 121.779C257.867 110.152 289.353 82.6808 295.316 86.8165C303.014 92.1646 282.811 114.853 270.62 130.017" stroke="#3F2A25" stroke-width="2" stroke-linecap="round" stroke-linejoin="round"/>
<path d="M15.2308 187.551C15.2308 242.129 15.2308 286.974 149.896 286.974C284.562 286.974 284.546 241.432 284.562 187.535" stroke="#3F2A25" stroke-width="2" stroke-linecap="round" stroke-linejoin="round"/>
<path d="M15.2308 187.551C9.8125 180.675 9.8125 172.636 9.8125 164.049" stroke="#3F2A25" stroke-width="2" stroke-linecap="round" stroke-linejoin="round"/>
<path d="M289.964 164.049C289.964 172.62 289.964 180.659 284.562 187.535" stroke="#3F2A25" stroke-width="2" stroke-linecap="round" stroke-linejoin="round"/>
<path d="M9.79602 164.033C9.79602 162.621 9.79601 161.209 9.82905 159.83C9.82905 159.299 9.84558 158.767 9.8621 158.253C9.92818 156.359 10.0603 154.499 10.3246 152.672V152.622" stroke="#3F2A25" stroke-width="2" stroke-linecap="round" stroke-linejoin="round"/>
<path d="M240.158 121.795C245.676 93.3272 246.056 67.0016 240.109 61.7365C237.432 59.378 223.573 68.0314 207.053 81.6509C200.347 87.1652 193.161 93.5265 186.14 100.303" stroke="#3F2A25" stroke-width="2" stroke-linecap="round" stroke-linejoin="round"/>
<path d="M13.0833 143.188C5.66615 138.056 0.991188 133.173 3.38649 129.485C5.2697 126.579 15.1152 128.09 27.1743 130.93" stroke="#3F2A25" stroke-width="2" stroke-linecap="round" stroke-linejoin="round"/>
<path d="M124.853 102.595H124.837C120.575 106.814 117.353 111.93 115.801 117.859" stroke="#3F2A25" stroke-width="2" stroke-linecap="round" stroke-linejoin="round"/>
<path d="M164.615 89.3577H164.632C169.191 89.8559 173.519 91.0352 177.319 92.9286C180.556 94.5563 183.48 97.0643 186.14 100.303" stroke="#3F2A25" stroke-width="2" stroke-linecap="round" stroke-linejoin="round"/>
<path d="M124.853 102.595C113.653 97.0145 102.42 82.797 103.956 79.6745C106.55 74.3928 115.949 85.4711 119.6 79.2427C124.275 71.237 105.047 6.74353 113.108 2.24243C124.688 -4.20194 142.446 55.1427 148.724 57.086C154.39 58.8466 153.366 45.7751 161.047 48.1835C165.441 49.562 169.835 69.709 164.615 89.3743" stroke="#3F2A25" stroke-width="2" stroke-linecap="round" stroke-linejoin="round"/>
<path d="M27.1743 130.931C41.5296 124.038 67.7954 119.304 115.801 117.859" stroke="#3F2A25" stroke-width="2" stroke-linecap="round" stroke-linejoin="round"/>
<path d="M270.62 130.017C289.981 138.388 289.981 150.247 289.981 163.368" stroke="#3F2A25" stroke-width="2" stroke-linecap="round" stroke-linejoin="round"/>
<path d="M13.0833 143.188C10.6054 147.822 10.0107 152.904 9.87855 158.253C9.84551 159.448 9.82898 160.677 9.82898 161.923V163.368" stroke="#3F2A25" stroke-width="2" stroke-linecap="round" stroke-linejoin="round"/>
<path d="M284.926 164.016C282.53 160.794 278.979 157.821 273.759 155.147C275.113 153.502 275.774 152.09 275.609 151.077C274.353 143.072 263.137 149.782 262.195 143.902C261.898 142.042 265.367 137.242 270.19 131.179L270.587 130.681C284.166 136.561 288.213 144.483 289.419 153.22H289.402C288.824 157.156 287.635 160.927 285.157 164.365C285.091 164.248 285.008 164.132 284.926 164.016Z" fill="#BC7171"/>
<path d="M242.785 182.419C242.471 179.147 241.661 175.825 240.472 172.553C255.521 169.513 268.357 161.375 273.362 155.645C273.511 155.479 273.643 155.313 273.758 155.146C278.978 157.821 282.53 160.794 284.925 164.016C285.008 164.132 285.091 164.248 285.157 164.365C285.091 164.481 285.008 164.581 284.925 164.697C279.358 172.221 267.597 178.383 242.785 182.452V182.419Z" fill="#BC7171"/>
<path d="M240.472 172.553C238.407 166.939 235.169 161.524 231.072 156.774C230.379 155.96 229.685 155.163 228.941 154.416C224.564 149.881 219.41 146.144 213.859 143.703C213.166 143.404 212.472 143.138 211.778 142.872C211.547 142.773 211.299 142.69 211.051 142.606V142.573C211.051 137.989 212.075 132.907 213.545 128.273C214.404 125.599 215.396 123.074 216.42 120.898C218.518 116.563 220.731 113.607 222.202 113.607C225.522 113.607 225.126 117.925 225.456 121.745H225.489C225.737 124.652 226.447 127.26 229.52 127.475C231.304 127.608 234.558 126.014 238.704 123.373C239.167 123.074 239.646 122.775 240.109 122.443C257.834 110.816 289.32 83.3448 295.283 87.4805C302.981 92.8287 282.778 115.517 270.587 130.681L270.19 131.179C265.367 137.242 261.898 142.042 262.195 143.902C263.137 149.782 274.353 143.072 275.609 151.077C275.774 152.09 275.113 153.502 273.758 155.146C273.643 155.312 273.511 155.479 273.362 155.645C268.357 161.375 255.521 169.513 240.472 172.553Z" fill="#BC7171"/>
<path d="M222.202 113.607C220.731 113.607 218.518 116.563 216.42 120.898C215.396 123.074 214.404 125.599 213.545 128.273L212.753 128.024C207.499 124.751 203.254 122.011 199.537 119.138H199.521C197.654 117.693 195.903 116.214 194.251 114.62C194.251 114.62 194.251 114.603 194.234 114.62C194.234 114.603 194.218 114.603 194.218 114.57C191.856 109.288 189.13 104.671 186.09 100.967H186.107C193.128 94.1906 200.297 87.8292 207.004 82.315C223.523 68.6788 237.383 60.0255 240.059 62.4006C246.006 67.6491 245.626 93.9913 240.109 122.443C239.646 122.775 239.167 123.074 238.704 123.373C234.558 126.014 231.304 127.608 229.52 127.475C226.447 127.259 225.737 124.652 225.489 121.745H225.456C225.126 117.925 225.522 113.607 222.202 113.607Z" fill="#BC7171"/>
<path d="M211.051 142.606C208.292 141.626 205.434 140.946 202.511 140.73C200.826 133.189 198.777 126.047 196.299 119.653C195.655 117.925 194.961 116.248 194.234 114.62C194.251 114.603 194.251 114.62 194.251 114.62C195.903 116.214 197.654 117.693 199.521 119.138H199.537C203.254 122.011 207.499 124.752 212.753 128.024L213.545 128.273C212.075 132.907 211.051 137.989 211.051 142.573V142.606Z" fill="#BC7171"/>
<path d="M204.906 186.322C200.958 186.554 196.828 186.754 192.5 186.936C190.451 184.893 188.353 182.867 186.239 180.857C185.859 180.509 185.446 180.143 185.066 179.778C184.835 179.545 184.587 179.329 184.372 179.147C183.001 177.835 181.597 176.572 180.193 175.327C178.574 173.832 176.906 172.387 175.27 170.958C172.495 168.55 169.687 166.241 166.895 163.982C168.002 162.405 169.108 160.877 170.232 159.432C170.595 158.967 170.942 158.518 171.322 158.036C186.817 165.095 199.074 173.134 204.906 186.322Z" fill="#BC7171"/>
<path d="M189.427 142.374C189.939 142.141 190.484 141.959 190.997 141.809C194.862 140.68 198.711 140.364 202.511 140.73C205.434 140.945 208.292 141.626 211.051 142.606C211.299 142.689 211.547 142.772 211.778 142.872C212.472 143.138 213.166 143.404 213.859 143.703C219.41 146.144 224.564 149.881 228.941 154.416C229.685 155.163 230.379 155.96 231.072 156.774C235.169 161.524 238.407 166.939 240.472 172.553C241.661 175.825 242.471 179.147 242.785 182.419V182.452C232.543 184.113 220.071 185.425 204.906 186.322C199.074 173.134 186.817 165.095 171.322 158.036C172.743 156.209 174.229 154.449 175.683 152.854H175.716C180.342 147.822 184.95 144.118 189.378 142.374H189.394C189.394 142.374 189.394 142.357 189.411 142.374H189.427Z" fill="#BC7171"/>
<path d="M189.378 142.374C189.378 142.374 189.378 142.357 189.394 142.374H189.378Z" fill="#BC7171"/>
<path d="M186.239 180.857C188.353 182.867 190.451 184.893 192.5 186.936C187.445 187.152 182.126 187.318 176.526 187.435C178.855 184.927 181.63 182.469 185.066 179.778C185.446 180.143 185.859 180.509 186.239 180.857Z" fill="#BC7171"/>
<path d="M180.193 175.327C181.597 176.572 183.001 177.835 184.372 179.147C183.001 177.851 181.597 176.572 180.193 175.327Z" fill="#BC7171"/>
<path d="M164.582 90.0217C150.805 88.5767 134.864 93.3768 124.82 103.243C113.62 97.6786 102.387 83.4611 103.923 80.3552C106.533 75.0568 115.916 86.1518 119.567 79.9067C124.242 71.9011 105.013 7.40759 113.075 2.9065C124.671 -3.53787 142.413 55.8068 148.691 57.7501C154.357 59.5106 153.332 46.4392 161.014 48.8641C165.425 50.2427 169.819 70.373 164.582 90.0217Z" fill="#BC7171"/>
<path d="M184.372 179.147C184.587 179.329 184.835 179.545 185.066 179.778C181.63 182.468 178.855 184.927 176.526 187.435C168.249 187.617 159.379 187.717 149.847 187.717C140.315 187.717 131.543 187.617 123.317 187.435C123.565 173.333 131.395 161.175 142.43 148.619L142.958 147.639C144.131 148.253 145.304 148.918 146.51 149.632C153.052 153.485 159.957 158.468 166.895 163.982C169.687 166.241 172.495 168.55 175.27 170.958C176.906 172.387 178.574 173.832 180.193 175.326C181.597 176.572 183.001 177.851 184.372 179.147Z" fill="#BC7171"/>
<path d="M120.31 140.979C122.127 140.78 124.143 140.879 126.274 141.245H126.29C126.439 141.261 126.604 141.294 126.769 141.328H126.802C127.579 141.477 128.372 141.643 129.165 141.876C133.394 142.972 138.036 144.965 142.958 147.639L142.43 148.619C131.395 161.176 123.565 173.334 123.317 187.435C109.193 187.119 96.8198 186.554 85.9996 185.724C86.2474 172.453 92.0953 158.12 102.023 149.283C105.261 146.393 108.945 144.135 113.025 142.673C113.042 142.64 113.058 142.623 113.091 142.623C113.422 142.49 113.785 142.374 114.149 142.258C114.149 142.258 114.182 142.258 114.215 142.258C115.189 141.942 116.18 141.676 117.205 141.477H117.221C117.766 141.344 118.328 141.245 118.89 141.162C119.352 141.095 119.831 141.062 120.31 140.995V140.979Z" fill="#BC7171"/>
<path d="M190.997 141.809C190.484 141.959 189.939 142.141 189.427 142.374H189.411H189.394C189.394 142.374 189.389 142.374 189.378 142.374C184.95 144.118 180.342 147.822 175.716 152.854H175.683C174.229 154.449 172.743 156.209 171.322 158.036C170.942 158.518 170.595 158.966 170.232 159.432C169.108 160.877 168.002 162.405 166.895 163.982C159.957 158.468 153.052 153.485 146.51 149.632C145.304 148.918 144.131 148.254 142.958 147.639C138.036 144.965 133.394 142.972 129.165 141.876C128.372 141.643 127.579 141.477 126.802 141.327H126.769C126.604 141.294 126.439 141.261 126.29 141.244H126.274C124.143 140.879 122.127 140.779 120.31 140.979C119.831 141.045 119.352 141.078 118.89 141.145C118.46 140.098 118.047 139.035 117.7 137.989C116.213 133.787 115.272 129.867 115.024 126.346C114.892 124.453 114.958 122.642 115.239 120.998C115.354 120.383 115.47 119.769 115.602 119.187C115.652 118.971 115.718 118.739 115.767 118.523C117.32 112.594 120.542 107.478 124.804 103.276H124.82V103.243C134.864 93.3767 150.805 88.5767 164.582 90.0217C169.141 90.5199 173.486 91.6992 177.285 93.5926C180.523 95.2203 183.447 97.7283 186.09 100.967C189.13 104.671 191.856 109.288 194.218 114.57C194.218 114.603 194.234 114.603 194.234 114.62C194.961 116.248 195.655 117.925 196.299 119.652C198.777 126.047 200.826 133.189 202.51 140.73C198.711 140.364 194.862 140.68 190.997 141.809Z" fill="#BC7171"/>
<path d="M114.149 142.258C113.785 142.374 113.422 142.49 113.091 142.623C113.058 142.623 113.042 142.64 113.025 142.673C108.945 144.135 105.261 146.393 102.023 149.283C101.065 146.908 99.7437 144.517 98.2405 142.224H98.257C104.171 141.909 110.465 141.66 117.205 141.46C116.18 141.66 115.189 141.926 114.215 142.241C114.182 142.241 114.165 142.241 114.149 142.241V142.258Z" fill="#BC7171"/>
<path d="M284.529 188.83C284.529 243.408 284.529 288.369 149.863 288.369C15.1978 288.369 15.1978 243.408 15.1978 188.83L15.4621 188.564C26.3318 201.835 57.9333 210.704 149.847 210.704C241.76 210.704 273.379 201.835 284.248 188.564L284.529 188.83Z" fill="#BC7171"/>
<path d="M115.239 120.998C114.958 122.642 114.892 124.453 115.024 126.346C115.272 129.867 116.214 133.787 117.7 137.989C118.047 139.036 118.46 140.099 118.89 141.145C118.328 141.228 117.766 141.328 117.221 141.46H117.205C110.465 141.66 104.171 141.909 98.257 142.225H98.2405C92.3266 133.189 83.3731 125.599 80.8291 126.645C75.3942 128.887 85.6858 139.102 79.2267 142.308C77.4757 143.171 73.3458 142.773 67.8119 141.693C61.3693 140.447 53.027 138.255 44.4865 135.996C38.936 134.551 33.303 133.056 28.0498 131.811C27.7525 131.744 27.4386 131.661 27.1412 131.595C41.4965 124.702 67.7623 119.968 115.767 118.523C115.718 118.739 115.652 118.972 115.602 119.188C115.47 119.769 115.354 120.383 115.239 120.998Z" fill="#BC7171"/>
<path d="M67.8119 141.693C73.3458 142.773 77.4757 143.171 79.2267 142.308C85.6858 139.102 75.3942 128.887 80.8291 126.645C83.3731 125.599 92.3266 133.189 98.2405 142.225C99.7437 144.517 101.065 146.908 102.023 149.283C92.0953 158.12 86.2474 172.453 85.9996 185.724C68.836 184.445 55.5215 182.552 45.2299 180.16C45.2299 173.931 56.364 175.31 55.1415 169.879C54.4642 166.956 42.3721 160.86 29.9661 154.017H29.933C29.7017 153.884 29.4705 153.768 29.2392 153.635C23.5896 150.496 17.9235 147.191 13.2815 144.018C13.1989 143.968 13.1163 143.902 13.0503 143.852C5.63307 138.72 0.941569 133.837 3.33687 130.15C5.22008 127.26 15.0821 128.754 27.1412 131.595C27.4386 131.661 27.7525 131.744 28.0498 131.811C33.303 133.056 38.936 134.551 44.4865 135.996C53.027 138.255 61.3693 140.447 67.8119 141.693Z" fill="#BC7171"/>
<path d="M45.23 180.16C28.2646 176.224 19.4102 170.942 14.8013 164.73C14.7187 164.614 14.6361 164.514 14.5701 164.398C14.6361 164.281 14.7187 164.165 14.8013 164.049C17.6757 160.179 22.1855 156.658 29.2392 153.635C29.4705 153.768 29.7018 153.884 29.933 154.017H29.9661C42.3721 160.86 54.4643 166.956 55.1416 169.879C56.364 175.31 45.23 173.931 45.23 180.143V180.16Z" fill="#BC7171"/>
<path d="M14.57 164.398C12.0921 160.943 10.9027 157.239 10.308 153.336H10.2915C10.0933 154.714 9.9611 156.093 9.89502 157.505C10.0933 152.672 10.7871 148.071 13.0502 143.852C13.1163 143.902 13.1989 143.968 13.2815 144.018C17.9234 147.19 23.5895 150.496 29.2392 153.635C22.1854 156.658 17.6756 160.179 14.8013 164.049C14.7187 164.165 14.6361 164.281 14.57 164.398Z" fill="#BC7171"/>
<path d="M284.248 188.564C273.379 201.835 241.777 210.704 149.847 210.704C57.9168 210.704 26.3318 201.835 15.4621 188.564C9.77945 181.605 9.77945 173.433 9.77945 164.713H9.76294C9.76294 163.285 9.76293 161.873 9.79597 160.495C9.79597 159.963 9.79597 159.432 9.82901 158.917C9.84553 158.518 9.86205 158.103 9.87857 157.704C9.89509 157.638 9.89508 157.571 9.89508 157.505C9.96116 156.093 10.0933 154.715 10.2916 153.336H10.3081C10.9028 157.239 12.0922 160.943 14.5701 164.398C14.6361 164.514 14.7187 164.614 14.8013 164.73C19.4102 170.942 28.2646 176.223 45.23 180.16C55.5215 182.552 68.8361 184.445 85.9997 185.724C96.8198 186.554 109.193 187.119 123.317 187.435C131.543 187.617 140.381 187.717 149.847 187.717C159.312 187.717 168.249 187.617 176.526 187.435C182.126 187.318 187.445 187.152 192.5 186.936C196.828 186.754 200.958 186.554 204.906 186.322C220.071 185.425 232.543 184.113 242.785 182.452C267.597 178.383 279.359 172.221 284.926 164.697C285.008 164.58 285.091 164.481 285.157 164.365C287.635 160.926 288.824 157.156 289.402 153.22H289.419C289.931 156.94 289.931 160.794 289.931 164.713C289.931 173.433 289.931 181.605 284.248 188.564Z" fill="#BC7171"/>
<path d="M289.947 164.431V164.614C289.947 173.35 289.947 181.505 284.265 188.464C279.837 193.879 271.974 198.546 257.982 202.184C262.608 197.882 261.881 184.694 258.115 179.529L258.032 179.197C272.519 175.426 280.432 170.527 284.76 164.863C284.826 164.78 284.876 164.697 284.942 164.614C287.569 161.059 288.824 157.206 289.419 153.137H289.435C289.947 156.758 289.947 160.528 289.947 164.431Z" fill="#AD7766"/>
<path d="M273.775 156.209C278.88 158.817 282.365 161.724 284.76 164.863C280.432 170.527 272.52 175.426 258.032 179.197C253.605 180.359 248.566 181.406 242.818 182.336C242.504 179.047 241.694 175.725 240.489 172.453C255.273 169.48 267.911 161.591 273.081 155.861C273.329 155.977 273.544 156.093 273.775 156.209Z" fill="#C47B49"/>
<path d="M289.419 153.137C288.824 157.206 287.569 161.059 284.942 164.614C284.876 164.697 284.826 164.78 284.76 164.863C282.365 161.724 278.879 158.817 273.775 156.209C273.544 156.093 273.329 155.977 273.081 155.861C273.197 155.744 273.296 155.645 273.378 155.545C274.997 153.701 275.807 152.09 275.625 150.977C274.37 142.988 263.153 149.699 262.211 143.819C261.914 141.942 265.383 137.159 270.207 131.096C270.24 131.046 270.273 131.013 270.322 130.963C270.421 130.997 270.504 131.046 270.603 131.08C284.199 136.976 288.246 144.583 289.435 153.137H289.419Z" fill="#AD7766"/>
<path d="M240.488 172.453C240.009 171.174 239.481 169.912 238.886 168.666H238.903C248.798 166.274 262.327 159.348 262.575 154.15C262.624 153.137 262.228 152.29 261.584 151.509C259.766 149.25 255.868 147.556 254.365 144.284C252.663 140.597 256.876 137.956 266.176 129.336C273.18 122.841 283.059 112.942 295.481 96.6155C291.203 106.182 278.731 120.466 270.322 130.963C270.273 131.013 270.24 131.046 270.207 131.096C265.383 137.159 261.914 141.942 262.211 143.819C263.153 149.698 274.37 142.988 275.625 150.977C275.807 152.09 274.997 153.701 273.378 155.545C273.296 155.645 273.197 155.744 273.081 155.86C267.91 161.591 255.273 169.48 240.488 172.453Z" fill="#6A964D"/>
<path d="M263.632 209.209C262.492 220.354 259.42 236.664 251.325 248.307C226.711 283.701 178.293 286.209 174.362 287.007H174.328C166.713 287.372 158.586 287.555 149.88 287.555C15.2142 287.555 15.2142 243.308 15.2142 188.747L15.4951 188.498C23.8043 198.596 44.1396 206.137 93.9454 209.159H93.9619C107.607 209.99 123.465 210.472 141.885 210.588V210.77C176.773 216.634 234.128 215.986 263.632 209.209Z" fill="#C6977B"/>
<path d="M241.315 154.033C241.628 155.346 237.895 157.422 233.121 159.182C232.477 158.319 231.799 157.488 231.106 156.674C230.858 156.392 230.627 156.126 230.395 155.86C231.453 155.761 233.286 154.415 235.302 152.489C238.638 152.406 241.05 152.987 241.315 154.033Z" fill="#6A964D"/>
<path d="M233.055 152.605C233.848 152.522 234.591 152.489 235.301 152.489C233.286 154.416 231.452 155.761 230.395 155.861C230.312 154.25 231.023 152.688 233.055 152.605Z" fill="#6A964D"/>
<path d="M200.842 179.13C217.18 173.533 232.477 166.49 231.122 158.202C231.601 158.966 232.295 159.415 233.071 159.199C233.088 159.199 233.104 159.182 233.121 159.182C235.4 162.155 237.35 165.361 238.886 168.666C239.481 169.912 240.009 171.174 240.488 172.453C241.694 175.725 242.504 179.047 242.818 182.336C232.576 184.013 220.104 185.325 204.922 186.222C203.799 183.681 202.428 181.322 200.842 179.13Z" fill="#C47B49"/>
<path d="M230.395 155.861C230.627 156.126 230.858 156.392 231.106 156.674C231.799 157.488 232.477 158.319 233.121 159.182C233.104 159.182 233.088 159.199 233.071 159.199C232.295 159.415 231.601 158.967 231.122 158.202C230.709 157.571 230.428 156.708 230.395 155.861Z" fill="#C6977B"/>
<path d="M230.395 155.844C229.9 155.313 229.454 154.831 228.958 154.333C228.033 153.369 227.058 152.423 226.051 151.542C225.489 149.998 225.489 148.337 226.513 147.157C226.877 146.742 227.521 146.144 228.347 145.43C232.79 141.61 242.686 134.684 244.503 136.86C245.808 138.421 243.445 142.806 240.224 146.958C238.688 148.968 236.937 150.928 235.301 152.489C234.591 152.489 233.848 152.522 233.055 152.605C231.023 152.688 230.313 154.25 230.395 155.844Z" fill="#6A964D"/>
<path d="M228.958 154.333C229.454 154.831 229.9 155.313 230.395 155.844C230.279 155.877 230.164 155.877 230.065 155.861C228.545 155.562 226.794 153.652 226.051 151.542C227.058 152.423 228.033 153.369 228.958 154.333Z" fill="#C6977B"/>
<path d="M224.3 130.415C222.615 129.369 225.34 125.017 225.34 121.828H225.522C225.786 124.669 226.53 127.16 229.553 127.392C230.577 127.475 232.113 126.961 234.013 125.997C230.61 127.791 226.133 131.545 224.3 130.415Z" fill="#6A964D"/>
<path d="M234.013 126.014C235.401 125.316 236.986 124.386 238.721 123.273C238.804 123.224 238.87 123.174 238.952 123.124C239.349 122.875 239.745 122.642 240.142 122.343C257.85 110.733 289.336 83.2453 295.3 87.3809C297.679 89.0419 297.398 92.3637 295.481 96.6157C283.059 112.942 273.18 122.842 266.176 129.336C256.876 137.956 252.663 140.597 254.365 144.284C255.868 147.556 259.767 149.25 261.584 151.509C262.228 152.29 262.624 153.137 262.575 154.15C262.327 159.349 248.798 166.275 238.903 168.65H238.886C237.35 165.361 235.401 162.156 233.121 159.182C237.895 157.422 241.628 155.346 241.315 154.034C241.05 152.987 238.638 152.406 235.301 152.489C236.937 150.928 238.688 148.968 240.224 146.958C243.446 142.806 245.808 138.421 244.503 136.86C242.686 134.684 232.791 141.61 228.347 145.43C227.521 146.144 226.877 146.742 226.513 147.157C225.489 148.337 225.489 149.998 226.051 151.542C222.697 148.553 218.98 146.028 215.049 144.168C214.669 143.968 214.272 143.786 213.876 143.62C212.967 143.204 212.009 142.839 211.068 142.507C211.068 137.906 212.092 132.79 213.579 128.173C214.421 125.499 215.412 122.974 216.436 120.815C218.534 116.464 220.764 113.507 222.218 113.507C225.506 113.507 225.159 117.693 225.456 121.463C225.456 121.529 225.456 121.579 225.456 121.646H225.489C225.489 121.646 225.506 121.762 225.506 121.812H225.324C225.324 125.017 222.598 129.369 224.283 130.415C226.117 131.545 230.593 127.791 233.996 126.014H234.013Z" fill="#77B566"/>
<path d="M222.945 101.897C217.84 111.065 212.339 119.569 207.631 124.668C204.906 122.908 202.477 121.264 200.247 119.569H200.231C198.083 117.958 196.134 116.314 194.267 114.537H194.251C194.251 114.537 194.234 114.504 194.234 114.487C191.872 109.172 189.146 104.588 186.123 100.884C193.144 94.1075 200.297 87.7462 207.02 82.2319C210.093 90.9518 215.445 97.0141 222.945 101.897Z" fill="#E09F57"/>
<path d="M207.632 124.668C212.34 119.569 217.841 111.066 222.945 101.897C232.328 85.0389 240.373 66.0048 239.514 62.002C239.745 62.0684 239.943 62.168 240.092 62.3009C246.039 67.566 245.659 93.875 240.142 122.343C239.745 122.642 239.349 122.875 238.952 123.124C238.87 123.174 238.804 123.223 238.721 123.273C236.986 124.386 235.401 125.316 234.013 125.997C232.113 126.961 230.577 127.475 229.553 127.392C226.53 127.16 225.786 124.668 225.522 121.812C225.522 121.762 225.506 121.695 225.506 121.646H225.472C225.472 121.646 225.472 121.529 225.472 121.463C225.175 117.693 225.522 113.507 222.235 113.507C220.781 113.507 218.551 116.463 216.453 120.815C215.429 122.974 214.438 125.499 213.595 128.173L212.786 127.924C210.952 126.778 209.25 125.715 207.648 124.668H207.632Z" fill="#C47B49"/>
<path d="M207.632 124.668C209.234 125.715 210.935 126.778 212.769 127.924L213.578 128.173C212.092 132.79 211.068 137.906 211.068 142.49C208.309 141.543 205.451 140.862 202.527 140.63C201.668 136.81 200.726 133.089 199.669 129.518C201.734 129.967 204.509 128.073 207.632 124.668Z" fill="#C47B49"/>
<path d="M207.037 82.2153C222.581 69.3764 235.78 60.9555 239.514 62.0019C240.373 66.0047 232.328 85.0389 222.945 101.897C215.445 97.0141 210.093 90.9517 207.02 82.2319H207.037V82.2153Z" fill="#E09F57"/>
<path d="M200.842 179.13C202.428 181.323 203.799 183.681 204.922 186.222C200.974 186.455 196.844 186.671 192.516 186.837C191.244 185.558 189.939 184.296 188.634 183.033C192.599 181.821 196.762 180.525 200.842 179.13Z" fill="#C47B49"/>
<path d="M194.267 114.537C196.134 116.314 198.083 117.958 200.231 119.569H200.247C202.477 121.264 204.906 122.908 207.631 124.668C204.509 128.073 201.734 129.967 199.669 129.518C198.661 126.047 197.538 122.725 196.332 119.569C196.316 119.503 196.283 119.453 196.266 119.387H196.25C195.622 117.709 194.961 116.098 194.267 114.537Z" fill="#E09F57"/>
<path d="M171.355 157.937C183.844 163.634 194.234 169.978 200.842 179.13C196.762 180.525 192.599 181.821 188.634 183.033C187.841 182.286 187.049 181.522 186.256 180.774C185.876 180.409 185.463 180.044 185.083 179.695C184.868 179.462 184.62 179.23 184.389 179.047C183.018 177.735 181.63 176.473 180.21 175.227C178.591 173.749 176.922 172.304 175.287 170.875C172.528 168.45 169.703 166.142 166.928 163.883C168.018 162.305 169.125 160.794 170.248 159.349C170.612 158.867 170.975 158.418 171.355 157.937Z" fill="#E09F57"/>
<path d="M188.37 142.723C188.717 142.557 189.047 142.407 189.394 142.274H189.427C189.939 142.058 190.485 141.876 190.997 141.71C191.707 141.51 192.417 141.328 193.128 141.161C196.266 140.48 199.405 140.331 202.511 140.63C205.435 140.862 208.292 141.543 211.051 142.507C211.993 142.839 212.951 143.204 213.859 143.62C214.256 143.786 214.652 143.968 215.032 144.168C218.964 146.028 222.681 148.553 226.034 151.542C226.778 153.652 228.529 155.562 230.048 155.861C230.147 155.877 230.263 155.877 230.379 155.861C230.412 156.708 230.693 157.571 231.106 158.202C232.46 166.49 217.163 173.533 200.826 179.13C194.218 169.978 183.827 163.634 171.339 157.937C172.743 156.11 174.23 154.349 175.7 152.771H175.716C179.978 148.121 184.224 144.6 188.337 142.723H188.354H188.37Z" fill="#E09F57"/>
<path d="M185.083 179.695C185.462 180.044 185.875 180.409 186.255 180.774C187.048 181.522 187.841 182.286 188.634 183.033C189.939 184.296 191.244 185.558 192.516 186.837C187.461 187.053 182.142 187.219 176.559 187.335C178.904 184.827 181.647 182.369 185.083 179.695Z" fill="#C47B49"/>
<path d="M180.209 175.227C181.63 176.472 183.018 177.735 184.389 179.047C183.018 177.768 181.63 176.472 180.209 175.227Z" fill="#C6977B"/>
<path d="M199.669 129.518C200.726 133.089 201.668 136.81 202.527 140.63C199.421 140.331 196.283 140.48 193.144 141.161L193.012 140.613C191.79 136.826 188.998 120.383 177.104 103.376C171.025 94.7221 157.875 92.0979 147.121 91.2342C151.796 90.0882 156.603 89.5567 161.245 89.7394C162.369 89.7394 163.475 89.8224 164.566 89.9387H164.615C169.175 90.437 173.503 91.6162 177.302 93.5097C180.54 95.1374 183.464 97.6453 186.123 100.884C189.146 104.588 191.872 109.172 194.234 114.47C194.234 114.47 194.251 114.504 194.251 114.52H194.267C194.961 116.098 195.622 117.709 196.25 119.387H196.266C196.266 119.387 196.316 119.503 196.332 119.569C197.538 122.725 198.662 126.047 199.669 129.518Z" fill="#C47B49"/>
<path d="M147.931 88.8424C147.633 87.4306 146.659 85.3047 145.321 82.996C146.13 79.807 147.303 77.6478 148.36 77.681C149.698 77.6977 150.722 81.9164 151.168 87.0154C151.168 88.3109 149.55 88.9753 147.931 88.8424Z" fill="#6A964D"/>
<path d="M263.632 209.209C234.128 215.986 176.773 216.634 141.885 210.77V210.588C144.495 210.604 147.154 210.604 149.88 210.604C204.361 210.604 237.647 207.482 257.982 202.184C271.974 198.546 279.837 193.879 284.265 188.464L284.546 188.747C284.546 239.77 284.546 281.791 174.362 287.007C178.293 286.209 226.711 283.701 251.325 248.307C259.42 236.664 262.492 220.354 263.632 209.209Z" fill="#AD7766"/>
<path d="M148.542 58.1487C154.208 59.9093 153.184 46.8378 160.882 49.2462C165.243 50.6247 169.604 70.4395 164.566 89.9387C163.475 89.8224 162.368 89.7394 161.245 89.7394V89.3241C163.079 79.2756 162.666 61.8193 158.04 59.5106C154.538 57.7667 150.557 62.9986 145.75 63.0816C138.663 63.2311 138.184 44.5458 115.421 2.88989C126.935 4.83317 142.71 56.3383 148.542 58.1487Z" fill="#6A964D"/>
<path d="M147.931 88.8425C146.113 88.7097 144.296 87.5968 144.825 85.3214C144.974 84.4909 145.139 83.7103 145.321 82.9961C146.659 85.3048 147.633 87.4307 147.931 88.8425Z" fill="#6A964D"/>
<path d="M137.887 90.2377C138.928 91.8155 141.224 92.4135 143.371 92.2972C136.384 94.5394 129.875 98.2101 124.837 103.16C124.721 103.292 124.589 103.409 124.473 103.542C113.339 97.8945 102.271 83.8431 103.791 80.7372C105.476 77.3157 110.002 80.7538 113.983 81.8998C114 81.8998 114 81.9164 114 81.9164C116.66 83.5441 119.683 86.1352 121.037 85.1885C122.838 83.9262 120.393 78.5282 120.178 74.6748H120.145C119.633 56.7369 105.922 7.2249 112.943 3.30513C113.752 2.85668 114.578 2.72381 115.437 2.8899C138.201 44.5458 138.68 63.2311 145.767 63.0816C150.574 62.9986 154.555 57.7667 158.057 59.5106C162.682 61.8193 163.095 79.2756 161.278 89.3241V89.7394C156.62 89.5567 151.813 90.0882 147.138 91.2342H147.105L146.956 91.284C147.402 90.9851 147.749 90.6363 147.931 90.2377C148.079 89.9387 148.079 89.457 147.947 88.8425C149.566 88.9754 151.185 88.311 151.185 87.0155C150.739 81.9164 149.715 77.6977 148.377 77.6811C147.319 77.6479 146.147 79.8071 145.337 82.996C141.686 76.6679 135.326 68.8782 132.733 70.0907C129.693 71.5025 135.954 87.2646 137.903 90.2377H137.887Z" fill="#77B566"/>
<path d="M144.825 85.3214C144.296 87.5968 146.113 88.7096 147.931 88.8425C148.063 89.457 148.063 89.9387 147.914 90.2377C147.732 90.6363 147.385 90.9851 146.939 91.2841C146.939 91.2841 146.923 91.2841 146.906 91.3007C145.717 91.583 144.544 91.9152 143.388 92.2972H143.371C141.224 92.4135 138.928 91.8156 137.887 90.2377C135.938 87.2646 129.677 71.5025 132.716 70.0907C135.31 68.8782 141.67 76.668 145.321 82.9961C145.139 83.7103 144.974 84.4909 144.825 85.3214Z" fill="#6A964D"/>
<path d="M143.388 92.2971C144.544 91.9151 145.717 91.5829 146.906 91.3005C146.031 91.8652 144.742 92.2306 143.388 92.2971Z" fill="#C6977B"/>
<path d="M166.251 178.117C164.367 184.561 145.023 187.036 133.08 187.518C133.047 187.518 133.03 187.518 132.997 187.518C129.677 187.468 126.456 187.418 123.333 187.335C123.581 173.931 130.668 162.288 140.844 150.38C155.744 158.701 168.431 170.709 166.251 178.117Z" fill="#E09F57"/>
<path d="M130.717 142.225C135.558 143.67 140.91 146.227 146.526 149.533C153.068 153.403 159.973 158.369 166.928 163.883C169.703 166.142 172.528 168.45 175.287 170.875C176.922 172.304 178.591 173.749 180.209 175.227C181.63 176.473 183.018 177.768 184.389 179.047C184.62 179.23 184.868 179.462 185.083 179.695C181.647 182.369 178.904 184.827 176.559 187.335C168.282 187.518 159.395 187.617 149.863 187.617C144.032 187.617 138.432 187.584 133.08 187.518C145.023 187.036 164.367 184.561 166.251 178.117C168.431 170.709 155.744 158.701 140.844 150.38C134.55 146.858 127.86 144.002 121.714 142.407H121.681C120.063 141.992 118.493 141.66 116.973 141.427C117.618 141.278 118.262 141.162 118.906 141.062C119.385 140.995 119.848 140.946 120.327 140.879C122.309 140.68 124.49 140.813 126.802 141.245C127.579 141.377 128.372 141.56 129.181 141.793C129.693 141.926 130.205 142.058 130.717 142.225Z" fill="#C47B49"/>
<path d="M189.427 142.274H189.411C189.064 142.407 188.733 142.557 188.386 142.723H188.37C184.257 144.599 180.011 148.121 175.749 152.771H175.733C174.262 154.349 172.776 156.11 171.372 157.937C170.992 158.418 170.628 158.867 170.265 159.348C169.141 160.793 168.035 162.305 166.944 163.883C159.99 158.369 153.085 153.402 146.543 149.532C140.926 146.227 135.574 143.669 130.734 142.224C130.222 142.058 129.71 141.925 129.198 141.793C128.388 141.56 127.595 141.377 126.819 141.244C124.506 140.813 122.326 140.68 120.343 140.879C119.864 140.945 119.402 140.995 118.923 141.062C118.493 139.999 118.097 138.936 117.733 137.889C116.246 133.687 115.305 129.784 115.057 126.263C114.925 124.353 114.991 122.542 115.288 120.898C115.387 120.284 115.503 119.686 115.635 119.088C115.652 119.038 115.668 118.971 115.685 118.922C117.139 112.959 120.261 107.793 124.473 103.542C124.589 103.409 124.721 103.292 124.837 103.176C129.875 98.21 136.384 94.5394 143.371 92.2971H143.388C144.742 92.2307 146.031 91.8653 146.906 91.3006C146.923 91.284 146.939 91.284 146.939 91.284L147.088 91.2341H147.121C157.875 92.0978 171.025 94.7221 177.104 103.375C188.998 120.383 191.789 136.826 193.012 140.613L193.144 141.161C192.434 141.327 191.723 141.51 191.013 141.709C190.501 141.876 189.956 142.058 189.444 142.274H189.427Z" fill="#E09F57"/>
<path d="M119.418 80.3053C120.013 79.2756 120.228 77.3157 120.129 74.6748H120.162C120.376 78.5281 122.821 83.9261 121.021 85.1884C119.666 86.1352 116.643 83.5441 113.983 81.9164C116.147 82.5476 118.13 82.4977 119.418 80.3053Z" fill="#6A964D"/>
<path d="M115.272 120.898C114.975 122.542 114.908 124.353 115.041 126.263C115.288 129.784 116.23 133.687 117.717 137.889C116.247 139.55 114.727 141.095 113.124 142.523H113.108C113.108 142.523 113.058 142.557 113.042 142.573L112.794 142.673H112.778C107.937 142.839 103.345 143.022 98.9673 143.254C93.0865 133.737 83.5052 125.449 80.8456 126.545C75.4108 128.787 85.7023 139.002 79.2598 142.208C77.5087 143.071 73.3624 142.689 67.8284 141.61C61.3858 140.364 53.0436 138.172 44.5031 135.913C38.9526 134.468 33.336 132.973 28.0664 131.727C27.9838 131.711 27.9177 131.694 27.8351 131.677C31.2546 130.083 35.3018 128.621 40.142 127.293C51.7551 124.087 67.8284 121.646 90.0634 120.134C97.811 119.603 106.335 119.204 115.668 118.922C115.652 118.971 115.635 119.038 115.619 119.088C115.487 119.686 115.371 120.284 115.272 120.898Z" fill="#C6977B"/>
<path d="M114.231 142.141C114.231 142.141 114.182 142.175 114.165 142.175C113.802 142.274 113.455 142.39 113.124 142.523C114.727 141.095 116.247 139.55 117.717 137.889C118.08 138.936 118.477 139.999 118.906 141.062C118.262 141.161 117.618 141.278 116.973 141.427H116.94C116.015 141.626 115.107 141.859 114.231 142.141Z" fill="#C6977B"/>
<path d="M112.777 142.673H112.794L113.042 142.573C113.042 142.573 113.091 142.523 113.108 142.523H113.124C113.455 142.391 113.802 142.274 114.165 142.175C114.182 142.175 114.215 142.141 114.231 142.141C115.107 141.859 116.015 141.627 116.94 141.427H116.973C118.493 141.66 120.062 141.992 121.681 142.407H121.714C127.86 144.002 134.55 146.858 140.844 150.38C130.668 162.288 123.581 173.931 123.333 187.335C109.209 187.019 96.8363 186.455 86.0161 185.624C86.1317 179.446 87.4863 173.001 89.8816 167.022C89.8816 167.022 89.8871 167.011 89.8981 166.989C90.7241 165.876 91.2858 164.597 91.4345 163.484C91.451 163.468 91.451 163.451 91.451 163.451C93.4828 159.332 96.0103 155.479 99.0333 152.19C99.9749 151.144 100.983 150.13 102.04 149.2C105.212 146.377 108.813 144.151 112.777 142.673Z" fill="#E09F57"/>
<path d="M98.9673 143.254C103.345 143.022 107.937 142.839 112.777 142.673C108.813 144.151 105.212 146.377 102.04 149.2C101.23 147.207 100.19 145.197 98.9673 143.254Z" fill="#C47B49"/>
<path d="M91.2198 161.574C89.6339 158.684 66.8868 158.053 66.0938 162.338C65.4826 165.66 81.8698 169.663 85.4215 169.779C87.1065 169.829 88.7419 168.6 89.8817 167.022C87.4864 173.001 86.1318 179.446 86.0162 185.624C68.8526 184.329 55.5545 182.452 45.2465 180.043C45.2465 176.207 49.4919 175.277 52.4489 173.832C52.4654 173.798 52.4984 173.798 52.5149 173.798C55.4719 172.486 61.7658 172.902 61.8814 170.975C61.9971 169.198 54.7946 167.304 50.4335 165.461C50.417 165.461 50.4005 165.444 50.4005 165.444C45.709 162.388 38.1762 158.435 30.4451 154.183C30.2964 154.083 30.1312 154 29.9826 153.917C24.0852 150.662 18.1547 147.224 13.3146 143.935C13.2981 143.935 13.2815 143.935 13.265 143.902C15.4456 139.966 18.9972 136.361 24.8286 133.189C58.5941 142.507 78.6816 153.735 82.3654 148.868C85.2893 145.031 82.5141 138.238 86.1649 136.826C89.4522 135.564 96.2747 143.752 99.0499 152.19C96.0269 155.478 93.4994 159.332 91.4675 163.451C91.5832 162.72 91.5171 162.072 91.2363 161.574H91.2198Z" fill="#77B566"/>
<path d="M89.8982 166.989C90.3607 165.793 90.8728 164.63 91.4345 163.484C91.2858 164.597 90.7242 165.876 89.8982 166.989Z" fill="#C6977B"/>
<path d="M66.0938 162.338C66.8867 158.053 89.6339 158.684 91.2197 161.574C91.5006 162.072 91.5666 162.72 91.451 163.451C91.451 163.451 91.451 163.467 91.4345 163.484C90.8728 164.63 90.3607 165.793 89.8982 166.989C89.8982 166.989 89.8927 167 89.8817 167.022C88.7418 168.6 87.1064 169.829 85.4215 169.779C81.8698 169.663 65.4826 165.66 66.0938 162.338Z" fill="#6A964D"/>
<path d="M50.4335 165.461C54.7946 167.304 61.997 169.198 61.8814 170.975C61.7658 172.902 55.4719 172.486 52.5149 173.799C54.3155 172.918 55.6205 171.839 55.158 169.796C54.9102 168.733 53.1592 167.254 50.4335 165.461Z" fill="#6A964D"/>
<path d="M50.4004 165.444C50.4004 165.444 50.417 165.461 50.4335 165.461C53.1592 167.255 54.9102 168.733 55.158 169.796C55.6206 171.839 54.3155 172.918 52.5149 173.799C52.4984 173.799 52.4654 173.799 52.4488 173.832C49.4919 175.277 45.2464 176.207 45.2464 180.044C28.4958 176.174 19.658 170.975 14.9995 164.863C17.8739 161.093 22.3341 157.654 29.2557 154.681L30.4451 154.183C38.1761 158.435 45.7089 162.388 50.4004 165.444Z" fill="#C47B49"/>
<path d="M86.1483 136.827C82.4975 138.238 85.2728 145.032 82.3489 148.868C78.6651 153.735 58.5775 142.507 24.812 133.189C25.5554 132.774 26.3318 132.392 27.1412 131.993C27.3725 131.877 27.6038 131.777 27.8351 131.678C27.9177 131.694 27.9837 131.711 28.0663 131.728C33.336 132.973 38.9526 134.468 44.5031 135.913C53.0436 138.172 61.3858 140.364 67.8284 141.61C73.3623 142.69 77.5087 143.072 79.2597 142.208C85.7023 139.002 75.4107 128.788 80.8456 126.545C83.5052 125.449 93.0864 133.737 98.9673 143.254C100.19 145.198 101.23 147.207 102.04 149.2C100.983 150.131 99.975 151.144 99.0334 152.19C96.2581 143.753 89.4356 135.564 86.1483 136.827Z" fill="#6A964D"/>
<path d="M24.812 133.189C18.9807 136.361 15.429 139.966 13.2485 143.902C5.73217 138.72 0.941567 133.77 3.36991 130.05C3.89853 129.236 5.08792 128.754 6.77289 128.572V128.754C13.1659 130.116 19.1789 131.628 24.812 133.189Z" fill="#77B566"/>
<path d="M176.559 187.335C182.142 187.219 187.461 187.053 192.516 186.837C196.844 186.671 200.974 186.455 204.922 186.222C220.104 185.325 232.576 184.013 242.818 182.336C248.566 181.406 253.605 180.359 258.032 179.197L258.115 179.529C261.881 184.694 262.608 197.882 257.982 202.184C237.647 207.482 204.361 210.605 149.88 210.605C147.154 210.605 144.495 210.604 141.885 210.588C123.465 210.472 107.607 209.99 93.9619 209.159H93.9454C44.1396 206.137 23.8043 198.596 15.4951 188.498C9.79589 181.538 9.7959 173.367 9.7959 164.614V162.986C9.7959 161.74 9.81242 160.511 9.84545 159.315C9.89501 157.239 10.0107 155.213 10.2915 153.22H10.3245C10.9357 157.272 12.1912 161.092 14.8178 164.63C14.8673 164.713 14.9334 164.78 14.9995 164.863C19.6579 170.975 28.4958 176.174 45.2464 180.044C55.5545 182.452 68.8525 184.329 86.0161 185.624C96.8363 186.455 109.209 187.019 123.333 187.335C126.455 187.418 129.677 187.468 132.997 187.518C133.03 187.518 133.047 187.518 133.08 187.518C138.432 187.584 144.032 187.617 149.863 187.617C159.395 187.617 168.282 187.518 176.559 187.335Z" fill="#C6977B"/>
<path d="M10.2915 153.22C10.7211 150.097 11.5305 147.091 13.0503 144.251L13.2485 143.902C13.2485 143.902 13.2815 143.918 13.2981 143.935C18.1382 147.224 24.0687 150.662 29.9661 153.917C30.1147 154 30.2799 154.083 30.4286 154.183L29.2392 154.681C22.3176 157.654 17.8574 161.092 14.983 164.863C14.917 164.78 14.8509 164.713 14.8013 164.63C12.1747 161.092 10.9193 157.272 10.3081 153.22H10.275H10.2915Z" fill="#C6977B"/>
<path d="M6.77283 128.572C11.1339 128.107 18.9146 129.535 27.835 131.678C27.6037 131.777 27.3724 131.877 27.1412 131.993C26.3317 132.392 25.5553 132.774 24.812 133.189C19.1789 131.628 13.1658 130.116 6.78935 128.754V128.572H6.77283Z" fill="#6A964D"/>
<path d="M202.51 140.314C205.434 140.547 208.292 141.211 211.051 142.191C211.993 142.523 212.934 142.889 213.859 143.304C219.41 145.746 224.564 149.466 228.941 154.017C229.685 154.764 230.379 155.562 231.072 156.376C235.169 161.126 238.407 166.54 240.472 172.154C241.661 175.426 242.471 178.748 242.785 182.037" stroke="#3F2A25" stroke-linecap="round" stroke-linejoin="round"/>
<path d="M166.895 163.567C169.687 165.826 172.495 168.135 175.254 170.543C176.889 171.972 178.557 173.417 180.176 174.911C181.597 176.157 182.985 177.419 184.356 178.732C184.587 178.914 184.835 179.13 185.05 179.363C185.429 179.728 185.842 180.094 186.222 180.442C188.337 182.452 190.451 184.462 192.5 186.521" stroke="#3F2A25" stroke-linecap="round" stroke-linejoin="round"/>
<path d="M240.472 172.138C255.505 169.115 268.34 160.976 273.362 155.23C274.981 153.369 275.79 151.775 275.609 150.662C274.353 142.656 263.137 149.367 262.195 143.504C261.898 141.627 265.367 136.843 270.19 130.781C282.332 115.617 303.047 92.4967 295.283 87.0655C289.32 82.9298 257.834 110.418 240.125 122.028C239.646 122.36 239.184 122.659 238.704 122.958C234.575 125.599 231.304 127.21 229.536 127.077C226.464 126.845 225.737 124.254 225.489 121.33H225.472C225.142 117.51 225.539 113.192 222.218 113.192C220.764 113.192 218.534 116.148 216.436 120.5C213.628 126.429 211.068 134.95 211.068 142.175" stroke="#3F2A25" stroke-linecap="round" stroke-linejoin="round"/>
<path d="M171.322 157.621C186.867 164.697 199.157 172.769 204.972 186.023" stroke="#3F2A25" stroke-linecap="round" stroke-linejoin="round"/>
<path d="M284.529 188.415C284.529 242.976 284.529 287.223 149.863 287.223C15.1978 287.223 15.1978 242.993 15.1978 188.415" stroke="#3F2A25" stroke-linecap="round" stroke-linejoin="round"/>
<path d="M289.931 164.298C289.931 189.694 289.931 210.289 149.847 210.289C9.76294 210.289 9.76294 189.694 9.76294 164.298" stroke="#3F2A25" stroke-linecap="round" stroke-linejoin="round"/>
<path d="M289.402 152.788C288.808 156.874 287.569 160.744 284.926 164.298C274.733 178.067 243.776 187.302 149.847 187.302C55.918 187.302 25.0103 178.051 14.8014 164.315C12.1748 160.76 10.9193 156.94 10.3081 152.904" stroke="#3F2A25" stroke-linecap="round" stroke-linejoin="round"/>
<path d="M225.489 121.33H225.456" stroke="#3F2A25" stroke-linecap="round" stroke-linejoin="round"/>
<path d="M9.76294 164.282C9.76294 162.87 9.76293 161.458 9.79597 160.079C9.79597 159.548 9.81249 159.016 9.82901 158.502C9.89508 156.608 10.0272 154.748 10.2916 152.921V152.871" stroke="#3F2A25" stroke-linecap="round" stroke-linejoin="round"/>
<path d="M189.427 141.959H189.411H189.394" stroke="#3F2A25" stroke-linecap="round" stroke-linejoin="round"/>
<path d="M240.125 122.028C245.643 93.5596 246.023 67.234 240.076 61.9689C237.399 59.6104 223.54 68.2638 207.02 81.8833C200.314 87.3976 193.128 93.7589 186.107 100.535" stroke="#3F2A25" stroke-linecap="round" stroke-linejoin="round"/>
<path d="M194.218 114.155C194.218 114.155 194.251 114.188 194.251 114.205C199.207 118.955 204.84 122.676 212.752 127.608" stroke="#3F2A25" stroke-linecap="round" stroke-linejoin="round"/>
<path d="M207.004 81.8833C210.671 92.3305 217.609 98.9409 227.57 104.339" stroke="#3F2A25" stroke-linecap="round" stroke-linejoin="round"/>
<path d="M192.5 186.521C190.451 184.462 188.337 182.452 186.222 180.442C185.843 180.077 185.43 179.712 185.05 179.363C184.818 179.13 184.571 178.914 184.356 178.732C182.985 177.436 181.597 176.157 180.176 174.912C178.557 173.417 176.889 171.972 175.254 170.543C172.495 168.118 169.687 165.826 166.895 163.567C159.957 158.053 153.052 153.087 146.51 149.217C140.282 145.563 134.401 142.823 129.148 141.461C128.339 141.228 127.546 141.062 126.769 140.913C124.457 140.481 122.276 140.348 120.294 140.547C119.815 140.614 119.352 140.663 118.873 140.73C117.271 140.979 115.701 141.344 114.198 141.809C114.182 141.809 114.149 141.826 114.132 141.826C113.769 141.942 113.405 142.059 113.075 142.191C113.058 142.191 113.025 142.208 113.009 142.241C108.945 143.703 105.261 145.978 102.023 148.868C92.0953 157.704 86.2474 172.038 85.9996 185.309M93.9289 208.844H93.9124" stroke="#3F2A25" stroke-linecap="round" stroke-linejoin="round"/>
<path d="M45.2299 179.728C45.2299 173.516 56.3805 174.895 55.1415 169.464C54.4642 166.54 42.3721 160.445 29.9661 153.602H29.9495C24.0521 150.346 18.1217 146.908 13.2981 143.62C5.74872 138.421 0.941586 133.471 3.36993 129.734C5.30269 126.778 15.5942 128.422 28.0663 131.412C33.3195 132.658 38.9526 134.152 44.5031 135.597C53.0436 137.856 61.3858 140.049 67.8284 141.294C73.3624 142.374 77.4922 142.756 79.2432 141.909C85.7023 138.703 75.3942 128.489 80.8456 126.246C84.0339 124.934 97.3154 137.225 102.04 148.885" stroke="#3F2A25" stroke-linecap="round" stroke-linejoin="round"/>
<path d="M192.5 186.521C190.451 184.462 188.337 182.452 186.222 180.442C185.842 180.077 185.429 179.712 185.05 179.363C184.818 179.13 184.57 178.914 184.356 178.732C182.985 177.42 181.597 176.157 180.176 174.912C178.557 173.417 176.889 171.972 175.254 170.543C172.495 168.118 169.687 165.826 166.895 163.568C168.002 161.99 169.092 160.478 170.215 159.017C170.579 158.535 170.942 158.087 171.322 157.621C172.743 155.794 174.229 154.034 175.683 152.439H175.7C180.325 147.407 184.934 143.686 189.361 141.959C189.361 141.959 189.367 141.959 189.378 141.959" stroke="#3F2A25" stroke-linecap="round" stroke-linejoin="round"/>
<path d="M118.89 140.73C118.46 139.667 118.064 138.604 117.7 137.557C116.214 133.355 115.272 129.436 115.024 125.914C114.892 124.021 114.958 122.211 115.255 120.55C115.371 119.935 115.487 119.337 115.619 118.739C117.106 112.527 120.376 107.196 124.82 102.828H124.837C134.88 92.9286 150.822 88.1451 164.599 89.5901C169.158 90.0884 173.503 91.2676 177.302 93.1611C180.54 94.7888 183.464 97.2968 186.107 100.536C189.146 104.239 191.856 108.857 194.218 114.138C194.218 114.155 194.234 114.155 194.234 114.188C194.961 115.816 195.655 117.494 196.299 119.221C198.777 125.615 200.826 132.757 202.511 140.281C198.711 139.916 194.862 140.232 190.997 141.361C190.484 141.527 189.939 141.693 189.427 141.926H189.411" stroke="#3F2A25" stroke-linecap="round" stroke-linejoin="round"/>
<path d="M124.82 102.844C113.62 97.2635 102.387 83.0461 103.923 79.9235C106.517 74.6418 115.916 85.7201 119.567 79.4917C124.242 71.4861 105.013 6.99255 113.075 2.49146C124.655 -3.95291 142.413 55.3917 148.691 57.335C154.357 59.0956 153.332 46.0242 161.014 48.4325C165.408 49.8111 169.802 69.958 164.582 89.6233" stroke="#3F2A25" stroke-linecap="round" stroke-linejoin="round"/>
<path d="M126.786 140.929C137.936 132.608 148.938 127.243 161.212 127.791" stroke="#3F2A25" stroke-linecap="round" stroke-linejoin="round"/>
<path d="M175.055 152.838C175.287 152.705 175.485 152.555 175.7 152.456H175.733" stroke="#3F2A25" stroke-linecap="round" stroke-linejoin="round"/>
<path d="M142.43 148.204C131.395 160.777 123.565 172.935 123.317 187.036" stroke="#3F2A25" stroke-linecap="round" stroke-linejoin="round"/>
<path d="M185.066 179.363C181.63 182.053 178.855 184.512 176.526 187.02" stroke="#3F2A25" stroke-linecap="round" stroke-linejoin="round"/>
<path d="M27.1412 131.18C41.4965 124.287 67.7623 119.553 115.767 118.108" stroke="#3F2A25" stroke-linecap="round" stroke-linejoin="round"/>
<path d="M270.587 130.266C289.947 138.637 289.947 150.496 289.947 163.617" stroke="#3F2A25" stroke-linecap="round" stroke-linejoin="round"/>
<path d="M199.537 118.723H199.521" stroke="#3F2A25" stroke-linecap="round" stroke-linejoin="round"/>
<path d="M13.0502 143.437C10.5723 148.071 9.97761 153.153 9.84545 158.502C9.81242 159.697 9.7959 160.926 9.7959 162.172V163.617" stroke="#3F2A25" stroke-linecap="round" stroke-linejoin="round"/>
<path d="M98.2405 141.809H98.257C104.171 141.494 110.465 141.245 117.205 141.045H117.221" stroke="#3F2A25" stroke-linecap="round" stroke-linejoin="round"/>
<path d="M211.811 142.457H211.778" stroke="#3F2A25" stroke-linecap="round" stroke-linejoin="round"/>
<path d="M273.759 154.731C278.979 157.406 282.53 160.379 284.926 163.601C285.008 163.717 285.091 163.833 285.157 163.95" stroke="#3F2A25" stroke-linecap="round" stroke-linejoin="round"/>
<path d="M126.918 140.813C126.703 140.813 126.505 140.813 126.29 140.829H126.274" stroke="#3F2A25" stroke-linecap="round" stroke-linejoin="round"/>
<path d="M14.5701 163.983C14.6361 163.866 14.7187 163.75 14.8013 163.634C17.6757 159.764 22.1855 156.243 29.2392 153.22" stroke="#3F2A25" stroke-linecap="round" stroke-linejoin="round"/>
</svg>
