<svg xmlns="http://www.w3.org/2000/svg" xmlns:xlink="http://www.w3.org/1999/xlink" width="333" height="555" fill="none" xmlns:v="https://vecta.io/nano"><style><![CDATA[.B{stroke-linejoin:round}.C{fill:#bf7e67}.D{fill:#935d51}.E{fill:#dba77f}.F{stroke-linecap:round}.G{fill:#b27967}.H{fill:#fff}.I{fill:#3d587f}.J{fill:#507096}.K{fill:#ead0d0}.L{fill:#eaa0a0}.M{fill:#fcb9b9}.N{fill:#6a964d}]]></style><g stroke="#3f2a25" stroke-width="2" class="B F"><path d="M234.856 434.242c1.077 6.511-.05 17.313-.762 24.155-4.142 39.33-9.609 86.663-17.429 90.092-7.902 3.479-13.469 4.887-21.189.497-5.401-3.098-1.938-60.503-8.201-63.75-1.507-.779-3.247-1.259-5.069-1.491h-.017c-5.053-.729-10.686.215-13.502 1.06-1.309.381-2.187 2.319-2.783 5.301-3.032 15.193 1.623 57.638-3.479 60.388-7.505 4.059-15.408 2.17-20.743-.216-6.428-2.866-6.245-10.42-23.127-90.108-1.359-6.428-2.121-16.932-1.011-24.47m39.082-4.987c5.583.365 11.696.547 18.34.547l9.576-.133c3.992-.115 7.753-.298 11.299-.563m62.673-56.991c0 11.912 0 21.57-83.548 21.57s-83.548-9.658-83.548-21.57m4.357-162.408c-4.192 12.707-6.627 25.978-8.168 38.188-4.622 36.696 40.341 55.102 82.405 55.102s86.597-24.288 81.826-58.134l-1.177-7.406c-2.949-16.716-8.184-34.459-17.014-49.519m-37.525-40.341c8.93-16.849 18.986-44.201 25.895-76.043 9.609-44.251 32.388-69.499 44.085-67.859 15.689 2.22 34.94 60.884 12.094 105.466-14.032 27.386-37.425 44.367-51.209 55.865-.017.016-.05.033-.066.066m-84.029-15.159c-7.29-16.932-13.718-43.025-17.71-76.54C119.814 29.904 99.536 2.585 87.74 3.115c-15.822.712-40.573 57.289-22.067 103.826 12.21 30.683 36.001 50.364 47.962 63.071a4.8 4.8 0 0 1 .298.315"/><path d="M88.237 244.747c-20.808-8.4-48.227-9.742-67.08-5.086m13.7 30.384c18.555-6.544 37.359-9.742 53.114-8.449m164.082-18.837c20.808-8.4 47.316-9.675 66.153-5.02m-13.701 30.401c-18.556-6.544-37.359-9.742-53.115-8.45m-87.706 44.616c.811 3.661 1.06 7.703-.663 10.835-2.585 4.705-17.81 2.899-24.486 7.952-5.998 4.539-19.616 26.789-21.521 31.279m65.192 129.389h-.017m7.654-181.012c0 3.429.878 6.461 2.452 10.453 2.104 5.352 17.445 3.479 23.873 8.383 6.644 5.086 17.992 28.579 19.136 33.168m-123.161 70.974l1.558-1.988c7.67-9.858 14.661-18.721 20.924-22.598 2.584-1.607 5.036-2.369 7.356-1.988 9.857 1.574 18.356 23.442 14.695 31.842-.017.033-.017.083-.033.116 0 0 0 .033-.017.05-2.137 8.002-25.613 12.011-39.082 4.754-2.087-1.126-3.943-2.534-5.434-4.241m.033-6.676s-.016.032-.033.049m-17.462-40.291c0 14.198 0 26.888 13.718 35.387a38.94 38.94 0 0 0 5.185 2.701c.05.033.1.066.15.066m124.783-1.06l.149-.067c1.889-.96 3.562-1.988 5.053-3.081 11.581-8.449 11.581-20.527 11.581-33.946M91.733 368.073c.348 1.855 1.077 3.595 2.535 5.202a1.13 1.13 0 0 0 .132.149c4.423 4.672 15.374 8.234 42.478 9.841 6.461.397 13.834.646 22.25.795l15.821.133 15.905-.133 9.509-.232 7.406-.282c30.981-1.424 43.041-5.152 47.73-10.139.05-.049.099-.099.132-.149 1.491-1.607 2.187-3.379 2.535-5.218m-166.748 5.086v-.679l.033-1.723c.083-2.502.431-4.888 1.905-7.058.663-.994 1.557-1.938 2.767-2.833"/><path d="M106.278 356.492l3.231-.778 7.488-1.342c5.931-.845 13.254-1.541 22.283-2.021.265-.017.53-.034.795-.034 4.424-.231 9.262-.397 14.546-.53l20.328-.232c10.421 0 19.55.149 27.535.431l2.071.083h.016l10.272.53c.365.017.729.05 1.094.083l4.075.298c3.048.232 5.848.514 8.433.812 8.217.961 14.181 2.203 18.505 3.694 11.548 3.927 11.548 9.477 11.548 15.64m-150.132 47.018c.016 3.777.861 8.25 3.744 11.116m127.617-7.753l.166.232m.033.828s-.017 0-.033-.05l-1.409-1.789c-10.901-13.999-20.394-26.044-28.412-24.768-9.858 1.574-18.357 23.442-14.695 31.842.099.431.248.812.464 1.209 4.44 8.466 33.449 11.631 44.085-.53m3.761-11.779c.016 3.811-.829 8.383-3.761 11.299M191.55 270.956c24.536-1.623 63.767 10.703 91.798 30.003"/><use xlink:href="#B"/><use xlink:href="#C"/><path d="M3.512 240.075c13.95-31.262 281.626-87.972 325.876-49.238m-93.124-13.386c-2.733-4.026-5.848-7.687-9.277-10.967m-30.865-17.446c-16.915-4.837-35.801-4.224-53.23 2.353-.033.017-.05.033-.083.05"/><path d="M92.346 201.954c5.335-12.972 12.674-23.575 21.289-31.942m.297.299c13.536-8.317 15.839-10.222 28.976-18.92m53.214-2.353c12.773 7.19 18.207 10.852 30.799 17.495m-76.69 200.248c-.596-1.458-1.441-2.933-2.386-4.341-3.363-4.937-8.217-8.996-9.625-8.416-3.082 1.259 2.75 7.024-.911 8.83-.067.033-.133.066-.216.083-.513.182-1.275.215-2.253.149-1.093-.066-2.435-.282-3.992-.58h-.017c-3.645-.696-8.383-1.938-13.221-3.214l-9.31-2.352-2.601-.597c-5.865-1.292-10.438-1.806-11.399-.348-.878 1.342-.099 2.949 1.673 4.689 1.027 1.01 2.386 2.054 3.96 3.131 1.64 1.11 3.496 2.253 5.451 3.38l3.993 2.253c7.041 3.86 13.899 7.306 14.28 8.946.415 1.839-1.673 2.286-3.429 3.115"/></g><g fill="#bc7171"><path d="M210.502 157.471l3.993 2.319c-1.623-.43-2.949-1.226-3.993-2.319zM330.2 192.858c1.64 14.381-44.267 36.001-79.605 46.123-2.949-16.732-8.184-34.459-17.014-49.519 45.675-4.953 82.918-6.097 93.571-.248.016 0 .033.016.033.016a24.51 24.51 0 0 1 2.137 1.673c.497.597.795 1.243.878 1.955z"/><path d="M110.95 208.2l-15.241 3.032c-48.641 10.039-86.961 20.99-92.246 28.893 4.97-11.067 41.666-25.298 88.999-37.392 41.351-10.554 90.804-19.434 134.294-23.095l9.543-.729c41.103-2.783 75.645-.431 90.854 10.305-10.653-5.848-47.896-4.705-93.571.248-27.568 2.966-58.184 7.34-87.889 12.409l-9.046 1.557-25.696 4.772zm156.328 83.167l-6.726-3.413 1.425-2.965c1.391 2.087 17.279-3.43 20.013.049 1.292 1.64-10.139 3.264-9.941 4.755.266 2.054 18.937-.199 20.527 1.938.928 1.226-10.619 1.806-10.586 3.032.033 1.557 17.942 2.253 17.942 3.661 0 .928-9.51 2.071-10.371 3.894-1.806 3.794 7.174 15.971 4.539 16.451-3.992.745-8.101-14.049-11.298-13.701-2.154.232-.348 7.289-2.32 7.405-2.883.183-5.252-14.463-7.786-14.264-1.79.149-2.37 7.638-3.463 7.571-1.292-.083-1.11-10.553-3.429-11.597l1.474-2.816zM282.47 26.922c7.704 21.62 10.139 55.5-4.34 83.747-14.033 27.385-37.426 44.367-51.209 55.864-.017.017-.05.033-.067.066-4.92-2.568-8.764-4.721-12.359-6.809.033.017.05.033.083.033l1.325-1.888c.497-.729.994-1.475 1.475-2.253h.016c11.1 2.534 14.927 1.308 34.924-19.235 16.02-16.434 37.69-57.372 30.136-109.525h.016z"/><path d="M282.454 26.922c7.554 52.154-14.116 93.091-30.136 109.525-19.997 20.543-23.824 21.769-34.924 19.251h-.016c6.908-10.785 14.596-27.004 15.374-47.945.961-25.762 4.208-46.355 9.725-66.451 3.363-9.112 18.638-35.934 30.782-31.428 3.38 3.81 6.61 9.725 9.211 17.048h-.016z"/><path d="M273.259 9.874c-12.144-4.506-27.419 22.316-30.782 31.428-5.517 20.096-8.764 40.689-9.725 66.451-.778 20.941-8.466 37.16-15.374 47.929-.481.778-.978 1.524-1.475 2.253l-1.325 1.889c-.033 0-.05-.017-.083-.034l-3.993-2.319c-8.465-8.615-.96-35.702 2.867-50.795l-.265-.083c3.247-10.338 6.262-21.62 8.846-33.532 9.609-44.251 32.389-69.499 44.086-67.859 2.385.331 4.854 1.971 7.223 4.672zm-5.981 281.493l-1.474 2.816-.232-.066c-1.508-.265-2.784 3.347-4.324 3.015-1.939-.414-1.674-6.544-3.032-6.693h-.05l.994-3.148 1.392.663 6.726 3.413z"/><path d="M264.495 281.36c.679 1.425-2.899 2.386-2.601 3.463.016.066.05.116.083.165l-1.425 2.966-1.392-.663-6.014-2.684-1.474-.629c2.866-3.181 12.409-3.43 12.823-2.618z"/><path d="M259.16 287.291l-.994 3.148c-1.292 0-2.402 5.484-3.611 5.401-.713-.05-2.784-6.163-1.475-11.067l.066-.166c2.022.845 4.026 1.757 6.014 2.684zm-1.043 80.815c.331 1.789.331 3.661.331 5.533 0 4.059 0 7.87-3.314 11.1-2.816 2.767-8.068 5.136-17.793 6.909 2.734-1.972 2.32-8.532.133-10.951 10.006-1.822 15.242-4.307 17.975-7.207.05-.049.1-.099.133-.149 1.491-1.623 2.187-3.38 2.535-5.235z"/><path d="M246.901 357.553c8.018 2.733 10.47 6.461 11.216 10.553-.348 1.856-1.044 3.612-2.535 5.235-.033-.049-.083-.099-.133-.165-1.425-1.508-3.545-2.9-6.66-4.159-6.478-2.601-17.313-4.572-35.42-5.666 2.087-3.23-.017-8.963-3.413-10.967l4.837.281c.365.017.729.05 1.094.083l4.075.298c3.049.232 5.849.514 8.433.812l3.413.431 3.429.514c4.821.795 8.648 1.706 11.664 2.75z"/><path d="M237.474 380.697c-7.174 1.342-16.816 2.336-29.755 2.932l-7.405.282-3.264.099v-.298l-.033-.033c-.779-.729-1.574-1.441-2.369-2.154l-2.8-2.452c-1.557-1.358-3.148-2.667-4.738-3.943-3.927-3.098-7.837-5.914-11.548-8.084-.662-.382-1.308-.763-1.955-1.094-2.816-1.524-5.467-2.667-7.886-3.28-.314-.1-.629-.166-.927-.216l10.106-.049 24.652.331 12.276.53h.016l1.525.083c18.108 1.094 28.942 3.065 35.42 5.666 3.115 1.259 5.235 2.651 6.66 4.158.05.067.1.116.133.166-.033.05-.083.099-.133.149-2.733 2.899-7.969 5.385-17.975 7.207zm17.66 4.042l.067.066c0 13.42 0 25.497-11.581 33.947-1.491 1.093-3.164 2.12-5.053 3.081-.049.017-.099.05-.149.066l-.431.332-6.312-7.969c.597-.563 1.177-1.16 1.723-1.789 4.805-5.385 6.627-12.939 7.306-18.092-7.554 1.359-18.207 2.187-29.539 2.469-14.678.348-30.483-.199-42.213-1.69l5.948.033c30.732 0 50.165-1.292 62.441-3.545 9.725-1.773 14.977-4.142 17.793-6.909zm-3.363-138.369c1.773 12.542-3.23 23.758-12.359 32.919a180.54 180.54 0 0 0-9.791-3.065c2.8-3.363 5.152-6.809 6.892-10.188.58-1.11 1.093-2.27 1.541-3.463 1.176-.977 1.806-2.137 1.656-3.297-.049-.348-.149-.679-.347-.994 3.661-14.711-.15-33.631-4.623-50.629-10.636-1.806-23.939-2.717-38.204-3.015 1.723-1.011 2.966-2.137 2.85-2.999-.166-1.342-3.711-2.452-6.643-1.574-2.452.746-4.109 2.8-4.772 4.473-13.485-.066-27.501.348-40.705 1.027-.183-1.275-.68-2.617-1.574-3.694 29.705-5.07 60.321-9.443 87.889-12.409 8.83 15.06 14.065 32.787 17.014 49.503.447 2.518.828 4.97 1.176 7.405z"/><path d="M237.987 422.231l.431-.332.149-.066c1.889-.961 3.562-1.988 5.053-3.081.017 3.81-.828 8.88-3.76 11.796-1.392 1.59-3.099 2.932-5.037 4.009-10.702 6.063-28.164 4.688-35.818-.232 19.549 2.551 37.541-5.003 27.766-25.812 1.607 1.773 3.231 3.695 4.904 5.749l6.312 7.969zm1.723-162.955c.149 1.16-.48 2.32-1.656 3.297a36.69 36.69 0 0 0 1.308-4.291c.199.315.299.646.348.994z"/><path d="M198.458 222.364c-5.401 7.588-8.863 18.523-7.14 24.172a5.21 5.21 0 0 0 .248.712c1.657 3.943 9.427 5.186 17.346 4.026 7.969-1.176 16.054-4.804 18.124-10.553 1.541-4.291.597-9.377-1.689-13.95-3.794-7.637-11.283-13.833-17.048-12.442-3.512.845-6.958 3.96-9.841 8.035zm-33.581 47.217c-3.546.116-7.025-.464-10.024-.547-3.164-.132-5.782.265-7.355 2.518-2.817 4.026 1.723 7.406 8.233 9.212 4.341 1.226 9.56 1.739 14.049 1.308 4.838-.48 9.692-2.203 13.751-4.522 3.33-1.906 6.113-4.192 7.952-6.528 2.552-3.247 3.231-6.56.878-8.996-3.943-4.059-8.051-1.822-12.806 1.243-3.562 2.286-7.488 5.036-11.978 5.981a16.06 16.06 0 0 1-2.7.331zm64.744 6.643c-8.648 10.52-21.405 20.262-32.405 24.984l-.034.016a132.58 132.58 0 0 1-7.405 1.541c-6.528 1.143-13.221 1.739-19.831 1.739-2.104 0-4.208-.049-6.329-.149-35.105-1.524-70.41-15.772-75.711-42.677a34.38 34.38 0 0 1-.663-5.616 41.57 41.57 0 0 1 .298-6.66c1.541-12.21 3.976-25.464 8.168-38.171l15.241-3.031c8.085-.779 17.528-1.525 27.684-2.154 2.518 2.435 6.395 4.523 7.803 3.529.762-.531 1.11-2.204.829-4.01 13.204-.679 27.219-1.093 40.705-1.027-.381.978-.431 1.823-.116 2.22.928 1.16 5.583-.298 8.681-2.12 14.265.298 27.568 1.209 38.204 3.015 4.473 16.998 8.284 35.917 4.622 50.629-1.126-2.071-4.986-3.264-9.377-2.734-5.036.613-8.846 3.281-8.532 5.965.332 2.667 4.672 4.34 9.725 3.727 2.866-.348 5.335-1.358 6.876-2.667a31.04 31.04 0 0 1-1.541 3.462c-1.74 3.38-4.092 6.826-6.892 10.189zm-48.823-34.426c-.034-3.579-30.086-.083-30.418 3.379-.232 2.601 7.671 3.844 13.834 3.861 7.356 0 16.584-4.424 16.584-7.24zm-15.839 17.727c4.374-.265 7.191-3.016 6.213-5.434-.265-.63-1.64-.879-3.396-.879-3.397 0-8.151.879-8.814 1.69-.944 1.16 1.756 3.993 4.722 4.54a4.68 4.68 0 0 0 1.275.083zm-23.542-11.183c1.906-5.534-2.319-16.816-8.449-24.371-3.131-3.893-6.792-6.809-10.354-7.422-5.567-.961-12.26 5.037-15.723 12.393-2.369 5.003-3.247 10.636-1.292 15.142 2.419 5.6 10.686 8.681 18.705 9.344.016.016.033.016.049.016 7.969.663 15.656-1.06 17.064-5.102zm-24.171 18.257c0-2.684-4.109-4.871-9.195-4.871s-9.195 2.187-9.195 4.871 4.126 4.887 9.195 4.887 9.195-2.187 9.195-4.887zm109.525 141.914c-5.666-6.329-10.868-10.586-15.573-10.586l-.033-1.077c11.332-.282 21.985-1.11 29.539-2.469-.679 5.153-2.501 12.707-7.306 18.092-.546.629-1.126 1.226-1.723 1.789-1.673-2.054-3.297-3.976-4.904-5.749z"/><path d="M239.362 258.282a36.69 36.69 0 0 1-1.308 4.291c-1.541 1.309-4.01 2.319-6.876 2.667-5.053.613-9.393-1.06-9.725-3.727-.314-2.684 3.496-5.352 8.532-5.965 4.391-.53 8.251.663 9.377 2.734zm-70.41 136.878c-10.752-.05-20.013-.282-27.998-.679-29.49-1.442-41.452-4.987-46.289-9.742-3.314-3.23-3.314-7.041-3.314-11.1v-1.126c0-.58 0-1.16.033-1.723.033-.895.099-1.756.232-2.618h.05c.348 1.839 1.06 3.562 2.535 5.186.033.049.083.099.133.149 3.38 3.578 10.62 6.511 25.978 8.399 4.705.58 10.156 1.077 16.501 1.442l4.821.248c5.235.249 11.034.431 17.428.547l4.043.05 11.796.082 10.271-.049 5.633-.083 6.246-.133 3.264-.099 7.405-.282c12.939-.596 22.581-1.59 29.755-2.932 2.187 2.419 2.601 8.979-.133 10.951-12.276 2.253-31.709 3.545-62.441 3.545-2.038 0-4.01 0-5.948-.033zm67.246-217.659l.1 1.408-9.543.729c-8.135-14.53-39.828-33.035-64.413-33.035 11.448-1.458 22.978-.58 33.714 2.485l14.446 8.383c1.044 1.093 2.37 1.889 3.993 2.319a321.52 321.52 0 0 0 12.359 6.826s.05-.066.067-.083a68.08 68.08 0 0 1 9.277 10.968zm-48.393 253.56l7.572-.994c.082.348.215.679.397 1.011.63 1.193 1.74 2.286 3.231 3.247 7.654 4.92 25.116 6.295 35.818.232 1.093 6.511-.083 17.064-.795 23.906-2.783 26.491-6.18 56.594-10.487 74.486-3.264 1.011-5.964 1.773-8.367 2.353 2.32-7.538 4.159-17.064 5.55-27.336.315-.464.481-.961.481-1.491a2.46 2.46 0 0 0-.149-.845c2.733-20.875 3.827-44.417 4.059-60.652-26.789 0-25.298-4.589-30.351-6.809-4.705-2.071-29.291-3.397-39.762-4.341.779-.812 1.309-1.69 1.558-2.618.016-.016.016-.033.016-.033.017-.033.017-.083.033-.116 5.584.365 11.647.249 18.291.249l9.575-.133 3.33-.116zm47.432-76.259l-3.429-.513c-2.452-6.909-9.062-22.647-12.575-29.39 6.578 8.234 15.027 25.994 16.004 29.903zm-5.616-78.578a180.54 180.54 0 0 1 9.791 3.065c-10.156 10.206-25.43 17.843-42.196 21.919 11-4.722 23.757-14.463 32.405-24.984z"/><path d="M214.528 348.325c-3.379 1.574-8.847-3.745-9.973-7.787 1.176-.547 1.988-1.739 1.988-3.114 0-.647-.182-1.26-.481-1.773-.414-3.761.448-14.033 1.276-17.064l.033-.133c3.363.646 6.577 1.541 8.748 3.198.961.729 2.021 1.855 3.131 3.247 3.512 6.743 10.122 22.481 12.574 29.39l-3.412-.431c-2.585-.298-5.385-.58-8.433-.812l-4.076-.298c-.497-1.491-.927-2.949-1.358-4.423h-.017zm12.243 60.188c9.775 20.809-8.217 28.363-27.766 25.795-1.491-.944-2.601-2.037-3.231-3.23-.182-.332-.315-.663-.397-1.011-.033-.066-.05-.132-.067-.199-3.661-8.399 4.838-30.268 14.695-31.842.398-.066.796-.099 1.193-.099 4.705 0 9.907 4.257 15.573 10.586zm-1.424-181.742c2.286 4.573 3.23 9.659 1.69 13.95-2.071 5.749-10.156 9.377-18.125 10.553 12.922-3.661 9.046-17.776 1.988-25.348 5.07-1.242 10.255-.96 14.447.845zm1.408-47.15c-43.489 3.678-92.942 12.558-134.294 23.112l-.182-.729c5.335-12.972 12.674-23.575 21.289-31.942.116.116.215.215.298.315l11.133-7.008 3.496-2.303 14.331-9.609c6.361-2.419 12.922-4.026 19.516-4.854 24.585 0 56.278 18.506 64.413 33.018zm-5.699 326.009a2.46 2.46 0 0 1 .149.845c0 .53-.166 1.027-.481 1.491l.332-2.336z"/><path d="M225.115 444.978c-.232 16.235-1.326 39.777-4.059 60.652-.845-2.286-4.97-4.026-9.957-4.026-5.583 0-10.106 2.187-10.106 4.871s4.523 4.887 10.106 4.887c4.506 0 8.333-1.425 9.625-3.396-1.391 10.272-3.23 19.798-5.55 27.336-7.703 1.789-12.292 1.474-22.647.381-1.342-18.042-.845-48.062-5.318-50.381-1.508-.779-3.247-1.259-5.069-1.491h-.017c-5.053-.729-10.686.215-13.502 1.06-2.535.116-10.289 0-10.289 2.204.083 10.835 1.16 33.499-1.209 49.138-7.985.596-12.69.05-23.409-3.264-2.883-12.409-7.041-34.078-15.226-72.713-1.358-6.428-2.12-16.733-1.01-24.271 1.126.613 2.319 1.127 3.562 1.59h.033c11.945 4.341 28.595 1.856 33.913-3.727h.016c10.471.944 35.057 2.27 39.762 4.341 5.053 2.22 3.562 6.809 30.351 6.809zm-68.87 63.369c0-2.7-4.357-4.887-9.708-4.887s-9.709 2.187-9.709 4.887 4.341 4.871 9.709 4.871 9.708-2.187 9.708-4.871z"/><path d="M221.056 505.63l-.332 2.336c-1.292 1.971-5.119 3.396-9.625 3.396-5.583 0-10.106-2.187-10.106-4.887s4.523-4.871 10.106-4.871c4.987 0 9.112 1.74 9.957 4.026zm4.291-278.859c-4.192-1.805-9.377-2.087-14.447-.844-3.943-4.242-8.896-6.429-12.442-3.562 2.883-4.076 6.329-7.191 9.841-8.035 5.765-1.392 13.254 4.804 17.048 12.441zm-1.806 306.178c-2.088 8.681-4.39 14.48-6.942 15.606-4.556 2.005-8.35 3.33-12.21 3.231 4.44-1.226 7.969-7.439 10.785-16.484 2.403-.58 5.103-1.342 8.367-2.353zm-7.654-180.217l-1.094-.067-4.837-.281h-.017l-5.417-.249h-.017l-2.071-.083c-7.985-.281-17.114-.43-27.534-.43l-20.328.232-9.725.298c-.066-.928-.182-2.005-.332-3.148 3.347-1.242 7.157-4.788 7.953-7.654.464.249.994.381 1.557.381 1.905 0 3.463-1.557 3.463-3.462 11.895-.763 29.588-1.276 42.146-.415h.034c.215 1.707 1.656 3.016 3.412 3.016.514 0 1.011-.116 1.458-.332 1.127 4.043 6.594 9.361 9.974 7.787l1.358 4.407h.017z"/><path d="M209.956 352.384c3.396 2.004 5.5 7.737 3.413 10.967-.497-.016-1.011-.05-1.525-.083h-.016l-12.276-.53c-7.29-.215-15.458-.331-24.652-.331l-10.106.05c-.017-.017-.033-.017-.05 0-.116-.05-.249-.067-.365-.083-.463-.083-.911-.149-1.358-.199h-.149c-.762-.083-1.475-.083-2.17-.017-.067.017-.166.033-.232.05h-.034a6.04 6.04 0 0 0-.53.066c-.497.067-.994.166-1.474.282-1.011 0-2.038 0-3.015.05l-1.756.049-5.501.149h-.016a2.92 2.92 0 0 0-.183-.298c-3.147-4.622-7.604-8.466-9.31-8.466l-.1-1.59c.216 0 .448-.017.68-.033.265-.017.53-.033.795-.033l4.821-.232 9.725-.298 20.328-.232c10.42 0 19.549.149 27.534.43l2.071.083h.017l5.417.249h.017zm3.148-245.791l.265.083c-3.827 15.093-11.332 42.18-2.867 50.795l-14.446-8.366c5.583-10.554 11.614-25.216 17.048-42.512zm-1.939 290.257l.033 1.077c-.397 0-.795.033-1.193.099-9.857 1.574-18.356 23.443-14.695 31.842 0 .066.033.133.067.199-3.894.63-6.71.878-7.572.994l-3.33.116-9.575.133c-6.644 0-12.707.116-18.291-.249 2.701-6.213-1.226-19.765-7.455-27.054-1.06-1.259-2.203-2.32-3.379-3.131-1.243-.862-2.535-1.442-3.861-1.657-.397-.066-.795-.099-1.192-.099l.231-4.639c7.986.397 17.247.629 27.999.679 11.73 1.491 27.535 2.038 42.213 1.69zm-.265-170.923c7.058 7.571 10.934 21.686-1.988 25.331-7.919 1.176-15.689-.067-17.346-4.01-.099-.231-.182-.463-.248-.712l.083-.033c1.491-8.731 6.809-14.828 13.237-18.207.248.43.729.729 1.275.729a1.54 1.54 0 0 0 1.541-1.541c0-.149-.016-.298-.066-.447a25.25 25.25 0 0 1 3.512-1.11z"/><path d="M210.9 225.926a25.52 25.52 0 0 0-3.512 1.11c-.182-.629-.779-1.093-1.475-1.093-.845 0-1.524.696-1.524 1.541 0 .298.083.58.249.812-6.428 3.379-11.746 9.476-13.237 18.207l-.083.033c-1.723-5.649 1.739-16.584 7.14-24.171 3.546-2.867 8.499-.68 12.442 3.561z"/><path d="M207.388 227.036a1.39 1.39 0 0 1 .066.448c0 .845-.679 1.54-1.541 1.54-.546 0-1.027-.298-1.275-.729.894-.48 1.822-.894 2.75-1.259zm-.033 91.418l-.033.133c-.829 3.031-1.69 13.303-1.276 17.064a3.47 3.47 0 0 0-2.966-1.674c-.961 0-1.839.398-2.452 1.044h-.016c-.365-3.313.149-13.883 1.11-17.346l.033-.198 5.6.977z"/><path d="M205.913 225.943c.696 0 1.293.464 1.475 1.094a25.32 25.32 0 0 0-2.75 1.259c-.166-.232-.249-.514-.249-.812 0-.845.679-1.541 1.524-1.541zm.133 109.708c.298.513.48 1.126.48 1.773 0 1.375-.811 2.567-1.988 3.114a3.36 3.36 0 0 1-1.458.331c-1.756 0-3.197-1.308-3.412-3.015l-.034-.43c0-.945.365-1.79.994-2.403.613-.646 1.491-1.043 2.452-1.043a3.47 3.47 0 0 1 2.966 1.673zm-13.519 200.032c10.355 1.093 14.944 1.408 22.647-.381-2.816 9.045-6.345 15.258-10.785 16.484h-.016c-2.817-.05-5.699-.878-8.963-2.733-1.541-.895-2.353-6.18-2.883-13.37z"/><path d="M201.755 317.477l-.033.198c-.961 3.463-1.475 14.033-1.11 17.33h.016a3.38 3.38 0 0 0-.994 2.419c0 .149.017.298.034.43h-.034c-12.557-.861-30.251-.348-42.146.414 0-.944-.381-1.789-.994-2.418.364-3.297-.15-13.867-1.11-17.313 3.611-.663 6.56-1.508 7.571-3.347 1.027-1.872 1.358-4.059 1.275-6.295h.017c11.282 1.027 15.391.812 26.126-1.259.415 1.739 1.044 3.545 1.856 5.616 1.011 2.518 4.954 3.446 9.526 4.225zm-2.369-115.838c.116.862-1.127 1.988-2.85 2.999l-8.565-.1c.663-1.673 2.32-3.727 4.771-4.473 2.933-.878 6.478.232 6.644 1.574zm-2.336 182.073v.298l-6.246.133-5.633.083v-.332c.083-.149.133-.281.183-.43 1.192-4.043-5.517-10.521-13.619-15.192l1.657-1.922.215-.398c.647.331 1.293.712 1.955 1.094 3.711 2.17 7.621 4.986 11.548 8.084 1.59 1.276 3.181 2.585 4.738 3.943a133.4 133.4 0 0 1 2.8 2.452l2.369 2.154.033.033zm-4.689-121.686c2.353 2.436 1.674 5.749-.878 8.996-1.839 2.336-4.622 4.623-7.952 6.528.447-1.905-2.336-11.481-3.976-14.281 4.755-3.065 8.863-5.302 12.806-1.243z"/><path d="M189.777 302.798c0 1.657.199 3.214.596 4.838-10.735 2.071-14.844 2.286-26.126 1.259h-.017c-.049-1.524-.298-3.065-.613-4.54 2.121.1 4.225.149 6.329.149 6.61 0 13.303-.596 19.831-1.739v.033zm6.759-98.16c-3.098 1.822-7.753 3.28-8.681 2.12-.315-.397-.265-1.242.116-2.22l8.565.1zm-24.801 163.633c8.102 4.672 14.811 11.15 13.619 15.193-.05.149-.1.281-.183.43v.332l-10.271.049a893.39 893.39 0 0 1-11.796-.082v-.415c1.226-5.434 4.407-10.437 8.631-15.507zm7.82-105.002c1.64 2.8 4.423 12.375 3.976 14.281-4.059 2.319-8.913 4.042-13.751 4.523.464-1.906-.579-10.007-2.203-12.807 4.49-.961 8.416-3.711 11.978-5.997zm-29.175-18.091c.332-3.463 30.384-6.959 30.418-3.38 0 2.816-9.228 7.24-16.584 7.24-6.163-.017-14.066-1.259-13.834-3.86z"/><path d="M158.432 362.556l1.474-.282a5.66 5.66 0 0 1 .531-.066h.033l.232-.05c.695-.066 1.408-.066 2.17.017h.149l1.359.199c.115.016.248.033.364.082.017-.016.033-.016.05 0 .298.05.613.116.927.216 2.419.613 5.07 1.756 7.886 3.28l-.215.398-1.657 1.921c-4.688-2.717-9.857-4.804-14.231-5.467.298-.099.613-.182.928-.248zm12.74-108.465c.977 2.419-1.839 5.169-6.213 5.434a4.68 4.68 0 0 1-1.275-.083c4.141-.182 4.821-4.506 4.075-5.898v-.331c1.773 0 3.148.248 3.413.878zm-3.595 15.175c1.624 2.8 2.667 10.901 2.203 12.807-4.489.43-9.708-.083-14.049-1.309.464-1.922.746-8.963-.878-11.73 2.999.083 6.478.663 10.024.547a17.9 17.9 0 0 0 2.7-.315z"/><path d="M167.759 253.544c.746 1.392.066 5.716-4.075 5.898-2.966-.547-5.666-3.38-4.722-4.539.663-.812 5.418-1.69 8.814-1.69v.331h-.017zm-18.804 114.661l1.392-1.358c1.839-1.624 3.927-2.899 6.229-3.728l.034-.016.596-.216s.033-.016.05-.016c.082-.033.165-.05.248-.067 4.374.663 9.543 2.751 14.231 5.468-4.224 5.069-7.405 10.072-8.631 15.506v.415c-1.375 0-2.717-.033-4.043-.05l-17.428-.547v-.298c.928-5.55 3.495-11.067 7.322-15.093zm19.666 116.666c-1.309.381-2.187 2.32-2.784 5.302-1.955 9.774-.729 30.798-.961 45.294l-7.753.746c2.369-15.639 1.292-38.303 1.209-49.138 0-2.204 7.754-2.088 10.289-2.204z"/><path d="M164.877 535.467c-.133 8.068-.696 14.116-2.519 15.093-4.572 2.469-9.294 2.734-13.485 2.021 4.423-.828 6.892-7.455 8.25-16.368 2.253-.166 4.771-.431 7.754-.746zm-7.373-172.663c-.083.017-.166.034-.248.067-.017 0-.034.016-.05.016l-.597.216-.033.016c-2.302.829-4.39 2.104-6.229 3.728-.547-1.359-1.325-2.717-2.187-4.043l5.501-.149 1.756-.049 3.015-.05c-.315.066-.63.149-.928.248zm-8.35 41.203c6.23 7.289 10.156 20.841 7.455 27.054-.016.033-.016.083-.033.116 0 0 0 .017-.016.033-.249.928-.779 1.806-1.558 2.618h-.016c-5.318 5.583-21.968 8.068-33.913 3.727 16.849.646 27.651-3.777 28.247-17.677 2.237-4.175 1.11-10.255-.398-15.672l.232-.199zm1.905-67.495c.597-1.01 1.707-1.689 2.966-1.689.961 0 1.839.397 2.469 1.027.613.629.994 1.474.994 2.418 0 1.906-1.558 3.463-3.463 3.463-.563 0-1.093-.133-1.557-.381a3.47 3.47 0 0 1-1.889-3.082c0-.646.182-1.242.48-1.756z"/><path d="M155.384 318.537c.96 3.446 1.474 14.016 1.11 17.313-.63-.63-1.508-1.028-2.469-1.028-1.259 0-2.369.68-2.965 1.69.414-3.761-.448-14.032-1.26-17.081l5.584-.911v.017zm-.531-49.503c1.624 2.767 1.342 9.808.878 11.73-6.51-1.806-11.05-5.186-8.233-9.212 1.573-2.253 4.191-2.65 7.355-2.518zm-8.316 234.426c5.351 0 9.708 2.187 9.708 4.887s-4.357 4.871-9.708 4.871-9.709-2.187-9.709-4.871 4.341-4.887 9.709-4.887zm-12.823 29.489c10.719 3.314 15.424 3.86 23.409 3.264-1.358 8.913-3.827 15.54-8.25 16.368-2.684-.447-5.169-1.308-7.257-2.236-3.313-1.475-4.871-4.192-7.902-17.396z"/><path d="M150.579 338.268a3.47 3.47 0 0 0 1.889 3.082c-.796 2.866-4.606 6.412-7.953 7.654l-1.192-10.62c-.398 2.9-1.458 6.892-2.469 10.802l-.828 3.181-.795.05c-.232.016-.464.033-.68.033-8.714.48-15.821 1.16-21.603 1.988 1.905-4.49 15.523-26.739 21.52-31.279 2.8-2.12 7.108-3.032 11.332-3.727.812 3.048 1.674 13.32 1.259 17.08-.298.514-.48 1.11-.48 1.756zm-44.218 18.257l2.055.481 9.31 2.352c4.838 1.276 9.576 2.519 13.221 3.214h.017c1.557.299 2.899.514 3.992.58.978.066 1.74.033 2.253-.149.083-.016.149-.05.216-.083 3.661-1.806-2.171-7.571.911-8.83a.9.9 0 0 1 .315-.05c1.706 0 6.163 3.844 9.31 8.466.067.099.133.199.183.298h.016c.862 1.326 1.64 2.684 2.187 4.043-.48.43-.944.878-1.392 1.358-1.607-4.721-5.417-9.277-7.256-8.548-2.071.795-.514 4.622-2.154 6.775-2.187 2.867-14.562-4.191-35.321-9.575a187.35 187.35 0 0 0-7.058-1.674c2.088-.049 5.136.448 8.648 1.226.182.034.364.083.546.116zm42.561 47.681c1.508 5.417 2.635 11.497.398 15.672.215-5.036-.895-11.299-3.545-19.002 1.176.812 2.319 1.872 3.379 3.131l-.232.199z"/><path d="M114.048 423.275c7.505-9.643 14.364-18.257 20.511-22.068 2.137-1.342 4.191-2.087 6.163-2.087.397 0 .795.033 1.192.099 1.326.215 2.618.795 3.861 1.64 2.65 7.72 3.76 13.983 3.545 19.019-.596 13.9-11.398 18.324-28.247 17.677h-.033c-1.243-.463-2.436-.977-3.562-1.59-2.088-1.127-3.943-2.535-5.434-4.225-2.883-2.866-3.728-7.77-3.744-11.547 1.54.961 3.263 1.872 5.185 2.701.05.033.1.066.149.066l.414.315zm33.218-217.71c.281 1.806-.067 3.48-.829 4.01-1.408.994-5.285-1.094-7.803-3.529l8.632-.481z"/><path d="M145.692 201.871c.894 1.077 1.391 2.419 1.574 3.694l-8.632.481c-.895-.862-1.623-1.789-1.988-2.618l9.046-1.557zm-25.497 173.326l-.116.182c-2.717-1.657-6.627-3.695-10.587-5.865l-3.694-2.071c-.099-.066-.199-.132-.298-.182-1.955-1.127-3.811-2.27-5.451-3.38-1.541-1.043-2.866-2.071-3.877-3.065-.033-.016-.05-.033-.083-.066-1.773-1.739-2.551-3.346-1.673-4.688.398-.58 1.342-.845 2.75-.878a185.44 185.44 0 0 1 7.058 1.673c20.759 5.384 33.134 12.442 35.321 9.576 1.64-2.154.083-5.981 2.154-6.776 1.839-.729 5.649 3.827 7.256 8.548-3.827 4.026-6.394 9.543-7.306 15.093v.298l-4.837-.248c-6.345-.365-11.796-.862-16.501-1.442l.033-.331c.911-.431 1.889-.745 2.584-1.209h.017c1.773-.597 4.871-.464 4.954-1.475.066-1.209-5.749-2.485-7.704-3.694zm20.643 3.015c2.087.066 4.009-3.28 3.28-4.622-.911-1.624-13.801-1.988-14.248.43-.348 1.873 8.963 4.126 10.968 4.192zm3.677-29.208l.332 3.148-4.821.232.828-3.198c.978.464 2.286.331 3.661-.182z"/><path d="M144.118 373.59c.729 1.342-1.193 4.688-3.28 4.622-2.005-.066-11.316-2.319-10.968-4.192.447-2.418 13.337-2.054 14.248-.43zm-.795-35.206c.232 2.833.811 7.091 1.192 10.62-1.375.513-2.683.646-3.661.182 1.011-3.91 2.071-7.902 2.469-10.802zm-.497-186.943l-14.331 9.625-.116-.166c5.931-2.915-4.225-29.887-6.461-80.549-.514-11.299-2.833-35.835-10.172-52.899 5.98 11.995 11.05 28.081 13.369 47.448 3.993 33.516 10.421 59.609 17.711 76.541zm-9.858 72.531c6.13 7.554 10.355 18.836 8.449 24.37-1.524-8.996-7.206-15.076-13.949-18.241-.033-.811-.696-1.441-1.524-1.441-.381 0-.729.133-.994.381a26.16 26.16 0 0 0-3.927-1.077c3.645-4.291 8.317-6.594 11.945-3.992zm7.986 170.509l-.232 4.639c-1.972 0-4.026.745-6.163 2.07-6.147 3.827-13.006 12.442-20.511 22.084l-.414-.314s-.099-.033-.149-.067a38.7 38.7 0 0 1-5.185-2.7c-13.718-8.499-13.718-21.189-13.718-35.388l.083-.066c4.838 4.755 16.799 8.3 46.289 9.742zm-2.403-42.031l.1 1.59a.9.9 0 0 0-.315.05c-3.082 1.259 2.75 7.025-.911 8.83-.067.034-.133.067-.216.083-.513.182-1.275.216-2.253.149-1.093-.066-2.435-.281-3.992-.579h-.017c-3.645-.696-8.383-1.939-13.221-3.215l-9.31-2.352-2.055-.48c.961-.249 2.005-.498 3.098-.746 2.204-.48 4.689-.928 7.489-1.342 5.782-.828 12.889-1.508 21.603-1.988zm-1.905-149.022c.365.829 1.093 1.756 1.988 2.618-10.156.629-19.599 1.375-27.684 2.154l25.696-4.772z"/><path d="M132.968 223.972c-3.628-2.602-8.3-.299-11.945 3.992-4.904-.977-9.874-.58-13.883 1.16l-.249-.182c3.463-7.356 10.156-13.353 15.723-12.393 3.562.613 7.223 3.529 10.354 7.423z"/><path d="M141.417 248.342c-1.408 4.042-9.095 5.765-17.064 5.103-.016 0-.033 0-.049-.017-13.238-2.883-10.007-17.545-3.281-25.464a26.16 26.16 0 0 1 3.927 1.077c-.332.265-.531.679-.531 1.143 0 .862.68 1.541 1.525 1.541s1.54-.679 1.54-1.541c0-.033 0-.049-.016-.082 6.743 3.164 12.425 9.244 13.949 18.24zM128.379 160.9l.116.166-3.496 2.303c-6.494-10.587-15.44-29.092-13.949-54.97.894-15.225.812-28.711-.166-41.451v-.099a55.75 55.75 0 0 0-.348-4.258c-.662-7.24-1.623-14.264-2.833-21.256h-.016c-.829-8.449-10.653-34.095-23.824-37.011 1.309-.712 2.584-1.11 3.81-1.16 6.71-.298 16.17 8.416 24.072 24.287 7.339 17.064 9.658 41.6 10.172 52.899 2.236 50.662 12.392 77.634 6.461 80.549zm-8.184 214.297c1.955 1.209 7.77 2.485 7.704 3.694-.083 1.011-3.181.878-4.954 1.458.646-.431 1.027-.994.828-1.889-.165-.712-1.574-1.772-3.694-3.081l.116-.182z"/><path d="M127.468 230.101a.35.35 0 0 0 .016.083c0 .862-.679 1.541-1.54 1.541s-1.525-.679-1.525-1.541c0-.464.199-.878.531-1.143.845.298 1.689.646 2.518 1.06z"/><path d="M125.944 228.66c.828 0 1.491.63 1.524 1.441a21.94 21.94 0 0 0-2.518-1.06c.265-.248.613-.381.994-.381zm-3.016 151.705c-.695.464-1.673.779-2.584 1.21l-.033.331c-15.358-1.888-22.598-4.821-25.978-8.399a1.18 1.18 0 0 1-.133-.149c.05-.05.083-.116.133-.166 1.723-1.806 4.407-3.463 8.632-4.887.878-.299 1.822-.58 2.833-.862l3.694 2.071c3.96 2.17 7.87 4.208 10.587 5.865 2.12 1.309 3.529 2.369 3.694 3.081.199.895-.182 1.458-.828 1.889h-.017v.016zM107.14 229.124c4.009-1.74 8.979-2.137 13.883-1.16-6.726 7.919-9.957 22.581 3.28 25.464-8.018-.663-16.285-3.744-18.704-9.344-1.955-4.506-1.077-10.139 1.292-15.142l.249.182zm.911 32.604c5.086 0 9.195 2.187 9.195 4.871s-4.109 4.887-9.195 4.887-9.195-2.187-9.195-4.887 4.126-4.871 9.195-4.871zm16.948-98.359c-2.949 1.922-6.345 4.059-11.133 7.008-.083-.1-.182-.199-.298-.315 2.187-4.341-3.33-22.647-4.838-27.982-5.102-17.909 3.231-52.982 2.154-75.132.978 12.74 1.06 26.226.166 41.451-1.491 25.878 7.455 44.383 13.949 54.97z"/><path d="M108.73 142.08c1.508 5.335 7.025 23.641 4.838 27.982-11.961-12.707-35.752-32.389-47.962-63.071C48.542 64.065 68.273 12.575 83.863 4.308c13.171 2.932 22.995 28.578 23.824 37.028h.016c1.21 6.991 2.171 14.016 2.833 21.256l.348 4.258v.099c1.077 22.15-7.256 57.223-2.154 75.132z"/><path d="M110.536 62.591l.348 4.258-.348-4.258zm-18.87 305.581h-.05c.232-1.541.729-3.032 1.673-4.44.679-1.011 1.607-1.988 2.866-2.899h.017c1.011.977 2.336 2.004 3.877 3.048l5.451 3.38c.099.05.199.116.298.182l-2.833.862c-4.225 1.424-6.909 3.081-8.632 4.887-.05.05-.083.116-.133.166-1.474-1.624-2.187-3.347-2.535-5.186zm4.043-156.941c-4.192 12.707-6.627 25.961-8.168 38.171a41.57 41.57 0 0 0-.298 6.66h-.033c-44.135-1.325-83.747-6.213-84.393-13.933-.05-.629.149-1.292.63-1.988h.017c5.285-7.919 43.605-18.87 92.246-28.91z"/></g><path d="M330.184 192.875c1.64 14.38-44.268 36-79.589 46.123h-.017c-2.949-16.716-8.184-34.46-17.014-49.519 45.311-4.921 82.339-6.064 93.323-.398.033 0 .049.017.083.05a23.58 23.58 0 0 1 2.336 1.806c.513.596.795 1.242.878 1.938z" class="C"/><path d="M110.934 208.216l-15.242 3.032c-48.674 10.04-86.994 21.007-92.262 28.91 4.937-11.067 41.666-25.315 89.015-37.392 41.352-10.554 90.821-19.45 134.293-23.095l9.543-.729c40.871-2.767 75.265-.447 90.606 10.139-10.984-5.666-48.012-4.523-93.323.398-27.568 2.982-58.2 7.339-87.905 12.409l-9.029 1.574-25.696 4.754z" class="E"/><path d="M267.262 291.383l-6.727-3.412 1.425-2.966c1.392 2.088 17.28-3.429 20.013.05 1.292 1.64-10.139 3.264-9.94 4.755.282 2.054 18.936-.199 20.527 1.938.927 1.243-10.62 1.822-10.587 3.032.05 1.574 17.942 2.253 17.942 3.678 0 .911-9.509 2.054-10.371 3.893-1.805 3.794 7.174 15.954 4.54 16.435-3.993.745-8.102-14.049-11.299-13.701-2.154.248-.348 7.289-2.319 7.422-2.883.165-5.252-14.48-7.787-14.265-1.789.149-2.369 7.621-3.446 7.555-1.292-.066-1.127-10.553-3.446-11.597l1.475-2.817z" class="C"/><path d="M282.454 26.938c7.703 21.62 10.139 55.517-4.341 83.764-14.032 27.385-37.425 44.367-51.209 55.864-.017.017-.05.033-.066.067a331.73 331.73 0 0 1-12.277-6.776l1.326-1.889 1.491-2.253c11.1 2.518 14.943 1.292 34.923-19.235 16.021-16.451 37.691-57.372 30.136-109.542h.017z" class="L"/><path d="M282.437 26.938c7.555 52.17-14.115 93.091-30.136 109.542-19.98 20.527-23.823 21.753-34.923 19.235 6.892-10.769 14.579-26.988 15.358-47.929.961-25.762 4.208-46.355 9.725-66.451 3.363-9.129 18.638-35.951 30.781-31.428 3.38 3.81 6.594 9.708 9.212 17.031h-.017z" class="M"/><path d="M273.242 9.907c-12.143-4.523-27.418 22.299-30.781 31.428-5.517 20.096-8.764 40.689-9.725 66.451-.779 20.941-8.466 37.16-15.358 47.929l-1.491 2.253-1.326 1.889h-.016l-4.092-2.386c-8.416-8.665-.928-35.702 2.899-50.778l-.265-.083c3.231-10.338 6.262-21.62 8.847-33.515 9.609-44.251 32.389-69.499 44.085-67.859 2.386.331 4.854 1.971 7.223 4.672z" class="G"/><g class="E"><path d="M267.262 291.383l-1.475 2.817-.232-.066c-1.507-.249-2.783 3.363-4.324 3.015-1.938-.414-1.673-6.544-3.032-6.693h-.049l.994-3.148 1.391.663 6.727 3.412z"/><path d="M264.478 281.377c.68 1.441-2.899 2.385-2.601 3.462.017.067.05.116.083.166l-1.425 2.965-1.391-.662-6.014-2.684-1.475-.63c2.866-3.181 12.409-3.429 12.823-2.617z"/><path d="M259.144 287.308l-.994 3.148c-1.293 0-2.403 5.5-3.612 5.401-.712-.05-2.783-6.163-1.474-11.067l.066-.166c2.021.845 4.026 1.756 6.014 2.684z"/></g><g class="C"><path d="M258.1 368.123c.331 1.789.331 3.661.331 5.533 0 4.059 0 7.869-3.313 11.117-2.817 2.75-8.068 5.119-17.793 6.908 2.733-1.971 2.319-8.515.132-10.951 10.007-1.839 15.242-4.307 17.976-7.207.049-.066.099-.116.132-.165 1.491-1.607 2.187-3.38 2.535-5.219v-.016z"/><path d="M231.791 354.305l3.43.514c4.821.795 8.648 1.706 11.663 2.75 8.018 2.734 10.47 6.461 11.216 10.553-.348 1.856-1.044 3.629-2.535 5.236-.033-.05-.083-.1-.132-.166-1.425-1.508-3.546-2.899-6.66-4.158-6.478-2.601-17.313-4.573-35.421-5.666 2.088-3.231 0-8.963-3.413-10.968l4.838.282c.364.016.729.049 1.093.083l4.076.298c3.048.232 5.848.513 8.432.812l3.413.43z"/><path d="M237.457 380.73c-7.19 1.325-16.815 2.319-29.754 2.916l-7.389.298-3.281.099v-.298l-.033-.033c-.778-.729-1.574-1.441-2.369-2.154l-2.8-2.452c-1.557-1.358-3.147-2.667-4.738-3.943-3.926-3.098-7.836-5.914-11.547-8.084l-1.955-1.11c-2.817-1.508-5.467-2.651-7.886-3.264-.331-.099-.646-.166-.961-.232l10.139-.05 24.652.332 12.276.53 1.525.083c18.107 1.093 28.942 3.065 35.42 5.666 3.115 1.259 5.235 2.65 6.66 4.158.05.066.1.116.133.166-.033.049-.083.099-.133.165-2.733 2.9-7.969 5.368-17.975 7.207h.016zm17.661 4.042l.066.067c0 13.419 0 25.497-11.58 33.946-1.491 1.093-3.165 2.12-5.053 3.081-.05.017-.1.05-.149.067l-.431.331-6.312-7.985c.596-.564 1.176-1.16 1.723-1.79 4.804-5.384 6.627-12.939 7.306-18.091-7.571 1.358-18.207 2.17-29.539 2.452-14.662.381-30.484-.166-42.214-1.657l5.948.033c30.732 0 50.165-1.308 62.442-3.545 9.725-1.789 14.976-4.158 17.793-6.909z"/></g><path d="M251.755 246.404c1.772 12.524-3.231 23.74-12.359 32.902-3.281-1.127-6.544-2.154-9.775-3.065 2.783-3.363 5.119-6.793 6.875-10.172a34.97 34.97 0 0 0 1.558-3.496c1.159-.977 1.789-2.12 1.64-3.264-.05-.348-.149-.679-.348-.994 3.661-14.711-.149-33.631-4.622-50.629-10.653-1.806-23.956-2.717-38.221-3.015 1.74-1.027 2.982-2.154 2.866-3.015-.165-1.342-3.711-2.452-6.643-1.558-2.435.746-4.109 2.784-4.755 4.473-13.485-.066-27.518.348-40.722 1.011-.182-1.276-.696-2.618-1.59-3.694 29.705-5.07 60.337-9.427 87.905-12.409 8.83 15.059 14.066 32.803 17.014 49.519.448 2.502.829 4.97 1.177 7.406zm-13.784 175.86l.431-.331.149-.067c1.888-.961 3.562-1.988 5.053-3.081.016 3.81-.829 8.863-3.761 11.779-1.392 1.591-3.098 2.933-5.036 4.009-10.703 6.064-28.165 4.689-35.819-.232 19.55 2.552 37.542-5.003 27.767-25.811 1.607 1.772 3.231 3.694 4.904 5.749 2.054 2.518 4.158 5.202 6.312 7.985z" class="D"/><path d="M239.694 259.309c.149 1.144-.481 2.287-1.64 3.248.513-1.375.944-2.784 1.292-4.242.199.315.298.647.348.994z" fill="#d17e75"/><path d="M229.621 276.241c-8.665 10.52-21.405 20.278-32.422 25 0 0-.011.005-.033.016-2.435.58-4.904 1.094-7.406 1.541-6.527 1.143-13.22 1.74-19.83 1.74-2.105 0-4.209-.05-6.329-.149-35.123-1.525-70.427-15.772-75.712-42.694a34.47 34.47 0 0 1-.663-5.616c-.083-2.137.017-4.357.298-6.644l.613-4.605c1.557-10.902 3.893-22.465 7.555-33.582l15.242-3.032c8.068-.778 17.511-1.524 27.667-2.154 2.518 2.452 6.412 4.54 7.82 3.546.762-.53 1.11-2.204.828-4.026 13.204-.663 27.236-1.077 40.722-1.011-.397.961-.447 1.806-.116 2.22.911 1.144 5.55-.298 8.648-2.12 14.265.298 27.568 1.209 38.221 3.015 4.473 16.998 8.283 35.918 4.622 50.629-1.127-2.087-4.987-3.28-9.361-2.75-5.052.613-8.863 3.28-8.548 5.964.331 2.668 4.688 4.341 9.725 3.728 2.882-.348 5.351-1.375 6.892-2.684a35.07 35.07 0 0 1-1.558 3.496c-1.756 3.379-4.092 6.809-6.875 10.172zm-31.179-53.86c-5.401 7.604-8.864 18.522-7.141 24.172a5.08 5.08 0 0 0 .249.712c1.656 3.943 9.426 5.185 17.345 4.026 7.969-1.176 16.054-4.805 18.125-10.553 1.541-4.291.596-9.378-1.69-13.95-3.794-7.638-11.282-13.834-17.048-12.442-3.512.845-6.958 3.96-9.84 8.035zm-34.692 37.094c.398.083.795.099 1.193.083 4.374-.282 7.19-3.015 6.212-5.434-.248-.63-1.623-.878-3.396-.878-3.379-.017-8.151.878-8.814 1.69-.944 1.159 1.823 4.025 4.805 4.539zm1.11 10.123c-3.545.115-7.025-.464-10.023-.547-3.164-.133-5.782.265-7.356 2.518-2.816 4.026 1.723 7.406 8.234 9.228 4.34 1.209 9.559 1.739 14.049 1.292 4.837-.48 9.692-2.203 13.751-4.523 3.346-1.888 6.146-4.191 7.968-6.527 2.552-3.247 3.231-6.561.878-8.98-3.943-4.059-8.051-1.839-12.823 1.226-3.561 2.287-7.488 5.037-11.978 5.998-.878.165-1.772.281-2.7.315zm15.921-27.784c-.033-3.562-30.086-.082-30.401 3.38-.248 2.601 7.671 3.86 13.817 3.86 7.356 0 16.584-4.423 16.584-7.24zm-39.38 6.544c1.905-5.533-2.32-16.815-8.449-24.37-3.132-3.893-6.793-6.809-10.355-7.422-5.583-.961-12.293 5.07-15.755 12.459-2.336 4.986-3.214 10.603-1.259 15.092 2.418 5.6 10.719 8.681 18.754 9.361 7.968.646 15.656-1.077 17.064-5.12zm-24.172 18.274c0-2.7-4.108-4.887-9.194-4.887s-9.195 2.187-9.195 4.887 4.125 4.871 9.195 4.871 9.194-2.187 9.194-4.871z" class="C"/><path d="M226.755 408.53c-5.666-6.329-10.868-10.587-15.573-10.587l-.033-1.093c11.332-.282 21.968-1.094 29.539-2.452-.679 5.152-2.502 12.707-7.306 18.091-.547.63-1.127 1.226-1.723 1.79-1.674-2.055-3.297-3.977-4.904-5.749z" class="E"/><path d="M239.346 258.315c-.348 1.458-.779 2.867-1.292 4.242-1.541 1.325-4.01 2.352-6.892 2.7-5.037.613-9.394-1.06-9.725-3.728-.315-2.683 3.495-5.351 8.548-5.964 4.374-.53 8.234.663 9.361 2.75z" fill="#e08f82"/><path d="M168.936 395.193c-10.753-.049-20.014-.281-27.982-.679-29.507-1.441-41.468-5.003-46.306-9.758-3.313-3.231-3.313-7.041-3.313-11.1v-1.127a58.91 58.91 0 0 1 .033-1.723c.033-.894.099-1.756.232-2.617h.05c.348 1.839 1.077 3.562 2.535 5.185.05.05.083.1.132.149 3.38 3.595 10.62 6.528 25.977 8.4 4.689.58 10.156 1.077 16.501 1.441a140.49 140.49 0 0 0 4.821.265c5.252.249 11.034.431 17.445.547l4.026.05 11.796.083 10.272-.05 5.633-.083 6.245-.132 3.281-.1 7.389-.298c12.939-.597 22.564-1.591 29.754-2.916 2.187 2.435 2.601 8.979-.132 10.934-12.277 2.254-31.71 3.562-62.442 3.562-2.038 0-4.009 0-5.947-.033z" class="E"/><path d="M196.039 149.121l14.414 8.35c1.06 1.127 2.419 1.938 4.092 2.386h.016a330.26 330.26 0 0 0 12.277 6.776c.016-.034.049-.05.066-.067a68.18 68.18 0 0 1 9.278 10.968l.099 1.408-9.543.729c-8.118-14.546-39.827-33.035-64.413-33.035 11.448-1.458 22.979-.58 33.714 2.485z" class="C"/><path d="M187.64 431.094l7.72-1.01c.083.348.216.679.398 1.01.629 1.193 1.739 2.287 3.23 3.248 7.654 4.92 25.116 6.295 35.819.231 1.093 6.511-.083 17.081-.796 23.923-2.783 26.475-6.179 56.577-10.47 74.47-3.28 1.01-5.981 1.789-8.383 2.336 2.336-7.538 4.158-17.064 5.566-27.319.299-.464.464-.961.464-1.475 0-.282-.049-.58-.165-.845 2.75-20.874 3.827-44.416 4.075-60.652-26.789-.017-25.298-4.589-30.351-6.826-4.705-2.071-29.307-3.396-39.761-4.324.779-.812 1.309-1.69 1.557-2.618.017-.016.017-.033.017-.049.016-.033.016-.083.033-.116 5.583.364 11.647.265 18.29.265l9.576-.133 3.181-.116z" class="I"/><path d="M235.221 354.819l-3.43-.514c-2.468-6.925-9.062-22.647-12.574-29.39 6.577 8.234 15.026 25.994 16.004 29.904zm-5.6-78.578c3.231.911 6.494 1.938 9.775 3.065-10.139 10.205-25.414 17.859-42.197 21.935 11.017-4.722 23.757-14.48 32.422-25z" class="D"/><path d="M214.512 348.341c-3.397 1.591-8.847-3.711-9.99-7.77a3.44 3.44 0 0 0 1.988-3.131 3.4 3.4 0 0 0-.464-1.723c-.414-3.777.431-14.065 1.259-17.114l.033-.132c3.363.646 6.561 1.54 8.748 3.197.96.729 2.021 1.856 3.131 3.247 3.512 6.743 10.106 22.465 12.574 29.39l-3.413-.43c-2.584-.298-5.384-.58-8.432-.812l-4.076-.298c-.497-1.475-.928-2.949-1.358-4.424z" class="C"/><path d="M226.755 408.53c9.774 20.808-8.217 28.363-27.767 25.811-1.491-.96-2.601-2.054-3.23-3.247-.183-.331-.315-.662-.398-1.01a.93.93 0 0 1-.066-.199c-3.662-8.4 4.837-30.268 14.695-31.842a7.17 7.17 0 0 1 1.193-.1c4.705 0 9.907 4.258 15.573 10.587z" class="G"/><path d="M225.33 226.788c2.286 4.573 3.231 9.659 1.69 13.95-2.071 5.748-10.156 9.377-18.124 10.553 12.922-3.662 9.045-17.777 1.988-25.348 5.069-1.242 10.255-.961 14.446.845z" class="H"/><path d="M124.966 163.385l3.512-2.302 14.331-9.609h.017a85.41 85.41 0 0 1 19.499-4.838c24.586 0 56.295 18.489 64.413 33.018-43.472 3.662-92.941 12.558-134.293 23.112l-.182-.729c5.335-12.973 12.673-23.575 21.288-31.942l.299.298 11.116-7.008z" class="E"/><path d="M225.098 444.994c-.248 16.253-1.325 39.795-4.075 60.669-.829-2.303-4.954-4.042-9.941-4.042-5.583 0-10.089 2.187-10.089 4.887s4.506 4.871 10.089 4.871c4.507 0 8.334-1.425 9.642-3.396-1.408 10.255-3.23 19.781-5.566 27.319-7.704 1.806-12.293 1.507-22.647.414-1.342-18.042-.845-48.061-5.318-50.381-1.508-.778-3.248-1.259-5.07-1.491h-.017c-5.053-.729-10.685.216-13.502 1.061-2.535.099-10.271-.001-10.271 2.203.066 10.835 1.143 33.499-1.226 49.122-7.986.596-12.691.049-23.41-3.264-2.866-12.392-7.041-34.079-15.225-72.697-1.359-6.428-2.121-16.733-1.011-24.271 1.127.613 2.32 1.127 3.562 1.574 11.945 4.357 28.628 1.872 33.963-3.711 10.454.928 35.056 2.253 39.761 4.324 5.053 2.237 3.562 6.809 30.351 6.809zm-68.869 63.37c0-2.701-4.341-4.888-9.709-4.888s-9.708 2.187-9.708 4.888 4.34 4.887 9.708 4.887 9.709-2.187 9.709-4.887z" class="J"/><g class="I"><path d="M221.023 505.663c.116.265.165.563.165.845 0 .514-.165 1.011-.464 1.474l.299-2.319z"/><path d="M221.023 505.663l-.299 2.319c-1.308 1.972-5.135 3.397-9.642 3.397-5.583 0-10.089-2.187-10.089-4.871s4.506-4.887 10.089-4.887c4.987 0 9.112 1.739 9.941 4.042z"/></g><path d="M225.33 226.788c-4.191-1.806-9.377-2.087-14.446-.845-3.943-4.241-8.897-6.428-12.442-3.562 2.882-4.075 6.328-7.19 9.84-8.035 5.766-1.392 13.254 4.805 17.048 12.442z" class="K"/><path d="M223.541 532.966c-2.104 8.698-4.407 14.513-6.958 15.623-4.556 2.004-8.35 3.33-12.21 3.23 4.44-1.226 7.985-7.438 10.785-16.517 2.402-.547 5.103-1.326 8.383-2.336z" class="D"/><path d="M215.87 352.765l-1.093-.083-4.838-.282h-.016l-5.418-.248h-.016l-2.071-.083c-7.986-.282-17.114-.431-27.535-.431l-20.328.232-9.725.298c-.066-.928-.182-2.004-.314-3.164 3.363-1.243 7.14-4.755 7.935-7.638.481.249 1.011.381 1.574.381 1.905 0 3.446-1.54 3.446-3.445 11.895-.763 29.606-1.276 42.147-.431h.033c.215 1.706 1.657 3.032 3.413 3.032.53 0 1.027-.116 1.458-.332 1.143 4.059 6.594 9.361 9.99 7.77l1.358 4.424z" class="J"/><path d="M209.939 352.4c3.397 2.005 5.501 7.737 3.413 10.968a51.4 51.4 0 0 1-1.524-.083l-12.276-.53c-7.29-.216-15.458-.332-24.652-.332l-10.139.05h-.017c-.116-.033-.248-.05-.364-.066-.464-.083-.912-.149-1.359-.199h-.149c-.762-.083-1.475-.083-2.17-.017-.067.017-.166.034-.232.05h-.033c-.183 0-.348.033-.531.066-.463.067-.911.15-1.358.249-.017 0-.033.017-.066.017a93.39 93.39 0 0 0-3.065.049l-1.756.05-5.517.149c-.05-.099-.116-.182-.183-.282-3.147-4.622-7.604-8.465-9.31-8.465l-.1-1.607c.216 0 .448-.017.68-.034.265-.016.53-.033.795-.033l4.821-.232 9.725-.298 20.328-.232c10.42 0 19.549.149 27.534.431l2.071.083h.017l5.417.248z" class="E"/><path d="M213.087 106.61l.265.083c-3.827 15.076-11.315 42.113-2.899 50.778l-14.414-8.35c5.6-10.537 11.631-25.198 17.048-42.511z" class="D"/><path d="M211.149 396.85l.033 1.093a7.17 7.17 0 0 0-1.193.1c-9.858 1.574-18.356 23.442-14.695 31.842a.93.93 0 0 0 .066.199c-4.158.679-7.074.911-7.72 1.01l-3.181.116-9.576.133c-6.643 0-12.707.099-18.29-.265 2.7-6.196-1.226-19.748-7.455-27.055-1.061-1.259-2.204-2.319-3.38-3.131-1.243-.861-2.535-1.441-3.86-1.656a6.83 6.83 0 0 0-1.176-.083l.232-4.639c7.968.398 17.229.629 27.981.679 11.73 1.491 27.552 2.038 42.214 1.657z" class="E"/><path d="M210.884 225.943c7.057 7.571 10.934 21.687-1.989 25.331-7.919 1.177-15.689-.066-17.345-4.009a5.08 5.08 0 0 1-.249-.712l.083-.033c1.491-8.731 6.809-14.828 13.237-18.208.249.431.729.729 1.292.729.845 0 1.525-.696 1.525-1.541 0-.149-.017-.298-.067-.447 1.16-.464 2.336-.828 3.513-1.11z" fill="#7f4d40"/><path d="M210.884 225.943c-1.177.282-2.353.646-3.513 1.11-.182-.629-.762-1.077-1.458-1.077-.861 0-1.54.679-1.54 1.524a1.38 1.38 0 0 0 .248.812c-6.428 3.38-11.746 9.477-13.237 18.208l-.083.033c-1.723-5.65 1.74-16.568 7.141-24.172 3.545-2.866 8.499-.679 12.442 3.562z" fill="#6b3d34"/><path d="M207.371 227.053a1.39 1.39 0 0 1 .067.448c0 .844-.68 1.54-1.525 1.54-.563 0-1.043-.298-1.292-.729.895-.48 1.823-.894 2.75-1.259z" class="H"/><path d="M207.338 318.471l-.033.132c-.828 3.049-1.673 13.337-1.259 17.098-.596-1.011-1.706-1.707-2.982-1.707-.961 0-1.823.398-2.452 1.027-.381-3.297.132-13.866 1.093-17.312l.033-.199 5.6.961z" class="J"/><path d="M205.913 225.976c.696 0 1.276.448 1.458 1.077-.927.365-1.855.779-2.75 1.259-.165-.232-.248-.513-.248-.811 0-.845.679-1.525 1.54-1.525z" class="H"/><path d="M204.522 340.571c-.431.216-.928.332-1.458.332-1.756 0-3.198-1.326-3.413-3.032a3.43 3.43 0 0 1-.033-.431 3.39 3.39 0 0 1 .994-2.419c.613-.613 1.491-1.027 2.452-1.027 1.276 0 2.386.696 2.982 1.707.298.53.464 1.11.464 1.739a3.44 3.44 0 0 1-1.988 3.131z" fill="#fc9"/><path d="M192.511 535.716c10.354 1.093 14.943 1.392 22.647-.414-2.8 9.079-6.345 15.291-10.785 16.517-2.817-.049-5.699-.878-8.963-2.733-1.541-.878-2.353-6.18-2.883-13.37h-.016z" class="G"/><path d="M201.738 317.51l-.033.199c-.961 3.446-1.474 14.015-1.093 17.312a3.39 3.39 0 0 0-.994 2.419 3.43 3.43 0 0 0 .033.431h-.033c-12.541-.845-30.252-.331-42.147.431a3.39 3.39 0 0 0-.994-2.419c.364-3.314-.149-13.884-1.11-17.329 3.612-.647 6.561-1.492 7.571-3.331 1.027-1.872 1.359-4.058 1.276-6.295h.016c11.283 1.011 15.391.795 26.127-1.276.414 1.74 1.044 3.562 1.855 5.633.994 2.535 4.954 3.446 9.526 4.225z" class="C"/><path d="M199.369 201.656c.116.861-1.126 1.988-2.866 3.015l-8.532-.099c.646-1.69 2.32-3.728 4.755-4.474 2.932-.894 6.478.216 6.643 1.558z" fill="#cc8e87"/><path d="M197.033 383.745v.299l-6.245.132-5.633.083v-.331c.083-.15.132-.282.182-.431 1.193-4.043-5.517-10.52-13.618-15.192.53-.646 1.093-1.292 1.656-1.939l.216-.397c.646.348 1.292.729 1.955 1.11 3.711 2.17 7.621 4.986 11.547 8.085a148.03 148.03 0 0 1 4.738 3.942c.945.796 1.872 1.624 2.8 2.452l2.369 2.154.033.033z" fill="#c47b49"/><path d="M191.483 271.039c-1.822 2.336-4.622 4.639-7.968 6.527.463-1.905-2.353-11.497-3.977-14.28 4.772-3.065 8.88-5.285 12.823-1.226 2.353 2.418 1.674 5.732-.878 8.979z" class="K"/><path d="M189.76 302.831c0 1.657.199 3.215.597 4.822-10.736 2.07-14.844 2.286-26.127 1.275h-.016c-.05-1.524-.298-3.065-.613-4.539a135.47 135.47 0 0 0 6.328.149c6.611 0 13.304-.597 19.831-1.74v.033z" class="D"/><path d="M196.503 204.671c-3.098 1.822-7.737 3.264-8.648 2.121-.331-.415-.281-1.26.116-2.22l8.532.099z" fill="#eab5a7"/><path d="M171.719 368.305c8.101 4.672 14.811 11.149 13.618 15.192-.05.149-.099.281-.182.431v.331l-10.272.05a892.91 892.91 0 0 1-11.796-.083v-.431c1.226-5.417 4.391-10.421 8.632-15.49z" fill="#e09f57"/><path d="M179.538 263.286c1.624 2.783 4.44 12.375 3.977 14.281-4.059 2.319-8.914 4.042-13.751 4.522.464-1.905-.58-10.039-2.204-12.806 4.49-.961 8.417-3.711 11.978-5.997z" class="K"/><path d="M150.38 245.194c.315-3.462 30.368-6.942 30.401-3.38 0 2.817-9.228 7.24-16.584 7.24-6.146 0-14.065-1.259-13.817-3.86z" class="D"/><path d="M173.591 365.969l-.216.397-1.656 1.939c-4.689-2.717-9.858-4.805-14.231-5.468.314-.099.646-.182.977-.265.033 0 .05-.016.066-.016a18.01 18.01 0 0 1 1.359-.249 5.99 5.99 0 0 1 .53-.066h.033s.166-.033.232-.05c.696-.066 1.408-.066 2.17.017h.149c.448.05.895.116 1.359.199.116.016.248.033.364.066h.017c.315.066.63.133.961.232 2.419.613 5.069 1.756 7.886 3.264z" fill="#c47b49"/><path d="M171.155 254.124c.978 2.419-1.838 5.152-6.212 5.434-.398.017-.795 0-1.193-.083 4.075-.248 4.738-4.523 4.009-5.914v-.315c1.773 0 3.148.248 3.396.878z" class="L"/><path d="M167.56 269.283c1.624 2.766 2.668 10.901 2.204 12.806-4.49.447-9.708-.083-14.049-1.292.464-1.905.745-8.946-.878-11.746 2.999.083 6.478.662 10.023.547.928-.034 1.822-.15 2.7-.315z" class="H"/><path d="M167.759 253.561c.729 1.391.066 5.666-4.009 5.914-2.982-.514-5.749-3.38-4.805-4.539.663-.812 5.435-1.707 8.814-1.69v.315z" class="M"/><path d="M148.939 368.239l1.392-1.359c1.839-1.624 3.926-2.899 6.229-3.728l.033-.016.596-.216c.017 0 .033-.016.05-.016a1.35 1.35 0 0 1 .249-.066c4.373.662 9.542 2.75 14.231 5.467-4.241 5.069-7.406 10.073-8.632 15.49v.431c-1.375 0-2.717-.033-4.026-.05l-17.445-.547v-.298c.928-5.55 3.496-11.067 7.323-15.092z" fill="#e09f57"/><path d="M168.604 484.905c-1.309.381-2.187 2.319-2.783 5.301-1.955 9.758-.729 30.782-.961 45.278l-7.753.746c2.369-15.623 1.292-38.287 1.226-49.122 0-2.203 7.736-2.104 10.271-2.203z" class="I"/><path d="M164.86 535.484c-.116 8.085-.696 14.132-2.518 15.109-4.589 2.485-9.328 2.734-13.536 2.005 4.457-.779 6.942-7.406 8.301-16.369 2.253-.165 4.771-.43 7.753-.745z" class="D"/><path d="M157.488 362.838s-.166.033-.249.066c-.016 0-.033.016-.05.016l-.596.216-.033.016c-2.303.829-4.39 2.104-6.229 3.728-.564-1.359-1.326-2.734-2.204-4.059l5.517-.149 1.756-.05 3.065-.049-.977.265z" class="C"/><path d="M149.138 404.023c6.229 7.307 10.155 20.859 7.455 27.055-.017.033-.017.082-.033.116 0 .016 0 .033-.017.049-.248.928-.778 1.806-1.557 2.618-5.335 5.583-22.018 8.068-33.963 3.711 16.866.663 27.684-3.744 28.28-17.661 2.237-4.191 1.11-10.271-.397-15.689l.232-.199z" class="D"/><path d="M151.043 336.529c.613-.994 1.723-1.673 2.982-1.673.961 0 1.822.397 2.452 1.027s.994 1.458.994 2.419c0 1.905-1.541 3.446-3.446 3.446-.563 0-1.093-.133-1.574-.381-1.11-.564-1.889-1.723-1.889-3.065a3.55 3.55 0 0 1 .481-1.773z" fill="#fc9"/><path d="M155.367 318.553c.961 3.446 1.474 14.016 1.11 17.33-.63-.63-1.491-1.027-2.452-1.027-1.259 0-2.369.679-2.982 1.673.414-3.761-.447-14.033-1.259-17.081l5.583-.895z" class="J"/><path d="M154.837 269.051c1.623 2.8 1.342 9.841.878 11.746-6.511-1.822-11.05-5.202-8.234-9.228 1.574-2.253 4.192-2.651 7.356-2.518z" class="H"/><path d="M146.52 513.251c5.362 0 9.708-2.188 9.708-4.887s-4.346-4.888-9.708-4.888-9.708 2.188-9.708 4.888 4.346 4.887 9.708 4.887z" class="I"/><path d="M133.697 532.966c10.719 3.313 15.424 3.86 23.41 3.264-1.359 8.962-3.844 15.589-8.301 16.368-2.667-.447-5.135-1.292-7.206-2.22-3.314-1.475-4.871-4.208-7.903-17.412z" class="G"/><path d="M150.563 338.302c0 1.342.778 2.501 1.888 3.065-.795 2.882-4.572 6.395-7.936 7.637l-1.209-10.586c-.381 2.899-1.441 6.892-2.468 10.785l-.829 3.197c-.265 0-.53.017-.795.033-.232 0-.464.034-.679.034-8.715.48-15.822 1.159-21.604 1.988 1.905-4.473 15.524-26.74 21.521-31.279 2.8-2.121 7.091-3.032 11.332-3.728.812 3.049 1.673 13.32 1.259 17.081a3.55 3.55 0 0 0-.48 1.773z" class="C"/><path d="M150.331 366.88l-1.392 1.358c-1.607-4.721-5.418-9.277-7.256-8.548-2.071.795-.514 4.622-2.154 6.776-2.187 2.866-14.563-4.192-35.321-9.576a185.94 185.94 0 0 0-7.058-1.673c2.087-.05 5.136.447 8.648 1.226.166.033.331.066.497.116h.017l2.087.48c2.982.696 6.163 1.541 9.311 2.353 4.837 1.275 9.576 2.518 13.22 3.214h.017c1.557.298 2.899.513 3.993.579.977.067 1.739.034 2.253-.149.083-.016.149-.049.215-.083 3.662-1.805-2.17-7.571.911-8.83a.9.9 0 0 1 .315-.05c1.707 0 6.163 3.844 9.311 8.466.066.1.132.183.182.282.878 1.325 1.64 2.7 2.204 4.059z" class="N"/><path d="M148.906 404.222c1.507 5.418 2.634 11.498.397 15.689.216-5.036-.894-11.298-3.545-19.019 1.176.812 2.319 1.872 3.38 3.132l-.232.198z" class="D"/><path d="M114.015 423.308c7.522-9.659 14.381-18.274 20.527-22.084 2.154-1.342 4.208-2.071 6.18-2.071a6.83 6.83 0 0 1 1.176.083c1.325.215 2.617.795 3.86 1.656 2.651 7.721 3.761 13.983 3.545 19.019-.596 13.917-11.414 18.324-28.28 17.661-1.242-.447-2.435-.961-3.562-1.574-2.087-1.143-3.943-2.535-5.434-4.241-2.882-2.866-3.727-7.753-3.744-11.531 1.541.961 3.264 1.872 5.186 2.701.049.033.099.066.149.066l.397.315z" class="G"/><path d="M147.249 205.582c.282 1.822-.066 3.496-.828 4.026-1.408.994-5.302-1.094-7.82-3.546l8.648-.48z" fill="#eab5a7"/><path d="M145.659 201.888c.894 1.077 1.408 2.418 1.59 3.694l-8.648.481c-.895-.862-1.607-1.773-1.971-2.601l9.029-1.574z" fill="#cc8e87"/><path d="M120.178 375.23l-.116.182c-2.717-1.657-6.627-3.694-10.586-5.865-1.243-.679-2.485-1.375-3.695-2.087-.099-.05-.198-.116-.298-.166-1.955-1.126-3.81-2.269-5.45-3.379-1.541-1.061-2.883-2.071-3.894-3.065l-.066-.067c-1.773-1.739-2.551-3.346-1.673-4.688.398-.58 1.342-.845 2.75-.878a185.94 185.94 0 0 1 7.058 1.673c20.758 5.384 33.134 12.442 35.321 9.576 1.64-2.154.083-5.981 2.154-6.776 1.838-.729 5.649 3.827 7.256 8.549-3.827 4.025-6.395 9.542-7.306 15.092v.298l-4.838-.248c-6.345-.381-11.812-.878-16.501-1.458l.033-.315c.928-.447 1.939-.762 2.635-1.242 1.756-.58 4.854-.448 4.92-1.458.066-1.193-5.749-2.469-7.704-3.678zm20.643 3.015c2.087.066 4.026-3.28 3.28-4.622-.894-1.624-13.784-1.988-14.231.431-.348 1.872 8.946 4.125 10.951 4.191z" fill="#77b566"/><path d="M144.515 349.004l.315 3.164-4.821.232.829-3.197c.994.464 2.302.331 3.677-.199z" class="I"/><path d="M144.101 373.623c.746 1.342-1.193 4.688-3.28 4.622-2.005-.066-11.299-2.319-10.951-4.191.447-2.419 13.337-2.055 14.231-.431z" class="N"/><path d="M143.306 338.417c.232 2.817.812 7.058 1.209 10.587-1.375.53-2.683.663-3.677.199 1.027-3.894 2.087-7.886 2.468-10.786zm-.497-186.943l-14.331 9.609-.116-.166c5.932-2.899-4.224-29.871-6.461-80.55-.497-11.282-2.833-35.769-10.139-52.833 5.964 11.995 11.034 28.065 13.337 47.399 3.992 33.516 10.421 59.609 17.71 76.541z" class="D"/><path d="M132.952 223.988c6.129 7.555 10.354 18.837 8.449 24.371-1.524-8.996-7.207-15.077-13.95-18.257-.049-.796-.696-1.425-1.507-1.425a1.52 1.52 0 0 0-1.011.381c-1.292-.448-2.601-.812-3.926-1.061 3.644-4.307 8.316-6.61 11.945-4.009z" fill="#6b3d34"/><path d="M140.954 394.514l-.232 4.639c-1.972 0-4.026.729-6.18 2.054-6.146 3.827-13.005 12.442-20.527 22.101l-.397-.315s-.1-.033-.149-.066c-1.922-.829-3.645-1.74-5.186-2.701-13.718-8.499-13.718-21.189-13.718-35.387l.083-.083c4.838 4.755 16.799 8.317 46.306 9.758zm-2.419-42.047l.099 1.607c-.116 0-.232.016-.315.049-3.081 1.259 2.751 7.025-.911 8.831-.066.033-.132.066-.215.082-.514.183-1.276.216-2.253.15-1.094-.067-2.436-.282-3.993-.58h-.017c-3.644-.696-8.383-1.939-13.22-3.214l-9.311-2.353-2.087-.48c.977-.265 2.021-.514 3.131-.762 2.203-.481 4.688-.928 7.488-1.342 5.782-.829 12.889-1.508 21.604-1.988z" class="E"/><path d="M136.63 203.461c.364.829 1.076 1.74 1.971 2.601-10.156.63-19.599 1.376-27.667 2.154l25.696-4.755z" class="D"/><path d="M132.952 223.988c-3.629-2.601-8.301-.298-11.945 4.009-4.904-.977-9.858-.596-13.867 1.16l-.298-.132c3.462-7.389 10.172-13.42 15.755-12.459 3.562.613 7.223 3.529 10.355 7.422z" class="K"/><path d="M141.401 248.358c-1.408 4.043-9.095 5.766-17.064 5.12-13.304-2.866-10.073-17.562-3.33-25.481 1.325.249 2.634.613 3.926 1.061-.331.281-.53.695-.53 1.159 0 .845.679 1.525 1.541 1.525a1.51 1.51 0 0 0 1.524-1.525c0-.033 0-.083-.017-.116 6.743 3.181 12.426 9.261 13.95 18.257z" fill="#7f4d40"/><path d="M110.868 66.882c-.663-8.764-1.723-17.164-3.181-25.513h-.017c-.828-8.449-10.653-34.095-23.823-37.028 1.309-.696 2.584-1.093 3.81-1.143 6.71-.298 16.17 8.416 24.072 24.271 0 .017 0 .033.033.066 7.306 17.064 9.642 41.55 10.139 52.833 2.237 50.679 12.393 77.651 6.462 80.55l.116.166-3.513 2.302c-6.494-10.586-15.424-29.091-13.933-54.953.895-15.225.812-28.711-.165-41.451v-.099z" class="G"/><path d="M120.178 375.23c1.955 1.209 7.77 2.485 7.704 3.678-.066 1.01-3.164.878-4.92 1.458.629-.448.994-.994.795-1.873-.166-.728-1.574-1.772-3.695-3.081l.116-.182z" class="N"/><g class="H"><path d="M127.451 230.101s.017.083.017.116a1.52 1.52 0 0 1-1.524 1.525c-.845 0-1.541-.68-1.541-1.525 0-.464.199-.878.53-1.159l2.518 1.043z"/><path d="M125.944 228.677c.811 0 1.458.629 1.507 1.425l-2.518-1.044a1.52 1.52 0 0 1 1.011-.381zm-1.607 24.784c-8.035-.663-16.336-3.744-18.754-9.344-1.955-4.489-1.077-10.106 1.259-15.092l.298.132c4.009-1.756 8.963-2.137 13.867-1.16-6.743 7.92-9.974 22.615 3.33 25.464z"/></g><path d="M122.962 380.366c-.696.48-1.707.795-2.635 1.242l-.033.315c-15.357-1.872-22.597-4.805-25.977-8.4-.05-.049-.083-.099-.133-.149.05-.049.083-.116.133-.165 1.723-1.806 4.407-3.463 8.631-4.888.879-.298 1.823-.58 2.833-.861 1.21.712 2.452 1.408 3.695 2.087 3.959 2.17 7.869 4.208 10.586 5.865 2.121 1.309 3.529 2.352 3.695 3.081.199.879-.166 1.425-.795 1.873z" class="C"/><path d="M108.035 261.745c5.086 0 9.194 2.187 9.194 4.887s-4.108 4.871-9.194 4.871-9.195-2.187-9.195-4.871 4.125-4.887 9.195-4.887z" fill="#e08f82"/><path d="M124.966 163.386c-2.949 1.921-6.328 4.058-11.116 7.007l-.299-.298c2.187-4.34-3.33-22.664-4.837-27.998-5.103-17.909 3.23-52.949 2.154-75.116.977 12.74 1.06 26.226.165 41.451-1.491 25.862 7.439 44.367 13.933 54.954z" class="L"/><path d="M108.714 142.097c1.507 5.334 7.024 23.658 4.837 27.998-11.961-12.707-35.752-32.388-47.961-63.071C48.525 64.099 68.257 12.608 83.847 4.341c13.171 2.932 22.995 28.578 23.823 37.028h.017c1.458 8.35 2.518 16.749 3.181 25.514v.099c1.076 22.167-7.257 57.207-2.154 75.116z" class="M"/><path d="M91.65 368.189h-.05c.232-1.541.729-3.032 1.673-4.44.679-1.011 1.607-1.988 2.866-2.899 1.011.994 2.353 2.004 3.894 3.065l5.45 3.379.298.166-2.833.861c-4.224 1.425-6.908 3.082-8.631 4.888-.05.049-.083.116-.133.165-1.458-1.623-2.187-3.346-2.535-5.185z" class="E"/><path d="M88.137 244.83l-.613 4.605c-.282 2.287-.381 4.507-.298 6.644h-.033c-44.135-1.326-83.73-6.213-84.377-13.933-.05-.63.149-1.292.613-1.988 5.268-7.903 43.588-18.87 92.263-28.91-3.661 11.117-5.997 22.681-7.555 33.582z" class="C"/><g stroke="#3f2a25" class="B"><path d="M234.773 434.325c1.077 6.511-.049 17.313-.762 24.155-4.142 39.331-9.609 86.663-17.428 90.092-7.903 3.479-13.47 4.888-21.19.497-5.401-3.098-1.938-60.503-8.201-63.75-1.507-.779-3.247-1.259-5.069-1.491-5.053-.729-10.686.215-13.502 1.06-1.309.381-2.187 2.32-2.784 5.302-3.031 15.192 1.624 57.637-3.479 60.387-7.505 4.059-15.407 2.17-20.742-.215-6.428-2.866-6.246-10.421-23.128-90.109-1.358-6.428-2.12-16.932-1.01-24.47m39.065-4.987c5.583.365 11.696.547 18.34.547l9.576-.133c3.992-.115 7.753-.298 11.299-.563m62.673-56.991c0 11.912 0 21.571-83.548 21.571s-83.548-9.659-83.548-21.571m4.357-162.408c-4.192 12.707-6.627 25.978-8.168 38.188-4.622 36.696 40.341 55.102 82.405 55.102s86.597-24.287 81.826-58.134l-1.177-7.406c-2.949-16.716-8.184-34.459-17.014-49.519m-37.525-40.341c8.93-16.849 18.986-44.201 25.895-76.043 9.609-44.251 32.389-69.499 44.085-67.859 15.689 2.22 34.94 60.884 12.094 105.466-14.032 27.386-37.425 44.367-51.209 55.865-.017.016-.05.033-.066.066m-12.277-6.776l1.326-1.889c7.24-10.702 16.02-27.733 16.848-50.182.961-25.762 4.209-46.355 9.725-66.451m-99.651 110.139c-7.29-16.932-13.718-43.025-17.71-76.54-5.368-44.947-25.646-72.266-37.442-71.736-15.822.712-40.573 57.289-22.067 103.826 12.21 30.683 36.001 50.364 47.962 63.071.116.116.216.216.299.315m-6.164-129.042c3.561 20.527 4.854 41.335 3.346 67.064-1.491 25.878 7.455 44.384 13.95 54.97" class="F"/><path d="M191.55 247.265c-3.43-8.167 6.378-30.434 16.732-32.919 9.228-2.22 22.847 14.961 18.738 26.392s-32.157 14.446-35.47 6.527z"/><path d="M198.408 222.398c9.874-8.052 30.65 23.161 10.487 28.877" class="F"/><path d="M141.401 248.359c2.899-8.383-8.317-29.97-18.804-31.793-9.344-1.623-21.836 16.385-17.014 27.535s33.018 12.359 35.818 4.241v.017z"/><path d="M132.951 223.988c-10.371-7.405-29.108 25.083-8.614 29.49m21.321-51.59c2.187 2.601 2.055 6.809.763 7.72-1.906 1.342-8.383-2.966-9.792-6.146" class="F"/><path d="M187.855 206.792c-.895-1.127 1.027-5.517 4.887-6.693 2.933-.895 6.478.231 6.644 1.573.315 2.419-10.09 6.926-11.531 5.12zm-22.912 52.749c4.373-.265 7.173-3.015 6.212-5.434-.729-1.839-11.216-.414-12.21.812-1.077 1.309 2.618 4.838 5.998 4.622z"/><g class="F"><path d="M164.86 269.598c.497-3.678.563-8.681.182-10.04M88.154 244.83c-20.808-8.4-48.227-9.742-67.08-5.086m13.701 30.384c18.555-6.544 37.359-9.742 53.114-8.449m164.081-18.837c20.808-8.4 47.316-9.675 66.153-5.02m-13.685 30.401c-18.555-6.544-37.359-9.742-53.114-8.45m-87.723 44.616c.812 3.661 1.06 7.704-.663 10.835-2.584 4.705-17.81 2.899-24.486 7.952-5.998 4.539-19.616 26.789-21.521 31.279m65.192 129.389h-.017m7.654-181.012c-.016 3.429.878 6.461 2.452 10.453 2.104 5.352 17.445 3.48 23.873 8.383 6.644 5.087 17.992 28.579 19.136 33.168M112.06 425.81l1.558-1.988c7.67-9.858 14.662-18.721 20.924-22.598 2.584-1.607 5.036-2.369 7.356-1.988 9.857 1.574 18.356 23.442 14.695 31.842 0 .033 0 .083-.033.116 0 0 0 .033-.017.05-2.137 8.002-25.613 12.011-39.082 4.754-2.087-1.126-3.943-2.534-5.434-4.241m.033-6.676s-.016.032-.033.049m36.879-20.907c1.822 6.527 3.065 13.999-1.392 17.975"/><path d="M134.542 401.787c.895 8.3.199 13.486-2.783 18.688m-37.194-35.636c0 14.198 0 26.888 13.718 35.387 1.541.961 3.264 1.872 5.186 2.701.049.033.099.066.149.066m124.783-1.06l.15-.067c1.888-.96 3.562-1.988 5.053-3.081 11.58-8.449 11.58-20.527 11.58-33.946M91.65 368.156c.348 1.855 1.077 3.595 2.535 5.202.033.05.083.099.133.149 4.423 4.672 15.374 8.234 42.478 9.841 6.461.398 13.834.646 22.25.795l15.821.133 15.905-.133 9.509-.232 7.406-.281c30.981-1.425 43.041-5.153 47.73-10.139.05-.05.099-.1.132-.15 1.492-1.607 2.187-3.379 2.535-5.218m-166.749 5.086v-.679l.033-1.723c.083-2.502.431-4.888 1.905-7.058.663-.994 1.557-1.938 2.767-2.833m10.155-4.341h.017l3.231-.778 7.488-1.342c5.931-.845 13.254-1.541 22.283-2.021.265-.017.53-.033.795-.033 4.423-.232 9.261-.398 14.546-.531l20.328-.232c10.421 0 19.549.15 27.535.431l2.07.083 10.272.53c.365.017.729.05 1.094.083l4.075.298c3.048.232 5.848.514 8.433.812 8.217.961 14.181 2.203 18.505 3.694 11.548 3.927 11.548 9.477 11.548 15.64"/><path d="M164.562 362.473l10.321-.049 24.652.331 12.276.53h.017c19.019 1.06 30.285 3.082 36.945 5.749 3.114 1.259 5.235 2.651 6.66 4.158.049.067.099.116.132.166m-161.381.016s.083-.115.133-.165c1.723-1.806 4.407-3.463 8.631-4.887l2.701-.829m42.296-4.655h.016l5.683-.166 1.756-.05 2.916-.049m-50.033 57.654c.017 3.777.861 8.25 3.744 11.116m127.617-7.753l.166.232m.033.828l-.033-.05-1.409-1.789c-10.901-13.999-20.394-26.044-28.412-24.768-9.858 1.574-18.357 23.443-14.695 31.842.099.431.248.812.464 1.21 4.44 8.465 33.449 11.63 44.085-.531"/><path d="M202.981 403.113c-1.822 6.527-3.065 13.999 1.392 17.975m12.972-20.411c-.895 8.3-.199 13.469 2.783 18.671m23.476-.563c.016 3.811-.829 8.383-3.761 11.299M140.009 352.4c1.209-4.787 2.8-10.288 3.297-13.982m72.564 14.347c-1.491-4.457-2.518-8.913-4.324-13.37"/></g><path d="M192.361 262.06c-7.471-7.688-15.556 7.19-27.485 7.554-7.273.232-14.314-2.435-17.379 1.972-4.688 6.709 11.051 11.63 22.283 10.52 14.298-1.408 28.711-13.718 22.581-20.03v-.016z"/><g class="F"><path d="M167.56 269.283c1.624 2.783 2.668 10.901 2.22 12.806m9.758-18.803c1.624 2.783 4.424 12.392 3.976 14.297m-28.677-8.549c1.623 2.784 1.342 9.858.894 11.763m35.736-9.758c24.536-1.623 63.767 10.703 91.798 30.003"/><use xlink:href="#B" x="-0.083" y="0.083"/></g><use xlink:href="#D"/><path d="M149.784 319.448c.828 3.049 1.673 13.37 1.259 17.114m4.34-18.008c.961 3.446 1.475 14.016 1.094 17.329" class="F"/><use xlink:href="#D" x="49.039" y="-0.862"/><g class="F"><path d="M207.305 318.604c-.828 3.048-1.673 13.369-1.259 17.113m-4.341-18.008c-.961 3.446-1.474 14.016-1.093 17.329m-43.141 3.264c11.895-.762 29.605-1.276 42.147-.431m4.904 2.684c1.126 4.042 6.593 9.36 9.973 7.787m-62.044-6.975c-1.127 4.042-8.234 9.41-11.614 7.836m-7.14 183.763c13.751 4.258 17.611 3.943 31.179 2.518m58.665-2.518c-13.751 4.258-17.445 4.175-31.031 2.75"/><use xlink:href="#C" x="-0.083" y="0.083"/><path d="M3.429 240.158c13.95-31.262 281.626-87.972 325.876-49.238m-93.124-13.386c-2.733-4.026-5.848-7.687-9.277-10.967m-30.865-17.446c-16.915-4.837-35.801-4.224-53.23 2.353-.033.017-.05.033-.083.05"/><path d="M92.263 202.037c5.335-12.972 12.674-23.575 21.289-31.942m.298.299c13.535-8.317 15.838-10.222 28.976-18.92m53.213-2.353c12.774 7.19 18.208 10.852 30.799 17.495m-81.279 234.061h-.016m-4.093-17.362c1.028-6.196 4.093-12.359 8.698-16.451 1.839-1.624 3.927-2.9 6.229-3.728 0 0 .011-.006.034-.017.198-.083.397-.149.596-.215.017 0 .033-.017.05-.017a17.19 17.19 0 0 1 2.65-.596 5.66 5.66 0 0 1 .531-.066h.033l.232-.05c.695-.066 1.408-.066 2.17.017h.149c.447.049.895.116 1.359.198.447.067.878.166 1.342.299 2.965.762 6.312 2.302 9.84 4.373 3.711 2.171 7.621 4.987 11.548 8.085 1.59 1.276 3.181 2.585 4.738 3.943.944.795 1.872 1.624 2.8 2.452l2.369 2.154.033.033"/><path d="M150.148 366.864c-.596-1.458-1.441-2.933-2.385-4.341-3.364-4.937-8.218-8.996-9.626-8.416-3.081 1.259 2.75 7.024-.911 8.83a.85.85 0 0 1-.216.083c-.513.182-1.275.215-2.253.149-1.093-.066-2.435-.282-3.992-.58h-.017c-3.645-.696-8.383-1.938-13.221-3.214l-9.31-2.352-2.601-.597c-5.865-1.292-10.438-1.806-11.399-.348-.878 1.342-.099 2.949 1.673 4.689 1.027 1.01 2.386 2.054 3.96 3.131 1.64 1.11 3.496 2.253 5.451 3.38l3.993 2.253c7.041 3.86 13.899 7.306 14.28 8.946.415 1.839-1.673 2.286-3.429 3.115m42.611 2.319c1.375-6.113 5.235-11.696 10.288-17.429"/></g></g><defs ><path id="B" d="M253.146 284.707c-1.308 4.904.762 11.017 1.458 11.067 1.243.099 2.369-5.55 3.678-5.401 1.359.149 1.077 6.279 3.032 6.693 1.541.331 2.816-3.28 4.324-3.032 2.568.431 2.336 11.597 3.678 11.664 1.093.066 1.657-7.406 3.462-7.572 2.535-.215 4.904 14.43 7.787 14.265 1.972-.116.166-7.174 2.319-7.406 3.198-.348 7.307 14.447 11.299 13.701 2.634-.48-6.345-12.657-4.556-16.451.862-1.822 10.371-2.966 10.371-3.893 0-1.425-17.892-2.104-17.942-3.678-.033-1.21 11.514-1.789 10.586-3.032-1.59-2.137-20.261.116-20.526-1.938-.199-1.491 11.232-3.115 9.94-4.755-2.8-3.562-19.4 2.303-20.096-.215-.298-1.077 3.28-2.022 2.601-3.463-.397-.828-10.288-.547-12.988 2.783"/><path id="C" d="M87.293 255.996c-44.135-1.325-83.747-6.213-84.393-13.933-1.889-22.531 324.253-76.723 327.368-49.271 1.64 14.38-44.268 36.001-79.589 46.123"/><path id="D" d="M154.025 341.748c1.903 0 3.446-1.543 3.446-3.446s-1.543-3.446-3.446-3.446-3.446 1.543-3.446 3.446 1.543 3.446 3.446 3.446z"/></defs></svg>