<svg xmlns="http://www.w3.org/2000/svg" width="299" height="290" fill="none" xmlns:v="https://vecta.io/nano"><style><![CDATA[.B{fill:#c47b49}.C{fill:#6a964d}.D{fill:#e09f57}.E{fill:#77b566}.F{fill:#ad7766}.G{stroke-linecap:round}.H{stroke-linejoin:round}]]></style><g stroke="#3f2a25" stroke-width="2" class="G H"><path d="M239.877 122.314c17.709-11.584 49.211-39.009 55.158-34.883 7.781 5.419-12.951 28.486-25.093 43.616M14.95 187.854v.066c0 54.421.066 99.197 134.666 99.197s134.649-45.075 134.649-99.197"/><path d="M14.95 187.937c-5.418-6.861-5.418-14.882-5.418-23.449m280.151-.017c0 8.568 0 16.605-5.418 23.449M10.044 153.136v-.049m259.915-22.057c13.81 5.867 17.956 13.44 19.195 21.957.546 3.696.546 7.524.546 11.484M40.175 127.335c-4.857 1.326-8.92 2.767-12.356 4.325"/><path d="M13.034 143.84c-1.635 2.933-2.511 6.016-2.99 9.247v.05c-.512 3.629-.512 7.44-.512 11.335m105.839-45.406l-25.655 1.193m150.161 2.055c5.518-28.404 5.898-54.669-.049-59.923-2.677-2.353-16.536 6.28-33.056 19.869a357.14 357.14 0 0 0-20.913 18.61M13.034 143.84c-7.549-5.187-12.356-10.125-9.928-13.854 1.933-2.949 12.224-1.309 24.696 1.674m96.787-28.503h-.017c-4.427 4.375-7.714 9.695-9.201 15.892m48.98-29.083c4.559.497 8.904 1.674 12.703 3.563 3.238 1.624 6.162 4.126 8.805 7.358"/><path d="M124.572 103.174c-11.2-5.568-22.433-19.753-20.897-22.869 2.594-5.27 11.993 5.783 15.644-.431 4.675-7.987-14.553-72.334-6.492-76.825 11.58-6.43 29.338 52.78 35.616 54.719 5.666 1.757 4.642-11.285 12.323-8.882 4.394 1.375 8.788 21.477 3.568 41.097M40.175 127.335c-13.1-28.553-20.451-57.652-15.396-64.546 2.098-2.867 17.428 2.585 36.392 12.263 5.551 2.834 11.398 6.065 17.362 9.545m4.757 14.351v-.017"/><path d="M78.516 84.597c-2.296 4.822-2.065 7.938-1.008 9.992 1.189 2.32 3.386 3.43 5.782 4.358 3.37 1.359 7.12 2.37 8.92 6.131 2.445 5.436-2.048 10.258-2.494 15.18"/></g><g fill="#bc7171"><path d="M294.969 87.381c7.781 5.402-12.934 28.47-25.076 43.6-4.84 6.048-8.293 10.821-8.012 12.694.942 5.866 12.175-.829 13.43 7.158.182 1.094-.628 2.702-2.246 4.558-5.022 5.717-17.858 13.837-32.89 16.853-2.065-5.585-5.303-11.004-9.4-15.727-.694-.812-1.388-1.607-2.131-2.353-4.394-4.524-9.532-8.252-15.082-10.688-.925-.398-1.867-.763-2.808-1.111 0-4.59 1.024-9.661 2.494-14.284.859-2.668 1.85-5.187 2.874-7.358 2.082-4.325 4.312-7.275 5.782-7.275 3.321 0 2.908 4.309 3.255 8.104h.016c.248 2.916.975 5.501 4.047 5.733 1.784.133 5.039-1.458 9.169-4.109a22.57 22.57 0 0 0 1.42-.912c17.709-11.6 49.211-39.009 55.158-34.883zm-5.881 65.59c.546 3.679.545 7.507.545 11.451 0 8.733.001 16.87-5.682 23.813-10.87 13.241-42.471 22.09-134.401 22.09s-123.483-8.833-134.385-22.057c-5.699-6.943-5.699-15.096-5.699-23.83 0-3.91 0-7.722.529-11.351.611 4.027 1.867 7.838 4.493 11.368 4.626 6.198 13.463 11.467 30.429 15.395 10.308 2.386 23.623 4.275 40.786 5.551 10.837.829 23.193 1.392 37.317 1.707l26.531.282 26.662-.282 15.99-.497 12.406-.613c15.182-.895 27.637-2.204 37.879-3.861 24.812-4.06 36.558-10.208 42.125-17.715 2.643-3.53 3.882-7.391 4.476-11.451z"/><path d="M289.088 152.971c-.594 4.06-1.833 7.921-4.476 11.451-2.445-3.281-6.113-6.33-11.547-9.032 1.618-1.856 2.428-3.463 2.246-4.557-1.255-7.987-12.488-1.292-13.43-7.159-.281-1.872 3.172-6.645 8.012-12.693 13.793 5.866 17.956 13.439 19.195 21.973v.017zm-5.137 35.264l.264.265c0 54.454 0 98.584-134.649 98.584S14.9 242.954 14.9 188.5l.264-.232c10.903 13.224 42.537 22.057 134.385 22.057s123.531-8.849 134.401-22.09z"/><path d="M273.065 155.39c5.434 2.702 9.102 5.751 11.547 9.032-5.567 7.507-17.313 13.655-42.125 17.715v-.033c-.314-3.265-1.123-6.579-2.312-9.86 15.032-3.016 27.868-11.136 32.89-16.854zm-66.359-73.162c16.52-13.605 30.38-22.239 33.056-19.886 5.947 5.253 5.567 31.536.049 59.922a22.57 22.57 0 0 1-1.42.912c-4.13 2.651-7.385 4.242-9.169 4.109-3.072-.232-3.799-2.817-4.047-5.733h-.016c-.347-3.795.066-8.104-3.255-8.104-1.47 0-3.7 2.95-5.782 7.275-1.024 2.171-2.015 4.69-2.874 7.358l-.793-.249c-7.913-4.921-13.562-8.633-18.518-13.373 0 0-.017 0-.017-.033h-.016c-2.346-5.286-5.071-9.893-8.111-13.589 7.021-6.761 14.207-13.108 20.913-18.609z"/><path d="M193.937 114.459c4.956 4.739 10.605 8.451 18.518 13.373l.793.249c-1.47 4.623-2.494 9.694-2.494 14.268-2.776-.945-5.633-1.624-8.541-1.84-1.701-7.523-3.733-14.649-6.211-21.029-.661-1.723-1.355-3.397-2.065-5.021zm10.671 71.539l-12.406.613-6.277-6.065-1.156-1.077a8.04 8.04 0 0 0-.711-.63l-4.179-3.811-4.923-4.359c-2.759-2.402-5.567-4.706-8.359-6.96 1.107-1.59 2.197-3.098 3.321-4.54l1.107-1.392c15.511 7.043 27.752 15.063 33.583 28.221z"/><path d="M171.025 157.777l4.361-5.171h.016c4.642-5.021 9.251-8.716 13.678-10.456h.05c.512-.232 1.041-.414 1.569-.564 3.866-1.126 7.715-1.441 11.514-1.077 2.908.216 5.765.895 8.541 1.856.941.348 1.883.713 2.808 1.111 5.55 2.436 10.688 6.164 15.082 10.688.743.746 1.437 1.541 2.131 2.353 4.097 4.723 7.335 10.142 9.4 15.727 1.189 3.281 1.998 6.595 2.312 9.86v.033c-10.242 1.657-22.697 2.966-37.879 3.861-5.831-13.158-18.072-21.178-33.583-28.221z"/><path d="M189.097 142.133l-.017.017.017-.017zm-3.172 38.413l6.277 6.065-15.99.497c2.345-2.502 5.104-4.955 8.557-7.639l1.156 1.077z"/><path d="M174.956 170.669l4.923 4.359 4.179 3.811a7.9 7.9 0 0 1 .711.63c-3.453 2.684-6.211 5.137-8.557 7.639l-26.662.282a1197.42 1197.42 0 0 1-26.53-.282c.247-14.069 8.061-26.199 19.096-38.727l.529-.995c1.172.63 2.362 1.293 3.568 2.006 6.541 3.844 13.446 8.816 20.385 14.317l8.358 6.96zM160.717 48.836c4.41 1.392 8.804 21.477 3.568 41.081-13.777-1.442-29.718 3.347-39.762 13.191-11.217-5.552-22.433-19.737-20.897-22.852 2.593-5.27 11.993 5.8 15.627-.431C123.945 71.837 104.7 7.49 112.778 3c11.58-6.43 29.338 52.78 35.615 54.719 5.666 1.757 4.642-11.285 12.324-8.882z"/><path d="M126.489 141.106c.793.132 1.552.315 2.362.547 4.229 1.093 8.871 3.082 13.794 5.733l-.529.995c-11.035 12.528-18.849 24.658-19.096 38.727-14.124-.315-26.481-.878-37.318-1.707.248-13.24 6.079-27.541 16.024-36.357 3.238-2.884 6.922-5.138 10.985-6.596 0-.016.05-.033.067-.05.346-.132.71-.248 1.057-.364.033 0 .049-.017.066-.017 1.52-.48 3.089-.845 4.675-1.093.479-.067.958-.1 1.421-.183 1.982-.199 4.162-.066 6.475.365h.017z"/><path d="M175.386 152.607l-4.361 5.17-1.107 1.392-3.32 4.54c-6.939-5.501-13.844-10.473-20.385-14.317a97.87 97.87 0 0 0-3.569-2.005c-4.922-2.652-9.564-4.64-13.793-5.734-.81-.232-1.57-.414-2.362-.547-2.313-.431-4.494-.563-6.476-.365-.463.083-.942.116-1.421.183l-1.189-3.149c-1.47-4.209-2.428-8.103-2.676-11.616-.132-1.89-.066-3.696.231-5.336l.363-1.807c1.487-6.214 4.758-11.533 9.185-15.875h.033v-.033c10.044-9.844 25.985-14.633 39.762-13.191 4.56.497 8.904 1.674 12.704 3.563 3.237 1.624 6.161 4.126 8.804 7.357 3.04 3.696 5.766 8.303 8.111 13.572h.017s.017.034.017.05a117.11 117.11 0 0 1 2.064 5.021c2.478 6.38 4.51 13.506 6.212 21.029-3.8-.364-7.649-.049-11.514 1.078-.529.149-1.058.331-1.57.563h-.033s-.016-.033-.016 0c-4.427 1.74-9.036 5.435-13.678 10.457h-.017-.016z"/><path d="M113.901 142.017s-.033.017-.066.017l-1.057.365c1.602-1.409 3.122-2.967 4.608-4.624l1.19 3.149c-1.586.248-3.155.613-4.675 1.093zm-12.175 7.027c-9.945 8.816-15.776 23.117-16.024 36.357-17.164-1.276-30.478-3.165-40.786-5.551 0-6.231 11.151-4.856 9.912-10.258-.677-2.916-12.769-8.998-25.175-15.826h-.017c-5.897-3.248-11.828-6.678-16.651-9.976-7.566-5.186-12.373-10.125-9.945-13.837 1.933-2.966 12.224-1.309 24.713 1.657 5.253 1.243 10.87 2.735 16.42 4.176h.017c8.541 2.254 16.866 4.442 23.325 5.684 5.534 1.078 9.664 1.459 11.415.614 6.459-3.199-3.849-13.407 1.602-15.627 3.188-1.309 16.47 10.953 21.194 22.587zM90.41 124.253c-.694-1.359-.859-2.685-.743-4.027 7.781-.514 16.304-.928 25.638-1.21a50.95 50.95 0 0 0-.364 1.806c-.297 1.641-.363 3.447-.231 5.336-1.354.962-2.759 2.519-6.327 3.663-6.261 2.055-15.214-.299-17.973-5.568z"/><path d="M83.241 98.899c3.37 1.359 7.12 2.386 8.904 6.148 2.461 5.418-2.032 10.257-2.478 15.179-.116 1.342.049 2.668.743 4.027 2.759 5.27 11.713 7.623 17.973 5.568 3.569-1.144 4.973-2.701 6.327-3.662.248 3.513 1.206 7.407 2.677 11.6-1.487 1.673-3.007 3.231-4.609 4.64-.017.016-.05.033-.066.049-4.064 1.459-7.748 3.712-10.986 6.596-4.724-11.633-18.006-23.896-21.194-22.587-5.451 2.22 4.857 12.428-1.602 15.627-1.751.845-5.881.464-11.415-.613-6.459-1.243-14.785-3.431-23.325-5.684a250.38 250.38 0 0 1-4.08-8.502C26.993 98.733 19.658 69.633 24.713 62.773c2.081-2.883 17.428 2.585 36.392 12.263 5.567 2.834 11.415 6.065 17.362 9.512-2.296 4.855-2.065 7.954-1.024 9.993 1.206 2.337 3.386 3.43 5.798 4.358zm-28.413 70.693c1.239 5.403-9.912 4.027-9.912 10.241-16.965-3.91-25.803-9.18-30.429-15.378 2.957-3.977 7.665-7.59 15.148-10.688h.017c12.406 6.827 24.498 12.909 25.175 15.825z"/><path d="M44.189 135.787h-.017l-16.42-4.176c3.436-1.558 7.5-3 12.356-4.326a250 250 0 0 0 4.08 8.502zm-14.553 17.98c-7.483 3.098-12.191 6.711-15.148 10.688-2.627-3.53-3.882-7.341-4.493-11.368v-.05c.463-3.214 1.338-6.313 2.99-9.246 4.824 3.297 10.754 6.728 16.652 9.976z"/></g><path d="M295.135 87.381c2.395 1.657 2.098 4.988.165 9.247-28.909 37.849-44.074 41.047-41.084 47.51 2.016 4.392 8.375 5.933 8.194 9.86-.248 5.171-13.777 12.097-23.672 14.467-1.537-3.298-3.486-6.479-5.766-9.446 4.758-1.773 8.508-3.844 8.177-5.137-.264-1.044-2.659-1.624-5.996-1.557 5.005-4.806 11.117-13.274 9.185-15.578-2.164-2.568-15.644 7.607-17.99 10.275-1.024 1.176-1.024 2.817-.463 4.375-3.683-3.298-7.797-5.999-12.158-7.922-.925-.397-1.866-.762-2.808-1.093v-.033c0-4.574 1.024-9.645 2.494-14.268.859-2.668 1.851-5.187 2.875-7.358.908-1.889 1.85-3.513 2.742-4.756 1.14-1.591 2.197-2.519 3.023-2.519 3.337 0 2.924 4.309 3.271 8.12h.016s.017.116.017.166h-.182c0 3.181-2.726 7.54-1.041 8.584 1.834 1.127 6.311-2.635 9.714-4.408.066-.033.115-.05.165-.083 1.355-.68 2.874-1.574 4.543-2.635.479-.298.941-.597 1.42-.928 17.709-11.6 49.212-39.009 55.159-34.883z" class="E"/><g class="F"><path d="M289.782 164.422h.017c0 8.716 0 16.87-5.683 23.813-4.427 5.386-12.29 10.059-26.282 13.688 4.625-4.292 3.882-17.466.116-22.603l-.083-.332c14.702-3.828 22.632-8.799 26.91-14.566 2.643-3.53 3.882-7.391 4.477-11.451.528 3.679.528 7.507.528 11.451z"/><path d="M289.254 152.954c-.595 4.077-1.834 7.938-4.477 11.468-2.445-3.281-6.112-6.33-11.547-9.032 1.619-1.856 2.428-3.446 2.247-4.557-1.272-7.987-12.489-1.292-13.431-7.142-.28-1.873 3.172-6.662 8.012-12.71 13.794 5.866 17.957 13.439 19.196 21.973zm-31.42 48.969c13.992-3.629 21.855-8.302 26.282-13.688l.264.265c0 50.924.001 92.817-110.167 98.037 3.932-.796 52.35-3.282 76.964-38.595 8.094-11.617 11.167-27.89 12.307-39.009-29.487 6.744-86.859 7.407-121.765 1.557v-.182l7.996.017c54.481 0 87.784-3.116 108.119-8.402z"/></g><path d="M273.23 155.39c5.435 2.702 9.102 5.751 11.547 9.032-4.279 5.767-12.208 10.738-26.91 14.566-4.444 1.144-9.482 2.204-15.214 3.149v-.033c-.314-3.265-1.124-6.579-2.313-9.844 15.032-3.032 27.868-11.152 32.89-16.87z" class="B"/><path d="M275.477 150.833c.181 1.11-.628 2.701-2.247 4.557-5.022 5.717-17.857 13.837-32.89 16.87a47.64 47.64 0 0 0-1.602-3.795c9.895-2.37 23.424-9.296 23.672-14.467.181-3.927-6.178-5.468-8.194-9.86-2.99-6.463 12.175-9.661 41.084-47.51-4.312 9.595-16.833 23.863-25.242 34.353-4.84 6.048-8.292 10.837-8.012 12.71.942 5.85 12.159-.845 13.431 7.142z" class="C"/><g fill="#c6977b"><path d="M263.483 208.933c-1.139 11.119-4.212 27.392-12.306 39.009-24.614 35.313-73.032 37.799-76.964 38.595h-.033c-7.615.364-15.76.546-24.465.546-134.649 0-134.649-44.129-134.649-98.583l.264-.249c8.293 10.076 28.612 17.616 78.45 20.632h.017c13.645.828 29.503 1.309 47.922 1.425v.182c34.906 5.85 92.277 5.187 121.764-1.557z"/><path d="M123.185 187.108l9.515.182h.149l16.866.1 26.662-.282 15.991-.497 12.406-.613c15.165-.895 27.637-2.204 37.879-3.861 5.732-.945 10.77-2.006 15.214-3.149l.083.332c3.766 5.137 4.509 18.311-.116 22.603-20.335 5.286-53.638 8.402-108.119 8.402-2.726 0-5.385 0-7.996-.017-18.419-.116-34.277-.597-47.922-1.425h-.016c-49.839-3.016-70.158-10.556-78.45-20.631-5.699-6.944-5.699-15.097-5.699-23.814 0-3.911 0-7.722.512-11.351.611 4.027 1.867 7.822 4.493 11.368 4.609 6.181 13.463 11.451 30.429 15.395 10.308 2.386 23.623 4.275 40.786 5.551 10.837.829 23.193 1.392 37.317 1.707h.017z"/></g><path d="M244.338 136.747c1.932 2.304-4.18 10.772-9.185 15.578a26.58 26.58 0 0 0-2.263.116c-2.032.082-2.742 1.657-2.66 3.248a30.15 30.15 0 0 0-1.421-1.525c-.941-.961-1.916-1.906-2.923-2.767-.562-1.558-.562-3.199.462-4.375 2.346-2.668 15.826-12.843 17.99-10.275z" class="C"/><path d="M242.653 182.104v.033c-10.242 1.657-22.714 2.966-37.879 3.861a39.45 39.45 0 0 0-4.08-7.093c16.304-5.568 31.585-12.577 30.28-20.83.495.729 1.189 1.177 1.949.961.016 0 .033-.016.049-.016 2.28 2.966 4.229 6.148 5.766 9.445a47.64 47.64 0 0 1 1.602 3.795c1.189 3.265 1.999 6.579 2.313 9.844z" class="B"/><path d="M241.15 153.882c.33 1.293-3.42 3.364-8.178 5.138l-2.031-2.503-.711-.812c1.074-.099 2.908-1.441 4.923-3.38 3.337-.067 5.732.513 5.997 1.557z" class="C"/><path d="M222.78 101.865c9.383-16.804 17.411-35.778 16.602-39.805.215.066.396.166.545.298 5.947 5.237 5.567 31.519.049 59.906-.479.331-.941.63-1.42.928-1.669 1.061-3.188 1.955-4.543 2.635-.05.033-.099.05-.165.083-1.9.944-3.42 1.458-4.46 1.375-3.007-.215-3.767-2.718-4.031-5.551 0-.05-.017-.116-.017-.166h-.016c-.347-3.811.066-8.12-3.271-8.12-.826 0-1.883.928-3.023 2.519l-4.08-1.193c2.61-3.911 5.269-8.336 7.83-12.909z" class="B"/><path d="M239.382 62.06c.809 4.027-7.219 23.001-16.602 39.805-7.483-4.889-12.852-10.921-15.908-19.637 15.594-12.843 28.826-21.261 32.51-20.167z" class="D"/><g class="C"><path d="M232.89 152.441l2.263-.116c-2.016 1.939-3.849 3.281-4.923 3.38-.083-1.607.628-3.181 2.66-3.264z"/><path d="M230.974 158.075c-.43-.63-.711-1.508-.744-2.37l.711.812 2.031 2.502c-.016 0-.033.017-.049.017-.76.215-1.454-.232-1.949-.961z"/></g><path d="M175.551 152.623h.017c4.641-5.038 9.25-8.733 13.678-10.473h.033c.528-.232 1.057-.398 1.585-.564.711-.215 1.421-.381 2.131-.546 3.156-.68 6.261-.829 9.367-.531 2.924.216 5.782.895 8.557 1.873a44.14 44.14 0 0 1 2.808 1.094c4.361 1.922 8.475 4.623 12.158 7.921.744 2.104 2.495 4.01 4.015 4.308.099.017.214.017.33 0 .033.862.314 1.74.743 2.37 1.305 8.253-13.975 15.262-30.28 20.83-6.624-9.131-16.998-15.444-29.503-21.128a85.77 85.77 0 0 1 4.328-5.137h.033v-.017z" class="D"/><path d="M230.23 155.688c-.116.034-.231.034-.33.017-1.52-.298-3.271-2.204-4.015-4.309 1.008.862 1.983 1.807 2.924 2.768l1.421 1.524zm-.842-28.403c1.04.083 2.56-.431 4.46-1.375-3.403 1.773-7.88 5.535-9.713 4.408-1.685-1.044 1.04-5.403 1.04-8.568h.182c.264 2.817 1.024 5.32 4.031 5.535z" class="C"/><path d="M214.95 114.774l4.08 1.193c-.892 1.243-1.834 2.867-2.742 4.756-1.024 2.171-2.015 4.69-2.874 7.358l-.793-.249-5.154-3.265c2.362-2.535 4.889-5.916 7.483-9.793z" class="B"/><path d="M194.086 114.442s-.017-.016-.017-.033c-2.362-5.269-5.071-9.876-8.111-13.572 7.021-6.761 14.207-13.108 20.914-18.609 3.056 8.717 8.425 14.749 15.908 19.637-2.561 4.573-5.22 8.998-7.83 12.909-2.594 3.878-5.121 7.258-7.484 9.794-5.335-3.431-9.564-6.463-13.364-10.109 0 0 0-.017-.016-.017z" class="D"/><path d="M212.621 127.832l.792.249c-1.47 4.623-2.494 9.694-2.494 14.268v.033c-2.775-.978-5.633-1.657-8.557-1.873-.859-3.811-1.801-7.523-2.858-11.086 2.065.447 4.84-1.442 7.962-4.856l5.155 3.265z" class="B"/><path d="M194.102 114.459c3.8 3.646 8.029 6.678 13.364 10.109-3.122 3.413-5.897 5.302-7.962 4.855-1.008-3.463-2.114-6.794-3.337-9.943a117.11 117.11 0 0 0-2.065-5.021z" class="D"/><path d="M200.693 178.905c1.586 2.188 2.941 4.541 4.081 7.093l-12.406.613-3.915-3.795 12.24-3.911zm-36.292-88.972h.049c4.559.481 8.904 1.657 12.703 3.563 3.238 1.607 6.146 4.126 8.805 7.341 3.04 3.696 5.749 8.303 8.111 13.572 0 0 .006.011.017.033l.016.017a117.11 117.11 0 0 1 2.065 5.021c1.223 3.149 2.329 6.48 3.337 9.943 1.057 3.563 1.999 7.275 2.858 11.086-3.106-.298-6.211-.149-9.366.531l-.133-.547c-1.222-3.779-4.03-20.201-15.924-37.153-6.063-8.651-19.262-11.252-30.016-12.114 4.692-1.16 9.515-1.674 14.174-1.525a43.73 43.73 0 0 1 3.304.232z" class="B"/><g class="D"><path d="M126.654 141.106h-.017c-2.312-.414-4.493-.564-6.475-.348l-1.421.182-1.189-3.165c-1.487-4.193-2.429-8.07-2.676-11.6-.132-1.906-.066-3.712.231-5.353l.363-1.806c1.438-6.032 4.576-11.219 8.822-15.511.115-.132.248-.248.363-.364h.033c5.022-4.955 11.514-8.618 18.485-10.855 1.371-.066 2.676-.431 3.569-1.011a.33.33 0 0 1 .181-.05c10.754.862 23.953 3.463 30.016 12.114 11.894 16.952 14.702 33.374 15.924 37.153l.133.547c-.711.165-1.421.331-2.131.546-.529.166-1.058.332-1.586.564h-.017-.016c-4.427 1.74-9.036 5.435-13.678 10.456h-.017s-.016.034-.033.034a85.77 85.77 0 0 0-4.328 5.137l-1.107 1.392a129.56 129.56 0 0 0-3.32 4.54c-6.955-5.501-13.843-10.456-20.385-14.317a99.41 99.41 0 0 0-3.568-2.006c-4.923-2.651-9.565-4.64-13.794-5.733-.809-.232-1.569-.398-2.362-.547z"/><path d="M171.19 157.777c12.505 5.684 22.879 11.997 29.504 21.128-4.097 1.392-8.26 2.701-12.241 3.911l-2.362-2.27-1.173-1.077c-.215-.216-.463-.448-.694-.63-1.371-1.309-2.759-2.569-4.179-3.812a202.13 202.13 0 0 0-4.923-4.358c-2.759-2.403-5.567-4.706-8.359-6.96a129.56 129.56 0 0 1 3.32-4.54l1.107-1.392z"/></g><g class="B"><path d="M188.453 182.816l3.915 3.795-15.991.497c2.346-2.502 5.105-4.955 8.541-7.639l1.173 1.077 2.362 2.27z"/><path d="M184.224 178.839c.231.182.479.414.694.63-3.436 2.684-6.195 5.137-8.541 7.639l-26.662.282c-5.864 0-11.481-.033-16.866-.1 11.927-.464 31.353-2.949 33.253-9.379 2.164-7.391-10.523-19.372-25.423-27.674l1.602-1.856.529-.995c1.173.63 2.362 1.293 3.568 2.005 6.542 3.862 13.43 8.816 20.385 14.318l8.359 6.96 4.922 4.358a151.04 151.04 0 0 1 4.18 3.812z"/></g><path d="M180.044 175.027l4.18 3.812-4.18-3.812zm-39.365-24.79c14.9 8.302 27.587 20.283 25.423 27.674-1.9 6.43-21.326 8.915-33.253 9.379h-.149l-9.515-.182c.248-13.39 7.318-25.006 17.494-36.871z" class="D"/><path d="M160.717 49.333c4.361 1.359 8.722 21.145 3.684 40.6-1.091-.116-2.197-.199-3.304-.232v-.381c1.833-10.042 1.404-27.442-3.221-29.746-2.198-1.094-4.576.53-7.219 1.939l-1.256-3.132c4.559 0 4.113-11.318 11.316-9.048z" class="C"/><path d="M157.876 59.574c4.625 2.303 5.054 19.703 3.237 29.746v.381c-4.675-.149-9.498.365-14.19 1.525-.066 0-.132.017-.181.05.462-.298.809-.646 1.007-1.044.149-.298.149-.779.017-1.392 1.619.132 3.238-.514 3.238-1.823-.447-5.087-1.471-9.297-2.809-9.33-1.057-.017-2.23 2.121-3.039 5.319-3.651-6.314-10.011-14.086-12.605-12.876-3.039 1.409 3.222 17.135 5.171 20.101 1.041 1.574 3.32 2.171 5.451 2.055-6.971 2.237-13.463 5.899-18.485 10.838h-.033c-.115.133-.248.249-.363.381-11.134-5.634-22.186-19.653-20.666-22.752 1.685-3.414 6.211.017 10.176 1.16 2.66 1.624 5.683 4.209 7.054 3.248 1.784-1.243-.661-6.645-.876-10.49h-.033c-.512-17.914-14.223-67.297-7.186-71.191a3.71 3.71 0 0 1 2.462-.447c22.78 41.578 23.275 60.221 30.346 60.088 1.8-.033 3.485-.795 5.071-1.624 2.643-1.409 5.022-3.033 7.219-1.939l.017.017z" class="E"/><g class="C"><path d="M149.401 58.381l1.255 3.132c-1.585.828-3.27 1.591-5.071 1.624-7.07.133-7.566-18.51-30.346-60.088 11.497 1.856 27.29 53.343 33.154 55.166.364.116.694.166 1.008.166zm-1.206 19.306c1.338.033 2.362 4.242 2.808 9.33 0 1.309-1.619 1.955-3.237 1.823-.298-1.409-1.272-3.53-2.61-5.833.809-3.198 1.982-5.336 3.039-5.319z"/><path d="M147.766 88.839c.132.613.132 1.094-.017 1.392-.198.398-.545.746-1.008 1.044l-3.568 1.011c-2.131.116-4.41-.48-5.451-2.055-1.949-2.966-8.21-18.693-5.171-20.101 2.594-1.21 8.954 6.562 12.605 12.876-.199.713-.364 1.491-.496 2.303-.512 2.27 1.289 3.397 3.106 3.53z"/><path d="M143.173 92.286l3.569-1.011c-.893.58-2.198.945-3.569 1.011zm1.983-9.28c1.338 2.303 2.312 4.425 2.61 5.833-1.818-.133-3.618-1.259-3.106-3.53.132-.812.297-1.591.496-2.303z"/></g><path d="M126.654 141.106l2.362.547c4.229 1.093 8.871 3.082 13.794 5.733l-.529.995a83.57 83.57 0 0 0-1.602 1.856c-7.979-4.441-16.586-7.839-23.904-8.932.645-.133 1.305-.265 1.966-.365.479-.083.958-.116 1.421-.182 1.982-.216 4.163-.066 6.475.348h.017z" class="B"/><path d="M140.679 150.237c-10.176 11.865-17.246 23.481-17.494 36.871-14.124-.315-26.481-.878-37.317-1.707.116-6.181 1.454-12.611 3.882-18.593.809-1.11 1.371-2.403 1.536-3.513 2.015-4.11 4.543-7.954 7.599-11.252.925-1.061 1.949-2.055 3.006-2.999 3.238-2.884 6.922-5.138 10.986-6.596.016-.016.049-.033.066-.05.347-.132.694-.248 1.057-.364.033 0 .05-.017.066-.017.876-.281 1.784-.513 2.709-.712 7.318 1.093 15.925 4.491 23.904 8.932z" class="D"/><path d="M119.997 74.688c.214 3.845 2.659 9.247.875 10.49-1.371.961-4.394-1.624-7.054-3.248 2.164.613 4.163.563 5.435-1.624.595-1.027.81-2.983.711-5.618h.033z" class="C"/><path d="M117.552 137.775l1.189 3.165-1.966.365-2.709.712c-.016 0-.033.017-.066.017l-1.057.364c1.619-1.425 3.122-2.949 4.609-4.623z" class="B"/><path d="M115.47 119.016l-.363 1.806c-.297 1.641-.363 3.447-.231 5.336-1.355.962-2.759 2.519-6.327 3.679-6.261 2.039-15.215-.315-17.973-5.584-.562-1.094-.776-2.188-.776-3.265 0-.248.016-.497.033-.762 7.781-.514 16.305-.912 25.638-1.21z" class="F"/><path d="M114.876 126.175c.247 3.53 1.189 7.407 2.676 11.6-1.487 1.674-2.99 3.198-4.609 4.623-.017 0-.05.033-.066.05-4.064 1.458-7.748 3.712-10.986 6.595-3.023-7.44-9.564-15.162-14.702-19.388-.578-1.508-.809-4.922-.975-8.634l3.585-.033c0 1.077.215 2.171.776 3.265 2.759 5.269 11.712 7.622 17.973 5.584 3.568-1.16 4.972-2.718 6.327-3.662z" class="B"/><path d="M44.338 135.786c8.541 2.254 16.883 4.442 23.342 5.684 5.517 1.094 9.647 1.475 11.398.614 3.965-1.956 1.619-6.546.479-10.324-.743-2.37-.991-4.442 1.123-5.303 1.14-.464 3.601.812 6.492 3.198 5.138 4.226 11.679 11.948 14.702 19.389-1.057.944-2.081 1.938-3.007 2.999h-.016c-2.775-8.418-9.598-16.605-12.885-15.329-3.651 1.409-.876 8.187-3.799 12.015-4.295 5.667-30.941-10.54-75.543-20.085v-.166c4.394-.464 12.257.995 21.26 3.149 5.27 1.226 10.87 2.718 16.42 4.159h.016.017z" class="C"/><path d="M98.868 152.026h.017c-3.056 3.315-5.584 7.159-7.599 11.269.116-.746.049-1.409-.231-1.906-1.569-2.883-24.333-3.496-25.126.779-.611 3.314 15.793 7.291 19.328 7.424 1.701.05 3.353-1.193 4.493-2.784-2.428 5.982-3.766 12.412-3.882 18.593-17.164-1.276-30.478-3.165-40.786-5.551 0-3.745 4.047-4.723 6.988-6.115a1.44 1.44 0 0 1 .281-.133c2.941-1.325 9.251-.895 9.367-2.833.116-1.774-7.07-3.646-11.448-5.486h-.017c-4.774-3.132-12.538-7.175-20.434-11.517h-.017s-.083-.049-.116-.066c-5.864-3.231-11.745-6.629-16.552-9.91H13.1c-7.533-5.187-12.323-10.108-9.895-13.82.529-.829 1.718-1.293 3.419-1.475v.166c44.619 9.545 71.264 25.752 75.559 20.084 2.924-3.828.149-10.606 3.799-12.014 3.287-1.276 10.11 6.91 12.885 15.312v-.017z" class="E"/><path d="M92.31 105.046c2.445 5.419-2.032 10.275-2.478 15.18-.016.265-.033.514-.033.762l-3.585.033c-.264-5.253-.364-11.103-1.09-12.975-.859-2.221-2.511-3.53-4.427-4.607.958-1.442 1.85-2.933 2.709-4.541 3.37 1.359 7.12 2.387 8.904 6.148z" class="B"/><g class="C"><path d="M91.055 161.389c.281.497.347 1.16.231 1.906l-1.536 3.513c-1.14 1.591-2.792 2.834-4.493 2.784-3.535-.132-19.939-4.11-19.328-7.424.793-4.275 23.557-3.662 25.126-.779z"/><path d="M89.75 166.808l1.536-3.513c-.165 1.11-.727 2.403-1.536 3.513z"/></g><path d="M40.258 127.285c-13.1-28.552-20.434-57.635-15.396-64.512.215-.298.578-.497 1.057-.63l.05.166c17.197 8.551 28.083 13.125 34.658 16.489 5.881 3.016 8.309 5.054 8.689 8.12.314 2.602-.38 6.629 2.379 10.589 2.181 3.132 5.93 4.209 9.003 5.933 1.916 1.077 3.568 2.386 4.427 4.607.727 1.872.826 7.722 1.09 12.975.165 3.712.396 7.126.975 8.634-2.891-2.386-5.352-3.662-6.492-3.198-2.114.861-1.867 2.933-1.123 5.302l-3.634.895c-3.023 3.663-5.567 6.43-8.243 8.816-6.459-1.243-14.801-3.43-23.342-5.684h-.017c-1.404-2.817-2.775-5.651-4.064-8.501h-.017z" class="D"/><path d="M83.406 98.898l-2.709 4.541c-3.073-1.724-6.822-2.801-9.003-5.933-2.759-3.961-2.065-7.987-2.379-10.589-.38-3.066-2.808-5.104-8.689-8.12a43.1 43.1 0 0 0 .644-3.745c5.567 2.817 11.415 6.049 17.362 9.512-2.296 4.839-2.065 7.938-1.024 9.976 1.206 2.337 3.387 3.43 5.798 4.358z" class="B"/><path d="M79.574 131.76c1.14 3.778 3.486 8.368-.479 10.324-1.751.861-5.881.48-11.398-.614 2.676-2.386 5.22-5.153 8.243-8.816l3.634-.894z" class="D"/><path d="M50.269 165.283c4.378 1.84 11.563 3.712 11.448 5.486-.116 1.938-6.426 1.508-9.367 2.833 1.801-.878 3.106-1.955 2.643-4.01-.248-1.044-1.999-2.519-4.724-4.309z" class="C"/><path d="M61.27 75.036l-.644 3.762c-6.575-3.364-17.461-7.938-34.658-16.489l-.05-.166c4.229-1.077 18.337 4.209 35.351 12.893zm-11.018 90.247h.017c2.726 1.79 4.477 3.265 4.724 4.309.463 2.055-.842 3.132-2.643 4.01-.099.033-.198.083-.281.133-2.94 1.392-6.988 2.37-6.988 6.098-16.965-3.927-25.82-9.197-30.429-15.378 2.957-3.977 7.516-7.573 15-10.689l.033-.066s.083.05.116.066h.017c7.896 4.342 15.66 8.385 20.434 11.517z" class="B"/><path d="M40.258 127.285l4.064 8.501-16.42-4.159c3.453-1.558 7.5-3 12.356-4.342zm-30.099 25.802v-.05c.479-3.215 1.189-6.131 2.825-9.064l.132-.199h.033c4.807 3.281 10.688 6.678 16.552 9.909l-.033.067c-7.483 3.115-12.043 6.711-15 10.688-2.627-3.546-3.882-7.341-4.493-11.368l-.017.017z" class="F"/><g stroke="#3f2a25" class="G H"><path d="M202.197 140.691c2.924.232 5.782.895 8.54 1.873l2.809 1.11c5.55 2.436 10.704 6.148 15.082 10.689.743.745 1.437 1.541 2.131 2.353 4.097 4.739 7.334 10.141 9.399 15.743 1.19 3.264 1.999 6.578 2.313 9.86m-75.873-18.428l8.358 6.96 4.923 4.358 4.18 3.812c.231.182.479.398.693.63l1.173 1.077 6.278 6.065m47.955-14.351c15.033-3.016 27.868-11.136 32.89-16.87 1.619-1.856 2.429-3.447 2.247-4.557-1.256-7.987-12.472-1.292-13.414-7.142-.297-1.873 3.172-6.645 7.996-12.694 12.141-15.13 32.857-38.197 25.092-43.616-5.963-4.126-37.449 23.3-55.158 34.883-.479.331-.941.63-1.42.928-4.13 2.635-7.401 4.242-9.168 4.11-3.073-.232-3.8-2.817-4.048-5.734h-.016c-.331-3.811.066-8.12-3.255-8.12-1.453 0-3.683 2.95-5.781 7.291-2.809 5.916-5.369 14.418-5.369 21.626m-39.746 15.412c15.545 7.059 27.835 15.113 33.65 28.337m79.557 2.386c0 54.437 0 98.584-134.665 98.584s-134.666-44.13-134.666-98.584m274.733-24.062c0 25.338 0 45.887-140.084 45.887S9.449 189.958 9.449 164.62"/><path d="M289.089 153.136c-.595 4.077-1.834 7.938-4.477 11.484-10.193 13.738-41.15 22.952-135.079 22.952s-124.836-9.23-135.045-22.935c-2.626-3.546-3.882-7.358-4.493-11.385"/><path d="M269.876 131.163c13.811 5.866 17.957 13.439 19.196 21.957.545 3.695.545 7.523.545 11.484m-64.442-42.854h-.033m-185.033 5.717c-4.857 1.326-8.92 2.768-12.356 4.325m-14.785 12.18c-1.635 2.934-2.511 6.016-2.99 9.247v.05c-.512 3.629-.512 7.441-.512 11.335m105.822-45.406c-9.333.298-17.84.696-25.621 1.21m99.446 21.924h-.032m95.531 22.272c-2.445-3.298-6.112-6.33-11.547-9.048m-243.413-1.608h-.017c-7.483 3.116-12.191 6.728-15.148 10.689m225.324-42.191c5.518-28.403 5.898-54.669-.049-59.922-2.676-2.353-16.536 6.281-33.055 19.869-6.707 5.502-13.893 11.849-20.914 18.61m8.111 13.588s.033.033.033.05c4.956 4.739 10.589 8.451 18.502 13.373"/><path d="M206.69 82.393c3.667 10.424 10.606 17.019 20.567 22.404m-35.054 81.996l-6.278-6.065-1.173-1.077-.693-.63-4.18-3.812-4.923-4.358c-2.758-2.419-5.567-4.706-8.358-6.96-6.939-5.502-13.844-10.456-20.385-14.318-6.228-3.645-12.109-6.38-17.362-7.738-.81-.232-1.602-.398-2.379-.547-2.313-.431-4.493-.564-6.475-.365l-1.421.182c-1.603.249-3.172.614-4.675 1.078-.017 0-.05.016-.066.016-.364.116-.727.232-1.057.365-.017 0-.05.016-.067.049-4.063 1.459-7.747 3.729-10.985 6.612-9.928 8.816-15.776 23.118-16.024 36.358m7.929 23.482h-.017"/><path d="M44.916 180.015c0-6.198 11.151-4.822 9.912-10.241-.677-2.917-12.769-8.998-25.176-15.826h-.017c-5.897-3.248-11.828-6.678-16.651-9.959-7.549-5.187-12.356-10.125-9.928-13.854 1.933-2.95 12.224-1.309 24.696 1.674 5.253 1.243 10.886 2.734 16.437 4.176 8.541 2.254 16.883 4.441 23.325 5.684 5.534 1.077 9.664 1.458 11.415.613 6.459-3.198-3.849-13.39 1.602-15.627 3.188-1.309 16.47 10.954 21.194 22.587m90.478 37.551l-6.278-6.065-1.173-1.077-.693-.63-4.18-3.812-4.923-4.358c-2.758-2.419-5.567-4.706-8.358-6.96 1.106-1.574 2.197-3.082 3.32-4.54.363-.481.727-.928 1.107-1.392 1.42-1.823 2.907-3.58 4.361-5.171h.016c4.626-5.021 9.235-8.733 13.662-10.456m-70.488-1.227l-1.189-3.165c-1.487-4.192-2.429-8.103-2.677-11.616-.132-1.889-.066-3.696.232-5.353l.363-1.806c1.487-6.198 4.758-11.517 9.201-15.876h.017c10.044-9.876 25.985-14.649 39.762-13.207 4.559.497 8.904 1.674 12.703 3.563 3.238 1.624 6.162 4.126 8.805 7.358 3.04 3.695 5.749 8.302 8.111 13.572 0 .016.017.016.017.049.726 1.624 1.42 3.298 2.065 5.021 2.477 6.38 4.526 13.506 6.211 21.013-3.8-.365-7.649-.05-11.514 1.077-.512.166-1.057.332-1.57.564h-.016"/><path d="M124.506 103.306c-11.2-5.568-22.433-19.753-20.897-22.868 2.594-5.27 11.993 5.783 15.644-.431 4.675-7.987-14.553-72.334-6.492-76.825 11.58-6.43 29.338 52.78 35.616 54.719 5.666 1.757 4.642-11.285 12.323-8.882 4.394 1.375 8.788 21.477 3.568 41.097m-37.796 51.188c11.151-8.302 22.153-13.655 34.426-13.108m13.844 24.99l.644-.381h.033m-131.246-16.82c-15.594-31.038-25.01-65.474-19.476-73.031 2.098-2.867 17.428 2.585 36.392 12.263 5.567 2.85 11.415 6.065 17.362 9.529m38.936 53.194c-1.504 1.691-3.04 3.248-4.675 4.69M83.225 99.064c-4.262 8.02-9.581 13.505-18.023 21.758m-4.097-45.604c-1.355 10.921-6.707 18.825-15.247 26.2m29.916 31.402c-3.039 3.662-5.583 6.446-8.276 8.832"/><path d="M78.45 84.746c-2.296 4.839-2.065 7.938-1.024 9.993 1.206 2.337 3.403 3.43 5.798 4.358 3.37 1.359 7.12 2.386 8.904 6.148 3.122 6.894-4.972 12.859-1.734 19.206 2.759 5.27 11.712 7.623 17.973 5.585 3.568-1.16 4.972-2.718 6.327-3.662m27.422 22.189c-11.035 12.544-18.865 24.675-19.113 38.744m61.749-7.656c-3.436 2.684-6.211 5.137-8.54 7.639"/></g></svg>