<svg xmlns="http://www.w3.org/2000/svg" width="391" height="411" fill="none" xmlns:v="https://vecta.io/nano"><path d="M41.858 279.562C15.723 340.596.288 397.355 9.055 402.287c20.949 11.672 115.942-30.825 184.017-84.173 40.829-32.14 72.15-68.062 72.232-98.599 0-9.289-1.893-18.947-5.309-28.318h-.042m-122.362-59.759c4.774-3.411 9.631-5.754 14.241-7.11 14.858-4.316 29.839-3.083 43.792 1.808h.041m64.288 64.979h.042c43.339-8.672 78.241-36.702 76.677-46.607-2.758-17.386-27.206-2.795-29.305-15.536-2.222-14.139 96.104-106.038 72.315-122.478-16.505-11.467-123.556 88.242-143.641 86.844-15.681-1.11-3.211-30.208-16.011-30.208-7.49 0-24.036 35.839-24.365 63.047M41.858 279.521c11.113 3.699 17.821 2.384 21.978-.452 4.733-3.247 6.544-8.302 7.861-13.769 2.058-7.726 3.252-16.152 10.989-21.043 14.117-8.59 29.223 7.398 42.146-1.315 10.701-7.398 13.376-27.578 7.285-40.607-5.639-12.001-12.183-11.549-12.183-18.988 0-5.466 5.063-9.042 10.537-12.905 5.803-3.987 12.306-8.015 14.693-14.509 1.934-5.343.906-12.905-7.573-24.454" stroke="#3f2a25" stroke-width="2" stroke-linecap="round" stroke-linejoin="round"/><path d="M260.653 191.115c3.416 9.412 5.309 19.07 5.309 28.359-.082 30.537-31.403 66.418-72.232 98.599-68.116 53.348-163.068 95.845-184.017 84.173-8.767-4.932 6.668-61.691 32.803-122.725 11.113 3.699 17.78 2.384 21.937-.452 4.774-3.247 6.544-8.302 7.861-13.768 2.099-7.727 3.293-16.153 10.989-21.044 14.117-8.59 29.222 7.398 42.146-1.356 10.701-7.398 13.376-27.578 7.285-40.607-5.639-12.001-12.183-11.549-12.183-18.947 0-5.507 5.063-9.042 10.537-12.905 5.803-3.987 12.306-8.015 14.693-14.55 1.934-5.302.906-12.864-7.573-24.454h.041c4.733-3.411 9.631-5.754 14.2-7.11 14.858-4.316 29.839-3.083 43.792 1.808h.082c.329-27.126 16.834-63.006 24.365-63.006 12.801 0 .33 29.099 16.011 30.208C256.784 94.736 363.836-4.973 380.34 6.494c23.789 16.44-74.537 108.339-72.315 122.478 2.1 12.741 26.547-1.85 29.305 15.536 1.564 9.905-33.338 37.935-76.677 46.607z" fill="#bc7171"/><path d="M382.275 10.069c9.384 23.427-77.418 105.422-75.278 118.697 2.058 12.782 26.547-1.808 29.304 15.536 1.564 9.946-33.379 37.935-76.759 46.648-.823-2.342-1.811-4.644-2.84-6.945 24.036-8.056 53.382-21.208 52.847-34.072-.453-9.741-12.183-4.562-18.192-14.92-8.808-15.289 90.259-103.078 90.259-124.697l.659-.247z" fill="#6a964d"/><path d="M382.275 10.069l-.659.247c0 21.619-99.067 109.408-90.259 124.697 6.009 10.358 17.739 5.179 18.192 14.92.535 12.864-28.811 26.016-52.847 34.072-4.198-9.207-9.837-18.043-16.587-26.058-.823-.986-1.646-1.932-2.51-2.877.823.123 1.934-.288 3.292-1.068.865 3.945 3.663 7.315 6.75 6.329 11.689-4.891 20.867-10.522 19.921-13.686-.782-2.507-6.709-3.699-14.9-3.206 12.142-13.44 25.683-34.401 20.867-39.621-5.638-6.123-38.071 20.633-43.586 27.496-3.21 3.946-2.552 10.563-.206 15.783-10.166-9.371-21.978-16.81-34.531-21.167 0-27.29 16.834-62.965 24.407-62.965s6.173 11.097 7.367 19.851h-.453c.7 7.85-5.062 18.824-.617 21.002 4.856 2.425 11.071-8.466 19.179-13.562 32.927-16.111 119.441-94.16 134.216-83.926 1.4.986 2.387 2.261 2.964 3.74z" fill="#77b566"/><g fill="#6a964d"><path d="M273.535 103.818c4.816 5.22-8.725 26.181-20.867 39.621-1.852.082-3.786.288-5.844.575-5.721.493-6.997 5.59-5.927 9.988-1.358.78-2.469 1.192-3.292 1.068a119.85 119.85 0 0 0-7.862-7.973c-2.346-5.22-3.004-11.837.206-15.783 5.515-6.863 37.948-33.619 43.586-27.496z"/><path d="M267.568 146.645c.946 3.164-8.232 8.795-19.921 13.686-3.087.986-5.885-2.384-6.75-6.329 3.087-1.768 7.326-5.672 11.771-10.563 8.191-.493 14.118.699 14.9 3.206z"/></g><path d="M259.542 190.951h.041c3.416 9.37 5.35 19.029 5.35 28.359-.164 30.537-31.444 66.376-72.273 98.557-5.968-9.042-10.989-15.864-16.34-21.7 42.434-47.718 82.44-103.161 63.384-137.85l.411-.37c6.75 8.015 12.389 16.851 16.587 26.058 1.029 2.301 2.017 4.603 2.84 6.946z" fill="#c47b49"/><path d="M246.824 144.014l5.844-.575c-4.445 4.891-8.684 8.795-11.771 10.563-1.07-4.398.206-9.494 5.927-9.988z" fill="#6a964d"/><g fill="#e09f57"><path d="M71.244 265.095c2.099-7.686 3.293-16.152 10.989-21.043 14.117-8.59 29.222 7.398 42.146-1.316 10.701-7.439 13.377-27.578 7.285-40.606-5.638-12.002-12.183-11.591-12.183-18.989 0-5.466 5.063-9.042 10.537-12.905 5.803-3.987 12.347-7.973 14.693-14.508 1.935-5.343.906-12.906-7.573-24.455 4.774-3.411 9.672-5.795 14.241-7.11 14.858-4.316 29.839-3.124 43.792 1.767h.041c12.553 4.357 24.365 11.796 34.531 21.167 1.894 4.192 4.857 7.562 7.82 7.973h.042c.864.945 1.687 1.891 2.51 2.877l-.411.37c19.056 34.688-20.95 90.132-63.384 137.849l-6.626 7.357c-57.621 63.541-131.211 93.01-158.458 99.586-.988-.288-1.852-.658-2.593-1.069-8.767-4.891 6.668-61.65 32.762-122.725 11.154 3.741 17.821 2.384 21.978-.411 4.774-3.288 6.544-8.302 7.861-13.809z"/><path d="M237.605 155.07h-.042c-2.963-.411-5.926-3.781-7.82-7.973a119.85 119.85 0 0 1 7.862 7.973z"/></g><path d="M235.629 93.133c2.181.164 5.433-.904 9.466-2.877-8.108 5.096-14.323 15.987-19.179 13.564-4.445-2.179 1.317-13.153.617-20.961h.453c.782 5.343 2.675 9.823 8.643 10.275z" fill="#6a964d"/><path d="M192.66 317.826c-65.606 51.416-156.194 92.804-181.424 85.283 27.247-6.576 100.837-36.045 158.458-99.586l6.626-7.356c5.351 5.836 10.372 12.658 16.34 21.659z" fill="#c47b49"/><g stroke="#3f2a25" stroke-linecap="round" stroke-linejoin="round"><path d="M137.838 131.479c4.733-3.411 9.631-5.795 14.24-7.11 14.858-4.316 29.84-3.124 43.792 1.767 29.099 10.069 53.876 36.62 64.413 65.061 3.416 9.33 5.35 18.988 5.35 28.318-.165 30.537-31.445 66.377-72.273 98.558-68.117 53.348-163.109 95.886-184.017 84.173-8.767-4.891 6.668-61.65 32.803-122.725"/><path d="M195.912 126.136c0-27.29 16.792-62.924 24.365-62.924 12.8 0 .329 29.058 16.01 30.167 20.127 1.439 127.096-98.27 143.683-86.803 23.789 16.44-74.578 108.299-72.315 122.478 2.058 12.782 26.547-1.808 29.305 15.536 1.564 9.946-33.421 37.935-76.76 46.607m-129.483-20.714c23.584 13.029 41.981 28.441 51.942 50.841M71.944 265.301c18.562 7.11 31.897 17.179 52.106 33.332M26.135 319.84c24.077 0 42.681 9.535 60.955 26.099m106.229-27.907c-14.982-22.605-24.16-31.524-46.138-45.539"/><path d="M42.105 279.562c11.113 3.699 17.821 2.384 21.978-.452 4.733-3.247 6.544-8.302 7.861-13.768 2.058-7.727 3.251-16.153 10.989-21.043 14.117-8.59 29.222 7.398 42.146-1.316 10.701-7.398 13.376-27.578 7.285-40.606-5.639-12.002-12.183-11.55-12.183-18.989 0-5.466 5.062-9.042 10.536-12.905 5.804-3.987 12.307-8.015 14.694-14.508 1.934-5.343.905-12.906-7.573-24.455"/></g></svg>