<svg xmlns="http://www.w3.org/2000/svg" width="391" height="411" fill="none" xmlns:v="https://vecta.io/nano"><g stroke="#3f2a25" stroke-width="2" stroke-linecap="round" stroke-linejoin="round"><path d="M194.924 126.876c-14.076-4.973-29.057-6.042-43.957-1.727-33.543 9.782-72.191 71.884-101.248 135.014C18.151 328.8-2.181 398.629 7.614 404.136c33.585 18.783 257.073-101.435 257.278-183.511.042-9.33-1.893-19.03-5.391-28.483"/><path d="M194.924 126.876c0-27.414 16.875-63.171 24.489-63.171 12.882 0 .329 29.14 16.093 30.291 20.208 1.439 127.63-98.681 144.258-87.173 23.913 16.522-74.907 108.75-72.602 122.971 2.058 12.823 26.629-1.85 29.386 15.618 1.564 9.987-33.543 38.099-77.088 46.813M49.719 260.163c-.329-.123-.741-.164-1.07-.288"/></g><path d="M380.422 6.576c23.872 16.522-74.907 108.751-72.602 122.971 2.058 12.823 26.67-1.849 29.428 15.577 1.564 9.987-33.544 38.1-77.089 46.813 3.457 9.453 5.433 19.111 5.35 28.441-.205 82.077-223.652 202.294-257.278 183.512-9.796-5.467 10.536-75.337 42.105-143.974 29.099-63.129 67.746-125.19 101.29-135.013 14.899-4.275 29.88-3.206 43.956 1.767 0-27.414 16.875-63.212 24.489-63.212 12.841 0 .329 29.181 16.093 30.291 20.208 1.439 127.63-98.681 144.258-87.173z" fill="#bc7171"/><path d="M192.249 319.347C125.285 371.79 32.721 413.754 9.014 404.629l.165-.411c27.205-6.576 103.019-34.811 160.64-98.352l6.75-7.521c5.062 5.713 9.96 12.371 15.681 21.002z" fill="#c47b49"/><path d="M236.205 154.7c-2.387-.698-4.733-3.206-6.379-6.411l6.379 6.411z" fill="#6a964d"/><path d="M9.178 404.218l-.165.411c-.535-.205-1.07-.452-1.523-.698-6.832-3.823.905-38.758 16.916-82.776 6.956-19.276 15.558-40.319 25.189-61.198 17.039-37.031 37.371-73.651 58.033-99.626 14.57-18.331 29.346-31.359 43.216-35.387 14.858-4.316 29.922-3.206 43.957 1.726 12.758 4.439 24.735 12.084 35.025 21.619 1.646 3.206 3.992 5.713 6.379 6.411 1.4 1.521 2.717 3.042 4.034 4.604.041.041.041.082.082.123 18.85 34.688-21.402 91.118-63.753 138.918l-6.75 7.521c-57.621 63.541-133.434 91.776-160.64 98.352z" fill="#e09f57"/><path d="M246.989 160.167c-3.087.986-5.886-2.384-6.75-6.33 3.087-1.767 7.367-5.672 11.812-10.563 8.149-.534 14.076.658 14.858 3.165.947 3.206-8.231 8.796-19.92 13.728z" fill="#6a964d"/><path d="M240.239 153.837c.864 3.946 3.663 7.316 6.75 6.33 11.689-4.932 20.867-10.522 19.92-13.728-.782-2.507-6.709-3.699-14.858-3.165 12.101-13.439 25.642-34.4 20.826-39.62-5.639-6.124-38.071 20.591-43.586 27.455-3.499 4.315-2.387 11.796.535 17.18-10.29-9.536-22.267-17.18-35.025-21.619 0-27.414 16.915-63.171 24.488-63.171s6.257 10.892 7.368 19.605c.576 7.809-5.186 18.701-.823 20.838 4.897 2.425 11.606-8.302 19.714-13.399 33.544-16.851 119.358-94.16 134.093-83.967 1.317.904 2.304 2.055 2.881 3.411l-.988.411c0 21.619-99.067 109.408-90.218 124.739 6.009 10.357 17.739 5.178 18.15 14.919.577 12.823-28.399 26.304-52.435 34.36l-.658.328c-4.075-8.918-9.549-17.508-16.052-25.317-.041-.041-.041-.082-.082-.124-1.317-1.561-2.634-3.082-4.034-4.603.247.082.453.124.7.165.823.123 1.976-.247 3.334-1.028z" fill="#77b566"/><path d="M236.205 154.7l-6.379-6.411c-2.922-5.384-4.034-12.865-.535-17.18 5.515-6.864 37.947-33.579 43.586-27.455 4.816 5.22-8.725 26.181-20.826 39.62-1.852.083-3.828.288-5.885.576-5.721.493-6.997 5.589-5.927 9.987-1.358.781-2.511 1.151-3.334 1.028-.247-.041-.453-.083-.7-.165zm9.343-64.157c-8.108 5.096-14.817 15.824-19.715 13.399-4.362-2.137 1.4-13.029.824-20.838.741 5.549 2.593 10.234 8.725 10.645 2.305.164 5.803-.986 10.166-3.206z" fill="#6a964d"/><path d="M176.568 298.345c42.351-47.799 82.603-104.23 63.753-138.918 6.503 7.809 11.977 16.399 16.052 25.317 1.111 2.384 2.14 4.809 3.004 7.234 3.499 9.453 5.433 19.07 5.392 28.4-.082 30.743-31.486 66.829-72.52 98.969-5.721-8.631-10.619-15.289-15.681-21.002z" fill="#c47b49"/><path d="M246.166 143.85l5.885-.576c-4.445 4.891-8.725 8.796-11.812 10.563-1.07-4.398.206-9.494 5.927-9.987zm10.865 40.566c24.036-8.056 53.012-21.537 52.435-34.36-.411-9.741-12.141-4.562-18.15-14.919-8.849-15.331 90.218-103.12 90.218-124.739l.988-.411c10.33 23.139-77.624 106.12-75.484 119.56 2.099 12.823 26.67-1.849 29.428 15.618 1.564 9.987-33.544 38.059-77.089 46.813-.864-2.425-1.893-4.85-3.004-7.234l.658-.328z" fill="#6a964d"/><g stroke="#3f2a25" stroke-linejoin="round"><path d="M6.956 404.136C40.54 422.919 264.028 302.66 264.275 220.625c.123-51.129-57.992-111.751-113.967-95.435C80.381 145.576-11.895 393.615 6.956 404.136z"/><path d="M194.306 126.876c0-27.414 16.875-63.171 24.489-63.171 12.883 0 .33 29.14 16.093 30.291 20.209 1.439 127.631-98.681 144.258-87.173 23.913 16.522-74.907 108.75-72.602 122.971 2.058 12.823 26.629-1.85 29.387 15.618 1.564 9.987-33.544 38.099-77.089 46.813m-151.708-31.689c34.12 15.413 61.078 33.004 73.837 61.897m-132.94 37.442c31.815 7.686 46.92 18.413 74.125 40.237m-98.285 21.249c24.16 0 42.845 9.576 61.202 26.222m106.64-28.031c-15.022-22.728-24.242-31.647-46.302-45.744" stroke-linecap="round"/></g></svg>