<?xml version="1.0" encoding="UTF-8"?><svg xmlns="http://www.w3.org/2000/svg" viewBox="0 0 245.74 213.08"><defs><style>.e{fill:#c47b49;}.f{fill:#bc7171;}.g{fill:#6a964d;}.h{fill:#77b566;}.i{stroke-width:2px;}.i,.j{fill:none;stroke:#3f2a25;stroke-linecap:round;stroke-linejoin:round;}.k{fill:#e09f57;}</style></defs><g id="a"><path class="i" d="M93.17,123.02c-6.35,14.85-10.1,28.66-7.97,29.86,5.09,2.84,28.17-7.5,44.71-20.48,9.92-7.82,17.53-16.56,17.55-23.99,0-2.26-.46-4.61-1.29-6.89h-.01"/><path class="i" d="M116.43,86.98c1.16-.83,2.34-1.4,3.46-1.73,3.61-1.05,7.25-.75,10.64,.44h.01"/><path class="i" d="M146.16,101.5h.01c10.53-2.11,19.01-8.93,18.63-11.34-.67-4.23-6.61-.68-7.12-3.78-.54-3.44,23.35-25.8,17.57-29.8-4.01-2.79-30.02,21.47-34.9,21.13-3.81-.27-.78-7.35-3.89-7.35-1.82,0-5.84,8.72-5.92,15.34"/><path class="i" d="M93.17,123.01c2.7,.9,4.33,.58,5.34-.11,1.15-.79,1.59-2.02,1.91-3.35,.5-1.88,.79-3.93,2.67-5.12,3.43-2.09,7.1,1.8,10.24-.32,2.6-1.8,3.25-6.71,1.77-9.88-1.37-2.92-2.96-2.81-2.96-4.62,0-1.33,1.23-2.2,2.56-3.14,1.41-.97,2.99-1.95,3.57-3.53,.47-1.3,.22-3.14-1.84-5.95"/></g><g id="b"><path class="f" d="M146.33,101.5h0c.83,2.29,1.29,4.64,1.29,6.9-.02,7.43-7.63,16.16-17.55,23.99-16.55,12.98-39.62,23.32-44.71,20.48-2.13-1.2,1.62-15.01,7.97-29.86,2.7,.9,4.32,.58,5.33-.11,1.16-.79,1.59-2.02,1.91-3.35,.51-1.88,.8-3.93,2.67-5.12,3.43-2.09,7.1,1.8,10.24-.33,2.6-1.8,3.25-6.71,1.77-9.88-1.37-2.92-2.96-2.81-2.96-4.61,0-1.34,1.23-2.2,2.56-3.14,1.41-.97,2.99-1.95,3.57-3.54,.47-1.29,.22-3.13-1.84-5.95h.01c1.15-.83,2.34-1.4,3.45-1.73,3.61-1.05,7.25-.75,10.64,.44h.02c.08-6.6,4.09-15.33,5.92-15.33,3.11,0,.08,7.08,3.89,7.35,4.88,.34,30.89-23.92,34.9-21.13,5.78,4-18.11,26.36-17.57,29.8,.51,3.1,6.45-.45,7.12,3.78,.38,2.41-8.1,9.23-18.63,11.34Z"/></g><g id="c"><g><path class="g" d="M175.88,57.45c2.28,5.7-18.81,25.65-18.29,28.88,.5,3.11,6.45-.44,7.12,3.78,.38,2.42-8.11,9.23-18.65,11.35-.2-.57-.44-1.13-.69-1.69,5.84-1.96,12.97-5.16,12.84-8.29-.11-2.37-2.96-1.11-4.42-3.63-2.14-3.72,21.93-25.08,21.93-30.34l.16-.06Z"/><path class="h" d="M175.88,57.45l-.16,.06c0,5.26-24.07,26.62-21.93,30.34,1.46,2.52,4.31,1.26,4.42,3.63,.13,3.13-7,6.33-12.84,8.29-1.02-2.24-2.39-4.39-4.03-6.34-.2-.24-.4-.47-.61-.7,.2,.03,.47-.07,.8-.26,.21,.96,.89,1.78,1.64,1.54,2.84-1.19,5.07-2.56,4.84-3.33-.19-.61-1.63-.9-3.62-.78,2.95-3.27,6.24-8.37,5.07-9.64-1.37-1.49-9.25,5.02-10.59,6.69-.78,.96-.62,2.57-.05,3.84-2.47-2.28-5.34-4.09-8.39-5.15h0c0-6.64,4.09-15.32,5.93-15.32s1.5,2.7,1.79,4.83h-.11c.17,1.91-1.23,4.58-.15,5.11,1.18,.59,2.69-2.06,4.66-3.3,8-3.92,29.02-22.91,32.61-20.42,.34,.24,.58,.55,.72,.91Z"/><path class="g" d="M149.46,80.26c1.17,1.27-2.12,6.37-5.07,9.64-.45,.02-.92,.07-1.42,.14-1.39,.12-1.7,1.36-1.44,2.43-.33,.19-.6,.29-.8,.26-.61-.68-1.25-1.33-1.91-1.94-.57-1.27-.73-2.88,.05-3.84,1.34-1.67,9.22-8.18,10.59-6.69Z"/><path class="g" d="M148.01,90.68c.23,.77-2,2.14-4.84,3.33-.75,.24-1.43-.58-1.64-1.54,.75-.43,1.78-1.38,2.86-2.57,1.99-.12,3.43,.17,3.62,.78Z"/><path class="e" d="M146.06,101.46h.01c.83,2.28,1.3,4.63,1.3,6.9-.04,7.43-7.64,16.15-17.56,23.98h0c-1.45-2.2-2.67-3.86-3.97-5.28,10.31-11.61,20.03-25.1,15.4-33.54l.1-.09c1.64,1.95,3.01,4.1,4.03,6.34,.25,.56,.49,1.12,.69,1.69Z"/><path class="g" d="M142.97,90.04c.5-.07,.97-.12,1.42-.14-1.08,1.19-2.11,2.14-2.86,2.57-.26-1.07,.05-2.31,1.44-2.43Z"/><path class="k" d="M100.31,119.5c.51-1.87,.8-3.93,2.67-5.12,3.43-2.09,7.1,1.8,10.24-.32,2.6-1.81,3.25-6.71,1.77-9.88-1.37-2.92-2.96-2.82-2.96-4.62,0-1.33,1.23-2.2,2.56-3.14,1.41-.97,3-1.94,3.57-3.53,.47-1.3,.22-3.14-1.84-5.95,1.16-.83,2.35-1.41,3.46-1.73,3.61-1.05,7.25-.76,10.64,.43h.01c3.05,1.06,5.92,2.87,8.39,5.15,.46,1.02,1.18,1.84,1.9,1.94h.01c.21,.23,.41,.46,.61,.7l-.1,.09c4.63,8.44-5.09,21.93-15.4,33.54-.54,.6-1.07,1.2-1.61,1.79-14,15.46-31.88,22.63-38.5,24.23-.24-.07-.45-.16-.63-.26-2.13-1.19,1.62-15,7.96-29.86,2.71,.91,4.33,.58,5.34-.1,1.16-.8,1.59-2.02,1.91-3.36Z"/><path class="k" d="M140.73,92.73h-.01c-.72-.1-1.44-.92-1.9-1.94,.66,.61,1.3,1.26,1.91,1.94Z"/><path class="g" d="M140.25,77.66c.53,.04,1.32-.22,2.3-.7-1.97,1.24-3.48,3.89-4.66,3.3-1.08-.53,.32-3.2,.15-5.1h.11c.19,1.3,.65,2.39,2.1,2.5Z"/><path class="e" d="M129.81,132.33h0c-15.94,12.51-37.95,22.58-44.08,20.75,6.62-1.6,24.5-8.77,38.5-24.23,.54-.59,1.07-1.19,1.61-1.79,1.3,1.42,2.52,3.08,3.97,5.27Z"/></g></g><g id="d"><path class="j" d="M116.49,86.99c1.15-.83,2.34-1.41,3.46-1.73,3.61-1.05,7.25-.76,10.64,.43,7.07,2.45,13.09,8.91,15.65,15.83,.83,2.27,1.3,4.62,1.3,6.89-.04,7.43-7.64,16.15-17.56,23.98-16.55,12.98-39.63,23.33-44.71,20.48-2.13-1.19,1.62-15,7.97-29.86"/><path class="j" d="M130.6,85.69c0-6.64,4.08-15.31,5.92-15.31,3.11,0,.08,7.07,3.89,7.34,4.89,.35,30.88-23.91,34.91-21.12,5.78,4-18.12,26.35-17.57,29.8,.5,3.11,6.45-.44,7.12,3.78,.38,2.42-8.12,9.23-18.65,11.34"/><path class="j" d="M114.76,96.48c5.73,3.17,10.2,6.92,12.62,12.37"/><path class="j" d="M100.48,119.55c4.51,1.73,7.75,4.18,12.66,8.11"/><path class="j" d="M89.35,132.82c5.85,0,10.37,2.32,14.81,6.35"/><path class="j" d="M129.97,132.38c-3.64-5.5-5.87-7.67-11.21-11.08"/><path class="j" d="M93.23,123.02c2.7,.9,4.33,.58,5.34-.11,1.15-.79,1.59-2.02,1.91-3.35,.5-1.88,.79-3.93,2.67-5.12,3.43-2.09,7.1,1.8,10.24-.32,2.6-1.8,3.25-6.71,1.77-9.88-1.37-2.92-2.96-2.81-2.96-4.62,0-1.33,1.23-2.2,2.56-3.14,1.41-.97,2.99-1.95,3.57-3.53,.47-1.3,.22-3.14-1.84-5.95"/></g></svg>