<?xml version="1.0" encoding="UTF-8"?><svg xmlns="http://www.w3.org/2000/svg" viewBox="0 0 245.74 226.94"><defs><style>.e{fill:#c47b49;}.f{fill:#bc7171;}.g{fill:#6a964d;}.h{fill:#77b566;}.i{stroke-width:2px;}.i,.j{fill:none;stroke:#3f2a25;stroke-linecap:round;stroke-linejoin:round;}.k{fill:#e09f57;}</style></defs><g id="a"><path class="i" d="M124.36,107.87c-3.42-1.21-7.06-1.47-10.68-.42-8.15,2.38-17.54,17.49-24.6,32.85-7.67,16.7-12.61,33.69-10.23,35.03,8.16,4.57,62.46-24.68,62.51-44.65,.01-2.27-.46-4.63-1.31-6.93"/><path class="i" d="M124.36,107.87c0-6.67,4.1-15.37,5.95-15.37,3.13,0,.08,7.09,3.91,7.37,4.91,.35,31.01-24.01,35.05-21.21,5.81,4.02-18.2,26.46-17.64,29.92,.5,3.12,6.47-.45,7.14,3.8,.38,2.43-8.15,9.27-18.73,11.39"/><path class="i" d="M89.08,140.3c-.08-.03-.18-.04-.26-.07"/></g><g id="b"><path class="f" d="M169.43,78.6c5.8,4.02-18.2,26.46-17.64,29.92,.5,3.12,6.48-.45,7.15,3.79,.38,2.43-8.15,9.27-18.73,11.39,.84,2.3,1.32,4.65,1.3,6.92-.05,19.97-54.34,49.22-62.51,44.65-2.38-1.33,2.56-18.33,10.23-35.03,7.07-15.36,16.46-30.46,24.61-32.85,3.62-1.04,7.26-.78,10.68,.43h0c0-6.67,4.1-15.38,5.95-15.38,3.12,0,.08,7.1,3.91,7.37,4.91,.35,31.01-24.01,35.05-21.21Z"/></g><g id="c"><g><path class="e" d="M123.71,154.7c-16.27,12.76-38.76,22.97-44.52,20.75l.04-.1c6.61-1.6,25.03-8.47,39.03-23.93,.55-.6,1.09-1.21,1.64-1.83,1.23,1.39,2.42,3.01,3.81,5.11Z"/><path class="g" d="M134.39,114.64c-.58-.17-1.15-.78-1.55-1.56,.54,.5,1.06,1.02,1.55,1.56Z"/><path class="k" d="M79.23,175.35l-.04,.1c-.13-.05-.26-.11-.37-.17-1.66-.93,.22-9.43,4.11-20.14,1.69-4.69,3.78-9.81,6.12-14.89,4.14-9.01,9.08-17.92,14.1-24.24,3.54-4.46,7.13-7.63,10.5-8.61,3.61-1.05,7.27-.78,10.68,.42,3.1,1.08,6.01,2.94,8.51,5.26,.4,.78,.97,1.39,1.55,1.56,.34,.37,.66,.74,.98,1.12,.01,.01,.01,.02,.02,.03,4.58,8.44-5.2,22.17-15.49,33.8-.55,.62-1.09,1.23-1.64,1.83-14,15.46-32.42,22.33-39.03,23.93Z"/><path class="g" d="M137.01,115.97c-.75,.24-1.43-.58-1.64-1.54,.75-.43,1.79-1.38,2.87-2.57,1.98-.13,3.42,.16,3.61,.77,.23,.78-2,2.14-4.84,3.34Z"/><path class="h" d="M135.37,114.43c.21,.96,.89,1.78,1.64,1.54,2.84-1.2,5.07-2.56,4.84-3.34-.19-.61-1.63-.9-3.61-.77,2.94-3.27,6.23-8.37,5.06-9.64-1.37-1.49-9.25,5.01-10.59,6.68-.85,1.05-.58,2.87,.13,4.18-2.5-2.32-5.41-4.18-8.51-5.26,0-6.67,4.11-15.37,5.95-15.37s1.52,2.65,1.79,4.77c.14,1.9-1.26,4.55-.2,5.07,1.19,.59,2.82-2.02,4.79-3.26,8.15-4.1,29-22.91,32.58-20.43,.32,.22,.56,.5,.7,.83l-.24,.1c0,5.26-24.07,26.62-21.92,30.35,1.46,2.52,4.31,1.26,4.41,3.63,.14,3.12-6.9,6.4-12.74,8.36l-.16,.08c-.99-2.17-2.32-4.26-3.9-6.16-.01-.01-.01-.02-.02-.03-.32-.38-.64-.75-.98-1.12,.06,.02,.11,.03,.17,.04,.2,.03,.48-.06,.81-.25Z"/><path class="g" d="M134.39,114.64c-.49-.54-1.01-1.06-1.55-1.56-.71-1.31-.98-3.13-.13-4.18,1.34-1.67,9.22-8.17,10.59-6.68,1.17,1.27-2.12,6.37-5.06,9.64-.45,.02-.93,.07-1.43,.14-1.39,.12-1.7,1.36-1.44,2.43-.33,.19-.61,.28-.81,.25-.06-.01-.11-.02-.17-.04Z"/><path class="g" d="M136.66,99.03c-1.97,1.24-3.6,3.85-4.79,3.26-1.06-.52,.34-3.17,.2-5.07,.18,1.35,.63,2.49,2.12,2.59,.56,.04,1.41-.24,2.47-.78Z"/><path class="e" d="M119.9,149.59c10.29-11.63,20.07-25.36,15.49-33.8,1.58,1.9,2.91,3.99,3.9,6.16,.27,.58,.52,1.17,.73,1.76,.85,2.3,1.32,4.64,1.31,6.91-.02,7.48-7.65,16.26-17.62,24.08-1.39-2.1-2.58-3.72-3.81-5.11Z"/><path class="g" d="M136.81,112c.5-.07,.98-.12,1.43-.14-1.08,1.19-2.12,2.14-2.87,2.57-.26-1.07,.05-2.31,1.44-2.43Z"/><path class="g" d="M139.45,121.87c5.84-1.96,12.88-5.24,12.74-8.36-.1-2.37-2.95-1.11-4.41-3.63-2.15-3.73,21.92-25.09,21.92-30.35l.24-.1c2.51,5.63-18.86,25.82-18.34,29.09,.51,3.12,6.48-.45,7.15,3.8,.38,2.43-8.15,9.26-18.73,11.39-.21-.59-.46-1.18-.73-1.76l.16-.08Z"/></g></g><g id="d"><path class="j" d="M78.69,175.33c8.16,4.57,62.46-24.69,62.52-44.65,.03-12.44-14.09-27.19-27.69-23.22-16.99,4.96-39.41,65.31-34.83,67.87Z"/><path class="j" d="M124.21,107.87c0-6.67,4.1-15.37,5.95-15.37,3.13,0,.08,7.09,3.91,7.37,4.91,.35,31.01-24.01,35.05-21.21,5.81,4.02-18.2,26.46-17.64,29.92,.5,3.12,6.47-.45,7.14,3.8,.38,2.43-8.15,9.27-18.73,11.39"/><path class="j" d="M103.03,116.06c8.29,3.75,14.84,8.03,17.94,15.06"/><path class="j" d="M88.67,140.23c7.73,1.87,11.4,4.48,18.01,9.79"/><path class="j" d="M82.8,155.19c5.87,0,10.41,2.33,14.87,6.38"/><path class="j" d="M123.58,154.75c-3.65-5.53-5.89-7.7-11.25-11.13"/></g></svg>