<svg width="363" height="449" viewBox="0 0 363 449" fill="none" xmlns="http://www.w3.org/2000/svg">
<path d="M241.901 188.431C233.547 191.679 224.53 194.081 215.314 195.489" stroke="#3F2A25" stroke-width="2" stroke-linecap="round" stroke-linejoin="round"/>
<path d="M190.865 196.914C185.445 196.748 180.025 196.301 174.688 195.588" stroke="#3F2A25" stroke-width="2" stroke-linecap="round" stroke-linejoin="round"/>
<path d="M174.687 195.572C172.665 200.94 170.676 206.639 168.753 212.67" stroke="#3F2A25" stroke-width="2" stroke-linecap="round" stroke-linejoin="round"/>
<path d="M131.558 312.793C123.304 322.999 115.116 328.069 109.364 327.257C91.9765 324.821 70.644 259.84 95.9546 210.484C96.9657 208.512 98.0099 206.607 99.1039 204.734" stroke="#3F2A25" stroke-width="2" stroke-linecap="round" stroke-linejoin="round"/>
<path d="M241.901 188.431C248.348 202.746 255.89 224.086 262.056 246.337" stroke="#3F2A25" stroke-width="2" stroke-linecap="round" stroke-linejoin="round"/>
<path d="M307.705 187.321C313.755 194.279 319.755 202.646 325.689 213.316C352.64 261.812 333.512 327.455 316.208 330.487C307.539 332.011 292.87 320.231 280.438 297.549C280.438 297.549 280.438 297.549 280.438 297.516" stroke="#3F2A25" stroke-width="2" stroke-linecap="round" stroke-linejoin="round"/>
<path d="M43.9744 123.036C40.2449 123.434 36.6978 123.997 33.333 124.743" stroke="#3F2A25" stroke-width="2" stroke-linecap="round" stroke-linejoin="round"/>
<path d="M93.9491 127.079C88.2803 125.505 82.3795 124.345 76.4124 123.55" stroke="#3F2A25" stroke-width="2" stroke-linecap="round" stroke-linejoin="round"/>
<path d="M360.132 123.136C354.016 121.628 347.104 120.683 339.778 120.352" stroke="#3F2A25" stroke-width="2" stroke-linecap="round" stroke-linejoin="round"/>
<path d="M307.937 147.971C319.821 149.346 332.452 152.378 344.949 156.786" stroke="#3F2A25" stroke-width="2" stroke-linecap="round" stroke-linejoin="round"/>
<path d="M288.312 160.712C293.185 157.796 300.362 153.24 307.937 147.971C320.451 139.256 334.026 128.636 339.778 120.352C343.01 115.746 343.806 111.869 340.706 109.45C307.688 83.6698 293.781 53.6978 284.068 41.603C255.957 6.59425 173.279 -20.4617 121.912 34.8928C103.016 55.2552 90.6838 95.0025 94.2972 126.466" stroke="#3F2A25" stroke-width="2" stroke-linecap="round" stroke-linejoin="round"/>
<path d="M288.312 160.712C292.853 163.363 297.478 166.694 301.025 170.123C305.765 174.713 307.489 181.191 307.705 187.321" stroke="#3F2A25" stroke-width="2" stroke-linecap="round" stroke-linejoin="round"/>
<path d="M131.559 312.792C128.376 336.783 128.459 357.759 133.581 365.761C140.509 376.564 147.819 431.951 156.073 438.049C163.151 443.284 174.704 444.593 183.29 440.385C185.76 439.175 190.799 407.082 189.556 378.121" stroke="#3F2A25" stroke-width="2" stroke-linecap="round" stroke-linejoin="round"/>
<path d="M190.832 196.781C190.832 196.781 190.848 196.864 190.865 196.914C191.346 199.283 192.423 205.828 189.572 207.17C184.235 209.705 175.698 211.229 171.057 211.974C170.295 212.09 169.516 212.322 168.753 212.67" stroke="#3F2A25" stroke-width="2" stroke-linecap="round" stroke-linejoin="round"/>
<path d="M280.438 297.55C280.985 299.803 281.433 301.957 281.797 303.995C282.394 307.358 280.107 310.589 276.129 313.671" stroke="#3F2A25" stroke-width="2" stroke-linecap="round" stroke-linejoin="round"/>
<path d="M262.056 246.337C254.282 229.769 245.845 216.15 239.58 212.671C232.917 208.976 227.414 210.633 218.662 208.214C212.545 206.524 215.894 199.93 215.314 195.489C215.314 195.44 215.297 195.39 215.297 195.34" stroke="#3F2A25" stroke-width="2" stroke-linecap="round" stroke-linejoin="round"/>
<path d="M189.556 378.121C194.578 378.883 199.219 379.562 205.037 381.319C210.772 383.042 205.136 431.885 209.695 439.655C213.789 446.68 231.425 447.757 238.436 444.841C243.177 442.886 257.034 389.089 262.437 370.284C264.261 363.905 265.089 356.996 265.255 350.369" stroke="#3F2A25" stroke-width="2" stroke-linecap="round" stroke-linejoin="round"/>
<path d="M265.04 350.518C285.063 337.562 285.908 320.033 284.383 317.614C280.422 311.301 274.736 321.673 275.084 318.426C275.184 317.531 275.731 315.46 276.228 313.256" stroke="#3F2A25" stroke-width="2" stroke-linecap="round" stroke-linejoin="round"/>
<path d="M94.2971 126.466L93.949 127.079C92.8219 129.001 91.3964 130.873 88.9433 131.701C85.363 132.927 80.954 129.15 76.4123 123.55C66.782 111.67 56.5219 91.573 52.3118 93.7766C49.8255 95.0855 61.6768 108.274 58.7927 111.289C54.6489 115.63 26.8852 93.7766 24.4155 96.6926C22.4596 99.0287 38.5708 114.669 43.9744 123.036C45.433 125.289 46.1126 127.012 45.4827 127.824C44.3556 129.266 39.3167 127.46 33.3164 124.743C23.0729 120.087 9.97835 112.764 8.83465 114.52C7.75726 116.193 18.3655 124.262 16.94 126.515C15.5311 128.769 3.7626 122.324 3.00013 124.246C1.62438 127.758 33.2833 139.936 31.5429 146.298C30.2666 150.904 12.3984 149.214 12.0834 152.13C11.7519 155.245 31.9904 158.442 31.8578 162.833C31.7252 167.307 10.5585 169.659 10.7905 173.205C10.9397 175.673 21.3159 176.005 21.8131 179.683C22.211 182.682 15.7134 185.25 16.2936 186.824C17.1886 189.243 33.0844 183.875 35.753 188.431C36.9133 190.419 34.5927 192.639 35.753 194.28C38.5377 198.206 55.5274 190.005 56.1904 191.347C56.9031 192.822 34.9905 199.896 38.0238 204.966C41.1731 210.235 52.5107 194.81 61.047 199.466C63.7322 200.924 64.1797 202.995 66.8815 203.343C72.8818 204.138 76.0642 192.838 79.2136 195.572C82.5618 198.488 72.5005 204.668 74.3404 207.567C75.3515 209.158 87.3852 202.514 99.104 204.734" stroke="#3F2A25" stroke-width="2" stroke-linecap="round" stroke-linejoin="round"/>
<path d="M309.859 121.661C305.102 122.44 300.428 123.483 295.903 124.792C292.406 125.77 289.024 126.913 285.775 128.222C278.549 82.3609 256.222 27.3543 195.738 27.8182C129.039 28.3318 110.823 87.1823 104.706 133.491C102.949 135.644 101.308 137.533 100.049 137.069C96.9491 135.926 101.242 119.573 97.6785 121.18C96.1038 121.876 95.2087 123.898 94.065 125.985C90.4516 94.522 102.784 54.7748 121.68 34.4124C173.047 -20.9422 255.724 6.11378 283.836 41.1225C293.549 53.2174 307.456 83.1893 340.474 108.97C343.574 111.389 342.778 115.266 339.546 119.871C329.998 119.424 319.788 120.004 309.859 121.661Z" fill="#BC7171"/>
<path d="M309.859 121.661C319.788 120.004 329.998 119.424 339.546 119.872C333.794 128.156 320.219 138.776 307.704 147.491C304.804 147.143 301.953 146.911 299.152 146.779C304.82 139.455 308.981 131.006 309.859 121.661Z" fill="#BC7171"/>
<path d="M274.57 210.152C277.902 213.084 280.919 214.46 282.527 212.604C284.665 210.135 287.748 204.154 289.008 197.328C295.605 202.613 302.699 206.308 304.522 202.878C306.047 200.045 307.705 193.666 307.473 186.84C313.523 193.799 319.523 202.166 325.457 212.836C352.408 261.331 333.28 326.975 315.976 330.007C307.307 331.531 292.638 319.751 280.206 297.069C280.206 297.069 280.206 297.052 280.19 297.036C276.626 281.826 269.565 262.392 261.824 245.856C255.658 223.605 248.116 202.265 241.668 187.95C247.619 185.631 253.221 182.88 258.343 179.749C258.41 182.781 258.907 186.111 260.15 189.707C262.106 195.356 268.802 205.082 274.57 210.152Z" fill="#BC7171"/>
<path d="M277.736 162.866C279.195 160.944 280.504 158.956 281.631 156.901C282.609 157.332 283.637 157.829 284.665 158.359C285.361 158.707 286.057 159.088 286.77 159.486C287.201 159.735 287.648 159.983 288.079 160.232C292.621 162.883 297.245 166.213 300.793 169.642C305.533 174.232 307.257 180.71 307.472 186.84C307.704 193.666 306.047 200.045 304.522 202.878C302.699 206.308 295.604 202.613 289.007 197.328C284.234 193.517 279.709 188.895 277.62 185.531C277.57 185.465 277.537 185.399 277.504 185.333C273.725 179.186 272.78 173.37 272.581 168.715C274.471 166.826 276.178 164.887 277.736 162.866Z" fill="#BC7171"/>
<path d="M299.152 146.778C301.953 146.911 304.804 147.143 307.704 147.491C300.13 152.759 292.952 157.316 288.079 160.232C287.648 159.983 287.201 159.735 286.77 159.486C291.212 155.775 295.505 151.517 299.152 146.778Z" fill="#BC7171"/>
<path d="M309.859 121.661C308.981 131.005 304.82 139.455 299.152 146.778C296.317 146.646 293.566 146.612 290.864 146.695C293.549 140.118 295.389 132.695 295.903 124.792C300.428 123.483 305.102 122.439 309.859 121.661Z" fill="#BC7171"/>
<path d="M290.864 146.696C293.566 146.613 296.317 146.646 299.152 146.778C295.505 151.517 291.212 155.775 286.77 159.486C286.057 159.089 285.361 158.708 284.665 158.36C287.002 154.897 289.107 150.987 290.864 146.696Z" fill="#BC7171"/>
<path d="M295.903 124.792C295.389 132.696 293.549 140.118 290.864 146.696C289.173 146.729 287.499 146.828 285.875 146.961L285.626 146.895C286.803 142.206 287.101 137.285 286.372 132.149C286.19 130.84 285.991 129.531 285.775 128.222C289.024 126.913 292.406 125.77 295.903 124.792Z" fill="#BC7171"/>
<path d="M285.875 146.96C287.499 146.828 289.173 146.728 290.864 146.695C289.107 150.986 287.002 154.897 284.665 158.359C283.637 157.829 282.61 157.332 281.632 156.901C283.405 153.704 284.764 150.373 285.626 146.894L285.875 146.96Z" fill="#BC7171"/>
<path d="M208.849 158.36C203.926 160.779 194.893 158.128 191.114 158.211C190.998 158.211 190.882 158.211 190.765 158.227L190.318 158.277C187.566 158.608 182.478 160.298 178.284 160.514C179.842 166.975 186.075 175.756 193.567 175.756C201.888 175.756 208.849 165.252 208.849 158.36ZM174.455 195.108C165.886 193.948 157.515 192.109 149.692 189.558C140.608 186.592 132.288 182.682 125.309 177.827H125.293C128.492 174.563 131.078 172.111 130.531 171.432C129.437 170.073 126.934 170.985 125.674 169.162C123.271 165.699 129.636 158.592 127.945 156.852C126.586 155.46 122.475 159.884 119.193 158.79C111.9 156.388 116.442 129.697 111.071 128.321C109.148 127.824 106.845 130.856 104.706 133.491C110.823 87.1825 129.039 28.332 195.738 27.8183C256.222 27.3544 278.548 82.3611 285.775 128.222C285.991 129.531 286.19 130.84 286.372 132.149C287.101 137.285 286.803 142.206 285.626 146.894C284.764 150.374 283.405 153.704 281.632 156.902C280.504 158.956 279.195 160.944 277.736 162.866C276.178 164.888 274.471 166.826 272.581 168.698C268.504 172.774 263.697 176.485 258.343 179.749C253.221 182.881 247.619 185.631 241.668 187.934C233.298 191.198 224.264 193.6 215.015 195.009C208.634 196.003 202.169 196.516 195.738 196.516C194.047 196.516 192.373 196.483 190.683 196.434C185.246 196.268 179.809 195.821 174.455 195.108ZM258.973 125.886C263.515 113.228 248.431 94.2074 238.204 96.6595C234.309 97.5873 230.48 101.05 227.281 105.573C221.049 114.354 217.153 127.129 219.656 133.11C221.496 137.467 230.115 138.842 238.884 137.55H238.9C247.718 136.241 256.686 132.248 258.973 125.886ZM211.501 71.4592C213.092 73.4474 224.629 68.4603 224.281 65.7928C224.082 64.3017 220.154 63.0591 216.905 64.0532C212.645 65.3455 210.523 70.2166 211.501 71.4592ZM190.202 146.712C195.042 146.414 198.158 143.365 197.081 140.698C196.252 138.66 184.649 140.234 183.539 141.593C182.362 143.051 186.439 146.944 190.202 146.712ZM164.162 77.4403C165.67 75.8663 164.096 69.1727 159.14 67.9964C155.725 67.168 151.764 69.2556 151.615 71.2603C151.382 74.69 162.074 79.6273 164.162 77.4403ZM164.112 134.319C166.234 128.189 161.543 115.696 154.764 107.329H154.747C151.266 103.022 147.222 99.824 143.277 99.1447C132.918 97.3388 119.077 117.287 124.431 129.63C127.116 135.843 136.332 139.273 145.216 140.002C154.051 140.715 162.554 138.809 164.112 134.336V134.319Z" fill="#BC7171"/>
<path d="M277.504 185.333C277.504 185.333 277.571 185.465 277.62 185.532C279.709 188.895 284.234 193.518 289.008 197.328C287.748 204.154 284.665 210.136 282.527 212.604C280.919 214.46 277.902 213.085 274.571 210.152C268.802 205.082 262.106 195.357 260.15 189.707C258.907 186.112 258.41 182.781 258.343 179.749C263.697 176.485 268.504 172.774 272.581 168.715C272.78 173.371 273.725 179.186 277.504 185.333Z" fill="#BC7171"/>
<path d="M284.151 317.133C285.676 319.552 285.079 337.081 265.056 350.038H265.023C265.338 337.761 263.366 326.478 261.244 321.408C266.996 318.823 272.217 316.073 275.946 313.173C275.449 315.377 274.952 317.05 274.852 317.945C274.504 321.192 280.189 310.821 284.151 317.133Z" fill="#BC7171"/>
<path d="M181.699 331.647C179.793 325.699 182.362 317.216 186.821 309.694C187.782 308.07 188.826 306.48 189.92 304.988C192.34 301.725 195.025 298.842 197.744 296.671C184.848 281.578 169.417 263.551 153.222 243.818C153.703 242.609 154.184 241.416 154.664 240.207C161.361 233.496 169.201 228.045 169.234 221.137C169.251 218.817 167.593 216.481 165.123 214.31C166.251 213.383 167.394 212.67 168.521 212.19C169.284 211.842 170.063 211.61 170.825 211.494C175.467 210.748 184.003 209.224 189.34 206.689C192.241 205.314 191.147 198.686 190.683 196.433C192.373 196.483 194.047 196.516 195.738 196.516C202.169 196.516 208.634 196.002 215.015 195.025V195.091C215.728 199.531 212.231 206.026 218.43 207.733C227.182 210.152 232.668 208.511 239.348 212.19C245.613 215.652 254.05 229.288 261.824 245.856C269.565 262.392 276.626 281.826 280.19 297.036C280.206 297.052 280.206 297.069 280.206 297.069C280.737 299.322 281.201 301.493 281.565 303.531C282.162 306.877 279.908 310.091 275.946 313.173C272.217 316.073 266.996 318.823 261.244 321.408C257.945 322.899 254.465 324.34 251 325.715C242.713 329.012 234.508 331.945 229.005 334.463C227.165 335.292 225.64 336.087 224.496 336.816C222.739 337.943 220.154 339.053 217.087 339.964C211.021 341.787 203.114 342.83 196.202 341.737C190.335 340.826 185.18 338.39 182.528 333.585C182.196 332.972 181.914 332.326 181.699 331.647Z" fill="#BC7171"/>
<path d="M189.323 377.64C190.567 406.602 185.528 438.695 183.058 439.904C174.472 444.112 162.919 442.803 155.841 437.568C147.587 431.471 140.277 376.083 133.349 365.281C128.227 357.278 128.144 336.303 131.326 312.328C131.691 309.628 132.089 306.91 132.52 304.16C135.769 306.297 139.117 307.093 142.448 306.066H142.465C137.492 380.341 239.315 389.967 251 325.715C254.465 324.34 257.945 322.899 261.244 321.408C263.366 326.478 265.338 337.761 265.023 350.038C264.857 356.615 264.029 363.475 262.205 369.82C256.802 388.625 242.945 442.406 238.204 444.377C231.193 447.277 213.557 446.216 209.446 439.192C204.904 431.404 210.523 382.561 204.805 380.838C198.987 379.082 194.346 378.403 189.323 377.64Z" fill="#BC7171"/>
<path d="M238.204 96.6594C248.431 94.2073 263.515 113.228 258.973 125.886C256.686 132.248 247.718 136.241 238.9 137.55C261.211 131.221 238.204 96.6594 227.281 105.573C230.48 101.05 234.309 97.5872 238.204 96.6594Z" fill="#BC7171"/>
<path d="M227.281 105.573C238.204 96.6594 261.211 131.221 238.9 137.55H238.884C230.115 138.842 221.496 137.467 219.656 133.11C217.154 127.128 221.049 114.354 227.281 105.573Z" fill="#BC7171"/>
<path d="M229.005 334.464C231.839 338.391 233.182 340.892 232.701 341.737C230.149 346.31 227.331 346.675 225.408 347.122C224.248 347.387 221.894 345.399 218.513 341.588C218.049 341.075 217.584 340.544 217.087 339.965C220.154 339.053 222.739 337.943 224.496 336.817C225.64 336.088 227.165 335.292 229.005 334.464Z" fill="#BC7171"/>
<path d="M232.701 341.737C233.182 340.892 231.839 338.39 229.005 334.464C234.508 331.945 242.713 329.013 251 325.716C239.315 389.967 137.492 380.341 142.465 306.066C142.929 305.917 143.344 305.701 143.708 305.419C149.41 306.563 155.808 307.474 162.621 308.186L162.588 308.451C160.168 344.57 197.694 356.499 218.513 341.588C221.894 345.399 224.248 347.387 225.408 347.122C227.331 346.674 230.149 346.31 232.701 341.737Z" fill="#BC7171"/>
<path d="M224.281 65.7927C224.629 68.4602 213.092 73.4473 211.501 71.4591C210.523 70.2164 212.645 65.3454 216.905 64.0531C220.154 63.059 224.082 64.3016 224.281 65.7927Z" fill="#BC7171"/>
<path d="M217.087 339.964C217.584 340.544 218.049 341.075 218.513 341.588C197.694 356.5 160.167 344.57 162.587 308.452L162.621 308.187C170.278 308.982 178.483 309.479 186.804 309.694H186.821C182.362 317.216 179.793 325.699 181.699 331.647C181.914 332.326 182.196 332.973 182.528 333.586C185.18 338.39 190.335 340.826 196.202 341.737C203.114 342.831 211.021 341.787 217.087 339.964Z" fill="#BC7171"/>
<path d="M191.18 159.536L184.881 159.702C184.699 160.447 184.749 160.58 184.749 161.392C184.749 166.163 187.931 170.057 191.909 170.073H191.942C195.904 170.073 199.119 166.18 199.119 161.392C199.119 160.513 199.219 160.116 199.003 159.337L191.18 159.536ZM191.114 158.21C194.893 158.128 203.926 160.778 208.849 158.36C208.849 165.252 201.887 175.756 193.567 175.756C186.075 175.756 179.842 166.975 178.284 160.513C182.478 160.298 187.566 158.608 190.318 158.277L190.765 158.227C190.881 158.21 190.997 158.21 191.114 158.21Z" fill="#BC7171"/>
<path d="M199.003 159.337C199.219 160.116 199.12 160.513 199.12 161.391C199.12 166.18 195.904 170.073 191.942 170.073H191.909V170.023C192.141 167.008 191.429 163.197 191.18 159.536L199.003 159.337Z" fill="#BC7171"/>
<path d="M197.081 140.698C198.158 143.365 195.042 146.414 190.202 146.712C186.439 146.944 182.362 143.051 183.539 141.593C184.649 140.234 196.252 138.66 197.081 140.698Z" fill="#BC7171"/>
<path d="M191.18 159.536C191.428 163.198 192.141 167.008 191.909 170.024V170.074C187.931 170.074 184.749 166.163 184.749 161.392C184.749 160.58 184.699 160.447 184.881 159.702L191.18 159.536Z" fill="#BC7171"/>
<path d="M197.744 296.671C195.025 298.842 192.34 301.725 189.92 304.989C178.5 290.011 164.775 272.299 149.41 254.041C148.548 253.014 147.686 251.987 146.808 250.959C148.1 247.927 150.056 245.21 152.311 242.692C152.609 243.056 152.924 243.437 153.222 243.802C169.416 263.551 184.848 281.578 197.744 296.671Z" fill="#BC7171"/>
<path d="M189.92 304.989C188.826 306.48 187.782 308.071 186.82 309.694H186.804C178.483 309.479 170.278 308.982 162.62 308.187C155.808 307.474 149.41 306.563 143.708 305.42C149.443 301.013 146.244 280.468 145.515 265.507H145.531C146.741 261.679 148.034 257.869 149.41 254.042C164.775 272.3 178.5 290.011 189.92 304.989Z" fill="#BC7171"/>
<path d="M161.278 211.494C157.167 208.893 152.228 206.805 148.482 205.794C147.852 205.629 147.239 205.496 146.592 205.38C147.222 199.747 148.316 194.478 149.692 189.558C157.515 192.109 165.886 193.948 174.455 195.108C172.433 200.46 170.444 206.159 168.521 212.19C167.394 212.67 166.251 213.383 165.124 214.311C163.996 213.333 162.687 212.372 161.278 211.494Z" fill="#BC7171"/>
<path d="M145.697 205.231H145.714C146.012 205.281 146.31 205.331 146.592 205.38C147.239 205.496 147.852 205.629 148.482 205.795C152.228 206.805 157.167 208.893 161.278 211.494C162.687 212.372 163.996 213.333 165.123 214.311C167.593 216.481 169.251 218.817 169.234 221.137C169.201 228.046 161.361 233.497 154.664 240.207C153.869 241.002 153.073 241.831 152.311 242.692C150.056 245.211 148.101 247.928 146.808 250.96C146.642 251.39 146.476 251.821 146.327 252.252C145.333 255.151 145.25 259.94 145.515 265.507C146.244 280.468 149.443 301.012 143.708 305.42C143.343 305.701 142.929 305.917 142.465 306.066H142.448C139.117 307.093 135.769 306.298 132.52 304.16C115.248 292.828 100.612 243.835 105.883 230.1C107.441 226.058 111.138 221.153 116.044 216.763C118.978 214.128 122.359 211.676 125.973 209.688C132.172 206.308 139.084 204.32 145.697 205.231Z" fill="#BC7171"/>
<path d="M159.14 67.9963C164.096 69.1726 165.67 75.8662 164.162 77.4402C162.074 79.6272 151.383 74.6899 151.615 71.2602C151.764 69.2555 155.725 67.1679 159.14 67.9963Z" fill="#BC7171"/>
<path d="M154.764 107.329C161.543 115.696 166.234 128.189 164.112 134.319C162.554 138.793 154.051 140.698 145.217 139.985C122.525 135.098 143.261 99.1613 154.747 107.313H154.764V107.329Z" fill="#BC7171"/>
<path d="M154.664 240.207C154.184 241.417 153.703 242.609 153.222 243.802C152.924 243.438 152.609 243.057 152.311 242.692C153.073 241.831 153.869 241.002 154.664 240.207Z" fill="#BC7171"/>
<path d="M154.747 107.313C143.26 99.161 122.525 135.098 145.216 139.969C136.332 139.256 127.116 135.827 124.431 129.613C119.077 117.27 132.917 97.3219 143.277 99.1278C147.222 99.8071 151.266 103.005 154.747 107.313Z" fill="#BC7171"/>
<path d="M146.808 250.959C147.686 251.987 148.548 253.014 149.41 254.041C148.034 257.868 146.741 261.679 145.531 265.506H145.515C145.25 259.939 145.332 255.151 146.327 252.252C146.476 251.821 146.642 251.39 146.808 250.959Z" fill="#BC7171"/>
<path d="M149.692 189.557C148.316 194.478 147.222 199.747 146.592 205.38C146.31 205.33 146.012 205.281 145.714 205.231H145.697C139.084 204.32 132.172 206.308 125.972 209.688C122.641 205.397 119.342 201.072 116.06 196.715C112.646 191.214 119.856 183.344 125.293 177.811H125.309C132.288 182.682 140.609 186.592 149.692 189.557Z" fill="#BC7171"/>
<path d="M132.52 304.161C132.089 306.911 131.691 309.628 131.326 312.312C123.072 322.518 114.883 327.588 109.132 326.776C91.7443 324.341 70.4118 259.36 95.7224 210.003C96.7335 208.031 97.7777 206.126 98.8717 204.254C101.64 204.768 104.391 205.778 106.977 207.518C110.043 210.566 113.06 213.648 116.044 216.763C111.137 221.154 107.441 226.058 105.883 230.1C100.612 243.836 115.248 292.828 132.52 304.161Z" fill="#BC7171"/>
<path d="M43.7256 122.556C38.3055 114.189 22.1943 98.5484 24.1667 96.2288C26.6365 93.2962 54.3836 115.15 58.544 110.809C61.4281 107.793 49.5767 94.6051 52.063 93.3128C56.2732 91.1092 66.5167 111.19 76.1636 123.069C80.7052 128.669 85.1143 132.464 88.6945 131.238C91.1477 130.393 92.5732 128.52 93.7003 126.598C93.8329 126.383 93.9489 126.184 94.0649 125.985C95.2086 123.898 96.1037 121.876 97.6784 121.181C101.242 119.574 96.9491 135.926 100.049 137.07C101.308 137.534 102.949 135.645 104.706 133.491C106.845 130.857 109.149 127.824 111.071 128.322C116.442 129.697 111.9 156.388 119.193 158.791C122.475 159.884 126.586 155.46 127.945 156.852C129.636 158.592 123.271 165.7 125.674 169.162C126.934 170.985 129.437 170.074 130.531 171.432C131.078 172.111 128.492 174.564 125.293 177.811C119.856 183.345 112.646 191.215 116.06 196.715C119.342 201.073 122.641 205.397 125.972 209.688C122.359 211.676 118.978 214.129 116.044 216.763C113.06 213.648 110.044 210.566 106.977 207.518C104.391 205.778 101.64 204.768 98.8718 204.254C87.1365 202.034 75.1193 208.678 74.1082 207.087C72.2518 204.188 82.3296 198.008 78.9814 195.092C75.8321 192.358 72.6496 203.674 66.6493 202.879C63.9475 202.514 63.5 200.46 60.8148 198.985C52.2785 194.33 40.9244 209.771 37.7917 204.502C34.7584 199.416 56.671 192.341 55.9417 190.883C55.2786 189.541 38.3055 197.726 35.5208 193.799C34.3606 192.176 36.6811 189.956 35.5208 187.967C32.8356 183.411 16.9564 188.763 16.0614 186.344C15.4812 184.786 21.9788 182.218 21.5644 179.219C21.0837 175.525 10.7075 175.193 10.5418 172.725C10.3097 169.195 31.493 166.826 31.6256 162.353C31.7582 157.962 11.5032 154.781 11.8512 151.666C12.1496 148.734 30.0344 150.44 31.2941 145.818C33.0511 139.455 1.3922 127.294 2.76796 123.782C3.51385 121.843 15.2989 128.305 16.7078 126.052C18.1333 123.782 7.5085 115.713 8.60248 114.056C9.74618 112.3 22.8407 119.607 33.0843 124.262C39.0845 126.98 44.1234 128.785 45.2506 127.344C45.8804 126.532 45.1843 124.809 43.7256 122.556Z" fill="#BC7171"/>
<path d="M93.7003 126.598C92.5732 128.52 91.1477 130.393 88.6945 131.238C85.1143 132.464 80.7052 128.669 76.1636 123.069C82.1307 123.865 88.0315 125.024 93.7003 126.598Z" fill="#BC7171"/>
<path d="M43.7256 122.556C45.1842 124.809 45.8804 126.532 45.2505 127.344C44.1234 128.785 39.0845 126.979 33.0842 124.262C36.449 123.517 39.9961 122.953 43.7256 122.556Z" fill="#BC7171"/>
<path d="M199.053 159.934C199.269 160.729 199.219 160.862 199.219 161.723C199.219 166.511 196.003 170.422 192.025 170.422H191.992V170.355C192.257 166.975 191.329 162.601 191.197 158.559C192.97 158.509 195.954 159.089 199.103 159.453L199.053 159.934Z" fill="#EAD0D0"/>
<path d="M191.196 158.559C191.329 162.601 192.257 166.975 191.992 170.355V170.421C188.031 170.421 184.848 166.495 184.848 161.723C184.848 160.911 184.616 160.563 184.798 159.818C186.986 159.321 188.992 158.791 190.401 158.608C190.567 158.592 190.716 158.575 190.865 158.559C190.964 158.559 191.08 158.559 191.196 158.559Z" fill="white"/>
<path d="M340.557 109.318C343.657 111.737 342.861 115.614 339.629 120.22C335.054 120.004 330.33 120.021 325.54 120.303C326.236 117.768 326.302 115.199 325.573 112.665C322.971 103.685 307.638 88.508 298.671 63.3408C307.92 77.0262 320.832 93.9093 340.557 109.318Z" fill="#DBA77B"/>
<path d="M325.54 120.302C330.33 120.021 335.054 120.004 339.629 120.22C333.877 128.504 320.318 139.124 307.804 147.822C304.903 147.474 302.036 147.242 299.235 147.11C300.345 145.702 301.373 144.26 302.334 142.769C309.213 140.98 322.722 131.072 325.54 120.302Z" fill="#DBA77B"/>
<path d="M325.54 213.184C352.491 261.679 333.363 327.323 316.059 330.355C311.931 331.084 306.428 328.781 300.445 323.694C295.837 316.636 290.251 298.726 288.643 291.287C286.671 284.974 284.914 278.612 283.372 272.068C282.792 244.432 287.93 215.951 294.196 201.354C299.003 204.386 303.246 205.778 304.605 203.227C306.13 200.393 307.788 194.015 307.556 187.188C313.606 194.147 319.606 202.514 325.54 213.184Z" fill="#FCB9B9"/>
<path d="M242.995 42.7133C230.696 33.5676 215.214 28.0172 195.821 28.1664C129.139 28.68 110.922 87.4973 104.789 133.806C103.148 135.86 101.574 137.666 100.347 137.451C100.281 137.434 100.215 137.434 100.148 137.401C97.0487 136.258 101.342 119.905 97.778 121.529C96.2034 122.241 95.3083 124.246 94.148 126.333C90.5346 94.8702 102.867 55.1229 121.763 34.7605C173.13 -20.5941 255.807 6.46192 283.919 41.4707C287.831 46.3417 292.422 54.1123 298.671 63.3408C307.638 88.508 322.971 103.685 325.573 112.665C326.302 115.199 326.236 117.768 325.54 120.302C320.368 120.568 315.13 121.131 309.959 122.009C310.639 114.918 309.445 107.33 305.6 99.3436C302.235 89.5352 293.102 80.6546 292.29 81.1185C289.903 82.4274 303.793 101 302.931 123.351C300.577 123.881 298.257 124.461 295.986 125.124C296.632 115.299 295.207 104.745 290.831 94.1909C288.295 87.5967 284.88 86.4535 283.853 86.7352C280.82 87.5305 289.919 100.039 291.428 121.744C291.511 123.02 291.527 124.676 291.444 126.532C289.538 127.162 287.682 127.841 285.858 128.57C280.969 97.4217 269.084 62.0485 242.995 42.7133Z" fill="#FFCC99"/>
<path d="M309.959 122.009C315.13 121.131 320.368 120.568 325.54 120.303C322.722 131.072 309.213 140.98 302.334 142.769C306.395 136.506 309.246 129.548 309.959 122.009Z" fill="#FFCC99"/>
<path d="M305.6 99.3436C309.445 107.329 310.639 114.918 309.959 122.009C307.605 122.39 305.252 122.837 302.931 123.351C303.793 101 289.903 82.4274 292.29 81.1185C293.102 80.6546 302.235 89.5352 305.6 99.3436Z" fill="#DBA77B"/>
<path d="M307.804 147.822L307.787 147.839C300.213 153.108 293.035 157.664 288.162 160.58C287.731 160.331 287.284 160.083 286.853 159.834C287.648 159.172 288.444 158.476 289.223 157.78C289.223 157.78 289.223 157.763 289.24 157.763C292.82 154.566 296.251 150.987 299.235 147.11C302.036 147.242 304.903 147.474 307.804 147.822Z" fill="#DBA77B"/>
<path d="M277.836 163.181C279.278 161.259 280.587 159.287 281.714 157.25C282.709 157.68 283.72 158.177 284.764 158.724C285.46 159.072 286.157 159.437 286.853 159.834C287.284 160.083 287.731 160.331 288.162 160.58C292.704 163.231 297.328 166.561 300.876 169.991C305.616 174.58 307.34 181.058 307.555 187.188C307.787 194.015 306.13 200.393 304.605 203.226C303.246 205.778 299.003 204.386 294.196 201.354C292.522 200.294 290.798 199.035 289.09 197.676C284.317 193.865 279.792 189.243 277.703 185.879C277.653 185.813 277.62 185.747 277.587 185.681C273.808 179.534 272.863 173.718 272.664 169.063C274.554 167.174 276.278 165.202 277.819 163.181H277.836Z" fill="#FFCC99"/>
<path d="M302.931 123.351C305.252 122.837 307.605 122.39 309.959 122.009C309.246 129.547 306.395 136.506 302.334 142.769C301.373 144.26 300.345 145.701 299.235 147.11C297.958 147.043 296.699 147.01 295.456 146.994C298.572 141.046 301.638 134.087 302.45 128.636C302.716 126.863 302.865 125.09 302.931 123.351Z" fill="#DBA77B"/>
<path d="M302.931 123.351C302.865 125.091 302.716 126.864 302.45 128.636C301.638 134.087 298.572 141.046 295.456 146.994C293.931 146.961 292.439 146.977 290.964 147.027C293.649 140.45 295.489 133.027 295.986 125.124C298.257 124.461 300.577 123.881 302.931 123.351Z" fill="#FFCC99"/>
<path d="M295.455 146.994C296.699 147.011 297.958 147.044 299.235 147.11C296.251 150.987 292.82 154.566 289.24 157.764C290.698 155.477 293.085 151.534 295.455 146.994Z" fill="#DBA77B"/>
<path d="M290.831 94.191C295.207 104.745 296.632 115.299 295.986 125.124C294.444 125.555 292.936 126.019 291.444 126.532C291.527 124.677 291.511 123.02 291.428 121.744C289.919 100.04 280.819 87.5306 283.853 86.7353C284.88 86.4536 288.295 87.5968 290.831 94.191Z" fill="#DBA77B"/>
<path d="M290.964 147.027C292.439 146.977 293.931 146.961 295.455 146.994C293.085 151.534 290.698 155.477 289.24 157.763C289.223 157.763 289.223 157.78 289.223 157.78C288.444 158.476 287.649 159.171 286.853 159.834C286.157 159.437 285.461 159.072 284.764 158.724C287.102 155.245 289.223 151.318 290.964 147.027Z" fill="#FFCC99"/>
<path d="M294.196 201.338C287.93 215.951 282.792 244.432 283.372 272.068C279.477 255.781 276.841 238.434 275.416 218.105C275.233 215.454 274.968 212.919 274.653 210.5C277.985 213.433 281.002 214.808 282.609 212.952C284.748 210.484 287.831 204.502 289.09 197.676C290.798 199.035 292.522 200.294 294.196 201.338Z" fill="#EAA0A0"/>
<path d="M291.444 126.532C292.936 126.019 294.444 125.555 295.986 125.124C295.489 133.027 293.649 140.45 290.964 147.027C289.273 147.06 287.615 147.16 285.974 147.292L285.709 147.226C286.074 145.768 286.356 144.277 286.555 142.769C289.704 141.825 291.146 133.077 291.444 126.532Z" fill="#DBA77B"/>
<path d="M288.643 291.287C290.251 298.726 295.837 316.637 300.445 323.695C296.815 320.629 293.002 316.504 289.207 311.434H289.223C285.411 299.787 283.654 286.035 283.372 272.068C284.914 278.612 286.671 284.975 288.643 291.287Z" fill="#B27967"/>
<path d="M289.223 311.417H289.207C286.19 307.375 283.173 302.686 280.289 297.417C276.725 282.191 269.631 262.69 261.89 246.138C255.724 223.904 248.199 202.597 241.751 188.298C247.702 185.979 253.304 183.229 258.426 180.097C258.493 183.129 258.99 186.459 260.233 190.055C262.189 195.704 268.885 205.43 274.654 210.5C274.968 212.919 275.234 215.454 275.416 218.105C276.841 238.434 279.477 255.781 283.372 272.068C283.654 286.035 285.411 299.786 289.223 311.417Z" fill="#935D51"/>
<path d="M285.858 128.57C287.682 127.841 289.538 127.162 291.444 126.532C291.146 133.077 289.704 141.825 286.555 142.769C286.969 139.455 286.952 136.026 286.455 132.497C286.273 131.188 286.074 129.879 285.858 128.57Z" fill="#FFCC99"/>
<path d="M285.974 147.292C287.615 147.16 289.273 147.06 290.964 147.027C289.223 151.319 287.102 155.245 284.764 158.708C283.72 158.178 282.709 157.681 281.715 157.25C283.488 154.052 284.847 150.705 285.709 147.226L285.974 147.292Z" fill="#DBA77B"/>
<path d="M285.858 128.57C286.074 129.879 286.273 131.188 286.455 132.497C286.952 136.026 286.969 139.455 286.554 142.769C286.356 144.277 286.074 145.768 285.709 147.226C284.847 150.705 283.488 154.052 281.714 157.25C280.587 159.288 279.278 161.259 277.836 163.181H277.819C276.278 165.203 274.554 167.174 272.664 169.046C268.587 173.122 263.78 176.833 258.426 180.097C253.304 183.229 247.702 185.979 241.751 188.282C233.381 191.546 224.347 193.949 215.115 195.357C211.236 195.97 207.324 196.384 203.396 196.633C216.955 195.059 253.454 183.312 270.659 155.891C271.968 153.804 273.079 151.6 273.99 149.28C276.178 148.104 277.587 146.298 277.587 144.277C277.587 143.134 277.156 142.073 276.377 141.162C282.344 111.637 264.261 70.3492 242.994 42.7134C269.084 62.0485 280.969 97.4218 285.858 128.57Z" fill="#935D51"/>
<path d="M277.587 185.681C277.587 185.681 277.654 185.814 277.703 185.88C279.792 189.243 284.317 193.866 289.091 197.676C287.831 204.503 284.748 210.484 282.61 212.952C281.002 214.808 277.985 213.433 274.654 210.5C268.885 205.43 262.189 195.705 260.233 190.055C258.99 186.46 258.493 183.129 258.426 180.097C263.78 176.834 268.587 173.122 272.664 169.063C272.863 173.719 273.808 179.534 277.587 185.681Z" fill="#DBA77B"/>
<path d="M284.234 317.481C285.759 319.9 285.162 337.429 265.139 350.386H265.123C265.438 338.125 263.465 326.826 261.327 321.756C267.079 319.155 272.3 316.404 276.029 313.505C275.532 315.725 275.035 317.398 274.935 318.293C274.587 321.54 280.273 311.169 284.234 317.481Z" fill="#935D51"/>
<path d="M261.327 321.756C258.774 322.899 256.122 324.026 253.454 325.103C252.658 325.417 251.862 325.749 251.083 326.064C242.779 329.361 234.574 332.293 229.088 334.812C227.265 335.64 225.723 336.435 224.596 337.164C222.839 338.291 220.237 339.401 217.17 340.312C211.104 342.118 203.197 343.162 196.302 342.085C196.832 341.174 197.363 340.312 197.91 339.484C204.192 339.799 209.943 338.208 212.728 334.812C214.932 332.111 215.264 328.648 215.065 324.92C214.684 317.117 212.032 308.253 219.64 303.266C233.547 294.203 233.547 323.694 245.58 320.132C256.553 316.885 266.73 311.268 273.692 304.144C280.272 297.384 263.78 260.188 251.116 226.024C254.664 231.658 258.343 238.6 261.89 246.138C269.631 262.69 276.725 282.191 280.289 297.417C280.836 299.67 281.284 301.824 281.648 303.862C282.245 307.209 279.991 310.423 276.029 313.505C272.3 316.404 267.078 319.155 261.327 321.756Z" fill="#935D51"/>
<path d="M191.661 146.878C195.705 146.149 198.142 143.448 197.164 141.03C196.915 140.4 195.606 140.118 193.882 140.085C190.119 139.969 184.401 140.996 183.638 141.924C182.445 143.382 186.539 147.292 190.285 147.044C190.766 147.011 191.23 146.961 191.661 146.878ZM174.538 195.456C165.969 194.297 157.582 192.457 149.775 189.889C140.691 186.94 132.371 183.03 125.392 178.176H125.376C128.591 174.895 131.177 172.443 130.63 171.764C129.536 170.422 127.033 171.316 125.774 169.494C123.354 166.048 129.735 158.923 128.045 157.184C126.685 155.792 122.575 160.216 119.276 159.122C117.37 158.492 116.276 156.189 115.613 153.124C117.188 153.92 119.127 154.367 121.232 154.367C126.503 154.367 130.763 151.501 130.763 147.972C130.763 144.443 126.503 141.576 121.232 141.576C118.597 141.576 116.226 142.289 114.502 143.448C114.055 136.324 113.856 129.349 111.171 128.653C109.248 128.156 106.944 131.171 104.789 133.806C110.922 87.4975 129.138 28.6801 195.821 28.1665C215.214 28.0174 230.696 33.5678 242.995 42.7134C264.261 70.3493 282.344 111.637 276.377 141.162C274.753 139.207 271.637 137.882 268.073 137.882C262.819 137.882 258.559 140.748 258.559 144.277C258.559 147.806 262.819 150.672 268.073 150.672C270.311 150.672 272.366 150.159 273.99 149.281C273.079 151.6 271.968 153.804 270.659 155.891C253.454 183.312 216.955 195.059 203.396 196.633H203.33C200.827 196.782 198.324 196.865 195.821 196.865C194.147 196.865 192.456 196.831 190.766 196.782C185.345 196.616 179.909 196.169 174.538 195.456ZM208.932 158.708C206.346 159.967 202.617 159.851 199.103 159.453C195.954 159.089 192.97 158.509 191.197 158.542C191.081 158.542 190.964 158.542 190.865 158.542C190.716 158.559 190.567 158.575 190.401 158.592C188.992 158.774 186.986 159.304 184.798 159.801C182.693 160.282 180.423 160.729 178.367 160.829C179.925 167.307 186.158 176.071 193.65 176.071C201.971 176.071 208.932 165.584 208.932 158.691V158.708ZM259.056 126.217C260.714 121.628 259.769 116.177 257.415 111.24H257.398C253.304 102.575 244.818 95.4337 238.304 96.9911C234.408 97.9189 230.58 101.398 227.364 105.921C221.38 114.355 217.568 126.466 219.491 132.696C219.574 132.961 219.656 133.209 219.756 133.441C221.596 137.815 230.215 139.19 238.983 137.882C247.818 136.589 256.785 132.58 259.056 126.217ZM211.601 71.7907C213.192 73.7955 224.728 68.8085 224.38 66.1244C224.181 64.6333 220.253 63.4072 217.004 64.3847C212.745 65.6936 210.606 70.5647 211.601 71.7907ZM192.722 134.17C200.429 132.878 209.512 128.57 208.667 125.323C207.54 120.949 176.942 122.357 175.483 127.394C174.538 130.625 185.909 135.297 192.722 134.17ZM164.494 133.574C165.803 127.145 161.261 115.564 154.847 107.661C151.366 103.353 147.322 100.139 143.377 99.4597C137.227 98.3994 129.851 104.994 126.006 113.112H125.989C123.337 118.679 122.343 124.942 124.514 129.962C127.199 136.142 136.382 139.572 145.266 140.301C145.266 140.301 145.277 140.306 145.299 140.317C154.134 141.046 162.654 139.124 164.212 134.651C164.328 134.303 164.427 133.955 164.494 133.574ZM164.262 77.7719C165.77 76.2145 164.195 69.5043 159.239 68.328C155.825 67.5161 151.863 69.5872 151.714 71.6085C151.465 75.0381 162.157 79.9589 164.262 77.7719Z" fill="#B27967"/>
<path d="M276.377 141.162C277.156 142.073 277.587 143.134 277.587 144.277C277.587 146.298 276.178 148.104 273.99 149.281C275.018 146.696 275.814 143.995 276.377 141.162Z" fill="#D17E75"/>
<path d="M268.073 137.881C271.637 137.881 274.753 139.207 276.377 141.162C275.814 143.995 275.018 146.696 273.99 149.28C272.366 150.158 270.311 150.672 268.073 150.672C262.819 150.672 258.559 147.806 258.559 144.277C258.559 140.748 262.819 137.881 268.073 137.881Z" fill="#E08F82"/>
<path d="M197.827 297.02C184.931 281.926 169.5 263.9 153.305 244.167C153.786 242.958 154.267 241.765 154.747 240.555C161.46 233.845 169.301 228.394 169.334 221.468C169.35 219.149 167.693 216.813 165.223 214.659C166.35 213.731 167.477 213.019 168.604 212.538C169.367 212.19 170.146 211.958 170.908 211.842C175.55 211.097 184.086 209.572 189.423 207.038C190.981 206.308 191.379 204.072 191.362 201.802H191.744C197.213 205.066 211.004 203.475 214.899 200.675C214.551 203.906 214.535 206.988 218.513 208.081C227.281 210.5 232.768 208.843 239.447 212.538C242.845 214.427 246.89 219.298 251.117 226.025C263.78 260.189 280.273 297.384 273.692 304.144C266.73 311.268 256.553 316.885 245.58 320.133C233.547 323.695 233.547 294.203 219.64 303.266C212.032 308.253 214.684 317.117 215.065 324.921C207.126 328.665 202.335 332.625 197.91 339.484C193.119 339.269 188.031 337.943 183.671 335.508C183.274 335.011 182.942 334.497 182.627 333.934C182.296 333.321 182.014 332.675 181.798 331.995C179.892 326.047 182.461 317.581 186.904 310.059C187.865 308.435 188.909 306.845 190.02 305.337C192.423 302.073 195.108 299.19 197.827 297.02ZM237.309 250.894C238.751 258.084 241.917 277.337 241.751 284.544V285.687C242.928 285.687 244.105 285.671 245.265 285.654C249.21 285.555 253.188 285.289 257.266 284.544C251.083 282.953 246.326 278.314 245.017 272.946C243.293 266.219 240.16 258.068 237.309 250.894Z" fill="#B27967"/>
<path d="M261.327 321.756C263.465 326.826 265.438 338.125 265.123 350.386C264.957 356.963 264.128 363.823 262.305 370.152C256.901 388.957 243.044 442.754 238.304 444.709C235.834 445.736 232.055 446.266 228.01 446.217C238.503 443.731 243.542 418.167 246.326 402.675C251.199 375.536 261.36 346.492 253.454 325.103C256.122 324.026 258.774 322.899 261.327 321.756Z" fill="#935D51"/>
<path d="M257.415 111.24C259.769 116.177 260.714 121.628 259.056 126.218C256.785 132.58 247.818 136.589 238.983 137.882C252.509 134.054 249.409 119.889 242.431 111.273C247.354 109.716 252.476 109.583 257.399 111.24H257.415Z" fill="white"/>
<path d="M134.592 305.618C137.211 306.878 139.896 307.225 142.548 306.397C137.575 380.689 239.398 390.315 251.083 326.064C251.862 325.749 252.658 325.417 253.454 325.103C261.36 346.492 251.199 375.536 246.326 402.675C243.542 418.167 238.503 443.731 228.01 446.217C220.552 446.134 212.198 444.079 209.546 439.523C204.987 431.753 210.623 382.909 204.904 381.186C199.07 379.43 194.445 378.751 189.423 377.989C187.434 377.674 185.379 377.359 183.174 376.961C182.18 395.667 183.141 437.137 169.185 442.638C164.262 442.224 159.521 440.567 155.924 437.916C147.67 431.819 140.36 376.431 133.432 365.629C128.31 357.626 128.227 336.651 131.409 312.676C131.774 309.976 132.172 307.259 132.603 304.508H132.619C133.266 304.923 133.929 305.304 134.592 305.618ZM241.884 405.923C241.884 401.747 236.795 398.368 230.497 398.368C224.198 398.368 219.109 401.747 219.109 405.923C219.109 410.098 224.215 413.494 230.497 413.494C236.779 413.494 241.884 410.098 241.884 405.923ZM178.284 402.675C178.284 398.865 173.063 395.766 166.632 395.766C160.201 395.766 154.979 398.865 154.979 402.675C154.979 406.486 160.201 409.601 166.632 409.601C173.063 409.601 178.284 406.503 178.284 402.675Z" fill="#B27967"/>
<path d="M257.399 111.24C252.476 109.583 247.354 109.715 242.431 111.273C237.889 105.656 231.674 102.392 227.364 105.921C230.58 101.398 234.409 97.9188 238.304 96.991C244.818 95.4335 253.304 102.574 257.399 111.24Z" fill="#EAD0D0"/>
<path d="M245.017 272.946C246.326 278.314 251.083 282.953 257.266 284.544C253.188 285.289 249.21 285.554 245.265 285.654C246.923 283.417 246.475 278.695 245.017 272.946Z" fill="#935D51"/>
<path d="M245.017 272.946C246.475 278.695 246.923 283.417 245.265 285.637C244.105 285.67 242.928 285.687 241.768 285.687V284.544C241.917 277.337 238.751 258.084 237.309 250.894C240.16 258.068 243.293 266.219 245.017 272.946Z" fill="#935D51"/>
<path d="M242.431 111.273C249.409 119.888 252.509 134.054 238.983 137.882C230.215 139.19 221.596 137.815 219.756 133.441C219.656 133.209 219.574 132.961 219.491 132.696C224.629 122.158 233.165 114.189 242.431 111.273Z" fill="#7F4D40"/>
<path d="M230.497 398.368C236.795 398.368 241.884 401.748 241.884 405.923C241.884 410.098 236.795 413.495 230.497 413.495C224.198 413.495 219.109 410.098 219.109 405.923C219.109 401.748 224.215 398.368 230.497 398.368Z" fill="#A06858"/>
<path d="M229.088 334.812C231.922 338.739 233.265 341.241 232.784 342.086C230.232 346.658 227.414 347.023 225.491 347.47C224.331 347.735 221.977 345.747 218.596 341.936C218.132 341.423 217.667 340.893 217.17 340.313C220.237 339.401 222.839 338.291 224.596 337.165C225.723 336.436 227.265 335.64 229.088 334.812Z" fill="#EDCCB7"/>
<path d="M232.784 342.085C233.265 341.24 231.922 338.738 229.088 334.812C234.574 332.293 242.779 329.361 251.083 326.064C239.398 390.315 137.575 380.689 142.548 306.414C143.012 306.248 143.427 306.033 143.791 305.768C149.51 306.911 155.891 307.839 162.704 308.535L162.671 308.8C160.251 344.918 197.777 356.848 218.596 341.936C221.977 345.747 224.331 347.735 225.491 347.47C227.414 347.023 230.232 346.658 232.784 342.085Z" fill="#FFCC99"/>
<path d="M227.364 105.921C231.674 102.392 237.889 105.656 242.431 111.273C233.165 114.189 224.629 122.158 219.491 132.696C217.568 126.466 221.38 114.355 227.364 105.921Z" fill="#6B3D34"/>
<path d="M224.38 66.1241C224.729 68.8082 213.192 73.7952 211.601 71.7905C210.606 70.5644 212.745 65.6933 217.004 64.3844C220.253 63.4069 224.182 64.633 224.38 66.1241Z" fill="#EAB5A7"/>
<path d="M217.17 340.313C217.667 340.892 218.132 341.423 218.596 341.936C197.777 356.848 160.25 344.919 162.67 308.8L162.704 308.535C170.361 309.33 178.566 309.827 186.887 310.042H186.904C182.461 317.581 179.892 326.047 181.798 331.995C182.014 332.675 182.296 333.321 182.627 333.934C182.942 334.497 183.274 335.011 183.671 335.508C186.489 339.269 191.114 341.274 196.302 342.085C203.197 343.162 211.104 342.119 217.17 340.313Z" fill="#DBA77B"/>
<path d="M215.131 195.44C215.38 197.014 215.082 198.869 214.899 200.675C211.004 203.475 197.213 205.066 191.744 201.785H191.362C191.346 199.83 190.981 197.826 190.766 196.782C192.456 196.831 194.147 196.865 195.821 196.865C198.324 196.865 200.827 196.782 203.33 196.633H203.396C207.324 196.384 211.236 195.97 215.115 195.357V195.44H215.131Z" fill="#935D51"/>
<path d="M215.065 324.92C215.264 328.648 214.933 332.111 212.728 334.812C209.943 338.208 204.192 339.799 197.91 339.484C202.335 332.625 207.126 328.665 215.065 324.92Z" fill="#B27967"/>
<path d="M208.667 125.322C209.512 128.57 200.429 132.878 192.721 134.17C185.909 135.297 174.538 130.624 175.483 127.393C176.942 122.357 207.54 120.948 208.667 125.322Z" fill="#935D51"/>
<path d="M208.932 158.708C208.932 165.6 201.97 176.088 193.65 176.088C186.158 176.088 179.925 167.323 178.367 160.861C180.423 160.745 182.693 160.298 184.798 159.818C184.616 160.563 184.848 160.911 184.848 161.723C184.848 166.495 188.031 170.405 191.992 170.421H192.025C196.003 170.421 199.219 166.511 199.219 161.723C199.219 160.861 199.269 160.729 199.053 159.934L199.103 159.453C202.617 159.851 206.346 159.967 208.932 158.708Z" fill="#472B28"/>
<path d="M197.164 141.029C198.142 143.448 195.705 146.149 191.661 146.878C193.467 145.42 194.412 142.736 193.882 140.085C195.606 140.118 196.915 140.4 197.164 141.029Z" fill="#EAA0A0"/>
<path d="M197.91 339.484C197.363 340.313 196.832 341.174 196.302 342.085C191.114 341.274 186.489 339.269 183.671 335.508C188.031 337.943 193.119 339.269 197.91 339.484Z" fill="#A06858"/>
<path d="M193.882 140.085C194.412 142.736 193.467 145.42 191.661 146.878C191.23 146.961 190.766 147.011 190.285 147.044C186.539 147.292 182.445 143.382 183.638 141.924C184.401 140.996 190.119 139.969 193.882 140.085Z" fill="#FCB9B9"/>
<path d="M197.827 297.019C195.108 299.19 192.423 302.073 190.02 305.337C178.599 290.359 164.891 272.664 149.51 254.406C148.648 253.362 147.786 252.351 146.924 251.324C148.2 248.276 150.156 245.558 152.41 243.04C152.709 243.405 153.024 243.786 153.322 244.15C169.516 263.899 184.948 281.926 197.843 297.019H197.827Z" fill="#EDCCB7"/>
<path d="M190.003 305.337C188.892 306.845 187.848 308.435 186.887 310.059H186.87C178.549 309.827 170.345 309.33 162.687 308.535C155.874 307.839 149.493 306.911 143.774 305.768C149.543 301.394 146.327 280.833 145.598 265.855C146.808 262.028 148.101 258.234 149.476 254.406C164.858 272.664 178.566 290.359 189.986 305.337H190.003Z" fill="#B27967"/>
<path d="M189.423 377.989C190.666 406.95 185.611 439.043 183.141 440.252C178.914 442.323 173.958 443.052 169.185 442.638C183.141 437.137 182.18 395.667 183.174 376.961C185.379 377.359 187.434 377.674 189.423 377.972V377.989Z" fill="#A06858"/>
<path d="M166.632 395.767C173.063 395.767 178.284 398.865 178.284 402.676C178.284 406.486 173.063 409.601 166.632 409.601C160.201 409.601 154.979 406.503 154.979 402.676C154.979 398.848 160.201 395.767 166.632 395.767Z" fill="#A06858"/>
<path d="M165.223 214.659C167.693 216.813 169.35 219.149 169.334 221.468C169.301 228.394 161.46 233.845 154.747 240.555C153.935 241.367 153.156 242.195 152.394 243.04C150.139 245.559 148.184 248.276 146.907 251.324C146.725 251.739 146.559 252.169 146.41 252.6C145.415 255.5 145.349 260.288 145.614 265.855C146.344 280.832 149.559 301.394 143.791 305.768C143.426 306.033 143.012 306.248 142.548 306.397C139.896 307.226 137.211 306.878 134.592 305.619C141.156 305.254 142.382 260.122 135.321 252.269C129.652 245.973 113.972 236.231 118.033 225.909C123.171 212.803 142.382 235.634 149.162 232.387C155.212 229.504 157.764 219.281 156.902 212.555C158.245 212.273 159.72 212.025 161.361 211.826H161.378C162.786 212.704 164.096 213.665 165.223 214.659Z" fill="#935D51"/>
<path d="M174.538 195.456C172.516 200.808 170.527 206.507 168.604 212.538C167.477 213.018 166.35 213.731 165.223 214.659C164.096 213.665 162.787 212.704 161.378 211.826H161.361C159.637 210.732 157.781 209.721 155.924 208.86C153.339 207.667 150.753 206.706 148.581 206.126C147.952 205.96 147.305 205.811 146.675 205.712C147.305 200.079 148.399 194.827 149.775 189.906C157.582 192.457 165.969 194.296 174.538 195.456Z" fill="#935D51"/>
<path d="M154.847 107.661C161.261 115.564 165.803 127.145 164.494 133.574C158.692 123.335 150.289 115.332 141.305 112.482C145.382 107.495 150.719 104.712 154.847 107.661Z" fill="#6B3D34"/>
<path d="M159.239 68.3277C164.195 69.504 165.77 76.2141 164.262 77.7716C162.157 79.9586 151.466 75.0378 151.714 71.6082C151.863 69.5868 155.825 67.5158 159.239 68.3277Z" fill="#EAB5A7"/>
<path d="M164.494 133.574C164.427 133.955 164.328 134.303 164.212 134.651C162.654 139.124 154.134 141.046 145.3 140.317C145.3 140.317 145.288 140.312 145.266 140.301C130.796 137.169 134.061 121.346 141.305 112.482C150.289 115.332 158.692 123.335 164.494 133.574Z" fill="#7F4D40"/>
<path d="M161.361 211.826C159.72 212.024 158.245 212.273 156.902 212.555C156.737 211.146 156.405 209.887 155.924 208.876C157.781 209.721 159.637 210.732 161.361 211.826Z" fill="#A06858"/>
<path d="M156.902 212.555C157.764 219.281 155.211 229.504 149.161 232.387C142.382 235.634 123.171 212.803 118.033 225.909C113.972 236.231 129.652 245.973 135.321 252.269C142.382 260.122 141.156 305.254 134.592 305.619C133.929 305.304 133.266 304.923 132.619 304.492C131.393 303.697 130.166 302.703 128.973 301.543C113.359 286.383 101.093 243.189 105.983 230.448C107.541 226.406 111.22 221.502 116.127 217.111C119.061 214.477 122.442 212.024 126.055 210.036C128.16 208.893 130.348 207.899 132.586 207.137C137.211 205.53 142.034 204.884 146.675 205.712C147.305 205.811 147.951 205.96 148.581 206.126C150.753 206.706 153.338 207.667 155.924 208.86C156.405 209.887 156.736 211.146 156.902 212.555Z" fill="#B27967"/>
<path d="M154.847 107.661C150.72 104.712 145.382 107.495 141.305 112.482C136.266 110.875 131.045 110.908 126.006 113.112C129.851 104.993 137.227 98.3991 143.377 99.4595C147.322 100.139 151.366 103.353 154.847 107.661Z" fill="#EAD0D0"/>
<path d="M149.775 189.889C148.399 194.826 147.305 200.079 146.675 205.712C142.034 204.883 137.211 205.529 132.586 207.137C132.934 200.675 127.199 187.039 121.116 182.748H121.099C122.525 181.108 124 179.55 125.376 178.159H125.392C132.371 183.03 140.691 186.94 149.775 189.889Z" fill="#EAA0A0"/>
<path d="M149.493 254.389C148.117 258.233 146.825 262.027 145.615 265.855C145.349 260.288 145.416 255.499 146.41 252.6C146.559 252.169 146.725 251.738 146.907 251.324C147.769 252.351 148.631 253.362 149.493 254.389Z" fill="#935D51"/>
<path d="M126.006 113.112C131.045 110.909 136.266 110.875 141.305 112.482C134.061 121.347 130.796 137.169 145.266 140.301C136.382 139.572 127.199 136.142 124.514 129.962C122.343 124.942 123.337 118.679 125.989 113.112H126.006Z" fill="white"/>
<path d="M132.619 304.492H132.603C132.172 307.259 131.774 309.976 131.409 312.66C129.089 315.543 126.768 317.995 124.514 320.033C125.74 316.653 128.973 310.042 128.973 301.543C130.166 302.703 131.393 303.697 132.619 304.492Z" fill="#935D51"/>
<path d="M121.116 182.749C127.199 187.04 132.934 200.675 132.586 207.137C130.348 207.899 128.161 208.893 126.055 210.036C122.724 205.745 119.425 201.421 116.143 197.063C113.607 192.955 116.972 187.52 121.099 182.732H121.116V182.749Z" fill="#FCB9B9"/>
<path d="M109.513 161.591C109.397 161.69 109.265 161.806 109.132 161.939C108.303 161.077 107.574 159.983 107.06 158.559C104.822 152.445 109.679 147.193 106.778 143.564C105.485 141.941 103.894 141.427 99.8499 140.764L100.347 137.451C101.574 137.666 103.148 135.86 104.789 133.806C106.944 131.171 109.248 128.156 111.171 128.653C113.856 129.349 114.055 136.324 114.502 143.448C114.718 146.878 114.983 150.324 115.613 153.124C116.276 156.189 117.37 158.492 119.276 159.122C122.575 160.215 126.685 155.792 128.045 157.183C129.735 158.923 123.354 166.047 125.774 169.494C127.033 171.316 129.536 170.421 130.63 171.763C131.177 172.443 128.591 174.895 125.376 178.159C124 179.551 122.525 181.108 121.099 182.732C116.972 187.52 113.607 192.954 116.143 197.063C119.425 201.421 122.724 205.745 126.055 210.036C122.442 212.024 119.061 214.476 116.127 217.111C113.143 213.996 110.127 210.914 107.06 207.866C108.568 207.435 114.851 204.055 115.497 202.15C116.989 197.676 107.242 196.566 106.778 189.608C106.215 181.042 120.834 177.098 119.757 169.494C119.293 166.296 115.828 165.882 112.497 164.275C112.862 161.789 112.646 160.613 112.033 160.315C111.453 160.033 110.558 160.596 109.513 161.591Z" fill="#EDCCB7"/>
<path d="M121.232 141.576C126.503 141.576 130.763 144.442 130.763 147.972C130.763 151.501 126.503 154.367 121.232 154.367C119.127 154.367 117.188 153.92 115.613 153.124C114.983 150.324 114.718 146.878 114.502 143.448C116.226 142.289 118.597 141.576 121.232 141.576Z" fill="#E08F82"/>
<path d="M128.973 301.542C128.973 310.042 125.74 316.653 124.514 320.033C118.746 325.252 113.342 327.704 109.215 327.124C91.8273 324.688 70.4948 259.708 95.8054 210.351C96.8165 208.379 97.8607 206.474 98.9547 204.602C101.723 205.115 104.474 206.126 107.06 207.866C110.126 210.914 113.143 213.996 116.127 217.111C111.22 221.501 107.541 226.405 105.983 230.448C101.093 243.189 113.359 286.383 128.973 301.542Z" fill="#FCB9B9"/>
<path d="M46.2286 128.322C50.3062 122.075 59.0745 122.39 61.0636 122.506C66.2185 122.788 66.4008 131.337 74.6719 136.109C76.6775 137.268 81.9651 138.08 92.5236 139.671C95.6232 140.135 97.9934 140.466 99.8499 140.764C103.894 141.427 105.485 141.941 106.778 143.564C109.679 147.193 104.822 152.445 107.06 158.559C107.574 159.984 108.303 161.077 109.132 161.939C106.198 164.838 102.204 170.339 99.9327 169.394C96.4519 167.936 99.9493 152.445 98.4244 152.097C97.1315 151.815 95.3248 162.9 91.2804 163.347C85.9763 163.91 83.6558 144.774 79.1804 146.05C73.8763 147.574 86.8714 163.247 83.9375 165.285C82.0148 166.611 76.3958 160.862 75.0697 162.038C74.1084 162.9 76.1306 166.743 78.103 170.04C85.1973 182.202 101.806 188.415 109.232 176.734C111.121 170.852 112.132 166.859 112.497 164.275C115.829 165.882 119.293 166.296 119.757 169.494C120.834 177.099 106.215 181.042 106.778 189.608C107.242 196.566 116.989 197.676 115.497 202.15C114.851 204.055 108.568 207.435 107.06 207.866C104.474 206.126 101.723 205.115 98.9548 204.602C87.236 202.382 75.2189 209.026 74.2078 207.435C72.3514 204.536 82.4126 198.356 79.0644 195.44C75.9316 192.689 72.7492 204.005 66.7489 203.21C64.0471 202.862 63.5996 200.791 60.9144 199.317C52.3615 194.661 41.024 210.103 37.8747 204.834C34.8579 199.764 56.7705 192.689 56.0412 191.215C55.3782 189.873 38.4051 198.074 35.6204 194.131C34.4601 192.507 36.7807 190.287 35.6204 188.299C32.9352 183.742 17.0395 189.111 16.161 186.675C15.5808 185.118 22.0784 182.549 21.664 179.551C21.1667 175.872 10.8071 175.541 10.6414 173.072C10.4093 169.527 31.5926 167.158 31.7252 162.701C31.8412 158.31 11.6027 155.112 11.9342 151.998C12.2492 149.082 30.134 150.772 31.3937 146.166C33.1341 139.803 1.47521 127.626 2.85096 124.113C3.61343 122.191 15.3819 128.636 16.8074 126.383C18.2329 124.13 7.60808 116.044 8.70206 114.388C9.84576 112.631 22.9071 119.938 33.1673 124.61H33.1838C39.1841 127.327 44.2064 129.133 45.3336 127.692L46.2286 128.322ZM73.0641 176.303C73.7603 172.128 72.6829 167.439 67.0638 167.456C50.8366 164.507 46.3115 164.457 46.096 165.285C45.7314 166.694 57.8479 170.405 57.3341 173.288C56.9197 175.624 48.2674 176.038 48.2674 176.734C48.3337 177.48 58.0634 176.535 58.6436 178.689C59.0082 180.048 55.4777 181.787 55.8258 182.583C56.1738 183.361 59.9862 182.467 64.0471 181.274C71.6552 188.431 72.4343 180.031 73.0641 176.303Z" fill="#FFEAD7"/>
<path d="M112.033 160.315C112.646 160.613 112.861 161.789 112.497 164.274C112.132 166.859 111.121 170.852 109.231 176.734C101.806 188.414 85.1972 182.201 78.1029 170.04C76.1305 166.743 74.1083 162.899 75.0696 162.038C76.3957 160.861 82.0147 166.611 83.9375 165.285C86.8713 163.247 73.8762 147.574 79.1803 146.049C83.6557 144.774 85.9762 163.91 91.2803 163.347C95.3247 162.899 97.1314 151.815 98.4243 152.097C99.9492 152.445 96.4518 167.936 99.9327 169.394C102.203 170.338 106.198 164.838 109.132 161.938C109.265 161.806 109.397 161.69 109.513 161.59C110.557 160.596 111.453 160.033 112.033 160.315Z" fill="#EDCCB7"/>
<path d="M100.347 137.451L99.8498 140.764C97.9933 140.466 95.6231 140.135 92.5235 139.671C81.965 138.08 76.6775 137.268 74.6718 136.109C66.4007 131.337 66.2184 122.788 61.0635 122.506C59.0744 122.39 50.3061 122.075 46.2285 128.322L45.3335 127.692C45.9633 126.88 45.2838 125.157 43.8251 122.904H43.8085C38.405 114.52 22.2938 98.8798 24.2662 96.5602C26.7359 93.6442 54.4831 115.498 58.6435 111.157C61.5276 108.141 49.6596 94.9366 52.1459 93.6442C56.3561 91.4407 66.6162 111.538 76.2465 123.417H76.2631C80.8047 129.017 85.2138 132.795 88.794 131.569C91.2472 130.741 92.6727 128.868 93.7998 126.946L94.1479 126.35C95.3081 124.246 96.2032 122.241 97.7779 121.529C101.342 119.905 97.0485 136.258 100.148 137.401C100.214 137.434 100.281 137.434 100.347 137.451Z" fill="#EDCCB7"/>
<path d="M67.0638 167.456C72.6828 167.456 73.7602 172.128 73.0641 176.303C72.4342 180.031 71.6551 188.431 64.0471 181.274C59.9861 182.467 56.1738 183.361 55.8257 182.582C55.4776 181.787 59.0082 180.048 58.6435 178.689C58.0634 176.535 48.3336 177.479 48.2673 176.734C48.2673 176.038 56.9197 175.624 57.334 173.288C57.8479 170.405 45.7313 166.694 46.096 165.285C46.3114 164.457 50.8365 164.507 67.0638 167.456Z" fill="#EDCCB7"/>
<path d="M145.565 115.713C146.416 115.713 147.106 115.023 147.106 114.172C147.106 113.321 146.416 112.631 145.565 112.631C144.713 112.631 144.023 113.321 144.023 114.172C144.023 115.023 144.713 115.713 145.565 115.713Z" fill="white"/>
<path d="M237.889 114.189C238.741 114.189 239.431 113.499 239.431 112.648C239.431 111.797 238.741 111.107 237.889 111.107C237.038 111.107 236.348 111.797 236.348 112.648C236.348 113.499 237.038 114.189 237.889 114.189Z" fill="white"/>
<path d="M109.646 161.723C109.513 161.491 109.381 161.259 109.248 161.01" stroke="#3F2A25" stroke-linecap="round" stroke-linejoin="round"/>
<path d="M104.922 133.971C111.038 87.6625 129.254 28.812 195.954 28.2984C258.178 27.8179 280.024 86.0553 286.588 132.629C291.875 170.106 242.547 196.996 195.954 196.996C170.179 196.996 143.426 190.767 125.525 178.307" stroke="#3F2A25" stroke-linecap="round" stroke-linejoin="round"/>
<path d="M174.671 195.572C172.649 200.923 170.66 206.639 168.737 212.67" stroke="#3F2A25" stroke-linecap="round" stroke-linejoin="round"/>
<path d="M131.542 312.793C123.287 322.999 115.099 328.069 109.347 327.257C91.9599 324.821 70.6274 259.84 95.938 210.484C96.9491 208.512 97.9933 206.607 99.0873 204.734" stroke="#3F2A25" stroke-linecap="round" stroke-linejoin="round"/>
<path d="M149.907 190.038C148.532 194.959 147.438 200.228 146.808 205.861" stroke="#3F2A25" stroke-linecap="round" stroke-linejoin="round"/>
<path d="M146.029 217.939V217.922" stroke="#3F2A25" stroke-linecap="round" stroke-linejoin="round"/>
<path d="M241.884 188.431C248.332 202.746 255.874 224.086 262.04 246.337" stroke="#3F2A25" stroke-linecap="round" stroke-linejoin="round"/>
<path d="M307.688 187.321C313.738 194.279 319.738 202.646 325.672 213.316C352.624 261.812 333.496 327.455 316.191 330.487C307.522 332.011 292.837 320.215 280.405 297.516" stroke="#3F2A25" stroke-linecap="round" stroke-linejoin="round"/>
<path d="M274.786 210.632C275.101 213.051 275.366 215.586 275.549 218.237C277.554 246.718 281.93 269.383 288.776 291.419" stroke="#3F2A25" stroke-linecap="round" stroke-linejoin="round"/>
<path d="M219.889 133.59C216.093 124.544 226.966 99.8902 238.436 97.1398C248.663 94.6877 263.747 113.708 259.189 126.366C254.647 139.041 223.568 142.355 219.889 133.59Z" stroke="#3F2A25" stroke-linecap="round" stroke-linejoin="round"/>
<path d="M227.497 106.054C238.436 97.1232 261.459 131.718 239.116 138.03" stroke="#3F2A25" stroke-linecap="round" stroke-linejoin="round"/>
<path d="M164.344 134.8C167.56 125.521 155.129 101.613 143.509 99.6087C133.15 97.8193 119.309 117.768 124.663 130.111C130.017 142.454 161.245 143.796 164.344 134.816V134.8Z" stroke="#3F2A25" stroke-linecap="round" stroke-linejoin="round"/>
<path d="M154.98 107.81C143.493 99.6087 122.724 135.578 145.432 140.449" stroke="#3F2A25" stroke-linecap="round" stroke-linejoin="round"/>
<path d="M164.394 77.9205C165.902 76.3465 164.328 69.6529 159.388 68.4766C155.974 67.6647 152.012 69.7358 151.863 71.7571C151.615 75.1867 162.306 80.1075 164.394 77.937V77.9205Z" stroke="#3F2A25" stroke-linecap="round" stroke-linejoin="round"/>
<path d="M211.733 71.9395C210.739 70.6969 212.877 65.8258 217.137 64.5335C220.386 63.5394 224.298 64.7821 224.496 66.2732C224.861 68.9573 213.308 73.9443 211.717 71.9561L211.733 71.9395Z" stroke="#3F2A25" stroke-linecap="round" stroke-linejoin="round"/>
<path d="M190.417 147.193C195.257 146.894 198.374 143.846 197.296 141.178C196.484 139.157 184.881 140.714 183.771 142.073C182.577 143.531 186.671 147.425 190.417 147.193Z" stroke="#3F2A25" stroke-linecap="round" stroke-linejoin="round"/>
<path d="M172.5 158.873C175.4 163.628 186.821 159.006 190.998 158.707C195.175 158.409 207.971 162.601 211.501 156.669" stroke="#3F2A25" stroke-linecap="round" stroke-linejoin="round"/>
<path d="M190.533 158.757C191.08 154.681 190.948 148.717 190.533 147.209" stroke="#3F2A25" stroke-linecap="round" stroke-linejoin="round"/>
<path d="M43.9578 123.036H43.9412C40.2117 123.434 36.6646 123.997 33.2998 124.743" stroke="#3F2A25" stroke-linecap="round" stroke-linejoin="round"/>
<path d="M93.9324 127.079C88.2637 125.505 82.3463 124.345 76.3792 123.55" stroke="#3F2A25" stroke-linecap="round" stroke-linejoin="round"/>
<path d="M285.825 128.769C308.865 119.474 339.248 117.983 360.132 123.135" stroke="#3F2A25" stroke-linecap="round" stroke-linejoin="round"/>
<path d="M344.949 156.785C324.396 149.545 303.561 146 286.107 147.441" stroke="#3F2A25" stroke-linecap="round" stroke-linejoin="round"/>
<path d="M178.5 160.994C180.058 167.455 186.29 176.237 193.782 176.237C202.103 176.237 209.065 165.732 209.065 158.84" stroke="#3F2A25" stroke-linecap="round" stroke-linejoin="round"/>
<path d="M288.295 160.712C293.168 157.796 300.345 153.24 307.92 147.971C327.396 134.435 349.392 116.243 340.69 109.45C307.672 83.6698 293.765 53.6978 284.052 41.603C255.94 6.59425 173.262 -20.4617 121.895 34.8928C102.999 55.2552 90.6672 95.0025 94.2806 126.466" stroke="#3F2A25" stroke-linecap="round" stroke-linejoin="round"/>
<path d="M281.847 157.382C283.886 158.277 286.074 159.42 288.295 160.712C292.836 163.363 297.461 166.693 301.008 170.123C305.749 174.712 307.472 181.19 307.688 187.321C307.92 194.147 306.263 200.526 304.738 203.359C302.914 206.788 295.82 203.094 289.223 197.808C284.449 193.998 279.924 189.375 277.836 186.012C273.957 179.782 272.996 173.884 272.797 169.178" stroke="#3F2A25" stroke-linecap="round" stroke-linejoin="round"/>
<path d="M289.223 197.808C287.963 204.635 284.88 210.616 282.742 213.084C281.134 214.94 278.118 213.565 274.786 210.632C269.018 205.562 262.321 195.837 260.366 190.187C259.122 186.592 258.625 183.261 258.559 180.229" stroke="#3F2A25" stroke-linecap="round" stroke-linejoin="round"/>
<path d="M277.952 163.33C288.162 172.459 292.074 178.341 295.671 187.47" stroke="#3F2A25" stroke-linecap="round" stroke-linejoin="round"/>
<path d="M277.72 185.813C278.035 188.729 278.068 191.645 277.919 194.86" stroke="#3F2A25" stroke-linecap="round" stroke-linejoin="round"/>
<path d="M290.964 94.3232C301.141 118.877 295.323 143.432 284.897 158.84" stroke="#3F2A25" stroke-linecap="round" stroke-linejoin="round"/>
<path d="M305.715 99.4761C317.915 124.826 303.494 146.149 286.985 159.95" stroke="#3F2A25" stroke-linecap="round" stroke-linejoin="round"/>
<path d="M142.681 306.546C121.68 313.025 99.8499 246.901 106.115 230.581C110.425 219.364 131.144 201.537 148.714 206.275C156.538 208.379 169.5 215.139 169.466 221.617C169.417 232.171 151.167 239.312 146.543 252.733C142.681 263.966 152.692 303.448 142.681 306.546Z" stroke="#3F2A25" stroke-linecap="round" stroke-linejoin="round"/>
<path d="M132.702 212.323C136.929 207.369 139.034 207.866 145.929 205.712" stroke="#3F2A25" stroke-linecap="round" stroke-linejoin="round"/>
<path d="M144.388 219.563C148.183 215.454 152.427 213.118 161.51 211.975" stroke="#3F2A25" stroke-linecap="round" stroke-linejoin="round"/>
<path d="M189.539 378.121C190.782 407.082 185.743 439.175 183.274 440.384C174.688 444.593 163.135 443.284 156.057 438.048C147.802 431.951 140.493 376.563 133.564 365.761C128.442 357.759 128.359 336.767 131.542 312.792C131.907 310.108 132.304 307.391 132.735 304.641" stroke="#3F2A25" stroke-linecap="round" stroke-linejoin="round"/>
<path d="M165.339 214.791C166.466 213.863 167.61 213.151 168.737 212.67C169.5 212.323 170.279 212.091 171.041 211.975C175.682 211.229 184.218 209.705 189.556 207.17C192.456 205.795 191.362 199.167 190.898 196.914" stroke="#3F2A25" stroke-linecap="round" stroke-linejoin="round"/>
<path d="M215.264 195.572C215.944 199.996 212.463 206.507 218.645 208.213C227.397 210.632 232.9 208.975 239.563 212.67C253.023 220.109 276.444 274.337 281.781 304.011C284.317 318.111 235.801 330.139 224.712 337.297C216.524 342.582 190.119 347.354 182.743 334.066C177.224 324.108 188.312 303.961 199.169 296.224C221.215 280.501 238.735 288.603 258.841 284.394" stroke="#3F2A25" stroke-linecap="round" stroke-linejoin="round"/>
<path d="M233.679 241.499C238.718 254.754 249.956 279.689 245.415 285.786" stroke="#3F2A25" stroke-linecap="round" stroke-linejoin="round"/>
<path d="M261.459 321.888C264.708 329.675 267.642 352.125 262.421 370.301C257.017 389.106 243.16 442.886 238.42 444.858C231.408 447.757 213.772 446.697 209.661 439.672C205.103 431.885 210.739 383.058 205.02 381.319C196.898 378.866 191.08 378.502 183.29 377.11" stroke="#3F2A25" stroke-linecap="round" stroke-linejoin="round"/>
<path d="M205.783 310.224C192.489 315.725 187.401 321.971 181.931 332.127" stroke="#3F2A25" stroke-linecap="round" stroke-linejoin="round"/>
<path d="M217.899 323.827C207.258 328.416 201.854 332.889 196.434 342.217" stroke="#3F2A25" stroke-linecap="round" stroke-linejoin="round"/>
<path d="M265.272 350.518C285.295 337.562 285.891 320.033 284.367 317.614C280.405 311.301 274.72 321.673 275.068 318.425C275.167 317.531 275.664 315.857 276.162 313.654" stroke="#3F2A25" stroke-linecap="round" stroke-linejoin="round"/>
<path d="M143.924 305.9C156.04 308.319 171.289 309.777 187.019 310.174" stroke="#3F2A25" stroke-linecap="round" stroke-linejoin="round"/>
<path d="M142.681 306.546C137.708 380.821 239.53 390.448 251.216 326.196" stroke="#3F2A25" stroke-linecap="round" stroke-linejoin="round"/>
<path d="M162.803 308.932C160.383 345.051 197.91 356.98 218.728 342.069" stroke="#3F2A25" stroke-linecap="round" stroke-linejoin="round"/>
<path d="M152.526 243.172C169.035 263.336 184.815 281.776 197.959 297.152" stroke="#3F2A25" stroke-linecap="round" stroke-linejoin="round"/>
<path d="M126.205 210.185C122.873 205.894 119.558 201.553 116.276 197.196" stroke="#3F2A25" stroke-linecap="round" stroke-linejoin="round"/>
<path d="M229.22 334.944C232.055 338.871 233.397 341.373 232.917 342.218C230.364 346.791 227.546 347.155 225.624 347.602C224.463 347.868 222.11 345.879 218.728 342.069C218.264 341.555 217.8 341.025 217.303 340.445" stroke="#3F2A25" stroke-linecap="round" stroke-linejoin="round"/>
<path d="M147.023 251.44C163.449 270.792 178.069 289.646 190.136 305.469" stroke="#3F2A25" stroke-linecap="round" stroke-linejoin="round"/>
<path d="M116.259 217.243C113.276 214.128 110.259 211.047 107.193 207.998" stroke="#3F2A25" stroke-linecap="round" stroke-linejoin="round"/>
<path d="M107.193 207.998C93.6507 198.919 75.5835 209.539 74.3238 207.568C72.4674 204.668 82.5452 198.488 79.1804 195.572C76.0311 192.838 72.8486 204.154 66.8649 203.359C64.1631 202.995 63.7156 200.94 61.0304 199.466C52.4941 194.81 41.14 210.252 38.0073 204.983C34.974 199.896 56.8866 192.838 56.1738 191.364C55.5108 190.022 38.5377 198.206 35.7364 194.28C34.5762 192.656 36.8967 190.436 35.7364 188.448C33.0678 183.891 17.172 189.26 16.277 186.824C15.6968 185.267 22.1944 182.699 21.7966 179.7C21.2993 176.022 10.9397 175.69 10.774 173.222C10.5419 169.676 31.7252 167.323 31.8578 162.85C31.9904 158.459 11.7353 155.278 12.0834 152.147C12.3984 149.231 30.2831 150.921 31.5429 146.315C33.2833 139.952 1.62438 127.775 3.00013 124.279C3.7626 122.34 15.5311 128.802 16.94 126.549C18.3655 124.295 7.74068 116.21 8.83465 114.553C10.6579 111.77 42.4329 131.751 45.4827 127.841C48.4829 123.997 21.9126 99.675 24.3989 96.7258C26.8686 93.8098 54.6157 115.647 58.7762 111.306C61.6603 108.29 49.8089 95.1021 52.2952 93.7932C58.4944 90.5624 77.7549 135.529 88.9433 131.718C94.3137 129.895 94.7612 123.102 97.9105 121.661C101.474 120.037 97.1978 136.39 100.281 137.55C103.082 138.594 107.806 127.891 111.303 128.802C116.674 130.177 112.132 156.869 119.409 159.271C122.707 160.365 126.818 155.941 128.161 157.333C129.868 159.072 123.486 166.197 125.89 169.643C127.149 171.465 129.652 170.554 130.746 171.913C132.238 173.752 110.856 188.448 116.259 197.196" stroke="#3F2A25" stroke-linecap="round" stroke-linejoin="round"/>
<path d="M78.2191 170.173C76.2466 166.875 74.241 163.032 75.1858 162.17C76.5118 160.994 82.1308 166.743 84.0536 165.417C86.9874 163.38 73.9923 147.689 79.2964 146.182C83.7718 144.906 86.0923 164.042 91.3964 163.462C95.4408 163.032 97.2476 151.947 98.5239 152.229C100.065 152.56 96.568 168.068 100.032 169.51C103.231 170.852 109.895 159.32 112.132 160.43C113.359 161.043 113.027 165.318 109.314 176.85" stroke="#3F2A25" stroke-linecap="round" stroke-linejoin="round"/>
<path d="M67.1963 167.588C50.9691 164.639 46.444 164.589 46.2285 165.434C45.8473 166.843 57.9804 170.554 57.4666 173.437C57.0522 175.806 48.317 176.204 48.3833 176.899C48.4496 177.628 58.1793 176.701 58.7595 178.838C59.1241 180.197 55.5936 181.936 55.9417 182.731C56.2898 183.51 60.1021 182.616 64.163 181.439" stroke="#3F2A25" stroke-linecap="round" stroke-linejoin="round"/>
<path d="M153.438 244.299C153.919 243.09 154.399 241.897 154.88 240.688" stroke="#3F2A25" stroke-linecap="round" stroke-linejoin="round"/>
<path d="M149.626 254.522C148.25 258.349 146.957 262.16 145.747 265.987" stroke="#3F2A25" stroke-linecap="round" stroke-linejoin="round"/>
<path d="M199.236 159.817C199.451 160.613 199.352 160.994 199.352 161.872C199.352 166.66 196.136 170.57 192.158 170.57C188.18 170.57 184.964 166.66 184.964 161.872C184.964 161.06 184.914 160.927 185.097 160.182" stroke="#3F2A25" stroke-linecap="round" stroke-linejoin="round"/>
<path d="M191.329 158.691C191.462 162.75 192.39 167.124 192.125 170.504" stroke="#3F2A25" stroke-linecap="round" stroke-linejoin="round"/>
</svg>
