<svg xmlns="http://www.w3.org/2000/svg" width="285" height="174" fill="none" xmlns:v="https://vecta.io/nano"><g stroke="#3f2a25" stroke-width="2" stroke-linecap="round" stroke-linejoin="round"><path d="M7.523 71.439v.514c0 54.222.431 99.196 135.076 99.196s135.077-45.107 135.077-99.213"/><path d="M7.523 71.953c-5.435-6.861-5.435-14.881-5.435-23.449m281.006 0c0 8.567 0 16.571-5.418 23.432M2.601 37.153v-.049"/><path d="M2.088 48.488l.033-4.193.033-1.574.464-5.618M192.425 3.032h-.017"/><path d="M283.111 47.825c0-13.091 0-24.907-19.403-33.275-7.291-3.149-17.316-5.8-31.135-7.838-4.341-.663-9.063-1.243-14.184-1.757l-8.699-.795c-5.352-.431-11.101-.812-17.265-1.127h-.017l-3.48-.166c-13.438-.613-28.781-.928-46.312-.928l-34.2.481c-9.412.282-17.995.679-25.799 1.21-22.303 1.508-38.425 3.944-50.074 7.142-5.186 1.425-9.478 2.983-13.04 4.69-7.44 3.546-11.698 7.673-14.134 12.23-2.485 4.624-3.082 9.694-3.215 15.03l-.05 3.662v1.442"/></g><g fill="#bc7171"><path d="M2.121 46.881l.017-2.585.033-1.574.447-5.568c.613 3.911 1.823 7.59 4.275 11.037.083.116.166.215.249.331 7.44 9.943 25.865 17.533 71.432 20.93 10.87.829 23.264 1.392 37.414 1.707l26.611.282 26.777-.282 16.007-.497 12.443-.613c52.079-3.049 72.361-10.97 80.248-21.559.099-.116.182-.215.248-.331 2.502-3.43 3.679-7.192 4.259-11.119h.016c.514 3.712.514 7.557.514 11.467 0 8.717 0 16.853-5.7 23.797-10.903 13.241-42.601 22.09-134.795 22.09S18.707 85.542 7.804 72.301c-5.7-6.943-5.7-15.08-5.7-23.797l.017-1.624z"/><path d="M263.724 14.55c13.604 5.866 17.664 13.771 18.873 22.487h-.016c-.58 3.927-1.757 7.689-4.259 11.119-.066-.116-.149-.232-.248-.348-2.386-3.215-5.932-6.181-11.168-8.849-5.601-2.834-13.157-5.336-23.281-7.407-10.14-2.055-22.883-3.712-38.889-4.839-6.363-.447-13.256-.829-20.679-1.11-12.228-.481-25.981-.729-41.424-.729l-23.032.199c-.216 0-.431 0-.647.017l-9.096.215-2.983.099-16.04.663c-35.144 1.889-56.37 5.866-69.195 11.368-7.092 3.033-11.615 6.546-14.498 10.407l-.249.348c-2.452-3.447-3.662-7.126-4.275-11.037-.249 1.823-.381 3.679-.447 5.568.133-5.336.712-10.407 3.198-15.03 2.452-4.557 6.711-8.683 14.151-12.23 3.563-1.707 7.854-3.265 13.04-4.69 11.649-3.198 27.754-5.634 50.074-7.142 7.804-.53 16.388-.928 25.8-1.21 10.356-.315 21.723-.481 34.2-.481 17.53 0 32.874.315 46.312.928l3.48.166h.016l17.266 1.127 8.699.795c5.12.514 9.826 1.094 14.184 1.757 13.819 2.038 23.844 4.69 31.134 7.838z"/><path d="M278.074 47.808c.099.116.182.232.248.348-.066.116-.149.215-.248.331-7.887 10.589-28.169 18.51-80.248 21.56l-12.443.613-16.007.497-26.777.282c-9.577 0-18.359-.099-26.611-.282-14.15-.315-26.544-.878-37.414-1.69-45.567-3.414-63.992-11.003-71.432-20.946-.083-.116-.166-.215-.249-.331l.249-.348c2.883-3.861 7.407-7.374 14.499-10.407 12.825-5.502 34.051-9.479 69.195-11.368l16.04-.663 2.983-.099 9.096-.215c.216-.017.431-.017.647-.017l23.032-.199c15.443 0 29.196.249 41.424.729a641.9 641.9 0 0 1 20.679 1.11c16.006 1.127 28.749 2.784 38.889 4.839 10.124 2.071 17.68 4.574 23.281 7.407 5.236 2.668 8.782 5.634 11.168 8.849zm-.663 24.493l.282.265c0 54.454 0 98.584-135.077 98.584S7.539 127.02 7.539 72.566l.265-.265c10.903 13.241 42.601 22.09 134.812 22.09s123.892-8.849 134.795-22.09z"/></g><g fill="#ad7766"><path d="M278.422 48.007c2.419-3.414 3.612-7.126 4.175-11.003h.017c.514 3.712.514 7.573.514 11.467 0 8.717 0 16.853-5.7 23.797-4.441 5.402-12.328 10.059-26.363 13.688 4.64-4.292 3.894-17.466.116-22.603l-.083-.331c14.747-3.828 22.717-8.799 27.009-14.55.116-.149.232-.315.315-.464z"/><path d="M278.107 47.61c-2.403-3.215-5.949-6.181-11.185-8.849-10.488-5.319-27.737-9.413-56.121-11.782 3.529-6.96.082-18.875-5.667-23.167v-.199l4.59.348 8.699.795c5.12.514 9.842 1.094 14.183 1.757 13.82 2.038 23.844 4.69 31.135 7.838 13.637 5.883 17.68 13.87 18.873 22.653h-.017c-.563 3.878-1.756 7.59-4.175 11.003l-.083-.05c-.066-.116-.149-.232-.232-.348z"/></g><path d="M256.732 92.966c-1.143 11.119-4.225 27.392-12.344 39.009-24.689 35.314-73.255 37.816-77.199 38.611h-.033c-7.639.365-15.791.547-24.523.547-135.077 0-135.077-44.146-135.077-98.583l.282-.249c10.621 12.843 40.795 21.526 126.775 22.04v.182c34.995 5.85 92.542 5.204 122.119-1.558z" fill="#c6977b"/><path d="M256.732 92.966c-29.577 6.761-87.124 7.407-122.119 1.558v-.182l8.02.017c54.647 0 88.035-3.115 108.432-8.402 14.035-3.629 21.922-8.286 26.363-13.688l.281.282c0 50.907 0 92.833-110.52 98.036 3.944-.795 52.51-3.297 77.199-38.611 8.119-11.617 11.201-27.89 12.344-39.009zM7.158 48.488l-.315-.447.083-.05c.066-.116.149-.232.232-.348 2.883-3.861 7.407-7.374 14.499-10.39 12.825-5.518 34.051-9.495 69.212-11.385l16.039-.663 2.966-.099 9.097-.215c.215-.017.431-.017.646-.017l23.032-.199c15.443 0 29.196.249 41.441.729 7.423.282 14.3.663 20.663 1.11h.016l6.032.464c28.384 2.37 45.633 6.463 56.121 11.782 5.236 2.668 8.782 5.634 11.185 8.849.083.116.166.232.232.348l.083.05a3.85 3.85 0 0 1-.315.464c-4.292 5.75-12.262 10.722-27.009 14.55-20.414 5.286-53.818 8.402-108.482 8.402-94.133 0-125.218-9.23-135.458-22.935z" fill="#ad7766"/><g fill="#c6977b"><path d="M2.651 37.12c.597 3.861 1.756 7.507 4.192 10.921.099.149.199.298.315.447 10.24 13.705 41.325 22.935 135.458 22.935 54.664 0 88.068-3.115 108.482-8.402l.083.331c3.778 5.137 4.524 18.311-.116 22.603-20.397 5.286-53.785 8.402-108.432 8.402-2.734 0-5.402 0-8.02-.017-85.981-.514-116.154-9.197-126.775-22.04-5.717-6.943-5.717-15.097-5.717-23.83l.017-2.287.05-3.662c.066-1.839.199-3.646.447-5.402h.017z"/><path d="M6.843 48.041c-2.436-3.414-3.596-7.059-4.192-10.921h-.017c-.249 1.757-.381 3.563-.447 5.402.133-5.336.729-10.407 3.215-15.03 2.436-4.557 6.694-8.683 14.134-12.23 3.563-1.707 7.854-3.265 13.04-4.69C44.225 7.374 60.347 4.938 82.65 3.43c7.804-.53 16.387-.928 25.799-1.21 10.356-.315 21.723-.464 34.2-.464 17.531 0 32.875.298 46.313.911l3.479.166h.017l12.692.779v.199c5.733 4.292 9.18 16.207 5.651 23.167l-6.032-.464h-.016a641.07 641.07 0 0 0-20.663-1.11c-12.245-.48-25.998-.729-41.441-.729l-23.032.199c-.215 0-.431 0-.646.017l-9.097.215-2.966.1-16.039.663c-35.161 1.889-56.387 5.866-69.212 11.385-7.092 3.016-11.615 6.529-14.499 10.39a4.23 4.23 0 0 0-.232.348l-.083.05z"/></g><g stroke="#3f2a25" stroke-linecap="round" stroke-linejoin="round"><path d="M204.753 26.713h-.017m-19.337 43.964l-.016-.017m12.509-.481s-.033-.082-.066-.132m79.883 2.519c0 54.437 0 98.584-135.076 98.584S7.556 127.02 7.556 72.566m275.572-24.062c0 25.338 0 45.886-140.512 45.886S2.104 73.842 2.104 48.504"/><path d="M2.635 37.103v.05c.597 3.911 1.806 7.59 4.275 11.037.066.116.149.215.232.331 7.44 9.943 25.865 17.533 71.432 20.93 10.87.829 23.264 1.392 37.431 1.707l26.611.282 26.76-.282 16.007-.497 12.443-.613c52.096-3.049 72.377-10.97 80.264-21.559.083-.116.166-.215.232-.331 2.502-3.43 3.679-7.192 4.259-11.119M2.104 48.488l.033-4.193.033-1.574.464-5.618M192.441 3.032h-.016m-105.898 89.9h-.017m98.888-22.255h-.016"/><path d="M185.399 70.677l-.016-.017m-69.378.514v-.016m53.371 0l-.016.016m113.768-23.349c0-13.091 0-24.907-19.404-33.275-7.29-3.149-17.315-5.8-31.134-7.838-4.342-.663-9.064-1.243-14.184-1.757l-8.699-.795a591.09 591.09 0 0 0-17.266-1.127h-.016l-3.48-.166c-13.438-.613-28.782-.928-46.313-.928l-34.2.481c-9.411.282-17.994.679-25.799 1.21C60.33 5.137 44.208 7.573 32.56 10.771c-5.186 1.425-9.478 2.983-13.04 4.69-7.44 3.546-11.698 7.673-14.134 12.23-2.485 4.624-3.082 9.694-3.215 15.03l-.05 3.662v1.442m4.789.365c.066-.116.149-.232.232-.348 2.883-3.861 7.407-7.374 14.499-10.407 12.825-5.502 34.051-9.479 69.212-11.368l16.04-.663 2.966-.099 9.096-.215c.216-.017.431-.017.647-.017l23.032-.199c15.443 0 29.196.249 41.441.729 7.423.282 14.299.663 20.662 1.11 31.996 2.27 50.936 6.562 62.153 12.246 5.236 2.668 8.782 5.634 11.185 8.849.083.116.166.232.232.348"/></g></svg>