<?xml version="1.0" encoding="UTF-8"?><svg xmlns="http://www.w3.org/2000/svg" viewBox="0 0 299.74 239.48"><defs><style>.e{fill:#ad7766;}.f{fill:#c6977b;}.g{fill:#bc7171;}.h{stroke-width:2px;}.h,.i{fill:none;stroke:#3f2a25;stroke-linecap:round;stroke-linejoin:round;}</style></defs><g id="a"><path class="h" d="M65.54,143.11v.31c0,32.72,.26,59.86,81.52,59.86s81.52-27.22,81.52-59.87"/><path class="h" d="M65.54,143.42c-3.28-4.14-3.28-8.98-3.28-14.15"/><path class="h" d="M231.85,129.27c0,5.17,0,10-3.27,14.14"/><path class="h" d="M62.57,122.42v-.03"/><path class="h" d="M62.26,129.26c0-.85,0-1.7,.02-2.53,0-.32,.01-.64,.02-.95,.04-1.14,.12-2.26,.28-3.36v-.03"/><line class="h" x1="177.13" y1="101.83" x2="177.12" y2="101.83"/><path class="h" d="M231.86,128.86c0-7.9,0-15.03-11.71-20.08-4.4-1.9-10.45-3.5-18.79-4.73-2.62-.4-5.47-.75-8.56-1.06-1.67-.17-3.42-.33-5.25-.48-3.23-.26-6.7-.49-10.42-.68h-.01c-.69-.03-1.39-.07-2.1-.1-8.11-.37-17.37-.56-27.95-.56-7.53,0-14.39,.1-20.64,.29-5.68,.17-10.86,.41-15.57,.73-13.46,.91-23.19,2.38-30.22,4.31-3.13,.86-5.72,1.8-7.87,2.83-4.49,2.14-7.06,4.63-8.53,7.38-1.5,2.79-1.86,5.85-1.94,9.07-.02,.72-.03,1.46-.03,2.21v.87"/></g><g id="b"><g><path class="g" d="M62.28,128.29c-.01-.53,0-1.05,.01-1.56,0-.32,.01-.64,.02-.95,.04-1.14,.12-2.26,.27-3.36,.37,2.36,1.1,4.58,2.58,6.66,.05,.07,.1,.13,.15,.2,4.49,6,15.61,10.58,43.11,12.63h0c6.56,.5,14.04,.84,22.58,1.03,4.98,.11,10.34,.17,16.06,.17s11.15-.06,16.16-.17c3.38-.07,6.6-.17,9.66-.3,2.62-.1,5.12-.23,7.51-.37,31.43-1.84,43.67-6.62,48.43-13.01,.06-.07,.11-.13,.15-.2,1.51-2.07,2.22-4.34,2.57-6.71h.01c.31,2.24,.31,4.56,.31,6.92,0,5.26,0,10.17-3.44,14.36-6.58,7.99-25.71,13.33-81.35,13.33s-74.78-5.34-81.36-13.33c-3.44-4.19-3.44-9.1-3.44-14.36h0c0-.33,0-.66,.01-.98Z"/><path class="g" d="M220.16,108.78c8.21,3.54,10.66,8.31,11.39,13.57h-.01c-.35,2.37-1.06,4.64-2.57,6.71-.04-.07-.09-.14-.15-.21-1.44-1.94-3.58-3.73-6.74-5.34-3.38-1.71-7.94-3.22-14.05-4.47-6.12-1.24-13.81-2.24-23.47-2.92-3.84-.27-8-.5-12.48-.67-7.38-.29-15.68-.44-25-.44-4.92,0-9.54,.04-13.9,.12-.13,0-.26,0-.39,.01-1.89,.04-3.71,.08-5.49,.13-.61,.02-1.2,.04-1.8,.06-3.4,.11-6.62,.24-9.68,.4-21.21,1.14-34.02,3.54-41.76,6.86-4.28,1.83-7.01,3.95-8.75,6.28l-.15,.21c-1.48-2.08-2.21-4.3-2.58-6.66-.15,1.1-.23,2.22-.27,3.36,.08-3.22,.43-6.28,1.93-9.07,1.48-2.75,4.05-5.24,8.54-7.38,2.15-1.03,4.74-1.97,7.87-2.83,7.03-1.93,16.75-3.4,30.22-4.31,4.71-.32,9.89-.56,15.57-.73,6.25-.19,13.11-.29,20.64-.29,10.58,0,19.84,.19,27.95,.56,.71,.03,1.41,.07,2.1,.1h.01c3.72,.19,7.18,.42,10.42,.68,1.83,.15,3.58,.31,5.25,.48,3.09,.31,5.93,.66,8.56,1.06,8.34,1.23,14.39,2.83,18.79,4.73Z"/><path class="g" d="M228.82,128.85c.06,.07,.11,.14,.15,.21-.04,.07-.09,.13-.15,.2-4.76,6.39-17,11.17-48.43,13.01-2.39,.14-4.89,.27-7.51,.37-3.06,.13-6.28,.23-9.66,.3-5.01,.11-10.38,.17-16.16,.17s-11.08-.06-16.06-.17c-8.54-.19-16.02-.53-22.58-1.02h0c-27.5-2.06-38.62-6.64-43.11-12.64-.05-.07-.1-.13-.15-.2l.15-.21c1.74-2.33,4.47-4.45,8.75-6.28,7.74-3.32,20.55-5.72,41.76-6.86,3.06-.16,6.28-.29,9.68-.4,.6-.02,1.19-.04,1.8-.06,1.78-.05,3.6-.09,5.49-.13,.13-.01,.26-.01,.39-.01,4.36-.08,8.98-.12,13.9-.12,9.32,0,17.62,.15,25,.44,4.48,.17,8.64,.4,12.48,.67,9.66,.68,17.35,1.68,23.47,2.92,6.11,1.25,10.67,2.76,14.05,4.47,3.16,1.61,5.3,3.4,6.74,5.34Z"/><path class="g" d="M228.42,143.63l.17,.16c0,32.86,0,59.49-81.52,59.49s-81.52-26.63-81.52-59.49l.16-.16c6.58,7.99,25.71,13.33,81.36,13.33s74.77-5.34,81.35-13.33Z"/></g></g><g id="c"><g><path class="e" d="M229.03,128.97c1.46-2.06,2.18-4.3,2.52-6.64h.01c.31,2.24,.31,4.57,.31,6.92,0,5.26,0,10.17-3.44,14.36-2.68,3.26-7.44,6.07-15.91,8.26,2.8-2.59,2.35-10.54,.07-13.64l-.05-.2c8.9-2.31,13.71-5.31,16.3-8.78,.07-.09,.14-.19,.19-.28Z"/><path class="e" d="M228.84,128.73c-1.45-1.94-3.59-3.73-6.75-5.34-6.33-3.21-16.74-5.68-33.87-7.11,2.13-4.2,.05-11.39-3.42-13.98v-.12c.95,.07,1.87,.14,2.77,.21,1.83,.15,3.58,.31,5.25,.48,3.09,.31,5.94,.66,8.56,1.06,8.34,1.23,14.39,2.83,18.79,4.73,8.23,3.55,10.67,8.37,11.39,13.67h-.01c-.34,2.34-1.06,4.58-2.52,6.64l-.05-.03c-.04-.07-.09-.14-.14-.21Z"/><path class="f" d="M215.94,156.1c-.69,6.71-2.55,16.53-7.45,23.54-14.9,21.31-44.21,22.82-46.59,23.3h-.02c-4.61,.22-9.53,.33-14.8,.33-81.52,0-81.52-26.64-81.52-59.49l.17-.15c6.41,7.75,24.62,12.99,76.51,13.3v.11c21.12,3.53,55.85,3.14,73.7-.94Z"/><path class="e" d="M215.94,156.1c-17.85,4.08-52.58,4.47-73.7,.94v-.11c1.58,.01,3.19,.01,4.84,.01,32.98,0,53.13-1.88,65.44-5.07,8.47-2.19,13.23-5,15.91-8.26l.17,.17c0,30.72,0,56.02-66.7,59.16,2.38-.48,31.69-1.99,46.59-23.3,4.9-7.01,6.76-16.83,7.45-23.54Z"/><path class="e" d="M65.32,129.26c-.07-.09-.13-.18-.19-.27l.05-.03c.04-.07,.09-.14,.14-.21,1.74-2.33,4.47-4.45,8.75-6.27,7.74-3.33,20.55-5.73,41.77-6.87,3.05-.16,6.27-.29,9.68-.4,.59-.02,1.18-.04,1.79-.06,1.78-.05,3.61-.09,5.49-.13,.13-.01,.26-.01,.39-.01,4.36-.08,8.99-.12,13.9-.12,9.32,0,17.62,.15,25.01,.44,4.48,.17,8.63,.4,12.47,.67h.01c1.25,.09,2.46,.18,3.64,.28,17.13,1.43,27.54,3.9,33.87,7.11,3.16,1.61,5.3,3.4,6.75,5.34,.05,.07,.1,.14,.14,.21l.05,.03c-.05,.09-.12,.19-.19,.28-2.59,3.47-7.4,6.47-16.3,8.78-12.32,3.19-32.48,5.07-65.47,5.07-56.81,0-75.57-5.57-81.75-13.84Z"/><path class="f" d="M62.6,122.4c.36,2.33,1.06,4.53,2.53,6.59,.06,.09,.12,.18,.19,.27,6.18,8.27,24.94,13.84,81.75,13.84,32.99,0,53.15-1.88,65.47-5.07l.05,.2c2.28,3.1,2.73,11.05-.07,13.64-12.31,3.19-32.46,5.07-65.44,5.07-1.65,0-3.26,0-4.84-.01-51.89-.31-70.1-5.55-76.51-13.3-3.45-4.19-3.45-9.11-3.45-14.38,0-.46,0-.92,.01-1.38,0-.74,.01-1.48,.03-2.21,.04-1.11,.12-2.2,.27-3.26h.01Z"/><path class="f" d="M65.13,128.99c-1.47-2.06-2.17-4.26-2.53-6.59h-.01c-.15,1.06-.23,2.15-.27,3.26,.08-3.22,.44-6.28,1.94-9.07,1.47-2.75,4.04-5.24,8.53-7.38,2.15-1.03,4.74-1.97,7.87-2.83,7.03-1.93,16.76-3.4,30.22-4.31,4.71-.32,9.89-.56,15.57-.73,6.25-.19,13.11-.28,20.64-.28,10.58,0,19.84,.18,27.95,.55,.71,.03,1.41,.07,2.1,.1h.01c2.68,.14,5.24,.29,7.66,.47v.12c3.46,2.59,5.54,9.78,3.41,13.98-1.18-.1-2.39-.19-3.64-.28h-.01c-3.84-.27-7.99-.5-12.47-.67-7.39-.29-15.69-.44-25.01-.44-4.91,0-9.54,.04-13.9,.12-.13,0-.26,0-.39,.01-1.88,.04-3.71,.08-5.49,.13-.61,.02-1.2,.04-1.79,.06-3.41,.11-6.63,.24-9.68,.4-21.22,1.14-34.03,3.54-41.77,6.87-4.28,1.82-7.01,3.94-8.75,6.27-.05,.07-.1,.14-.14,.21l-.05,.03Z"/></g></g><g id="d"><line class="i" x1="184.57" y1="116.12" x2="184.56" y2="116.12"/><line class="i" x1="172.89" y1="142.65" x2="172.88" y2="142.64"/><path class="i" d="M180.43,142.35s-.02-.05-.04-.08"/><path class="i" d="M228.6,143.79c0,32.85,0,59.49-81.52,59.49s-81.52-26.63-81.52-59.49"/><path class="i" d="M231.87,129.27c0,15.29,0,27.69-84.8,27.69s-84.8-12.4-84.8-27.69"/><path class="i" d="M62.59,122.39v.03c.36,2.36,1.09,4.58,2.58,6.66,.04,.07,.09,.13,.14,.2,4.49,6,15.61,10.58,43.11,12.63h0c6.56,.5,14.04,.84,22.59,1.03,4.98,.11,10.33,.17,16.06,.17s11.14-.06,16.15-.17c3.38-.07,6.6-.17,9.66-.3,2.62-.1,5.12-.23,7.51-.37,31.44-1.84,43.68-6.62,48.44-13.01,.05-.07,.1-.13,.14-.2,1.51-2.07,2.22-4.34,2.57-6.71h0"/><path class="i" d="M62.27,129.26c0-.85,0-1.7,.02-2.53,0-.32,.01-.64,.02-.95,.04-1.14,.12-2.26,.28-3.36v-.03"/><line class="i" x1="177.14" y1="101.83" x2="177.13" y2="101.83"/><path class="i" d="M113.22,156.08h-.01m-4.79-14.16h0m64.47,.73h-.01"/><line class="i" x1="172.89" y1="142.65" x2="172.88" y2="142.64"/><line class="i" x1="131.01" y1="142.95" x2="131.01" y2="142.94"/><line class="i" x1="163.22" y1="142.94" x2="163.21" y2="142.95"/><path class="i" d="M231.87,128.86c0-7.9,0-15.03-11.71-20.08-4.4-1.9-10.45-3.5-18.79-4.73-2.62-.4-5.47-.75-8.56-1.06-1.67-.17-3.42-.33-5.25-.48-3.23-.26-6.7-.49-10.42-.68h-.01c-.69-.03-1.39-.07-2.1-.1-8.11-.37-17.37-.56-27.95-.56-7.53,0-14.39,.1-20.64,.29-5.68,.17-10.86,.41-15.57,.73-13.46,.91-23.19,2.38-30.22,4.31-3.13,.86-5.72,1.8-7.87,2.83-4.49,2.14-7.06,4.63-8.53,7.38-1.5,2.79-1.86,5.85-1.94,9.07-.02,.72-.03,1.46-.03,2.21v.87"/><path class="i" d="M65.17,129.08c.04-.07,.09-.14,.14-.21,1.74-2.33,4.47-4.45,8.75-6.28,7.74-3.32,20.55-5.72,41.77-6.86,3.05-.16,6.27-.29,9.68-.4,.59-.02,1.18-.04,1.79-.06,1.78-.05,3.61-.09,5.49-.13,.13-.01,.26-.01,.39-.01,4.36-.08,8.99-.12,13.9-.12,9.32,0,17.62,.15,25.01,.44,4.48,.17,8.63,.4,12.47,.67h0c19.31,1.37,30.74,3.96,37.51,7.39,3.16,1.61,5.3,3.4,6.75,5.34,.05,.07,.1,.14,.14,.21"/></g></svg>