<svg xmlns="http://www.w3.org/2000/svg" width="431" height="436" fill="none" xmlns:v="https://vecta.io/nano"><style><![CDATA[.B{fill:#b27967}.C{stroke-linecap:round}.D{fill:#935d51}.E{fill:#eaa0a0}.F{fill:#fcb9b9}.G{stroke-linejoin:round}]]></style><g stroke="#3f2a25" stroke-width="3" class="C G"><path d="M180.224 221.067c10.477-3.399 22.28-5.305 35.591-5.405 12.084-.082 22.329 1.41 32.242 4.41m39.901 24.237c25.727 25.945 38.209 65.4 43.763 100.645.281 1.691.53 3.382.762 5.056 6.797 48.275-56.693 82.89-116.668 82.89-52.881 0-108.96-20.391-117-61.073-1.078-5.454-1.293-11.29-.514-17.49l.879-6.548c5.006-35.063 15.598-74.883 41.011-101.573m107.866-26.144c13.809-22.496 30.734-65.748 41.907-117.19 13.709-63.095 46.183-99.102 62.859-96.748 22.363 3.15 49.831 86.819 17.257 150.378-23.622 46.07-65.777 71.468-82.106 87.814"/><path d="M140.191 246.216c-14.886-17.838-54.124-47.082-73.154-94.942C40.646 84.912 75.939 4.227 98.5 3.216c16.825-.746 45.735 38.196 53.377 102.303 6.167 51.773 16.843 91.759 28.347 115.548M99.18 347.788c-29.656-11.969-68.761-13.892-95.632-7.244m19.544 43.318c26.457-9.333 53.278-13.892 75.723-12.035m232.906-26.873c29.656-11.97 68.529-13.793 95.4-7.145m-19.544 43.318c-26.457-9.334-53.278-13.892-75.723-12.036"/></g><g fill="#bc7171"><path d="M274.447 232.572c-7.857-5.554-16.693-9.98-26.606-12.964 13.809-22.496 30.734-65.748 41.907-117.189 13.709-63.096 46.183-99.103 62.859-96.766 22.363 3.15 49.831 86.819 17.257 150.379-23.622 46.07-65.777 71.467-82.122 87.813-4.078-4.128-8.504-7.908-13.295-11.273z"/><path d="M209.615 384.078l-.994.066c-5.388.166-10.693-.663-15.317-.878-5.305-.266-9.715.281-12.317 4.011-7.476 10.677 17.588 18.485 35.441 16.728 22.744-2.255 45.67-21.834 35.922-31.863-6.415-6.598-13.112-2.752-20.92 2.287-5.52 3.565-11.603 7.742-18.516 9.185-1.077.232-2.172.398-3.299.464zm122.653-34.532c6.796 48.275-56.677 82.89-116.669 82.89-52.897 0-108.976-20.391-116.999-61.09-1.078-5.471-1.293-11.29-.514-17.49 4.591-36.421 14.819-79.474 41.641-107.839 4.111-4.344 8.603-8.356 13.543-11.936 7.758-5.637 16.561-10.212 26.606-13.462 10.51-3.398 22.362-5.321 35.723-5.421 11.853-.099 22.562 1.476 32.243 4.41 9.913 2.984 18.748 7.41 26.606 12.964 4.79 3.365 9.216 7.145 13.294 11.273 25.744 25.961 38.227 65.45 43.78 100.711l.746 4.99zm-91.14-56.498c2.055 2.57 16.908-3.846 16.444-7.294-.248-1.923-5.304-3.515-9.482-2.238-5.487 1.674-8.222 7.941-6.962 9.532zm-32.64 75.248c6.233-.382 10.228-4.294 8.852-7.742-1.061-2.62-15.997-.597-17.422 1.144-1.525 1.889 3.73 6.896 8.57 6.598zm-26.407-71.219c2.288-1.592 1.989-10.461-3.945-13.196-4.111-1.89-9.632-.266-10.328 2.238-1.177 4.277 11.074 13.196 14.273 10.958zm-7.178 55.254c2.719-7.874-3.315-23.972-12.035-34.747 0 0-.016 0-.016-.017-4.493-5.537-9.681-9.681-14.77-10.56-13.328-2.304-31.132 23.375-24.252 39.273 3.448 7.991 15.284 12.4 26.738 13.345h.017c11.355.945 22.329-1.525 24.318-7.294z"/><path d="M257.572 285.754c.464 3.448-14.389 9.864-16.444 7.294-1.26-1.591 1.475-7.858 6.962-9.532 4.177-1.277 9.233.315 9.482 2.238zm-5.222 86.388c9.748 10.029-13.178 29.608-35.922 31.863-17.853 1.757-42.917-6.051-35.441-16.728 2.602-3.73 7.012-4.277 12.316-4.012v.365c4.675 11.969 13.792 16.595 21.932 15.368 9.299-1.359 17.339-10.295 16.195-24.569 7.808-5.039 14.505-8.885 20.92-2.287z"/><path d="M231.43 374.429c1.144 14.274-6.896 23.209-16.195 24.569l-.033-.216c.729-3.034.281-10.742-2.288-15.152 6.913-1.459 12.996-5.637 18.516-9.201zm-14.09-13.875c1.376 3.448-2.619 7.36-8.852 7.741-4.841.299-10.096-4.708-8.571-6.598 1.426-1.74 16.362-3.763 17.423-1.143z"/><path d="M212.914 383.63c2.569 4.41 3.017 12.118 2.287 15.152l.033.216c-8.139 1.226-17.256-3.399-21.947-15.368v-.365c4.641.216 9.946 1.045 15.333.879l.995-.05c1.127-.083 2.221-.249 3.299-.481v.017zm-34.779-99.75c5.935 2.736 6.233 11.605 3.946 13.196-3.2 2.238-15.45-6.68-14.273-10.958.696-2.503 6.216-4.128 10.327-2.238zm-15.267 33.704c8.72 10.775 14.754 26.872 12.035 34.747-1.989 5.769-12.963 8.239-24.318 7.294h-.017c-29.192-6.299-2.503-52.585 12.284-42.058 0 .016.016.017.016.017zm-9.598-83.504c-4.94 3.581-9.432 7.593-13.543 11.936-14.721-17.821-53.776-47.114-72.906-95.223C40.431 84.431 75.723 3.763 98.284 2.752c16.826-.763 45.736 38.179 53.378 102.286 6.233 52.27 16.61 91.875 28.214 115.581-10.046 3.249-18.848 7.825-26.606 13.461z"/><path d="M162.852 317.567c-14.787-10.527-41.476 35.759-12.284 42.058-11.455-.945-23.291-5.354-26.739-13.345-6.879-15.898 10.925-41.577 24.253-39.273 5.089.879 10.277 5.023 14.77 10.56z"/></g><path d="M363.466 13.18c18.864 21.866 34.082 89.753 6.614 143.333-23.622 46.07-65.777 71.467-82.122 87.796-.033-.049-.083-.099-.116-.132 16.328-16.346 58.5-41.743 82.105-87.814 27.419-53.463 12.334-121.168-6.481-143.183z" class="B"/><path d="M363.466 13.18c18.815 22.016 33.9 89.72 6.481 143.183-23.605 46.071-65.777 71.468-82.105 87.814-.348-.348-.696-.696-1.045-1.011a22.06 22.06 0 0 0-.878-.879c-3.498-3.349-7.228-6.465-11.223-9.284 3.399-4.343 7.609-10.162 11.836-17.34 19.345-2.818 29.905-9.3 49.499-35.245 20.323-26.906 52.88-73.639 25.893-168.913a30.75 30.75 0 0 1 1.542 1.674z" class="E"/><path d="M361.924 11.506c26.987 95.274-5.57 142.007-25.893 168.913-19.594 25.945-30.154 32.427-49.499 35.245 8.935-15.202 17.837-36.571 18.832-63.311 1.375-36.737 6.017-66.096 13.874-94.76 5.239-16.329 17.837-45.672 33.585-51.458 2.57.365 5.205 1.79 7.825 4.128a17.84 17.84 0 0 1 1.276 1.243z" class="F"/><g class="B"><path d="M360.647 10.262c-2.619-2.337-5.254-3.763-7.824-4.128-16.676-2.354-49.15 33.67-62.86 96.749a561.13 561.13 0 0 1-11.206 43.218c-1.326 3.714-2.685 7.991-3.995 12.6-8.703 26.209-18.251 47.578-26.655 61.288-.05-.016-.116-.033-.166-.049 13.808-22.497 30.717-65.748 41.906-117.19C303.54 39.655 336.031 3.647 352.69 6.001c2.62.365 5.305 1.84 7.957 4.261z"/><path d="M281.194 223.802l-.663-.464c-18.715-1.558-13.261-38.394-5.769-64.637l3.995-12.583a563.65 563.65 0 0 0 11.206-43.235c13.71-63.079 46.184-99.103 62.86-96.749-15.748 5.786-28.346 35.129-33.585 51.458-7.857 28.663-12.499 58.023-13.875 94.76-.994 26.74-9.896 48.109-18.831 63.311-4.227 7.178-8.438 12.997-11.836 17.34l-.149-.099a165.09 165.09 0 0 0 6.647-9.102zm51.29 126.225c6.796 48.258-56.677 82.89-116.669 82.89-1.707 0-3.415-.017-5.122-.067l1.243-.116 3.763.033c59.975 0 123.465-34.614 116.668-82.889l-.746-4.99c.034-.017.05-.017.083-.034.017.067.034.117.034.183l.746 4.99z"/></g><path d="M248.057 220.072a91.53 91.53 0 0 1 26.606 12.964c3.995 2.819 7.742 5.919 11.256 9.251a22.71 22.71 0 0 1 .878.878c.398.365.78.763 1.161 1.144l.182.183c2.752 2.785 5.354 5.736 7.808 8.819 20.323 25.563 30.733 60.244 35.673 91.577l.746 4.99c6.797 48.275-56.693 82.889-116.668 82.889a280.14 280.14 0 0 1-3.763-.033c38.823-3.879 79.801-21.087 97.837-56.05 13.262-25.729 14.322-69.76-18.384-113.244-12.283-16.346-37.447-38.775-70.385-47.711 9.813.348 18.814 1.84 27.053 4.343z" class="D"/><g class="B"><path d="M331.704 344.855s-.05.017-.083.033c-4.94-31.332-15.35-66.013-35.673-91.576 20.373 25.513 30.816 60.177 35.756 91.543zM209.715 384.41l-.995.066c-11.554.365-22.76-3.863-27.65 3.133-2.056 2.934-1.641 5.653.414 8.024.315.381.68.746 1.078 1.111.215.199.464.414.713.596 6.63 5.289 21.566 8.306 33.369 7.129 22.362-2.205 44.89-21.153 36.386-31.349-.149-.166-.298-.348-.464-.514-.033-.05-.066-.083-.116-.132-11.654-11.986-24.235 10.493-42.603 11.936-.049 0-.083.016-.132 0zm-.962-15.633c6.2-.415 10.179-4.327 8.803-7.759a1.12 1.12 0 0 0-.216-.298c-.05-.05-.083-.116-.149-.149-2.138-2.122-15.814-.199-17.174 1.475-.53.647-.248 1.691.58 2.735a1.45 1.45 0 0 0 .282.365c.133.149.265.298.431.464.149.166.315.332.514.481 1.028.945 2.387 1.774 3.863 2.255.978.331 2.005.497 3.017.431h.049zm-58.085-8.704c10.012.862 19.726-.928 23.323-5.288.514-.614.879-1.277 1.128-1.973 2.884-8.322-3.995-25.779-13.494-36.488a49.66 49.66 0 0 0-2.205-2.321c-3.58-3.514-7.443-5.985-11.239-6.648-13.328-2.321-31.131 23.375-24.252 39.274a13.8 13.8 0 0 0 1.492 2.569 15.79 15.79 0 0 0 1.774 2.056c5.155 5.139 14.405 8.057 23.44 8.819h.033zm140.721-96.633c32.707 43.484 31.646 87.515 18.384 113.244-18.036 34.963-59.014 52.171-97.837 56.05-37.132-.679-75.243-11.356-96.71-32.012-1.558-1.508-3.017-3.05-4.376-4.641l-1.326-1.609c-8.769-11.024-13.195-24.402-11.206-40.135l.879-6.548c4.973-34.93 15.516-74.617 40.746-101.291 4.112-4.36 8.604-8.356 13.544-11.936 1.442-1.045 2.917-2.056 4.426-3.018a3.12 3.12 0 0 0 .696-.447c6.465-4.078 13.593-7.46 21.484-9.997 10.51-3.415 22.362-5.338 35.723-5.437 1.757-.017 3.481 0 5.189.066 32.938 8.936 58.102 31.366 70.385 47.711zm-49.863 30.222c2.553 2.139 16.709-4.078 16.262-7.444-.033-.315-.216-.613-.497-.911a.39.39 0 0 0-.117-.116c-1.375-1.459-5.486-2.404-8.984-1.343-5.504 1.674-8.239 7.941-6.963 9.549.034.049.067.083.116.099.05.083.117.116.183.166zm-59.229 3.896c1.956-1.36 2.022-7.941-1.625-11.572 0-.016 0-.033-.033-.049-.663-.68-1.459-1.277-2.404-1.708-4.111-1.906-9.648-.282-10.327 2.222-.282 1.027.199 2.304 1.16 3.647.265.398.597.795.945 1.193 3.398 3.929 10.046 7.825 12.284 6.267zm105.843-53.066l-.182-.182s.132.116.182.182z"/><path d="M287.842 244.177a1.28 1.28 0 0 0 .116.132l-1.161-1.143 1.045 1.011z"/></g><path d="M280.531 223.339l.663.464a165.03 165.03 0 0 1-6.647 9.101 91.71 91.71 0 0 0-26.44-12.914c8.404-13.71 17.953-35.079 26.656-61.289-7.493 26.243-12.947 63.079 5.768 64.638z" class="D"/><g class="B"><path d="M274.696 233.003c3.995 2.819 7.725 5.935 11.223 9.284-3.515-3.332-7.261-6.432-11.256-9.25l.033-.034zm4.062-86.885l-3.995 12.583c1.309-4.609 2.669-8.886 3.995-12.583z"/><path d="M274.696 233.003l-.033.034c-7.857-5.554-16.693-9.98-26.606-12.964.033-.034.05-.05.05-.083a91.68 91.68 0 0 1 26.44 12.914l.149.099zm-16.908 53.215c.447 3.366-13.709 9.582-16.262 7.444 2.917 1.79 16.593-4.261 16.146-7.576-.033-.265-.166-.531-.381-.779.281.298.464.596.497.911z"/></g><path d="M257.672 286.086c.447 3.315-13.229 9.366-16.146 7.576-.067-.05-.133-.083-.183-.166-1.226-1.641 1.509-7.841 6.979-9.499 3.382-1.045 7.36-.183 8.852 1.193.05.034.1.083.116.117.216.248.348.513.382.779z" fill="#eab5a7"/><path d="M216.528 404.336c22.263-2.188 44.691-20.987 36.502-31.216 8.504 10.196-14.024 29.144-36.386 31.349-11.803 1.177-26.739-1.84-33.37-7.129 6.068 4.675 18.749 7.56 29.789 7.195 1.177-.016 2.337-.083 3.465-.199z" class="B"/><path d="M253.03 373.12c8.189 10.229-14.239 29.028-36.502 31.216a39.11 39.11 0 0 1-3.465.199l-.116-4.857c10.295 0 19.942-9.217 18.699-24.751 7.808-5.056 14.505-8.936 20.92-2.321.166.166.315.348.464.514z" fill="#472b28"/><g class="B"><path d="M231.546 374.994c-5.503 3.547-11.537 7.675-18.416 9.101 0 0-.012.005-.034.016-1.376.282-2.801.465-4.243.514-5.438.166-10.792-.679-15.45-.895-5.238-.249-9.615.315-12.201 4.012-2.022 2.885-1.657 5.57.282 7.891-2.055-2.371-2.47-5.089-.414-8.024 4.89-6.996 16.096-2.768 27.65-3.133l.995-.05s.083-.016.132-.016c18.368-1.443 30.949-23.922 42.603-11.936.05.049.083.083.116.132-6.415-6.614-13.112-2.735-20.92 2.305 0 0-.066.049-.1.083zm25.628-89.803c-1.492-1.376-5.47-2.238-8.852-1.194-5.47 1.658-8.205 7.858-6.979 9.5-.049-.017-.083-.05-.116-.1-1.276-1.608 1.459-7.874 6.963-9.549 3.497-1.061 7.608-.116 8.984 1.343zm-9.067-65.201s-.017.05-.05.083c-8.239-2.504-17.24-3.996-27.053-4.344l-.547-.149c9.979.315 19.113 1.824 27.484 4.36.05.017.116.033.166.05z"/><path d="M231.646 374.927c1.243 15.534-8.405 24.751-18.699 24.751-4.244 0-8.587-1.558-12.317-4.907 4.493 3.929 9.83 5.338 14.804 4.576 9.2-1.426 17.157-10.262 16.112-24.353.033-.034.067-.05.1-.067z"/></g><path d="M231.546 374.994c1.045 14.091-6.912 22.927-16.112 24.353v-.083c.712-3.034.281-10.743-2.305-15.169 6.88-1.426 12.914-5.554 18.417-9.101z" fill="#ead0d0"/><path d="M220.457 215.58l.547.149-5.189-.066c-13.361.099-25.214 2.022-35.723 5.437-.017-.049-.05-.099-.067-.149 10.494-3.398 22.329-5.321 35.674-5.421 1.608-.016 3.199 0 4.758.05zm-11.704 153.197h-.049c-1.012.066-2.039-.1-3.017-.431.082 0 .165-.017.248-.034.862.249 1.757.365 2.636.315 6.233-.381 10.244-4.293 8.852-7.741a.78.78 0 0 0-.083-.166 1.12 1.12 0 0 1 .216.298c1.375 3.432-2.603 7.344-8.803 7.759z" class="B"/><path d="M217.423 360.886c1.392 3.448-2.619 7.36-8.852 7.742-.879.049-1.774-.067-2.636-.315 5.935-.398 9.565-6.449 8.504-8.472 1.227.1 2.221.332 2.752.73.066.033.099.099.149.149.033.05.066.116.083.166z" class="E"/><path d="M197.265 391.074c-1.492-1.989-2.801-4.36-3.879-7.112v-.232c4.675.215 10.029 1.061 15.467.895a25.6 25.6 0 0 0 4.243-.514s.011-.005.033-.016c2.586 4.426 3.017 12.135 2.288 15.169v.082c-4.957.763-10.294-.646-14.787-4.575-.199-.182-.397-.381-.613-.564a18.94 18.94 0 0 1-.597-.58 25.41 25.41 0 0 1-2.155-2.553z" fill="#fff"/><path d="M217.191 360.571c-.531-.398-1.525-.63-2.752-.73-4.741-.398-13.245 1.045-14.306 2.338-.514.63-.265 1.591.464 2.602-.829-1.044-1.111-2.088-.58-2.735 1.359-1.674 15.035-3.597 17.174-1.475z" class="B"/><path d="M214.439 359.841c1.061 2.023-2.57 8.074-8.504 8.472-1.542-.431-3-1.277-4.111-2.222-.182-.149-.348-.315-.514-.481-.149-.149-.298-.298-.431-.464-.116-.116-.216-.232-.282-.365-.729-1.011-.978-1.972-.464-2.602 1.061-1.293 9.565-2.736 14.306-2.338z" class="F"/><path d="M212.947 399.678l.116 4.857c-11.04.365-23.721-2.52-29.789-7.195-.248-.199-.48-.397-.712-.596-.398-.365-.763-.73-1.078-1.111-1.939-2.321-2.304-5.007-.282-7.891 2.586-3.697 6.963-4.261 12.201-4.012v.232c1.061 2.752 2.37 5.123 3.862 7.112a25.41 25.41 0 0 0 2.155 2.553l.597.58c.216.183.415.381.613.564 3.73 3.349 8.073 4.907 12.317 4.907z" fill="#472b28"/><g class="B"><path d="M211.936 432.735l-1.243.116c-36.768-.912-74.298-11.638-95.467-32.128 21.467 20.656 59.578 31.332 96.71 32.012zm-6.001-64.423a1.24 1.24 0 0 1-.248.033 10.74 10.74 0 0 1-3.863-2.254c1.111.945 2.57 1.79 4.111 2.221z"/><path d="M201.31 365.61l.514.481c-.199-.149-.365-.315-.514-.481z"/><path d="M200.879 365.146c.133.166.282.315.431.464l-.431-.464zm-18.317 31.598l.712.596c-.248-.182-.497-.397-.712-.596zm-1.89-110.758c3.647 3.631 3.58 10.212 1.624 11.572-2.238 1.558-8.885-2.338-12.283-6.267 3.448 3.896 9.962 7.659 12.151 6.134 1.923-1.343 2.039-7.775-1.492-11.439z"/></g><path d="M180.672 285.986c3.531 3.664 3.415 10.096 1.492 11.439-2.188 1.525-8.703-2.238-12.151-6.134-.348-.398-.68-.796-.945-1.193-.878-1.277-1.309-2.52-1.044-3.498.696-2.52 6.216-4.128 10.327-2.238.879.414 1.641.945 2.288 1.575.016.016.033.033.033.049z" fill="#eab5a7"/><path d="M180.025 220.951l.067.149c-7.891 2.537-15.019 5.919-21.484 9.997a3.61 3.61 0 0 0 .481-.514c6.315-3.912 13.278-7.178 20.936-9.632zm.614 64.986c-.647-.63-1.409-1.161-2.288-1.575-4.111-1.89-9.631-.282-10.327 2.238-.266.978.165 2.221 1.044 3.498-.961-1.343-1.442-2.619-1.16-3.647.679-2.504 6.216-4.128 10.327-2.222.945.431 1.741 1.028 2.404 1.708zm-19.014 30.387c9.499 10.71 16.378 28.166 13.494 36.488a6.12 6.12 0 0 1-1.128 1.956l-.049-.215c.464-.58.829-1.21 1.061-1.873 2.718-7.858-3.266-23.839-11.919-34.615h-.017l-.099-.149c-.431-.547-.879-1.061-1.326-1.575l-.017-.017z" class="B"/><path d="M163.084 318.065c8.653 10.776 14.637 26.757 11.919 34.615-.232.663-.597 1.293-1.061 1.873-3.001-17.125-15.599-27.039-28.728-29.757 5.288-6.764 12.383-10.643 17.853-6.748h.017v.017z" fill="#6b3d34"/><path d="M173.942 354.553l.049.215c-3.597 4.377-13.311 6.167-23.323 5.305h-.033l-.829-.199c.281.033.563.067.845.083h.017c10.045.846 19.776-.978 23.274-5.404z" class="B"/><path d="M130.692 33.803l-.132-.298c9.498 17.49 17.737 41.992 21.317 72.015 6.233 52.171 16.561 91.693 28.148 115.432-7.658 2.454-14.621 5.72-20.937 9.632 5.968-7.642-8.686-48.706-11.819-119.378-.729-16.545-5.868-52.336-16.577-77.402z" class="D"/><path d="M162.967 317.916l.1.132c-5.47-3.896-12.565 0-17.853 6.748l-.199-.05c5.304-6.814 12.449-10.743 17.936-6.847l.016.017z" class="B"/><path d="M161.625 316.324l1.326 1.575c-5.487-3.896-12.632.033-17.936 6.847-6.863-1.376-13.875-.796-19.71 1.74 4.741-11.09 14.737-20.424 23.008-18.998 3.747.647 7.56 3.067 11.107 6.515a50.19 50.19 0 0 1 2.205 2.321z" fill="#ead0d0"/><g class="B"><path d="M147.27 111.205c3.133 70.672 17.787 111.735 11.819 119.378-1.956 1.21-3.863 2.487-5.703 3.829-9.25-14.538-23.837-41.892-21.533-81.132 1.525-26.326 1.011-49.038-1.293-70.589v-.033a372.21 372.21 0 0 0-3.514-25.016c-3.05-16.876-12.914-46.601-27.75-54.409 4.907.116 10.775 3.481 16.809 9.731a1.11 1.11 0 0 1 .133.149c.646.68 1.309 1.393 1.956 2.138a73.72 73.72 0 0 1 3.216 3.946c.862 1.111 1.707 2.288 2.569 3.531l1.939 2.918a.63.63 0 0 0 .116.166c1.575 2.47 3.134 5.139 4.659 7.974 10.708 25.082 15.847 60.874 16.577 77.419z"/><path d="M159.089 230.583c-.149.199-.315.365-.481.514-.232.133-.464.282-.696.448l-4.426 3.017-.1-.149 5.703-3.83z"/><path d="M157.912 231.544l.696-.447c-.216.182-.448.331-.696.447z"/></g><path d="M173.941 354.553c-3.497 4.426-13.228 6.25-23.274 5.404h-.016c-4.443-.961-7.592-2.851-9.681-5.321-.149-.166-.282-.332-.398-.498-5.818-7.841-2.022-20.855 4.642-29.343 13.129 2.719 25.727 12.633 28.727 29.758z" fill="#7f4d40"/><g class="B"><path d="M153.386 234.413l.1.149c-4.94 3.581-9.433 7.576-13.544 11.936-.033-.05-.066-.083-.116-.133 4.111-4.36 8.62-8.372 13.544-11.952h.016z"/><path d="M153.386 234.412h-.017c-9.249-14.505-23.937-41.892-21.649-81.265 1.492-25.464 1.044-47.545-1.061-68.45v-.066c-.017-.68-.05-1.326-.099-1.94 2.304 21.551 2.818 44.263 1.293 70.589-2.305 39.24 12.283 66.593 21.533 81.132zm-2.735 125.545l-.845-.083c-4.028-1.028-6.896-2.884-8.836-5.238 2.089 2.47 5.239 4.36 9.681 5.321z"/><path d="M149.806 359.874l.829.199c-9.035-.762-18.285-3.68-23.44-8.819 5.056 4.924 13.891 7.775 22.611 8.62zm9.614-45.871c-3.547-3.448-7.36-5.868-11.106-6.515-8.272-1.426-18.268 7.908-23.009 18.998h-.017c-2.901 6.797-3.862 14.241-1.243 20.275.365.846.829 1.658 1.376 2.437a13.8 13.8 0 0 1-1.492-2.569c-6.879-15.899 10.924-41.594 24.252-39.273 3.796.663 7.659 3.133 11.239 6.647zm-14.405 10.743l.199.049c-6.664 8.488-10.46 21.502-4.642 29.343-5.967-7.808-2.204-20.855 4.443-29.392z"/></g><path d="M140.97 354.636c1.94 2.354 4.807 4.211 8.836 5.239-8.72-.846-17.555-3.697-22.611-8.621a15.79 15.79 0 0 1-1.774-2.056c-.547-.779-1.011-1.591-1.376-2.437-2.619-6.034-1.658-13.477 1.243-20.274h.017c5.835-2.537 12.847-3.117 19.71-1.741-6.648 8.538-10.41 21.584-4.443 29.393a5.38 5.38 0 0 0 .398.497z" fill="#fff"/><path d="M153.37 234.412c-4.924 3.581-9.433 7.593-13.544 11.936-.414-.514-.862-1.027-1.326-1.558l-1.774-1.989c3.2-6.366-6.481-42.175-8.719-49.999-7.741-27.238 3.332-85.791 2.652-108.105 2.106 20.905 2.553 42.986 1.061 68.45-2.287 39.373 12.4 66.76 21.65 81.265z" class="E"/><path d="M139.826 246.365s.083.083.116.133c-25.23 26.674-35.773 66.361-40.746 101.291-.05-.016-.083-.033-.133-.05-.017-.033 0-.049 0-.082 4.974-34.93 15.532-74.618 40.762-101.292zm-1.326-1.575l-1.773-1.989 1.773 1.989z" class="B"/><path d="M130.659 84.631v.066c.68 22.314-10.394 80.867-2.652 108.105 2.238 7.825 11.919 43.633 8.719 49.999l-.779-.845c-.514-.564-1.061-1.128-1.641-1.725-1.807-1.906-3.813-3.945-5.968-6.084l-1.077-1.077-3.365-3.349-2.338-2.321c-.397-.414-.795-.812-1.193-1.193l-8.836-9.069-2.47-2.619-6.663-7.377c-1.708-1.956-3.432-3.979-5.139-6.068-.05-.033-.083-.083-.116-.132a234.79 234.79 0 0 1-5.106-6.433c-9.482-12.383-18.417-26.69-24.998-43.235C40.647 84.913 75.939 4.244 98.517 3.233a6.11 6.11 0 0 1 .779 0c14.836 7.808 24.699 37.532 27.749 54.409 1.443 8.256 2.62 16.545 3.515 25.016v.033a34.59 34.59 0 0 1 .099 1.94z" class="F"/><g class="B"><path d="M135.947 241.956l-1.641-1.725 1.641 1.725zM130.56 33.504l.132.282-4.658-7.974 4.526 7.676v.017zm-4.641-7.858l-1.94-2.918 1.94 2.918z"/><path d="M121.409 19.198l2.57 3.531-2.57-3.531zm.15 208.202l-1.194-1.193 1.194 1.193zm-3.366-212.148l-1.956-2.138 1.956 2.138zm-8.669 379.221l1.326 1.608-1.326-1.608zm2.006-177.335l-2.47-2.619 2.47 2.619z"/><path d="M99.296 3.233a6.11 6.11 0 0 0-.779 0c-22.578 1.011-57.87 81.68-31.479 148.041 6.581 16.545 15.516 30.852 24.998 43.235-9.548-12.417-18.516-26.79-25.114-43.368C40.531 84.78 75.823 4.095 98.384 3.084c5.106-.232 11.322 3.2 17.721 9.881-6.034-6.25-11.902-9.615-16.809-9.731zm-.564 368.594s0-.083-.033-.133c-1.078-5.47-1.293-11.306-.514-17.506l.879-6.449c.05.017.083.033.133.05l-.879 6.548c-1.989 15.733 2.437 29.111 11.206 40.135-5.371-6.68-9.117-14.223-10.792-22.645z"/><path d="M92.035 194.509l5.106 6.433-5.106-6.433z"/></g><path d="M241.327 333.864c.928 3.365-16.544 12.234-29.971 13.594-14.29 1.458-27.866-3.581-27.717-7.179.298-6.581 55.93-12.798 57.688-6.415z" class="D"/><path d="M125.288 365.494c8.604 0 15.566 4.161 15.566 9.284s-6.962 9.267-15.566 9.267-15.565-4.161-15.565-9.267 6.979-9.284 15.565-9.284z" fill="#e08f82"/><path d="M316.951 354.055c2.519 1.641 4.061 3.83 4.061 6.233 0 3.399-3.05 6.366-7.625 7.974 1.475-3 3.149-11.455 3.564-14.207z" fill="#d17e75"/><path d="M305.447 351.021c4.558 0 8.669 1.178 11.504 3.034-.414 2.752-2.089 11.207-3.564 14.208-2.321.828-5.039 1.309-7.94 1.309-8.587 0-15.566-4.161-15.566-9.283s6.979-9.268 15.566-9.268z" fill="#e08f82"/><path d="M150.27 328.757a2.37 2.37 0 1 0 0-4.741 2.37 2.37 0 1 0 0 4.741z" fill="#fff"/><g stroke="#3f2a25" class="G"><path d="M332.483 350.011c6.797 48.275-56.676 82.889-116.668 82.889S91.72 406.657 98.318 354.321c7.559-59.996 30.435-137.995 117.497-138.658 80.083-.613 108.214 74.385 116.668 134.348z"/><path d="M248.057 220.072c13.809-22.496 30.734-65.748 41.907-117.189 13.709-63.096 46.183-99.103 62.859-96.749 22.363 3.15 49.831 86.819 17.257 150.379-23.622 46.07-65.777 71.467-82.106 87.813m31.264-186.734c-7.857 28.663-12.499 58.023-13.858 94.76-1.459 39.406-20.108 67.14-30.7 80.701m-94.588-11.969c-11.604-23.707-21.981-63.295-28.214-115.582C144.236 41.396 115.326 2.454 98.5 3.2 75.939 4.211 40.63 84.896 67.02 151.258c19.13 48.109 58.185 77.402 72.906 95.223M127.045 57.642c5.09 29.277 6.93 58.951 4.791 95.638-2.287 39.373 12.4 66.76 21.65 81.265" class="C"/><path d="M175.119 352.812c4.127-11.952-11.853-42.738-26.822-45.324-13.328-2.304-31.148 23.375-24.268 39.273s47.078 17.623 51.073 6.051h.017z"/><path d="M163.084 318.065c-14.787-10.577-41.509 35.759-12.284 42.042" class="C"/><path d="M182.296 297.558c2.305-1.608 2.006-10.461-3.945-13.196-4.111-1.89-9.631-.265-10.327 2.238-1.177 4.277 11.073 13.179 14.272 10.958zm59.047-4.028c-1.276-1.592 1.459-7.875 6.963-9.549 4.177-1.277 9.217.315 9.482 2.238.464 3.448-14.389 9.88-16.445 7.311zm-32.639 75.247c6.233-.382 10.244-4.294 8.852-7.759-1.045-2.619-15.98-.597-17.423 1.161-1.525 1.873 3.73 6.896 8.571 6.598z"/><path d="M209.831 384.559c.712-5.255-.465-13.826-.995-15.782M99.18 347.789c-29.656-11.969-68.761-13.892-95.632-7.245m19.544 43.319c26.457-9.334 53.278-13.893 75.723-12.036m232.922-26.79c29.656-11.969 68.513-13.875 95.384-7.228m-19.544 43.318c-26.457-9.333-53.278-13.892-75.723-12.035m-44.178-60.874c-17.771 12.781-29.722 25.53-29.872 31.034-.132 4.691 20.373 4.061 38.011 1.16" class="C"/><path d="M252.566 372.606c-11.869-12.234-24.749 11.423-43.713 12.003-11.555.365-22.761-3.863-27.651 3.133-7.459 10.676 17.588 18.484 35.458 16.727 22.744-2.238 45.67-21.816 35.922-31.863h-.016z"/><g class="C"><path d="M193.502 384.095c10.046 25.613 40.299 17.606 38.144-9.184"/><path d="M213.129 384.095c2.57 4.427 3.017 12.135 2.288 15.152"/></g></g></svg>