<svg xmlns="http://www.w3.org/2000/svg" width="359" height="583" fill="none" xmlns:v="https://vecta.io/nano"><style><![CDATA[.B{stroke-linejoin:round}.C{stroke-linecap:round}.D{fill:#935d51}.E{fill:#a06858}.F{fill:#b27967}]]></style><g stroke="#3f2a25" stroke-width="2" class="B C"><path d="M125.981 467.195l-.133.099c-29.067 22.327-52.063 13.764-59.16 5.565-3.061-3.528-3.822-7.519-3.044-11.66 2.895-15.519 27.148-33.29 31.533-38.027 13.119-14.161 34.097-66.714 41.856-72.759 3.358-2.617 9.463-5.863 12.706-9.11 2.663-2.666.529-4.256-.712-6.575h-.016m92.346 100.485l.447.513c4.781 5.35 9.694 10.285 14.691 14.559 10.025 8.579 30.936 14.575 44.089 11.776 4.036-.862 7.329-2.535 9.364-5.234 1.224-1.607 1.968-3.561 2.316-5.747 1.472-8.895-3.607-21.482-10.075-29.581-10.191-12.737-19.257-12.223-37.059-21.763-39.92-21.366-61.509-61.182-74.231-62.209-2.432-.199-13.815-.845-15.767-2.385-3.242-2.567-4.417-4.223-4.963-6.857m-44.321 139.009a69.71 69.71 0 0 0 8.504 20.472c3.573 5.83 2.515 76.552 6.799 83.773 5.41 9.109 17.586 11.295 23.625 8.264 8.09-4.057 21.226-42.35 28.836-81.885m62.85-7.751c1.77-2.186 13.847-9.855 17.073-9.855 7.279 0 20.15 11.81 15.7 21.068-5.493 11.461-29.763 38.259-45.148 36.454-17.967-2.103-36.215-37.381-43.477-40.015-1.837-.662-4.351-.497-6.998.099"/><path d="M241.357 435.212l.447.514c5.889 7.387 9.943 33.224 6.915 42.218-.645 1.904 3.425 7.304 7.743 12.223m56.066-38.707c-.082-.132-.182-.264-.264-.38M204.183 199.777c11.432 13.15 18.215 30.607 18.215 51.112 0 29.017-14.211 53.066-35.784 68.204-5.096 3.594-10.605 6.675-16.445 9.192m-3.11-151.663c-4.401-1.275-8.967-2.202-13.698-2.766m-40.814 3.959c-25.974 8.993-43.08 30.028-49.069 54.938-2.63 10.848-3.143 22.425-1.357 34.069a62.23 62.23 0 0 0 .596 3.511c1.158 6.062-17.404 15.817-16.56 21.184.546 3.362 1.373 6.724 2.432 9.97.529 1.607 1.108 3.18 1.754 4.72 2.73 6.659 6.419 12.638 10.489 17.076 12.209 13.284 53.569 15.006 78.782 12.737a97.25 97.25 0 0 0 9.397-1.292h.016"/><path d="M50.343 306.207c-.132 0-.265 0-.413-.033m117.129-129.552c7.594-28.04 12.391-75.359 19.125-112.509 4.417-24.297 27.313-52.354 41.276-46.69 18.728 7.602 38.961 70.242 23.046 111.449-10.555 27.361-34.213 53.033-46.323 70.904m-91.636-21.961c-7.527-19.991-20.1-47.22-23.062-73.206-5.013-43.858 27.049-99.624 45.446-102.423 13.748-2.087 27.909 30.723 26.42 55.368-2.349 38.773-8.95 87.5-7.99 116.302m-91.239 92.982l-.149-.116M2.299 280.966c14.426-4.091 36.032-4.505 53.701-1.06m-7.411 21.565c-7.064 1.656-24.104 6.443-31.566 9.374m175.596 10.103l-6.005-1.855"/></g><g fill="#bc7171"><path d="M312.214 450.748c-.347 2.17-1.092 4.124-2.316 5.731-2.035 2.683-5.327 4.373-9.364 5.234-13.135 2.815-34.063-3.197-44.089-11.76-5.161-4.422-10.224-9.556-15.137-15.105h-.017c6.138 6.625 10.489 33.556 7.379 42.748-.646 1.905 3.424 7.321 7.742 12.24 1.77-2.203 13.831-9.855 17.073-9.855 7.28 0 20.151 11.793 15.7 21.068-5.492 11.444-29.762 38.259-45.148 36.454-17.966-2.12-36.231-37.382-43.493-40.032-1.837-.662-4.351-.497-6.982.1-7.61 39.534-20.746 77.843-28.835 81.885-6.056 3.031-18.215.844-23.625-8.265-4.301-7.221-3.226-77.943-6.8-83.757a69.64 69.64 0 0 1-8.503-20.487c-29.067 22.342-52.063 13.763-59.161 5.581-3.061-3.528-3.822-7.519-3.044-11.66 2.895-15.535 27.148-33.307 31.532-38.027 13.119-14.178 34.08-66.714 41.856-72.776 3.341-2.6 9.463-5.863 12.689-9.109 2.68-2.667.529-4.24-.728-6.576 7.378-1.374 14.492-3.544 21.176-6.442.529 2.633 1.72 4.289 4.963 6.873 1.952 1.54 13.334 2.17 15.75 2.368 12.738 1.027 34.328 40.843 74.232 62.226 17.817 9.523 26.883 9.01 37.074 21.763 6.469 8.099 11.548 20.703 10.075 29.58z"/><path d="M57.705 296.187c3.673.58 6.551-.993 6.452-3.345-.099-1.971-10.439-4.108-11.779-3.28-1.456.895.86 5.433 4.119 6.36a11.26 11.26 0 0 0 1.208.265zm17.9 10.07c-1.588-.331-3.226-.762-4.897-1.242-2.382-.696-4.798-1.54-7.213-2.451a13.15 13.15 0 0 0-1.737-.514c-1.009-.215-1.886-.231-2.647-.099-1.092.166-1.985.613-2.812 1.143-1.208.762-2.25 1.722-3.491 2.285 7.726 18.517 22.45 16.563 22.797.878zm128.529-106.828c11.431 13.151 18.214 30.608 18.214 51.112 0 29.018-14.227 53.083-35.784 68.204-5.095 3.595-10.621 6.675-16.444 9.193-6.684 2.898-13.798 5.068-21.176 6.442-3.077.58-6.204 1.011-9.381 1.292-25.212 2.269-66.572.563-78.781-12.72-4.07-4.455-7.759-10.434-10.489-17.092a64.13 64.13 0 0 1-1.754-4.721c-1.075-3.246-1.902-6.591-2.432-9.954-.463-2.981 5.046-7.32 9.844-11.626 3.838-3.445 7.23-6.874 6.717-9.574l-.596-3.478c-1.357-8.861-1.39-17.705-.182-26.202h.033c3.64.149 8.818-1.407 9.082-3.296.265-1.788-3.656-5.366-7.577-4.604 5.989-24.91 23.095-45.944 49.069-54.938 8.569-2.981 18.099-4.637 28.505-4.687 4.202 0 8.305.215 12.308.729a85.27 85.27 0 0 1 13.698 2.766c7.594-28.041 12.392-75.36 19.125-112.509 4.401-24.297 27.314-52.354 41.277-46.673 18.727 7.602 38.96 70.225 23.045 111.449-10.555 27.344-34.196 53.016-46.322 70.887zm-76.945 50.3c1.009-.91-.083-4.471-2.465-6.376-3.144-2.501-7.859-1.59-8.272-.232-.679 2.203 8.933 8.232 10.737 6.608z"/><path d="M134.881 1.838c13.748-2.087 27.91 30.723 26.421 55.368-2.349 38.773-8.95 87.5-7.991 116.302-4.003-.514-8.106-.746-12.308-.729-10.406.05-19.936 1.706-28.505 4.687-7.528-19.991-20.101-47.22-23.062-73.206-5.013-43.858 27.049-99.623 45.445-102.423zm-10.157 241.515c2.382 1.905 3.474 5.465 2.465 6.376-1.804 1.624-11.416-4.405-10.737-6.608.413-1.358 5.128-2.269 8.272.232zm-54.016 61.662l4.897 1.242c-.347 15.685-15.071 17.639-22.797-.861 1.241-.58 2.283-1.54 3.491-2.302.645 4.935 6.783 10.302 9.827 10.318 4.583 0 4.698-8.016 4.583-8.397zm-7.279-72.61c3.921-.762 7.842 2.816 7.577 4.605-.265 1.888-5.443 3.445-9.083 3.295h-.033l1.538-7.9z"/><path d="M70.708 305.015c.116.381 0 8.414-4.583 8.397-2.167-1.789-4.732-9.374-4.368-11.362a13.15 13.15 0 0 1 1.737.514c2.415.911 4.831 1.755 7.213 2.451zm-6.551-12.174c.099 2.352-2.779 3.926-6.452 3.346-.397-.066-.794-.149-1.208-.265-3.259-.927-5.575-5.466-4.119-6.36 1.34-.828 11.68 1.308 11.779 3.279z"/><path d="M61.758 302.05c-.364 1.988 2.2 9.574 4.368 11.362-3.044-.016-9.182-5.382-9.827-10.318.827-.53 1.721-.977 2.812-1.143.761-.132 1.638-.116 2.647.099z"/></g><path d="M68.111 304.518l2.68.828c.132.381 0 8.414-4.583 8.397-2.167-1.772-4.699-9.341-4.368-11.345.546.099 1.125.282 1.754.513 1.506.564 3.011 1.11 4.516 1.59v.017z" fill="#ead0d0"/><path d="M61.841 302.398c-.331 2.004 2.2 9.573 4.368 11.345-3.044-.016-9.149-5.366-9.811-10.301 1.39-.911 3.011-1.557 5.443-1.044z" fill="#fff"/><path d="M70.791 305.346l4.913 1.259c-.364 15.668-15.088 17.622-22.797-.878 1.241-.563 2.283-1.524 3.491-2.286.662 4.936 6.766 10.286 9.811 10.302 4.583.017 4.715-8.016 4.583-8.397z" fill="#472b28"/><path d="M145.817 522.448c7.742 0 14.012 3.329 14.012 7.453s-6.27 7.453-14.012 7.453c-2.978 0-5.757-.497-8.024-1.342l-.447-12.041c2.35-.96 5.278-1.523 8.471-1.523z" fill="#824f46"/><path d="M246.353 522.448c6.386 0 11.647 4.853 12.243 11.097-5.112 3.047-10.142 4.803-14.476 4.289-3.342-.397-6.7-1.938-9.992-4.223a12.25 12.25 0 0 1 12.225-11.163z" class="E"/><path d="M248.785 49.505c7.991 23.502 11.134 55.137 1.77 79.368-10.571 27.345-34.212 53.016-46.339 70.887-3.408 5.035-5.922 9.441-6.948 13.101-.033-.082-.066-.149-.099-.232 1.042-7.767 1.671-15.303 2.018-22.74 9.943-8.96 27.132-32.694 38.1-53.712 15.634-29.929 14.377-63.434 11.498-86.672z" fill="#eaa0a0"/><path d="M248.785 49.506c2.879 23.237 4.136 56.743-11.498 86.671-10.968 21.018-28.157 44.752-38.1 53.712 1.952-41.704-5.029-79.467 2.862-128.16 1.307-11.412 14.195-35.046 30.325-41.092l.033-.033c6.071 5.399 11.961 15.9 16.378 28.885v.017z" fill="#fcb9b9"/><path d="M197.003 213.888l-.694 4.555c-1.522-2.882-12.309-8.778-14.576-23.204-3.772-23.966-5.327-63.55-6.534-59.708 0 .017-.017.033-.017.066l11.051-71.483c4.401-24.314 27.298-52.354 41.277-46.69 1.638.663 3.276 1.739 4.897 3.18l-.033.033c-16.13 6.045-29.018 29.68-30.325 41.092-7.891 48.693-.91 86.456-2.862 128.16-.347 7.437-.976 14.973-2.018 22.741l-.166 1.258zM146.363 7.801c17.238 41.489 7.378 92.502-4.153 105.139-6.088 6.674-23.078 20.305-31.714 32.396-7.263 10.186-1.721 19.958.198 27.543-7.577-19.411-18.429-44.37-21.159-68.27-5.013-43.858 27.049-99.624 45.446-102.423 3.888-.596 7.792 1.607 11.382 5.615z" class="F"/><path d="M64.24 293.173c.099 2.352-2.779 3.942-6.436 3.346l-1.208-.265c-3.259-.928-5.575-5.466-4.136-6.36 1.357-.812 11.697 1.308 11.779 3.279z" fill="#fcb9b9"/><path d="M62.172 266.822c-1.357-8.861-1.39-17.672-.182-26.169h.033c3.64.149 8.818-1.408 9.083-3.296.265-1.788-3.656-5.366-7.577-4.604 5.989-24.91 23.095-45.944 49.069-54.938 2.68-.927 5.459-1.739 8.321-2.401h.017c15.204-.829 36.413 4.422 43.295 10.417-1.042 2.915-2.167 5.483-3.342 7.603-8.652 14.442 30.656 29.895 35.205 26.317.464-.364.497-.778.215-1.308l.695-4.555c.066-.331.149-.679.265-1.027 8.388 20.223 13.301 49.456 1.042 76.122-1.34 2.881-2.862 5.747-4.615 8.562-4.451 7.155-12.276 13.134-22.136 17.938-29.828 14.541-78.236 18.251-107.353 10.666a19.62 19.62 0 0 1-3.325-2.865c-4.07-4.439-7.759-10.418-10.489-17.076-.645-1.541-1.224-3.131-1.754-4.737-1.075-3.247-1.903-6.592-2.432-9.954-.844-5.367 17.718-15.122 16.56-21.184a64.78 64.78 0 0 1-.596-3.511zm-4.367 29.697c3.656.596 6.535-.994 6.436-3.346-.083-1.971-10.423-4.091-11.779-3.279-1.439.894.877 5.432 4.136 6.36.413.115.811.198 1.208.265zm-4.897 9.208c7.709 18.501 22.433 16.546 22.797.878-1.588-.331-3.243-.762-4.913-1.259a61.18 61.18 0 0 1-2.68-.828c-1.505-.497-3.011-1.043-4.516-1.606-.629-.232-1.208-.414-1.754-.514-2.432-.513-4.053.133-5.443 1.044-1.208.762-2.25 1.722-3.491 2.285zm106.74-19.08c0-3.296-5.277-5.962-11.779-5.962s-11.779 2.666-11.779 5.962 5.278 5.963 11.779 5.963 11.779-2.683 11.779-5.963zm-32.359-36.586c1.009-.911-.083-4.456-2.465-6.36-3.16-2.518-7.859-1.607-8.272-.232-.678 2.203 8.934 8.231 10.737 6.592zm-60.6 29.348c5.691 3.909 19.604-2.202 18.264-4.538-1.952-3.395-15.005-4.538-18.132-2.169-1.737 1.325-2.432 5.117-.132 6.707z" class="F"/><g class="D"><path d="M149.043 334.728l-9.38 1.292c-23.261 2.087-60.286.795-75.457-9.871 29.117 7.585 77.525 3.875 107.353-10.667 4.93.911 9.959 2.12 15.104 3.628-5.095 3.577-10.621 6.658-16.444 9.175-6.684 2.899-13.798 5.068-21.176 6.443z"/><path d="M170.219 328.285c.347 1.69.943 2.965 2.184 4.34-1.952 2.434-15.121 7.304-21.474 5.432-.314-1.077-1.224-2.103-1.886-3.329 7.378-1.375 14.492-3.544 21.176-6.443z"/></g><path d="M312.297 451.08c-.348 2.186-1.092 4.14-2.3 5.747-.645.861-1.422 1.623-2.332 2.286 1.555-4.307 1.257-9.574-.215-14.807 1.489 1.987 3.06 4.207 4.847 6.774z" class="E"/><path d="M307.45 444.305c1.472 5.234 1.77 10.501.215 14.807-1.886 1.408-4.285 2.369-7.031 2.948-13.153 2.8-34.064-3.196-44.106-11.775-5.162-4.406-10.208-9.524-15.121-15.072-11.994-13.482-23.145-29.415-32.84-43.295 20.101 33.307 38.862 72.461 40.202 86.026-.645 1.888 3.424 7.304 7.742 12.223 4.037 4.604 8.289 8.762 9.083 9.159 3.855 4.969 9.033 17.275 3.16 26.715-3.292 2.882-6.75 5.483-10.158 7.503-.596-6.244-5.857-11.097-12.243-11.097a12.28 12.28 0 0 0-12.225 11.163c-14.377-9.887-27.579-33.655-33.485-35.791-.546-.199-1.142-.315-1.787-.364-1.538-.166-3.325.033-5.194.447h-.05c-7.544.563-20.15.828-32.062-3.329-21.722-7.569-33.336-24.745-37.29-37.432h-.115c-1.953-18.152 1.737-38.325 7.643-61.496-15.105 32.363-10.952 53.778-12.755 53.778-1.291-.049-1.638-8.115-6.039-12.322-7.445-7.122-23.294-6.691-33.683.629 6.833-6.79 13.764-12.24 15.899-14.558 13.135-14.161 34.097-66.714 41.872-72.759 3.342-2.617 9.446-5.88 12.689-9.11 1.257-1.258 1.439-2.269 1.158-3.246 6.353 1.872 19.522-2.998 21.474-5.432.695.778 1.605 1.59 2.779 2.517 1.936 1.54 13.334 2.186 15.75 2.368 3.408.282 7.461 3.33 12.325 8.066 26.602 47.899 61.791 52.984 58.978 66.681-2.117 10.285-5.74 15.188-1.29 19.13 9.38 8.314 17.967-13.764 27.761-11.346 7.113 1.756 15.633 12.985 18.76 24.264h-.016z" class="F"/><g class="D"><path d="M63.694 461.199c1.472-7.917 8.504-16.413 15.617-23.469 10.389-7.32 26.238-7.751 33.683-.629 4.401 4.207 4.748 12.273 6.038 12.322 1.804 0-2.349-21.415 12.756-53.778-5.906 23.171-9.596 43.344-7.644 61.513a75.77 75.77 0 0 0 1.754 10.136c-29.067 22.327-52.063 13.764-59.16 5.565-3.061-3.527-3.822-7.519-3.044-11.66z"/><path d="M125.898 467.294a75.77 75.77 0 0 1-1.753-10.136h.115c3.954 12.671 15.568 29.846 37.29 37.415 11.912 4.157 24.518 3.892 32.062 3.346h.033c-7.594 39.534-20.729 77.827-28.819 81.885-6.055 3.03-18.215.844-23.625-8.265-1.886-3.18-2.746-18.683-3.408-35.527 2.267.845 5.046 1.342 8.024 1.342 7.742 0 14.012-3.346 14.012-7.453s-6.27-7.453-14.012-7.453c-3.193 0-6.121.563-8.471 1.523-.645-17.44-1.323-33.572-2.944-36.205a69.71 69.71 0 0 1-8.504-20.472zm147.686 13.018c7.28 0 20.134 11.81 15.7 21.068-2.928 6.078-11.15 16.513-20.53 24.662 5.873-9.441.694-21.747-3.16-26.716-.794-.397-5.046-4.554-9.083-9.159 1.77-2.186 13.831-9.855 17.073-9.855z"/></g><path d="M241.39 435.213c6.138 6.592 10.489 33.522 7.379 42.731-1.34-13.565-20.101-52.718-40.202-86.026 9.695 13.88 20.846 29.813 32.84 43.295h-.017z" class="E"/><g class="D"><path d="M302.222 421.499c6.485 8.099 11.547 20.703 10.075 29.581l-4.847-6.774c-3.127-11.279-11.647-22.509-18.761-24.264-9.794-2.418-18.38 19.659-27.76 11.345-4.451-3.942-.828-8.844 1.29-19.13 2.812-13.697-32.376-18.782-58.979-66.664 13.285 12.952 32.691 38.492 61.907 54.143 17.818 9.54 26.884 9.027 37.058 21.763h.017zM120.918 175.413c-2.862.663-5.641 1.474-8.321 2.402l-1.903-4.936c-1.919-7.585-7.461-17.357-.198-27.543 8.636-12.091 25.626-25.722 31.714-32.396 11.531-12.638 21.391-63.65 4.153-105.139 9.115 10.186 16.113 32.065 15.038 49.754-2.349 38.773-8.95 87.5-7.991 116.302-4.003-.513-8.106-.745-12.308-.728-7.147.033-13.88.828-20.167 2.285h-.017zm75.39 43.03l-.215 1.308c-4.549 3.578-43.857-11.875-35.205-26.318 7.577-12.67 12.673-46.971 13.98-55.815l.314-2.021c0-.033.017-.05.017-.066 1.207-3.843 2.762 35.742 6.534 59.708 2.267 14.426 13.053 20.322 14.575 23.204z"/><path d="M167.109 176.623l-2.879 9.208c-6.882-5.995-28.091-11.246-43.295-10.417 6.287-1.458 13.02-2.253 20.167-2.286 4.202 0 8.305.215 12.308.729 4.732.563 9.298 1.49 13.699 2.766zm31.201 112.359c12.259-26.665 7.346-55.898-1.042-76.121 1.026-3.66 3.54-8.066 6.948-13.101 11.432 13.167 18.215 30.624 18.215 51.129 0 29.017-14.227 53.083-35.784 68.221-5.145-1.508-10.174-2.717-15.105-3.628 9.861-4.803 17.686-10.782 22.136-17.937 1.754-2.815 3.276-5.681 4.616-8.563h.016zM84.952 274.871c1.34 2.336-12.573 8.447-18.264 4.538-2.299-1.59-1.605-5.382.132-6.707 3.127-2.369 16.18-1.226 18.132 2.169z"/></g><path d="M147.868 292.61c6.506 0 11.78-2.67 11.78-5.963s-5.274-5.962-11.78-5.962-11.779 2.669-11.779 5.962 5.274 5.963 11.779 5.963z" fill="#e08f82"/><path d="M63.528 232.753c3.921-.762 7.842 2.815 7.577 4.604-.265 1.888-5.443 3.445-9.082 3.296h-.033l1.539-7.9zm61.295 10.948c2.382 1.904 3.474 5.449 2.465 6.36-1.803 1.639-11.415-4.389-10.737-6.592.414-1.375 5.112-2.286 8.272.232z" fill="#eab5a7"/><path d="M104.573 272.619c1.704-7.702 10.108-15.768 17.636-16.579 8.371-.895 16.759 8.115 19.34 16.579m-78.931-5.897c-.083-8.993-1.671-13.134-.91-13.25 1.621-.248 3.739 6.625 4.103 16.033" class="D"/><g stroke="#3f2a25" class="B"><g class="C"><path d="M250.556 301.057l91.933-9.077m-122.854 34.434l91.934-9.077m-45.975 28.736l91.934-9.076m-208.353-2.153c1.241 2.336 3.392 3.909.728 6.592-3.242 3.246-9.347 6.509-12.689 9.109-7.776 6.046-28.737 58.599-41.856 72.76-5.542 5.979-43.014 32.926-28.488 49.687 7.114 8.215 30.159 16.794 59.293-5.664m44.172-138.91c.529 2.633 1.72 4.306 4.963 6.873 1.935 1.541 13.334 2.187 15.75 2.369 12.738 1.027 34.328 40.843 74.231 62.225 17.802 9.54 26.884 9.027 37.059 21.763 8.056 10.087 13.946 27.13 7.775 35.328-8.652 11.478-40.35 4.671-53.469-6.542-28.753-24.579-54.479-71.567-69.699-87.119"/><path d="M138.885 369.957c-13.765 49.571-23.707 86.522-4.368 117.958 3.574 5.813 2.498 76.552 6.8 83.773 5.41 9.109 17.586 11.295 23.624 8.264 8.09-4.057 21.226-42.35 28.836-81.885m-11.779 4.423c4.153-2.103 13.864-6.327 18.777-4.538 7.263 2.633 25.511 37.911 43.477 40.015 15.386 1.805 39.656-25.009 45.148-36.454 4.451-9.259-8.421-21.068-15.7-21.068-3.242 0-15.303 7.652-17.073 9.855"/><path d="M265.726 499.459c-1.638-.828-18.066-17.722-16.825-21.382 3.11-9.192-1.241-36.123-7.378-42.731m36.925 4.488c10.307 6.907 15.187 10.484 22.301 22.359m-11.944-33.804c11.299 6.029 15.22 10.7 23.889 23.204m-248.885 9.739c8.073-4.687 13.119-6.675 22.136-8.132m-15.253 22.359c8.636-3.677 13.764-6.327 20.018-11.163m76.514-287.641a85.38 85.38 0 0 0-13.698-2.766c-4.003-.513-8.106-.745-12.308-.728-10.406.049-19.936 1.706-28.505 4.687-38.415 13.299-57.424 52.967-49.83 92.518 1.158 6.062-17.404 15.817-16.544 21.2 1.936 12.19 7.743 24.198 14.674 31.767 12.209 13.283 53.569 15.005 78.765 12.736 45.446-4.107 82.785-38.11 82.785-85.131 0-20.504-6.783-37.961-18.214-51.112m-140.705 32.96c3.921-.762 7.842 2.815 7.577 4.604-.265 1.888-5.443 3.445-9.083 3.296"/></g><path d="M116.667 243.602c.413-1.375 5.128-2.286 8.272.231 2.382 1.905 3.474 5.466 2.465 6.36-1.804 1.64-11.416-4.405-10.737-6.591z"/><path d="M102.869 273.596c10.456-3.925 23.492-4.041 38.68-.977m-51.733 33.34c-5.476 3.429-15.965.928-26.106-2.915-7.527-2.848-8.371 4.008-13.616 3.263m25.726.431c-.347 15.684-15.071 17.639-22.797-.862" class="C"/><path d="M56.712 296.386c4.202 1.192 7.759-.464 7.643-3.064-.083-1.971-10.423-4.108-11.779-3.279-1.456.877.86 5.432 4.136 6.343z"/><g class="C"><path d="M59.343 302.431c.811-.861-1.572-4.621-1.406-5.764m103.067-103.101c11.581-20.885 16.941-83.011 25.345-129.32 4.401-24.297 27.314-52.354 41.277-46.69 18.727 7.602 38.96 70.242 23.045 111.449-13.847 35.858-50.194 68.834-53.568 85.132m5.062-152.276c-9.728 59.99 3.143 103.4-5.956 158.023m-83.496-41.936c-7.528-19.991-20.101-47.22-23.062-73.207C84.638 60.884 116.7 5.118 135.096 2.319c13.748-2.087 27.91 30.723 26.421 55.368-2.349 38.773-8.95 87.5-7.991 116.302m-87.467 96.477c-1.489-1.806-2.184-2.269-3.921-3.611M2.465 281.099c14.426-4.091 36.032-4.505 53.701-1.06m-7.411 21.581c-7.064 1.656-24.104 6.442-31.565 9.374m122.654-14.045c20.564-8.877 46.985-10.766 65.894-6.559m-12.953 30.691c-18.678-6.095-36.066-8.662-51.749-6.99m-84.522-10.533c.645 4.935 6.766 10.302 9.81 10.318 4.583.017 4.715-8.016 4.583-8.397"/><path d="M61.973 302.531c-.364 1.987 2.2 9.573 4.368 11.345"/></g></g></svg>