<svg width="359" height="583" viewBox="0 0 359 583" fill="none" xmlns="http://www.w3.org/2000/svg">
<path d="M125.981 467.195C125.981 467.195 125.898 467.261 125.848 467.294C96.781 489.621 73.7851 481.058 66.6879 472.859C63.6273 469.331 62.8663 465.34 63.6438 461.199C66.539 445.68 90.7922 427.909 95.1763 423.172C108.295 409.011 129.273 356.458 137.032 350.413C140.39 347.796 146.495 344.55 149.738 341.303C152.401 338.637 150.267 337.047 149.026 334.728H149.01" stroke="#3F2A25" stroke-width="2" stroke-linecap="round" stroke-linejoin="round"/>
<path d="M241.357 435.213C241.506 435.378 241.655 435.544 241.804 435.726C246.585 441.076 251.498 446.011 256.495 450.285C266.52 458.864 287.431 464.86 300.584 462.061C304.62 461.199 307.913 459.526 309.948 456.827C311.172 455.22 311.916 453.266 312.264 451.08C313.736 442.185 308.657 429.598 302.189 421.499C291.998 408.762 282.932 409.276 265.13 399.736C225.21 378.37 203.621 338.554 190.899 337.527C188.467 337.328 177.084 336.682 175.132 335.142C171.89 332.575 170.715 330.919 170.169 328.285" stroke="#3F2A25" stroke-width="2" stroke-linecap="round" stroke-linejoin="round"/>
<path d="M125.848 467.294C127.552 474.4 130.315 481.207 134.352 487.766C137.925 493.596 136.867 564.318 141.151 571.539C146.561 580.648 158.737 582.834 164.776 579.803C172.866 575.746 186.002 537.453 193.612 497.918" stroke="#3F2A25" stroke-width="2" stroke-linecap="round" stroke-linejoin="round"/>
<path d="M256.462 490.167C258.232 487.981 270.309 480.312 273.535 480.312C280.814 480.312 293.685 492.122 289.235 501.38C283.742 512.841 259.472 539.639 244.087 537.834C226.12 535.731 207.872 500.453 200.61 497.819C198.773 497.157 196.259 497.322 193.612 497.918" stroke="#3F2A25" stroke-width="2" stroke-linecap="round" stroke-linejoin="round"/>
<path d="M241.357 435.212C241.506 435.378 241.655 435.544 241.804 435.726C247.693 443.113 251.747 468.95 248.719 477.944C248.074 479.848 252.144 485.248 256.462 490.167" stroke="#3F2A25" stroke-width="2" stroke-linecap="round" stroke-linejoin="round"/>
<path d="M312.528 451.46C312.446 451.328 312.346 451.196 312.264 451.08" stroke="#3F2A25" stroke-width="2" stroke-linecap="round" stroke-linejoin="round"/>
<path d="M204.183 199.777C215.615 212.927 222.398 230.384 222.398 250.889C222.398 279.906 208.187 303.955 186.614 319.093C181.518 322.687 176.009 325.768 170.169 328.285" stroke="#3F2A25" stroke-width="2" stroke-linecap="round" stroke-linejoin="round"/>
<path d="M167.059 176.622C162.658 175.347 158.092 174.42 153.361 173.856" stroke="#3F2A25" stroke-width="2" stroke-linecap="round" stroke-linejoin="round"/>
<path d="M112.547 177.815C86.5734 186.808 69.4671 207.843 63.4783 232.753C60.8478 243.601 60.335 255.178 62.1217 266.822C62.2871 268.014 62.4857 269.157 62.7173 270.333C63.8753 276.395 45.3132 286.15 46.157 291.517C46.7029 294.879 47.5301 298.241 48.5889 301.487C49.1183 303.094 49.6973 304.667 50.3425 306.207C53.0723 312.866 56.7615 318.845 60.8313 323.283C73.0406 336.567 114.4 338.289 139.613 336.02C142.789 335.738 145.932 335.308 149.01 334.728H149.026" stroke="#3F2A25" stroke-width="2" stroke-linecap="round" stroke-linejoin="round"/>
<path d="M50.3425 306.207C50.2102 306.207 50.0778 306.207 49.929 306.174" stroke="#3F2A25" stroke-width="2" stroke-linecap="round" stroke-linejoin="round"/>
<path d="M167.059 176.622C174.653 148.582 179.45 101.263 186.184 64.1133C190.601 39.8161 213.497 11.7592 227.46 17.4236C246.188 25.0258 266.421 87.6651 250.506 128.873C239.951 156.234 216.293 181.906 204.183 199.777" stroke="#3F2A25" stroke-width="2" stroke-linecap="round" stroke-linejoin="round"/>
<path d="M112.547 177.815C105.02 157.824 92.4465 130.595 89.4852 104.609C84.4724 60.7511 116.534 4.98515 134.931 2.18609C148.679 0.0992152 162.84 32.9095 161.351 57.5545C159.002 96.3273 152.401 145.054 153.361 173.856" stroke="#3F2A25" stroke-width="2" stroke-linecap="round" stroke-linejoin="round"/>
<path d="M62.1218 266.838C62.1218 266.838 62.0225 266.755 61.9729 266.722" stroke="#3F2A25" stroke-width="2" stroke-linecap="round" stroke-linejoin="round"/>
<path d="M2.29944 280.966C16.7256 276.875 38.3318 276.461 56.0005 279.906" stroke="#3F2A25" stroke-width="2" stroke-linecap="round" stroke-linejoin="round"/>
<path d="M48.589 301.471C41.5248 303.127 24.4847 307.914 17.0234 310.845" stroke="#3F2A25" stroke-width="2" stroke-linecap="round" stroke-linejoin="round"/>
<path d="M192.619 320.948C190.601 320.285 188.599 319.672 186.614 319.093" stroke="#3F2A25" stroke-width="2" stroke-linecap="round" stroke-linejoin="round"/>
<path d="M312.214 450.748C311.867 452.918 311.122 454.872 309.898 456.479C307.863 459.162 304.571 460.852 300.534 461.713C287.399 464.528 266.471 458.516 256.445 449.953C251.284 445.531 246.221 440.397 241.308 434.848H241.291C247.429 441.473 251.78 468.404 248.67 477.596C248.024 479.501 252.094 484.917 256.412 489.836C258.182 487.633 270.243 479.981 273.485 479.981C280.765 479.981 293.636 491.774 289.185 501.049C283.693 512.493 259.423 539.308 244.037 537.503C226.071 535.383 207.806 500.121 200.544 497.471C198.707 496.809 196.193 496.974 193.562 497.571C185.952 537.105 172.816 575.414 164.727 579.456C158.671 582.487 146.512 580.3 141.102 571.191C136.801 563.97 137.876 493.248 134.302 487.434C130.266 480.876 127.503 474.068 125.799 466.947C96.7316 489.289 73.7357 480.71 66.6384 472.528C63.5778 469 62.8168 465.009 63.5944 460.868C66.4895 445.333 90.7427 427.561 95.1268 422.841C108.246 408.663 129.207 356.127 136.983 350.065C140.324 347.465 146.446 344.202 149.672 340.956C152.352 338.289 150.201 336.716 148.944 334.38C156.322 333.006 163.436 330.836 170.12 327.938C170.649 330.571 171.84 332.227 175.083 334.811C177.035 336.351 188.417 336.981 190.833 337.179C203.571 338.206 225.161 378.022 265.065 399.405C282.882 408.928 291.948 408.415 302.139 421.168C308.608 429.267 313.687 441.871 312.214 450.748Z" fill="#BC7171"/>
<path d="M57.7047 296.187C61.3774 296.767 64.2561 295.194 64.1568 292.842C64.0575 290.871 53.7177 288.734 52.3776 289.562C50.9218 290.457 53.2379 294.995 56.497 295.922C56.9106 296.038 57.3077 296.121 57.7047 296.187ZM75.6051 306.257C74.0169 305.926 72.3791 305.495 70.7081 305.015C68.3258 304.319 65.9104 303.475 63.4951 302.564C62.8664 302.332 62.2874 302.166 61.758 302.05C60.7488 301.835 59.872 301.819 59.111 301.951C58.0191 302.117 57.1257 302.564 56.2985 303.094C55.0908 303.856 54.0486 304.816 52.8078 305.379C60.5337 323.896 75.2577 321.942 75.6051 306.257ZM204.134 199.429C215.565 212.58 222.348 230.037 222.348 250.541C222.348 279.559 208.121 303.624 186.564 318.745C181.469 322.34 175.943 325.42 170.12 327.938C163.436 330.836 156.322 333.006 148.944 334.38C145.867 334.96 142.74 335.391 139.563 335.672C114.351 337.941 72.9912 336.235 60.7819 322.952C56.7121 318.497 53.0228 312.518 50.2931 305.86C49.6479 304.32 49.0689 302.746 48.5395 301.139C47.4641 297.893 46.637 294.548 46.1075 291.185C45.6443 288.204 51.1534 283.865 55.9511 279.559C59.7893 276.114 63.1807 272.685 62.6679 269.985C62.4528 268.826 62.2377 267.667 62.0723 266.507C60.7157 257.646 60.6826 248.802 61.8903 240.305H61.9234C65.563 240.454 70.7412 238.898 71.0059 237.009C71.2706 235.221 67.3498 231.643 63.4289 232.405C69.4177 207.495 86.524 186.461 112.498 177.467C121.067 174.486 130.597 172.83 141.003 172.78C145.205 172.78 149.308 172.995 153.311 173.509C158.043 174.072 162.609 174.999 167.009 176.275C174.603 148.234 179.401 100.915 186.134 63.7657C190.535 39.4686 213.448 11.4117 227.411 17.0926C246.138 24.6948 266.371 87.3176 250.456 128.542C239.901 155.886 216.26 181.558 204.134 199.429ZM127.189 249.729C128.198 248.819 127.106 245.258 124.724 243.353C121.58 240.852 116.865 241.763 116.452 243.121C115.773 245.324 125.385 251.353 127.189 249.729Z" fill="#BC7171"/>
<path d="M134.881 1.83843C148.629 -0.248441 162.791 32.5619 161.302 57.2069C158.953 95.9797 152.352 144.707 153.311 173.509C149.308 172.995 145.205 172.763 141.003 172.78C130.597 172.83 121.067 174.486 112.498 177.467C104.97 157.476 92.3971 130.247 89.4357 104.261C84.423 60.4034 116.485 4.6375 134.881 1.83843Z" fill="#BC7171"/>
<path d="M124.724 243.353C127.106 245.258 128.198 248.818 127.189 249.729C125.385 251.353 115.773 245.324 116.452 243.121C116.865 241.763 121.58 240.852 124.724 243.353Z" fill="#BC7171"/>
<path d="M70.7081 305.015C72.379 305.495 74.0169 305.926 75.6051 306.257C75.2576 321.942 60.5337 323.896 52.8077 305.396C54.0485 304.816 55.0908 303.856 56.2985 303.094C56.9437 308.029 63.0814 313.396 66.1255 313.412C70.7081 313.412 70.8239 305.396 70.7081 305.015Z" fill="#BC7171"/>
<path d="M63.4289 232.405C67.3498 231.643 71.2707 235.221 71.006 237.01C70.7413 238.898 65.5631 240.455 61.9235 240.305H61.8904C62.2874 237.639 62.7837 234.989 63.4289 232.405Z" fill="#BC7171"/>
<path d="M70.7081 305.015C70.8239 305.396 70.7081 313.429 66.1255 313.412C63.9582 311.623 61.394 304.038 61.7579 302.05C62.2873 302.166 62.8663 302.332 63.495 302.564C65.9104 303.475 68.3258 304.319 70.7081 305.015Z" fill="#BC7171"/>
<path d="M64.1569 292.841C64.2561 295.193 61.3775 296.767 57.7048 296.187C57.3077 296.121 56.9107 296.038 56.4971 295.922C53.238 294.995 50.9219 290.456 52.3777 289.562C53.7178 288.734 64.0576 290.87 64.1569 292.841Z" fill="#BC7171"/>
<path d="M61.7579 302.05C61.394 304.038 63.9582 311.624 66.1255 313.412C63.0814 313.396 56.9437 308.03 56.2985 303.094C57.1257 302.564 58.019 302.117 59.1109 301.951C59.8719 301.819 60.7487 301.835 61.7579 302.05Z" fill="#BC7171"/>
<path d="M68.1107 304.518C69.0041 304.816 69.914 305.098 70.7908 305.346C70.9232 305.727 70.7908 313.76 66.2082 313.743C64.0409 311.971 61.5097 304.402 61.8406 302.398C62.3866 302.497 62.9656 302.68 63.5943 302.911C65.0998 303.475 66.6052 304.021 68.1107 304.501V304.518Z" fill="#EAD0D0"/>
<path d="M61.8406 302.398C61.5097 304.402 64.0409 311.971 66.2082 313.743C63.1641 313.727 57.0595 308.377 56.3977 303.442C57.7874 302.531 59.4087 301.885 61.8406 302.398Z" fill="white"/>
<path d="M70.7908 305.346C72.4617 305.843 74.1161 306.274 75.7043 306.605C75.3403 322.273 60.6164 324.227 52.907 305.727C54.1478 305.164 55.19 304.203 56.3977 303.441C57.0595 308.377 63.1641 313.727 66.2082 313.743C70.7908 313.76 70.9232 305.727 70.7908 305.346Z" fill="#472B28"/>
<path d="M145.817 522.448C153.559 522.448 159.829 525.777 159.829 529.901C159.829 534.025 153.559 537.354 145.817 537.354C142.839 537.354 140.06 536.857 137.793 536.012C137.628 532.021 137.479 527.963 137.346 523.971C139.696 523.011 142.624 522.448 145.817 522.448Z" fill="#824F46"/>
<path d="M246.353 522.448C252.739 522.448 258 527.301 258.596 533.545C253.484 536.592 248.454 538.348 244.12 537.834C240.778 537.437 237.42 535.896 234.128 533.611C234.69 527.334 239.934 522.448 246.353 522.448Z" fill="#A06858"/>
<path d="M248.785 49.5054C256.776 73.0076 259.919 104.642 250.555 128.873C239.984 156.218 216.343 181.889 204.216 199.76C200.808 204.795 198.294 209.201 197.268 212.861C197.235 212.779 197.202 212.712 197.169 212.629C198.211 204.862 198.84 197.326 199.187 189.889C209.13 180.929 226.319 157.195 237.287 136.177C252.921 106.248 251.664 72.7426 248.785 49.5054Z" fill="#EAA0A0"/>
<path d="M248.785 49.5056C251.664 72.7427 252.921 106.249 237.287 136.177C226.319 157.195 209.13 180.929 199.187 189.889C201.139 148.185 194.158 110.422 202.049 61.7287C203.356 50.3171 216.244 26.6824 232.374 20.6371L232.407 20.604C238.478 26.0034 244.368 36.504 248.785 49.489V49.5056Z" fill="#FCB9B9"/>
<path d="M197.003 213.888C196.788 215.395 196.557 216.919 196.309 218.443C194.787 215.561 184 209.665 181.733 195.239C177.961 171.273 176.406 131.689 175.199 135.531C175.199 135.548 175.182 135.564 175.182 135.597C178.855 112.344 182.18 86.4067 186.233 64.1136C190.634 39.7999 213.531 11.7595 227.51 17.4239C229.148 18.0864 230.786 19.163 232.407 20.6039L232.374 20.6371C216.244 26.6824 203.356 50.317 202.049 61.7286C194.158 110.422 201.139 148.185 199.187 189.889C198.84 197.326 198.211 204.862 197.169 212.63C197.119 213.044 197.053 213.458 197.003 213.888Z" fill="#B27967"/>
<path d="M146.363 7.80103C163.601 49.2901 153.741 100.303 142.21 112.94C136.122 119.614 119.132 133.245 110.496 145.336C103.233 155.522 108.775 165.294 110.694 172.879C103.117 153.468 92.2647 128.509 89.535 104.609C84.5222 60.7513 116.584 4.9854 134.981 2.18634C138.869 1.59009 142.773 3.7929 146.363 7.80103Z" fill="#B27967"/>
<path d="M64.2395 293.173C64.3387 295.525 61.4601 297.115 57.804 296.519C57.4069 296.452 57.0098 296.369 56.5962 296.254C53.3371 295.326 51.021 290.788 52.4603 289.894C53.8169 289.082 64.1568 291.202 64.2395 293.173Z" fill="#FCB9B9"/>
<path d="M62.1715 266.822C60.8149 257.961 60.7818 249.15 61.9895 240.653H62.0226C65.6622 240.802 70.8405 239.245 71.1052 237.357C71.3699 235.569 67.449 231.991 63.5281 232.753C69.5169 207.843 86.6232 186.809 112.597 177.815C115.277 176.888 118.056 176.076 120.918 175.414H120.935C136.139 174.585 157.348 179.836 164.23 185.831C163.188 188.746 162.063 191.314 160.888 193.434C152.236 207.876 191.544 223.329 196.093 219.751C196.557 219.387 196.59 218.973 196.308 218.443C196.557 216.919 196.788 215.395 197.003 213.888C197.069 213.557 197.152 213.209 197.268 212.861C205.656 233.084 210.569 262.317 198.31 288.983C196.97 291.864 195.448 294.73 193.695 297.545C189.244 304.7 181.419 310.679 171.559 315.483C141.731 330.024 93.3234 333.734 64.2064 326.149C62.9325 325.271 61.8241 324.31 60.8811 323.284C56.8113 318.845 53.1221 312.866 50.3923 306.208C49.7471 304.667 49.1681 303.077 48.6387 301.471C47.5634 298.224 46.7362 294.879 46.2068 291.517C45.363 286.15 63.9252 276.395 62.7671 270.333C62.5355 269.157 62.3369 267.998 62.1715 266.822ZM57.804 296.519C61.4601 297.115 64.3387 295.525 64.2395 293.173C64.1568 291.202 53.8169 289.082 52.4603 289.894C51.021 290.788 53.3371 295.326 56.5963 296.254C57.0098 296.369 57.4069 296.452 57.804 296.519ZM52.907 305.727C60.6164 324.228 75.3404 322.273 75.7043 306.605C74.1161 306.274 72.4617 305.843 70.7908 305.346C69.914 305.098 69.0041 304.816 68.1107 304.518C66.6052 304.021 65.0998 303.475 63.5943 302.912C62.9656 302.68 62.3866 302.498 61.8406 302.398C59.4087 301.885 57.7874 302.531 56.3977 303.442C55.19 304.204 54.1478 305.164 52.907 305.727ZM159.647 286.647C159.647 283.351 154.37 280.685 147.868 280.685C141.367 280.685 136.089 283.351 136.089 286.647C136.089 289.943 141.367 292.61 147.868 292.61C154.37 292.61 159.647 289.927 159.647 286.647ZM127.288 250.061C128.297 249.15 127.205 245.605 124.823 243.701C121.663 241.183 116.964 242.094 116.551 243.469C115.873 245.672 125.485 251.7 127.288 250.061ZM66.688 279.409C72.379 283.318 86.2923 277.207 84.9523 274.871C83.0001 271.476 69.9471 270.333 66.8203 272.702C65.0832 274.027 64.3884 277.819 66.688 279.409Z" fill="#B27967"/>
<path d="M149.043 334.728C145.966 335.308 142.839 335.738 139.663 336.02C116.402 338.107 79.3771 336.815 64.2064 326.149C93.3235 333.734 141.731 330.024 171.559 315.482C176.489 316.393 181.518 317.602 186.663 319.11C181.568 322.687 176.042 325.768 170.219 328.285C163.535 331.184 156.421 333.353 149.043 334.728Z" fill="#935D51"/>
<path d="M170.219 328.285C170.566 329.975 171.162 331.25 172.403 332.625C170.451 335.059 157.282 339.929 150.929 338.057C150.615 336.98 149.705 335.954 149.043 334.728C156.421 333.353 163.535 331.184 170.219 328.285Z" fill="#935D51"/>
<path d="M312.297 451.08C311.949 453.266 311.205 455.22 309.997 456.827C309.352 457.688 308.575 458.45 307.665 459.113C309.22 454.806 308.922 449.539 307.45 444.306C308.939 446.293 310.51 448.513 312.297 451.08Z" fill="#A06858"/>
<path d="M307.45 444.305C308.922 449.539 309.22 454.806 307.665 459.112C305.779 460.52 303.38 461.481 300.634 462.06C287.481 464.86 266.57 458.864 256.528 450.285C251.366 445.879 246.32 440.761 241.407 435.213C229.413 421.731 218.262 405.798 208.567 391.918C228.668 425.225 247.429 464.379 248.769 477.944C248.124 479.832 252.193 485.248 256.511 490.167C260.548 494.771 264.8 498.929 265.594 499.326C269.449 504.295 274.627 516.601 268.754 526.041C265.462 528.923 262.004 531.524 258.596 533.544C258 527.3 252.739 522.447 246.353 522.447C239.968 522.447 234.69 527.333 234.128 533.61C219.751 523.723 206.549 499.955 200.643 497.819C200.097 497.62 199.501 497.504 198.856 497.455C197.318 497.289 195.531 497.488 193.662 497.902H193.612C186.068 498.465 173.462 498.73 161.55 494.573C139.828 487.004 128.214 469.828 124.26 457.141H124.145C122.192 438.989 125.882 418.816 131.788 395.645C116.683 428.008 120.836 449.423 119.033 449.423C117.742 449.374 117.395 441.308 112.994 437.101C105.549 429.979 89.7004 430.41 79.3109 437.73C86.1435 430.94 93.0753 425.49 95.2095 423.172C108.345 409.011 129.306 356.458 137.082 350.413C140.424 347.796 146.528 344.533 149.771 341.303C151.028 340.045 151.21 339.034 150.929 338.057C157.282 339.929 170.451 335.059 172.403 332.625C173.098 333.403 174.008 334.215 175.182 335.142C177.118 336.682 188.516 337.328 190.932 337.51C194.34 337.792 198.393 340.84 203.257 345.576C229.859 393.475 265.048 398.56 262.235 412.257C260.118 422.542 256.495 427.445 260.945 431.387C270.325 439.701 278.912 417.623 288.706 420.041C295.819 421.797 304.339 433.026 307.466 444.305H307.45Z" fill="#B27967"/>
<path d="M63.6935 461.199C65.1659 453.282 72.197 444.786 79.3108 437.73C89.7003 430.41 105.549 429.979 112.994 437.101C117.395 441.308 117.742 449.374 119.032 449.423C120.836 449.423 116.683 428.008 131.788 395.645C125.882 418.816 122.192 438.989 124.144 457.158C124.508 460.62 125.087 463.982 125.898 467.294C96.8307 489.621 73.8348 481.058 66.7376 472.859C63.677 469.332 62.9159 465.34 63.6935 461.199Z" fill="#935D51"/>
<path d="M125.898 467.294C125.088 463.982 124.508 460.62 124.145 457.158H124.26C128.214 469.829 139.828 487.004 161.55 494.573C173.462 498.73 186.068 498.465 193.612 497.919H193.645C186.051 537.453 172.916 575.746 164.826 579.804C158.771 582.834 146.611 580.648 141.201 571.539C139.315 568.359 138.455 552.856 137.793 536.012C140.06 536.857 142.839 537.354 145.817 537.354C153.559 537.354 159.829 534.008 159.829 529.901C159.829 525.793 153.559 522.448 145.817 522.448C142.624 522.448 139.696 523.011 137.346 523.971C136.701 506.531 136.023 490.399 134.402 487.766C130.365 481.207 127.602 474.4 125.898 467.294Z" fill="#935D51"/>
<path d="M273.584 480.312C280.864 480.312 293.718 492.122 289.284 501.38C286.356 507.458 278.134 517.893 268.754 526.042C274.627 516.601 269.448 504.295 265.594 499.326C264.8 498.929 260.548 494.772 256.511 490.167C258.281 487.981 270.342 480.312 273.584 480.312Z" fill="#935D51"/>
<path d="M241.39 435.213C247.528 441.805 251.879 468.735 248.769 477.944C247.429 464.379 228.668 425.226 208.567 391.918C218.262 405.798 229.413 421.731 241.407 435.213H241.39Z" fill="#A06858"/>
<path d="M302.222 421.499C308.707 429.598 313.769 442.202 312.297 451.08C310.51 448.513 308.939 446.293 307.45 444.306C304.323 433.027 295.803 421.797 288.689 420.042C278.895 417.624 270.309 439.701 260.929 431.387C256.478 427.445 260.101 422.543 262.219 412.257C265.031 398.56 229.843 393.475 203.24 345.593C216.525 358.545 235.931 384.085 265.147 399.736C282.965 409.276 292.031 408.763 302.205 421.499H302.222Z" fill="#935D51"/>
<path d="M120.918 175.413C118.056 176.076 115.277 176.887 112.597 177.815C112.001 176.208 111.356 174.569 110.694 172.879C108.775 165.294 103.233 155.522 110.496 145.336C119.132 133.245 136.122 119.614 142.21 112.94C153.741 100.302 163.601 49.2898 146.363 7.80078C155.478 17.9867 162.476 39.8658 161.401 57.5545C159.052 96.3273 152.451 145.054 153.41 173.856C149.407 173.343 145.304 173.111 141.102 173.128C133.955 173.161 127.222 173.956 120.935 175.413H120.918Z" fill="#935D51"/>
<path d="M196.308 218.443C196.242 218.873 196.16 219.321 196.093 219.751C191.544 223.329 152.236 207.876 160.888 193.433C168.465 180.763 173.561 146.462 174.868 137.618C175.033 136.508 175.149 135.812 175.182 135.597C175.182 135.564 175.199 135.547 175.199 135.531C176.406 131.688 177.961 171.273 181.733 195.239C184 209.665 194.786 215.561 196.308 218.443Z" fill="#935D51"/>
<path d="M167.109 176.623C166.199 179.985 165.239 183.065 164.23 185.831C157.348 179.836 136.139 174.585 120.935 175.414C127.222 173.956 133.955 173.161 141.102 173.128C145.304 173.128 149.407 173.343 153.41 173.857C158.142 174.42 162.708 175.347 167.109 176.623Z" fill="#935D51"/>
<path d="M198.31 288.982C210.569 262.317 205.656 233.084 197.268 212.861C198.294 209.201 200.808 204.795 204.216 199.76C215.648 212.927 222.431 230.384 222.431 250.889C222.431 279.906 208.204 303.972 186.647 319.11C181.502 317.602 176.473 316.393 171.542 315.482C181.403 310.679 189.228 304.7 193.678 297.545C195.432 294.73 196.954 291.864 198.294 288.982H198.31Z" fill="#935D51"/>
<path d="M84.9523 274.871C86.2923 277.207 72.379 283.318 66.6879 279.409C64.3884 277.819 65.0832 274.027 66.8203 272.702C69.9471 270.333 83.0001 271.476 84.9523 274.871Z" fill="#935D51"/>
<path d="M147.868 292.61C154.374 292.61 159.648 289.94 159.648 286.647C159.648 283.354 154.374 280.685 147.868 280.685C141.363 280.685 136.089 283.354 136.089 286.647C136.089 289.94 141.363 292.61 147.868 292.61Z" fill="#E08F82"/>
<path d="M63.5281 232.753C67.4489 231.991 71.3698 235.568 71.1051 237.357C70.8404 239.245 65.6622 240.802 62.0226 240.653H61.9895C62.3866 237.987 62.8829 235.337 63.5281 232.753Z" fill="#EAB5A7"/>
<path d="M124.823 243.701C127.205 245.605 128.297 249.15 127.288 250.061C125.485 251.7 115.873 245.672 116.551 243.469C116.965 242.094 121.663 241.183 124.823 243.701Z" fill="#EAB5A7"/>
<path d="M104.573 272.619C106.277 264.917 114.681 256.851 122.209 256.04C130.58 255.145 138.968 264.155 141.549 272.619" fill="#935D51"/>
<path d="M62.6182 266.722C62.5354 257.729 60.9473 253.588 61.7083 253.472C63.3296 253.224 65.4472 260.097 65.8111 269.505" fill="#935D51"/>
<path d="M250.556 301.057C281.195 298.026 311.834 295.011 342.489 291.98" stroke="#3F2A25" stroke-linecap="round" stroke-linejoin="round"/>
<path d="M219.635 326.414C250.274 323.383 280.913 320.368 311.569 317.337" stroke="#3F2A25" stroke-linecap="round" stroke-linejoin="round"/>
<path d="M265.594 346.073C296.233 343.042 326.872 340.028 357.528 336.997" stroke="#3F2A25" stroke-linecap="round" stroke-linejoin="round"/>
<path d="M149.175 334.844C150.416 337.18 152.567 338.753 149.903 341.436C146.661 344.682 140.556 347.945 137.214 350.545C129.438 356.591 108.477 409.144 95.3583 423.305C89.8161 429.284 52.3444 456.231 66.8699 472.992C73.9837 481.207 97.0292 489.786 126.163 467.328" stroke="#3F2A25" stroke-linecap="round" stroke-linejoin="round"/>
<path d="M170.335 328.418C170.864 331.051 172.055 332.724 175.298 335.291C177.233 336.832 188.632 337.478 191.048 337.66C203.786 338.687 225.376 378.503 265.279 399.885C283.081 409.425 292.163 408.912 302.338 421.648C310.394 431.735 316.284 448.778 310.113 456.976C301.461 468.454 269.763 461.647 256.644 450.434C227.891 425.855 202.165 378.867 186.945 363.315" stroke="#3F2A25" stroke-linecap="round" stroke-linejoin="round"/>
<path d="M138.885 369.957C125.12 419.528 115.178 456.479 134.517 487.915C138.091 493.728 137.015 564.467 141.317 571.688C146.727 580.797 158.903 582.983 164.941 579.952C173.031 575.895 186.167 537.602 193.777 498.067" stroke="#3F2A25" stroke-linecap="round" stroke-linejoin="round"/>
<path d="M181.998 502.49C186.151 500.387 195.862 496.163 200.775 497.952C208.038 500.585 226.286 535.863 244.252 537.967C259.638 539.772 283.908 512.958 289.4 501.513C293.851 492.254 280.979 480.445 273.7 480.445C270.458 480.445 258.397 488.097 256.627 490.3" stroke="#3F2A25" stroke-linecap="round" stroke-linejoin="round"/>
<path d="M265.726 499.459C264.088 498.631 247.66 481.737 248.901 478.077C252.011 468.885 247.66 441.954 241.523 435.346" stroke="#3F2A25" stroke-linecap="round" stroke-linejoin="round"/>
<path d="M278.448 439.834C288.755 446.741 293.635 450.318 300.749 462.193" stroke="#3F2A25" stroke-linecap="round" stroke-linejoin="round"/>
<path d="M288.805 428.389C300.104 434.418 304.025 439.089 312.694 451.593" stroke="#3F2A25" stroke-linecap="round" stroke-linejoin="round"/>
<path d="M63.8093 461.332C71.8827 456.645 76.9285 454.657 85.9449 453.2" stroke="#3F2A25" stroke-linecap="round" stroke-linejoin="round"/>
<path d="M70.6915 475.559C79.3274 471.882 84.4559 469.232 90.7095 464.396" stroke="#3F2A25" stroke-linecap="round" stroke-linejoin="round"/>
<path d="M167.224 176.755C162.824 175.48 158.258 174.552 153.526 173.989C149.523 173.476 145.42 173.244 141.218 173.261C130.812 173.31 121.282 174.967 112.713 177.948C74.2981 191.247 55.2893 230.915 62.8829 270.466C64.0409 276.528 45.4788 286.283 46.3391 291.666C48.2747 303.856 54.0816 315.864 61.0134 323.433C73.2227 336.716 114.582 338.438 139.778 336.169C185.224 332.062 222.563 298.059 222.563 251.038C222.563 230.534 215.78 213.077 204.349 199.926" stroke="#3F2A25" stroke-linecap="round" stroke-linejoin="round"/>
<path d="M63.6439 232.886C67.5648 232.124 71.4857 235.701 71.221 237.49C70.9563 239.378 65.7781 240.935 62.1384 240.786" stroke="#3F2A25" stroke-linecap="round" stroke-linejoin="round"/>
<path d="M116.667 243.602C117.08 242.227 121.795 241.316 124.939 243.833C127.321 245.738 128.413 249.299 127.404 250.193C125.6 251.833 115.988 245.788 116.667 243.602Z" stroke="#3F2A25" stroke-linecap="round" stroke-linejoin="round"/>
<path d="M102.869 273.596C113.325 269.671 126.361 269.555 141.549 272.619" stroke="#3F2A25" stroke-linecap="round" stroke-linejoin="round"/>
<path d="M89.8161 305.959C84.3401 309.388 73.8514 306.887 63.71 303.044C56.1826 300.196 55.3389 307.052 50.0945 306.307" stroke="#3F2A25" stroke-linecap="round" stroke-linejoin="round"/>
<path d="M75.82 306.738C75.4726 322.422 60.7486 324.377 53.0227 305.876" stroke="#3F2A25" stroke-linecap="round" stroke-linejoin="round"/>
<path d="M56.712 296.386C60.9141 297.578 64.471 295.922 64.3552 293.322C64.2725 291.351 53.9326 289.214 52.576 290.043C51.1202 290.92 53.4363 295.475 56.712 296.386Z" stroke="#3F2A25" stroke-linecap="round" stroke-linejoin="round"/>
<path d="M59.3425 302.431C60.1531 301.57 57.7708 297.81 57.9362 296.667" stroke="#3F2A25" stroke-linecap="round" stroke-linejoin="round"/>
<path d="M161.004 193.566C172.585 172.681 177.945 110.555 186.349 64.2461C190.75 39.9489 213.663 11.892 227.626 17.5564C246.353 25.1586 266.586 87.7979 250.671 129.005C236.824 164.863 200.477 197.839 197.103 214.137" stroke="#3F2A25" stroke-linecap="round" stroke-linejoin="round"/>
<path d="M202.165 61.8613C192.437 121.851 205.308 165.261 196.209 219.884" stroke="#3F2A25" stroke-linecap="round" stroke-linejoin="round"/>
<path d="M112.713 177.948C105.185 157.957 92.612 130.728 89.6507 104.741C84.6379 60.8839 116.7 5.11797 135.096 2.3189C148.844 0.232028 163.006 33.0423 161.517 57.6873C159.168 96.4602 152.567 145.187 153.526 173.989" stroke="#3F2A25" stroke-linecap="round" stroke-linejoin="round"/>
<path d="M66.0593 270.466C64.5704 268.66 63.8755 268.197 62.1384 266.855" stroke="#3F2A25" stroke-linecap="round" stroke-linejoin="round"/>
<path d="M2.46497 281.099C16.8911 277.008 38.4973 276.594 56.1661 280.039" stroke="#3F2A25" stroke-linecap="round" stroke-linejoin="round"/>
<path d="M48.7545 301.62C41.6903 303.276 24.6502 308.062 17.189 310.994" stroke="#3F2A25" stroke-linecap="round" stroke-linejoin="round"/>
<path d="M139.844 296.949C160.408 288.072 186.829 286.183 205.738 290.39" stroke="#3F2A25" stroke-linecap="round" stroke-linejoin="round"/>
<path d="M192.785 321.081C174.107 314.986 156.719 312.419 141.036 314.091" stroke="#3F2A25" stroke-linecap="round" stroke-linejoin="round"/>
<path d="M56.5135 303.558C57.1588 308.493 63.2799 313.86 66.324 313.876C70.9066 313.893 71.039 305.86 70.9066 305.479" stroke="#3F2A25" stroke-linecap="round" stroke-linejoin="round"/>
<path d="M61.9729 302.531C61.6089 304.518 64.1732 312.104 66.3404 313.876" stroke="#3F2A25" stroke-linecap="round" stroke-linejoin="round"/>
</svg>
