<svg width="324" height="391" viewBox="0 0 324 391" fill="none" xmlns="http://www.w3.org/2000/svg">
<path d="M141.056 159.581C140.907 159.548 140.742 159.515 140.593 159.481C109.697 152.722 60.8162 126.495 65.4944 101.527C67.5938 90.3109 71.743 86.053 75.5946 80.9335C77.8924 77.8685 80.0744 74.5052 81.6613 69.1704C90.7697 38.4371 110.408 16.3522 135.7 7.47188C148.511 2.96544 162.777 1.83886 177.853 4.67195C178.696 4.83763 179.539 5.01987 180.366 5.18555C191.623 7.60444 201.723 11.8955 210.352 17.7605" stroke="#3F2A25" stroke-width="2" stroke-linecap="round" stroke-linejoin="round"/>
<path d="M75.5946 80.9336C61.494 63.5043 38.9793 49.5708 20.2831 44.5342" stroke="#3F2A25" stroke-width="2" stroke-linecap="round" stroke-linejoin="round"/>
<path d="M17.5556 77.7524C36.9129 81.0163 53.4931 86.815 66.6019 95.5794" stroke="#3F2A25" stroke-width="2" stroke-linecap="round" stroke-linejoin="round"/>
<path d="M74.8838 275.274C80.4546 252.062 97.2001 219.358 115.797 196.444" stroke="#3F2A25" stroke-width="2" stroke-linecap="round" stroke-linejoin="round"/>
<path d="M140.742 171.377C141.981 168.594 142.081 165.081 141.32 160.856C141.304 160.856 141.304 160.856 141.304 160.856C141.238 160.442 141.155 160.028 141.056 159.597" stroke="#3F2A25" stroke-width="2" stroke-linecap="round" stroke-linejoin="round"/>
<path d="M115.797 196.444C117.483 177.59 121.335 169.372 140.742 171.377" stroke="#3F2A25" stroke-width="2" stroke-linecap="round" stroke-linejoin="round"/>
<path d="M107.085 324.712H107.069C65.4944 326.982 29.4907 328.473 13.9685 325.773C13.4725 325.69 13.0097 325.607 12.5634 325.507C-1.15706 322.641 -0.793382 290.715 12.5634 286.606C13.0427 286.457 13.5056 286.407 13.9685 286.407H14.0015C18.7789 286.507 23.5727 293.482 31.5405 290.931C44.4344 286.789 56.2372 283.16 74.9003 275.274" stroke="#3F2A25" stroke-width="2" stroke-linecap="round" stroke-linejoin="round"/>
<path d="M117.086 328.141C113.152 327.23 109.912 326.087 107.085 324.712H107.069" stroke="#3F2A25" stroke-width="2" stroke-linecap="round" stroke-linejoin="round"/>
<path d="M13.9683 325.772H13.9519" stroke="#3F2A25" stroke-width="2" stroke-linecap="round" stroke-linejoin="round"/>
<path d="M13.9848 286.407H13.9519" stroke="#3F2A25" stroke-width="2" stroke-linecap="round" stroke-linejoin="round"/>
<path d="M117.086 328.142C107.73 340.385 96.9191 357.185 90.935 367.209C90.5548 367.838 90.2407 368.468 90.0093 369.081C85.2485 380.86 102.804 389.691 113.036 387.637C113.962 387.454 115.218 386.875 116.756 385.98H116.772C132.328 376.868 176.101 334.62 186.779 327.297C194.466 322.012 200.401 313.512 203.128 307.101" stroke="#3F2A25" stroke-width="2" stroke-linecap="round" stroke-linejoin="round"/>
<path d="M116.772 385.963L116.756 385.98" stroke="#3F2A25" stroke-width="2" stroke-linecap="round" stroke-linejoin="round"/>
<path d="M90.0093 369.081C90.0093 369.081 89.9597 369.163 89.9432 369.213" stroke="#3F2A25" stroke-width="2" stroke-linecap="round" stroke-linejoin="round"/>
<path d="M203.128 307.084C205.806 314.987 208.335 320.935 210.484 323.354C227.362 342.274 260.572 343.55 277.103 339.723C281.434 338.712 284.608 337.353 286.062 335.879C297.716 324.033 269.482 307.68 240.14 298.287C233.776 296.232 227.048 283.989 220.403 266.841C212.584 246.612 208.087 229.679 204.186 216.79" stroke="#3F2A25" stroke-width="2" stroke-linecap="round" stroke-linejoin="round"/>
<path d="M235.991 48.9248C246.439 69.8665 288.41 142.864 311.999 183.588C324.38 204.96 325.141 241.194 310.842 245.949C292.509 252.029 240.62 220.766 223.329 181.567" stroke="#3F2A25" stroke-width="2" stroke-linecap="round" stroke-linejoin="round"/>
<path d="M210.352 17.7603C220.039 24.2714 230.222 36.2168 235.991 48.9243C236.669 50.4319 237.297 51.9396 237.843 53.4639" stroke="#3F2A25" stroke-width="2" stroke-linecap="round" stroke-linejoin="round"/>
<path d="M204.186 216.79C205.343 216.872 206.434 216.839 207.443 216.69C217.295 215.232 223.048 199.062 223.329 181.566" stroke="#3F2A25" stroke-width="2" stroke-linecap="round" stroke-linejoin="round"/>
<path d="M141.32 160.856H141.304" stroke="#3F2A25" stroke-width="2" stroke-linecap="round" stroke-linejoin="round"/>
<path d="M140.593 159.498V159.481" stroke="#3F2A25" stroke-width="2" stroke-linecap="round" stroke-linejoin="round"/>
<path d="M220.733 145.879C225.99 140.379 230.106 133.536 233.379 125.385C238.256 125.849 243.099 126.611 247.81 127.622C244.108 123.546 240.421 119.503 236.801 115.378C238.173 110.689 239.33 105.669 240.339 100.301C243.645 82.7062 242.471 66.7017 237.628 53.0002C237.082 51.5091 236.47 50.018 235.809 48.5269C246.306 69.568 288.211 142.433 311.767 183.107C324.149 204.48 324.909 240.713 310.61 245.468C292.278 251.549 240.388 220.285 223.097 181.086C222.304 179.263 221.576 177.441 220.932 175.585C218.204 167.782 216.369 159.432 215.063 150.932C217.096 149.408 218.981 147.718 220.733 145.879Z" fill="#BC7171"/>
<path d="M288.492 330.245C288.294 332.035 287.451 333.758 285.831 335.398C284.376 336.873 281.202 338.231 276.871 339.242C260.341 343.086 227.131 341.81 210.269 322.873C208.104 320.454 205.591 314.506 202.897 306.603C200.186 313.015 194.251 321.531 186.548 326.816C175.869 334.155 132.162 376.337 116.574 385.466C130.327 374.382 97.9273 350.442 89.7281 368.749C89.9761 368.086 90.3067 367.424 90.7034 366.744C96.6875 356.704 107.482 339.921 116.838 327.677C112.904 326.733 109.681 325.59 106.854 324.248C65.3124 326.501 29.2922 327.992 13.7699 325.292C30.7634 326.617 29.8873 288.859 13.7369 285.943C18.4977 285.993 23.3081 293.018 31.3089 290.45C44.2028 286.324 56.0057 282.679 74.6522 274.793C80.223 251.582 96.9685 218.877 115.565 195.963C122.574 187.332 129.831 180.092 136.84 175.27C138.543 174.111 139.75 172.653 140.51 170.896C141.75 168.113 141.849 164.601 141.089 160.376V160.359C141.023 159.945 140.94 159.531 140.841 159.117C142.295 159.415 143.717 159.697 145.089 159.912C153.751 161.304 161.653 162.132 168.844 162.381C169.587 167.815 169.125 173.995 174.266 179.164C176.448 181.351 185.374 184.996 192.218 191.159C197.127 195.566 200.285 204.148 203.971 216.309C207.872 229.215 212.385 246.131 220.204 266.36C226.833 283.508 233.561 295.768 239.925 297.806C265.217 305.891 289.666 319.162 288.509 330.245H288.492Z" fill="#BC7171"/>
<path d="M236.801 115.378C240.421 119.503 244.108 123.546 247.81 127.622C243.099 126.611 238.256 125.849 233.379 125.385C234.652 122.254 235.776 118.907 236.801 115.378Z" fill="#BC7171"/>
<path d="M116.458 106.299C120.673 107.492 124.228 105.835 124.112 103.234C124.013 101.262 113.681 99.1248 112.342 99.9532C110.887 100.848 113.202 105.387 116.458 106.299ZM233.379 125.385C230.106 133.536 225.99 140.379 220.733 145.879C218.981 147.718 217.097 149.408 215.063 150.932C204.17 159.233 189.292 163.11 168.827 162.381C161.636 162.132 153.735 161.304 145.073 159.912C143.701 159.697 142.279 159.415 140.824 159.117C140.675 159.084 140.51 159.051 140.361 159.001C109.466 152.241 60.6012 126.014 65.2793 101.047C67.3787 89.8303 71.5114 85.5724 75.363 80.4529C77.6608 77.3879 79.8428 74.0246 81.4298 68.6898C90.5381 37.9565 110.193 15.8882 135.468 7.00788C148.296 2.48487 162.545 1.35825 177.621 4.20791C178.464 4.35702 179.308 4.53927 180.134 4.70495C191.408 7.14042 201.492 11.4149 210.121 17.2799C219.791 23.791 229.99 35.7364 235.76 48.4439C235.776 48.4771 235.793 48.4936 235.809 48.5268C236.47 50.0179 237.082 51.509 237.628 53.0001C242.471 66.7017 243.645 82.7061 240.339 100.301C239.33 105.669 238.173 110.689 236.801 115.378C235.776 118.907 234.652 122.253 233.379 125.385ZM176.2 71.8708C176.464 70.5454 173.505 68.3253 170.464 68.1928C166.43 68.0271 163.174 71.5394 163.653 72.898C164.397 75.0684 175.704 74.2731 176.2 71.8708ZM129.418 59.7598C131.038 58.6331 130.823 52.4202 126.658 50.4983C123.781 49.1729 119.93 50.2995 119.434 52.0557C118.607 55.0545 127.186 61.3171 129.418 59.7598Z" fill="#BC7171"/>
<path d="M220.932 175.585C221.576 177.441 222.304 179.263 223.097 181.085C222.816 198.581 217.063 214.751 207.211 216.209C206.203 216.358 205.112 216.391 203.955 216.309C200.268 204.148 197.111 195.566 192.201 191.159C185.358 184.996 176.431 181.351 174.249 179.164C169.108 173.995 169.571 167.815 168.827 162.38C189.292 163.109 204.17 159.233 215.063 150.932C216.369 159.431 218.204 167.782 220.932 175.585Z" fill="#BC7171"/>
<path d="M170.464 68.1922C173.505 68.3247 176.464 70.5448 176.2 71.8702C175.704 74.2726 164.397 75.0678 163.653 72.8974C163.174 71.5389 166.43 68.0265 170.464 68.1922Z" fill="#BC7171"/>
<path d="M140.51 170.897C139.75 172.653 138.543 174.111 136.84 175.27C129.831 180.092 122.574 187.332 115.565 195.947C117.252 177.109 121.103 168.892 140.51 170.897Z" fill="#BC7171"/>
<path d="M126.658 50.4981C130.823 52.42 131.038 58.6329 129.418 59.7596C127.186 61.3169 118.607 55.0543 119.434 52.0555C119.93 50.2993 123.781 49.1727 126.658 50.4981Z" fill="#BC7171"/>
<path d="M124.112 103.234C124.228 105.835 120.673 107.492 116.458 106.299C113.202 105.387 110.887 100.848 112.342 99.9532C113.681 99.1248 124.013 101.262 124.112 103.234Z" fill="#BC7171"/>
<path d="M89.7281 368.749C97.9273 350.441 130.327 374.382 116.574 385.466L116.541 385.499C115.003 386.394 113.731 386.973 112.805 387.156C102.605 389.21 85.1491 380.446 89.7281 368.749ZM111.367 377.348C111.879 376.254 111.582 375.045 110.705 374.63C109.829 374.233 108.722 374.796 108.209 375.89C107.697 376.983 107.994 378.193 108.871 378.607C109.747 379.004 110.854 378.441 111.367 377.348ZM106.408 371.963C106.903 370.87 106.622 369.644 105.746 369.246C104.87 368.832 103.763 369.395 103.25 370.488C102.738 371.582 103.035 372.808 103.911 373.206C104.771 373.62 105.895 373.057 106.408 371.963ZM104.143 380.065C104.655 378.971 103.68 377.447 101.961 376.652C100.258 375.856 98.4563 376.088 97.9438 377.182C97.4314 378.292 98.4067 379.816 100.126 380.611C101.829 381.407 103.63 381.175 104.143 380.065ZM98.324 371.284C98.82 370.19 98.5389 368.964 97.6628 368.567C96.7867 368.152 95.6792 368.716 95.1667 369.809C94.6543 370.919 94.9518 372.129 95.8279 372.526C96.6875 372.941 97.8116 372.377 98.324 371.284Z" fill="#BC7171"/>
<path d="M110.706 374.631C111.582 375.045 111.879 376.255 111.367 377.348C110.854 378.442 109.747 379.005 108.871 378.607C107.994 378.193 107.697 376.984 108.209 375.89C108.722 374.797 109.829 374.233 110.706 374.631Z" fill="#BC7171"/>
<path d="M105.746 369.246C106.622 369.644 106.903 370.87 106.407 371.963C105.895 373.057 104.771 373.62 103.911 373.206C103.035 372.808 102.738 371.582 103.25 370.489C103.763 369.395 104.87 368.832 105.746 369.246Z" fill="#BC7171"/>
<path d="M101.961 376.652C103.68 377.447 104.655 378.972 104.143 380.065C103.63 381.175 101.829 381.407 100.126 380.612C98.4067 379.816 97.4314 378.292 97.9438 377.182C98.4563 376.089 100.258 375.857 101.961 376.652Z" fill="#BC7171"/>
<path d="M97.663 368.567C98.5391 368.965 98.8201 370.191 98.3242 371.285C97.8117 372.378 96.6877 372.941 95.8281 372.527C94.952 372.129 94.6544 370.92 95.1669 369.81C95.6793 368.716 96.7868 368.153 97.663 368.567Z" fill="#BC7171"/>
<path d="M18.9937 299.91C19.7706 299.91 20.3988 300.971 20.3988 302.279C20.3988 303.588 19.7706 304.665 18.9937 304.665C18.2167 304.665 17.6051 303.588 17.6051 302.279C17.6051 300.971 18.2167 299.91 18.9937 299.91Z" fill="#BC7171"/>
<path d="M13.7369 285.943C29.8873 288.859 30.7634 326.617 13.77 325.292H13.7204C13.241 325.209 12.7781 325.126 12.3318 325.027C-1.3886 322.177 -1.04146 290.234 12.3318 286.142C12.7947 285.993 13.2575 285.943 13.7204 285.943H13.7369ZM20.3987 302.279C20.3987 300.97 19.7706 299.91 18.9936 299.91C18.2167 299.91 17.6051 300.97 17.6051 302.279C17.6051 303.588 18.2167 304.665 18.9936 304.665C19.7706 304.665 20.3987 303.588 20.3987 302.279ZM15.3073 296.994C15.3073 295.155 14.5634 293.647 13.6543 293.647C12.7451 293.647 12.0177 295.155 12.0177 296.994C12.0177 298.833 12.7616 300.341 13.6543 300.341C14.5469 300.341 15.3073 298.85 15.3073 296.994ZM15.3073 312.27C15.3073 309.586 14.0014 307.399 12.3814 307.399C10.7614 307.399 9.45549 309.586 9.45549 312.27C9.45549 314.954 10.7614 317.124 12.3814 317.124C14.0014 317.124 15.3073 314.954 15.3073 312.27ZM9.35631 300.341C9.35631 299.032 8.72813 297.972 7.95119 297.972C7.17426 297.972 6.5461 299.032 6.5461 300.341C6.5461 301.65 7.17426 302.727 7.95119 302.727C8.72813 302.727 9.35631 301.666 9.35631 300.341Z" fill="#BC7171"/>
<path d="M13.6542 293.647C14.5634 293.647 15.3073 295.155 15.3073 296.994C15.3073 298.833 14.5634 300.341 13.6542 300.341C12.7451 300.341 12.0177 298.85 12.0177 296.994C12.0177 295.139 12.7616 293.647 13.6542 293.647Z" fill="#BC7171"/>
<path d="M12.3814 307.398C14.0014 307.398 15.3073 309.585 15.3073 312.269C15.3073 314.953 14.0014 317.124 12.3814 317.124C10.7614 317.124 9.45551 314.953 9.45551 312.269C9.45551 309.585 10.7614 307.398 12.3814 307.398Z" fill="#BC7171"/>
<path d="M7.95118 297.972C8.72812 297.972 9.35629 299.032 9.35629 300.341C9.35629 301.65 8.72812 302.727 7.95118 302.727C7.17424 302.727 6.54608 301.666 6.54608 300.341C6.54608 299.015 7.17424 297.972 7.95118 297.972Z" fill="#BC7171"/>
<path d="M247.91 127.953C246.438 126.33 244.967 124.706 243.496 123.099C247.166 107.608 251.91 90.5597 255.2 84.3965H255.216C272.474 115.196 296.212 156.417 311.866 183.439C324.248 204.811 325.008 241.045 310.709 245.8C310.313 245.932 309.899 246.048 309.47 246.131C316.462 232.778 308.494 208.97 301.386 195.533C284.591 167.766 265.961 147.785 247.91 127.953Z" fill="#B27967"/>
<path d="M237.71 153.467C238.09 150.071 238.619 146.542 239.297 142.831C240.091 138.424 241.248 132.874 242.62 126.926C244.405 127.241 246.157 127.572 247.91 127.953C265.961 147.785 284.591 167.765 301.386 195.533C308.494 208.969 316.462 232.777 309.47 246.131C297.154 248.931 272.391 237.466 251.662 218.86C244.389 209.732 233.297 190.728 237.71 153.467Z" fill="#FCB9B9"/>
<path d="M240.008 298.138C265.267 306.239 289.715 319.477 288.591 330.577H288.575C280.872 325.773 277.367 322.873 271.697 320.471C266.672 316.279 262.027 312.436 257.001 311.309C250.389 309.818 239.396 321.482 229.908 318.168C219.659 314.573 230.023 303.522 228.767 300.093C225.378 290.798 213.625 267.404 199.872 204.182C201.277 207.777 202.616 211.935 204.054 216.641C207.939 229.547 212.451 246.463 220.27 266.692C226.916 283.856 233.644 296.1 240.008 298.138Z" fill="#935D51"/>
<path d="M288.575 330.577H288.591C288.409 332.366 287.55 334.106 285.93 335.746C285.5 336.177 284.938 336.591 284.227 336.989C287.467 330.71 275.846 323.917 271.697 320.471C277.367 322.873 280.872 325.772 288.575 330.577Z" fill="#A06858"/>
<path d="M120.921 323.006C113.912 322.691 80.4875 307.598 80.4875 281.719C80.4875 260.694 96.6048 230.11 95.332 226.399C101.465 215.63 108.424 205.225 115.665 196.295C122.674 187.68 129.931 180.44 136.94 175.619C138.642 174.442 139.849 172.984 140.609 171.245C141.37 169.555 141.7 167.567 141.651 165.313H141.783C148.858 167.666 162.595 168.279 169.059 167.732L169.439 167.683C169.869 171.725 170.712 175.867 174.348 179.496C176.53 181.682 185.44 185.344 192.301 191.491C195.309 194.191 197.656 198.466 199.872 204.182C213.625 267.404 225.378 290.798 228.767 300.093C230.023 303.522 219.659 314.573 229.908 318.168C239.396 321.482 250.389 309.818 257.001 311.309C262.027 312.436 266.672 316.279 271.697 320.471C275.846 323.917 287.467 330.71 284.227 336.989C282.525 337.983 280.029 338.861 276.97 339.574C260.44 343.417 227.23 342.142 210.352 323.205C208.203 320.786 205.674 314.838 202.996 306.952C194.929 283.276 185.424 242.171 179.886 226.25C189.16 277.776 194.797 287.783 188.846 301.285C181.473 317.986 162.793 334.653 129.65 368.054C126.823 370.903 123.649 374.78 119.963 378.243C118.706 367.01 96.5552 354.418 89.8769 368.948C90.1083 368.335 90.4224 367.706 90.8026 367.076C96.7867 357.036 107.581 340.253 116.937 328.009C118.293 326.237 119.615 324.547 120.905 323.006H120.921ZM145.701 346.101C147.056 342.539 142.709 337.569 135.997 335.001C129.286 332.449 122.74 333.261 121.401 336.84C120.045 340.402 124.376 345.356 131.088 347.924C137.799 350.475 144.345 349.663 145.701 346.101Z" fill="#B27967"/>
<path d="M255.216 84.3967H255.199C251.91 90.5599 247.166 107.608 243.496 123.099C241.281 120.647 239.082 118.195 236.9 115.71C238.272 111.038 239.429 106.001 240.438 100.65C243.727 83.0381 242.57 67.0502 237.71 53.3321C237.165 51.8078 236.536 50.3001 235.859 48.7925C239.38 55.8338 246.455 68.7733 255.216 84.3967Z" fill="#935D51"/>
<path d="M243.496 123.099C243.198 124.391 242.901 125.667 242.62 126.926C239.611 126.412 236.553 126.015 233.495 125.716C234.751 122.569 235.875 119.238 236.9 115.709C239.082 118.195 241.281 120.647 243.496 123.099Z" fill="#EAA0A0"/>
<path d="M237.71 53.3318C242.57 67.0499 243.727 83.0379 240.438 100.649C239.429 106.001 238.272 111.037 236.9 115.71C235.875 119.238 234.751 122.569 233.495 125.717C228.337 125.236 223.163 125.07 218.105 125.319C227.792 110.159 235.28 88.4721 231.247 66.9174C226.37 40.8562 206.071 17.6116 189.193 7.45557C196.896 9.92417 203.955 13.3537 210.22 17.6282C219.907 24.1393 230.089 36.0847 235.859 48.7922C236.536 50.2999 237.165 51.8076 237.71 53.3318Z" fill="#935D51"/>
<path d="M242.62 126.926C241.248 132.874 240.091 138.424 239.297 142.831C238.619 146.542 238.09 150.071 237.71 153.467C232.04 150.518 226.42 148.083 220.832 146.211C226.073 140.71 230.205 133.868 233.495 125.716C236.553 126.015 239.611 126.412 242.62 126.926Z" fill="#EAA0A0"/>
<path d="M237.71 153.468C233.296 190.729 244.389 209.732 251.662 218.861C239.843 208.274 229.346 195.351 223.196 181.418C222.403 179.595 221.675 177.773 221.031 175.917C218.303 168.114 216.468 159.763 215.162 151.264C217.179 149.74 219.064 148.05 220.832 146.211C226.42 148.083 232.04 150.519 237.71 153.468Z" fill="#EAA0A0"/>
<path d="M218.105 125.319C213.443 132.658 208.236 138.457 203.607 141.969C203.211 142.284 202.814 142.566 202.417 142.831C172.199 163.524 140.923 159.449 130.443 156.665C100.076 147.221 61.1632 123.795 65.362 101.395C67.0811 92.1833 70.1889 87.6768 73.3628 83.5183C75.1481 83.1704 77.6607 83.4686 79.7601 83.187C79.7766 83.2035 79.7932 83.2035 79.8097 83.2201C83.3473 85.5064 87.0997 85.9206 88.4883 84.0319C90.0091 82.0106 88.1907 78.0675 84.4218 75.251C84.1738 75.0687 83.9093 74.8865 83.6613 74.7042C83.182 71.838 82.3389 68.7564 82.4877 65.973C91.9597 36.8303 111.119 15.9217 135.567 7.33956C148.379 2.83312 162.645 1.70653 177.721 4.53962C178.564 4.7053 179.407 4.87098 180.233 5.05322C183.308 5.71593 186.283 6.51119 189.176 7.43899C189.176 7.43899 189.193 7.43898 189.193 7.45555C206.071 17.6116 226.37 40.8562 231.247 66.9174C235.28 88.4721 227.792 110.159 218.105 125.319ZM116.557 106.647C120.773 107.84 124.31 106.183 124.194 103.565C124.112 101.594 113.78 99.4731 112.441 100.285C110.986 101.18 113.301 105.719 116.557 106.647ZM102.126 109.298C102.572 110.358 106.688 116.273 109.813 117.913C119.202 122.883 130.641 122.386 131.435 122.154L131.468 122.105C124.922 118.543 117.913 113.092 115.152 111.766C111.664 110.093 105.845 110.64 102.126 109.298ZM203.955 132.178C204.781 129.245 200.516 125.451 194.4 123.712C188.3 121.956 182.68 122.917 181.837 125.832C181.01 128.765 185.275 132.559 191.391 134.299C197.491 136.055 203.112 135.094 203.955 132.178ZM195.21 116.289C198.218 105.603 189.854 93.227 181.192 91.1229C170.678 88.5715 159.719 98.8932 157.123 111.187C170.315 110.275 183.622 108.734 195.21 116.289ZM176.299 72.2191C176.563 70.8936 173.604 68.657 170.546 68.541C166.529 68.3588 163.273 71.8711 163.736 73.2297C164.496 75.4001 175.803 74.6048 176.299 72.2191ZM145.816 89.2839C146.246 84.3301 120.343 75.6486 117.367 80.2047C115.797 82.5905 120.227 88.9194 125.451 91.885C134.228 96.8554 145.552 92.4649 145.816 89.2839ZM129.517 60.0914C131.121 58.9648 130.922 52.7519 126.757 50.83C123.88 49.5046 120.012 50.6478 119.533 52.404C118.706 55.4028 127.286 61.6488 129.517 60.0914ZM104.391 89.8803C110.491 78.5148 109.681 64.2665 104.093 61.0855C98.7869 58.0536 92.5713 64.7635 88.7032 70.7445C93.4475 73.4948 98.7538 80.4201 104.391 89.8803Z" fill="#B27967"/>
<path d="M218.105 125.319C223.163 125.07 228.337 125.236 233.495 125.716C230.205 133.868 226.073 140.71 220.832 146.211C216.32 144.67 211.84 143.494 207.41 142.682L203.607 141.969C208.236 138.457 213.443 132.658 218.105 125.319Z" fill="#935D51"/>
<path d="M221.031 175.917C221.675 177.773 222.403 179.595 223.196 181.418C222.915 198.913 217.163 215.083 207.31 216.541C206.302 216.69 205.211 216.724 204.054 216.641C202.616 211.935 201.277 207.777 199.872 204.182C197.656 198.466 195.309 194.191 192.301 191.491C185.44 185.344 176.53 181.683 174.348 179.496C170.712 175.867 169.869 171.725 169.439 167.683C169.257 165.993 169.141 164.336 168.926 162.729C189.391 163.442 204.269 159.565 215.162 151.264C216.468 159.763 218.303 168.114 221.031 175.917Z" fill="#EAA0A0"/>
<path d="M215.162 151.264C204.269 159.565 189.391 163.442 168.926 162.713C161.719 162.464 153.817 161.636 145.155 160.244C143.783 160.029 142.378 159.764 140.923 159.449C140.775 159.416 140.609 159.382 140.461 159.349C137.287 158.653 133.914 157.759 130.443 156.665C140.923 159.449 172.199 163.524 202.417 142.831C202.814 142.566 203.211 142.285 203.607 141.97L207.41 142.682C211.84 143.494 216.32 144.67 220.832 146.211C219.064 148.05 217.179 149.74 215.162 151.264Z" fill="#935D51"/>
<path d="M194.4 123.712C200.516 125.452 204.781 129.246 203.955 132.178C203.112 135.094 197.491 136.055 191.391 134.299C185.275 132.559 181.01 128.765 181.837 125.833C182.68 122.917 188.3 121.956 194.4 123.712Z" fill="#E08F82"/>
<path d="M202.996 306.935C200.268 313.363 194.334 321.863 186.647 327.164C175.968 334.487 132.162 376.752 116.623 385.831C119.334 383.661 120.277 380.993 119.963 378.243C123.649 374.78 126.823 370.903 129.65 368.054C162.793 334.653 181.473 317.986 188.846 301.286C194.797 287.783 189.16 277.776 179.886 226.25C185.424 242.172 194.929 283.276 202.996 306.935Z" fill="#935D51"/>
<path d="M181.192 91.123C189.854 93.2271 198.219 105.603 195.21 116.29C183.622 108.735 170.315 110.275 157.123 111.187C159.719 98.8933 170.679 88.5716 181.192 91.123Z" fill="#935D51"/>
<path d="M170.546 68.541C173.604 68.657 176.563 70.8936 176.299 72.2191C175.803 74.6048 164.496 75.4001 163.736 73.2297C163.273 71.8711 166.529 68.3588 170.546 68.541Z" fill="#EAB5A7"/>
<path d="M141.171 160.691C141.105 160.277 141.023 159.863 140.923 159.449C142.378 159.764 143.783 160.029 145.155 160.244C153.817 161.636 161.719 162.464 168.926 162.713C169.141 164.336 169.257 165.993 169.439 167.683L169.059 167.733C162.595 168.279 148.858 167.666 141.783 165.314H141.651C141.651 163.889 141.485 162.348 141.171 160.691Z" fill="#935D51"/>
<path d="M135.997 335.001C142.709 337.569 147.056 342.539 145.701 346.102C144.345 349.664 137.799 350.475 131.088 347.924C124.376 345.356 120.045 340.402 121.401 336.84C122.74 333.261 129.286 332.45 135.997 335.001Z" fill="#A06858"/>
<path d="M117.367 80.205C120.343 75.6489 146.246 84.3304 145.816 89.2841C145.552 92.4652 134.229 96.8556 125.451 91.8853C120.227 88.9197 115.797 82.5908 117.367 80.205Z" fill="#935D51"/>
<path d="M140.609 171.245C139.849 172.984 138.642 174.442 136.94 175.619C129.931 180.44 122.674 187.68 115.665 196.295C117.351 177.441 121.202 169.24 140.609 171.245Z" fill="#935D51"/>
<path d="M131.468 122.105L131.435 122.154C130.641 122.386 119.202 122.883 109.813 117.913C106.688 116.273 102.572 110.358 102.126 109.298C105.845 110.64 111.664 110.093 115.152 111.766C117.913 113.092 124.922 118.543 131.468 122.105Z" fill="#935D51"/>
<path d="M126.757 50.8299C130.922 52.7518 131.121 58.9647 129.517 60.0913C127.286 61.6487 118.706 55.4027 119.533 52.4039C120.012 50.6477 123.88 49.5045 126.757 50.8299Z" fill="#EAB5A7"/>
<path d="M124.194 103.565C124.31 106.183 120.773 107.84 116.557 106.647C113.301 105.719 110.986 101.179 112.441 100.285C113.78 99.4729 124.112 101.594 124.194 103.565Z" fill="#FCB9B9"/>
<path d="M119.963 378.243C120.277 380.993 119.334 383.66 116.623 385.831C115.086 386.742 113.83 387.322 112.904 387.504C109.697 388.15 105.796 387.719 102.076 386.477C109.218 386.725 115.053 382.849 119.963 378.243Z" fill="#EAA0A0"/>
<path d="M74.7514 275.125C78.1567 260.959 85.7277 243.248 95.332 226.399C96.6048 230.11 80.4875 260.694 80.4875 281.719C80.4875 307.598 113.912 322.691 120.921 323.006C119.632 324.547 118.31 326.237 116.954 328.009C113.02 327.065 109.796 325.938 106.97 324.58C65.4281 326.833 29.441 328.324 13.8857 325.64C30.8791 326.932 30.003 289.191 13.8526 286.275C18.6299 286.341 23.4238 293.366 31.4081 290.798C37.0946 288.975 42.5497 287.252 48.5008 285.198C48.3024 286.971 48.4181 288.975 48.914 291.063C50.3026 296.829 54.0385 300.871 57.2455 300.093C60.4689 299.314 61.9732 294.012 60.5846 288.263C59.973 285.745 58.9316 283.558 57.6587 281.951C62.7667 280.062 68.3706 277.842 74.7679 275.125H74.7514Z" fill="#935D51"/>
<path d="M110.805 374.979C111.681 375.377 111.962 376.586 111.466 377.696C110.953 378.79 109.829 379.353 108.97 378.939C108.094 378.541 107.796 377.315 108.309 376.222C108.821 375.128 109.929 374.565 110.805 374.979Z" fill="#B27967"/>
<path d="M105.845 369.578C106.705 369.976 107.003 371.202 106.49 372.295C105.994 373.389 104.87 373.952 103.994 373.554C103.134 373.14 102.837 371.931 103.349 370.837C103.845 369.727 104.969 369.18 105.845 369.578Z" fill="#B27967"/>
<path d="M104.093 61.0857C109.681 64.2667 110.491 78.515 104.391 89.8805C98.7538 80.4203 93.4475 73.4949 88.7032 70.7447C92.5713 64.7637 98.7869 58.0538 104.093 61.0857Z" fill="#935D51"/>
<path d="M102.06 376.984C103.763 377.779 104.738 379.32 104.242 380.413C103.73 381.507 101.928 381.755 100.225 380.96C98.5059 380.165 97.5306 378.624 98.043 377.53C98.5555 376.437 100.341 376.188 102.06 376.984Z" fill="#B27967"/>
<path d="M119.963 378.243C115.053 382.848 109.218 386.725 102.076 386.477C93.8773 383.743 86.6038 377.05 89.8769 368.948C96.5553 354.418 118.706 367.01 119.963 378.243ZM111.466 377.696C111.962 376.586 111.681 375.376 110.805 374.979C109.929 374.565 108.821 375.128 108.309 376.221C107.796 377.315 108.094 378.541 108.97 378.938C109.829 379.353 110.953 378.789 111.466 377.696ZM106.49 372.295C107.003 371.201 106.705 369.975 105.845 369.578C104.969 369.18 103.845 369.727 103.349 370.837C102.837 371.93 103.134 373.14 103.994 373.554C104.87 373.952 105.994 373.388 106.49 372.295ZM104.242 380.413C104.738 379.319 103.763 377.779 102.06 376.983C100.341 376.188 98.5555 376.437 98.043 377.53C97.5306 378.624 98.5059 380.164 100.225 380.96C101.928 381.755 103.73 381.506 104.242 380.413ZM98.4067 371.615C98.9191 370.522 98.6216 369.313 97.762 368.898C96.8859 368.501 95.7618 369.064 95.2659 370.158C94.7534 371.251 95.051 372.46 95.9106 372.875C96.7867 373.272 97.9108 372.709 98.4067 371.615Z" fill="#FCB9B9"/>
<path d="M97.762 368.899C98.6216 369.313 98.9191 370.522 98.4067 371.616C97.9107 372.709 96.7867 373.272 95.9105 372.875C95.051 372.461 94.7534 371.251 95.2659 370.158C95.7618 369.064 96.8858 368.501 97.762 368.899Z" fill="#B27967"/>
<path d="M84.4218 75.2508C88.1908 78.0674 90.0091 82.0105 88.4883 84.0318C87.0997 85.9205 83.3473 85.5063 79.8097 83.2199C79.7932 83.2034 79.7767 83.2034 79.7601 83.1868C81.1818 83.0046 82.405 82.5738 83.0828 81.5135C84.2399 79.7076 84.0912 77.3052 83.6614 74.7041C83.9093 74.8863 84.1738 75.0686 84.4218 75.2508Z" fill="#E08F82"/>
<path d="M83.6614 74.704C84.0912 77.3052 84.2399 79.7075 83.0828 81.5134C82.405 82.5737 81.1818 83.0045 79.7601 83.1868C79.4791 83.0045 79.2146 82.8057 78.9336 82.6069C77.8095 81.7619 76.8673 80.8341 76.1234 79.8732C77.5616 77.9016 78.9171 75.7478 80.1073 72.9976C81.2644 73.3455 82.4712 73.9254 83.6614 74.704Z" fill="#D17E75"/>
<path d="M82.4877 65.9731C82.3389 68.7565 83.182 71.8381 83.6614 74.7044C82.4712 73.9257 81.2644 73.3458 80.1073 72.9979C80.6197 71.805 81.0991 70.4796 81.5289 69.0216C81.8265 67.9944 82.1571 66.9672 82.4877 65.9731Z" fill="#935D51"/>
<path d="M78.9336 82.6072C79.2146 82.806 79.4791 83.0048 79.7601 83.1871C77.6608 83.4687 75.1481 83.1705 73.3628 83.5184C74.0571 82.6072 74.7679 81.7125 75.4622 80.7847C75.6771 80.4865 75.9085 80.1883 76.1234 79.8735C76.8673 80.8345 77.8095 81.7623 78.9336 82.6072Z" fill="#935D51"/>
<path d="M60.5681 288.263C61.9566 294.012 60.4524 299.314 57.2289 300.092C54.0219 300.871 50.286 296.829 48.8975 291.063C48.4015 288.975 48.2858 286.971 48.4842 285.198C51.3936 284.221 54.4187 283.144 57.6422 281.951C58.915 283.558 59.9564 285.745 60.5681 288.263Z" fill="#824F46"/>
<path d="M19.0928 300.242C19.8697 300.242 20.4979 301.302 20.4979 302.627C20.4979 303.953 19.8697 304.997 19.0928 304.997C18.3159 304.997 17.6877 303.936 17.6877 302.627C17.6877 301.319 18.3159 300.242 19.0928 300.242Z" fill="#B27967"/>
<path d="M13.8361 286.275C29.9865 289.191 30.8626 326.932 13.8691 325.64H13.8195C13.3236 325.557 12.8608 325.474 12.4144 325.375C-1.30598 322.509 -0.942308 290.583 12.4144 286.474C12.8773 286.325 13.3567 286.275 13.8195 286.275H13.8361ZM20.4979 302.627C20.4979 301.302 19.8697 300.242 19.0928 300.242C18.3159 300.242 17.6877 301.302 17.6877 302.627C17.6877 303.953 18.3159 304.996 19.0928 304.996C19.8697 304.996 20.4979 303.936 20.4979 302.627ZM15.4065 297.342C15.4065 295.487 14.6626 293.979 13.7534 293.979C12.8442 293.979 12.1169 295.487 12.1169 297.342C12.1169 299.198 12.8442 300.689 13.7534 300.689C14.6626 300.689 15.4065 299.181 15.4065 297.342ZM15.4065 312.601C15.4065 309.917 14.084 307.747 12.4806 307.747C10.8771 307.747 9.53809 309.917 9.53809 312.601C9.53809 315.285 10.8606 317.472 12.4806 317.472C14.1006 317.472 15.4065 315.285 15.4065 312.601ZM9.43891 300.689C9.43891 299.38 8.81075 298.303 8.03381 298.303C7.25687 298.303 6.64523 299.38 6.64523 300.689C6.64523 301.998 7.2734 303.058 8.03381 303.058C8.79422 303.058 9.43891 301.998 9.43891 300.689Z" fill="#FCB9B9"/>
<path d="M13.7534 293.979C14.6626 293.979 15.4065 295.487 15.4065 297.342C15.4065 299.198 14.6626 300.689 13.7534 300.689C12.8442 300.689 12.1169 299.181 12.1169 297.342C12.1169 295.503 12.8442 293.979 13.7534 293.979Z" fill="#B27967"/>
<path d="M12.4805 307.747C14.084 307.747 15.4065 309.917 15.4065 312.601C15.4065 315.285 14.084 317.472 12.4805 317.472C10.8771 317.472 9.53809 315.285 9.53809 312.601C9.53809 309.917 10.8605 307.747 12.4805 307.747Z" fill="#B27967"/>
<path d="M8.03384 298.303C8.81078 298.303 9.43894 299.38 9.43894 300.689C9.43894 301.998 8.81078 303.058 8.03384 303.058C7.2569 303.058 6.64526 301.998 6.64526 300.689C6.64526 299.38 7.27343 298.303 8.03384 298.303Z" fill="#B27967"/>
<path d="M237.843 53.4641C242.686 67.1656 243.86 83.1701 240.554 100.765C231.379 149.723 208.947 170.665 145.271 160.36C114.937 155.455 60.5518 127.787 65.4779 101.494C68.8336 83.5843 77.3965 83.4186 81.6448 69.1372C90.7532 38.4039 110.408 16.3191 135.683 7.4553C148.495 2.94886 162.761 1.82225 177.836 4.65534C178.68 4.82102 179.523 4.98669 180.349 5.16894C191.623 7.58783 201.707 11.8789 210.336 17.7439" stroke="#3F2A25" stroke-linecap="round" stroke-linejoin="round"/>
<path d="M75.5946 80.9336C61.494 63.5043 38.9793 49.5708 20.2832 44.5342" stroke="#3F2A25" stroke-linecap="round" stroke-linejoin="round"/>
<path d="M17.5557 77.7524C36.913 81.0163 53.4932 86.815 66.602 95.5794" stroke="#3F2A25" stroke-linecap="round" stroke-linejoin="round"/>
<path d="M211.212 126.031C233.429 123.281 259.283 128.897 276.243 138.258" stroke="#3F2A25" stroke-linecap="round" stroke-linejoin="round"/>
<path d="M255.216 164.087C239.016 152.987 223.064 145.631 207.542 142.831" stroke="#3F2A25" stroke-linecap="round" stroke-linejoin="round"/>
<path d="M141.056 159.581C142.692 167.103 141.767 172.537 137.072 175.751C104.804 197.919 67.5277 271.049 73.5779 295.47" stroke="#3F2A25" stroke-linecap="round" stroke-linejoin="round"/>
<path d="M140.742 171.377C121.335 169.372 117.483 177.59 115.797 196.444" stroke="#3F2A25" stroke-linecap="round" stroke-linejoin="round"/>
<path d="M74.8838 275.274C56.2373 283.16 44.4345 286.789 31.524 290.931C22.7463 293.747 17.8036 284.999 12.5469 286.606C-0.826368 290.715 -1.17351 322.641 12.5469 325.507C27.2095 328.573 64.1885 327.048 107.085 324.712" stroke="#3F2A25" stroke-linecap="round" stroke-linejoin="round"/>
<path d="M117.086 328.142C107.995 326.005 102.705 322.741 97.2993 318.151" stroke="#3F2A25" stroke-linecap="round" stroke-linejoin="round"/>
<path d="M13.952 286.407C30.119 289.307 30.9951 327.147 13.952 325.772" stroke="#3F2A25" stroke-linecap="round" stroke-linejoin="round"/>
<path d="M148.61 305.411C143.502 307.266 136.593 308.194 128.129 315.567C118.211 324.215 99.564 352.728 90.935 367.209C83.3806 379.899 102.259 389.79 113.036 387.637C123.814 385.483 175.043 335.349 186.78 327.297C194.483 322.012 200.417 313.496 203.128 307.084" stroke="#3F2A25" stroke-linecap="round" stroke-linejoin="round"/>
<path d="M89.9433 369.213C98.1425 350.889 130.592 374.879 116.756 385.963" stroke="#3F2A25" stroke-linecap="round" stroke-linejoin="round"/>
<path d="M169.059 162.861C169.786 168.296 169.323 174.475 174.481 179.645C176.663 181.831 185.573 185.476 192.433 191.64C202.533 200.719 205.211 227.525 220.403 266.841C227.032 283.989 233.76 296.249 240.124 298.287C269.482 307.68 297.7 324.033 286.046 335.895C279.037 343.02 231.743 347.244 210.468 323.354C200.153 311.773 181.506 219.623 176.564 219.838" stroke="#3F2A25" stroke-linecap="round" stroke-linejoin="round"/>
<path d="M248.059 325.027C261.399 328.672 268.49 330.676 277.103 339.722" stroke="#3F2A25" stroke-linecap="round" stroke-linejoin="round"/>
<path d="M261.911 317.406C275.136 320.752 277.417 323.668 288.707 330.726" stroke="#3F2A25" stroke-linecap="round" stroke-linejoin="round"/>
<path d="M98.8036 105.735C99.8781 111.816 110.111 109.447 115.285 111.915C119.93 114.135 136.543 128.019 142.792 124.971" stroke="#3F2A25" stroke-linecap="round" stroke-linejoin="round"/>
<path d="M129.65 60.2239C131.253 59.0973 131.055 52.8844 126.889 50.9625C124.013 49.6371 120.145 50.7637 119.665 52.5365C118.839 55.5352 127.418 61.7813 129.65 60.2239Z" stroke="#3F2A25" stroke-linecap="round" stroke-linejoin="round"/>
<path d="M163.868 73.3618C163.405 72.0032 166.662 68.4909 170.679 68.6565C173.72 68.7891 176.696 71.0092 176.415 72.3346C175.919 74.7204 164.629 75.5156 163.868 73.3452V73.3618Z" stroke="#3F2A25" stroke-linecap="round" stroke-linejoin="round"/>
<path d="M88.8357 70.8936C93.5965 73.6272 98.8863 80.5692 104.523 90.0128" stroke="#3F2A25" stroke-linecap="round" stroke-linejoin="round"/>
<path d="M157.256 111.319C170.447 110.408 183.754 108.867 195.342 116.422" stroke="#3F2A25" stroke-linecap="round" stroke-linejoin="round"/>
<path d="M116.69 106.779C120.888 107.972 124.443 106.315 124.327 103.714C124.244 101.743 113.913 99.6053 112.557 100.434C111.102 101.312 113.417 105.868 116.69 106.779Z" stroke="#3F2A25" stroke-linecap="round" stroke-linejoin="round"/>
<path d="M114.541 111.485C116.111 110.938 116.541 107.922 116.69 106.779" stroke="#3F2A25" stroke-linecap="round" stroke-linejoin="round"/>
<path d="M215.295 151.396C216.601 159.895 218.436 168.262 221.163 176.066C221.808 177.921 222.535 179.744 223.329 181.566C240.62 220.766 292.509 252.029 310.842 245.949C325.141 241.194 324.38 204.96 311.999 183.587C288.41 142.864 246.439 69.866 235.991 48.9243" stroke="#3F2A25" stroke-linecap="round" stroke-linejoin="round"/>
<path d="M237.033 115.858C240.653 119.984 244.339 124.026 248.042 128.102C266.093 147.934 284.723 167.914 301.518 195.682" stroke="#3F2A25" stroke-linecap="round" stroke-linejoin="round"/>
<path d="M210.352 17.7603C221.18 25.0335 232.652 39.1161 237.859 53.4639" stroke="#3F2A25" stroke-linecap="round" stroke-linejoin="round"/>
<path d="M204.186 216.79C205.343 216.872 206.434 216.839 207.443 216.69C217.295 215.232 223.048 199.062 223.329 181.566" stroke="#3F2A25" stroke-linecap="round" stroke-linejoin="round"/>
<path d="M141.32 160.856H141.304" stroke="#3F2A25" stroke-linecap="round" stroke-linejoin="round"/>
<path d="M140.593 159.498V159.481" stroke="#3F2A25" stroke-linecap="round" stroke-linejoin="round"/>
<path d="M12.5965 317.604C14.2125 317.604 15.5224 315.431 15.5224 312.75C15.5224 310.069 14.2125 307.896 12.5965 307.896C10.9806 307.896 9.67059 310.069 9.67059 312.75C9.67059 315.431 10.9806 317.604 12.5965 317.604Z" stroke="#3F2A25" stroke-linecap="round" stroke-linejoin="round"/>
<path d="M8.16628 303.191C8.9423 303.191 9.57138 302.13 9.57138 300.821C9.57138 299.513 8.9423 298.452 8.16628 298.452C7.39027 298.452 6.76117 299.513 6.76117 300.821C6.76117 302.13 7.39027 303.191 8.16628 303.191Z" stroke="#3F2A25" stroke-linecap="round" stroke-linejoin="round"/>
<path d="M13.8859 300.821C14.7897 300.821 15.5224 299.323 15.5224 297.475C15.5224 295.626 14.7897 294.128 13.8859 294.128C12.982 294.128 12.2493 295.626 12.2493 297.475C12.2493 299.323 12.982 300.821 13.8859 300.821Z" stroke="#3F2A25" stroke-linecap="round" stroke-linejoin="round"/>
<path d="M19.2253 305.129C20.0013 305.129 20.6304 304.068 20.6304 302.76C20.6304 301.451 20.0013 300.391 19.2253 300.391C18.4493 300.391 17.8202 301.451 17.8202 302.76C17.8202 304.068 18.4493 305.129 19.2253 305.129Z" stroke="#3F2A25" stroke-linecap="round" stroke-linejoin="round"/>
<path d="M106.627 372.402C107.134 371.306 106.841 370.09 105.971 369.686C105.101 369.282 103.985 369.842 103.478 370.938C102.971 372.033 103.265 373.249 104.134 373.654C105.004 374.058 106.12 373.498 106.627 372.402Z" stroke="#3F2A25" stroke-linecap="round" stroke-linejoin="round"/>
<path d="M111.603 377.804C112.11 376.709 111.816 375.493 110.946 375.088C110.077 374.684 108.961 375.244 108.454 376.34C107.946 377.436 108.24 378.652 109.11 379.056C109.979 379.46 111.095 378.9 111.603 377.804Z" stroke="#3F2A25" stroke-linecap="round" stroke-linejoin="round"/>
<path d="M98.5437 371.728C99.0509 370.632 98.7571 369.416 97.8875 369.012C97.018 368.608 95.9019 369.168 95.3947 370.264C94.8875 371.359 95.1812 372.575 96.0508 372.98C96.9204 373.384 98.0364 372.824 98.5437 371.728Z" stroke="#3F2A25" stroke-linecap="round" stroke-linejoin="round"/>
<path d="M104.373 380.517C104.88 379.421 103.902 377.887 102.187 377.09C100.473 376.292 98.672 376.534 98.1648 377.63C97.6576 378.726 98.6362 380.26 100.35 381.057C102.065 381.854 103.866 381.612 104.373 380.517Z" stroke="#3F2A25" stroke-linecap="round" stroke-linejoin="round"/>
</svg>
