<?xml version="1.0" encoding="UTF-8"?><svg xmlns="http://www.w3.org/2000/svg" viewBox="0 0 336.39 524.48"><defs><style>.e{fill:#fcb9b9;}.f{fill:#eab5a7;}.g{fill:#a06858;}.h{fill:#bc7171;}.i{fill:#824f46;}.j{stroke-width:2px;}.j,.k{fill:none;stroke:#3f2a25;stroke-linecap:round;stroke-linejoin:round;}.l{fill:#eaa0a0;}.m{fill:#b27967;}.n{fill:#d17e75;}.o{fill:#935d51;}.p{fill:#e08f82;}</style></defs><g id="a"><path class="j" d="M165.33,262.32c-.09-.02-.19-.04-.28-.06-18.69-4.08-48.26-19.91-45.43-34.98,1.27-6.77,3.78-9.34,6.11-12.43,1.39-1.85,2.71-3.88,3.67-7.1,5.51-18.55,17.39-31.88,32.69-37.24h0c7.75-2.72,16.38-3.4,25.5-1.69,.51,.1,1.02,.21,1.52,.31,6.81,1.46,12.92,4.05,18.14,7.59"/><path class="j" d="M125.73,214.85c-8.53-10.52-22.15-18.93-33.46-21.97"/><path class="j" d="M90.62,212.93c11.71,1.97,21.74,5.47,29.67,10.76"/><path class="j" d="M125.3,332.15c3.37-14.01,13.5-33.75,24.75-47.58h0"/><path class="j" d="M165.14,269.44c.75-1.68,.81-3.8,.35-6.35-.01,0-.01,0-.01,0-.04-.25-.09-.5-.15-.76"/><path class="j" d="M150.05,284.57h0c1.02-11.38,3.35-16.34,15.09-15.13"/><path class="j" d="M144.78,361.99h-.01c-25.15,1.37-46.93,2.27-56.32,.64h0c-.3-.05-.58-.1-.85-.16-8.3-1.73-8.08-21,0-23.48,.29-.09,.57-.12,.85-.12h.02c2.89,.06,5.79,4.27,10.61,2.73,7.8-2.5,14.94-4.69,26.23-9.45"/><path class="j" d="M150.83,364.06c-2.38-.55-4.34-1.24-6.05-2.07h-.01"/><line class="j" x1="88.45" y1="362.63" x2="88.44" y2="362.63"/><path class="j" d="M88.46,338.87h-.02"/><path class="j" d="M150.83,364.06c-5.66,7.39-12.2,17.53-15.82,23.58-.23,.38-.42,.76-.56,1.13-2.88,7.11,7.74,12.44,13.93,11.2,.56-.11,1.32-.46,2.25-1h.01c9.41-5.5,35.89-31,42.35-35.42,4.65-3.19,8.24-8.32,9.89-12.19h0"/><line class="j" x1="150.64" y1="398.96" x2="150.63" y2="398.97"/><path class="j" d="M134.45,388.77s-.03,.05-.04,.08"/><path class="j" d="M202.88,351.35h0c1.62,4.77,3.15,8.36,4.45,9.82,10.21,11.42,30.3,12.19,40.3,9.88,2.62-.61,4.54-1.43,5.42-2.32,7.05-7.15-10.03-17.02-27.78-22.69-3.85-1.24-7.92-8.63-11.94-18.98-4.73-12.21-7.45-22.43-9.81-30.21"/><path class="j" d="M222.76,195.53c6.32,12.64,31.71,56.7,45.98,81.28,7.49,12.9,7.95,34.77-.7,37.64-11.09,3.67-42.48-15.2-52.94-38.86"/><path class="j" d="M207.25,176.72c5.86,3.93,12.02,11.14,15.51,18.81,.41,.91,.79,1.82,1.12,2.74"/><path class="j" d="M203.52,296.85c.7,.05,1.36,.03,1.97-.06,5.96-.88,9.44-10.64,9.61-21.2"/><path class="j" d="M165.49,263.09s-.01,0-.01,0"/><line class="j" x1="165.05" y1="262.27" x2="165.05" y2="262.26"/></g><g id="b"><g><path class="h" d="M213.53,254.05c3.18-3.32,5.67-7.45,7.65-12.37,2.95,.28,5.88,.74,8.73,1.35-2.24-2.46-4.47-4.9-6.66-7.39,.83-2.83,1.53-5.86,2.14-9.1,2-10.62,1.29-20.28-1.64-28.55-.33-.9-.7-1.8-1.1-2.7,6.35,12.7,31.7,56.68,45.95,81.23,7.49,12.9,7.95,34.77-.7,37.64-11.09,3.67-42.48-15.2-52.94-38.86-.48-1.1-.92-2.2-1.31-3.32-1.65-4.71-2.76-9.75-3.55-14.88,1.23-.92,2.37-1.94,3.43-3.05Z"/><path class="h" d="M254.52,365.33c-.12,1.08-.63,2.12-1.61,3.11-.88,.89-2.8,1.71-5.42,2.32-10,2.32-30.09,1.55-40.29-9.88-1.31-1.46-2.83-5.05-4.46-9.82-1.64,3.87-5.23,9.01-9.89,12.2-6.46,4.43-32.9,29.89-42.33,35.4,8.32-6.69-11.28-21.14-16.24-10.09,.15-.4,.35-.8,.59-1.21,3.62-6.06,10.15-16.19,15.81-23.58-2.38-.57-4.33-1.26-6.04-2.07-25.13,1.36-46.92,2.26-56.31,.63,10.28,.8,9.75-21.99-.02-23.75,2.88,.03,5.79,4.27,10.63,2.72,7.8-2.49,14.94-4.69,26.22-9.45,3.37-14.01,13.5-33.75,24.75-47.58h0c4.24-5.21,8.63-9.58,12.87-12.49,1.03-.7,1.76-1.58,2.22-2.64,.75-1.68,.81-3.8,.35-6.35,0,0,0-.01,0-.01-.04-.25-.09-.5-.15-.75,.88,.18,1.74,.35,2.57,.48,5.24,.84,10.02,1.34,14.37,1.49,.45,3.28,.17,7.01,3.28,10.13,1.32,1.32,6.72,3.52,10.86,7.24,2.97,2.66,4.88,7.84,7.11,15.18,2.36,7.79,5.09,18,9.82,30.21,4.01,10.35,8.08,17.75,11.93,18.98,15.3,4.88,30.09,12.89,29.39,19.58Z"/><path class="h" d="M223.25,235.64c2.19,2.49,4.42,4.93,6.66,7.39-2.85-.61-5.78-1.07-8.73-1.35,.77-1.89,1.45-3.91,2.07-6.04Z"/><path class="h" d="M150.45,230.16c2.55,.72,4.7-.28,4.63-1.85-.06-1.19-6.31-2.48-7.12-1.98-.88,.54,.52,3.28,2.49,3.83Zm70.73,11.52c-1.98,4.92-4.47,9.05-7.65,12.37-1.06,1.11-2.2,2.13-3.43,3.05-6.59,5.01-15.59,7.35-27.97,6.91-4.35-.15-9.13-.65-14.37-1.49-.83-.13-1.69-.3-2.57-.48h0c-.09-.02-.19-.04-.28-.07-18.69-4.08-48.25-19.91-45.42-34.98,1.27-6.77,3.77-9.34,6.1-12.43,1.39-1.85,2.71-3.88,3.67-7.1,5.51-18.55,17.4-31.87,32.69-37.23h0c7.76-2.73,16.38-3.41,25.5-1.69,.51,.09,1.02,.2,1.52,.3,6.82,1.47,12.92,4.05,18.14,7.59,5.85,3.93,12.02,11.14,15.51,18.81,.01,.02,.02,.03,.03,.05,.4,.9,.77,1.8,1.1,2.7,2.93,8.27,3.64,17.93,1.64,28.55-.61,3.24-1.31,6.27-2.14,9.1-.62,2.13-1.3,4.15-2.07,6.04Zm-34.59-32.3c.16-.8-1.63-2.14-3.47-2.22-2.44-.1-4.41,2.02-4.12,2.84,.45,1.31,7.29,.83,7.59-.62Zm-28.3-7.31c.98-.68,.85-4.43-1.67-5.59-1.74-.8-4.07-.12-4.37,.94-.5,1.81,4.69,5.59,6.04,4.65Z"/><path class="h" d="M213.65,271.98c.39,1.12,.83,2.22,1.31,3.32-.17,10.56-3.65,20.32-9.61,21.2-.61,.09-1.27,.11-1.97,.06-2.23-7.34-4.14-12.52-7.11-15.18-4.14-3.72-9.54-5.92-10.86-7.24-3.11-3.12-2.83-6.85-3.28-10.13,12.38,.44,21.38-1.9,27.97-6.91,.79,5.13,1.9,10.17,3.55,14.88Z"/><path class="h" d="M183.12,207.16c1.84,.08,3.63,1.42,3.47,2.22-.3,1.45-7.14,1.93-7.59,.62-.29-.82,1.68-2.94,4.12-2.84Z"/><path class="h" d="M165,269.15c-.46,1.06-1.19,1.94-2.22,2.64-4.24,2.91-8.63,7.28-12.87,12.48,1.02-11.37,3.35-16.33,15.09-15.12Z"/><path class="h" d="M156.62,196.48c2.52,1.16,2.65,4.91,1.67,5.59-1.35,.94-6.54-2.84-6.04-4.65,.3-1.06,2.63-1.74,4.37-.94Z"/><path class="h" d="M155.08,228.31c.07,1.57-2.08,2.57-4.63,1.85-1.97-.55-3.37-3.29-2.49-3.83,.81-.5,7.06,.79,7.12,1.98Z"/><path class="h" d="M134.28,388.57c4.96-11.05,24.56,3.4,16.24,10.09l-.02,.02c-.93,.54-1.7,.89-2.26,1-6.17,1.24-16.73-4.05-13.96-11.11Zm13.09,5.19c.31-.66,.13-1.39-.4-1.64-.53-.24-1.2,.1-1.51,.76s-.13,1.39,.4,1.64c.53,.24,1.2-.1,1.51-.76Zm-3-3.25c.3-.66,.13-1.4-.4-1.64-.53-.25-1.2,.09-1.51,.75s-.13,1.4,.4,1.64c.52,.25,1.2-.09,1.51-.75Zm-1.37,4.89c.31-.66-.28-1.58-1.32-2.06-1.03-.48-2.12-.34-2.43,.32-.31,.67,.28,1.59,1.32,2.07,1.03,.48,2.12,.34,2.43-.33Zm-3.52-5.3c.3-.66,.13-1.4-.4-1.64-.53-.25-1.2,.09-1.51,.75-.31,.67-.13,1.4,.4,1.64,.52,.25,1.2-.09,1.51-.75Z"/><path class="h" d="M146.97,392.12c.53,.25,.71,.98,.4,1.64s-.98,1-1.51,.76c-.53-.25-.71-.98-.4-1.64s.98-1,1.51-.76Z"/><path class="h" d="M143.97,388.87c.53,.24,.7,.98,.4,1.64-.31,.66-.99,1-1.51,.75-.53-.24-.71-.98-.4-1.64s.98-1,1.51-.75Z"/><path class="h" d="M141.68,393.34c1.04,.48,1.63,1.4,1.32,2.06-.31,.67-1.4,.81-2.43,.33-1.04-.48-1.63-1.4-1.32-2.07,.31-.66,1.4-.8,2.43-.32Z"/><path class="h" d="M139.08,388.46c.53,.24,.7,.98,.4,1.64-.31,.66-.99,1-1.51,.75-.53-.24-.71-.97-.4-1.64,.31-.66,.98-1,1.51-.75Z"/><path class="h" d="M91.49,347.02c.47,0,.85,.64,.85,1.43s-.38,1.44-.85,1.44-.84-.65-.84-1.44,.37-1.43,.84-1.43Z"/><path class="h" d="M88.31,338.59c9.77,1.76,10.3,24.55,.02,23.75h-.03c-.29-.05-.57-.1-.84-.16-8.3-1.72-8.09-21,0-23.47,.28-.09,.56-.12,.84-.12h.01Zm4.03,9.86c0-.79-.38-1.43-.85-1.43s-.84,.64-.84,1.43,.37,1.44,.84,1.44,.85-.65,.85-1.44Zm-3.08-3.19c0-1.11-.45-2.02-1-2.02s-.99,.91-.99,2.02,.45,2.02,.99,2.02,1-.9,1-2.02Zm0,9.22c0-1.62-.79-2.94-1.77-2.94s-1.77,1.32-1.77,2.94,.79,2.93,1.77,2.93,1.77-1.31,1.77-2.93Zm-3.6-7.2c0-.79-.38-1.43-.85-1.43s-.85,.64-.85,1.43,.38,1.44,.85,1.44,.85-.64,.85-1.44Z"/><path class="h" d="M88.26,343.24c.55,0,1,.91,1,2.02s-.45,2.02-1,2.02-.99-.9-.99-2.02,.45-2.02,.99-2.02Z"/><path class="h" d="M87.49,351.54c.98,0,1.77,1.32,1.77,2.94s-.79,2.93-1.77,2.93-1.77-1.31-1.77-2.93,.79-2.94,1.77-2.94Z"/><path class="h" d="M84.81,345.85c.47,0,.85,.64,.85,1.43s-.38,1.44-.85,1.44-.85-.64-.85-1.44,.38-1.43,.85-1.43Z"/></g></g><g id="c"><g><path class="m" d="M229.97,243.23c-.89-.98-1.78-1.96-2.67-2.93,2.22-9.35,5.09-19.64,7.08-23.36h.01c10.44,18.59,24.8,43.47,34.27,59.78,7.49,12.9,7.95,34.77-.7,37.64-.24,.08-.49,.15-.75,.2,4.23-8.06-.59-22.43-4.89-30.54-10.16-16.76-21.43-28.82-32.35-40.79Z"/><path class="e" d="M223.8,258.63c.23-2.05,.55-4.18,.96-6.42,.48-2.66,1.18-6.01,2.01-9.6,1.08,.19,2.14,.39,3.2,.62,10.92,11.97,22.19,24.03,32.35,40.79,4.3,8.11,9.12,22.48,4.89,30.54-7.45,1.69-22.43-5.23-34.97-16.46-4.4-5.51-11.11-16.98-8.44-39.47Z"/><path class="o" d="M225.19,345.95c15.28,4.89,30.07,12.88,29.39,19.58h-.01c-4.66-2.9-6.78-4.65-10.21-6.1-3.04-2.53-5.85-4.85-8.89-5.53-4-.9-10.65,6.14-16.39,4.14-6.2-2.17,.07-8.84-.69-10.91-2.05-5.61-9.16-19.73-17.48-57.89,.85,2.17,1.66,4.68,2.53,7.52,2.35,7.79,5.08,18,9.81,30.21,4.02,10.36,8.09,17.75,11.94,18.98Z"/><path class="g" d="M254.57,365.53h.01c-.11,1.08-.63,2.13-1.61,3.12-.26,.26-.6,.51-1.03,.75,1.96-3.79-5.07-7.89-7.58-9.97,3.43,1.45,5.55,3.2,10.21,6.1Z"/><path class="m" d="M153.15,360.96c-4.24-.19-24.46-9.3-24.46-24.92,0-12.69,9.75-31.15,8.98-33.39,3.71-6.5,7.92-12.78,12.3-18.17,4.24-5.2,8.63-9.57,12.87-12.48,1.03-.71,1.76-1.59,2.22-2.64,.46-1.02,.66-2.22,.63-3.58h.08c4.28,1.42,12.59,1.79,16.5,1.46l.23-.03c.26,2.44,.77,4.94,2.97,7.13,1.32,1.32,6.71,3.53,10.86,7.24,1.82,1.63,3.24,4.21,4.58,7.66,8.32,38.16,15.43,52.28,17.48,57.89,.76,2.07-5.51,8.74,.69,10.91,5.74,2,12.39-5.04,16.39-4.14,3.04,.68,5.85,3,8.89,5.53,2.51,2.08,9.54,6.18,7.58,9.97h0c-1.03,.6-2.54,1.13-4.39,1.56-10,2.32-30.09,1.55-40.3-9.88-1.3-1.46-2.83-5.05-4.45-9.81h0c-4.88-14.29-10.63-39.1-13.98-48.71,5.61,31.1,9.02,37.14,5.42,45.29-4.46,10.08-15.76,20.14-35.81,40.3-1.71,1.72-3.63,4.06-5.86,6.15-.76-6.78-14.16-14.38-18.2-5.61,.14-.37,.33-.75,.56-1.13,3.62-6.06,10.15-16.19,15.81-23.58h0c.82-1.07,1.62-2.09,2.4-3.02Zm14.99,13.94c.82-2.15-1.81-5.15-5.87-6.7-4.06-1.54-8.02-1.05-8.83,1.11-.82,2.15,1.8,5.14,5.86,6.69,4.06,1.54,8.02,1.05,8.84-1.1Z"/><path class="o" d="M234.39,216.94h-.01c-1.99,3.72-4.86,14.01-7.08,23.36-1.34-1.48-2.67-2.96-3.99-4.46,.83-2.82,1.53-5.86,2.14-9.09,1.99-10.63,1.29-20.28-1.65-28.56-.33-.92-.71-1.83-1.12-2.74,2.13,4.25,6.41,12.06,11.71,21.49Z"/><path class="l" d="M227.3,240.3c-.18,.78-.36,1.55-.53,2.31-1.82-.31-3.67-.55-5.52-.73,.76-1.9,1.44-3.91,2.06-6.04,1.32,1.5,2.65,2.98,3.99,4.46Z"/><path class="o" d="M223.8,198.19c2.94,8.28,3.64,17.93,1.65,28.56-.61,3.23-1.31,6.27-2.14,9.09-.62,2.13-1.3,4.14-2.06,6.04-3.12-.29-6.25-.39-9.31-.24,5.86-9.15,10.39-22.24,7.95-35.25-2.95-15.73-15.23-29.76-25.44-35.89,4.66,1.49,8.93,3.56,12.72,6.14,5.86,3.93,12.02,11.14,15.51,18.81,.41,.91,.79,1.82,1.12,2.74Z"/><path class="l" d="M226.77,242.61c-.83,3.59-1.53,6.94-2.01,9.6-.41,2.24-.73,4.37-.96,6.42-3.43-1.78-6.83-3.25-10.21-4.38,3.17-3.32,5.67-7.45,7.66-12.37,1.85,.18,3.7,.42,5.52,.73Z"/><path class="l" d="M223.8,258.63c-2.67,22.49,4.04,33.96,8.44,39.47-7.15-6.39-13.5-14.19-17.22-22.6-.48-1.1-.92-2.2-1.31-3.32-1.65-4.71-2.76-9.75-3.55-14.88,1.22-.92,2.36-1.94,3.43-3.05,3.38,1.13,6.78,2.6,10.21,4.38Z"/><path class="m" d="M211.94,241.64c-2.82,4.43-5.97,7.93-8.77,10.05-.24,.19-.48,.36-.72,.52-18.28,12.49-37.2,10.03-43.54,8.35-18.37-5.7-41.91-19.84-39.37-33.36,1.04-5.56,2.92-8.28,4.84-10.79,1.08-.21,2.6-.03,3.87-.2,.01,.01,.02,.01,.03,.02,2.14,1.38,4.41,1.63,5.25,.49,.92-1.22-.18-3.6-2.46-5.3-.15-.11-.31-.22-.46-.33-.29-1.73-.8-3.59-.71-5.27,5.73-17.59,17.32-30.21,32.11-35.39h0c7.75-2.72,16.38-3.4,25.5-1.69,.51,.1,1.02,.2,1.52,.31,1.86,.4,3.66,.88,5.41,1.44,0,0,.01,0,.01,.01,10.21,6.13,22.49,20.16,25.44,35.89,2.44,13.01-2.09,26.1-7.95,35.25Zm-61.43-11.27c2.55,.72,4.69-.28,4.62-1.86-.05-1.19-6.3-2.47-7.11-1.98-.88,.54,.52,3.28,2.49,3.84Zm-8.73,1.6c.27,.64,2.76,4.21,4.65,5.2,5.68,3,12.6,2.7,13.08,2.56l.02-.03c-3.96-2.15-8.2-5.44-9.87-6.24-2.11-1.01-5.63-.68-7.88-1.49Zm61.6,13.81c.5-1.77-2.08-4.06-5.78-5.11-3.69-1.06-7.09-.48-7.6,1.28-.5,1.77,2.08,4.06,5.78,5.11,3.69,1.06,7.09,.48,7.6-1.28Zm-5.29-9.59c1.82-6.45-3.24-13.92-8.48-15.19-6.36-1.54-12.99,4.69-14.56,12.11,7.98-.55,16.03-1.48,23.04,3.08Zm-11.44-26.6c.16-.8-1.63-2.15-3.48-2.22-2.43-.11-4.4,2.01-4.12,2.83,.46,1.31,7.3,.83,7.6-.61Zm-18.44,10.3c.26-2.99-15.41-8.23-17.21-5.48-.95,1.44,1.73,5.26,4.89,7.05,5.31,3,12.16,.35,12.32-1.57Zm-9.86-17.62c.97-.68,.85-4.43-1.67-5.59-1.74-.8-4.08-.11-4.37,.95-.5,1.81,4.69,5.58,6.04,4.64Zm-15.2,17.98c3.69-6.86,3.2-15.46-.18-17.38-3.21-1.83-6.97,2.22-9.31,5.83,2.87,1.66,6.08,5.84,9.49,11.55Z"/><path class="o" d="M211.94,241.64c3.06-.15,6.19-.05,9.31,.24-1.99,4.92-4.49,9.05-7.66,12.37-2.73-.93-5.44-1.64-8.12-2.13l-2.3-.43c2.8-2.12,5.95-5.62,8.77-10.05Z"/><path class="l" d="M213.71,272.18c.39,1.12,.83,2.22,1.31,3.32-.17,10.56-3.65,20.32-9.61,21.2-.61,.09-1.27,.11-1.97,.06-.87-2.84-1.68-5.35-2.53-7.52-1.34-3.45-2.76-6.03-4.58-7.66-4.15-3.71-9.54-5.92-10.86-7.24-2.2-2.19-2.71-4.69-2.97-7.13-.11-1.02-.18-2.02-.31-2.99h0c12.38,.43,21.38-1.91,27.97-6.92,.79,5.13,1.9,10.17,3.55,14.88Z"/><path class="o" d="M210.16,257.3c-6.59,5.01-15.59,7.35-27.97,6.91-4.36-.15-9.14-.65-14.38-1.49-.83-.13-1.68-.29-2.56-.48-.09-.02-.19-.04-.28-.06h0c-1.92-.42-3.96-.96-6.06-1.62,6.34,1.68,25.26,4.14,43.54-8.35,.24-.16,.48-.33,.72-.52l2.3,.43c2.68,.49,5.39,1.2,8.12,2.13-1.07,1.11-2.21,2.13-3.43,3.05Z"/><path class="p" d="M197.6,240.67c3.7,1.05,6.28,3.34,5.78,5.11-.51,1.76-3.91,2.34-7.6,1.28-3.7-1.05-6.28-3.34-5.78-5.11,.51-1.76,3.91-2.34,7.6-1.28Z"/><path class="o" d="M202.8,351.26h0c-1.65,3.88-5.24,9.01-9.89,12.21-6.46,4.42-32.96,29.93-42.36,35.41,1.64-1.31,2.21-2.92,2.02-4.58,2.23-2.09,4.15-4.43,5.86-6.15,20.05-20.16,31.35-30.22,35.81-40.3,3.6-8.15,.19-14.19-5.42-45.29,3.35,9.61,9.1,34.42,13.98,48.7Z"/><path class="o" d="M189.61,221c5.24,1.27,10.3,8.74,8.48,15.19-7.01-4.56-15.06-3.63-23.04-3.08,1.57-7.42,8.2-13.65,14.56-12.11Z"/><path class="f" d="M183.17,207.37c1.85,.07,3.64,1.42,3.48,2.22-.3,1.44-7.14,1.92-7.6,.61-.28-.82,1.69-2.94,4.12-2.83Z"/><path class="o" d="M165.4,262.99c-.04-.25-.09-.5-.15-.75,.88,.19,1.73,.35,2.56,.48,5.24,.84,10.02,1.34,14.38,1.49h0c.13,.98,.2,1.98,.31,3l-.23,.03c-3.91,.33-12.22-.04-16.5-1.46h-.08c0-.86-.1-1.79-.29-2.79Z"/><path class="g" d="M162.27,368.2c4.06,1.55,6.69,4.55,5.87,6.7s-4.78,2.64-8.84,1.1c-4.06-1.55-6.68-4.54-5.86-6.69,.81-2.16,4.77-2.65,8.83-1.11Z"/><path class="o" d="M151,214.41c1.8-2.75,17.47,2.49,17.21,5.48-.16,1.92-7.01,4.57-12.32,1.57-3.16-1.79-5.84-5.61-4.89-7.05Z"/><path class="o" d="M165.06,269.36c-.46,1.05-1.19,1.93-2.22,2.64-4.24,2.91-8.63,7.28-12.87,12.48,1.02-11.38,3.35-16.33,15.09-15.12Z"/><path class="o" d="M159.53,239.7l-.02,.03c-.48,.14-7.4,.44-13.08-2.56-1.89-.99-4.38-4.56-4.65-5.2,2.25,.81,5.77,.48,7.88,1.49,1.67,.8,5.91,4.09,9.87,6.24Z"/><path class="f" d="M156.68,196.68c2.52,1.16,2.64,4.91,1.67,5.59-1.35,.94-6.54-2.83-6.04-4.64,.29-1.06,2.63-1.75,4.37-.95Z"/><path class="e" d="M155.13,228.51c.07,1.58-2.07,2.58-4.62,1.86-1.97-.56-3.37-3.3-2.49-3.84,.81-.49,7.06,.79,7.11,1.98Z"/><path class="l" d="M152.57,394.3c.19,1.66-.38,3.27-2.02,4.58-.93,.55-1.69,.9-2.25,1.01-1.94,.39-4.3,.13-6.55-.62,4.32,.15,7.85-2.19,10.82-4.97Z"/><path class="o" d="M125.22,332.06c2.06-8.55,6.64-19.24,12.45-29.41,.77,2.24-8.98,20.7-8.98,33.39,0,15.62,20.22,24.73,24.46,24.92-.78,.93-1.58,1.95-2.4,3.02h0c-2.38-.57-4.33-1.25-6.04-2.07-25.13,1.36-46.9,2.26-56.31,.64,10.28,.78,9.75-22-.02-23.76,2.89,.04,5.79,4.28,10.62,2.73,3.44-1.1,6.74-2.14,10.34-3.38-.12,1.07-.05,2.28,.25,3.54,.84,3.48,3.1,5.92,5.04,5.45,1.95-.47,2.86-3.67,2.02-7.14-.37-1.52-1-2.84-1.77-3.81,3.09-1.14,6.48-2.48,10.35-4.12Z"/><path class="m" d="M147.03,392.33c.53,.24,.7,.97,.4,1.64-.31,.66-.99,1-1.51,.75-.53-.24-.71-.98-.4-1.64s.98-1,1.51-.75Z"/><path class="m" d="M144.03,389.07c.52,.24,.7,.98,.39,1.64-.3,.66-.98,1-1.51,.76-.52-.25-.7-.98-.39-1.64,.3-.67,.98-1,1.51-.76Z"/><path class="o" d="M142.97,202.87c3.38,1.92,3.87,10.52,.18,17.38-3.41-5.71-6.62-9.89-9.49-11.55,2.34-3.61,6.1-7.66,9.31-5.83Z"/><path class="m" d="M141.74,393.54c1.03,.48,1.62,1.41,1.32,2.07-.31,.66-1.4,.81-2.43,.33-1.04-.48-1.63-1.41-1.32-2.07s1.39-.81,2.43-.33Z"/><path class="e" d="M152.57,394.3c-2.97,2.78-6.5,5.12-10.82,4.97-4.96-1.65-9.36-5.69-7.38-10.58,4.04-8.77,17.44-1.17,18.2,5.61Zm-5.14-.33c.3-.67,.13-1.4-.4-1.64-.53-.25-1.2,.09-1.51,.75s-.13,1.4,.4,1.64c.52,.25,1.2-.09,1.51-.75Zm-3.01-3.26c.31-.66,.13-1.4-.39-1.64-.53-.24-1.21,.09-1.51,.76-.31,.66-.13,1.39,.39,1.64,.53,.24,1.21-.1,1.51-.76Zm-1.36,4.9c.3-.66-.29-1.59-1.32-2.07-1.04-.48-2.12-.33-2.43,.33s.28,1.59,1.32,2.07c1.03,.48,2.12,.33,2.43-.33Zm-3.53-5.31c.31-.66,.13-1.39-.39-1.64-.53-.24-1.21,.1-1.51,.76-.31,.66-.13,1.39,.39,1.64,.53,.24,1.21-.1,1.51-.76Z"/><path class="m" d="M139.14,388.66c.52,.25,.7,.98,.39,1.64-.3,.66-.98,1-1.51,.76-.52-.25-.7-.98-.39-1.64,.3-.66,.98-1,1.51-.76Z"/><path class="p" d="M131.07,211.42c2.28,1.7,3.38,4.08,2.46,5.3-.84,1.14-3.11,.89-5.25-.49-.01-.01-.02-.01-.03-.02,.86-.11,1.6-.37,2.01-1.01,.7-1.09,.61-2.54,.35-4.11,.15,.11,.31,.22,.46,.33Z"/><path class="n" d="M130.61,211.09c.26,1.57,.35,3.02-.35,4.11-.41,.64-1.15,.9-2.01,1.01-.17-.11-.33-.23-.5-.35-.68-.51-1.25-1.07-1.7-1.65,.87-1.19,1.69-2.49,2.41-4.15,.7,.21,1.43,.56,2.15,1.03Z"/><path class="o" d="M129.9,205.82c-.09,1.68,.42,3.54,.71,5.27-.72-.47-1.45-.82-2.15-1.03,.31-.72,.6-1.52,.86-2.4,.18-.62,.38-1.24,.58-1.84Z"/><path class="o" d="M127.75,215.86c.17,.12,.33,.24,.5,.35-1.27,.17-2.79-.01-3.87,.2,.42-.55,.85-1.09,1.27-1.65,.13-.18,.27-.36,.4-.55,.45,.58,1.02,1.14,1.7,1.65Z"/><path class="i" d="M116.64,339.99c.84,3.47-.07,6.67-2.02,7.14-1.94,.47-4.2-1.97-5.04-5.45-.3-1.26-.37-2.47-.25-3.54,1.76-.59,3.59-1.24,5.54-1.96,.77,.97,1.4,2.29,1.77,3.81Z"/><path class="m" d="M91.55,347.22c.47,0,.85,.64,.85,1.44s-.38,1.43-.85,1.43-.85-.64-.85-1.43,.38-1.44,.85-1.44Z"/><path class="e" d="M88.37,338.79c9.77,1.76,10.3,24.54,.02,23.76h-.03c-.3-.05-.58-.1-.85-.16-8.3-1.73-8.08-21,0-23.48,.28-.09,.57-.12,.85-.12h.01Zm4.03,9.87c0-.8-.38-1.44-.85-1.44s-.85,.64-.85,1.44,.38,1.43,.85,1.43,.85-.64,.85-1.43Zm-3.08-3.19c0-1.12-.45-2.03-1-2.03s-.99,.91-.99,2.03,.44,2.02,.99,2.02,1-.91,1-2.02Zm0,9.21c0-1.62-.8-2.93-1.77-2.93s-1.78,1.31-1.78,2.93,.8,2.94,1.78,2.94,1.77-1.32,1.77-2.94Zm-3.61-7.19c0-.79-.38-1.44-.85-1.44s-.84,.65-.84,1.44,.38,1.43,.84,1.43,.85-.64,.85-1.43Z"/><path class="m" d="M88.32,343.44c.55,0,1,.91,1,2.03s-.45,2.02-1,2.02-.99-.91-.99-2.02,.44-2.03,.99-2.03Z"/><path class="m" d="M87.55,351.75c.97,0,1.77,1.31,1.77,2.93s-.8,2.94-1.77,2.94-1.78-1.32-1.78-2.94,.8-2.93,1.78-2.93Z"/><path class="m" d="M84.86,346.05c.47,0,.85,.65,.85,1.44s-.38,1.43-.85,1.43-.84-.64-.84-1.43,.38-1.44,.84-1.44Z"/></g></g><g id="d"><path class="k" d="M223.88,198.27c2.93,8.27,3.64,17.93,1.64,28.55-5.55,29.55-19.12,42.19-57.64,35.97-18.35-2.96-51.25-19.66-48.27-35.53,2.03-10.81,7.21-10.91,9.78-19.53,5.51-18.55,17.4-31.88,32.69-37.23h0c7.75-2.72,16.38-3.4,25.5-1.69,.51,.1,1.02,.2,1.52,.31,6.82,1.46,12.92,4.05,18.14,7.59"/><path class="k" d="M125.73,214.85c-8.53-10.52-22.15-18.93-33.46-21.97"/><path class="k" d="M90.62,212.93c11.71,1.97,21.74,5.47,29.67,10.76"/><path class="k" d="M207.77,242.07c13.44-1.66,29.08,1.73,39.34,7.38"/><path class="k" d="M234.39,265.04c-9.8-6.7-19.45-11.14-28.84-12.83"/><path class="k" d="M165.33,262.32c.99,4.54,.43,7.82-2.41,9.76-19.52,13.38-42.07,57.52-38.41,72.26"/><path class="k" d="M165.14,269.44c-11.74-1.21-14.07,3.75-15.09,15.13"/><path class="k" d="M125.3,332.15c-11.28,4.76-18.42,6.95-26.23,9.45-5.31,1.7-8.3-3.58-11.48-2.61-8.09,2.48-8.3,21.75,0,23.48,8.87,1.85,31.24,.93,57.19-.48"/><path class="k" d="M150.83,364.06c-5.5-1.29-8.7-3.26-11.97-6.03"/><path class="k" d="M88.44,338.87c9.78,1.75,10.31,24.59,0,23.76"/><path class="k" d="M169.9,350.34c-3.09,1.12-7.27,1.68-12.39,6.13-6,5.22-17.28,22.43-22.5,31.17-4.57,7.66,6.85,13.63,13.37,12.33s37.51-31.56,44.61-36.42c4.66-3.19,8.25-8.33,9.89-12.2"/><path class="k" d="M134.41,388.85c4.96-11.06,24.59,3.42,16.22,10.11"/><path class="k" d="M182.27,264.3c.44,3.28,.16,7.01,3.28,10.13,1.32,1.32,6.71,3.52,10.86,7.24,6.11,5.48,7.73,21.66,16.92,45.39,4.01,10.35,8.08,17.75,11.93,18.98,17.76,5.67,34.83,15.54,27.78,22.7-4.24,4.3-32.85,6.85-45.72-7.57-6.24-6.99-17.52-62.61-20.51-62.48"/><path class="k" d="M230.06,362.18c8.07,2.2,12.36,3.41,17.57,8.87"/><path class="k" d="M238.44,357.58c8,2.02,9.38,3.78,16.21,8.04"/><path class="k" d="M139.77,229.82c.65,3.67,6.84,2.24,9.97,3.73,2.81,1.34,12.86,9.72,16.64,7.88"/><path class="k" d="M158.43,202.35c.97-.68,.85-4.43-1.67-5.59-1.74-.8-4.08-.12-4.37,.95-.5,1.81,4.69,5.58,6.04,4.64Z"/><path class="k" d="M179.13,210.28c-.28-.82,1.69-2.94,4.12-2.84,1.84,.08,3.64,1.42,3.47,2.22-.3,1.44-7.13,1.92-7.59,.61Z"/><path class="k" d="M133.74,208.79c2.88,1.65,6.08,5.84,9.49,11.54"/><path class="k" d="M175.13,233.19c7.98-.55,16.03-1.48,23.04,3.08"/><path class="k" d="M150.59,230.45c2.54,.72,4.69-.28,4.62-1.85-.05-1.19-6.3-2.48-7.12-1.98-.88,.53,.52,3.28,2.5,3.83Z"/><path class="k" d="M149.29,233.29c.95-.33,1.21-2.15,1.3-2.84"/><path class="k" d="M210.24,257.38c.79,5.13,1.9,10.18,3.55,14.89,.39,1.12,.83,2.22,1.31,3.32,10.46,23.66,41.85,42.53,52.94,38.86,8.65-2.87,8.19-24.74,.7-37.64-14.27-24.58-39.66-68.64-45.98-81.28"/><path class="k" d="M223.39,235.93c2.19,2.49,4.42,4.93,6.66,7.39,10.92,11.97,22.19,24.03,32.35,40.79"/><path class="k" d="M207.25,176.72c6.55,4.39,13.49,12.89,16.64,21.55"/><path class="k" d="M203.52,296.85c.7,.05,1.36,.03,1.97-.06,5.96-.88,9.44-10.64,9.61-21.2"/><path class="k" d="M165.49,263.09s-.01,0-.01,0"/><line class="k" x1="165.05" y1="262.27" x2="165.05" y2="262.26"/><ellipse class="k" cx="87.62" cy="354.77" rx="1.77" ry="2.93"/><ellipse class="k" cx="84.94" cy="347.57" rx=".85" ry="1.43"/><ellipse class="k" cx="88.4" cy="345.55" rx=".99" ry="2.02"/><ellipse class="k" cx="91.63" cy="348.74" rx=".85" ry="1.43"/><ellipse class="k" cx="143.55" cy="390.35" rx="1.32" ry="1.05" transform="translate(-270.96 356.26) rotate(-65.11)"/><ellipse class="k" cx="146.55" cy="393.61" rx="1.32" ry="1.05" transform="translate(-272.17 360.87) rotate(-65.11)"/><ellipse class="k" cx="138.66" cy="389.94" rx="1.32" ry="1.05" transform="translate(-273.42 351.59) rotate(-65.11)"/><ellipse class="k" cx="141.26" cy="394.82" rx="1.32" ry="2.07" transform="translate(-276.34 356.77) rotate(-65.11)"/></g></svg>