<?xml version="1.0" encoding="UTF-8"?><svg xmlns="http://www.w3.org/2000/svg" viewBox="0 0 169.12 140.65"><defs><style>.f{fill:#ead0d0;}.g{fill:#fcb9b9;}.h{fill:#fff;}.i{fill:#6b3d34;}.j{fill:none;stroke:#3f2a25;stroke-linecap:round;stroke-linejoin:round;stroke-width:.5px;}.k{fill:#eab5a7;}.l{fill:#7f4d40;}.m{fill:#a06858;}.n{fill:#bc7171;}.o{fill:#824f46;}.p{fill:#eaa0a0;}.q{fill:#b27967;}.r{fill:#d17e75;}.s{fill:#935d51;}.t{fill:#e08f82;}</style></defs><g id="a"/><g id="b"><path class="n" d="M90.15,54.92c1.32,2.28,2.07,5.09,2.07,8.34,0,9.03-3.3,13.52-15.02,13.82-5.58,.14-16.22-2.96-16.22-7.81,0-3.3,1.52-3.62,1.8-6.31,.6-5.78,3.37-10.38,7.59-12.81h0c2.14-1.23,4.65-1.91,7.43-1.91,.16,0,.31,0,.47,0,2.09,.05,4.4,.58,6.14,1.34"/><path class="n" d="M68.49,65.66c1.33-.18,0-6.31-1.5-6.91-1.11-.44-2.95,2.75-2.4,5.11,.32,1.39,2.9,1.94,3.91,1.8Z"/><path class="n" d="M77.2,67.47c-.56-1.85,3.81-6.71,5.71-6.01,1.37,.51,3.2,4.89,1.8,6.31-1.42,1.45-7.17,.83-7.51-.3Z"/><path class="n" d="M71.19,59.96c.23-.27-.08-1.35-.9-1.5-.57-.1-1.2,.27-1.2,.6-.01,.56,1.78,1.28,2.1,.9Z"/><path class="n" d="M77.67,60.8c-.09-.25,.51-.88,1.24-.85,.55,.02,1.09,.43,1.04,.67-.09,.43-2.14,.58-2.28,.18Z"/><path class="n" d="M68.57,61.46c-.9-1.8-3.38,1.2-2.18,3.9"/><path class="n" d="M79.11,63.53c3.25-1.33,3.8,4.54,.48,4.95"/><path class="n" d="M67.78,69.48c.42,.81,1.15,.4,2.07,.56,.69,.12,2.25,1.12,3.7,.89"/><path class="n" d="M70.45,68.65c.79,.11,1.39-.28,1.3-.74-.06-.35-1.98-.48-2.2-.3-.24,.19,.29,.95,.9,1.04Z"/><path class="n" d="M70.02,70.07c.27-.14,.43-1.21,.43-1.42"/><path class="n" d="M78.26,48.25c-.96-3.98,.69-11.65,1.34-20.16,.34-4.47-2.39-10.44-5.11-10.09-3.64,.47-10.07,10.53-9.17,18.49,.79,6.93,4.25,10.87,5.03,13.66"/><path class="n" d="M82.96,52.17c2.63-3.45,5.2-14.46,7.92-22.55,1.42-4.25,6.27-8.69,8.63-7.3,3.17,1.85,5.18,13.62,1.24,20.6-3.42,6.08-10.81,11.05-11.84,13.88"/><path class="n" d="M93.79,29.6c-3.31,10.51-2.12,18.64-5.18,28.21"/><path class="n" d="M72.61,82.26c-3.07,5.96-7.94,13.92-3.16,23.88,1.55,3.23,3.46,9.28,5.83,11.54,.74,.71,1.57,.83,2.19,.49"/><path class="n" d="M76.83,77.08c-.16,1.47-.7,1.56-1.51,1.94-2.01,.95-1.9,.64-3.22,1.49-2.33,1.49-10.38,13.43-10.8,18.59-.16,2,.91,6.7,4.13,7.27,1.91,.34,2.6-1.22,3.29-1.95"/><path class="n" d="M88.93,96.08c.41,2.35,2.72,7.01,.63,10.99-1.42,2.69-3.57,15.69-7.61,17.82-1.16,.61-3.44,.31-3.94-.76-1-2.18,.1-8.63-.53-15.69"/><path class="n" d="M72.64,106.58c.71,.34,2.1,1.51,4.84,1.85,1.17,.14,2.19-.67,3.29-1.07"/><path class="n" d="M95.05,100.85c.76,2.53,.65,3.61,0,6.14"/><path class="n" d="M96.99,99.56c1.22,2.42,1.21,3.51,.89,5.82"/><path class="n" d="M64.2,100.32c-.92,2.01-.7,2.53-.85,4.9"/><path class="n" d="M66.19,101.38c-.32,2.36-.6,2.92-.04,5.03"/><path class="n" d="M90.18,105.42c.91-.75,1.52-1.55,1.92-2.29"/><g><path class="n" d="M62.34,65.78c-.06,.19,0,.41,.17,.6-.47,.18-.96,.48-1.36,1.24,.4-1.87,1.42-2.5,1.65-4.66,.06-.56,.14-1.1,.23-1.64-.1,2.7,1.21,2.62,.96,3.91-.02,.08-.04,.16-.06,.23-.02,0-.04-.02-.06-.02-.71-.23-1.39-.08-1.52,.34Z"/><path class="n" d="M70.53,68.65c.75,.08,1.32-.29,1.23-.74-.02-.12-.27-.22-.6-.29-.6-.12-1.46-.13-1.6-.02-.24,.2,.29,.96,.9,1.04,.02,0,.05,0,.07,0Zm-5.94-4.79c.17,.73,.95,1.22,1.8,1.51,.78,.27,1.62,.36,2.11,.29,.08-.01,.16-.05,.22-.11h0c.53-.47,.36-2.42-.15-4.11-.39-1.3-.97-2.45-1.58-2.69-.74-.3-1.8,1.02-2.27,2.63-.23,.81-.32,1.69-.14,2.47Zm24.05,4.65c-.32,.84-.72,1.68-1.21,2.47-4.03,6.51-18.41,4.67-19.3,4.49-3.87-1.36-7.15-3.51-7.15-6.2,0-.65,.06-1.19,.16-1.65,.4-.76,.9-1.06,1.36-1.24,.19,.23,.5,.44,.87,.56,.71,.23,1.39,.08,1.52-.34,.13-.4-.31-.9-.98-1.14,.03-.07,.05-.14,.06-.23,.26-1.29-1.06-1.2-.96-3.91,.91-5.01,3.54-8.97,7.35-11.17h0c.62-.36,1.26-.67,1.94-.93,4.24-.66,9.22,.18,11.31,1.73-.22,.45-.44,.86-.65,1.21-1.57,2.62,4.82,6.29,5.64,5.64,.08-.06,.09-.13,.07-.23,.08-.26,.16-.52,.23-.78h0c.08-.23,.21-.47,.37-.72,.12,.74,1.46,6.86-.65,12.44Zm-3.72-4.03c-.44-1.42-1.29-2.76-2.01-3.03-.95-.35-2.53,.7-3.79,2.07h0c-1.25,1.35-2.19,3.02-1.91,3.94,.14,.45,1.14,.83,2.39,1.02,1.86,.28,4.26,.15,5.12-.71,.66-.67,.6-2.01,.21-3.28Zm.79,6.05c0-.59-.77-1.06-1.73-1.06s-1.72,.47-1.72,1.06,.77,1.06,1.72,1.06,1.73-.48,1.73-1.06Zm-5.76-9.92c.05-.24-.49-.65-1.04-.67-.73-.03-1.32,.61-1.24,.85,.14,.39,2.19,.25,2.28-.18Zm-8.3,5.83c1.32,.48,2.79-.18,2.78-.59,0-.66-3.98-1.46-4.27-.82-.15,.33,.66,1.11,1.49,1.41Zm-.46-6.49c.23-.27-.08-1.35-.9-1.5-.56-.11-1.2,.27-1.2,.6,0,.56,1.78,1.27,2.1,.9Z"/><path class="n" d="M91.83,67.96c-1.03,5.17-4.21,8.1-11.36,8.9-1.01,.11-2.09,.19-3.26,.22-.12,0-.24,0-.36,0-2.45,0-5.76-.57-8.71-1.61,.88,.18,15.27,2.02,19.3-4.49,.49-.8,.89-1.63,1.21-2.47,1.02-.27,2.1-.45,3.18-.55Z"/><path class="n" d="M102.01,26.5c.57,4.22-.73,10.28-3.7,15.97-1.99,3.81-6.51,8.25-8.32,9.87,1.39-7.36,1.15-14.28,3.81-22.74,1.05-3.97,3.05-6.9,5.93-7.16,.9,.66,1.7,2.13,2.28,4.05h0Z"/><path class="n" d="M97.8,101.47c.39,1.28,.32,2.3,.1,3.91-.53,.93-1.16,1.55-1.72,1.64-.41,.07-.78,.07-1.11-.03h0c.21-.84,.37-1.52,.46-2.15,.65-.42,1.26-.98,1.63-1.51s.59-1.15,.65-1.85Z"/><path class="n" d="M95.52,104.84c-.09,.63-.24,1.31-.46,2.15h0c-.64-.18-1.18-.69-1.77-1.62,.5,.32,1.39,.02,2.22-.53Z"/><path class="n" d="M95.72,94.82c-1.1-1.97-2.55-4.07-4.17-6.17,2.11,2.33,4.24,4.69,5.86,6.45,2.75,2.97,1.93,7.77,.48,10.29,.22-1.61,.29-2.62-.1-3.91,.08-.87-.07-1.85-.41-2.92-1.46,.77-4.18,1.61-4.61,.26-.25-.75,1.9-2.97,2.94-4Z"/><path class="n" d="M92.11,103.13h0c-.4,.74-1.01,1.54-1.92,2.29,.88-3.55-.9-7.31-1.25-9.34,.11,.22,.21,.44,.31,.67,1.22,2.73,2.12,4.82,2.86,6.37Z"/><path class="n" d="M92.23,63.26c0,1.73-.12,3.3-.4,4.7-1.08,.1-2.16,.28-3.18,.55,2.11-5.58,.78-11.7,.65-12.44,.22-.36,.52-.74,.87-1.15,1.32,2.28,2.07,5.09,2.07,8.34Z"/><path class="n" d="M88.93,56.8c.44-1.51,.79-2.99,1.06-4.46,1.81-1.63,6.32-6.06,8.32-9.87,2.97-5.69,4.27-11.75,3.7-15.97,1.36,4.55,1.47,11.61-1.24,16.41-2.76,4.91-8.11,9.09-10.61,12.01-.35,.41-.64,.79-.87,1.15-.16,.26-.28,.5-.37,.72h0Z"/><path class="n" d="M88.69,57.58c.02,.1,0,.17-.07,.23,.02-.08,.05-.15,.07-.23Z"/><path class="n" d="M88.16,104.44c1.67-8.16-.74-8.76-4.38-17.57,2.72,4.56,3.92,6.54,5.15,9.21h0c.35,2.03,2.13,5.79,1.25,9.34-.14,.56-.34,1.11-.62,1.65-1.41,2.69-3.57,15.69-7.61,17.82-.63,.33-1.6,.39-2.43,.21,2.7-.37,4.81-4.86,5.73-7.79,1.87-5.92,2.01-8.51,2.9-12.87Z"/><path class="n" d="M88.62,57.81c-.82,.65-7.21-3.02-5.64-5.64,.48-.63,.96-1.51,1.44-2.58,.77-1.72,1.53-3.92,2.3-6.34,0,0,0-.01,0-.02,.02-.05,.02-.08,.03-.08,.22-.69-1.05,5.49-.37,9.83,.42,2.67,2.17,4.02,2.31,4.61-.02,.08-.05,.15-.07,.23Z"/><path class="n" d="M90.9,29.62c1.42-4.25,6.27-8.69,8.63-7.31,.07,.04,.14,.08,.2,.13-2.88,.26-4.87,3.19-5.93,7.16-2.66,8.46-2.42,15.38-3.81,22.74-.28,1.46-.62,2.94-1.06,4.46-.07,.26-.15,.52-.23,.78-.14-.59-1.89-1.94-2.31-4.61-.68-4.34,.59-10.52,.37-9.83,0,0-.01,.04-.03,.08,1.38-4.33,2.76-9.37,4.18-13.61Z"/><path class="n" d="M84.28,49.53c1.14-2.6,2.22-5.7,2.43-6.29-.77,2.42-1.53,4.63-2.3,6.34-.04-.02-.09-.04-.13-.05Z"/><path class="n" d="M83.99,69.48c.96,0,1.73,.47,1.73,1.06s-.77,1.06-1.73,1.06-1.72-.48-1.72-1.06,.77-1.06,1.72-1.06Z"/><path class="n" d="M84.93,64.49c.39,1.27,.45,2.61-.21,3.28-.85,.87-3.25,.99-5.12,.71h0c2.13-.26,2.67-2.78,1.92-4.19,1.12-.37,2.29-.38,3.4,.2Z"/><path class="n" d="M84.41,49.58c-.48,1.07-.96,1.95-1.44,2.58,.21-.35,.43-.76,.65-1.21,.22-.44,.44-.93,.66-1.43,.04,.02,.09,.04,.13,.05Z"/><path class="n" d="M81.72,113.86c1.21,0,2.19,.76,2.19,1.7s-.98,1.71-2.19,1.71-2.19-.76-2.19-1.71,.98-1.7,2.19-1.7Z"/><path class="n" d="M84.93,64.49c-1.11-.58-2.28-.57-3.4-.2-.42-.79-1.23-1.24-2.4-.76,1.26-1.37,2.84-2.42,3.79-2.07,.72,.26,1.57,1.61,2.01,3.03Z"/><path class="n" d="M81.52,64.29c.75,1.41,.21,3.93-1.92,4.19h0c-1.25-.19-2.26-.56-2.39-1.01,1.15-1.35,2.68-2.64,4.31-3.18Z"/><path class="n" d="M78.92,59.95c.55,.02,1.09,.43,1.04,.67-.09,.43-2.14,.58-2.28,.18-.09-.25,.51-.88,1.24-.85Z"/><path class="n" d="M72.32,49.23c-.68,.26-1.32,.57-1.94,.92-.1-.36-.25-.74-.43-1.14h.02c-.33-1.39-1.72-3.81-.38-5.68,1.57-2.2,4.65-4.67,5.76-5.88,2.09-2.29,3.92-11.43,.79-18.96,2.07,1.5,3.76,6.03,3.48,9.59-.65,8.51-2.3,16.18-1.34,20.16-.15,0-.31,0-.47,0-1.98,0-3.83,.34-5.49,.99Z"/><path class="n" d="M81.52,64.29c-1.63,.54-3.17,1.83-4.31,3.18-.28-.92,.67-2.59,1.91-3.94h0c1.16-.48,1.98-.03,2.4,.76Z"/><path class="n" d="M76.85,77.09c.12,0,.25,0,.36,0,1.17-.03,2.25-.1,3.26-.22,0,.25-.02,.48-.04,.7-.62,.43-3.01,.63-3.72,.32h-.02c.07-.22,.12-.48,.16-.8Z"/><path class="n" d="M75.17,111.4c.86,0,1.55,.48,1.55,1.08s-.69,1.08-1.55,1.08-1.55-.48-1.55-1.08,.69-1.08,1.55-1.08Z"/><path class="n" d="M76.13,18.5c3.13,7.53,1.3,16.66-.79,18.96-1.11,1.21-4.19,3.68-5.76,5.88-1.34,1.87,.05,4.29,.38,5.67h-.02c-1.21-2.71-3.92-6.48-4.61-12.51-.9-7.96,5.53-18.02,9.17-18.5,.55-.07,1.1,.12,1.62,.5h0Z"/><path class="n" d="M77.81,48.24c.16,0,.31,0,.47,0,2.04,.05,4.29,.55,6.01,1.28-.22,.5-.44,.99-.66,1.43-2.08-1.55-7.07-2.39-11.31-1.73,1.67-.65,3.51-.99,5.49-.99Z"/><path class="n" d="M74.44,65.86c0,.41-1.47,1.07-2.78,.59-.83-.3-1.64-1.08-1.49-1.41,.29-.64,4.26,.16,4.27,.82Z"/><path class="n" d="M70.3,58.46c.82,.15,1.14,1.23,.9,1.5-.32,.37-2.11-.34-2.1-.9,0-.33,.64-.71,1.2-.6Z"/><path class="n" d="M71.76,67.91c.08,.45-.48,.83-1.23,.74,.44-.2,.83-.71,.64-1.03,.32,.07,.57,.16,.6,.29Z"/><path class="n" d="M71.17,67.62c.19,.32-.2,.83-.64,1.03-.02,0-.05,0-.07,0-.61-.08-1.14-.84-.9-1.04,.14-.12,1-.1,1.6,.02Z"/><path class="n" d="M68.63,104.16c1.07,.96,3.21,2.02,4.02,2.42,.71,.34,2.1,1.51,4.84,1.85,.32,3.56,.19,6.96,.12,9.74h-.12c-.62,.34-1.45,.21-2.2-.5-2.37-2.26-4.28-8.32-5.83-11.54-.28-.58-.52-1.15-.74-1.72-.03-.09-.07-.18-.1-.26Zm8.08,8.32c0-.6-.69-1.08-1.55-1.08s-1.55,.48-1.55,1.08,.69,1.08,1.55,1.08,1.55-.48,1.55-1.08Z"/><path class="n" d="M68.57,61.45c.5,1.69,.68,3.63,.15,4.11-.35-1.98-1.08-3.24-2.02-3.83,.58-.86,1.42-1.16,1.87-.27Z"/><path class="n" d="M68.72,65.56h0c-.06,.06-.14,.1-.22,.11-.48,.07-1.32-.02-2.11-.29h0c-.6-1.36-.28-2.79,.31-3.65,.94,.59,1.67,1.86,2.02,3.83Z"/><path class="n" d="M68.57,61.45c-.45-.89-1.29-.59-1.87,.27-.59-.38-1.26-.48-1.97-.33,.47-1.61,1.53-2.93,2.27-2.63,.61,.24,1.19,1.4,1.58,2.69Z"/><path class="n" d="M63.36,105.22c-.87-.9-1.43-2.18-1.75-3.4h0c-.01-.13-.02-.25-.02-.37h0c-.06-2.91,2.5-4.8,3.8-4.48,.47,.12,1,.43,1.47,.85,.11-1.6,.37-3.34,1.18-4.86h0c-.82,3.38-.91,7.11,.59,11.21,.03,.09,.06,.17,.1,.26-.69,.73-1.38,2.29-3.29,1.95-.84-.15-1.53-.57-2.09-1.16h0Z"/><path class="n" d="M66.4,65.37h0c-.85-.28-1.63-.78-1.8-1.5-.18-.79-.1-1.67,.14-2.47,.71-.15,1.38-.04,1.97,.33-.59,.86-.91,2.29-.31,3.64Z"/><path class="n" d="M63.92,65.46c.67,.23,1.11,.74,.98,1.14-.13,.41-.81,.56-1.52,.34-.38-.12-.69-.33-.87-.56,.62-.25,1.19-.29,1.41-.92Z"/><path class="n" d="M62.34,65.78c.13-.41,.81-.56,1.52-.34,.02,0,.04,.01,.06,.02-.23,.64-.8,.68-1.41,.92-.16-.2-.23-.41-.17-.6Z"/><path class="n" d="M61.59,101.44h0c0,.13,0,.25,.02,.37-.27-1.04-.36-2.03-.3-2.71,.42-5.16,8.48-17.1,10.81-18.59,1.32-.85,1.21-.54,3.22-1.49,.63-.29,1.1-.41,1.35-1.14h.02c.71,.32,3.09,.12,3.72-.31-.07,.71-.15,1.24,.59,1.51,.84,.3,1.12,.49,2.23,.91,.65,.25,4.45,4.4,8.3,8.65h0c1.62,2.11,3.08,4.21,4.17,6.18-1.04,1.03-3.19,3.24-2.94,4,.44,1.35,3.16,.51,4.61-.26,.33,1.07,.48,2.05,.41,2.92-.06,.7-.27,1.32-.65,1.85s-.99,1.1-1.63,1.51c-.84,.54-1.73,.85-2.22,.53-.37-.57-.75-1.31-1.19-2.23-.74-1.56-1.64-3.65-2.86-6.37-.1-.23-.2-.45-.31-.67h0c-1.24-2.67-2.44-4.65-5.15-9.21,3.63,8.8,6.05,9.41,4.38,17.57-.89,4.35-1.03,6.95-2.9,12.87-.92,2.93-3.03,7.42-5.73,7.79-.69-.16-1.28-.49-1.51-.97-.5-1.08-.48-3.21-.41-5.95,.07-2.78,.2-6.18-.12-9.74-2.74-.34-4.12-1.51-4.84-1.85-.81-.41-2.95-1.46-4.02-2.42-1.5-4.09-1.41-7.83-.59-11.21h0c-.81,1.52-1.08,3.26-1.18,4.86-.47-.42-1-.73-1.47-.85-1.3-.32-3.86,1.57-3.8,4.48Zm22.32,14.12c0-.94-.98-1.7-2.19-1.7s-2.19,.76-2.19,1.7,.98,1.71,2.19,1.71,2.19-.76,2.19-1.71Z"/></g><circle class="n" cx="67.33" cy="62.07" r=".28"/><circle class="n" cx="80.91" cy="64.53" r=".28"/></g><g id="c"><path class="j" d="M90.15,54.92c1.32,2.28,2.07,5.09,2.07,8.34,0,9.03-3.3,13.52-15.02,13.82-5.58,.14-16.22-2.96-16.22-7.81,0-3.3,1.52-3.62,1.8-6.31,.6-5.78,3.37-10.38,7.59-12.81h0c2.14-1.23,4.65-1.91,7.43-1.91,.16,0,.31,0,.47,0,2.09,.05,4.4,.58,6.14,1.34"/><path class="j" d="M68.49,65.66c1.33-.18,0-6.31-1.5-6.91-1.11-.44-2.95,2.75-2.4,5.11,.32,1.39,2.9,1.94,3.91,1.8Z"/><path class="j" d="M77.2,67.47c-.56-1.85,3.81-6.71,5.71-6.01,1.37,.51,3.2,4.89,1.8,6.31-1.42,1.45-7.17,.83-7.51-.3Z"/><path class="j" d="M71.19,59.96c.23-.27-.08-1.35-.9-1.5-.57-.1-1.2,.27-1.2,.6-.01,.56,1.78,1.28,2.1,.9Z"/><path class="j" d="M77.67,60.8c-.09-.25,.51-.88,1.24-.85,.55,.02,1.09,.43,1.04,.67-.09,.43-2.14,.58-2.28,.18Z"/><path class="j" d="M68.57,61.46c-.9-1.8-3.38,1.2-2.18,3.9"/><path class="j" d="M79.11,63.53c3.25-1.33,3.8,4.54,.48,4.95"/><path class="j" d="M67.78,69.48c.42,.81,1.15,.4,2.07,.56,.69,.12,2.25,1.12,3.7,.89"/><path class="j" d="M70.45,68.65c.79,.11,1.39-.28,1.3-.74-.06-.35-1.98-.48-2.2-.3-.24,.19,.29,.95,.9,1.04Z"/><path class="j" d="M70.02,70.07c.27-.14,.43-1.21,.43-1.42"/><path class="j" d="M78.26,48.25c-.96-3.98,.69-11.65,1.34-20.16,.34-4.47-2.39-10.44-5.11-10.09-3.64,.47-10.07,10.53-9.17,18.49,.79,6.93,4.25,10.87,5.03,13.66"/><path class="j" d="M82.96,52.17c2.63-3.45,5.2-14.46,7.92-22.55,1.42-4.25,6.27-8.69,8.63-7.3,3.17,1.85,5.18,13.62,1.24,20.6-3.42,6.08-10.81,11.05-11.84,13.88"/><path class="j" d="M93.79,29.6c-3.31,10.51-2.12,18.64-5.18,28.21"/><path class="j" d="M72.61,82.26c-3.07,5.96-7.94,13.92-3.16,23.88,1.55,3.23,3.46,9.28,5.83,11.54,.74,.71,1.57,.83,2.19,.49"/><path class="j" d="M76.83,77.08c-.16,1.47-.7,1.56-1.51,1.94-2.01,.95-1.9,.64-3.22,1.49-2.33,1.49-10.38,13.43-10.8,18.59-.16,2,.91,6.7,4.13,7.27,1.91,.34,2.6-1.22,3.29-1.95"/><path class="j" d="M80.45,76.87c.02,1.06-.42,1.87,.55,2.21,.84,.3,1.12,.49,2.23,.91,1,.38,9.58,10.15,14.16,15.1,3.77,4.07,.84,11.58-1.23,11.93-2.5,.43-3.2-1.93-6.94-10.27-1.61-3.58-2.94-5.6-7.25-12.89"/><path class="j" d="M88.93,96.08c.41,2.35,2.72,7.01,.63,10.99-1.42,2.69-3.57,15.69-7.61,17.82-1.16,.61-3.44,.31-3.94-.76-1-2.18,.1-8.63-.53-15.69"/><path class="j" d="M72.64,106.58c.71,.34,2.1,1.51,4.84,1.85,1.17,.14,2.19-.67,3.29-1.07"/><path class="j" d="M95.05,100.85c.76,2.53,.65,3.61,0,6.14"/><path class="j" d="M96.99,99.56c1.22,2.42,1.21,3.51,.89,5.82"/><path class="j" d="M64.2,100.32c-.92,2.01-.7,2.53-.85,4.9"/><path class="j" d="M66.19,101.38c-.32,2.36-.6,2.92-.04,5.03"/><path class="j" d="M62.09,65.26c-3.1-2.63-7.59-4.36-11.1-4.63"/><path class="j" d="M51.62,66.64c3.57-.07,6.72,.41,9.36,1.53"/><path class="j" d="M87.82,68.75c3.88-1.23,8.68-1.1,12.02,0"/><path class="j" d="M96.95,74.05c-3.27-1.44-6.36-2.21-9.23-2.19"/><path class="j" d="M90.18,105.42c.91-.75,1.52-1.55,1.92-2.29"/><g><path class="p" d="M90.16,54.92c-.35,.41-.64,.79-.87,1.15-.16,.26-.28,.5-.37,.72h0c.44-1.51,.79-2.99,1.06-4.46,1.81-1.63,6.32-6.06,8.32-9.87,2.98-5.69,4.27-11.75,3.7-15.97,1.36,4.55,1.47,11.61-1.24,16.42-2.76,4.9-8.1,9.09-10.61,12.01Z"/><path class="g" d="M102.01,26.5c.57,4.22-.72,10.28-3.7,15.97-1.99,3.81-6.51,8.24-8.32,9.87,1.39-7.37,1.15-14.28,3.81-22.74,1.05-3.96,3.05-6.89,5.92-7.16,.91,.65,1.71,2.13,2.29,4.05h0Z"/><path class="q" d="M99.53,22.31c.07,.04,.13,.08,.2,.13-2.87,.27-4.87,3.2-5.92,7.16-2.66,8.46-2.42,15.38-3.81,22.74-.28,1.46-.62,2.94-1.06,4.46-.07,.26-.15,.52-.23,.78-.14-.59-1.89-1.94-2.31-4.61-.68-4.34,.59-10.53,.37-9.83,0,0-.01,.04-.03,.08,1.37-4.33,2.76-9.37,4.18-13.61,1.42-4.25,6.27-8.69,8.63-7.3Z"/><path class="s" d="M95.72,94.81c-1.1-1.96-2.55-4.07-4.17-6.17,2.11,2.33,4.24,4.69,5.86,6.45,2.75,2.97,1.93,7.77,.48,10.29,.22-1.61,.29-2.62-.1-3.9h0c.08-.87-.07-1.85-.41-2.92-1.46,.77-4.18,1.61-4.61,.26-.25-.75,1.9-2.97,2.94-4Z"/><path class="m" d="M97.8,101.47c.39,1.28,.32,2.3,.1,3.9-.53,.93-1.16,1.55-1.72,1.65-.41,.07-.78,.06-1.11-.03,.21-.84,.37-1.52,.46-2.15,.65-.42,1.26-.98,1.63-1.51s.59-1.15,.65-1.85Z"/><path class="q" d="M83.78,86.88c3.63,8.8,6.05,9.41,4.38,17.56-.89,4.36-1.03,6.95-2.9,12.87-.92,2.93-3.03,7.42-5.73,7.79-.69-.16-1.28-.49-1.51-.97-.5-1.08-.48-3.21-.41-5.95,.07-2.78,.2-6.19-.12-9.74-2.74-.34-4.12-1.51-4.84-1.85-.81-.41-2.95-1.46-4.02-2.42-1.5-4.09-1.41-7.83-.59-11.2h0c-.81,1.52-1.08,3.26-1.18,4.86-.47-.42-1-.73-1.47-.85-1.3-.32-3.86,1.57-3.8,4.48h0c0,.13,0,.25,.02,.37-.27-1.04-.36-2.03-.3-2.71,.42-5.16,8.48-17.1,10.8-18.59,1.32-.85,1.21-.54,3.22-1.49,.63-.29,1.1-.42,1.35-1.15h.03c.71,.32,3.09,.12,3.72-.31-.07,.71-.15,1.24,.59,1.51,.84,.3,1.12,.49,2.23,.91,.65,.25,4.45,4.4,8.3,8.65h0c1.62,2.11,3.08,4.21,4.17,6.17-1.04,1.03-3.19,3.24-2.94,4,.44,1.35,3.16,.51,4.61-.26,.33,1.07,.48,2.05,.41,2.91h0c-.06,.7-.27,1.32-.65,1.86s-.99,1.1-1.63,1.51c-.83,.54-1.72,.85-2.22,.53h0c-.36-.58-.75-1.32-1.19-2.24-.74-1.56-1.64-3.64-2.86-6.37-.1-.23-.21-.45-.31-.67-1.24-2.67-2.44-4.65-5.15-9.21Zm.13,28.69c0-.94-.98-1.7-2.19-1.7s-2.19,.76-2.19,1.7,.98,1.71,2.19,1.71,2.19-.76,2.19-1.71Z"/><path class="m" d="M95.52,104.84c-.09,.63-.24,1.31-.46,2.15-.64-.18-1.17-.69-1.76-1.62,.5,.32,1.39,.02,2.22-.53Z"/><path class="s" d="M92.11,103.13h0c-.4,.74-1.01,1.54-1.92,2.29,.88-3.55-.9-7.31-1.25-9.34,.1,.22,.21,.44,.31,.67,1.22,2.73,2.12,4.81,2.86,6.37Z"/><path class="s" d="M92.23,63.26c0,1.73-.12,3.3-.4,4.7-1.08,.1-2.16,.28-3.18,.55,2.11-5.58,.78-11.7,.65-12.44,.23-.36,.52-.74,.87-1.15,1.32,2.28,2.07,5.09,2.07,8.34Z"/><path class="s" d="M91.83,67.97c-.31,1.56-.82,2.92-1.57,4.07-.86-.12-1.69-.18-2.51-.18l-.82-.16c.19-.23,.36-.47,.51-.72,.49-.8,.89-1.63,1.21-2.47,1.02-.27,2.1-.45,3.18-.55Z"/><path class="s" d="M88.94,96.08c.35,2.03,2.13,5.79,1.25,9.34-.14,.56-.34,1.11-.62,1.65-1.41,2.69-3.57,15.7-7.61,17.82-.63,.33-1.6,.39-2.43,.21,2.7-.37,4.81-4.86,5.73-7.79,1.87-5.92,2.01-8.51,2.9-12.87,1.67-8.16-.74-8.76-4.38-17.56,2.72,4.56,3.92,6.54,5.15,9.21Z"/><path class="s" d="M90.26,72.04c-1.75,2.67-4.8,4.26-9.79,4.82-1.01,.11-2.09,.19-3.26,.22-.12,0-.24,0-.37,0-2.45,0-5.75-.57-8.7-1.61,.95,.18,14.18,1.85,18.77-3.77l.82,.16c.82,0,1.66,.05,2.51,.18Z"/><path class="q" d="M70.53,68.65c.75,.08,1.31-.29,1.23-.74-.02-.12-.27-.22-.6-.29-.6-.12-1.46-.13-1.6-.02-.24,.2,.29,.96,.9,1.04,.02,0,.05,0,.07,0Zm18.11-.14c-.32,.84-.72,1.67-1.21,2.47-.16,.25-.33,.49-.51,.72-4.59,5.63-17.83,3.95-18.77,3.77-3.88-1.36-7.16-3.52-7.16-6.21,0-.65,.06-1.19,.16-1.65,.4-.76,.9-1.06,1.36-1.24,.19,.23,.5,.43,.87,.56,.71,.23,1.39,.07,1.52-.34,.13-.4-.31-.9-.98-1.14,.03-.07,.05-.14,.06-.23,.26-1.29-1.06-1.2-.96-3.91,.91-5.01,3.54-8.98,7.35-11.17h0c.61-.35,1.25-.66,1.92-.92h0c4.24-.67,9.23,.17,11.32,1.72h0c-.22,.45-.44,.86-.65,1.21-1.57,2.62,4.82,6.29,5.64,5.64,.08-.06,.09-.13,.07-.23,.08-.26,.16-.52,.23-.78h0c.08-.23,.21-.47,.37-.72,.12,.74,1.46,6.86-.65,12.44Zm-3.72-4.03c-.44-1.42-1.29-2.76-2.01-3.03-.95-.35-2.53,.7-3.79,2.07-1.25,1.35-2.19,3.02-1.91,3.94,.14,.45,1.14,.83,2.39,1.02h0c1.86,.28,4.26,.15,5.11-.71,.66-.67,.6-2,.21-3.28Zm-16.35-3.03c-.38-1.3-.97-2.46-1.58-2.7-.74-.29-1.8,1.03-2.27,2.64-.23,.81-.32,1.68-.14,2.47,.17,.73,.95,1.22,1.8,1.51,.78,.27,1.62,.36,2.11,.29,.08-.01,.16-.05,.22-.11,.53-.47,.36-2.41-.15-4.1Zm17.14,9.08c0-.59-.77-1.06-1.73-1.06s-1.72,.47-1.72,1.06,.77,1.06,1.72,1.06,1.73-.47,1.73-1.06Zm-5.76-9.93c.05-.24-.49-.64-1.04-.67-.73-.03-1.32,.61-1.24,.85,.14,.4,2.19,.25,2.28-.18Zm-8.3,5.83c1.32,.48,2.79-.18,2.78-.59,0-.66-3.98-1.46-4.27-.82-.15,.33,.66,1.11,1.49,1.41Zm-.46-6.49c.23-.27-.08-1.35-.9-1.5-.56-.1-1.2,.27-1.2,.6,0,.56,1.78,1.28,2.1,.9Z"/><path class="q" d="M88.69,57.58c.02,.1,0,.17-.07,.23,.02-.08,.05-.15,.07-.23Z"/><path class="s" d="M88.69,57.58c-.02,.08-.05,.15-.07,.23-.82,.65-7.21-3.02-5.64-5.64,.48-.63,.96-1.51,1.44-2.58,.77-1.72,1.53-3.92,2.3-6.35v-.02s.03-.08,.03-.08c.22-.7-1.05,5.49-.37,9.83,.42,2.67,2.17,4.02,2.31,4.61Z"/><path class="q" d="M84.28,49.53c1.14-2.61,2.23-5.71,2.43-6.29-.77,2.42-1.53,4.63-2.3,6.35-.04-.02-.09-.04-.13-.05Z"/><path class="t" d="M83.99,69.48c.96,0,1.73,.47,1.73,1.06s-.77,1.06-1.73,1.06-1.72-.47-1.72-1.06,.77-1.06,1.72-1.06Z"/><path class="h" d="M84.93,64.49c.39,1.27,.45,2.6-.21,3.28-.85,.87-3.25,.99-5.11,.71,2.13-.27,2.66-2.78,1.91-4.19,1.12-.37,2.29-.38,3.41,.2Z"/><path class="q" d="M84.28,49.53s.09,.04,.13,.05c-.48,1.07-.96,1.95-1.44,2.58,.21-.35,.43-.76,.65-1.21,.22-.44,.44-.93,.66-1.43Z"/><path class="s" d="M78.28,48.25c2.04,.05,4.29,.55,6.01,1.28-.22,.5-.44,.98-.66,1.43h0c-2.09-1.55-7.08-2.39-11.32-1.72,1.67-.65,3.52-.99,5.51-.99,.16,0,.31,0,.47,0Z"/><path class="m" d="M81.72,113.86c1.21,0,2.19,.76,2.19,1.7s-.98,1.71-2.19,1.71-2.19-.76-2.19-1.71,.98-1.7,2.19-1.7Z"/><path class="f" d="M84.93,64.49c-1.11-.58-2.28-.57-3.41-.2-.42-.79-1.23-1.24-2.4-.76,1.26-1.37,2.84-2.42,3.79-2.07,.72,.27,1.57,1.61,2.01,3.03Z"/><path class="l" d="M81.52,64.29c.75,1.41,.22,3.92-1.91,4.19h0c-1.25-.19-2.26-.56-2.39-1.02,1.14-1.34,2.68-2.63,4.31-3.18Z"/><path class="s" d="M80.47,76.87c0,.25-.02,.49-.04,.7-.62,.43-3.01,.63-3.72,.32h-.03c.07-.22,.12-.48,.16-.81,.12,0,.25,0,.37,0,1.17-.03,2.25-.1,3.26-.22h0Z"/><path class="i" d="M79.12,63.53c1.16-.48,1.98-.03,2.4,.76-1.63,.54-3.17,1.83-4.31,3.18-.28-.92,.66-2.58,1.91-3.94Z"/><path class="k" d="M78.92,59.95c.55,.02,1.09,.43,1.04,.67-.09,.43-2.14,.58-2.28,.18-.09-.24,.51-.88,1.24-.85Z"/><path class="s" d="M76.13,18.5c2.07,1.5,3.76,6.03,3.48,9.59-.65,8.51-2.3,16.18-1.34,20.16-.15,0-.31,0-.47,0-1.99,0-3.84,.35-5.51,.99h0c-.67,.26-1.31,.56-1.92,.92-.1-.36-.25-.74-.43-1.14h.02c-.33-1.39-1.72-3.81-.38-5.68,1.57-2.2,4.65-4.67,5.76-5.88,2.09-2.29,3.92-11.43,.79-18.96Z"/><path class="s" d="M77.49,108.43c.32,3.56,.19,6.97,.12,9.74h-.12c-.62,.33-1.45,.21-2.2-.5-2.37-2.26-4.28-8.32-5.83-11.54-.28-.58-.52-1.15-.74-1.72-.03-.09-.07-.18-.1-.27,1.07,.96,3.21,2.02,4.02,2.42,.71,.34,2.1,1.51,4.84,1.85Zm-.78,4.05c0-.6-.69-1.08-1.55-1.08s-1.55,.48-1.55,1.08,.69,1.08,1.55,1.08,1.55-.48,1.55-1.08Z"/><path class="o" d="M75.17,111.4c.86,0,1.55,.48,1.55,1.08s-.69,1.08-1.55,1.08-1.55-.48-1.55-1.08,.69-1.08,1.55-1.08Z"/><path class="q" d="M76.13,18.5c3.13,7.53,1.3,16.66-.79,18.96-1.11,1.21-4.19,3.68-5.76,5.88-1.34,1.87,.05,4.29,.38,5.67h-.02c-1.2-2.71-3.92-6.48-4.61-12.51-.9-7.96,5.53-18.02,9.17-18.49,.55-.07,1.1,.11,1.62,.5h0Z"/><path class="s" d="M74.44,65.86c0,.4-1.47,1.07-2.78,.59-.83-.3-1.64-1.08-1.49-1.41,.29-.64,4.26,.16,4.27,.82Z"/><path class="p" d="M71.76,67.91c.08,.45-.48,.83-1.23,.74,.44-.2,.83-.72,.63-1.03,.32,.07,.57,.16,.6,.29Z"/><path class="k" d="M70.3,58.45c.82,.15,1.14,1.23,.9,1.5-.32,.38-2.11-.34-2.1-.9,0-.33,.64-.7,1.2-.6Z"/><path class="g" d="M71.17,67.62c.19,.31-.2,.83-.63,1.03-.02,0-.05,0-.07,0-.61-.08-1.14-.84-.9-1.04,.14-.12,1-.1,1.6,.02Z"/><path class="i" d="M68.57,61.46c.51,1.69,.68,3.63,.15,4.1-.35-1.98-1.08-3.24-2.02-3.83,.58-.86,1.42-1.16,1.87-.27Z"/><path class="s" d="M68.63,104.16c.03,.09,.06,.18,.1,.27-.59,.63-1.19,1.88-2.57,1.99-.22,.02-.46,0-.72-.04-.84-.15-1.53-.57-2.09-1.16h0c-.87-.9-1.43-2.18-1.75-3.4h0c-.01-.13-.02-.25-.02-.37h0c-.06-2.91,2.5-4.8,3.8-4.48,.47,.12,1,.43,1.47,.85,.11-1.6,.37-3.34,1.18-4.86h0c-.82,3.38-.91,7.11,.59,11.2Z"/><path class="l" d="M68.72,65.56c-.06,.06-.14,.1-.22,.11-.48,.07-1.32-.02-2.11-.29h0c-.6-1.36-.28-2.79,.31-3.65,.94,.59,1.67,1.86,2.02,3.83Z"/><path class="f" d="M68.57,61.46c-.45-.89-1.29-.59-1.87,.27-.59-.37-1.26-.48-1.97-.33,.47-1.61,1.53-2.93,2.27-2.64,.61,.24,1.19,1.4,1.58,2.7Z"/><path class="h" d="M66.4,65.36h0c-.85-.28-1.63-.78-1.8-1.5-.18-.79-.1-1.66,.14-2.47,.71-.15,1.38-.04,1.97,.33-.59,.86-.91,2.29-.31,3.64Z"/><path class="t" d="M63.92,65.46c.67,.23,1.11,.74,.98,1.14-.13,.41-.81,.56-1.52,.34-.38-.12-.69-.33-.87-.56,.62-.25,1.19-.29,1.41-.92Z"/><path class="s" d="M62.1,65.26c.31-.62,.59-1.29,.69-2.3,.06-.56,.14-1.1,.23-1.63-.1,2.7,1.21,2.61,.96,3.91-.02,.08-.04,.16-.06,.23-.02,0-.04-.02-.06-.02-.71-.23-1.39-.08-1.52,.34-.06,.19,0,.41,.17,.6-.47,.18-.96,.48-1.36,1.24,.21-1,.6-1.65,.96-2.36Z"/><path class="r" d="M63.86,65.44s.04,.01,.06,.02c-.23,.64-.8,.68-1.41,.92-.16-.2-.23-.41-.17-.6,.13-.41,.81-.57,1.52-.34Z"/></g><circle class="h" cx="67.33" cy="62.07" r=".28"/><circle class="h" cx="80.91" cy="64.53" r=".28"/></g><g id="d"><g id="e"/><path class="j" d="M90.15,54.91c1.32,2.28,2.07,5.09,2.07,8.34,0,9.03-3.3,13.52-15.02,13.82-5.58,.14-16.22-2.96-16.22-7.81,0-3.3,1.52-3.62,1.8-6.31,.6-5.78,3.37-10.38,7.59-12.81h0c2.14-1.23,4.65-1.91,7.43-1.91,.16,0,.31,0,.47,0,2.09,.05,4.4,.58,6.14,1.34"/><path class="j" d="M68.48,65.65c1.33-.18,0-6.31-1.5-6.91-1.11-.44-2.95,2.75-2.4,5.11,.32,1.39,2.9,1.94,3.91,1.8Z"/><path class="j" d="M77.2,67.45c-.56-1.85,3.81-6.71,5.71-6.01,1.37,.51,3.2,4.89,1.8,6.31-1.42,1.45-7.17,.83-7.51-.3Z"/><path class="j" d="M71.19,59.94c.23-.27-.08-1.35-.9-1.5-.57-.1-1.2,.27-1.2,.6-.01,.56,1.78,1.28,2.1,.9Z"/><path class="j" d="M77.66,60.79c-.09-.25,.51-.88,1.24-.85,.55,.02,1.09,.43,1.04,.67-.09,.43-2.14,.58-2.28,.18Z"/><path class="j" d="M68.56,61.45c-.9-1.8-3.38,1.2-2.18,3.9"/><path class="j" d="M79.11,63.52c3.25-1.33,3.8,4.54,.48,4.95"/><path class="j" d="M67.78,69.46c.42,.81,1.15,.4,2.07,.56,.69,.12,2.25,1.12,3.7,.89"/><path class="j" d="M70.45,68.63c.79,.11,1.39-.28,1.3-.74-.06-.35-1.98-.48-2.2-.3-.24,.19,.29,.95,.9,1.04Z"/><path class="j" d="M70.02,70.06c.27-.14,.43-1.21,.43-1.42"/><path class="j" d="M78.26,48.24c-.96-3.98,.69-11.65,1.34-20.16,.34-4.47-2.39-10.44-5.11-10.09-3.64,.47-10.07,10.53-9.17,18.49,.79,6.93,4.25,10.87,5.03,13.66"/><path class="j" d="M82.96,52.15c2.63-3.45,5.2-14.46,7.92-22.55,1.42-4.25,6.27-8.69,8.63-7.3,3.17,1.85,5.18,13.62,1.24,20.6-3.42,6.08-10.81,11.05-11.84,13.88"/><path class="j" d="M93.79,29.59c-3.31,10.51-2.12,18.64-5.18,28.21"/><path class="j" d="M72.61,82.25c-3.07,5.96-7.94,13.92-3.16,23.88,1.55,3.23,3.46,9.28,5.83,11.54,.74,.71,1.57,.83,2.19,.49"/><path class="j" d="M76.83,77.07c-.16,1.47-.7,1.56-1.51,1.94-2.01,.95-1.9,.64-3.22,1.49-2.33,1.49-10.38,13.43-10.8,18.59-.16,2,.91,6.7,4.13,7.27,1.91,.34,2.6-1.22,3.29-1.95"/><path class="j" d="M80.45,76.85c.02,1.06-.42,1.87,.55,2.21,.84,.3,1.12,.49,2.23,.91,1,.38,9.58,10.15,14.16,15.1,3.77,4.07,.84,11.58-1.23,11.93-2.5,.43-3.2-1.93-6.94-10.27-1.61-3.58-2.94-5.6-7.25-12.89"/><path class="j" d="M88.92,96.07c.41,2.35,2.72,7.01,.63,10.99-1.42,2.69-3.57,15.69-7.61,17.82-1.16,.61-3.44,.31-3.94-.76-1-2.18,.1-8.63-.53-15.69"/><path class="j" d="M72.64,106.57c.71,.34,2.1,1.51,4.84,1.85,1.17,.14,2.19-.67,3.29-1.07"/><path class="j" d="M95.05,100.84c.76,2.53,.65,3.61,0,6.14"/><path class="j" d="M96.99,99.55c1.22,2.42,1.21,3.51,.89,5.82"/><path class="j" d="M64.19,100.31c-.92,2.01-.7,2.53-.85,4.9"/><path class="j" d="M66.19,101.37c-.32,2.36-.6,2.92-.04,5.03"/><path class="j" d="M62.09,65.25c-3.1-2.63-7.59-4.36-11.1-4.63"/><path class="j" d="M51.62,66.63c3.57-.07,6.72,.41,9.36,1.53"/><path class="j" d="M87.82,68.74c3.88-1.23,8.68-1.1,12.02,0"/><path class="j" d="M96.95,74.04c-3.27-1.44-6.36-2.21-9.23-2.19"/><path class="j" d="M90.18,105.41c.91-.75,1.52-1.55,1.92-2.29"/></g></svg>