<svg width="292" height="550" viewBox="0 0 292 550" fill="none" xmlns="http://www.w3.org/2000/svg">
<path d="M181.803 180.373C205.097 193.792 220.393 219.122 223.695 251.012C224.276 256.545 225.819 260.256 227.511 263.685C230.348 269.433 233.65 274.387 233.65 285.801C233.65 289.694 232.405 293.388 230.165 296.85" stroke="#3F2A25" stroke-width="2" stroke-linecap="round" stroke-linejoin="round"/>
<path d="M72.5354 206.681C72.5354 206.681 72.5354 206.681 72.5188 206.681C65.2188 219.254 61.1042 234.744 61.1042 252.652C61.1042 262.211 61.7845 270.858 63.3108 278.578C65.0363 287.193 67.8567 294.681 72.0045 301.059C82.8217 317.575 102.764 326.637 136.659 328.559" stroke="#3F2A25" stroke-width="2" stroke-linecap="round" stroke-linejoin="round"/>
<path d="M174.536 325.527C168.779 326.769 163.105 327.697 157.763 328.26" stroke="#3F2A25" stroke-width="2" stroke-linecap="round" stroke-linejoin="round"/>
<path d="M104.274 177.242C113.863 173.067 126.605 170.168 138.169 169.87" stroke="#3F2A25" stroke-width="2" stroke-linecap="round" stroke-linejoin="round"/>
<path d="M138.169 169.87C143.445 147.92 134.353 105.643 130.753 58.694C128.861 34.06 143.959 1.10971 158.957 3.06453C179.049 5.66543 214.57 61.1293 209.593 105.046C205.246 143.248 186.133 165 181.803 180.373" stroke="#3F2A25" stroke-width="2" stroke-linecap="round" stroke-linejoin="round"/>
<path d="M72.5187 206.697C58.6985 190.578 29.1833 167.501 13.9362 140.465C-7.78127 101.949 3.30145 37.0421 20.8049 26.8207C33.8453 19.2002 60.6065 43.6851 68.4705 67.1098C80.7312 103.605 92.4776 150.819 104.274 177.242" stroke="#3F2A25" stroke-width="2" stroke-linecap="round" stroke-linejoin="round"/>
<path d="M227.494 263.701C244.633 249.189 269.403 239.664 288.781 238.156" stroke="#3F2A25" stroke-width="2" stroke-linecap="round" stroke-linejoin="round"/>
<path d="M285.33 271.322C265.637 270.941 248.216 273.575 233.65 279.754" stroke="#3F2A25" stroke-width="2" stroke-linecap="round" stroke-linejoin="round"/>
<path d="M18.9634 282.902C31.4232 278.81 47.5661 277.153 63.3109 278.595" stroke="#3F2A25" stroke-width="2" stroke-linecap="round" stroke-linejoin="round"/>
<path d="M72.0045 301.075C60.2084 302.732 47.815 306.526 34.9404 312.175" stroke="#3F2A25" stroke-width="2" stroke-linecap="round" stroke-linejoin="round"/>
<path d="M170.637 355.727C169.692 356.323 168.729 356.969 167.75 357.616" stroke="#3F2A25" stroke-width="2" stroke-linecap="round" stroke-linejoin="round"/>
<path d="M187.162 397.325C188.97 397.309 190.58 397.242 191.89 397.11C204.367 395.834 225.454 384.139 229.104 373.321C229.518 372.128 229.701 370.935 229.651 369.776C229.502 366.794 227.992 363.762 225.487 360.913C221.953 356.87 216.445 353.209 210.157 350.625" stroke="#3F2A25" stroke-width="2" stroke-linecap="round" stroke-linejoin="round"/>
<path d="M115.24 355.727C117.065 348.504 118.84 343.336 119.886 342.574C124.465 339.227 131.566 339.923 133.573 337.786C135.995 335.235 136.277 332.038 136.659 328.575" stroke="#3F2A25" stroke-width="2" stroke-linecap="round" stroke-linejoin="round"/>
<path d="M225.503 360.913H225.487" stroke="#3F2A25" stroke-width="2" stroke-linecap="round" stroke-linejoin="round"/>
<path d="M170.82 407.248C168.132 429.911 160.816 450.701 153.051 462.049C148.804 468.245 151.326 505.685 149.584 512.394C147.526 520.363 132.279 523.311 126.871 520.76C123.387 519.12 115.605 500.864 113.631 492.415V492.382" stroke="#3F2A25" stroke-width="2" stroke-linecap="round" stroke-linejoin="round"/>
<path d="M157.763 328.26C156.602 332.799 155.805 334.506 156.154 337.869C156.502 341.033 161.678 342.491 162.574 344.28C164.681 348.504 166.407 352.977 167.751 357.616" stroke="#3F2A25" stroke-width="2" stroke-linecap="round" stroke-linejoin="round"/>
<path d="M50.038 430.64C48.5946 468.544 70.3785 517.812 83.0373 543.937C85.4762 548.956 105.269 550.033 109.168 543.771C112.105 539.066 112.254 516.934 113.631 492.449C113.631 492.432 113.648 492.432 113.631 492.416V492.383" stroke="#3F2A25" stroke-width="2" stroke-linecap="round" stroke-linejoin="round"/>
<path d="M69.7646 392.438C86.1896 376.352 108.056 363.944 115.24 355.727" stroke="#3F2A25" stroke-width="2" stroke-linecap="round" stroke-linejoin="round"/>
<path d="M210.157 350.625C210.572 346.698 211.783 343.319 215.964 338.448C222.65 330.662 227.561 332.485 233.982 326.123C240.319 319.861 243.355 311.677 241.199 305.382C240.518 303.394 239.324 301.589 237.549 300.098C235.607 298.474 233.102 297.397 230.166 296.851" stroke="#3F2A25" stroke-width="2" stroke-linecap="round" stroke-linejoin="round"/>
<path d="M170.637 355.727C170.82 348.074 169.708 336.03 174.536 325.527" stroke="#3F2A25" stroke-width="2" stroke-linecap="round" stroke-linejoin="round"/>
<path d="M50.0381 430.656C38.0097 439.42 29.4654 434.897 28.5031 432.611C25.749 426.051 35.4215 429.414 33.215 426.448C26.7445 417.768 14.5004 402.659 27.6902 388.362C33.3643 382.2 35.4381 400.439 37.429 397.109C39.619 393.465 31.8545 333.909 63.7256 329.37C75.8702 327.647 63.8086 368.748 60.1586 377.661C58.4995 381.719 70.4118 366.131 74.7586 368.417C78.8897 370.603 74.2443 382.051 69.7647 392.438" stroke="#3F2A25" stroke-width="2" stroke-linecap="round" stroke-linejoin="round"/>
<path d="M170.82 407.248C175.714 407.828 181.156 404.465 187.162 397.325" stroke="#3F2A25" stroke-width="2" stroke-linecap="round" stroke-linejoin="round"/>
<path d="M240.983 304.886C243.14 311.181 240.104 319.365 233.766 325.627C227.345 331.988 222.434 330.166 215.748 337.952C211.567 342.822 210.356 346.202 209.941 350.128C203.288 347.395 195.773 345.871 188.755 346.368C184.972 346.633 178.12 350.261 170.422 355.23C170.604 347.577 169.493 335.533 174.321 325.03C197.133 320.093 221.157 310.021 229.95 296.354C232.887 296.901 235.392 297.977 237.333 299.601C239.108 301.092 240.303 302.898 240.983 304.886Z" fill="#BC7171"/>
<path d="M104.058 176.746C113.648 172.571 126.373 169.672 137.937 169.374H137.954C138.8 169.357 139.646 169.341 140.509 169.341C155.905 169.341 169.758 173.085 181.571 179.877H181.588C204.865 193.312 220.161 218.625 223.463 250.515C225.006 265.342 233.418 267.082 233.418 285.305C233.418 289.198 232.173 292.892 229.95 296.354C221.157 310.021 197.133 320.094 174.321 325.03C168.564 326.273 162.873 327.201 157.531 327.764C152.587 328.261 147.958 328.476 143.827 328.377C141.288 328.311 138.833 328.211 136.444 328.079C102.532 326.157 82.5897 317.112 71.789 300.579C67.6247 294.201 64.8042 286.713 63.0788 278.098C61.5524 270.378 60.8722 261.731 60.8722 252.172C60.8722 234.264 64.9867 218.774 72.3033 206.201C58.4831 190.082 28.9678 167.005 13.7208 139.969C-8.01329 101.452 3.08604 36.5455 20.5729 26.3241C33.6299 18.7036 60.391 43.1886 68.2551 66.6133C80.4992 103.109 92.2622 150.323 104.058 176.746ZM190.812 289.347C190.032 289.347 189.203 289.33 188.307 289.314C187.096 289.28 185.769 289.297 184.375 289.529C183.794 289.628 183.081 289.844 182.284 290.125C180.078 290.921 177.125 292.295 173.873 293.306C172.247 293.82 170.555 294.25 168.829 294.449V294.631C169.742 299.535 173.093 304.621 176.411 305.317C181.007 306.277 189.817 299.021 190.812 289.347ZM181.106 281.875C184.474 281.411 187.378 277.22 186.067 276.143C184.839 275.149 174.271 275.845 173.923 277.8C173.458 280.351 176.76 282.488 181.106 281.875ZM213.509 255.485C216.528 242.481 206.358 224.887 200.236 227.323C196.868 228.664 193.633 235.076 191.509 242.265C188.39 252.719 187.577 264.829 191.94 265.425C194.611 265.789 199.257 265.292 203.571 263.818C208.282 262.228 212.579 259.494 213.509 255.485ZM177.009 233.949C178.8 236.02 188.689 232.094 188.622 228.979C188.589 227.157 185.121 225.103 181.986 225.666C177.473 226.494 175.731 232.458 177.009 233.949ZM141.255 238.588C141.72 237.246 138.451 233.734 134.42 233.899C131.35 234.032 128.381 236.252 128.663 237.577C129.16 239.963 140.492 240.774 141.255 238.588Z" fill="#BC7171"/>
<path d="M225.271 360.416C227.777 363.265 229.286 366.297 229.436 369.279C229.485 370.438 229.303 371.631 228.888 372.824C225.238 383.642 204.151 395.337 191.675 396.613C190.364 396.746 188.755 396.812 186.946 396.828C182.085 396.895 175.963 396.679 171.484 396.696C169.443 396.712 167.751 396.762 166.672 396.928C154.86 398.7 141.686 416.377 135.083 417.238C123.055 418.812 110.96 412.699 109.55 408.607C106.298 399.098 110.811 371.78 115.025 355.231C116.85 348.008 118.625 342.839 119.67 342.077C124.233 338.731 131.334 339.426 133.358 337.289C135.763 334.738 136.062 331.872 136.427 328.41V328.078C138.833 328.211 141.288 328.31 143.827 328.377C147.958 328.476 152.587 328.261 157.531 327.764C156.27 332.767 155.573 333.86 155.938 337.372C156.286 340.536 161.463 341.994 162.359 343.783C164.466 348.008 166.191 352.481 167.535 357.119C168.514 356.473 169.476 355.827 170.422 355.231C178.12 350.261 184.972 346.633 188.755 346.368C195.773 345.871 203.288 347.395 209.941 350.128C216.229 352.712 221.738 356.374 225.271 360.416Z" fill="#BC7171"/>
<path d="M200.236 227.323C206.358 224.887 216.528 242.481 213.509 255.485C212.58 259.494 208.282 262.228 203.571 263.818V263.768C210.19 248.859 196.486 232.326 191.509 242.265C193.633 235.076 196.868 228.665 200.236 227.323Z" fill="#BC7171"/>
<path d="M158.725 2.56791C178.817 5.16881 214.355 60.6492 209.361 104.55C205.031 142.768 185.885 164.52 181.588 179.893H181.571C169.758 173.084 155.905 169.34 140.509 169.34C139.646 169.34 138.8 169.357 137.953 169.374C143.229 147.423 134.138 105.146 130.521 58.1974C128.646 33.5799 143.727 0.613087 158.725 2.56791Z" fill="#BC7171"/>
<path d="M191.509 242.265C196.486 232.325 210.19 248.859 203.554 263.768V263.818C199.257 265.292 194.612 265.789 191.94 265.425C187.577 264.828 188.39 252.718 191.509 242.265Z" fill="#BC7171"/>
<path d="M188.307 289.313C189.203 289.33 190.032 289.363 190.812 289.347C189.817 299.021 181.007 306.277 176.411 305.316C173.093 304.621 169.742 299.535 168.846 294.631V294.449C170.555 294.25 172.247 293.819 173.873 293.306C174.122 293.753 173.873 300.032 178.468 300.015C181.521 300.015 187.676 294.25 188.307 289.313Z" fill="#BC7171"/>
<path d="M188.622 228.979C188.689 232.093 178.8 236.02 177.009 233.949C175.731 232.458 177.473 226.494 181.986 225.666C185.122 225.102 188.589 227.157 188.622 228.979Z" fill="#BC7171"/>
<path d="M184.375 289.529C185.769 289.297 187.096 289.28 188.307 289.313C187.676 294.25 181.521 300.015 178.469 300.015C180.642 298.242 182.649 292.113 182.284 290.125C183.081 289.843 183.794 289.628 184.375 289.529Z" fill="#BC7171"/>
<path d="M171.484 396.696C175.963 396.679 182.085 396.895 186.947 396.828C180.941 403.968 175.499 407.331 170.604 406.751C171.003 403.438 171.301 400.075 171.484 396.696Z" fill="#BC7171"/>
<path d="M186.067 276.143C187.378 277.22 184.474 281.411 181.106 281.875C176.76 282.488 173.458 280.351 173.923 277.8C174.271 275.845 184.839 275.149 186.067 276.143Z" fill="#BC7171"/>
<path d="M182.284 290.125C182.649 292.112 180.642 298.242 178.468 300.015C173.873 300.031 174.122 293.752 173.873 293.305C177.125 292.295 180.078 290.92 182.284 290.125Z" fill="#BC7171"/>
<path d="M113.416 491.886C112.039 516.387 111.873 538.569 108.953 543.274C105.054 549.536 85.2609 548.459 82.822 543.44C70.1631 517.315 48.3793 468.047 49.8227 430.143C49.8724 428.884 49.9388 427.658 50.0384 426.432C51.067 413.577 59.2463 402.03 69.5493 391.941C85.9743 375.855 107.825 363.447 115.008 355.23H115.025C110.811 371.78 106.298 399.098 109.55 408.607C110.96 412.699 123.055 418.812 135.083 417.238C141.687 416.377 154.86 398.7 166.672 396.928C167.751 396.762 169.443 396.712 171.484 396.696C171.301 400.075 171.003 403.438 170.604 406.752C167.917 429.414 160.6 450.205 152.836 461.553C148.588 467.749 151.11 505.188 149.368 511.898C147.311 519.866 132.064 522.815 126.655 520.264C123.171 518.624 115.373 500.318 113.416 491.886Z" fill="#BC7171"/>
<path d="M134.42 233.899C138.451 233.734 141.72 237.246 141.255 238.587C140.492 240.774 129.16 239.962 128.663 237.577C128.381 236.252 131.35 234.032 134.42 233.899Z" fill="#BC7171"/>
<path d="M74.543 367.92C78.6741 370.107 74.0287 381.554 69.5492 391.941C59.2462 402.03 51.0669 413.577 50.0383 426.432C49.9387 427.658 49.8723 428.884 49.8226 430.143C37.7776 438.907 29.2498 434.384 28.2876 432.098C25.5335 425.538 35.206 428.901 32.9994 425.935C26.5289 417.254 14.2848 402.163 27.4746 387.849C33.1487 381.703 35.2226 399.926 37.2135 396.613C39.4035 392.968 31.6389 333.413 63.5101 328.873C75.6546 327.134 63.593 368.251 59.943 377.164C58.2673 381.223 70.1962 365.634 74.543 367.92Z" fill="#BC7171"/>
<path d="M182.384 290.473C182.732 292.477 180.742 298.574 178.568 300.363C173.972 300.379 174.205 294.084 173.972 293.653C177.224 292.643 180.177 291.268 182.384 290.473Z" fill="white"/>
<path d="M212.612 241.371C214.089 246.042 214.67 251.227 213.608 255.833C212.679 259.825 208.382 262.575 203.67 264.166V264.116C207.27 255.965 204.831 247.334 201.049 242.812C204.582 240.907 208.564 240.526 212.612 241.371Z" fill="white"/>
<path d="M188.407 289.661C187.743 294.598 181.621 300.346 178.568 300.363C180.742 298.574 182.732 292.477 182.384 290.473C182.815 290.307 183.214 290.175 183.579 290.075C183.894 289.976 184.192 289.91 184.458 289.86C185.868 289.628 187.179 289.628 188.407 289.661Z" fill="#EAD0D0"/>
<path d="M212.612 241.371C208.564 240.526 204.582 240.907 201.049 242.812C197.93 239.051 193.898 238.091 191.625 242.53C193.765 235.374 196.967 229.012 200.335 227.67C204.284 226.08 209.925 232.872 212.612 241.371Z" fill="#EAD0D0"/>
<path d="M178.568 300.363C181.621 300.346 187.743 294.598 188.406 289.661C189.302 289.678 190.132 289.711 190.912 289.678C189.916 299.352 181.106 306.608 176.511 305.648C173.176 304.952 169.841 299.882 168.929 294.962V294.813C170.638 294.598 172.346 294.167 173.972 293.654C174.205 294.084 173.972 300.379 178.568 300.363Z" fill="#472B28"/>
<path d="M183.578 276.044C183.578 277.551 184.342 279.307 179.928 282.306C176.245 282.389 173.591 280.45 174.022 278.131C174.271 276.706 180.061 275.944 183.578 276.044Z" fill="#FCB9B9"/>
<path d="M66.2642 138.825C65.7167 152.758 71.9548 190.628 56.9401 190.628C42.4894 176.53 24.5878 159.417 13.8037 140.3C-6.78562 103.821 2.10711 43.6191 17.9846 28.7095C33.8787 30.1673 46.4712 45.0107 52.3112 66.8782C60.4905 92.8541 63.6926 116.212 66.2642 138.825Z" fill="#FCB9B9"/>
<path d="M186.167 276.474C187.477 277.551 184.557 281.742 181.189 282.206C180.758 282.272 180.343 282.306 179.928 282.306C184.342 279.307 183.578 277.551 183.578 276.043C184.856 276.06 185.835 276.209 186.167 276.474Z" fill="#EAA0A0"/>
<path d="M66.2643 138.825C69.2175 164.834 71.3245 189.882 79.2052 216.819C78.0936 213.804 75.6879 210.375 72.4029 206.532C68.3381 201.81 62.9295 196.476 56.9402 190.628C71.955 190.628 65.7168 152.757 66.2643 138.825Z" fill="#EAA0A0"/>
<path d="M216.229 264.911C220.128 263.652 223.894 264.497 224.624 266.783C224.94 267.761 224.641 268.838 223.911 269.848H223.894C220.377 268.705 217.175 268.307 215.914 265.027C216.014 264.978 216.13 264.945 216.229 264.911Z" fill="#D17E75"/>
<path d="M105.07 287.193C110.33 287.193 114.61 289.81 114.61 293.041C114.61 296.271 110.33 298.905 105.07 298.905C99.811 298.905 95.5305 296.271 95.5305 293.041C95.5305 289.81 99.7944 287.193 105.07 287.193Z" fill="#E08F82"/>
<path d="M223.894 269.848C222.932 271.223 221.124 272.466 218.884 273.178C214.985 274.42 211.219 273.592 210.489 271.306C209.775 269.086 212.198 266.32 215.914 265.027C217.175 268.307 220.377 268.705 223.894 269.848Z" fill="#E08F82"/>
<path d="M188.722 229.327C188.771 232.425 178.9 236.351 177.108 234.297C175.814 232.806 177.572 226.842 182.085 226.013C185.204 225.434 188.688 227.488 188.722 229.327Z" fill="#EAB5A7"/>
<path d="M134.519 234.23C138.551 234.065 141.819 237.577 141.338 238.935C140.591 241.105 129.243 240.31 128.746 237.908C128.48 236.583 131.45 234.363 134.519 234.23Z" fill="#EAB5A7"/>
<path d="M189.501 262.708C188.34 258.318 189.385 249.985 191.625 242.53C193.898 238.09 197.93 239.051 201.049 242.812C195.723 245.678 191.443 251.989 189.551 262.691H189.501V262.708Z" fill="#6B3D34"/>
<path d="M201.049 242.812C204.831 247.334 207.27 255.965 203.654 264.116V264.165C199.356 265.64 194.711 266.137 192.04 265.772C190.796 265.59 189.966 264.464 189.501 262.708H189.551C191.443 251.989 195.723 245.677 201.049 242.812Z" fill="#7F4D40"/>
<path d="M150.347 480.869C150.264 484.182 150.231 487.628 150.214 490.991C148.804 491.654 147.195 492.184 145.436 492.548C139.131 493.841 133.474 492.35 132.827 489.186C132.163 486.038 136.759 482.427 143.063 481.118C145.718 480.571 148.256 480.505 150.347 480.869Z" fill="#824F46"/>
<path d="M112.968 502.836C112.851 505.503 112.735 508.12 112.619 510.638C110.645 511.881 107.891 512.825 104.772 513.173C98.3675 513.902 92.8759 511.897 92.5109 508.683C92.1625 505.486 97.0568 502.305 103.461 501.577C107.227 501.146 110.695 501.676 112.968 502.836Z" fill="#935D51"/>
<path d="M74.6426 368.268C78.7738 370.455 74.1449 381.886 69.6654 392.256C69.6654 392.273 69.6487 392.273 69.6487 392.289C65.3683 396.464 61.4529 400.904 58.284 405.592C61.5524 400.589 64.8706 389.589 62.6806 386.789C60.8224 384.387 56.3594 386.574 53.5888 385.05C49.2585 382.681 69.7649 331.359 57.0065 331.359L56.9235 331.193C58.931 330.232 61.1542 329.553 63.6097 329.205C75.7376 327.482 63.676 368.583 60.026 377.496C58.3669 381.571 70.2958 365.965 74.6426 368.268Z" fill="#935D51"/>
<path d="M137.024 380.295C135.448 374.248 135.68 364.971 135.398 355.562C135.548 342.938 126.207 339.658 119.753 342.408C124.332 339.062 131.433 339.774 133.441 337.637C135.863 335.069 136.145 332.203 136.527 328.741V328.426C138.932 328.559 141.388 328.658 143.926 328.724C148.057 328.824 152.686 328.608 157.614 328.111C156.353 333.098 155.656 334.191 156.021 337.703C156.369 340.867 161.546 342.325 162.442 344.114C164.549 348.339 166.274 352.812 167.618 357.45C158.228 363.712 148.008 371.498 140.708 377.33C139.364 378.39 138.136 379.384 137.024 380.295Z" fill="#935D51"/>
<path d="M171.567 397.043C171.384 400.423 171.086 403.769 170.687 407.083C168 429.745 160.683 450.536 152.919 461.884C151.193 464.418 150.579 472.138 150.347 480.869C148.256 480.504 145.718 480.571 143.064 481.117C136.759 482.426 132.163 486.037 132.827 489.185C133.474 492.349 139.131 493.84 145.436 492.548C147.195 492.184 148.804 491.653 150.214 490.991C150.164 500.483 150.214 509.296 149.451 512.229C147.394 520.197 132.147 523.146 126.738 520.595C123.254 518.955 115.473 500.699 113.499 492.25C113.681 489.251 113.864 486.203 114.079 483.155C114.975 470.349 126.522 462.861 132.578 457.56C149.02 447.504 156.17 432.661 158.974 423.301C161.778 414.007 164.018 405.774 164.018 397.971C164.947 397.64 165.859 397.408 166.772 397.275C167.85 397.11 169.543 397.06 171.567 397.043Z" fill="#935D51"/>
<path d="M171.567 397.044C176.03 397.011 182.168 397.243 187.029 397.16C181.023 404.3 175.582 407.663 170.687 407.083C171.085 403.77 171.384 400.423 171.567 397.044Z" fill="#935D51"/>
<path d="M225.371 360.747C224.06 360.3 222.833 359.919 221.655 359.571C207.436 351.901 192.687 351.47 189.402 353.591C182.981 357.699 194.611 380.03 186.482 382.565C180.227 384.52 173.143 365.535 170.505 364.69C162.89 362.238 147.244 373.984 140.708 377.33C148.008 371.499 158.228 363.712 167.618 357.45C168.597 356.804 169.559 356.175 170.505 355.562C178.203 350.609 185.055 346.981 188.838 346.716C195.856 346.219 203.371 347.726 210.024 350.459C216.329 353.027 221.837 356.688 225.371 360.747Z" fill="#935D51"/>
<path d="M241.066 305.217C243.223 311.512 240.187 319.696 233.849 325.958C227.428 332.319 222.517 330.497 215.831 338.283C211.65 343.153 210.439 346.533 210.024 350.459C203.371 347.726 195.856 346.218 188.838 346.715C185.055 346.98 178.203 350.608 170.505 355.562C170.687 347.908 169.576 335.881 174.404 325.378C176.561 324.914 178.717 324.4 180.874 323.837C201.613 318.519 222.103 309.077 230.05 296.685C232.986 297.232 235.475 298.309 237.416 299.932C239.191 301.423 240.386 303.229 241.066 305.217Z" fill="#935D51"/>
<path d="M230.05 296.685C222.103 309.077 201.613 318.52 180.874 323.837C219.266 311.595 231.875 275.514 226.068 270.66C225.338 270.328 224.624 270.08 223.911 269.848C224.641 268.837 224.94 267.761 224.624 266.783C223.894 264.497 220.128 263.652 216.229 264.911C216.13 264.944 216.014 264.977 215.914 265.027C215.765 264.646 215.632 264.248 215.549 263.785C214.687 259.411 217.673 257.904 219.962 253.911C220.012 253.845 220.045 253.762 220.079 253.679C220.444 252.901 220.51 251.36 220.244 249.239L223.33 248.875C223.413 249.538 223.496 250.2 223.563 250.863C224.824 262.907 230.597 266.319 232.737 276.938C233.219 279.407 233.517 282.239 233.517 285.652C233.517 289.545 232.273 293.223 230.05 296.685Z" fill="#935D51"/>
<path d="M112.072 191.324C122.441 204.627 85.4765 226.014 80.914 222.435C80.7812 222.038 80.6651 221.64 80.5323 221.243C81.3121 218.111 91.1505 211.104 91.8639 196.145C92.876 174.741 73.0167 84.2064 71.988 78.1597C72.5687 79.9488 73.1328 81.7711 73.7135 83.61C73.7964 83.8253 73.8628 84.0738 73.9292 84.3223C74.0453 84.7033 74.1614 85.0844 74.2942 85.482C74.5596 86.3434 74.8417 87.3043 75.1569 88.3148C75.3228 88.8284 75.4721 89.3419 75.638 89.872C75.8039 90.4022 75.9698 90.9488 76.1523 91.5287C85.6258 122.69 94.8835 156.303 104.158 177.077C106.63 182.61 109.102 187.249 111.591 190.661C111.756 190.91 111.922 191.125 112.072 191.324Z" fill="#935D51"/>
<path d="M170.339 8.66406C189.999 24.3523 213.591 68.5677 209.46 104.898C205.113 143.116 185.984 164.867 181.67 180.224C169.858 173.432 156.004 169.688 140.608 169.688C139.745 169.688 138.883 169.705 138.036 169.721C139.712 162.714 139.944 153.635 139.347 143H139.463C143.511 124.247 168.083 117.256 174.171 110.58C185.735 97.9397 193.815 51.0074 170.339 8.66406Z" fill="#935D51"/>
<path d="M222.351 242.265C222.733 244.435 223.065 246.639 223.33 248.875L220.244 249.24C217.938 230.818 190.48 168.413 112.088 174.145C120.201 171.594 129.442 169.937 138.036 169.722C138.882 169.705 139.745 169.688 140.608 169.688C156.004 169.688 169.858 173.432 181.67 180.225C202.824 192.417 217.374 214.417 222.351 242.232V242.265Z" fill="#935D51"/>
<path d="M181.372 262.708C182.201 264.53 182.201 267.363 177.622 269.036C170.372 271.703 157.746 269.483 157.78 267.247C157.829 263.586 179.763 259.179 181.372 262.708Z" fill="#935D51"/>
<path d="M62.6804 386.789C64.8704 389.589 61.5522 400.589 58.2838 405.592C58.2341 405.658 58.2009 405.708 58.1677 405.758C53.7379 412.301 50.735 419.309 50.1377 426.764C50.0381 427.99 49.9718 429.232 49.922 430.491H49.9054C37.877 439.238 29.3493 434.715 28.387 432.446C25.6163 425.869 35.3054 429.249 33.0822 426.283C26.6284 417.602 14.3843 402.494 27.574 388.197C33.2481 382.035 35.322 400.274 37.3129 396.944C39.337 393.581 32.8831 342.59 56.9234 331.193L57.0063 331.358C69.7647 331.358 49.2584 382.681 53.5886 385.05C56.3593 386.574 60.8222 384.387 62.6804 386.789Z" fill="#B27967"/>
<path d="M170.339 8.66416C193.815 51.0075 185.735 97.9398 174.171 110.58C168.082 117.256 143.511 124.247 139.463 143H139.347C138.07 120.321 133.076 90.5015 130.62 58.5452C128.729 33.9111 143.827 0.960841 158.825 2.89909C162.292 3.34638 166.224 5.38404 170.322 8.64759C170.322 8.64759 170.322 8.66416 170.339 8.66416Z" fill="#B27967"/>
<path d="M91.8639 196.145C91.1505 211.104 81.3121 218.112 80.5323 221.243C80.0844 219.785 79.6364 218.327 79.2217 216.869C79.2051 216.853 79.2051 216.836 79.2051 216.819C71.3244 189.883 69.2174 164.834 66.2642 138.825C63.6926 116.212 60.4905 92.854 52.3112 66.8781C46.4712 45.0107 33.8787 30.1673 17.9846 28.7095C18.8639 27.8977 19.7599 27.2019 20.6724 26.6718C33.7294 19.0513 60.474 43.5363 68.338 66.9444C69.5658 70.589 70.7769 74.3329 71.988 78.1597C73.0167 84.2064 92.876 174.741 91.8639 196.145Z" fill="#B27967"/>
<path d="M203.67 264.165C208.382 262.575 212.679 259.825 213.608 255.833C214.67 251.227 214.089 246.042 212.613 241.37C209.925 232.872 204.284 226.08 200.335 227.67C196.967 229.012 193.765 235.373 191.625 242.53C189.385 249.985 188.34 258.318 189.501 262.708C189.966 264.464 190.796 265.59 192.04 265.772C194.711 266.137 199.356 265.64 203.67 264.165ZM180.874 323.837C178.717 324.4 176.561 324.914 174.404 325.378C168.647 326.62 162.956 327.548 157.614 328.111C152.686 328.608 148.057 328.824 143.926 328.724C141.388 328.658 138.932 328.559 136.543 328.426C102.631 326.504 82.6726 317.443 71.8885 300.909C67.7076 294.548 64.9037 287.06 63.1949 278.446C61.6519 270.709 60.9717 262.078 60.9717 252.519C60.9717 234.611 65.0862 219.105 72.4028 206.531C75.6878 210.375 78.0935 213.804 79.2051 216.819C79.2051 216.836 79.2051 216.852 79.2217 216.869C79.6365 218.327 80.0844 219.784 80.5324 221.242C80.4162 221.723 80.5324 222.12 80.914 222.435C85.4765 226.013 122.441 204.626 112.072 191.324C111.922 191.125 111.756 190.909 111.591 190.661C109.832 188.077 107.526 183.156 104.938 176.745C107.177 175.801 109.566 174.923 112.072 174.144H112.088C190.48 168.412 217.938 230.818 220.244 249.239C220.51 251.36 220.443 252.9 220.078 253.679C220.045 253.762 220.012 253.845 219.962 253.911C217.673 257.903 214.686 259.411 215.549 263.784C215.632 264.248 215.765 264.646 215.914 265.027C212.198 266.319 209.776 269.086 210.489 271.306C211.219 273.592 214.985 274.42 218.884 273.178C221.124 272.465 222.932 271.223 223.894 269.848H223.911C224.624 270.08 225.338 270.328 226.068 270.659C231.875 275.513 219.266 311.595 180.874 323.837ZM181.189 282.206C184.557 281.742 187.477 277.551 186.167 276.474C185.835 276.209 184.856 276.06 183.578 276.043C180.061 275.944 174.271 276.706 174.022 278.131C173.591 280.45 176.245 282.388 179.928 282.306C180.343 282.306 180.758 282.272 181.189 282.206ZM188.406 289.661C187.179 289.628 185.868 289.628 184.458 289.86C184.192 289.909 183.894 289.976 183.578 290.075C183.213 290.175 182.815 290.307 182.384 290.473C180.177 291.268 177.224 292.643 173.972 293.653C172.346 294.167 170.638 294.598 168.912 294.813V294.962C169.841 299.882 173.176 304.952 176.511 305.647C181.106 306.608 189.916 299.352 190.912 289.677C190.132 289.711 189.302 289.678 188.406 289.661ZM177.108 234.296C178.9 236.351 188.771 232.424 188.722 229.327C188.689 227.488 185.204 225.434 182.085 226.013C177.573 226.842 175.814 232.806 177.108 234.296ZM177.622 269.036C182.201 267.363 182.201 264.53 181.372 262.708C179.763 259.179 157.829 263.586 157.78 267.247C157.746 269.483 170.372 271.703 177.622 269.036ZM141.338 238.935C141.819 237.577 138.551 234.065 134.519 234.23C131.45 234.363 128.48 236.583 128.746 237.908C129.243 240.31 140.591 241.105 141.338 238.935ZM114.61 293.04C114.61 289.81 110.33 287.193 105.07 287.193C99.811 287.193 95.5305 289.81 95.5305 293.04C95.5305 296.271 99.7944 298.905 105.07 298.905C110.346 298.905 114.61 296.271 114.61 293.04Z" fill="#B27967"/>
<path d="M221.655 359.571C223.446 360.515 225.222 361.592 226.964 362.801H226.98C228.523 365.021 229.419 367.34 229.535 369.61C229.585 370.769 229.386 371.979 228.971 373.172C225.305 384.006 204.234 395.685 191.774 396.944C190.464 397.077 188.838 397.143 187.029 397.16C182.168 397.242 176.03 397.01 171.567 397.044C169.543 397.06 167.85 397.11 166.772 397.275C165.859 397.408 164.947 397.64 164.018 397.971C152.968 401.666 141.255 416.791 135.183 417.586C123.154 419.16 111.043 413.047 109.649 408.938C106.398 399.429 110.91 372.111 115.124 355.562C116.949 348.339 118.708 343.17 119.753 342.408C126.207 339.658 135.548 342.938 135.399 355.562C135.681 364.971 135.448 374.248 137.024 380.295C138.136 379.384 139.364 378.39 140.708 377.33C147.244 373.983 162.89 362.238 170.505 364.69C173.143 365.535 180.227 384.519 186.482 382.565C194.611 380.03 182.981 357.699 189.402 353.59C192.687 351.47 207.436 351.9 221.655 359.571Z" fill="#B27967"/>
<path d="M113.498 492.25C113.299 495.845 113.133 499.39 112.967 502.836C110.695 501.676 107.227 501.146 103.461 501.577C97.0568 502.305 92.1625 505.486 92.5109 508.683C92.8759 511.897 98.3675 513.902 104.772 513.173C107.891 512.825 110.645 511.881 112.619 510.638C111.873 527.105 111.209 540.143 109.052 543.605C105.137 549.867 85.3436 548.79 82.9214 543.771C70.2625 517.662 48.4786 468.411 49.922 430.491C49.9718 429.232 50.0382 427.989 50.1377 426.763C50.735 419.308 53.7379 412.301 58.1677 405.757C58.2009 405.708 58.2341 405.658 58.2839 405.592C61.4527 400.903 65.3682 396.464 69.6486 392.289C69.6486 392.272 69.6652 392.272 69.6652 392.256C86.0736 376.187 107.94 363.778 115.108 355.562H115.124C110.91 372.111 106.397 399.429 109.649 408.938C111.043 413.046 123.154 419.159 135.183 417.586C141.255 416.79 152.968 401.665 164.018 397.971C164.018 405.774 161.778 414.007 158.974 423.301C156.17 432.661 149.02 447.504 132.578 457.56C126.522 462.861 114.975 470.349 114.079 483.155C113.863 486.203 113.681 489.251 113.498 492.25Z" fill="#B27967"/>
<path d="M197.581 246.672C198.433 246.672 199.124 245.982 199.124 245.131C199.124 244.28 198.433 243.59 197.581 243.59C196.729 243.59 196.038 244.28 196.038 245.131C196.038 245.982 196.729 246.672 197.581 246.672Z" fill="white"/>
<path d="M104.274 177.226C113.863 173.052 126.589 170.153 138.152 169.854C138.999 169.854 139.861 169.821 140.724 169.821C156.12 169.821 169.974 173.565 181.787 180.357C205.08 193.776 220.377 219.106 223.679 250.996C225.222 265.823 233.633 267.562 233.633 285.785C233.633 312.523 174.868 329.653 144.042 328.857C79.3376 327.201 61.0876 302.467 61.0876 252.653C61.0876 234.744 65.2022 219.238 72.5188 206.665" stroke="#3F2A25" stroke-linecap="round" stroke-linejoin="round"/>
<path d="M192.156 265.906C184.806 264.895 192.156 231.116 200.451 227.803C206.573 225.351 216.744 242.945 213.724 255.966C211.949 263.653 197.73 266.668 192.156 265.906Z" stroke="#3F2A25" stroke-linecap="round" stroke-linejoin="round"/>
<path d="M177.224 234.429C175.93 232.938 177.688 226.974 182.201 226.146C185.32 225.566 188.804 227.637 188.838 229.459C188.887 232.574 179.016 236.5 177.224 234.429Z" stroke="#3F2A25" stroke-linecap="round" stroke-linejoin="round"/>
<path d="M141.47 239.068C141.935 237.709 138.667 234.197 134.635 234.363C131.582 234.496 128.596 236.715 128.878 238.041C129.376 240.426 140.707 241.222 141.47 239.051V239.068Z" stroke="#3F2A25" stroke-linecap="round" stroke-linejoin="round"/>
<path d="M191.724 242.746C196.702 232.806 210.422 249.339 203.786 264.249" stroke="#3F2A25" stroke-linecap="round" stroke-linejoin="round"/>
<path d="M196.055 286.928C193.749 291.401 189.717 289.131 184.59 289.993C180.791 290.639 172.147 296.156 164.134 294.93" stroke="#3F2A25" stroke-linecap="round" stroke-linejoin="round"/>
<path d="M181.322 282.356C176.975 282.969 173.674 280.832 174.138 278.28C174.487 276.342 185.055 275.63 186.283 276.624C187.593 277.7 184.69 281.892 181.322 282.356Z" stroke="#3F2A25" stroke-linecap="round" stroke-linejoin="round"/>
<path d="M183.694 290.208C182.218 289.462 181.322 283.515 181.322 282.355" stroke="#3F2A25" stroke-linecap="round" stroke-linejoin="round"/>
<path d="M138.169 169.854C143.445 147.904 134.353 105.627 130.753 58.678C128.861 34.0439 143.959 1.09365 158.957 3.03191C179.049 5.63281 214.587 61.1132 209.593 105.03C205.246 143.249 186.117 165 181.803 180.374" stroke="#3F2A25" stroke-linecap="round" stroke-linejoin="round"/>
<path d="M112.204 191.473C97.7037 172.455 83.4687 111.74 68.4705 67.0937C60.6064 43.669 33.8453 19.1841 20.8048 26.8046C3.31801 37.026 -7.78131 101.933 13.9362 140.433C32.8332 173.946 73.6469 201.363 79.3376 217.002" stroke="#3F2A25" stroke-linecap="round" stroke-linejoin="round"/>
<path d="M52.427 67.0107C70.6936 124.993 64.1568 169.821 81.0463 222.585" stroke="#3F2A25" stroke-linecap="round" stroke-linejoin="round"/>
<path d="M227.494 263.685C244.633 249.173 269.403 239.648 288.781 238.14" stroke="#3F2A25" stroke-linecap="round" stroke-linejoin="round"/>
<path d="M285.314 271.289C265.62 270.908 248.2 273.542 233.633 279.722" stroke="#3F2A25" stroke-linecap="round" stroke-linejoin="round"/>
<path d="M85.3766 282.902C63.9743 276.094 37.4288 276.823 18.9631 282.886" stroke="#3F2A25" stroke-linecap="round" stroke-linejoin="round"/>
<path d="M34.9402 312.159C52.9745 304.24 70.0632 299.966 85.8909 300.082" stroke="#3F2A25" stroke-linecap="round" stroke-linejoin="round"/>
<path d="M105.866 272.085C119.886 266.949 143.362 272.549 145.353 272.085C152.072 270.494 122.142 250.416 112.188 250.449" stroke="#3F2A25" stroke-linecap="round" stroke-linejoin="round"/>
<path d="M191.028 289.827C190.032 299.502 181.222 306.758 176.627 305.797C173.292 305.101 169.957 300.015 169.045 295.112" stroke="#3F2A25" stroke-linecap="round" stroke-linejoin="round"/>
<path d="M188.539 289.794C187.892 294.731 181.753 300.496 178.7 300.496C174.105 300.512 174.354 294.234 174.105 293.786" stroke="#3F2A25" stroke-linecap="round" stroke-linejoin="round"/>
<path d="M182.5 290.606C182.865 292.594 180.857 298.723 178.684 300.496" stroke="#3F2A25" stroke-linecap="round" stroke-linejoin="round"/>
<path d="M136.642 328.89C136.261 332.352 135.979 335.218 133.557 337.786C131.532 339.923 124.448 339.211 119.869 342.574C116.435 345.092 105.07 395.453 109.749 409.104C111.159 413.212 123.27 419.325 135.282 417.752C141.885 416.89 155.075 399.214 166.871 397.441C171.201 396.795 185.47 397.773 191.874 397.11C205.727 395.702 230.199 381.438 229.635 369.776C229.07 358.063 207.287 345.572 188.954 346.865C176.726 347.726 132.578 383.708 130.852 385.862" stroke="#3F2A25" stroke-linecap="round" stroke-linejoin="round"/>
<path d="M135.514 355.711C135.796 365.121 135.564 374.398 137.157 380.428" stroke="#3F2A25" stroke-linecap="round" stroke-linejoin="round"/>
<path d="M194.81 360.896C203.487 357.418 209.128 355.347 225.487 360.896" stroke="#3F2A25" stroke-linecap="round" stroke-linejoin="round"/>
<path d="M200.119 374.514C208.879 370.621 219.099 367.788 229.104 373.304" stroke="#3F2A25" stroke-linecap="round" stroke-linejoin="round"/>
<path d="M113.631 492.366C115.589 500.798 123.386 519.104 126.87 520.744C132.279 523.295 147.526 520.346 149.583 512.378C151.325 505.669 148.804 468.229 153.051 462.033C161.96 449.029 170.256 423.599 171.699 397.176" stroke="#3F2A25" stroke-linecap="round" stroke-linejoin="round"/>
<path d="M157.746 328.244C156.485 333.247 155.788 334.341 156.153 337.853C156.502 341.017 161.678 342.475 162.574 344.264C164.681 348.488 166.407 352.961 167.75 357.6" stroke="#3F2A25" stroke-linecap="round" stroke-linejoin="round"/>
<path d="M115.224 355.711C103.544 369.08 52.9415 393.581 50.2372 426.913C47.1347 465.264 69.9472 516.95 83.0208 543.92C85.4597 548.94 105.253 550.017 109.151 543.755C112.453 538.47 112.237 511.185 114.179 483.304C115.074 470.499 126.622 463.011 132.677 457.693" stroke="#3F2A25" stroke-linecap="round" stroke-linejoin="round"/>
<path d="M210.157 350.609C210.572 346.682 211.783 343.303 215.964 338.432C222.65 330.646 227.561 332.469 233.981 326.107C240.319 319.845 243.355 311.661 241.198 305.366C240.518 303.378 239.324 301.572 237.548 300.081C235.607 298.458 233.102 297.381 230.165 296.834" stroke="#3F2A25" stroke-linecap="round" stroke-linejoin="round"/>
<path d="M170.637 355.711C170.82 348.057 169.708 336.014 174.536 325.511" stroke="#3F2A25" stroke-linecap="round" stroke-linejoin="round"/>
<path d="M226.184 312.92C231.443 309.143 233.434 306.576 241.182 305.35" stroke="#3F2A25" stroke-linecap="round" stroke-linejoin="round"/>
<path d="M50.0381 430.624C38.0097 439.387 29.4654 434.865 28.5031 432.579C25.749 426.019 35.4215 429.381 33.215 426.416C26.7445 417.735 14.5004 402.627 27.6902 388.33C33.3643 382.168 35.4381 400.407 37.429 397.077C39.619 393.433 31.8545 333.877 63.7256 329.338C75.8702 327.615 63.8086 368.716 60.1586 377.628C58.4995 381.687 70.4118 366.098 74.7586 368.384C78.8897 370.571 74.2443 382.019 69.7647 392.406" stroke="#3F2A25" stroke-linecap="round" stroke-linejoin="round"/>
<path d="M170.82 407.232C175.714 407.812 181.156 404.449 187.162 397.309" stroke="#3F2A25" stroke-linecap="round" stroke-linejoin="round"/>
</svg>
