<svg width="395" height="280" viewBox="0 0 395 280" fill="none" xmlns="http://www.w3.org/2000/svg">
<g clip-path="url(#clip0_2_5290)">
<path d="M381.628 204.565C381.628 233.965 361.343 258.63 334.022 265.259C370.724 242.118 377.143 188.3 348.464 149.347C368.214 159.847 381.628 180.641 381.628 204.565Z" fill="#BC7171"/>
<path d="M392.202 204.565C392.202 244.918 359.491 277.653 319.168 277.653C313.778 277.653 308.553 277.077 303.492 275.965C315.259 274.441 325.463 270.694 334.022 265.259C361.343 258.63 381.628 233.965 381.628 204.565C381.628 180.641 368.214 159.847 348.464 149.347C344.144 143.418 338.959 137.859 332.993 132.794C366.692 139.259 392.202 168.947 392.202 204.565Z" fill="#BC7171"/>
<path d="M322.542 202.588L318.304 191.759C318.592 191.718 318.88 191.718 319.168 191.718C326.286 191.718 332.047 197.482 332.047 204.565C332.047 211.647 326.286 217.453 319.168 217.453C312.05 217.453 306.331 211.688 306.331 204.565C306.331 200.118 308.594 196.206 312.05 193.9H312.091L316.453 204.565L322.542 202.588Z" fill="#BC7171"/>
<path d="M306.331 204.565C306.331 211.688 312.091 217.453 319.168 217.453C326.245 217.453 332.047 211.688 332.047 204.565C332.047 197.441 326.286 191.718 319.168 191.718C318.88 191.718 318.592 191.718 318.304 191.759L300.035 145.065C306.084 143.13 312.461 142.059 319.168 142.059C329.743 142.059 339.741 144.694 348.464 149.347C377.143 188.3 370.724 242.118 334.022 265.259C329.249 266.453 324.311 267.071 319.168 267.071C284.688 267.071 256.75 239.071 256.75 204.565C256.75 179.324 271.686 157.582 293.205 147.741L312.05 193.9H312.009C308.552 196.206 306.289 200.118 306.289 204.565H306.331Z" fill="#BC7171"/>
<path d="M348.464 149.347C339.741 144.694 329.743 142.059 319.168 142.059C312.461 142.059 306.084 143.13 300.035 145.065L296.168 135.224C303.409 132.794 311.104 131.477 319.168 131.477C323.9 131.477 328.508 131.93 332.993 132.794C338.959 137.859 344.144 143.418 348.464 149.347Z" fill="#BC7171"/>
<path d="M262.222 3.21188L275.348 33.5178L256.668 34.3001L243.378 25.4472H261.07L255.392 12.3119L262.222 3.21188Z" fill="#BC7171"/>
<path d="M246.175 204.565C246.175 174.918 263.827 149.347 289.214 137.941H289.255L293.246 147.7C271.727 157.582 256.791 179.324 256.791 204.565C256.791 239.071 284.729 267.071 319.209 267.071C324.353 267.071 329.29 266.453 334.063 265.259C325.505 270.694 315.3 274.441 303.533 275.965C270.739 268.8 246.217 239.524 246.217 204.565H246.175Z" fill="#BC7171"/>
<path d="M256.668 34.3001L296.168 135.224L300.035 145.065L318.304 191.759L322.542 202.588L316.453 204.565L312.091 193.9L293.246 147.7L289.255 137.941L268.476 86.9648L266.584 82.3531L265.144 78.8119L243.378 25.4472L256.668 34.3001Z" fill="#BC7171"/>
<path d="M190.793 3.21188H262.222L255.392 12.3119H190.793V3.21188Z" fill="#BC7171"/>
<path d="M139.978 72.8825V94.4178L132.16 94.953H132.037L132.16 72.8001C133.312 72.8001 138.826 72.8825 139.978 72.8825Z" fill="#BC7171"/>
<path d="M132.16 72.759H105.58V66.2943H157.095V72.9649L139.978 72.8825C138.826 72.8825 133.312 72.8001 132.16 72.8001V72.759Z" fill="#BC7171"/>
<path d="M124.055 189.412L91.0145 193.447L111.217 155.235C117.965 166.024 122.203 177.677 124.055 189.412Z" fill="#BC7171"/>
<path d="M92.9483 265.135C115.249 250.971 126.318 225.4 125.001 198.8L139.525 197.03C139.855 199.5 140.019 202.012 140.019 204.565C140.019 233.759 119.981 258.3 92.9483 265.135Z" fill="#BC7171"/>
<path d="M137.715 187.765C133.724 173.312 124.631 161 112.534 152.765L117.471 143.377C132.531 153.259 143.763 168.535 148.289 186.488L137.715 187.765Z" fill="#BC7171"/>
<path d="M112.534 152.765C124.631 161 133.724 173.312 137.715 187.765L124.055 189.412C122.203 177.677 117.965 166.024 111.217 155.235L112.534 152.765Z" fill="#BC7171"/>
<path d="M110.188 139.177L105.95 147.7C101.918 142.43 97.2275 137.488 91.8374 132.918C98.2973 134.153 104.469 136.294 110.188 139.177Z" fill="#BC7171"/>
<path d="M110.188 139.177L131.996 95.406H132.037V94.9531H132.16L140.019 94.4178L265.103 78.8119H265.144L266.584 82.3531H266.543L257.82 89.1884L138.25 104.094L117.471 143.377L112.534 152.765L111.217 155.235L91.0145 193.447L77.5598 204.565L83.2791 193.118L105.457 148.647L105.95 147.7L110.188 139.177Z" fill="#BC7171"/>
<path d="M139.525 197.03L125.001 198.8L90.2739 203L77.5598 204.565L91.0145 193.447L124.055 189.412L137.715 187.765L148.289 186.488L195.607 180.724L257.82 89.1884L266.543 82.3531H266.584L268.476 86.9648H268.435L201.779 189.453L150.018 195.753L139.525 197.03Z" fill="#BC7171"/>
<path d="M77.5598 142.059C87.5994 142.059 97.0629 144.447 105.457 148.647L83.2791 193.118C81.5509 192.212 79.6171 191.718 77.5598 191.718C70.4415 191.718 64.6811 197.482 64.6811 204.565C64.6811 211.647 70.4415 217.453 77.5598 217.453C84.678 217.453 90.3973 211.688 90.3973 204.565C90.3973 204.03 90.3561 203.535 90.2739 203L125.001 198.8C126.318 225.4 115.249 250.971 92.9483 265.135C88.0108 266.412 82.8676 267.071 77.5598 267.071C43.0796 267.071 15.1004 239.071 15.1004 204.565C15.1004 170.059 43.0796 142.059 77.5598 142.059Z" fill="#BC7171"/>
<path d="M77.5598 204.565L90.2739 203C90.3562 203.535 90.3973 204.03 90.3973 204.565C90.3973 211.688 84.6369 217.453 77.5598 217.453C70.4827 217.453 64.6812 211.688 64.6812 204.565C64.6812 197.441 70.4416 191.718 77.5598 191.718C79.6171 191.718 81.5509 192.212 83.2791 193.118L77.5598 204.565Z" fill="#BC7171"/>
<path d="M92.9483 265.135C119.981 258.3 140.019 233.759 140.019 204.565C140.019 202.012 139.855 199.5 139.525 197.03L150.018 195.753C150.388 198.635 150.552 201.6 150.552 204.565C150.552 244.918 117.883 277.653 77.5598 277.653C72.252 277.653 67.0676 277.077 62.089 276.006C74.0212 274.441 84.3077 270.653 92.9483 265.135Z" fill="#BC7171"/>
<path d="M15.1004 204.565C15.1004 239.071 43.0796 267.071 77.5598 267.071C82.8676 267.071 88.0108 266.412 92.9483 265.135C84.3077 270.653 74.0213 274.441 62.089 275.965C29.2134 268.924 4.52594 239.606 4.52594 204.565C4.52594 164.212 37.2369 131.477 77.5598 131.477C82.4562 131.477 87.2291 131.971 91.8374 132.918C97.2275 137.488 101.918 142.43 105.95 147.7L105.457 148.647C97.0629 144.447 87.5994 142.059 77.5598 142.059C43.0796 142.059 15.1004 170.059 15.1004 204.565Z" fill="#BC7171"/>
<path d="M124.055 189.412L91.0145 193.447L111.217 155.235C117.965 166.024 122.203 177.677 124.055 189.412Z" fill="#E2E2E2"/>
<path d="M124.055 189.412C122.203 177.677 117.965 166.024 111.217 155.235L112.534 152.765C124.631 161 133.724 173.312 137.715 187.765L124.055 189.412Z" fill="#CCCAC6"/>
<path d="M139.525 197.03C139.855 199.5 140.019 202.012 140.019 204.565C140.019 233.759 119.981 258.3 92.9483 265.135C115.249 250.971 126.318 225.4 125.001 198.8L139.525 197.03Z" fill="#CCCAC6"/>
<path d="M348.464 149.347C368.214 159.847 381.627 180.641 381.627 204.565C381.627 233.965 361.343 258.671 333.981 265.3C370.724 242.077 377.143 188.3 348.464 149.347Z" fill="#CCCAC6"/>
<path d="M77.5598 142.059C87.5994 142.059 97.0629 144.447 105.457 148.647L83.2791 193.118C81.5509 192.212 79.6171 191.718 77.5598 191.718C70.4415 191.718 64.6811 197.482 64.6811 204.565C64.6811 211.647 70.4415 217.453 77.5598 217.453C84.678 217.453 90.3973 211.688 90.3973 204.565C90.3973 204.03 90.3561 203.535 90.2739 203L125.001 198.8C126.318 225.4 115.249 250.971 92.9483 265.135C88.0108 266.412 82.8676 267.071 77.5598 267.071C43.0796 267.071 15.1004 239.071 15.1004 204.565C15.1004 170.059 43.0796 142.059 77.5598 142.059Z" fill="#E2E2E2"/>
<path d="M348.464 149.347C377.143 188.3 370.724 242.077 333.981 265.3C329.249 266.453 324.27 267.071 319.168 267.071C284.688 267.071 256.75 239.071 256.75 204.565C256.75 179.324 271.686 157.582 293.205 147.741L312.05 193.9C308.594 196.206 306.331 200.118 306.331 204.565C306.331 211.688 312.091 217.453 319.168 217.453C326.245 217.453 332.047 211.688 332.047 204.565C332.047 197.441 326.286 191.718 319.168 191.718C318.88 191.718 318.592 191.718 318.304 191.759L299.994 145.065C306.043 143.13 312.461 142.059 319.168 142.059C329.743 142.059 339.741 144.694 348.464 149.347Z" fill="#E2E2E2"/>
<path d="M332.047 204.565C332.047 211.688 326.286 217.453 319.168 217.453C312.05 217.453 306.331 211.688 306.331 204.565C306.331 200.118 308.594 196.206 312.05 193.9L316.411 204.565L322.542 202.588L318.304 191.759C318.592 191.718 318.88 191.718 319.168 191.718C326.286 191.718 332.047 197.482 332.047 204.565Z" fill="#8E8C87"/>
<path d="M90.3973 204.565C90.3973 211.688 84.6369 217.453 77.5598 217.453C70.4827 217.453 64.6812 211.688 64.6812 204.565C64.6812 197.441 70.4416 191.718 77.5598 191.718C79.6171 191.718 81.5509 192.212 83.2791 193.118L77.5598 204.565L90.2739 203C90.3562 203.535 90.3973 204.03 90.3973 204.565Z" fill="#8E8C87"/>
<path d="M110.188 139.177L105.95 147.7C101.918 142.43 97.2275 137.488 91.8374 132.918C98.2973 134.153 104.469 136.294 110.188 139.177Z" fill="#4F4A41"/>
<path d="M392.202 204.565C392.202 244.918 359.491 277.653 319.168 277.653C313.778 277.653 308.511 277.077 303.45 275.924C315.218 274.441 325.422 270.694 333.981 265.3C361.343 258.671 381.628 233.965 381.628 204.565C381.628 180.641 368.214 159.847 348.464 149.347C344.144 143.418 338.959 137.859 332.993 132.794C366.692 139.259 392.202 168.947 392.202 204.565Z" fill="#4F4A41"/>
<path d="M137.715 187.765C133.724 173.312 124.631 161 112.534 152.765L117.471 143.377C132.531 153.259 143.763 168.535 148.289 186.488L137.715 187.765Z" fill="#4F4A41"/>
<path d="M150.552 204.565C150.552 244.918 117.883 277.653 77.5598 277.653C72.252 277.653 67.0676 277.077 62.089 276.006C74.0212 274.441 84.3077 270.653 92.9483 265.135C119.981 258.3 140.019 233.759 140.019 204.565C140.019 202.012 139.855 199.5 139.525 197.03L150.018 195.753C150.388 198.635 150.552 201.6 150.552 204.565Z" fill="#4F4A41"/>
<path d="M246.175 204.565C246.175 174.918 263.827 149.347 289.214 137.941L293.205 147.741C271.686 157.582 256.75 179.324 256.75 204.565C256.75 239.071 284.688 267.071 319.168 267.071C324.27 267.071 329.249 266.453 333.981 265.3C325.422 270.694 315.218 274.441 303.45 275.924C270.698 268.759 246.175 239.524 246.175 204.565Z" fill="#8E8C87"/>
<path d="M296.168 135.224C303.409 132.794 311.104 131.477 319.168 131.477C323.9 131.477 328.508 131.93 332.993 132.794C338.959 137.859 344.144 143.418 348.464 149.347C339.741 144.694 329.743 142.059 319.168 142.059C312.461 142.059 306.043 143.13 299.994 145.065L296.168 135.224Z" fill="#8E8C87"/>
<path d="M4.52594 204.565C4.52594 164.212 37.2369 131.477 77.5598 131.477C82.4562 131.477 87.2291 131.971 91.8374 132.918C97.2275 137.488 101.918 142.43 105.95 147.7L105.457 148.647C97.0629 144.447 87.5994 142.059 77.5598 142.059C43.0796 142.059 15.1004 170.059 15.1004 204.565C15.1004 239.071 43.0796 267.071 77.5598 267.071C82.8676 267.071 88.0108 266.412 92.9483 265.135C84.3077 270.653 74.0213 274.441 62.089 275.965C29.2134 268.924 4.52594 239.606 4.52594 204.565Z" fill="#8E8C87"/>
<path d="M131.996 94.953L132.119 72.8001C133.312 72.8001 138.826 72.8825 139.978 72.8825V94.4178L132.119 94.953H131.996Z" fill="#5D94AF"/>
<path d="M125.001 198.8L90.2739 203L77.5598 204.565L91.0145 193.447L124.055 189.412L137.715 187.765L148.289 186.488L195.607 180.724L257.82 89.1884L266.543 82.3531L268.435 86.9648L201.779 189.453L150.018 195.753L139.525 197.03L125.001 198.8Z" fill="#5D94AF"/>
<path d="M255.351 12.3119L262.222 3.21188L275.348 33.5178L256.626 34.3001L243.336 25.4472H261.07L255.351 12.3119Z" fill="#5D94AF"/>
<path d="M296.168 135.224L299.994 145.065L318.304 191.759L322.542 202.588L316.411 204.565L312.05 193.9L293.205 147.741L289.214 137.941L268.435 86.9648L266.543 82.3531L265.103 78.8119L243.336 25.4472L256.626 34.3001L296.168 135.224Z" fill="#ACD2E8"/>
<path d="M190.752 3.21188H262.222L255.351 12.3119H190.752V3.21188Z" fill="#ACD2E8"/>
<path d="M105.58 66.2943H157.095V72.9649L139.978 72.8825C138.826 72.8825 133.312 72.8001 132.119 72.8001H105.58V66.2943Z" fill="#4F4A41"/>
<path d="M91.0145 193.447L77.5598 204.565L83.2791 193.118L105.457 148.647L105.95 147.7L110.188 139.177L131.996 95.406V94.9531H132.119L140.019 94.4178L265.103 78.8119L266.543 82.3531L257.82 89.1884L138.25 104.094L117.471 143.377L112.534 152.765L111.217 155.235L91.0145 193.447Z" fill="#ACD2E8"/>
<path d="M117.471 143.418C132.531 153.3 143.763 168.577 148.289 186.53" stroke="#3F2A25" stroke-width="0.5" stroke-linecap="round" stroke-linejoin="round"/>
<path d="M150.018 195.794C150.388 198.677 150.552 201.641 150.552 204.606C150.552 244.959 117.883 277.694 77.5598 277.694C37.2369 277.694 4.52594 244.959 4.52594 204.606C4.52594 164.253 37.2369 131.518 77.5598 131.518C89.2863 131.518 100.396 134.277 110.188 139.218" stroke="#3F2A25" stroke-width="0.5" stroke-linecap="round" stroke-linejoin="round"/>
<path d="M112.534 152.806C124.631 161.041 133.724 173.353 137.715 187.806" stroke="#3F2A25" stroke-width="0.5" stroke-linecap="round" stroke-linejoin="round"/>
<path d="M139.525 197.071C139.855 199.541 140.019 202.053 140.019 204.606C140.019 239.112 112.04 267.112 77.5598 267.112C43.0796 267.112 15.1004 239.112 15.1004 204.606C15.1004 170.1 43.0796 142.1 77.5598 142.1C87.5994 142.1 97.0629 144.488 105.457 148.688" stroke="#3F2A25" stroke-width="0.5" stroke-linecap="round" stroke-linejoin="round"/>
<path d="M296.126 135.265C303.368 132.835 311.104 131.518 319.168 131.518C359.491 131.518 392.202 164.253 392.202 204.606C392.202 244.959 359.491 277.694 319.168 277.694C278.845 277.694 246.175 244.959 246.175 204.606C246.175 174.959 263.827 149.388 289.214 137.982" stroke="#3F2A25" stroke-width="0.5" stroke-linecap="round" stroke-linejoin="round"/>
<path d="M299.994 145.106C306.043 143.171 312.461 142.1 319.168 142.1C353.689 142.1 381.627 170.1 381.627 204.606C381.627 239.112 353.689 267.112 319.168 267.112C284.647 267.112 256.75 239.112 256.75 204.606C256.75 179.365 271.686 157.624 293.205 147.782" stroke="#3F2A25" stroke-width="0.5" stroke-linecap="round" stroke-linejoin="round"/>
<path d="M265.102 78.8531L140.019 94.459" stroke="#3F2A25" stroke-width="0.5" stroke-linecap="round" stroke-linejoin="round"/>
<path d="M131.996 95.4472L110.188 139.218L105.457 148.688L83.2791 193.159L77.5598 204.606L90.2739 203.041L139.525 197.071L150.018 195.794L201.779 189.494L268.435 87.006" stroke="#3F2A25" stroke-width="0.5" stroke-linecap="round" stroke-linejoin="round"/>
<path d="M91.0145 193.488L138.25 104.135L257.82 89.2295L195.607 180.765L91.0145 193.488Z" stroke="#3F2A25" stroke-width="0.5" stroke-linecap="round" stroke-linejoin="round"/>
<path d="M190.752 3.21188V12.3531H255.351L261.07 25.4884H243.336L316.411 204.606L322.501 202.63L256.626 34.3001L275.348 33.559L262.222 3.21188H190.752Z" stroke="#3F2A25" stroke-width="0.5" stroke-linecap="round" stroke-linejoin="round"/>
<path d="M131.996 95.4472L132.119 72.7589H105.58V66.3354H157.095V72.9648L139.978 72.9236L140.019 94.4589" stroke="#3F2A25" stroke-width="0.5" stroke-linecap="round" stroke-linejoin="round"/>
<path d="M90.2739 203.041C90.3562 203.577 90.3973 204.071 90.3973 204.606C90.3973 211.73 84.6369 217.494 77.5598 217.494C70.4827 217.494 64.6812 211.73 64.6812 204.606C64.6812 197.482 70.4416 191.759 77.5598 191.759C79.6171 191.759 81.5509 192.253 83.2791 193.159" stroke="#3F2A25" stroke-width="0.5" stroke-linecap="round" stroke-linejoin="round"/>
<path d="M318.263 191.8C318.551 191.759 318.88 191.759 319.168 191.759C326.286 191.759 332.047 197.524 332.047 204.606C332.047 211.688 326.286 217.494 319.168 217.494C312.05 217.494 306.331 211.73 306.331 204.606C306.331 200.159 308.594 196.247 312.05 193.941" stroke="#3F2A25" stroke-width="0.5" stroke-linecap="round" stroke-linejoin="round"/>
</g>
<defs>
<clipPath id="clip0_2_5290">
<rect width="395" height="280" fill="white"/>
</clipPath>
</defs>
</svg>
