<svg width="100%" height="100%" viewBox="0 0 91 56" fill="none" xmlns="http://www.w3.org/2000/svg">
<path d="M88.1436 37.4429C86.7872 37.4429 85.6758 36.3235 85.6758 34.9592C85.6758 34.2771 85.9471 33.665 86.3934 33.219C86.8397 32.773 87.4698 32.4844 88.1436 32.4844H90.3227C90.4014 32.7642 90.4364 33.0616 90.4364 33.3851L90.4977 37.4429H88.1436Z" fill="#E2E2E2"/>
<path d="M6.44328 30.1758H88.5469C89.422 30.7442 90.0783 31.4963 90.3234 32.4845H88.1443C87.4705 32.4845 86.8491 32.7643 86.3941 33.2191C85.939 33.6738 85.6765 34.2772 85.6765 34.9594C85.6765 36.3236 86.7879 37.443 88.1443 37.443H90.4984L90.5684 42.5326C90.5684 44.8588 88.6694 46.7565 86.3416 46.7565H74.545V46.5554C74.545 42.83 72.0422 39.6905 68.6204 38.7372C67.9203 38.5361 67.1765 38.4312 66.4151 38.4312C61.9345 38.4312 58.294 42.0691 58.294 46.5554V46.7565H28.8463C28.7588 43.0923 26.2297 40.0315 22.8255 39.122C22.1517 38.9384 21.4516 38.8422 20.7165 38.8422C16.3059 38.8422 12.7004 42.3752 12.5954 46.7565H4.32549C2.00643 46.7565 0.107422 44.8588 0.107422 42.5326V32.6506H3.96669C4.64929 32.6506 5.27062 32.3708 5.71693 31.9248C6.16324 31.4701 6.44328 30.8579 6.44328 30.1758Z" fill="#BCB7B7"/>
<path d="M74.5455 46.5564V46.7575C74.4405 51.1388 70.835 54.6719 66.4157 54.6719C64.5079 54.6719 62.7577 54.016 61.375 52.9141C63.589 52.608 65.243 51.6198 66.4419 50.2643C68.4897 50.2468 70.1262 48.594 70.1262 46.5564C70.1262 45.5245 69.7061 44.5888 69.0235 43.9154C69.2161 42.0614 69.041 40.2512 68.5947 38.8432L68.621 38.7383C72.0427 39.6915 74.5455 42.831 74.5455 46.5564Z" fill="#4F4A41"/>
<path d="M69.023 43.9141C69.7056 44.5874 70.1257 45.5232 70.1257 46.5551C70.1257 48.5927 68.4892 50.2455 66.4414 50.263C67.9991 48.5227 68.7867 46.1878 69.023 43.9141Z" fill="#CCCAC6"/>
<path d="M58.2949 46.7589V46.5578C58.2949 42.0716 61.9354 38.4336 66.416 38.4336C67.1774 38.4336 67.9212 38.5385 68.6213 38.7397L68.5951 38.8446C69.0414 40.2526 69.2164 42.0628 69.0239 43.9168C68.35 43.2609 67.4312 42.8499 66.416 42.8499C64.3682 42.8499 62.7055 44.5114 62.7055 46.5578C62.7055 48.6042 64.3682 50.2657 66.416 50.2657H66.4423C65.2434 51.6212 63.5894 52.6094 61.3753 52.9155C59.5463 51.4638 58.3562 49.2513 58.2949 46.7589Z" fill="#8E8C87"/>
<path d="M66.4156 42.8477C67.4307 42.8477 68.3496 43.2587 69.0234 43.9146C68.7872 46.1883 67.9995 48.5232 66.4418 50.2635H66.4156C64.3678 50.2635 62.7051 48.6019 62.7051 46.5556C62.7051 44.5092 64.3678 42.8477 66.4156 42.8477Z" fill="#E2E2E2"/>
<path d="M56.9279 20.888L35.7851 20.8355V20.7743L35.7676 5.60156C45.8927 5.60156 54.4163 12.0817 56.9279 20.888Z" fill="#9FC9D3"/>
<path d="M35.7864 20.7743V20.8355L14.6348 20.7743C17.1901 12.0205 25.6875 5.60156 35.7689 5.60156L35.7864 20.7743Z" fill="#9FC9D3"/>
<path d="M28.8469 46.9606C28.8469 51.4469 25.2064 55.0848 20.717 55.0848C18.7655 55.0848 16.9803 54.394 15.5801 53.2484L15.5976 53.2221C17.7591 52.9248 19.3956 51.9716 20.5858 50.6598C20.6295 50.6685 20.6733 50.6685 20.717 50.6685C22.7648 50.6685 24.4275 49.007 24.4275 46.9606C24.4275 45.8937 23.9725 44.923 23.2461 44.2496C23.4386 42.3869 23.2636 40.5592 22.8173 39.1512V39.125C26.2303 40.0345 28.7594 43.0953 28.8469 46.7595V46.9606Z" fill="#4F4A41"/>
<path d="M24.4277 46.9571C24.4277 49.0034 22.765 50.665 20.7172 50.665C20.6735 50.665 20.6297 50.665 20.5859 50.6563C22.1874 48.916 23.0013 46.5548 23.2463 44.2461C23.9726 44.9195 24.4277 45.8902 24.4277 46.9571Z" fill="#CCCAC6"/>
<path d="M23.2455 44.2469C23.0004 46.5557 22.1866 48.9168 20.5851 50.6571C18.5986 50.5959 17.0059 48.9606 17.0059 46.9579C17.0059 44.9553 18.6686 43.25 20.7164 43.25C21.6965 43.25 22.5804 43.6348 23.2455 44.2469Z" fill="#E2E2E2"/>
<path d="M20.5855 50.6584C19.3954 51.9702 17.7589 52.9234 15.5974 53.2207L15.5799 53.2469C13.7596 51.7603 12.5957 49.4953 12.5957 46.9592V46.7581C12.7007 42.3768 16.3062 38.8438 20.7168 38.8438C21.4519 38.8438 22.152 38.9399 22.8258 39.1236V39.1498C23.2634 40.5578 23.4384 42.3855 23.2459 44.2482C22.5808 43.6361 21.6969 43.2513 20.7168 43.2513C18.669 43.2513 17.0063 44.9129 17.0063 46.9592C17.0063 49.0056 18.599 50.5972 20.5855 50.6584Z" fill="#8E8C87"/>
<path d="M3.96669 32.6506H0.107422V30.1758H6.44328C6.44328 30.8579 6.16324 31.4701 5.71693 31.9248C5.27062 32.3708 4.64929 32.6506 3.96669 32.6506Z" fill="#FF8585"/>
<path d="M3.96669 27.7109C5.33188 27.7109 6.44328 28.8128 6.44328 30.1771H0.107422V27.7109H3.96669Z" fill="#E87979"/>
<path d="M3.96669 27.711H0.107422V27.4836C0.107422 25.1574 2.00643 23.2597 4.32549 23.2597L6.05823 23.1722C9.81249 10.3257 22.2829 0.898438 37.0899 0.898438C51.8969 0.898438 64.4724 10.4131 68.1654 23.3471L86.2191 29.1626C87.0679 29.4163 87.8643 29.7398 88.5381 30.1771H6.44328C6.44328 28.8128 5.33188 27.711 3.96669 27.711ZM35.786 20.8373L56.9289 20.8898C54.4173 12.0834 45.8936 5.60331 35.7685 5.60331C25.6434 5.60331 17.1897 12.0222 14.6344 20.7761L35.786 20.8373Z" fill="#A09A9A"/>
</svg>
