<svg width="100%" height="100%" viewBox="0 0 182 335" fill="none" xmlns="http://www.w3.org/2000/svg">
<g clip-path="url(#clip0_1762_6065)">
<path d="M59.2798 104.34C48.5198 115.63 44.0298 132.5 41.9198 147.33C41.7898 148.26 41.6598 149.19 41.5498 150.1C41.2198 152.73 41.3098 155.2 41.7598 157.51C44.9798 173.74 66.2498 182.34 87.4298 183.27" stroke="#3F2A25" stroke-width="2" stroke-linecap="round" stroke-linejoin="round"/>
<path d="M103.34 182.291C124.45 178.581 143.1 165.481 140.68 148.281C140.58 147.571 140.47 146.861 140.36 146.141C138.02 131.271 132.76 114.631 121.94 103.641" stroke="#3F2A25" stroke-width="2" stroke-linecap="round" stroke-linejoin="round"/>
<path d="M76.1504 93.712C80.6004 92.272 85.6204 91.4519 91.2904 91.4119C96.2104 91.3719 100.66 92.002 104.7 93.212" stroke="#3F2A25" stroke-width="2" stroke-linecap="round" stroke-linejoin="round"/>
<path d="M104.699 93.2095C110.509 83.5395 118.019 65.0495 122.679 43.6695C128.479 16.9595 142.229 1.71949 149.289 2.70949C158.749 4.04949 170.379 39.4595 156.589 66.3595C146.719 85.6095 129.049 96.6995 121.939 103.639L121.669 103.909" stroke="#3F2A25" stroke-width="2" stroke-linecap="round" stroke-linejoin="round"/>
<path d="M76.1503 93.7111C71.3503 83.5811 66.8003 66.4211 64.2203 44.7811C60.9903 17.6411 48.7503 1.16114 41.6303 1.48114C32.0803 1.91114 17.1403 36.0611 28.3103 64.1511C36.3603 84.4011 52.9803 96.7811 59.2803 104.341C59.3103 104.381 59.3503 104.421 59.3803 104.461" stroke="#3F2A25" stroke-width="2" stroke-linecap="round" stroke-linejoin="round"/>
<path d="M41.9197 147.33C29.3597 142.26 12.8097 141.45 1.42969 144.26" stroke="#3F2A25" stroke-width="2" stroke-linecap="round" stroke-linejoin="round"/>
<path d="M9.70898 162.61C20.909 158.66 32.259 156.73 41.769 157.51" stroke="#3F2A25" stroke-width="2" stroke-linecap="round" stroke-linejoin="round"/>
<path d="M140.26 146.182C152.82 141.112 169.37 140.302 180.75 143.112" stroke="#3F2A25" stroke-width="2" stroke-linecap="round" stroke-linejoin="round"/>
<path d="M172.47 161.45C161.27 157.5 149.92 155.57 140.41 156.35" stroke="#3F2A25" stroke-width="2" stroke-linecap="round" stroke-linejoin="round"/>
<path d="M88.7699 295.431C86.9399 304.591 89.7499 330.231 86.6699 331.891C82.1399 334.341 77.3699 333.201 74.1499 331.761C70.2699 330.031 70.3799 325.471 60.1899 277.371C57.3399 263.941 61.9199 245.501 66.3499 230.801" stroke="#3F2A25" stroke-width="2" stroke-linecap="round" stroke-linejoin="round"/>
<path d="M97.6289 292.911C98.7189 293.061 100.659 293.351 101.559 293.811C105.339 295.771 103.359 329.111 106.619 330.981C111.279 333.631 114.639 332.781 119.409 330.681C124.129 328.611 127.429 300.041 129.929 276.301C130.859 267.441 130.269 259.691 129.249 253.191" stroke="#3F2A25" stroke-width="2" stroke-linecap="round" stroke-linejoin="round"/>
<path d="M87.4291 183.27C87.8891 185.43 88.0791 187.99 87.0691 189.82C85.5091 192.66 76.8691 194.1 72.5891 196.8C68.1691 199.59 65.8991 210.87 66.3491 230.79" stroke="#3F2A25" stroke-width="2" stroke-linecap="round" stroke-linejoin="round"/>
<path d="M88.7695 295.43C90.5295 295.91 92.2995 295.97 93.9795 295.41C95.3995 294.94 96.6095 294.06 97.6295 292.91" stroke="#3F2A25" stroke-width="2" stroke-linecap="round" stroke-linejoin="round"/>
<path d="M103.34 182.293C103.39 184.243 103.86 186.403 104.74 188.653C106.01 191.883 114.2 192.333 118.13 195.233C125.11 200.383 134.55 235.803 133.5 241.483C133.17 243.293 131.59 247.693 129.25 253.193" stroke="#3F2A25" stroke-width="2" stroke-linecap="round" stroke-linejoin="round"/>
<path d="M149.239 2.36965C158.709 3.70965 170.329 39.1196 156.539 66.0196C146.549 85.5196 128.699 96.2796 121.779 103.19H121.769C117.199 98.5796 111.639 94.9696 104.889 92.9396C110.739 83.4096 117.899 65.0996 122.629 43.3296C128.429 16.6196 142.179 1.37965 149.239 2.36965Z" fill="#BC7171"/>
<path d="M140.63 147.942C143.06 165.162 124.35 178.272 103.2 181.972C99.2603 182.662 95.2303 183.022 91.2403 183.022C89.9703 183.022 88.7003 182.992 87.4203 182.932C66.2303 182.012 44.9203 173.412 41.7203 157.172C41.2603 154.852 41.1703 152.382 41.5003 149.762C41.6203 148.852 41.7403 147.922 41.8703 146.992C43.9803 132.182 48.4603 115.362 59.1703 104.072C60.9003 102.242 62.7903 100.572 64.8603 99.062C68.1403 96.682 71.8703 94.742 76.1203 93.362C80.5703 91.932 85.5803 91.112 91.2403 91.072C96.2603 91.032 100.79 91.692 104.89 92.942C111.64 94.972 117.2 98.582 121.77 103.202C133.19 114.702 138.45 132.492 140.63 147.942ZM125.7 144.522C128.18 137.622 119.96 127.252 114.39 128.592C112.27 129.102 110.19 130.982 108.44 133.442H108.43C105.04 138.242 102.92 145.202 104.28 148.462C105.28 150.842 109.98 151.592 114.76 150.892C119.57 150.172 124.46 147.992 125.7 144.522ZM102.05 124.032C102.92 125.112 109.21 122.392 109.01 120.932C108.9 120.122 106.76 119.452 105 119.992C102.67 120.702 101.51 123.352 102.05 124.032ZM88.2303 155.882C90.8703 155.712 92.5603 154.062 91.9803 152.592C91.5303 151.492 85.2103 152.352 84.6103 153.082C83.9603 153.882 86.1803 156.002 88.2303 155.882ZM77.0503 125.732C78.0203 125.052 77.9003 121.302 75.3803 120.142C73.6403 119.342 71.3003 120.032 71.0103 121.092C70.5103 122.902 75.7003 126.672 77.0503 125.732ZM74.0203 149.122C75.1703 145.782 72.6203 138.972 68.9203 134.412C67.0203 132.062 64.8203 130.302 62.6603 129.932C57.0203 128.962 49.4803 139.832 52.3903 146.562C53.8603 149.942 58.8703 151.802 63.7203 152.212C68.5303 152.602 73.1703 151.562 74.0203 149.122Z" fill="#BC7171"/>
<path d="M103.55 286.743C102.63 286.763 101.71 286.743 100.82 286.683C100.22 288.373 99.4901 289.933 98.6001 291.263C98.2901 291.733 97.9501 292.173 97.5901 292.573C96.5701 293.723 95.3601 294.603 93.9401 295.073C92.2601 295.633 90.4901 295.573 88.7301 295.093C88.0001 294.903 87.2901 294.643 86.5701 294.323H86.5601C80.4601 291.633 75.0201 285.103 74.6401 284.643C69.2701 278.063 69.2201 270.983 67.5301 251.513C66.8401 243.663 66.4401 236.643 66.3101 230.463C65.8601 210.533 68.1301 199.253 72.5501 196.463C76.8301 193.763 85.4701 192.323 87.0301 189.483C88.0701 187.593 87.9201 185.153 87.4301 182.943C88.7101 182.993 89.9801 183.023 91.2501 183.023C95.2401 183.023 99.2701 182.663 103.21 181.973V182.003C103.21 184.073 103.75 185.903 104.7 188.313C105.97 191.543 114.16 191.993 118.09 194.893C125.07 200.043 134.51 235.463 133.46 241.143C133.13 242.953 131.55 247.353 129.21 252.853C125.03 262.683 118.44 276.003 112.33 284.183C111.06 285.893 107.34 286.673 103.56 286.743H103.55Z" fill="#BC7171"/>
<path d="M103.55 286.742C107.33 286.672 111.05 285.892 112.32 284.182C118.43 276.002 125.02 262.682 129.2 252.852C130.22 259.352 130.81 267.102 129.88 275.962C127.38 299.702 124.08 328.272 119.36 330.342C114.59 332.442 111.23 333.292 106.57 330.642C103.31 328.772 105.3 295.432 101.52 293.472C100.62 293.012 98.6701 292.722 97.5801 292.572C97.9401 292.172 98.2801 291.732 98.5901 291.262C99.4801 289.932 100.21 288.372 100.81 286.682C101.7 286.742 102.62 286.762 103.54 286.742H103.55Z" fill="#BC7171"/>
<path d="M114.389 128.591C119.959 127.251 128.179 137.621 125.699 144.521C124.459 147.991 119.569 150.171 114.759 150.891C126.919 147.441 114.399 128.611 108.439 133.441C110.189 130.981 112.269 129.101 114.389 128.591Z" fill="#BC7171"/>
<path d="M108.44 133.44C114.4 128.61 126.92 147.44 114.76 150.88C109.98 151.59 105.28 150.84 104.28 148.46C102.92 145.2 105.04 138.24 108.43 133.45H108.44V133.44Z" fill="#BC7171"/>
<path d="M109.009 120.932C109.209 122.392 102.919 125.112 102.049 124.032C101.509 123.352 102.669 120.702 104.999 119.992C106.759 119.452 108.899 120.122 109.009 120.932Z" fill="#BC7171"/>
<path d="M91.9794 152.591C92.5594 154.061 90.8694 155.711 88.2294 155.881C86.1794 156.001 83.9594 153.881 84.6094 153.081C85.2094 152.351 91.5294 151.491 91.9794 152.591Z" fill="#BC7171"/>
<path d="M88.7191 295.091C86.8891 304.251 89.6991 329.891 86.6191 331.551C82.0891 334.001 77.3191 332.861 74.0991 331.421C70.2191 329.691 70.3291 325.131 60.1391 277.031C57.2891 263.601 61.8691 245.161 66.2991 230.461C66.4291 236.641 66.8291 243.661 67.5191 251.511C69.2091 270.981 69.2591 278.061 74.6291 284.641C75.0091 285.101 80.4491 291.631 86.5491 294.321H86.5591C87.2791 294.641 87.9891 294.901 88.7191 295.091Z" fill="#BC7171"/>
<path d="M75.3804 120.141C77.9004 121.301 78.0204 125.051 77.0504 125.731C75.7004 126.671 70.5104 122.901 71.0104 121.091C71.3004 120.031 73.6404 119.341 75.3804 120.141Z" fill="#BC7171"/>
<path d="M68.9192 134.412C72.6192 138.972 75.1692 145.782 74.0192 149.122C73.1692 151.562 68.5292 152.602 63.7192 152.212C51.3492 149.552 62.6592 129.932 68.9192 134.412Z" fill="#BC7171"/>
<path d="M64.8595 99.0613C62.7895 100.571 60.8995 102.241 59.1695 104.071L59.1495 104.051C52.9195 96.5113 36.3595 84.1713 28.2595 63.8113C17.0895 35.7213 32.0295 1.5713 41.5795 1.1413C48.6995 0.821296 60.9395 17.3013 64.1795 44.4413C66.8195 66.5713 71.2095 83.3313 76.1195 93.3613C71.8695 94.7413 68.1395 96.6813 64.8595 99.0613Z" fill="#BC7171"/>
<path d="M68.9202 134.412C62.6602 129.932 51.3502 149.552 63.7202 152.202C58.8702 151.802 53.8602 149.942 52.3902 146.562C49.4802 139.832 57.0202 128.962 62.6602 129.932C64.8202 130.302 67.0202 132.062 68.9202 134.412Z" fill="#BC7171"/>
<path d="M140.901 81.6009C150.561 71.6709 163.651 46.9609 159.081 15.4809L159.141 15.4609C163.861 28.5009 165.381 49.0909 156.601 66.2309C146.601 85.7309 128.761 96.4809 121.841 103.401C120.111 101.651 118.241 100.051 116.211 98.6309C116.761 97.9309 117.361 97.1309 117.991 96.2509C118.671 95.3209 119.371 94.2909 120.081 93.1609L120.381 93.3509C127.081 94.8709 128.831 93.9909 140.901 81.6009Z" fill="#EAA0A0"/>
<path d="M159.08 15.4813C163.65 46.9613 150.56 71.6713 140.9 81.6013C128.83 93.9913 127.08 94.8713 120.38 93.3513L120.08 93.1613C124.21 86.6613 128.75 76.9513 129.21 64.4713C129.79 48.9213 131.75 36.4913 135.08 24.3613C137.33 18.9913 146.33 2.66129 153.66 5.39129C155.67 7.65129 157.58 11.1413 159.14 15.4613L159.08 15.4813Z" fill="#FCB9B9"/>
<path d="M153.659 5.39148C146.329 2.66148 137.329 18.9915 135.079 24.3615C131.749 36.4915 129.789 48.9215 129.209 64.4715C128.749 76.9515 124.209 86.6615 120.079 93.1615C119.369 94.2915 118.669 95.3215 117.989 96.2515L117.919 96.2015C109.149 93.9015 114.769 73.9415 117.389 63.6415V63.6215C119.329 57.4215 121.139 50.6615 122.689 43.5315C128.489 16.8215 142.239 1.58148 149.299 2.58148C150.739 2.78148 152.219 3.77148 153.659 5.39148Z" fill="#B27967"/>
<path d="M140.371 145.998C140.481 146.718 140.591 147.428 140.691 148.138C142.951 164.158 126.901 176.638 107.621 181.268C116.391 177.508 127.011 168.238 131.361 159.808C131.711 159.118 132.041 158.408 132.341 157.668C133.011 157.088 133.371 156.408 133.291 155.728C133.271 155.598 133.241 155.468 133.191 155.348C137.961 140.448 133.481 118.238 124.561 106.398C133.631 117.278 138.221 132.378 140.371 145.998Z" fill="#935D51"/>
<path d="M124.449 205.59C129.669 218.12 134.259 237.29 133.509 241.34C133.179 243.15 131.599 247.55 129.259 253.05C127.909 256.23 126.299 259.78 124.539 263.4C120.859 270.97 116.509 278.85 112.379 284.38C111.109 286.09 107.389 286.87 103.609 286.94C104.129 284.99 104.539 283.35 104.909 281.88C113.279 276.81 126.169 251.18 126.869 241.35C127.219 236.34 129.099 218.89 124.449 205.59Z" fill="#935D51"/>
<path d="M68.9597 134.591C67.0597 132.251 64.8697 130.511 62.7197 130.141C59.3797 129.561 55.3797 133.131 53.2697 137.531C51.8197 140.571 51.2597 144.011 52.4497 146.761C53.9097 150.121 58.8897 151.991 63.7097 152.401C63.7297 152.401 63.7497 152.411 63.7697 152.411C68.5797 152.811 73.2297 151.761 74.0697 149.321C75.2297 145.981 72.6597 139.151 68.9597 134.591ZM59.2897 104.201C60.9997 102.411 62.8697 100.751 64.9197 99.2712C65.5097 98.8312 66.1197 98.4212 66.7397 98.0212C66.8397 97.9712 66.9297 97.9213 67.0097 97.8513C69.7597 96.1113 72.8097 94.6613 76.1797 93.5713C80.6297 92.1313 85.6497 91.3212 91.2997 91.2712C96.3197 91.2312 100.85 91.8912 104.95 93.1412C109.15 94.4012 112.89 96.2812 116.21 98.6312C118.24 100.051 120.11 101.651 121.84 103.401C122.77 104.341 123.66 105.311 124.51 106.331C124.53 106.351 124.54 106.381 124.56 106.401C133.48 118.241 137.96 140.451 133.19 155.351C132.66 153.971 130.22 153.141 127.42 153.481C124.38 153.851 122.07 155.461 122.27 157.081C122.47 158.691 125.09 159.701 128.13 159.331C129.9 159.111 131.42 158.481 132.34 157.671C132.04 158.411 131.71 159.121 131.36 159.811C127.01 168.241 116.39 177.511 107.62 181.271C106.21 181.611 104.78 181.911 103.34 182.161C99.3697 182.861 95.3197 183.231 91.2997 183.231C90.0297 183.231 88.7597 183.201 87.4797 183.141C63.2697 182.091 38.9097 171.011 41.5597 149.971C41.6797 149.061 41.7997 148.131 41.9297 147.201C44.0397 132.361 48.5297 115.501 59.2897 104.201ZM125.76 144.731C126.71 142.081 126.08 138.931 124.64 136.121C122.32 131.601 117.88 127.971 114.45 128.791C112.33 129.301 110.24 131.191 108.49 133.661C105.3 138.161 103.24 144.561 104.13 148.021C104.18 148.251 104.26 148.461 104.34 148.661C105.34 151.041 110.04 151.791 114.82 151.091H114.83C119.64 150.371 124.52 148.191 125.76 144.731ZM102.11 124.231C102.98 125.321 109.26 122.601 109.07 121.141C108.96 120.331 106.82 119.651 105.06 120.191C102.73 120.901 101.57 123.551 102.11 124.231ZM97.7297 145.181C97.7097 143.021 79.5697 145.131 79.3697 147.221C79.2297 148.791 83.9997 149.541 87.7197 149.551C92.1597 149.551 97.7297 146.881 97.7297 145.181ZM88.2897 156.081C90.9297 155.911 92.6197 154.261 92.0297 152.801C91.8697 152.411 90.9797 152.261 89.8597 152.271C87.8297 152.291 85.0497 152.821 84.6597 153.291C84.1197 153.951 85.5697 155.531 87.2497 155.971C87.5897 156.061 87.9397 156.101 88.2897 156.081ZM77.1097 125.941C78.0797 125.261 77.9597 121.511 75.4397 120.351C73.6997 119.551 71.3597 120.231 71.0697 121.291C70.5697 123.101 75.7597 126.881 77.1097 125.941ZM59.3697 160.151C59.3697 158.531 56.8797 157.211 53.8197 157.211C50.7597 157.211 48.2697 158.531 48.2697 160.151C48.2697 161.771 50.7497 163.101 53.8197 163.101C56.8897 163.101 59.3697 161.781 59.3697 160.151Z" fill="#B27967"/>
<path d="M133.29 155.732C133.37 156.412 133.01 157.092 132.34 157.672C132.65 156.922 132.93 156.152 133.19 155.352C133.24 155.472 133.27 155.602 133.29 155.732Z" fill="#D17E75"/>
<path d="M133.19 155.348C132.93 156.148 132.65 156.918 132.34 157.668C131.42 158.478 129.9 159.108 128.13 159.328C125.09 159.698 122.47 158.688 122.27 157.078C122.07 155.458 124.38 153.848 127.42 153.478C130.22 153.138 132.66 153.968 133.19 155.348Z" fill="#E08F82"/>
<path d="M129.261 253.051C130.281 259.551 130.871 267.301 129.941 276.161C127.441 299.901 124.141 328.471 119.421 330.541C116.341 331.901 113.841 332.731 111.211 332.441C116.551 332.091 119.851 320.171 121.831 305.831H121.841C122.011 305.541 122.111 305.251 122.111 304.941C122.111 304.771 122.081 304.611 122.021 304.451C123.941 289.811 124.541 272.981 124.541 263.401C126.301 259.781 127.911 256.231 129.261 253.051Z" fill="#935D51"/>
<path d="M110.051 236.998C109.701 237.258 109.351 237.518 109.021 237.868C109.371 237.568 109.711 237.278 110.051 236.998ZM110.851 209.048C111.491 211.098 114.021 223.488 112.971 231.858C112.701 234.028 112.101 235.138 111.391 235.888C110.981 236.228 110.561 236.568 110.141 236.938C110.571 236.618 111.001 236.318 111.391 235.888C113.221 234.398 114.901 233.078 116.301 231.918L116.251 231.858C115.881 225.978 113.241 215.868 110.861 209.048H110.851ZM85.0908 224.498L84.9909 224.518C84.9909 247.738 94.9109 255.038 96.0809 267.428C96.4009 270.768 96.6209 274.688 96.5009 278.538C96.2909 285.808 94.8709 292.888 90.6109 295.618C90.0009 295.568 89.3908 295.448 88.7808 295.288C88.0508 295.098 87.3309 294.838 86.6109 294.518C85.7809 294.158 84.9608 293.718 84.1708 293.228C79.1208 290.168 75.0209 285.238 74.6909 284.838C69.3209 278.258 69.2709 271.178 67.5809 251.708C66.8909 243.858 66.4909 236.838 66.3609 230.658C65.9109 210.728 68.1809 199.448 72.6009 196.658C76.8809 193.958 85.5209 192.518 87.0809 189.678C87.7109 188.538 87.9008 187.188 87.8408 185.818C90.6508 188.168 100.711 187.848 103.661 185.078C103.901 186.158 104.261 187.288 104.741 188.508C106.011 191.738 114.201 192.188 118.131 195.088C120.131 196.568 122.341 200.538 124.441 205.588C129.091 218.888 127.211 236.338 126.861 241.348C126.161 251.178 113.271 276.808 104.901 281.878C103.871 282.498 102.911 282.818 102.051 282.748C103.011 278.518 103.381 274.168 103.631 271.268C104.061 266.288 100.461 260.468 96.1708 252.388C92.1408 244.798 87.5309 236.508 85.0809 224.498H85.0908Z" fill="#B27967"/>
<path d="M124.64 136.119C126.08 138.929 126.71 142.079 125.76 144.729C124.52 148.189 119.64 150.369 114.83 151.089C122.71 148.839 120.21 140.129 115.85 135.609C118.93 134.849 122.09 135.009 124.64 136.119Z" fill="white"/>
<path d="M103.611 286.938C107.391 286.868 111.111 286.088 112.381 284.378C116.511 278.848 120.861 270.968 124.541 263.398C124.541 272.978 123.941 289.808 122.021 304.448C121.541 303.058 119.031 301.998 116.021 301.998C112.651 301.998 109.921 303.318 109.921 304.938C109.921 306.558 112.651 307.888 116.021 307.888C118.741 307.888 121.051 307.018 121.831 305.828C119.851 320.168 116.551 332.088 111.211 332.428C109.771 332.278 108.281 331.778 106.631 330.838C103.371 328.968 105.351 295.628 101.571 293.668C100.671 293.208 98.7306 292.918 97.6406 292.768C98.0006 292.368 98.3406 291.928 98.6506 291.458H98.6606C99.5506 290.128 100.281 288.568 100.881 286.878C101.771 286.938 102.691 286.958 103.611 286.938Z" fill="#B27967"/>
<path d="M122.02 304.449C122.08 304.609 122.11 304.769 122.11 304.939C122.11 305.249 122.01 305.539 121.84 305.819C121.9 305.369 121.96 304.909 122.02 304.449Z" fill="#824F46"/>
<path d="M122.02 304.45C121.96 304.91 121.9 305.37 121.84 305.82H121.83C121.05 307.02 118.74 307.89 116.02 307.89C112.65 307.89 109.92 306.57 109.92 304.94C109.92 303.31 112.65 302 116.02 302C119.03 302 121.54 303.06 122.02 304.45Z" fill="#935D51"/>
<path d="M124.64 136.118C122.09 135.008 118.93 134.848 115.85 135.608C113.49 133.168 110.58 131.948 108.49 133.658C110.24 131.188 112.33 129.298 114.45 128.788C117.88 127.968 122.32 131.598 124.64 136.118Z" fill="#EAD0D0"/>
<path d="M117.921 96.2006L117.991 96.2506C117.361 97.1306 116.761 97.9306 116.211 98.6306C112.891 96.2806 109.151 94.4006 104.951 93.1406C108.881 86.7306 113.401 76.3706 117.391 63.6406C114.771 73.9406 109.151 93.9006 117.921 96.2006Z" fill="#935D51"/>
<path d="M116.24 231.861L116.29 231.921C114.89 233.081 113.21 234.401 111.38 235.891C112.09 235.141 112.69 234.031 112.96 231.861C114.01 223.491 111.48 211.101 110.84 209.051C113.22 215.871 115.86 225.981 116.23 231.861H116.24Z" fill="#935D51"/>
<path d="M115.851 135.609C120.211 140.129 122.711 148.839 114.831 151.089H114.821C110.041 151.789 105.341 151.039 104.341 148.659C104.261 148.459 104.181 148.249 104.131 148.019C105.311 141.109 110.451 136.939 115.851 135.609Z" fill="#7F4D40"/>
<path d="M108.49 133.661C110.58 131.951 113.49 133.171 115.85 135.611C110.45 136.941 105.31 141.111 104.13 148.021C103.24 144.561 105.3 138.161 108.49 133.661Z" fill="#6B3D34"/>
<path d="M109.069 121.139C109.259 122.599 102.979 125.319 102.109 124.229C101.569 123.549 102.729 120.899 105.059 120.189C106.819 119.649 108.959 120.329 109.069 121.139Z" fill="#EAB5A7"/>
<path d="M104.911 281.879C104.541 283.349 104.131 284.989 103.611 286.939C102.691 286.959 101.771 286.939 100.881 286.879C101.351 285.559 101.741 284.159 102.061 282.749C102.921 282.819 103.881 282.499 104.911 281.879Z" fill="#935D51"/>
<path d="M96.1802 252.39C100.47 260.47 104.07 266.29 103.64 271.27C103.39 274.17 103.02 278.52 102.06 282.75C101.74 284.16 101.35 285.56 100.88 286.88C100.28 288.57 99.5502 290.13 98.6602 291.46H98.6502C98.7102 289.67 98.6602 288.07 98.5002 286.61C98.1902 283.54 97.4602 281.05 96.5002 278.54C96.6202 274.69 96.4002 270.77 96.0802 267.43C94.9102 255.04 84.9902 247.74 84.9902 224.52L85.0902 224.5C87.5402 236.51 92.1502 244.8 96.1802 252.39Z" fill="#935D51"/>
<path d="M103.34 182.16C103.34 183.12 103.46 184.08 103.67 185.08C100.72 187.85 90.6602 188.17 87.8502 185.82C87.8202 184.92 87.6802 184.01 87.4902 183.14C88.7702 183.2 90.0402 183.23 91.3102 183.23C95.3302 183.23 99.3802 182.86 103.35 182.16H103.34Z" fill="#935D51"/>
<path d="M98.4994 286.609C98.6594 288.069 98.7094 289.669 98.6494 291.459C98.3394 291.929 97.9994 292.369 97.6394 292.769C96.6194 293.919 95.4094 294.799 93.9894 295.269C92.8894 295.639 91.7494 295.739 90.6094 295.619C94.8694 292.889 96.2894 285.809 96.4994 278.539C97.4594 281.049 98.1894 283.539 98.4994 286.609Z" fill="#935D51"/>
<path d="M79.3702 147.22C79.5702 145.13 97.7102 143.02 97.7302 145.18C97.7302 146.88 92.1602 149.55 87.7202 149.55C84.0002 149.54 79.2302 148.79 79.3702 147.22Z" fill="#935D51"/>
<path d="M92.03 152.8C92.62 154.26 90.93 155.91 88.29 156.08C87.94 156.1 87.59 156.06 87.25 155.97C89.74 155.85 90.3 153.11 89.86 152.27C90.98 152.26 91.87 152.41 92.03 152.8Z" fill="#EAA0A0"/>
<path d="M89.8597 152.27C90.2997 153.11 89.7397 155.85 87.2497 155.96C85.5697 155.53 84.1197 153.95 84.6597 153.29C85.0497 152.82 87.8297 152.29 89.8597 152.27Z" fill="#FCB9B9"/>
<path d="M86.6095 294.52C87.3295 294.84 88.0495 295.1 88.7795 295.29C86.9495 304.45 89.7595 330.09 86.6795 331.75C83.6395 333.4 80.4795 333.42 77.7695 332.82C85.9095 333.11 84.2495 303.81 84.1695 293.23C84.9595 293.72 85.7795 294.16 86.6095 294.52Z" fill="#935D51"/>
<path d="M84.1696 293.23C84.2496 303.81 85.9096 333.11 77.7696 332.82C76.4396 332.53 75.2196 332.09 74.1596 331.62C70.2796 329.89 70.3896 325.33 60.1996 277.23C57.3496 263.8 61.9296 245.36 66.3596 230.66C66.4896 236.84 66.8896 243.86 67.5796 251.71C69.2696 271.18 69.3196 278.26 74.6896 284.84C75.0196 285.24 79.1196 290.17 84.1696 293.23ZM82.9096 306.07C82.9096 304.44 80.2796 303.12 77.0496 303.12C73.8196 303.12 71.1896 304.44 71.1896 306.07C71.1896 307.7 73.8096 309.01 77.0496 309.01C80.2896 309.01 82.9096 307.69 82.9096 306.07Z" fill="#B27967"/>
<path d="M77.0495 303.121C80.2795 303.121 82.9095 304.441 82.9095 306.071C82.9095 307.701 80.2795 309.011 77.0495 309.011C73.8195 309.011 71.1895 307.691 71.1895 306.071C71.1895 304.451 73.8095 303.121 77.0495 303.121Z" fill="#935D51"/>
<path d="M75.4409 120.35C77.9609 121.51 78.0809 125.26 77.1109 125.94C75.7609 126.88 70.5709 123.1 71.0709 121.29C71.3609 120.23 73.7009 119.55 75.4409 120.35Z" fill="#EAB5A7"/>
<path d="M68.9594 134.591C72.6594 139.151 75.2294 145.981 74.0694 149.321C72.8794 142.291 67.4394 138.141 61.8594 136.921C64.0394 134.411 66.7994 133.071 68.9594 134.591Z" fill="#6B3D34"/>
<path d="M64.2403 44.6483C66.8703 66.7683 71.2703 83.5283 76.1803 93.5683C72.8103 94.6583 69.7603 96.1083 67.0103 97.8483C69.9903 95.3383 63.5003 77.5483 62.1803 47.7283C61.8803 40.9083 59.7503 26.0983 55.3203 15.7983L55.9103 15.4883C59.6303 22.7783 62.8103 32.6783 64.2403 44.6483Z" fill="#935D51"/>
<path d="M62.1798 47.7301C63.4998 77.5501 69.9898 95.3401 67.0098 97.8501C66.9298 97.9201 66.8399 97.9701 66.7399 98.0201C66.1199 98.4201 65.5098 98.8301 64.9198 99.2701C60.9998 93.1301 54.7798 81.5301 55.7498 64.8701C56.3298 54.9501 56.2198 46.2501 55.4998 38.0301C55.0998 33.3701 54.4998 28.8601 53.7198 24.3801C53.2198 19.2801 47.2898 3.80008 39.3398 2.03008C40.1298 1.61008 40.8998 1.37008 41.6398 1.34008C45.6198 1.17008 51.1999 6.24008 55.9099 15.4901L55.3199 15.8001C59.7499 26.1001 61.8798 40.9101 62.1798 47.7301Z" fill="#B27967"/>
<path d="M68.9595 134.59C66.7995 133.07 64.0395 134.41 61.8595 136.92C58.8195 136.26 55.7395 136.46 53.2695 137.53C55.3795 133.13 59.3795 129.56 62.7195 130.14C64.8695 130.51 67.0595 132.25 68.9595 134.59Z" fill="#EAD0D0"/>
<path d="M74.0704 149.322C73.2304 151.762 68.5804 152.812 63.7704 152.412C63.7504 152.412 63.7304 152.402 63.7104 152.402C55.7004 150.622 57.7404 141.672 61.8604 136.922C67.4404 138.142 72.8804 142.292 74.0704 149.322Z" fill="#7F4D40"/>
<path d="M64.9205 99.2691C62.8705 100.749 61.0005 102.409 59.2905 104.199C58.7505 103.549 58.1305 102.859 57.4405 102.139C58.6205 99.3391 55.1305 88.1691 54.2205 84.9891C51.0205 73.7391 56.6005 51.2691 55.4205 38.0391H55.5005C56.2205 46.2491 56.3305 54.9491 55.7505 64.8691C54.7805 81.5291 61.0005 93.1291 64.9205 99.2691Z" fill="#EAA0A0"/>
<path d="M53.2705 137.528C55.7405 136.458 58.8205 136.258 61.8605 136.918C57.7405 141.668 55.7005 150.618 63.7105 152.398C58.8905 151.988 53.9105 150.118 52.4505 146.758C51.2605 144.008 51.8205 140.568 53.2705 137.528Z" fill="white"/>
<path d="M53.8195 157.211C56.8795 157.211 59.3695 158.531 59.3695 160.151C59.3695 161.771 56.8795 163.101 53.8195 163.101C50.7595 163.101 48.2695 161.781 48.2695 160.151C48.2695 158.521 50.7495 157.211 53.8195 157.211Z" fill="#E08F82"/>
<path d="M55.4203 38.0412C56.6003 51.2712 51.0203 73.7413 54.2203 84.9913C55.1303 88.1713 58.6203 99.3413 57.4403 102.141C50.1903 94.4613 35.6803 82.5312 28.3203 64.0112C18.0203 38.1012 29.9303 7.02125 39.3403 2.03125C47.2903 3.80125 53.2203 19.2812 53.7203 24.3812C54.5003 28.8612 55.1003 33.3713 55.5003 38.0312H55.4203V38.0412Z" fill="#FCB9B9"/>
<path d="M112.881 137.469C113.395 137.469 113.811 137.053 113.811 136.539C113.811 136.026 113.395 135.609 112.881 135.609C112.368 135.609 111.951 136.026 111.951 136.539C111.951 137.053 112.368 137.469 112.881 137.469Z" fill="white"/>
<path d="M64.6097 139.11C65.1233 139.11 65.5397 138.694 65.5397 138.18C65.5397 137.666 65.1233 137.25 64.6097 137.25C64.0961 137.25 63.6797 137.666 63.6797 138.18C63.6797 138.694 64.0961 139.11 64.6097 139.11Z" fill="white"/>
<path d="M140.77 148.231C143.65 168.661 116.78 183.321 91.3799 183.321C65.9799 183.321 38.8499 172.211 41.6399 150.061C44.8399 124.661 54.5199 91.651 91.3799 91.361C125.28 91.101 137.19 122.851 140.77 148.231Z" stroke="#3F2A25" stroke-linecap="round" stroke-linejoin="round"/>
<path d="M105.029 93.2209C110.879 83.7009 118.039 65.3909 122.769 43.6109C128.569 16.9009 142.319 1.6609 149.379 2.6509C158.849 3.9809 170.479 39.4009 156.679 66.3009C146.679 85.8009 128.839 96.5509 121.919 103.471" stroke="#3F2A25" stroke-linecap="round" stroke-linejoin="round"/>
<path d="M135.159 24.4414C131.829 36.5714 129.869 49.0014 129.289 64.5514C128.669 81.2314 120.779 92.9714 116.289 98.7114" stroke="#3F2A25" stroke-linecap="round" stroke-linejoin="round"/>
<path d="M76.2599 93.6504C71.3499 83.6104 66.9599 66.8504 64.3199 44.7304C61.0799 17.5904 48.8399 1.11036 41.7299 1.43036C32.1799 1.86036 17.2399 36.0104 28.4099 64.1004C36.5099 84.4604 53.0699 96.8004 59.2999 104.34" stroke="#3F2A25" stroke-linecap="round" stroke-linejoin="round"/>
<path d="M53.7988 24.4688C55.9588 36.8588 56.7288 49.4188 55.8288 64.9588C54.8588 81.6288 61.0788 93.2187 64.9888 99.3587" stroke="#3F2A25" stroke-linecap="round" stroke-linejoin="round"/>
<path d="M104.419 148.75C102.349 143.82 108.269 130.38 114.519 128.88C120.089 127.54 128.309 137.91 125.829 144.81C123.349 151.71 106.419 153.53 104.419 148.75Z" stroke="#3F2A25" stroke-linecap="round" stroke-linejoin="round"/>
<path d="M108.57 133.741C114.53 128.881 127.07 147.721 114.9 151.171" stroke="#3F2A25" stroke-linecap="round" stroke-linejoin="round"/>
<path d="M74.1489 149.412C75.8989 144.352 69.1289 131.322 62.7989 130.222C57.1589 129.242 49.6189 140.112 52.5289 146.842C55.4389 153.572 72.4589 154.302 74.1489 149.402V149.412Z" stroke="#3F2A25" stroke-linecap="round" stroke-linejoin="round"/>
<path d="M69.0598 134.699C62.7998 130.229 51.4898 149.839 63.8598 152.499" stroke="#3F2A25" stroke-linecap="round" stroke-linejoin="round"/>
<path d="M77.1891 126.022C78.1591 125.342 78.0391 121.592 75.5191 120.432C73.7791 119.632 71.439 120.312 71.149 121.382C70.649 123.192 75.8391 126.962 77.1891 126.022Z" stroke="#3F2A25" stroke-linecap="round" stroke-linejoin="round"/>
<path d="M102.189 124.319C101.649 123.639 102.809 120.989 105.139 120.279C106.909 119.739 109.049 120.419 109.149 121.229C109.339 122.689 103.059 125.409 102.189 124.319Z" stroke="#3F2A25" stroke-linecap="round" stroke-linejoin="round"/>
<path d="M88.3697 156.171C91.0097 156.011 92.6997 154.351 92.1197 152.891C91.6797 151.781 85.3497 152.641 84.7497 153.381C84.0997 154.171 86.3297 156.301 88.3697 156.171Z" stroke="#3F2A25" stroke-linecap="round" stroke-linejoin="round"/>
<path d="M78.5996 162.532C80.1796 165.122 86.3996 162.602 88.6796 162.442C90.9596 162.282 97.9196 164.562 99.8496 161.332" stroke="#3F2A25" stroke-linecap="round" stroke-linejoin="round"/>
<path d="M88.4297 162.472C88.7297 160.252 88.6597 157.002 88.4297 156.172" stroke="#3F2A25" stroke-linecap="round" stroke-linejoin="round"/>
<path d="M42.0095 147.28C29.4495 142.21 12.8995 141.4 1.51953 144.21" stroke="#3F2A25" stroke-linecap="round" stroke-linejoin="round"/>
<path d="M9.78906 162.552C20.9891 158.602 32.3391 156.672 41.8491 157.452" stroke="#3F2A25" stroke-linecap="round" stroke-linejoin="round"/>
<path d="M140.889 146.081C153.449 141.011 169.449 140.241 180.819 143.051" stroke="#3F2A25" stroke-linecap="round" stroke-linejoin="round"/>
<path d="M172.56 161.399C161.36 157.449 150.01 155.519 140.5 156.299" stroke="#3F2A25" stroke-linecap="round" stroke-linejoin="round"/>
<path d="M88.8597 295.38C87.0297 304.54 89.8397 330.18 86.7597 331.84C82.2297 334.29 77.4597 333.15 74.2397 331.71C70.3597 329.98 70.4697 325.42 60.2797 277.32C57.4297 263.89 62.0097 245.45 66.4397 230.75" stroke="#3F2A25" stroke-linecap="round" stroke-linejoin="round"/>
<path d="M97.7188 292.861C98.8088 293.011 100.749 293.301 101.649 293.761C105.429 295.721 103.449 329.061 106.709 330.931C111.369 333.581 114.729 332.731 119.499 330.631C124.219 328.561 127.519 299.991 130.019 276.251C130.949 267.391 130.359 259.641 129.339 253.141" stroke="#3F2A25" stroke-linecap="round" stroke-linejoin="round"/>
<path d="M83.4387 207.439C83.6887 229.569 90.5487 241.719 96.2587 252.469C100.549 260.549 104.149 266.369 103.719 271.349C103.389 275.219 102.839 281.669 100.959 286.959C100.359 288.649 99.6288 290.209 98.7388 291.539C97.5288 293.339 95.9987 294.709 94.0787 295.349C92.3987 295.909 90.6287 295.849 88.8687 295.369C88.1387 295.179 87.4187 294.919 86.6987 294.599C80.5987 291.909 75.1587 285.379 74.7787 284.919C69.4087 278.339 69.3587 271.259 67.6687 251.789C66.9787 243.939 66.5787 236.919 66.4487 230.739C65.9987 210.809 68.2687 199.529 72.6887 196.739C76.9687 194.039 85.6087 192.599 87.1687 189.759C88.2087 187.869 88.0588 185.429 87.5688 183.219" stroke="#3F2A25" stroke-linecap="round" stroke-linejoin="round"/>
<path d="M96.2598 252.48C103.18 241.13 113.96 234.47 118.41 230.23" stroke="#3F2A25" stroke-linecap="round" stroke-linejoin="round"/>
<path d="M100.959 286.971C101.849 287.031 102.769 287.051 103.689 287.031C107.469 286.961 111.189 286.181 112.459 284.471C118.569 276.291 125.159 262.971 129.339 253.141C131.679 247.641 133.259 243.241 133.589 241.431C134.639 235.751 125.199 200.331 118.219 195.181C114.289 192.281 106.099 191.831 104.829 188.601C103.879 186.191 103.329 184.371 103.339 182.301" stroke="#3F2A25" stroke-linecap="round" stroke-linejoin="round"/>
<path d="M109.75 206C112.36 212.43 115.88 225.07 116.32 231.94" stroke="#3F2A25" stroke-linecap="round" stroke-linejoin="round"/>
<path d="M81.8086 273.309C82.2486 281.389 84.1686 286.319 86.6886 294.609" stroke="#3F2A25" stroke-linecap="round" stroke-linejoin="round"/>
<path d="M98.7294 291.55C98.7894 289.76 98.7295 288.16 98.5795 286.7C97.9695 280.73 95.7795 276.93 93.4395 271" stroke="#3F2A25" stroke-linecap="round" stroke-linejoin="round"/>
<path d="M109.93 268.91C106.04 276 105.89 278.78 103.66 287.16" stroke="#3F2A25" stroke-linecap="round" stroke-linejoin="round"/>
</g>
<defs>
<clipPath id="clip0_1762_6065">
<rect width="182" height="335" fill="white"/>
</clipPath>
</defs>
</svg>
