<svg width="89" height="75" viewBox="0 0 89 75" fill="none" xmlns="http://www.w3.org/2000/svg">
<path d="M83.5792 39.989H81.0151C80.1574 39.989 79.3786 40.3389 78.8098 40.916C78.2497 41.4757 77.8996 42.254 77.8996 43.1023C77.8996 44.8251 79.3086 46.2331 81.0151 46.2331H83.5792V54.1736C83.5792 56.7709 81.4526 58.9047 78.8448 58.9047H72.6227C72.6227 55.6603 70.5224 52.9143 67.5995 51.9524C66.8731 51.7075 66.0943 51.5763 65.2892 51.5763C61.2374 51.5763 57.9557 54.8557 57.9557 58.9047H31.3608C31.2121 55.8789 29.2256 53.3341 26.4864 52.3634C25.7163 52.0923 24.8937 51.9436 24.0361 51.9436C20.1068 51.9436 16.9039 55.0219 16.7114 58.9047H8.45025C5.85115 58.9047 3.72461 56.7709 3.72461 54.1736V52.7482H8.59027C9.44788 52.7482 10.2355 52.3984 10.7956 51.8387C11.3556 51.2615 11.7057 50.4919 11.7057 49.6349C11.7057 47.9121 10.3143 46.5217 8.59027 46.5217H3.72461V29.0664H7.64514V32.2671C7.64514 33.2116 8.41524 33.9812 9.35162 33.9812H17.2277C18.1641 33.9812 18.9342 33.2116 18.9342 32.2671V29.0664H22.8985V32.2671C22.8985 33.2116 23.6686 33.9812 24.6049 33.9812H32.481C33.4261 33.9812 34.1962 33.2116 34.1962 32.2671V29.0664H37.863V32.2671C37.863 33.2116 38.6331 33.9812 39.5695 33.9812H47.4455C48.3819 33.9812 49.152 33.2116 49.152 32.2671V29.0664H53.1163V32.2671C53.1163 33.2116 53.8864 33.9812 54.8228 33.9812H62.6988C63.6352 33.9812 64.4053 33.2116 64.4053 32.2671V29.0664H69.446V31.7774C69.446 32.993 70.4349 33.9812 71.6338 33.9812H82.179C82.5115 34.7595 82.7915 35.4941 83.0191 36.1849C83.3954 37.3218 83.5792 38.5199 83.5792 39.7267V39.989Z" fill="#BC7171"/>
<path d="M81.0158 46.2323C79.3093 46.2323 77.9004 44.8243 77.9004 43.1015C77.9004 42.2533 78.2504 41.4749 78.8105 40.9153C79.3793 40.3381 80.1582 39.9883 81.0158 39.9883H83.5799V46.2323H81.0158Z" fill="#BC7171"/>
<path d="M82.1783 33.9812H71.6331C70.4342 33.9812 69.4453 32.993 69.4453 31.7774V29.0664H79.8942C80.7518 30.763 81.5482 32.4508 82.1783 33.9812Z" fill="#BC7171"/>
<path d="M79.8942 29.066H69.4453V22.6208C69.4453 21.414 70.4342 20.4258 71.6331 20.4258H75.0986C76.5338 22.8307 78.319 25.9789 79.8942 29.066Z" fill="#BC7171"/>
<path d="M53.4838 15.582H69.7785C71.31 15.5995 72.6927 16.4915 73.4978 17.7858C73.9441 18.4854 74.4954 19.3862 75.0993 20.4268H71.6338C70.4349 20.4268 69.446 21.415 69.446 22.6218V29.067H64.4053V25.875C64.4053 24.9306 63.6352 24.161 62.6988 24.161H54.8228C53.8864 24.161 53.1163 24.9306 53.1163 25.875V29.067H49.152V25.875C49.152 24.9306 48.3819 24.161 47.4455 24.161H39.5695C38.6331 24.161 37.863 24.9306 37.863 25.875V29.067H34.1962V25.875C34.1962 24.9306 33.4261 24.161 32.481 24.161H24.6049C23.6686 24.161 22.8985 24.9306 22.8985 25.875V29.067H18.9342V25.875C18.9342 24.9306 18.1641 24.161 17.2277 24.161H9.35162C8.41524 24.161 7.64514 24.9306 7.64514 25.875V29.067H3.72461V20.3131C3.72461 17.7246 5.85115 15.582 8.45025 15.582H53.4838Z" fill="#BC7171"/>
<path d="M68.6408 58.9057C68.6408 60.7422 67.1444 62.2464 65.3066 62.2551C66.8031 60.716 67.6432 58.8008 67.9407 56.8594C68.3783 57.4278 68.6408 58.1362 68.6408 58.9057Z" fill="#BC7171"/>
<path d="M64.4062 29.0664V32.2671C64.4062 33.2116 63.6361 33.9812 62.6997 33.9812H54.8237C53.8873 33.9812 53.1172 33.2116 53.1172 32.2671V29.0664H64.4062Z" fill="#BC7171"/>
<path d="M64.4062 25.8742V29.0662H53.1172V25.8742C53.1172 24.9297 53.8873 24.1602 54.8237 24.1602H62.6997C63.6361 24.1602 64.4062 24.9297 64.4062 25.8742Z" fill="#BC7171"/>
<path d="M67.5996 51.9531C70.5225 52.9151 72.6227 55.6611 72.6227 58.9055C72.6227 62.9545 69.341 66.2339 65.2892 66.2339C63.7053 66.2339 62.2438 65.7354 61.0449 64.8871L61.0624 64.8522C62.8477 64.275 64.2479 63.3655 65.3068 62.2549C67.1445 62.2549 68.6409 60.742 68.6409 58.9055C68.6409 58.1359 68.3784 57.4276 67.9409 56.8591C68.2121 55.1626 68.0721 53.4485 67.5996 51.9531Z" fill="#BC7171"/>
<path d="M67.9408 56.8577C67.6433 58.7991 66.8032 60.7143 65.3067 62.2534H65.2892C63.4427 62.2534 61.9375 60.7493 61.9375 58.9041C61.9375 57.0588 63.4427 55.5547 65.2892 55.5547C66.3656 55.5547 67.3282 56.0706 67.9408 56.8577Z" fill="#BC7171"/>
<path d="M61.9369 58.9065C61.9369 60.7517 63.4421 62.2559 65.2886 62.2559H65.3061C64.2472 63.3665 62.847 64.276 61.0617 64.8532L61.0442 64.8882C59.1715 63.5589 57.9551 61.3726 57.9551 58.9065C57.9551 54.8575 61.2368 51.5781 65.2886 51.5781C66.0937 51.5781 66.8725 51.7093 67.5989 51.9542C68.0714 53.4496 68.2115 55.1636 67.9402 56.8602C67.3276 56.0731 66.365 55.5572 65.2886 55.5572C63.4421 55.5572 61.9369 57.0613 61.9369 58.9065Z" fill="#BC7171"/>
<path d="M49.1523 29.0664V32.2671C49.1523 33.2116 48.3822 33.9812 47.4458 33.9812H39.5698C38.6334 33.9812 37.8633 33.2116 37.8633 32.2671V29.0664H49.1523Z" fill="#BC7171"/>
<path d="M49.1523 25.8742V29.0662H37.8633V25.8742C37.8633 24.9297 38.6334 24.1602 39.5698 24.1602H47.4458C48.3822 24.1602 49.1523 24.9297 49.1523 25.8742Z" fill="#BC7171"/>
<path d="M34.1962 29.0664V32.2671C34.1962 33.2116 33.4261 33.9812 32.481 33.9812H24.6049C23.6685 33.9812 22.8984 33.2116 22.8984 32.2671V29.0664H34.1962Z" fill="#BC7171"/>
<path d="M34.1962 25.8742V29.0662H22.8984V25.8742C22.8984 24.9297 23.6685 24.1602 24.6049 24.1602H32.481C33.4261 24.1602 34.1962 24.9297 34.1962 25.8742Z" fill="#BC7171"/>
<path d="M31.3617 58.9046C31.3705 59.0271 31.3704 59.1495 31.3704 59.2719C31.3704 63.3209 28.0888 66.6003 24.037 66.6003C22.523 66.6003 21.1141 66.1368 19.9414 65.3498C21.8054 64.7376 23.2581 63.7757 24.3433 62.5951C26.0497 62.4464 27.3799 61.0122 27.3799 59.2719C27.3799 58.5811 27.1699 57.9339 26.8111 57.4092C27.0999 55.6777 26.9511 53.9374 26.4698 52.4157L26.4873 52.3633C29.2264 53.334 31.2129 55.8788 31.3617 58.9046Z" fill="#BC7171"/>
<path d="M26.8096 57.4102C27.1684 57.9349 27.3785 58.582 27.3785 59.2729C27.3785 61.0131 26.0483 62.4473 24.3418 62.596C25.7245 61.1006 26.5208 59.2729 26.8096 57.4102Z" fill="#BC7171"/>
<path d="M26.4694 52.4175C26.9508 53.9392 27.0995 55.6795 26.8107 57.4023C26.2069 56.5103 25.1918 55.9243 24.0366 55.9243C22.1814 55.9243 20.6849 57.4198 20.6849 59.2737C20.6849 61.1277 22.1814 62.6144 24.0366 62.6144C24.1416 62.6144 24.2379 62.6144 24.3429 62.5969C23.2578 63.7774 21.8051 64.7394 19.9411 65.3516C17.9895 64.0398 16.7031 61.8098 16.7031 59.2737C16.7031 59.1513 16.7031 59.0289 16.7119 58.9064C16.9044 55.0236 20.1073 51.9453 24.0366 51.9453C24.8942 51.9453 25.7168 52.094 26.4869 52.3651L26.4694 52.4175Z" fill="#BC7171"/>
<path d="M26.8094 57.3998C26.5206 59.2713 25.7243 61.099 24.3416 62.5944C24.2366 62.6031 24.1403 62.6119 24.0353 62.6119C22.18 62.6119 20.6836 61.1165 20.6836 59.2713C20.6836 57.426 22.18 55.9219 24.0353 55.9219C25.1905 55.9219 26.2056 56.5078 26.8094 57.3998Z" fill="#BC7171"/>
<path d="M18.9336 29.0664V32.2671C18.9336 33.2116 18.1635 33.9812 17.2271 33.9812H9.35101C8.41464 33.9812 7.64453 33.2116 7.64453 32.2671V29.0664H18.9336Z" fill="#BC7171"/>
<path d="M18.9336 25.8742V29.0662H7.64453V25.8742C7.64453 24.9297 8.41464 24.1602 9.35101 24.1602H17.2271C18.1635 24.1602 18.9336 24.9297 18.9336 25.8742Z" fill="#BC7171"/>
<path d="M8.59027 46.5234C10.3143 46.5234 11.7057 47.9139 11.7057 49.6367C11.7057 50.4937 11.3556 51.2633 10.7956 51.8405C10.2355 52.4002 9.44788 52.75 8.59027 52.75H3.72461V46.5234H8.59027Z" fill="#BC7171"/>
<path d="M67.6073 51.9524C66.881 51.7075 66.1021 51.5763 65.297 51.5763C61.2452 51.5763 57.9635 54.8557 57.9635 58.9047H31.3599C31.2111 55.8789 29.2246 53.3341 26.4942 52.3634C25.7241 52.0835 24.9015 51.9349 24.0352 51.9349C20.1146 51.9349 16.8942 55.0306 16.7104 58.9047H8.44931C5.85021 58.9047 3.73242 56.7709 3.73242 54.1736V52.7482H8.59808C9.4557 52.7482 10.2433 52.3984 10.8034 51.8387C11.3635 51.2615 11.7135 50.4832 11.7135 49.6349C11.7135 47.9121 10.3221 46.5217 8.59808 46.5217H3.73242V29.0664H7.6442V32.2671C7.6442 33.2116 8.4143 33.9812 9.35943 33.9812H17.2267C18.1719 33.9812 18.942 33.2116 18.942 32.2671V29.0664H22.9063V32.2671C22.9063 33.2116 23.6764 33.9812 24.6127 33.9812H32.4888C33.4252 33.9812 34.1953 33.2116 34.1953 32.2671V29.0664H37.862V32.2671C37.862 33.2116 38.6321 33.9812 39.5773 33.9812H47.4446C48.3897 33.9812 49.1598 33.2116 49.1598 32.2671V29.0664H53.1153V32.2671C53.1153 33.2116 53.8855 33.9812 54.8306 33.9812H62.6979C63.643 33.9812 64.4131 33.2116 64.4131 32.2671V29.0664H69.445V31.7774C69.445 32.993 70.4339 33.9812 71.6416 33.9812H82.1868C82.5106 34.7507 82.7994 35.4941 83.0181 36.1849C83.4032 37.313 83.5782 38.5199 83.5782 39.718V39.989H81.0229C80.1653 39.989 79.3864 40.3389 78.8176 40.916C78.2487 41.4757 77.9075 42.2453 77.9075 43.1023C77.9075 44.8251 79.3076 46.2243 81.0229 46.2243H83.5782V54.1736C83.5782 56.7709 81.4604 58.9047 78.8526 58.9047H72.6305C72.6305 55.6603 70.5302 52.9143 67.6073 51.9524Z" fill="#FAFFFF"/>
<path d="M83.579 39.9883V46.2235H81.0236C79.3084 46.2235 77.9082 44.8243 77.9082 43.1015C77.9082 42.2445 78.2495 41.4749 78.8183 40.9153C79.3871 40.3381 80.166 39.9883 81.0236 39.9883H83.579Z" fill="#E2E2E2"/>
<path d="M82.187 33.9812H71.6419C70.4342 33.9812 69.4453 32.993 69.4453 31.7774V29.0664H79.903C80.7606 30.763 81.557 32.4508 82.187 33.9812Z" fill="#C2E8F2"/>
<path d="M79.903 29.066H69.4453V22.6208C69.4453 21.414 70.4342 20.4258 71.6419 20.4258H75.1073C76.5425 22.8307 78.3278 25.9789 79.903 29.066Z" fill="#9FC9D3"/>
<path d="M53.4916 15.582H69.7863C71.3178 15.582 72.7005 16.4915 73.5056 17.7858C73.9432 18.4854 74.4945 19.3774 75.1071 20.4268H71.6416C70.4339 20.4268 69.445 21.415 69.445 22.6218V29.067H64.4131V25.8663C64.4131 24.9306 63.643 24.161 62.6979 24.161H54.8306C53.8855 24.161 53.1153 24.9306 53.1153 25.8663V29.067H49.1598V25.8663C49.1598 24.9306 48.3897 24.161 47.4446 24.161H39.5773C38.6321 24.161 37.862 24.9306 37.862 25.8663V29.067H34.1953V25.8663C34.1953 24.9306 33.4252 24.161 32.4888 24.161H24.6127C23.6764 24.161 22.9063 24.9306 22.9063 25.8663V29.067H18.942V25.8663C18.942 24.9306 18.1719 24.161 17.2267 24.161H9.35943C8.4143 24.161 7.6442 24.9306 7.6442 25.8663V29.067H3.73242V20.3131C3.73242 17.7158 5.85021 15.582 8.44931 15.582H53.4916Z" fill="#DFE5E5"/>
<path d="M67.6064 51.9531C70.5293 52.9151 72.6295 55.6611 72.6295 58.9055C72.6295 62.9457 69.3478 66.2339 65.296 66.2339C63.7121 66.2339 62.2419 65.7267 61.043 64.8784L61.0692 64.8434C62.8457 64.2662 64.2459 63.3568 65.3048 62.2549C67.1513 62.2461 68.6477 60.7507 68.6477 58.9055C68.6477 58.1359 68.3852 57.4188 67.9477 56.8591C68.2189 55.1626 68.0789 53.4485 67.6064 51.9531Z" fill="#4F4A41"/>
<path d="M67.9495 56.8594C68.3871 57.4191 68.6496 58.1362 68.6496 58.9057C68.6496 60.7509 67.1531 62.2464 65.3066 62.2551C66.8118 60.7247 67.652 58.8008 67.9495 56.8594Z" fill="#C8CDCE"/>
<path d="M67.6076 51.9542C68.0802 53.4496 68.2202 55.1636 67.9489 56.8602C67.3363 56.0644 66.3737 55.5572 65.2973 55.5572C63.4421 55.5572 61.9456 57.0526 61.9456 58.9065C61.9456 60.7605 63.4421 62.2559 65.2973 62.2559C64.2384 63.3578 62.8382 64.2673 61.0617 64.8445L61.0355 64.8794C59.1715 63.5502 57.9551 61.3639 57.9551 58.9065C57.9551 54.8575 61.2368 51.5781 65.2886 51.5781C66.0937 51.5781 66.8725 51.7093 67.5989 51.9542H67.6076Z" fill="#8E8C87"/>
<path d="M65.2961 55.5547C66.3725 55.5547 67.3351 56.0619 67.9477 56.8577C67.6501 58.7991 66.81 60.723 65.3048 62.2534C63.4496 62.2534 61.9531 60.7493 61.9531 58.9041C61.9531 57.0588 63.4496 55.5547 65.3048 55.5547H65.2961Z" fill="#E2E2E2"/>
<path d="M64.413 29.0664V32.2671C64.413 33.2116 63.6429 33.9812 62.6978 33.9812H54.8305C53.8853 33.9812 53.1152 33.2116 53.1152 32.2671V29.0664H64.413Z" fill="#C2E8F2"/>
<path d="M64.413 25.8655V29.0662H53.1152V25.8655C53.1152 24.9297 53.8853 24.1602 54.8305 24.1602H62.6978C63.6429 24.1602 64.413 24.9297 64.413 25.8655Z" fill="#9FC9D3"/>
<path d="M49.1591 29.0664V32.2671C49.1591 33.2116 48.389 33.9812 47.4439 33.9812H39.5766C38.6314 33.9812 37.8613 33.2116 37.8613 32.2671V29.0664H49.1591Z" fill="#C2E8F2"/>
<path d="M49.1591 25.8655V29.0662H37.8613V25.8655C37.8613 24.9297 38.6314 24.1602 39.5766 24.1602H47.4439C48.389 24.1602 49.1591 24.9297 49.1591 25.8655Z" fill="#9FC9D3"/>
<path d="M34.1953 29.0664V32.2671C34.1953 33.2116 33.4252 33.9812 32.4888 33.9812H24.6127C23.6764 33.9812 22.9062 33.2116 22.9062 32.2671V29.0664H34.1953Z" fill="#C2E8F2"/>
<path d="M34.1953 25.8655V29.0662H22.9062V25.8655C22.9062 24.9297 23.6764 24.1602 24.6127 24.1602H32.4888C33.4252 24.1602 34.1953 24.9297 34.1953 25.8655Z" fill="#9FC9D3"/>
<path d="M31.3597 58.9046C31.3685 59.0271 31.3685 59.1407 31.3685 59.2632C31.3685 63.3122 28.0868 66.6003 24.035 66.6003C22.5211 66.6003 21.1121 66.1368 19.9395 65.3498C21.8122 64.7376 23.2649 63.7757 24.3501 62.5951C26.0565 62.4376 27.3867 61.0122 27.3867 59.2632C27.3867 58.5723 27.1767 57.9339 26.8179 57.4005C27.0979 55.6777 26.9579 53.9374 26.4766 52.4157L26.4941 52.3633C29.2245 53.334 31.211 55.8788 31.3597 58.9046Z" fill="#4F4A41"/>
<path d="M26.8174 57.4023C27.1762 57.9358 27.3863 58.5742 27.3863 59.2651C27.3863 61.0141 26.0561 62.4395 24.3496 62.5969C25.7323 61.1015 26.5199 59.2651 26.8174 57.4023Z" fill="#C8CDCE"/>
<path d="M16.7099 58.9034C16.8937 55.0294 20.1141 51.9336 24.0347 51.9336C24.901 51.9336 25.7236 52.0823 26.4937 52.3621L26.4762 52.4146C26.9576 53.9362 27.0976 55.6765 26.8175 57.3993C26.2137 56.5073 25.1898 55.9214 24.0347 55.9214C22.1882 55.9214 20.6917 57.4168 20.6917 59.262C20.6917 61.1072 22.1882 62.6114 24.0347 62.6114C24.1397 62.6114 24.2447 62.6026 24.3497 62.5939C23.2646 63.7745 21.8119 64.7364 19.9391 65.3486C17.9876 64.0281 16.7012 61.7893 16.7012 59.262C16.7012 59.1396 16.7012 59.0259 16.7099 58.9034Z" fill="#8E8C87"/>
<path d="M24.0344 55.9219C25.1895 55.9219 26.2134 56.5078 26.8172 57.3998C26.5197 59.2625 25.7321 61.099 24.3494 62.5944C24.2444 62.6031 24.1394 62.6119 24.0344 62.6119C22.1879 62.6119 20.6914 61.1165 20.6914 59.2625C20.6914 57.4085 22.1879 55.9219 24.0344 55.9219Z" fill="#E2E2E2"/>
<path d="M18.9423 29.0664V32.2671C18.9423 33.2116 18.1722 33.9812 17.2271 33.9812H9.35976C8.41463 33.9812 7.64453 33.2116 7.64453 32.2671V29.0664H18.9423Z" fill="#C2E8F2"/>
<path d="M18.9423 25.8655V29.0662H7.64453V25.8655C7.64453 24.9297 8.41463 24.1602 9.35976 24.1602H17.2271C18.1722 24.1602 18.9423 24.9297 18.9423 25.8655Z" fill="#9FC9D3"/>
<path d="M8.59808 46.5234C10.3221 46.5234 11.7135 47.9139 11.7135 49.6367C11.7135 50.485 11.3635 51.2633 10.8034 51.8405C10.2433 52.4002 9.4557 52.75 8.59808 52.75H3.73242V46.5234H8.59808Z" fill="#FF8585"/>
<path d="M57.9649 58.9062H31.3613" stroke="#3F2A25" stroke-width="0.5" stroke-linecap="round" stroke-linejoin="round"/>
<path d="M16.7192 58.9092H8.45806C5.85896 58.9092 3.73242 56.7754 3.73242 54.1781V20.317C3.73242 17.7197 5.85896 15.5859 8.45806 15.5859H69.7863C71.3178 15.5947 72.7005 16.4954 73.5056 17.7897C73.9432 18.4893 74.4945 19.3813 75.0983 20.4307C77.3211 24.1649 80.4103 29.6656 82.1868 33.9857C82.5106 34.764 82.7906 35.4986 83.0181 36.1894C83.4032 37.3263 83.5782 38.5244 83.5782 39.7312V54.1869C83.5782 56.7842 81.4517 58.918 78.8438 58.918H72.6217" stroke="#3F2A25" stroke-width="0.5" stroke-linecap="round" stroke-linejoin="round"/>
<path d="M75.0995 20.4297H71.634C70.4351 20.4297 69.4375 21.4179 69.4375 22.6247V31.7808C69.4375 32.9964 70.4264 33.9846 71.634 33.9846H82.1792" stroke="#3F2A25" stroke-width="0.5" stroke-linecap="round" stroke-linejoin="round"/>
<path d="M62.6997 24.1641H54.8324C53.8851 24.1641 53.1172 24.9315 53.1172 25.8781V32.2708C53.1172 33.2174 53.8851 33.9848 54.8324 33.9848H62.6997C63.647 33.9848 64.415 33.2174 64.415 32.2708V25.8781C64.415 24.9315 63.647 24.1641 62.6997 24.1641Z" stroke="#3F2A25" stroke-width="0.5" stroke-linecap="round" stroke-linejoin="round"/>
<path d="M47.4458 24.1641H39.5785C38.6312 24.1641 37.8633 24.9315 37.8633 25.8781V32.2708C37.8633 33.2174 38.6312 33.9848 39.5785 33.9848H47.4458C48.3931 33.9848 49.1611 33.2174 49.1611 32.2708V25.8781C49.1611 24.9315 48.3931 24.1641 47.4458 24.1641Z" stroke="#3F2A25" stroke-width="0.5" stroke-linecap="round" stroke-linejoin="round"/>
<path d="M32.481 24.1641H24.6137C23.6664 24.1641 22.8984 24.9315 22.8984 25.8781V32.2708C22.8984 33.2174 23.6664 33.9848 24.6137 33.9848H32.481C33.4283 33.9848 34.1962 33.2174 34.1962 32.2708V25.8781C34.1962 24.9315 33.4283 24.1641 32.481 24.1641Z" stroke="#3F2A25" stroke-width="0.5" stroke-linecap="round" stroke-linejoin="round"/>
<path d="M17.2271 24.1641H9.35976C8.41247 24.1641 7.64453 24.9315 7.64453 25.8781V32.2708C7.64453 33.2174 8.41247 33.9848 9.35976 33.9848H17.2271C18.1744 33.9848 18.9423 33.2174 18.9423 32.2708V25.8781C18.9423 24.9315 18.1744 24.1641 17.2271 24.1641Z" stroke="#3F2A25" stroke-width="0.5" stroke-linecap="round" stroke-linejoin="round"/>
<path d="M3.72461 52.75H8.59027C9.44788 52.75 10.2355 52.4002 10.7956 51.8405C11.3556 51.2633 11.7057 50.4937 11.7057 49.6367C11.7057 47.9139 10.3143 46.5234 8.59027 46.5234H3.72461" stroke="#3F2A25" stroke-width="0.5" stroke-linecap="round" stroke-linejoin="round"/>
<path d="M83.5799 46.2275H81.0158C79.3093 46.2275 77.9004 44.8195 77.9004 43.1054C77.9004 42.2484 78.2504 41.4789 78.8105 40.9104C79.3706 40.342 80.1582 39.9922 81.0158 39.9922H83.5799" stroke="#3F2A25" stroke-width="0.5" stroke-linecap="round" stroke-linejoin="round"/>
<path d="M24.0366 66.5943C28.0868 66.5943 31.3701 63.3133 31.3701 59.2659C31.3701 55.2185 28.0868 51.9375 24.0366 51.9375C19.9864 51.9375 16.7031 55.2185 16.7031 59.2659C16.7031 63.3133 19.9864 66.5943 24.0366 66.5943Z" stroke="#3F2A25" stroke-width="0.5" stroke-linecap="round" stroke-linejoin="round"/>
<path d="M65.2983 66.2271C69.3485 66.2271 72.6318 62.9461 72.6318 58.8987C72.6318 54.8514 69.3485 51.5703 65.2983 51.5703C61.2482 51.5703 57.9648 54.8514 57.9648 58.8987C57.9648 62.9461 61.2482 66.2271 65.2983 66.2271Z" stroke="#3F2A25" stroke-width="0.5" stroke-linecap="round" stroke-linejoin="round"/>
<path d="M20.7363 8.1875L41.7829 15.5946" stroke="#3F2A25" stroke-width="0.5" stroke-linecap="round" stroke-linejoin="round"/>
<path d="M32.4629 7.06641L53.5095 15.5929" stroke="#3F2A25" stroke-width="0.5" stroke-linecap="round" stroke-linejoin="round"/>
<path d="M24.0353 62.6167C25.8864 62.6167 27.387 61.1172 27.387 59.2673C27.387 57.4175 25.8864 55.918 24.0353 55.918C22.1842 55.918 20.6836 57.4175 20.6836 59.2673C20.6836 61.1172 22.1842 62.6167 24.0353 62.6167Z" stroke="#3F2A25" stroke-width="0.5" stroke-linecap="round" stroke-linejoin="round"/>
<path d="M65.297 62.2573C67.1481 62.2573 68.6487 60.7578 68.6487 58.908C68.6487 57.0582 67.1481 55.5586 65.297 55.5586C63.4459 55.5586 61.9453 57.0582 61.9453 58.908C61.9453 60.7578 63.4459 62.2573 65.297 62.2573Z" stroke="#3F2A25" stroke-width="0.5" stroke-linecap="round" stroke-linejoin="round"/>
</svg>
