<svg width="116" height="62" viewBox="0 0 116 62" fill="none" xmlns="http://www.w3.org/2000/svg">
<path d="M103.984 40.424H101.667C100.117 40.4322 98.8438 39.1485 98.8438 37.5868C98.8438 36.8101 99.1538 36.1069 99.6679 35.6C100.19 35.0767 100.892 34.7578 101.667 34.7578H103.984V40.424Z" fill="#BC7171"/>
<path d="M92.0052 24.3086V29.0345H82.4418C81.3566 29.0345 80.459 28.1351 80.459 27.0313V24.3086H92.0052Z" fill="#BC7171"/>
<path d="M91.9971 16.7227V24.3103H80.459V18.7095C80.459 17.6221 81.3566 16.7227 82.4418 16.7227H91.9971Z" fill="#BC7171"/>
<path d="M91.9978 15.8462V16.7211H82.4426C81.3573 16.7211 80.4598 17.6205 80.4598 18.708V24.3087H75.8249V21.7087C75.8249 20.8338 75.1069 20.1143 74.2256 20.1143H67.1836C66.3105 20.1143 65.5924 20.8338 65.5924 21.7087V24.3087H62.4835V21.7087C62.4835 20.8338 61.7655 20.1143 60.8842 20.1143H53.8422C52.9691 20.1143 52.251 20.8338 52.251 21.7087V24.3087H48.6607V21.7087C48.6607 20.8338 47.9426 20.1143 47.0695 20.1143H40.0194C39.1463 20.1143 38.4282 20.8338 38.4282 21.7087V24.3087H35.1071V21.7087C35.1071 20.8338 34.389 20.1143 33.5078 20.1143H26.4658C25.5927 20.1143 24.8746 20.8338 24.8746 21.7087V24.3087H21.2843V21.7087C21.2843 20.8338 20.5662 20.1143 19.6849 20.1143H12.6429C11.7698 20.1143 11.0518 20.8338 11.0518 21.7087V24.3087H7.4043V15.8462C7.4043 13.6386 9.19947 11.8398 11.4026 11.8398H87.9913C90.1945 11.8398 91.9978 13.6386 91.9978 15.8462Z" fill="#BC7171"/>
<path d="M89.5333 51.9792C89.5333 53.5 88.4154 54.7592 86.9629 54.9799C88.1542 53.5899 88.7581 51.8893 88.9294 50.1641C89.3129 50.671 89.5333 51.3006 89.5333 51.9792Z" fill="#BC7171"/>
<path d="M86.4984 48.9375C87.4939 48.9375 88.3751 49.4199 88.93 50.1639C88.7587 51.8892 88.1548 53.5898 86.9635 54.9798C86.8166 55.0043 86.6534 55.0207 86.4984 55.0207C84.8256 55.0207 83.4629 53.6552 83.4629 51.9791C83.4629 50.3029 84.8256 48.9375 86.4984 48.9375Z" fill="#BC7171"/>
<path d="M86.4982 58.6343C85.1763 58.6343 83.9523 58.25 82.916 57.5877L82.9405 57.5468C84.703 56.9745 86.0168 56.0669 86.9633 54.9794C88.4158 54.7587 89.5337 53.4995 89.5337 51.9787C89.5337 51.3001 89.3134 50.6705 88.9299 50.1636C89.0686 48.6183 88.8646 47.0566 88.4239 45.6666L88.4403 45.6094C91.1657 46.4352 93.1404 48.978 93.1404 51.9787C93.1404 55.6499 90.1702 58.6343 86.4982 58.6343Z" fill="#BC7171"/>
<path d="M88.4233 45.6641C88.864 47.0541 89.068 48.6157 88.9293 50.1611C88.3744 49.417 87.4931 48.9346 86.4976 48.9346C84.8248 48.9346 83.4621 50.2919 83.4621 51.9762C83.4621 53.6605 84.8248 55.0178 86.4976 55.0178C86.6527 55.0178 86.8159 55.0014 86.9627 54.9769C86.0162 56.0644 84.7024 56.9719 82.9399 57.5443L82.9154 57.5852C81.0795 56.3996 79.8555 54.331 79.8555 51.9762C79.8555 48.2969 82.8257 45.3125 86.4976 45.3125C87.1749 45.3125 87.8277 45.4106 88.4397 45.6068L88.4233 45.6641Z" fill="#BC7171"/>
<path d="M75.8243 24.3086V27.4319C75.8243 28.315 75.1062 29.0345 74.225 29.0345H67.183C66.3099 29.0345 65.5918 28.315 65.5918 27.4319V24.3086H75.8243Z" fill="#BC7171"/>
<path d="M75.8243 21.7077V24.3077H65.5918V21.7077C65.5918 20.8328 66.3099 20.1133 67.183 20.1133H74.225C75.1062 20.1133 75.8243 20.8328 75.8243 21.7077Z" fill="#BC7171"/>
<path d="M62.4845 24.3086V27.4319C62.4845 28.315 61.7664 29.0345 60.8851 29.0345H53.8431C52.97 29.0345 52.252 28.315 52.252 27.4319V24.3086H62.4845Z" fill="#BC7171"/>
<path d="M62.4845 21.7077V24.3077H52.252V21.7077C52.252 20.8328 52.97 20.1133 53.8431 20.1133H60.8851C61.7664 20.1133 62.4845 20.8328 62.4845 21.7077Z" fill="#BC7171"/>
<path d="M48.6602 24.3086V27.4319C48.6602 28.315 47.9422 29.0345 47.0691 29.0345H40.0189C39.1458 29.0345 38.4277 28.315 38.4277 27.4319V24.3086H48.6602Z" fill="#BC7171"/>
<path d="M48.6602 21.7077V24.3077H38.4277V21.7077C38.4277 20.8328 39.1458 20.1133 40.0189 20.1133H47.0691C47.9422 20.1133 48.6602 20.8328 48.6602 21.7077Z" fill="#BC7171"/>
<path d="M35.1075 24.3086V27.4319C35.1075 28.315 34.3894 29.0345 33.5082 29.0345H26.4662C25.5931 29.0345 24.875 28.315 24.875 27.4319V24.3086H35.1075Z" fill="#BC7171"/>
<path d="M35.1075 21.7077V24.3077H24.875V21.7077C24.875 20.8328 25.5931 20.1133 26.4662 20.1133H33.5082C34.3894 20.1133 35.1075 20.8328 35.1075 21.7077Z" fill="#BC7171"/>
<path d="M32.5456 51.9791V52.0118C32.5456 55.6911 29.5754 58.6673 25.8953 58.6673C24.5326 58.6673 23.2678 58.2585 22.207 57.5472C23.9369 56.983 25.2343 56.1 26.1727 55.037C27.7231 54.898 28.9308 53.598 28.9308 52.0118V51.9791C28.9226 51.2351 28.6533 50.5564 28.2045 50.0413C28.3188 48.5369 28.1148 47.0161 27.6905 45.667L27.7068 45.6016C30.4893 46.3865 32.5293 48.9457 32.5456 51.9791Z" fill="#BC7171"/>
<path d="M26.1719 55.0348C27.4367 53.6039 28.0487 51.8297 28.2037 50.0391C28.6525 50.5542 28.9218 51.2328 28.9299 51.9769V52.0096C28.9299 53.5958 27.7223 54.8958 26.1719 55.0348Z" fill="#BC7171"/>
<path d="M27.6893 45.6665C28.1136 47.0156 28.3176 48.5364 28.2034 50.0409C27.6485 49.3868 26.8243 48.9698 25.8941 48.9698C24.2376 48.9698 22.8831 50.3107 22.8586 51.9787V52.0114C22.8586 53.6957 24.2295 55.053 25.8941 55.053C25.992 55.053 26.0818 55.0448 26.1715 55.0366C25.2331 56.0995 23.9357 56.9826 22.2058 57.5467C20.427 56.353 19.252 54.3253 19.252 52.0114V51.9787C19.2764 48.3157 22.2385 45.3477 25.8941 45.3477C26.5224 45.3477 27.1262 45.4376 27.7056 45.6011L27.6893 45.6665Z" fill="#BC7171"/>
<path d="M25.8949 48.9688C26.8251 48.9688 27.6492 49.3857 28.2041 50.0398C28.0491 51.8305 27.4371 53.6047 26.1723 55.0356C26.0825 55.0356 25.9928 55.0519 25.8949 55.0519C24.2302 55.0519 22.8594 53.6947 22.8594 52.0103V51.9776C22.8839 50.3097 24.2384 48.9688 25.8949 48.9688Z" fill="#BC7171"/>
<path d="M21.2852 24.3086V27.4319C21.2852 28.315 20.5672 29.0345 19.6859 29.0345H12.6439C11.7708 29.0345 11.0527 28.315 11.0527 27.4319V24.3086H21.2852Z" fill="#BC7171"/>
<path d="M21.2852 21.7077V24.3077H11.0527V21.7077C11.0527 20.8328 11.7708 20.1133 12.6439 20.1133H19.6859C20.5672 20.1133 21.2852 20.8328 21.2852 21.7077Z" fill="#BC7171"/>
<path d="M11.9086 40.4336C13.4671 40.4336 14.7319 41.6928 14.7319 43.2544C14.7319 44.0312 14.4136 44.7343 13.9077 45.2576C13.3937 45.7727 12.6837 46.0834 11.9086 46.0834H7.4043V40.4336H11.9086Z" fill="#BC7171"/>
<path d="M7.49405 36.344H7.4043V34.7578H7.49405H76.7633V36.344H7.49405Z" fill="#BC7171"/>
<path d="M75.2211 51.9773H32.5449C32.5286 48.9439 30.4886 46.3847 27.7061 45.5997C27.1267 45.4362 26.5229 45.3463 25.8946 45.3463C22.239 45.3463 19.2769 48.3143 19.2525 51.9773H11.4026C9.19947 51.9773 7.4043 50.1703 7.4043 47.9627V46.0822H11.9086C12.6837 46.0822 13.3937 45.7714 13.9077 45.2563C14.4136 44.7331 14.7319 44.0299 14.7319 43.2531C14.7319 41.6915 13.4671 40.4323 11.9086 40.4323H7.4043V36.3441H76.7633V34.7579H7.4043V24.3086H11.0518V27.4319C11.0518 28.315 11.7698 29.0345 12.6429 29.0345H19.6849C20.5662 29.0345 21.2843 28.315 21.2843 27.4319V24.3086H24.8746V27.4319C24.8746 28.315 25.5927 29.0345 26.4658 29.0345H33.5078C34.389 29.0345 35.1071 28.315 35.1071 27.4319V24.3086H38.4282V27.4319C38.4282 28.315 39.1463 29.0345 40.0194 29.0345H47.0695C47.9426 29.0345 48.6607 28.315 48.6607 27.4319V24.3086H52.251V27.4319C52.251 28.315 52.9691 29.0345 53.8422 29.0345H60.8842C61.7655 29.0345 62.4835 28.315 62.4835 27.4319V24.3086H65.5924V27.4319C65.5924 28.315 66.3105 29.0345 67.1836 29.0345H74.2256C75.1069 29.0345 75.8249 28.315 75.8249 27.4319V24.3086H80.4598V27.0313C80.4598 28.1351 81.3573 29.0345 82.4426 29.0345H92.006V29.754C92.006 30.6861 92.006 30.5717 93.2218 30.5717H100.068C102.222 30.5717 103.985 32.3377 103.985 34.5045V34.7579H101.667C100.892 34.7579 100.19 35.0768 99.6681 35.6001C99.1541 36.107 98.844 36.8102 98.844 37.587C98.844 39.1486 100.117 40.4323 101.667 40.4323H103.985V48.0445C103.985 50.203 102.222 51.9773 100.068 51.9773H93.1402C93.1402 48.9766 91.1655 46.4337 88.4401 45.6079C87.8281 45.4117 87.1753 45.3136 86.4981 45.3136C82.8261 45.3136 79.8559 48.2979 79.8559 51.9773H75.2211Z" fill="#BC7171"/>
<path d="M103.984 34.7578V40.424H101.667C100.125 40.424 98.8438 39.1485 98.8438 37.5868C98.8438 36.8101 99.162 36.1069 99.6761 35.6C100.19 35.0767 100.892 34.7578 101.667 34.7578H103.984Z" fill="#E2E2E2"/>
<path d="M92.0068 24.3086V29.0345H82.4516C81.3582 29.0345 80.4688 28.1351 80.4688 27.0313V24.3086H92.0068Z" fill="#C2E8F2"/>
<path d="M92.0068 16.7227V24.3103H80.4688V18.7095C80.4688 17.6221 81.3582 16.7227 82.4516 16.7227H92.0068Z" fill="#9FC9D3"/>
<path d="M92.006 15.8466V16.7215H82.4508C81.3574 16.7215 80.4679 17.6209 80.4679 18.7083V24.3091H75.8249V21.709C75.8249 20.8342 75.1069 20.1146 74.2338 20.1146H67.1918C66.3105 20.1146 65.5924 20.8342 65.5924 21.709V24.3091H62.4917V21.709C62.4917 20.8342 61.7736 20.1146 60.8924 20.1146H53.8504C52.9773 20.1146 52.2592 20.8342 52.2592 21.709V24.3091H48.6688V21.709C48.6688 20.8342 47.9508 20.1146 47.0695 20.1146H40.0275C39.1544 20.1146 38.4363 20.8342 38.4363 21.709V24.3091H35.1071V21.709C35.1071 20.8342 34.389 20.1146 33.5159 20.1146H26.474C25.5927 20.1146 24.8746 20.8342 24.8746 21.709V24.3091H21.2843V21.709C21.2843 20.8342 20.5662 20.1146 19.6931 20.1146H12.6511C11.7698 20.1146 11.0518 20.8342 11.0518 21.709V24.3091H7.4043V15.8466C7.4043 13.639 9.20763 11.832 11.4108 11.832H87.9995C90.2027 11.832 92.006 13.639 92.006 15.8466Z" fill="#E5B765"/>
<path d="M88.4481 45.6094C91.1735 46.4352 93.1482 48.978 93.1482 51.9706C93.1482 55.6499 90.178 58.6343 86.506 58.6343C85.1841 58.6343 83.9601 58.25 82.9238 57.5877L82.9483 57.5468C84.7108 56.9745 86.0246 56.0669 86.9711 54.9794C88.4236 54.7587 89.5415 53.4995 89.5415 51.9787C89.5415 51.3001 89.3212 50.6705 88.9377 50.1636C89.0764 48.6183 88.8724 47.0566 88.4318 45.6666L88.4481 45.6094Z" fill="#4F4A41"/>
<path d="M86.9707 54.9799C88.162 53.5899 88.7659 51.8893 88.9372 50.1641C89.3207 50.671 89.5411 51.3006 89.5411 51.9792C89.5411 53.5 88.4232 54.7592 86.9707 54.9799Z" fill="#CCCAC6"/>
<path d="M79.8555 51.968C79.8555 48.2969 82.8338 45.3125 86.5058 45.3125C87.183 45.3125 87.8358 45.4106 88.4478 45.6068L88.4315 45.6641C88.8721 47.0541 89.0761 48.6157 88.9374 50.1611C88.3825 49.417 87.5013 48.9346 86.5058 48.9346C84.8248 48.9346 83.4703 50.2919 83.4703 51.9762C83.4703 53.6605 84.8248 55.0178 86.5058 55.0178C86.6608 55.0178 86.824 55.0014 86.9709 54.9769C86.0243 56.0644 84.7106 56.9719 82.9481 57.5443L82.9236 57.5852C81.0795 56.3996 79.8555 54.3228 79.8555 51.968Z" fill="#8E8C87"/>
<path d="M86.5062 48.9375C87.5017 48.9375 88.383 49.4199 88.9378 50.1639C88.7665 51.8892 88.1626 53.5898 86.9713 54.9798C86.8244 55.0043 86.6612 55.0207 86.5062 55.0207C84.8252 55.0207 83.4707 53.6552 83.4707 51.9791C83.4707 50.3029 84.8252 48.9375 86.5062 48.9375Z" fill="#E2E2E2"/>
<path d="M75.8243 24.3086V27.4319C75.8243 28.315 75.1062 29.0345 74.2331 29.0345H67.1911C66.3099 29.0345 65.5918 28.315 65.5918 27.4319V24.3086H75.8243Z" fill="#C2E8F2"/>
<path d="M75.8243 21.7077V24.3077H65.5918V21.7077C65.5918 20.8328 66.3099 20.1133 67.1911 20.1133H74.2331C75.1062 20.1133 75.8243 20.8328 75.8243 21.7077Z" fill="#9FC9D3"/>
<path d="M62.4923 24.3086V27.4319C62.4923 28.315 61.7742 29.0345 60.8929 29.0345H53.8509C52.9778 29.0345 52.2598 28.315 52.2598 27.4319V24.3086H62.4923Z" fill="#C2E8F2"/>
<path d="M62.4923 21.7077V24.3077H52.2598V21.7077C52.2598 20.8328 52.9778 20.1133 53.8509 20.1133H60.8929C61.7742 20.1133 62.4923 20.8328 62.4923 21.7077Z" fill="#9FC9D3"/>
<path d="M48.668 24.3086V27.4319C48.668 28.315 47.95 29.0345 47.0687 29.0345H40.0267C39.1536 29.0345 38.4355 28.315 38.4355 27.4319V24.3086H48.668Z" fill="#C2E8F2"/>
<path d="M48.668 21.7077V24.3077H38.4355V21.7077C38.4355 20.8328 39.1536 20.1133 40.0267 20.1133H47.0687C47.95 20.1133 48.668 20.8328 48.668 21.7077Z" fill="#9FC9D3"/>
<path d="M35.1075 24.3086V27.4319C35.1075 28.315 34.3894 29.0345 33.5163 29.0345H26.4743C25.5931 29.0345 24.875 28.315 24.875 27.4319V24.3086H35.1075Z" fill="#C2E8F2"/>
<path d="M35.1075 21.7077V24.3077H24.875V21.7077C24.875 20.8328 25.5931 20.1133 26.4743 20.1133H33.5163C34.3894 20.1133 35.1075 20.8328 35.1075 21.7077Z" fill="#9FC9D3"/>
<path d="M32.5534 51.9709V52.0118C32.5534 55.683 29.5751 58.6673 25.9031 58.6673C24.5404 58.6673 23.2756 58.2585 22.2148 57.5472C23.9447 56.983 25.2422 56.1 26.1805 55.037C27.7309 54.898 28.9386 53.598 28.9386 52.0118V51.9709C28.9304 51.2351 28.6612 50.5564 28.2124 50.0331C28.3266 48.5369 28.1226 47.0161 27.6983 45.667L27.7146 45.6016C30.4971 46.3865 32.5371 48.9375 32.5534 51.9709Z" fill="#4F4A41"/>
<path d="M26.1797 55.0352C27.4445 53.5961 28.0565 51.83 28.2115 50.0312C28.6603 50.5545 28.9296 51.2332 28.9377 51.969V52.0099C28.9377 53.5961 27.7301 54.8962 26.1797 55.0352Z" fill="#CCCAC6"/>
<path d="M27.6971 45.6665C28.1214 47.0156 28.3254 48.5364 28.2112 50.0327C27.6563 49.3868 26.824 48.9698 25.9019 48.9698C24.2455 48.9698 22.8828 50.3107 22.8664 51.9705V52.0114C22.8664 53.6957 24.2373 55.053 25.9019 55.053C25.9998 55.053 26.0896 55.0448 26.1793 55.0366C25.241 56.0995 23.9435 56.9826 22.2136 57.5467C20.4348 56.353 19.2598 54.3171 19.2598 52.0114V51.9705C19.2761 48.3075 22.2463 45.3477 25.9019 45.3477C26.5302 45.3477 27.1341 45.4376 27.7134 45.6011L27.6971 45.6665Z" fill="#8E8C87"/>
<path d="M25.9027 48.9688C26.8247 48.9688 27.657 49.3857 28.2119 50.0317C28.0569 51.8305 27.4449 53.5965 26.1801 55.0356C26.0903 55.0438 26.0006 55.0519 25.9027 55.0519C24.238 55.0519 22.8672 53.6947 22.8672 52.0103V51.9695C22.8835 50.3097 24.2462 48.9688 25.9027 48.9688Z" fill="#E2E2E2"/>
<path d="M21.2852 24.3086V27.4319C21.2852 28.315 20.5672 29.0345 19.6941 29.0345H12.6521C11.7708 29.0345 11.0527 28.315 11.0527 27.4319V24.3086H21.2852Z" fill="#C2E8F2"/>
<path d="M21.2852 21.7077V24.3077H11.0527V21.7077C11.0527 20.8328 11.7708 20.1133 12.6521 20.1133H19.6941C20.5672 20.1133 21.2852 20.8328 21.2852 21.7077Z" fill="#9FC9D3"/>
<path d="M11.9167 40.4258C13.4753 40.4258 14.74 41.6931 14.74 43.2548C14.74 44.0315 14.4218 44.7347 13.9159 45.258C13.4018 45.7649 12.6919 46.0838 11.9167 46.0838H7.4043V40.4258H11.9167Z" fill="#FF8585"/>
<path d="M7.50221 34.7578H76.7715V36.344H7.50221H7.4043V34.7578H7.50221Z" fill="#4F4A41"/>
<path d="M7.4043 47.9627V46.0821H11.9167C12.6919 46.0821 13.4018 45.7633 13.9159 45.2563C14.4218 44.7331 14.74 44.0299 14.74 43.2531C14.74 41.6915 13.4753 40.4241 11.9167 40.4241H7.4043V36.3441H76.7715V34.7579H7.4043V24.3086H11.0518V27.4319C11.0518 28.315 11.7698 29.0345 12.6511 29.0345H19.6931C20.5662 29.0345 21.2843 28.315 21.2843 27.4319V24.3086H24.8746V27.4319C24.8746 28.315 25.5927 29.0345 26.474 29.0345H33.5159C34.389 29.0345 35.1071 28.315 35.1071 27.4319V24.3086H38.4363V27.4319C38.4363 28.315 39.1544 29.0345 40.0275 29.0345H47.0695C47.9508 29.0345 48.6688 28.315 48.6688 27.4319V24.3086H52.2592V27.4319C52.2592 28.315 52.9773 29.0345 53.8504 29.0345H60.8924C61.7736 29.0345 62.4917 28.315 62.4917 27.4319V24.3086H65.5924V27.4319C65.5924 28.315 66.3105 29.0345 67.1918 29.0345H74.2338C75.1069 29.0345 75.8249 28.315 75.8249 27.4319V24.3086H80.4679V27.0313C80.4679 28.1351 81.3574 29.0345 82.4508 29.0345H92.006V29.754C92.006 30.678 92.006 30.5635 93.23 30.5635H100.076C102.23 30.5635 103.985 32.3377 103.985 34.4963V34.7579H101.667C100.892 34.7579 100.19 35.0768 99.6763 35.6001C99.1622 36.107 98.844 36.8102 98.844 37.5869C98.844 39.1486 100.125 40.4241 101.667 40.4241H103.985V48.0363C103.985 50.203 102.23 51.9691 100.076 51.9691H93.1484C93.1484 48.9766 91.1737 46.4337 88.4483 45.6079C87.8363 45.4117 87.1835 45.3136 86.5062 45.3136C82.8343 45.3136 79.8559 48.2979 79.8559 51.9691H32.5531C32.5367 48.9357 30.4968 46.3847 27.7143 45.5997C27.1349 45.4362 26.5311 45.3463 25.9028 45.3463C22.2471 45.3463 19.2769 48.3061 19.2606 51.9691H11.4108C9.20763 51.9691 7.4043 50.1621 7.4043 47.9627Z" fill="#FFD16C"/>
<path d="M89.5176 51.6602V51.6523" stroke="#3F2A25" stroke-width="0.5" stroke-linecap="round" stroke-linejoin="round"/>
<path d="M32.5527 51.9609H75.2208H79.8556" stroke="#3F2A25" stroke-width="0.5" stroke-linecap="round" stroke-linejoin="round"/>
<path d="M19.2606 51.9622H11.4108C9.20763 51.9622 7.4043 50.1552 7.4043 47.9476V15.831C7.4043 13.6234 9.20763 11.8164 11.4108 11.8164H87.9995C90.2027 11.8164 92.006 13.6234 92.006 15.831V29.7307C92.006 30.6628 92.006 30.5484 93.23 30.5484" stroke="#3F2A25" stroke-width="0.5" stroke-linecap="round" stroke-linejoin="round"/>
<path d="M93.2297 30.5547H100.076C102.23 30.5547 103.993 32.329 103.993 34.4875V48.0275C103.993 50.186 102.238 51.9603 100.076 51.9603H93.1562" stroke="#3F2A25" stroke-width="0.5" stroke-linecap="round" stroke-linejoin="round"/>
<path d="M79.8555 51.9609H75.2207" stroke="#3F2A25" stroke-width="0.5" stroke-linecap="round" stroke-linejoin="round"/>
<path d="M92.0052 16.707H82.45C81.3566 16.707 80.459 17.6064 80.459 18.7021V27.0255C80.459 28.1294 81.3566 29.0288 82.45 29.0288H92.0052" stroke="#3F2A25" stroke-width="0.5" stroke-linecap="round" stroke-linejoin="round"/>
<path d="M60.8851 20.0977H53.8513C52.968 20.0977 52.252 20.8151 52.252 21.7002V27.4155C52.252 28.3005 52.968 29.018 53.8513 29.018H60.8851C61.7684 29.018 62.4845 28.3005 62.4845 27.4155V21.7002C62.4845 20.8151 61.7684 20.0977 60.8851 20.0977Z" stroke="#3F2A25" stroke-width="0.5" stroke-linecap="round" stroke-linejoin="round"/>
<path d="M47.0609 20.0977H40.0271C39.1438 20.0977 38.4277 20.8151 38.4277 21.7002V27.4155C38.4277 28.3005 39.1438 29.018 40.0271 29.018H47.0609C47.9442 29.018 48.6602 28.3005 48.6602 27.4155V21.7002C48.6602 20.8151 47.9442 20.0977 47.0609 20.0977Z" stroke="#3F2A25" stroke-width="0.5" stroke-linecap="round" stroke-linejoin="round"/>
<path d="M33.5082 20.0977H26.4743C25.5911 20.0977 24.875 20.8151 24.875 21.7002V27.4155C24.875 28.3005 25.5911 29.018 26.4743 29.018H33.5082C34.3915 29.018 35.1075 28.3005 35.1075 27.4155V21.7002C35.1075 20.8151 34.3915 20.0977 33.5082 20.0977Z" stroke="#3F2A25" stroke-width="0.5" stroke-linecap="round" stroke-linejoin="round"/>
<path d="M19.6859 20.0977H12.6521C11.7688 20.0977 11.0527 20.8151 11.0527 21.7002V27.4155C11.0527 28.3005 11.7688 29.018 12.6521 29.018H19.6859C20.5692 29.018 21.2852 28.3005 21.2852 27.4155V21.7002C21.2852 20.8151 20.5692 20.0977 19.6859 20.0977Z" stroke="#3F2A25" stroke-width="0.5" stroke-linecap="round" stroke-linejoin="round"/>
<path d="M7.50195 46.0682H11.9165C12.6916 46.0682 13.4016 45.7493 13.9156 45.2424C14.4215 44.7191 14.7398 44.0159 14.7398 43.2392C14.7398 41.6775 13.475 40.4102 11.9165 40.4102H7.50195" stroke="#3F2A25" stroke-width="0.5" stroke-linecap="round" stroke-linejoin="round"/>
<path d="M103.993 40.4162H101.667C100.117 40.4162 98.8438 39.1407 98.8438 37.579C98.8438 36.8023 99.162 36.0991 99.6679 35.584C100.174 35.0689 100.892 34.75 101.667 34.75H103.993" stroke="#3F2A25" stroke-width="0.5" stroke-linecap="round" stroke-linejoin="round"/>
<path d="M28.9374 51.9549V51.9957C28.9374 53.6801 27.5829 55.0373 25.9019 55.0373C24.221 55.0373 22.8664 53.6801 22.8664 51.9957V51.9549M25.9019 45.332C22.2463 45.332 19.2842 48.2919 19.2598 51.9549V51.9957C19.2598 55.6669 22.2381 58.6513 25.9019 58.6513C29.5657 58.6513 32.5522 55.6669 32.5522 51.9957V51.9549C32.5359 48.2919 29.5657 45.332 25.9019 45.332Z" stroke="#3F2A25" stroke-width="0.5" stroke-linecap="round" stroke-linejoin="round"/>
<path d="M86.4976 58.6157C90.166 58.6157 93.1398 55.636 93.1398 51.9602C93.1398 48.2845 90.166 45.3047 86.4976 45.3047C82.8293 45.3047 79.8555 48.2845 79.8555 51.9602C79.8555 55.636 82.8293 58.6157 86.4976 58.6157Z" stroke="#3F2A25" stroke-width="0.5" stroke-linecap="round" stroke-linejoin="round"/>
<path d="M22.8594 51.9616C22.8757 50.3019 24.2384 48.9609 25.8949 48.9609C27.5513 48.9609 28.914 50.3019 28.9303 51.9616" stroke="#3F2A25" stroke-width="0.5" stroke-linecap="round" stroke-linejoin="round"/>
<path d="M86.4984 55.0051C88.1748 55.0051 89.5338 53.6433 89.5338 51.9635C89.5338 50.2836 88.1748 48.9219 86.4984 48.9219C84.8219 48.9219 83.4629 50.2836 83.4629 51.9635C83.4629 53.6433 84.8219 55.0051 86.4984 55.0051Z" stroke="#3F2A25" stroke-width="0.5" stroke-linecap="round" stroke-linejoin="round"/>
<path d="M74.225 20.0977H67.1911C66.3079 20.0977 65.5918 20.8151 65.5918 21.7002V27.4155C65.5918 28.3005 66.3079 29.018 67.1911 29.018H74.225C75.1082 29.018 75.8243 28.3005 75.8243 27.4155V21.7002C75.8243 20.8151 75.1082 20.0977 74.225 20.0977Z" stroke="#3F2A25" stroke-width="0.5" stroke-linecap="round" stroke-linejoin="round"/>
<path d="M7.50195 34.75H76.7631V36.328H7.50195" stroke="#3F2A25" stroke-width="0.5" stroke-linecap="round" stroke-linejoin="round"/>
</svg>
