<svg width="105" height="42" viewBox="0 0 105 42" fill="none" xmlns="http://www.w3.org/2000/svg">
<path d="M28.0796 19.1706C27.1796 19.1106 26.3196 19.0606 25.5096 19.0006C22.7596 18.8006 20.5996 18.5706 19.2396 18.3206C16.0696 17.7506 14.5096 15.4106 14.5496 13.3706C23.7196 17.3306 85.9396 17.3306 91.1096 12.6406C91.5996 14.8006 90.0696 17.6806 86.5096 18.3206C85.1496 18.5706 82.9896 18.8006 80.2396 19.0006C79.4296 19.0606 78.5696 19.1106 77.6696 19.1706C71.0496 19.5706 62.0496 19.8306 52.9696 19.8306H52.7796C43.6996 19.8306 34.6996 19.5706 28.0796 19.1706Z" fill="#BC7171"/>
<path d="M88.2588 10.1692C89.8788 10.3792 90.8288 11.3892 91.1088 12.6392C85.9388 17.3292 23.7188 17.3292 14.5488 13.3692C14.5788 11.7992 15.5588 10.4292 17.4888 10.1692C18.7988 9.98923 35.5888 10.8492 52.7788 10.9292H52.9688C70.1588 10.8492 86.9488 9.98923 88.2588 10.1692Z" fill="#BC7171"/>
<path d="M79.1397 23.4375C80.2197 23.4375 81.0997 24.3175 81.0997 25.3975C81.0997 26.4775 80.2197 27.3475 79.1397 27.3475C78.0597 27.3475 77.1797 26.4775 77.1797 25.3975C77.1797 24.3175 78.0597 23.4375 79.1397 23.4375Z" fill="#BC7171"/>
<path d="M80.2399 19V20.98C79.8899 20.9 79.5199 20.85 79.1399 20.85C78.6199 20.85 78.1299 20.94 77.6699 21.09V19.17C78.5699 19.11 79.4299 19.06 80.2399 19Z" fill="#BC7171"/>
<path d="M77.1799 29.4678C81.3899 29.7078 83.9199 25.0678 81.4799 21.5078C82.7999 22.2978 83.6899 23.7478 83.6899 25.3978C83.6899 27.9078 81.6499 29.9478 79.1399 29.9478C78.4299 29.9478 77.7699 29.7878 77.1699 29.4878V29.4678H77.1799Z" fill="#BC7171"/>
<path d="M81.0998 25.3977C81.0998 24.3177 80.2198 23.4377 79.1398 23.4377C78.0598 23.4377 77.1798 24.3177 77.1798 25.3977C77.1798 26.4777 78.0598 27.3477 79.1398 27.3477C80.2198 27.3477 81.0998 26.4777 81.0998 25.3977ZM81.4799 21.5077C83.9199 25.0677 81.3898 29.7077 77.1798 29.4677V29.4877C75.6398 28.7677 74.5898 27.1977 74.5898 25.3977C74.5898 23.4077 75.8798 21.7077 77.6698 21.0877C78.1298 20.9377 78.6198 20.8477 79.1398 20.8477C79.5198 20.8477 79.8898 20.8977 80.2398 20.9877C80.6798 21.0977 81.0999 21.2677 81.4799 21.5077Z" fill="#BC7171"/>
<path d="M28.7001 21.3594C30.1601 22.1094 31.1602 23.6394 31.1602 25.3994C31.1602 27.9094 29.1302 29.9494 26.6102 29.9494C25.9102 29.9494 25.2502 29.7894 24.6602 29.4994C28.8802 29.7394 31.1601 24.9194 28.7001 21.3594Z" fill="#BC7171"/>
<path d="M26.6102 23.4375C27.6902 23.4375 28.5702 24.3175 28.5702 25.3975C28.5702 26.4775 27.6902 27.3475 26.6102 27.3475C25.5302 27.3475 24.6602 26.4775 24.6602 25.3975C24.6602 24.3175 25.5302 23.4375 26.6102 23.4375Z" fill="#BC7171"/>
<path d="M26.6098 20.85C26.2298 20.85 25.8598 20.9 25.5098 20.98V19C26.3198 19.06 27.1798 19.11 28.0798 19.17V21.09C27.6198 20.93 27.1198 20.85 26.6098 20.85Z" fill="#BC7171"/>
<path d="M24.6605 25.3977C24.6605 26.4777 25.5305 27.3477 26.6105 27.3477C27.6905 27.3477 28.5705 26.4777 28.5705 25.3977C28.5705 24.3177 27.6905 23.4377 26.6105 23.4377C25.5305 23.4377 24.6605 24.3177 24.6605 25.3977ZM24.6605 29.4977C23.1205 28.7777 22.0605 27.2077 22.0605 25.3977C22.0605 23.2677 23.5305 21.4777 25.5105 20.9777C25.8605 20.8977 26.2305 20.8477 26.6105 20.8477C27.1205 20.8477 27.6205 20.9277 28.0805 21.0877C28.2905 21.1577 28.5005 21.2477 28.7005 21.3577C31.1605 24.9177 28.8805 29.7377 24.6605 29.4977Z" fill="#BC7171"/>
<path d="M80.2396 18.9989C79.4296 19.0589 78.5696 19.1089 77.6696 19.1689C71.0496 19.5689 62.0496 19.8289 52.9696 19.8289H52.7796C43.6996 19.8289 34.6996 19.5689 28.0796 19.1689C27.1796 19.1089 26.3196 19.0589 25.5096 18.9989C22.7596 18.7989 20.5996 18.5689 19.2396 18.3189C16.0696 17.7489 14.5096 15.4089 14.5496 13.3689C23.7196 17.3289 85.9396 17.3289 91.1096 12.6289C91.6096 14.7889 90.0696 17.6789 86.5096 18.3189C85.1496 18.5689 82.9896 18.7989 80.2396 18.9989Z" fill="#C6944A"/>
<path d="M88.2588 10.1692C89.8688 10.3792 90.8188 11.3892 91.1088 12.6292C85.9388 17.3292 23.7188 17.3292 14.5488 13.3692C14.5788 11.7992 15.5588 10.4292 17.4888 10.1692C18.7988 9.98923 35.5888 10.8492 52.7788 10.9292H52.9688C70.1588 10.8492 86.9488 9.98923 88.2588 10.1692Z" fill="#F4BA5B"/>
<path d="M79.1397 23.4375C80.2197 23.4375 81.0897 24.3175 81.0897 25.3975C81.0897 26.4775 80.2197 27.3475 79.1397 27.3475C78.0597 27.3475 77.1797 26.4775 77.1797 25.3975C77.1797 24.3175 78.0597 23.4375 79.1397 23.4375Z" fill="#E2E2E2"/>
<path d="M77.6699 19.17C78.5699 19.11 79.4299 19.06 80.2399 19V20.98C79.8899 20.9 79.5199 20.85 79.1399 20.85C78.6299 20.85 78.1299 20.93 77.6699 21.09V19.17Z" fill="#4F4A41"/>
<path d="M81.4799 21.5078C82.7999 22.2878 83.6899 23.7378 83.6899 25.3978C83.6899 27.9078 81.6499 29.9378 79.1399 29.9378C78.4299 29.9378 77.7699 29.7778 77.1699 29.4878V29.4678C81.3899 29.6978 83.9199 25.0678 81.4799 21.5078Z" fill="#4F4A41"/>
<path d="M77.1798 25.3977C77.1798 26.4777 78.0598 27.3477 79.1398 27.3477C80.2198 27.3477 81.0898 26.4777 81.0898 25.3977C81.0898 24.3177 80.2198 23.4377 79.1398 23.4377C78.0598 23.4377 77.1798 24.3177 77.1798 25.3977ZM81.4799 21.5077C83.9199 25.0677 81.3898 29.6977 77.1798 29.4677V29.4877C75.6398 28.7577 74.5898 27.2077 74.5898 25.3977C74.5898 23.3877 75.8798 21.6977 77.6698 21.0877C78.1298 20.9277 78.6298 20.8477 79.1398 20.8477C79.5198 20.8477 79.8898 20.8977 80.2398 20.9877C80.6798 21.0977 81.0999 21.2677 81.4799 21.5077Z" fill="#8E8C87"/>
<path d="M31.1599 25.4011C31.1599 27.9111 29.1199 29.9411 26.6099 29.9411C25.9099 29.9411 25.2599 29.7811 24.6699 29.5011C28.8699 29.7211 31.1499 24.9211 28.7099 21.3711C30.1599 22.1211 31.1599 23.6411 31.1599 25.4011Z" fill="#4F4A41"/>
<path d="M26.6104 23.4375C27.6904 23.4375 28.5704 24.3175 28.5704 25.3975C28.5704 26.4775 27.6904 27.3475 26.6104 27.3475C25.5304 27.3475 24.6504 26.4775 24.6504 25.3975C24.6504 24.3175 25.5304 23.4375 26.6104 23.4375Z" fill="#E2E2E2"/>
<path d="M26.6098 20.85C26.2298 20.85 25.8598 20.9 25.5098 20.98V19C26.3198 19.06 27.1798 19.11 28.0798 19.17V21.09C27.6198 20.94 27.1298 20.85 26.6098 20.85Z" fill="#4F4A41"/>
<path d="M25.5105 20.9777C25.8605 20.8977 26.2305 20.8477 26.6105 20.8477C27.1305 20.8477 27.6205 20.9377 28.0805 21.0877C28.3005 21.1677 28.5105 21.2577 28.7105 21.3677C31.1505 24.9177 28.8705 29.7177 24.6705 29.4977C23.1305 28.7777 22.0605 27.2177 22.0605 25.3977C22.0605 23.2577 23.5305 21.4677 25.5105 20.9777ZM28.5705 25.3977C28.5705 24.3177 27.6905 23.4377 26.6105 23.4377C25.5305 23.4377 24.6505 24.3177 24.6505 25.3977C24.6505 26.4777 25.5305 27.3477 26.6105 27.3477C27.6905 27.3477 28.5705 26.4777 28.5705 25.3977Z" fill="#8E8C87"/>
<path d="M52.9407 10.9407C35.6807 10.8707 18.7707 10.0007 17.4607 10.1807C13.0207 10.7607 13.6107 17.3307 19.2107 18.3307C23.9107 19.1807 38.3507 19.8407 52.9407 19.8407" stroke="#3F2A25" stroke-width="0.5" stroke-linecap="round" stroke-linejoin="round"/>
<path d="M26.591 29.9594C29.1039 29.9594 31.141 27.9223 31.141 25.4094C31.141 22.8965 29.1039 20.8594 26.591 20.8594C24.0781 20.8594 22.041 22.8965 22.041 25.4094C22.041 27.9223 24.0781 29.9594 26.591 29.9594Z" stroke="#3F2A25" stroke-width="0.5" stroke-linecap="round" stroke-linejoin="round"/>
<path d="M26.5909 27.3692C27.6733 27.3692 28.5509 26.4917 28.5509 25.4092C28.5509 24.3267 27.6733 23.4492 26.5909 23.4492C25.5084 23.4492 24.6309 24.3267 24.6309 25.4092C24.6309 26.4917 25.5084 27.3692 26.5909 27.3692Z" stroke="#3F2A25" stroke-width="0.5" stroke-linecap="round" stroke-linejoin="round"/>
<path d="M25.4902 19.0117V20.9917" stroke="#3F2A25" stroke-width="0.5" stroke-linecap="round" stroke-linejoin="round"/>
<path d="M28.0508 19.1719V21.1019" stroke="#3F2A25" stroke-width="0.5" stroke-linecap="round" stroke-linejoin="round"/>
<path d="M52.7598 19.8407C67.3498 19.8407 81.7898 19.1807 86.4898 18.3307C92.0898 17.3307 92.6798 10.7607 88.2398 10.1807C86.9298 10.0007 70.0198 10.8707 52.7598 10.9407" stroke="#3F2A25" stroke-width="0.5" stroke-linecap="round" stroke-linejoin="round"/>
<path d="M79.1105 29.9594C81.6234 29.9594 83.6606 27.9223 83.6606 25.4094C83.6606 22.8965 81.6234 20.8594 79.1105 20.8594C76.5977 20.8594 74.5605 22.8965 74.5605 25.4094C74.5605 27.9223 76.5977 29.9594 79.1105 29.9594Z" stroke="#3F2A25" stroke-width="0.5" stroke-linecap="round" stroke-linejoin="round"/>
<path d="M79.1104 27.3692C80.1929 27.3692 81.0704 26.4917 81.0704 25.4092C81.0704 24.3267 80.1929 23.4492 79.1104 23.4492C78.0279 23.4492 77.1504 24.3267 77.1504 25.4092C77.1504 26.4917 78.0279 27.3692 79.1104 27.3692Z" stroke="#3F2A25" stroke-width="0.5" stroke-linecap="round" stroke-linejoin="round"/>
<path d="M80.2109 19.0117V20.9917" stroke="#3F2A25" stroke-width="0.5" stroke-linecap="round" stroke-linejoin="round"/>
<path d="M77.6504 19.1719V21.1019" stroke="#3F2A25" stroke-width="0.5" stroke-linecap="round" stroke-linejoin="round"/>
</svg>
