<svg xmlns="http://www.w3.org/2000/svg" width="162" height="167" fill="#be78ff" xmlns:v="https://vecta.io/nano"><path d="M120.811 9.089c-1.205-.256-1.408-1.443-1.882-2.266-.514-.917-.934-1.699-2.22-1.484l-.271-2.225c-.122-.984-.257-1.079-1.205-1.025-.582.04-1.164 0-1.895 0-.379.539-.785 1.416-1.895.85-.136-.067-.501.283-.88.499l-1.002-3.439c-.921.162-.989.701-.907 1.241.135.836 0 1.537-.461 2.293-.297.499-.325 1.241-.284 1.875l.921 13.351c.04.593-.041 1.187.054 1.767l.582 2.805v-1.389c.108 0 .217.027.325.04l-.339 1.322c.027.485.149.985.055 1.443-.569 2.819-.501 5.651-.298 8.496.081 1.241-.379 1.659-1.598 1.686-.623.014-1.259.135-1.882.189-.365.027-.798.135-1.11 0-1.313-.62-2.626-.418-3.966-.175l.013-.014-1.543 2.36c.609 1.335.839 2.886 2.193 3.776h-.027c.122.014.244.014.365.014l-.027-.027v.364-.027.351c.393.162.84.256 1.178.499l4.996 3.844c.46.364 1.191.62 1.083 1.618l-2.072-.769.028-.027c.284.256.541.54.852.755 1.381.944 2.139 2.117 1.571 3.844-.068.202-.054.431-.027.647.487 3.21-.257 6.433.122 9.656.094.796-.068 1.605-.109 2.414-.121 2.562.515 5.03.921 7.525l.514 4.14c.136.769.285 1.672.772 2.212.745.809 1.706 1.524 2.721 1.956.582.243 1.571.054 2.139-.31 1.53-.984 3.195-1.537 4.928-1.956.366-.081.758-.27 1.097-.202 1.503.27 2.626-.418 3.601-1.389 2.234-2.185 4.562-4.302 6.146-7.067.176-.31.488-.553.88-.957l2.193 1.322 7.663 5.138c2.017 1.2 4.129 2.279 6.674 2.252 1.53-.013 3.074.499 4.617.701.501.067 1.056-.027 1.557-.162l2.924-.877c.366-.108.758-.148 1.083-.324 2.532-1.389 2.965-2.778 1.435-4.572-.203-.243-.338-.553-.555-.796l-3.615-4.275.312 1.645-.054.634v.418c.961.728 1.462 1.726 1.895 3.061-1.07-.998-1.273-1.349-1.882-3.088v-.378l.068-.661-1.016-.27v-.027c-.216.553-.446.486-.676 0l.027.027-.677-.351.027.027.65-.351h-.027c-.068-.688-.38-1.214-.989-1.564v-.027l.068.958c-.366-.162-.677-.202-.772-.364-1.096-1.794-2.667-3.318-3.168-5.462l-.298-.701a39.09 39.09 0 0 0-.663-.957l-.311-.54c.04-.014.094-.04.135-.054l.149.607.663.957.312.701 1.164.769.244-.162-2.085-3.695c-1.828-3.007-3.899-5.894-5.158-9.211l.013.014-.013-2.279c-.108-.229-.203-.472-.312-.701-.23.121-.473.243-.704.378a2.97 2.97 0 0 1-.162-.216l.866-1.065.028-.081-.041.067v.931c.108.229.203.472.311.701l1.517-.877-.84-2.077-.027.027c.298-.175.447-.809.975-.324l.013-.014c-.013.243-.04.472-.054.715.109.041.217.095.325.135.312-.513.677-.985.934-1.524.447-.944 1.029-1.74 2.004-2.198l-.014.014c.082-.243.068-.634.244-.728.934-.539 1.286-1.457 1.53-2.387.65-2.509 1.922-4.626 3.628-6.554.853-.958 1.503-2.09 2.207-3.169.176-.283.203-.661.325-1.052-.813-.243-1.232.202-1.679.566h-.027c.501.094.812.324.474.85-.393.634-.84 1.254-1.435 2.117l-.352-2.009v.027c-.799 0-1.598 0-2.396.04-1.287.054-2.573.148-3.656.216-.799-.499-1.435-.958-2.112-1.335l-3.966-2.09c-.677-.364-1.246-.108-1.828.202-1.232.661-2.464 1.335-3.723 1.942-.718.351-1.489.58-2.126.836-.988-.499-1.015-1.942-2.315-1.753h.014l-.501 1.065c-1.435-1.888-2.125-3.965-3.425-5.637l-.014.081.041-.067c-.731-1.173-1.543-2.293-2.18-3.52-.866-1.686-1.611-3.453-2.369-5.098a17.97 17.97 0 0 0-.244.836c-.812-.593-1.069-1.416-1.502-2.104-.434-.674-.799-1.389-1.205-2.077l.027.027-.352-.351.013.027.014.04zm-12.997 30.735v-.337c.149 0 .285-.014.434-.027-.041.121-.082.229-.109.351v.364l.474.202a1.41 1.41 0 0 0-.068.108l-.379-.337c-.108-.108-.216-.216-.338-.31l-.014-.014zm25.357 1.618l-.027-.027h-.311c-.632-.656-.727-1.263-.284-1.821.663.553.419 1.214.27 1.848h.352zm13.633-.027h.014c.108-.189.203-.405.311-.62.122-.108.23-.229.352-.337l.027-.081-.054.054-.338.337-.312.634v.014zm1.3-2.266h.013l.041-.054-.054.054zm-.677-.904l.014-.014v-.378.405l-.014-.014zm-24.017 23.25l-.04.041.054-.027s.068-.067.095-.108c-.041.027-.068.054-.109.094zm9.396-12.34v.108l.013-.081v-.931c-.338.486-.663.998-1.029 1.443-.501.607-1.042 1.173-1.57 1.767-.041.566-.257.985-.853 1.119-.514-1.052-.433-1.389.555-2.374.122-1.308.772-2.347 1.774-3.196l-.176.917 1.475-1.2-.149 1.511.312.998a1.95 1.95 0 0 0 .135.229c-.04-.081-.068-.162-.108-.243l-.379-.04v-.027zm12.712 21.403c-.068-.054-.149-.094-.217-.148l.204.162h.013v-.014zm-25.655-42.684c.095-.243.203-.472.298-.715 0-.647-.054-1.322.907-1.524.46.863.853 1.767.555 2.738-.271.89-.744 1.713-1.11 2.549l-.365-3.79c-.095.243-.203.485-.298.715-.027.081-.054.162-.054.189a.81.81 0 0 1 .081-.162h-.014zm36.716 42.32l-.081-.094c-.082-.148 0-.013.054.108.203.04.392.081.595.108l-.419.351c-.054-.162-.095-.324-.149-.486v.013zm-26.332-3.183l-.013-.013-.366.809c-.068-.054-.149-.108-.217-.162.203-.216.407-.418.596-.634zm-.311 3.884l-.027-.027c-.136.445-.258.903-.907.877-.041-.755.406-.863.92-.85h.014zm-4.536 3.83l-1.665 1.645.027.027c.136-.944.569-1.591 1.625-1.645l.04.108-.027-.121v-.013zm14.595-13.217c.839.553 1.624 1.146 1.814 2.643l-4.089-3.345.988-.27c-.279-.944-.04-1.555.718-1.834.663.836.934 1.753.569 2.805zm-12.022-10.384c-.122 1.025-.84.917-1.395.553-.839-.539-1.706-1.133-1.76-2.347-.013-.418-.298-.809-.46-1.214-.217.742-.284 1.416-1.259 1.092h.013c-.203.013-.514.148-.568.081-1.029-1.214-1.544-3.628.149-4.869l1.678.661c-.094-.566-.365-.931-.663-1.268-.298-.364-.609-.715-.92-1.065-.312-.809-.556-1.618-.028-2.454v2.468c.055-.148.149-.31.149-.459-.054-2.131 1.259-2.913 3.114-3.196.379-.054.745-.148 1.11-.243.813-.189 1.489-.094 1.95.715.122.229.365.391.541.58l-.027-.027c.569.958 1.07 1.956 1.706 2.846.542.742.582 1.538.244 2.239-.664 1.376-1.503 2.67-2.261 3.992h.013c-.027.89-.717 1.376-1.299 1.928h-.014l-.013-.014zm-10.75-7.444c-.135-.391-1.218-.351-.474-1.146.149-.148.028-.674-.121-.944-.19-.337-.542-.593-.867-.944.772-.634 1.381-.472 2.031-.108.284 1.119.217 2.131-.555 3.142h-.014zm5.172-14.754c.135-.04.271-.067.406-.108l1.151 2.01c.23.431.447.917-.176 1.227-.582.297-1.246.027-1.354-.661-.122-.809-.027-1.645-.027-2.468zm-6.322-.27c1.056 3.547 1.069 4.181.094 4.734-.582-1.47-.135-2.926-.094-4.734zm3.885 14.403c.095 0 .19-.027.271-.027v.863h-.271v-.823-.014zm-1.977-21.672c-.162-.189-.27-.27-.311-.378-.027-.067.054-.175.095-.27.108.054.298.081.325.162.04.094-.041.243-.109.485zm1.882 10.924l-.27-.081c.067-.189.135-.378.216-.566l.203.067c-.04.189-.095.378-.135.566l-.014.014zm-2.586-.243h.244v.89h-.284l.04-.904v.014zm-3.005-3.453c-.081 0-.149 0-.23-.014l.04-.634c.082 0 .149 0 .231.014l-.041.634zm20.768 15.186c-.204.108-.325.229-.461.243-.081 0-.23-.202-.216-.297 0-.108.149-.216.243-.324l.447.378h-.013zm-17.532-17.708s-.122.108-.176.162c-.027-.04-.095-.094-.082-.108.055-.067.109-.121.163-.175a.78.78 0 0 0 .108.121h-.013zm14.418 15.698l.027.094-.095-.027.068-.067zm-18.927 8.793l.109-.068v.135l-.109-.067zm30.989 18.962l.095.04-.081.054v-.108l-.014.013zM109.52 20.175s0-.094.014-.148c.054.041.108.081.135.135 0 .013-.041.067-.068.108-.027-.04-.054-.067-.081-.108v.013zM128 72.879c-.082.04-.149.081-.23.121-.014-.04-.055-.121-.041-.135.068-.054.149-.081.23-.121 0 .04.027.094.041.135zm-8.055-32.192l.067-.081.041.094h-.108v-.014zm-9.68-15.765v.243h-.122v-.243h.135-.013zm21.512 13.581l.081.054-.081.041v-.094zm.122 29.441v.094l-.068-.027.068-.067zm-17.749 2.481c0-.081 0-.148-.013-.229.027.041.094.068.094.108s-.04.081-.081.121z"/><path d="M61.379 108.806l-2.843-3.911L54 97.815l-3.466-6.392c-.569-1.092-1.015-2.252-1.503-3.385l-.014.013.514-1.119c.934 1.497 1.787 2.805 2.383 4.248.799 1.929 1.76 3.763 3.276 5.246h-.014c-.474-2.158-1.665-4.005-2.654-5.961-.23-.472-.406-.971-.596-1.457-.623-.998-1.34-1.969-1.828-3.034-.244-.526-.23-1.281-.054-1.861.284-.971.785-1.888 1.218-2.819l2.992-6.419c.325-.661.785-1.268 1.164-1.902l2.437-4.343c.284-.647-.041-1.551-.081-2.333l-.23.715-.217-.121.46-.566c-.054 0-.108-.04-.149-.027-.609.243-1.205.58-1.841.701-.609.121-1.273 0-1.909 0h.014l-.663 1.268.014.013c-.514-1.173-.988-1.443-2.058-.93-1.57.755-3.168 1.227-4.928 1.254-.528 0-1.056.459-1.557.755l-1.855 1.214.014-.013c-1.083 1.187-1.097 1.187-2.234.283a10.04 10.04 0 0 1-.704-.62l-.108.243-.244-.243-.663-1.983-.027.108.041-.094c-.785-.769-1.205-1.699-1.625-2.711-.731-1.821-1.814-3.506-2.653-5.3l-2.207-5.327c-.203-.539-.095-1.214-.135-2.144l1.137 1.605c1.801-1.443 1.381-3.088.853-5.003l-.866 1.079c.528.904.406 1.767-.135 2.98-.284-1.268-.108-2.131.162-2.994l-1.259-.472-.528.688c-.081-.054-.203-.094-.244-.175-.122-.229-.149-.634-.311-.701-1.421-.58-1.489-1.821-1.611-3.062-.122-1.227-.122-1.2-1.435-1.376-.406-.054-.799-.283-1.191-.432-1.07-.432-1.706-.324-2.41.607-.677.89-1.503 1.497-2.545 1.888-1.124.431-1.787 1.74-1.557 2.913.117.575-.077 1.038-.582 1.389l.921 7.552c.054.418.271.809.42 1.214h-.027l.095-.593 2.505 4.572.095-1.052.203.04-.311.984v.904l.054.121c.041.148 0 0-.041-.148l-.366.094h.014c-.839.93-.636 2.522-2.22 3.371l.271-.809.027.014c-1.015-.823-.149-1.672-.081-2.185l-1.151-3.277-.095 1.254c-.162 3.574.596 7.067.893 10.6.095 1.066.149 2.144.135 3.223 0 1.025-.271 1.322-1.367 1.416-1.557.135-3.127.148-4.684.243-1.097.067-2.274-.121-3.317.863.406.202.704.364 1.137.593-.298.202-.514.472-.758.513-2.518.31-5.036.539-7.446 1.389-1.218.431-2.437.877-3.561 1.483-1.394.742-1.503 1.753-.325 2.819 2.369 2.131 4.752 4.235 7.216 6.258l13.213 10.667c1.313 1.039 1.841 2.293 1.855 3.911 0 1.282.135 2.576.217 4.046l.839-.512c.623 1.065.541 5.246-.163 8.132l.014-.013c-.772.998-.745 1.132.311 1.375.23.054.447.175.677.256h-.014c.569-.148.691.324.961.648.988 1.2 1.611 1.146 2.45-.176 1.07-1.685 2.586-2.616 4.59-2.818.42-.041.866-.405 1.178-.742.352-.391.555-.917.853-1.362.582-.836 1.191-.971 2.085-.499.338.175.65.391.948.62 2.437 1.781 4.942 3.493 7.297 5.368 2.518 1.996 5.388 3.385 8.123 5.017 1.015.607 2.071 1.16 3.087 1.766 1.245.756 2.532.756 3.967.351-.135-.256-.23-.418-.325-.593.068-.068.149-.189.217-.189.893-.081 1.652-.378 2.342-.985.691-.593 1.489-1.078 2.261-1.551.812-.485 1.476-1.078 1.868-1.942l-.014.014c.311-.202.596-.445.934-.593 1.097-.486 1.313-.931 1.11-2.118-.528-3.088-1.977-5.731-3.777-8.226-.311-.432-.582-.904-.934-1.309-.487-.539-1.056-1.011-1.57-1.537-.447-.459-.853-.944-1.273-1.416l.014.013.014.041zm-22.108.27l-.014.013h.014v-.013zM20.06 93.229l-.014.027.393-.027c.217-.337.474-.593.839-.202.054.054-.135.337-.217.512l.271.472c-.054.04-.108.094-.176.135l-.718-.593c-.122-.108-.244-.202-.366-.31l-.013-.013zm3.926-24.923l.014-.013h-.014v.013zM10.353 91.274l-.014.013h.014v-.013zm-.975-.661l-.338-.337c-.108-.108-.217-.216-.325-.337-1.178-.472-2.166-1.2-2.911-2.239l-.041-.135.041.135c1.232.418 2.125 1.254 2.911 2.252.108.108.217.216.325.337l.338.337.014-.014h-.014zm24.369-29.778l-.054-.054.027.081h.014l.014-.027zm3.899 21.012l-.054-.054.027.081h.014l.013-.027zm-21.444 10.02s-.027-.067-.041-.094c0 .041.014.081.027.108l.338.337c1.638.499 2.789 1.672 4.007 2.792l1.232 1.052.095.094-.068.067c-.041-.014-.068-.054-.095-.081l-1.354-.917-3.791-3.007-.338-.337-.014-.014zm.338 4.531l-.068-.094.041.108h.014l.013-.014zm30.529 0l.311.674c.041.081.081.148.122.229-.041-.081-.068-.162-.108-.243l-.311-.674-.014.013zm-5.835 11.315c0 .108-.014.216-.027.324 1.11.998 2.166 2.05 3.317 3.008 1.408 1.159 2.735 2.589 4.373 3.263 1.665.688 2.288 1.902 2.938 3.345-1.909-1.12-3.75-2.333-5.429-3.79h.014c-2.599-1.065-4.332-3.25-6.444-4.936-.176-.135-.244-.593-.163-.836.176-.499.623-.512 1.07-.364h.352v-.014zM22.01 55.98l.542.378-.203.175-.325-.58c-.054-.162-.122-.324-.176-.499.054 0 .108-.013.162-.027v.539.013zm20.524 59.164c-.46-.094-.907-.229-1.083-.917.677.108.934.459 1.069.931h.014v-.014zm5.496-16.83c.352.378.812.715 1.056 1.16.988 1.754 1.895 3.547 2.843 5.314.474.418 1.056.782 1.408 1.281 1.476 2.104 2.897 4.248 4.305 6.406.541.823 1.029 1.699 1.53 2.549-.528-.067-.907-.283-1.124-.607l-5.876-8.887c-.135-.216-.149-.499-.23-.756l-1.313-1.308.014.014-.975-1.794-1.638-3.398-.027.027h.027zm1.002 3.533c-.135-.081-.325-.135-.406-.243l-3.506-5.543c-.054-.081.081-.256.176-.553.325.337.623.566.799.863.745 1.227 1.489 2.468 2.18 3.736.311.553.501 1.173.745 1.767.054.013.108.027.149.054.027.013 0 .081 0 .121-.041-.067-.095-.121-.135-.189v-.013zm-4.562 4.221l2.004 2.05c-2.207-.189-4.698-1.821-5.28-3.304l2.654.62-1.367-1.551c-.772-.836-.799-1.213-.108-2.468.271.108.718.149.812.351.596 1.254 1.11 2.535 1.624 3.83.041.108-.217.324-.325.499l-.014-.027zm10.045-3.183c.352.324.785.607 1.029.998l6.525 10.668c.162.256.189.607.271.904l.054.094-.027-.108c-.298-.297-.677-.553-.88-.903l-6.945-11.653-.027-.081.014.108-.014-.027zM28.874 89.898l-.596-4.127c-.108-.836.46-1.308 1.015-1.969.704 1.875.582 3.668.542 5.395-.041 1.767.893 3.479.271 5.624-.311-.998-.433-1.686-.731-2.293-.42-.85-.569-1.726-.514-2.643h.014v.013zm-11.047-3.871c.582-.121 1.178.108 1.733-.499.42-.459 1.611 0 1.882.715.352.93.501 1.956.704 2.94.027.108-.257.27-.406.418v-.013c.054.337.271.769.122.971-.149.216-.718.378-.948.27-2.004-.998-4.075-1.915-5.74-3.466-.19-.175-.19-.539-.298-.89 1.164-.31 2.125-.189 3.019.418.393.27.826.485 1.246.728h-.014l-1.259-1.605h-.014l-.027.014zm10.262-8.24l-.23-2.616c.487.58.799 1.173 1.07 1.767.244.553-.041.769-.839.85zm-2.708 33.028h.149v2.347h-.149v-2.347zm-9.91-30.681l.325.459c-.122.067-.271.229-.366.202-.149-.054-.257-.216-.393-.337.108-.081.23-.162.433-.31v-.013zm7.162 6.163a2.88 2.88 0 0 0 .338-.027v1.011H22.7l-.068-.984zm12.59-22.037l.339-.121.135.715c-.068.014-.149.04-.217.054-.081-.216-.162-.432-.257-.647zM19.641 80.377l.271.081c-.054.081-.108.189-.176.216s-.176-.04-.271-.067c.054-.081.122-.148.176-.229zm2.166-9.859s.068.081.095.121c-.081.04-.162.094-.244.121-.014 0-.054-.081-.095-.121l.244-.121zm.934.121l.23-.04c0 .162-.027.324-.041.486h-.149c-.014-.148-.027-.283-.054-.432l.014-.013zm-1.53-17.761a.43.43 0 0 0 0 .135c-.013.027-.081.013-.122.027v-.216c.041.027.081.041.122.068v-.014zm2.437 19.285v.135c-.054-.027-.108-.067-.163-.094.027-.027.041-.067.068-.108a.41.41 0 0 0 .095.067zm11.399 16.372l-.027-.108.108.041-.081.081v-.014zM23.12 68.131c.054.067.095.108.135.162-.041 0-.081.013-.122.027 0-.04 0-.094-.014-.175v-.013zm.352-8.968v-.135l.095.081-.095.054zm10.154 2.751h-.081l.054-.094.041.094h-.014zm-11.819 39.097l-.027-.108.095.027-.081.081h.014zm1.692-43.413l.068.108h-.108l.041-.108zm-6.214 39.515l.041-.094.054.094h-.095z"/><path d="M121.772 119.784l-1.299-.984.027.027-.352-.351-1.936-.944.013-.027-.352-.351-.027.014c-.934-.176-1.435-.89-1.922-1.605l.014-.014c-.19.054-.474.216-.569.149l-2.071-1.753.013.013c-.69 0-.893-.432-.92-1.025h-.095l.081.027c.636-.148.542-.539.325-.971-.068-.054-.122-.121-.19-.175l.163.188c.433-.552.447-1.119-.122-1.564-3.195-2.468-5.889-5.57-9.612-7.336-1.611-.769-3.236-1.309-5.294-.729l2.261 2.576c-.068.095-.135.189-.217.27-.433-.243-.88-.472-1.3-.728-.514-.311-.988-.418-1.476.054-.691.66-1.327.539-1.977-.095-.528-.512-1.151-.512-1.8-.175-.325.175-.691.418-1.015.391-.948-.081-.867.823-1.381 1.295l-2.098-.284c.338.392.46.634.65.729.921.431 1.367 1.24 1.977 1.996 2.464 3.034 2.789 6.824 3.912 10.303 1.313 4.046 2.356 8.173 3.506 12.273l.081.31c.514 1.807.46 2.009-1.408 2.373-2.626.513-5.063 1.484-7.527 2.468-1.448.58-3.019.837-4.508 1.336-2.721.917-3.073 1.631-2.396 4.477.041.162.095.31.135.459l.027.027c.542.364 1.029.822 1.611 1.051 2.41.931 4.806 1.929 7.284 2.617 3.818 1.079 7.703 1.955 11.575 2.845 1.029.23 1.584.756 1.936 1.686.243.648.649 1.227.974 1.834l.014-.013c.162.769.216 1.591.501 2.306.947 2.333 1.963 4.639 2.978 6.945.745 1.659 1.963 2.94 3.412 4.006.65.472 1.462.647 2.139.27 1.503-.85 3.073-1.511 4.725-1.969 2.003-.567 3.425-1.956 4.765-3.453a.67.67 0 0 0-.135-.108c.013.027.067.081.108.135 1.191-.971 2.166-2.09 2.559-3.641.122-.459.406-.877.609-1.322.839-1.847 1.99-2.765 4.278-2.387 2.044.337 4.21.135 6.309-.04 2.234-.176 4.291-.904 6.106-2.374.852-.688 1.963-1.119 3.019-1.524 1.164-.458 2.26-.984 3.181-1.861.69-.661 1.53-1.16 2.301-1.726.732-.54 1.029-1.322.596-2.131-.934-1.767-2.044-3.412-3.682-4.653l-6.593-4.963-2.464-1.834c-.217-.162-.461-.297-.65-.485-1.191-1.174-1.598-1.902-.081-3.466l4.345 2.602-.013.014c-.921-.728-1.814-1.511-2.789-2.171-1.273-.85-1.421-1.133-.772-2.495.555-1.174 1.219-2.293 1.733-3.466.501-1.174.88-2.387 1.286-3.493-1.205-1.201-2.585-.216-3.777-.796.176-.31.325-.553.569-.957l-2.275.795-5.672 2.212a1.88 1.88 0 0 1-.474.108c-1.543.121-3.1.283-4.643.337-.434.013-.88-.31-1.327-.472l.013-.027-.162 1.025-2.464-1.618.027-.027-.366.971.014.013-1.3-.971c-.23-.013-.46-.013-.69-.013l.04.04zm-12.319 17.788l-.014.014h.014v-.014zm-5.524-6.5l-.013.014h.013v-.014zm9.098-12.637l-.325-.323c-.041 0-.081 0-.122-.027-.027-.014-.027-.054-.041-.095.055.041.095.081.149.122l.325.323.014-.013v.013zm-1.625-1.294l-.325-.324c-.595-.324-1.245-.566-1.787-.971-1.069-.809-2.058-1.699-3.086-2.549-.325-.283-.759-.512-.379-1.106l.365 1.133c.46.081 1.015.041 1.381.27 1.354.863 2.748 1.726 3.506 3.25a7.5 7.5 0 0 1 .325.337l.014-.013-.014-.027zm-16.909-3.884h.014c0-.108 0-.23.013-.351-.149-.27-.311-.539-.46-.796l.244-.081.203.891c0 .107 0 .215-.014.337zm16.259-.648a2.75 2.75 0 0 0-.027-.337c-.094-.216-.203-.418-.298-.634l-.013.014c.095.202.203.391.298.593a3.8 3.8 0 0 0 .013.378l.027-.027v.013zm28.282 12.367v-.094.081l-.041.067.054-.054h-.013zm-31.558 3.197l.054.067-.027-.094h-.013l-.014.027zm.664-19.758l-.068-.027.054.041h.014v-.014zm5.55 44.936l-.338-.93h-.014c.109.324.23.634.339.944l.027.081v-.095h-.014zm-3.276-13.877h.013c.095-.054.204-.135.298-.216.027.041.041.068.068.108-.122.041-.257.068-.379.095v.013zm-2.234-29.454c.081.121.149.243.054.081.054.189.014.054-.027-.094h-.095.082l-.014.013zm-5.212 19.151c-.19-.068-.379-.149-.582-.216.04-.081.095-.162.135-.23l.447.473c.054-.203.095-.392.189-.729.339.54.488.85-.189.702zm4.833-7.148c.487.27.812.62.406 1.268l-.379-1.295c-.081-.054-.149-.108-.23-.162.054-.027.122-.067.176-.094 0 .094 0 .188.014.283h.013zm-6.133 1.241c-.717-.648-.812-1.511-.934-2.374.108-.027.217-.067.325-.094l.582 2.481.041.243c0-.081-.014-.176-.027-.256h.013zm4.224-.648c-.731-.661-.717-1.524-.758-2.36.108-.027.203-.04.311-.067l.434 2.454.04.068v-.095h-.027zm9.382 18.827l-.013-.013c-.285-.189-.704-.324-.826-.594-.23-.526-.312-1.133-.447-1.699l-1.002-.931.393 2.63c-.88-1.146-1.449-3.142-1.368-4.059l.989 1.456c-.068-.863-.623-1.672-.285-2.67 1.219 1.308 1.53 2.239 1.246 3.587.88.513 1.042 1.43 1.313 2.293zm-12.685-30.776l.013.014-.5-.877c1.854.877 2.03 1.039 2.423 2.104l-1.936-1.241zm11.061 15.874l-.014-.014c.149.041.311.095.46.135.664.148 1.3.378 1.354 1.173.054.877-.799.904-1.313 1.187-.528.283-1.178.499-1.625-.094-1.096-1.416-1.557-3.062-1.638-4.869.772.364 1.408.796 1.828 1.511l.975.984-.027-.013zm8.122 11.301l-.324 1.322h-.014c-.284.431-.609.863-.866 1.322-.312.566-.569 1.159-.88 1.712-.731 1.335-1.72 1.403-2.586.189-.122-.175-.23-.364-.312-.566l-2.003-5.085c-.23-.593-.366-1.213-.596-2.009.975-.391 1.841-.769 2.748-1.079 1.07-.364 2.153-.661 3.236-.998l-.108-.027.094.054c.258-.054.528-.162.786-.148 1.611.094 2.477 1.524 1.827 2.98l-1.015 2.347.027-.027-.014.013zm16.598 7.229c-.555.189-1.029.499-1.475.458-.907-.054-1.801-.296-2.694-.485-.718-.148-1.273-.62-1.084-1.335.163-.607.704-1.12 1.124-1.646.054-.067.542.054.555.108.109.917.961.729 1.476.998.772.378 1.597.661 2.098 1.888v.014zM98.203 106.81c.948.135 1.963.688 2.519 1.443.216.284.23.715.446 1.416-1.489-.782-2.694-1.254-2.965-2.859zm2.668 20.027c-.109.041-.231.068-.339.108-.717-.957-1.083-2.94-.704-4.558l1.043 4.45zm-.84 12.381l-.162-.499.866-.297c.054.175.108.351.176.526l-.866.256-.014.014zm9.45-27.553c-.19.176-.325.351-.379.337-.163-.067-.312-.215-.461-.323.082-.108.19-.297.258-.283.176.027.325.148.582.283v-.014zm-3.439 12.624l.352-.162c.081.242.176.485.257.728-.081.04-.162.067-.243.108l-.366-.688v.014zm1.3 2.845c-.312-.175-.461-.229-.461-.27.014-.161.082-.323.122-.485l.339.769v-.014zm-5.849-20.486c-.067-.08-.135-.148-.203-.229.068-.04.149-.094.23-.108.027 0 .109.081.095.108-.027.081-.081.149-.122.229zm22.975 15.294c-.041-.068-.095-.135-.136-.216.041-.027.122-.067.122-.067a1.69 1.69 0 0 1 .135.202c-.04.027-.081.04-.121.067v.014zm-20.118-13.513s-.068.081-.108.067c-.041 0-.082-.04-.122-.067l.162-.122c.014.041.041.081.054.122h.014zm-1.205-.769l.108-.068v.135l-.108-.054v-.013zm5.903 17.6v.121l-.095-.041.095-.08zm-3.669-.203l-.054-.094h.094l-.04.094zm-85.955-75.86l-.921-1.389c-.203 1.011.244 1.511.609 2.036l-.014.027.352-.674h-.014-.014zm33.818 39.164l1.124 2.347.338-.189-1.476-2.131.014-.014v-.013zm2.6 10.034l.663.283v.027l-.975-1.888.014-.013c-.487.526-.406 1.052-.041 1.605.122.013.244.013.365.013l-.027-.027zm67.271-88.996l1.178 1.645c.054-.877-.461-1.322-1.192-1.618l.027-.027h-.013zM21.116 60.486c-.244.593-.42 1.187.244 1.753l-.257-1.74.027-.014h-.014zm99.384 56.372l1.299.702c-.198-.603-.636-.841-1.313-.715h.014v.013zm-2.531-2.333l-.556-.418-.257.283.569.445.244-.324v.014zm-11.142-67.539l-.84-1.254-.27.229 1.137.998s-.027.027-.014.027h-.013zm-85.44 21.011l.555-1.025c-.758.135-.447.661-.528 1.038l-.027-.014zm131.956-4.559l.948 1.578-.013.013-.962-1.578.027-.027v.014z"/><path d="M121.123 9.399h2.003l-.027.027c-.555-.715-1.272-.459-1.963-.337v-.027c.014.121.014.229.014.351l-.027-.027V9.4zm1.327 109.077l1.652 1.281-.027.027-1.638-1.294.013-.014zm-56.86-8.416l.988 1.564-.014.027-.988-1.564.013-.014v-.013zm84.152 27.513l.528.27.055-.203-.61-.053h.014l.013-.014zM20.183 60.376h-.122a.62.62 0 0 0 .014.136c0 .014.081 0 .122 0v-.136h-.014zm135.746-33.499l-1.313.984v-.027l1.3-.971h.027l-.014.014zm-2.612 36.588l-.542-.715c-.04.04-.081.067-.122.108l.691.58-.027.027zm-51.175 34.984l-.081-.081-.028.108.109-.027zm-2.815-62.981l.095-.095-.122-.027.027.122zM42.493 69.952l-.541.27c.027.054.041.121.068.175l.474-.175-.014.014v-.31l.014.014v.013zM20.737 46.823s-.095 0-.122.014c-.027.027-.027.081-.041.122.068 0 .136 0 .203-.014 0-.041-.027-.081-.027-.122h-.014zm98.139 68.739l.095.068c.135.054 0 0-.122-.054l.013-.014h.014zm7.811 4.842c-.108-.054-.217-.095-.068-.027-.162-.027-.027 0 .095 0l-.013.027h-.014zm-5.565-1.604l-.974-.324.352.351-.027-.027h.663-.014zM30.931 44.585l.027-.122-.108.041.081.081zm125.296 23.412l-.663-.661h.027v.674l-.027-.027h.677v.027l-.014-.014zM19.113 49.845c.108 0 .217.014.325.027h-.352v-.027h.027zm4.211 15.589l-.081-.176a1.14 1.14 0 0 0 .108.163l-.014.014h-.014z"/><path d="M121.123 9.089a2.42 2.42 0 0 1-.149-.256l-.163.256-.013-.027h.352l-.014.027h-.013zM30.471 45.691l.041.93h-.014l-.027-.917v-.027.014zm27.646 53.365v.23s.041-.068.027-.095c0-.041-.027-.067-.054-.108l.014-.014.014-.014zm3.235 9.737l.041-.081-.014.095-.027-.014zm-4.847-10.115l.014.095-.027-.068.014-.027zm10.06 12.947l.298.674-.014.013-.284-.674.014-.027-.014.014zm88.01-45.853l-.297-.728.013-.014.298.728-.014.027v-.014zM56.139 93.553l.081.068-.068-.054-.014-.014zM41.518 66.042l-.027-.067.054.053-.027.013zm25.709 46.621l.298.607v.013l-.311-.607.014-.013zm46.829.917l.054.067-.081-.081.027.014zM19.438 49.872v-.674h.014v.674h-.014zm23.407 19.702l.068-.027-.054.041-.014-.014zM145.18 47.929l-.298.674-.014-.013.312-.661z"/><path d="M30.458 45.704l-.014-.095.027.081-.014.013zm91.992 74.08h-.677v-.013h.69l-.013.013zM42.846 70.6l-.366-.364.014-.014.366.364-.014.013zm-.366-.661l.366-.364.014.013-.366.364-.014-.014zm13.673 23.628l-.014-.081v.068l.014.014zm-.975 2.885l.352.351-.013.014-.352-.351.014-.014zm2.6 2.267l.339.351-.014.013-.352-.337.014-.014.014-.013zm9.084 13.58l.365.364-.013.014-.366-.364.014-.014zm85.791-60.485l-.041-.027.041.027zm-38.624 61.753c-.108 0-.23.027-.338.04h-.014c.122-.027.257-.027.379-.04h-.027z"/><path d="M113.69 113.608l-.366.364-.013-.014.365-.364.014.014zm6.796 3.25l-.054-.013.068.013h-.014zm-2.274.673l-.352-.35.027-.014.352.351v.027l-.027-.014zM101.33 41.456c-.014.108-.014.216 0 .324v-.351l.027.027h-.027z"/><path d="M101.317 41.105v.351l-.027-.027h.352v.027-.364l.027.027h-.366.027l-.013-.013zm48.385-.93c.108 0 .23-.027.338-.027l.014.014a3.53 3.53 0 0 0-.379.027h.013l.014-.014zm-4.535 90.924l-.325-.324.013-.013.325.337-.013.013v-.013zm-13.62-83.196l-1.638 2.279.041 1.295-.014-.013.325.04 1.3-3.601h-.014zm8.448 13.62l-.352-.351.352.351zm-.975-.647l-.352-.351.352.351z"/><path d="M129.57 51.8l.352-.351s.014.014.027.014l-.352.351-.013-.014h-.014zm-21.768-12.314v.351h.352l-.352-.351zM19.113 87.714l1.34 1.511.271-.283-1.638-1.214.014-.013h.014zm2.599 1.982l-.014-.081v.054l.014.027zm19.508 18.085h-.352l.352.351v-.351zM20.399 93.216v.351h.691l-.691-.351zm92.303 32.381l-.054.027.04-.027h.014z"/></svg>